<?xml version="1.0" encoding="UTF-8" standalone="no"?>
<!-- Created with Inkscape (http://www.inkscape.org/) -->

<svg
   xmlns:dc="http://purl.org/dc/elements/1.1/"
   xmlns:cc="http://creativecommons.org/ns#"
   xmlns:rdf="http://www.w3.org/1999/02/22-rdf-syntax-ns#"
   xmlns:svg="http://www.w3.org/2000/svg"
   xmlns="http://www.w3.org/2000/svg"
   xmlns:xlink="http://www.w3.org/1999/xlink"
   xmlns:sodipodi="http://sodipodi.sourceforge.net/DTD/sodipodi-0.dtd"
   xmlns:inkscape="http://www.inkscape.org/namespaces/inkscape"
   width="256"
   height="256"
   id="svg2"
   version="1.1"
   inkscape:version="0.48.4 r9939"
   sodipodi:docname="starry09.svg"
   inkscape:export-filename="starry.png"
   inkscape:export-xdpi="60.476192"
   inkscape:export-ydpi="60.476192">
  <defs
     id="defs4">
    <linearGradient
       id="linearGradient4625">
      <stop
         style="stop-color:#9c4a13;stop-opacity:1;"
         offset="0"
         id="stop4627" />
      <stop
         style="stop-color:#552200;stop-opacity:1;"
         offset="1"
         id="stop4629" />
    </linearGradient>
    <linearGradient
       id="linearGradient4270">
      <stop
         style="stop-color:#27a027;stop-opacity:1;"
         offset="0"
         id="stop4272" />
      <stop
         style="stop-color:#2beb2b;stop-opacity:1;"
         offset="1"
         id="stop4274" />
    </linearGradient>
    <linearGradient
       id="linearGradient5121">
      <stop
         style="stop-color:#e82ae8;stop-opacity:1;"
         offset="0"
         id="stop5123" />
      <stop
         style="stop-color:#ab378e;stop-opacity:1;"
         offset="1"
         id="stop5125" />
    </linearGradient>
    <linearGradient
       id="linearGradient4587">
      <stop
         style="stop-color:#ffdb00;stop-opacity:1;"
         offset="0"
         id="stop4589" />
      <stop
         style="stop-color:#ff6600;stop-opacity:1;"
         offset="1"
         id="stop4591" />
    </linearGradient>
    <linearGradient
       id="linearGradient4428">
      <stop
         style="stop-color:#404040;stop-opacity:1;"
         offset="0"
         id="stop4430" />
      <stop
         style="stop-color:#636363;stop-opacity:1;"
         offset="1"
         id="stop4432" />
    </linearGradient>
    <linearGradient
       id="linearGradient4414">
      <stop
         style="stop-color:#b9a165;stop-opacity:1;"
         offset="0"
         id="stop4416" />
      <stop
         style="stop-color:#978045;stop-opacity:1;"
         offset="1"
         id="stop4418" />
    </linearGradient>
    <linearGradient
       id="linearGradient3925">
      <stop
         style="stop-color:#ffffff;stop-opacity:1;"
         offset="0"
         id="stop3927" />
      <stop
         style="stop-color:#d5d5d5;stop-opacity:1;"
         offset="1"
         id="stop3929" />
    </linearGradient>
    <linearGradient
       id="linearGradient3861">
      <stop
         style="stop-color:#161688;stop-opacity:1;"
         offset="0"
         id="stop3863" />
      <stop
         style="stop-color:#1717ac;stop-opacity:1;"
         offset="1"
         id="stop3865" />
    </linearGradient>
    <linearGradient
       id="linearGradient3079">
      <stop
         style="stop-color:#d40000;stop-opacity:1;"
         offset="0"
         id="stop3081" />
      <stop
         style="stop-color:#ff0d00;stop-opacity:1;"
         offset="1"
         id="stop3083" />
    </linearGradient>
    <linearGradient
       id="linearGradient3071">
      <stop
         style="stop-color:#fff000;stop-opacity:1;"
         offset="0"
         id="stop3073" />
      <stop
         style="stop-color:#ffcc00;stop-opacity:1;"
         offset="1"
         id="stop3075" />
    </linearGradient>
    <radialGradient
       inkscape:collect="always"
       xlink:href="#linearGradient3071"
       id="radialGradient3907"
       cx="532.20038"
       cy="177.71259"
       fx="532.20038"
       fy="177.71259"
       r="69.003609"
       gradientTransform="matrix(0.9990308,0.04401675,-0.04928387,1.1185762,75.184005,-55.361323)"
       gradientUnits="userSpaceOnUse" />
    <radialGradient
       inkscape:collect="always"
       xlink:href="#linearGradient3925"
       id="radialGradient4145"
       gradientUnits="userSpaceOnUse"
       gradientTransform="matrix(-1.4510666,-1.4897576,3.2585121,-3.1738567,448.17659,1515.4599)"
       cx="456.21127"
       cy="216.91385"
       fx="456.21127"
       fy="216.91385"
       r="42" />
    <radialGradient
       inkscape:collect="always"
       xlink:href="#linearGradient3925"
       id="radialGradient4169"
       cx="607.24139"
       cy="228.16756"
       fx="607.24139"
       fy="228.16756"
       r="23.700668"
       gradientTransform="matrix(1.3027334,0,0,0.52251417,-179.27791,116.51455)"
       gradientUnits="userSpaceOnUse" />
    <radialGradient
       inkscape:collect="always"
       xlink:href="#linearGradient3861"
       id="radialGradient4171"
       cx="616.19501"
       cy="232.33742"
       fx="616.19501"
       fy="232.33742"
       r="23.115305"
       gradientTransform="matrix(1.2963054,-0.12925413,0.09862658,0.98913795,-198.23165,85.163814)"
       gradientUnits="userSpaceOnUse" />
    <radialGradient
       inkscape:collect="always"
       xlink:href="#linearGradient3861"
       id="radialGradient4193"
       gradientUnits="userSpaceOnUse"
       gradientTransform="matrix(1.2963054,-0.12925413,0.09862658,0.98913795,-198.23165,85.163814)"
       cx="616.19501"
       cy="232.33742"
       fx="616.19501"
       fy="232.33742"
       r="23.115305" />
    <radialGradient
       inkscape:collect="always"
       xlink:href="#linearGradient3925"
       id="radialGradient4195"
       gradientUnits="userSpaceOnUse"
       gradientTransform="matrix(1.3027334,0,0,0.52251417,-179.27791,116.51455)"
       cx="607.24139"
       cy="228.16756"
       fx="607.24139"
       fy="228.16756"
       r="23.700668" />
    <linearGradient
       inkscape:collect="always"
       xlink:href="#linearGradient3079"
       id="linearGradient4517"
       x1="581.16241"
       y1="157.24892"
       x2="587.12347"
       y2="172.24892"
       gradientUnits="userSpaceOnUse" />
    <radialGradient
       inkscape:collect="always"
       xlink:href="#linearGradient3071"
       id="radialGradient4859"
       gradientUnits="userSpaceOnUse"
       gradientTransform="matrix(0.63529918,0.45672657,-0.48853271,0.67954101,615.23982,99.714894)"
       cx="168.57047"
       cy="276.2543"
       fx="168.57047"
       fy="276.2543"
       r="108.0136" />
    <linearGradient
       inkscape:collect="always"
       xlink:href="#linearGradient4428"
       id="linearGradient4861"
       gradientUnits="userSpaceOnUse"
       x1="569.92804"
       y1="328.6384"
       x2="577.35266"
       y2="385.56049" />
    <linearGradient
       inkscape:collect="always"
       xlink:href="#linearGradient4587"
       id="linearGradient4863"
       gradientUnits="userSpaceOnUse"
       x1="635.54486"
       y1="388.39685"
       x2="655.91925"
       y2="388.39685" />
    <linearGradient
       inkscape:collect="always"
       xlink:href="#linearGradient4428"
       id="linearGradient4865"
       gradientUnits="userSpaceOnUse"
       x1="571.75"
       y1="259.36218"
       x2="587.25"
       y2="303.61218" />
  </defs>
  <sodipodi:namedview
     id="base"
     pagecolor="#ffffff"
     bordercolor="#666666"
     borderopacity="1.0"
     inkscape:pageopacity="0.0"
     inkscape:pageshadow="2"
     inkscape:zoom="0.5"
     inkscape:cx="526.18109"
     inkscape:cy="93.52451"
     inkscape:document-units="px"
     inkscape:current-layer="layer1"
     showgrid="false"
     inkscape:window-width="1600"
     inkscape:window-height="829"
     inkscape:window-x="0"
     inkscape:window-y="24"
     inkscape:window-maximized="1"
     showguides="true"
     inkscape:guide-bbox="true" />
  <metadata
     id="metadata7">
    <rdf:RDF>
      <cc:Work
         rdf:about="">
        <dc:format>image/svg+xml</dc:format>
        <dc:type
           rdf:resource="http://purl.org/dc/dcmitype/StillImage" />
        <dc:title></dc:title>
      </cc:Work>
    </rdf:RDF>
  </metadata>
  <g
     inkscape:label="Layer 1"
     inkscape:groupmode="layer"
     id="layer1"
     transform="translate(0,-796.36218)">
    <g
       id="g4836"
       transform="translate(-453.10294,574.84215)">
      <path
         sodipodi:nodetypes="sssssssssss"
         inkscape:connector-curvature="0"
         transform="matrix(0.64584187,0.44169276,-0.44169276,0.64584187,601.453,110.81217)"
         style="fill:#000000;fill-opacity:1;stroke:none"
         inkscape:transform-center-x="11.678817"
         inkscape:transform-center-y="0.49909187"
         d="m 232.88362,366.63501 c -8.39578,7.37622 -57.89582,-31.17617 -69.06788,-30.88872 -12.34896,0.31773 -61.93774,38.60159 -72.559681,32.29508 -9.609637,-5.70548 8.457337,-64.08723 4.731597,-74.62367 -4.118216,-11.64637 -56.253168,-47.64779 -53.53768,-59.69867 2.456694,-10.9024 62.799784,-11.16815 71.669214,-17.96748 9.80376,-7.51558 31.6599,-70.27528 43.9601,-71.41663 11.12796,-1.03257 28.74942,58.17009 37.95677,64.50431 10.17727,7.00149 72.60064,9.03532 77.4871,20.38081 4.42076,10.26424 -46.46687,39.6279 -49.64584,50.342 -3.51386,11.84274 18.28651,78.91973 9.0063,87.07297 z"
         id="path4695" />
      <path
         id="path4690"
         d="m 590.41897,442.96342 c -8.68037,1.05552 -20.62126,-42.20704 -27.96361,-46.95601 -8.11582,-5.24925 -55.55203,-0.92693 -59.62658,-9.69157 -3.68624,-7.92935 33.76896,-32.65467 36.01659,-41.10518 2.4844,-9.3407 -16.28496,-53.11955 -9.2084,-59.70311 6.40214,-5.95612 41.49162,22.02535 50.22309,21.55162 9.65125,-0.52362 45.48737,-31.90276 53.93548,-27.20698 7.64298,4.24826 -8.12574,46.26708 -4.97702,54.42481 3.4804,9.01708 44.3977,33.40256 42.54236,42.88826 -1.67853,8.5817 -46.51361,6.56929 -53.29906,12.08477 -7.50025,6.09649 -18.04808,52.54669 -27.64285,53.71339 z"
         inkscape:transform-center-y="0.49909187"
         inkscape:transform-center-x="11.678817"
         style="fill:url(#radialGradient4859);fill-opacity:1;stroke:none"
         inkscape:connector-curvature="0" />
      <path
         transform="translate(-9.5,-6)"
         d="m 636.5,339.86218 c 0,9.94113 -8.05887,18 -18,18 -9.94113,0 -18,-8.05887 -18,-18 0,-9.94112 8.05887,-18 18,-18 9.94113,0 18,8.05888 18,18 z"
         sodipodi:ry="18"
         sodipodi:rx="18"
         sodipodi:cy="339.86218"
         sodipodi:cx="618.5"
         id="path4697"
         style="fill:#000000;fill-opacity:1;stroke:none"
         sodipodi:type="arc" />
      <path
         sodipodi:type="arc"
         style="fill:#ffffff;fill-opacity:1;stroke:none"
         id="path4699"
         sodipodi:cx="618.5"
         sodipodi:cy="339.86218"
         sodipodi:rx="18"
         sodipodi:ry="18"
         d="m 636.5,339.86218 c 0,9.94113 -8.05887,18 -18,18 -9.94113,0 -18,-8.05887 -18,-18 0,-9.94112 8.05887,-18 18,-18 9.94113,0 18,8.05888 18,18 z"
         transform="matrix(0.86111112,0,0,0.84722223,76.402779,45.673389)" />
      <path
         transform="matrix(0.50000001,0,0,0.4888889,299.75,168.40734)"
         d="m 636.5,339.86218 c 0,9.94113 -8.05887,18 -18,18 -9.94113,0 -18,-8.05887 -18,-18 0,-9.94112 8.05887,-18 18,-18 9.94113,0 18,8.05888 18,18 z"
         sodipodi:ry="18"
         sodipodi:rx="18"
         sodipodi:cy="339.86218"
         sodipodi:cx="618.5"
         id="path4701"
         style="fill:#000000;fill-opacity:1;stroke:none"
         sodipodi:type="arc" />
      <path
         sodipodi:type="arc"
         style="fill:#ffffff;fill-opacity:1;stroke:none"
         id="path4703"
         sodipodi:cx="618.5"
         sodipodi:cy="339.86218"
         sodipodi:rx="18"
         sodipodi:ry="18"
         d="m 636.5,339.86218 c 0,9.94113 -8.05887,18 -18,18 -9.94113,0 -18,-8.05887 -18,-18 0,-9.94112 8.05887,-18 18,-18 9.94113,0 18,8.05888 18,18 z"
         transform="matrix(0.33333335,0,0,0.32222224,396.33334,220.05104)" />
      <path
         inkscape:connector-curvature="0"
         id="path4734"
         d="m 630.96875,280.40625 c -14.54354,3.88895 -26.19093,15.07582 -39.32624,22.3895 -5.24356,3.34317 -11.99401,7.5511 -17.98626,3.548 -14.03523,-6.02188 -26.05457,-17.19997 -41.09375,-20.65625 -5.09762,-0.15187 -3.35221,7.34731 -3.125,10.46875 2.10409,16.30039 9.89592,31.794 10.5625,48.28125 -2.52104,8.21359 -11.13741,12.7902 -16.8439,18.80183 -6.72413,6.93862 -16.30181,12.42725 -19.56235,21.91692 0.56097,2.68445 4.68306,3.8869 6.65625,3.78125 9.08601,-14.35918 25.54364,-22.41206 35.1875,-36.3125 1.23935,-10.12413 -3.83373,-20.10456 -5.85699,-29.97763 -1.88927,-9.5517 -6.57564,-19.62322 -3.89301,-29.39737 3.26933,-5.35047 10.73911,-0.75993 14.875,0.875 12.52203,5.62158 23.55381,15.3557 36.6875,19 11.23418,-2.90764 20.06209,-11.54585 30.02628,-17.20072 5.45808,-3.8933 12.43201,-6.99159 17.62997,-10.11178 0.0352,-2.43485 -0.56349,-6.2542 -3.9375,-5.40625 z"
         style="fill:#fee800;fill-opacity:1;stroke:none" />
      <path
         sodipodi:nodetypes="cccccccccccc"
         inkscape:connector-curvature="0"
         style="fill:#000000;fill-opacity:1;stroke:none"
         d="m 643.64369,294.15901 c -19.63927,5.0521 -39.26952,11.79086 -59.77145,21.15625 -0.009,-0.33357 -2.15539,-1.54389 -2.15257,-1.88388 l -42.42586,8.35263 c 0.46962,1.41814 0.64813,3.53433 0.97948,4.92586 -3.63825,0.95394 -7.13635,2.37872 -11.3652,5.10447 l 1.76961,5.66237 c 4.27567,-2.91805 7.51725,-3.02059 11.29289,-2.43842 2.09219,7.75505 7.83109,14.68723 27.14277,18.73928 18.13758,-10.71033 18.72257,-19.54676 17.07934,-28.66421 17.6108,-10.61538 32.80717,-21.53283 57.44118,-25.125 z"
         id="path4716" />
      <path
         id="path4705"
         d="m 642.40625,295.75 c -19.63927,5.0521 -39.62307,11.79086 -60.125,21.15625 -0.009,-0.33357 -0.0341,-0.66001 -0.0312,-1 L 540.5313,323.375 c 0.46962,1.41814 0.8249,2.82722 1.15625,4.21875 -3.63825,0.95394 -7.4899,2.5555 -11.71875,5.28125 l 1.0625,3.1875 c 4.27567,-2.91805 8.22436,-3.55092 12,-2.96875 2.09219,7.75505 6.06332,14.51045 25.375,18.5625 18.13758,-10.71033 16.42448,-18.13255 14.78125,-27.25 17.6108,-10.61538 34.92849,-21.53283 59.5625,-25.125 l -0.3438,-3.53125 z"
         style="fill:url(#linearGradient4861);fill-opacity:1;stroke:none"
         inkscape:connector-curvature="0" />
      <path
         sodipodi:nodetypes="ccccccc"
         inkscape:connector-curvature="0"
         id="path4718"
         d="m 608.78767,382.65625 c -5.78595,8.16023 -17.7722,5.71646 -24.47288,2.29254 -9.82186,-5.1788 -19.65854,3.98329 -19.65854,3.98329 l 0.63045,0.65911 c 0,0 8.00655,-5.59096 17.25137,-0.71642 7.64054,3.56124 22.78758,3.07817 27.1093,-5.84598 z"
         style="font-size:medium;font-style:normal;font-variant:normal;font-weight:normal;font-stretch:normal;text-indent:0;text-align:start;text-decoration:none;line-height:normal;letter-spacing:normal;word-spacing:normal;text-transform:none;direction:ltr;block-progression:tb;writing-mode:lr-tb;text-anchor:start;baseline-shift:baseline;color:#000000;fill:#000000;fill-opacity:1;stroke:none;stroke-width:1px;marker:none;visibility:visible;display:inline;overflow:visible;enable-background:accumulate;font-family:Sans;-inkscape-font-specification:Sans" />
      <path
         sodipodi:nodetypes="csscsc"
         inkscape:connector-curvature="0"
         id="path4724"
         d="m 596,418.86218 c 0,0 -12.75,-2 -15.25,3.25 -2.5,5.25 10.75,14.25 11.5,21.25 0.75,7 -2.25,14.75 -2.25,14.75 0,0 5.9555,-1.08984 11,-8.75 6.75,-10.25 9.75,-23 -5,-30.5 z"
         style="fill:#000000;stroke:none" />
      <path
         sodipodi:nodetypes="cscc"
         inkscape:connector-curvature="0"
         id="path4726"
         d="m 584.36998,369.76962 c 0,0 -0.69403,-7.07785 12.88067,-1.61849 7.99159,3.214 17.35337,-1.82095 17.35337,-1.82095 -10.29327,9.59066 -23.58623,7.75883 -30.23404,3.43944 z"
         style="fill:#000000;stroke:none" />
      <path
         style="fill:#000000;stroke:none"
         d="m 583.27333,370.01001 c 0,0 -0.25925,-7.10707 -12.98141,0.11953 -7.48969,4.2544 -17.44098,0.51736 -17.44098,0.51736 11.48398,8.12715 24.4123,4.53316 30.42239,-0.63689 z"
         id="path4728"
         inkscape:connector-curvature="0"
         sodipodi:nodetypes="cscc" />
      <path
         sodipodi:nodetypes="cscc"
         inkscape:connector-curvature="0"
         id="path4730"
         d="m 591,421.36218 c 0,0 -5.25,-2.5 -7.25,1.5 -2,4 8.125,11.5 9.625,15.5 1.125,-4 -12.625,-16.75 -2.375,-17 z"
         style="fill:#ffffff;stroke:none" />
      <path
         sodipodi:nodetypes="cccc"
         inkscape:connector-curvature="0"
         id="path4732"
         d="m 570.5,320.11218 -28.25,4.125 c 1.21666,8.81283 4.08074,15.47134 9.625,18.625 -11.55844,-20.19201 11.7454,-15.64305 18.625,-22.75 z"
         style="fill:#ffffff;stroke:none" />
      <path
         sodipodi:nodetypes="cssccscc"
         inkscape:connector-curvature="0"
         id="path4741"
         d="m 641,380.36218 c 0,0 2,-3.5 7,-0.5 5,3 10.60215,8.94721 6.5,14.75 -6.58831,9.31965 -20.11789,-2.12078 -18.875,-7.625 l 5.625,-0.375 c 0,0 2,5 5,2.75 3,-2.25 -3.25,-5.25 -3.25,-5.25 0,0 -3.25,-0.75 -2,-3.75 z"
         style="fill:#000000;stroke:none" />
      <path
         style="fill:url(#linearGradient4863);stroke:none"
         d="m 642.75,380.73718 c 0,0 0.43757,-2.96814 5.125,0.5 4.50275,3.3315 7.71564,7.32988 5.875,11.625 -4.49563,10.49052 -17.61789,-0.24578 -16.375,-5.75 l 2.5,0.125 c 0,0 4.29096,8.21638 7.75,3.875 4.04005,-5.07059 -3.5,-8.25 -3.5,-8.25 0,0 -2.625,0.875 -1.375,-2.125 z"
         id="path4743"
         inkscape:connector-curvature="0"
         sodipodi:nodetypes="cssccscc" />
      <path
         sodipodi:nodetypes="cssssc"
         inkscape:connector-curvature="0"
         id="path4747"
         d="m 541.64379,285.85843 c 16.48569,16.42168 69.657,14.05836 75.66043,-1.41421 3.19727,-8.2403 -1.06066,-12.37437 -8.83883,-11.31371 -7.77818,1.06066 -9.66296,-24.88047 -34.64824,-20.5061 -14.77937,2.58754 -11.0405,19.35411 -25.45584,19.79899 -10.64214,0.32843 -12.37437,11.31371 -6.71752,13.43503 z"
         style="fill:#000000;stroke:none" />
      <path
         style="fill:url(#linearGradient4865);fill-opacity:1;stroke:none"
         d="m 545.39379,285.10843 c 17.518,11.60425 54.6006,7.44667 65.16043,2.08579 8.62101,-4.3766 2.93934,-11.12437 -4.83883,-10.06371 -7.77818,1.06066 -6.66296,-25.38047 -31.64824,-21.0061 -14.77937,2.58754 -8.0405,18.35411 -22.45584,18.79899 -10.64214,0.32843 -11.87437,8.06371 -6.21752,10.18503 z"
         id="path4749"
         inkscape:connector-curvature="0"
         sodipodi:nodetypes="cssssc" />
      <path
         sodipodi:nodetypes="cccccccccc"
         inkscape:connector-curvature="0"
         id="rect4753"
         d="m 569.48689,269.11325 c -1.7526,0.21028 -2.08,2.55046 -0.87704,3.66972 -4.15603,-0.37519 -2.31005,5.98513 0.66932,3.39277 0.58413,-2.80488 2.63535,-1.32051 4.96309,-0.34153 1.80126,1.64638 10.95873,1.44709 9.3576,4.46493 -0.70895,3.10104 4.67766,2.77336 3.5774,-0.18464 -0.62407,-1.06885 2.76286,-1.96959 1.36172,-3.8082 -1.24494,-2.07701 -4.25628,-0.21579 -3.5774,1.93872 -4.17112,-1.59967 -10.8072,-3.37126 -14.96693,-5.00045 2.25525,-0.95247 2.12413,-4.32618 -0.50776,-4.13132 z"
         style="fill:#ffffff;fill-opacity:1;stroke:none" />
      <path
         sodipodi:nodetypes="ccccccccccc"
         inkscape:connector-curvature="0"
         id="path4764"
         d="m 584.54614,268.20522 c -2.27397,0.0876 -2.24172,3.40822 -0.18464,3.96976 -3.80574,2.43167 -10.1264,4.67895 -13.92833,7.11656 1.09455,-2.80215 -3.3323,-4.33321 -3.78512,-1.43096 -0.70254,2.56443 3.9168,1.5902 2.10028,3.6928 -0.63631,2.91706 4.48908,2.74534 3.62356,-0.13848 -2.04105,-2.0098 0.79349,-2.74627 2.70641,-4.02664 2.42798,-0.48358 8.62558,-5.99467 10.091,-2.78988 2.24054,2.36281 4.93042,-2.40958 1.77716,-3.06964 -0.98226,-0.32172 0.14632,-3.25166 -2.03104,-3.32352 -0.11904,-0.0337 -0.25025,-0.0337 -0.36928,0 z"
         style="fill:#ffffff;fill-opacity:1;stroke:none" />
    </g>
  </g>
</svg>
