<?xml version="1.0" encoding="UTF-8" standalone="no"?>
<!-- Created with Inkscape (http://www.inkscape.org/) -->

<svg
   xmlns:dc="http://purl.org/dc/elements/1.1/"
   xmlns:cc="http://creativecommons.org/ns#"
   xmlns:rdf="http://www.w3.org/1999/02/22-rdf-syntax-ns#"
   xmlns:svg="http://www.w3.org/2000/svg"
   xmlns="http://www.w3.org/2000/svg"
   xmlns:xlink="http://www.w3.org/1999/xlink"
   xmlns:sodipodi="http://sodipodi.sourceforge.net/DTD/sodipodi-0.dtd"
   xmlns:inkscape="http://www.inkscape.org/namespaces/inkscape"
   width="256"
   height="256"
   id="svg2"
   version="1.1"
   inkscape:version="0.48.4 r9939"
   sodipodi:docname="starry11.svg"
   inkscape:export-filename="starry.png"
   inkscape:export-xdpi="60.476192"
   inkscape:export-ydpi="60.476192">
  <defs
     id="defs4">
    <linearGradient
       id="linearGradient4625">
      <stop
         style="stop-color:#9c4a13;stop-opacity:1;"
         offset="0"
         id="stop4627" />
      <stop
         style="stop-color:#552200;stop-opacity:1;"
         offset="1"
         id="stop4629" />
    </linearGradient>
    <linearGradient
       inkscape:collect="always"
       id="linearGradient4578">
      <stop
         style="stop-color:#ff0000;stop-opacity:1;"
         offset="0"
         id="stop4580" />
      <stop
         style="stop-color:#ff0000;stop-opacity:0;"
         offset="1"
         id="stop4582" />
    </linearGradient>
    <linearGradient
       id="linearGradient4270">
      <stop
         style="stop-color:#27a027;stop-opacity:1;"
         offset="0"
         id="stop4272" />
      <stop
         style="stop-color:#2beb2b;stop-opacity:1;"
         offset="1"
         id="stop4274" />
    </linearGradient>
    <linearGradient
       id="linearGradient5121">
      <stop
         style="stop-color:#e82ae8;stop-opacity:1;"
         offset="0"
         id="stop5123" />
      <stop
         style="stop-color:#ab378e;stop-opacity:1;"
         offset="1"
         id="stop5125" />
    </linearGradient>
    <linearGradient
       id="linearGradient4587">
      <stop
         style="stop-color:#ffdb00;stop-opacity:1;"
         offset="0"
         id="stop4589" />
      <stop
         style="stop-color:#ff6600;stop-opacity:1;"
         offset="1"
         id="stop4591" />
    </linearGradient>
    <linearGradient
       id="linearGradient4428">
      <stop
         style="stop-color:#404040;stop-opacity:1;"
         offset="0"
         id="stop4430" />
      <stop
         style="stop-color:#636363;stop-opacity:1;"
         offset="1"
         id="stop4432" />
    </linearGradient>
    <linearGradient
       id="linearGradient4414">
      <stop
         style="stop-color:#b9a165;stop-opacity:1;"
         offset="0"
         id="stop4416" />
      <stop
         style="stop-color:#978045;stop-opacity:1;"
         offset="1"
         id="stop4418" />
    </linearGradient>
    <linearGradient
       id="linearGradient3925">
      <stop
         style="stop-color:#ffffff;stop-opacity:1;"
         offset="0"
         id="stop3927" />
      <stop
         style="stop-color:#d5d5d5;stop-opacity:1;"
         offset="1"
         id="stop3929" />
    </linearGradient>
    <linearGradient
       id="linearGradient3861">
      <stop
         style="stop-color:#161688;stop-opacity:1;"
         offset="0"
         id="stop3863" />
      <stop
         style="stop-color:#1717ac;stop-opacity:1;"
         offset="1"
         id="stop3865" />
    </linearGradient>
    <linearGradient
       id="linearGradient3079">
      <stop
         style="stop-color:#d40000;stop-opacity:1;"
         offset="0"
         id="stop3081" />
      <stop
         style="stop-color:#ff0d00;stop-opacity:1;"
         offset="1"
         id="stop3083" />
    </linearGradient>
    <linearGradient
       id="linearGradient3071">
      <stop
         style="stop-color:#fff000;stop-opacity:1;"
         offset="0"
         id="stop3073" />
      <stop
         style="stop-color:#ffcc00;stop-opacity:1;"
         offset="1"
         id="stop3075" />
    </linearGradient>
    <radialGradient
       inkscape:collect="always"
       xlink:href="#linearGradient3071"
       id="radialGradient3907"
       cx="532.20038"
       cy="177.71259"
       fx="532.20038"
       fy="177.71259"
       r="69.003609"
       gradientTransform="matrix(0.9990308,0.04401675,-0.04928387,1.1185762,75.184005,-55.361323)"
       gradientUnits="userSpaceOnUse" />
    <radialGradient
       inkscape:collect="always"
       xlink:href="#linearGradient3925"
       id="radialGradient4145"
       gradientUnits="userSpaceOnUse"
       gradientTransform="matrix(-1.4510666,-1.4897576,3.2585121,-3.1738567,448.17659,1515.4599)"
       cx="456.21127"
       cy="216.91385"
       fx="456.21127"
       fy="216.91385"
       r="42" />
    <radialGradient
       inkscape:collect="always"
       xlink:href="#linearGradient3925"
       id="radialGradient4169"
       cx="607.24139"
       cy="228.16756"
       fx="607.24139"
       fy="228.16756"
       r="23.700668"
       gradientTransform="matrix(1.3027334,0,0,0.52251417,-179.27791,116.51455)"
       gradientUnits="userSpaceOnUse" />
    <radialGradient
       inkscape:collect="always"
       xlink:href="#linearGradient3861"
       id="radialGradient4171"
       cx="616.19501"
       cy="232.33742"
       fx="616.19501"
       fy="232.33742"
       r="23.115305"
       gradientTransform="matrix(1.2963054,-0.12925413,0.09862658,0.98913795,-198.23165,85.163814)"
       gradientUnits="userSpaceOnUse" />
    <radialGradient
       inkscape:collect="always"
       xlink:href="#linearGradient3861"
       id="radialGradient4193"
       gradientUnits="userSpaceOnUse"
       gradientTransform="matrix(1.2963054,-0.12925413,0.09862658,0.98913795,-198.23165,85.163814)"
       cx="616.19501"
       cy="232.33742"
       fx="616.19501"
       fy="232.33742"
       r="23.115305" />
    <radialGradient
       inkscape:collect="always"
       xlink:href="#linearGradient3925"
       id="radialGradient4195"
       gradientUnits="userSpaceOnUse"
       gradientTransform="matrix(1.3027334,0,0,0.52251417,-179.27791,116.51455)"
       cx="607.24139"
       cy="228.16756"
       fx="607.24139"
       fy="228.16756"
       r="23.700668" />
    <linearGradient
       inkscape:collect="always"
       xlink:href="#linearGradient3079"
       id="linearGradient4517"
       x1="581.16241"
       y1="157.24892"
       x2="587.12347"
       y2="172.24892"
       gradientUnits="userSpaceOnUse" />
    <radialGradient
       inkscape:collect="always"
       xlink:href="#linearGradient3071"
       id="radialGradient4869"
       gradientUnits="userSpaceOnUse"
       gradientTransform="matrix(0.99972463,0.02346618,-0.02510034,1.0693448,6.5378877,-21.653928)"
       cx="171.29147"
       cy="285.97275"
       fx="171.29147"
       fy="285.97275"
       r="108.0136" />
    <radialGradient
       inkscape:collect="always"
       xlink:href="#linearGradient3071"
       id="radialGradient4873"
       gradientUnits="userSpaceOnUse"
       gradientTransform="matrix(0.99972463,0.02346618,-0.02510034,1.0693448,6.5378877,-21.653928)"
       cx="177.93721"
       cy="289.21756"
       fx="177.93721"
       fy="289.21756"
       r="108.0136" />
    <radialGradient
       inkscape:collect="always"
       xlink:href="#linearGradient3079"
       id="radialGradient4937"
       gradientUnits="userSpaceOnUse"
       gradientTransform="matrix(1,0,0,0.98056266,0,10.143726)"
       cx="464.80362"
       cy="527.27637"
       fx="464.80362"
       fy="527.27637"
       r="15.310997" />
    <radialGradient
       inkscape:collect="always"
       xlink:href="#linearGradient3079"
       id="radialGradient4943"
       gradientUnits="userSpaceOnUse"
       gradientTransform="matrix(-0.62071292,-0.90941872,0.8098967,-0.55278437,261.36556,1204.4559)"
       cx="424.61761"
       cy="527.00262"
       fx="424.61761"
       fy="527.00262"
       r="12.246221" />
    <radialGradient
       inkscape:collect="always"
       xlink:href="#linearGradient3079"
       id="radialGradient4951"
       gradientUnits="userSpaceOnUse"
       gradientTransform="matrix(1,0,0,0.98056266,0,10.143726)"
       cx="464.80362"
       cy="527.27637"
       fx="464.80362"
       fy="527.27637"
       r="15.310997" />
    <radialGradient
       inkscape:collect="always"
       xlink:href="#linearGradient3079"
       id="radialGradient4959"
       gradientUnits="userSpaceOnUse"
       gradientTransform="matrix(1,0,0,0.98056266,0,10.143726)"
       cx="464.80362"
       cy="527.27637"
       fx="464.80362"
       fy="527.27637"
       r="15.310997" />
    <radialGradient
       inkscape:collect="always"
       xlink:href="#linearGradient3079"
       id="radialGradient4967"
       gradientUnits="userSpaceOnUse"
       gradientTransform="matrix(1,0,0,0.98056266,0,10.143726)"
       cx="464.80362"
       cy="527.27637"
       fx="464.80362"
       fy="527.27637"
       r="15.310997" />
    <radialGradient
       inkscape:collect="always"
       xlink:href="#linearGradient3925"
       id="radialGradient5356"
       gradientUnits="userSpaceOnUse"
       gradientTransform="matrix(1,0,0,0.3842483,0,554.47405)"
       cx="100.45855"
       cy="921.64594"
       fx="100.45855"
       fy="921.64594"
       r="58.505035" />
    <radialGradient
       inkscape:collect="always"
       xlink:href="#linearGradient3071"
       id="radialGradient5358"
       gradientUnits="userSpaceOnUse"
       gradientTransform="matrix(1,0,0,1.4289469,0,-325.73173)"
       cx="156.5768"
       cy="759.37549"
       fx="156.5768"
       fy="759.37549"
       r="89.576805" />
    <radialGradient
       inkscape:collect="always"
       xlink:href="#linearGradient3925"
       id="radialGradient5360"
       gradientUnits="userSpaceOnUse"
       gradientTransform="matrix(0.99997148,-0.00755275,0.00298362,0.3950256,-53.670014,510.55425)"
       cx="363.22302"
       cy="898.36456"
       fx="363.22302"
       fy="898.36456"
       r="118.49831" />
    <radialGradient
       inkscape:collect="always"
       xlink:href="#linearGradient3071"
       id="radialGradient5362"
       gradientUnits="userSpaceOnUse"
       gradientTransform="matrix(1,0,0,0.51509477,0,353.44058)"
       cx="96.124428"
       cy="728.13409"
       fx="96.124428"
       fy="728.13409"
       r="30.935921" />
    <radialGradient
       inkscape:collect="always"
       xlink:href="#linearGradient3071"
       id="radialGradient5364"
       gradientUnits="userSpaceOnUse"
       gradientTransform="matrix(1,0,0,0.51509477,0,353.44058)"
       cx="96.124428"
       cy="728.13409"
       fx="96.124428"
       fy="728.13409"
       r="30.935921" />
    <radialGradient
       inkscape:collect="always"
       xlink:href="#linearGradient3071"
       id="radialGradient5376"
       gradientUnits="userSpaceOnUse"
       gradientTransform="matrix(0.99972463,0.02346618,-0.02510034,1.0693448,6.5378877,-21.653928)"
       cx="168.57047"
       cy="276.2543"
       fx="168.57047"
       fy="276.2543"
       r="108.0136" />
    <radialGradient
       inkscape:collect="always"
       xlink:href="#linearGradient3071"
       id="radialGradient3432"
       gradientUnits="userSpaceOnUse"
       gradientTransform="matrix(-1.0813686,-0.93579434,0.52925059,-0.61158221,1082.8355,1814.0518)"
       cx="704.85541"
       cy="715.05518"
       fx="704.85541"
       fy="715.05518"
       r="14.64128" />
    <linearGradient
       inkscape:collect="always"
       xlink:href="#linearGradient4414"
       id="linearGradient3434"
       gradientUnits="userSpaceOnUse"
       x1="695.5"
       y1="720.36218"
       x2="689.5"
       y2="722.36218" />
    <radialGradient
       inkscape:collect="always"
       xlink:href="#linearGradient3071"
       id="radialGradient3436"
       gradientUnits="userSpaceOnUse"
       gradientTransform="matrix(0.77988332,0.28301058,-0.20761566,0.57211992,297.80831,107.44621)"
       cx="687.0462"
       cy="708.41467"
       fx="687.0462"
       fy="708.41467"
       r="9.6825304" />
    <radialGradient
       inkscape:collect="always"
       xlink:href="#linearGradient3071"
       id="radialGradient3438"
       gradientUnits="userSpaceOnUse"
       gradientTransform="matrix(1,0,0,0.60143496,0,285.13141)"
       cx="687.36896"
       cy="715.90118"
       fx="687.36896"
       fy="715.90118"
       r="10.188534" />
    <radialGradient
       inkscape:collect="always"
       xlink:href="#linearGradient3071"
       id="radialGradient3440"
       gradientUnits="userSpaceOnUse"
       gradientTransform="matrix(1,0,0,0.74704605,1.25,183.46212)"
       cx="695.66272"
       cy="722.54816"
       fx="695.66272"
       fy="722.54816"
       r="9.6836624" />
    <radialGradient
       inkscape:collect="always"
       xlink:href="#linearGradient3925"
       id="radialGradient4307"
       gradientUnits="userSpaceOnUse"
       gradientTransform="matrix(-0.23219384,-1.4735394,0.83426306,-0.13145717,249.52404,1781.0735)"
       cx="674"
       cy="696.39258"
       fx="674"
       fy="696.39258"
       r="27.993826" />
    <radialGradient
       inkscape:collect="always"
       xlink:href="#linearGradient3925"
       id="radialGradient4315"
       gradientUnits="userSpaceOnUse"
       gradientTransform="matrix(-0.23219384,-1.4735394,0.83426306,-0.13145717,249.52404,1781.0735)"
       cx="674"
       cy="696.39258"
       fx="674"
       fy="696.39258"
       r="27.993826" />
    <linearGradient
       inkscape:collect="always"
       xlink:href="#linearGradient3079"
       id="linearGradient4390"
       gradientUnits="userSpaceOnUse"
       gradientTransform="matrix(-0.29220685,0.95635514,0.95635514,0.29220685,130.71656,-99.810488)"
       x1="721.07214"
       y1="830.50745"
       x2="727.78967"
       y2="830.15387" />
    <linearGradient
       inkscape:collect="always"
       xlink:href="#linearGradient4428"
       id="linearGradient4392"
       gradientUnits="userSpaceOnUse"
       x1="694.02533"
       y1="802.22314"
       x2="695.79309"
       y2="800.80896" />
    <radialGradient
       inkscape:collect="always"
       xlink:href="#linearGradient3071"
       id="radialGradient4394"
       gradientUnits="userSpaceOnUse"
       gradientTransform="matrix(-1.4602942,-0.74886865,0.38408437,-0.74896904,1427.2918,1940.8054)"
       cx="706.2229"
       cy="807.69836"
       fx="706.2229"
       fy="807.69836"
       r="18.884663" />
    <linearGradient
       inkscape:collect="always"
       xlink:href="#linearGradient4428"
       id="linearGradient4396"
       gradientUnits="userSpaceOnUse"
       x1="660.79126"
       y1="759.97351"
       x2="664.15002"
       y2="757.3219" />
    <linearGradient
       inkscape:collect="always"
       xlink:href="#linearGradient3079"
       id="linearGradient4398"
       gradientUnits="userSpaceOnUse"
       gradientTransform="translate(-1.5026019,-0.88388348)"
       x1="721.07214"
       y1="830.50745"
       x2="727.78967"
       y2="830.15387" />
    <linearGradient
       inkscape:collect="always"
       xlink:href="#linearGradient4270"
       id="linearGradient4400"
       gradientUnits="userSpaceOnUse"
       x1="608.11182"
       y1="810.1781"
       x2="628.44116"
       y2="815.30463" />
    <linearGradient
       inkscape:collect="always"
       xlink:href="#linearGradient4270"
       id="linearGradient4402"
       gradientUnits="userSpaceOnUse"
       x1="607.84869"
       y1="801.11218"
       x2="616.06677"
       y2="800.58185" />
    <radialGradient
       inkscape:collect="always"
       xlink:href="#linearGradient3071"
       id="radialGradient4672"
       gradientUnits="userSpaceOnUse"
       gradientTransform="matrix(0.99972463,0.02346618,-0.02510034,1.0693448,6.5378877,-21.653928)"
       cx="168.57047"
       cy="276.2543"
       fx="168.57047"
       fy="276.2543"
       r="108.0136" />
    <radialGradient
       inkscape:collect="always"
       xlink:href="#linearGradient5121"
       id="radialGradient4674"
       gradientUnits="userSpaceOnUse"
       gradientTransform="matrix(0.9936117,-0.11285295,0.10284403,0.90548835,-98.727355,145.98046)"
       cx="525.01648"
       cy="992.5838"
       fx="525.01648"
       fy="992.5838"
       r="24.064341" />
    <radialGradient
       inkscape:collect="always"
       xlink:href="#linearGradient3925"
       id="radialGradient4676"
       gradientUnits="userSpaceOnUse"
       gradientTransform="matrix(0.9998694,-0.01712233,0.01892778,1.2406375,-18.562963,-227.85102)"
       cx="527"
       cy="984.36218"
       fx="527"
       fy="984.36218"
       r="16.25" />
    <radialGradient
       inkscape:collect="always"
       xlink:href="#linearGradient5121"
       id="radialGradient4678"
       gradientUnits="userSpaceOnUse"
       gradientTransform="matrix(-0.08420794,-1.0028458,0.92765779,-0.07789476,-352.66756,1607.5865)"
       cx="531.0293"
       cy="998.89685"
       fx="531.0293"
       fy="998.89685"
       r="16.328541" />
    <radialGradient
       inkscape:collect="always"
       xlink:href="#linearGradient4578"
       id="radialGradient4680"
       gradientUnits="userSpaceOnUse"
       gradientTransform="matrix(0.83554772,-0.1343511,0.13190248,0.82031519,-37.699881,247.47871)"
       cx="547.25"
       cy="968.11218"
       fx="547.25"
       fy="968.11218"
       r="12" />
    <radialGradient
       inkscape:collect="always"
       xlink:href="#linearGradient4625"
       id="radialGradient4682"
       gradientUnits="userSpaceOnUse"
       gradientTransform="matrix(-0.97131477,-1.3740557,0.97629344,-0.69013812,167.01088,2231.1788)"
       cx="526.5"
       cy="892.03339"
       fx="526.5"
       fy="892.03339"
       r="10.552705" />
    <radialGradient
       inkscape:collect="always"
       xlink:href="#linearGradient4578"
       id="radialGradient4684"
       gradientUnits="userSpaceOnUse"
       gradientTransform="matrix(0.83554772,-0.1343511,0.13190248,0.82031519,-37.699881,247.47871)"
       cx="547.25"
       cy="968.11218"
       fx="547.25"
       fy="968.11218"
       r="12" />
    <radialGradient
       inkscape:collect="always"
       xlink:href="#linearGradient3079"
       id="radialGradient4940"
       cx="87.858017"
       cy="656.55493"
       fx="87.858017"
       fy="656.55493"
       r="12.50704"
       gradientTransform="matrix(-0.40282415,-0.86925173,0.50294881,-0.23307438,-206.96417,883.42362)"
       gradientUnits="userSpaceOnUse" />
  </defs>
  <sodipodi:namedview
     id="base"
     pagecolor="#ffffff"
     bordercolor="#666666"
     borderopacity="1.0"
     inkscape:pageopacity="0.0"
     inkscape:pageshadow="2"
     inkscape:zoom="0.5"
     inkscape:cx="526.18109"
     inkscape:cy="93.52451"
     inkscape:document-units="px"
     inkscape:current-layer="layer1"
     showgrid="false"
     inkscape:window-width="1600"
     inkscape:window-height="829"
     inkscape:window-x="0"
     inkscape:window-y="24"
     inkscape:window-maximized="1"
     showguides="true"
     inkscape:guide-bbox="true" />
  <metadata
     id="metadata7">
    <rdf:RDF>
      <cc:Work
         rdf:about="">
        <dc:format>image/svg+xml</dc:format>
        <dc:type
           rdf:resource="http://purl.org/dc/dcmitype/StillImage" />
        <dc:title></dc:title>
      </cc:Work>
    </rdf:RDF>
  </metadata>
  <g
     inkscape:label="Layer 1"
     inkscape:groupmode="layer"
     id="layer1"
     transform="translate(0,-796.36218)">
    <g
       id="g4637"
       transform="translate(-385.7096,-52.61136)">
      <path
         sodipodi:nodetypes="sssssssssss"
         inkscape:connector-curvature="0"
         id="path4524"
         d="m 563.17319,1042.0807 c -18.47477,9.0997 -31.29579,-29.4493 -48.648,-30.7473 -19.41163,-1.4519 -45.55695,35.2916 -61.45247,24.0554 -14.20914,-10.0441 21.16092,-38.91479 17.03319,-55.81881 -4.61762,-18.91024 -47.20921,-33.27931 -41.43494,-51.86902 5.16167,-16.6175 42.31865,9.0778 57.11979,-0.0715 16.55779,-10.2352 15.37695,-55.41267 34.84117,-55.66556 17.39922,-0.22605 8.92542,44.792 22.20075,56.04142 14.8509,12.58454 56.34708,-5.33992 62.60236,13.09351 5.59164,16.47778 -40.8281,22.29954 -47.42463,38.40139 -7.37942,18.01288 22.62532,53.97937 5.16278,62.58047 z"
         inkscape:transform-center-y="-5.6036717"
         inkscape:transform-center-x="12.468302"
         style="fill:#000000;fill-opacity:1;stroke:none" />
      <path
         sodipodi:type="star"
         style="fill:url(#radialGradient4672);fill-opacity:1;stroke:none"
         id="path5378"
         sodipodi:sides="5"
         sodipodi:cx="159"
         sodipodi:cy="268.36218"
         sodipodi:r1="113.40635"
         sodipodi:r2="55.537029"
         sodipodi:arg1="0.9167136"
         sodipodi:arg2="1.4575285"
         inkscape:flatsided="false"
         inkscape:rounded="0.31"
         inkscape:randomized="0"
         d="m 228,358.36218 c -16.39761,15.02325 -40.49109,-35.39068 -62.72288,-34.81885 -24.87035,0.6397 -48.8978,50.5058 -70.550034,38.25328 -19.355102,-10.95262 21.146104,-49.44563 13.732254,-70.41262 -8.29375,-23.45543 -63.144112,-30.89742 -58.182186,-55.27615 4.435504,-21.79235 53.560096,4.83159 71.209886,-8.69855 19.74453,-15.13595 9.87258,-69.60145 34.59146,-72.41582 22.09639,-2.51579 11.95586,52.43173 30.27787,65.03663 20.49655,14.1009 69.24571,-12.11865 79.56089,10.52071 9.22082,20.2375 -46.17097,27.57299 -52.49713,48.89339 -7.07697,23.85079 32.92362,62.11172 14.57987,78.91798 z"
         inkscape:transform-center-x="12.561054"
         inkscape:transform-center-y="-5.593662"
         transform="matrix(0.7784965,0.07840547,-0.07840547,0.7784965,411.41826,742.96719)" />
      <g
         transform="matrix(0.99839338,-0.05666268,0.05666268,0.99839338,-53.150071,36.329387)"
         id="g4561">
        <path
           style="fill:#000000;fill-opacity:1;stroke:none"
           d="m 525.63848,964.0723 c -6.12792,-0.18254 -7.38777,4.50136 -10.71875,4.59375 -3.9019,0.10823 -5.43625,-3.90455 -11.03125,-4.34375 -11.75915,0.35355 -14.25,6.04416 -14.25,13.5 0,7.45584 6.37994,13.5 14.25,13.5 9.25246,0.63222 13.38917,-0.38492 21.75,-0.25 7.87006,0 14.25,-6.04416 14.25,-13.5 0,-7.45584 -2.1373,-13.67678 -14.25,-13.5 z m -28.5625,4.125 c 2.09898,0 3.8125,1.6365 3.8125,3.625 0,1.9885 -1.71352,3.59375 -3.8125,3.59375 -2.09898,0 -3.8125,-1.60525 -3.8125,-3.59375 0,-1.9885 1.71352,-3.625 3.8125,-3.625 z m 33.75,0 c 2.09898,0 3.8125,1.6365 3.8125,3.625 0,1.9885 -1.71352,3.59375 -3.8125,3.59375 -2.09898,0 -3.78125,-1.60525 -3.78125,-3.59375 0,-1.9885 1.68227,-3.625 3.78125,-3.625 z"
           id="path4527"
           inkscape:connector-curvature="0" />
        <path
           inkscape:connector-curvature="0"
           id="path4547"
           d="m 525.63848,965.13296 c -6.12792,-0.18254 -7.38777,4.85491 -10.71875,4.9473 -3.9019,0.10823 -5.61303,-4.2581 -11.20803,-4.6973 -11.75915,0.35355 -13.18934,4.62995 -13.18934,12.08579 0,7.45584 5.49606,12.61611 13.36612,12.61611 9.25246,0.63222 13.38917,-0.20814 21.75,-0.0732 7.87006,0 13.01256,-4.80672 13.01256,-12.26256 0,-7.45584 -0.89986,-12.7929 -13.01256,-12.61612 z m -28.38572,1.65013 c 2.09898,0 4.5196,3.05071 4.5196,5.03921 0,1.9885 -2.5974,4.47763 -4.69638,4.47763 -2.09898,0 -5.04994,-2.13558 -5.04994,-4.12408 0,-1.9885 3.12774,-5.39276 5.22672,-5.39276 z m 33.57322,0.35355 c 2.09898,0 4.87316,2.69716 4.87316,4.68566 0,1.9885 -2.77418,4.47763 -4.87316,4.47763 -2.09898,0 -5.01869,-2.48913 -5.01869,-4.47763 0,-1.9885 2.91971,-4.68566 5.01869,-4.68566 z"
           style="fill:url(#radialGradient4674);fill-opacity:1;stroke:none"
           sodipodi:nodetypes="sscsccscsssssssssss" />
        <path
           sodipodi:type="arc"
           style="fill:#000000;fill-opacity:1;stroke:none"
           id="path4537"
           sodipodi:cx="527"
           sodipodi:cy="984.36218"
           sodipodi:rx="16.25"
           sodipodi:ry="16.25"
           d="m 543.25,984.36218 c 0,8.97463 -7.27537,16.25002 -16.25,16.25002 -8.97463,0 -16.25,-7.27539 -16.25,-16.25002 0,-8.97462 7.27537,-16.25 16.25,-16.25 8.97463,0 16.25,7.27538 16.25,16.25 z"
           transform="matrix(0.61281567,0,0,0.58056221,191.55127,409.16423)" />
        <path
           transform="matrix(0.55842284,0,0,0.49897297,220.56984,489.38921)"
           d="m 543.25,984.36218 c 0,8.97463 -7.27537,16.25002 -16.25,16.25002 -8.97463,0 -16.25,-7.27539 -16.25,-16.25002 0,-8.97462 7.27537,-16.25 16.25,-16.25 8.97463,0 16.25,7.27538 16.25,16.25 z"
           sodipodi:ry="16.25"
           sodipodi:rx="16.25"
           sodipodi:cy="984.36218"
           sodipodi:cx="527"
           id="path4551"
           style="fill:url(#radialGradient4676);fill-opacity:1;stroke:none"
           sodipodi:type="arc" />
        <path
           style="fill:#000000;stroke:none"
           d="m 504.63681,984.56204 c 0,0 11.20537,15.72226 20.39581,9.91726 9.95791,-6.28975 -2.07538,-19.24353 -2.07538,-19.24353 -1.55446,-2.96925 2.41603,-4.17299 3.36764,-2.20711 0,0 16.79049,20.06282 2.42678,27.50394 -16.18288,8.3835 -26.65927,-13.17614 -26.65927,-13.17614 -0.77238,-1.38383 0.99104,-2.80327 2.54442,-2.79442 z"
           id="path4555"
           inkscape:connector-curvature="0"
           sodipodi:nodetypes="csccscc" />
        <path
           sodipodi:nodetypes="csccscc"
           inkscape:connector-curvature="0"
           id="path4557"
           d="m 504.26181,985.43704 c 0,0 12.20537,15.97226 21.39581,10.16726 9.95791,-6.28975 -1.82538,-19.86853 -1.82538,-19.86853 -1.55446,-2.96925 1.16603,-3.92299 2.11764,-1.95711 0,0 15.66549,18.56282 2.30178,25.75394 -16.04939,8.6363 -24.90927,-11.92614 -24.90927,-11.92614 -0.77238,-1.38383 -0.63396,-2.17827 0.91942,-2.16942 z"
           style="fill:url(#radialGradient4678);fill-opacity:1;stroke:none" />
      </g>
      <path
         transform="matrix(1.4353414,0.07853451,-0.07853451,1.4353414,-159.41845,-471.27532)"
         d="m 558.5,967.36218 c 0,6.62742 -5.37258,12 -12,12 -6.62742,0 -12,-5.37258 -12,-12 0,-6.62741 5.37258,-12 12,-12 6.62742,0 12,5.37259 12,12 z"
         sodipodi:ry="12"
         sodipodi:rx="12"
         sodipodi:cy="967.36218"
         sodipodi:cx="546.5"
         id="path4576"
         style="fill:url(#radialGradient4680);fill-opacity:1;stroke:none"
         sodipodi:type="arc" />
      <path
         style="fill:#fee800;fill-opacity:1;stroke:none"
         d="m 520.03125,876.90625 c -14.65565,3.75905 -14.31158,23.33845 -19.52384,34.75424 -2.93408,9.62265 -8.94067,21.51255 -20.66366,20.96451 -14.45317,0.4075 -27.95774,-8.52015 -42.375,-6.25 -7.23362,2.52672 -5.65275,12.97207 -0.625,17.15625 -1.8683,-6.44025 3.09953,-13.64331 10.0625,-13 15.36009,-0.25088 30.09902,10.03908 45.40625,5.5625 11.39528,-6.69286 12.64606,-21.62911 16.8125,-32.9375 2.76406,-8.72723 6.70357,-21.26557 17.65625,-21.5625 1.93813,-0.27099 -1.58614,-3.74511 -3.03125,-4.1875 -1.15521,-0.51536 -2.46649,-0.58732 -3.71875,-0.5 z"
         id="path4664"
         inkscape:connector-curvature="0"
         sodipodi:nodetypes="ccccccccccc" />
      <g
         transform="matrix(0.99850649,0.05463315,-0.05463315,0.99850649,51.586875,-30.593543)"
         id="g4600">
        <path
           sodipodi:type="arc"
           style="fill:#000000;fill-opacity:1;stroke:none"
           id="path4590"
           sodipodi:cx="536.1637"
           sodipodi:cy="935.15924"
           sodipodi:rx="16.61701"
           sodipodi:ry="16.61701"
           d="m 552.78071,935.15924 c 0,9.17732 -7.43969,16.61701 -16.61701,16.61701 -9.17732,0 -16.61701,-7.43969 -16.61701,-16.61701 0,-9.17732 7.43969,-16.61701 16.61701,-16.61701 9.17732,0 16.61701,7.43969 16.61701,16.61701 z"
           transform="translate(0,-1.2374369)" />
        <path
           transform="matrix(0.92553192,0,0,0.92553192,39.927082,68.402078)"
           d="m 552.78071,935.15924 c 0,9.17732 -7.43969,16.61701 -16.61701,16.61701 -9.17732,0 -16.61701,-7.43969 -16.61701,-16.61701 0,-9.17732 7.43969,-16.61701 16.61701,-16.61701 9.17732,0 16.61701,7.43969 16.61701,16.61701 z"
           sodipodi:ry="16.61701"
           sodipodi:rx="16.61701"
           sodipodi:cy="935.15924"
           sodipodi:cx="536.1637"
           id="path4592"
           style="fill:#ffffff;fill-opacity:1;stroke:none"
           sodipodi:type="arc" />
        <path
           sodipodi:type="arc"
           style="fill:#000000;fill-opacity:1;stroke:none"
           id="path4594"
           sodipodi:cx="536.1637"
           sodipodi:cy="935.15924"
           sodipodi:rx="16.61701"
           sodipodi:ry="16.61701"
           d="m 552.78071,935.15924 c 0,9.17732 -7.43969,16.61701 -16.61701,16.61701 -9.17732,0 -16.61701,-7.43969 -16.61701,-16.61701 0,-9.17732 7.43969,-16.61701 16.61701,-16.61701 9.17732,0 16.61701,7.43969 16.61701,16.61701 z"
           transform="matrix(0.60638299,0,0,0.60638299,211.21993,367.38747)" />
        <path
           transform="matrix(0.39361705,0,0,0.39361705,318.93334,562.11487)"
           d="m 552.78071,935.15924 c 0,9.17732 -7.43969,16.61701 -16.61701,16.61701 -9.17732,0 -16.61701,-7.43969 -16.61701,-16.61701 0,-9.17732 7.43969,-16.61701 16.61701,-16.61701 9.17732,0 16.61701,7.43969 16.61701,16.61701 z"
           sodipodi:ry="16.61701"
           sodipodi:rx="16.61701"
           sodipodi:cy="935.15924"
           sodipodi:cx="536.1637"
           id="path4596"
           style="fill:#ffffff;fill-opacity:1;stroke:none"
           sodipodi:type="arc" />
        <path
           sodipodi:type="arc"
           style="fill:#ffffff;fill-opacity:1;stroke:none"
           id="path4598"
           sodipodi:cx="536.1637"
           sodipodi:cy="935.15924"
           sodipodi:rx="16.61701"
           sodipodi:ry="16.61701"
           d="m 552.78071,935.15924 c 0,9.17732 -7.43969,16.61701 -16.61701,16.61701 -9.17732,0 -16.61701,-7.43969 -16.61701,-16.61701 0,-9.17732 7.43969,-16.61701 16.61701,-16.61701 9.17732,0 16.61701,7.43969 16.61701,16.61701 z"
           transform="matrix(0.23404259,0,0,0.23404259,417.74963,709.39786)" />
      </g>
      <g
         id="g4607"
         transform="matrix(0.99850649,0.05463315,-0.05463315,0.99850649,9.5403355,-30.891122)">
        <path
           transform="translate(0,-1.2374369)"
           d="m 552.78071,935.15924 c 0,9.17732 -7.43969,16.61701 -16.61701,16.61701 -9.17732,0 -16.61701,-7.43969 -16.61701,-16.61701 0,-9.17732 7.43969,-16.61701 16.61701,-16.61701 9.17732,0 16.61701,7.43969 16.61701,16.61701 z"
           sodipodi:ry="16.61701"
           sodipodi:rx="16.61701"
           sodipodi:cy="935.15924"
           sodipodi:cx="536.1637"
           id="path4609"
           style="fill:#000000;fill-opacity:1;stroke:none"
           sodipodi:type="arc" />
        <path
           sodipodi:type="arc"
           style="fill:#ffffff;fill-opacity:1;stroke:none"
           id="path4611"
           sodipodi:cx="536.1637"
           sodipodi:cy="935.15924"
           sodipodi:rx="16.61701"
           sodipodi:ry="16.61701"
           d="m 552.78071,935.15924 c 0,9.17732 -7.43969,16.61701 -16.61701,16.61701 -9.17732,0 -16.61701,-7.43969 -16.61701,-16.61701 0,-9.17732 7.43969,-16.61701 16.61701,-16.61701 9.17732,0 16.61701,7.43969 16.61701,16.61701 z"
           transform="matrix(0.92553192,0,0,0.92553192,39.927082,68.402078)" />
        <path
           transform="matrix(0.60638299,0,0,0.60638299,211.21993,367.38747)"
           d="m 552.78071,935.15924 c 0,9.17732 -7.43969,16.61701 -16.61701,16.61701 -9.17732,0 -16.61701,-7.43969 -16.61701,-16.61701 0,-9.17732 7.43969,-16.61701 16.61701,-16.61701 9.17732,0 16.61701,7.43969 16.61701,16.61701 z"
           sodipodi:ry="16.61701"
           sodipodi:rx="16.61701"
           sodipodi:cy="935.15924"
           sodipodi:cx="536.1637"
           id="path4613"
           style="fill:#000000;fill-opacity:1;stroke:none"
           sodipodi:type="arc" />
        <path
           sodipodi:type="arc"
           style="fill:#ffffff;fill-opacity:1;stroke:none"
           id="path4615"
           sodipodi:cx="536.1637"
           sodipodi:cy="935.15924"
           sodipodi:rx="16.61701"
           sodipodi:ry="16.61701"
           d="m 552.78071,935.15924 c 0,9.17732 -7.43969,16.61701 -16.61701,16.61701 -9.17732,0 -16.61701,-7.43969 -16.61701,-16.61701 0,-9.17732 7.43969,-16.61701 16.61701,-16.61701 9.17732,0 16.61701,7.43969 16.61701,16.61701 z"
           transform="matrix(0.39361705,0,0,0.39361705,318.93334,562.11487)" />
        <path
           transform="matrix(0.23404259,0,0,0.23404259,417.74963,709.39786)"
           d="m 552.78071,935.15924 c 0,9.17732 -7.43969,16.61701 -16.61701,16.61701 -9.17732,0 -16.61701,-7.43969 -16.61701,-16.61701 0,-9.17732 7.43969,-16.61701 16.61701,-16.61701 9.17732,0 16.61701,7.43969 16.61701,16.61701 z"
           sodipodi:ry="16.61701"
           sodipodi:rx="16.61701"
           sodipodi:cy="935.15924"
           sodipodi:cx="536.1637"
           id="path4617"
           style="fill:#ffffff;fill-opacity:1;stroke:none"
           sodipodi:type="arc" />
      </g>
      <path
         sodipodi:nodetypes="cssc"
         inkscape:connector-curvature="0"
         id="path4619"
         d="m 523.8616,906.83689 c 0,0 21.11721,-17.07981 7.05845,-25.4618 -16.3111,-9.72487 -23.55818,4.93939 -16.57452,8.47631 15.67633,7.93937 9.51607,16.98549 9.51607,16.98549 z"
         style="fill:#000000;stroke:none" />
      <path
         style="fill:url(#radialGradient4682);fill-opacity:1;stroke:none"
         d="m 525.06554,904.24715 c -0.0604,-0.0266 16.71727,-14.514 5.95376,-21.45031 -4.6977,-3.02733 -8.49421,-3.9887 -11.3351,-3.74775 0.65461,-0.0931 8.2639,6.21335 8.26301,9.55968 -1.05133,-3.81314 -11.50556,-8.65726 -12.1984,-8.12108 -3.14979,2.43757 -3.01522,7.22767 0.73419,9.12658 15.67633,7.93937 8.58254,14.63288 8.58254,14.63288 z"
         id="path4621"
         inkscape:connector-curvature="0"
         sodipodi:nodetypes="cscccsc" />
      <path
         sodipodi:type="arc"
         style="fill:url(#radialGradient4684);fill-opacity:1;stroke:none"
         id="path4633"
         sodipodi:cx="546.5"
         sodipodi:cy="967.36218"
         sodipodi:rx="12"
         sodipodi:ry="12"
         d="m 558.5,967.36218 c 0,6.62742 -5.37258,12 -12,12 -6.62742,0 -12,-5.37258 -12,-12 0,-6.62741 5.37258,-12 12,-12 6.62742,0 12,5.37259 12,12 z"
         transform="matrix(1.4353414,0.07853451,-0.07853451,1.4353414,-229.91845,-471.27532)" />
    </g>
  </g>
</svg>
