<?xml version="1.0" encoding="UTF-8" standalone="no"?>
<!-- Created with Inkscape (http://www.inkscape.org/) -->

<svg
   xmlns:dc="http://purl.org/dc/elements/1.1/"
   xmlns:cc="http://creativecommons.org/ns#"
   xmlns:rdf="http://www.w3.org/1999/02/22-rdf-syntax-ns#"
   xmlns:svg="http://www.w3.org/2000/svg"
   xmlns="http://www.w3.org/2000/svg"
   xmlns:xlink="http://www.w3.org/1999/xlink"
   xmlns:sodipodi="http://sodipodi.sourceforge.net/DTD/sodipodi-0.dtd"
   xmlns:inkscape="http://www.inkscape.org/namespaces/inkscape"
   width="360"
   height="360"
   id="svg2"
   version="1.1"
   inkscape:version="0.48.4 r9939"
   sodipodi:docname="starry12.svg"
   inkscape:export-filename="starry.png"
   inkscape:export-xdpi="60.476192"
   inkscape:export-ydpi="60.476192">
  <defs
     id="defs4">
    <linearGradient
       id="linearGradient4625">
      <stop
         style="stop-color:#9c4a13;stop-opacity:1;"
         offset="0"
         id="stop4627" />
      <stop
         style="stop-color:#552200;stop-opacity:1;"
         offset="1"
         id="stop4629" />
    </linearGradient>
    <linearGradient
       inkscape:collect="always"
       id="linearGradient4578">
      <stop
         style="stop-color:#ff0000;stop-opacity:1;"
         offset="0"
         id="stop4580" />
      <stop
         style="stop-color:#ff0000;stop-opacity:0;"
         offset="1"
         id="stop4582" />
    </linearGradient>
    <linearGradient
       id="linearGradient4270">
      <stop
         style="stop-color:#27a027;stop-opacity:1;"
         offset="0"
         id="stop4272" />
      <stop
         style="stop-color:#2beb2b;stop-opacity:1;"
         offset="1"
         id="stop4274" />
    </linearGradient>
    <linearGradient
       id="linearGradient5121">
      <stop
         style="stop-color:#e82ae8;stop-opacity:1;"
         offset="0"
         id="stop5123" />
      <stop
         style="stop-color:#ab378e;stop-opacity:1;"
         offset="1"
         id="stop5125" />
    </linearGradient>
    <linearGradient
       id="linearGradient4587">
      <stop
         style="stop-color:#ffdb00;stop-opacity:1;"
         offset="0"
         id="stop4589" />
      <stop
         style="stop-color:#ff6600;stop-opacity:1;"
         offset="1"
         id="stop4591" />
    </linearGradient>
    <linearGradient
       id="linearGradient4428">
      <stop
         style="stop-color:#404040;stop-opacity:1;"
         offset="0"
         id="stop4430" />
      <stop
         style="stop-color:#636363;stop-opacity:1;"
         offset="1"
         id="stop4432" />
    </linearGradient>
    <linearGradient
       id="linearGradient4414">
      <stop
         style="stop-color:#b9a165;stop-opacity:1;"
         offset="0"
         id="stop4416" />
      <stop
         style="stop-color:#978045;stop-opacity:1;"
         offset="1"
         id="stop4418" />
    </linearGradient>
    <linearGradient
       id="linearGradient3925">
      <stop
         style="stop-color:#ffffff;stop-opacity:1;"
         offset="0"
         id="stop3927" />
      <stop
         style="stop-color:#d5d5d5;stop-opacity:1;"
         offset="1"
         id="stop3929" />
    </linearGradient>
    <linearGradient
       id="linearGradient3861">
      <stop
         style="stop-color:#161688;stop-opacity:1;"
         offset="0"
         id="stop3863" />
      <stop
         style="stop-color:#1717ac;stop-opacity:1;"
         offset="1"
         id="stop3865" />
    </linearGradient>
    <linearGradient
       id="linearGradient3079">
      <stop
         style="stop-color:#d40000;stop-opacity:1;"
         offset="0"
         id="stop3081" />
      <stop
         style="stop-color:#ff0d00;stop-opacity:1;"
         offset="1"
         id="stop3083" />
    </linearGradient>
    <linearGradient
       id="linearGradient3071">
      <stop
         style="stop-color:#fff000;stop-opacity:1;"
         offset="0"
         id="stop3073" />
      <stop
         style="stop-color:#ffcc00;stop-opacity:1;"
         offset="1"
         id="stop3075" />
    </linearGradient>
    <radialGradient
       inkscape:collect="always"
       xlink:href="#linearGradient3071"
       id="radialGradient3907"
       cx="532.20038"
       cy="177.71259"
       fx="532.20038"
       fy="177.71259"
       r="69.003609"
       gradientTransform="matrix(0.9990308,0.04401675,-0.04928387,1.1185762,75.184005,-55.361323)"
       gradientUnits="userSpaceOnUse" />
    <radialGradient
       inkscape:collect="always"
       xlink:href="#linearGradient3925"
       id="radialGradient4145"
       gradientUnits="userSpaceOnUse"
       gradientTransform="matrix(-1.4510666,-1.4897576,3.2585121,-3.1738567,448.17659,1515.4599)"
       cx="456.21127"
       cy="216.91385"
       fx="456.21127"
       fy="216.91385"
       r="42" />
    <radialGradient
       inkscape:collect="always"
       xlink:href="#linearGradient3925"
       id="radialGradient4169"
       cx="607.24139"
       cy="228.16756"
       fx="607.24139"
       fy="228.16756"
       r="23.700668"
       gradientTransform="matrix(1.3027334,0,0,0.52251417,-179.27791,116.51455)"
       gradientUnits="userSpaceOnUse" />
    <radialGradient
       inkscape:collect="always"
       xlink:href="#linearGradient3861"
       id="radialGradient4171"
       cx="616.19501"
       cy="232.33742"
       fx="616.19501"
       fy="232.33742"
       r="23.115305"
       gradientTransform="matrix(1.2963054,-0.12925413,0.09862658,0.98913795,-198.23165,85.163814)"
       gradientUnits="userSpaceOnUse" />
    <radialGradient
       inkscape:collect="always"
       xlink:href="#linearGradient3861"
       id="radialGradient4193"
       gradientUnits="userSpaceOnUse"
       gradientTransform="matrix(1.2963054,-0.12925413,0.09862658,0.98913795,-198.23165,85.163814)"
       cx="616.19501"
       cy="232.33742"
       fx="616.19501"
       fy="232.33742"
       r="23.115305" />
    <radialGradient
       inkscape:collect="always"
       xlink:href="#linearGradient3925"
       id="radialGradient4195"
       gradientUnits="userSpaceOnUse"
       gradientTransform="matrix(1.3027334,0,0,0.52251417,-179.27791,116.51455)"
       cx="607.24139"
       cy="228.16756"
       fx="607.24139"
       fy="228.16756"
       r="23.700668" />
    <linearGradient
       inkscape:collect="always"
       xlink:href="#linearGradient3079"
       id="linearGradient4517"
       x1="581.16241"
       y1="157.24892"
       x2="587.12347"
       y2="172.24892"
       gradientUnits="userSpaceOnUse" />
    <radialGradient
       inkscape:collect="always"
       xlink:href="#linearGradient3071"
       id="radialGradient4869"
       gradientUnits="userSpaceOnUse"
       gradientTransform="matrix(0.99972463,0.02346618,-0.02510034,1.0693448,6.5378877,-21.653928)"
       cx="171.29147"
       cy="285.97275"
       fx="171.29147"
       fy="285.97275"
       r="108.0136" />
    <radialGradient
       inkscape:collect="always"
       xlink:href="#linearGradient3071"
       id="radialGradient4873"
       gradientUnits="userSpaceOnUse"
       gradientTransform="matrix(0.99972463,0.02346618,-0.02510034,1.0693448,6.5378877,-21.653928)"
       cx="177.93721"
       cy="289.21756"
       fx="177.93721"
       fy="289.21756"
       r="108.0136" />
    <radialGradient
       inkscape:collect="always"
       xlink:href="#linearGradient3079"
       id="radialGradient4937"
       gradientUnits="userSpaceOnUse"
       gradientTransform="matrix(1,0,0,0.98056266,0,10.143726)"
       cx="464.80362"
       cy="527.27637"
       fx="464.80362"
       fy="527.27637"
       r="15.310997" />
    <radialGradient
       inkscape:collect="always"
       xlink:href="#linearGradient3079"
       id="radialGradient4943"
       gradientUnits="userSpaceOnUse"
       gradientTransform="matrix(-0.62071292,-0.90941872,0.8098967,-0.55278437,261.36556,1204.4559)"
       cx="424.61761"
       cy="527.00262"
       fx="424.61761"
       fy="527.00262"
       r="12.246221" />
    <radialGradient
       inkscape:collect="always"
       xlink:href="#linearGradient3079"
       id="radialGradient4951"
       gradientUnits="userSpaceOnUse"
       gradientTransform="matrix(1,0,0,0.98056266,0,10.143726)"
       cx="464.80362"
       cy="527.27637"
       fx="464.80362"
       fy="527.27637"
       r="15.310997" />
    <radialGradient
       inkscape:collect="always"
       xlink:href="#linearGradient3079"
       id="radialGradient4959"
       gradientUnits="userSpaceOnUse"
       gradientTransform="matrix(1,0,0,0.98056266,0,10.143726)"
       cx="464.80362"
       cy="527.27637"
       fx="464.80362"
       fy="527.27637"
       r="15.310997" />
    <radialGradient
       inkscape:collect="always"
       xlink:href="#linearGradient3079"
       id="radialGradient4967"
       gradientUnits="userSpaceOnUse"
       gradientTransform="matrix(1,0,0,0.98056266,0,10.143726)"
       cx="464.80362"
       cy="527.27637"
       fx="464.80362"
       fy="527.27637"
       r="15.310997" />
    <radialGradient
       inkscape:collect="always"
       xlink:href="#linearGradient3925"
       id="radialGradient5356"
       gradientUnits="userSpaceOnUse"
       gradientTransform="matrix(1,0,0,0.3842483,0,554.47405)"
       cx="100.45855"
       cy="921.64594"
       fx="100.45855"
       fy="921.64594"
       r="58.505035" />
    <radialGradient
       inkscape:collect="always"
       xlink:href="#linearGradient3071"
       id="radialGradient5358"
       gradientUnits="userSpaceOnUse"
       gradientTransform="matrix(1,0,0,1.4289469,0,-325.73173)"
       cx="156.5768"
       cy="759.37549"
       fx="156.5768"
       fy="759.37549"
       r="89.576805" />
    <radialGradient
       inkscape:collect="always"
       xlink:href="#linearGradient3925"
       id="radialGradient5360"
       gradientUnits="userSpaceOnUse"
       gradientTransform="matrix(0.99997148,-0.00755275,0.00298362,0.3950256,-53.670014,510.55425)"
       cx="363.22302"
       cy="898.36456"
       fx="363.22302"
       fy="898.36456"
       r="118.49831" />
    <radialGradient
       inkscape:collect="always"
       xlink:href="#linearGradient3071"
       id="radialGradient5362"
       gradientUnits="userSpaceOnUse"
       gradientTransform="matrix(1,0,0,0.51509477,0,353.44058)"
       cx="96.124428"
       cy="728.13409"
       fx="96.124428"
       fy="728.13409"
       r="30.935921" />
    <radialGradient
       inkscape:collect="always"
       xlink:href="#linearGradient3071"
       id="radialGradient5364"
       gradientUnits="userSpaceOnUse"
       gradientTransform="matrix(1,0,0,0.51509477,0,353.44058)"
       cx="96.124428"
       cy="728.13409"
       fx="96.124428"
       fy="728.13409"
       r="30.935921" />
    <radialGradient
       inkscape:collect="always"
       xlink:href="#linearGradient3071"
       id="radialGradient4672"
       gradientUnits="userSpaceOnUse"
       gradientTransform="matrix(0.99972463,0.02346618,-0.02510034,1.0693448,6.5378877,-21.653928)"
       cx="168.57047"
       cy="276.2543"
       fx="168.57047"
       fy="276.2543"
       r="108.0136" />
    <radialGradient
       inkscape:collect="always"
       xlink:href="#linearGradient5121"
       id="radialGradient4674"
       gradientUnits="userSpaceOnUse"
       gradientTransform="matrix(0.9936117,-0.11285295,0.10284403,0.90548835,-98.727355,145.98046)"
       cx="525.01648"
       cy="992.5838"
       fx="525.01648"
       fy="992.5838"
       r="24.064341" />
    <radialGradient
       inkscape:collect="always"
       xlink:href="#linearGradient3925"
       id="radialGradient4676"
       gradientUnits="userSpaceOnUse"
       gradientTransform="matrix(0.9998694,-0.01712233,0.01892778,1.2406375,-18.562963,-227.85102)"
       cx="527"
       cy="984.36218"
       fx="527"
       fy="984.36218"
       r="16.25" />
    <radialGradient
       inkscape:collect="always"
       xlink:href="#linearGradient5121"
       id="radialGradient4678"
       gradientUnits="userSpaceOnUse"
       gradientTransform="matrix(-0.08420794,-1.0028458,0.92765779,-0.07789476,-352.66756,1607.5865)"
       cx="531.0293"
       cy="998.89685"
       fx="531.0293"
       fy="998.89685"
       r="16.328541" />
    <radialGradient
       inkscape:collect="always"
       xlink:href="#linearGradient4578"
       id="radialGradient4680"
       gradientUnits="userSpaceOnUse"
       gradientTransform="matrix(0.83554772,-0.1343511,0.13190248,0.82031519,-37.699881,247.47871)"
       cx="547.25"
       cy="968.11218"
       fx="547.25"
       fy="968.11218"
       r="12" />
    <radialGradient
       inkscape:collect="always"
       xlink:href="#linearGradient4625"
       id="radialGradient4682"
       gradientUnits="userSpaceOnUse"
       gradientTransform="matrix(-0.97131477,-1.3740557,0.97629344,-0.69013812,167.01088,2231.1788)"
       cx="526.5"
       cy="892.03339"
       fx="526.5"
       fy="892.03339"
       r="10.552705" />
    <radialGradient
       inkscape:collect="always"
       xlink:href="#linearGradient4578"
       id="radialGradient4684"
       gradientUnits="userSpaceOnUse"
       gradientTransform="matrix(0.83554772,-0.1343511,0.13190248,0.82031519,-37.699881,247.47871)"
       cx="547.25"
       cy="968.11218"
       fx="547.25"
       fy="968.11218"
       r="12" />
    <radialGradient
       inkscape:collect="always"
       xlink:href="#linearGradient3079"
       id="radialGradient4940"
       cx="87.858017"
       cy="656.55493"
       fx="87.858017"
       fy="656.55493"
       r="12.50704"
       gradientTransform="matrix(-0.40282415,-0.86925173,0.50294881,-0.23307438,-206.96417,883.42362)"
       gradientUnits="userSpaceOnUse" />
  </defs>
  <sodipodi:namedview
     id="base"
     pagecolor="#ffffff"
     bordercolor="#666666"
     borderopacity="1.0"
     inkscape:pageopacity="0.0"
     inkscape:pageshadow="2"
     inkscape:zoom="0.5"
     inkscape:cx="526.18109"
     inkscape:cy="93.52451"
     inkscape:document-units="px"
     inkscape:current-layer="layer1"
     showgrid="false"
     inkscape:window-width="1600"
     inkscape:window-height="829"
     inkscape:window-x="0"
     inkscape:window-y="24"
     inkscape:window-maximized="1"
     showguides="true"
     inkscape:guide-bbox="true" />
  <metadata
     id="metadata7">
    <rdf:RDF>
      <cc:Work
         rdf:about="">
        <dc:format>image/svg+xml</dc:format>
        <dc:type
           rdf:resource="http://purl.org/dc/dcmitype/StillImage" />
        <dc:title></dc:title>
      </cc:Work>
    </rdf:RDF>
  </metadata>
  <g
     inkscape:label="Layer 1"
     inkscape:groupmode="layer"
     id="layer1"
     transform="translate(0,-692.36218)">
    <g
       id="g5334"
       transform="translate(-21.83409,116.39967)">
      <g
         transform="translate(13,-31)"
         id="g5288">
        <path
           style="fill:#000000;stroke:none"
           d="m 49.5,922.86218 88.5,0 c 13.05143,1.12663 23.61378,-30.35632 -28,-20.5 16.03656,-18.31902 -50.435279,-44.16076 -51.5,0 -45.580937,-4.75032 -22.026151,22.46257 -9,20.5 z"
           id="path5275"
           inkscape:connector-curvature="0"
           sodipodi:nodetypes="ccccc" />
        <path
           sodipodi:nodetypes="ccccc"
           inkscape:connector-curvature="0"
           id="path5277"
           d="m 50.207107,921.09441 85.671573,0.70711 c 13.05143,1.12663 23.437,-27.70467 -28.17678,-17.84835 16.03656,-18.31902 -46.546189,-44.51431 -47.61091,-0.35355 -45.580937,-4.75032 -22.910034,19.45736 -9.883883,17.49479 z"
           style="fill:url(#radialGradient5356);stroke:none" />
        <path
           style="fill:#9b9bea;fill-opacity:1;stroke:none"
           d="m 80.40625,880.4375 c -11.032156,-0.0269 -19.184259,10.22704 -19.1875,20.8125 1.429291,5.76041 -5.016801,2.25512 -8.28125,2.8125 -6.219072,0.17954 -14.659873,-1.14716 -18.78125,4.46875 -1.032633,2.34602 1.570106,5.76283 2.71875,6.15625 0.801443,-7.24452 10.433315,-7.46065 16.0625,-7.71875 3.633072,-0.3191 8.108872,0.60763 11.15625,0.15625 -0.188414,-11.4601 8.02605,-23.1126 20.09375,-23.625 5.971768,-0.62141 12.00528,0.57853 17.4375,2.875 -6.20402,-4.16086 -13.733028,-6.36494 -21.21875,-5.9375 z m 21.25,5.96875 c 0.24302,0.16246 -0.0359,-0.1306 0,0 z m 21.8125,16.5625 c -3.30486,0.4672 -7.90275,-0.74409 -8.09375,3.625 0.0506,1.85057 6.19052,-0.77808 8.6207,-0.37387 6.00121,-0.87119 14.49714,-0.17945 19.03555,0.87387 -5.37847,-4.38099 -12.97014,-4.21957 -19.5625,-4.125 z"
           id="path5281"
           inkscape:connector-curvature="0" />
      </g>
      <path
         sodipodi:nodetypes="csssssc"
         inkscape:connector-curvature="0"
         id="path5253"
         d="M 195.00006,631.375 C 124.30757,631.375 67,688.68257 67,759.37506 c 0,70.69247 57.30842,127.65709 128.00006,128.00006 24.28742,0.11787 19.17826,-11.88942 2.29974,-18.66759 -34.24715,-13.75313 -54.64341,-55.94629 -54.64341,-100.09535 0,-61.21824 43.02206,-92.1197 95.89008,-110.84542 19.06534,-6.75289 1.46977,-25.61564 -43.54641,-26.39176 z"
         style="fill:#000000;fill-opacity:1;stroke:none" />
      <path
         style="fill:url(#radialGradient5358);fill-opacity:1;stroke:none"
         d="m 192.17163,637.03185 c -67.06017,0 -118.455483,51.62591 -118.807669,122.34321 -0.324378,65.13353 47.458109,115.11058 115.979249,123.05031 24.12628,2.79558 17.05694,-6.23256 0.17842,-13.01073 -34.24715,-13.75313 -53.2292,-59.48183 -53.2292,-103.63089 0,-61.21824 39.48653,-92.1197 92.35455,-110.84542 19.06534,-6.75289 8.54083,-17.13036 -36.47535,-17.90648 z"
         id="path5258"
         inkscape:connector-curvature="0"
         sodipodi:nodetypes="csssssc" />
      <g
         transform="translate(-11,0)"
         id="g5293">
        <path
           style="fill:#000000;stroke:none"
           d="m 170.32442,872.42254 177.4838,0 c 28.00213,4.17604 86.88433,-35.66359 -69.29646,-44.54773 23.47795,-59.75521 -108.71754,-34.92908 -85.55992,0.70711 -73.46908,-14.56792 -46.03316,47.43923 -22.62742,43.84062 z"
           id="path5262"
           inkscape:connector-curvature="0"
           sodipodi:nodetypes="ccccc" />
        <path
           sodipodi:nodetypes="ccccc"
           inkscape:connector-curvature="0"
           id="path5264"
           d="m 172.09219,869.59411 174.30182,1.41421 c 28.00213,4.17604 86.53078,-34.07337 -69.65001,-40.30508 23.47795,-59.75521 -103.41425,-35.98974 -80.25663,-0.35355 -73.46908,-14.56792 -47.80092,42.84303 -24.39518,39.24442 z"
           style="fill:url(#radialGradient5360);stroke:none" />
        <path
           style="fill:#9b9bea;fill-opacity:1;stroke:none"
           d="m 243.71875,795.25 c -16.41102,0.96262 -34.45862,4.86576 -45.8125,17.65625 -4.81165,5.39776 -3.7021,13.5729 0.59375,18.84375 -14.38082,-2.425 -31.56827,-6.14481 -44.375,2.8125 -8.70202,6.77408 -4.99589,20.60021 1.78125,27.03125 -5.45791,-8.67114 -3.28005,-21.92049 6.84375,-26.09375 11.75948,-5.41813 25.53062,-3.57019 37.78125,-1.5625 -5.31396,-9.09253 1.47639,-19.78779 9.72844,-24.38171 17.34472,-10.53462 39.52172,-14.288 59.17781,-8.86829 -7.60848,-4.58214 -16.91154,-5.62681 -25.71875,-5.4375 z m 41.21875,37.21875 c -2.15216,4.71511 7.08887,1.54293 10.02859,2.82184 26.09993,1.79879 52.75032,3.20939 77.62766,11.83441 -20.76919,-10.22417 -44.60376,-11.31957 -67.34066,-13.73479 -6.66017,-0.3031 -14.10208,-1.44515 -20.31559,-0.92146 z"
           id="path5268"
           inkscape:connector-curvature="0" />
      </g>
      <path
         style="fill:#fee800;fill-opacity:1;stroke:none"
         d="m 189.07694,638.06812 c -40.51643,0.37127 -79.8327,23.3037 -99.044418,59.12622 -23.171632,42.01335 -21.194341,98.34491 9.20067,136.31128 -31.255626,-52.52997 -17.305381,-128.14584 33.026538,-163.77697 26.20411,-19.33086 60.23057,-25.24235 92.15444,-20.76527 3.71602,-0.5848 8.57465,3.19421 11.50652,0.66724 2.64127,-3.70401 -3.63475,-6.01295 -6.3125,-6.96875 -12.96529,-3.99539 -26.99493,-4.4688 -40.53125,-4.59375 z"
         id="path5382"
         inkscape:connector-curvature="0"
         sodipodi:nodetypes="cccccccc" />
      <g
         transform="matrix(0.81409311,0,0,0.81409311,4.7201293,125.17793)"
         id="g5314">
        <path
           sodipodi:type="arc"
           style="fill:#000000;fill-opacity:1;stroke:none"
           id="path5300"
           sodipodi:cx="94.575531"
           sodipodi:cy="737.34613"
           sodipodi:rx="30.935923"
           sodipodi:ry="24.395184"
           d="m 125.51145,737.34613 c 0,13.47309 -13.85048,24.39518 -30.935919,24.39518 -17.085438,0 -30.935923,-10.92209 -30.935923,-24.39518 0,-13.47309 13.850485,-24.39518 30.935923,-24.39518 17.085439,0 30.935919,10.92209 30.935919,24.39518 z" />
        <path
           style="fill:#ffffff;fill-opacity:1;stroke:none"
           d="m 122.8125,737.34375 c -10.29483,4.34903 -47.237482,11.62627 -53.835786,9.03737 3.550763,9.10021 12.880991,13.24388 25.585786,13.24388 15.59975,0 28.25,-9.97973 28.25,-22.28125 z m -56.375,1.875 c 0.05294,0.502 0.124289,1.00801 0.21875,1.5 -0.09337,-0.48677 -0.166011,-1.00343 -0.21875,-1.5 z"
           id="path5302"
           inkscape:connector-curvature="0"
           sodipodi:nodetypes="ccscccc" />
        <path
           sodipodi:type="arc"
           style="fill:#000000;fill-opacity:1;stroke:none"
           id="path5312"
           sodipodi:cx="97.580734"
           sodipodi:cy="744.28461"
           sodipodi:rx="10.69499"
           sodipodi:ry="11.269514"
           d="m 108.27572,744.28461 c 0,6.22398 -4.78831,11.26951 -10.694986,11.26951 -5.90668,0 -10.69499,-5.04553 -10.69499,-11.26951 0,-6.22398 4.78831,-11.26952 10.69499,-11.26952 5.906676,0 10.694986,5.04554 10.694986,11.26952 z"
           transform="matrix(1.4173554,0,0,1.1863598,-41.919086,-137.18097)" />
        <path
           transform="matrix(0.91304348,0,0,0.91304348,8.2239593,64.117056)"
           style="fill:url(#radialGradient5362);fill-opacity:1;stroke:none"
           d="m 124.64019,734.73236 c -11.27529,4.76322 -52.409784,12.63548 -59.636498,9.80002 -0.886751,-2.2718 -1.364084,-4.68507 -1.364084,-7.18625 0,-13.47309 13.850485,-24.39518 30.935923,-24.39518 17.085439,0 30.064659,8.30832 30.064659,21.78141 z"
           id="path5304"
           inkscape:connector-curvature="0"
           sodipodi:nodetypes="ccssc" />
      </g>
      <g
         id="g5322"
         transform="matrix(-0.81409311,0,0,0.81409311,216.50732,121.10747)">
        <path
           d="m 125.51145,737.34613 c 0,13.47309 -13.85048,24.39518 -30.935919,24.39518 -17.085438,0 -30.935923,-10.92209 -30.935923,-24.39518 0,-13.47309 13.850485,-24.39518 30.935923,-24.39518 17.085439,0 30.935919,10.92209 30.935919,24.39518 z"
           sodipodi:ry="24.395184"
           sodipodi:rx="30.935923"
           sodipodi:cy="737.34613"
           sodipodi:cx="94.575531"
           id="path5324"
           style="fill:#000000;fill-opacity:1;stroke:none"
           sodipodi:type="arc" />
        <path
           sodipodi:nodetypes="ccscccc"
           inkscape:connector-curvature="0"
           id="path5326"
           d="m 122.8125,737.34375 c -10.29483,4.34903 -47.237482,11.62627 -53.835786,9.03737 3.550763,9.10021 12.880991,13.24388 25.585786,13.24388 15.59975,0 28.25,-9.97973 28.25,-22.28125 z m -56.375,1.875 c 0.05294,0.502 0.124289,1.00801 0.21875,1.5 -0.09337,-0.48677 -0.166011,-1.00343 -0.21875,-1.5 z"
           style="fill:#ffffff;fill-opacity:1;stroke:none" />
        <path
           transform="matrix(1.4173554,0,0,1.1863598,-41.919086,-137.18097)"
           d="m 108.27572,744.28461 c 0,6.22398 -4.78831,11.26951 -10.694986,11.26951 -5.90668,0 -10.69499,-5.04553 -10.69499,-11.26951 0,-6.22398 4.78831,-11.26952 10.69499,-11.26952 5.906676,0 10.694986,5.04554 10.694986,11.26952 z"
           sodipodi:ry="11.269514"
           sodipodi:rx="10.69499"
           sodipodi:cy="744.28461"
           sodipodi:cx="97.580734"
           id="path5328"
           style="fill:#000000;fill-opacity:1;stroke:none"
           sodipodi:type="arc" />
        <path
           sodipodi:nodetypes="ccssc"
           inkscape:connector-curvature="0"
           id="path5330"
           d="m 124.64019,734.73236 c -11.27529,4.76322 -52.409784,12.63548 -59.636498,9.80002 -0.886751,-2.2718 -1.364084,-4.68507 -1.364084,-7.18625 0,-13.47309 13.850485,-24.39518 30.935923,-24.39518 17.085439,0 30.064659,8.30832 30.064659,21.78141 z"
           style="fill:url(#radialGradient5364);fill-opacity:1;stroke:none"
           transform="matrix(0.91304348,0,0,0.91304348,8.2239593,64.117056)" />
      </g>
      <path
         style="fill:#000000;stroke:none"
         d="m 125.35937,699.6641 c 4.18486,-6.54938 65.37348,-3.61246 61.87184,0.88389 -0.17677,-0.70711 0.17678,-8.66206 0.17678,-8.66206 -24.12942,-8.71617 -43.16749,-1.64919 -62.75573,3.71231 z"
         id="path4913"
         inkscape:connector-curvature="0"
         sodipodi:nodetypes="ccccc" />
      <path
         sodipodi:nodetypes="ccccc"
         inkscape:connector-curvature="0"
         id="path4915"
         d="m 100.6778,705.84233 c -3.442712,-6.96816 -64.585074,-10.7476 -61.596726,-5.89493 0.25312,-0.68351 0.772574,-8.62935 0.772574,-8.62935 24.938603,-6.02218 43.088575,3.08655 61.972122,10.56027 z"
         style="fill:#000000;stroke:none" />
      <path
         style="fill:#000000;fill-opacity:1;stroke:none"
         d="m 129.33409,797.96251 c 0,18.36347 -9.304,32.6856 -20.75,33.25 -15.209911,0.75 -20.750002,-14.88653 -20.750002,-33.25 0,-18.36347 -0.459909,-34.5 18.250002,-34.25 11.45888,0.15311 23.25,15.88653 23.25,34.25 z"
         id="path4917"
         inkscape:connector-curvature="0"
         sodipodi:nodetypes="sssss" />
      <path
         style="fill:#ffffff;stroke:none"
         d="m 78.5,602.75 c -0.520904,-6.4e-4 -1.032158,0.0397 -1.53125,0.0937 0.01756,0.70288 0.110319,5.29085 0.15625,7.15625 1.546258,-0.14751 3.133104,-0.0602 4.75,0.1875 L 81.78125,603.125 C 80.655307,602.87174 79.550155,602.75129 78.5,602.75 z m -2.46875,0.21875 c -1.612879,0.2877 -3.070146,0.88023 -4.375,1.625 0.02718,1.09308 0.105621,4.77686 0.15625,6.84375 1.395873,-0.64137 2.843748,-1.05167 4.3125,-1.28125 l -0.09375,-7.1875 z m 6.6875,0.40625 c 0.01842,0.73772 0.110909,5.15805 0.15625,7 1.593604,0.31691 3.221985,0.79228 4.875,1.4375 l -0.0625,-6.15625 c -1.699071,-1.07128 -3.367734,-1.81785 -4.96875,-2.28125 z m -12.03125,1.78125 c -1.734502,1.18589 -3.094572,2.69512 -3.96875,4.28125 l 0.15625,5.34375 c 1.263087,-1.16455 2.566872,-2.08236 3.90625,-2.8125 l -0.09375,-6.8125 z m 17.96875,1.125 c 0.02379,0.95703 0.08324,4.23632 0.125,5.9375 1.347027,0.57313 2.712606,1.24112 4.09375,2 L 92.84375,609.875 c -1.412183,-1.43947 -2.805382,-2.62731 -4.1875,-3.59375 z M 68,656.96875 l 0.09375,3.375 c 1.106084,1.41124 2.219989,2.61171 3.34375,3.625 l -0.0625,-5.375 c -1.10384,-0.46579 -2.227307,-0.99413 -3.375,-1.625 z m 25.3125,1 c -1.14702,0.55114 -2.314208,1.03069 -3.5,1.4375 0.03953,2.37962 0.07664,4.18116 0.09375,5.875 1.217482,-0.90973 2.371755,-1.98268 3.4375,-3.21875 l -0.03125,-4.09375 z m -20.46875,1.21875 c 0.03544,2.28206 0.08323,4.48784 0.09375,6 1.311008,0.98546 2.634098,1.70992 3.9375,2.21875 l -0.09375,-7.09375 c -1.28164,-0.26364 -2.595864,-0.63581 -3.9375,-1.125 z m 15.53125,0.65625 c -1.431572,0.40637 -2.905438,0.69635 -4.40625,0.84375 0.04788,3.17265 0.06897,5.89976 0.0625,7.375 1.540243,-0.32643 3.024155,-0.95744 4.4375,-1.8125 L 88.375,659.84375 z m -10.15625,0.71875 c 0.04744,3.16749 0.07023,5.90094 0.0625,7.34375 1.468495,0.39403 2.929358,0.50684 4.34375,0.375 l -0.09375,-7.5 c -1.400926,0.0513 -2.840859,-0.005 -4.3125,-0.21875 z"
         transform="translate(25.834088,161.86803)"
         id="path4920"
         inkscape:connector-curvature="0" />
      <path
         style="fill:url(#radialGradient4940);fill-opacity:1;stroke:none"
         d="m 68.412581,652.87771 c 7.498302,9.50354 25.07855,2.94739 25.013903,-0.35355 -0.159206,-14.16369 -11.485693,-7.13244 -12.551145,-4.41943 -2.498905,-2.07128 -9.981207,-8.82489 -12.462758,4.77298 z"
         id="path4938"
         inkscape:connector-curvature="0"
         transform="translate(25.834088,161.86803)"
         sodipodi:nodetypes="cccc" />
    </g>
  </g>
</svg>
