<?xml version="1.0" encoding="UTF-8" standalone="no"?>
<!-- Created with Inkscape (http://www.inkscape.org/) -->

<svg
   xmlns:dc="http://purl.org/dc/elements/1.1/"
   xmlns:cc="http://creativecommons.org/ns#"
   xmlns:rdf="http://www.w3.org/1999/02/22-rdf-syntax-ns#"
   xmlns:svg="http://www.w3.org/2000/svg"
   xmlns="http://www.w3.org/2000/svg"
   xmlns:xlink="http://www.w3.org/1999/xlink"
   xmlns:sodipodi="http://sodipodi.sourceforge.net/DTD/sodipodi-0.dtd"
   xmlns:inkscape="http://www.inkscape.org/namespaces/inkscape"
   width="256"
   height="256"
   id="svg2"
   version="1.1"
   inkscape:version="0.48.4 r9939"
   sodipodi:docname="starry03.svg"
   inkscape:export-filename="starry.png"
   inkscape:export-xdpi="60.476192"
   inkscape:export-ydpi="60.476192">
  <defs
     id="defs4">
    <linearGradient
       id="linearGradient4625">
      <stop
         style="stop-color:#9c4a13;stop-opacity:1;"
         offset="0"
         id="stop4627" />
      <stop
         style="stop-color:#552200;stop-opacity:1;"
         offset="1"
         id="stop4629" />
    </linearGradient>
    <linearGradient
       inkscape:collect="always"
       id="linearGradient4578">
      <stop
         style="stop-color:#ff0000;stop-opacity:1;"
         offset="0"
         id="stop4580" />
      <stop
         style="stop-color:#ff0000;stop-opacity:0;"
         offset="1"
         id="stop4582" />
    </linearGradient>
    <linearGradient
       id="linearGradient4270">
      <stop
         style="stop-color:#27a027;stop-opacity:1;"
         offset="0"
         id="stop4272" />
      <stop
         style="stop-color:#2beb2b;stop-opacity:1;"
         offset="1"
         id="stop4274" />
    </linearGradient>
    <linearGradient
       id="linearGradient5121">
      <stop
         style="stop-color:#e82ae8;stop-opacity:1;"
         offset="0"
         id="stop5123" />
      <stop
         style="stop-color:#ab378e;stop-opacity:1;"
         offset="1"
         id="stop5125" />
    </linearGradient>
    <linearGradient
       id="linearGradient4587">
      <stop
         style="stop-color:#ffdb00;stop-opacity:1;"
         offset="0"
         id="stop4589" />
      <stop
         style="stop-color:#ff6600;stop-opacity:1;"
         offset="1"
         id="stop4591" />
    </linearGradient>
    <linearGradient
       id="linearGradient4428">
      <stop
         style="stop-color:#404040;stop-opacity:1;"
         offset="0"
         id="stop4430" />
      <stop
         style="stop-color:#636363;stop-opacity:1;"
         offset="1"
         id="stop4432" />
    </linearGradient>
    <linearGradient
       id="linearGradient4414">
      <stop
         style="stop-color:#b9a165;stop-opacity:1;"
         offset="0"
         id="stop4416" />
      <stop
         style="stop-color:#978045;stop-opacity:1;"
         offset="1"
         id="stop4418" />
    </linearGradient>
    <linearGradient
       id="linearGradient3925">
      <stop
         style="stop-color:#ffffff;stop-opacity:1;"
         offset="0"
         id="stop3927" />
      <stop
         style="stop-color:#d5d5d5;stop-opacity:1;"
         offset="1"
         id="stop3929" />
    </linearGradient>
    <linearGradient
       id="linearGradient3861">
      <stop
         style="stop-color:#161688;stop-opacity:1;"
         offset="0"
         id="stop3863" />
      <stop
         style="stop-color:#1717ac;stop-opacity:1;"
         offset="1"
         id="stop3865" />
    </linearGradient>
    <linearGradient
       id="linearGradient3079">
      <stop
         style="stop-color:#d40000;stop-opacity:1;"
         offset="0"
         id="stop3081" />
      <stop
         style="stop-color:#ff0d00;stop-opacity:1;"
         offset="1"
         id="stop3083" />
    </linearGradient>
    <linearGradient
       id="linearGradient3071">
      <stop
         style="stop-color:#fff000;stop-opacity:1;"
         offset="0"
         id="stop3073" />
      <stop
         style="stop-color:#ffcc00;stop-opacity:1;"
         offset="1"
         id="stop3075" />
    </linearGradient>
    <radialGradient
       inkscape:collect="always"
       xlink:href="#linearGradient3071"
       id="radialGradient3077"
       cx="125.39076"
       cy="260.3558"
       fx="125.39076"
       fy="260.3558"
       r="108.0136"
       gradientTransform="matrix(-0.6024081,-0.59404114,0.67446021,-0.68396675,78.552535,550.19539)"
       gradientUnits="userSpaceOnUse" />
    <linearGradient
       inkscape:collect="always"
       xlink:href="#linearGradient3079"
       id="linearGradient3087"
       x1="272.76645"
       y1="221.86528"
       x2="273.12"
       y2="227.6989"
       gradientUnits="userSpaceOnUse" />
    <linearGradient
       inkscape:collect="always"
       xlink:href="#linearGradient3861"
       id="linearGradient3872"
       gradientUnits="userSpaceOnUse"
       x1="258.875"
       y1="106.36218"
       x2="275.75"
       y2="139.48718"
       gradientTransform="matrix(0.97971639,-0.20038909,0.20038909,0.97971639,-18.675651,55.086359)" />
    <radialGradient
       inkscape:collect="always"
       xlink:href="#linearGradient3071"
       id="radialGradient4269"
       cx="163.93484"
       cy="284.47501"
       fx="163.93484"
       fy="284.47501"
       r="108.0136"
       gradientTransform="matrix(1.0021393,-0.00822154,0.02280656,1.1172491,-6.8385999,-33.021411)"
       gradientUnits="userSpaceOnUse" />
    <radialGradient
       inkscape:collect="always"
       xlink:href="#linearGradient3925"
       id="radialGradient4286"
       cx="455.3418"
       cy="326.35748"
       fx="455.3418"
       fy="326.35748"
       r="33.595551"
       gradientTransform="matrix(1,0,0,0.54758086,0,150.89964)"
       gradientUnits="userSpaceOnUse" />
    <radialGradient
       inkscape:collect="always"
       xlink:href="#linearGradient3925"
       id="radialGradient4288"
       cx="506.75"
       cy="320.34167"
       fx="506.75"
       fy="320.34167"
       r="32.75"
       gradientTransform="matrix(1,0,0,0.59606531,0,137.39712)"
       gradientUnits="userSpaceOnUse" />
    <linearGradient
       inkscape:collect="always"
       xlink:href="#linearGradient4414"
       id="linearGradient4420"
       x1="271.81821"
       y1="524.1095"
       x2="274.26199"
       y2="532.18262"
       gradientUnits="userSpaceOnUse" />
    <linearGradient
       inkscape:collect="always"
       xlink:href="#linearGradient4428"
       id="linearGradient4434"
       x1="238.46864"
       y1="552.31421"
       x2="225.72975"
       y2="569.94263"
       gradientUnits="userSpaceOnUse" />
    <radialGradient
       inkscape:collect="always"
       xlink:href="#linearGradient3925"
       id="radialGradient4442"
       cx="502.11005"
       cy="260.3374"
       fx="502.11005"
       fy="260.3374"
       r="26.274143"
       gradientTransform="matrix(0.79551346,0.44120601,-0.42087109,0.75884875,209.13317,-150.22852)"
       gradientUnits="userSpaceOnUse" />
    <radialGradient
       inkscape:collect="always"
       xlink:href="#linearGradient3925"
       id="radialGradient4448"
       gradientUnits="userSpaceOnUse"
       gradientTransform="matrix(-0.73156691,0.19304627,0.18414888,0.69784946,770.56159,-16.416917)"
       cx="502.11005"
       cy="260.3374"
       fx="502.11005"
       fy="260.3374"
       r="26.274143" />
    <radialGradient
       inkscape:collect="always"
       xlink:href="#linearGradient3071"
       id="radialGradient4665"
       gradientUnits="userSpaceOnUse"
       gradientTransform="matrix(0.99972463,0.02346618,-0.02510034,1.0693448,6.5378877,-21.653928)"
       cx="168.57047"
       cy="276.2543"
       fx="168.57047"
       fy="276.2543"
       r="108.0136" />
    <linearGradient
       inkscape:collect="always"
       xlink:href="#linearGradient3079"
       id="linearGradient4667"
       gradientUnits="userSpaceOnUse"
       x1="479.75"
       y1="220.61218"
       x2="500.75"
       y2="252.11218" />
    <linearGradient
       inkscape:collect="always"
       xlink:href="#linearGradient3079"
       id="linearGradient4669"
       gradientUnits="userSpaceOnUse"
       x1="520.12061"
       y1="205.5809"
       x2="535.05969"
       y2="233.0809" />
    <linearGradient
       inkscape:collect="always"
       xlink:href="#linearGradient3079"
       id="linearGradient4671"
       gradientUnits="userSpaceOnUse"
       x1="542.12952"
       y1="236.51218"
       x2="552.99329"
       y2="260.26218" />
    <linearGradient
       inkscape:collect="always"
       xlink:href="#linearGradient3079"
       id="linearGradient4673"
       gradientUnits="userSpaceOnUse"
       x1="515.14703"
       y1="267.21649"
       x2="538.38574"
       y2="293.46649" />
    <linearGradient
       inkscape:collect="always"
       xlink:href="#linearGradient3079"
       id="linearGradient4675"
       gradientUnits="userSpaceOnUse"
       x1="474.09912"
       y1="260.07355"
       x2="498.2095"
       y2="287.57355" />
    <radialGradient
       inkscape:collect="always"
       xlink:href="#linearGradient4587"
       id="radialGradient4677"
       gradientUnits="userSpaceOnUse"
       gradientTransform="matrix(-0.52995639,-1.1744978,0.85048778,-0.38375608,570.04678,961.12381)"
       cx="511.99646"
       cy="258.42703"
       fx="511.99646"
       fy="258.42703"
       r="17.454245" />
    <linearGradient
       inkscape:collect="always"
       xlink:href="#linearGradient3079"
       id="linearGradient4679"
       gradientUnits="userSpaceOnUse"
       x1="419.84464"
       y1="333.41135"
       x2="421.25888"
       y2="341.89664" />
    <linearGradient
       inkscape:collect="always"
       xlink:href="#linearGradient3079"
       id="linearGradient4681"
       gradientUnits="userSpaceOnUse"
       x1="420"
       y1="325.61218"
       x2="422"
       y2="332.73718" />
    <radialGradient
       inkscape:collect="always"
       xlink:href="#linearGradient3071"
       id="radialGradient4859"
       gradientUnits="userSpaceOnUse"
       gradientTransform="matrix(0.63529918,0.45672657,-0.48853271,0.67954101,615.23982,99.714894)"
       cx="168.57047"
       cy="276.2543"
       fx="168.57047"
       fy="276.2543"
       r="108.0136" />
    <linearGradient
       inkscape:collect="always"
       xlink:href="#linearGradient4428"
       id="linearGradient4861"
       gradientUnits="userSpaceOnUse"
       x1="569.92804"
       y1="328.6384"
       x2="577.35266"
       y2="385.56049" />
    <linearGradient
       inkscape:collect="always"
       xlink:href="#linearGradient4587"
       id="linearGradient4863"
       gradientUnits="userSpaceOnUse"
       x1="635.54486"
       y1="388.39685"
       x2="655.91925"
       y2="388.39685" />
    <linearGradient
       inkscape:collect="always"
       xlink:href="#linearGradient4428"
       id="linearGradient4865"
       gradientUnits="userSpaceOnUse"
       x1="571.75"
       y1="259.36218"
       x2="587.25"
       y2="303.61218" />
    <radialGradient
       inkscape:collect="always"
       xlink:href="#linearGradient3071"
       id="radialGradient4869"
       gradientUnits="userSpaceOnUse"
       gradientTransform="matrix(0.99972463,0.02346618,-0.02510034,1.0693448,6.5378877,-21.653928)"
       cx="171.29147"
       cy="285.97275"
       fx="171.29147"
       fy="285.97275"
       r="108.0136" />
    <radialGradient
       inkscape:collect="always"
       xlink:href="#linearGradient3071"
       id="radialGradient4873"
       gradientUnits="userSpaceOnUse"
       gradientTransform="matrix(0.99972463,0.02346618,-0.02510034,1.0693448,6.5378877,-21.653928)"
       cx="177.93721"
       cy="289.21756"
       fx="177.93721"
       fy="289.21756"
       r="108.0136" />
    <radialGradient
       inkscape:collect="always"
       xlink:href="#linearGradient3079"
       id="radialGradient4937"
       gradientUnits="userSpaceOnUse"
       gradientTransform="matrix(1,0,0,0.98056266,0,10.143726)"
       cx="464.80362"
       cy="527.27637"
       fx="464.80362"
       fy="527.27637"
       r="15.310997" />
    <radialGradient
       inkscape:collect="always"
       xlink:href="#linearGradient3079"
       id="radialGradient4943"
       gradientUnits="userSpaceOnUse"
       gradientTransform="matrix(-0.62071292,-0.90941872,0.8098967,-0.55278437,261.36556,1204.4559)"
       cx="424.61761"
       cy="527.00262"
       fx="424.61761"
       fy="527.00262"
       r="12.246221" />
    <radialGradient
       inkscape:collect="always"
       xlink:href="#linearGradient3079"
       id="radialGradient4951"
       gradientUnits="userSpaceOnUse"
       gradientTransform="matrix(1,0,0,0.98056266,0,10.143726)"
       cx="464.80362"
       cy="527.27637"
       fx="464.80362"
       fy="527.27637"
       r="15.310997" />
    <radialGradient
       inkscape:collect="always"
       xlink:href="#linearGradient3079"
       id="radialGradient4959"
       gradientUnits="userSpaceOnUse"
       gradientTransform="matrix(1,0,0,0.98056266,0,10.143726)"
       cx="464.80362"
       cy="527.27637"
       fx="464.80362"
       fy="527.27637"
       r="15.310997" />
    <radialGradient
       inkscape:collect="always"
       xlink:href="#linearGradient3079"
       id="radialGradient4967"
       gradientUnits="userSpaceOnUse"
       gradientTransform="matrix(1,0,0,0.98056266,0,10.143726)"
       cx="464.80362"
       cy="527.27637"
       fx="464.80362"
       fy="527.27637"
       r="15.310997" />
    <radialGradient
       inkscape:collect="always"
       xlink:href="#linearGradient3071"
       id="radialGradient5223"
       gradientUnits="userSpaceOnUse"
       gradientTransform="matrix(0.99972463,0.02346618,-0.02510034,1.0693448,6.5378877,-21.653928)"
       cx="168.57047"
       cy="276.2543"
       fx="168.57047"
       fy="276.2543"
       r="108.0136" />
    <radialGradient
       inkscape:collect="always"
       xlink:href="#linearGradient4587"
       id="radialGradient5225"
       gradientUnits="userSpaceOnUse"
       gradientTransform="matrix(1.3744569,-0.09683081,0.08728683,1.2389854,-223.03648,-69.688798)"
       cx="476.56317"
       cy="492.85751"
       fx="476.56317"
       fy="492.85751"
       r="10.086154" />
    <radialGradient
       inkscape:collect="always"
       xlink:href="#linearGradient4587"
       id="radialGradient5227"
       gradientUnits="userSpaceOnUse"
       gradientTransform="matrix(2.0792669,0.463044,-0.41740467,1.8743268,-322.85512,-638.87469)"
       cx="476.56317"
       cy="492.85751"
       fx="476.56317"
       fy="492.85751"
       r="10.086154" />
    <radialGradient
       inkscape:collect="always"
       xlink:href="#linearGradient4587"
       id="radialGradient5229"
       gradientUnits="userSpaceOnUse"
       gradientTransform="matrix(2.2695883,-0.14450017,0.13025775,2.0458894,-698.69146,-425.1421)"
       cx="476.56317"
       cy="492.85751"
       fx="476.56317"
       fy="492.85751"
       r="10.086154" />
    <radialGradient
       inkscape:collect="always"
       xlink:href="#linearGradient4587"
       id="radialGradient5231"
       gradientUnits="userSpaceOnUse"
       gradientTransform="matrix(-1.3744569,-0.09683081,-0.08728683,1.2389854,1016.074,-69.438798)"
       cx="476.56317"
       cy="492.85751"
       fx="476.56317"
       fy="492.85751"
       r="10.086154" />
    <radialGradient
       inkscape:collect="always"
       xlink:href="#linearGradient4587"
       id="radialGradient5233"
       gradientUnits="userSpaceOnUse"
       gradientTransform="matrix(-2.0792669,0.463044,0.41740467,1.8743268,1115.8926,-638.62469)"
       cx="476.56317"
       cy="492.85751"
       fx="476.56317"
       fy="492.85751"
       r="10.086154" />
    <radialGradient
       inkscape:collect="always"
       xlink:href="#linearGradient4587"
       id="radialGradient5235"
       gradientUnits="userSpaceOnUse"
       gradientTransform="matrix(-2.2695883,-0.14450017,-0.13025775,2.0458894,1491.729,-424.8921)"
       cx="476.56317"
       cy="492.85751"
       fx="476.56317"
       fy="492.85751"
       r="10.086154" />
    <radialGradient
       inkscape:collect="always"
       xlink:href="#linearGradient3071"
       id="radialGradient5237"
       gradientUnits="userSpaceOnUse"
       gradientTransform="matrix(1,0,0,0.42000274,11.5,273.20668)"
       cx="419.75"
       cy="476.79529"
       fx="419.75"
       fy="476.79529"
       r="21" />
    <radialGradient
       inkscape:collect="always"
       xlink:href="#linearGradient3071"
       id="radialGradient5239"
       gradientUnits="userSpaceOnUse"
       gradientTransform="matrix(-1,0,0,0.42000274,788.93736,275.20668)"
       cx="419.75"
       cy="476.79529"
       fx="419.75"
       fy="476.79529"
       r="21" />
    <radialGradient
       inkscape:collect="always"
       xlink:href="#linearGradient5121"
       id="radialGradient5241"
       gradientUnits="userSpaceOnUse"
       gradientTransform="matrix(0.78687096,-0.239624,0.11538748,0.37890638,33.883202,378.95378)"
       cx="449.41968"
       cy="440.29898"
       fx="449.41968"
       fy="440.29898"
       r="20.452785" />
    <radialGradient
       inkscape:collect="always"
       xlink:href="#linearGradient5121"
       id="radialGradient5243"
       gradientUnits="userSpaceOnUse"
       gradientTransform="matrix(1,0,0,1.1461073,-3.8890873,-59.991875)"
       cx="421.71243"
       cy="438.45337"
       fx="421.71243"
       fy="438.45337"
       r="7.6836691" />
    <radialGradient
       inkscape:collect="always"
       xlink:href="#linearGradient5121"
       id="radialGradient5245"
       gradientUnits="userSpaceOnUse"
       gradientTransform="matrix(-1.2293935,-1.5336999,1.051064,-0.84251957,435.92405,1438.5154)"
       cx="404"
       cy="442.17188"
       fx="404"
       fy="442.17188"
       r="20.538582" />
    <radialGradient
       inkscape:collect="always"
       xlink:href="#linearGradient5121"
       id="radialGradient5247"
       gradientUnits="userSpaceOnUse"
       gradientTransform="matrix(1,0,0,0.41583118,-3.8890873,262.69667)"
       cx="453.6004"
       cy="455.36395"
       fx="453.6004"
       fy="455.36395"
       r="22.636042" />
    <radialGradient
       inkscape:collect="always"
       xlink:href="#linearGradient3079"
       id="radialGradient5249"
       gradientUnits="userSpaceOnUse"
       gradientTransform="matrix(0.68119909,0.00544914,-0.0045035,0.56298381,129.68213,227.14058)"
       cx="406.87628"
       cy="528.65491"
       fx="406.87628"
       fy="528.65491"
       r="32.438526" />
    <radialGradient
       inkscape:collect="always"
       xlink:href="#linearGradient3925"
       id="radialGradient5356"
       gradientUnits="userSpaceOnUse"
       gradientTransform="matrix(1,0,0,0.3842483,0,554.47405)"
       cx="100.45855"
       cy="921.64594"
       fx="100.45855"
       fy="921.64594"
       r="58.505035" />
    <radialGradient
       inkscape:collect="always"
       xlink:href="#linearGradient3071"
       id="radialGradient5358"
       gradientUnits="userSpaceOnUse"
       gradientTransform="matrix(1,0,0,1.4289469,0,-325.73173)"
       cx="156.5768"
       cy="759.37549"
       fx="156.5768"
       fy="759.37549"
       r="89.576805" />
    <radialGradient
       inkscape:collect="always"
       xlink:href="#linearGradient3925"
       id="radialGradient5360"
       gradientUnits="userSpaceOnUse"
       gradientTransform="matrix(0.99997148,-0.00755275,0.00298362,0.3950256,-53.670014,510.55425)"
       cx="363.22302"
       cy="898.36456"
       fx="363.22302"
       fy="898.36456"
       r="118.49831" />
    <radialGradient
       inkscape:collect="always"
       xlink:href="#linearGradient3071"
       id="radialGradient5362"
       gradientUnits="userSpaceOnUse"
       gradientTransform="matrix(1,0,0,0.51509477,0,353.44058)"
       cx="96.124428"
       cy="728.13409"
       fx="96.124428"
       fy="728.13409"
       r="30.935921" />
    <radialGradient
       inkscape:collect="always"
       xlink:href="#linearGradient3071"
       id="radialGradient5364"
       gradientUnits="userSpaceOnUse"
       gradientTransform="matrix(1,0,0,0.51509477,0,353.44058)"
       cx="96.124428"
       cy="728.13409"
       fx="96.124428"
       fy="728.13409"
       r="30.935921" />
    <radialGradient
       inkscape:collect="always"
       xlink:href="#linearGradient3071"
       id="radialGradient5368"
       gradientUnits="userSpaceOnUse"
       gradientTransform="matrix(0.99972463,0.02346618,-0.02510034,1.0693448,6.5378877,-21.653928)"
       cx="168.57047"
       cy="276.2543"
       fx="168.57047"
       fy="276.2543"
       r="108.0136" />
    <radialGradient
       inkscape:collect="always"
       xlink:href="#linearGradient3071"
       id="radialGradient5372"
       gradientUnits="userSpaceOnUse"
       gradientTransform="matrix(0.99972463,0.02346618,-0.02510034,1.0693448,6.5378877,-21.653928)"
       cx="168.57047"
       cy="276.2543"
       fx="168.57047"
       fy="276.2543"
       r="108.0136" />
    <radialGradient
       inkscape:collect="always"
       xlink:href="#linearGradient3071"
       id="radialGradient5376"
       gradientUnits="userSpaceOnUse"
       gradientTransform="matrix(0.99972463,0.02346618,-0.02510034,1.0693448,6.5378877,-21.653928)"
       cx="168.57047"
       cy="276.2543"
       fx="168.57047"
       fy="276.2543"
       r="108.0136" />
    <linearGradient
       inkscape:collect="always"
       xlink:href="#linearGradient4428"
       id="linearGradient5413"
       x1="161.67526"
       y1="626.8609"
       x2="197.75533"
       y2="679.53479"
       gradientUnits="userSpaceOnUse"
       gradientTransform="matrix(1.1007508,0,0,1.1007508,-16.328167,-67.157181)" />
    <linearGradient
       inkscape:collect="always"
       xlink:href="#linearGradient4414"
       id="linearGradient5548"
       gradientUnits="userSpaceOnUse"
       gradientTransform="matrix(1.1270926,0.10241856,-0.10241856,1.1270926,38.059645,-80.488801)"
       x1="144.29886"
       y1="528.77631"
       x2="175.50462"
       y2="548.52631" />
    <linearGradient
       inkscape:collect="always"
       xlink:href="#linearGradient4587"
       id="linearGradient5550"
       gradientUnits="userSpaceOnUse"
       x1="93.75"
       y1="539.86218"
       x2="108.25"
       y2="551.36218" />
    <linearGradient
       inkscape:collect="always"
       xlink:href="#linearGradient4587"
       id="linearGradient5552"
       gradientUnits="userSpaceOnUse"
       x1="93.75"
       y1="539.86218"
       x2="108.25"
       y2="551.36218" />
    <linearGradient
       inkscape:collect="always"
       xlink:href="#linearGradient4587"
       id="linearGradient5554"
       gradientUnits="userSpaceOnUse"
       x1="93.75"
       y1="539.86218"
       x2="108.25"
       y2="551.36218" />
    <linearGradient
       inkscape:collect="always"
       xlink:href="#linearGradient4587"
       id="linearGradient5556"
       gradientUnits="userSpaceOnUse"
       gradientTransform="matrix(1.1317364,0,0,1.1317364,-21.148506,-64.550652)"
       x1="181.44766"
       y1="510.44025"
       x2="213.01385"
       y2="528.69025" />
    <linearGradient
       inkscape:collect="always"
       xlink:href="#linearGradient4587"
       id="linearGradient5558"
       gradientUnits="userSpaceOnUse"
       gradientTransform="matrix(-1.1304828,0.05325426,0.05325426,1.1304828,310.1479,-70.032308)"
       x1="181.44766"
       y1="510.44025"
       x2="213.01385"
       y2="528.69025" />
    <linearGradient
       inkscape:collect="always"
       xlink:href="#linearGradient3925"
       id="linearGradient5571"
       x1="367.66833"
       y1="330.74957"
       x2="378.2713"
       y2="342.06329"
       gradientUnits="userSpaceOnUse" />
    <radialGradient
       inkscape:collect="always"
       xlink:href="#linearGradient3071"
       id="radialGradient3432"
       gradientUnits="userSpaceOnUse"
       gradientTransform="matrix(-1.0813686,-0.93579434,0.52925059,-0.61158221,1082.8355,1814.0518)"
       cx="704.85541"
       cy="715.05518"
       fx="704.85541"
       fy="715.05518"
       r="14.64128" />
    <linearGradient
       inkscape:collect="always"
       xlink:href="#linearGradient4414"
       id="linearGradient3434"
       gradientUnits="userSpaceOnUse"
       x1="695.5"
       y1="720.36218"
       x2="689.5"
       y2="722.36218" />
    <radialGradient
       inkscape:collect="always"
       xlink:href="#linearGradient3071"
       id="radialGradient3436"
       gradientUnits="userSpaceOnUse"
       gradientTransform="matrix(0.77988332,0.28301058,-0.20761566,0.57211992,297.80831,107.44621)"
       cx="687.0462"
       cy="708.41467"
       fx="687.0462"
       fy="708.41467"
       r="9.6825304" />
    <radialGradient
       inkscape:collect="always"
       xlink:href="#linearGradient3071"
       id="radialGradient3438"
       gradientUnits="userSpaceOnUse"
       gradientTransform="matrix(1,0,0,0.60143496,0,285.13141)"
       cx="687.36896"
       cy="715.90118"
       fx="687.36896"
       fy="715.90118"
       r="10.188534" />
    <radialGradient
       inkscape:collect="always"
       xlink:href="#linearGradient3071"
       id="radialGradient3440"
       gradientUnits="userSpaceOnUse"
       gradientTransform="matrix(1,0,0,0.74704605,1.25,183.46212)"
       cx="695.66272"
       cy="722.54816"
       fx="695.66272"
       fy="722.54816"
       r="9.6836624" />
    <radialGradient
       inkscape:collect="always"
       xlink:href="#linearGradient3925"
       id="radialGradient4307"
       gradientUnits="userSpaceOnUse"
       gradientTransform="matrix(-0.23219384,-1.4735394,0.83426306,-0.13145717,249.52404,1781.0735)"
       cx="674"
       cy="696.39258"
       fx="674"
       fy="696.39258"
       r="27.993826" />
    <radialGradient
       inkscape:collect="always"
       xlink:href="#linearGradient3925"
       id="radialGradient4315"
       gradientUnits="userSpaceOnUse"
       gradientTransform="matrix(-0.23219384,-1.4735394,0.83426306,-0.13145717,249.52404,1781.0735)"
       cx="674"
       cy="696.39258"
       fx="674"
       fy="696.39258"
       r="27.993826" />
    <linearGradient
       inkscape:collect="always"
       xlink:href="#linearGradient3079"
       id="linearGradient4390"
       gradientUnits="userSpaceOnUse"
       gradientTransform="matrix(-0.29220685,0.95635514,0.95635514,0.29220685,130.71656,-99.810488)"
       x1="721.07214"
       y1="830.50745"
       x2="727.78967"
       y2="830.15387" />
    <linearGradient
       inkscape:collect="always"
       xlink:href="#linearGradient4428"
       id="linearGradient4392"
       gradientUnits="userSpaceOnUse"
       x1="694.02533"
       y1="802.22314"
       x2="695.79309"
       y2="800.80896" />
    <radialGradient
       inkscape:collect="always"
       xlink:href="#linearGradient3071"
       id="radialGradient4394"
       gradientUnits="userSpaceOnUse"
       gradientTransform="matrix(-1.4602942,-0.74886865,0.38408437,-0.74896904,1427.2918,1940.8054)"
       cx="706.2229"
       cy="807.69836"
       fx="706.2229"
       fy="807.69836"
       r="18.884663" />
    <linearGradient
       inkscape:collect="always"
       xlink:href="#linearGradient4428"
       id="linearGradient4396"
       gradientUnits="userSpaceOnUse"
       x1="660.79126"
       y1="759.97351"
       x2="664.15002"
       y2="757.3219" />
    <linearGradient
       inkscape:collect="always"
       xlink:href="#linearGradient3079"
       id="linearGradient4398"
       gradientUnits="userSpaceOnUse"
       gradientTransform="translate(-1.5026019,-0.88388348)"
       x1="721.07214"
       y1="830.50745"
       x2="727.78967"
       y2="830.15387" />
    <linearGradient
       inkscape:collect="always"
       xlink:href="#linearGradient4270"
       id="linearGradient4400"
       gradientUnits="userSpaceOnUse"
       x1="608.11182"
       y1="810.1781"
       x2="628.44116"
       y2="815.30463" />
    <linearGradient
       inkscape:collect="always"
       xlink:href="#linearGradient4270"
       id="linearGradient4402"
       gradientUnits="userSpaceOnUse"
       x1="607.84869"
       y1="801.11218"
       x2="616.06677"
       y2="800.58185" />
    <radialGradient
       inkscape:collect="always"
       xlink:href="#linearGradient3071"
       id="radialGradient4672"
       gradientUnits="userSpaceOnUse"
       gradientTransform="matrix(0.99972463,0.02346618,-0.02510034,1.0693448,6.5378877,-21.653928)"
       cx="168.57047"
       cy="276.2543"
       fx="168.57047"
       fy="276.2543"
       r="108.0136" />
    <radialGradient
       inkscape:collect="always"
       xlink:href="#linearGradient5121"
       id="radialGradient4674"
       gradientUnits="userSpaceOnUse"
       gradientTransform="matrix(0.9936117,-0.11285295,0.10284403,0.90548835,-98.727355,145.98046)"
       cx="525.01648"
       cy="992.5838"
       fx="525.01648"
       fy="992.5838"
       r="24.064341" />
    <radialGradient
       inkscape:collect="always"
       xlink:href="#linearGradient3925"
       id="radialGradient4676"
       gradientUnits="userSpaceOnUse"
       gradientTransform="matrix(0.9998694,-0.01712233,0.01892778,1.2406375,-18.562963,-227.85102)"
       cx="527"
       cy="984.36218"
       fx="527"
       fy="984.36218"
       r="16.25" />
    <radialGradient
       inkscape:collect="always"
       xlink:href="#linearGradient5121"
       id="radialGradient4678"
       gradientUnits="userSpaceOnUse"
       gradientTransform="matrix(-0.08420794,-1.0028458,0.92765779,-0.07789476,-352.66756,1607.5865)"
       cx="531.0293"
       cy="998.89685"
       fx="531.0293"
       fy="998.89685"
       r="16.328541" />
    <radialGradient
       inkscape:collect="always"
       xlink:href="#linearGradient4578"
       id="radialGradient4680"
       gradientUnits="userSpaceOnUse"
       gradientTransform="matrix(0.83554772,-0.1343511,0.13190248,0.82031519,-37.699881,247.47871)"
       cx="547.25"
       cy="968.11218"
       fx="547.25"
       fy="968.11218"
       r="12" />
    <radialGradient
       inkscape:collect="always"
       xlink:href="#linearGradient4625"
       id="radialGradient4682"
       gradientUnits="userSpaceOnUse"
       gradientTransform="matrix(-0.97131477,-1.3740557,0.97629344,-0.69013812,167.01088,2231.1788)"
       cx="526.5"
       cy="892.03339"
       fx="526.5"
       fy="892.03339"
       r="10.552705" />
    <radialGradient
       inkscape:collect="always"
       xlink:href="#linearGradient4578"
       id="radialGradient4684"
       gradientUnits="userSpaceOnUse"
       gradientTransform="matrix(0.83554772,-0.1343511,0.13190248,0.82031519,-37.699881,247.47871)"
       cx="547.25"
       cy="968.11218"
       fx="547.25"
       fy="968.11218"
       r="12" />
    <radialGradient
       inkscape:collect="always"
       xlink:href="#linearGradient3079"
       id="radialGradient4805"
       cx="485.96579"
       cy="1008.5775"
       fx="485.96579"
       fy="1008.5775"
       r="17.127888"
       gradientTransform="matrix(0.9953549,-0.0962737,0.07733574,0.79955901,-71.596485,-66.04087)"
       gradientUnits="userSpaceOnUse" />
    <radialGradient
       inkscape:collect="always"
       xlink:href="#linearGradient3079"
       id="radialGradient4817"
       cx="458.18658"
       cy="695.87952"
       fx="458.18658"
       fy="695.87952"
       r="29.143797"
       gradientTransform="matrix(0.9953549,-0.0962737,0.10361651,1.0712708,-65.96894,300.40891)"
       gradientUnits="userSpaceOnUse" />
    <radialGradient
       inkscape:collect="always"
       xlink:href="#linearGradient3079"
       id="radialGradient4819"
       cx="534.16193"
       cy="703.67053"
       fx="534.16193"
       fy="703.67053"
       r="30.919119"
       gradientTransform="matrix(0.9953549,-0.0962737,0.09309474,0.96248821,-58.677827,375.7903)"
       gradientUnits="userSpaceOnUse" />
    <radialGradient
       inkscape:collect="always"
       xlink:href="#linearGradient3079"
       id="radialGradient4940"
       cx="87.858017"
       cy="656.55493"
       fx="87.858017"
       fy="656.55493"
       r="12.50704"
       gradientTransform="matrix(-0.40282415,-0.86925173,0.50294881,-0.23307438,-206.96417,883.42362)"
       gradientUnits="userSpaceOnUse" />
  </defs>
  <sodipodi:namedview
     id="base"
     pagecolor="#ffffff"
     bordercolor="#666666"
     borderopacity="1.0"
     inkscape:pageopacity="0.0"
     inkscape:pageshadow="2"
     inkscape:zoom="0.5"
     inkscape:cx="526.18109"
     inkscape:cy="93.52451"
     inkscape:document-units="px"
     inkscape:current-layer="layer1"
     showgrid="false"
     inkscape:window-width="1600"
     inkscape:window-height="829"
     inkscape:window-x="0"
     inkscape:window-y="24"
     inkscape:window-maximized="1"
     showguides="true"
     inkscape:guide-bbox="true" />
  <metadata
     id="metadata7">
    <rdf:RDF>
      <cc:Work
         rdf:about="">
        <dc:format>image/svg+xml</dc:format>
        <dc:type
           rdf:resource="http://purl.org/dc/dcmitype/StillImage" />
        <dc:title></dc:title>
      </cc:Work>
    </rdf:RDF>
  </metadata>
  <g
     inkscape:label="Layer 1"
     inkscape:groupmode="layer"
     id="layer1"
     transform="translate(0,-796.36218)">
    <g
       id="g3881"
       transform="matrix(1.1330806,0,0,1.1330806,-182.03302,706.51806)">
      <path
         sodipodi:nodetypes="sssssssssss"
         inkscape:connector-curvature="0"
         style="fill:#000000;fill-opacity:1;stroke:none"
         inkscape:transform-center-x="17.025639"
         inkscape:transform-center-y="-5.982797"
         d="m 329.77259,274.0845 c -7.46132,6.42924 -44.27391,-23.72061 -54.2025,-23.47007 -10.9745,0.27694 -50.90814,30.89978 -60.34784,25.40292 -8.54008,-4.97299 8.60059,-50.20127 5.28952,-59.385 -3.65985,-10.15117 -40.84141,-35.421 -38.42815,-45.92473 2.18326,-9.5027 47.01131,-5.48612 54.89357,-11.41253 8.71258,-6.5507 19.71547,-52.98995 30.64664,-53.98477 9.8894,-0.90001 22.40088,41.28885 30.58343,46.80986 9.04452,6.10262 59.50555,4.20848 63.84814,14.09739 3.92872,8.94648 -38.33508,31.40165 -41.16023,40.74023 -3.12276,10.32233 17.12472,60.02021 8.87742,67.1267 z"
         id="path2990" />
      <path
         id="path2987"
         d="m 228,358.36218 c -8.39578,7.37622 -52.20581,-29.6483 -63.37787,-29.36085 -12.34896,0.31773 -59.2731,39.10179 -69.895044,32.79528 -9.609637,-5.70548 12.064734,-58.8125 8.338994,-69.34894 -4.118216,-11.64637 -55.504414,-44.28895 -52.788926,-56.33983 2.456694,-10.9024 59.662226,-6.69982 68.531656,-13.49915 9.80376,-7.51558 24.96949,-66.47387 37.26969,-67.61522 11.12796,-1.03257 24.80855,54.67179 34.0159,61.00601 10.17727,7.00149 70.9364,3.20584 75.82286,14.55133 4.42076,10.26424 -44.3297,40.48884 -47.50867,51.20294 -3.51386,11.84274 18.87162,68.45519 9.59141,76.60843 z"
         inkscape:transform-center-y="-5.3706528"
         inkscape:transform-center-x="14.989852"
         style="fill:url(#radialGradient3077);fill-opacity:1;stroke:none"
         transform="matrix(0.7824348,0,0,0.7824348,145.91596,-13.134805)"
         inkscape:connector-curvature="0" />
      <path
         inkscape:connector-curvature="0"
         id="path3008"
         d="m 268.3223,109.86336 c -7.12698,3.92229 -9.16539,13.43655 -12.79087,20.29808 -5.2622,10.70836 -7.76358,23.21143 -15.67788,32.35817 -10.29032,4.73422 -22.47319,2.98952 -33.52434,4.63484 -6.4519,1.23995 -14.94867,0.0798 -19.66316,5.17766 0.13346,3.16601 5.04317,7.17128 6.875,3.0625 8.4084,-5.60265 19.64298,-4.26946 29.34375,-5.59375 7.94344,-1.20002 17.16939,0.22496 24.09375,-4.09375 10.68366,-15.33789 13.24208,-35.2975 24.84375,-50.0625 3.44783,-1.43001 -1.31832,-5.72939 -3.5,-5.78125 z"
         style="fill:#fee800;fill-opacity:1;stroke:none" />
      <path
         transform="matrix(0.95737163,0.28885907,-0.28885907,0.95737163,74.377041,-87.30262)"
         d="m 303.34882,190.22224 c 0,11.6181 -6.01507,21.03643 -13.43503,21.03643 -7.41996,0 -13.43503,-9.41833 -13.43503,-21.03643 0,-11.61809 6.01507,-21.03642 13.43503,-21.03642 7.41996,0 13.43503,9.41833 13.43503,21.03642 z"
         sodipodi:ry="21.036427"
         sodipodi:rx="13.435029"
         sodipodi:cy="190.22224"
         sodipodi:cx="289.91379"
         id="path2992"
         style="fill:#000000;fill-opacity:1;stroke:none"
         sodipodi:type="arc" />
      <path
         sodipodi:type="arc"
         style="fill:#ffffff;fill-opacity:1;stroke:none"
         id="path2994"
         sodipodi:cx="289.91379"
         sodipodi:cy="190.22224"
         sodipodi:rx="13.435029"
         sodipodi:ry="21.036427"
         d="m 303.34882,190.22224 c 0,11.6181 -6.01507,21.03643 -13.43503,21.03643 -7.41996,0 -13.43503,-9.41833 -13.43503,-21.03643 0,-11.61809 6.01507,-21.03642 13.43503,-21.03642 7.41996,0 13.43503,9.41833 13.43503,21.03642 z"
         transform="matrix(0.8265349,0.24938289,-0.24938289,0.8265349,104.62238,-50.715011)" />
      <path
         transform="matrix(1.9642857,0,0,1.9642857,-277.19848,-136.65222)"
         d="m 296.6313,163.52896 c 0,2.73367 -2.21608,4.94975 -4.94975,4.94975 -2.73367,0 -4.94975,-2.21608 -4.94975,-4.94975 0,-2.73367 2.21608,-4.94975 4.94975,-4.94975 2.73367,0 4.94975,2.21608 4.94975,4.94975 z"
         sodipodi:ry="4.9497476"
         sodipodi:rx="4.9497476"
         sodipodi:cy="163.52896"
         sodipodi:cx="291.68155"
         id="path2996"
         style="fill:#000000;fill-opacity:1;stroke:none"
         sodipodi:type="arc" />
      <path
         sodipodi:type="arc"
         style="fill:#000000;fill-opacity:1;stroke:none"
         id="path2998"
         sodipodi:cx="289.91379"
         sodipodi:cy="190.22224"
         sodipodi:rx="13.435029"
         sodipodi:ry="21.036427"
         d="m 303.34882,190.22224 c 0,11.6181 -6.01507,21.03643 -13.43503,21.03643 -7.41996,0 -13.43503,-9.41833 -13.43503,-21.03643 0,-11.61809 6.01507,-21.03642 13.43503,-21.03642 7.41996,0 13.43503,9.41833 13.43503,21.03642 z"
         transform="matrix(-0.95737163,0.28885907,0.28885907,0.95737163,465.85255,-84.82775)" />
      <path
         transform="matrix(-0.8265349,0.24938289,0.24938289,0.8265349,435.6072,-48.240137)"
         d="m 303.34882,190.22224 c 0,11.6181 -6.01507,21.03643 -13.43503,21.03643 -7.41996,0 -13.43503,-9.41833 -13.43503,-21.03643 0,-11.61809 6.01507,-21.03642 13.43503,-21.03642 7.41996,0 13.43503,9.41833 13.43503,21.03642 z"
         sodipodi:ry="21.036427"
         sodipodi:rx="13.435029"
         sodipodi:cy="190.22224"
         sodipodi:cx="289.91379"
         id="path3000"
         style="fill:#ffffff;fill-opacity:1;stroke:none"
         sodipodi:type="arc" />
      <path
         sodipodi:type="arc"
         style="fill:#000000;fill-opacity:1;stroke:none"
         id="path3002"
         sodipodi:cx="291.68155"
         sodipodi:cy="163.52896"
         sodipodi:rx="4.9497476"
         sodipodi:ry="4.9497476"
         d="m 296.6313,163.52896 c 0,2.73367 -2.21608,4.94975 -4.94975,4.94975 -2.73367,0 -4.94975,-2.21608 -4.94975,-4.94975 0,-2.73367 2.21608,-4.94975 4.94975,-4.94975 2.73367,0 4.94975,2.21608 4.94975,4.94975 z"
         transform="matrix(-1.9642857,0,0,1.9642857,818.13517,-135.23801)" />
      <path
         transform="matrix(-1.0714286,0,0,1.0714286,550.10382,5.289911)"
         d="m 296.6313,163.52896 c 0,2.73367 -2.21608,4.94975 -4.94975,4.94975 -2.73367,0 -4.94975,-2.21608 -4.94975,-4.94975 0,-2.73367 2.21608,-4.94975 4.94975,-4.94975 2.73367,0 4.94975,2.21608 4.94975,4.94975 z"
         sodipodi:ry="4.9497476"
         sodipodi:rx="4.9497476"
         sodipodi:cy="163.52896"
         sodipodi:cx="291.68155"
         id="path3004"
         style="fill:#ffffff;fill-opacity:1;stroke:none"
         sodipodi:type="arc" />
      <path
         sodipodi:type="arc"
         style="fill:#ffffff;fill-opacity:1;stroke:none"
         id="path3006"
         sodipodi:cx="291.68155"
         sodipodi:cy="163.52896"
         sodipodi:rx="4.9497476"
         sodipodi:ry="4.9497476"
         d="m 296.6313,163.52896 c 0,2.73367 -2.21608,4.94975 -4.94975,4.94975 -2.73367,0 -4.94975,-2.21608 -4.94975,-4.94975 0,-2.73367 2.21608,-4.94975 4.94975,-4.94975 2.73367,0 4.94975,2.21608 4.94975,4.94975 z"
         transform="matrix(-1.0714286,0,0,1.0714286,603.84394,3.875697)" />
      <path
         sodipodi:nodetypes="ccccc"
         inkscape:connector-curvature="0"
         id="path3015"
         d="m 217.08177,155.75078 c 15.7305,-5.70261 27.81773,6.81111 41.71931,10.25305 l 0.4985,-1.62843 c -7.56004,-7.58739 -23.74563,-19.56859 -40.67859,-19.56332 -3.63512,4.16657 -1.51302,7.37361 -1.53922,10.9387 z"
         style="fill:#000000;stroke:none" />
      <path
         style="fill:#000000;stroke:none"
         d="m 319.58248,153.25078 c -15.7305,-5.70261 -27.81773,6.81111 -41.71931,10.25305 l -0.4985,-1.62843 c 7.56004,-7.58739 23.74563,-19.56859 40.67859,-19.56332 3.63512,4.16657 1.51302,7.37361 1.53922,10.9387 z"
         id="path3017"
         inkscape:connector-curvature="0"
         sodipodi:nodetypes="ccccc" />
      <path
         sodipodi:nodetypes="scss"
         inkscape:connector-curvature="0"
         id="path3019"
         d="m 233.5,207.61218 c 0.42509,37.4997 65.75211,45.78498 73.5,0.25 1.63122,-7.67241 -17.16026,1.88675 -37.04263,2.96112 -17.95788,0.97037 -36.50219,-7.16476 -36.45737,-3.21112 z"
         style="fill:#000000;stroke:none" />
      <path
         sodipodi:nodetypes="scsccs"
         inkscape:connector-curvature="0"
         id="path3040"
         d="m 280.6875,219.5625 c -4.24658,7.3e-4 -9.375,1.35938 -14.8125,5.0625 0,0 -5.875,-5.375 -12.625,-3.75 -3.88772,0.93593 -5.07359,1.44361 -5.84375,2.9375 18.68292,5.23057 29.94199,3.97664 41.78125,-0.90625 -1.4319,-2.18921 -3.29459,-3.34465 -8.5,-3.34375 z"
         style="fill:url(#linearGradient3087);fill-opacity:1;stroke:none" />
      <path
         id="path3042"
         d="m 294.03125,208.46875 c -1.8687,0.35221 -3.83146,0.84307 -6,1.375 0.15072,1.25205 0.40966,3.28406 0.6875,5.625 2.03621,-0.50177 4.14428,-1.00711 6.40625,-1.46875 l -1.09375,-5.53125 z m -49.9375,0.875 0.40625,5.53125 c 1.69946,0.59908 3.28666,1.10381 4.84375,1.5625 l -0.1875,-5.875 c -1.86997,-0.49243 -3.55101,-0.95282 -5.0625,-1.21875 z m 42.6875,0.8125 c -1.79498,0.43487 -3.69483,0.86722 -5.8125,1.28125 0.10357,1.42385 0.22709,3.3179 0.40625,5.84375 1.96955,-0.46506 3.98162,-0.97934 6.0625,-1.5 l -0.65625,-5.625 z m -36.3125,0.71875 c 0.0659,1.83933 0.0941,3.1708 0.1875,5.9375 2.13228,0.59212 4.15773,1.07441 6.0625,1.4375 l -0.1875,-6.03125 c -2.26955,-0.38472 -4.24067,-0.87586 -6.0625,-1.34375 z m 29.125,0.84375 c -1.98023,0.35485 -4.12158,0.6698 -6.46875,0.90625 0.0432,1.52222 0.11542,3.46044 0.1875,6.1875 2.28826,-0.2973 4.5078,-0.74445 6.75,-1.25 l -0.40625,-5.84375 c -0.0209,0.004 -0.0416,-0.004 -0.0625,0 z m -21.75,0.6875 c 0.067,1.86676 0.0915,3.24823 0.1875,6.09375 2.10329,0.35456 4.08284,0.58078 5.96875,0.6875 l -0.15625,-6.21875 c -2.18806,-0.0771 -4.16246,-0.29522 -6,-0.5625 z m 14,0.34375 c -0.88882,0.076 -1.80263,0.13631 -2.75,0.1875 -1.38202,0.0747 -2.6809,0.0777 -3.9375,0.0625 0.0468,1.65801 0.0827,3.41253 0.15625,6.21875 2.33509,0.0697 4.52683,-0.0268 6.65625,-0.25 l -0.125,-6.21875 z m 24.78125,7.75 c -2.16698,1.52213 -4.43039,2.87597 -6.84375,4 0.27733,2.43452 0.48931,4.68386 0.71875,6.8125 2.79361,-1.94334 5.29298,-4.35167 7.3125,-7.28125 L 296.625,220.5 z m -51.875,3.5 -0.65625,3.28125 c 1.68418,1.74887 3.59554,3.28288 5.6875,4.59375 l -0.1875,-6.34375 C 248.00982,225.07215 246.39977,224.56477 244.75,224 z m 43.71875,1.03125 c -2.04092,0.87064 -4.17618,1.62083 -6.40625,2.1875 0.1886,2.88265 0.37421,5.86957 0.5,8.125 2.359,-0.81914 4.60973,-1.89635 6.71875,-3.21875 l -0.8125,-7.09375 z m -37.53125,0.875 c 0.0666,2.35132 0.17972,4.83624 0.21875,6.75 1.91381,1.07564 3.94646,2.00193 6.0625,2.71875 l -0.25,-8.03125 c -1.95699,-0.38828 -3.96234,-0.86967 -6.03125,-1.4375 z m 29.78125,1.625 c -2.29445,0.50944 -4.68208,0.8611 -7.1875,1.03125 0.0669,3.19038 0.1345,6.33175 0.15625,8.6875 2.57603,-0.23741 5.10737,-0.72192 7.5625,-1.46875 l -0.53125,-8.25 z m -22.40625,0.0625 c 0.0861,3.04207 0.18339,6.01172 0.21875,8.21875 1.90111,0.56767 3.85887,0.97172 5.84375,1.25 l -0.1875,-8.65625 c -1.90345,-0.18082 -3.85949,-0.44917 -5.875,-0.8125 z m 7.21875,0.9375 c 0.0669,3.20186 0.13534,6.34033 0.15625,8.6875 2.21765,0.2375 4.45797,0.28744 6.6875,0.15625 l -0.1875,-8.75 c -2.13627,0.0897 -4.36013,0.0756 -6.65625,-0.0937 z"
         style="fill:#ffffff;stroke:none"
         inkscape:connector-curvature="0" />
      <path
         sodipodi:nodetypes="cccscc"
         inkscape:connector-curvature="0"
         id="path3089"
         d="m 231.15177,138.58319 c 26.94884,-1.74305 50.50877,-8.74263 71.81952,-19.23086 -4.63206,-4.72407 -11.59532,-8.33143 -20.23542,-11.13553 0,0 -12.89593,-16.878463 -23.30179,-14.01733 -11.72527,3.223906 -11.10857,26.42224 -11.10857,26.42224 -6.53445,5.45233 -12.53962,11.2542 -17.17374,17.96148 z"
         style="fill:#000000;stroke:none" />
      <path
         inkscape:connector-curvature="0"
         id="path3091"
         d="m 261.63384,97.653817 c -0.32585,0.05435 -0.64828,0.141595 -0.97346,0.231005 -9.11571,2.506408 -10.0664,15.095528 -10.04083,20.617778 10.50155,-1.42773 20.84141,-3.23502 28.84252,-11.0348 -3.66199,-4.20745 -10.77978,-10.989627 -17.82823,-9.813983 z m 21.6253,13.407223 0.0369,0.0244 c -10.39732,6.30734 -21.8576,9.54848 -33.8921,11.14262 -5.83128,4.80074 -10.23771,8.13165 -14.54205,14.36162 26.94885,-1.74306 42.93793,-7.40572 64.24869,-17.89394 -4.3725,-4.45934 -8.18513,-5.20936 -15.85142,-7.63466 z"
         style="fill:url(#linearGradient3872);fill-opacity:1;stroke:none" />
      <path
         sodipodi:nodetypes="ccccccccc"
         inkscape:connector-curvature="0"
         id="path3874"
         d="m 280.75,101.375 c 0,0 -0.4119,2.53132 -0.8125,4.8125 -2.497,-0.19116 -5.01752,1.83262 -4.40625,5.15625 L 267.625,110 275.75,120.375 277.65625,113 c 4.50538,1.73297 4.5986,-0.59354 3.75,-3.71875 L 288.5,108.125 z"
         style="fill:#000000;stroke:none" />
    </g>
  </g>
</svg>
