<?xml version="1.0" encoding="UTF-8" standalone="no"?>
<!-- Created with Inkscape (http://www.inkscape.org/) -->

<svg
   xmlns:dc="http://purl.org/dc/elements/1.1/"
   xmlns:cc="http://creativecommons.org/ns#"
   xmlns:rdf="http://www.w3.org/1999/02/22-rdf-syntax-ns#"
   xmlns:svg="http://www.w3.org/2000/svg"
   xmlns="http://www.w3.org/2000/svg"
   xmlns:xlink="http://www.w3.org/1999/xlink"
   xmlns:sodipodi="http://sodipodi.sourceforge.net/DTD/sodipodi-0.dtd"
   xmlns:inkscape="http://www.inkscape.org/namespaces/inkscape"
   width="256"
   height="256"
   id="svg2"
   version="1.1"
   inkscape:version="0.48.4 r9939"
   sodipodi:docname="starry03.svg"
   inkscape:export-filename="starry.png"
   inkscape:export-xdpi="60.476192"
   inkscape:export-ydpi="60.476192">
  <defs
     id="defs4">
    <linearGradient
       id="linearGradient4625">
      <stop
         style="stop-color:#9c4a13;stop-opacity:1;"
         offset="0"
         id="stop4627" />
      <stop
         style="stop-color:#552200;stop-opacity:1;"
         offset="1"
         id="stop4629" />
    </linearGradient>
    <linearGradient
       inkscape:collect="always"
       id="linearGradient4578">
      <stop
         style="stop-color:#ff0000;stop-opacity:1;"
         offset="0"
         id="stop4580" />
      <stop
         style="stop-color:#ff0000;stop-opacity:0;"
         offset="1"
         id="stop4582" />
    </linearGradient>
    <linearGradient
       id="linearGradient4270">
      <stop
         style="stop-color:#27a027;stop-opacity:1;"
         offset="0"
         id="stop4272" />
      <stop
         style="stop-color:#2beb2b;stop-opacity:1;"
         offset="1"
         id="stop4274" />
    </linearGradient>
    <linearGradient
       id="linearGradient5121">
      <stop
         style="stop-color:#e82ae8;stop-opacity:1;"
         offset="0"
         id="stop5123" />
      <stop
         style="stop-color:#ab378e;stop-opacity:1;"
         offset="1"
         id="stop5125" />
    </linearGradient>
    <linearGradient
       id="linearGradient4587">
      <stop
         style="stop-color:#ffdb00;stop-opacity:1;"
         offset="0"
         id="stop4589" />
      <stop
         style="stop-color:#ff6600;stop-opacity:1;"
         offset="1"
         id="stop4591" />
    </linearGradient>
    <linearGradient
       id="linearGradient4428">
      <stop
         style="stop-color:#404040;stop-opacity:1;"
         offset="0"
         id="stop4430" />
      <stop
         style="stop-color:#636363;stop-opacity:1;"
         offset="1"
         id="stop4432" />
    </linearGradient>
    <linearGradient
       id="linearGradient4414">
      <stop
         style="stop-color:#b9a165;stop-opacity:1;"
         offset="0"
         id="stop4416" />
      <stop
         style="stop-color:#978045;stop-opacity:1;"
         offset="1"
         id="stop4418" />
    </linearGradient>
    <linearGradient
       id="linearGradient3925">
      <stop
         style="stop-color:#ffffff;stop-opacity:1;"
         offset="0"
         id="stop3927" />
      <stop
         style="stop-color:#d5d5d5;stop-opacity:1;"
         offset="1"
         id="stop3929" />
    </linearGradient>
    <linearGradient
       id="linearGradient3861">
      <stop
         style="stop-color:#161688;stop-opacity:1;"
         offset="0"
         id="stop3863" />
      <stop
         style="stop-color:#1717ac;stop-opacity:1;"
         offset="1"
         id="stop3865" />
    </linearGradient>
    <linearGradient
       id="linearGradient3079">
      <stop
         style="stop-color:#d40000;stop-opacity:1;"
         offset="0"
         id="stop3081" />
      <stop
         style="stop-color:#ff0d00;stop-opacity:1;"
         offset="1"
         id="stop3083" />
    </linearGradient>
    <linearGradient
       id="linearGradient3071">
      <stop
         style="stop-color:#fff000;stop-opacity:1;"
         offset="0"
         id="stop3073" />
      <stop
         style="stop-color:#ffcc00;stop-opacity:1;"
         offset="1"
         id="stop3075" />
    </linearGradient>
    <radialGradient
       inkscape:collect="always"
       xlink:href="#linearGradient3071"
       id="radialGradient3907"
       cx="532.20038"
       cy="177.71259"
       fx="532.20038"
       fy="177.71259"
       r="69.003609"
       gradientTransform="matrix(0.9990308,0.04401675,-0.04928387,1.1185762,75.184005,-55.361323)"
       gradientUnits="userSpaceOnUse" />
    <radialGradient
       inkscape:collect="always"
       xlink:href="#linearGradient3925"
       id="radialGradient4145"
       gradientUnits="userSpaceOnUse"
       gradientTransform="matrix(-1.4510666,-1.4897576,3.2585121,-3.1738567,448.17659,1515.4599)"
       cx="456.21127"
       cy="216.91385"
       fx="456.21127"
       fy="216.91385"
       r="42" />
    <radialGradient
       inkscape:collect="always"
       xlink:href="#linearGradient3925"
       id="radialGradient4169"
       cx="607.24139"
       cy="228.16756"
       fx="607.24139"
       fy="228.16756"
       r="23.700668"
       gradientTransform="matrix(1.3027334,0,0,0.52251417,-179.27791,116.51455)"
       gradientUnits="userSpaceOnUse" />
    <radialGradient
       inkscape:collect="always"
       xlink:href="#linearGradient3861"
       id="radialGradient4171"
       cx="616.19501"
       cy="232.33742"
       fx="616.19501"
       fy="232.33742"
       r="23.115305"
       gradientTransform="matrix(1.2963054,-0.12925413,0.09862658,0.98913795,-198.23165,85.163814)"
       gradientUnits="userSpaceOnUse" />
    <radialGradient
       inkscape:collect="always"
       xlink:href="#linearGradient3861"
       id="radialGradient4193"
       gradientUnits="userSpaceOnUse"
       gradientTransform="matrix(1.2963054,-0.12925413,0.09862658,0.98913795,-198.23165,85.163814)"
       cx="616.19501"
       cy="232.33742"
       fx="616.19501"
       fy="232.33742"
       r="23.115305" />
    <radialGradient
       inkscape:collect="always"
       xlink:href="#linearGradient3925"
       id="radialGradient4195"
       gradientUnits="userSpaceOnUse"
       gradientTransform="matrix(1.3027334,0,0,0.52251417,-179.27791,116.51455)"
       cx="607.24139"
       cy="228.16756"
       fx="607.24139"
       fy="228.16756"
       r="23.700668" />
    <radialGradient
       inkscape:collect="always"
       xlink:href="#linearGradient3071"
       id="radialGradient4269"
       cx="163.93484"
       cy="284.47501"
       fx="163.93484"
       fy="284.47501"
       r="108.0136"
       gradientTransform="matrix(1.0021393,-0.00822154,0.02280656,1.1172491,-6.8385999,-33.021411)"
       gradientUnits="userSpaceOnUse" />
    <radialGradient
       inkscape:collect="always"
       xlink:href="#linearGradient3925"
       id="radialGradient4286"
       cx="455.3418"
       cy="326.35748"
       fx="455.3418"
       fy="326.35748"
       r="33.595551"
       gradientTransform="matrix(1,0,0,0.54758086,0,150.89964)"
       gradientUnits="userSpaceOnUse" />
    <radialGradient
       inkscape:collect="always"
       xlink:href="#linearGradient3925"
       id="radialGradient4288"
       cx="506.75"
       cy="320.34167"
       fx="506.75"
       fy="320.34167"
       r="32.75"
       gradientTransform="matrix(1,0,0,0.59606531,0,137.39712)"
       gradientUnits="userSpaceOnUse" />
    <linearGradient
       inkscape:collect="always"
       xlink:href="#linearGradient4414"
       id="linearGradient4420"
       x1="271.81821"
       y1="524.1095"
       x2="274.26199"
       y2="532.18262"
       gradientUnits="userSpaceOnUse" />
    <linearGradient
       inkscape:collect="always"
       xlink:href="#linearGradient4428"
       id="linearGradient4434"
       x1="238.46864"
       y1="552.31421"
       x2="225.72975"
       y2="569.94263"
       gradientUnits="userSpaceOnUse" />
    <radialGradient
       inkscape:collect="always"
       xlink:href="#linearGradient3925"
       id="radialGradient4442"
       cx="502.11005"
       cy="260.3374"
       fx="502.11005"
       fy="260.3374"
       r="26.274143"
       gradientTransform="matrix(0.79551346,0.44120601,-0.42087109,0.75884875,209.13317,-150.22852)"
       gradientUnits="userSpaceOnUse" />
    <radialGradient
       inkscape:collect="always"
       xlink:href="#linearGradient3925"
       id="radialGradient4448"
       gradientUnits="userSpaceOnUse"
       gradientTransform="matrix(-0.73156691,0.19304627,0.18414888,0.69784946,770.56159,-16.416917)"
       cx="502.11005"
       cy="260.3374"
       fx="502.11005"
       fy="260.3374"
       r="26.274143" />
    <linearGradient
       inkscape:collect="always"
       xlink:href="#linearGradient3079"
       id="linearGradient4517"
       x1="581.16241"
       y1="157.24892"
       x2="587.12347"
       y2="172.24892"
       gradientUnits="userSpaceOnUse" />
    <radialGradient
       inkscape:collect="always"
       xlink:href="#linearGradient3071"
       id="radialGradient4665"
       gradientUnits="userSpaceOnUse"
       gradientTransform="matrix(0.99972463,0.02346618,-0.02510034,1.0693448,6.5378877,-21.653928)"
       cx="168.57047"
       cy="276.2543"
       fx="168.57047"
       fy="276.2543"
       r="108.0136" />
    <linearGradient
       inkscape:collect="always"
       xlink:href="#linearGradient3079"
       id="linearGradient4667"
       gradientUnits="userSpaceOnUse"
       x1="479.75"
       y1="220.61218"
       x2="500.75"
       y2="252.11218" />
    <linearGradient
       inkscape:collect="always"
       xlink:href="#linearGradient3079"
       id="linearGradient4669"
       gradientUnits="userSpaceOnUse"
       x1="520.12061"
       y1="205.5809"
       x2="535.05969"
       y2="233.0809" />
    <linearGradient
       inkscape:collect="always"
       xlink:href="#linearGradient3079"
       id="linearGradient4671"
       gradientUnits="userSpaceOnUse"
       x1="542.12952"
       y1="236.51218"
       x2="552.99329"
       y2="260.26218" />
    <linearGradient
       inkscape:collect="always"
       xlink:href="#linearGradient3079"
       id="linearGradient4673"
       gradientUnits="userSpaceOnUse"
       x1="515.14703"
       y1="267.21649"
       x2="538.38574"
       y2="293.46649" />
    <linearGradient
       inkscape:collect="always"
       xlink:href="#linearGradient3079"
       id="linearGradient4675"
       gradientUnits="userSpaceOnUse"
       x1="474.09912"
       y1="260.07355"
       x2="498.2095"
       y2="287.57355" />
    <radialGradient
       inkscape:collect="always"
       xlink:href="#linearGradient4587"
       id="radialGradient4677"
       gradientUnits="userSpaceOnUse"
       gradientTransform="matrix(-0.52995639,-1.1744978,0.85048778,-0.38375608,570.04678,961.12381)"
       cx="511.99646"
       cy="258.42703"
       fx="511.99646"
       fy="258.42703"
       r="17.454245" />
    <linearGradient
       inkscape:collect="always"
       xlink:href="#linearGradient3079"
       id="linearGradient4679"
       gradientUnits="userSpaceOnUse"
       x1="419.84464"
       y1="333.41135"
       x2="421.25888"
       y2="341.89664" />
    <linearGradient
       inkscape:collect="always"
       xlink:href="#linearGradient3079"
       id="linearGradient4681"
       gradientUnits="userSpaceOnUse"
       x1="420"
       y1="325.61218"
       x2="422"
       y2="332.73718" />
    <radialGradient
       inkscape:collect="always"
       xlink:href="#linearGradient3071"
       id="radialGradient4859"
       gradientUnits="userSpaceOnUse"
       gradientTransform="matrix(0.63529918,0.45672657,-0.48853271,0.67954101,615.23982,99.714894)"
       cx="168.57047"
       cy="276.2543"
       fx="168.57047"
       fy="276.2543"
       r="108.0136" />
    <linearGradient
       inkscape:collect="always"
       xlink:href="#linearGradient4428"
       id="linearGradient4861"
       gradientUnits="userSpaceOnUse"
       x1="569.92804"
       y1="328.6384"
       x2="577.35266"
       y2="385.56049" />
    <linearGradient
       inkscape:collect="always"
       xlink:href="#linearGradient4587"
       id="linearGradient4863"
       gradientUnits="userSpaceOnUse"
       x1="635.54486"
       y1="388.39685"
       x2="655.91925"
       y2="388.39685" />
    <linearGradient
       inkscape:collect="always"
       xlink:href="#linearGradient4428"
       id="linearGradient4865"
       gradientUnits="userSpaceOnUse"
       x1="571.75"
       y1="259.36218"
       x2="587.25"
       y2="303.61218" />
    <radialGradient
       inkscape:collect="always"
       xlink:href="#linearGradient3071"
       id="radialGradient4869"
       gradientUnits="userSpaceOnUse"
       gradientTransform="matrix(0.99972463,0.02346618,-0.02510034,1.0693448,6.5378877,-21.653928)"
       cx="171.29147"
       cy="285.97275"
       fx="171.29147"
       fy="285.97275"
       r="108.0136" />
    <radialGradient
       inkscape:collect="always"
       xlink:href="#linearGradient3071"
       id="radialGradient4873"
       gradientUnits="userSpaceOnUse"
       gradientTransform="matrix(0.99972463,0.02346618,-0.02510034,1.0693448,6.5378877,-21.653928)"
       cx="177.93721"
       cy="289.21756"
       fx="177.93721"
       fy="289.21756"
       r="108.0136" />
    <radialGradient
       inkscape:collect="always"
       xlink:href="#linearGradient3079"
       id="radialGradient4937"
       gradientUnits="userSpaceOnUse"
       gradientTransform="matrix(1,0,0,0.98056266,0,10.143726)"
       cx="464.80362"
       cy="527.27637"
       fx="464.80362"
       fy="527.27637"
       r="15.310997" />
    <radialGradient
       inkscape:collect="always"
       xlink:href="#linearGradient3079"
       id="radialGradient4943"
       gradientUnits="userSpaceOnUse"
       gradientTransform="matrix(-0.62071292,-0.90941872,0.8098967,-0.55278437,261.36556,1204.4559)"
       cx="424.61761"
       cy="527.00262"
       fx="424.61761"
       fy="527.00262"
       r="12.246221" />
    <radialGradient
       inkscape:collect="always"
       xlink:href="#linearGradient3079"
       id="radialGradient4951"
       gradientUnits="userSpaceOnUse"
       gradientTransform="matrix(1,0,0,0.98056266,0,10.143726)"
       cx="464.80362"
       cy="527.27637"
       fx="464.80362"
       fy="527.27637"
       r="15.310997" />
    <radialGradient
       inkscape:collect="always"
       xlink:href="#linearGradient3079"
       id="radialGradient4959"
       gradientUnits="userSpaceOnUse"
       gradientTransform="matrix(1,0,0,0.98056266,0,10.143726)"
       cx="464.80362"
       cy="527.27637"
       fx="464.80362"
       fy="527.27637"
       r="15.310997" />
    <radialGradient
       inkscape:collect="always"
       xlink:href="#linearGradient3079"
       id="radialGradient4967"
       gradientUnits="userSpaceOnUse"
       gradientTransform="matrix(1,0,0,0.98056266,0,10.143726)"
       cx="464.80362"
       cy="527.27637"
       fx="464.80362"
       fy="527.27637"
       r="15.310997" />
    <radialGradient
       inkscape:collect="always"
       xlink:href="#linearGradient3071"
       id="radialGradient5223"
       gradientUnits="userSpaceOnUse"
       gradientTransform="matrix(0.99972463,0.02346618,-0.02510034,1.0693448,6.5378877,-21.653928)"
       cx="168.57047"
       cy="276.2543"
       fx="168.57047"
       fy="276.2543"
       r="108.0136" />
    <radialGradient
       inkscape:collect="always"
       xlink:href="#linearGradient4587"
       id="radialGradient5225"
       gradientUnits="userSpaceOnUse"
       gradientTransform="matrix(1.3744569,-0.09683081,0.08728683,1.2389854,-223.03648,-69.688798)"
       cx="476.56317"
       cy="492.85751"
       fx="476.56317"
       fy="492.85751"
       r="10.086154" />
    <radialGradient
       inkscape:collect="always"
       xlink:href="#linearGradient4587"
       id="radialGradient5227"
       gradientUnits="userSpaceOnUse"
       gradientTransform="matrix(2.0792669,0.463044,-0.41740467,1.8743268,-322.85512,-638.87469)"
       cx="476.56317"
       cy="492.85751"
       fx="476.56317"
       fy="492.85751"
       r="10.086154" />
    <radialGradient
       inkscape:collect="always"
       xlink:href="#linearGradient4587"
       id="radialGradient5229"
       gradientUnits="userSpaceOnUse"
       gradientTransform="matrix(2.2695883,-0.14450017,0.13025775,2.0458894,-698.69146,-425.1421)"
       cx="476.56317"
       cy="492.85751"
       fx="476.56317"
       fy="492.85751"
       r="10.086154" />
    <radialGradient
       inkscape:collect="always"
       xlink:href="#linearGradient4587"
       id="radialGradient5231"
       gradientUnits="userSpaceOnUse"
       gradientTransform="matrix(-1.3744569,-0.09683081,-0.08728683,1.2389854,1016.074,-69.438798)"
       cx="476.56317"
       cy="492.85751"
       fx="476.56317"
       fy="492.85751"
       r="10.086154" />
    <radialGradient
       inkscape:collect="always"
       xlink:href="#linearGradient4587"
       id="radialGradient5233"
       gradientUnits="userSpaceOnUse"
       gradientTransform="matrix(-2.0792669,0.463044,0.41740467,1.8743268,1115.8926,-638.62469)"
       cx="476.56317"
       cy="492.85751"
       fx="476.56317"
       fy="492.85751"
       r="10.086154" />
    <radialGradient
       inkscape:collect="always"
       xlink:href="#linearGradient4587"
       id="radialGradient5235"
       gradientUnits="userSpaceOnUse"
       gradientTransform="matrix(-2.2695883,-0.14450017,-0.13025775,2.0458894,1491.729,-424.8921)"
       cx="476.56317"
       cy="492.85751"
       fx="476.56317"
       fy="492.85751"
       r="10.086154" />
    <radialGradient
       inkscape:collect="always"
       xlink:href="#linearGradient3071"
       id="radialGradient5237"
       gradientUnits="userSpaceOnUse"
       gradientTransform="matrix(1,0,0,0.42000274,11.5,273.20668)"
       cx="419.75"
       cy="476.79529"
       fx="419.75"
       fy="476.79529"
       r="21" />
    <radialGradient
       inkscape:collect="always"
       xlink:href="#linearGradient3071"
       id="radialGradient5239"
       gradientUnits="userSpaceOnUse"
       gradientTransform="matrix(-1,0,0,0.42000274,788.93736,275.20668)"
       cx="419.75"
       cy="476.79529"
       fx="419.75"
       fy="476.79529"
       r="21" />
    <radialGradient
       inkscape:collect="always"
       xlink:href="#linearGradient5121"
       id="radialGradient5241"
       gradientUnits="userSpaceOnUse"
       gradientTransform="matrix(0.78687096,-0.239624,0.11538748,0.37890638,33.883202,378.95378)"
       cx="449.41968"
       cy="440.29898"
       fx="449.41968"
       fy="440.29898"
       r="20.452785" />
    <radialGradient
       inkscape:collect="always"
       xlink:href="#linearGradient5121"
       id="radialGradient5243"
       gradientUnits="userSpaceOnUse"
       gradientTransform="matrix(1,0,0,1.1461073,-3.8890873,-59.991875)"
       cx="421.71243"
       cy="438.45337"
       fx="421.71243"
       fy="438.45337"
       r="7.6836691" />
    <radialGradient
       inkscape:collect="always"
       xlink:href="#linearGradient5121"
       id="radialGradient5245"
       gradientUnits="userSpaceOnUse"
       gradientTransform="matrix(-1.2293935,-1.5336999,1.051064,-0.84251957,435.92405,1438.5154)"
       cx="404"
       cy="442.17188"
       fx="404"
       fy="442.17188"
       r="20.538582" />
    <radialGradient
       inkscape:collect="always"
       xlink:href="#linearGradient5121"
       id="radialGradient5247"
       gradientUnits="userSpaceOnUse"
       gradientTransform="matrix(1,0,0,0.41583118,-3.8890873,262.69667)"
       cx="453.6004"
       cy="455.36395"
       fx="453.6004"
       fy="455.36395"
       r="22.636042" />
    <radialGradient
       inkscape:collect="always"
       xlink:href="#linearGradient3079"
       id="radialGradient5249"
       gradientUnits="userSpaceOnUse"
       gradientTransform="matrix(0.68119909,0.00544914,-0.0045035,0.56298381,129.68213,227.14058)"
       cx="406.87628"
       cy="528.65491"
       fx="406.87628"
       fy="528.65491"
       r="32.438526" />
    <radialGradient
       inkscape:collect="always"
       xlink:href="#linearGradient3925"
       id="radialGradient5356"
       gradientUnits="userSpaceOnUse"
       gradientTransform="matrix(1,0,0,0.3842483,0,554.47405)"
       cx="100.45855"
       cy="921.64594"
       fx="100.45855"
       fy="921.64594"
       r="58.505035" />
    <radialGradient
       inkscape:collect="always"
       xlink:href="#linearGradient3071"
       id="radialGradient5358"
       gradientUnits="userSpaceOnUse"
       gradientTransform="matrix(1,0,0,1.4289469,0,-325.73173)"
       cx="156.5768"
       cy="759.37549"
       fx="156.5768"
       fy="759.37549"
       r="89.576805" />
    <radialGradient
       inkscape:collect="always"
       xlink:href="#linearGradient3925"
       id="radialGradient5360"
       gradientUnits="userSpaceOnUse"
       gradientTransform="matrix(0.99997148,-0.00755275,0.00298362,0.3950256,-53.670014,510.55425)"
       cx="363.22302"
       cy="898.36456"
       fx="363.22302"
       fy="898.36456"
       r="118.49831" />
    <radialGradient
       inkscape:collect="always"
       xlink:href="#linearGradient3071"
       id="radialGradient5362"
       gradientUnits="userSpaceOnUse"
       gradientTransform="matrix(1,0,0,0.51509477,0,353.44058)"
       cx="96.124428"
       cy="728.13409"
       fx="96.124428"
       fy="728.13409"
       r="30.935921" />
    <radialGradient
       inkscape:collect="always"
       xlink:href="#linearGradient3071"
       id="radialGradient5364"
       gradientUnits="userSpaceOnUse"
       gradientTransform="matrix(1,0,0,0.51509477,0,353.44058)"
       cx="96.124428"
       cy="728.13409"
       fx="96.124428"
       fy="728.13409"
       r="30.935921" />
    <radialGradient
       inkscape:collect="always"
       xlink:href="#linearGradient3071"
       id="radialGradient5368"
       gradientUnits="userSpaceOnUse"
       gradientTransform="matrix(0.99972463,0.02346618,-0.02510034,1.0693448,6.5378877,-21.653928)"
       cx="168.57047"
       cy="276.2543"
       fx="168.57047"
       fy="276.2543"
       r="108.0136" />
    <radialGradient
       inkscape:collect="always"
       xlink:href="#linearGradient3071"
       id="radialGradient5372"
       gradientUnits="userSpaceOnUse"
       gradientTransform="matrix(0.99972463,0.02346618,-0.02510034,1.0693448,6.5378877,-21.653928)"
       cx="168.57047"
       cy="276.2543"
       fx="168.57047"
       fy="276.2543"
       r="108.0136" />
    <radialGradient
       inkscape:collect="always"
       xlink:href="#linearGradient3071"
       id="radialGradient5376"
       gradientUnits="userSpaceOnUse"
       gradientTransform="matrix(0.99972463,0.02346618,-0.02510034,1.0693448,6.5378877,-21.653928)"
       cx="168.57047"
       cy="276.2543"
       fx="168.57047"
       fy="276.2543"
       r="108.0136" />
    <linearGradient
       inkscape:collect="always"
       xlink:href="#linearGradient4428"
       id="linearGradient5413"
       x1="161.67526"
       y1="626.8609"
       x2="197.75533"
       y2="679.53479"
       gradientUnits="userSpaceOnUse"
       gradientTransform="matrix(1.1007508,0,0,1.1007508,-16.328167,-67.157181)" />
    <linearGradient
       inkscape:collect="always"
       xlink:href="#linearGradient4414"
       id="linearGradient5548"
       gradientUnits="userSpaceOnUse"
       gradientTransform="matrix(1.1270926,0.10241856,-0.10241856,1.1270926,38.059645,-80.488801)"
       x1="144.29886"
       y1="528.77631"
       x2="175.50462"
       y2="548.52631" />
    <linearGradient
       inkscape:collect="always"
       xlink:href="#linearGradient4587"
       id="linearGradient5550"
       gradientUnits="userSpaceOnUse"
       x1="93.75"
       y1="539.86218"
       x2="108.25"
       y2="551.36218" />
    <linearGradient
       inkscape:collect="always"
       xlink:href="#linearGradient4587"
       id="linearGradient5552"
       gradientUnits="userSpaceOnUse"
       x1="93.75"
       y1="539.86218"
       x2="108.25"
       y2="551.36218" />
    <linearGradient
       inkscape:collect="always"
       xlink:href="#linearGradient4587"
       id="linearGradient5554"
       gradientUnits="userSpaceOnUse"
       x1="93.75"
       y1="539.86218"
       x2="108.25"
       y2="551.36218" />
    <linearGradient
       inkscape:collect="always"
       xlink:href="#linearGradient4587"
       id="linearGradient5556"
       gradientUnits="userSpaceOnUse"
       gradientTransform="matrix(1.1317364,0,0,1.1317364,-21.148506,-64.550652)"
       x1="181.44766"
       y1="510.44025"
       x2="213.01385"
       y2="528.69025" />
    <linearGradient
       inkscape:collect="always"
       xlink:href="#linearGradient4587"
       id="linearGradient5558"
       gradientUnits="userSpaceOnUse"
       gradientTransform="matrix(-1.1304828,0.05325426,0.05325426,1.1304828,310.1479,-70.032308)"
       x1="181.44766"
       y1="510.44025"
       x2="213.01385"
       y2="528.69025" />
    <linearGradient
       inkscape:collect="always"
       xlink:href="#linearGradient3925"
       id="linearGradient5571"
       x1="367.66833"
       y1="330.74957"
       x2="378.2713"
       y2="342.06329"
       gradientUnits="userSpaceOnUse" />
    <radialGradient
       inkscape:collect="always"
       xlink:href="#linearGradient3071"
       id="radialGradient3432"
       gradientUnits="userSpaceOnUse"
       gradientTransform="matrix(-1.0813686,-0.93579434,0.52925059,-0.61158221,1082.8355,1814.0518)"
       cx="704.85541"
       cy="715.05518"
       fx="704.85541"
       fy="715.05518"
       r="14.64128" />
    <linearGradient
       inkscape:collect="always"
       xlink:href="#linearGradient4414"
       id="linearGradient3434"
       gradientUnits="userSpaceOnUse"
       x1="695.5"
       y1="720.36218"
       x2="689.5"
       y2="722.36218" />
    <radialGradient
       inkscape:collect="always"
       xlink:href="#linearGradient3071"
       id="radialGradient3436"
       gradientUnits="userSpaceOnUse"
       gradientTransform="matrix(0.77988332,0.28301058,-0.20761566,0.57211992,297.80831,107.44621)"
       cx="687.0462"
       cy="708.41467"
       fx="687.0462"
       fy="708.41467"
       r="9.6825304" />
    <radialGradient
       inkscape:collect="always"
       xlink:href="#linearGradient3071"
       id="radialGradient3438"
       gradientUnits="userSpaceOnUse"
       gradientTransform="matrix(1,0,0,0.60143496,0,285.13141)"
       cx="687.36896"
       cy="715.90118"
       fx="687.36896"
       fy="715.90118"
       r="10.188534" />
    <radialGradient
       inkscape:collect="always"
       xlink:href="#linearGradient3071"
       id="radialGradient3440"
       gradientUnits="userSpaceOnUse"
       gradientTransform="matrix(1,0,0,0.74704605,1.25,183.46212)"
       cx="695.66272"
       cy="722.54816"
       fx="695.66272"
       fy="722.54816"
       r="9.6836624" />
    <radialGradient
       inkscape:collect="always"
       xlink:href="#linearGradient3925"
       id="radialGradient4307"
       gradientUnits="userSpaceOnUse"
       gradientTransform="matrix(-0.23219384,-1.4735394,0.83426306,-0.13145717,249.52404,1781.0735)"
       cx="674"
       cy="696.39258"
       fx="674"
       fy="696.39258"
       r="27.993826" />
    <radialGradient
       inkscape:collect="always"
       xlink:href="#linearGradient3925"
       id="radialGradient4315"
       gradientUnits="userSpaceOnUse"
       gradientTransform="matrix(-0.23219384,-1.4735394,0.83426306,-0.13145717,249.52404,1781.0735)"
       cx="674"
       cy="696.39258"
       fx="674"
       fy="696.39258"
       r="27.993826" />
    <linearGradient
       inkscape:collect="always"
       xlink:href="#linearGradient3079"
       id="linearGradient4390"
       gradientUnits="userSpaceOnUse"
       gradientTransform="matrix(-0.29220685,0.95635514,0.95635514,0.29220685,130.71656,-99.810488)"
       x1="721.07214"
       y1="830.50745"
       x2="727.78967"
       y2="830.15387" />
    <linearGradient
       inkscape:collect="always"
       xlink:href="#linearGradient4428"
       id="linearGradient4392"
       gradientUnits="userSpaceOnUse"
       x1="694.02533"
       y1="802.22314"
       x2="695.79309"
       y2="800.80896" />
    <radialGradient
       inkscape:collect="always"
       xlink:href="#linearGradient3071"
       id="radialGradient4394"
       gradientUnits="userSpaceOnUse"
       gradientTransform="matrix(-1.4602942,-0.74886865,0.38408437,-0.74896904,1427.2918,1940.8054)"
       cx="706.2229"
       cy="807.69836"
       fx="706.2229"
       fy="807.69836"
       r="18.884663" />
    <linearGradient
       inkscape:collect="always"
       xlink:href="#linearGradient4428"
       id="linearGradient4396"
       gradientUnits="userSpaceOnUse"
       x1="660.79126"
       y1="759.97351"
       x2="664.15002"
       y2="757.3219" />
    <linearGradient
       inkscape:collect="always"
       xlink:href="#linearGradient3079"
       id="linearGradient4398"
       gradientUnits="userSpaceOnUse"
       gradientTransform="translate(-1.5026019,-0.88388348)"
       x1="721.07214"
       y1="830.50745"
       x2="727.78967"
       y2="830.15387" />
    <linearGradient
       inkscape:collect="always"
       xlink:href="#linearGradient4270"
       id="linearGradient4400"
       gradientUnits="userSpaceOnUse"
       x1="608.11182"
       y1="810.1781"
       x2="628.44116"
       y2="815.30463" />
    <linearGradient
       inkscape:collect="always"
       xlink:href="#linearGradient4270"
       id="linearGradient4402"
       gradientUnits="userSpaceOnUse"
       x1="607.84869"
       y1="801.11218"
       x2="616.06677"
       y2="800.58185" />
    <radialGradient
       inkscape:collect="always"
       xlink:href="#linearGradient3071"
       id="radialGradient4672"
       gradientUnits="userSpaceOnUse"
       gradientTransform="matrix(0.99972463,0.02346618,-0.02510034,1.0693448,6.5378877,-21.653928)"
       cx="168.57047"
       cy="276.2543"
       fx="168.57047"
       fy="276.2543"
       r="108.0136" />
    <radialGradient
       inkscape:collect="always"
       xlink:href="#linearGradient5121"
       id="radialGradient4674"
       gradientUnits="userSpaceOnUse"
       gradientTransform="matrix(0.9936117,-0.11285295,0.10284403,0.90548835,-98.727355,145.98046)"
       cx="525.01648"
       cy="992.5838"
       fx="525.01648"
       fy="992.5838"
       r="24.064341" />
    <radialGradient
       inkscape:collect="always"
       xlink:href="#linearGradient3925"
       id="radialGradient4676"
       gradientUnits="userSpaceOnUse"
       gradientTransform="matrix(0.9998694,-0.01712233,0.01892778,1.2406375,-18.562963,-227.85102)"
       cx="527"
       cy="984.36218"
       fx="527"
       fy="984.36218"
       r="16.25" />
    <radialGradient
       inkscape:collect="always"
       xlink:href="#linearGradient5121"
       id="radialGradient4678"
       gradientUnits="userSpaceOnUse"
       gradientTransform="matrix(-0.08420794,-1.0028458,0.92765779,-0.07789476,-352.66756,1607.5865)"
       cx="531.0293"
       cy="998.89685"
       fx="531.0293"
       fy="998.89685"
       r="16.328541" />
    <radialGradient
       inkscape:collect="always"
       xlink:href="#linearGradient4578"
       id="radialGradient4680"
       gradientUnits="userSpaceOnUse"
       gradientTransform="matrix(0.83554772,-0.1343511,0.13190248,0.82031519,-37.699881,247.47871)"
       cx="547.25"
       cy="968.11218"
       fx="547.25"
       fy="968.11218"
       r="12" />
    <radialGradient
       inkscape:collect="always"
       xlink:href="#linearGradient4625"
       id="radialGradient4682"
       gradientUnits="userSpaceOnUse"
       gradientTransform="matrix(-0.97131477,-1.3740557,0.97629344,-0.69013812,167.01088,2231.1788)"
       cx="526.5"
       cy="892.03339"
       fx="526.5"
       fy="892.03339"
       r="10.552705" />
    <radialGradient
       inkscape:collect="always"
       xlink:href="#linearGradient4578"
       id="radialGradient4684"
       gradientUnits="userSpaceOnUse"
       gradientTransform="matrix(0.83554772,-0.1343511,0.13190248,0.82031519,-37.699881,247.47871)"
       cx="547.25"
       cy="968.11218"
       fx="547.25"
       fy="968.11218"
       r="12" />
    <radialGradient
       inkscape:collect="always"
       xlink:href="#linearGradient3079"
       id="radialGradient4805"
       cx="485.96579"
       cy="1008.5775"
       fx="485.96579"
       fy="1008.5775"
       r="17.127888"
       gradientTransform="matrix(0.9953549,-0.0962737,0.07733574,0.79955901,-71.596485,-66.04087)"
       gradientUnits="userSpaceOnUse" />
    <radialGradient
       inkscape:collect="always"
       xlink:href="#linearGradient3079"
       id="radialGradient4817"
       cx="458.18658"
       cy="695.87952"
       fx="458.18658"
       fy="695.87952"
       r="29.143797"
       gradientTransform="matrix(0.9953549,-0.0962737,0.10361651,1.0712708,-65.96894,300.40891)"
       gradientUnits="userSpaceOnUse" />
    <radialGradient
       inkscape:collect="always"
       xlink:href="#linearGradient3079"
       id="radialGradient4819"
       cx="534.16193"
       cy="703.67053"
       fx="534.16193"
       fy="703.67053"
       r="30.919119"
       gradientTransform="matrix(0.9953549,-0.0962737,0.09309474,0.96248821,-58.677827,375.7903)"
       gradientUnits="userSpaceOnUse" />
    <radialGradient
       inkscape:collect="always"
       xlink:href="#linearGradient3079"
       id="radialGradient4940"
       cx="87.858017"
       cy="656.55493"
       fx="87.858017"
       fy="656.55493"
       r="12.50704"
       gradientTransform="matrix(-0.40282415,-0.86925173,0.50294881,-0.23307438,-206.96417,883.42362)"
       gradientUnits="userSpaceOnUse" />
  </defs>
  <sodipodi:namedview
     id="base"
     pagecolor="#ffffff"
     bordercolor="#666666"
     borderopacity="1.0"
     inkscape:pageopacity="0.0"
     inkscape:pageshadow="2"
     inkscape:zoom="0.5"
     inkscape:cx="526.18109"
     inkscape:cy="93.52451"
     inkscape:document-units="px"
     inkscape:current-layer="layer1"
     showgrid="false"
     inkscape:window-width="1600"
     inkscape:window-height="829"
     inkscape:window-x="0"
     inkscape:window-y="24"
     inkscape:window-maximized="1"
     showguides="true"
     inkscape:guide-bbox="true" />
  <metadata
     id="metadata7">
    <rdf:RDF>
      <cc:Work
         rdf:about="">
        <dc:format>image/svg+xml</dc:format>
        <dc:type
           rdf:resource="http://purl.org/dc/dcmitype/StillImage" />
        <dc:title></dc:title>
      </cc:Work>
    </rdf:RDF>
  </metadata>
  <g
     inkscape:label="Layer 1"
     inkscape:groupmode="layer"
     id="layer1"
     transform="translate(0,-796.36218)">
    <g
       id="g4633"
       transform="matrix(1.0689567,0,0,1.0689567,-309.94051,585.90087)">
      <path
         sodipodi:nodetypes="sssssssssss"
         inkscape:connector-curvature="0"
         transform="matrix(0.77997141,-0.06203881,0.06203881,0.77997141,281.87767,124.52216)"
         style="fill:#000000;fill-opacity:1;stroke:none"
         inkscape:transform-center-x="16.872196"
         inkscape:transform-center-y="-2.2182543"
         d="m 231.00977,360.41474 c -10.05283,7.52406 -56.45586,-35.46045 -69.0084,-35.1369 -12.39037,0.31938 -61.59264,48.29343 -71.722356,41.15116 -10.262304,-7.23575 18.835216,-68.76309 14.648546,-80.60128 -4.13257,-11.68524 -62.745596,-39.13803 -59.083154,-50.97904 3.710381,-11.996 68.125114,-2.52759 78.090154,-10.16754 9.83629,-7.54125 18.86515,-75.475 31.25838,-75.65088 12.55545,-0.17819 25.07541,67.27856 35.42081,74.395 10.21174,7.02449 76.02588,-6.95112 80.02288,4.78119 4.04931,11.88588 -54.551,43.63402 -58.12223,55.67217 -3.52509,11.88263 28.41832,69.10927 18.49537,76.53612 z"
         id="path4515" />
      <path
         id="path4479"
         d="m 228,358.36218 c -10.05283,7.52406 -55.7188,-39.02814 -68.27134,-38.70459 -12.39037,0.31938 -54.87186,49.28129 -65.001574,42.13902 -10.262304,-7.23575 19.899914,-65.05209 15.713244,-76.89028 -4.13257,-11.68524 -63.825618,-36.95748 -60.163176,-48.79849 3.710381,-11.996 68.017626,-1.17627 77.982666,-8.81622 9.83629,-7.54125 15.42545,-72.12227 27.81868,-72.29815 12.55545,-0.17819 22.13729,64.32512 32.48269,71.44156 10.21174,7.02449 73.35907,-7.61653 77.35607,4.11578 4.04931,11.88588 -54.33603,40.93138 -57.90726,52.96953 -3.52509,11.88263 29.91295,67.41499 19.99,74.84184 z"
         inkscape:transform-center-y="-2.2182543"
         inkscape:transform-center-x="16.872196"
         style="fill:url(#radialGradient4665);fill-opacity:1;stroke:none"
         transform="matrix(0.77997141,-0.06203881,0.06203881,0.77997141,281.87767,124.52216)"
         inkscape:connector-curvature="0" />
      <g
         transform="matrix(-0.38627389,-0.11405673,0.11405673,-0.38627389,610.55234,419.31473)"
         id="g4595">
        <path
           style="fill:#000000;stroke:none"
           d="m 513,238.61218 c 0,0 8,-19.25 -18,-24 -26,-4.75 -38.75,6.25 -35,18 3.75,11.75 17.832,24.07779 26.5,24.5 55.00933,2.67946 23.75,-18.5 26.5,-18.5 z"
           id="path4550"
           inkscape:connector-curvature="0"
           sodipodi:nodetypes="csssc" />
        <path
           inkscape:connector-curvature="0"
           style="fill:url(#linearGradient4667);fill-opacity:1;stroke:none"
           d="m 482.3125,215.09375 c -16.31427,0.0778 -22.35938,7.98437 -19.3125,17.53125 3.75,11.75 16.082,22.07779 24.75,22.5 1.58784,0.0773 3.09074,0.146 4.53125,0.1875 -0.50718,-1.42578 -0.64297,-2.76191 -0.28125,-3.9375 0,0 9.6597,-11.86656 18.6875,-13.78125 0.002,-0.003 0.0295,0.003 0.0312,0 1.76777,-3.41964 7.21134,-17.07527 -15.46875,-21.21875 -4.875,-0.89062 -9.17267,-1.29919 -12.9375,-1.28125 z"
           id="path4554" />
        <path
           style="fill:#000000;stroke:none"
           d="m 513.5,238.11218 c 0,0 -12.5,-7.25 -5.5,-19.25 7,-12 4.75,-26.75 22.25,-20.25 17.5,6.5 29.75,21.75 20.25,30 -9.5,8.25 -18.75,14.5 -22.5,14 -3.75,-0.5 -12.25,-1.5 -13.25,-4 -1,-2.5 -1.25,-0.5 -1.25,-0.5 z"
           id="path4563"
           inkscape:connector-curvature="0" />
        <path
           style="fill:#000000;stroke:none"
           d="m 528.75,244.61218 c 0,0 -12.21289,-0.30584 6.75,-7.25 17.75,-6.5 17.4145,-7.07968 26.75,-2.5 13.25,6.5 15.75,21 8.5,26.25 -7.25,5.25 -41.5,6 -42,-1.5 -0.5,-7.5 -3,-14 0,-15 z"
           id="path4565"
           inkscape:connector-curvature="0"
           sodipodi:nodetypes="cssssc" />
        <path
           style="fill:#000000;stroke:none"
           d="m 524,258.36218 c 12.25,3.5 30.25,10 26,21.75 -4.25,11.75 -9.5,21.75 -21.25,18.25 -11.75,-3.5 -26.25,-14.5 -22.5,-26.75 3.75,-12.25 15.75,-12.25 17.75,-13.25 z"
           id="path4567"
           inkscape:connector-curvature="0"
           sodipodi:nodetypes="csssc" />
        <path
           style="fill:#000000;stroke:none"
           d="m 497.25,255.11218 c -5.5,-0.5 -17.75,-3.75 -27,0.25 -9.25,4 -13,9 -8.5,19 4.5,10 35.5,26.25 40,20 4.5,-6.25 8,-26 6.25,-29 -1.75,-3 -4.25,-9.75 -10.75,-10.25 z"
           id="path4569"
           inkscape:connector-curvature="0"
           sodipodi:nodetypes="cssssc" />
        <path
           inkscape:connector-curvature="0"
           id="path4571"
           d="m 515.25,235.61218 c 2.39431,3.59147 -9.68155,-2.64732 -4.25,-17 4.91706,-12.99317 1.25,-24.75 18.75,-18.25 17.5,6.5 27.25,19.25 17.75,27.5 -9.5,8.25 -15.75,15.25 -19.5,14.75 -3.75,-0.5 -10.25,-3 -11.25,-5.5 -1,-2.5 -1.5,-1.5 -1.5,-1.5 z"
           style="fill:url(#linearGradient4669);stroke:none"
           sodipodi:nodetypes="csssssc" />
        <path
           sodipodi:nodetypes="cssssc"
           inkscape:connector-curvature="0"
           id="path4573"
           d="m 534.5,245.61218 c 0,0 -16.71289,-0.30584 2.25,-7.25 17.75,-6.5 15.6645,-5.57968 25,-1 13.25,6.5 13.75,16.25 6.5,21.5 -7.25,5.25 -37.25,7 -37.75,-0.5 -0.5,-7.5 1,-11.75 4,-12.75 z"
           style="fill:url(#linearGradient4671);stroke:none" />
        <path
           sodipodi:nodetypes="csssc"
           inkscape:connector-curvature="0"
           id="path4575"
           d="m 524.5,260.61218 c 12.25,3.5 27,8.25 22.75,20 -4.25,11.75 -6,18.25 -17.75,14.75 -11.75,-3.5 -23.75,-11.5 -20,-23.75 3.75,-12.25 13,-10 15,-11 z"
           style="fill:url(#linearGradient4673);stroke:none" />
        <path
           sodipodi:nodetypes="cssssc"
           inkscape:connector-curvature="0"
           id="path4577"
           d="m 494,256.61218 c -5.5,-0.5 -14,-3 -23.25,1 -9.25,4 -11,6.75 -6.5,16.75 4.5,10 31.75,22.25 36.25,16 4.5,-6.25 6.75,-22.25 5,-25.25 -1.75,-3 -5,-8 -11.5,-8.5 z"
           style="fill:url(#linearGradient4675);stroke:none" />
        <path
           style="fill:#000000;stroke:none"
           d="m 492,251.36218 c 0,0 11,-13.5 20.5,-14 9.5,-0.5 19,1 20.5,12.5 1.5,11.5 -12,26.5 -21,23 -9,-3.5 -22,-15 -20,-21.5 z"
           id="path4540"
           inkscape:connector-curvature="0" />
        <path
           inkscape:connector-curvature="0"
           id="path4542"
           d="m 495.5,251.86218 c 0,0 8.5,-12.25 18,-12.75 9.5,-0.5 15,-1.5 16.5,10 1.5,11.5 -8.5,25.25 -17.5,21.75 -9,-3.5 -19,-12.5 -17,-19 z"
           style="fill:url(#radialGradient4677);fill-opacity:1;stroke:none"
           sodipodi:nodetypes="csssc" />
      </g>
      <g
         transform="matrix(1.318111,0.07826155,-0.07826155,1.318111,-108.70825,-126.13654)"
         id="g4497">
        <path
           style="fill:#000000;stroke:none"
           d="m 400,333.98718 c 5.04167,-2.39942 8.33333,-3.33798 13.375,-9.25 4.53721,2.30784 8.92156,-1.02138 11.25,-2.5 5.78398,3.28459 11.31211,3.783 17.75,4.125 -16.7918,5.7456 -26.47505,9.55243 -41.81638,8.29744 -0.18537,-0.0152 -0.37157,-0.65598 -0.55862,-0.67244 z"
           id="path4491"
           inkscape:connector-curvature="0"
           sodipodi:nodetypes="ccccsc" />
        <path
           style="fill:#000000;stroke:none"
           d="m 400.57599,334.6488 c -0.92556,-1.23408 9.72587,-0.40843 20.02223,-2.41301 11.07424,-2.15603 21.90404,-7.0594 22.40418,-5.71872 3.03813,8.14403 -33.33604,21.41421 -42.42641,8.13173 z"
           id="path4483"
           inkscape:connector-curvature="0"
           sodipodi:nodetypes="cssc" />
        <path
           sodipodi:nodetypes="cssc"
           inkscape:connector-curvature="0"
           id="path4485"
           d="m 402.20099,334.8988 c -0.92556,-1.23408 8.35087,0.21657 18.64723,-1.78801 11.07424,-2.15603 19.85408,-6.91469 20.40418,-5.59372 2.71162,6.51149 -30.30114,18.9637 -39.05141,7.38173 z"
           style="fill:url(#linearGradient4679);fill-opacity:1;stroke:none" />
        <path
           sodipodi:nodetypes="cccccc"
           inkscape:connector-curvature="0"
           id="path4493"
           d="m 402.75,333.61218 c 5.04167,-2.39942 5.95833,-1.58798 11,-7.5 4.53721,2.30784 8.79656,-1.02138 11.125,-2.5 5.78398,3.28459 8.93711,2.908 15.375,3.25 -7.6463,2.61631 -15.10482,4.95671 -18.49274,4.28297 -4.5508,2.49321 -8.58674,2.32432 -19.00726,2.46703 z"
           style="fill:url(#linearGradient4681);fill-opacity:1;stroke:none" />
      </g>
      <path
         style="fill:#fee300;fill-opacity:1;stroke:none"
         d="m 413.1875,236.75 c -5.20337,3.18627 -5.0958,10.86508 -6.78125,16.21875 -3.02408,13.38787 -2.92354,27.66225 -8.59375,40.28125 -5.04017,5.71168 -14.07085,4.25349 -20.9375,5.5 -12.88164,1.50159 -26.84409,0.0144 -38.78125,5.3125 -3.65795,2.20742 1.14332,6.88075 3.25,7.375 12.69702,-5.96622 27.57047,-4.04331 41.21203,-5.82008 5.93672,-1.13039 13.65064,0.16558 18.13172,-4.55492 7.14563,-17.06256 4.9769,-36.81866 12.625,-53.8125 1.12963,-2.63327 4.45702,-4.73897 7.15625,-2.78125 -1.83077,-2.68058 -3.54775,-7.42442 -7.28125,-7.71875 z"
         id="path4683"
         inkscape:connector-curvature="0" />
      <g
         transform="translate(2.8284271,3.8890873)"
         id="g4621">
        <path
           inkscape:connector-curvature="0"
           id="path4528"
           d="m 365.5801,286.59058 c 6.96151,-0.40694 9.18142,4.18388 11.96849,8.1687 1.58287,-1.13138 3.247,-2.34218 5.14221,-3.61273 -0.87388,-2.62462 -2.95332,-4.91297 -6.2053,-6.87855 4.84564,0.81211 6.54234,3.20348 7.80818,5.82384 1.46292,-0.9283 2.98548,-1.80668 4.5455,-2.57611 -0.98153,-1.96086 -2.42421,-3.75042 -5.02435,-5.16439 1.33824,-0.67597 4.63861,1.98661 6.78193,4.34662 7.25584,-3.07051 15.08488,-3.07489 21.0634,7.39083 -16.80472,31.37238 -39.10193,3.82141 -39.10193,3.82141 0.96656,-0.42663 2.19944,-1.20103 3.56894,-2.15285 -2.14218,-4.06322 -4.61602,-7.88283 -10.54707,-9.16677 z"
           style="fill:#000000;stroke:none" />
        <path
           style="fill:#ffffff;stroke:none"
           d="m 409.59612,294.3404 c -11.81146,-17.42871 -27.70298,0.95534 -34.97429,3.33285 -0.3852,-1.30089 17.12573,24.51428 34.97429,-3.33285 z"
           id="path4530"
           inkscape:connector-curvature="0"
           sodipodi:nodetypes="ccc" />
        <path
           sodipodi:type="arc"
           style="fill:#000000;fill-opacity:1;stroke:none"
           id="path4532"
           sodipodi:cx="397.5"
           sodipodi:cy="301.23718"
           sodipodi:rx="10.75"
           sodipodi:ry="10.125"
           d="m 408.25,301.23718 c 0,5.59189 -4.81294,10.125 -10.75,10.125 -5.93706,0 -10.75,-4.53311 -10.75,-10.125 0,-5.59188 4.81294,-10.125 10.75,-10.125 5.93706,0 10.75,4.53312 10.75,10.125 z"
           transform="translate(-4.125,-3.875)" />
        <path
           transform="matrix(0.55232558,0,0,0.54938272,168.13808,131.43018)"
           d="m 408.25,301.23718 c 0,5.59189 -4.81294,10.125 -10.75,10.125 -5.93706,0 -10.75,-4.53311 -10.75,-10.125 0,-5.59188 4.81294,-10.125 10.75,-10.125 5.93706,0 10.75,4.53312 10.75,10.125 z"
           sodipodi:ry="10.125"
           sodipodi:rx="10.75"
           sodipodi:cy="301.23718"
           sodipodi:cx="397.5"
           id="path4536"
           style="fill:#ffffff;fill-opacity:1;stroke:none"
           sodipodi:type="arc" />
      </g>
      <g
         transform="translate(-1.767767,3.1819805)"
         id="g4627">
        <path
           style="fill:#000000;stroke:none"
           d="m 470.42071,277.33528 c -6.87299,1.17908 -7.99635,6.15319 -9.8093,10.66537 -1.79784,-0.74381 -3.69282,-1.54658 -5.8264,-2.35526 0.25723,-2.75429 1.76484,-5.45387 4.48761,-8.10442 -4.53613,1.88767 -5.64761,4.60098 -6.28759,7.43982 -1.63505,-0.57313 -3.31689,-1.08415 -5.01057,-1.48057 0.5123,-2.13212 1.51255,-4.20174 3.72523,-6.16747 -1.4565,-0.35557 -4.06867,2.98484 -5.62228,5.76868 -7.76248,-1.34877 -15.38939,0.41877 -18.84428,11.96596 23.46865,26.75533 38.95226,-5.12695 38.95226,-5.12695 -1.03804,-0.19682 -2.41418,-0.67211 -3.96356,-1.2893 1.16705,-4.4426 2.71228,-8.72297 8.19888,-11.31586 z"
           id="path4521"
           inkscape:connector-curvature="0" />
        <path
           sodipodi:nodetypes="ccc"
           inkscape:connector-curvature="0"
           id="path4523"
           d="m 429.30056,294.84536 c 7.56069,-19.64959 27.20043,-5.33895 34.82114,-4.66871 0.0808,-1.35431 -11.13353,27.75401 -34.82114,4.66871 z"
           style="fill:#ffffff;stroke:none" />
        <path
           transform="translate(47.5,-7)"
           d="m 408.25,301.23718 c 0,5.59189 -4.81294,10.125 -10.75,10.125 -5.93706,0 -10.75,-4.53311 -10.75,-10.125 0,-5.59188 4.81294,-10.125 10.75,-10.125 5.93706,0 10.75,4.53312 10.75,10.125 z"
           sodipodi:ry="10.125"
           sodipodi:rx="10.75"
           sodipodi:cy="301.23718"
           sodipodi:cx="397.5"
           id="path4534"
           style="fill:#000000;fill-opacity:1;stroke:none"
           sodipodi:type="arc" />
        <path
           sodipodi:type="arc"
           style="fill:#ffffff;fill-opacity:1;stroke:none"
           id="path4538"
           sodipodi:cx="397.5"
           sodipodi:cy="301.23718"
           sodipodi:rx="10.75"
           sodipodi:ry="10.125"
           d="m 408.25,301.23718 c 0,5.59189 -4.81294,10.125 -10.75,10.125 -5.93706,0 -10.75,-4.53311 -10.75,-10.125 0,-5.59188 4.81294,-10.125 10.75,-10.125 5.93706,0 10.75,4.53312 10.75,10.125 z"
           transform="matrix(0.55232558,0,0,0.54938272,220.01308,126.93018)" />
      </g>
    </g>
  </g>
</svg>
