<?xml version="1.0" encoding="UTF-8" standalone="no"?>
<!-- Created with Inkscape (http://www.inkscape.org/) -->

<svg
   xmlns:dc="http://purl.org/dc/elements/1.1/"
   xmlns:cc="http://creativecommons.org/ns#"
   xmlns:rdf="http://www.w3.org/1999/02/22-rdf-syntax-ns#"
   xmlns:svg="http://www.w3.org/2000/svg"
   xmlns="http://www.w3.org/2000/svg"
   xmlns:xlink="http://www.w3.org/1999/xlink"
   xmlns:sodipodi="http://sodipodi.sourceforge.net/DTD/sodipodi-0.dtd"
   xmlns:inkscape="http://www.inkscape.org/namespaces/inkscape"
   width="256"
   height="256"
   id="svg2"
   version="1.1"
   inkscape:version="0.48.4 r9939"
   sodipodi:docname="starry07.svg"
   inkscape:export-filename="starry.png"
   inkscape:export-xdpi="60.476192"
   inkscape:export-ydpi="60.476192">
  <defs
     id="defs4">
    <linearGradient
       id="linearGradient4625">
      <stop
         style="stop-color:#9c4a13;stop-opacity:1;"
         offset="0"
         id="stop4627" />
      <stop
         style="stop-color:#552200;stop-opacity:1;"
         offset="1"
         id="stop4629" />
    </linearGradient>
    <linearGradient
       inkscape:collect="always"
       id="linearGradient4578">
      <stop
         style="stop-color:#ff0000;stop-opacity:1;"
         offset="0"
         id="stop4580" />
      <stop
         style="stop-color:#ff0000;stop-opacity:0;"
         offset="1"
         id="stop4582" />
    </linearGradient>
    <linearGradient
       id="linearGradient4270">
      <stop
         style="stop-color:#27a027;stop-opacity:1;"
         offset="0"
         id="stop4272" />
      <stop
         style="stop-color:#2beb2b;stop-opacity:1;"
         offset="1"
         id="stop4274" />
    </linearGradient>
    <linearGradient
       id="linearGradient5121">
      <stop
         style="stop-color:#e82ae8;stop-opacity:1;"
         offset="0"
         id="stop5123" />
      <stop
         style="stop-color:#ab378e;stop-opacity:1;"
         offset="1"
         id="stop5125" />
    </linearGradient>
    <linearGradient
       id="linearGradient4587">
      <stop
         style="stop-color:#ffdb00;stop-opacity:1;"
         offset="0"
         id="stop4589" />
      <stop
         style="stop-color:#ff6600;stop-opacity:1;"
         offset="1"
         id="stop4591" />
    </linearGradient>
    <linearGradient
       id="linearGradient4428">
      <stop
         style="stop-color:#404040;stop-opacity:1;"
         offset="0"
         id="stop4430" />
      <stop
         style="stop-color:#636363;stop-opacity:1;"
         offset="1"
         id="stop4432" />
    </linearGradient>
    <linearGradient
       id="linearGradient4414">
      <stop
         style="stop-color:#b9a165;stop-opacity:1;"
         offset="0"
         id="stop4416" />
      <stop
         style="stop-color:#978045;stop-opacity:1;"
         offset="1"
         id="stop4418" />
    </linearGradient>
    <linearGradient
       id="linearGradient3925">
      <stop
         style="stop-color:#ffffff;stop-opacity:1;"
         offset="0"
         id="stop3927" />
      <stop
         style="stop-color:#d5d5d5;stop-opacity:1;"
         offset="1"
         id="stop3929" />
    </linearGradient>
    <linearGradient
       id="linearGradient3861">
      <stop
         style="stop-color:#161688;stop-opacity:1;"
         offset="0"
         id="stop3863" />
      <stop
         style="stop-color:#1717ac;stop-opacity:1;"
         offset="1"
         id="stop3865" />
    </linearGradient>
    <linearGradient
       id="linearGradient3079">
      <stop
         style="stop-color:#d40000;stop-opacity:1;"
         offset="0"
         id="stop3081" />
      <stop
         style="stop-color:#ff0d00;stop-opacity:1;"
         offset="1"
         id="stop3083" />
    </linearGradient>
    <linearGradient
       id="linearGradient3071">
      <stop
         style="stop-color:#fff000;stop-opacity:1;"
         offset="0"
         id="stop3073" />
      <stop
         style="stop-color:#ffcc00;stop-opacity:1;"
         offset="1"
         id="stop3075" />
    </linearGradient>
    <radialGradient
       inkscape:collect="always"
       xlink:href="#linearGradient3071"
       id="radialGradient3907"
       cx="532.20038"
       cy="177.71259"
       fx="532.20038"
       fy="177.71259"
       r="69.003609"
       gradientTransform="matrix(0.9990308,0.04401675,-0.04928387,1.1185762,75.184005,-55.361323)"
       gradientUnits="userSpaceOnUse" />
    <radialGradient
       inkscape:collect="always"
       xlink:href="#linearGradient3925"
       id="radialGradient4145"
       gradientUnits="userSpaceOnUse"
       gradientTransform="matrix(-1.4510666,-1.4897576,3.2585121,-3.1738567,448.17659,1515.4599)"
       cx="456.21127"
       cy="216.91385"
       fx="456.21127"
       fy="216.91385"
       r="42" />
    <radialGradient
       inkscape:collect="always"
       xlink:href="#linearGradient3925"
       id="radialGradient4169"
       cx="607.24139"
       cy="228.16756"
       fx="607.24139"
       fy="228.16756"
       r="23.700668"
       gradientTransform="matrix(1.3027334,0,0,0.52251417,-179.27791,116.51455)"
       gradientUnits="userSpaceOnUse" />
    <radialGradient
       inkscape:collect="always"
       xlink:href="#linearGradient3861"
       id="radialGradient4171"
       cx="616.19501"
       cy="232.33742"
       fx="616.19501"
       fy="232.33742"
       r="23.115305"
       gradientTransform="matrix(1.2963054,-0.12925413,0.09862658,0.98913795,-198.23165,85.163814)"
       gradientUnits="userSpaceOnUse" />
    <radialGradient
       inkscape:collect="always"
       xlink:href="#linearGradient3861"
       id="radialGradient4193"
       gradientUnits="userSpaceOnUse"
       gradientTransform="matrix(1.2963054,-0.12925413,0.09862658,0.98913795,-198.23165,85.163814)"
       cx="616.19501"
       cy="232.33742"
       fx="616.19501"
       fy="232.33742"
       r="23.115305" />
    <radialGradient
       inkscape:collect="always"
       xlink:href="#linearGradient3925"
       id="radialGradient4195"
       gradientUnits="userSpaceOnUse"
       gradientTransform="matrix(1.3027334,0,0,0.52251417,-179.27791,116.51455)"
       cx="607.24139"
       cy="228.16756"
       fx="607.24139"
       fy="228.16756"
       r="23.700668" />
    <radialGradient
       inkscape:collect="always"
       xlink:href="#linearGradient3071"
       id="radialGradient4269"
       cx="163.93484"
       cy="284.47501"
       fx="163.93484"
       fy="284.47501"
       r="108.0136"
       gradientTransform="matrix(1.0021393,-0.00822154,0.02280656,1.1172491,-6.8385999,-33.021411)"
       gradientUnits="userSpaceOnUse" />
    <radialGradient
       inkscape:collect="always"
       xlink:href="#linearGradient3925"
       id="radialGradient4286"
       cx="455.3418"
       cy="326.35748"
       fx="455.3418"
       fy="326.35748"
       r="33.595551"
       gradientTransform="matrix(1,0,0,0.54758086,0,150.89964)"
       gradientUnits="userSpaceOnUse" />
    <radialGradient
       inkscape:collect="always"
       xlink:href="#linearGradient3925"
       id="radialGradient4288"
       cx="506.75"
       cy="320.34167"
       fx="506.75"
       fy="320.34167"
       r="32.75"
       gradientTransform="matrix(1,0,0,0.59606531,0,137.39712)"
       gradientUnits="userSpaceOnUse" />
    <linearGradient
       inkscape:collect="always"
       xlink:href="#linearGradient4414"
       id="linearGradient4420"
       x1="271.81821"
       y1="524.1095"
       x2="274.26199"
       y2="532.18262"
       gradientUnits="userSpaceOnUse" />
    <linearGradient
       inkscape:collect="always"
       xlink:href="#linearGradient4428"
       id="linearGradient4434"
       x1="238.46864"
       y1="552.31421"
       x2="225.72975"
       y2="569.94263"
       gradientUnits="userSpaceOnUse" />
    <radialGradient
       inkscape:collect="always"
       xlink:href="#linearGradient3925"
       id="radialGradient4442"
       cx="502.11005"
       cy="260.3374"
       fx="502.11005"
       fy="260.3374"
       r="26.274143"
       gradientTransform="matrix(0.79551346,0.44120601,-0.42087109,0.75884875,209.13317,-150.22852)"
       gradientUnits="userSpaceOnUse" />
    <radialGradient
       inkscape:collect="always"
       xlink:href="#linearGradient3925"
       id="radialGradient4448"
       gradientUnits="userSpaceOnUse"
       gradientTransform="matrix(-0.73156691,0.19304627,0.18414888,0.69784946,770.56159,-16.416917)"
       cx="502.11005"
       cy="260.3374"
       fx="502.11005"
       fy="260.3374"
       r="26.274143" />
    <linearGradient
       inkscape:collect="always"
       xlink:href="#linearGradient3079"
       id="linearGradient4517"
       x1="581.16241"
       y1="157.24892"
       x2="587.12347"
       y2="172.24892"
       gradientUnits="userSpaceOnUse" />
    <radialGradient
       inkscape:collect="always"
       xlink:href="#linearGradient3071"
       id="radialGradient4859"
       gradientUnits="userSpaceOnUse"
       gradientTransform="matrix(0.63529918,0.45672657,-0.48853271,0.67954101,615.23982,99.714894)"
       cx="168.57047"
       cy="276.2543"
       fx="168.57047"
       fy="276.2543"
       r="108.0136" />
    <linearGradient
       inkscape:collect="always"
       xlink:href="#linearGradient4428"
       id="linearGradient4861"
       gradientUnits="userSpaceOnUse"
       x1="569.92804"
       y1="328.6384"
       x2="577.35266"
       y2="385.56049" />
    <linearGradient
       inkscape:collect="always"
       xlink:href="#linearGradient4587"
       id="linearGradient4863"
       gradientUnits="userSpaceOnUse"
       x1="635.54486"
       y1="388.39685"
       x2="655.91925"
       y2="388.39685" />
    <linearGradient
       inkscape:collect="always"
       xlink:href="#linearGradient4428"
       id="linearGradient4865"
       gradientUnits="userSpaceOnUse"
       x1="571.75"
       y1="259.36218"
       x2="587.25"
       y2="303.61218" />
    <radialGradient
       inkscape:collect="always"
       xlink:href="#linearGradient3071"
       id="radialGradient4869"
       gradientUnits="userSpaceOnUse"
       gradientTransform="matrix(0.99972463,0.02346618,-0.02510034,1.0693448,6.5378877,-21.653928)"
       cx="171.29147"
       cy="285.97275"
       fx="171.29147"
       fy="285.97275"
       r="108.0136" />
    <radialGradient
       inkscape:collect="always"
       xlink:href="#linearGradient3071"
       id="radialGradient4873"
       gradientUnits="userSpaceOnUse"
       gradientTransform="matrix(0.99972463,0.02346618,-0.02510034,1.0693448,6.5378877,-21.653928)"
       cx="177.93721"
       cy="289.21756"
       fx="177.93721"
       fy="289.21756"
       r="108.0136" />
    <radialGradient
       inkscape:collect="always"
       xlink:href="#linearGradient3079"
       id="radialGradient4937"
       gradientUnits="userSpaceOnUse"
       gradientTransform="matrix(1,0,0,0.98056266,0,10.143726)"
       cx="464.80362"
       cy="527.27637"
       fx="464.80362"
       fy="527.27637"
       r="15.310997" />
    <radialGradient
       inkscape:collect="always"
       xlink:href="#linearGradient3079"
       id="radialGradient4943"
       gradientUnits="userSpaceOnUse"
       gradientTransform="matrix(-0.62071292,-0.90941872,0.8098967,-0.55278437,261.36556,1204.4559)"
       cx="424.61761"
       cy="527.00262"
       fx="424.61761"
       fy="527.00262"
       r="12.246221" />
    <radialGradient
       inkscape:collect="always"
       xlink:href="#linearGradient3079"
       id="radialGradient4951"
       gradientUnits="userSpaceOnUse"
       gradientTransform="matrix(1,0,0,0.98056266,0,10.143726)"
       cx="464.80362"
       cy="527.27637"
       fx="464.80362"
       fy="527.27637"
       r="15.310997" />
    <radialGradient
       inkscape:collect="always"
       xlink:href="#linearGradient3079"
       id="radialGradient4959"
       gradientUnits="userSpaceOnUse"
       gradientTransform="matrix(1,0,0,0.98056266,0,10.143726)"
       cx="464.80362"
       cy="527.27637"
       fx="464.80362"
       fy="527.27637"
       r="15.310997" />
    <radialGradient
       inkscape:collect="always"
       xlink:href="#linearGradient3079"
       id="radialGradient4967"
       gradientUnits="userSpaceOnUse"
       gradientTransform="matrix(1,0,0,0.98056266,0,10.143726)"
       cx="464.80362"
       cy="527.27637"
       fx="464.80362"
       fy="527.27637"
       r="15.310997" />
    <radialGradient
       inkscape:collect="always"
       xlink:href="#linearGradient3925"
       id="radialGradient5356"
       gradientUnits="userSpaceOnUse"
       gradientTransform="matrix(1,0,0,0.3842483,0,554.47405)"
       cx="100.45855"
       cy="921.64594"
       fx="100.45855"
       fy="921.64594"
       r="58.505035" />
    <radialGradient
       inkscape:collect="always"
       xlink:href="#linearGradient3071"
       id="radialGradient5358"
       gradientUnits="userSpaceOnUse"
       gradientTransform="matrix(1,0,0,1.4289469,0,-325.73173)"
       cx="156.5768"
       cy="759.37549"
       fx="156.5768"
       fy="759.37549"
       r="89.576805" />
    <radialGradient
       inkscape:collect="always"
       xlink:href="#linearGradient3925"
       id="radialGradient5360"
       gradientUnits="userSpaceOnUse"
       gradientTransform="matrix(0.99997148,-0.00755275,0.00298362,0.3950256,-53.670014,510.55425)"
       cx="363.22302"
       cy="898.36456"
       fx="363.22302"
       fy="898.36456"
       r="118.49831" />
    <radialGradient
       inkscape:collect="always"
       xlink:href="#linearGradient3071"
       id="radialGradient5362"
       gradientUnits="userSpaceOnUse"
       gradientTransform="matrix(1,0,0,0.51509477,0,353.44058)"
       cx="96.124428"
       cy="728.13409"
       fx="96.124428"
       fy="728.13409"
       r="30.935921" />
    <radialGradient
       inkscape:collect="always"
       xlink:href="#linearGradient3071"
       id="radialGradient5364"
       gradientUnits="userSpaceOnUse"
       gradientTransform="matrix(1,0,0,0.51509477,0,353.44058)"
       cx="96.124428"
       cy="728.13409"
       fx="96.124428"
       fy="728.13409"
       r="30.935921" />
    <radialGradient
       inkscape:collect="always"
       xlink:href="#linearGradient3071"
       id="radialGradient5372"
       gradientUnits="userSpaceOnUse"
       gradientTransform="matrix(0.99972463,0.02346618,-0.02510034,1.0693448,6.5378877,-21.653928)"
       cx="168.57047"
       cy="276.2543"
       fx="168.57047"
       fy="276.2543"
       r="108.0136" />
    <radialGradient
       inkscape:collect="always"
       xlink:href="#linearGradient3071"
       id="radialGradient5376"
       gradientUnits="userSpaceOnUse"
       gradientTransform="matrix(0.99972463,0.02346618,-0.02510034,1.0693448,6.5378877,-21.653928)"
       cx="168.57047"
       cy="276.2543"
       fx="168.57047"
       fy="276.2543"
       r="108.0136" />
    <linearGradient
       inkscape:collect="always"
       xlink:href="#linearGradient3925"
       id="linearGradient5571"
       x1="367.66833"
       y1="330.74957"
       x2="378.2713"
       y2="342.06329"
       gradientUnits="userSpaceOnUse" />
    <radialGradient
       inkscape:collect="always"
       xlink:href="#linearGradient3071"
       id="radialGradient3432"
       gradientUnits="userSpaceOnUse"
       gradientTransform="matrix(-1.0813686,-0.93579434,0.52925059,-0.61158221,1082.8355,1814.0518)"
       cx="704.85541"
       cy="715.05518"
       fx="704.85541"
       fy="715.05518"
       r="14.64128" />
    <linearGradient
       inkscape:collect="always"
       xlink:href="#linearGradient4414"
       id="linearGradient3434"
       gradientUnits="userSpaceOnUse"
       x1="695.5"
       y1="720.36218"
       x2="689.5"
       y2="722.36218" />
    <radialGradient
       inkscape:collect="always"
       xlink:href="#linearGradient3071"
       id="radialGradient3436"
       gradientUnits="userSpaceOnUse"
       gradientTransform="matrix(0.77988332,0.28301058,-0.20761566,0.57211992,297.80831,107.44621)"
       cx="687.0462"
       cy="708.41467"
       fx="687.0462"
       fy="708.41467"
       r="9.6825304" />
    <radialGradient
       inkscape:collect="always"
       xlink:href="#linearGradient3071"
       id="radialGradient3438"
       gradientUnits="userSpaceOnUse"
       gradientTransform="matrix(1,0,0,0.60143496,0,285.13141)"
       cx="687.36896"
       cy="715.90118"
       fx="687.36896"
       fy="715.90118"
       r="10.188534" />
    <radialGradient
       inkscape:collect="always"
       xlink:href="#linearGradient3071"
       id="radialGradient3440"
       gradientUnits="userSpaceOnUse"
       gradientTransform="matrix(1,0,0,0.74704605,1.25,183.46212)"
       cx="695.66272"
       cy="722.54816"
       fx="695.66272"
       fy="722.54816"
       r="9.6836624" />
    <radialGradient
       inkscape:collect="always"
       xlink:href="#linearGradient3925"
       id="radialGradient4307"
       gradientUnits="userSpaceOnUse"
       gradientTransform="matrix(-0.23219384,-1.4735394,0.83426306,-0.13145717,249.52404,1781.0735)"
       cx="674"
       cy="696.39258"
       fx="674"
       fy="696.39258"
       r="27.993826" />
    <radialGradient
       inkscape:collect="always"
       xlink:href="#linearGradient3925"
       id="radialGradient4315"
       gradientUnits="userSpaceOnUse"
       gradientTransform="matrix(-0.23219384,-1.4735394,0.83426306,-0.13145717,249.52404,1781.0735)"
       cx="674"
       cy="696.39258"
       fx="674"
       fy="696.39258"
       r="27.993826" />
    <linearGradient
       inkscape:collect="always"
       xlink:href="#linearGradient3079"
       id="linearGradient4390"
       gradientUnits="userSpaceOnUse"
       gradientTransform="matrix(-0.29220685,0.95635514,0.95635514,0.29220685,130.71656,-99.810488)"
       x1="721.07214"
       y1="830.50745"
       x2="727.78967"
       y2="830.15387" />
    <linearGradient
       inkscape:collect="always"
       xlink:href="#linearGradient4428"
       id="linearGradient4392"
       gradientUnits="userSpaceOnUse"
       x1="694.02533"
       y1="802.22314"
       x2="695.79309"
       y2="800.80896" />
    <radialGradient
       inkscape:collect="always"
       xlink:href="#linearGradient3071"
       id="radialGradient4394"
       gradientUnits="userSpaceOnUse"
       gradientTransform="matrix(-1.4602942,-0.74886865,0.38408437,-0.74896904,1427.2918,1940.8054)"
       cx="706.2229"
       cy="807.69836"
       fx="706.2229"
       fy="807.69836"
       r="18.884663" />
    <linearGradient
       inkscape:collect="always"
       xlink:href="#linearGradient4428"
       id="linearGradient4396"
       gradientUnits="userSpaceOnUse"
       x1="660.79126"
       y1="759.97351"
       x2="664.15002"
       y2="757.3219" />
    <linearGradient
       inkscape:collect="always"
       xlink:href="#linearGradient3079"
       id="linearGradient4398"
       gradientUnits="userSpaceOnUse"
       gradientTransform="translate(-1.5026019,-0.88388348)"
       x1="721.07214"
       y1="830.50745"
       x2="727.78967"
       y2="830.15387" />
    <linearGradient
       inkscape:collect="always"
       xlink:href="#linearGradient4270"
       id="linearGradient4400"
       gradientUnits="userSpaceOnUse"
       x1="608.11182"
       y1="810.1781"
       x2="628.44116"
       y2="815.30463" />
    <linearGradient
       inkscape:collect="always"
       xlink:href="#linearGradient4270"
       id="linearGradient4402"
       gradientUnits="userSpaceOnUse"
       x1="607.84869"
       y1="801.11218"
       x2="616.06677"
       y2="800.58185" />
    <radialGradient
       inkscape:collect="always"
       xlink:href="#linearGradient3071"
       id="radialGradient4672"
       gradientUnits="userSpaceOnUse"
       gradientTransform="matrix(0.99972463,0.02346618,-0.02510034,1.0693448,6.5378877,-21.653928)"
       cx="168.57047"
       cy="276.2543"
       fx="168.57047"
       fy="276.2543"
       r="108.0136" />
    <radialGradient
       inkscape:collect="always"
       xlink:href="#linearGradient5121"
       id="radialGradient4674"
       gradientUnits="userSpaceOnUse"
       gradientTransform="matrix(0.9936117,-0.11285295,0.10284403,0.90548835,-98.727355,145.98046)"
       cx="525.01648"
       cy="992.5838"
       fx="525.01648"
       fy="992.5838"
       r="24.064341" />
    <radialGradient
       inkscape:collect="always"
       xlink:href="#linearGradient3925"
       id="radialGradient4676"
       gradientUnits="userSpaceOnUse"
       gradientTransform="matrix(0.9998694,-0.01712233,0.01892778,1.2406375,-18.562963,-227.85102)"
       cx="527"
       cy="984.36218"
       fx="527"
       fy="984.36218"
       r="16.25" />
    <radialGradient
       inkscape:collect="always"
       xlink:href="#linearGradient5121"
       id="radialGradient4678"
       gradientUnits="userSpaceOnUse"
       gradientTransform="matrix(-0.08420794,-1.0028458,0.92765779,-0.07789476,-352.66756,1607.5865)"
       cx="531.0293"
       cy="998.89685"
       fx="531.0293"
       fy="998.89685"
       r="16.328541" />
    <radialGradient
       inkscape:collect="always"
       xlink:href="#linearGradient4578"
       id="radialGradient4680"
       gradientUnits="userSpaceOnUse"
       gradientTransform="matrix(0.83554772,-0.1343511,0.13190248,0.82031519,-37.699881,247.47871)"
       cx="547.25"
       cy="968.11218"
       fx="547.25"
       fy="968.11218"
       r="12" />
    <radialGradient
       inkscape:collect="always"
       xlink:href="#linearGradient4625"
       id="radialGradient4682"
       gradientUnits="userSpaceOnUse"
       gradientTransform="matrix(-0.97131477,-1.3740557,0.97629344,-0.69013812,167.01088,2231.1788)"
       cx="526.5"
       cy="892.03339"
       fx="526.5"
       fy="892.03339"
       r="10.552705" />
    <radialGradient
       inkscape:collect="always"
       xlink:href="#linearGradient4578"
       id="radialGradient4684"
       gradientUnits="userSpaceOnUse"
       gradientTransform="matrix(0.83554772,-0.1343511,0.13190248,0.82031519,-37.699881,247.47871)"
       cx="547.25"
       cy="968.11218"
       fx="547.25"
       fy="968.11218"
       r="12" />
    <radialGradient
       inkscape:collect="always"
       xlink:href="#linearGradient3079"
       id="radialGradient4805"
       cx="485.96579"
       cy="1008.5775"
       fx="485.96579"
       fy="1008.5775"
       r="17.127888"
       gradientTransform="matrix(0.9953549,-0.0962737,0.07733574,0.79955901,-71.596485,-66.04087)"
       gradientUnits="userSpaceOnUse" />
    <radialGradient
       inkscape:collect="always"
       xlink:href="#linearGradient3079"
       id="radialGradient4817"
       cx="458.18658"
       cy="695.87952"
       fx="458.18658"
       fy="695.87952"
       r="29.143797"
       gradientTransform="matrix(0.9953549,-0.0962737,0.10361651,1.0712708,-65.96894,300.40891)"
       gradientUnits="userSpaceOnUse" />
    <radialGradient
       inkscape:collect="always"
       xlink:href="#linearGradient3079"
       id="radialGradient4819"
       cx="534.16193"
       cy="703.67053"
       fx="534.16193"
       fy="703.67053"
       r="30.919119"
       gradientTransform="matrix(0.9953549,-0.0962737,0.09309474,0.96248821,-58.677827,375.7903)"
       gradientUnits="userSpaceOnUse" />
    <radialGradient
       inkscape:collect="always"
       xlink:href="#linearGradient3079"
       id="radialGradient4940"
       cx="87.858017"
       cy="656.55493"
       fx="87.858017"
       fy="656.55493"
       r="12.50704"
       gradientTransform="matrix(-0.40282415,-0.86925173,0.50294881,-0.23307438,-206.96417,883.42362)"
       gradientUnits="userSpaceOnUse" />
  </defs>
  <sodipodi:namedview
     id="base"
     pagecolor="#ffffff"
     bordercolor="#666666"
     borderopacity="1.0"
     inkscape:pageopacity="0.0"
     inkscape:pageshadow="2"
     inkscape:zoom="0.5"
     inkscape:cx="526.18109"
     inkscape:cy="93.52451"
     inkscape:document-units="px"
     inkscape:current-layer="layer1"
     showgrid="false"
     inkscape:window-width="1600"
     inkscape:window-height="829"
     inkscape:window-x="0"
     inkscape:window-y="24"
     inkscape:window-maximized="1"
     showguides="true"
     inkscape:guide-bbox="true" />
  <metadata
     id="metadata7">
    <rdf:RDF>
      <cc:Work
         rdf:about="">
        <dc:format>image/svg+xml</dc:format>
        <dc:type
           rdf:resource="http://purl.org/dc/dcmitype/StillImage" />
        <dc:title></dc:title>
      </cc:Work>
    </rdf:RDF>
  </metadata>
  <g
     inkscape:label="Layer 1"
     inkscape:groupmode="layer"
     id="layer1"
     transform="translate(0,-796.36218)">
    <g
       id="g4983"
       transform="translate(-314.27562,441.33702)">
      <path
         sodipodi:nodetypes="sssssssssss"
         inkscape:connector-curvature="0"
         id="path4875"
         d="m 233.88562,366.72875 c -8.39578,7.37622 -55.07572,-28.5782 -66.24778,-28.29075 -12.34896,0.31773 -69.147527,40.26907 -79.769471,33.96256 -9.609637,-5.70548 8.659868,-66.59532 4.934128,-77.13176 -4.118216,-11.64637 -52.926272,-51.53664 -50.210784,-63.58752 2.456694,-10.9024 58.592127,-9.56973 67.461557,-16.36906 9.80376,-7.51558 32.89831,-74.20791 45.19851,-75.34926 11.12796,-1.03257 33.02894,67.95127 42.23629,74.28549 10.17727,7.00149 80.37306,0.19013 85.25952,11.53562 4.42076,10.26424 -49.77775,48.80662 -52.95672,59.52072 -3.51386,11.84274 13.37496,73.27072 4.09475,81.42396 z"
         inkscape:transform-center-y="2.0384002"
         inkscape:transform-center-x="10.720373"
         style="fill:#000000;fill-opacity:1;stroke:none"
         transform="matrix(0.4051238,-0.09532883,0.09532883,0.4051238,311.93479,394.47064)" />
      <path
         sodipodi:type="star"
         style="fill:url(#radialGradient4869);fill-opacity:1;stroke:none"
         id="path4867"
         sodipodi:sides="5"
         sodipodi:cx="159"
         sodipodi:cy="268.36218"
         sodipodi:r1="113.40635"
         sodipodi:r2="60.899212"
         sodipodi:arg1="0.9167136"
         sodipodi:arg2="1.4783461"
         inkscape:flatsided="false"
         inkscape:rounded="0.16"
         inkscape:randomized="0"
         d="m 228,358.36218 c -8.39578,7.37622 -52.20581,-29.6483 -63.37787,-29.36085 -12.34896,0.31773 -59.2731,39.10179 -69.895044,32.79528 -9.609637,-5.70548 12.064734,-58.8125 8.338994,-69.34894 -4.118216,-11.64637 -55.504414,-44.28895 -52.788926,-56.33983 2.456694,-10.9024 59.662226,-6.69982 68.531656,-13.49915 9.80376,-7.51558 24.96949,-66.47387 37.26969,-67.61522 11.12796,-1.03257 24.80855,54.67179 34.0159,61.00601 10.17727,7.00149 70.9364,3.20584 75.82286,14.55133 4.42076,10.26424 -44.3297,40.48884 -47.50867,51.20294 -3.51386,11.84274 18.87162,68.45519 9.59141,76.60843 z"
         inkscape:transform-center-x="10.720373"
         inkscape:transform-center-y="2.0384002"
         transform="matrix(0.4051238,-0.09532883,0.09532883,0.4051238,311.93479,394.47064)" />
      <path
         inkscape:connector-curvature="0"
         id="path4969"
         d="m 390.21875,443.34375 c -4.61003,6.33922 -3.64809,15.17591 -5.6835,22.54552 -0.47214,4.64274 -1.95526,10.00606 -7.34775,10.79823 -6.93118,3.05385 -15.62549,3.38102 -21.34375,8.5 0.39754,1.5677 3.08591,4.97653 4.46875,2.625 7.63574,-5.05964 17.87801,-4.90446 25.1875,-10.1875 3.89207,-9.6888 2.03459,-21.23001 7.65625,-30.1875 3.04649,-0.8106 -1.49828,-3.88348 -2.9375,-4.09375 z"
         style="fill:#fee800;fill-opacity:1;stroke:none" />
      <path
         sodipodi:nodetypes="sssssssssss"
         inkscape:connector-curvature="0"
         id="path4877"
         d="m 233.04445,365.99537 c -8.39578,7.37622 -56.53736,-29.62202 -67.70942,-29.33457 -12.34896,0.31773 -67.275881,38.15073 -77.897825,31.84422 -9.609637,-5.70548 12.183817,-66.64363 8.458077,-77.18007 -4.118216,-11.64637 -59.835967,-44.26266 -57.120479,-56.31354 2.456694,-10.9024 66.463437,-11.57262 75.332867,-18.37195 9.80376,-7.51558 29.44641,-69.99973 41.74661,-71.14108 11.12796,-1.03257 31.49067,57.63012 40.69802,63.96434 10.17727,7.00149 71.10805,4.03782 75.99451,15.38331 4.42076,10.26424 -42.12449,46.97303 -45.30346,57.68713 -3.51386,11.84274 15.08131,75.30897 5.8011,83.46221 z"
         inkscape:transform-center-y="-2.3080498"
         inkscape:transform-center-x="5.2032072"
         style="fill:#000000;fill-opacity:1;stroke:none"
         transform="matrix(0.40760361,0.08409623,-0.08409623,0.40760361,456.15006,368.9919)" />
      <path
         transform="matrix(0.40760361,0.08409623,-0.08409623,0.40760361,456.15006,368.9919)"
         inkscape:transform-center-y="-2.3080498"
         inkscape:transform-center-x="5.2032072"
         d="m 228,358.36218 c -8.39578,7.37622 -52.20581,-29.6483 -63.37787,-29.36085 -12.34896,0.31773 -59.2731,39.10179 -69.895044,32.79528 -9.609637,-5.70548 12.064734,-58.8125 8.338994,-69.34894 -4.118216,-11.64637 -55.504414,-44.28895 -52.788926,-56.33983 2.456694,-10.9024 59.662226,-6.69982 68.531656,-13.49915 9.80376,-7.51558 24.96949,-66.47387 37.26969,-67.61522 11.12796,-1.03257 24.80855,54.67179 34.0159,61.00601 10.17727,7.00149 70.9364,3.20584 75.82286,14.55133 4.42076,10.26424 -44.3297,40.48884 -47.50867,51.20294 -3.51386,11.84274 18.87162,68.45519 9.59141,76.60843 z"
         inkscape:randomized="0"
         inkscape:rounded="0.16"
         inkscape:flatsided="false"
         sodipodi:arg2="1.4783461"
         sodipodi:arg1="0.9167136"
         sodipodi:r2="60.899212"
         sodipodi:r1="113.40635"
         sodipodi:cy="268.36218"
         sodipodi:cx="159"
         sodipodi:sides="5"
         id="path4871"
         style="fill:url(#radialGradient4873);fill-opacity:1;stroke:none"
         sodipodi:type="star" />
      <path
         transform="translate(4.9497475,2.8284271)"
         d="m 423.55696,464.40289 c 0,6.24839 -5.30276,11.31371 -11.84404,11.31371 -6.54128,0 -11.84404,-5.06532 -11.84404,-11.31371 0,-6.24839 5.30276,-11.31371 11.84404,-11.31371 6.54128,0 11.84404,5.06532 11.84404,11.31371 z"
         sodipodi:ry="11.313708"
         sodipodi:rx="11.844039"
         sodipodi:cy="464.40289"
         sodipodi:cx="411.71292"
         id="path4881"
         style="fill:#000000;fill-opacity:1;stroke:none"
         sodipodi:type="arc" />
      <path
         transform="matrix(0.8358209,0,0,0.875,72.72118,60.87879)"
         sodipodi:type="arc"
         style="fill:#ffffff;fill-opacity:1;stroke:none"
         id="path4883"
         sodipodi:cx="411.71292"
         sodipodi:cy="464.40289"
         sodipodi:rx="11.844039"
         sodipodi:ry="11.313708"
         d="m 423.55696,464.40289 c 0,6.24839 -5.30276,11.31371 -11.84404,11.31371 -6.54128,0 -11.84404,-5.06532 -11.84404,-11.31371 0,-6.24839 5.30276,-11.31371 11.84404,-11.31371 6.54128,0 11.84404,5.06532 11.84404,11.31371 z" />
      <path
         d="m 423.55696,464.40289 c 0,6.24839 -5.30276,11.31371 -11.84404,11.31371 -6.54128,0 -11.84404,-5.06532 -11.84404,-11.31371 0,-6.24839 5.30276,-11.31371 11.84404,-11.31371 6.54128,0 11.84404,5.06532 11.84404,11.31371 z"
         sodipodi:ry="11.313708"
         sodipodi:rx="11.844039"
         sodipodi:cy="464.40289"
         sodipodi:cx="411.71292"
         id="path4885"
         style="fill:#000000;fill-opacity:1;stroke:none"
         sodipodi:type="arc"
         transform="matrix(0.58208956,0,0,0.60937501,180.19086,184.05903)" />
      <path
         transform="matrix(0.37313434,0,0,0.39062502,261.62423,281.75808)"
         sodipodi:type="arc"
         style="fill:#ffffff;fill-opacity:1;stroke:none"
         id="path4887"
         sodipodi:cx="411.71292"
         sodipodi:cy="464.40289"
         sodipodi:rx="11.844039"
         sodipodi:ry="11.313708"
         d="m 423.55696,464.40289 c 0,6.24839 -5.30276,11.31371 -11.84404,11.31371 -6.54128,0 -11.84404,-5.06532 -11.84404,-11.31371 0,-6.24839 5.30276,-11.31371 11.84404,-11.31371 6.54128,0 11.84404,5.06532 11.84404,11.31371 z" />
      <path
         transform="translate(-13.788583,9.8994949)"
         sodipodi:type="arc"
         style="fill:#000000;fill-opacity:1;stroke:none"
         id="path4889"
         sodipodi:cx="411.71292"
         sodipodi:cy="464.40289"
         sodipodi:rx="11.844039"
         sodipodi:ry="11.313708"
         d="m 423.55696,464.40289 c 0,6.24839 -5.30276,11.31371 -11.84404,11.31371 -6.54128,0 -11.84404,-5.06532 -11.84404,-11.31371 0,-6.24839 5.30276,-11.31371 11.84404,-11.31371 6.54128,0 11.84404,5.06532 11.84404,11.31371 z" />
      <path
         d="m 423.55696,464.40289 c 0,6.24839 -5.30276,11.31371 -11.84404,11.31371 -6.54128,0 -11.84404,-5.06532 -11.84404,-11.31371 0,-6.24839 5.30276,-11.31371 11.84404,-11.31371 6.54128,0 11.84404,5.06532 11.84404,11.31371 z"
         sodipodi:ry="11.313708"
         sodipodi:rx="11.844039"
         sodipodi:cy="464.40289"
         sodipodi:cx="411.71292"
         id="path4891"
         style="fill:#ffffff;fill-opacity:1;stroke:none"
         sodipodi:type="arc"
         transform="matrix(0.8358209,0,0,0.875,53.98285,67.949858)" />
      <path
         transform="matrix(0.58208956,0,0,0.60937501,161.45253,191.1301)"
         sodipodi:type="arc"
         style="fill:#000000;fill-opacity:1;stroke:none"
         id="path4893"
         sodipodi:cx="411.71292"
         sodipodi:cy="464.40289"
         sodipodi:rx="11.844039"
         sodipodi:ry="11.313708"
         d="m 423.55696,464.40289 c 0,6.24839 -5.30276,11.31371 -11.84404,11.31371 -6.54128,0 -11.84404,-5.06532 -11.84404,-11.31371 0,-6.24839 5.30276,-11.31371 11.84404,-11.31371 6.54128,0 11.84404,5.06532 11.84404,11.31371 z" />
      <path
         d="m 423.55696,464.40289 c 0,6.24839 -5.30276,11.31371 -11.84404,11.31371 -6.54128,0 -11.84404,-5.06532 -11.84404,-11.31371 0,-6.24839 5.30276,-11.31371 11.84404,-11.31371 6.54128,0 11.84404,5.06532 11.84404,11.31371 z"
         sodipodi:ry="11.313708"
         sodipodi:rx="11.844039"
         sodipodi:cy="464.40289"
         sodipodi:cx="411.71292"
         id="path4895"
         style="fill:#ffffff;fill-opacity:1;stroke:none"
         sodipodi:type="arc"
         transform="matrix(0.37313434,0,0,0.39062502,242.8859,288.82915)" />
      <path
         inkscape:connector-curvature="0"
         id="path4974"
         d="m 506.21875,446.3125 c -8.89449,5.99836 -11.57389,18.0303 -20.1875,24.40625 -9.27003,1.77471 -19.20563,-3.52519 -28.21875,-1 -0.71795,2.32908 2.37101,6.83192 3.3125,6.84375 3.40353,-4.08596 10.15409,-1.18418 14.71875,-1.3125 5.71408,-0.17161 14.30312,4.57096 17.9375,-2.125 5.29443,-6.61858 9.02473,-14.9134 15.6875,-20.5 -0.75305,-1.79211 -0.89925,-5.99528 -3.25,-6.3125 z"
         style="fill:#fee800;fill-opacity:1;stroke:none" />
      <path
         id="path4897"
         d="m 460.3125,455.09375 6.25,5.5625 -1.53125,0.90625 -4.40625,-1.8125 3.65625,3.65625 -2.09375,1 -3.71875,-0.28125 4.96875,2.15625 c -0.18491,0.80414 -0.23198,1.61631 -0.125,2.4375 0.75674,5.80878 8.89345,9.52328 18.1875,8.3125 9.29405,-1.21078 16.22549,-6.87872 15.46875,-12.6875 -0.75674,-5.80878 -8.9247,-9.55453 -18.21875,-8.34375 -4.03827,0.52609 -7.60542,1.92148 -10.3125,3.78125 l -8.125,-4.6875 z"
         style="fill:#000000;fill-opacity:1;stroke:none"
         inkscape:connector-curvature="0" />
      <path
         sodipodi:type="arc"
         style="fill:#ffffff;fill-opacity:1;stroke:none"
         id="path4899"
         sodipodi:cx="462.80139"
         sodipodi:cy="444.42712"
         sodipodi:rx="16.970562"
         sodipodi:ry="8.6620579"
         d="m 479.77195,444.42712 c 0,4.78393 -7.59798,8.66206 -16.97056,8.66206 -9.37258,0 -16.97056,-3.87813 -16.97056,-8.66206 0,-4.78392 7.59798,-8.66205 16.97056,-8.66205 9.37258,0 16.97056,3.87813 16.97056,8.66205 z"
         transform="matrix(0.83589438,-0.11005734,0.13334245,1.0344567,33.834645,57.895054)" />
      <path
         transform="matrix(0.30946784,0.30886147,-0.57624757,0.72202979,590.8821,3.5769427)"
         d="m 479.77195,444.42712 c 0,4.78393 -7.59798,8.66206 -16.97056,8.66206 -9.37258,0 -16.97056,-3.87813 -16.97056,-8.66206 0,-4.78392 7.59798,-8.66205 16.97056,-8.66205 9.37258,0 16.97056,3.87813 16.97056,8.66205 z"
         sodipodi:ry="8.6620579"
         sodipodi:rx="16.970562"
         sodipodi:cy="444.42712"
         sodipodi:cx="462.80139"
         id="path4901"
         style="fill:#000000;fill-opacity:1;stroke:none"
         sodipodi:type="arc" />
      <path
         sodipodi:type="arc"
         style="fill:#ffffff;fill-opacity:1;stroke:none"
         id="path4903"
         sodipodi:cx="462.80139"
         sodipodi:cy="444.42712"
         sodipodi:rx="16.970562"
         sodipodi:ry="8.6620579"
         d="m 479.77195,444.42712 c 0,4.78393 -7.59798,8.66206 -16.97056,8.66206 -9.37258,0 -16.97056,-3.87813 -16.97056,-8.66206 0,-4.78392 7.59798,-8.66205 16.97056,-8.66205 9.37258,0 16.97056,3.87813 16.97056,8.66205 z"
         transform="matrix(0.16600919,0.16568392,-0.30911902,0.38732161,534.48992,214.81021)" />
      <path
         id="path4905"
         d="m 500.5625,458.78125 c -5.58389,0.17865 -10.04661,2.49082 -11.21875,6.34375 -1.70494,5.60426 4.18943,12.36585 13.15625,15.09375 8.96682,2.7279 17.60756,0.38551 19.3125,-5.21875 0.46866,-1.54052 0.36617,-3.17442 -0.21875,-4.78125 l 2.90625,-0.875 -3.34375,-0.125 c -0.34378,-0.70086 -0.79859,-1.38746 -1.3125,-2.0625 l 3.0625,-2.40625 -4.125,1.125 c -0.42048,-0.44397 -0.88594,-0.86207 -1.375,-1.28125 l 6.375,-4.4375 -7.78125,3.3125 c -2.05622,-1.47002 -4.55731,-2.7148 -7.34375,-3.5625 -2.80213,-0.85247 -5.55562,-1.20621 -8.09375,-1.125 z"
         style="fill:#000000;fill-opacity:1;stroke:none"
         inkscape:connector-curvature="0" />
      <path
         transform="matrix(0.80694263,0.24428595,-0.30491909,0.99744936,267.40756,-86.201497)"
         d="m 479.77195,444.42712 c 0,4.78393 -7.59798,8.66206 -16.97056,8.66206 -9.37258,0 -16.97056,-3.87813 -16.97056,-8.66206 0,-4.78392 7.59798,-8.66205 16.97056,-8.66205 9.37258,0 16.97056,3.87813 16.97056,8.66205 z"
         sodipodi:ry="8.6620579"
         sodipodi:rx="16.970562"
         sodipodi:cy="444.42712"
         sodipodi:cx="462.80139"
         id="path4907"
         style="fill:#ffffff;fill-opacity:1;stroke:none"
         sodipodi:type="arc" />
      <path
         sodipodi:type="arc"
         style="fill:#000000;fill-opacity:1;stroke:none"
         id="path4909"
         sodipodi:cx="462.80139"
         sodipodi:cy="444.42712"
         sodipodi:rx="16.970562"
         sodipodi:ry="8.6620579"
         d="m 479.77195,444.42712 c 0,4.78393 -7.59798,8.66206 -16.97056,8.66206 -9.37258,0 -16.97056,-3.87813 -16.97056,-8.66206 0,-4.78392 7.59798,-8.66205 16.97056,-8.66205 9.37258,0 16.97056,3.87813 16.97056,8.66205 z"
         transform="matrix(0.40063967,0.17508171,-0.27401811,0.88221447,439.64878,-3.1174725)" />
      <path
         transform="matrix(0.0829542,0.2193828,-0.44129104,0.22546577,657.45542,263.13432)"
         d="m 479.77195,444.42712 c 0,4.78393 -7.59798,8.66206 -16.97056,8.66206 -9.37258,0 -16.97056,-3.87813 -16.97056,-8.66206 0,-4.78392 7.59798,-8.66205 16.97056,-8.66205 9.37258,0 16.97056,3.87813 16.97056,8.66205 z"
         sodipodi:ry="8.6620579"
         sodipodi:rx="16.970562"
         sodipodi:cy="444.42712"
         sodipodi:cx="462.80139"
         id="path4911"
         style="fill:#ffffff;fill-opacity:1;stroke:none"
         sodipodi:type="arc" />
      <g
         transform="matrix(1.1095799,0,0,1.1095799,-38.898327,-69.873809)"
         id="g4939">
        <path
           sodipodi:nodetypes="cscsc"
           inkscape:connector-curvature="0"
           id="path4923"
           d="m 423.73374,514.25391 c 0,0 7.95495,-5.48007 11.49048,-0.53033 7.94035,11.11647 -11.3137,28.1075 -11.3137,28.1075 0,0 -20.50611,-18.38478 -12.1976,-26.69328 4.80234,-4.80235 12.02082,-0.88389 12.02082,-0.88389 z"
           style="fill:#000000;stroke:none" />
        <path
           style="fill:url(#radialGradient4943);fill-opacity:1;stroke:none"
           d="m 423.73374,517.08234 c 0,0 6.36396,-6.18718 9.89949,-1.23744 7.94035,11.11647 -10.42982,22.09709 -10.42982,22.09709 0,0 -18.20801,-12.9047 -9.8995,-21.2132 4.80234,-4.80235 10.42983,0.35355 10.42983,0.35355 z"
           id="path4919"
           inkscape:connector-curvature="0"
           sodipodi:nodetypes="cscsc" />
      </g>
      <g
         transform="matrix(1.2162858,0,0,1.2162858,-89.769635,-121.23158)"
         id="g4933">
        <path
           style="fill:#000000;stroke:none"
           d="m 461.00538,508.14964 c 0,0 10.78506,-6.67494 15.2054,-0.48646 9.92752,13.89851 -16.222,32.04659 -16.222,32.04659 0,0 -25.0629,-20.20014 -14.67508,-30.58795 6.00419,-6.0042 15.69168,-0.97218 15.69168,-0.97218 z"
           id="path4925"
           inkscape:connector-curvature="0"
           sodipodi:nodetypes="cscsc" />
        <path
           sodipodi:nodetypes="cscsc"
           inkscape:connector-curvature="0"
           id="path4921"
           d="m 461.00538,510.80129 c 0,0 7.95663,-7.7356 12.37697,-1.54712 9.92752,13.89851 -13.04002,27.62717 -13.04002,27.62717 0,0 -22.7648,-16.13427 -12.37698,-26.52208 6.00419,-6.0042 13.04003,0.44203 13.04003,0.44203 z"
           style="fill:url(#radialGradient4937);stroke:none" />
      </g>
      <g
         id="g4945"
         transform="matrix(0.32545594,-0.14998187,0.14998187,0.32545594,198.67308,333.0732)">
        <path
           sodipodi:nodetypes="cscsc"
           inkscape:connector-curvature="0"
           id="path4947"
           d="m 460.72873,506.39265 c 0,0 12.97252,-7.29638 17.39286,-1.1079 9.92752,13.89851 -18.06263,36.63003 -18.06263,36.63003 0,0 -26.27068,-23.47256 -15.88286,-33.86037 6.00419,-6.0042 16.55263,-1.66176 16.55263,-1.66176 z"
           style="fill:#000000;stroke:none" />
        <path
           style="fill:url(#radialGradient4951);stroke:none"
           d="m 461.00538,510.80129 c 0,0 7.95663,-7.7356 12.37697,-1.54712 9.92752,13.89851 -13.04002,27.62717 -13.04002,27.62717 0,0 -22.7648,-16.13427 -12.37698,-26.52208 6.00419,-6.0042 13.04003,0.44203 13.04003,0.44203 z"
           id="path4949"
           inkscape:connector-curvature="0"
           sodipodi:nodetypes="cscsc" />
      </g>
      <g
         transform="matrix(0.495333,0,0,0.495333,216.96248,165.87369)"
         id="g4953">
        <path
           style="fill:#000000;stroke:none"
           d="m 461.00538,508.14964 c 0,0 12.2126,-7.92404 16.63294,-1.73556 9.92752,13.89851 -17.82798,35.79388 -17.82798,35.79388 0,0 -26.49044,-23.94743 -16.10262,-34.33524 6.00419,-6.0042 17.29766,0.27692 17.29766,0.27692 z"
           id="path4955"
           inkscape:connector-curvature="0"
           sodipodi:nodetypes="cscsc" />
        <path
           sodipodi:nodetypes="cscsc"
           inkscape:connector-curvature="0"
           id="path4957"
           d="m 461.00538,510.80129 c 0,0 7.95663,-7.7356 12.37697,-1.54712 9.92752,13.89851 -13.04002,27.62717 -13.04002,27.62717 0,0 -22.7648,-16.13427 -12.37698,-26.52208 6.00419,-6.0042 13.04003,0.44203 13.04003,0.44203 z"
           style="fill:url(#radialGradient4959);stroke:none" />
      </g>
      <g
         id="g4961"
         transform="matrix(0.33901135,0.11613543,-0.11613543,0.33901135,365.94122,200.91167)">
        <path
           sodipodi:nodetypes="cscsc"
           inkscape:connector-curvature="0"
           id="path4963"
           d="m 461.00538,508.14964 c 0,0 12.87866,-8.17432 17.299,-1.98584 9.92752,13.89851 -17.35637,36.34605 -17.35637,36.34605 0,0 -29.07495,-24.30093 -18.68713,-34.68874 6.00419,-6.0042 18.7445,0.32853 18.7445,0.32853 z"
           style="fill:#000000;stroke:none" />
        <path
           style="fill:url(#radialGradient4967);stroke:none"
           d="m 461.00538,510.80129 c 0,0 7.95663,-7.7356 12.37697,-1.54712 9.92752,13.89851 -13.04002,27.62717 -13.04002,27.62717 0,0 -22.7648,-16.13427 -12.37698,-26.52208 6.00419,-6.0042 13.04003,0.44203 13.04003,0.44203 z"
           id="path4965"
           inkscape:connector-curvature="0"
           sodipodi:nodetypes="cscsc" />
      </g>
    </g>
  </g>
</svg>
