<?xml version="1.0" encoding="UTF-8" standalone="no"?>
<!-- Created with Inkscape (http://www.inkscape.org/) -->

<svg
   xmlns:dc="http://purl.org/dc/elements/1.1/"
   xmlns:cc="http://creativecommons.org/ns#"
   xmlns:rdf="http://www.w3.org/1999/02/22-rdf-syntax-ns#"
   xmlns:svg="http://www.w3.org/2000/svg"
   xmlns="http://www.w3.org/2000/svg"
   xmlns:xlink="http://www.w3.org/1999/xlink"
   xmlns:sodipodi="http://sodipodi.sourceforge.net/DTD/sodipodi-0.dtd"
   xmlns:inkscape="http://www.inkscape.org/namespaces/inkscape"
   width="256"
   height="256"
   id="svg2"
   version="1.1"
   inkscape:version="0.48.4 r9939"
   sodipodi:docname="starry09.svg"
   inkscape:export-filename="starry.png"
   inkscape:export-xdpi="60.476192"
   inkscape:export-ydpi="60.476192">
  <defs
     id="defs4">
    <linearGradient
       id="linearGradient4625">
      <stop
         style="stop-color:#9c4a13;stop-opacity:1;"
         offset="0"
         id="stop4627" />
      <stop
         style="stop-color:#552200;stop-opacity:1;"
         offset="1"
         id="stop4629" />
    </linearGradient>
    <linearGradient
       inkscape:collect="always"
       id="linearGradient4578">
      <stop
         style="stop-color:#ff0000;stop-opacity:1;"
         offset="0"
         id="stop4580" />
      <stop
         style="stop-color:#ff0000;stop-opacity:0;"
         offset="1"
         id="stop4582" />
    </linearGradient>
    <linearGradient
       id="linearGradient4270">
      <stop
         style="stop-color:#27a027;stop-opacity:1;"
         offset="0"
         id="stop4272" />
      <stop
         style="stop-color:#2beb2b;stop-opacity:1;"
         offset="1"
         id="stop4274" />
    </linearGradient>
    <linearGradient
       id="linearGradient5121">
      <stop
         style="stop-color:#e82ae8;stop-opacity:1;"
         offset="0"
         id="stop5123" />
      <stop
         style="stop-color:#ab378e;stop-opacity:1;"
         offset="1"
         id="stop5125" />
    </linearGradient>
    <linearGradient
       id="linearGradient4587">
      <stop
         style="stop-color:#ffdb00;stop-opacity:1;"
         offset="0"
         id="stop4589" />
      <stop
         style="stop-color:#ff6600;stop-opacity:1;"
         offset="1"
         id="stop4591" />
    </linearGradient>
    <linearGradient
       id="linearGradient4428">
      <stop
         style="stop-color:#404040;stop-opacity:1;"
         offset="0"
         id="stop4430" />
      <stop
         style="stop-color:#636363;stop-opacity:1;"
         offset="1"
         id="stop4432" />
    </linearGradient>
    <linearGradient
       id="linearGradient4414">
      <stop
         style="stop-color:#b9a165;stop-opacity:1;"
         offset="0"
         id="stop4416" />
      <stop
         style="stop-color:#978045;stop-opacity:1;"
         offset="1"
         id="stop4418" />
    </linearGradient>
    <linearGradient
       id="linearGradient3925">
      <stop
         style="stop-color:#ffffff;stop-opacity:1;"
         offset="0"
         id="stop3927" />
      <stop
         style="stop-color:#d5d5d5;stop-opacity:1;"
         offset="1"
         id="stop3929" />
    </linearGradient>
    <linearGradient
       id="linearGradient3861">
      <stop
         style="stop-color:#161688;stop-opacity:1;"
         offset="0"
         id="stop3863" />
      <stop
         style="stop-color:#1717ac;stop-opacity:1;"
         offset="1"
         id="stop3865" />
    </linearGradient>
    <linearGradient
       id="linearGradient3079">
      <stop
         style="stop-color:#d40000;stop-opacity:1;"
         offset="0"
         id="stop3081" />
      <stop
         style="stop-color:#ff0d00;stop-opacity:1;"
         offset="1"
         id="stop3083" />
    </linearGradient>
    <linearGradient
       id="linearGradient3071">
      <stop
         style="stop-color:#fff000;stop-opacity:1;"
         offset="0"
         id="stop3073" />
      <stop
         style="stop-color:#ffcc00;stop-opacity:1;"
         offset="1"
         id="stop3075" />
    </linearGradient>
    <radialGradient
       inkscape:collect="always"
       xlink:href="#linearGradient3071"
       id="radialGradient3907"
       cx="532.20038"
       cy="177.71259"
       fx="532.20038"
       fy="177.71259"
       r="69.003609"
       gradientTransform="matrix(0.9990308,0.04401675,-0.04928387,1.1185762,75.184005,-55.361323)"
       gradientUnits="userSpaceOnUse" />
    <radialGradient
       inkscape:collect="always"
       xlink:href="#linearGradient3925"
       id="radialGradient4145"
       gradientUnits="userSpaceOnUse"
       gradientTransform="matrix(-1.4510666,-1.4897576,3.2585121,-3.1738567,448.17659,1515.4599)"
       cx="456.21127"
       cy="216.91385"
       fx="456.21127"
       fy="216.91385"
       r="42" />
    <radialGradient
       inkscape:collect="always"
       xlink:href="#linearGradient3925"
       id="radialGradient4169"
       cx="607.24139"
       cy="228.16756"
       fx="607.24139"
       fy="228.16756"
       r="23.700668"
       gradientTransform="matrix(1.3027334,0,0,0.52251417,-179.27791,116.51455)"
       gradientUnits="userSpaceOnUse" />
    <radialGradient
       inkscape:collect="always"
       xlink:href="#linearGradient3861"
       id="radialGradient4171"
       cx="616.19501"
       cy="232.33742"
       fx="616.19501"
       fy="232.33742"
       r="23.115305"
       gradientTransform="matrix(1.2963054,-0.12925413,0.09862658,0.98913795,-198.23165,85.163814)"
       gradientUnits="userSpaceOnUse" />
    <radialGradient
       inkscape:collect="always"
       xlink:href="#linearGradient3861"
       id="radialGradient4193"
       gradientUnits="userSpaceOnUse"
       gradientTransform="matrix(1.2963054,-0.12925413,0.09862658,0.98913795,-198.23165,85.163814)"
       cx="616.19501"
       cy="232.33742"
       fx="616.19501"
       fy="232.33742"
       r="23.115305" />
    <radialGradient
       inkscape:collect="always"
       xlink:href="#linearGradient3925"
       id="radialGradient4195"
       gradientUnits="userSpaceOnUse"
       gradientTransform="matrix(1.3027334,0,0,0.52251417,-179.27791,116.51455)"
       cx="607.24139"
       cy="228.16756"
       fx="607.24139"
       fy="228.16756"
       r="23.700668" />
    <linearGradient
       inkscape:collect="always"
       xlink:href="#linearGradient3079"
       id="linearGradient4517"
       x1="581.16241"
       y1="157.24892"
       x2="587.12347"
       y2="172.24892"
       gradientUnits="userSpaceOnUse" />
    <radialGradient
       inkscape:collect="always"
       xlink:href="#linearGradient3071"
       id="radialGradient4859"
       gradientUnits="userSpaceOnUse"
       gradientTransform="matrix(0.63529918,0.45672657,-0.48853271,0.67954101,615.23982,99.714894)"
       cx="168.57047"
       cy="276.2543"
       fx="168.57047"
       fy="276.2543"
       r="108.0136" />
    <linearGradient
       inkscape:collect="always"
       xlink:href="#linearGradient4428"
       id="linearGradient4861"
       gradientUnits="userSpaceOnUse"
       x1="569.92804"
       y1="328.6384"
       x2="577.35266"
       y2="385.56049" />
    <linearGradient
       inkscape:collect="always"
       xlink:href="#linearGradient4587"
       id="linearGradient4863"
       gradientUnits="userSpaceOnUse"
       x1="635.54486"
       y1="388.39685"
       x2="655.91925"
       y2="388.39685" />
    <linearGradient
       inkscape:collect="always"
       xlink:href="#linearGradient4428"
       id="linearGradient4865"
       gradientUnits="userSpaceOnUse"
       x1="571.75"
       y1="259.36218"
       x2="587.25"
       y2="303.61218" />
    <radialGradient
       inkscape:collect="always"
       xlink:href="#linearGradient3071"
       id="radialGradient4869"
       gradientUnits="userSpaceOnUse"
       gradientTransform="matrix(0.99972463,0.02346618,-0.02510034,1.0693448,6.5378877,-21.653928)"
       cx="171.29147"
       cy="285.97275"
       fx="171.29147"
       fy="285.97275"
       r="108.0136" />
    <radialGradient
       inkscape:collect="always"
       xlink:href="#linearGradient3071"
       id="radialGradient4873"
       gradientUnits="userSpaceOnUse"
       gradientTransform="matrix(0.99972463,0.02346618,-0.02510034,1.0693448,6.5378877,-21.653928)"
       cx="177.93721"
       cy="289.21756"
       fx="177.93721"
       fy="289.21756"
       r="108.0136" />
    <radialGradient
       inkscape:collect="always"
       xlink:href="#linearGradient3079"
       id="radialGradient4937"
       gradientUnits="userSpaceOnUse"
       gradientTransform="matrix(1,0,0,0.98056266,0,10.143726)"
       cx="464.80362"
       cy="527.27637"
       fx="464.80362"
       fy="527.27637"
       r="15.310997" />
    <radialGradient
       inkscape:collect="always"
       xlink:href="#linearGradient3079"
       id="radialGradient4943"
       gradientUnits="userSpaceOnUse"
       gradientTransform="matrix(-0.62071292,-0.90941872,0.8098967,-0.55278437,261.36556,1204.4559)"
       cx="424.61761"
       cy="527.00262"
       fx="424.61761"
       fy="527.00262"
       r="12.246221" />
    <radialGradient
       inkscape:collect="always"
       xlink:href="#linearGradient3079"
       id="radialGradient4951"
       gradientUnits="userSpaceOnUse"
       gradientTransform="matrix(1,0,0,0.98056266,0,10.143726)"
       cx="464.80362"
       cy="527.27637"
       fx="464.80362"
       fy="527.27637"
       r="15.310997" />
    <radialGradient
       inkscape:collect="always"
       xlink:href="#linearGradient3079"
       id="radialGradient4959"
       gradientUnits="userSpaceOnUse"
       gradientTransform="matrix(1,0,0,0.98056266,0,10.143726)"
       cx="464.80362"
       cy="527.27637"
       fx="464.80362"
       fy="527.27637"
       r="15.310997" />
    <radialGradient
       inkscape:collect="always"
       xlink:href="#linearGradient3079"
       id="radialGradient4967"
       gradientUnits="userSpaceOnUse"
       gradientTransform="matrix(1,0,0,0.98056266,0,10.143726)"
       cx="464.80362"
       cy="527.27637"
       fx="464.80362"
       fy="527.27637"
       r="15.310997" />
    <radialGradient
       inkscape:collect="always"
       xlink:href="#linearGradient3925"
       id="radialGradient5356"
       gradientUnits="userSpaceOnUse"
       gradientTransform="matrix(1,0,0,0.3842483,0,554.47405)"
       cx="100.45855"
       cy="921.64594"
       fx="100.45855"
       fy="921.64594"
       r="58.505035" />
    <radialGradient
       inkscape:collect="always"
       xlink:href="#linearGradient3071"
       id="radialGradient5358"
       gradientUnits="userSpaceOnUse"
       gradientTransform="matrix(1,0,0,1.4289469,0,-325.73173)"
       cx="156.5768"
       cy="759.37549"
       fx="156.5768"
       fy="759.37549"
       r="89.576805" />
    <radialGradient
       inkscape:collect="always"
       xlink:href="#linearGradient3925"
       id="radialGradient5360"
       gradientUnits="userSpaceOnUse"
       gradientTransform="matrix(0.99997148,-0.00755275,0.00298362,0.3950256,-53.670014,510.55425)"
       cx="363.22302"
       cy="898.36456"
       fx="363.22302"
       fy="898.36456"
       r="118.49831" />
    <radialGradient
       inkscape:collect="always"
       xlink:href="#linearGradient3071"
       id="radialGradient5362"
       gradientUnits="userSpaceOnUse"
       gradientTransform="matrix(1,0,0,0.51509477,0,353.44058)"
       cx="96.124428"
       cy="728.13409"
       fx="96.124428"
       fy="728.13409"
       r="30.935921" />
    <radialGradient
       inkscape:collect="always"
       xlink:href="#linearGradient3071"
       id="radialGradient5364"
       gradientUnits="userSpaceOnUse"
       gradientTransform="matrix(1,0,0,0.51509477,0,353.44058)"
       cx="96.124428"
       cy="728.13409"
       fx="96.124428"
       fy="728.13409"
       r="30.935921" />
    <radialGradient
       inkscape:collect="always"
       xlink:href="#linearGradient3071"
       id="radialGradient5372"
       gradientUnits="userSpaceOnUse"
       gradientTransform="matrix(0.99972463,0.02346618,-0.02510034,1.0693448,6.5378877,-21.653928)"
       cx="168.57047"
       cy="276.2543"
       fx="168.57047"
       fy="276.2543"
       r="108.0136" />
    <radialGradient
       inkscape:collect="always"
       xlink:href="#linearGradient3071"
       id="radialGradient5376"
       gradientUnits="userSpaceOnUse"
       gradientTransform="matrix(0.99972463,0.02346618,-0.02510034,1.0693448,6.5378877,-21.653928)"
       cx="168.57047"
       cy="276.2543"
       fx="168.57047"
       fy="276.2543"
       r="108.0136" />
    <radialGradient
       inkscape:collect="always"
       xlink:href="#linearGradient3071"
       id="radialGradient3432"
       gradientUnits="userSpaceOnUse"
       gradientTransform="matrix(-1.0813686,-0.93579434,0.52925059,-0.61158221,1082.8355,1814.0518)"
       cx="704.85541"
       cy="715.05518"
       fx="704.85541"
       fy="715.05518"
       r="14.64128" />
    <linearGradient
       inkscape:collect="always"
       xlink:href="#linearGradient4414"
       id="linearGradient3434"
       gradientUnits="userSpaceOnUse"
       x1="695.5"
       y1="720.36218"
       x2="689.5"
       y2="722.36218" />
    <radialGradient
       inkscape:collect="always"
       xlink:href="#linearGradient3071"
       id="radialGradient3436"
       gradientUnits="userSpaceOnUse"
       gradientTransform="matrix(0.77988332,0.28301058,-0.20761566,0.57211992,297.80831,107.44621)"
       cx="687.0462"
       cy="708.41467"
       fx="687.0462"
       fy="708.41467"
       r="9.6825304" />
    <radialGradient
       inkscape:collect="always"
       xlink:href="#linearGradient3071"
       id="radialGradient3438"
       gradientUnits="userSpaceOnUse"
       gradientTransform="matrix(1,0,0,0.60143496,0,285.13141)"
       cx="687.36896"
       cy="715.90118"
       fx="687.36896"
       fy="715.90118"
       r="10.188534" />
    <radialGradient
       inkscape:collect="always"
       xlink:href="#linearGradient3071"
       id="radialGradient3440"
       gradientUnits="userSpaceOnUse"
       gradientTransform="matrix(1,0,0,0.74704605,1.25,183.46212)"
       cx="695.66272"
       cy="722.54816"
       fx="695.66272"
       fy="722.54816"
       r="9.6836624" />
    <radialGradient
       inkscape:collect="always"
       xlink:href="#linearGradient3925"
       id="radialGradient4307"
       gradientUnits="userSpaceOnUse"
       gradientTransform="matrix(-0.23219384,-1.4735394,0.83426306,-0.13145717,249.52404,1781.0735)"
       cx="674"
       cy="696.39258"
       fx="674"
       fy="696.39258"
       r="27.993826" />
    <radialGradient
       inkscape:collect="always"
       xlink:href="#linearGradient3925"
       id="radialGradient4315"
       gradientUnits="userSpaceOnUse"
       gradientTransform="matrix(-0.23219384,-1.4735394,0.83426306,-0.13145717,249.52404,1781.0735)"
       cx="674"
       cy="696.39258"
       fx="674"
       fy="696.39258"
       r="27.993826" />
    <linearGradient
       inkscape:collect="always"
       xlink:href="#linearGradient3079"
       id="linearGradient4390"
       gradientUnits="userSpaceOnUse"
       gradientTransform="matrix(-0.29220685,0.95635514,0.95635514,0.29220685,130.71656,-99.810488)"
       x1="721.07214"
       y1="830.50745"
       x2="727.78967"
       y2="830.15387" />
    <linearGradient
       inkscape:collect="always"
       xlink:href="#linearGradient4428"
       id="linearGradient4392"
       gradientUnits="userSpaceOnUse"
       x1="694.02533"
       y1="802.22314"
       x2="695.79309"
       y2="800.80896" />
    <radialGradient
       inkscape:collect="always"
       xlink:href="#linearGradient3071"
       id="radialGradient4394"
       gradientUnits="userSpaceOnUse"
       gradientTransform="matrix(-1.4602942,-0.74886865,0.38408437,-0.74896904,1427.2918,1940.8054)"
       cx="706.2229"
       cy="807.69836"
       fx="706.2229"
       fy="807.69836"
       r="18.884663" />
    <linearGradient
       inkscape:collect="always"
       xlink:href="#linearGradient4428"
       id="linearGradient4396"
       gradientUnits="userSpaceOnUse"
       x1="660.79126"
       y1="759.97351"
       x2="664.15002"
       y2="757.3219" />
    <linearGradient
       inkscape:collect="always"
       xlink:href="#linearGradient3079"
       id="linearGradient4398"
       gradientUnits="userSpaceOnUse"
       gradientTransform="translate(-1.5026019,-0.88388348)"
       x1="721.07214"
       y1="830.50745"
       x2="727.78967"
       y2="830.15387" />
    <linearGradient
       inkscape:collect="always"
       xlink:href="#linearGradient4270"
       id="linearGradient4400"
       gradientUnits="userSpaceOnUse"
       x1="608.11182"
       y1="810.1781"
       x2="628.44116"
       y2="815.30463" />
    <linearGradient
       inkscape:collect="always"
       xlink:href="#linearGradient4270"
       id="linearGradient4402"
       gradientUnits="userSpaceOnUse"
       x1="607.84869"
       y1="801.11218"
       x2="616.06677"
       y2="800.58185" />
    <radialGradient
       inkscape:collect="always"
       xlink:href="#linearGradient3071"
       id="radialGradient4672"
       gradientUnits="userSpaceOnUse"
       gradientTransform="matrix(0.99972463,0.02346618,-0.02510034,1.0693448,6.5378877,-21.653928)"
       cx="168.57047"
       cy="276.2543"
       fx="168.57047"
       fy="276.2543"
       r="108.0136" />
    <radialGradient
       inkscape:collect="always"
       xlink:href="#linearGradient5121"
       id="radialGradient4674"
       gradientUnits="userSpaceOnUse"
       gradientTransform="matrix(0.9936117,-0.11285295,0.10284403,0.90548835,-98.727355,145.98046)"
       cx="525.01648"
       cy="992.5838"
       fx="525.01648"
       fy="992.5838"
       r="24.064341" />
    <radialGradient
       inkscape:collect="always"
       xlink:href="#linearGradient3925"
       id="radialGradient4676"
       gradientUnits="userSpaceOnUse"
       gradientTransform="matrix(0.9998694,-0.01712233,0.01892778,1.2406375,-18.562963,-227.85102)"
       cx="527"
       cy="984.36218"
       fx="527"
       fy="984.36218"
       r="16.25" />
    <radialGradient
       inkscape:collect="always"
       xlink:href="#linearGradient5121"
       id="radialGradient4678"
       gradientUnits="userSpaceOnUse"
       gradientTransform="matrix(-0.08420794,-1.0028458,0.92765779,-0.07789476,-352.66756,1607.5865)"
       cx="531.0293"
       cy="998.89685"
       fx="531.0293"
       fy="998.89685"
       r="16.328541" />
    <radialGradient
       inkscape:collect="always"
       xlink:href="#linearGradient4578"
       id="radialGradient4680"
       gradientUnits="userSpaceOnUse"
       gradientTransform="matrix(0.83554772,-0.1343511,0.13190248,0.82031519,-37.699881,247.47871)"
       cx="547.25"
       cy="968.11218"
       fx="547.25"
       fy="968.11218"
       r="12" />
    <radialGradient
       inkscape:collect="always"
       xlink:href="#linearGradient4625"
       id="radialGradient4682"
       gradientUnits="userSpaceOnUse"
       gradientTransform="matrix(-0.97131477,-1.3740557,0.97629344,-0.69013812,167.01088,2231.1788)"
       cx="526.5"
       cy="892.03339"
       fx="526.5"
       fy="892.03339"
       r="10.552705" />
    <radialGradient
       inkscape:collect="always"
       xlink:href="#linearGradient4578"
       id="radialGradient4684"
       gradientUnits="userSpaceOnUse"
       gradientTransform="matrix(0.83554772,-0.1343511,0.13190248,0.82031519,-37.699881,247.47871)"
       cx="547.25"
       cy="968.11218"
       fx="547.25"
       fy="968.11218"
       r="12" />
    <radialGradient
       inkscape:collect="always"
       xlink:href="#linearGradient3079"
       id="radialGradient4805"
       cx="485.96579"
       cy="1008.5775"
       fx="485.96579"
       fy="1008.5775"
       r="17.127888"
       gradientTransform="matrix(0.9953549,-0.0962737,0.07733574,0.79955901,-71.596485,-66.04087)"
       gradientUnits="userSpaceOnUse" />
    <radialGradient
       inkscape:collect="always"
       xlink:href="#linearGradient3079"
       id="radialGradient4817"
       cx="458.18658"
       cy="695.87952"
       fx="458.18658"
       fy="695.87952"
       r="29.143797"
       gradientTransform="matrix(0.9953549,-0.0962737,0.10361651,1.0712708,-65.96894,300.40891)"
       gradientUnits="userSpaceOnUse" />
    <radialGradient
       inkscape:collect="always"
       xlink:href="#linearGradient3079"
       id="radialGradient4819"
       cx="534.16193"
       cy="703.67053"
       fx="534.16193"
       fy="703.67053"
       r="30.919119"
       gradientTransform="matrix(0.9953549,-0.0962737,0.09309474,0.96248821,-58.677827,375.7903)"
       gradientUnits="userSpaceOnUse" />
    <radialGradient
       inkscape:collect="always"
       xlink:href="#linearGradient3079"
       id="radialGradient4940"
       cx="87.858017"
       cy="656.55493"
       fx="87.858017"
       fy="656.55493"
       r="12.50704"
       gradientTransform="matrix(-0.40282415,-0.86925173,0.50294881,-0.23307438,-206.96417,883.42362)"
       gradientUnits="userSpaceOnUse" />
  </defs>
  <sodipodi:namedview
     id="base"
     pagecolor="#ffffff"
     bordercolor="#666666"
     borderopacity="1.0"
     inkscape:pageopacity="0.0"
     inkscape:pageshadow="2"
     inkscape:zoom="0.5"
     inkscape:cx="526.18109"
     inkscape:cy="93.52451"
     inkscape:document-units="px"
     inkscape:current-layer="layer1"
     showgrid="false"
     inkscape:window-width="1600"
     inkscape:window-height="829"
     inkscape:window-x="0"
     inkscape:window-y="24"
     inkscape:window-maximized="1"
     showguides="true"
     inkscape:guide-bbox="true" />
  <metadata
     id="metadata7">
    <rdf:RDF>
      <cc:Work
         rdf:about="">
        <dc:format>image/svg+xml</dc:format>
        <dc:type
           rdf:resource="http://purl.org/dc/dcmitype/StillImage" />
        <dc:title></dc:title>
      </cc:Work>
    </rdf:RDF>
  </metadata>
  <g
     inkscape:label="Layer 1"
     inkscape:groupmode="layer"
     id="layer1"
     transform="translate(0,-796.36218)">
    <g
       id="g4883"
       transform="translate(-356,-26)">
      <path
         sodipodi:nodetypes="csssssc"
         inkscape:connector-curvature="0"
         id="path4811"
         d="m 472.27643,987.20256 c 0,0 -13.70553,-11.86061 -28.2624,-14.34571 -14.55686,-2.4851 -25.40502,-9.47317 -23.31863,3.00895 2.08639,12.48211 14.35577,10.79305 5.49714,26.9711 -8.85864,16.178 -11.60888,35.7838 6.05906,26.2888 17.66794,-9.4951 31.166,-21.852 36.78894,-22.1447 5.62294,-0.2927 7.70683,-17.69922 3.23589,-19.77844 z"
         style="fill:#000000;stroke:none" />
      <path
         style="fill:url(#radialGradient4817);stroke:none"
         d="m 469.55124,987.59173 c 0,0 -11.2975,-10.33535 -25.85437,-12.82045 -14.55687,-2.4851 -22.05774,-9.92252 -19.97135,2.5596 2.08639,12.48212 13.17583,10.27926 4.3172,26.45732 -8.85864,16.178 -10.78589,31.3088 6.88205,21.8138 17.66795,-9.4951 25.91225,-20.3392 31.53518,-20.6319 2.07108,-0.1078 3.64249,-2.2118 4.57777,-4.9306 0.58574,-2.745 -24.24116,-4.16804 -24.19745,-4.06403 0.13072,-0.72535 24.87607,-0.46542 24.93028,1.82193 1.10607,-4.46272 0.32559,-9.02216 -2.21931,-10.20567 z"
         id="path4815"
         inkscape:connector-curvature="0"
         sodipodi:nodetypes="cssssscccc" />
      <path
         sodipodi:nodetypes="sssssssssss"
         inkscape:connector-curvature="0"
         id="path4686"
         d="m 530.00526,1024.4489 c -7.10882,5.0921 -40.42734,-27.83486 -49.148,-28.47741 -9.63933,-0.71022 -52.86768,26.20601 -60.6487,20.47221 -7.03948,-5.1873 13.96854,-48.32612 11.88479,-56.81852 -2.30324,-9.38702 -39.45034,-41.0818 -36.40161,-50.25383 2.75816,-8.29792 48.90815,-3.9463 56.34099,-8.55236 8.21583,-5.09127 26.0444,-51.46867 35.70963,-51.40347 8.7441,0.059 17.78689,47.54576 24.46439,53.19146 7.38091,6.24043 54.8664,9.91893 57.79113,19.13124 2.64597,8.33437 -36.06195,30.49626 -39.36788,38.59157 -3.65418,8.94806 7.23291,58.49081 -0.62474,64.11911 z"
         inkscape:transform-center-y="-6.5547205"
         inkscape:transform-center-x="13.085717"
         style="fill:#000000;fill-opacity:1;stroke:none" />
      <path
         sodipodi:type="star"
         style="fill:url(#radialGradient5372);fill-opacity:1;stroke:none"
         id="path5370"
         sodipodi:sides="5"
         sodipodi:cx="159"
         sodipodi:cy="268.36218"
         sodipodi:r1="113.40635"
         sodipodi:r2="60.899212"
         sodipodi:arg1="0.9167136"
         sodipodi:arg2="1.4783461"
         inkscape:flatsided="false"
         inkscape:rounded="0.16"
         inkscape:randomized="0"
         d="m 228,358.36218 c -8.39578,7.37622 -52.20581,-29.6483 -63.37787,-29.36085 -12.34896,0.31773 -59.2731,39.10179 -69.895044,32.79528 -9.609637,-5.70548 12.064734,-58.8125 8.338994,-69.34894 -4.118216,-11.64637 -55.504414,-44.28895 -52.788926,-56.33983 2.456694,-10.9024 59.662226,-6.69982 68.531656,-13.49915 9.80376,-7.51558 24.96949,-66.47387 37.26969,-67.61522 11.12796,-1.03257 24.80855,54.67179 34.0159,61.00601 10.17727,7.00149 70.9364,3.20584 75.82286,14.55133 4.42076,10.26424 -44.3297,40.48884 -47.50867,51.20294 -3.51386,11.84274 18.87162,68.45519 9.59141,76.60843 z"
         inkscape:transform-center-x="12.509298"
         inkscape:transform-center-y="-5.5334426"
         transform="matrix(0.77858264,0.0775454,-0.0775454,0.77858264,378.42756,723.20682)" />
      <path
         inkscape:connector-curvature="0"
         id="path4689"
         d="m 488.53455,857.11243 c -5.7692,0.25784 -8.30058,7.71419 -11.48374,11.77419 -7.90911,12.13725 -12.5047,26.76851 -22.40906,37.40007 -9.26166,4.03425 -20.1237,1.13106 -29.96156,1.65396 -7.97181,0.36568 -16.94418,-1.53452 -24.07009,2.63598 -1.79329,2.88544 1.73097,7.3012 3.12704,8.58704 5.51884,-5.27372 14.42704,-3.34218 21.45911,-3.92601 10.92287,-0.41394 22.40096,2.15807 33.00149,-0.9823 9.09173,-9.47173 13.3345,-22.74219 20.30486,-33.81572 4.00691,-5.69083 7.02996,-14.55154 14.54057,-16.07165 0.93082,-0.87302 -1.91562,-4.62345 -2.99388,-6.12903 -0.42878,-0.45577 -0.91771,-0.918 -1.51474,-1.12653 z m 74.50156,63.40674 c -16.20474,-6.71701 -34.54285,-6.28439 -51.05652,-11.99672 1.03427,5.54406 5.81349,8.49831 11.05025,9.15815 14.0463,3.44146 28.87447,4.53342 42.66284,8.98944 2.41606,-2.69362 0.0452,-5.0339 -2.65657,-6.15087 z m -126.22976,42.69134 c -2.99555,15.69377 -12.47342,30.14696 -13.02715,46.27679 0.36808,3.5812 5.29252,3.0964 4.43401,-0.8691 3.17806,-13.46396 10.76107,-26.05283 11.91499,-39.84708 -0.50811,-2.08824 -2.09633,-4.13676 -3.32185,-5.56061 z"
         style="fill:#fee800;fill-opacity:1;stroke:none" />
      <path
         sodipodi:nodetypes="csssssc"
         inkscape:connector-curvature="0"
         id="path4801"
         d="m 473.12969,984.40346 c 0,0 6.96198,1.60497 16.47171,-0.67471 13.0694,-3.133 12.87307,-0.74278 11.51043,7.20348 -1.36263,7.94637 -0.25036,12.10117 -1.63549,16.14237 -1.38514,4.0412 -2.10926,2.3783 -14.88017,2.548 -12.77091,0.1696 -17.91565,-0.086 -13.8854,-6.1593 4.03023,-6.0731 -4.18834,-10.25109 2.41892,-19.05984 z"
         style="fill:#000000;stroke:none" />
      <path
         sodipodi:nodetypes="sscsssssssscs"
         inkscape:connector-curvature="0"
         id="path4803"
         transform="translate(0,308.2677)"
         d="m 497.96875,675.40625 c -1.55838,0.0845 -4.13456,0.64594 -8.21875,1.625 -9.50973,2.27968 -15.59375,0.59375 -15.59375,0.59375 -6.60726,8.80875 2.87398,11.27065 -1.15625,17.34375 -4.03025,6.0731 -0.83341,4.57585 11.9375,4.40625 12.77091,-0.1697 11.52111,3.1037 12.90625,-0.9375 1.38513,-4.0412 -0.20639,-7.61616 1.15625,-15.5625 0.93681,-5.46306 2.39719,-7.65471 -1.03125,-7.46875 z m -6.46875,4.625 c 1.30925,-0.0249 2.0723,0.36389 1.71875,1.46875 -1.41421,4.41942 -11.79346,17.51976 -10.4375,15.03125 2.4623,-4.51891 15.98132,-18.43381 -4.25,-12.53125 0,0 9.04099,-3.89417 12.96875,-3.96875 z"
         style="fill:url(#radialGradient4805);stroke:none" />
      <path
         sodipodi:nodetypes="csssscc"
         inkscape:connector-curvature="0"
         id="path4809"
         d="m 501.05728,987.43279 c 0,0 14.55359,-11.83108 22.09115,-15.69972 7.53756,-3.86864 36.84076,-15.11702 33.49656,3.54161 -3.3442,18.65863 -10.75327,21.25902 -1.08913,28.98952 9.66413,7.7305 0.43612,26.5815 -11.19058,18.0362 -11.6267,-8.5454 -46.1023,-17.0156 -46.1023,-17.0156 0,0 -3.53905,-17.11385 2.7943,-17.85201 z"
         style="fill:#000000;stroke:none" />
      <path
         style="fill:url(#radialGradient4819);stroke:none"
         d="m 502.51014,988.17135 c 0,0 13.99165,-11.14882 21.52922,-15.01746 7.53756,-3.86864 34.01929,-15.7232 30.67509,2.93543 -3.3442,18.65863 -10.61274,20.11518 -0.9486,27.84568 9.66414,7.7305 1.9212,25.0565 -9.7055,16.5111 -11.6267,-8.5453 -44.63742,-16.1526 -44.63742,-16.1526 0,0 -0.55826,-2.6457 -0.76007,-5.7953 -2.05406,-0.6744 13.97946,-10.21964 38.2942,-8.82054 -7.99488,-5.66858 -37.92537,2.42671 -38.34612,5.65049 0.13913,-3.52704 1.04935,-6.82465 3.8992,-7.1568 z"
         id="path4813"
         inkscape:connector-curvature="0"
         sodipodi:nodetypes="cssssccccc" />
      <g
         transform="translate(-14.5,-5)"
         id="g4832">
        <path
           sodipodi:type="arc"
           style="fill:#000000;fill-opacity:1;stroke:none"
           id="path4824"
           sodipodi:cx="468"
           sodipodi:cy="610.59448"
           sodipodi:rx="15"
           sodipodi:ry="15"
           d="m 483,610.59448 a 15,15 0 1 1 -30,0 15,15 0 1 1 30,0 z"
           transform="translate(0,308.2677)" />
        <path
           transform="matrix(0.94107444,0,0,0.94107443,27.577165,344.42411)"
           d="m 483,610.59448 a 15,15 0 1 1 -30,0 15,15 0 1 1 30,0 z"
           sodipodi:ry="15"
           sodipodi:rx="15"
           sodipodi:cy="610.59448"
           sodipodi:cx="468"
           id="path4826"
           style="fill:#ffffff;fill-opacity:1;stroke:none"
           sodipodi:type="arc" />
        <path
           sodipodi:type="arc"
           style="fill:#000000;fill-opacity:1;stroke:none"
           id="path4828"
           sodipodi:cx="468"
           sodipodi:cy="610.59448"
           sodipodi:rx="15"
           sodipodi:ry="15"
           d="m 483,610.59448 a 15,15 0 1 1 -30,0 15,15 0 1 1 30,0 z"
           transform="matrix(0.51681036,0,0,0.51681036,224.89531,602.41674)" />
        <path
           transform="matrix(0.25753787,0,0,0.25753787,340.22443,756.13089)"
           d="m 483,610.59448 a 15,15 0 1 1 -30,0 15,15 0 1 1 30,0 z"
           sodipodi:ry="15"
           sodipodi:rx="15"
           sodipodi:cy="610.59448"
           sodipodi:cx="468"
           id="path4830"
           style="fill:#ffffff;fill-opacity:1;stroke:none"
           sodipodi:type="arc" />
      </g>
      <g
         id="g4838"
         transform="translate(40,-4)">
        <path
           transform="translate(0,308.2677)"
           d="m 483,610.59448 a 15,15 0 1 1 -30,0 15,15 0 1 1 30,0 z"
           sodipodi:ry="15"
           sodipodi:rx="15"
           sodipodi:cy="610.59448"
           sodipodi:cx="468"
           id="path4840"
           style="fill:#000000;fill-opacity:1;stroke:none"
           sodipodi:type="arc" />
        <path
           sodipodi:type="arc"
           style="fill:#ffffff;fill-opacity:1;stroke:none"
           id="path4842"
           sodipodi:cx="468"
           sodipodi:cy="610.59448"
           sodipodi:rx="15"
           sodipodi:ry="15"
           d="m 483,610.59448 a 15,15 0 1 1 -30,0 15,15 0 1 1 30,0 z"
           transform="matrix(0.94107444,0,0,0.94107443,27.577165,344.42411)" />
        <path
           transform="matrix(0.51681036,0,0,0.51681036,224.89531,602.41674)"
           d="m 483,610.59448 a 15,15 0 1 1 -30,0 15,15 0 1 1 30,0 z"
           sodipodi:ry="15"
           sodipodi:rx="15"
           sodipodi:cy="610.59448"
           sodipodi:cx="468"
           id="path4844"
           style="fill:#000000;fill-opacity:1;stroke:none"
           sodipodi:type="arc" />
        <path
           sodipodi:type="arc"
           style="fill:#ffffff;fill-opacity:1;stroke:none"
           id="path4846"
           sodipodi:cx="468"
           sodipodi:cy="610.59448"
           sodipodi:rx="15"
           sodipodi:ry="15"
           d="m 483,610.59448 a 15,15 0 1 1 -30,0 15,15 0 1 1 30,0 z"
           transform="matrix(0.25753787,0,0,0.25753787,340.22443,756.13089)" />
      </g>
      <path
         sodipodi:nodetypes="ccccc"
         inkscape:connector-curvature="0"
         id="path4848"
         d="m 477.31013,923.00806 c -15.02045,8.10916 -35.27415,36.45149 -13.50094,40.63906 1.71973,-0.21384 2.343,-0.10698 0.62443,-1.2928 -18.9967,-4.96938 5.91737,-35.06127 13.19279,-38.39348 0.91884,-0.61565 0.64093,-0.92705 -0.31629,-0.95278 z"
         style="font-size:medium;font-style:normal;font-variant:normal;font-weight:normal;font-stretch:normal;text-indent:0;text-align:start;text-decoration:none;line-height:normal;letter-spacing:normal;word-spacing:normal;text-transform:none;direction:ltr;block-progression:tb;writing-mode:lr-tb;text-anchor:start;baseline-shift:baseline;color:#000000;fill:#000000;fill-opacity:1;stroke:none;stroke-width:1px;marker:none;visibility:visible;display:inline;overflow:visible;enable-background:accumulate;font-family:Sans;-inkscape-font-specification:Sans" />
      <path
         sodipodi:nodetypes="ccsssc"
         inkscape:connector-curvature="0"
         id="path4854"
         d="m 445.125,970.23718 c 22.20628,-4.02138 45.16722,-0.77189 66.5,-8.75 0,0 -1.13399,11.66721 -18.5,18.125 -11.8065,4.39041 -14.06236,-4.42556 -20.625,-5.625 -7.24084,-1.3234 -20.65592,-2.37131 -26.63028,-2.62605 -2.00691,-0.0856 -0.74472,-1.12395 -0.74472,-1.12395 z"
         style="fill:#000000;stroke:none" />
      <path
         id="path4858"
         transform="translate(0,308.2677)"
         d="m 508.25,654.84375 c -1.12835,0.51663 -2.44503,0.96972 -3.90625,1.40625 l 0.5625,3.28125 c 1.06467,-0.48192 2.15991,-1.01354 3.28125,-1.625 l 0.0625,-3.0625 z m -4.53125,1.59375 c -1.24887,0.35414 -2.57011,0.69935 -4,1 l 0.65625,3.84375 c 1.25107,-0.40775 2.5509,-0.86283 3.875,-1.4375 l -0.53125,-3.40625 z m -4.625,1.125 c -1.44813,0.29232 -2.97855,0.5404 -4.5625,0.78125 L 495.25,662.625 c 1.4539,-0.28745 2.93355,-0.65172 4.46875,-1.125 l -0.625,-3.9375 z m -5.21875,0.875 c -1.50661,0.22039 -3.03577,0.4488 -4.625,0.625 l 0.71875,4.34375 c 1.5033,-0.16166 3.00574,-0.37238 4.5625,-0.65625 l -0.65625,-4.3125 z m 14.28125,0.65625 c -0.94658,0.77955 -1.97297,1.43272 -3,2.03125 l 0.3125,1.78125 c 0.91886,-0.95842 1.81706,-1.97823 2.65625,-3.125 l 0.0312,-0.6875 z m -19.5625,0.0312 c -1.43026,0.15235 -2.90659,0.25695 -4.375,0.375 l 0.71875,4.375 c 1.42933,-0.11986 2.87253,-0.26207 4.3125,-0.40625 l -0.65625,-4.34375 z m -5.03125,0.4375 c -1.46461,0.11246 -2.93009,0.20173 -4.40625,0.28125 l 0.75,4.53125 c 1.45281,-0.18502 2.88698,-0.31484 4.3125,-0.4375 l -0.65625,-4.375 z M 478.5,659.875 c -1.40625,0.0712 -2.79402,0.11408 -4.1875,0.15625 l 0.875,5.15625 c 1.37147,-0.30041 2.71142,-0.53639 4.03125,-0.71875 L 478.5,659.875 z m -4.84375,0.1875 c -1.31347,0.0356 -2.62406,0.0833 -3.90625,0.0937 l 0.75,4.40625 c 1.64273,0.25635 2.94093,0.62455 4,1.03125 l -0.84375,-5.53125 z m -8.84375,0.0625 0.90625,4 c 1.51981,0.0699 2.84633,0.19359 4,0.34375 l -0.65625,-4.3125 c -1.43839,0.007 -2.87783,-0.007 -4.25,-0.0312 z M 504.5,661.5 c -1.21872,0.65967 -2.47752,1.2191 -3.78125,1.6875 l 0.5625,3.34375 c 1.21929,-0.85417 2.39261,-1.85377 3.53125,-2.96875 L 504.5,661.5 z m -4.5,1.9375 c -1.43406,0.47793 -2.90416,0.86263 -4.40625,1.1875 l 0.78125,4.625 c 1.41469,-0.59885 2.81988,-1.32398 4.1875,-2.21875 L 500,663.4375 z m -5.15625,1.34375 c -1.48396,0.30057 -2.98283,0.5554 -4.5,0.78125 l 0.875,5.25 c 1.45146,-0.27848 2.91411,-0.6557 4.375,-1.21875 l -0.75,-4.8125 z m -19.59375,0.8125 0.0625,0.34375 c 0.0945,0.044 0.15894,0.11106 0.25,0.15625 l -0.3125,-0.5 z m 14.34375,0.0625 c -1.41167,0.20386 -2.83654,0.42517 -4.25,0.625 l 0.84375,5 c 1.36554,0.0253 2.78427,-0.0865 4.21875,-0.3125 l -0.8125,-5.3125 z m -5,0.71875 c -1.42344,0.20605 -2.82006,0.42577 -4.21875,0.6875 l 0.46875,2.84375 c 0.41249,0.30824 0.8466,0.62362 1.34375,0.9375 1.01042,0.20752 2.06374,0.34636 3.15625,0.40625 l -0.75,-4.875 z m -4.96875,0.8125 c -0.56495,0.11242 -1.12992,0.24601 -1.6875,0.375 0.66773,0.51943 1.29314,1.08015 2,1.65625 l -0.3125,-2.03125 z"
         style="fill:#ffffff;stroke:none"
         inkscape:connector-curvature="0" />
    </g>
  </g>
</svg>
