<?xml version="1.0" encoding="UTF-8" standalone="no"?>
<!-- Created with Inkscape (http://www.inkscape.org/) -->

<svg
   xmlns:dc="http://purl.org/dc/elements/1.1/"
   xmlns:cc="http://creativecommons.org/ns#"
   xmlns:rdf="http://www.w3.org/1999/02/22-rdf-syntax-ns#"
   xmlns:svg="http://www.w3.org/2000/svg"
   xmlns="http://www.w3.org/2000/svg"
   xmlns:xlink="http://www.w3.org/1999/xlink"
   xmlns:sodipodi="http://sodipodi.sourceforge.net/DTD/sodipodi-0.dtd"
   xmlns:inkscape="http://www.inkscape.org/namespaces/inkscape"
   width="256"
   height="256"
   id="svg2"
   version="1.1"
   inkscape:version="0.48.4 r9939"
   sodipodi:docname="starry06.svg"
   inkscape:export-filename="starry.png"
   inkscape:export-xdpi="60.476192"
   inkscape:export-ydpi="60.476192">
  <defs
     id="defs4">
    <linearGradient
       id="linearGradient4625">
      <stop
         style="stop-color:#9c4a13;stop-opacity:1;"
         offset="0"
         id="stop4627" />
      <stop
         style="stop-color:#552200;stop-opacity:1;"
         offset="1"
         id="stop4629" />
    </linearGradient>
    <linearGradient
       inkscape:collect="always"
       id="linearGradient4578">
      <stop
         style="stop-color:#ff0000;stop-opacity:1;"
         offset="0"
         id="stop4580" />
      <stop
         style="stop-color:#ff0000;stop-opacity:0;"
         offset="1"
         id="stop4582" />
    </linearGradient>
    <linearGradient
       id="linearGradient4270">
      <stop
         style="stop-color:#27a027;stop-opacity:1;"
         offset="0"
         id="stop4272" />
      <stop
         style="stop-color:#2beb2b;stop-opacity:1;"
         offset="1"
         id="stop4274" />
    </linearGradient>
    <linearGradient
       id="linearGradient5121">
      <stop
         style="stop-color:#e82ae8;stop-opacity:1;"
         offset="0"
         id="stop5123" />
      <stop
         style="stop-color:#ab378e;stop-opacity:1;"
         offset="1"
         id="stop5125" />
    </linearGradient>
    <linearGradient
       id="linearGradient4587">
      <stop
         style="stop-color:#ffdb00;stop-opacity:1;"
         offset="0"
         id="stop4589" />
      <stop
         style="stop-color:#ff6600;stop-opacity:1;"
         offset="1"
         id="stop4591" />
    </linearGradient>
    <linearGradient
       id="linearGradient4428">
      <stop
         style="stop-color:#404040;stop-opacity:1;"
         offset="0"
         id="stop4430" />
      <stop
         style="stop-color:#636363;stop-opacity:1;"
         offset="1"
         id="stop4432" />
    </linearGradient>
    <linearGradient
       id="linearGradient4414">
      <stop
         style="stop-color:#b9a165;stop-opacity:1;"
         offset="0"
         id="stop4416" />
      <stop
         style="stop-color:#978045;stop-opacity:1;"
         offset="1"
         id="stop4418" />
    </linearGradient>
    <linearGradient
       id="linearGradient3925">
      <stop
         style="stop-color:#ffffff;stop-opacity:1;"
         offset="0"
         id="stop3927" />
      <stop
         style="stop-color:#d5d5d5;stop-opacity:1;"
         offset="1"
         id="stop3929" />
    </linearGradient>
    <linearGradient
       id="linearGradient3861">
      <stop
         style="stop-color:#161688;stop-opacity:1;"
         offset="0"
         id="stop3863" />
      <stop
         style="stop-color:#1717ac;stop-opacity:1;"
         offset="1"
         id="stop3865" />
    </linearGradient>
    <linearGradient
       id="linearGradient3079">
      <stop
         style="stop-color:#d40000;stop-opacity:1;"
         offset="0"
         id="stop3081" />
      <stop
         style="stop-color:#ff0d00;stop-opacity:1;"
         offset="1"
         id="stop3083" />
    </linearGradient>
    <linearGradient
       id="linearGradient3071">
      <stop
         style="stop-color:#fff000;stop-opacity:1;"
         offset="0"
         id="stop3073" />
      <stop
         style="stop-color:#ffcc00;stop-opacity:1;"
         offset="1"
         id="stop3075" />
    </linearGradient>
    <radialGradient
       inkscape:collect="always"
       xlink:href="#linearGradient3071"
       id="radialGradient3907"
       cx="532.20038"
       cy="177.71259"
       fx="532.20038"
       fy="177.71259"
       r="69.003609"
       gradientTransform="matrix(0.9990308,0.04401675,-0.04928387,1.1185762,75.184005,-55.361323)"
       gradientUnits="userSpaceOnUse" />
    <radialGradient
       inkscape:collect="always"
       xlink:href="#linearGradient3925"
       id="radialGradient4145"
       gradientUnits="userSpaceOnUse"
       gradientTransform="matrix(-1.4510666,-1.4897576,3.2585121,-3.1738567,448.17659,1515.4599)"
       cx="456.21127"
       cy="216.91385"
       fx="456.21127"
       fy="216.91385"
       r="42" />
    <radialGradient
       inkscape:collect="always"
       xlink:href="#linearGradient3925"
       id="radialGradient4169"
       cx="607.24139"
       cy="228.16756"
       fx="607.24139"
       fy="228.16756"
       r="23.700668"
       gradientTransform="matrix(1.3027334,0,0,0.52251417,-179.27791,116.51455)"
       gradientUnits="userSpaceOnUse" />
    <radialGradient
       inkscape:collect="always"
       xlink:href="#linearGradient3861"
       id="radialGradient4171"
       cx="616.19501"
       cy="232.33742"
       fx="616.19501"
       fy="232.33742"
       r="23.115305"
       gradientTransform="matrix(1.2963054,-0.12925413,0.09862658,0.98913795,-198.23165,85.163814)"
       gradientUnits="userSpaceOnUse" />
    <radialGradient
       inkscape:collect="always"
       xlink:href="#linearGradient3861"
       id="radialGradient4193"
       gradientUnits="userSpaceOnUse"
       gradientTransform="matrix(1.2963054,-0.12925413,0.09862658,0.98913795,-198.23165,85.163814)"
       cx="616.19501"
       cy="232.33742"
       fx="616.19501"
       fy="232.33742"
       r="23.115305" />
    <radialGradient
       inkscape:collect="always"
       xlink:href="#linearGradient3925"
       id="radialGradient4195"
       gradientUnits="userSpaceOnUse"
       gradientTransform="matrix(1.3027334,0,0,0.52251417,-179.27791,116.51455)"
       cx="607.24139"
       cy="228.16756"
       fx="607.24139"
       fy="228.16756"
       r="23.700668" />
    <radialGradient
       inkscape:collect="always"
       xlink:href="#linearGradient3071"
       id="radialGradient4269"
       cx="163.93484"
       cy="284.47501"
       fx="163.93484"
       fy="284.47501"
       r="108.0136"
       gradientTransform="matrix(1.0021393,-0.00822154,0.02280656,1.1172491,-6.8385999,-33.021411)"
       gradientUnits="userSpaceOnUse" />
    <radialGradient
       inkscape:collect="always"
       xlink:href="#linearGradient3925"
       id="radialGradient4286"
       cx="455.3418"
       cy="326.35748"
       fx="455.3418"
       fy="326.35748"
       r="33.595551"
       gradientTransform="matrix(1,0,0,0.54758086,0,150.89964)"
       gradientUnits="userSpaceOnUse" />
    <radialGradient
       inkscape:collect="always"
       xlink:href="#linearGradient3925"
       id="radialGradient4288"
       cx="506.75"
       cy="320.34167"
       fx="506.75"
       fy="320.34167"
       r="32.75"
       gradientTransform="matrix(1,0,0,0.59606531,0,137.39712)"
       gradientUnits="userSpaceOnUse" />
    <linearGradient
       inkscape:collect="always"
       xlink:href="#linearGradient4414"
       id="linearGradient4420"
       x1="271.81821"
       y1="524.1095"
       x2="274.26199"
       y2="532.18262"
       gradientUnits="userSpaceOnUse" />
    <linearGradient
       inkscape:collect="always"
       xlink:href="#linearGradient4428"
       id="linearGradient4434"
       x1="238.46864"
       y1="552.31421"
       x2="225.72975"
       y2="569.94263"
       gradientUnits="userSpaceOnUse" />
    <radialGradient
       inkscape:collect="always"
       xlink:href="#linearGradient3925"
       id="radialGradient4442"
       cx="502.11005"
       cy="260.3374"
       fx="502.11005"
       fy="260.3374"
       r="26.274143"
       gradientTransform="matrix(0.79551346,0.44120601,-0.42087109,0.75884875,209.13317,-150.22852)"
       gradientUnits="userSpaceOnUse" />
    <radialGradient
       inkscape:collect="always"
       xlink:href="#linearGradient3925"
       id="radialGradient4448"
       gradientUnits="userSpaceOnUse"
       gradientTransform="matrix(-0.73156691,0.19304627,0.18414888,0.69784946,770.56159,-16.416917)"
       cx="502.11005"
       cy="260.3374"
       fx="502.11005"
       fy="260.3374"
       r="26.274143" />
    <linearGradient
       inkscape:collect="always"
       xlink:href="#linearGradient3079"
       id="linearGradient4517"
       x1="581.16241"
       y1="157.24892"
       x2="587.12347"
       y2="172.24892"
       gradientUnits="userSpaceOnUse" />
    <radialGradient
       inkscape:collect="always"
       xlink:href="#linearGradient3071"
       id="radialGradient4859"
       gradientUnits="userSpaceOnUse"
       gradientTransform="matrix(0.63529918,0.45672657,-0.48853271,0.67954101,615.23982,99.714894)"
       cx="168.57047"
       cy="276.2543"
       fx="168.57047"
       fy="276.2543"
       r="108.0136" />
    <linearGradient
       inkscape:collect="always"
       xlink:href="#linearGradient4428"
       id="linearGradient4861"
       gradientUnits="userSpaceOnUse"
       x1="569.92804"
       y1="328.6384"
       x2="577.35266"
       y2="385.56049" />
    <linearGradient
       inkscape:collect="always"
       xlink:href="#linearGradient4587"
       id="linearGradient4863"
       gradientUnits="userSpaceOnUse"
       x1="635.54486"
       y1="388.39685"
       x2="655.91925"
       y2="388.39685" />
    <linearGradient
       inkscape:collect="always"
       xlink:href="#linearGradient4428"
       id="linearGradient4865"
       gradientUnits="userSpaceOnUse"
       x1="571.75"
       y1="259.36218"
       x2="587.25"
       y2="303.61218" />
    <radialGradient
       inkscape:collect="always"
       xlink:href="#linearGradient3071"
       id="radialGradient4869"
       gradientUnits="userSpaceOnUse"
       gradientTransform="matrix(0.99972463,0.02346618,-0.02510034,1.0693448,6.5378877,-21.653928)"
       cx="171.29147"
       cy="285.97275"
       fx="171.29147"
       fy="285.97275"
       r="108.0136" />
    <radialGradient
       inkscape:collect="always"
       xlink:href="#linearGradient3071"
       id="radialGradient4873"
       gradientUnits="userSpaceOnUse"
       gradientTransform="matrix(0.99972463,0.02346618,-0.02510034,1.0693448,6.5378877,-21.653928)"
       cx="177.93721"
       cy="289.21756"
       fx="177.93721"
       fy="289.21756"
       r="108.0136" />
    <radialGradient
       inkscape:collect="always"
       xlink:href="#linearGradient3079"
       id="radialGradient4937"
       gradientUnits="userSpaceOnUse"
       gradientTransform="matrix(1,0,0,0.98056266,0,10.143726)"
       cx="464.80362"
       cy="527.27637"
       fx="464.80362"
       fy="527.27637"
       r="15.310997" />
    <radialGradient
       inkscape:collect="always"
       xlink:href="#linearGradient3079"
       id="radialGradient4943"
       gradientUnits="userSpaceOnUse"
       gradientTransform="matrix(-0.62071292,-0.90941872,0.8098967,-0.55278437,261.36556,1204.4559)"
       cx="424.61761"
       cy="527.00262"
       fx="424.61761"
       fy="527.00262"
       r="12.246221" />
    <radialGradient
       inkscape:collect="always"
       xlink:href="#linearGradient3079"
       id="radialGradient4951"
       gradientUnits="userSpaceOnUse"
       gradientTransform="matrix(1,0,0,0.98056266,0,10.143726)"
       cx="464.80362"
       cy="527.27637"
       fx="464.80362"
       fy="527.27637"
       r="15.310997" />
    <radialGradient
       inkscape:collect="always"
       xlink:href="#linearGradient3079"
       id="radialGradient4959"
       gradientUnits="userSpaceOnUse"
       gradientTransform="matrix(1,0,0,0.98056266,0,10.143726)"
       cx="464.80362"
       cy="527.27637"
       fx="464.80362"
       fy="527.27637"
       r="15.310997" />
    <radialGradient
       inkscape:collect="always"
       xlink:href="#linearGradient3079"
       id="radialGradient4967"
       gradientUnits="userSpaceOnUse"
       gradientTransform="matrix(1,0,0,0.98056266,0,10.143726)"
       cx="464.80362"
       cy="527.27637"
       fx="464.80362"
       fy="527.27637"
       r="15.310997" />
    <radialGradient
       inkscape:collect="always"
       xlink:href="#linearGradient3071"
       id="radialGradient5223"
       gradientUnits="userSpaceOnUse"
       gradientTransform="matrix(0.99972463,0.02346618,-0.02510034,1.0693448,6.5378877,-21.653928)"
       cx="168.57047"
       cy="276.2543"
       fx="168.57047"
       fy="276.2543"
       r="108.0136" />
    <radialGradient
       inkscape:collect="always"
       xlink:href="#linearGradient4587"
       id="radialGradient5225"
       gradientUnits="userSpaceOnUse"
       gradientTransform="matrix(1.3744569,-0.09683081,0.08728683,1.2389854,-223.03648,-69.688798)"
       cx="476.56317"
       cy="492.85751"
       fx="476.56317"
       fy="492.85751"
       r="10.086154" />
    <radialGradient
       inkscape:collect="always"
       xlink:href="#linearGradient4587"
       id="radialGradient5227"
       gradientUnits="userSpaceOnUse"
       gradientTransform="matrix(2.0792669,0.463044,-0.41740467,1.8743268,-322.85512,-638.87469)"
       cx="476.56317"
       cy="492.85751"
       fx="476.56317"
       fy="492.85751"
       r="10.086154" />
    <radialGradient
       inkscape:collect="always"
       xlink:href="#linearGradient4587"
       id="radialGradient5229"
       gradientUnits="userSpaceOnUse"
       gradientTransform="matrix(2.2695883,-0.14450017,0.13025775,2.0458894,-698.69146,-425.1421)"
       cx="476.56317"
       cy="492.85751"
       fx="476.56317"
       fy="492.85751"
       r="10.086154" />
    <radialGradient
       inkscape:collect="always"
       xlink:href="#linearGradient4587"
       id="radialGradient5231"
       gradientUnits="userSpaceOnUse"
       gradientTransform="matrix(-1.3744569,-0.09683081,-0.08728683,1.2389854,1016.074,-69.438798)"
       cx="476.56317"
       cy="492.85751"
       fx="476.56317"
       fy="492.85751"
       r="10.086154" />
    <radialGradient
       inkscape:collect="always"
       xlink:href="#linearGradient4587"
       id="radialGradient5233"
       gradientUnits="userSpaceOnUse"
       gradientTransform="matrix(-2.0792669,0.463044,0.41740467,1.8743268,1115.8926,-638.62469)"
       cx="476.56317"
       cy="492.85751"
       fx="476.56317"
       fy="492.85751"
       r="10.086154" />
    <radialGradient
       inkscape:collect="always"
       xlink:href="#linearGradient4587"
       id="radialGradient5235"
       gradientUnits="userSpaceOnUse"
       gradientTransform="matrix(-2.2695883,-0.14450017,-0.13025775,2.0458894,1491.729,-424.8921)"
       cx="476.56317"
       cy="492.85751"
       fx="476.56317"
       fy="492.85751"
       r="10.086154" />
    <radialGradient
       inkscape:collect="always"
       xlink:href="#linearGradient3071"
       id="radialGradient5237"
       gradientUnits="userSpaceOnUse"
       gradientTransform="matrix(1,0,0,0.42000274,11.5,273.20668)"
       cx="419.75"
       cy="476.79529"
       fx="419.75"
       fy="476.79529"
       r="21" />
    <radialGradient
       inkscape:collect="always"
       xlink:href="#linearGradient3071"
       id="radialGradient5239"
       gradientUnits="userSpaceOnUse"
       gradientTransform="matrix(-1,0,0,0.42000274,788.93736,275.20668)"
       cx="419.75"
       cy="476.79529"
       fx="419.75"
       fy="476.79529"
       r="21" />
    <radialGradient
       inkscape:collect="always"
       xlink:href="#linearGradient5121"
       id="radialGradient5241"
       gradientUnits="userSpaceOnUse"
       gradientTransform="matrix(0.78687096,-0.239624,0.11538748,0.37890638,33.883202,378.95378)"
       cx="449.41968"
       cy="440.29898"
       fx="449.41968"
       fy="440.29898"
       r="20.452785" />
    <radialGradient
       inkscape:collect="always"
       xlink:href="#linearGradient5121"
       id="radialGradient5243"
       gradientUnits="userSpaceOnUse"
       gradientTransform="matrix(1,0,0,1.1461073,-3.8890873,-59.991875)"
       cx="421.71243"
       cy="438.45337"
       fx="421.71243"
       fy="438.45337"
       r="7.6836691" />
    <radialGradient
       inkscape:collect="always"
       xlink:href="#linearGradient5121"
       id="radialGradient5245"
       gradientUnits="userSpaceOnUse"
       gradientTransform="matrix(-1.2293935,-1.5336999,1.051064,-0.84251957,435.92405,1438.5154)"
       cx="404"
       cy="442.17188"
       fx="404"
       fy="442.17188"
       r="20.538582" />
    <radialGradient
       inkscape:collect="always"
       xlink:href="#linearGradient5121"
       id="radialGradient5247"
       gradientUnits="userSpaceOnUse"
       gradientTransform="matrix(1,0,0,0.41583118,-3.8890873,262.69667)"
       cx="453.6004"
       cy="455.36395"
       fx="453.6004"
       fy="455.36395"
       r="22.636042" />
    <radialGradient
       inkscape:collect="always"
       xlink:href="#linearGradient3079"
       id="radialGradient5249"
       gradientUnits="userSpaceOnUse"
       gradientTransform="matrix(0.68119909,0.00544914,-0.0045035,0.56298381,129.68213,227.14058)"
       cx="406.87628"
       cy="528.65491"
       fx="406.87628"
       fy="528.65491"
       r="32.438526" />
    <radialGradient
       inkscape:collect="always"
       xlink:href="#linearGradient3925"
       id="radialGradient5356"
       gradientUnits="userSpaceOnUse"
       gradientTransform="matrix(1,0,0,0.3842483,0,554.47405)"
       cx="100.45855"
       cy="921.64594"
       fx="100.45855"
       fy="921.64594"
       r="58.505035" />
    <radialGradient
       inkscape:collect="always"
       xlink:href="#linearGradient3071"
       id="radialGradient5358"
       gradientUnits="userSpaceOnUse"
       gradientTransform="matrix(1,0,0,1.4289469,0,-325.73173)"
       cx="156.5768"
       cy="759.37549"
       fx="156.5768"
       fy="759.37549"
       r="89.576805" />
    <radialGradient
       inkscape:collect="always"
       xlink:href="#linearGradient3925"
       id="radialGradient5360"
       gradientUnits="userSpaceOnUse"
       gradientTransform="matrix(0.99997148,-0.00755275,0.00298362,0.3950256,-53.670014,510.55425)"
       cx="363.22302"
       cy="898.36456"
       fx="363.22302"
       fy="898.36456"
       r="118.49831" />
    <radialGradient
       inkscape:collect="always"
       xlink:href="#linearGradient3071"
       id="radialGradient5362"
       gradientUnits="userSpaceOnUse"
       gradientTransform="matrix(1,0,0,0.51509477,0,353.44058)"
       cx="96.124428"
       cy="728.13409"
       fx="96.124428"
       fy="728.13409"
       r="30.935921" />
    <radialGradient
       inkscape:collect="always"
       xlink:href="#linearGradient3071"
       id="radialGradient5364"
       gradientUnits="userSpaceOnUse"
       gradientTransform="matrix(1,0,0,0.51509477,0,353.44058)"
       cx="96.124428"
       cy="728.13409"
       fx="96.124428"
       fy="728.13409"
       r="30.935921" />
    <radialGradient
       inkscape:collect="always"
       xlink:href="#linearGradient3071"
       id="radialGradient5372"
       gradientUnits="userSpaceOnUse"
       gradientTransform="matrix(0.99972463,0.02346618,-0.02510034,1.0693448,6.5378877,-21.653928)"
       cx="168.57047"
       cy="276.2543"
       fx="168.57047"
       fy="276.2543"
       r="108.0136" />
    <radialGradient
       inkscape:collect="always"
       xlink:href="#linearGradient3071"
       id="radialGradient5376"
       gradientUnits="userSpaceOnUse"
       gradientTransform="matrix(0.99972463,0.02346618,-0.02510034,1.0693448,6.5378877,-21.653928)"
       cx="168.57047"
       cy="276.2543"
       fx="168.57047"
       fy="276.2543"
       r="108.0136" />
    <linearGradient
       inkscape:collect="always"
       xlink:href="#linearGradient3925"
       id="linearGradient5571"
       x1="367.66833"
       y1="330.74957"
       x2="378.2713"
       y2="342.06329"
       gradientUnits="userSpaceOnUse" />
    <radialGradient
       inkscape:collect="always"
       xlink:href="#linearGradient3071"
       id="radialGradient3432"
       gradientUnits="userSpaceOnUse"
       gradientTransform="matrix(-1.0813686,-0.93579434,0.52925059,-0.61158221,1082.8355,1814.0518)"
       cx="704.85541"
       cy="715.05518"
       fx="704.85541"
       fy="715.05518"
       r="14.64128" />
    <linearGradient
       inkscape:collect="always"
       xlink:href="#linearGradient4414"
       id="linearGradient3434"
       gradientUnits="userSpaceOnUse"
       x1="695.5"
       y1="720.36218"
       x2="689.5"
       y2="722.36218" />
    <radialGradient
       inkscape:collect="always"
       xlink:href="#linearGradient3071"
       id="radialGradient3436"
       gradientUnits="userSpaceOnUse"
       gradientTransform="matrix(0.77988332,0.28301058,-0.20761566,0.57211992,297.80831,107.44621)"
       cx="687.0462"
       cy="708.41467"
       fx="687.0462"
       fy="708.41467"
       r="9.6825304" />
    <radialGradient
       inkscape:collect="always"
       xlink:href="#linearGradient3071"
       id="radialGradient3438"
       gradientUnits="userSpaceOnUse"
       gradientTransform="matrix(1,0,0,0.60143496,0,285.13141)"
       cx="687.36896"
       cy="715.90118"
       fx="687.36896"
       fy="715.90118"
       r="10.188534" />
    <radialGradient
       inkscape:collect="always"
       xlink:href="#linearGradient3071"
       id="radialGradient3440"
       gradientUnits="userSpaceOnUse"
       gradientTransform="matrix(1,0,0,0.74704605,1.25,183.46212)"
       cx="695.66272"
       cy="722.54816"
       fx="695.66272"
       fy="722.54816"
       r="9.6836624" />
    <radialGradient
       inkscape:collect="always"
       xlink:href="#linearGradient3925"
       id="radialGradient4307"
       gradientUnits="userSpaceOnUse"
       gradientTransform="matrix(-0.23219384,-1.4735394,0.83426306,-0.13145717,249.52404,1781.0735)"
       cx="674"
       cy="696.39258"
       fx="674"
       fy="696.39258"
       r="27.993826" />
    <radialGradient
       inkscape:collect="always"
       xlink:href="#linearGradient3925"
       id="radialGradient4315"
       gradientUnits="userSpaceOnUse"
       gradientTransform="matrix(-0.23219384,-1.4735394,0.83426306,-0.13145717,249.52404,1781.0735)"
       cx="674"
       cy="696.39258"
       fx="674"
       fy="696.39258"
       r="27.993826" />
    <linearGradient
       inkscape:collect="always"
       xlink:href="#linearGradient3079"
       id="linearGradient4390"
       gradientUnits="userSpaceOnUse"
       gradientTransform="matrix(-0.29220685,0.95635514,0.95635514,0.29220685,130.71656,-99.810488)"
       x1="721.07214"
       y1="830.50745"
       x2="727.78967"
       y2="830.15387" />
    <linearGradient
       inkscape:collect="always"
       xlink:href="#linearGradient4428"
       id="linearGradient4392"
       gradientUnits="userSpaceOnUse"
       x1="694.02533"
       y1="802.22314"
       x2="695.79309"
       y2="800.80896" />
    <radialGradient
       inkscape:collect="always"
       xlink:href="#linearGradient3071"
       id="radialGradient4394"
       gradientUnits="userSpaceOnUse"
       gradientTransform="matrix(-1.4602942,-0.74886865,0.38408437,-0.74896904,1427.2918,1940.8054)"
       cx="706.2229"
       cy="807.69836"
       fx="706.2229"
       fy="807.69836"
       r="18.884663" />
    <linearGradient
       inkscape:collect="always"
       xlink:href="#linearGradient4428"
       id="linearGradient4396"
       gradientUnits="userSpaceOnUse"
       x1="660.79126"
       y1="759.97351"
       x2="664.15002"
       y2="757.3219" />
    <linearGradient
       inkscape:collect="always"
       xlink:href="#linearGradient3079"
       id="linearGradient4398"
       gradientUnits="userSpaceOnUse"
       gradientTransform="translate(-1.5026019,-0.88388348)"
       x1="721.07214"
       y1="830.50745"
       x2="727.78967"
       y2="830.15387" />
    <linearGradient
       inkscape:collect="always"
       xlink:href="#linearGradient4270"
       id="linearGradient4400"
       gradientUnits="userSpaceOnUse"
       x1="608.11182"
       y1="810.1781"
       x2="628.44116"
       y2="815.30463" />
    <linearGradient
       inkscape:collect="always"
       xlink:href="#linearGradient4270"
       id="linearGradient4402"
       gradientUnits="userSpaceOnUse"
       x1="607.84869"
       y1="801.11218"
       x2="616.06677"
       y2="800.58185" />
    <radialGradient
       inkscape:collect="always"
       xlink:href="#linearGradient3071"
       id="radialGradient4672"
       gradientUnits="userSpaceOnUse"
       gradientTransform="matrix(0.99972463,0.02346618,-0.02510034,1.0693448,6.5378877,-21.653928)"
       cx="168.57047"
       cy="276.2543"
       fx="168.57047"
       fy="276.2543"
       r="108.0136" />
    <radialGradient
       inkscape:collect="always"
       xlink:href="#linearGradient5121"
       id="radialGradient4674"
       gradientUnits="userSpaceOnUse"
       gradientTransform="matrix(0.9936117,-0.11285295,0.10284403,0.90548835,-98.727355,145.98046)"
       cx="525.01648"
       cy="992.5838"
       fx="525.01648"
       fy="992.5838"
       r="24.064341" />
    <radialGradient
       inkscape:collect="always"
       xlink:href="#linearGradient3925"
       id="radialGradient4676"
       gradientUnits="userSpaceOnUse"
       gradientTransform="matrix(0.9998694,-0.01712233,0.01892778,1.2406375,-18.562963,-227.85102)"
       cx="527"
       cy="984.36218"
       fx="527"
       fy="984.36218"
       r="16.25" />
    <radialGradient
       inkscape:collect="always"
       xlink:href="#linearGradient5121"
       id="radialGradient4678"
       gradientUnits="userSpaceOnUse"
       gradientTransform="matrix(-0.08420794,-1.0028458,0.92765779,-0.07789476,-352.66756,1607.5865)"
       cx="531.0293"
       cy="998.89685"
       fx="531.0293"
       fy="998.89685"
       r="16.328541" />
    <radialGradient
       inkscape:collect="always"
       xlink:href="#linearGradient4578"
       id="radialGradient4680"
       gradientUnits="userSpaceOnUse"
       gradientTransform="matrix(0.83554772,-0.1343511,0.13190248,0.82031519,-37.699881,247.47871)"
       cx="547.25"
       cy="968.11218"
       fx="547.25"
       fy="968.11218"
       r="12" />
    <radialGradient
       inkscape:collect="always"
       xlink:href="#linearGradient4625"
       id="radialGradient4682"
       gradientUnits="userSpaceOnUse"
       gradientTransform="matrix(-0.97131477,-1.3740557,0.97629344,-0.69013812,167.01088,2231.1788)"
       cx="526.5"
       cy="892.03339"
       fx="526.5"
       fy="892.03339"
       r="10.552705" />
    <radialGradient
       inkscape:collect="always"
       xlink:href="#linearGradient4578"
       id="radialGradient4684"
       gradientUnits="userSpaceOnUse"
       gradientTransform="matrix(0.83554772,-0.1343511,0.13190248,0.82031519,-37.699881,247.47871)"
       cx="547.25"
       cy="968.11218"
       fx="547.25"
       fy="968.11218"
       r="12" />
    <radialGradient
       inkscape:collect="always"
       xlink:href="#linearGradient3079"
       id="radialGradient4805"
       cx="485.96579"
       cy="1008.5775"
       fx="485.96579"
       fy="1008.5775"
       r="17.127888"
       gradientTransform="matrix(0.9953549,-0.0962737,0.07733574,0.79955901,-71.596485,-66.04087)"
       gradientUnits="userSpaceOnUse" />
    <radialGradient
       inkscape:collect="always"
       xlink:href="#linearGradient3079"
       id="radialGradient4817"
       cx="458.18658"
       cy="695.87952"
       fx="458.18658"
       fy="695.87952"
       r="29.143797"
       gradientTransform="matrix(0.9953549,-0.0962737,0.10361651,1.0712708,-65.96894,300.40891)"
       gradientUnits="userSpaceOnUse" />
    <radialGradient
       inkscape:collect="always"
       xlink:href="#linearGradient3079"
       id="radialGradient4819"
       cx="534.16193"
       cy="703.67053"
       fx="534.16193"
       fy="703.67053"
       r="30.919119"
       gradientTransform="matrix(0.9953549,-0.0962737,0.09309474,0.96248821,-58.677827,375.7903)"
       gradientUnits="userSpaceOnUse" />
    <radialGradient
       inkscape:collect="always"
       xlink:href="#linearGradient3079"
       id="radialGradient4940"
       cx="87.858017"
       cy="656.55493"
       fx="87.858017"
       fy="656.55493"
       r="12.50704"
       gradientTransform="matrix(-0.40282415,-0.86925173,0.50294881,-0.23307438,-206.96417,883.42362)"
       gradientUnits="userSpaceOnUse" />
  </defs>
  <sodipodi:namedview
     id="base"
     pagecolor="#ffffff"
     bordercolor="#666666"
     borderopacity="1.0"
     inkscape:pageopacity="0.0"
     inkscape:pageshadow="2"
     inkscape:zoom="0.5"
     inkscape:cx="526.18109"
     inkscape:cy="93.52451"
     inkscape:document-units="px"
     inkscape:current-layer="layer1"
     showgrid="false"
     inkscape:window-width="1600"
     inkscape:window-height="829"
     inkscape:window-x="0"
     inkscape:window-y="24"
     inkscape:window-maximized="1"
     showguides="true"
     inkscape:guide-bbox="true" />
  <metadata
     id="metadata7">
    <rdf:RDF>
      <cc:Work
         rdf:about="">
        <dc:format>image/svg+xml</dc:format>
        <dc:type
           rdf:resource="http://purl.org/dc/dcmitype/StillImage" />
        <dc:title></dc:title>
      </cc:Work>
    </rdf:RDF>
  </metadata>
  <g
     inkscape:label="Layer 1"
     inkscape:groupmode="layer"
     id="layer1"
     transform="translate(0,-796.36218)">
    <g
       id="g4450"
       transform="translate(-342.44598,610.85094)">
      <path
         sodipodi:nodetypes="sssssssssss"
         inkscape:connector-curvature="0"
         id="path4273"
         d="m 533.5925,391.77863 c -7.75805,4.95153 -51.67407,-30.66885 -61.25961,-31.49834 -10.59533,-0.91686 -55.72276,24.3217 -64.32674,18.41007 -7.78398,-5.34823 15.42655,-50.12651 13.05332,-58.68136 -2.62324,-9.45604 -44.93647,-41.22705 -41.67873,-50.35376 2.94727,-8.25692 55.70113,-0.51282 63.81994,-4.97052 8.97407,-4.92729 27.41945,-53.37309 38.03681,-53.10209 9.60551,0.24518 23.17578,48.50871 30.56672,54.30855 8.16952,6.41081 64.33724,10.75029 67.6414,20.04449 2.98925,8.40846 -45.53972,31.74906 -49.09067,39.79127 -3.92503,8.88939 11.81284,60.57858 3.23756,66.05169 z"
         inkscape:transform-center-y="-5.2885716"
         inkscape:transform-center-x="13.745186"
         style="fill:#000000;fill-opacity:1;stroke:none" />
      <path
         sodipodi:type="star"
         style="fill:url(#radialGradient4269);fill-opacity:1;stroke:none"
         id="path4267"
         sodipodi:sides="5"
         sodipodi:cx="159"
         sodipodi:cy="268.36218"
         sodipodi:r1="113.40635"
         sodipodi:r2="60.899212"
         sodipodi:arg1="0.9167136"
         sodipodi:arg2="1.4783461"
         inkscape:flatsided="false"
         inkscape:rounded="0.16"
         inkscape:randomized="0"
         d="m 228,358.36218 c -8.39578,7.37622 -52.20581,-29.6483 -63.37787,-29.36085 -12.34896,0.31773 -59.2731,39.10179 -69.895044,32.79528 -9.609637,-5.70548 12.064734,-58.8125 8.338994,-69.34894 -4.118216,-11.64637 -55.504414,-44.28895 -52.788926,-56.33983 2.456694,-10.9024 59.662226,-6.69982 68.531656,-13.49915 9.80376,-7.51558 24.96949,-66.47387 37.26969,-67.61522 11.12796,-1.03257 24.80855,54.67179 34.0159,61.00601 10.17727,7.00149 70.9364,3.20584 75.82286,14.55133 4.42076,10.26424 -44.3297,40.48884 -47.50867,51.20294 -3.51386,11.84274 18.87162,68.45519 9.59141,76.60843 z"
         inkscape:transform-center-x="13.995324"
         inkscape:transform-center-y="-5.3076218"
         transform="matrix(0.8560003,0.09427921,-0.07744516,0.77859262,359.44644,83.165749)" />
      <path
         style="fill:#fee800;fill-opacity:1;stroke:none"
         d="m 480.25,219.625 c -8.40586,4.16322 -12.06031,13.93026 -17.12251,21.33621 -6.14755,9.21 -10.07293,20.62345 -18.81499,27.63254 -11.52062,3.25607 -23.93922,0.3831 -35.78053,0.5558 -7.61126,0.40159 -16.66698,-1.76707 -23.28197,2.66295 -1.00736,4.72772 5.25834,10.1971 6.625,11.90625 -2.71626,-3.32906 -1.26034,-8.55922 3.28125,-9 18.09004,-3.66784 37.05078,1.9636 55.09375,-1.125 8.01776,-5.48769 11.25158,-15.83717 16.63187,-23.6566 5.74875,-8.78756 10.01809,-19.63551 19.18063,-25.3434 -1.24112,-1.98703 -2.94252,-5.47463 -5.8125,-4.96875 z m 31.96875,53.84375 c 4.99816,5.44387 13.79622,4.84364 20.44437,6.91882 11.60821,2.03763 24.76697,4.41419 35.30563,7.11243 -7.89065,-6.5111 -19.16535,-6.61867 -28.8125,-9.0625 -9.08368,-1.74007 -18.26489,-3.06571 -27.21875,-5.40625 l 0.28125,0.4375 z M 425.8125,319.75 c 1.34346,8.85761 -4.39017,17.27249 -6.82955,25.62014 -2.71093,8.60479 -8.20245,17.57495 -6.67045,26.72361 1.45434,2.22957 6.58967,2.54676 5.72737,-1.29308 2.99562,-14.62181 11.78074,-27.79485 13.64763,-42.51942 -0.33311,-3.35897 -4.67584,-7.42074 -5.875,-8.53125 z"
         id="path4507"
         inkscape:connector-curvature="0" />
      <path
         sodipodi:nodetypes="ccc"
         inkscape:connector-curvature="0"
         id="path4351"
         d="m 448.06306,324.67303 c 16.85271,-2.92039 33.70542,-0.61828 50.55813,3.00521 0,0 -32.70368,37.29988 -50.55813,-3.00521 z"
         style="fill:#000000;stroke:none" />
      <path
         style="fill:#000000;stroke:none"
         d="m 472.5,321.36218 c 0,0 1.25,-13 16.75,-15.25 25.8033,-1.43612 32.31193,36.54058 55.75,30.75 0,0 -15,13.5 -27.75,12.75 -18.30548,-1.07679 -43.75,-1.25 -44.75,-28.25 z"
         id="path4282"
         inkscape:connector-curvature="0"
         sodipodi:nodetypes="cccsc" />
      <path
         sodipodi:nodetypes="cccsc"
         inkscape:connector-curvature="0"
         id="path4278"
         d="m 474,321.36218 c 0,0 0,-10.25 15.5,-12.5 25.8033,-1.43612 26.56193,34.79058 50,29 0,0 -10.25,10 -19.75,10 -18.33712,0 -44.75,0.5 -45.75,-26.5 z"
         style="fill:url(#radialGradient4288);stroke:none" />
      <path
         sodipodi:nodetypes="cccsc"
         inkscape:connector-curvature="0"
         id="path4284"
         d="m 473.15142,321.47081 c 0,0 0.92129,-12.40098 -14.11698,-16.77852 -25.3549,-5.0002 -36.37949,30.27134 -58.7882,21.28672 0,0 11.76435,14.82469 21.17258,16.14198 18.15998,2.54267 46.99837,5.95033 51.7326,-20.65018 z"
         style="fill:#000000;stroke:none" />
      <path
         style="fill:url(#radialGradient4286);stroke:none"
         d="m 471.40142,320.47081 c 0,0 1.42129,-10.15098 -13.61698,-14.52852 -25.3549,-5.0002 -31.12949,30.77134 -53.5382,21.78672 0,0 8.76435,11.32469 18.17258,12.64198 18.15998,2.54267 44.24837,6.70033 48.9826,-19.90018 z"
         id="path4280"
         inkscape:connector-curvature="0"
         sodipodi:nodetypes="cccsc" />
      <g
         transform="matrix(0.84636245,0.06382364,-0.06382364,0.84636245,370.14119,290.16893)"
         inkscape:label="Layer 1"
         id="layer1-3">
        <g
           id="g14130"
           transform="matrix(1.365892,0,0,1.365892,-272.5907,-673.4797)">
          <path
             inkscape:connector-curvature="0"
             sodipodi:nodetypes="ccccccccccc"
             id="path11844"
             d="m 260.77819,525.72774 c -6.22813,5.56195 -9.98125,17.506 -13.0715,23.50455 -4.39589,3.23209 -5.50046,-3.09872 -7.84153,-5.42466 -4.6813,-5.30637 -10.28266,-9.95581 -17.21195,-11.57016 -8.4865,2.30116 -16.6924,7.67563 -18.77508,16.63563 -1.27164,3.70841 2.20417,7.70019 4.39674,10.30546 5.49927,5.7988 11.88319,10.69183 19.85314,12.52582 8.51732,1.29626 16.36657,-1.06127 23.39674,-6.01507 5.85513,-4.05867 7.62205,-10.95137 9.78014,-17.28348 1.49249,-4.24349 4.10569,-12.20999 5.73048,-13.27791 2.54433,0.74848 -4.84614,-5.71795 -6.25718,-9.40018 z"
             style="fill:url(#linearGradient4434);fill-opacity:1;fill-rule:evenodd;stroke:none" />
          <path
             inkscape:connector-curvature="0"
             sodipodi:nodetypes="cccccc"
             id="path12604"
             d="m 259.96816,524.28926 c 0,0 16.5255,-4.4822 25.24597,-2.61165 2.72047,0.87055 5.2233,0.54409 4.89685,2.61165 -0.32646,2.06756 -1.2941,4.96157 -3.47048,4.96157 -7.42637,-2.5 -17.78601,5.67476 -18.87419,6.21886 -1.83819,-1.45591 -5.77752,-7.94378 -7.79815,-11.18043 z"
             style="fill:url(#linearGradient4420);fill-opacity:1;fill-rule:evenodd;stroke:none" />
          <path
             inkscape:connector-curvature="0"
             sodipodi:nodetypes="cccccccccccccccccccccccccccccccccccccccccccccccc"
             id="path11822"
             d="m 277.625,520.75 c -6.3561,0.139 -12.84181,1.03743 -18.625,3.8125 3.25841,2.27337 -2.04042,4.21115 -3.125,6.1875 -4.81349,5.12668 -3.77858,13.26207 -8.71875,18.28125 -4.39589,3.23209 -5.06518,-3.64281 -7.40625,-5.96875 -4.02839,-5.63283 -10.39148,-10.82636 -17.42959,-11.57016 -8.4865,2.30116 -17.01886,8.21972 -19.10154,17.17972 -1.27164,3.70841 1.87772,7.91783 4.07029,10.5231 5.49927,5.7988 12.20964,11.1271 20.17959,12.96109 8.51732,1.29626 17.56358,-0.95245 24.59375,-5.90625 5.85513,-4.05867 7.40441,-11.38664 9.5625,-17.71875 1.49249,-4.24349 2.25577,-8.94543 4.96875,-12.625 2.54433,0.74848 4.78334,-2.15475 7.3125,-3.375 3.84911,-2.3353 8.83798,-5.01829 13.21875,-2.34375 2.34006,-1.17946 5.77838,-4.70061 3.375,-7.34375 -3.14226,-2.21451 -7.51632,-1.84362 -11.28125,-2.09375 -0.52965,-0.005 -1.06415,-0.009 -1.59375,0 z m 0,1 c 3.93857,0.10695 7.62691,-0.3461 11.23456,1.35944 2.49041,2.81645 -1.57762,6.36206 -4.70331,5.04681 -5.42146,-0.51527 -9.7351,2.53954 -14.10166,5.23456 -0.63769,0.44641 -1.71689,1.18257 -2.49209,1.32794 -1.32515,-1.0139 -3.05298,-3.47199 -4.40625,-5.75 -1.18066,-1.98745 -1.76608,-3.22038 -2.03125,-3.75 -0.006,-0.1639 0.0421,-0.348 0,-0.5 5.2146,-2.11096 10.90799,-2.84458 16.5,-2.96875 z m -16.84375,4.35956 c 0.44262,0.84788 0.14921,2.32471 1.02359,3.79657 1.2386,2.08497 3.22576,3.79414 4.69516,5.12512 -0.91394,0.28853 -1.72029,0.77162 -2.03125,2.21875 -3.53338,7.89639 -5.37507,16.39811 -9.86697,23.87512 -5.11364,6.68272 -13.45061,9.04091 -21.56262,9.56263 -6.53697,0.64632 -12.35389,-1.63304 -17.25791,-5.68775 -4.28122,-3.60228 -8.75567,-7.40886 -11.28125,-12.5 -0.51905,-4.92273 2.58531,-9.53912 6.03125,-12.8125 3.4598,-3.19859 7.74201,-5.45697 12.28125,-6.6875 9.22803,1.34151 16.38666,8.98603 19.8125,17.28125 3.43632,2.08731 6.77956,-1.28364 7.875,-4.375 2.5344,-5.19169 2.60713,-11.67119 7.25,-15.6875 1.28672,-0.85039 2.44871,-2.81969 3.03125,-4.10919 z m -37.65625,7.54669 c -5.7265,1.79899 -11.1327,5.27569 -14.3125,10.46875 -1.49288,2.44148 -2.60433,5.16195 -3.03125,8 -0.0204,1.30187 1.56551,1.77755 2.59375,1.3125 2.29099,-0.64392 4.23845,-2.09286 6.09375,-3.53125 2.26232,-1.8718 4.35672,-3.93416 6.34375,-6.09375 1.65046,-1.86765 3.30675,-3.98116 3.625,-6.53125 0.10195,-1.31838 -0.38647,-2.67973 -1.3125,-3.625 z"
             style="fill:#000000;fill-opacity:1;fill-rule:evenodd;stroke:none" />
        </g>
      </g>
      <g
         transform="translate(-31,24.75)"
         id="g4382">
        <path
           sodipodi:type="arc"
           style="fill:#000000;stroke:none"
           id="path4374"
           sodipodi:cx="523.875"
           sodipodi:cy="261.48718"
           sodipodi:rx="11.875"
           sodipodi:ry="11.875"
           d="m 535.75,261.48718 c 0,6.55838 -5.31662,11.875 -11.875,11.875 -6.55838,0 -11.875,-5.31662 -11.875,-11.875 0,-6.55838 5.31662,-11.875 11.875,-11.875 6.55838,0 11.875,5.31662 11.875,11.875 z" />
        <path
           d="m 535.75,261.48718 c 0,6.55838 -5.31662,11.875 -11.875,11.875 -6.55838,0 -11.875,-5.31662 -11.875,-11.875 0,-6.55838 5.31662,-11.875 11.875,-11.875 6.55838,0 11.875,5.31662 11.875,11.875 z"
           sodipodi:ry="11.875"
           sodipodi:rx="11.875"
           sodipodi:cy="261.48718"
           sodipodi:cx="523.875"
           id="path4376"
           style="fill:#ffffff;stroke:none"
           sodipodi:type="arc"
           transform="matrix(0.86315789,0,0,0.84210526,71.313158,41.16245)" />
        <path
           transform="matrix(0.43157894,0,0,0.43157894,296.78158,149.38482)"
           sodipodi:type="arc"
           style="fill:#000000;stroke:none"
           id="path4378"
           sodipodi:cx="523.875"
           sodipodi:cy="261.48718"
           sodipodi:rx="11.875"
           sodipodi:ry="11.875"
           d="m 535.75,261.48718 c 0,6.55838 -5.31662,11.875 -11.875,11.875 -6.55838,0 -11.875,-5.31662 -11.875,-11.875 0,-6.55838 5.31662,-11.875 11.875,-11.875 6.55838,0 11.875,5.31662 11.875,11.875 z" />
        <path
           d="m 535.75,261.48718 c 0,6.55838 -5.31662,11.875 -11.875,11.875 -6.55838,0 -11.875,-5.31662 -11.875,-11.875 0,-6.55838 5.31662,-11.875 11.875,-11.875 6.55838,0 11.875,5.31662 11.875,11.875 z"
           sodipodi:ry="11.875"
           sodipodi:rx="11.875"
           sodipodi:cy="261.48718"
           sodipodi:cx="523.875"
           id="path4380"
           style="fill:#ffffff;stroke:none"
           sodipodi:type="arc"
           transform="matrix(0.22105262,0,0,0.22105262,404.82105,202.93475)" />
      </g>
      <g
         id="g4388"
         transform="translate(-68.25,20.5)">
        <path
           d="m 535.75,261.48718 c 0,6.55838 -5.31662,11.875 -11.875,11.875 -6.55838,0 -11.875,-5.31662 -11.875,-11.875 0,-6.55838 5.31662,-11.875 11.875,-11.875 6.55838,0 11.875,5.31662 11.875,11.875 z"
           sodipodi:ry="11.875"
           sodipodi:rx="11.875"
           sodipodi:cy="261.48718"
           sodipodi:cx="523.875"
           id="path4390"
           style="fill:#000000;stroke:none"
           sodipodi:type="arc" />
        <path
           transform="matrix(0.86315789,0,0,0.84210526,71.313158,41.16245)"
           sodipodi:type="arc"
           style="fill:#ffffff;stroke:none"
           id="path4392"
           sodipodi:cx="523.875"
           sodipodi:cy="261.48718"
           sodipodi:rx="11.875"
           sodipodi:ry="11.875"
           d="m 535.75,261.48718 c 0,6.55838 -5.31662,11.875 -11.875,11.875 -6.55838,0 -11.875,-5.31662 -11.875,-11.875 0,-6.55838 5.31662,-11.875 11.875,-11.875 6.55838,0 11.875,5.31662 11.875,11.875 z" />
        <path
           d="m 535.75,261.48718 c 0,6.55838 -5.31662,11.875 -11.875,11.875 -6.55838,0 -11.875,-5.31662 -11.875,-11.875 0,-6.55838 5.31662,-11.875 11.875,-11.875 6.55838,0 11.875,5.31662 11.875,11.875 z"
           sodipodi:ry="11.875"
           sodipodi:rx="11.875"
           sodipodi:cy="261.48718"
           sodipodi:cx="523.875"
           id="path4394"
           style="fill:#000000;stroke:none"
           sodipodi:type="arc"
           transform="matrix(0.43157894,0,0,0.43157894,296.78158,149.38482)" />
        <path
           transform="matrix(0.22105262,0,0,0.22105262,404.82105,202.93475)"
           sodipodi:type="arc"
           style="fill:#ffffff;stroke:none"
           id="path4396"
           sodipodi:cx="523.875"
           sodipodi:cy="261.48718"
           sodipodi:rx="11.875"
           sodipodi:ry="11.875"
           d="m 535.75,261.48718 c 0,6.55838 -5.31662,11.875 -11.875,11.875 -6.55838,0 -11.875,-5.31662 -11.875,-11.875 0,-6.55838 5.31662,-11.875 11.875,-11.875 6.55838,0 11.875,5.31662 11.875,11.875 z" />
      </g>
      <path
         id="path4353"
         d="m 429.84375,274.75 c -0.83015,0.051 -1.68519,0.2218 -2.5625,0.5 -3.83805,1.39105 -2.89526,4.24441 0.4375,6 -1.35122,1.52126 -2.40167,3.59071 -3.09375,6.34375 -1.23962,10.39978 9.0031,16.79755 16.96875,18.84375 8.66536,1.88903 21.38975,0.15414 23.8125,-8.8125 0.84414,-2.61708 1.05521,-4.86316 0.78125,-6.78125 5.06335,-1.42589 9.18054,-0.93362 12.1875,1.75 -0.91204,1.68874 -1.478,3.80524 -1.625,6.4375 0.75194,10.44637 12.041,14.78035 20.25,15.28125 8.86628,0.2141 21.03765,-3.89307 21.71875,-13.15625 0.38013,-3.11278 0.0383,-5.5683 -0.8125,-7.53125 3.89189,-0.55838 5.8512,-3.04839 2.5625,-5.625 -2.95736,-2.12895 -6.1996,-2.58493 -9.09375,-0.1875 -3.95669,-1.54252 -8.81636,-1.83384 -12.90625,-1.96875 -7.72963,0.0129 -14.67091,0.46936 -18.53125,4.59375 -3.68843,-3.47374 -8.53476,-3.84621 -14.3125,-1.75 -2.39565,-6.2864 -10.77593,-8.47325 -17.21875,-9.9375 -4.5852,-0.8763 -8.90538,-1.4991 -12.625,-1.15625 -1.48815,-2.15159 -3.58802,-2.98797 -5.9375,-2.84375 z m 0.53125,1.8125 c 0.67645,0.05 1.15689,0.53752 1.96875,1.71875 -1.04666,0.3473 -2.02025,0.80628 -2.90625,1.4375 -2.19964,-0.99172 -4.12139,-1.5862 -0.96875,-2.71875 0.86389,-0.29196 1.43122,-0.47259 1.90625,-0.4375 z m 7,3 c 3.38682,-0.0503 7.14496,1.00596 10.75,1.78125 12.93657,3.36607 18.11008,3.50122 15.09375,15.71875 -3.56084,9.15133 -13.42633,8.25632 -20.90625,6.5 -7.91807,-2.20565 -16.77488,-6.52765 -14.875,-15.09375 1.86978,-6.9005 5.58301,-8.84152 9.9375,-8.90625 z m 79.28125,8.65625 c 0.62091,-0.058 1.18304,0.33368 2.15625,1.0625 2.73936,2.13373 0.44934,2.02065 -2.0625,2.3125 -0.62956,-0.82873 -1.41157,-1.52291 -2.25,-2.125 0.99261,-0.77067 1.60977,-1.19897 2.15625,-1.25 z m -24.375,0.0625 c 2.10124,-0.0222 4.29961,0.1113 6.40625,0.15625 13.33991,0.85566 18.42966,0.0264 17.78125,12.59375 -1.76364,9.66002 -11.63534,10.65199 -19.3125,10.34375 -8.19246,-0.66648 -17.71229,-3.26037 -17.46875,-12.03125 0.70581,-9.50627 6.29003,-10.99586 12.59375,-11.0625 z"
         style="font-size:medium;font-style:normal;font-variant:normal;font-weight:normal;font-stretch:normal;text-indent:0;text-align:start;text-decoration:none;line-height:normal;letter-spacing:normal;word-spacing:normal;text-transform:none;direction:ltr;block-progression:tb;writing-mode:lr-tb;text-anchor:start;baseline-shift:baseline;color:#000000;fill:#000000;fill-opacity:1;stroke:none;stroke-width:1;marker:none;visibility:visible;display:inline;overflow:visible;enable-background:accumulate;font-family:Sans;-inkscape-font-specification:Sans"
         inkscape:connector-curvature="0" />
      <path
         sodipodi:nodetypes="cscc"
         inkscape:connector-curvature="0"
         id="path4436"
         d="m 476.75,265.36218 c 0,0 -6.50578,-14.39724 13.25,-10.5 13.53145,2.66936 14.69594,10.71306 45.25,12.75 -3.33991,3.77285 -36.24627,20.76811 -58.5,-2.25 z"
         style="fill:#000000;stroke:none" />
      <path
         style="fill:url(#radialGradient4442);fill-opacity:1;stroke:none"
         d="m 480.25,266.36218 c 0,0 -9.00578,-13.64724 10.75,-9.75 13.53145,2.66936 9.19594,9.46306 39.75,11.5 -3.95162,1.02015 -28.96606,18.02908 -50.5,-1.75 z"
         id="path4438"
         inkscape:connector-curvature="0"
         sodipodi:nodetypes="cscc" />
      <path
         style="fill:#000000;stroke:none"
         d="m 469.82919,263.91763 c 0,0 8.18886,-10.277 -8.53537,-11.17448 -11.45503,-0.61472 -14.03857,5.6321 -39.08813,1.02689 1.92124,3.72464 24.97572,24.15483 47.6235,10.14759 z"
         id="path4444"
         inkscape:connector-curvature="0"
         sodipodi:nodetypes="cscc" />
      <path
         sodipodi:nodetypes="cscc"
         inkscape:connector-curvature="0"
         id="path4446"
         d="m 466.80297,264.00819 c 0,0 10.05104,-9.16116 -6.67319,-10.05864 -11.45503,-0.61472 -9.34881,5.74893 -34.39837,1.14372 2.97725,1.63044 19.66637,20.45799 41.07156,8.91492 z"
         style="fill:url(#radialGradient4448);fill-opacity:1;stroke:none" />
      <path
         style="fill:#000000;stroke:none"
         d="m 373.00597,313.91016 c 0,0 -13.31874,28.72738 2.12132,32.88047 12.23878,3.292 5.3033,-2.82843 -2.12132,-32.88047 z"
         id="path5567"
         inkscape:connector-curvature="0"
         sodipodi:nodetypes="csc" />
      <path
         sodipodi:nodetypes="csc"
         inkscape:connector-curvature="0"
         id="path5569"
         d="m 372.65242,319.39024 c 0.27913,0.13956 -11.00537,22.91345 3.18198,25.45585 8.95042,1.60393 2.65165,-1.591 -3.18198,-25.45585 z"
         style="fill:url(#linearGradient5571);stroke:none" />
    </g>
  </g>
</svg>
