<?xml version="1.0" encoding="UTF-8" standalone="no"?>
<!-- Created with Inkscape (http://www.inkscape.org/) -->
<svg
   xmlns:dc="http://purl.org/dc/elements/1.1/"
   xmlns:cc="http://web.resource.org/cc/"
   xmlns:rdf="http://www.w3.org/1999/02/22-rdf-syntax-ns#"
   xmlns:svg="http://www.w3.org/2000/svg"
   xmlns="http://www.w3.org/2000/svg"
   xmlns:xlink="http://www.w3.org/1999/xlink"
   xmlns:sodipodi="http://sodipodi.sourceforge.net/DTD/sodipodi-0.dtd"
   xmlns:inkscape="http://www.inkscape.org/namespaces/inkscape"
   width="360"
   height="360"
   id="svg2"
   sodipodi:version="0.32"
   inkscape:version="0.45"
   version="1.0"
   sodipodi:docbase="/var/www/html/svg_gallery/svg/game_elements"
   sodipodi:docname="digits.svg"
   inkscape:output_extension="org.inkscape.output.svg.inkscape"
   sodipodi:modified="true">
  <defs
     id="defs4">
    <linearGradient
       id="linearGradient3960">
      <stop
         style="stop-color:#ffffff;stop-opacity:1;"
         offset="0"
         id="stop3962" />
      <stop
         style="stop-color:#ffffff;stop-opacity:0;"
         offset="1"
         id="stop3964" />
    </linearGradient>
    <linearGradient
       id="linearGradient3057">
      <stop
         style="stop-color:#ffffff;stop-opacity:0;"
         offset="0"
         id="stop3059" />
      <stop
         style="stop-color:#000000;stop-opacity:0.33576643;"
         offset="1"
         id="stop3061" />
    </linearGradient>
    <linearGradient
       inkscape:collect="always"
       xlink:href="#linearGradient3960"
       id="linearGradient1556"
       x1="-226.28354"
       y1="-31.806149"
       x2="-163.15625"
       y2="33.193851"
       gradientUnits="userSpaceOnUse"
       gradientTransform="matrix(0.668131,0,0,0.668131,172.3559,31.338)" />
    <linearGradient
       inkscape:collect="always"
       xlink:href="#linearGradient3960"
       id="linearGradient1558"
       x1="-129"
       y1="-33"
       x2="-65.038452"
       y2="52"
       gradientUnits="userSpaceOnUse"
       gradientTransform="matrix(0.668131,0,0,0.668131,182.3559,32.338)" />
    <linearGradient
       inkscape:collect="always"
       xlink:href="#linearGradient3960"
       id="linearGradient1560"
       x1="-0.82425618"
       y1="-39.163792"
       x2="84.278427"
       y2="41.909534"
       gradientUnits="userSpaceOnUse"
       gradientTransform="matrix(0.668131,0,0,0.668131,196.3559,31.338)" />
    <linearGradient
       inkscape:collect="always"
       xlink:href="#linearGradient3960"
       id="linearGradient1562"
       x1="-224.90912"
       y1="104.9375"
       x2="-153.90912"
       y2="177.9375"
       gradientUnits="userSpaceOnUse"
       gradientTransform="matrix(0.668131,0,0,0.668131,172.3559,31.338)" />
    <linearGradient
       inkscape:collect="always"
       xlink:href="#linearGradient3960"
       id="linearGradient1570"
       x1="-124.9375"
       y1="87.856873"
       x2="-56.431316"
       y2="170.85687"
       gradientUnits="userSpaceOnUse"
       gradientTransform="matrix(0.668131,0,0,0.668131,182.3559,32.338)" />
    <linearGradient
       inkscape:collect="always"
       xlink:href="#linearGradient3960"
       id="linearGradient1572"
       x1="-1.3993299"
       y1="110"
       x2="45.27784"
       y2="171"
       gradientUnits="userSpaceOnUse"
       gradientTransform="matrix(0.668131,0,0,0.668131,196.3559,31.338)" />
    <linearGradient
       inkscape:collect="always"
       xlink:href="#linearGradient3960"
       id="linearGradient1574"
       x1="-235.07037"
       y1="221.88599"
       x2="-172.99287"
       y2="309.88599"
       gradientUnits="userSpaceOnUse"
       gradientTransform="matrix(0.668131,0,0,0.668131,172.3559,31.338)" />
    <linearGradient
       inkscape:collect="always"
       xlink:href="#linearGradient3960"
       id="linearGradient1576"
       x1="-131.37732"
       y1="227.36664"
       x2="-42.878731"
       y2="335.36664"
       gradientUnits="userSpaceOnUse"
       gradientTransform="matrix(0.668131,0,0,0.668131,182.3559,32.338)" />
    <linearGradient
       inkscape:collect="always"
       xlink:href="#linearGradient3960"
       id="linearGradient1578"
       x1="-25.177177"
       y1="237.45419"
       x2="66.380318"
       y2="321.45419"
       gradientUnits="userSpaceOnUse"
       gradientTransform="matrix(0.668131,0,0,0.668131,196.3559,31.338)" />
    <linearGradient
       inkscape:collect="always"
       xlink:href="#linearGradient3057"
       id="linearGradient1582"
       gradientUnits="userSpaceOnUse"
       x1="36.822823"
       y1="300.45419"
       x2="94.380318"
       y2="367.45419"
       gradientTransform="matrix(0.668131,0,0,0.668131,196.3559,31.338)" />
    <linearGradient
       inkscape:collect="always"
       xlink:href="#linearGradient3057"
       id="linearGradient1586"
       gradientUnits="userSpaceOnUse"
       x1="-83.377296"
       y1="283.27292"
       x2="-20.878733"
       y2="368.36664"
       gradientTransform="matrix(0.668131,0,0,0.668131,182.3559,32.338)" />
    <linearGradient
       inkscape:collect="always"
       xlink:href="#linearGradient3057"
       id="linearGradient1590"
       gradientUnits="userSpaceOnUse"
       x1="-209.07037"
       y1="284.88599"
       x2="-163.99287"
       y2="361.88599"
       gradientTransform="matrix(0.668131,0,0,0.668131,172.3559,31.338)" />
    <linearGradient
       inkscape:collect="always"
       xlink:href="#linearGradient3057"
       id="linearGradient1594"
       gradientUnits="userSpaceOnUse"
       x1="51.60067"
       y1="165"
       x2="91.955009"
       y2="216.78331"
       gradientTransform="matrix(0.668131,0,0,0.668131,196.3559,31.338)" />
    <linearGradient
       inkscape:collect="always"
       xlink:href="#linearGradient3057"
       id="linearGradient1598"
       gradientUnits="userSpaceOnUse"
       x1="-83.9375"
       y1="149.85687"
       x2="-19.431318"
       y2="222.85687"
       gradientTransform="matrix(0.668131,0,0,0.668131,182.3559,32.338)" />
    <linearGradient
       inkscape:collect="always"
       xlink:href="#linearGradient3057"
       id="linearGradient1602"
       gradientUnits="userSpaceOnUse"
       x1="-177.0728"
       y1="167.9375"
       x2="-129.23648"
       y2="219.9375"
       gradientTransform="matrix(0.668131,0,0,0.668131,172.3559,31.338)" />
    <linearGradient
       inkscape:collect="always"
       xlink:href="#linearGradient3057"
       id="linearGradient1606"
       gradientUnits="userSpaceOnUse"
       x1="39.175743"
       y1="17.909534"
       x2="92.278427"
       y2="74.982857"
       gradientTransform="matrix(0.668131,0,0,0.668131,196.3559,31.338)" />
    <linearGradient
       inkscape:collect="always"
       xlink:href="#linearGradient3057"
       id="linearGradient1610"
       gradientUnits="userSpaceOnUse"
       x1="-78"
       y1="16.088024"
       x2="-18.701904"
       y2="86"
       gradientTransform="matrix(0.668131,0,0,0.668131,182.3559,32.338)" />
    <linearGradient
       inkscape:collect="always"
       xlink:href="#linearGradient3057"
       id="linearGradient1614"
       gradientUnits="userSpaceOnUse"
       x1="-186.21989"
       y1="23.193851"
       x2="-144.15625"
       y2="71.34375"
       gradientTransform="matrix(0.668131,0,0,0.668131,172.3559,31.338)" />
    <linearGradient
       inkscape:collect="always"
       xlink:href="#linearGradient3960"
       id="linearGradient2264"
       x1="269.71805"
       y1="98.93708"
       x2="309.56558"
       y2="149.96216"
       gradientUnits="userSpaceOnUse"
       gradientTransform="translate(-165,178.99583)" />
    <linearGradient
       inkscape:collect="always"
       xlink:href="#linearGradient3057"
       id="linearGradient4217"
       gradientUnits="userSpaceOnUse"
       gradientTransform="translate(-165,178.99583)"
       x1="299.33032"
       y1="137.17392"
       x2="326.46994"
       y2="178.76216" />
  </defs>
  <sodipodi:namedview
     id="base"
     pagecolor="#ffffff"
     bordercolor="#666666"
     borderopacity="1.0"
     inkscape:pageopacity="0.0"
     inkscape:pageshadow="2"
     inkscape:zoom="1.6083333"
     inkscape:cx="140"
     inkscape:cy="179.68912"
     inkscape:document-units="px"
     inkscape:current-layer="layer1"
     inkscape:window-width="1152"
     inkscape:window-height="791"
     inkscape:window-x="0"
     inkscape:window-y="24"
     height="360px"
     width="360px" />
  <metadata
     id="metadata7">
    <rdf:RDF>
      <cc:Work
         rdf:about="">
        <dc:format>image/svg+xml</dc:format>
        <dc:type
           rdf:resource="http://purl.org/dc/dcmitype/StillImage" />
      </cc:Work>
    </rdf:RDF>
  </metadata>
  <g
     inkscape:label="Layer 1"
     inkscape:groupmode="layer"
     id="layer1">
    <g
       id="g2560"
       transform="translate(41.658032,-8.0829016)">
      <path
         id="path2523"
         d="M 228.64455,194.78907 C 210.33589,195.19971 197.9314,205.86566 197.9314,221.20113 C 197.9314,236.63073 209.38056,247.19561 226.15994,247.19561 C 230.95405,247.19562 235.48624,246.15136 238.41597,244.46045 C 240.14717,243.5093 241.19922,242.55215 244.26212,239.80441 C 244.26212,254.0715 239.20672,261.14285 228.68631,261.14285 C 222.16099,261.14285 217.64407,258.29469 217.24456,253.85604 L 199.24678,253.85604 C 199.64628,265.37541 211.91763,273.83734 228.16433,273.83734 C 240.28278,273.83734 249.46349,269.8168 255.05661,262.20768 C 259.98389,255.54971 262.90715,244.25219 262.90715,232.20442 C 262.90715,221.31915 260.6543,212.64626 256.39287,207.0451 C 250.40024,199.01324 241.07056,194.78907 229.75114,194.78907 C 229.38181,194.78907 229.00926,194.78089 228.64455,194.78907 z M 228.54016,206.83631 C 228.76149,206.82814 229.00341,206.83631 229.22917,206.83631 C 238.28471,206.83632 243.86541,212.42951 243.86541,221.20113 C 243.86541,229.44434 238.00257,234.93958 229.47972,234.93958 C 220.95687,234.93957 215.63687,229.5526 215.63687,220.99234 C 215.63687,212.56336 220.66699,207.12694 228.54016,206.83631 z "
         style="font-size:177.55882263px;font-style:normal;font-variant:normal;font-weight:bold;font-stretch:normal;text-align:start;line-height:125%;writing-mode:lr-tb;text-anchor:start;fill:#000000;fill-opacity:0.37647059;stroke:none;stroke-width:1px;stroke-linecap:butt;stroke-linejoin:miter;stroke-opacity:1;font-family:Nimbus Sans L" />
      <path
         style="font-size:177.55882263px;font-style:normal;font-variant:normal;font-weight:bold;font-stretch:normal;text-align:start;line-height:125%;writing-mode:lr-tb;text-anchor:start;fill:#000000;fill-opacity:0.37647059;stroke:none;stroke-width:1px;stroke-linecap:butt;stroke-linejoin:miter;stroke-opacity:1;font-family:Nimbus Sans L"
         d="M 227.74711,193.89163 C 209.43845,194.30227 197.03396,204.96822 197.03396,220.30369 C 197.03396,235.73329 208.48312,246.29817 225.2625,246.29817 C 230.05661,246.29818 234.5888,245.25392 237.51853,243.56301 C 239.24973,242.61186 240.30178,241.65471 243.36468,238.90697 C 243.36468,253.17406 238.30928,260.24541 227.78887,260.24541 C 221.26355,260.24541 216.74663,257.39725 216.34712,252.9586 L 198.34934,252.9586 C 198.74884,264.47797 211.02019,272.9399 227.26689,272.9399 C 239.38534,272.9399 248.56605,268.91936 254.15917,261.31024 C 259.08645,254.65227 262.00971,243.35475 262.00971,231.30698 C 262.00971,220.42171 259.75686,211.74882 255.49543,206.14766 C 249.5028,198.1158 240.17312,193.89163 228.8537,193.89163 C 228.48437,193.89163 228.11182,193.88345 227.74711,193.89163 z M 227.64272,205.93887 C 227.86405,205.9307 228.10597,205.93887 228.33173,205.93887 C 237.38727,205.93888 242.96797,211.53207 242.96797,220.30369 C 242.96797,228.5469 237.10513,234.04214 228.58228,234.04214 C 220.05943,234.04213 214.73943,228.65516 214.73943,220.0949 C 214.73943,211.66592 219.76955,206.2295 227.64272,205.93887 z "
         id="path1632" />
      <path
         id="path1414"
         d="M 226.40095,192.54548 C 208.09229,192.95612 195.6878,203.62207 195.6878,218.95754 C 195.6878,234.38714 207.13696,244.95202 223.91634,244.95202 C 228.71045,244.95203 233.24264,243.90777 236.17237,242.21686 C 237.90357,241.26571 238.95562,240.30856 242.01852,237.56082 C 242.01852,251.82791 236.96312,258.89926 226.44271,258.89926 C 219.91739,258.89926 215.40047,256.0511 215.00096,251.61245 L 197.00318,251.61245 C 197.40268,263.13182 209.67403,271.59375 225.92073,271.59375 C 238.03918,271.59375 247.21989,267.57321 252.81301,259.96409 C 257.74029,253.30612 260.66355,242.0086 260.66355,229.96083 C 260.66355,219.07556 258.4107,210.40267 254.14927,204.80151 C 248.15664,196.76965 238.82696,192.54548 227.50754,192.54548 C 227.13821,192.54548 226.76566,192.5373 226.40095,192.54548 z M 226.29656,204.59272 C 226.51789,204.58455 226.75981,204.59272 226.98557,204.59272 C 236.04111,204.59273 241.62181,210.18592 241.62181,218.95754 C 241.62181,227.20075 235.75897,232.69599 227.23612,232.69599 C 218.71327,232.69598 213.39327,227.30901 213.39327,218.74875 C 213.39327,210.31977 218.42339,204.88335 226.29656,204.59272 z "
         style="font-size:177.55882263px;font-style:normal;font-variant:normal;font-weight:bold;font-stretch:normal;text-align:start;line-height:125%;writing-mode:lr-tb;text-anchor:start;fill:#00fff9;fill-opacity:1;stroke:none;stroke-width:1px;stroke-linecap:butt;stroke-linejoin:miter;stroke-opacity:1;font-family:Nimbus Sans L" />
      <path
         id="path1518"
         d="M 226.92293,193.83999 C 214.58733,193.55302 200.5987,200.3209 197.67131,213.15315 C 194.26867,225.73078 202.55434,240.27726 215.64822,242.61356 C 224.61303,244.98734 235.67267,243.55101 241.76797,235.93225 C 244.60908,236.03165 243.07054,240.18365 243.14599,241.88279 C 243.25336,250.21191 237.88517,259.69294 228.86469,260.13112 C 223.19682,260.86507 215.63932,259.14373 213.89437,252.96959 C 208.76107,253.14905 203.59768,252.54123 198.4856,253.19926 C 200.3819,264.23228 212.56211,269.65612 222.72349,270.15095 C 235.32378,271.45646 250.18811,266.2784 254.82753,253.54452 C 260.5655,239.8605 260.98636,223.73986 255.71521,209.89601 C 250.65819,199.18127 238.42021,193.37954 226.92293,193.83999 z M 227.71634,203.19382 C 236.03773,202.9992 243.47365,210.28759 243.04159,218.66523 C 243.46884,227.07786 235.90321,234.49652 227.57018,234.11577 C 219.81775,234.56399 212.19776,228.42964 212.05701,220.52347 C 210.97496,212.36158 216.80555,203.31931 225.48227,203.29822 C 226.22711,203.26464 226.97017,203.19517 227.71634,203.19382 z "
         style="font-size:177.55882263px;font-style:normal;font-variant:normal;font-weight:bold;font-stretch:normal;text-align:start;line-height:125%;writing-mode:lr-tb;text-anchor:start;fill:url(#linearGradient1578);fill-opacity:1;stroke:none;stroke-width:1px;stroke-linecap:butt;stroke-linejoin:miter;stroke-opacity:1;font-family:Nimbus Sans L" />
      <path
         style="font-size:177.55882263px;font-style:normal;font-variant:normal;font-weight:bold;font-stretch:normal;text-align:start;line-height:125%;writing-mode:lr-tb;text-anchor:start;fill:url(#linearGradient1582);fill-opacity:1;stroke:none;stroke-width:1px;stroke-linecap:butt;stroke-linejoin:miter;stroke-opacity:1;font-family:Nimbus Sans L"
         d="M 226.92293,193.83999 C 214.58733,193.55302 200.5987,200.3209 197.67131,213.15315 C 194.26867,225.73078 202.55434,240.27726 215.64822,242.61356 C 224.61303,244.98734 235.67267,243.55101 241.76797,235.93225 C 244.60908,236.03165 243.07054,240.18365 243.14599,241.88279 C 243.25336,250.21191 237.88517,259.69294 228.86469,260.13112 C 223.19682,260.86507 215.63932,259.14373 213.89437,252.96959 C 208.76107,253.14905 203.59768,252.54123 198.4856,253.19926 C 200.3819,264.23228 212.56211,269.65612 222.72349,270.15095 C 235.32378,271.45646 250.18811,266.2784 254.82753,253.54452 C 260.5655,239.8605 260.98636,223.73986 255.71521,209.89601 C 250.65819,199.18127 238.42021,193.37954 226.92293,193.83999 z M 227.71634,203.19382 C 236.03773,202.9992 243.47365,210.28759 243.04159,218.66523 C 243.46884,227.07786 235.90321,234.49652 227.57018,234.11577 C 219.81775,234.56399 212.19776,228.42964 212.05701,220.52347 C 210.97496,212.36158 216.80555,203.31931 225.48227,203.29822 C 226.22711,203.26464 226.97017,203.19517 227.71634,203.19382 z "
         id="path1580" />
    </g>
    <g
       id="g2567"
       transform="translate(41.658032,-8.0829016)">
      <path
         id="path2521"
         d="M 141.15012,195.78907 C 124.31063,196.23923 112.19081,204.67411 112.19081,216.18795 C 112.19081,223.37434 115.92398,227.92001 124.44685,231.51321 C 113.52693,236.16323 108.99631,241.86556 108.99631,250.74286 C 108.99631,264.90427 122.70674,274.73294 142.54902,274.73294 C 162.25814,274.73294 175.97646,264.90427 175.97646,250.74286 C 175.97646,241.86556 171.44584,236.16323 160.52593,231.51321 C 163.722,230.13934 165.19951,229.39641 166.66438,228.33959 C 170.5263,225.48617 172.78196,220.94494 172.78196,216.08356 C 172.78195,204.35283 159.99426,195.78907 142.54902,195.78907 C 142.13703,195.78907 141.74466,195.77974 141.33804,195.78907 C 141.27185,195.79059 141.21616,195.78731 141.15012,195.78907 z M 141.63034,207.73192 C 141.69182,207.72936 141.75645,207.73402 141.81826,207.73192 C 142.10649,207.72209 142.40023,207.73192 142.69518,207.73192 C 150.9517,207.73192 156.66329,211.73258 156.66329,217.54509 C 156.66329,223.25194 150.81853,227.37915 142.69518,227.37915 C 134.43865,227.37914 128.58091,223.25323 128.58091,217.4407 C 128.5809,211.97752 133.82196,208.05615 141.63034,207.73192 z M 141.79738,237.422 C 142.00309,237.41668 142.21463,237.422 142.42375,237.422 C 151.61246,237.422 157.33143,242.27513 157.33143,250.09561 C 157.33143,257.28201 151.47929,262.03845 142.42375,262.03845 C 133.36822,262.03845 127.64135,257.28457 127.64135,249.88682 C 127.64135,242.45604 133.22584,237.6434 141.79738,237.422 z "
         style="font-size:177.55882263px;font-style:normal;font-variant:normal;font-weight:bold;font-stretch:normal;text-align:start;line-height:125%;writing-mode:lr-tb;text-anchor:start;fill:#000000;fill-opacity:0.37647059;stroke:none;stroke-width:1px;stroke-linecap:butt;stroke-linejoin:miter;stroke-opacity:1;font-family:Nimbus Sans L" />
      <path
         style="font-size:177.55882263px;font-style:normal;font-variant:normal;font-weight:bold;font-stretch:normal;text-align:start;line-height:125%;writing-mode:lr-tb;text-anchor:start;fill:#000000;fill-opacity:0.37647059;stroke:none;stroke-width:1px;stroke-linecap:butt;stroke-linejoin:miter;stroke-opacity:1;font-family:Nimbus Sans L"
         d="M 140.25268,194.89163 C 123.41319,195.34179 111.29337,203.77667 111.29337,215.29051 C 111.29337,222.4769 115.02654,227.02257 123.54941,230.61577 C 112.62949,235.26579 108.09887,240.96812 108.09887,249.84542 C 108.09887,264.00683 121.8093,273.8355 141.65158,273.8355 C 161.3607,273.8355 175.07902,264.00683 175.07902,249.84542 C 175.07902,240.96812 170.5484,235.26579 159.62849,230.61577 C 162.82456,229.2419 164.30207,228.49897 165.76694,227.44215 C 169.62886,224.58873 171.88452,220.0475 171.88452,215.18612 C 171.88451,203.45539 159.09682,194.89163 141.65158,194.89163 C 141.23959,194.89163 140.84722,194.8823 140.4406,194.89163 C 140.37441,194.89315 140.31872,194.88987 140.25268,194.89163 z M 140.7329,206.83448 C 140.79438,206.83192 140.85901,206.83658 140.92082,206.83448 C 141.20905,206.82465 141.50279,206.83448 141.79774,206.83448 C 150.05426,206.83448 155.76585,210.83514 155.76585,216.64765 C 155.76585,222.3545 149.92109,226.48171 141.79774,226.48171 C 133.54121,226.4817 127.68347,222.35579 127.68347,216.54326 C 127.68346,211.08008 132.92452,207.15871 140.7329,206.83448 z M 140.89994,236.52456 C 141.10565,236.51924 141.31719,236.52456 141.52631,236.52456 C 150.71502,236.52456 156.43399,241.37769 156.43399,249.19817 C 156.43399,256.38457 150.58185,261.14101 141.52631,261.14101 C 132.47078,261.14101 126.74391,256.38713 126.74391,248.98938 C 126.74391,241.5586 132.3284,236.74596 140.89994,236.52456 z "
         id="path1630" />
      <path
         id="path1420"
         d="M 138.90652,193.54548 C 122.06703,193.99564 109.94721,202.43052 109.94721,213.94436 C 109.94721,221.13075 113.68038,225.67642 122.20325,229.26962 C 111.28333,233.91964 106.75271,239.62197 106.75271,248.49927 C 106.75271,262.66068 120.46314,272.48935 140.30542,272.48935 C 160.01454,272.48935 173.73286,262.66068 173.73286,248.49927 C 173.73286,239.62197 169.20224,233.91964 158.28233,229.26962 C 161.4784,227.89575 162.95591,227.15282 164.42078,226.096 C 168.2827,223.24258 170.53836,218.70135 170.53836,213.83997 C 170.53835,202.10924 157.75066,193.54548 140.30542,193.54548 C 139.89343,193.54548 139.50106,193.53615 139.09444,193.54548 C 139.02825,193.547 138.97256,193.54372 138.90652,193.54548 z M 139.38674,205.48833 C 139.44822,205.48577 139.51285,205.49043 139.57466,205.48833 C 139.86289,205.4785 140.15663,205.48833 140.45158,205.48833 C 148.7081,205.48833 154.41969,209.48899 154.41969,215.3015 C 154.41969,221.00835 148.57493,225.13556 140.45158,225.13556 C 132.19505,225.13555 126.33731,221.00964 126.33731,215.19711 C 126.3373,209.73393 131.57836,205.81256 139.38674,205.48833 z M 139.55378,235.17841 C 139.75949,235.17309 139.97103,235.17841 140.18015,235.17841 C 149.36886,235.17841 155.08783,240.03154 155.08783,247.85202 C 155.08783,255.03842 149.23569,259.79486 140.18015,259.79486 C 131.12462,259.79486 125.39775,255.04098 125.39775,247.64323 C 125.39775,240.21245 130.98224,235.39981 139.55378,235.17841 z "
         style="font-size:177.55882263px;font-style:normal;font-variant:normal;font-weight:bold;font-stretch:normal;text-align:start;line-height:125%;writing-mode:lr-tb;text-anchor:start;fill:#ff008a;fill-opacity:1;stroke:none;stroke-width:1px;stroke-linecap:butt;stroke-linejoin:miter;stroke-opacity:1;font-family:Nimbus Sans L" />
      <path
         id="path1516"
         d="M 138.19664,194.90262 C 127.73272,195.25862 115.17801,199.34573 111.68018,210.35316 C 109.37559,218.0097 115.0639,225.7816 122.37028,227.80808 C 124.45666,227.97925 124.49093,230.64883 122.41204,230.6894 C 114.06457,233.37019 106.57963,241.27131 108.15161,250.58718 C 109.51508,262.79884 122.4142,269.8685 133.64499,270.69375 C 146.92695,272.48394 163.42648,269.48118 170.45484,257.01794 C 174.86288,248.51309 171.65907,236.77995 162.62518,232.8817 C 160.60076,231.35387 155.43166,230.05286 155.28762,228.96767 C 163.10641,227.2753 170.74439,220.25922 169.03506,211.64766 C 167.17212,201.36963 155.88653,196.24878 146.423,195.25757 C 143.69567,194.92557 140.94242,194.82093 138.19664,194.90262 z M 140.63949,204.08943 C 147.43192,203.85484 156.11382,207.95105 155.73508,215.73996 C 155.21416,223.67775 145.86341,227.22876 138.82301,226.43006 C 131.93327,226.59207 123.5629,220.97171 125.18896,213.35975 C 126.56465,206.50943 134.48042,204.02719 140.63949,204.08943 z M 140.91092,233.77951 C 148.8205,233.50558 157.07492,239.64208 156.48673,248.06081 C 156.4963,256.51326 147.68361,261.77992 139.90898,261.21232 C 132.58686,261.41316 124.35939,256.65634 124.06149,248.79158 C 123.055,240.21837 131.2671,233.29674 139.49114,233.84214 C 139.96355,233.80626 140.43723,233.78627 140.91092,233.77951 z "
         style="font-size:177.55882263px;font-style:normal;font-variant:normal;font-weight:bold;font-stretch:normal;text-align:start;line-height:125%;writing-mode:lr-tb;text-anchor:start;fill:url(#linearGradient1576);fill-opacity:1;stroke:none;stroke-width:1px;stroke-linecap:butt;stroke-linejoin:miter;stroke-opacity:1;font-family:Nimbus Sans L" />
      <path
         style="font-size:177.55882263px;font-style:normal;font-variant:normal;font-weight:bold;font-stretch:normal;text-align:start;line-height:125%;writing-mode:lr-tb;text-anchor:start;fill:url(#linearGradient1586);fill-opacity:1;stroke:none;stroke-width:1px;stroke-linecap:butt;stroke-linejoin:miter;stroke-opacity:1;font-family:Nimbus Sans L"
         d="M 138.19664,194.90262 C 127.73272,195.25862 115.17801,199.34573 111.68018,210.35316 C 109.37559,218.0097 115.0639,225.7816 122.37028,227.80808 C 124.45666,227.97925 124.49093,230.64883 122.41204,230.6894 C 114.06457,233.37019 106.57963,241.27131 108.15161,250.58718 C 109.51508,262.79884 122.4142,269.8685 133.64499,270.69375 C 146.92695,272.48394 163.42648,269.48118 170.45484,257.01794 C 174.86288,248.51309 171.65907,236.77995 162.62518,232.8817 C 160.60076,231.35387 155.43166,230.05286 155.28762,228.96767 C 163.10641,227.2753 170.74439,220.25922 169.03506,211.64766 C 167.17212,201.36963 155.88653,196.24878 146.423,195.25757 C 143.69567,194.92557 140.94242,194.82093 138.19664,194.90262 z M 140.63949,204.08943 C 147.43192,203.85484 156.11382,207.95105 155.73508,215.73996 C 155.21416,223.67775 145.86341,227.22876 138.82301,226.43006 C 131.93327,226.59207 123.5629,220.97171 125.18896,213.35975 C 126.56465,206.50943 134.48042,204.02719 140.63949,204.08943 z M 140.91092,233.77951 C 148.8205,233.50558 157.07492,239.64208 156.48673,248.06081 C 156.4963,256.51326 147.68361,261.77992 139.90898,261.21232 C 132.58686,261.41316 124.35939,256.65634 124.06149,248.79158 C 123.055,240.21837 131.2671,233.29674 139.49114,233.84214 C 139.96355,233.80626 140.43723,233.78627 140.91092,233.77951 z "
         id="path1584" />
    </g>
    <g
       id="g2553"
       transform="translate(41.658032,-8.0829016)">
      <path
         id="path2519"
         d="M 92.25475,196.36876 L 25.803,196.36876 L 25.803,209.57904 L 72.81194,209.57904 C 67.08565,214.44043 55.7662,228.07345 52.03745,234.62574 C 45.51214,245.51101 42.18289,255.33949 39.65266,271.2975 L 58.4296,271.2975 C 60.16081,247.62469 69.88223,229.44729 92.25475,207.99381 L 92.25475,196.36876"
         style="font-size:177.55882263px;font-style:normal;font-variant:normal;font-weight:bold;font-stretch:normal;text-align:start;line-height:125%;writing-mode:lr-tb;text-anchor:start;fill:#000000;fill-opacity:0.37647059;stroke:none;stroke-width:1px;stroke-linecap:butt;stroke-linejoin:miter;stroke-opacity:1;font-family:Nimbus Sans L" />
      <path
         style="font-size:177.55882263px;font-style:normal;font-variant:normal;font-weight:bold;font-stretch:normal;text-align:start;line-height:125%;writing-mode:lr-tb;text-anchor:start;fill:#000000;fill-opacity:0.37647059;stroke:none;stroke-width:1px;stroke-linecap:butt;stroke-linejoin:miter;stroke-opacity:1;font-family:Nimbus Sans L"
         d="M 91.35731,195.47132 L 24.905564,195.47132 L 24.905564,208.6816 L 71.914504,208.6816 C 66.188214,213.54299 54.868764,227.17601 51.140014,233.7283 C 44.614704,244.61357 41.285454,254.44205 38.755224,270.40006 L 57.532164,270.40006 C 59.263374,246.72725 68.984794,228.54985 91.35731,207.09637 L 91.35731,195.47132"
         id="path1628" />
      <path
         id="path1422"
         d="M 90.01115,194.12517 L 23.55941,194.12517 L 23.55941,207.33545 L 70.56835,207.33545 C 64.84206,212.19684 53.52261,225.82986 49.79386,232.38215 C 43.26855,243.26742 39.9393,253.0959 37.40907,269.05391 L 56.18601,269.05391 C 57.91722,245.3811 67.63864,227.2037 90.01115,205.75022 L 90.01115,194.12517"
         style="font-size:177.55882263px;font-style:normal;font-variant:normal;font-weight:bold;font-stretch:normal;text-align:start;line-height:125%;writing-mode:lr-tb;text-anchor:start;fill:#a212a4;fill-opacity:1;stroke:none;stroke-width:1px;stroke-linecap:butt;stroke-linejoin:miter;stroke-opacity:1;font-family:Nimbus Sans L" />
      <path
         id="path1514"
         d="M 86.96042,195.4268 C 66.27862,195.52443 45.57647,195.44058 24.88686,195.46856 C 25.8794,198.65183 22.69205,206.015 26.89125,205.99162 C 42.62713,205.99162 58.36301,205.99162 74.09889,205.99162 C 57.4949,220.63487 43.7146,239.77162 39.99454,262.10105 C 38.31043,266.49811 39.1946,268.98101 44.34618,267.71024 C 47.54745,266.91306 53.75805,269.33251 55.01539,266.45749 C 56.87213,243.2345 70.23181,222.66639 86.7725,207.03558 C 89.63816,205.14312 88.04566,201.82286 88.81866,199.03888 C 88.95144,197.65429 89.17364,194.89596 86.96042,195.4268 z "
         style="font-size:177.55882263px;font-style:normal;font-variant:normal;font-weight:bold;font-stretch:normal;text-align:start;line-height:125%;writing-mode:lr-tb;text-anchor:start;fill:url(#linearGradient1574);fill-opacity:1;stroke:none;stroke-width:1px;stroke-linecap:butt;stroke-linejoin:miter;stroke-opacity:1;font-family:Nimbus Sans L" />
      <path
         style="font-size:177.55882263px;font-style:normal;font-variant:normal;font-weight:bold;font-stretch:normal;text-align:start;line-height:125%;writing-mode:lr-tb;text-anchor:start;fill:url(#linearGradient1590);fill-opacity:1;stroke:none;stroke-width:1px;stroke-linecap:butt;stroke-linejoin:miter;stroke-opacity:1;font-family:Nimbus Sans L"
         d="M 86.96042,195.4268 C 66.27862,195.52443 45.57647,195.44058 24.88686,195.46856 C 25.8794,198.65183 22.69205,206.015 26.89125,205.99162 C 42.62713,205.99162 58.36301,205.99162 74.09889,205.99162 C 57.4949,220.63487 43.7146,239.77162 39.99454,262.10105 C 38.31043,266.49811 39.1946,268.98101 44.34618,267.71024 C 47.54745,266.91306 53.75805,269.33251 55.01539,266.45749 C 56.87213,243.2345 70.23181,222.66639 86.7725,207.03558 C 89.63816,205.14312 88.04566,201.82286 88.81866,199.03888 C 88.95144,197.65429 89.17364,194.89596 86.96042,195.4268 z "
         id="path1588" />
    </g>
    <g
       id="g2578"
       style="opacity:1"
       transform="translate(41.658032,-5.5958549)">
      <path
         id="path2517"
         d="M 230.10609,100.77049 C 218.94577,101.04922 209.84539,105.13962 204.3204,112.37927 C 198.72728,119.67133 196.44898,128.03964 196.44898,141.67265 C 196.44898,154.56588 198.46146,162.5828 203.25557,168.60668 C 208.71554,175.58172 218.56488,179.71436 229.75114,179.71436 C 248.52807,179.71437 261.29946,168.51252 261.29946,152.23747 C 261.29946,137.86469 250.11103,127.9342 233.86433,127.9342 C 226.14048,127.93421 220.95348,129.71237 215.09402,134.57375 C 215.49353,126.64758 215.50599,126.65742 216.305,123.48695 C 218.03621,116.72329 223.35848,112.71334 230.81598,112.71334 C 236.80861,112.71334 240.00682,114.61807 242.40388,119.37377 L 259.71265,119.37377 C 258.78047,114.51239 257.57894,112.07866 255.18189,109.33092 C 250.25461,103.94113 241.59202,100.77049 231.33796,100.77049 C 230.92596,100.77049 230.51274,100.76034 230.10609,100.77049 z M 231.04565,138.20672 C 231.14632,138.20515 231.2574,138.20672 231.35884,138.20672 C 240.01486,138.20672 245.59838,143.59756 245.59838,151.84077 C 245.59838,159.87261 239.46921,165.68361 231.21268,165.68361 C 222.68983,165.68361 216.82698,160.08012 216.82698,152.15395 C 216.82698,144.00734 222.55625,138.33847 231.04565,138.20672 z "
         style="font-size:177.55882263px;font-style:normal;font-variant:normal;font-weight:bold;font-stretch:normal;text-align:start;line-height:125%;writing-mode:lr-tb;text-anchor:start;fill:#000000;fill-opacity:0.37647059;stroke:none;stroke-width:1px;stroke-linecap:butt;stroke-linejoin:miter;stroke-opacity:1;font-family:Nimbus Sans L" />
      <path
         style="font-size:177.55882263px;font-style:normal;font-variant:normal;font-weight:bold;font-stretch:normal;text-align:start;line-height:125%;writing-mode:lr-tb;text-anchor:start;fill:#000000;fill-opacity:0.37647059;stroke:none;stroke-width:1px;stroke-linecap:butt;stroke-linejoin:miter;stroke-opacity:1;font-family:Nimbus Sans L"
         d="M 229.20865,99.87305 C 218.04833,100.15178 208.94795,104.24218 203.42296,111.48183 C 197.82984,118.77389 195.55154,127.1422 195.55154,140.77521 C 195.55154,153.66844 197.56402,161.68536 202.35813,167.70924 C 207.8181,174.68428 217.66744,178.81692 228.8537,178.81692 C 247.63063,178.81693 260.40202,167.61508 260.40202,151.34003 C 260.40202,136.96725 249.21359,127.03676 232.96689,127.03676 C 225.24304,127.03677 220.05604,128.81493 214.19658,133.67631 C 214.59609,125.75014 214.60855,125.75998 215.40756,122.58951 C 217.13877,115.82585 222.46104,111.8159 229.91854,111.8159 C 235.91117,111.8159 239.10938,113.72063 241.50644,118.47633 L 258.81521,118.47633 C 257.88303,113.61495 256.6815,111.18122 254.28445,108.43348 C 249.35717,103.04369 240.69458,99.87305 230.44052,99.87305 C 230.02852,99.87305 229.6153,99.8629 229.20865,99.87305 z M 230.14821,137.30928 C 230.24888,137.30771 230.35996,137.30928 230.4614,137.30928 C 239.11742,137.30928 244.70094,142.70012 244.70094,150.94333 C 244.70094,158.97517 238.57177,164.78617 230.31524,164.78617 C 221.79239,164.78617 215.92954,159.18268 215.92954,151.25651 C 215.92954,143.1099 221.65881,137.44103 230.14821,137.30928 z "
         id="path1626" />
      <path
         id="path1426"
         d="M 227.86249,98.5269 C 216.70217,98.80563 207.60179,102.89603 202.0768,110.13568 C 196.48368,117.42774 194.20538,125.79605 194.20538,139.42906 C 194.20538,152.32229 196.21786,160.33921 201.01197,166.36309 C 206.47194,173.33813 216.32128,177.47077 227.50754,177.47077 C 246.28447,177.47078 259.05586,166.26893 259.05586,149.99388 C 259.05586,135.6211 247.86743,125.69061 231.62073,125.69061 C 223.89688,125.69062 218.70988,127.46878 212.85042,132.33016 C 213.24993,124.40399 213.26239,124.41383 214.0614,121.24336 C 215.79261,114.4797 221.11488,110.46975 228.57238,110.46975 C 234.56501,110.46975 237.76322,112.37448 240.16028,117.13018 L 257.46905,117.13018 C 256.53687,112.2688 255.33534,109.83507 252.93829,107.08733 C 248.01101,101.69754 239.34842,98.5269 229.09436,98.5269 C 228.68236,98.5269 228.26914,98.51675 227.86249,98.5269 z M 228.80205,135.96313 C 228.90272,135.96156 229.0138,135.96313 229.11524,135.96313 C 237.77126,135.96313 243.35478,141.35397 243.35478,149.59718 C 243.35478,157.62902 237.22561,163.44002 228.96908,163.44002 C 220.44623,163.44002 214.58338,157.83653 214.58338,149.91036 C 214.58338,141.76375 220.31265,136.09488 228.80205,135.96313 z "
         style="font-size:177.55882263px;font-style:normal;font-variant:normal;font-weight:bold;font-stretch:normal;text-align:start;line-height:125%;writing-mode:lr-tb;text-anchor:start;fill:#fef708;fill-opacity:1;stroke:none;stroke-width:1px;stroke-linecap:butt;stroke-linejoin:miter;stroke-opacity:1;font-family:Nimbus Sans L" />
      <path
         id="path1512"
         d="M 227.63282,99.88404 C 214.33684,99.56413 200.80483,108.32011 197.77571,121.59831 C 194.38662,133.59937 194.78847,146.81366 198.13065,158.7631 C 202.5007,170.36064 215.30958,176.47343 227.25699,176.15539 C 239.9171,176.62378 253.88821,169.68584 256.98883,156.5708 C 259.99558,145.66619 254.40238,132.52178 243.18775,129.11478 C 232.64184,124.94717 219.2692,126.72061 211.43064,135.37851 C 211.43162,126.84508 211.56845,115.60593 220.17898,111.09612 C 226.89169,107.54592 237.33945,108.34321 240.99544,115.79392 C 245.82195,115.58551 251.46886,116.23518 255.79872,115.48073 C 253.03472,103.3233 238.53687,99.39872 227.63282,99.88404 z M 229.49106,134.5851 C 237.8748,134.20715 245.46815,141.60232 244.75368,150.05652 C 244.76491,159.20488 235.4324,166.26273 226.58886,164.71364 C 218.1229,164.00766 211.48587,155.29787 213.45591,146.90377 C 214.60427,139.36274 222.03972,134.14093 229.49106,134.5851 z "
         style="font-size:177.55882263px;font-style:normal;font-variant:normal;font-weight:bold;font-stretch:normal;text-align:start;line-height:125%;writing-mode:lr-tb;text-anchor:start;fill:url(#linearGradient1572);fill-opacity:1;stroke:none;stroke-width:1px;stroke-linecap:butt;stroke-linejoin:miter;stroke-opacity:1;font-family:Nimbus Sans L" />
      <path
         style="font-size:177.55882263px;font-style:normal;font-variant:normal;font-weight:bold;font-stretch:normal;text-align:start;line-height:125%;writing-mode:lr-tb;text-anchor:start;fill:url(#linearGradient1594);fill-opacity:1;stroke:none;stroke-width:1px;stroke-linecap:butt;stroke-linejoin:miter;stroke-opacity:1;font-family:Nimbus Sans L"
         d="M 227.63282,99.88404 C 214.33684,99.56413 200.80483,108.32011 197.77571,121.59831 C 194.38662,133.59937 194.78847,146.81366 198.13065,158.7631 C 202.5007,170.36064 215.30958,176.47343 227.25699,176.15539 C 239.9171,176.62378 253.88821,169.68584 256.98883,156.5708 C 259.99558,145.66619 254.40238,132.52178 243.18775,129.11478 C 232.64184,124.94717 219.2692,126.72061 211.43064,135.37851 C 211.43162,126.84508 211.56845,115.60593 220.17898,111.09612 C 226.89169,107.54592 237.33945,108.34321 240.99544,115.79392 C 245.82195,115.58551 251.46886,116.23518 255.79872,115.48073 C 253.03472,103.3233 238.53687,99.39872 227.63282,99.88404 z M 229.49106,134.5851 C 237.8748,134.20715 245.46815,141.60232 244.75368,150.05652 C 244.76491,159.20488 235.4324,166.26273 226.58886,164.71364 C 218.1229,164.00766 211.48587,155.29787 213.45591,146.90377 C 214.60427,139.36274 222.03972,134.14093 229.49106,134.5851 z "
         id="path1592" />
    </g>
    <g
       id="g2585"
       transform="translate(41.658032,-5.5958549)">
      <path
         id="path2515"
         d="M 169.18447,103.34937 L 118.7131,103.34937 L 110.3234,145.09387 L 127.1028,145.09387 C 129.10035,141.39499 133.36179,139.38703 139.08808,139.38703 C 148.54314,139.38703 154.26944,144.77683 154.26944,153.86551 C 154.26944,162.63712 148.40996,168.02693 139.08808,168.02693 C 130.96473,168.02693 126.43695,164.75077 126.03744,158.72689 L 107.66,158.72689 C 107.92635,171.83148 120.44433,180.7088 138.82175,180.7088 C 159.06354,180.7088 172.91322,169.71783 172.91322,153.54846 C 172.91322,138.22454 160.92792,127.6563 143.48269,127.6563 C 137.22371,127.6563 132.56276,128.92448 127.1028,132.20063 L 130.1657,116.55965 L 169.18447,116.55965 L 169.18447,103.34937"
         style="font-size:177.55882263px;font-style:normal;font-variant:normal;font-weight:bold;font-stretch:normal;text-align:start;line-height:125%;writing-mode:lr-tb;text-anchor:start;fill:#000000;fill-opacity:0.37647059;stroke:none;stroke-width:1px;stroke-linecap:butt;stroke-linejoin:miter;stroke-opacity:1;font-family:Nimbus Sans L" />
      <path
         style="font-size:177.55882263px;font-style:normal;font-variant:normal;font-weight:bold;font-stretch:normal;text-align:start;line-height:125%;writing-mode:lr-tb;text-anchor:start;fill:#000000;fill-opacity:0.37647059;stroke:none;stroke-width:1px;stroke-linecap:butt;stroke-linejoin:miter;stroke-opacity:1;font-family:Nimbus Sans L"
         d="M 168.28703,102.45193 L 117.81566,102.45193 L 109.42596,144.19643 L 126.20536,144.19643 C 128.20291,140.49755 132.46435,138.48959 138.19064,138.48959 C 147.6457,138.48959 153.372,143.87939 153.372,152.96807 C 153.372,161.73968 147.51252,167.12949 138.19064,167.12949 C 130.06729,167.12949 125.53951,163.85333 125.14,157.82945 L 106.76256,157.82945 C 107.02891,170.93404 119.54689,179.81136 137.92431,179.81136 C 158.1661,179.81136 172.01578,168.82039 172.01578,152.65102 C 172.01578,137.3271 160.03048,126.75886 142.58525,126.75886 C 136.32627,126.75886 131.66532,128.02704 126.20536,131.30319 L 129.26826,115.66221 L 168.28703,115.66221 L 168.28703,102.45193"
         id="path1624" />
      <path
         id="path1428"
         d="M 166.94087,101.10578 L 116.4695,101.10578 L 108.0798,142.85028 L 124.8592,142.85028 C 126.85675,139.1514 131.11819,137.14344 136.84448,137.14344 C 146.29954,137.14344 152.02584,142.53324 152.02584,151.62192 C 152.02584,160.39353 146.16636,165.78334 136.84448,165.78334 C 128.72113,165.78334 124.19335,162.50718 123.79384,156.4833 L 105.4164,156.4833 C 105.68275,169.58789 118.20073,178.46521 136.57815,178.46521 C 156.81994,178.46521 170.66962,167.47424 170.66962,151.30487 C 170.66962,135.98095 158.68432,125.41271 141.23909,125.41271 C 134.98011,125.41271 130.31916,126.68089 124.8592,129.95704 L 127.9221,114.31606 L 166.94087,114.31606 L 166.94087,101.10578"
         style="font-size:177.55882263px;font-style:normal;font-variant:normal;font-weight:bold;font-stretch:normal;text-align:start;line-height:125%;writing-mode:lr-tb;text-anchor:start;fill:#00ff00;fill-opacity:1;stroke:none;stroke-width:1px;stroke-linecap:butt;stroke-linejoin:miter;stroke-opacity:1;font-family:Nimbus Sans L" />
      <path
         id="path1510"
         d="M 109.71755,141.47301 C 114.58549,141.22334 119.7547,142.17152 124.43731,141.05543 C 130.82887,133.21701 145.16136,134.15676 150.82849,142.37081 C 156.61972,150.7824 152.46659,165.13963 141.57905,166.56969 C 134.63653,168.33713 124.60721,166.57433 122.80874,158.57299 C 121.6008,156.33498 118.36265,158.73937 116.50325,157.82134 C 113.72751,158.48833 108.08798,156.55298 106.89887,158.65651 C 108.60792,170.29074 121.09302,176.36247 131.80432,176.8878 C 145.08263,178.38422 161.08259,174.10505 167.26034,161.32903 C 173.04056,149.02221 166.51955,132.41062 153.08343,128.71588 C 143.15425,125.12579 131.42645,126.32614 122.93401,132.72467 C 124.28175,126.15009 125.53354,119.55622 126.83841,112.97304 C 139.74169,112.97304 152.64497,112.97304 165.54825,112.97304 C 165.23338,109.48318 166.35539,105.79621 165.21419,102.44998 C 149.3252,102.44998 133.4362,102.44998 117.54721,102.44998 C 114.93732,115.45765 112.32743,128.46533 109.71755,141.47301 z "
         style="font-size:177.55882263px;font-style:normal;font-variant:normal;font-weight:bold;font-stretch:normal;text-align:start;line-height:125%;writing-mode:lr-tb;text-anchor:start;fill:url(#linearGradient1570);fill-opacity:1;stroke:none;stroke-width:1px;stroke-linecap:butt;stroke-linejoin:miter;stroke-opacity:1;font-family:Nimbus Sans L" />
      <path
         style="font-size:177.55882263px;font-style:normal;font-variant:normal;font-weight:bold;font-stretch:normal;text-align:start;line-height:125%;writing-mode:lr-tb;text-anchor:start;fill:url(#linearGradient1598);fill-opacity:1;stroke:none;stroke-width:1px;stroke-linecap:butt;stroke-linejoin:miter;stroke-opacity:1;font-family:Nimbus Sans L"
         d="M 109.71755,141.47301 C 114.58549,141.22334 119.7547,142.17152 124.43731,141.05543 C 130.82887,133.21701 145.16136,134.15676 150.82849,142.37081 C 156.61972,150.7824 152.46659,165.13963 141.57905,166.56969 C 134.63653,168.33713 124.60721,166.57433 122.80874,158.57299 C 121.6008,156.33498 118.36265,158.73937 116.50325,157.82134 C 113.72751,158.48833 108.08798,156.55298 106.89887,158.65651 C 108.60792,170.29074 121.09302,176.36247 131.80432,176.8878 C 145.08263,178.38422 161.08259,174.10505 167.26034,161.32903 C 173.04056,149.02221 166.51955,132.41062 153.08343,128.71588 C 143.15425,125.12579 131.42645,126.32614 122.93401,132.72467 C 124.28175,126.15009 125.53354,119.55622 126.83841,112.97304 C 139.74169,112.97304 152.64497,112.97304 165.54825,112.97304 C 165.23338,109.48318 166.35539,105.79621 165.21419,102.44998 C 149.3252,102.44998 133.4362,102.44998 117.54721,102.44998 C 114.93732,115.45765 112.32743,128.46533 109.71755,141.47301 z "
         id="path1596" />
    </g>
    <g
       id="g2546"
       transform="translate(41.658032,-5.5958549)">
      <path
         id="path2513"
         d="M 57.61393,102.3573 L 23.14254,148.2078 L 23.14254,160.6935 L 60.95458,160.6935 L 60.95458,177.27151 L 79.59962,177.27151 L 79.59962,160.6935 L 89.45455,160.6935 L 89.45455,148.41659 L 79.59962,148.41659 L 79.59962,102.3573 L 57.61393,102.3573 z M 60.95458,116.40894 L 60.95458,148.41659 L 36.31725,148.41659 L 60.95458,116.40894 z "
         style="font-size:177.55882263px;font-style:normal;font-variant:normal;font-weight:bold;font-stretch:normal;text-align:start;line-height:125%;writing-mode:lr-tb;text-anchor:start;fill:#000000;fill-opacity:0.37647059;stroke:none;stroke-width:1px;stroke-linecap:butt;stroke-linejoin:miter;stroke-opacity:1;font-family:Nimbus Sans L" />
      <path
         style="font-size:177.55882263px;font-style:normal;font-variant:normal;font-weight:bold;font-stretch:normal;text-align:start;line-height:125%;writing-mode:lr-tb;text-anchor:start;fill:#000000;fill-opacity:0.37647059;stroke:none;stroke-width:1px;stroke-linecap:butt;stroke-linejoin:miter;stroke-opacity:1;font-family:Nimbus Sans L"
         d="M 56.716494,101.45986 L 22.245104,147.31036 L 22.245104,159.79606 L 60.057144,159.79606 L 60.057144,176.37407 L 78.702184,176.37407 L 78.702184,159.79606 L 88.557114,159.79606 L 88.557114,147.51915 L 78.702184,147.51915 L 78.702184,101.45986 L 56.716494,101.45986 z M 60.057144,115.5115 L 60.057144,147.51915 L 35.419814,147.51915 L 60.057144,115.5115 z "
         id="path1622" />
      <path
         id="path1432"
         d="M 55.37034,100.11371 L 20.89895,145.96421 L 20.89895,158.44991 L 58.71099,158.44991 L 58.71099,175.02792 L 77.35603,175.02792 L 77.35603,158.44991 L 87.21096,158.44991 L 87.21096,146.173 L 77.35603,146.173 L 77.35603,100.11371 L 55.37034,100.11371 z M 58.71099,114.16535 L 58.71099,146.173 L 34.07366,146.173 L 58.71099,114.16535 z "
         style="font-size:177.55882263px;font-style:normal;font-variant:normal;font-weight:bold;font-stretch:normal;text-align:start;line-height:125%;writing-mode:lr-tb;text-anchor:start;fill:#ffb300;fill-opacity:1;stroke:none;stroke-width:1px;stroke-linecap:butt;stroke-linejoin:miter;stroke-opacity:1;font-family:Nimbus Sans L" />
      <path
         id="path1508"
         d="M 22.27697,146.3818 C 22.69432,149.93965 21.40508,153.67841 22.63191,157.11365 C 35.1037,157.11365 47.57547,157.11365 60.04726,157.11365 C 60.04726,162.63965 60.04726,168.16566 60.04726,173.69166 C 65.37143,173.69166 70.6956,173.69166 76.01977,173.69166 C 76.01977,168.21437 76.01977,162.73709 76.01977,157.25981 C 79.12087,155.95908 83.07355,158.56663 85.79119,156.63343 C 85.74959,153.7794 86.4159,150.55095 85.60327,147.73894 C 83.49269,146.00434 80.3157,149.07712 77.89889,147.42575 C 73.88612,144.87424 76.84298,139.20866 76.01977,135.48291 C 76.01977,124.13859 76.01977,112.79429 76.01977,101.44998 C 69.35934,101.44998 62.6989,101.44998 56.03847,101.44998 C 44.78464,116.42725 33.5308,131.40452 22.27697,146.3818 z M 60.04726,112.20271 C 60.04726,123.97156 60.04726,135.74042 60.04726,147.50927 C 50.48463,147.50927 40.922,147.50927 31.35938,147.50927 C 40.92148,135.0858 50.48372,122.66244 60.04726,110.24008 C 60.04726,110.89429 60.04726,111.5485 60.04726,112.20271 z "
         style="font-size:177.55882263px;font-style:normal;font-variant:normal;font-weight:bold;font-stretch:normal;text-align:start;line-height:125%;writing-mode:lr-tb;text-anchor:start;fill:url(#linearGradient1562);fill-opacity:1;stroke:none;stroke-width:1px;stroke-linecap:butt;stroke-linejoin:miter;stroke-opacity:1;font-family:Nimbus Sans L" />
      <path
         style="font-size:177.55882263px;font-style:normal;font-variant:normal;font-weight:bold;font-stretch:normal;text-align:start;line-height:125%;writing-mode:lr-tb;text-anchor:start;fill:url(#linearGradient1602);fill-opacity:1;stroke:none;stroke-width:1px;stroke-linecap:butt;stroke-linejoin:miter;stroke-opacity:1;font-family:Nimbus Sans L"
         d="M 22.27697,146.3818 C 22.69432,149.93965 21.40508,153.67841 22.63191,157.11365 C 35.1037,157.11365 47.57547,157.11365 60.04726,157.11365 C 60.04726,162.63965 60.04726,168.16566 60.04726,173.69166 C 65.37143,173.69166 70.6956,173.69166 76.01977,173.69166 C 76.01977,168.21437 76.01977,162.73709 76.01977,157.25981 C 79.12087,155.95908 83.07355,158.56663 85.79119,156.63343 C 85.74959,153.7794 86.4159,150.55095 85.60327,147.73894 C 83.49269,146.00434 80.3157,149.07712 77.89889,147.42575 C 73.88612,144.87424 76.84298,139.20866 76.01977,135.48291 C 76.01977,124.13859 76.01977,112.79429 76.01977,101.44998 C 69.35934,101.44998 62.6989,101.44998 56.03847,101.44998 C 44.78464,116.42725 33.5308,131.40452 22.27697,146.3818 z M 60.04726,112.20271 C 60.04726,123.97156 60.04726,135.74042 60.04726,147.50927 C 50.48463,147.50927 40.922,147.50927 31.35938,147.50927 C 40.92148,135.0858 50.48372,122.66244 60.04726,110.24008 C 60.04726,110.89429 60.04726,111.5485 60.04726,112.20271 z "
         id="path1600" />
    </g>
    <g
       id="g2539"
       transform="translate(41.658032,0)">
      <path
         id="path2511"
         d="M 221.75814,49.0893 C 228.28345,49.0893 229.48199,49.19499 232.67806,49.82908 C 238.93703,51.20295 242.93214,55.53593 242.93214,61.0314 C 242.93214,67.5837 237.07266,72.33941 228.94931,72.33941 C 220.16011,72.33941 215.36599,68.32347 214.83331,60.60867 L 196.72221,60.60867 C 196.85539,75.61554 209.24019,85.02128 228.5498,85.02128 C 248.65842,85.02128 261.57591,75.61554 261.57591,61.0314 C 261.57591,52.25978 256.78179,46.55292 246.12821,42.43132 C 254.91741,38.09835 258.51301,33.34263 258.51301,26.47329 C 258.51301,14.002794 246.79405,6.0766097 228.5498,6.0766097 C 217.76305,6.0766097 208.70749,9.03572 203.3807,14.53119 C 199.65196,18.23007 197.92074,23.30283 197.92074,29.96081 L 197.92074,31.229 L 215.23281,31.229 C 215.36599,27.21307 215.7655,25.2051 216.69769,23.30282 C 218.42889,20.02668 222.69033,18.01871 228.15029,18.01871 C 235.60779,18.01871 239.86923,21.61191 239.86923,27.84716 C 239.86923,35.3506 234.40926,39.15517 223.35617,39.15517 L 221.75814,39.15517 L 221.75814,49.0893"
         style="font-size:177.55882263px;font-style:normal;font-variant:normal;font-weight:bold;font-stretch:normal;text-align:start;line-height:125%;writing-mode:lr-tb;text-anchor:start;fill:#000000;fill-opacity:0.37647059;stroke:none;stroke-width:1px;stroke-linecap:butt;stroke-linejoin:miter;stroke-opacity:1;font-family:Nimbus Sans L" />
      <path
         style="font-size:177.55882263px;font-style:normal;font-variant:normal;font-weight:bold;font-stretch:normal;text-align:start;line-height:125%;writing-mode:lr-tb;text-anchor:start;fill:#000000;fill-opacity:0.37647059;stroke:none;stroke-width:1px;stroke-linecap:butt;stroke-linejoin:miter;stroke-opacity:1;font-family:Nimbus Sans L"
         d="M 220.8607,48.191864 C 227.38601,48.191864 228.58455,48.297554 231.78062,48.931644 C 238.03959,50.305514 242.0347,54.638494 242.0347,60.133964 C 242.0347,66.686264 236.17522,71.441974 228.05187,71.441974 C 219.26267,71.441974 214.46855,67.426034 213.93587,59.711234 L 195.82477,59.711234 C 195.95795,74.718104 208.34275,84.123844 227.65236,84.123844 C 247.76098,84.123844 260.67847,74.718104 260.67847,60.133964 C 260.67847,51.362344 255.88435,45.655484 245.23077,41.533884 C 254.01997,37.200914 257.61557,32.445194 257.61557,25.575854 C 257.61557,13.105358 245.89661,5.1791738 227.65236,5.1791738 C 216.86561,5.1791738 207.81005,8.1382838 202.48326,13.633754 C 198.75452,17.332634 197.0233,22.405394 197.0233,29.063374 L 197.0233,30.331564 L 214.33537,30.331564 C 214.46855,26.315634 214.86806,24.307664 215.80025,22.405384 C 217.53145,19.129244 221.79289,17.121274 227.25285,17.121274 C 234.71035,17.121274 238.97179,20.714474 238.97179,26.949724 C 238.97179,34.453164 233.51182,38.257734 222.45873,38.257734 L 220.8607,38.257734 L 220.8607,48.191864"
         id="path1620" />
      <path
         id="path1434"
         d="M 219.51454,46.84571 C 226.03985,46.84571 227.23839,46.9514 230.43446,47.58549 C 236.69343,48.95936 240.68854,53.29234 240.68854,58.78781 C 240.68854,65.34011 234.82906,70.09582 226.70571,70.09582 C 217.91651,70.09582 213.12239,66.07988 212.58971,58.36508 L 194.47861,58.36508 C 194.61179,73.37195 206.99659,82.77769 226.3062,82.77769 C 246.41482,82.77769 259.33231,73.37195 259.33231,58.78781 C 259.33231,50.01619 254.53819,44.30933 243.88461,40.18773 C 252.67381,35.85476 256.26941,31.09904 256.26941,24.2297 C 256.26941,11.759204 244.55045,3.83302 226.3062,3.83302 C 215.51945,3.83302 206.46389,6.79213 201.1371,12.2876 C 197.40836,15.98648 195.67714,21.05924 195.67714,27.71722 L 195.67714,28.98541 L 212.98921,28.98541 C 213.12239,24.96948 213.5219,22.96151 214.45409,21.05923 C 216.18529,17.78309 220.44673,15.77512 225.90669,15.77512 C 233.36419,15.77512 237.62563,19.36832 237.62563,25.60357 C 237.62563,33.10701 232.16566,36.91158 221.11257,36.91158 L 219.51454,36.91158 L 219.51454,46.84571"
         style="font-size:177.55882263px;font-style:normal;font-variant:normal;font-weight:bold;font-stretch:normal;text-align:start;line-height:125%;writing-mode:lr-tb;text-anchor:start;fill:#ff0013;fill-opacity:1;stroke:none;stroke-width:1px;stroke-linecap:butt;stroke-linejoin:miter;stroke-opacity:1;font-family:Nimbus Sans L" />
      <path
         id="path1506"
         d="M 224.3548,5.19733 C 213.97206,5.396422 201.28659,9.328866 197.92186,20.33468 C 197.2679,22.70494 197.02512,25.1633 197.02406,27.64236 C 201.78749,27.41569 207.45505,28.09314 211.66031,27.3083 C 211.34416,20.97144 216.1638,15.02433 222.60096,14.65556 C 229.2517,13.28957 238.04111,16.21309 238.90753,23.77973 C 240.23015,30.89766 234.18825,37.50559 227.1526,37.81048 C 225.22913,38.40714 222.23823,37.75497 220.95151,38.60389 C 221.42406,40.67656 219.39023,44.69129 221.91195,45.72366 C 229.98768,44.5387 240.79637,48.14019 241.95588,57.2698 C 243.21876,65.79325 234.24439,72.17517 226.33831,71.48847 C 219.42663,71.89135 211.80108,67.19729 211.45152,59.90057 C 207.87529,59.14835 203.84012,60.31402 200.09329,59.58738 C 198.44111,59.57406 194.94295,59.01206 196.00098,61.73793 C 197.6433,73.65095 209.92649,80.76807 221.1603,81.13461 C 233.6145,82.41324 248.69943,79.89194 255.65257,68.461 C 260.2681,60.34605 258.09681,48.37815 249.22181,44.17861 C 246.48862,42.59366 243.5054,41.47892 240.55698,40.2951 C 247.68151,37.57564 256.01889,31.68854 254.90092,23.1116 C 254.45954,12.50787 243.10699,6.409179 233.49984,5.635792 C 230.46962,5.247942 227.40842,5.108134 224.3548,5.19733 z "
         style="font-size:177.55882263px;font-style:normal;font-variant:normal;font-weight:bold;font-stretch:normal;text-align:start;line-height:125%;writing-mode:lr-tb;text-anchor:start;fill:url(#linearGradient1560);fill-opacity:1;stroke:none;stroke-width:1px;stroke-linecap:butt;stroke-linejoin:miter;stroke-opacity:1;font-family:Nimbus Sans L" />
      <path
         style="font-size:177.55882263px;font-style:normal;font-variant:normal;font-weight:bold;font-stretch:normal;text-align:start;line-height:125%;writing-mode:lr-tb;text-anchor:start;fill:url(#linearGradient1606);fill-opacity:1;stroke:none;stroke-width:1px;stroke-linecap:butt;stroke-linejoin:miter;stroke-opacity:1;font-family:Nimbus Sans L"
         d="M 224.3548,5.19733 C 213.97206,5.396422 201.28659,9.328866 197.92186,20.33468 C 197.2679,22.70494 197.02512,25.1633 197.02406,27.64236 C 201.78749,27.41569 207.45505,28.09314 211.66031,27.3083 C 211.34416,20.97144 216.1638,15.02433 222.60096,14.65556 C 229.2517,13.28957 238.04111,16.21309 238.90753,23.77973 C 240.23015,30.89766 234.18825,37.50559 227.1526,37.81048 C 225.22913,38.40714 222.23823,37.75497 220.95151,38.60389 C 221.42406,40.67656 219.39023,44.69129 221.91195,45.72366 C 229.98768,44.5387 240.79637,48.14019 241.95588,57.2698 C 243.21876,65.79325 234.24439,72.17517 226.33831,71.48847 C 219.42663,71.89135 211.80108,67.19729 211.45152,59.90057 C 207.87529,59.14835 203.84012,60.31402 200.09329,59.58738 C 198.44111,59.57406 194.94295,59.01206 196.00098,61.73793 C 197.6433,73.65095 209.92649,80.76807 221.1603,81.13461 C 233.6145,82.41324 248.69943,79.89194 255.65257,68.461 C 260.2681,60.34605 258.09681,48.37815 249.22181,44.17861 C 246.48862,42.59366 243.5054,41.47892 240.55698,40.2951 C 247.68151,37.57564 256.01889,31.68854 254.90092,23.1116 C 254.45954,12.50787 243.10699,6.409179 233.49984,5.635792 C 230.46962,5.247942 227.40842,5.108134 224.3548,5.19733 z "
         id="path1604" />
    </g>
    <g
       id="g2532"
       transform="translate(41.658032,0)">
      <path
         id="path2509"
         d="M 172.9155,70.3803 L 132.96455,70.3803 C 135.36161,66.36438 138.29136,64.25072 152.14101,56.21888 C 168.52088,46.70748 173.31501,41.00062 173.31501,30.85513 C 173.31501,16.37667 160.79702,7.0766097 140.95474,7.0766097 C 121.3788,7.0766097 109.92618,16.27099 109.92618,32.12331 C 109.92618,32.75741 109.92618,33.60287 110.05935,34.76537 L 127.9041,34.76537 L 127.9041,32.33468 C 127.9041,23.98578 132.8314,19.12439 141.35425,19.12439 C 149.61078,19.12439 154.67124,23.66874 154.67124,31.17217 C 154.67124,39.41538 151.34196,42.69155 130.5675,54.42228 C 114.58713,63.08822 109.65983,69.74622 108.72765,83.59059 L 172.9155,83.59059 L 172.9155,70.3803"
         style="font-size:177.55882263px;font-style:normal;font-variant:normal;font-weight:bold;font-stretch:normal;text-align:start;line-height:125%;writing-mode:lr-tb;text-anchor:start;fill:#000000;fill-opacity:0.37647059;stroke:none;stroke-width:1px;stroke-linecap:butt;stroke-linejoin:miter;stroke-opacity:1;font-family:Nimbus Sans L" />
      <path
         style="font-size:177.55882263px;font-style:normal;font-variant:normal;font-weight:bold;font-stretch:normal;text-align:start;line-height:125%;writing-mode:lr-tb;text-anchor:start;fill:#000000;fill-opacity:0.37647059;stroke:none;stroke-width:1px;stroke-linecap:butt;stroke-linejoin:miter;stroke-opacity:1;font-family:Nimbus Sans L"
         d="M 172.01806,69.482864 L 132.06711,69.482864 C 134.46417,65.466944 137.39392,63.353284 151.24357,55.321444 C 167.62344,45.810044 172.41757,40.103184 172.41757,29.957694 C 172.41757,15.479234 159.89958,6.1791738 140.0573,6.1791738 C 120.48136,6.1791738 109.02874,15.373554 109.02874,31.225874 C 109.02874,31.859974 109.02874,32.705434 109.16191,33.867934 L 127.00666,33.867934 L 127.00666,31.437244 C 127.00666,23.088344 131.93396,18.226954 140.45681,18.226954 C 148.71334,18.226954 153.7738,22.771304 153.7738,30.274734 C 153.7738,38.517944 150.44452,41.794114 129.67006,53.524844 C 113.68969,62.190784 108.76239,68.848784 107.83021,82.693154 L 172.01806,82.693154 L 172.01806,69.482864"
         id="path1618" />
      <path
         id="path1436"
         d="M 170.6719,68.13671 L 130.72095,68.13671 C 133.11801,64.12079 136.04776,62.00713 149.89741,53.97529 C 166.27728,44.46389 171.07141,38.75703 171.07141,28.61154 C 171.07141,14.13308 158.55342,4.83302 138.71114,4.83302 C 119.1352,4.83302 107.68258,14.0274 107.68258,29.87972 C 107.68258,30.51382 107.68258,31.35928 107.81575,32.52178 L 125.6605,32.52178 L 125.6605,30.09109 C 125.6605,21.74219 130.5878,16.8808 139.11065,16.8808 C 147.36718,16.8808 152.42764,21.42515 152.42764,28.92858 C 152.42764,37.17179 149.09836,40.44796 128.3239,52.17869 C 112.34353,60.84463 107.41623,67.50263 106.48405,81.347 L 170.6719,81.347 L 170.6719,68.13671"
         style="font-size:177.55882263px;font-style:normal;font-variant:normal;font-weight:bold;font-stretch:normal;text-align:start;line-height:125%;writing-mode:lr-tb;text-anchor:start;fill:#969696;fill-opacity:1;stroke:none;stroke-width:1px;stroke-linecap:butt;stroke-linejoin:miter;stroke-opacity:1;font-family:Nimbus Sans L" />
      <path
         id="path1504"
         d="M 136.94389,6.19733 C 125.82097,6.032466 112.5006,11.349595 109.82194,23.23467 C 109.17475,25.79553 108.92201,28.51481 109.04941,31.18961 C 114.12304,31.18961 119.19666,31.18961 124.27028,31.18961 C 123.3648,23.48491 129.30211,15.58307 137.25708,15.55117 C 144.70687,14.55419 153.38433,19.18034 153.73068,27.26434 C 154.94133,34.96359 149.29915,41.41433 143.06146,44.9907 C 132.02545,52.79065 116.95324,56.95735 110.42743,69.64891 C 108.93697,72.90022 108.25016,76.45722 107.94282,80.00494 C 128.38346,80.00494 148.8241,80.00494 169.26473,80.00494 C 168.94986,76.51509 170.07187,72.82812 168.93067,69.48188 C 155.40797,69.48188 141.88528,69.48188 128.36258,69.48188 C 134.16727,58.71205 146.96729,55.3999 156.2903,48.47784 C 163.50588,44.09322 170.54295,37.12579 169.80759,27.97423 C 169.7502,16.90715 159.48308,8.554886 149.11113,7.160367 C 145.15714,6.392615 141.00977,6.065266 136.94389,6.19733 z "
         style="font-size:177.55882263px;font-style:normal;font-variant:normal;font-weight:bold;font-stretch:normal;text-align:start;line-height:125%;writing-mode:lr-tb;text-anchor:start;fill:url(#linearGradient1558);fill-opacity:1;stroke:none;stroke-width:1px;stroke-linecap:butt;stroke-linejoin:miter;stroke-opacity:1;font-family:Nimbus Sans L" />
      <path
         style="font-size:177.55882263px;font-style:normal;font-variant:normal;font-weight:bold;font-stretch:normal;text-align:start;line-height:125%;writing-mode:lr-tb;text-anchor:start;fill:url(#linearGradient1610);fill-opacity:1;stroke:none;stroke-width:1px;stroke-linecap:butt;stroke-linejoin:miter;stroke-opacity:1;font-family:Nimbus Sans L"
         d="M 136.94389,6.19733 C 125.82097,6.032466 112.5006,11.349595 109.82194,23.23467 C 109.17475,25.79553 108.92201,28.51481 109.04941,31.18961 C 114.12304,31.18961 119.19666,31.18961 124.27028,31.18961 C 123.3648,23.48491 129.30211,15.58307 137.25708,15.55117 C 144.70687,14.55419 153.38433,19.18034 153.73068,27.26434 C 154.94133,34.96359 149.29915,41.41433 143.06146,44.9907 C 132.02545,52.79065 116.95324,56.95735 110.42743,69.64891 C 108.93697,72.90022 108.25016,76.45722 107.94282,80.00494 C 128.38346,80.00494 148.8241,80.00494 169.26473,80.00494 C 168.94986,76.51509 170.07187,72.82812 168.93067,69.48188 C 155.40797,69.48188 141.88528,69.48188 128.36258,69.48188 C 134.16727,58.71205 146.96729,55.3999 156.2903,48.47784 C 163.50588,44.09322 170.54295,37.12579 169.80759,27.97423 C 169.7502,16.90715 159.48308,8.554886 149.11113,7.160367 C 145.15714,6.392615 141.00977,6.065266 136.94389,6.19733 z "
         id="path1608" />
    </g>
    <g
       id="g2525"
       transform="translate(41.658032,0)">
      <path
         id="path2507"
         d="M 52.29923,30.91195 L 52.29923,82.59059 L 70.943,82.59059 L 70.943,7.6618447 L 58.55821,7.6618447 C 55.62848,16.53915 45.90706,21.0835 29.66036,21.0835 L 29.66036,30.91195 L 52.29923,30.91195"
         style="font-size:177.55882263px;font-style:normal;font-variant:normal;font-weight:bold;font-stretch:normal;text-align:start;line-height:125%;writing-mode:lr-tb;text-anchor:start;fill:#000000;fill-opacity:0.37647059;stroke:none;stroke-width:1px;stroke-linecap:butt;stroke-linejoin:miter;stroke-opacity:1;font-family:Nimbus Sans L" />
      <path
         style="font-size:177.55882263px;font-style:normal;font-variant:normal;font-weight:bold;font-stretch:normal;text-align:start;line-height:125%;writing-mode:lr-tb;text-anchor:start;fill:#000000;fill-opacity:0.37647059;stroke:none;stroke-width:1px;stroke-linecap:butt;stroke-linejoin:miter;stroke-opacity:1;font-family:Nimbus Sans L"
         d="M 51.401794,30.014514 L 51.401794,81.693154 L 70.045564,81.693154 L 70.045564,6.7644088 L 57.660774,6.7644088 C 54.731044,15.641714 45.009624,20.186064 28.762924,20.186064 L 28.762924,30.014514 L 51.401794,30.014514"
         id="path1616" />
      <path
         id="text1403"
         d="M 50.05564,28.66836 L 50.05564,80.347 L 68.69941,80.347 L 68.69941,5.418255 L 56.31462,5.418255 C 53.38489,14.29556 43.66347,18.83991 27.41677,18.83991 L 27.41677,28.66836 L 50.05564,28.66836"
         style="font-size:177.55882263px;font-style:normal;font-variant:normal;font-weight:bold;font-stretch:normal;text-align:start;line-height:125%;writing-mode:lr-tb;text-anchor:start;fill:#0200ff;fill-opacity:1;stroke:none;stroke-width:1px;stroke-linecap:butt;stroke-linejoin:miter;stroke-opacity:1;font-family:Nimbus Sans L" />
      <path
         id="path1502"
         d="M 59.98462,6.721505 C 57.70834,6.337192 56.49842,7.453231 55.85056,9.519304 C 50.15845,18.36513 38.54922,19.83246 28.97916,20.27204 C 27.80981,22.3863 29.28145,25.01449 28.89564,27.32918 C 36.39124,27.32918 43.88683,27.32918 51.38243,27.32918 C 51.38243,44.55443 51.38243,61.77969 51.38243,79.00494 C 56.7066,79.00494 62.03077,79.00494 67.35494,79.00494 C 67.35494,54.9383 67.35494,30.87166 67.35494,6.805021 C 64.89841,6.899655 62.44109,6.628926 59.98462,6.721505 z "
         style="font-size:177.55882263px;font-style:normal;font-variant:normal;font-weight:bold;font-stretch:normal;text-align:start;line-height:125%;writing-mode:lr-tb;text-anchor:start;fill:url(#linearGradient1556);fill-opacity:1;stroke:none;stroke-width:1px;stroke-linecap:butt;stroke-linejoin:miter;stroke-opacity:1;font-family:Nimbus Sans L" />
      <path
         style="font-size:177.55882263px;font-style:normal;font-variant:normal;font-weight:bold;font-stretch:normal;text-align:start;line-height:125%;writing-mode:lr-tb;text-anchor:start;fill:url(#linearGradient1614);fill-opacity:1;stroke:none;stroke-width:1px;stroke-linecap:butt;stroke-linejoin:miter;stroke-opacity:1;font-family:Nimbus Sans L"
         d="M 59.98462,6.721505 C 57.70834,6.337192 56.49842,7.453231 55.85056,9.519304 C 50.15845,18.36513 38.54922,19.83246 28.97916,20.27204 C 27.80981,22.3863 29.28145,25.01449 28.89564,27.32918 C 36.39124,27.32918 43.88683,27.32918 51.38243,27.32918 C 51.38243,44.55443 51.38243,61.77969 51.38243,79.00494 C 56.7066,79.00494 62.03077,79.00494 67.35494,79.00494 C 67.35494,54.9383 67.35494,30.87166 67.35494,6.805021 C 64.89841,6.899655 62.44109,6.628926 59.98462,6.721505 z "
         id="path1612" />
    </g>
    <g
       id="g2259"
       transform="translate(42.279794,-2.4870466)">
      <path
         id="text4211"
         d="M 147.52246,335.53833 C 147.52241,325.36546 146.55962,318.2081 144.63408,314.06621 C 142.74478,309.88812 139.54758,307.79904 135.04248,307.79897 C 130.5373,307.79904 127.32193,309.88812 125.39638,314.06621 C 123.47076,318.2081 122.50797,325.36546 122.508,335.53833 C 122.50797,345.82027 123.47076,353.06846 125.39638,357.28293 C 127.32193,361.49744 130.5373,363.60468 135.04248,363.60467 C 139.51125,363.60468 142.70845,361.49744 144.63408,357.28293 C 146.55962,353.06846 147.52241,345.82027 147.52246,335.53833 M 168.5041,335.70182 C 168.50403,349.18096 165.59748,359.59002 159.78446,366.92903 C 153.97131,374.23173 145.72399,377.88308 135.04248,377.88308 C 124.32456,377.88308 116.05908,374.23173 110.246,366.92903 C 104.4329,359.59002 101.52636,349.18096 101.52636,335.70182 C 101.52636,322.18643 104.4329,311.77737 110.246,304.47461 C 116.05908,297.13566 124.32456,293.46615 135.04248,293.46606 C 145.72399,293.46615 153.97131,297.13566 159.78446,304.47461 C 165.59748,311.77737 168.50403,322.18643 168.5041,335.70182"
         style="font-size:111.61138916px;font-style:normal;font-weight:bold;fill:#000000;fill-opacity:0.37647059;stroke:none;stroke-width:1px;stroke-linecap:butt;stroke-linejoin:miter;stroke-opacity:1;font-family:Bitstream Vera Sans"
         transform="scale(1.0542089,0.9485786)" />
      <path
         id="text2266"
         d="M 146.66875,334.58957 C 146.6687,324.4167 145.70591,317.25934 143.78037,313.11745 C 141.89107,308.93936 138.69387,306.85028 134.18877,306.85021 C 129.68358,306.85028 126.46822,308.93936 124.54266,313.11745 C 122.61705,317.25934 121.65426,324.4167 121.65428,334.58957 C 121.65426,344.8715 122.61705,352.1197 124.54266,356.33417 C 126.46822,360.54867 129.68358,362.65592 134.18877,362.65591 C 138.65754,362.65592 141.85474,360.54867 143.78037,356.33417 C 145.70591,352.1197 146.6687,344.8715 146.66875,334.58957 M 167.65038,334.75306 C 167.65031,348.2322 164.74377,358.64126 158.93074,365.98027 C 153.11759,373.28297 144.87027,376.93431 134.18877,376.93432 C 123.47085,376.93431 115.20536,373.28297 109.39229,365.98027 C 103.57919,358.64126 100.67265,348.2322 100.67265,334.75306 C 100.67265,321.23767 103.57919,310.82861 109.39229,303.52585 C 115.20536,296.1869 123.47085,292.51739 134.18877,292.5173 C 144.87027,292.51739 153.11759,296.1869 158.93074,303.52585 C 164.74377,310.82861 167.65031,321.23767 167.65038,334.75306"
         style="font-size:111.61138916px;font-style:normal;font-weight:bold;fill:#000000;fill-opacity:0.37647059;stroke:none;stroke-width:1px;stroke-linecap:butt;stroke-linejoin:miter;stroke-opacity:1;font-family:Bitstream Vera Sans"
         transform="scale(1.0542089,0.9485786)" />
      <path
         id="text2238"
         d="M 145.84087,333.12835 C 145.84082,322.95549 144.87803,315.79813 142.95249,311.65624 C 141.06319,307.47815 137.86599,305.38907 133.36088,305.389 C 128.8557,305.38907 125.64034,307.47815 123.71478,311.65624 C 121.78917,315.79813 120.82638,322.95549 120.8264,333.12835 C 120.82638,343.41029 121.78917,350.65849 123.71478,354.87296 C 125.64034,359.08746 128.8557,361.19471 133.36088,361.19469 C 137.82966,361.19471 141.02686,359.08746 142.95249,354.87296 C 144.87803,350.65849 145.84082,343.41029 145.84087,333.12835 M 166.8225,333.29185 C 166.82243,346.77098 163.91589,357.18004 158.10286,364.51906 C 152.28971,371.82176 144.04239,375.4731 133.36088,375.4731 C 122.64297,375.4731 114.37748,371.82176 108.56441,364.51906 C 102.75131,357.18004 99.844764,346.77098 99.84477,333.29185 C 99.844764,319.77646 102.75131,309.3674 108.56441,302.06464 C 114.37748,294.72569 122.64297,291.05617 133.36088,291.05609 C 144.04239,291.05617 152.28971,294.72569 158.10286,302.06464 C 163.91589,309.3674 166.82243,319.77646 166.8225,333.29185"
         style="font-size:111.61138916px;font-style:normal;font-weight:bold;fill:#008000;fill-opacity:1;stroke:none;stroke-width:1px;stroke-linecap:butt;stroke-linejoin:miter;stroke-opacity:1;font-family:Bitstream Vera Sans"
         transform="scale(1.0542089,0.9485786)" />
      <path
         id="text2258"
         d="M 139.60048,278.00372 C 125.19341,277.41795 112.61842,287.26286 109.55553,299.67281 C 105.81176,314.95807 105.7346,333.15811 117.19854,345.82709 C 130.8577,359.18901 159.63114,356.74045 168.42651,339.89848 C 175.42599,326.1715 175.4136,309.53365 169.94193,295.40421 C 165.38474,284.1014 152.96777,277.14864 139.60048,278.00372 z M 140.5888,287.78594 C 149.97142,287.30146 154.63585,296.19509 155.05123,303.40784 C 155.98799,315.1997 157.43731,328.14879 151.62505,339.09811 C 146.49948,347.48382 130.80654,345.69987 128.03713,336.45988 C 124.10141,324.33325 124.54687,310.94727 127.04881,298.60566 C 128.34757,292.69284 133.44127,287.47535 140.5888,287.78594 z "
         style="font-size:111.61138916px;font-style:normal;font-weight:bold;opacity:1;fill:url(#linearGradient2264);fill-opacity:1;stroke:none;stroke-width:1px;stroke-linecap:butt;stroke-linejoin:miter;stroke-opacity:1;font-family:Bitstream Vera Sans" />
      <path
         style="font-size:111.61138916px;font-style:normal;font-weight:bold;opacity:1;fill:url(#linearGradient4217);fill-opacity:1;stroke:none;stroke-width:1px;stroke-linecap:butt;stroke-linejoin:miter;stroke-opacity:1;font-family:Bitstream Vera Sans"
         d="M 139.60048,278.00372 C 125.19341,277.41795 112.61842,287.26286 109.55553,299.67281 C 105.81176,314.95807 105.7346,333.15811 117.19854,345.82709 C 130.8577,359.18901 159.63114,356.74045 168.42651,339.89848 C 175.42599,326.1715 175.4136,309.53365 169.94193,295.40421 C 165.38474,284.1014 152.96777,277.14864 139.60048,278.00372 z M 140.5888,287.78594 C 149.97142,287.30146 154.63585,296.19509 155.05123,303.40784 C 155.98799,315.1997 157.43731,328.14879 151.62505,339.09811 C 146.49948,347.48382 130.80654,345.69987 128.03713,336.45988 C 124.10141,324.33325 124.54687,310.94727 127.04881,298.60566 C 128.34757,292.69284 133.44127,287.47535 140.5888,287.78594 z "
         id="path4215" />
    </g>
  </g>
</svg>
