<?xml version="1.0" encoding="UTF-8" standalone="no"?>
<!-- Created with Inkscape (http://www.inkscape.org/) -->
<svg
   xmlns:dc="http://purl.org/dc/elements/1.1/"
   xmlns:cc="http://web.resource.org/cc/"
   xmlns:rdf="http://www.w3.org/1999/02/22-rdf-syntax-ns#"
   xmlns:svg="http://www.w3.org/2000/svg"
   xmlns="http://www.w3.org/2000/svg"
   xmlns:xlink="http://www.w3.org/1999/xlink"
   xmlns:sodipodi="http://inkscape.sourceforge.net/DTD/sodipodi-0.dtd"
   xmlns:inkscape="http://www.inkscape.org/namespaces/inkscape"
   width="280"
   height="280"
   id="svg2"
   sodipodi:version="0.32"
   inkscape:version="0.43"
   version="1.0"
   sodipodi:docbase="/home/nicu/Desktop/game_elements"
   sodipodi:docname="dots.svg">
  <defs
     id="defs4">
    <linearGradient
       id="linearGradient3960">
      <stop
         style="stop-color:#ffffff;stop-opacity:1;"
         offset="0"
         id="stop3962" />
      <stop
         style="stop-color:#ffffff;stop-opacity:0;"
         offset="1"
         id="stop3964" />
    </linearGradient>
    <linearGradient
       id="linearGradient3057">
      <stop
         style="stop-color:#ffffff;stop-opacity:0;"
         offset="0"
         id="stop3059" />
      <stop
         style="stop-color:#000000;stop-opacity:0.33576643;"
         offset="1"
         id="stop3061" />
    </linearGradient>
    <radialGradient
       inkscape:collect="always"
       xlink:href="#linearGradient3057"
       id="radialGradient1344"
       gradientUnits="userSpaceOnUse"
       gradientTransform="matrix(1.173024,0.332583,-0.299372,1.05591,100.1909,-113.2195)"
       cx="259"
       cy="484.36218"
       fx="259"
       fy="484.36218"
       r="41" />
    <radialGradient
       inkscape:collect="always"
       xlink:href="#linearGradient3960"
       id="radialGradient2229"
       cx="259.8519"
       cy="485.57144"
       fx="259.8519"
       fy="485.57144"
       r="13.5"
       gradientUnits="userSpaceOnUse"
       gradientTransform="matrix(-0.162405,0.993762,-1.006081,-4.492722e-2,795.225,250.4464)" />
    <radialGradient
       inkscape:collect="always"
       xlink:href="#linearGradient3057"
       id="radialGradient1359"
       gradientUnits="userSpaceOnUse"
       gradientTransform="matrix(1.173024,0.332583,-0.299372,1.05591,100.1909,-113.2195)"
       cx="259"
       cy="484.36218"
       fx="259"
       fy="484.36218"
       r="41" />
    <radialGradient
       inkscape:collect="always"
       xlink:href="#linearGradient3960"
       id="radialGradient1361"
       gradientUnits="userSpaceOnUse"
       gradientTransform="matrix(-0.162405,0.993762,-1.006081,-4.492722e-2,795.225,250.4464)"
       cx="259.8519"
       cy="485.57144"
       fx="259.8519"
       fy="485.57144"
       r="13.5" />
    <radialGradient
       inkscape:collect="always"
       xlink:href="#linearGradient3057"
       id="radialGradient1377"
       gradientUnits="userSpaceOnUse"
       gradientTransform="matrix(1.173024,0.332583,-0.299372,1.05591,100.1909,-113.2195)"
       cx="259"
       cy="484.36218"
       fx="259"
       fy="484.36218"
       r="41" />
    <radialGradient
       inkscape:collect="always"
       xlink:href="#linearGradient3960"
       id="radialGradient1379"
       gradientUnits="userSpaceOnUse"
       gradientTransform="matrix(-0.162405,0.993762,-1.006081,-4.492722e-2,795.225,250.4464)"
       cx="259.8519"
       cy="485.57144"
       fx="259.8519"
       fy="485.57144"
       r="13.5" />
    <radialGradient
       inkscape:collect="always"
       xlink:href="#linearGradient3057"
       id="radialGradient1395"
       gradientUnits="userSpaceOnUse"
       gradientTransform="matrix(1.173024,0.332583,-0.299372,1.05591,100.1909,-113.2195)"
       cx="259"
       cy="484.36218"
       fx="259"
       fy="484.36218"
       r="41" />
    <radialGradient
       inkscape:collect="always"
       xlink:href="#linearGradient3960"
       id="radialGradient1397"
       gradientUnits="userSpaceOnUse"
       gradientTransform="matrix(-0.162405,0.993762,-1.006081,-4.492722e-2,795.225,250.4464)"
       cx="259.8519"
       cy="485.57144"
       fx="259.8519"
       fy="485.57144"
       r="13.5" />
    <radialGradient
       inkscape:collect="always"
       xlink:href="#linearGradient3057"
       id="radialGradient1413"
       gradientUnits="userSpaceOnUse"
       gradientTransform="matrix(1.173024,0.332583,-0.299372,1.05591,100.1909,-113.2195)"
       cx="259"
       cy="484.36218"
       fx="259"
       fy="484.36218"
       r="41" />
    <radialGradient
       inkscape:collect="always"
       xlink:href="#linearGradient3960"
       id="radialGradient1415"
       gradientUnits="userSpaceOnUse"
       gradientTransform="matrix(-0.162405,0.993762,-1.006081,-4.492722e-2,795.225,250.4464)"
       cx="259.8519"
       cy="485.57144"
       fx="259.8519"
       fy="485.57144"
       r="13.5" />
    <radialGradient
       inkscape:collect="always"
       xlink:href="#linearGradient3057"
       id="radialGradient1431"
       gradientUnits="userSpaceOnUse"
       gradientTransform="matrix(1.173024,0.332583,-0.299372,1.05591,100.1909,-113.2195)"
       cx="259"
       cy="484.36218"
       fx="259"
       fy="484.36218"
       r="41" />
    <radialGradient
       inkscape:collect="always"
       xlink:href="#linearGradient3960"
       id="radialGradient1433"
       gradientUnits="userSpaceOnUse"
       gradientTransform="matrix(-0.162405,0.993762,-1.006081,-4.492722e-2,795.225,250.4464)"
       cx="259.8519"
       cy="485.57144"
       fx="259.8519"
       fy="485.57144"
       r="13.5" />
    <radialGradient
       inkscape:collect="always"
       xlink:href="#linearGradient3057"
       id="radialGradient1449"
       gradientUnits="userSpaceOnUse"
       gradientTransform="matrix(1.173024,0.332583,-0.299372,1.05591,100.1909,-113.2195)"
       cx="259"
       cy="484.36218"
       fx="259"
       fy="484.36218"
       r="41" />
    <radialGradient
       inkscape:collect="always"
       xlink:href="#linearGradient3960"
       id="radialGradient1451"
       gradientUnits="userSpaceOnUse"
       gradientTransform="matrix(-0.162405,0.993762,-1.006081,-4.492722e-2,795.225,250.4464)"
       cx="259.8519"
       cy="485.57144"
       fx="259.8519"
       fy="485.57144"
       r="13.5" />
    <radialGradient
       inkscape:collect="always"
       xlink:href="#linearGradient3057"
       id="radialGradient1467"
       gradientUnits="userSpaceOnUse"
       gradientTransform="matrix(1.173024,0.332583,-0.299372,1.05591,100.1909,-113.2195)"
       cx="259"
       cy="484.36218"
       fx="259"
       fy="484.36218"
       r="41" />
    <radialGradient
       inkscape:collect="always"
       xlink:href="#linearGradient3960"
       id="radialGradient1469"
       gradientUnits="userSpaceOnUse"
       gradientTransform="matrix(-0.162405,0.993762,-1.006081,-4.492722e-2,795.225,250.4464)"
       cx="259.8519"
       cy="485.57144"
       fx="259.8519"
       fy="485.57144"
       r="13.5" />
    <radialGradient
       inkscape:collect="always"
       xlink:href="#linearGradient3057"
       id="radialGradient1485"
       gradientUnits="userSpaceOnUse"
       gradientTransform="matrix(1.173024,0.332583,-0.299372,1.05591,100.1909,-113.2195)"
       cx="259"
       cy="484.36218"
       fx="259"
       fy="484.36218"
       r="41" />
    <radialGradient
       inkscape:collect="always"
       xlink:href="#linearGradient3960"
       id="radialGradient1487"
       gradientUnits="userSpaceOnUse"
       gradientTransform="matrix(-0.162405,0.993762,-1.006081,-4.492722e-2,795.225,250.4464)"
       cx="259.8519"
       cy="485.57144"
       fx="259.8519"
       fy="485.57144"
       r="13.5" />
  </defs>
  <sodipodi:namedview
     id="base"
     pagecolor="#ffffff"
     bordercolor="#666666"
     borderopacity="1.0"
     inkscape:pageopacity="0.0"
     inkscape:pageshadow="2"
     inkscape:zoom="1"
     inkscape:cx="64"
     inkscape:cy="53.051265"
     inkscape:document-units="px"
     inkscape:current-layer="layer1"
     inkscape:window-width="1152"
     inkscape:window-height="791"
     inkscape:window-x="-22"
     inkscape:window-y="24" />
  <metadata
     id="metadata7">
    <rdf:RDF>
      <cc:Work
         rdf:about="">
        <dc:format>image/svg+xml</dc:format>
        <dc:type
           rdf:resource="http://purl.org/dc/dcmitype/StillImage" />
      </cc:Work>
    </rdf:RDF>
  </metadata>
  <g
     inkscape:label="Layer 1"
     inkscape:groupmode="layer"
     id="layer1">
    <g
       id="g1382"
       transform="translate(-3,-2)">
      <path
         transform="translate(-197,-448)"
         d="M 295 500.36218 A 41 41 0 1 1  213,500.36218 A 41 41 0 1 1  295 500.36218 z"
         sodipodi:ry="41"
         sodipodi:rx="41"
         sodipodi:cy="500.36218"
         sodipodi:cx="254"
         id="path1352"
         style="fill:#000000;fill-opacity:0.37848606;stroke:none;stroke-width:1;stroke-linejoin:bevel;stroke-miterlimit:4;stroke-dasharray:none;stroke-dashoffset:0;stroke-opacity:1"
         sodipodi:type="arc" />
      <path
         sodipodi:type="arc"
         style="fill:#000000;fill-opacity:0.37848606;stroke:none;stroke-width:1;stroke-linejoin:bevel;stroke-miterlimit:4;stroke-dasharray:none;stroke-dashoffset:0;stroke-opacity:1"
         id="path4843"
         sodipodi:cx="254"
         sodipodi:cy="500.36218"
         sodipodi:rx="41"
         sodipodi:ry="41"
         d="M 295 500.36218 A 41 41 0 1 1  213,500.36218 A 41 41 0 1 1  295 500.36218 z"
         transform="translate(-200,-450)" />
      <path
         transform="translate(-202,-451.3622)"
         d="M 295 500.36218 A 41 41 0 1 1  213,500.36218 A 41 41 0 1 1  295 500.36218 z"
         sodipodi:ry="41"
         sodipodi:rx="41"
         sodipodi:cy="500.36218"
         sodipodi:cx="254"
         id="path1307"
         style="fill:#0200ff;fill-opacity:1;stroke:none;stroke-width:1;stroke-linejoin:bevel;stroke-miterlimit:4;stroke-dasharray:none;stroke-dashoffset:0;stroke-opacity:1"
         sodipodi:type="arc" />
      <path
         transform="translate(-202,-451.3622)"
         sodipodi:type="arc"
         style="fill:url(#radialGradient1344);fill-opacity:1;stroke:none;stroke-width:1;stroke-linejoin:bevel;stroke-miterlimit:4;stroke-dasharray:none;stroke-dashoffset:0;stroke-opacity:1"
         id="path2182"
         sodipodi:cx="254"
         sodipodi:cy="500.36218"
         sodipodi:rx="41"
         sodipodi:ry="41"
         d="M 295 500.36218 A 41 41 0 1 1  213,500.36218 A 41 41 0 1 1  295 500.36218 z" />
      <path
         sodipodi:nodetypes="ccc"
         id="path3083"
         d="M 64.5,17.5 C 12.69936,19.85275 66.69784,42.61701 39.5,80.5 C 94.0208,61.09381 35.5,44.5 64.5,17.5 z "
         style="fill:#010101;fill-opacity:0.28235294;fill-rule:evenodd;stroke:none;stroke-width:1px;stroke-linecap:butt;stroke-linejoin:miter;stroke-opacity:1" />
      <path
         transform="matrix(0.408866,-1.253718,2.398416,0.782178,-1213.344,-21.19637)"
         d="M 278 486.86218 A 13.5 13.5 0 1 1  251,486.86218 A 13.5 13.5 0 1 1  278 486.86218 z"
         sodipodi:ry="13.5"
         sodipodi:rx="13.5"
         sodipodi:cy="486.86218"
         sodipodi:cx="264.5"
         id="path3958"
         style="opacity:0.81102361;fill:url(#radialGradient2229);fill-opacity:1;stroke:none;stroke-width:1;stroke-linejoin:bevel;stroke-miterlimit:4;stroke-dasharray:none;stroke-dashoffset:0;stroke-opacity:1"
         sodipodi:type="arc" />
    </g>
    <g
       id="g1438"
       transform="translate(-3,0)">
      <path
         sodipodi:type="arc"
         style="fill:#000000;fill-opacity:0.37848606;stroke:none;stroke-width:1;stroke-linejoin:bevel;stroke-miterlimit:4;stroke-dasharray:none;stroke-dashoffset:0;stroke-opacity:1"
         id="path1473"
         sodipodi:cx="254"
         sodipodi:cy="500.36218"
         sodipodi:rx="41"
         sodipodi:ry="41"
         d="M 295 500.36218 A 41 41 0 1 1  213,500.36218 A 41 41 0 1 1  295 500.36218 z"
         transform="translate(-197,-362.6378)" />
      <path
         transform="translate(-200,-364.6378)"
         d="M 295 500.36218 A 41 41 0 1 1  213,500.36218 A 41 41 0 1 1  295 500.36218 z"
         sodipodi:ry="41"
         sodipodi:rx="41"
         sodipodi:cy="500.36218"
         sodipodi:cx="254"
         id="path1475"
         style="fill:#000000;fill-opacity:0.37848606;stroke:none;stroke-width:1;stroke-linejoin:bevel;stroke-miterlimit:4;stroke-dasharray:none;stroke-dashoffset:0;stroke-opacity:1"
         sodipodi:type="arc" />
      <path
         sodipodi:type="arc"
         style="fill:#ffb300;fill-opacity:1;stroke:none;stroke-width:1;stroke-linejoin:bevel;stroke-miterlimit:4;stroke-dasharray:none;stroke-dashoffset:0;stroke-opacity:1"
         id="path1477"
         sodipodi:cx="254"
         sodipodi:cy="500.36218"
         sodipodi:rx="41"
         sodipodi:ry="41"
         d="M 295 500.36218 A 41 41 0 1 1  213,500.36218 A 41 41 0 1 1  295 500.36218 z"
         transform="translate(-202,-366)" />
      <path
         d="M 295 500.36218 A 41 41 0 1 1  213,500.36218 A 41 41 0 1 1  295 500.36218 z"
         sodipodi:ry="41"
         sodipodi:rx="41"
         sodipodi:cy="500.36218"
         sodipodi:cx="254"
         id="path1479"
         style="fill:url(#radialGradient1485);fill-opacity:1;stroke:none;stroke-width:1;stroke-linejoin:bevel;stroke-miterlimit:4;stroke-dasharray:none;stroke-dashoffset:0;stroke-opacity:1"
         sodipodi:type="arc"
         transform="translate(-202,-366)" />
      <path
         style="fill:#010101;fill-opacity:0.28235294;fill-rule:evenodd;stroke:none;stroke-width:1px;stroke-linecap:butt;stroke-linejoin:miter;stroke-opacity:1"
         d="M 64.5,102.8622 C 12.69936,105.21495 66.69784,127.97921 39.5,165.8622 C 94.0208,146.45601 35.5,129.8622 64.5,102.8622 z "
         id="path1481"
         sodipodi:nodetypes="ccc" />
      <path
         sodipodi:type="arc"
         style="opacity:0.81102361;fill:url(#radialGradient1487);fill-opacity:1;stroke:none;stroke-width:1;stroke-linejoin:bevel;stroke-miterlimit:4;stroke-dasharray:none;stroke-dashoffset:0;stroke-opacity:1"
         id="path1483"
         sodipodi:cx="264.5"
         sodipodi:cy="486.86218"
         sodipodi:rx="13.5"
         sodipodi:ry="13.5"
         d="M 278 486.86218 A 13.5 13.5 0 1 1  251,486.86218 A 13.5 13.5 0 1 1  278 486.86218 z"
         transform="matrix(0.408866,-1.253718,2.398416,0.782178,-1213.344,64.16583)" />
    </g>
    <g
       id="g1430"
       transform="translate(-2,4)">
      <path
         sodipodi:type="arc"
         style="fill:#000000;fill-opacity:0.37848606;stroke:none;stroke-width:1;stroke-linejoin:bevel;stroke-miterlimit:4;stroke-dasharray:none;stroke-dashoffset:0;stroke-opacity:1"
         id="path1455"
         sodipodi:cx="254"
         sodipodi:cy="500.36218"
         sodipodi:rx="41"
         sodipodi:ry="41"
         d="M 295 500.36218 A 41 41 0 1 1  213,500.36218 A 41 41 0 1 1  295 500.36218 z"
         transform="translate(-197,-277.2756)" />
      <path
         transform="translate(-200,-279.2756)"
         d="M 295 500.36218 A 41 41 0 1 1  213,500.36218 A 41 41 0 1 1  295 500.36218 z"
         sodipodi:ry="41"
         sodipodi:rx="41"
         sodipodi:cy="500.36218"
         sodipodi:cx="254"
         id="path1457"
         style="fill:#000000;fill-opacity:0.37848606;stroke:none;stroke-width:1;stroke-linejoin:bevel;stroke-miterlimit:4;stroke-dasharray:none;stroke-dashoffset:0;stroke-opacity:1"
         sodipodi:type="arc" />
      <path
         sodipodi:type="arc"
         style="fill:#a212a4;fill-opacity:1;stroke:none;stroke-width:1;stroke-linejoin:bevel;stroke-miterlimit:4;stroke-dasharray:none;stroke-dashoffset:0;stroke-opacity:1"
         id="path1459"
         sodipodi:cx="254"
         sodipodi:cy="500.36218"
         sodipodi:rx="41"
         sodipodi:ry="41"
         d="M 295 500.36218 A 41 41 0 1 1  213,500.36218 A 41 41 0 1 1  295 500.36218 z"
         transform="translate(-202,-280.6378)" />
      <path
         d="M 295 500.36218 A 41 41 0 1 1  213,500.36218 A 41 41 0 1 1  295 500.36218 z"
         sodipodi:ry="41"
         sodipodi:rx="41"
         sodipodi:cy="500.36218"
         sodipodi:cx="254"
         id="path1461"
         style="fill:url(#radialGradient1467);fill-opacity:1;stroke:none;stroke-width:1;stroke-linejoin:bevel;stroke-miterlimit:4;stroke-dasharray:none;stroke-dashoffset:0;stroke-opacity:1"
         sodipodi:type="arc"
         transform="translate(-202,-280.6378)" />
      <path
         style="fill:#010101;fill-opacity:0.28235294;fill-rule:evenodd;stroke:none;stroke-width:1px;stroke-linecap:butt;stroke-linejoin:miter;stroke-opacity:1"
         d="M 64.5,188.2244 C 12.69936,190.57715 66.69784,213.34141 39.5,251.2244 C 94.0208,231.81821 35.5,215.2244 64.5,188.2244 z "
         id="path1463"
         sodipodi:nodetypes="ccc" />
      <path
         sodipodi:type="arc"
         style="opacity:0.81102361;fill:url(#radialGradient1469);fill-opacity:1;stroke:none;stroke-width:1;stroke-linejoin:bevel;stroke-miterlimit:4;stroke-dasharray:none;stroke-dashoffset:0;stroke-opacity:1"
         id="path1465"
         sodipodi:cx="264.5"
         sodipodi:cy="486.86218"
         sodipodi:rx="13.5"
         sodipodi:ry="13.5"
         d="M 278 486.86218 A 13.5 13.5 0 1 1  251,486.86218 A 13.5 13.5 0 1 1  278 486.86218 z"
         transform="matrix(0.408866,-1.253718,2.398416,0.782178,-1213.344,149.528)" />
    </g>
    <g
       id="g1390"
       transform="translate(0,-2)">
      <path
         sodipodi:type="arc"
         style="fill:#000000;fill-opacity:0.37848606;stroke:none;stroke-width:1;stroke-linejoin:bevel;stroke-miterlimit:4;stroke-dasharray:none;stroke-dashoffset:0;stroke-opacity:1"
         id="path1437"
         sodipodi:cx="254"
         sodipodi:cy="500.36218"
         sodipodi:rx="41"
         sodipodi:ry="41"
         d="M 295 500.36218 A 41 41 0 1 1  213,500.36218 A 41 41 0 1 1  295 500.36218 z"
         transform="translate(-110,-448)" />
      <path
         transform="translate(-113,-450)"
         d="M 295 500.36218 A 41 41 0 1 1  213,500.36218 A 41 41 0 1 1  295 500.36218 z"
         sodipodi:ry="41"
         sodipodi:rx="41"
         sodipodi:cy="500.36218"
         sodipodi:cx="254"
         id="path1439"
         style="fill:#000000;fill-opacity:0.37848606;stroke:none;stroke-width:1;stroke-linejoin:bevel;stroke-miterlimit:4;stroke-dasharray:none;stroke-dashoffset:0;stroke-opacity:1"
         sodipodi:type="arc" />
      <path
         sodipodi:type="arc"
         style="fill:#969696;fill-opacity:1;stroke:none;stroke-width:1;stroke-linejoin:bevel;stroke-miterlimit:4;stroke-dasharray:none;stroke-dashoffset:0;stroke-opacity:1"
         id="path1441"
         sodipodi:cx="254"
         sodipodi:cy="500.36218"
         sodipodi:rx="41"
         sodipodi:ry="41"
         d="M 295 500.36218 A 41 41 0 1 1  213,500.36218 A 41 41 0 1 1  295 500.36218 z"
         transform="translate(-115,-451.3622)" />
      <path
         d="M 295 500.36218 A 41 41 0 1 1  213,500.36218 A 41 41 0 1 1  295 500.36218 z"
         sodipodi:ry="41"
         sodipodi:rx="41"
         sodipodi:cy="500.36218"
         sodipodi:cx="254"
         id="path1443"
         style="fill:url(#radialGradient1449);fill-opacity:1;stroke:none;stroke-width:1;stroke-linejoin:bevel;stroke-miterlimit:4;stroke-dasharray:none;stroke-dashoffset:0;stroke-opacity:1"
         sodipodi:type="arc"
         transform="translate(-115,-451.3622)" />
      <path
         style="fill:#010101;fill-opacity:0.28235294;fill-rule:evenodd;stroke:none;stroke-width:1px;stroke-linecap:butt;stroke-linejoin:miter;stroke-opacity:1"
         d="M 151.5,17.5 C 99.69936,19.85275 153.69784,42.61701 126.5,80.5 C 181.0208,61.09381 122.5,44.5 151.5,17.5 z "
         id="path1445"
         sodipodi:nodetypes="ccc" />
      <path
         sodipodi:type="arc"
         style="opacity:0.81102361;fill:url(#radialGradient1451);fill-opacity:1;stroke:none;stroke-width:1;stroke-linejoin:bevel;stroke-miterlimit:4;stroke-dasharray:none;stroke-dashoffset:0;stroke-opacity:1"
         id="path1447"
         sodipodi:cx="264.5"
         sodipodi:cy="486.86218"
         sodipodi:rx="13.5"
         sodipodi:ry="13.5"
         d="M 278 486.86218 A 13.5 13.5 0 1 1  251,486.86218 A 13.5 13.5 0 1 1  278 486.86218 z"
         transform="matrix(0.408866,-1.253718,2.398416,0.782178,-1126.344,-21.19637)" />
    </g>
    <g
       id="g1446">
      <path
         sodipodi:type="arc"
         style="fill:#000000;fill-opacity:0.37848606;stroke:none;stroke-width:1;stroke-linejoin:bevel;stroke-miterlimit:4;stroke-dasharray:none;stroke-dashoffset:0;stroke-opacity:1"
         id="path1419"
         sodipodi:cx="254"
         sodipodi:cy="500.36218"
         sodipodi:rx="41"
         sodipodi:ry="41"
         d="M 295 500.36218 A 41 41 0 1 1  213,500.36218 A 41 41 0 1 1  295 500.36218 z"
         transform="translate(-110,-362.6378)" />
      <path
         transform="translate(-113,-364.6378)"
         d="M 295 500.36218 A 41 41 0 1 1  213,500.36218 A 41 41 0 1 1  295 500.36218 z"
         sodipodi:ry="41"
         sodipodi:rx="41"
         sodipodi:cy="500.36218"
         sodipodi:cx="254"
         id="path1421"
         style="fill:#000000;fill-opacity:0.37848606;stroke:none;stroke-width:1;stroke-linejoin:bevel;stroke-miterlimit:4;stroke-dasharray:none;stroke-dashoffset:0;stroke-opacity:1"
         sodipodi:type="arc" />
      <path
         sodipodi:type="arc"
         style="fill:#00ff00;fill-opacity:1;stroke:none;stroke-width:1;stroke-linejoin:bevel;stroke-miterlimit:4;stroke-dasharray:none;stroke-dashoffset:0;stroke-opacity:1"
         id="path1423"
         sodipodi:cx="254"
         sodipodi:cy="500.36218"
         sodipodi:rx="41"
         sodipodi:ry="41"
         d="M 295 500.36218 A 41 41 0 1 1  213,500.36218 A 41 41 0 1 1  295 500.36218 z"
         transform="translate(-115,-366)" />
      <path
         d="M 295 500.36218 A 41 41 0 1 1  213,500.36218 A 41 41 0 1 1  295 500.36218 z"
         sodipodi:ry="41"
         sodipodi:rx="41"
         sodipodi:cy="500.36218"
         sodipodi:cx="254"
         id="path1425"
         style="fill:url(#radialGradient1431);fill-opacity:1;stroke:none;stroke-width:1;stroke-linejoin:bevel;stroke-miterlimit:4;stroke-dasharray:none;stroke-dashoffset:0;stroke-opacity:1"
         sodipodi:type="arc"
         transform="translate(-115,-366)" />
      <path
         style="fill:#010101;fill-opacity:0.28235294;fill-rule:evenodd;stroke:none;stroke-width:1px;stroke-linecap:butt;stroke-linejoin:miter;stroke-opacity:1"
         d="M 151.5,102.8622 C 99.69936,105.21495 153.69784,127.97921 126.5,165.8622 C 181.0208,146.45601 122.5,129.8622 151.5,102.8622 z "
         id="path1427"
         sodipodi:nodetypes="ccc" />
      <path
         sodipodi:type="arc"
         style="opacity:0.81102361;fill:url(#radialGradient1433);fill-opacity:1;stroke:none;stroke-width:1;stroke-linejoin:bevel;stroke-miterlimit:4;stroke-dasharray:none;stroke-dashoffset:0;stroke-opacity:1"
         id="path1429"
         sodipodi:cx="264.5"
         sodipodi:cy="486.86218"
         sodipodi:rx="13.5"
         sodipodi:ry="13.5"
         d="M 278 486.86218 A 13.5 13.5 0 1 1  251,486.86218 A 13.5 13.5 0 1 1  278 486.86218 z"
         transform="matrix(0.408866,-1.253718,2.398416,0.782178,-1126.344,64.16583)" />
    </g>
    <g
       id="g1422"
       transform="translate(1,4)">
      <path
         sodipodi:type="arc"
         style="fill:#000000;fill-opacity:0.37848606;stroke:none;stroke-width:1;stroke-linejoin:bevel;stroke-miterlimit:4;stroke-dasharray:none;stroke-dashoffset:0;stroke-opacity:1"
         id="path1401"
         sodipodi:cx="254"
         sodipodi:cy="500.36218"
         sodipodi:rx="41"
         sodipodi:ry="41"
         d="M 295 500.36218 A 41 41 0 1 1  213,500.36218 A 41 41 0 1 1  295 500.36218 z"
         transform="translate(-110,-277.2756)" />
      <path
         transform="translate(-113,-279.2756)"
         d="M 295 500.36218 A 41 41 0 1 1  213,500.36218 A 41 41 0 1 1  295 500.36218 z"
         sodipodi:ry="41"
         sodipodi:rx="41"
         sodipodi:cy="500.36218"
         sodipodi:cx="254"
         id="path1403"
         style="fill:#000000;fill-opacity:0.37848606;stroke:none;stroke-width:1;stroke-linejoin:bevel;stroke-miterlimit:4;stroke-dasharray:none;stroke-dashoffset:0;stroke-opacity:1"
         sodipodi:type="arc" />
      <path
         sodipodi:type="arc"
         style="fill:#ff008a;fill-opacity:1;stroke:none;stroke-width:1;stroke-linejoin:bevel;stroke-miterlimit:4;stroke-dasharray:none;stroke-dashoffset:0;stroke-opacity:1"
         id="path1405"
         sodipodi:cx="254"
         sodipodi:cy="500.36218"
         sodipodi:rx="41"
         sodipodi:ry="41"
         d="M 295 500.36218 A 41 41 0 1 1  213,500.36218 A 41 41 0 1 1  295 500.36218 z"
         transform="translate(-115,-280.6378)" />
      <path
         d="M 295 500.36218 A 41 41 0 1 1  213,500.36218 A 41 41 0 1 1  295 500.36218 z"
         sodipodi:ry="41"
         sodipodi:rx="41"
         sodipodi:cy="500.36218"
         sodipodi:cx="254"
         id="path1407"
         style="fill:url(#radialGradient1413);fill-opacity:1;stroke:none;stroke-width:1;stroke-linejoin:bevel;stroke-miterlimit:4;stroke-dasharray:none;stroke-dashoffset:0;stroke-opacity:1"
         sodipodi:type="arc"
         transform="translate(-115,-280.6378)" />
      <path
         style="fill:#010101;fill-opacity:0.28235294;fill-rule:evenodd;stroke:none;stroke-width:1px;stroke-linecap:butt;stroke-linejoin:miter;stroke-opacity:1"
         d="M 151.5,188.2244 C 99.69936,190.57715 153.69784,213.34141 126.5,251.2244 C 181.0208,231.81821 122.5,215.2244 151.5,188.2244 z "
         id="path1409"
         sodipodi:nodetypes="ccc" />
      <path
         sodipodi:type="arc"
         style="opacity:0.81102361;fill:url(#radialGradient1415);fill-opacity:1;stroke:none;stroke-width:1;stroke-linejoin:bevel;stroke-miterlimit:4;stroke-dasharray:none;stroke-dashoffset:0;stroke-opacity:1"
         id="path1411"
         sodipodi:cx="264.5"
         sodipodi:cy="486.86218"
         sodipodi:rx="13.5"
         sodipodi:ry="13.5"
         d="M 278 486.86218 A 13.5 13.5 0 1 1  251,486.86218 A 13.5 13.5 0 1 1  278 486.86218 z"
         transform="matrix(0.408866,-1.253718,2.398416,0.782178,-1126.344,149.528)" />
    </g>
    <g
       id="g1398"
       transform="translate(5,-5)">
      <path
         sodipodi:type="arc"
         style="fill:#000000;fill-opacity:0.37848606;stroke:none;stroke-width:1;stroke-linejoin:bevel;stroke-miterlimit:4;stroke-dasharray:none;stroke-dashoffset:0;stroke-opacity:1"
         id="path1383"
         sodipodi:cx="254"
         sodipodi:cy="500.36218"
         sodipodi:rx="41"
         sodipodi:ry="41"
         d="M 295 500.36218 A 41 41 0 1 1  213,500.36218 A 41 41 0 1 1  295 500.36218 z"
         transform="translate(-23,-448)" />
      <path
         transform="translate(-26,-450)"
         d="M 295 500.36218 A 41 41 0 1 1  213,500.36218 A 41 41 0 1 1  295 500.36218 z"
         sodipodi:ry="41"
         sodipodi:rx="41"
         sodipodi:cy="500.36218"
         sodipodi:cx="254"
         id="path1385"
         style="fill:#000000;fill-opacity:0.37848606;stroke:none;stroke-width:1;stroke-linejoin:bevel;stroke-miterlimit:4;stroke-dasharray:none;stroke-dashoffset:0;stroke-opacity:1"
         sodipodi:type="arc" />
      <path
         sodipodi:type="arc"
         style="fill:#ff0013;fill-opacity:1;stroke:none;stroke-width:1;stroke-linejoin:bevel;stroke-miterlimit:4;stroke-dasharray:none;stroke-dashoffset:0;stroke-opacity:1"
         id="path1387"
         sodipodi:cx="254"
         sodipodi:cy="500.36218"
         sodipodi:rx="41"
         sodipodi:ry="41"
         d="M 295 500.36218 A 41 41 0 1 1  213,500.36218 A 41 41 0 1 1  295 500.36218 z"
         transform="translate(-28,-451.3622)" />
      <path
         d="M 295 500.36218 A 41 41 0 1 1  213,500.36218 A 41 41 0 1 1  295 500.36218 z"
         sodipodi:ry="41"
         sodipodi:rx="41"
         sodipodi:cy="500.36218"
         sodipodi:cx="254"
         id="path1389"
         style="fill:url(#radialGradient1395);fill-opacity:1;stroke:none;stroke-width:1;stroke-linejoin:bevel;stroke-miterlimit:4;stroke-dasharray:none;stroke-dashoffset:0;stroke-opacity:1"
         sodipodi:type="arc"
         transform="translate(-28,-451.3622)" />
      <path
         style="fill:#010101;fill-opacity:0.28235294;fill-rule:evenodd;stroke:none;stroke-width:1px;stroke-linecap:butt;stroke-linejoin:miter;stroke-opacity:1"
         d="M 238.5,17.5 C 186.69936,19.85275 240.69784,42.61701 213.5,80.5 C 268.0208,61.09381 209.5,44.5 238.5,17.5 z "
         id="path1391"
         sodipodi:nodetypes="ccc" />
      <path
         sodipodi:type="arc"
         style="opacity:0.81102361;fill:url(#radialGradient1397);fill-opacity:1;stroke:none;stroke-width:1;stroke-linejoin:bevel;stroke-miterlimit:4;stroke-dasharray:none;stroke-dashoffset:0;stroke-opacity:1"
         id="path1393"
         sodipodi:cx="264.5"
         sodipodi:cy="486.86218"
         sodipodi:rx="13.5"
         sodipodi:ry="13.5"
         d="M 278 486.86218 A 13.5 13.5 0 1 1  251,486.86218 A 13.5 13.5 0 1 1  278 486.86218 z"
         transform="matrix(0.408866,-1.253718,2.398416,0.782178,-1039.344,-21.19637)" />
    </g>
    <g
       id="g1406"
       transform="translate(5,-3)">
      <path
         sodipodi:type="arc"
         style="fill:#000000;fill-opacity:0.37848606;stroke:none;stroke-width:1;stroke-linejoin:bevel;stroke-miterlimit:4;stroke-dasharray:none;stroke-dashoffset:0;stroke-opacity:1"
         id="path1365"
         sodipodi:cx="254"
         sodipodi:cy="500.36218"
         sodipodi:rx="41"
         sodipodi:ry="41"
         d="M 295 500.36218 A 41 41 0 1 1  213,500.36218 A 41 41 0 1 1  295 500.36218 z"
         transform="translate(-23,-362.6378)" />
      <path
         transform="translate(-26,-364.6378)"
         d="M 295 500.36218 A 41 41 0 1 1  213,500.36218 A 41 41 0 1 1  295 500.36218 z"
         sodipodi:ry="41"
         sodipodi:rx="41"
         sodipodi:cy="500.36218"
         sodipodi:cx="254"
         id="path1367"
         style="fill:#000000;fill-opacity:0.37848606;stroke:none;stroke-width:1;stroke-linejoin:bevel;stroke-miterlimit:4;stroke-dasharray:none;stroke-dashoffset:0;stroke-opacity:1"
         sodipodi:type="arc" />
      <path
         sodipodi:type="arc"
         style="fill:#fef708;fill-opacity:1;stroke:none;stroke-width:1;stroke-linejoin:bevel;stroke-miterlimit:4;stroke-dasharray:none;stroke-dashoffset:0;stroke-opacity:1"
         id="path1369"
         sodipodi:cx="254"
         sodipodi:cy="500.36218"
         sodipodi:rx="41"
         sodipodi:ry="41"
         d="M 295 500.36218 A 41 41 0 1 1  213,500.36218 A 41 41 0 1 1  295 500.36218 z"
         transform="translate(-28,-366)" />
      <path
         d="M 295 500.36218 A 41 41 0 1 1  213,500.36218 A 41 41 0 1 1  295 500.36218 z"
         sodipodi:ry="41"
         sodipodi:rx="41"
         sodipodi:cy="500.36218"
         sodipodi:cx="254"
         id="path1371"
         style="fill:url(#radialGradient1377);fill-opacity:1;stroke:none;stroke-width:1;stroke-linejoin:bevel;stroke-miterlimit:4;stroke-dasharray:none;stroke-dashoffset:0;stroke-opacity:1"
         sodipodi:type="arc"
         transform="translate(-28,-366)" />
      <path
         style="fill:#010101;fill-opacity:0.28235294;fill-rule:evenodd;stroke:none;stroke-width:1px;stroke-linecap:butt;stroke-linejoin:miter;stroke-opacity:1"
         d="M 238.5,102.8622 C 186.69936,105.21495 240.69784,127.97921 213.5,165.8622 C 268.0208,146.45601 209.5,129.8622 238.5,102.8622 z "
         id="path1373"
         sodipodi:nodetypes="ccc" />
      <path
         sodipodi:type="arc"
         style="opacity:0.81102361;fill:url(#radialGradient1379);fill-opacity:1;stroke:none;stroke-width:1;stroke-linejoin:bevel;stroke-miterlimit:4;stroke-dasharray:none;stroke-dashoffset:0;stroke-opacity:1"
         id="path1375"
         sodipodi:cx="264.5"
         sodipodi:cy="486.86218"
         sodipodi:rx="13.5"
         sodipodi:ry="13.5"
         d="M 278 486.86218 A 13.5 13.5 0 1 1  251,486.86218 A 13.5 13.5 0 1 1  278 486.86218 z"
         transform="matrix(0.408866,-1.253718,2.398416,0.782178,-1039.344,64.16583)" />
    </g>
    <g
       id="g1414"
       transform="translate(6,1)">
      <path
         sodipodi:type="arc"
         style="fill:#000000;fill-opacity:0.37848606;stroke:none;stroke-width:1;stroke-linejoin:bevel;stroke-miterlimit:4;stroke-dasharray:none;stroke-dashoffset:0;stroke-opacity:1"
         id="path1346"
         sodipodi:cx="254"
         sodipodi:cy="500.36218"
         sodipodi:rx="41"
         sodipodi:ry="41"
         d="M 295 500.36218 A 41 41 0 1 1  213,500.36218 A 41 41 0 1 1  295 500.36218 z"
         transform="translate(-23,-277.2756)" />
      <path
         transform="translate(-26,-279.2756)"
         d="M 295 500.36218 A 41 41 0 1 1  213,500.36218 A 41 41 0 1 1  295 500.36218 z"
         sodipodi:ry="41"
         sodipodi:rx="41"
         sodipodi:cy="500.36218"
         sodipodi:cx="254"
         id="path1348"
         style="fill:#000000;fill-opacity:0.37848606;stroke:none;stroke-width:1;stroke-linejoin:bevel;stroke-miterlimit:4;stroke-dasharray:none;stroke-dashoffset:0;stroke-opacity:1"
         sodipodi:type="arc" />
      <path
         sodipodi:type="arc"
         style="fill:#00fff9;fill-opacity:1;stroke:none;stroke-width:1;stroke-linejoin:bevel;stroke-miterlimit:4;stroke-dasharray:none;stroke-dashoffset:0;stroke-opacity:1"
         id="path1350"
         sodipodi:cx="254"
         sodipodi:cy="500.36218"
         sodipodi:rx="41"
         sodipodi:ry="41"
         d="M 295 500.36218 A 41 41 0 1 1  213,500.36218 A 41 41 0 1 1  295 500.36218 z"
         transform="translate(-28,-280.6378)" />
      <path
         d="M 295 500.36218 A 41 41 0 1 1  213,500.36218 A 41 41 0 1 1  295 500.36218 z"
         sodipodi:ry="41"
         sodipodi:rx="41"
         sodipodi:cy="500.36218"
         sodipodi:cx="254"
         id="path1353"
         style="fill:url(#radialGradient1359);fill-opacity:1;stroke:none;stroke-width:1;stroke-linejoin:bevel;stroke-miterlimit:4;stroke-dasharray:none;stroke-dashoffset:0;stroke-opacity:1"
         sodipodi:type="arc"
         transform="translate(-28,-280.6378)" />
      <path
         style="fill:#010101;fill-opacity:0.28235294;fill-rule:evenodd;stroke:none;stroke-width:1px;stroke-linecap:butt;stroke-linejoin:miter;stroke-opacity:1"
         d="M 238.5,188.2244 C 186.69936,190.57715 240.69784,213.34141 213.5,251.2244 C 268.0208,231.81821 209.5,215.2244 238.5,188.2244 z "
         id="path1355"
         sodipodi:nodetypes="ccc" />
      <path
         sodipodi:type="arc"
         style="opacity:0.81102361;fill:url(#radialGradient1361);fill-opacity:1;stroke:none;stroke-width:1;stroke-linejoin:bevel;stroke-miterlimit:4;stroke-dasharray:none;stroke-dashoffset:0;stroke-opacity:1"
         id="path1357"
         sodipodi:cx="264.5"
         sodipodi:cy="486.86218"
         sodipodi:rx="13.5"
         sodipodi:ry="13.5"
         d="M 278 486.86218 A 13.5 13.5 0 1 1  251,486.86218 A 13.5 13.5 0 1 1  278 486.86218 z"
         transform="matrix(0.408866,-1.253718,2.398416,0.782178,-1039.344,149.528)" />
    </g>
  </g>
</svg>
