<?xml version="1.0" encoding="UTF-8" standalone="no"?>
<!-- Created with Inkscape (http://www.inkscape.org/) -->
<svg
   xmlns:dc="http://purl.org/dc/elements/1.1/"
   xmlns:cc="http://web.resource.org/cc/"
   xmlns:rdf="http://www.w3.org/1999/02/22-rdf-syntax-ns#"
   xmlns:svg="http://www.w3.org/2000/svg"
   xmlns="http://www.w3.org/2000/svg"
   xmlns:xlink="http://www.w3.org/1999/xlink"
   xmlns:sodipodi="http://inkscape.sourceforge.net/DTD/sodipodi-0.dtd"
   xmlns:inkscape="http://www.inkscape.org/namespaces/inkscape"
   width="280"
   height="280"
   id="svg2"
   sodipodi:version="0.32"
   inkscape:version="0.43"
   version="1.0"
   sodipodi:docbase="/home/nicu/Desktop/game_elements"
   sodipodi:docname="dots1.svg">
  <defs
     id="defs4">
    <linearGradient
       id="linearGradient3960">
      <stop
         style="stop-color:#ffffff;stop-opacity:1;"
         offset="0"
         id="stop3962" />
      <stop
         style="stop-color:#ffffff;stop-opacity:0;"
         offset="1"
         id="stop3964" />
    </linearGradient>
    <linearGradient
       id="linearGradient3057">
      <stop
         style="stop-color:#ffffff;stop-opacity:0;"
         offset="0"
         id="stop3059" />
      <stop
         style="stop-color:#000000;stop-opacity:0.33576643;"
         offset="1"
         id="stop3061" />
    </linearGradient>
    <radialGradient
       inkscape:collect="always"
       xlink:href="#linearGradient3057"
       id="radialGradient2387"
       gradientUnits="userSpaceOnUse"
       gradientTransform="matrix(1.173024,0.332583,-0.299372,1.05591,100.1909,-113.2195)"
       cx="259"
       cy="484.36218"
       fx="259"
       fy="484.36218"
       r="41" />
    <radialGradient
       inkscape:collect="always"
       xlink:href="#linearGradient3960"
       id="radialGradient2389"
       gradientUnits="userSpaceOnUse"
       gradientTransform="matrix(-0.162405,0.993762,-1.006081,-4.492722e-2,795.225,250.4464)"
       cx="259.8519"
       cy="485.57144"
       fx="259.8519"
       fy="485.57144"
       r="13.5" />
    <linearGradient
       inkscape:collect="always"
       xlink:href="#linearGradient3960"
       id="linearGradient2423"
       gradientUnits="userSpaceOnUse"
       x1="-11"
       y1="-26"
       x2="-11"
       y2="1.4210855e-14" />
    <radialGradient
       inkscape:collect="always"
       xlink:href="#linearGradient3057"
       id="radialGradient2465"
       gradientUnits="userSpaceOnUse"
       gradientTransform="matrix(1.173024,0.332583,-0.299372,1.05591,100.1909,-113.2195)"
       cx="259"
       cy="484.36218"
       fx="259"
       fy="484.36218"
       r="41" />
    <radialGradient
       inkscape:collect="always"
       xlink:href="#linearGradient3960"
       id="radialGradient2467"
       gradientUnits="userSpaceOnUse"
       gradientTransform="matrix(-0.162405,0.993762,-1.006081,-4.492722e-2,795.225,250.4464)"
       cx="259.8519"
       cy="485.57144"
       fx="259.8519"
       fy="485.57144"
       r="13.5" />
    <linearGradient
       inkscape:collect="always"
       xlink:href="#linearGradient3960"
       id="linearGradient2469"
       gradientUnits="userSpaceOnUse"
       x1="-11"
       y1="-26"
       x2="-11"
       y2="1.4210855e-14" />
    <radialGradient
       inkscape:collect="always"
       xlink:href="#linearGradient3057"
       id="radialGradient2485"
       gradientUnits="userSpaceOnUse"
       gradientTransform="matrix(1.173024,0.332583,-0.299372,1.05591,100.1909,-113.2195)"
       cx="259"
       cy="484.36218"
       fx="259"
       fy="484.36218"
       r="41" />
    <radialGradient
       inkscape:collect="always"
       xlink:href="#linearGradient3960"
       id="radialGradient2487"
       gradientUnits="userSpaceOnUse"
       gradientTransform="matrix(-0.162405,0.993762,-1.006081,-4.492722e-2,795.225,250.4464)"
       cx="259.8519"
       cy="485.57144"
       fx="259.8519"
       fy="485.57144"
       r="13.5" />
    <linearGradient
       inkscape:collect="always"
       xlink:href="#linearGradient3960"
       id="linearGradient2489"
       gradientUnits="userSpaceOnUse"
       x1="-11"
       y1="-26"
       x2="-11"
       y2="1.4210855e-14" />
    <radialGradient
       inkscape:collect="always"
       xlink:href="#linearGradient3057"
       id="radialGradient2505"
       gradientUnits="userSpaceOnUse"
       gradientTransform="matrix(1.173024,0.332583,-0.299372,1.05591,100.1909,-113.2195)"
       cx="259"
       cy="484.36218"
       fx="259"
       fy="484.36218"
       r="41" />
    <radialGradient
       inkscape:collect="always"
       xlink:href="#linearGradient3960"
       id="radialGradient2507"
       gradientUnits="userSpaceOnUse"
       gradientTransform="matrix(-0.162405,0.993762,-1.006081,-4.492722e-2,795.225,250.4464)"
       cx="259.8519"
       cy="485.57144"
       fx="259.8519"
       fy="485.57144"
       r="13.5" />
    <linearGradient
       inkscape:collect="always"
       xlink:href="#linearGradient3960"
       id="linearGradient2509"
       gradientUnits="userSpaceOnUse"
       x1="-11"
       y1="-26"
       x2="-11"
       y2="1.4210855e-14" />
    <radialGradient
       inkscape:collect="always"
       xlink:href="#linearGradient3057"
       id="radialGradient2525"
       gradientUnits="userSpaceOnUse"
       gradientTransform="matrix(1.173024,0.332583,-0.299372,1.05591,100.1909,-113.2195)"
       cx="259"
       cy="484.36218"
       fx="259"
       fy="484.36218"
       r="41" />
    <radialGradient
       inkscape:collect="always"
       xlink:href="#linearGradient3960"
       id="radialGradient2527"
       gradientUnits="userSpaceOnUse"
       gradientTransform="matrix(-0.162405,0.993762,-1.006081,-4.492722e-2,795.225,250.4464)"
       cx="259.8519"
       cy="485.57144"
       fx="259.8519"
       fy="485.57144"
       r="13.5" />
    <linearGradient
       inkscape:collect="always"
       xlink:href="#linearGradient3960"
       id="linearGradient2529"
       gradientUnits="userSpaceOnUse"
       x1="-11"
       y1="-26"
       x2="-11"
       y2="1.4210855e-14" />
    <radialGradient
       inkscape:collect="always"
       xlink:href="#linearGradient3057"
       id="radialGradient2545"
       gradientUnits="userSpaceOnUse"
       gradientTransform="matrix(1.173024,0.332583,-0.299372,1.05591,100.1909,-113.2195)"
       cx="259"
       cy="484.36218"
       fx="259"
       fy="484.36218"
       r="41" />
    <radialGradient
       inkscape:collect="always"
       xlink:href="#linearGradient3960"
       id="radialGradient2547"
       gradientUnits="userSpaceOnUse"
       gradientTransform="matrix(-0.162405,0.993762,-1.006081,-4.492722e-2,795.225,250.4464)"
       cx="259.8519"
       cy="485.57144"
       fx="259.8519"
       fy="485.57144"
       r="13.5" />
    <linearGradient
       inkscape:collect="always"
       xlink:href="#linearGradient3960"
       id="linearGradient2549"
       gradientUnits="userSpaceOnUse"
       x1="-11"
       y1="-26"
       x2="-11"
       y2="1.4210855e-14" />
    <radialGradient
       inkscape:collect="always"
       xlink:href="#linearGradient3057"
       id="radialGradient2565"
       gradientUnits="userSpaceOnUse"
       gradientTransform="matrix(1.173024,0.332583,-0.299372,1.05591,100.1909,-113.2195)"
       cx="259"
       cy="484.36218"
       fx="259"
       fy="484.36218"
       r="41" />
    <radialGradient
       inkscape:collect="always"
       xlink:href="#linearGradient3960"
       id="radialGradient2567"
       gradientUnits="userSpaceOnUse"
       gradientTransform="matrix(-0.162405,0.993762,-1.006081,-4.492722e-2,795.225,250.4464)"
       cx="259.8519"
       cy="485.57144"
       fx="259.8519"
       fy="485.57144"
       r="13.5" />
    <linearGradient
       inkscape:collect="always"
       xlink:href="#linearGradient3960"
       id="linearGradient2569"
       gradientUnits="userSpaceOnUse"
       x1="-11"
       y1="-26"
       x2="-11"
       y2="1.4210855e-14" />
    <radialGradient
       inkscape:collect="always"
       xlink:href="#linearGradient3057"
       id="radialGradient2585"
       gradientUnits="userSpaceOnUse"
       gradientTransform="matrix(1.173024,0.332583,-0.299372,1.05591,100.1909,-113.2195)"
       cx="259"
       cy="484.36218"
       fx="259"
       fy="484.36218"
       r="41" />
    <radialGradient
       inkscape:collect="always"
       xlink:href="#linearGradient3960"
       id="radialGradient2587"
       gradientUnits="userSpaceOnUse"
       gradientTransform="matrix(-0.162405,0.993762,-1.006081,-4.492722e-2,795.225,250.4464)"
       cx="259.8519"
       cy="485.57144"
       fx="259.8519"
       fy="485.57144"
       r="13.5" />
    <linearGradient
       inkscape:collect="always"
       xlink:href="#linearGradient3960"
       id="linearGradient2589"
       gradientUnits="userSpaceOnUse"
       x1="-11"
       y1="-26"
       x2="-11"
       y2="1.4210855e-14" />
    <radialGradient
       inkscape:collect="always"
       xlink:href="#linearGradient3057"
       id="radialGradient2605"
       gradientUnits="userSpaceOnUse"
       gradientTransform="matrix(1.173024,0.332583,-0.299372,1.05591,100.1909,-113.2195)"
       cx="259"
       cy="484.36218"
       fx="259"
       fy="484.36218"
       r="41" />
    <radialGradient
       inkscape:collect="always"
       xlink:href="#linearGradient3960"
       id="radialGradient2607"
       gradientUnits="userSpaceOnUse"
       gradientTransform="matrix(-0.162405,0.993762,-1.006081,-4.492722e-2,795.225,250.4464)"
       cx="259.8519"
       cy="485.57144"
       fx="259.8519"
       fy="485.57144"
       r="13.5" />
    <linearGradient
       inkscape:collect="always"
       xlink:href="#linearGradient3960"
       id="linearGradient2609"
       gradientUnits="userSpaceOnUse"
       x1="-11"
       y1="-26"
       x2="-11"
       y2="1.4210855e-14" />
    <radialGradient
       inkscape:collect="always"
       xlink:href="#linearGradient3057"
       id="radialGradient2659"
       gradientUnits="userSpaceOnUse"
       gradientTransform="matrix(1.173024,0.332583,-0.299372,1.05591,100.1909,-113.2195)"
       cx="259"
       cy="484.36218"
       fx="259"
       fy="484.36218"
       r="41" />
    <radialGradient
       inkscape:collect="always"
       xlink:href="#linearGradient3960"
       id="radialGradient2661"
       gradientUnits="userSpaceOnUse"
       gradientTransform="matrix(-0.162405,0.993762,-1.006081,-4.492722e-2,795.225,250.4464)"
       cx="259.8519"
       cy="485.57144"
       fx="259.8519"
       fy="485.57144"
       r="13.5" />
    <linearGradient
       inkscape:collect="always"
       xlink:href="#linearGradient3960"
       id="linearGradient2663"
       gradientUnits="userSpaceOnUse"
       x1="-11"
       y1="-26"
       x2="-11"
       y2="1.4210855e-14" />
  </defs>
  <sodipodi:namedview
     id="base"
     pagecolor="#ffffff"
     bordercolor="#666666"
     borderopacity="1.0"
     inkscape:pageopacity="0.0"
     inkscape:pageshadow="2"
     inkscape:zoom="1"
     inkscape:cx="64"
     inkscape:cy="53.051265"
     inkscape:document-units="px"
     inkscape:current-layer="layer1"
     inkscape:window-width="1152"
     inkscape:window-height="791"
     inkscape:window-x="3"
     inkscape:window-y="24" />
  <metadata
     id="metadata7">
    <rdf:RDF>
      <cc:Work
         rdf:about="">
        <dc:format>image/svg+xml</dc:format>
        <dc:type
           rdf:resource="http://purl.org/dc/dcmitype/StillImage" />
      </cc:Work>
    </rdf:RDF>
  </metadata>
  <g
     inkscape:label="Layer 1"
     inkscape:groupmode="layer"
     id="layer1">
    <g
       id="g1504"
       transform="translate(-3,-6)">
      <path
         transform="translate(-198.5,-444.0433)"
         d="M 295 500.36218 A 41 41 0 1 1  213,500.36218 A 41 41 0 1 1  295 500.36218 z"
         sodipodi:ry="41"
         sodipodi:rx="41"
         sodipodi:cy="500.36218"
         sodipodi:cx="254"
         id="path1352"
         style="fill:#000000;fill-opacity:0.37848606;stroke:none;stroke-width:1;stroke-linejoin:bevel;stroke-miterlimit:4;stroke-dasharray:none;stroke-dashoffset:0;stroke-opacity:1"
         sodipodi:type="arc" />
      <path
         sodipodi:type="arc"
         style="fill:#000000;fill-opacity:0.37848606;stroke:none;stroke-width:1;stroke-linejoin:bevel;stroke-miterlimit:4;stroke-dasharray:none;stroke-dashoffset:0;stroke-opacity:1"
         id="path4843"
         sodipodi:cx="254"
         sodipodi:cy="500.36218"
         sodipodi:rx="41"
         sodipodi:ry="41"
         d="M 295 500.36218 A 41 41 0 1 1  213,500.36218 A 41 41 0 1 1  295 500.36218 z"
         transform="translate(-201.5,-446.0433)" />
      <path
         transform="translate(-203.5,-447.4055)"
         d="M 295 500.36218 A 41 41 0 1 1  213,500.36218 A 41 41 0 1 1  295 500.36218 z"
         sodipodi:ry="41"
         sodipodi:rx="41"
         sodipodi:cy="500.36218"
         sodipodi:cx="254"
         id="path1307"
         style="fill:#0200ff;fill-opacity:1;stroke:none;stroke-width:1;stroke-linejoin:bevel;stroke-miterlimit:4;stroke-dasharray:none;stroke-dashoffset:0;stroke-opacity:1"
         sodipodi:type="arc" />
      <path
         transform="translate(-203.5,-447.4055)"
         sodipodi:type="arc"
         style="fill:url(#radialGradient2659);fill-opacity:1;stroke:none;stroke-width:1;stroke-linejoin:bevel;stroke-miterlimit:4;stroke-dasharray:none;stroke-dashoffset:0;stroke-opacity:1"
         id="path2182"
         sodipodi:cx="254"
         sodipodi:cy="500.36218"
         sodipodi:rx="41"
         sodipodi:ry="41"
         d="M 295 500.36218 A 41 41 0 1 1  213,500.36218 A 41 41 0 1 1  295 500.36218 z" />
      <path
         transform="matrix(-4.256921e-2,-1.132986,1.982307,-8.904336e-2,-902.1201,424.4909)"
         d="M 278 486.86218 A 13.5 13.5 0 1 1  251,486.86218 A 13.5 13.5 0 1 1  278 486.86218 z"
         sodipodi:ry="13.5"
         sodipodi:rx="13.5"
         sodipodi:cy="486.86218"
         sodipodi:cx="264.5"
         id="path3958"
         style="opacity:0.5;fill:url(#radialGradient2661);fill-opacity:1;stroke:none;stroke-width:1;stroke-linejoin:bevel;stroke-miterlimit:4;stroke-dasharray:none;stroke-dashoffset:0;stroke-opacity:1"
         sodipodi:type="arc" />
      <path
         transform="matrix(1.148149,0,0,1.5,63.12963,53.95672)"
         d="M 16 -13 A 27 13 0 1 1  -38,-13 A 27 13 0 1 1  16 -13 z"
         sodipodi:ry="13"
         sodipodi:rx="27"
         sodipodi:cy="-13"
         sodipodi:cx="-11"
         id="path1402"
         style="opacity:0.81102361;fill:url(#linearGradient2663);fill-opacity:1;stroke:none;stroke-width:1;stroke-linejoin:bevel;stroke-miterlimit:4;stroke-dasharray:none;stroke-dashoffset:0;stroke-opacity:1"
         sodipodi:type="arc" />
    </g>
    <g
       id="g1528"
       transform="translate(-3,-1)">
      <path
         sodipodi:type="arc"
         style="fill:#000000;fill-opacity:0.37848606;stroke:none;stroke-width:1;stroke-linejoin:bevel;stroke-miterlimit:4;stroke-dasharray:none;stroke-dashoffset:0;stroke-opacity:1"
         id="path2593"
         sodipodi:cx="254"
         sodipodi:cy="500.36218"
         sodipodi:rx="41"
         sodipodi:ry="41"
         d="M 295 500.36218 A 41 41 0 1 1  213,500.36218 A 41 41 0 1 1  295 500.36218 z"
         transform="translate(-198.5,-358.6811)" />
      <path
         transform="translate(-201.5,-360.6811)"
         d="M 295 500.36218 A 41 41 0 1 1  213,500.36218 A 41 41 0 1 1  295 500.36218 z"
         sodipodi:ry="41"
         sodipodi:rx="41"
         sodipodi:cy="500.36218"
         sodipodi:cx="254"
         id="path2595"
         style="fill:#000000;fill-opacity:0.37848606;stroke:none;stroke-width:1;stroke-linejoin:bevel;stroke-miterlimit:4;stroke-dasharray:none;stroke-dashoffset:0;stroke-opacity:1"
         sodipodi:type="arc" />
      <path
         sodipodi:type="arc"
         style="fill:#ffb300;fill-opacity:1;stroke:none;stroke-width:1;stroke-linejoin:bevel;stroke-miterlimit:4;stroke-dasharray:none;stroke-dashoffset:0;stroke-opacity:1"
         id="path2597"
         sodipodi:cx="254"
         sodipodi:cy="500.36218"
         sodipodi:rx="41"
         sodipodi:ry="41"
         d="M 295 500.36218 A 41 41 0 1 1  213,500.36218 A 41 41 0 1 1  295 500.36218 z"
         transform="translate(-203.5,-362.0433)" />
      <path
         d="M 295 500.36218 A 41 41 0 1 1  213,500.36218 A 41 41 0 1 1  295 500.36218 z"
         sodipodi:ry="41"
         sodipodi:rx="41"
         sodipodi:cy="500.36218"
         sodipodi:cx="254"
         id="path2599"
         style="fill:url(#radialGradient2605);fill-opacity:1;stroke:none;stroke-width:1;stroke-linejoin:bevel;stroke-miterlimit:4;stroke-dasharray:none;stroke-dashoffset:0;stroke-opacity:1"
         sodipodi:type="arc"
         transform="translate(-203.5,-362.0433)" />
      <path
         sodipodi:type="arc"
         style="opacity:0.5;fill:url(#radialGradient2607);fill-opacity:1;stroke:none;stroke-width:1;stroke-linejoin:bevel;stroke-miterlimit:4;stroke-dasharray:none;stroke-dashoffset:0;stroke-opacity:1"
         id="path2601"
         sodipodi:cx="264.5"
         sodipodi:cy="486.86218"
         sodipodi:rx="13.5"
         sodipodi:ry="13.5"
         d="M 278 486.86218 A 13.5 13.5 0 1 1  251,486.86218 A 13.5 13.5 0 1 1  278 486.86218 z"
         transform="matrix(-4.256921e-2,-1.132986,1.982307,-8.904336e-2,-902.1201,509.8531)" />
      <path
         sodipodi:type="arc"
         style="opacity:0.81102361;fill:url(#linearGradient2609);fill-opacity:1;stroke:none;stroke-width:1;stroke-linejoin:bevel;stroke-miterlimit:4;stroke-dasharray:none;stroke-dashoffset:0;stroke-opacity:1"
         id="path2603"
         sodipodi:cx="-11"
         sodipodi:cy="-13"
         sodipodi:rx="27"
         sodipodi:ry="13"
         d="M 16 -13 A 27 13 0 1 1  -38,-13 A 27 13 0 1 1  16 -13 z"
         transform="matrix(1.148149,0,0,1.5,63.12963,139.3189)" />
    </g>
    <g
       id="g1542"
       transform="translate(-3,3)">
      <path
         sodipodi:type="arc"
         style="fill:#000000;fill-opacity:0.37848606;stroke:none;stroke-width:1;stroke-linejoin:bevel;stroke-miterlimit:4;stroke-dasharray:none;stroke-dashoffset:0;stroke-opacity:1"
         id="path2573"
         sodipodi:cx="254"
         sodipodi:cy="500.36218"
         sodipodi:rx="41"
         sodipodi:ry="41"
         d="M 295 500.36218 A 41 41 0 1 1  213,500.36218 A 41 41 0 1 1  295 500.36218 z"
         transform="translate(-198.5,-273.3189)" />
      <path
         transform="translate(-201.5,-275.3189)"
         d="M 295 500.36218 A 41 41 0 1 1  213,500.36218 A 41 41 0 1 1  295 500.36218 z"
         sodipodi:ry="41"
         sodipodi:rx="41"
         sodipodi:cy="500.36218"
         sodipodi:cx="254"
         id="path2575"
         style="fill:#000000;fill-opacity:0.37848606;stroke:none;stroke-width:1;stroke-linejoin:bevel;stroke-miterlimit:4;stroke-dasharray:none;stroke-dashoffset:0;stroke-opacity:1"
         sodipodi:type="arc" />
      <path
         sodipodi:type="arc"
         style="fill:#a212a4;fill-opacity:1;stroke:none;stroke-width:1;stroke-linejoin:bevel;stroke-miterlimit:4;stroke-dasharray:none;stroke-dashoffset:0;stroke-opacity:1"
         id="path2577"
         sodipodi:cx="254"
         sodipodi:cy="500.36218"
         sodipodi:rx="41"
         sodipodi:ry="41"
         d="M 295 500.36218 A 41 41 0 1 1  213,500.36218 A 41 41 0 1 1  295 500.36218 z"
         transform="translate(-203.5,-276.6811)" />
      <path
         d="M 295 500.36218 A 41 41 0 1 1  213,500.36218 A 41 41 0 1 1  295 500.36218 z"
         sodipodi:ry="41"
         sodipodi:rx="41"
         sodipodi:cy="500.36218"
         sodipodi:cx="254"
         id="path2579"
         style="fill:url(#radialGradient2585);fill-opacity:1;stroke:none;stroke-width:1;stroke-linejoin:bevel;stroke-miterlimit:4;stroke-dasharray:none;stroke-dashoffset:0;stroke-opacity:1"
         sodipodi:type="arc"
         transform="translate(-203.5,-276.6811)" />
      <path
         sodipodi:type="arc"
         style="opacity:0.5;fill:url(#radialGradient2587);fill-opacity:1;stroke:none;stroke-width:1;stroke-linejoin:bevel;stroke-miterlimit:4;stroke-dasharray:none;stroke-dashoffset:0;stroke-opacity:1"
         id="path2581"
         sodipodi:cx="264.5"
         sodipodi:cy="486.86218"
         sodipodi:rx="13.5"
         sodipodi:ry="13.5"
         d="M 278 486.86218 A 13.5 13.5 0 1 1  251,486.86218 A 13.5 13.5 0 1 1  278 486.86218 z"
         transform="matrix(-4.256921e-2,-1.132986,1.982307,-8.904336e-2,-902.1201,595.2153)" />
      <path
         sodipodi:type="arc"
         style="opacity:0.81102361;fill:url(#linearGradient2589);fill-opacity:1;stroke:none;stroke-width:1;stroke-linejoin:bevel;stroke-miterlimit:4;stroke-dasharray:none;stroke-dashoffset:0;stroke-opacity:1"
         id="path2583"
         sodipodi:cx="-11"
         sodipodi:cy="-13"
         sodipodi:rx="27"
         sodipodi:ry="13"
         d="M 16 -13 A 27 13 0 1 1  -38,-13 A 27 13 0 1 1  16 -13 z"
         transform="matrix(1.148149,0,0,1.5,63.12963,224.6811)" />
    </g>
    <g
       id="g1512"
       transform="translate(0,-5)">
      <path
         sodipodi:type="arc"
         style="fill:#000000;fill-opacity:0.37848606;stroke:none;stroke-width:1;stroke-linejoin:bevel;stroke-miterlimit:4;stroke-dasharray:none;stroke-dashoffset:0;stroke-opacity:1"
         id="path2553"
         sodipodi:cx="254"
         sodipodi:cy="500.36218"
         sodipodi:rx="41"
         sodipodi:ry="41"
         d="M 295 500.36218 A 41 41 0 1 1  213,500.36218 A 41 41 0 1 1  295 500.36218 z"
         transform="translate(-111.5,-444.0433)" />
      <path
         transform="translate(-114.5,-446.0433)"
         d="M 295 500.36218 A 41 41 0 1 1  213,500.36218 A 41 41 0 1 1  295 500.36218 z"
         sodipodi:ry="41"
         sodipodi:rx="41"
         sodipodi:cy="500.36218"
         sodipodi:cx="254"
         id="path2555"
         style="fill:#000000;fill-opacity:0.37848606;stroke:none;stroke-width:1;stroke-linejoin:bevel;stroke-miterlimit:4;stroke-dasharray:none;stroke-dashoffset:0;stroke-opacity:1"
         sodipodi:type="arc" />
      <path
         sodipodi:type="arc"
         style="fill:#969696;fill-opacity:1;stroke:none;stroke-width:1;stroke-linejoin:bevel;stroke-miterlimit:4;stroke-dasharray:none;stroke-dashoffset:0;stroke-opacity:1"
         id="path2557"
         sodipodi:cx="254"
         sodipodi:cy="500.36218"
         sodipodi:rx="41"
         sodipodi:ry="41"
         d="M 295 500.36218 A 41 41 0 1 1  213,500.36218 A 41 41 0 1 1  295 500.36218 z"
         transform="translate(-116.5,-447.4055)" />
      <path
         d="M 295 500.36218 A 41 41 0 1 1  213,500.36218 A 41 41 0 1 1  295 500.36218 z"
         sodipodi:ry="41"
         sodipodi:rx="41"
         sodipodi:cy="500.36218"
         sodipodi:cx="254"
         id="path2559"
         style="fill:url(#radialGradient2565);fill-opacity:1;stroke:none;stroke-width:1;stroke-linejoin:bevel;stroke-miterlimit:4;stroke-dasharray:none;stroke-dashoffset:0;stroke-opacity:1"
         sodipodi:type="arc"
         transform="translate(-116.5,-447.4055)" />
      <path
         sodipodi:type="arc"
         style="opacity:0.5;fill:url(#radialGradient2567);fill-opacity:1;stroke:none;stroke-width:1;stroke-linejoin:bevel;stroke-miterlimit:4;stroke-dasharray:none;stroke-dashoffset:0;stroke-opacity:1"
         id="path2561"
         sodipodi:cx="264.5"
         sodipodi:cy="486.86218"
         sodipodi:rx="13.5"
         sodipodi:ry="13.5"
         d="M 278 486.86218 A 13.5 13.5 0 1 1  251,486.86218 A 13.5 13.5 0 1 1  278 486.86218 z"
         transform="matrix(-4.256921e-2,-1.132986,1.982307,-8.904336e-2,-815.1201,424.4909)" />
      <path
         sodipodi:type="arc"
         style="opacity:0.81102361;fill:url(#linearGradient2569);fill-opacity:1;stroke:none;stroke-width:1;stroke-linejoin:bevel;stroke-miterlimit:4;stroke-dasharray:none;stroke-dashoffset:0;stroke-opacity:1"
         id="path2563"
         sodipodi:cx="-11"
         sodipodi:cy="-13"
         sodipodi:rx="27"
         sodipodi:ry="13"
         d="M 16 -13 A 27 13 0 1 1  -38,-13 A 27 13 0 1 1  16 -13 z"
         transform="matrix(1.148149,0,0,1.5,150.1296,53.95672)" />
    </g>
    <g
       id="g1574">
      <path
         sodipodi:type="arc"
         style="fill:#000000;fill-opacity:0.37848606;stroke:none;stroke-width:1;stroke-linejoin:bevel;stroke-miterlimit:4;stroke-dasharray:none;stroke-dashoffset:0;stroke-opacity:1"
         id="path2533"
         sodipodi:cx="254"
         sodipodi:cy="500.36218"
         sodipodi:rx="41"
         sodipodi:ry="41"
         d="M 295 500.36218 A 41 41 0 1 1  213,500.36218 A 41 41 0 1 1  295 500.36218 z"
         transform="translate(-111.5,-358.6811)" />
      <path
         transform="translate(-114.5,-360.6811)"
         d="M 295 500.36218 A 41 41 0 1 1  213,500.36218 A 41 41 0 1 1  295 500.36218 z"
         sodipodi:ry="41"
         sodipodi:rx="41"
         sodipodi:cy="500.36218"
         sodipodi:cx="254"
         id="path2535"
         style="fill:#000000;fill-opacity:0.37848606;stroke:none;stroke-width:1;stroke-linejoin:bevel;stroke-miterlimit:4;stroke-dasharray:none;stroke-dashoffset:0;stroke-opacity:1"
         sodipodi:type="arc" />
      <path
         sodipodi:type="arc"
         style="fill:#00ff00;fill-opacity:1;stroke:none;stroke-width:1;stroke-linejoin:bevel;stroke-miterlimit:4;stroke-dasharray:none;stroke-dashoffset:0;stroke-opacity:1"
         id="path2537"
         sodipodi:cx="254"
         sodipodi:cy="500.36218"
         sodipodi:rx="41"
         sodipodi:ry="41"
         d="M 295 500.36218 A 41 41 0 1 1  213,500.36218 A 41 41 0 1 1  295 500.36218 z"
         transform="translate(-116.5,-362.0433)" />
      <path
         d="M 295 500.36218 A 41 41 0 1 1  213,500.36218 A 41 41 0 1 1  295 500.36218 z"
         sodipodi:ry="41"
         sodipodi:rx="41"
         sodipodi:cy="500.36218"
         sodipodi:cx="254"
         id="path2539"
         style="fill:url(#radialGradient2545);fill-opacity:1;stroke:none;stroke-width:1;stroke-linejoin:bevel;stroke-miterlimit:4;stroke-dasharray:none;stroke-dashoffset:0;stroke-opacity:1"
         sodipodi:type="arc"
         transform="translate(-116.5,-362.0433)" />
      <path
         sodipodi:type="arc"
         style="opacity:0.5;fill:url(#radialGradient2547);fill-opacity:1;stroke:none;stroke-width:1;stroke-linejoin:bevel;stroke-miterlimit:4;stroke-dasharray:none;stroke-dashoffset:0;stroke-opacity:1"
         id="path2541"
         sodipodi:cx="264.5"
         sodipodi:cy="486.86218"
         sodipodi:rx="13.5"
         sodipodi:ry="13.5"
         d="M 278 486.86218 A 13.5 13.5 0 1 1  251,486.86218 A 13.5 13.5 0 1 1  278 486.86218 z"
         transform="matrix(-4.256921e-2,-1.132986,1.982307,-8.904336e-2,-815.1201,509.8531)" />
      <path
         sodipodi:type="arc"
         style="opacity:0.81102361;fill:url(#linearGradient2549);fill-opacity:1;stroke:none;stroke-width:1;stroke-linejoin:bevel;stroke-miterlimit:4;stroke-dasharray:none;stroke-dashoffset:0;stroke-opacity:1"
         id="path2543"
         sodipodi:cx="-11"
         sodipodi:cy="-13"
         sodipodi:rx="27"
         sodipodi:ry="13"
         d="M 16 -13 A 27 13 0 1 1  -38,-13 A 27 13 0 1 1  16 -13 z"
         transform="matrix(1.148149,0,0,1.5,150.1296,139.3189)" />
    </g>
    <g
       id="g1550"
       transform="translate(0,4)">
      <path
         sodipodi:type="arc"
         style="fill:#000000;fill-opacity:0.37848606;stroke:none;stroke-width:1;stroke-linejoin:bevel;stroke-miterlimit:4;stroke-dasharray:none;stroke-dashoffset:0;stroke-opacity:1"
         id="path2513"
         sodipodi:cx="254"
         sodipodi:cy="500.36218"
         sodipodi:rx="41"
         sodipodi:ry="41"
         d="M 295 500.36218 A 41 41 0 1 1  213,500.36218 A 41 41 0 1 1  295 500.36218 z"
         transform="translate(-111.5,-273.3189)" />
      <path
         transform="translate(-114.5,-275.3189)"
         d="M 295 500.36218 A 41 41 0 1 1  213,500.36218 A 41 41 0 1 1  295 500.36218 z"
         sodipodi:ry="41"
         sodipodi:rx="41"
         sodipodi:cy="500.36218"
         sodipodi:cx="254"
         id="path2515"
         style="fill:#000000;fill-opacity:0.37848606;stroke:none;stroke-width:1;stroke-linejoin:bevel;stroke-miterlimit:4;stroke-dasharray:none;stroke-dashoffset:0;stroke-opacity:1"
         sodipodi:type="arc" />
      <path
         sodipodi:type="arc"
         style="fill:#ff008a;fill-opacity:1;stroke:none;stroke-width:1;stroke-linejoin:bevel;stroke-miterlimit:4;stroke-dasharray:none;stroke-dashoffset:0;stroke-opacity:1"
         id="path2517"
         sodipodi:cx="254"
         sodipodi:cy="500.36218"
         sodipodi:rx="41"
         sodipodi:ry="41"
         d="M 295 500.36218 A 41 41 0 1 1  213,500.36218 A 41 41 0 1 1  295 500.36218 z"
         transform="translate(-116.5,-276.6811)" />
      <path
         d="M 295 500.36218 A 41 41 0 1 1  213,500.36218 A 41 41 0 1 1  295 500.36218 z"
         sodipodi:ry="41"
         sodipodi:rx="41"
         sodipodi:cy="500.36218"
         sodipodi:cx="254"
         id="path2519"
         style="fill:url(#radialGradient2525);fill-opacity:1;stroke:none;stroke-width:1;stroke-linejoin:bevel;stroke-miterlimit:4;stroke-dasharray:none;stroke-dashoffset:0;stroke-opacity:1"
         sodipodi:type="arc"
         transform="translate(-116.5,-276.6811)" />
      <path
         sodipodi:type="arc"
         style="opacity:0.5;fill:url(#radialGradient2527);fill-opacity:1;stroke:none;stroke-width:1;stroke-linejoin:bevel;stroke-miterlimit:4;stroke-dasharray:none;stroke-dashoffset:0;stroke-opacity:1"
         id="path2521"
         sodipodi:cx="264.5"
         sodipodi:cy="486.86218"
         sodipodi:rx="13.5"
         sodipodi:ry="13.5"
         d="M 278 486.86218 A 13.5 13.5 0 1 1  251,486.86218 A 13.5 13.5 0 1 1  278 486.86218 z"
         transform="matrix(-4.256921e-2,-1.132986,1.982307,-8.904336e-2,-815.1201,595.2153)" />
      <path
         sodipodi:type="arc"
         style="opacity:0.81102361;fill:url(#linearGradient2529);fill-opacity:1;stroke:none;stroke-width:1;stroke-linejoin:bevel;stroke-miterlimit:4;stroke-dasharray:none;stroke-dashoffset:0;stroke-opacity:1"
         id="path2523"
         sodipodi:cx="-11"
         sodipodi:cy="-13"
         sodipodi:rx="27"
         sodipodi:ry="13"
         d="M 16 -13 A 27 13 0 1 1  -38,-13 A 27 13 0 1 1  16 -13 z"
         transform="matrix(1.148149,0,0,1.5,150.1296,224.6811)" />
    </g>
    <g
       id="g1520"
       transform="translate(4,-7)">
      <path
         sodipodi:type="arc"
         style="fill:#000000;fill-opacity:0.37848606;stroke:none;stroke-width:1;stroke-linejoin:bevel;stroke-miterlimit:4;stroke-dasharray:none;stroke-dashoffset:0;stroke-opacity:1"
         id="path2493"
         sodipodi:cx="254"
         sodipodi:cy="500.36218"
         sodipodi:rx="41"
         sodipodi:ry="41"
         d="M 295 500.36218 A 41 41 0 1 1  213,500.36218 A 41 41 0 1 1  295 500.36218 z"
         transform="translate(-24.5,-444.0433)" />
      <path
         transform="translate(-27.5,-446.0433)"
         d="M 295 500.36218 A 41 41 0 1 1  213,500.36218 A 41 41 0 1 1  295 500.36218 z"
         sodipodi:ry="41"
         sodipodi:rx="41"
         sodipodi:cy="500.36218"
         sodipodi:cx="254"
         id="path2495"
         style="fill:#000000;fill-opacity:0.37848606;stroke:none;stroke-width:1;stroke-linejoin:bevel;stroke-miterlimit:4;stroke-dasharray:none;stroke-dashoffset:0;stroke-opacity:1"
         sodipodi:type="arc" />
      <path
         sodipodi:type="arc"
         style="fill:#ff0013;fill-opacity:1;stroke:none;stroke-width:1;stroke-linejoin:bevel;stroke-miterlimit:4;stroke-dasharray:none;stroke-dashoffset:0;stroke-opacity:1"
         id="path2497"
         sodipodi:cx="254"
         sodipodi:cy="500.36218"
         sodipodi:rx="41"
         sodipodi:ry="41"
         d="M 295 500.36218 A 41 41 0 1 1  213,500.36218 A 41 41 0 1 1  295 500.36218 z"
         transform="translate(-29.5,-447.4055)" />
      <path
         d="M 295 500.36218 A 41 41 0 1 1  213,500.36218 A 41 41 0 1 1  295 500.36218 z"
         sodipodi:ry="41"
         sodipodi:rx="41"
         sodipodi:cy="500.36218"
         sodipodi:cx="254"
         id="path2499"
         style="fill:url(#radialGradient2505);fill-opacity:1;stroke:none;stroke-width:1;stroke-linejoin:bevel;stroke-miterlimit:4;stroke-dasharray:none;stroke-dashoffset:0;stroke-opacity:1"
         sodipodi:type="arc"
         transform="translate(-29.5,-447.4055)" />
      <path
         sodipodi:type="arc"
         style="opacity:0.5;fill:url(#radialGradient2507);fill-opacity:1;stroke:none;stroke-width:1;stroke-linejoin:bevel;stroke-miterlimit:4;stroke-dasharray:none;stroke-dashoffset:0;stroke-opacity:1"
         id="path2501"
         sodipodi:cx="264.5"
         sodipodi:cy="486.86218"
         sodipodi:rx="13.5"
         sodipodi:ry="13.5"
         d="M 278 486.86218 A 13.5 13.5 0 1 1  251,486.86218 A 13.5 13.5 0 1 1  278 486.86218 z"
         transform="matrix(-4.256921e-2,-1.132986,1.982307,-8.904336e-2,-728.1201,424.4909)" />
      <path
         sodipodi:type="arc"
         style="opacity:0.81102361;fill:url(#linearGradient2509);fill-opacity:1;stroke:none;stroke-width:1;stroke-linejoin:bevel;stroke-miterlimit:4;stroke-dasharray:none;stroke-dashoffset:0;stroke-opacity:1"
         id="path2503"
         sodipodi:cx="-11"
         sodipodi:cy="-13"
         sodipodi:rx="27"
         sodipodi:ry="13"
         d="M 16 -13 A 27 13 0 1 1  -38,-13 A 27 13 0 1 1  16 -13 z"
         transform="matrix(1.148149,0,0,1.5,237.1296,53.95672)" />
    </g>
    <g
       id="g1566"
       transform="translate(4,-2)">
      <path
         sodipodi:type="arc"
         style="fill:#000000;fill-opacity:0.37848606;stroke:none;stroke-width:1;stroke-linejoin:bevel;stroke-miterlimit:4;stroke-dasharray:none;stroke-dashoffset:0;stroke-opacity:1"
         id="path2473"
         sodipodi:cx="254"
         sodipodi:cy="500.36218"
         sodipodi:rx="41"
         sodipodi:ry="41"
         d="M 295 500.36218 A 41 41 0 1 1  213,500.36218 A 41 41 0 1 1  295 500.36218 z"
         transform="translate(-24.5,-358.6811)" />
      <path
         transform="translate(-27.5,-360.6811)"
         d="M 295 500.36218 A 41 41 0 1 1  213,500.36218 A 41 41 0 1 1  295 500.36218 z"
         sodipodi:ry="41"
         sodipodi:rx="41"
         sodipodi:cy="500.36218"
         sodipodi:cx="254"
         id="path2475"
         style="fill:#000000;fill-opacity:0.37848606;stroke:none;stroke-width:1;stroke-linejoin:bevel;stroke-miterlimit:4;stroke-dasharray:none;stroke-dashoffset:0;stroke-opacity:1"
         sodipodi:type="arc" />
      <path
         sodipodi:type="arc"
         style="fill:#fef708;fill-opacity:1;stroke:none;stroke-width:1;stroke-linejoin:bevel;stroke-miterlimit:4;stroke-dasharray:none;stroke-dashoffset:0;stroke-opacity:1"
         id="path2477"
         sodipodi:cx="254"
         sodipodi:cy="500.36218"
         sodipodi:rx="41"
         sodipodi:ry="41"
         d="M 295 500.36218 A 41 41 0 1 1  213,500.36218 A 41 41 0 1 1  295 500.36218 z"
         transform="translate(-29.5,-362.0433)" />
      <path
         d="M 295 500.36218 A 41 41 0 1 1  213,500.36218 A 41 41 0 1 1  295 500.36218 z"
         sodipodi:ry="41"
         sodipodi:rx="41"
         sodipodi:cy="500.36218"
         sodipodi:cx="254"
         id="path2479"
         style="fill:url(#radialGradient2485);fill-opacity:1;stroke:none;stroke-width:1;stroke-linejoin:bevel;stroke-miterlimit:4;stroke-dasharray:none;stroke-dashoffset:0;stroke-opacity:1"
         sodipodi:type="arc"
         transform="translate(-29.5,-362.0433)" />
      <path
         sodipodi:type="arc"
         style="opacity:0.5;fill:url(#radialGradient2487);fill-opacity:1;stroke:none;stroke-width:1;stroke-linejoin:bevel;stroke-miterlimit:4;stroke-dasharray:none;stroke-dashoffset:0;stroke-opacity:1"
         id="path2481"
         sodipodi:cx="264.5"
         sodipodi:cy="486.86218"
         sodipodi:rx="13.5"
         sodipodi:ry="13.5"
         d="M 278 486.86218 A 13.5 13.5 0 1 1  251,486.86218 A 13.5 13.5 0 1 1  278 486.86218 z"
         transform="matrix(-4.256921e-2,-1.132986,1.982307,-8.904336e-2,-728.1201,509.8531)" />
      <path
         sodipodi:type="arc"
         style="opacity:0.81102361;fill:url(#linearGradient2489);fill-opacity:1;stroke:none;stroke-width:1;stroke-linejoin:bevel;stroke-miterlimit:4;stroke-dasharray:none;stroke-dashoffset:0;stroke-opacity:1"
         id="path2483"
         sodipodi:cx="-11"
         sodipodi:cy="-13"
         sodipodi:rx="27"
         sodipodi:ry="13"
         d="M 16 -13 A 27 13 0 1 1  -38,-13 A 27 13 0 1 1  16 -13 z"
         transform="matrix(1.148149,0,0,1.5,237.1296,139.3189)" />
    </g>
    <g
       id="g1558"
       transform="translate(4,2)">
      <path
         sodipodi:type="arc"
         style="fill:#000000;fill-opacity:0.37848606;stroke:none;stroke-width:1;stroke-linejoin:bevel;stroke-miterlimit:4;stroke-dasharray:none;stroke-dashoffset:0;stroke-opacity:1"
         id="path2453"
         sodipodi:cx="254"
         sodipodi:cy="500.36218"
         sodipodi:rx="41"
         sodipodi:ry="41"
         d="M 295 500.36218 A 41 41 0 1 1  213,500.36218 A 41 41 0 1 1  295 500.36218 z"
         transform="translate(-24.5,-273.3189)" />
      <path
         transform="translate(-27.5,-275.3189)"
         d="M 295 500.36218 A 41 41 0 1 1  213,500.36218 A 41 41 0 1 1  295 500.36218 z"
         sodipodi:ry="41"
         sodipodi:rx="41"
         sodipodi:cy="500.36218"
         sodipodi:cx="254"
         id="path2455"
         style="fill:#000000;fill-opacity:0.37848606;stroke:none;stroke-width:1;stroke-linejoin:bevel;stroke-miterlimit:4;stroke-dasharray:none;stroke-dashoffset:0;stroke-opacity:1"
         sodipodi:type="arc" />
      <path
         sodipodi:type="arc"
         style="fill:#00fff9;fill-opacity:1;stroke:none;stroke-width:1;stroke-linejoin:bevel;stroke-miterlimit:4;stroke-dasharray:none;stroke-dashoffset:0;stroke-opacity:1"
         id="path2457"
         sodipodi:cx="254"
         sodipodi:cy="500.36218"
         sodipodi:rx="41"
         sodipodi:ry="41"
         d="M 295 500.36218 A 41 41 0 1 1  213,500.36218 A 41 41 0 1 1  295 500.36218 z"
         transform="translate(-29.5,-276.6811)" />
      <path
         d="M 295 500.36218 A 41 41 0 1 1  213,500.36218 A 41 41 0 1 1  295 500.36218 z"
         sodipodi:ry="41"
         sodipodi:rx="41"
         sodipodi:cy="500.36218"
         sodipodi:cx="254"
         id="path2459"
         style="fill:url(#radialGradient2465);fill-opacity:1;stroke:none;stroke-width:1;stroke-linejoin:bevel;stroke-miterlimit:4;stroke-dasharray:none;stroke-dashoffset:0;stroke-opacity:1"
         sodipodi:type="arc"
         transform="translate(-29.5,-276.6811)" />
      <path
         sodipodi:type="arc"
         style="opacity:0.5;fill:url(#radialGradient2467);fill-opacity:1;stroke:none;stroke-width:1;stroke-linejoin:bevel;stroke-miterlimit:4;stroke-dasharray:none;stroke-dashoffset:0;stroke-opacity:1"
         id="path2461"
         sodipodi:cx="264.5"
         sodipodi:cy="486.86218"
         sodipodi:rx="13.5"
         sodipodi:ry="13.5"
         d="M 278 486.86218 A 13.5 13.5 0 1 1  251,486.86218 A 13.5 13.5 0 1 1  278 486.86218 z"
         transform="matrix(-4.256921e-2,-1.132986,1.982307,-8.904336e-2,-728.1201,595.2153)" />
      <path
         sodipodi:type="arc"
         style="opacity:0.81102361;fill:url(#linearGradient2469);fill-opacity:1;stroke:none;stroke-width:1;stroke-linejoin:bevel;stroke-miterlimit:4;stroke-dasharray:none;stroke-dashoffset:0;stroke-opacity:1"
         id="path2463"
         sodipodi:cx="-11"
         sodipodi:cy="-13"
         sodipodi:rx="27"
         sodipodi:ry="13"
         d="M 16 -13 A 27 13 0 1 1  -38,-13 A 27 13 0 1 1  16 -13 z"
         transform="matrix(1.148149,0,0,1.5,237.1296,224.6811)" />
    </g>
  </g>
</svg>
