<?xml version="1.0" encoding="UTF-8" standalone="no"?>
<!-- Created with Inkscape (http://www.inkscape.org/) -->
<svg
   xmlns:dc="http://purl.org/dc/elements/1.1/"
   xmlns:cc="http://web.resource.org/cc/"
   xmlns:rdf="http://www.w3.org/1999/02/22-rdf-syntax-ns#"
   xmlns:svg="http://www.w3.org/2000/svg"
   xmlns="http://www.w3.org/2000/svg"
   xmlns:xlink="http://www.w3.org/1999/xlink"
   xmlns:sodipodi="http://inkscape.sourceforge.net/DTD/sodipodi-0.dtd"
   xmlns:inkscape="http://www.inkscape.org/namespaces/inkscape"
   width="360"
   height="360"
   id="svg2"
   sodipodi:version="0.32"
   inkscape:version="0.43"
   version="1.0"
   sodipodi:docbase="/home/nicu/Desktop/game_elements"
   sodipodi:docname="flowers.svg">
  <defs
     id="defs4">
    <linearGradient
       id="linearGradient3960">
      <stop
         style="stop-color:#ffffff;stop-opacity:1;"
         offset="0"
         id="stop3962" />
      <stop
         style="stop-color:#ffffff;stop-opacity:0;"
         offset="1"
         id="stop3964" />
    </linearGradient>
    <linearGradient
       id="linearGradient3057">
      <stop
         style="stop-color:#ffffff;stop-opacity:0;"
         offset="0"
         id="stop3059" />
      <stop
         style="stop-color:#000000;stop-opacity:0.33576643;"
         offset="1"
         id="stop3061" />
    </linearGradient>
    <radialGradient
       inkscape:collect="always"
       xlink:href="#linearGradient3057"
       id="radialGradient2387"
       gradientUnits="userSpaceOnUse"
       gradientTransform="matrix(1.173024,0.332583,-0.299372,1.05591,100.1909,-113.2195)"
       cx="259"
       cy="484.36218"
       fx="259"
       fy="484.36218"
       r="41" />
    <radialGradient
       inkscape:collect="always"
       xlink:href="#linearGradient3960"
       id="radialGradient2389"
       gradientUnits="userSpaceOnUse"
       gradientTransform="matrix(-0.162405,0.993762,-1.006081,-4.492722e-2,795.225,250.4464)"
       cx="259.8519"
       cy="485.57144"
       fx="259.8519"
       fy="485.57144"
       r="13.5" />
    <linearGradient
       inkscape:collect="always"
       xlink:href="#linearGradient3960"
       id="linearGradient2423"
       gradientUnits="userSpaceOnUse"
       x1="-11"
       y1="-26"
       x2="-11"
       y2="1.4210855e-14" />
    <radialGradient
       inkscape:collect="always"
       xlink:href="#linearGradient3057"
       id="radialGradient2505"
       gradientUnits="userSpaceOnUse"
       gradientTransform="matrix(1.173024,0.332583,-0.299372,1.05591,100.1909,-113.2195)"
       cx="259"
       cy="484.36218"
       fx="259"
       fy="484.36218"
       r="41" />
    <radialGradient
       inkscape:collect="always"
       xlink:href="#linearGradient3960"
       id="radialGradient2507"
       gradientUnits="userSpaceOnUse"
       gradientTransform="matrix(-0.162405,0.993762,-1.006081,-4.492722e-2,795.225,250.4464)"
       cx="259.8519"
       cy="485.57144"
       fx="259.8519"
       fy="485.57144"
       r="13.5" />
    <linearGradient
       inkscape:collect="always"
       xlink:href="#linearGradient3960"
       id="linearGradient2509"
       gradientUnits="userSpaceOnUse"
       x1="-11"
       y1="-26"
       x2="-11"
       y2="1.4210855e-14" />
    <radialGradient
       inkscape:collect="always"
       xlink:href="#linearGradient3057"
       id="radialGradient2565"
       gradientUnits="userSpaceOnUse"
       gradientTransform="matrix(1.173024,0.332583,-0.299372,1.05591,100.1909,-113.2195)"
       cx="259"
       cy="484.36218"
       fx="259"
       fy="484.36218"
       r="41" />
    <radialGradient
       inkscape:collect="always"
       xlink:href="#linearGradient3960"
       id="radialGradient2567"
       gradientUnits="userSpaceOnUse"
       gradientTransform="matrix(-0.162405,0.993762,-1.006081,-4.492722e-2,795.225,250.4464)"
       cx="259.8519"
       cy="485.57144"
       fx="259.8519"
       fy="485.57144"
       r="13.5" />
    <linearGradient
       inkscape:collect="always"
       xlink:href="#linearGradient3960"
       id="linearGradient2569"
       gradientUnits="userSpaceOnUse"
       x1="-11"
       y1="-26"
       x2="-11"
       y2="1.4210855e-14" />
    <radialGradient
       inkscape:collect="always"
       xlink:href="#linearGradient3057"
       id="radialGradient2659"
       gradientUnits="userSpaceOnUse"
       gradientTransform="matrix(1.173024,0.332583,-0.299372,1.05591,100.1909,-113.2195)"
       cx="259"
       cy="484.36218"
       fx="259"
       fy="484.36218"
       r="41" />
    <radialGradient
       inkscape:collect="always"
       xlink:href="#linearGradient3960"
       id="radialGradient2661"
       gradientUnits="userSpaceOnUse"
       gradientTransform="matrix(-0.162405,0.993762,-1.006081,-4.492722e-2,795.225,250.4464)"
       cx="259.8519"
       cy="485.57144"
       fx="259.8519"
       fy="485.57144"
       r="13.5" />
    <linearGradient
       inkscape:collect="always"
       xlink:href="#linearGradient3960"
       id="linearGradient2663"
       gradientUnits="userSpaceOnUse"
       x1="-11"
       y1="-26"
       x2="-11"
       y2="1.4210855e-14" />
    <radialGradient
       inkscape:collect="always"
       xlink:href="#linearGradient3057"
       id="radialGradient5019"
       gradientUnits="userSpaceOnUse"
       gradientTransform="matrix(1.173024,0.332583,-0.299372,1.05591,100.1909,-113.2195)"
       cx="259"
       cy="484.36218"
       fx="259"
       fy="484.36218"
       r="41" />
    <radialGradient
       inkscape:collect="always"
       xlink:href="#linearGradient3960"
       id="radialGradient5021"
       gradientUnits="userSpaceOnUse"
       gradientTransform="matrix(-0.162405,0.993762,-1.006081,-4.492722e-2,795.225,250.4464)"
       cx="259.8519"
       cy="485.57144"
       fx="259.8519"
       fy="485.57144"
       r="13.5" />
    <linearGradient
       inkscape:collect="always"
       xlink:href="#linearGradient3960"
       id="linearGradient5023"
       gradientUnits="userSpaceOnUse"
       x1="-11"
       y1="-26"
       x2="-11"
       y2="1.4210855e-14" />
    <radialGradient
       inkscape:collect="always"
       xlink:href="#linearGradient3057"
       id="radialGradient5069"
       gradientUnits="userSpaceOnUse"
       gradientTransform="matrix(1.173024,0.332583,-0.299372,1.05591,100.1909,-113.2195)"
       cx="259"
       cy="484.36218"
       fx="259"
       fy="484.36218"
       r="41" />
    <radialGradient
       inkscape:collect="always"
       xlink:href="#linearGradient3960"
       id="radialGradient5071"
       gradientUnits="userSpaceOnUse"
       gradientTransform="matrix(-0.162405,0.993762,-1.006081,-4.492722e-2,795.225,250.4464)"
       cx="259.8519"
       cy="485.57144"
       fx="259.8519"
       fy="485.57144"
       r="13.5" />
    <linearGradient
       inkscape:collect="always"
       xlink:href="#linearGradient3960"
       id="linearGradient5073"
       gradientUnits="userSpaceOnUse"
       x1="-11"
       y1="-26"
       x2="-11"
       y2="1.4210855e-14" />
    <radialGradient
       inkscape:collect="always"
       xlink:href="#linearGradient3057"
       id="radialGradient5101"
       gradientUnits="userSpaceOnUse"
       gradientTransform="matrix(1.173024,0.332583,-0.299372,1.05591,100.1909,-113.2195)"
       cx="259"
       cy="484.36218"
       fx="259"
       fy="484.36218"
       r="41" />
    <radialGradient
       inkscape:collect="always"
       xlink:href="#linearGradient3960"
       id="radialGradient5103"
       gradientUnits="userSpaceOnUse"
       gradientTransform="matrix(-0.162405,0.993762,-1.006081,-4.492722e-2,795.225,250.4464)"
       cx="259.8519"
       cy="485.57144"
       fx="259.8519"
       fy="485.57144"
       r="13.5" />
    <linearGradient
       inkscape:collect="always"
       xlink:href="#linearGradient3960"
       id="linearGradient5105"
       gradientUnits="userSpaceOnUse"
       x1="-11"
       y1="-26"
       x2="-11"
       y2="1.4210855e-14" />
    <radialGradient
       inkscape:collect="always"
       xlink:href="#linearGradient3057"
       id="radialGradient5133"
       gradientUnits="userSpaceOnUse"
       gradientTransform="matrix(1.173024,0.332583,-0.299372,1.05591,100.1909,-113.2195)"
       cx="259"
       cy="484.36218"
       fx="259"
       fy="484.36218"
       r="41" />
    <radialGradient
       inkscape:collect="always"
       xlink:href="#linearGradient3960"
       id="radialGradient5135"
       gradientUnits="userSpaceOnUse"
       gradientTransform="matrix(-0.162405,0.993762,-1.006081,-4.492722e-2,795.225,250.4464)"
       cx="259.8519"
       cy="485.57144"
       fx="259.8519"
       fy="485.57144"
       r="13.5" />
    <linearGradient
       inkscape:collect="always"
       xlink:href="#linearGradient3960"
       id="linearGradient5137"
       gradientUnits="userSpaceOnUse"
       x1="-11"
       y1="-26"
       x2="-11"
       y2="1.4210855e-14" />
    <radialGradient
       inkscape:collect="always"
       xlink:href="#linearGradient3057"
       id="radialGradient5165"
       gradientUnits="userSpaceOnUse"
       gradientTransform="matrix(1.173024,0.332583,-0.299372,1.05591,100.1909,-113.2195)"
       cx="259"
       cy="484.36218"
       fx="259"
       fy="484.36218"
       r="41" />
    <radialGradient
       inkscape:collect="always"
       xlink:href="#linearGradient3960"
       id="radialGradient5167"
       gradientUnits="userSpaceOnUse"
       gradientTransform="matrix(-0.162405,0.993762,-1.006081,-4.492722e-2,795.225,250.4464)"
       cx="259.8519"
       cy="485.57144"
       fx="259.8519"
       fy="485.57144"
       r="13.5" />
    <linearGradient
       inkscape:collect="always"
       xlink:href="#linearGradient3960"
       id="linearGradient5169"
       gradientUnits="userSpaceOnUse"
       x1="-11"
       y1="-26"
       x2="-11"
       y2="1.4210855e-14" />
    <radialGradient
       inkscape:collect="always"
       xlink:href="#linearGradient3057"
       id="radialGradient5197"
       gradientUnits="userSpaceOnUse"
       gradientTransform="matrix(1.173024,0.332583,-0.299372,1.05591,100.1909,-113.2195)"
       cx="259"
       cy="484.36218"
       fx="259"
       fy="484.36218"
       r="41" />
    <radialGradient
       inkscape:collect="always"
       xlink:href="#linearGradient3960"
       id="radialGradient5199"
       gradientUnits="userSpaceOnUse"
       gradientTransform="matrix(-0.162405,0.993762,-1.006081,-4.492722e-2,795.225,250.4464)"
       cx="259.8519"
       cy="485.57144"
       fx="259.8519"
       fy="485.57144"
       r="13.5" />
    <linearGradient
       inkscape:collect="always"
       xlink:href="#linearGradient3960"
       id="linearGradient5201"
       gradientUnits="userSpaceOnUse"
       x1="-11"
       y1="-26"
       x2="-11"
       y2="1.4210855e-14" />
    <radialGradient
       inkscape:collect="always"
       xlink:href="#linearGradient3057"
       id="radialGradient5229"
       gradientUnits="userSpaceOnUse"
       gradientTransform="matrix(1.173024,0.332583,-0.299372,1.05591,100.1909,-113.2195)"
       cx="259"
       cy="484.36218"
       fx="259"
       fy="484.36218"
       r="41" />
    <radialGradient
       inkscape:collect="always"
       xlink:href="#linearGradient3960"
       id="radialGradient5231"
       gradientUnits="userSpaceOnUse"
       gradientTransform="matrix(-0.162405,0.993762,-1.006081,-4.492722e-2,795.225,250.4464)"
       cx="259.8519"
       cy="485.57144"
       fx="259.8519"
       fy="485.57144"
       r="13.5" />
    <linearGradient
       inkscape:collect="always"
       xlink:href="#linearGradient3960"
       id="linearGradient5233"
       gradientUnits="userSpaceOnUse"
       x1="-11"
       y1="-26"
       x2="-11"
       y2="1.4210855e-14" />
    <radialGradient
       inkscape:collect="always"
       xlink:href="#linearGradient3057"
       id="radialGradient5261"
       gradientUnits="userSpaceOnUse"
       gradientTransform="matrix(1.173024,0.332583,-0.299372,1.05591,100.1909,-113.2195)"
       cx="259"
       cy="484.36218"
       fx="259"
       fy="484.36218"
       r="41" />
    <radialGradient
       inkscape:collect="always"
       xlink:href="#linearGradient3960"
       id="radialGradient5263"
       gradientUnits="userSpaceOnUse"
       gradientTransform="matrix(-0.162405,0.993762,-1.006081,-4.492722e-2,795.225,250.4464)"
       cx="259.8519"
       cy="485.57144"
       fx="259.8519"
       fy="485.57144"
       r="13.5" />
    <linearGradient
       inkscape:collect="always"
       xlink:href="#linearGradient3960"
       id="linearGradient5265"
       gradientUnits="userSpaceOnUse"
       x1="-11"
       y1="-26"
       x2="-11"
       y2="1.4210855e-14" />
    <radialGradient
       inkscape:collect="always"
       xlink:href="#linearGradient3057"
       id="radialGradient5293"
       gradientUnits="userSpaceOnUse"
       gradientTransform="matrix(1.173024,0.332583,-0.299372,1.05591,100.1909,-113.2195)"
       cx="259"
       cy="484.36218"
       fx="259"
       fy="484.36218"
       r="41" />
    <radialGradient
       inkscape:collect="always"
       xlink:href="#linearGradient3960"
       id="radialGradient5295"
       gradientUnits="userSpaceOnUse"
       gradientTransform="matrix(-0.162405,0.993762,-1.006081,-4.492722e-2,795.225,250.4464)"
       cx="259.8519"
       cy="485.57144"
       fx="259.8519"
       fy="485.57144"
       r="13.5" />
    <linearGradient
       inkscape:collect="always"
       xlink:href="#linearGradient3960"
       id="linearGradient5297"
       gradientUnits="userSpaceOnUse"
       x1="-11"
       y1="-26"
       x2="-11"
       y2="1.4210855e-14" />
    <linearGradient
       inkscape:collect="always"
       xlink:href="#linearGradient3960"
       id="linearGradient5307"
       gradientUnits="userSpaceOnUse"
       x1="-335.09171"
       y1="-158.53125"
       x2="-244.13609"
       y2="-72.807068"
       gradientTransform="translate(569.5088,394.2657)" />
    <linearGradient
       inkscape:collect="always"
       xlink:href="#linearGradient3960"
       id="linearGradient5320"
       gradientUnits="userSpaceOnUse"
       x1="-335.09171"
       y1="-158.53125"
       x2="-244.13609"
       y2="-72.807068"
       gradientTransform="translate(569.5088,284.6328)" />
    <linearGradient
       inkscape:collect="always"
       xlink:href="#linearGradient3960"
       id="linearGradient5333"
       gradientUnits="userSpaceOnUse"
       x1="-335.09171"
       y1="-158.53125"
       x2="-244.13609"
       y2="-72.807068"
       gradientTransform="translate(569.5088,175)" />
    <linearGradient
       inkscape:collect="always"
       xlink:href="#linearGradient3960"
       id="linearGradient5346"
       gradientUnits="userSpaceOnUse"
       x1="-335.09171"
       y1="-158.53125"
       x2="-244.13609"
       y2="-72.807068"
       gradientTransform="translate(463.2544,394.2657)" />
    <linearGradient
       inkscape:collect="always"
       xlink:href="#linearGradient3960"
       id="linearGradient5359"
       gradientUnits="userSpaceOnUse"
       x1="-335.09171"
       y1="-158.53125"
       x2="-244.13609"
       y2="-72.807068"
       gradientTransform="translate(463.2544,284.6328)" />
    <linearGradient
       inkscape:collect="always"
       xlink:href="#linearGradient3960"
       id="linearGradient5372"
       gradientUnits="userSpaceOnUse"
       x1="-335.09171"
       y1="-158.53125"
       x2="-244.13609"
       y2="-72.807068"
       gradientTransform="translate(463.2544,175)" />
    <linearGradient
       inkscape:collect="always"
       xlink:href="#linearGradient3960"
       id="linearGradient5385"
       gradientUnits="userSpaceOnUse"
       x1="-335.09171"
       y1="-158.53125"
       x2="-244.13609"
       y2="-72.807068"
       gradientTransform="translate(357,394.2657)" />
    <linearGradient
       inkscape:collect="always"
       xlink:href="#linearGradient3960"
       id="linearGradient5398"
       gradientUnits="userSpaceOnUse"
       x1="-335.09171"
       y1="-158.53125"
       x2="-244.13609"
       y2="-72.807068"
       gradientTransform="translate(357,284.6328)" />
    <linearGradient
       inkscape:collect="always"
       xlink:href="#linearGradient3960"
       id="linearGradient5411"
       gradientUnits="userSpaceOnUse"
       x1="-335.09171"
       y1="-158.53125"
       x2="-244.13609"
       y2="-72.807068"
       gradientTransform="translate(357,175)" />
    <linearGradient
       inkscape:collect="always"
       xlink:href="#linearGradient3057"
       id="linearGradient1468"
       gradientUnits="userSpaceOnUse"
       gradientTransform="translate(357,175)"
       x1="-280.11389"
       y1="-107.80707"
       x2="-244.13609"
       y2="-72.807068" />
    <linearGradient
       inkscape:collect="always"
       xlink:href="#linearGradient3057"
       id="linearGradient1476"
       gradientUnits="userSpaceOnUse"
       gradientTransform="translate(463.2544,175)"
       x1="-280.11389"
       y1="-102.53125"
       x2="-244.13609"
       y2="-72.807068" />
    <linearGradient
       inkscape:collect="always"
       xlink:href="#linearGradient3057"
       id="linearGradient1482"
       gradientUnits="userSpaceOnUse"
       gradientTransform="translate(569.5088,175)"
       x1="-280.11389"
       y1="-107.80707"
       x2="-244.13609"
       y2="-72.807068" />
    <linearGradient
       inkscape:collect="always"
       xlink:href="#linearGradient3057"
       id="linearGradient1486"
       gradientUnits="userSpaceOnUse"
       gradientTransform="translate(357,284.6328)"
       x1="-275.09171"
       y1="-107.80707"
       x2="-244.13609"
       y2="-72.807068" />
    <linearGradient
       inkscape:collect="always"
       xlink:href="#linearGradient3057"
       id="linearGradient1490"
       gradientUnits="userSpaceOnUse"
       gradientTransform="translate(463.2544,284.6328)"
       x1="-275.09171"
       y1="-107.80707"
       x2="-244.13609"
       y2="-72.807068" />
    <linearGradient
       inkscape:collect="always"
       xlink:href="#linearGradient3057"
       id="linearGradient1494"
       gradientUnits="userSpaceOnUse"
       gradientTransform="translate(569.5088,284.6328)"
       x1="-271.09171"
       y1="-107.80707"
       x2="-244.13609"
       y2="-72.807068" />
    <linearGradient
       inkscape:collect="always"
       xlink:href="#linearGradient3057"
       id="linearGradient1498"
       gradientUnits="userSpaceOnUse"
       gradientTransform="translate(357,394.2657)"
       x1="-273.09171"
       y1="-107.80707"
       x2="-244.13609"
       y2="-72.807068" />
    <linearGradient
       inkscape:collect="always"
       xlink:href="#linearGradient3057"
       id="linearGradient1502"
       gradientUnits="userSpaceOnUse"
       gradientTransform="translate(463.2544,394.2657)"
       x1="-274.09171"
       y1="-107.80707"
       x2="-244.13609"
       y2="-72.807068" />
    <linearGradient
       inkscape:collect="always"
       xlink:href="#linearGradient3057"
       id="linearGradient1506"
       gradientUnits="userSpaceOnUse"
       gradientTransform="translate(569.5088,394.2657)"
       x1="-272.09171"
       y1="-102.53125"
       x2="-244.13609"
       y2="-72.807068" />
  </defs>
  <sodipodi:namedview
     id="base"
     pagecolor="#ffffff"
     bordercolor="#666666"
     borderopacity="1.0"
     inkscape:pageopacity="0.0"
     inkscape:pageshadow="2"
     inkscape:zoom="1"
     inkscape:cx="63.048907"
     inkscape:cy="240.31908"
     inkscape:document-units="px"
     inkscape:current-layer="layer1"
     inkscape:window-width="1152"
     inkscape:window-height="791"
     inkscape:window-x="3"
     inkscape:window-y="24" />
  <metadata
     id="metadata7">
    <rdf:RDF>
      <cc:Work
         rdf:about="">
        <dc:format>image/svg+xml</dc:format>
        <dc:type
           rdf:resource="http://purl.org/dc/dcmitype/StillImage" />
      </cc:Work>
    </rdf:RDF>
  </metadata>
  <g
     inkscape:label="Layer 1"
     inkscape:groupmode="layer"
     id="layer1">
    <g
       id="g1457">
      <path
         sodipodi:nodetypes="cczczczcz"
         id="path3214"
         d="M 125.69348,99.45594 C 106.69579,132.00853 85.17447,97.69304 85.17447,97.69304 C 85.17447,97.69304 81.74864,138.95105 50.19606,118.22131 C 19.47781,98.03973 51.95896,77.7023 51.95896,77.7023 C 51.95896,77.7023 13.84068,74.93323 31.43069,42.72389 C 48.06235,12.26938 71.94971,44.48679 71.94971,44.48679 C 71.94971,44.48679 72.64347,3.96084 106.92811,23.95852 C 142.9448,44.9562 105.16521,64.47754 105.16521,64.47754 C 105.16521,64.47754 145.19117,66.03733 125.69348,99.45594 z "
         style="fill:#000000;fill-opacity:0.38039216;stroke:none;stroke-width:1;stroke-linejoin:bevel;stroke-miterlimit:4;stroke-dashoffset:0;stroke-opacity:1" />
      <path
         style="fill:#000000;fill-opacity:0.38039216;stroke:none;stroke-width:1;stroke-linejoin:bevel;stroke-miterlimit:4;stroke-dashoffset:0;stroke-opacity:1"
         d="M 124.69348,97.45594 C 105.69579,130.00853 84.17447,95.69304 84.17447,95.69304 C 84.17447,95.69304 80.74864,136.95105 49.19606,116.22131 C 18.47781,96.03973 50.95896,75.7023 50.95896,75.7023 C 50.95896,75.7023 12.84068,72.93323 30.43069,40.72389 C 47.06235,10.26938 70.94971,42.48679 70.94971,42.48679 C 70.94971,42.48679 71.64347,1.96084 105.92811,21.95852 C 141.9448,42.9562 104.16521,62.47754 104.16521,62.47754 C 104.16521,62.47754 144.19117,64.03733 124.69348,97.45594 z "
         id="path2339"
         sodipodi:nodetypes="cczczczcz" />
      <path
         sodipodi:nodetypes="cczczczcz"
         id="path1394"
         d="M 123.69348,95.45594 C 104.69579,128.00853 83.17447,93.69304 83.17447,93.69304 C 83.17447,93.69304 79.74864,134.95105 48.19606,114.22131 C 17.47781,94.03973 49.95896,73.7023 49.95896,73.7023 C 49.95896,73.7023 11.84068,70.93323 29.43069,38.72389 C 46.06235,8.26938 69.94971,40.48679 69.94971,40.48679 C 69.94971,40.48679 70.64347,-0.03916 104.92811,19.95852 C 140.9448,40.9562 103.16521,60.47754 103.16521,60.47754 C 103.16521,60.47754 143.19117,62.03733 123.69348,95.45594 z "
         style="fill:#0200ff;fill-opacity:1;stroke:none;stroke-width:1;stroke-linejoin:bevel;stroke-miterlimit:4;stroke-dashoffset:0;stroke-opacity:1" />
      <path
         id="path4996"
         d="M 87.125,16.46875 C 75.80004,17.58854 72.25777,31.0633 71.9375,40.625 C 67.79492,44.13576 65.16505,36.95456 62.21875,35 C 56.0252,28.43779 43.4096,24.06175 36.65625,32.25 C 29.63871,39.85852 23.21486,52.23559 29.40625,62.1875 C 34.41054,69.23807 43.65621,70.24358 51,72.4375 C 51.89067,77.618461 44.87116,78.55424 42.78125,82.40625 C 35.52852,89.031715 34.92929,102.47354 43.78125,108.125 C 50.77335,114.80939 62.55541,121.85172 71.6875,115.3125 C 78.97616,109.88979 79.3659,100.10152 82.09375,92.5625 C 87.61203,92.576736 88.64995,99.770554 93.03125,102.15625 C 99.27991,108.37791 110.97328,109.64641 116.3125,101.90625 C 123.20438,94.473579 129.86046,83.068937 125.4375,72.875 C 120.7889,64.47634 110.00808,63.91083 102.125,61.65625 C 101.623,56.29705 108.93696,55.98233 111.46875,52.25 C 118.20371,47.07673 121.43941,35.89466 114.21875,29.8125 C 107.32451,22.37817 97.47996,16.68979 87.125,16.46875 z "
         style="fill:url(#linearGradient5411);fill-opacity:1;stroke:none;stroke-width:1;stroke-linejoin:bevel;stroke-miterlimit:4;stroke-dashoffset:0;stroke-opacity:1" />
      <path
         style="fill:url(#linearGradient1468);fill-opacity:1;stroke:none;stroke-width:1;stroke-linejoin:bevel;stroke-miterlimit:4;stroke-dashoffset:0;stroke-opacity:1"
         d="M 87.125,16.46875 C 75.80004,17.58854 72.25777,31.0633 71.9375,40.625 C 67.79492,44.13576 65.16505,36.95456 62.21875,35 C 56.0252,28.43779 43.4096,24.06175 36.65625,32.25 C 29.63871,39.85852 23.21486,52.23559 29.40625,62.1875 C 34.41054,69.23807 43.65621,70.24358 51,72.4375 C 51.89067,77.618461 44.87116,78.55424 42.78125,82.40625 C 35.52852,89.031715 34.92929,102.47354 43.78125,108.125 C 50.77335,114.80939 62.55541,121.85172 71.6875,115.3125 C 78.97616,109.88979 79.3659,100.10152 82.09375,92.5625 C 87.61203,92.576736 88.64995,99.770554 93.03125,102.15625 C 99.27991,108.37791 110.97328,109.64641 116.3125,101.90625 C 123.20438,94.473579 129.86046,83.068937 125.4375,72.875 C 120.7889,64.47634 110.00808,63.91083 102.125,61.65625 C 101.623,56.29705 108.93696,55.98233 111.46875,52.25 C 118.20371,47.07673 121.43941,35.89466 114.21875,29.8125 C 107.32451,22.37817 97.47996,16.68979 87.125,16.46875 z "
         id="path1466" />
      <g
         transform="matrix(0.436782,0,0,0.436782,4.7571,28.1833)"
         id="g2313">
        <path
           sodipodi:type="arc"
           style="fill:#000000;fill-opacity:0.37848606;stroke:none;stroke-width:1;stroke-linejoin:bevel;stroke-miterlimit:4;stroke-dasharray:none;stroke-dashoffset:0;stroke-opacity:1"
           id="path2315"
           sodipodi:cx="254"
           sodipodi:cy="500.36218"
           sodipodi:rx="41"
           sodipodi:ry="41"
           d="M 295 500.36218 A 41 41 0 1 1  213,500.36218 A 41 41 0 1 1  295 500.36218 z"
           transform="translate(-87,-417.6378)" />
        <path
           transform="translate(-90,-419.6378)"
           d="M 295 500.36218 A 41 41 0 1 1  213,500.36218 A 41 41 0 1 1  295 500.36218 z"
           sodipodi:ry="41"
           sodipodi:rx="41"
           sodipodi:cy="500.36218"
           sodipodi:cx="254"
           id="path2317"
           style="fill:#000000;fill-opacity:0.37848606;stroke:none;stroke-width:1;stroke-linejoin:bevel;stroke-miterlimit:4;stroke-dasharray:none;stroke-dashoffset:0;stroke-opacity:1"
           sodipodi:type="arc" />
        <path
           sodipodi:type="arc"
           style="fill:#fef708;fill-opacity:1;stroke:none;stroke-width:1;stroke-linejoin:bevel;stroke-miterlimit:4;stroke-dasharray:none;stroke-dashoffset:0;stroke-opacity:1"
           id="path2319"
           sodipodi:cx="254"
           sodipodi:cy="500.36218"
           sodipodi:rx="41"
           sodipodi:ry="41"
           d="M 295 500.36218 A 41 41 0 1 1  213,500.36218 A 41 41 0 1 1  295 500.36218 z"
           transform="translate(-92,-421)" />
        <path
           d="M 295 500.36218 A 41 41 0 1 1  213,500.36218 A 41 41 0 1 1  295 500.36218 z"
           sodipodi:ry="41"
           sodipodi:rx="41"
           sodipodi:cy="500.36218"
           sodipodi:cx="254"
           id="path2321"
           style="fill:url(#radialGradient5019);fill-opacity:1;stroke:none;stroke-width:1;stroke-linejoin:bevel;stroke-miterlimit:4;stroke-dasharray:none;stroke-dashoffset:0;stroke-opacity:1"
           sodipodi:type="arc"
           transform="translate(-92,-421)" />
        <path
           sodipodi:type="arc"
           style="opacity:0.5;fill:url(#radialGradient5021);fill-opacity:1;stroke:none;stroke-width:1;stroke-linejoin:bevel;stroke-miterlimit:4;stroke-dasharray:none;stroke-dashoffset:0;stroke-opacity:1"
           id="path2323"
           sodipodi:cx="264.5"
           sodipodi:cy="486.86218"
           sodipodi:rx="13.5"
           sodipodi:ry="13.5"
           d="M 278 486.86218 A 13.5 13.5 0 1 1  251,486.86218 A 13.5 13.5 0 1 1  278 486.86218 z"
           transform="matrix(-4.256921e-2,-1.132986,1.982307,-8.904336e-2,-790.6201,450.8964)" />
        <path
           sodipodi:type="arc"
           style="opacity:0.81102361;fill:url(#linearGradient5023);fill-opacity:1;stroke:none;stroke-width:1;stroke-linejoin:bevel;stroke-miterlimit:4;stroke-dasharray:none;stroke-dashoffset:0;stroke-opacity:1"
           id="path2325"
           sodipodi:cx="-11"
           sodipodi:cy="-13"
           sodipodi:rx="27"
           sodipodi:ry="13"
           d="M 16 -13 A 27 13 0 1 1  -38,-13 A 27 13 0 1 1  16 -13 z"
           transform="matrix(1.148149,0,0,1.5,174.6296,80.3622)" />
      </g>
    </g>
    <g
       id="g1548">
      <path
         style="fill:#000000;fill-opacity:0.38039216;stroke:none;stroke-width:1;stroke-linejoin:bevel;stroke-miterlimit:4;stroke-dashoffset:0;stroke-opacity:1"
         d="M 125.69348,209.08874 C 106.69579,241.64133 85.17447,207.32584 85.17447,207.32584 C 85.17447,207.32584 81.74864,248.58385 50.19606,227.85411 C 19.47781,207.67253 51.95896,187.3351 51.95896,187.3351 C 51.95896,187.3351 13.84068,184.56603 31.43069,152.35669 C 48.06235,121.90218 71.94971,154.11959 71.94971,154.11959 C 71.94971,154.11959 72.64347,113.59364 106.92811,133.59132 C 142.9448,154.589 105.16521,174.11034 105.16521,174.11034 C 105.16521,174.11034 145.19117,175.67013 125.69348,209.08874 z "
         id="path5269"
         sodipodi:nodetypes="cczczczcz" />
      <path
         sodipodi:nodetypes="cczczczcz"
         id="path5271"
         d="M 124.69348,207.08874 C 105.69579,239.64133 84.17447,205.32584 84.17447,205.32584 C 84.17447,205.32584 80.74864,246.58385 49.19606,225.85411 C 18.47781,205.67253 50.95896,185.3351 50.95896,185.3351 C 50.95896,185.3351 12.84068,182.56603 30.43069,150.35669 C 47.06235,119.90218 70.94971,152.11959 70.94971,152.11959 C 70.94971,152.11959 71.64347,111.59364 105.92811,131.59132 C 141.9448,152.589 104.16521,172.11034 104.16521,172.11034 C 104.16521,172.11034 144.19117,173.67013 124.69348,207.08874 z "
         style="fill:#000000;fill-opacity:0.38039216;stroke:none;stroke-width:1;stroke-linejoin:bevel;stroke-miterlimit:4;stroke-dashoffset:0;stroke-opacity:1" />
      <path
         style="fill:#ffb300;fill-opacity:1;stroke:none;stroke-width:1;stroke-linejoin:bevel;stroke-miterlimit:4;stroke-dashoffset:0;stroke-opacity:1"
         d="M 123.69348,205.08874 C 104.69579,237.64133 83.17447,203.32584 83.17447,203.32584 C 83.17447,203.32584 79.74864,244.58385 48.19606,223.85411 C 17.47781,203.67253 49.95896,183.3351 49.95896,183.3351 C 49.95896,183.3351 11.84068,180.56603 29.43069,148.35669 C 46.06235,117.90218 69.94971,150.11959 69.94971,150.11959 C 69.94971,150.11959 70.64347,109.59364 104.92811,129.59132 C 140.9448,150.589 103.16521,170.11034 103.16521,170.11034 C 103.16521,170.11034 143.19117,171.67013 123.69348,205.08874 z "
         id="path5273"
         sodipodi:nodetypes="cczczczcz" />
      <path
         style="fill:url(#linearGradient5398);fill-opacity:1;stroke:none;stroke-width:1;stroke-linejoin:bevel;stroke-miterlimit:4;stroke-dashoffset:0;stroke-opacity:1"
         d="M 87.125,126.10155 C 75.80004,127.22134 72.25777,140.6961 71.9375,150.2578 C 67.79492,153.76856 65.16505,146.58736 62.21875,144.6328 C 56.0252,138.07059 43.4096,133.69455 36.65625,141.8828 C 29.63871,149.49132 23.21486,161.86839 29.40625,171.8203 C 34.41054,178.87087 43.65621,179.87638 51,182.0703 C 51.89067,187.25126 44.87116,188.18704 42.78125,192.03905 C 35.52852,198.66452 34.92929,212.10634 43.78125,217.7578 C 50.77335,224.44219 62.55541,231.48452 71.6875,224.9453 C 78.97616,219.52259 79.3659,209.73433 82.09375,202.1953 C 87.61203,202.20954 88.64995,209.40335 93.03125,211.78905 C 99.27991,218.01071 110.97328,219.27921 116.3125,211.53905 C 123.20438,204.10638 129.86046,192.70174 125.4375,182.5078 C 120.7889,174.10914 110.00808,173.54363 102.125,171.28905 C 101.623,165.92985 108.93696,165.61513 111.46875,161.8828 C 118.20371,156.70953 121.43941,145.52746 114.21875,139.4453 C 107.32451,132.01097 97.47996,126.32259 87.125,126.10155 z "
         id="path5275" />
      <path
         id="path1484"
         d="M 87.125,126.10155 C 75.80004,127.22134 72.25777,140.6961 71.9375,150.2578 C 67.79492,153.76856 65.16505,146.58736 62.21875,144.6328 C 56.0252,138.07059 43.4096,133.69455 36.65625,141.8828 C 29.63871,149.49132 23.21486,161.86839 29.40625,171.8203 C 34.41054,178.87087 43.65621,179.87638 51,182.0703 C 51.89067,187.25126 44.87116,188.18704 42.78125,192.03905 C 35.52852,198.66452 34.92929,212.10634 43.78125,217.7578 C 50.77335,224.44219 62.55541,231.48452 71.6875,224.9453 C 78.97616,219.52259 79.3659,209.73433 82.09375,202.1953 C 87.61203,202.20954 88.64995,209.40335 93.03125,211.78905 C 99.27991,218.01071 110.97328,219.27921 116.3125,211.53905 C 123.20438,204.10638 129.86046,192.70174 125.4375,182.5078 C 120.7889,174.10914 110.00808,173.54363 102.125,171.28905 C 101.623,165.92985 108.93696,165.61513 111.46875,161.8828 C 118.20371,156.70953 121.43941,145.52746 114.21875,139.4453 C 107.32451,132.01097 97.47996,126.32259 87.125,126.10155 z "
         style="fill:url(#linearGradient1486);fill-opacity:1;stroke:none;stroke-width:1;stroke-linejoin:bevel;stroke-miterlimit:4;stroke-dashoffset:0;stroke-opacity:1" />
      <g
         id="g5277"
         transform="matrix(0.436782,0,0,0.436782,4.7571,137.8161)">
        <path
           transform="translate(-87,-417.6378)"
           d="M 295 500.36218 A 41 41 0 1 1  213,500.36218 A 41 41 0 1 1  295 500.36218 z"
           sodipodi:ry="41"
           sodipodi:rx="41"
           sodipodi:cy="500.36218"
           sodipodi:cx="254"
           id="path5279"
           style="fill:#000000;fill-opacity:0.37848606;stroke:none;stroke-width:1;stroke-linejoin:bevel;stroke-miterlimit:4;stroke-dasharray:none;stroke-dashoffset:0;stroke-opacity:1"
           sodipodi:type="arc" />
        <path
           sodipodi:type="arc"
           style="fill:#000000;fill-opacity:0.37848606;stroke:none;stroke-width:1;stroke-linejoin:bevel;stroke-miterlimit:4;stroke-dasharray:none;stroke-dashoffset:0;stroke-opacity:1"
           id="path5281"
           sodipodi:cx="254"
           sodipodi:cy="500.36218"
           sodipodi:rx="41"
           sodipodi:ry="41"
           d="M 295 500.36218 A 41 41 0 1 1  213,500.36218 A 41 41 0 1 1  295 500.36218 z"
           transform="translate(-90,-419.6378)" />
        <path
           transform="translate(-92,-421)"
           d="M 295 500.36218 A 41 41 0 1 1  213,500.36218 A 41 41 0 1 1  295 500.36218 z"
           sodipodi:ry="41"
           sodipodi:rx="41"
           sodipodi:cy="500.36218"
           sodipodi:cx="254"
           id="path5283"
           style="fill:#fef708;fill-opacity:1;stroke:none;stroke-width:1;stroke-linejoin:bevel;stroke-miterlimit:4;stroke-dasharray:none;stroke-dashoffset:0;stroke-opacity:1"
           sodipodi:type="arc" />
        <path
           transform="translate(-92,-421)"
           sodipodi:type="arc"
           style="fill:url(#radialGradient5293);fill-opacity:1;stroke:none;stroke-width:1;stroke-linejoin:bevel;stroke-miterlimit:4;stroke-dasharray:none;stroke-dashoffset:0;stroke-opacity:1"
           id="path5285"
           sodipodi:cx="254"
           sodipodi:cy="500.36218"
           sodipodi:rx="41"
           sodipodi:ry="41"
           d="M 295 500.36218 A 41 41 0 1 1  213,500.36218 A 41 41 0 1 1  295 500.36218 z" />
        <path
           transform="matrix(-4.256921e-2,-1.132986,1.982307,-8.904336e-2,-790.6201,450.8964)"
           d="M 278 486.86218 A 13.5 13.5 0 1 1  251,486.86218 A 13.5 13.5 0 1 1  278 486.86218 z"
           sodipodi:ry="13.5"
           sodipodi:rx="13.5"
           sodipodi:cy="486.86218"
           sodipodi:cx="264.5"
           id="path5287"
           style="opacity:0.5;fill:url(#radialGradient5295);fill-opacity:1;stroke:none;stroke-width:1;stroke-linejoin:bevel;stroke-miterlimit:4;stroke-dasharray:none;stroke-dashoffset:0;stroke-opacity:1"
           sodipodi:type="arc" />
        <path
           transform="matrix(1.148149,0,0,1.5,174.6296,80.3622)"
           d="M 16 -13 A 27 13 0 1 1  -38,-13 A 27 13 0 1 1  16 -13 z"
           sodipodi:ry="13"
           sodipodi:rx="27"
           sodipodi:cy="-13"
           sodipodi:cx="-11"
           id="path5289"
           style="opacity:0.81102361;fill:url(#linearGradient5297);fill-opacity:1;stroke:none;stroke-width:1;stroke-linejoin:bevel;stroke-miterlimit:4;stroke-dasharray:none;stroke-dashoffset:0;stroke-opacity:1"
           sodipodi:type="arc" />
      </g>
    </g>
    <g
       id="g1535">
      <path
         style="fill:#000000;fill-opacity:0.38039216;stroke:none;stroke-width:1;stroke-linejoin:bevel;stroke-miterlimit:4;stroke-dashoffset:0;stroke-opacity:1"
         d="M 125.69348,318.72164 C 106.69579,351.27423 85.17447,316.95874 85.17447,316.95874 C 85.17447,316.95874 81.74864,358.21675 50.19606,337.48701 C 19.47781,317.30543 51.95896,296.968 51.95896,296.968 C 51.95896,296.968 13.84068,294.19893 31.43069,261.98959 C 48.06235,231.53508 71.94971,263.75249 71.94971,263.75249 C 71.94971,263.75249 72.64347,223.22654 106.92811,243.22422 C 142.9448,264.2219 105.16521,283.74324 105.16521,283.74324 C 105.16521,283.74324 145.19117,285.30303 125.69348,318.72164 z "
         id="path5237"
         sodipodi:nodetypes="cczczczcz" />
      <path
         sodipodi:nodetypes="cczczczcz"
         id="path5239"
         d="M 124.69348,316.72164 C 105.69579,349.27423 84.17447,314.95874 84.17447,314.95874 C 84.17447,314.95874 80.74864,356.21675 49.19606,335.48701 C 18.47781,315.30543 50.95896,294.968 50.95896,294.968 C 50.95896,294.968 12.84068,292.19893 30.43069,259.98959 C 47.06235,229.53508 70.94971,261.75249 70.94971,261.75249 C 70.94971,261.75249 71.64347,221.22654 105.92811,241.22422 C 141.9448,262.2219 104.16521,281.74324 104.16521,281.74324 C 104.16521,281.74324 144.19117,283.30303 124.69348,316.72164 z "
         style="fill:#000000;fill-opacity:0.38039216;stroke:none;stroke-width:1;stroke-linejoin:bevel;stroke-miterlimit:4;stroke-dashoffset:0;stroke-opacity:1" />
      <path
         style="fill:#a212a4;fill-opacity:1;stroke:none;stroke-width:1;stroke-linejoin:bevel;stroke-miterlimit:4;stroke-dashoffset:0;stroke-opacity:1"
         d="M 123.69348,314.72164 C 104.69579,347.27423 83.17447,312.95874 83.17447,312.95874 C 83.17447,312.95874 79.74864,354.21675 48.19606,333.48701 C 17.47781,313.30543 49.95896,292.968 49.95896,292.968 C 49.95896,292.968 11.84068,290.19893 29.43069,257.98959 C 46.06235,227.53508 69.94971,259.75249 69.94971,259.75249 C 69.94971,259.75249 70.64347,219.22654 104.92811,239.22422 C 140.9448,260.2219 103.16521,279.74324 103.16521,279.74324 C 103.16521,279.74324 143.19117,281.30303 123.69348,314.72164 z "
         id="path5241"
         sodipodi:nodetypes="cczczczcz" />
      <path
         style="fill:url(#linearGradient5385);fill-opacity:1;stroke:none;stroke-width:1;stroke-linejoin:bevel;stroke-miterlimit:4;stroke-dashoffset:0;stroke-opacity:1"
         d="M 87.125,235.73445 C 75.80004,236.85424 72.25777,250.329 71.9375,259.8907 C 67.79492,263.40146 65.16505,256.22026 62.21875,254.2657 C 56.0252,247.70349 43.4096,243.32745 36.65625,251.5157 C 29.63871,259.12422 23.21486,271.50129 29.40625,281.4532 C 34.41054,288.50377 43.65621,289.50928 51,291.7032 C 51.89067,296.88416 44.87116,297.81994 42.78125,301.67195 C 35.52852,308.29742 34.92929,321.73924 43.78125,327.3907 C 50.77335,334.07509 62.55541,341.11742 71.6875,334.5782 C 78.97616,329.15549 79.3659,319.36722 82.09375,311.8282 C 87.61203,311.84244 88.64995,319.03625 93.03125,321.42195 C 99.27991,327.64361 110.97328,328.91211 116.3125,321.17195 C 123.20438,313.73928 129.86046,302.33464 125.4375,292.1407 C 120.7889,283.74204 110.00808,283.17653 102.125,280.92195 C 101.623,275.56275 108.93696,275.24803 111.46875,271.5157 C 118.20371,266.34243 121.43941,255.16036 114.21875,249.0782 C 107.32451,241.64387 97.47996,235.95549 87.125,235.73445 z "
         id="path5243" />
      <path
         id="path1496"
         d="M 87.125,235.73445 C 75.80004,236.85424 72.25777,250.329 71.9375,259.8907 C 67.79492,263.40146 65.16505,256.22026 62.21875,254.2657 C 56.0252,247.70349 43.4096,243.32745 36.65625,251.5157 C 29.63871,259.12422 23.21486,271.50129 29.40625,281.4532 C 34.41054,288.50377 43.65621,289.50928 51,291.7032 C 51.89067,296.88416 44.87116,297.81994 42.78125,301.67195 C 35.52852,308.29742 34.92929,321.73924 43.78125,327.3907 C 50.77335,334.07509 62.55541,341.11742 71.6875,334.5782 C 78.97616,329.15549 79.3659,319.36722 82.09375,311.8282 C 87.61203,311.84244 88.64995,319.03625 93.03125,321.42195 C 99.27991,327.64361 110.97328,328.91211 116.3125,321.17195 C 123.20438,313.73928 129.86046,302.33464 125.4375,292.1407 C 120.7889,283.74204 110.00808,283.17653 102.125,280.92195 C 101.623,275.56275 108.93696,275.24803 111.46875,271.5157 C 118.20371,266.34243 121.43941,255.16036 114.21875,249.0782 C 107.32451,241.64387 97.47996,235.95549 87.125,235.73445 z "
         style="fill:url(#linearGradient1498);fill-opacity:1;stroke:none;stroke-width:1;stroke-linejoin:bevel;stroke-miterlimit:4;stroke-dashoffset:0;stroke-opacity:1" />
      <g
         id="g5245"
         transform="matrix(0.436782,0,0,0.436782,4.7571,247.449)">
        <path
           transform="translate(-87,-417.6378)"
           d="M 295 500.36218 A 41 41 0 1 1  213,500.36218 A 41 41 0 1 1  295 500.36218 z"
           sodipodi:ry="41"
           sodipodi:rx="41"
           sodipodi:cy="500.36218"
           sodipodi:cx="254"
           id="path5247"
           style="fill:#000000;fill-opacity:0.37848606;stroke:none;stroke-width:1;stroke-linejoin:bevel;stroke-miterlimit:4;stroke-dasharray:none;stroke-dashoffset:0;stroke-opacity:1"
           sodipodi:type="arc" />
        <path
           sodipodi:type="arc"
           style="fill:#000000;fill-opacity:0.37848606;stroke:none;stroke-width:1;stroke-linejoin:bevel;stroke-miterlimit:4;stroke-dasharray:none;stroke-dashoffset:0;stroke-opacity:1"
           id="path5249"
           sodipodi:cx="254"
           sodipodi:cy="500.36218"
           sodipodi:rx="41"
           sodipodi:ry="41"
           d="M 295 500.36218 A 41 41 0 1 1  213,500.36218 A 41 41 0 1 1  295 500.36218 z"
           transform="translate(-90,-419.6378)" />
        <path
           transform="translate(-92,-421)"
           d="M 295 500.36218 A 41 41 0 1 1  213,500.36218 A 41 41 0 1 1  295 500.36218 z"
           sodipodi:ry="41"
           sodipodi:rx="41"
           sodipodi:cy="500.36218"
           sodipodi:cx="254"
           id="path5251"
           style="fill:#fef708;fill-opacity:1;stroke:none;stroke-width:1;stroke-linejoin:bevel;stroke-miterlimit:4;stroke-dasharray:none;stroke-dashoffset:0;stroke-opacity:1"
           sodipodi:type="arc" />
        <path
           transform="translate(-92,-421)"
           sodipodi:type="arc"
           style="fill:url(#radialGradient5261);fill-opacity:1;stroke:none;stroke-width:1;stroke-linejoin:bevel;stroke-miterlimit:4;stroke-dasharray:none;stroke-dashoffset:0;stroke-opacity:1"
           id="path5253"
           sodipodi:cx="254"
           sodipodi:cy="500.36218"
           sodipodi:rx="41"
           sodipodi:ry="41"
           d="M 295 500.36218 A 41 41 0 1 1  213,500.36218 A 41 41 0 1 1  295 500.36218 z" />
        <path
           transform="matrix(-4.256921e-2,-1.132986,1.982307,-8.904336e-2,-790.6201,450.8964)"
           d="M 278 486.86218 A 13.5 13.5 0 1 1  251,486.86218 A 13.5 13.5 0 1 1  278 486.86218 z"
           sodipodi:ry="13.5"
           sodipodi:rx="13.5"
           sodipodi:cy="486.86218"
           sodipodi:cx="264.5"
           id="path5255"
           style="opacity:0.5;fill:url(#radialGradient5263);fill-opacity:1;stroke:none;stroke-width:1;stroke-linejoin:bevel;stroke-miterlimit:4;stroke-dasharray:none;stroke-dashoffset:0;stroke-opacity:1"
           sodipodi:type="arc" />
        <path
           transform="matrix(1.148149,0,0,1.5,174.6296,80.3622)"
           d="M 16 -13 A 27 13 0 1 1  -38,-13 A 27 13 0 1 1  16 -13 z"
           sodipodi:ry="13"
           sodipodi:rx="27"
           sodipodi:cy="-13"
           sodipodi:cx="-11"
           id="path5257"
           style="opacity:0.81102361;fill:url(#linearGradient5265);fill-opacity:1;stroke:none;stroke-width:1;stroke-linejoin:bevel;stroke-miterlimit:4;stroke-dasharray:none;stroke-dashoffset:0;stroke-opacity:1"
           sodipodi:type="arc" />
      </g>
    </g>
    <g
       id="g1470">
      <path
         style="fill:#000000;fill-opacity:0.38039216;stroke:none;stroke-width:1;stroke-linejoin:bevel;stroke-miterlimit:4;stroke-dashoffset:0;stroke-opacity:1"
         d="M 231.94788,99.45594 C 212.95019,132.00853 191.42887,97.69304 191.42887,97.69304 C 191.42887,97.69304 188.00304,138.95105 156.45046,118.22131 C 125.73221,98.03973 158.21336,77.7023 158.21336,77.7023 C 158.21336,77.7023 120.09508,74.93323 137.68509,42.72389 C 154.31675,12.26938 178.20411,44.48679 178.20411,44.48679 C 178.20411,44.48679 178.89787,3.96084 213.18251,23.95852 C 249.1992,44.9562 211.41961,64.47754 211.41961,64.47754 C 211.41961,64.47754 251.44557,66.03733 231.94788,99.45594 z "
         id="path5205"
         sodipodi:nodetypes="cczczczcz" />
      <path
         sodipodi:nodetypes="cczczczcz"
         id="path5207"
         d="M 230.94788,97.45594 C 211.95019,130.00853 190.42887,95.69304 190.42887,95.69304 C 190.42887,95.69304 187.00304,136.95105 155.45046,116.22131 C 124.73221,96.03973 157.21336,75.7023 157.21336,75.7023 C 157.21336,75.7023 119.09508,72.93323 136.68509,40.72389 C 153.31675,10.26938 177.20411,42.48679 177.20411,42.48679 C 177.20411,42.48679 177.89787,1.96084 212.18251,21.95852 C 248.1992,42.9562 210.41961,62.47754 210.41961,62.47754 C 210.41961,62.47754 250.44557,64.03733 230.94788,97.45594 z "
         style="fill:#000000;fill-opacity:0.38039216;stroke:none;stroke-width:1;stroke-linejoin:bevel;stroke-miterlimit:4;stroke-dashoffset:0;stroke-opacity:1" />
      <path
         style="fill:#969696;fill-opacity:1;stroke:none;stroke-width:1;stroke-linejoin:bevel;stroke-miterlimit:4;stroke-dashoffset:0;stroke-opacity:1"
         d="M 229.94788,95.45594 C 210.95019,128.00853 189.42887,93.69304 189.42887,93.69304 C 189.42887,93.69304 186.00304,134.95105 154.45046,114.22131 C 123.73221,94.03973 156.21336,73.7023 156.21336,73.7023 C 156.21336,73.7023 118.09508,70.93323 135.68509,38.72389 C 152.31675,8.26938 176.20411,40.48679 176.20411,40.48679 C 176.20411,40.48679 176.89787,-0.03916 211.18251,19.95852 C 247.1992,40.9562 209.41961,60.47754 209.41961,60.47754 C 209.41961,60.47754 249.44557,62.03733 229.94788,95.45594 z "
         id="path5209"
         sodipodi:nodetypes="cczczczcz" />
      <path
         style="fill:url(#linearGradient5372);fill-opacity:1;stroke:none;stroke-width:1;stroke-linejoin:bevel;stroke-miterlimit:4;stroke-dashoffset:0;stroke-opacity:1"
         d="M 193.3794,16.46875 C 182.05444,17.58854 178.51217,31.0633 178.1919,40.625 C 174.04932,44.13576 171.41945,36.95456 168.47315,35 C 162.2796,28.43779 149.664,24.06175 142.91065,32.25 C 135.89311,39.85852 129.46926,52.23559 135.66065,62.1875 C 140.66494,69.23807 149.91061,70.24358 157.2544,72.4375 C 158.14507,77.618461 151.12556,78.55424 149.03565,82.40625 C 141.78292,89.031715 141.18369,102.47354 150.03565,108.125 C 157.02775,114.80939 168.80981,121.85172 177.9419,115.3125 C 185.23056,109.88979 185.6203,100.10152 188.34815,92.5625 C 193.86643,92.576736 194.90435,99.770554 199.28565,102.15625 C 205.53431,108.37791 217.22768,109.64641 222.5669,101.90625 C 229.45878,94.473579 236.11486,83.068937 231.6919,72.875 C 227.0433,64.47634 216.26248,63.91083 208.3794,61.65625 C 207.8774,56.29705 215.19136,55.98233 217.72315,52.25 C 224.45811,47.07673 227.69381,35.89466 220.47315,29.8125 C 213.57891,22.37817 203.73436,16.68979 193.3794,16.46875 z "
         id="path5211" />
      <path
         id="path1474"
         d="M 193.3794,16.46875 C 182.05444,17.58854 178.51217,31.0633 178.1919,40.625 C 174.04932,44.13576 171.41945,36.95456 168.47315,35 C 162.2796,28.43779 149.664,24.06175 142.91065,32.25 C 135.89311,39.85852 129.46926,52.23559 135.66065,62.1875 C 140.66494,69.23807 149.91061,70.24358 157.2544,72.4375 C 158.14507,77.618461 151.12556,78.55424 149.03565,82.40625 C 141.78292,89.031715 141.18369,102.47354 150.03565,108.125 C 157.02775,114.80939 168.80981,121.85172 177.9419,115.3125 C 185.23056,109.88979 185.6203,100.10152 188.34815,92.5625 C 193.86643,92.576736 194.90435,99.770554 199.28565,102.15625 C 205.53431,108.37791 217.22768,109.64641 222.5669,101.90625 C 229.45878,94.473579 236.11486,83.068937 231.6919,72.875 C 227.0433,64.47634 216.26248,63.91083 208.3794,61.65625 C 207.8774,56.29705 215.19136,55.98233 217.72315,52.25 C 224.45811,47.07673 227.69381,35.89466 220.47315,29.8125 C 213.57891,22.37817 203.73436,16.68979 193.3794,16.46875 z "
         style="fill:url(#linearGradient1476);fill-opacity:1;stroke:none;stroke-width:1;stroke-linejoin:bevel;stroke-miterlimit:4;stroke-dashoffset:0;stroke-opacity:1" />
      <g
         id="g5213"
         transform="matrix(0.436782,0,0,0.436782,111.0115,28.1833)">
        <path
           transform="translate(-87,-417.6378)"
           d="M 295 500.36218 A 41 41 0 1 1  213,500.36218 A 41 41 0 1 1  295 500.36218 z"
           sodipodi:ry="41"
           sodipodi:rx="41"
           sodipodi:cy="500.36218"
           sodipodi:cx="254"
           id="path5215"
           style="fill:#000000;fill-opacity:0.37848606;stroke:none;stroke-width:1;stroke-linejoin:bevel;stroke-miterlimit:4;stroke-dasharray:none;stroke-dashoffset:0;stroke-opacity:1"
           sodipodi:type="arc" />
        <path
           sodipodi:type="arc"
           style="fill:#000000;fill-opacity:0.37848606;stroke:none;stroke-width:1;stroke-linejoin:bevel;stroke-miterlimit:4;stroke-dasharray:none;stroke-dashoffset:0;stroke-opacity:1"
           id="path5217"
           sodipodi:cx="254"
           sodipodi:cy="500.36218"
           sodipodi:rx="41"
           sodipodi:ry="41"
           d="M 295 500.36218 A 41 41 0 1 1  213,500.36218 A 41 41 0 1 1  295 500.36218 z"
           transform="translate(-90,-419.6378)" />
        <path
           transform="translate(-92,-421)"
           d="M 295 500.36218 A 41 41 0 1 1  213,500.36218 A 41 41 0 1 1  295 500.36218 z"
           sodipodi:ry="41"
           sodipodi:rx="41"
           sodipodi:cy="500.36218"
           sodipodi:cx="254"
           id="path5219"
           style="fill:#fef708;fill-opacity:1;stroke:none;stroke-width:1;stroke-linejoin:bevel;stroke-miterlimit:4;stroke-dasharray:none;stroke-dashoffset:0;stroke-opacity:1"
           sodipodi:type="arc" />
        <path
           transform="translate(-92,-421)"
           sodipodi:type="arc"
           style="fill:url(#radialGradient5229);fill-opacity:1;stroke:none;stroke-width:1;stroke-linejoin:bevel;stroke-miterlimit:4;stroke-dasharray:none;stroke-dashoffset:0;stroke-opacity:1"
           id="path5221"
           sodipodi:cx="254"
           sodipodi:cy="500.36218"
           sodipodi:rx="41"
           sodipodi:ry="41"
           d="M 295 500.36218 A 41 41 0 1 1  213,500.36218 A 41 41 0 1 1  295 500.36218 z" />
        <path
           transform="matrix(-4.256921e-2,-1.132986,1.982307,-8.904336e-2,-790.6201,450.8964)"
           d="M 278 486.86218 A 13.5 13.5 0 1 1  251,486.86218 A 13.5 13.5 0 1 1  278 486.86218 z"
           sodipodi:ry="13.5"
           sodipodi:rx="13.5"
           sodipodi:cy="486.86218"
           sodipodi:cx="264.5"
           id="path5223"
           style="opacity:0.5;fill:url(#radialGradient5231);fill-opacity:1;stroke:none;stroke-width:1;stroke-linejoin:bevel;stroke-miterlimit:4;stroke-dasharray:none;stroke-dashoffset:0;stroke-opacity:1"
           sodipodi:type="arc" />
        <path
           transform="matrix(1.148149,0,0,1.5,174.6296,80.3622)"
           d="M 16 -13 A 27 13 0 1 1  -38,-13 A 27 13 0 1 1  16 -13 z"
           sodipodi:ry="13"
           sodipodi:rx="27"
           sodipodi:cy="-13"
           sodipodi:cx="-11"
           id="path5225"
           style="opacity:0.81102361;fill:url(#linearGradient5233);fill-opacity:1;stroke:none;stroke-width:1;stroke-linejoin:bevel;stroke-miterlimit:4;stroke-dasharray:none;stroke-dashoffset:0;stroke-opacity:1"
           sodipodi:type="arc" />
      </g>
    </g>
    <g
       id="g1569">
      <path
         style="fill:#000000;fill-opacity:0.38039216;stroke:none;stroke-width:1;stroke-linejoin:bevel;stroke-miterlimit:4;stroke-dashoffset:0;stroke-opacity:1"
         d="M 231.94788,209.08874 C 212.95019,241.64133 191.42887,207.32584 191.42887,207.32584 C 191.42887,207.32584 188.00304,248.58385 156.45046,227.85411 C 125.73221,207.67253 158.21336,187.3351 158.21336,187.3351 C 158.21336,187.3351 120.09508,184.56603 137.68509,152.35669 C 154.31675,121.90218 178.20411,154.11959 178.20411,154.11959 C 178.20411,154.11959 178.89787,113.59364 213.18251,133.59132 C 249.1992,154.589 211.41961,174.11034 211.41961,174.11034 C 211.41961,174.11034 251.44557,175.67013 231.94788,209.08874 z "
         id="path5173"
         sodipodi:nodetypes="cczczczcz" />
      <path
         sodipodi:nodetypes="cczczczcz"
         id="path5175"
         d="M 230.94788,207.08874 C 211.95019,239.64133 190.42887,205.32584 190.42887,205.32584 C 190.42887,205.32584 187.00304,246.58385 155.45046,225.85411 C 124.73221,205.67253 157.21336,185.3351 157.21336,185.3351 C 157.21336,185.3351 119.09508,182.56603 136.68509,150.35669 C 153.31675,119.90218 177.20411,152.11959 177.20411,152.11959 C 177.20411,152.11959 177.89787,111.59364 212.18251,131.59132 C 248.1992,152.589 210.41961,172.11034 210.41961,172.11034 C 210.41961,172.11034 250.44557,173.67013 230.94788,207.08874 z "
         style="fill:#000000;fill-opacity:0.38039216;stroke:none;stroke-width:1;stroke-linejoin:bevel;stroke-miterlimit:4;stroke-dashoffset:0;stroke-opacity:1" />
      <path
         style="fill:#00ff00;fill-opacity:1;stroke:none;stroke-width:1;stroke-linejoin:bevel;stroke-miterlimit:4;stroke-dashoffset:0;stroke-opacity:1"
         d="M 229.94788,205.08874 C 210.95019,237.64133 189.42887,203.32584 189.42887,203.32584 C 189.42887,203.32584 186.00304,244.58385 154.45046,223.85411 C 123.73221,203.67253 156.21336,183.3351 156.21336,183.3351 C 156.21336,183.3351 118.09508,180.56603 135.68509,148.35669 C 152.31675,117.90218 176.20411,150.11959 176.20411,150.11959 C 176.20411,150.11959 176.89787,109.59364 211.18251,129.59132 C 247.1992,150.589 209.41961,170.11034 209.41961,170.11034 C 209.41961,170.11034 249.44557,171.67013 229.94788,205.08874 z "
         id="path5177"
         sodipodi:nodetypes="cczczczcz" />
      <path
         style="fill:url(#linearGradient5359);fill-opacity:1;stroke:none;stroke-width:1;stroke-linejoin:bevel;stroke-miterlimit:4;stroke-dashoffset:0;stroke-opacity:1"
         d="M 193.3794,126.10155 C 182.05444,127.22134 178.51217,140.6961 178.1919,150.2578 C 174.04932,153.76856 171.41945,146.58736 168.47315,144.6328 C 162.2796,138.07059 149.664,133.69455 142.91065,141.8828 C 135.89311,149.49132 129.46926,161.86839 135.66065,171.8203 C 140.66494,178.87087 149.91061,179.87638 157.2544,182.0703 C 158.14507,187.25126 151.12556,188.18704 149.03565,192.03905 C 141.78292,198.66452 141.18369,212.10634 150.03565,217.7578 C 157.02775,224.44219 168.80981,231.48452 177.9419,224.9453 C 185.23056,219.52259 185.6203,209.73433 188.34815,202.1953 C 193.86643,202.20954 194.90435,209.40335 199.28565,211.78905 C 205.53431,218.01071 217.22768,219.27921 222.5669,211.53905 C 229.45878,204.10638 236.11486,192.70174 231.6919,182.5078 C 227.0433,174.10914 216.26248,173.54363 208.3794,171.28905 C 207.8774,165.92985 215.19136,165.61513 217.72315,161.8828 C 224.45811,156.70953 227.69381,145.52746 220.47315,139.4453 C 213.57891,132.01097 203.73436,126.32259 193.3794,126.10155 z "
         id="path5179" />
      <path
         id="path1488"
         d="M 193.3794,126.10155 C 182.05444,127.22134 178.51217,140.6961 178.1919,150.2578 C 174.04932,153.76856 171.41945,146.58736 168.47315,144.6328 C 162.2796,138.07059 149.664,133.69455 142.91065,141.8828 C 135.89311,149.49132 129.46926,161.86839 135.66065,171.8203 C 140.66494,178.87087 149.91061,179.87638 157.2544,182.0703 C 158.14507,187.25126 151.12556,188.18704 149.03565,192.03905 C 141.78292,198.66452 141.18369,212.10634 150.03565,217.7578 C 157.02775,224.44219 168.80981,231.48452 177.9419,224.9453 C 185.23056,219.52259 185.6203,209.73433 188.34815,202.1953 C 193.86643,202.20954 194.90435,209.40335 199.28565,211.78905 C 205.53431,218.01071 217.22768,219.27921 222.5669,211.53905 C 229.45878,204.10638 236.11486,192.70174 231.6919,182.5078 C 227.0433,174.10914 216.26248,173.54363 208.3794,171.28905 C 207.8774,165.92985 215.19136,165.61513 217.72315,161.8828 C 224.45811,156.70953 227.69381,145.52746 220.47315,139.4453 C 213.57891,132.01097 203.73436,126.32259 193.3794,126.10155 z "
         style="fill:url(#linearGradient1490);fill-opacity:1;stroke:none;stroke-width:1;stroke-linejoin:bevel;stroke-miterlimit:4;stroke-dashoffset:0;stroke-opacity:1" />
      <g
         id="g5181"
         transform="matrix(0.436782,0,0,0.436782,111.0115,137.8161)">
        <path
           transform="translate(-87,-417.6378)"
           d="M 295 500.36218 A 41 41 0 1 1  213,500.36218 A 41 41 0 1 1  295 500.36218 z"
           sodipodi:ry="41"
           sodipodi:rx="41"
           sodipodi:cy="500.36218"
           sodipodi:cx="254"
           id="path5183"
           style="fill:#000000;fill-opacity:0.37848606;stroke:none;stroke-width:1;stroke-linejoin:bevel;stroke-miterlimit:4;stroke-dasharray:none;stroke-dashoffset:0;stroke-opacity:1"
           sodipodi:type="arc" />
        <path
           sodipodi:type="arc"
           style="fill:#000000;fill-opacity:0.37848606;stroke:none;stroke-width:1;stroke-linejoin:bevel;stroke-miterlimit:4;stroke-dasharray:none;stroke-dashoffset:0;stroke-opacity:1"
           id="path5185"
           sodipodi:cx="254"
           sodipodi:cy="500.36218"
           sodipodi:rx="41"
           sodipodi:ry="41"
           d="M 295 500.36218 A 41 41 0 1 1  213,500.36218 A 41 41 0 1 1  295 500.36218 z"
           transform="translate(-90,-419.6378)" />
        <path
           transform="translate(-92,-421)"
           d="M 295 500.36218 A 41 41 0 1 1  213,500.36218 A 41 41 0 1 1  295 500.36218 z"
           sodipodi:ry="41"
           sodipodi:rx="41"
           sodipodi:cy="500.36218"
           sodipodi:cx="254"
           id="path5187"
           style="fill:#fef708;fill-opacity:1;stroke:none;stroke-width:1;stroke-linejoin:bevel;stroke-miterlimit:4;stroke-dasharray:none;stroke-dashoffset:0;stroke-opacity:1"
           sodipodi:type="arc" />
        <path
           transform="translate(-92,-421)"
           sodipodi:type="arc"
           style="fill:url(#radialGradient5197);fill-opacity:1;stroke:none;stroke-width:1;stroke-linejoin:bevel;stroke-miterlimit:4;stroke-dasharray:none;stroke-dashoffset:0;stroke-opacity:1"
           id="path5189"
           sodipodi:cx="254"
           sodipodi:cy="500.36218"
           sodipodi:rx="41"
           sodipodi:ry="41"
           d="M 295 500.36218 A 41 41 0 1 1  213,500.36218 A 41 41 0 1 1  295 500.36218 z" />
        <path
           transform="matrix(-4.256921e-2,-1.132986,1.982307,-8.904336e-2,-790.6201,450.8964)"
           d="M 278 486.86218 A 13.5 13.5 0 1 1  251,486.86218 A 13.5 13.5 0 1 1  278 486.86218 z"
           sodipodi:ry="13.5"
           sodipodi:rx="13.5"
           sodipodi:cy="486.86218"
           sodipodi:cx="264.5"
           id="path5191"
           style="opacity:0.5;fill:url(#radialGradient5199);fill-opacity:1;stroke:none;stroke-width:1;stroke-linejoin:bevel;stroke-miterlimit:4;stroke-dasharray:none;stroke-dashoffset:0;stroke-opacity:1"
           sodipodi:type="arc" />
        <path
           transform="matrix(1.148149,0,0,1.5,174.6296,80.3622)"
           d="M 16 -13 A 27 13 0 1 1  -38,-13 A 27 13 0 1 1  16 -13 z"
           sodipodi:ry="13"
           sodipodi:rx="27"
           sodipodi:cy="-13"
           sodipodi:cx="-11"
           id="path5193"
           style="opacity:0.81102361;fill:url(#linearGradient5201);fill-opacity:1;stroke:none;stroke-width:1;stroke-linejoin:bevel;stroke-miterlimit:4;stroke-dasharray:none;stroke-dashoffset:0;stroke-opacity:1"
           sodipodi:type="arc" />
      </g>
    </g>
    <g
       id="g1522">
      <path
         style="fill:#000000;fill-opacity:0.38039216;stroke:none;stroke-width:1;stroke-linejoin:bevel;stroke-miterlimit:4;stroke-dashoffset:0;stroke-opacity:1"
         d="M 231.94788,318.72164 C 212.95019,351.27423 191.42887,316.95874 191.42887,316.95874 C 191.42887,316.95874 188.00304,358.21675 156.45046,337.48701 C 125.73221,317.30543 158.21336,296.968 158.21336,296.968 C 158.21336,296.968 120.09508,294.19893 137.68509,261.98959 C 154.31675,231.53508 178.20411,263.75249 178.20411,263.75249 C 178.20411,263.75249 178.89787,223.22654 213.18251,243.22422 C 249.1992,264.2219 211.41961,283.74324 211.41961,283.74324 C 211.41961,283.74324 251.44557,285.30303 231.94788,318.72164 z "
         id="path5141"
         sodipodi:nodetypes="cczczczcz" />
      <path
         sodipodi:nodetypes="cczczczcz"
         id="path5143"
         d="M 230.94788,316.72164 C 211.95019,349.27423 190.42887,314.95874 190.42887,314.95874 C 190.42887,314.95874 187.00304,356.21675 155.45046,335.48701 C 124.73221,315.30543 157.21336,294.968 157.21336,294.968 C 157.21336,294.968 119.09508,292.19893 136.68509,259.98959 C 153.31675,229.53508 177.20411,261.75249 177.20411,261.75249 C 177.20411,261.75249 177.89787,221.22654 212.18251,241.22422 C 248.1992,262.2219 210.41961,281.74324 210.41961,281.74324 C 210.41961,281.74324 250.44557,283.30303 230.94788,316.72164 z "
         style="fill:#000000;fill-opacity:0.38039216;stroke:none;stroke-width:1;stroke-linejoin:bevel;stroke-miterlimit:4;stroke-dashoffset:0;stroke-opacity:1" />
      <path
         style="fill:#ff008a;fill-opacity:1;stroke:none;stroke-width:1;stroke-linejoin:bevel;stroke-miterlimit:4;stroke-dashoffset:0;stroke-opacity:1"
         d="M 229.94788,314.72164 C 210.95019,347.27423 189.42887,312.95874 189.42887,312.95874 C 189.42887,312.95874 186.00304,354.21675 154.45046,333.48701 C 123.73221,313.30543 156.21336,292.968 156.21336,292.968 C 156.21336,292.968 118.09508,290.19893 135.68509,257.98959 C 152.31675,227.53508 176.20411,259.75249 176.20411,259.75249 C 176.20411,259.75249 176.89787,219.22654 211.18251,239.22422 C 247.1992,260.2219 209.41961,279.74324 209.41961,279.74324 C 209.41961,279.74324 249.44557,281.30303 229.94788,314.72164 z "
         id="path5145"
         sodipodi:nodetypes="cczczczcz" />
      <path
         style="fill:url(#linearGradient5346);fill-opacity:1;stroke:none;stroke-width:1;stroke-linejoin:bevel;stroke-miterlimit:4;stroke-dashoffset:0;stroke-opacity:1"
         d="M 193.3794,235.73445 C 182.05444,236.85424 178.51217,250.329 178.1919,259.8907 C 174.04932,263.40146 171.41945,256.22026 168.47315,254.2657 C 162.2796,247.70349 149.664,243.32745 142.91065,251.5157 C 135.89311,259.12422 129.46926,271.50129 135.66065,281.4532 C 140.66494,288.50377 149.91061,289.50928 157.2544,291.7032 C 158.14507,296.88416 151.12556,297.81994 149.03565,301.67195 C 141.78292,308.29742 141.18369,321.73924 150.03565,327.3907 C 157.02775,334.07509 168.80981,341.11742 177.9419,334.5782 C 185.23056,329.15549 185.6203,319.36722 188.34815,311.8282 C 193.86643,311.84244 194.90435,319.03625 199.28565,321.42195 C 205.53431,327.64361 217.22768,328.91211 222.5669,321.17195 C 229.45878,313.73928 236.11486,302.33464 231.6919,292.1407 C 227.0433,283.74204 216.26248,283.17653 208.3794,280.92195 C 207.8774,275.56275 215.19136,275.24803 217.72315,271.5157 C 224.45811,266.34243 227.69381,255.16036 220.47315,249.0782 C 213.57891,241.64387 203.73436,235.95549 193.3794,235.73445 z "
         id="path5147" />
      <path
         id="path1500"
         d="M 193.3794,235.73445 C 182.05444,236.85424 178.51217,250.329 178.1919,259.8907 C 174.04932,263.40146 171.41945,256.22026 168.47315,254.2657 C 162.2796,247.70349 149.664,243.32745 142.91065,251.5157 C 135.89311,259.12422 129.46926,271.50129 135.66065,281.4532 C 140.66494,288.50377 149.91061,289.50928 157.2544,291.7032 C 158.14507,296.88416 151.12556,297.81994 149.03565,301.67195 C 141.78292,308.29742 141.18369,321.73924 150.03565,327.3907 C 157.02775,334.07509 168.80981,341.11742 177.9419,334.5782 C 185.23056,329.15549 185.6203,319.36722 188.34815,311.8282 C 193.86643,311.84244 194.90435,319.03625 199.28565,321.42195 C 205.53431,327.64361 217.22768,328.91211 222.5669,321.17195 C 229.45878,313.73928 236.11486,302.33464 231.6919,292.1407 C 227.0433,283.74204 216.26248,283.17653 208.3794,280.92195 C 207.8774,275.56275 215.19136,275.24803 217.72315,271.5157 C 224.45811,266.34243 227.69381,255.16036 220.47315,249.0782 C 213.57891,241.64387 203.73436,235.95549 193.3794,235.73445 z "
         style="fill:url(#linearGradient1502);fill-opacity:1;stroke:none;stroke-width:1;stroke-linejoin:bevel;stroke-miterlimit:4;stroke-dashoffset:0;stroke-opacity:1" />
      <g
         id="g5149"
         transform="matrix(0.436782,0,0,0.436782,111.0115,247.449)">
        <path
           transform="translate(-87,-417.6378)"
           d="M 295 500.36218 A 41 41 0 1 1  213,500.36218 A 41 41 0 1 1  295 500.36218 z"
           sodipodi:ry="41"
           sodipodi:rx="41"
           sodipodi:cy="500.36218"
           sodipodi:cx="254"
           id="path5151"
           style="fill:#000000;fill-opacity:0.37848606;stroke:none;stroke-width:1;stroke-linejoin:bevel;stroke-miterlimit:4;stroke-dasharray:none;stroke-dashoffset:0;stroke-opacity:1"
           sodipodi:type="arc" />
        <path
           sodipodi:type="arc"
           style="fill:#000000;fill-opacity:0.37848606;stroke:none;stroke-width:1;stroke-linejoin:bevel;stroke-miterlimit:4;stroke-dasharray:none;stroke-dashoffset:0;stroke-opacity:1"
           id="path5153"
           sodipodi:cx="254"
           sodipodi:cy="500.36218"
           sodipodi:rx="41"
           sodipodi:ry="41"
           d="M 295 500.36218 A 41 41 0 1 1  213,500.36218 A 41 41 0 1 1  295 500.36218 z"
           transform="translate(-90,-419.6378)" />
        <path
           transform="translate(-92,-421)"
           d="M 295 500.36218 A 41 41 0 1 1  213,500.36218 A 41 41 0 1 1  295 500.36218 z"
           sodipodi:ry="41"
           sodipodi:rx="41"
           sodipodi:cy="500.36218"
           sodipodi:cx="254"
           id="path5155"
           style="fill:#fef708;fill-opacity:1;stroke:none;stroke-width:1;stroke-linejoin:bevel;stroke-miterlimit:4;stroke-dasharray:none;stroke-dashoffset:0;stroke-opacity:1"
           sodipodi:type="arc" />
        <path
           transform="translate(-92,-421)"
           sodipodi:type="arc"
           style="fill:url(#radialGradient5165);fill-opacity:1;stroke:none;stroke-width:1;stroke-linejoin:bevel;stroke-miterlimit:4;stroke-dasharray:none;stroke-dashoffset:0;stroke-opacity:1"
           id="path5157"
           sodipodi:cx="254"
           sodipodi:cy="500.36218"
           sodipodi:rx="41"
           sodipodi:ry="41"
           d="M 295 500.36218 A 41 41 0 1 1  213,500.36218 A 41 41 0 1 1  295 500.36218 z" />
        <path
           transform="matrix(-4.256921e-2,-1.132986,1.982307,-8.904336e-2,-790.6201,450.8964)"
           d="M 278 486.86218 A 13.5 13.5 0 1 1  251,486.86218 A 13.5 13.5 0 1 1  278 486.86218 z"
           sodipodi:ry="13.5"
           sodipodi:rx="13.5"
           sodipodi:cy="486.86218"
           sodipodi:cx="264.5"
           id="path5159"
           style="opacity:0.5;fill:url(#radialGradient5167);fill-opacity:1;stroke:none;stroke-width:1;stroke-linejoin:bevel;stroke-miterlimit:4;stroke-dasharray:none;stroke-dashoffset:0;stroke-opacity:1"
           sodipodi:type="arc" />
        <path
           transform="matrix(1.148149,0,0,1.5,174.6296,80.3622)"
           d="M 16 -13 A 27 13 0 1 1  -38,-13 A 27 13 0 1 1  16 -13 z"
           sodipodi:ry="13"
           sodipodi:rx="27"
           sodipodi:cy="-13"
           sodipodi:cx="-11"
           id="path5161"
           style="opacity:0.81102361;fill:url(#linearGradient5169);fill-opacity:1;stroke:none;stroke-width:1;stroke-linejoin:bevel;stroke-miterlimit:4;stroke-dasharray:none;stroke-dashoffset:0;stroke-opacity:1"
           sodipodi:type="arc" />
      </g>
    </g>
    <g
       id="g1483">
      <path
         style="fill:#000000;fill-opacity:0.38039216;stroke:none;stroke-width:1;stroke-linejoin:bevel;stroke-miterlimit:4;stroke-dashoffset:0;stroke-opacity:1"
         d="M 338.20228,99.45594 C 319.20459,132.00853 297.68327,97.69304 297.68327,97.69304 C 297.68327,97.69304 294.25744,138.95105 262.70486,118.22131 C 231.98661,98.03973 264.46776,77.7023 264.46776,77.7023 C 264.46776,77.7023 226.34948,74.93323 243.93949,42.72389 C 260.57115,12.26938 284.45851,44.48679 284.45851,44.48679 C 284.45851,44.48679 285.15227,3.96084 319.43691,23.95852 C 355.4536,44.9562 317.67401,64.47754 317.67401,64.47754 C 317.67401,64.47754 357.69997,66.03733 338.20228,99.45594 z "
         id="path5109"
         sodipodi:nodetypes="cczczczcz" />
      <path
         sodipodi:nodetypes="cczczczcz"
         id="path5111"
         d="M 337.20228,97.45594 C 318.20459,130.00853 296.68327,95.69304 296.68327,95.69304 C 296.68327,95.69304 293.25744,136.95105 261.70486,116.22131 C 230.98661,96.03973 263.46776,75.7023 263.46776,75.7023 C 263.46776,75.7023 225.34948,72.93323 242.93949,40.72389 C 259.57115,10.26938 283.45851,42.48679 283.45851,42.48679 C 283.45851,42.48679 284.15227,1.96084 318.43691,21.95852 C 354.4536,42.9562 316.67401,62.47754 316.67401,62.47754 C 316.67401,62.47754 356.69997,64.03733 337.20228,97.45594 z "
         style="fill:#000000;fill-opacity:0.38039216;stroke:none;stroke-width:1;stroke-linejoin:bevel;stroke-miterlimit:4;stroke-dashoffset:0;stroke-opacity:1" />
      <path
         style="fill:#ff0013;fill-opacity:1;stroke:none;stroke-width:1;stroke-linejoin:bevel;stroke-miterlimit:4;stroke-dashoffset:0;stroke-opacity:1"
         d="M 336.20228,95.45594 C 317.20459,128.00853 295.68327,93.69304 295.68327,93.69304 C 295.68327,93.69304 292.25744,134.95105 260.70486,114.22131 C 229.98661,94.03973 262.46776,73.7023 262.46776,73.7023 C 262.46776,73.7023 224.34948,70.93323 241.93949,38.72389 C 258.57115,8.26938 282.45851,40.48679 282.45851,40.48679 C 282.45851,40.48679 283.15227,-0.03916 317.43691,19.95852 C 353.4536,40.9562 315.67401,60.47754 315.67401,60.47754 C 315.67401,60.47754 355.69997,62.03733 336.20228,95.45594 z "
         id="path5113"
         sodipodi:nodetypes="cczczczcz" />
      <path
         style="fill:url(#linearGradient5333);fill-opacity:1;stroke:none;stroke-width:1;stroke-linejoin:bevel;stroke-miterlimit:4;stroke-dashoffset:0;stroke-opacity:1"
         d="M 299.6338,16.46875 C 288.30884,17.58854 284.76657,31.0633 284.4463,40.625 C 280.30372,44.13576 277.67385,36.95456 274.72755,35 C 268.534,28.43779 255.9184,24.06175 249.16505,32.25 C 242.14751,39.85852 235.72366,52.23559 241.91505,62.1875 C 246.91934,69.23807 256.16501,70.24358 263.5088,72.4375 C 264.39947,77.618461 257.37996,78.55424 255.29005,82.40625 C 248.03732,89.031715 247.43809,102.47354 256.29005,108.125 C 263.28215,114.80939 275.06421,121.85172 284.1963,115.3125 C 291.48496,109.88979 291.8747,100.10152 294.60255,92.5625 C 300.12083,92.576736 301.15875,99.770554 305.54005,102.15625 C 311.78871,108.37791 323.48208,109.64641 328.8213,101.90625 C 335.71318,94.473579 342.36926,83.068937 337.9463,72.875 C 333.2977,64.47634 322.51688,63.91083 314.6338,61.65625 C 314.1318,56.29705 321.44576,55.98233 323.97755,52.25 C 330.71251,47.07673 333.94821,35.89466 326.72755,29.8125 C 319.83331,22.37817 309.98876,16.68979 299.6338,16.46875 z "
         id="path5115" />
      <path
         id="path1480"
         d="M 299.6338,16.46875 C 288.30884,17.58854 284.76657,31.0633 284.4463,40.625 C 280.30372,44.13576 277.67385,36.95456 274.72755,35 C 268.534,28.43779 255.9184,24.06175 249.16505,32.25 C 242.14751,39.85852 235.72366,52.23559 241.91505,62.1875 C 246.91934,69.23807 256.16501,70.24358 263.5088,72.4375 C 264.39947,77.618461 257.37996,78.55424 255.29005,82.40625 C 248.03732,89.031715 247.43809,102.47354 256.29005,108.125 C 263.28215,114.80939 275.06421,121.85172 284.1963,115.3125 C 291.48496,109.88979 291.8747,100.10152 294.60255,92.5625 C 300.12083,92.576736 301.15875,99.770554 305.54005,102.15625 C 311.78871,108.37791 323.48208,109.64641 328.8213,101.90625 C 335.71318,94.473579 342.36926,83.068937 337.9463,72.875 C 333.2977,64.47634 322.51688,63.91083 314.6338,61.65625 C 314.1318,56.29705 321.44576,55.98233 323.97755,52.25 C 330.71251,47.07673 333.94821,35.89466 326.72755,29.8125 C 319.83331,22.37817 309.98876,16.68979 299.6338,16.46875 z "
         style="fill:url(#linearGradient1482);fill-opacity:1;stroke:none;stroke-width:1;stroke-linejoin:bevel;stroke-miterlimit:4;stroke-dashoffset:0;stroke-opacity:1" />
      <g
         id="g5117"
         transform="matrix(0.436782,0,0,0.436782,217.2659,28.1833)">
        <path
           transform="translate(-87,-417.6378)"
           d="M 295 500.36218 A 41 41 0 1 1  213,500.36218 A 41 41 0 1 1  295 500.36218 z"
           sodipodi:ry="41"
           sodipodi:rx="41"
           sodipodi:cy="500.36218"
           sodipodi:cx="254"
           id="path5119"
           style="fill:#000000;fill-opacity:0.37848606;stroke:none;stroke-width:1;stroke-linejoin:bevel;stroke-miterlimit:4;stroke-dasharray:none;stroke-dashoffset:0;stroke-opacity:1"
           sodipodi:type="arc" />
        <path
           sodipodi:type="arc"
           style="fill:#000000;fill-opacity:0.37848606;stroke:none;stroke-width:1;stroke-linejoin:bevel;stroke-miterlimit:4;stroke-dasharray:none;stroke-dashoffset:0;stroke-opacity:1"
           id="path5121"
           sodipodi:cx="254"
           sodipodi:cy="500.36218"
           sodipodi:rx="41"
           sodipodi:ry="41"
           d="M 295 500.36218 A 41 41 0 1 1  213,500.36218 A 41 41 0 1 1  295 500.36218 z"
           transform="translate(-90,-419.6378)" />
        <path
           transform="translate(-92,-421)"
           d="M 295 500.36218 A 41 41 0 1 1  213,500.36218 A 41 41 0 1 1  295 500.36218 z"
           sodipodi:ry="41"
           sodipodi:rx="41"
           sodipodi:cy="500.36218"
           sodipodi:cx="254"
           id="path5123"
           style="fill:#fef708;fill-opacity:1;stroke:none;stroke-width:1;stroke-linejoin:bevel;stroke-miterlimit:4;stroke-dasharray:none;stroke-dashoffset:0;stroke-opacity:1"
           sodipodi:type="arc" />
        <path
           transform="translate(-92,-421)"
           sodipodi:type="arc"
           style="fill:url(#radialGradient5133);fill-opacity:1;stroke:none;stroke-width:1;stroke-linejoin:bevel;stroke-miterlimit:4;stroke-dasharray:none;stroke-dashoffset:0;stroke-opacity:1"
           id="path5125"
           sodipodi:cx="254"
           sodipodi:cy="500.36218"
           sodipodi:rx="41"
           sodipodi:ry="41"
           d="M 295 500.36218 A 41 41 0 1 1  213,500.36218 A 41 41 0 1 1  295 500.36218 z" />
        <path
           transform="matrix(-4.256921e-2,-1.132986,1.982307,-8.904336e-2,-790.6201,450.8964)"
           d="M 278 486.86218 A 13.5 13.5 0 1 1  251,486.86218 A 13.5 13.5 0 1 1  278 486.86218 z"
           sodipodi:ry="13.5"
           sodipodi:rx="13.5"
           sodipodi:cy="486.86218"
           sodipodi:cx="264.5"
           id="path5127"
           style="opacity:0.5;fill:url(#radialGradient5135);fill-opacity:1;stroke:none;stroke-width:1;stroke-linejoin:bevel;stroke-miterlimit:4;stroke-dasharray:none;stroke-dashoffset:0;stroke-opacity:1"
           sodipodi:type="arc" />
        <path
           transform="matrix(1.148149,0,0,1.5,174.6296,80.3622)"
           d="M 16 -13 A 27 13 0 1 1  -38,-13 A 27 13 0 1 1  16 -13 z"
           sodipodi:ry="13"
           sodipodi:rx="27"
           sodipodi:cy="-13"
           sodipodi:cx="-11"
           id="path5129"
           style="opacity:0.81102361;fill:url(#linearGradient5137);fill-opacity:1;stroke:none;stroke-width:1;stroke-linejoin:bevel;stroke-miterlimit:4;stroke-dasharray:none;stroke-dashoffset:0;stroke-opacity:1"
           sodipodi:type="arc" />
      </g>
    </g>
    <g
       id="g1496">
      <path
         style="fill:#000000;fill-opacity:0.38039216;stroke:none;stroke-width:1;stroke-linejoin:bevel;stroke-miterlimit:4;stroke-dashoffset:0;stroke-opacity:1"
         d="M 338.20228,209.08874 C 319.20459,241.64133 297.68327,207.32584 297.68327,207.32584 C 297.68327,207.32584 294.25744,248.58385 262.70486,227.85411 C 231.98661,207.67253 264.46776,187.3351 264.46776,187.3351 C 264.46776,187.3351 226.34948,184.56603 243.93949,152.35669 C 260.57115,121.90218 284.45851,154.11959 284.45851,154.11959 C 284.45851,154.11959 285.15227,113.59364 319.43691,133.59132 C 355.4536,154.589 317.67401,174.11034 317.67401,174.11034 C 317.67401,174.11034 357.69997,175.67013 338.20228,209.08874 z "
         id="path5077"
         sodipodi:nodetypes="cczczczcz" />
      <path
         sodipodi:nodetypes="cczczczcz"
         id="path5079"
         d="M 337.20228,207.08874 C 318.20459,239.64133 296.68327,205.32584 296.68327,205.32584 C 296.68327,205.32584 293.25744,246.58385 261.70486,225.85411 C 230.98661,205.67253 263.46776,185.3351 263.46776,185.3351 C 263.46776,185.3351 225.34948,182.56603 242.93949,150.35669 C 259.57115,119.90218 283.45851,152.11959 283.45851,152.11959 C 283.45851,152.11959 284.15227,111.59364 318.43691,131.59132 C 354.4536,152.589 316.67401,172.11034 316.67401,172.11034 C 316.67401,172.11034 356.69997,173.67013 337.20228,207.08874 z "
         style="fill:#000000;fill-opacity:0.38039216;stroke:none;stroke-width:1;stroke-linejoin:bevel;stroke-miterlimit:4;stroke-dashoffset:0;stroke-opacity:1" />
      <path
         style="fill:#fef708;fill-opacity:1;stroke:none;stroke-width:1;stroke-linejoin:bevel;stroke-miterlimit:4;stroke-dashoffset:0;stroke-opacity:1"
         d="M 336.20228,205.08874 C 317.20459,237.64133 295.68327,203.32584 295.68327,203.32584 C 295.68327,203.32584 292.25744,244.58385 260.70486,223.85411 C 229.98661,203.67253 262.46776,183.3351 262.46776,183.3351 C 262.46776,183.3351 224.34948,180.56603 241.93949,148.35669 C 258.57115,117.90218 282.45851,150.11959 282.45851,150.11959 C 282.45851,150.11959 283.15227,109.59364 317.43691,129.59132 C 353.4536,150.589 315.67401,170.11034 315.67401,170.11034 C 315.67401,170.11034 355.69997,171.67013 336.20228,205.08874 z "
         id="path5081"
         sodipodi:nodetypes="cczczczcz" />
      <path
         style="fill:url(#linearGradient5320);fill-opacity:1;stroke:none;stroke-width:1;stroke-linejoin:bevel;stroke-miterlimit:4;stroke-dashoffset:0;stroke-opacity:1"
         d="M 299.6338,126.10155 C 288.30884,127.22134 284.76657,140.6961 284.4463,150.2578 C 280.30372,153.76856 277.67385,146.58736 274.72755,144.6328 C 268.534,138.07059 255.9184,133.69455 249.16505,141.8828 C 242.14751,149.49132 235.72366,161.86839 241.91505,171.8203 C 246.91934,178.87087 256.16501,179.87638 263.5088,182.0703 C 264.39947,187.25126 257.37996,188.18704 255.29005,192.03905 C 248.03732,198.66452 247.43809,212.10634 256.29005,217.7578 C 263.28215,224.44219 275.06421,231.48452 284.1963,224.9453 C 291.48496,219.52259 291.8747,209.73433 294.60255,202.1953 C 300.12083,202.20954 301.15875,209.40335 305.54005,211.78905 C 311.78871,218.01071 323.48208,219.27921 328.8213,211.53905 C 335.71318,204.10638 342.36926,192.70174 337.9463,182.5078 C 333.2977,174.10914 322.51688,173.54363 314.6338,171.28905 C 314.1318,165.92985 321.44576,165.61513 323.97755,161.8828 C 330.71251,156.70953 333.94821,145.52746 326.72755,139.4453 C 319.83331,132.01097 309.98876,126.32259 299.6338,126.10155 z "
         id="path5083" />
      <path
         id="path1492"
         d="M 299.6338,126.10155 C 288.30884,127.22134 284.76657,140.6961 284.4463,150.2578 C 280.30372,153.76856 277.67385,146.58736 274.72755,144.6328 C 268.534,138.07059 255.9184,133.69455 249.16505,141.8828 C 242.14751,149.49132 235.72366,161.86839 241.91505,171.8203 C 246.91934,178.87087 256.16501,179.87638 263.5088,182.0703 C 264.39947,187.25126 257.37996,188.18704 255.29005,192.03905 C 248.03732,198.66452 247.43809,212.10634 256.29005,217.7578 C 263.28215,224.44219 275.06421,231.48452 284.1963,224.9453 C 291.48496,219.52259 291.8747,209.73433 294.60255,202.1953 C 300.12083,202.20954 301.15875,209.40335 305.54005,211.78905 C 311.78871,218.01071 323.48208,219.27921 328.8213,211.53905 C 335.71318,204.10638 342.36926,192.70174 337.9463,182.5078 C 333.2977,174.10914 322.51688,173.54363 314.6338,171.28905 C 314.1318,165.92985 321.44576,165.61513 323.97755,161.8828 C 330.71251,156.70953 333.94821,145.52746 326.72755,139.4453 C 319.83331,132.01097 309.98876,126.32259 299.6338,126.10155 z "
         style="fill:url(#linearGradient1494);fill-opacity:1;stroke:none;stroke-width:1;stroke-linejoin:bevel;stroke-miterlimit:4;stroke-dashoffset:0;stroke-opacity:1" />
      <g
         id="g5085"
         transform="matrix(0.436782,0,0,0.436782,217.2659,137.8161)">
        <path
           transform="translate(-87,-417.6378)"
           d="M 295 500.36218 A 41 41 0 1 1  213,500.36218 A 41 41 0 1 1  295 500.36218 z"
           sodipodi:ry="41"
           sodipodi:rx="41"
           sodipodi:cy="500.36218"
           sodipodi:cx="254"
           id="path5087"
           style="fill:#000000;fill-opacity:0.37848606;stroke:none;stroke-width:1;stroke-linejoin:bevel;stroke-miterlimit:4;stroke-dasharray:none;stroke-dashoffset:0;stroke-opacity:1"
           sodipodi:type="arc" />
        <path
           sodipodi:type="arc"
           style="fill:#000000;fill-opacity:0.37848606;stroke:none;stroke-width:1;stroke-linejoin:bevel;stroke-miterlimit:4;stroke-dasharray:none;stroke-dashoffset:0;stroke-opacity:1"
           id="path5089"
           sodipodi:cx="254"
           sodipodi:cy="500.36218"
           sodipodi:rx="41"
           sodipodi:ry="41"
           d="M 295 500.36218 A 41 41 0 1 1  213,500.36218 A 41 41 0 1 1  295 500.36218 z"
           transform="translate(-90,-419.6378)" />
        <path
           transform="translate(-92,-421)"
           d="M 295 500.36218 A 41 41 0 1 1  213,500.36218 A 41 41 0 1 1  295 500.36218 z"
           sodipodi:ry="41"
           sodipodi:rx="41"
           sodipodi:cy="500.36218"
           sodipodi:cx="254"
           id="path5091"
           style="fill:#fef708;fill-opacity:1;stroke:none;stroke-width:1;stroke-linejoin:bevel;stroke-miterlimit:4;stroke-dasharray:none;stroke-dashoffset:0;stroke-opacity:1"
           sodipodi:type="arc" />
        <path
           transform="translate(-92,-421)"
           sodipodi:type="arc"
           style="fill:url(#radialGradient5101);fill-opacity:1;stroke:none;stroke-width:1;stroke-linejoin:bevel;stroke-miterlimit:4;stroke-dasharray:none;stroke-dashoffset:0;stroke-opacity:1"
           id="path5093"
           sodipodi:cx="254"
           sodipodi:cy="500.36218"
           sodipodi:rx="41"
           sodipodi:ry="41"
           d="M 295 500.36218 A 41 41 0 1 1  213,500.36218 A 41 41 0 1 1  295 500.36218 z" />
        <path
           transform="matrix(-4.256921e-2,-1.132986,1.982307,-8.904336e-2,-790.6201,450.8964)"
           d="M 278 486.86218 A 13.5 13.5 0 1 1  251,486.86218 A 13.5 13.5 0 1 1  278 486.86218 z"
           sodipodi:ry="13.5"
           sodipodi:rx="13.5"
           sodipodi:cy="486.86218"
           sodipodi:cx="264.5"
           id="path5095"
           style="opacity:0.5;fill:url(#radialGradient5103);fill-opacity:1;stroke:none;stroke-width:1;stroke-linejoin:bevel;stroke-miterlimit:4;stroke-dasharray:none;stroke-dashoffset:0;stroke-opacity:1"
           sodipodi:type="arc" />
        <path
           transform="matrix(1.148149,0,0,1.5,174.6296,80.3622)"
           d="M 16 -13 A 27 13 0 1 1  -38,-13 A 27 13 0 1 1  16 -13 z"
           sodipodi:ry="13"
           sodipodi:rx="27"
           sodipodi:cy="-13"
           sodipodi:cx="-11"
           id="path5097"
           style="opacity:0.81102361;fill:url(#linearGradient5105);fill-opacity:1;stroke:none;stroke-width:1;stroke-linejoin:bevel;stroke-miterlimit:4;stroke-dasharray:none;stroke-dashoffset:0;stroke-opacity:1"
           sodipodi:type="arc" />
      </g>
    </g>
    <g
       id="g1509">
      <path
         style="fill:#000000;fill-opacity:0.38039216;stroke:none;stroke-width:1;stroke-linejoin:bevel;stroke-miterlimit:4;stroke-dashoffset:0;stroke-opacity:1"
         d="M 338.20228,318.72164 C 319.20459,351.27423 297.68327,316.95874 297.68327,316.95874 C 297.68327,316.95874 294.25744,358.21675 262.70486,337.48701 C 231.98661,317.30543 264.46776,296.968 264.46776,296.968 C 264.46776,296.968 226.34948,294.19893 243.93949,261.98959 C 260.57115,231.53508 284.45851,263.75249 284.45851,263.75249 C 284.45851,263.75249 285.15227,223.22654 319.43691,243.22422 C 355.4536,264.2219 317.67401,283.74324 317.67401,283.74324 C 317.67401,283.74324 357.69997,285.30303 338.20228,318.72164 z "
         id="path5045"
         sodipodi:nodetypes="cczczczcz" />
      <path
         sodipodi:nodetypes="cczczczcz"
         id="path5047"
         d="M 337.20228,316.72164 C 318.20459,349.27423 296.68327,314.95874 296.68327,314.95874 C 296.68327,314.95874 293.25744,356.21675 261.70486,335.48701 C 230.98661,315.30543 263.46776,294.968 263.46776,294.968 C 263.46776,294.968 225.34948,292.19893 242.93949,259.98959 C 259.57115,229.53508 283.45851,261.75249 283.45851,261.75249 C 283.45851,261.75249 284.15227,221.22654 318.43691,241.22422 C 354.4536,262.2219 316.67401,281.74324 316.67401,281.74324 C 316.67401,281.74324 356.69997,283.30303 337.20228,316.72164 z "
         style="fill:#000000;fill-opacity:0.38039216;stroke:none;stroke-width:1;stroke-linejoin:bevel;stroke-miterlimit:4;stroke-dashoffset:0;stroke-opacity:1" />
      <path
         style="fill:#00fff9;fill-opacity:1;stroke:none;stroke-width:1;stroke-linejoin:bevel;stroke-miterlimit:4;stroke-dashoffset:0;stroke-opacity:1"
         d="M 336.20228,314.72164 C 317.20459,347.27423 295.68327,312.95874 295.68327,312.95874 C 295.68327,312.95874 292.25744,354.21675 260.70486,333.48701 C 229.98661,313.30543 262.46776,292.968 262.46776,292.968 C 262.46776,292.968 224.34948,290.19893 241.93949,257.98959 C 258.57115,227.53508 282.45851,259.75249 282.45851,259.75249 C 282.45851,259.75249 283.15227,219.22654 317.43691,239.22422 C 353.4536,260.2219 315.67401,279.74324 315.67401,279.74324 C 315.67401,279.74324 355.69997,281.30303 336.20228,314.72164 z "
         id="path5049"
         sodipodi:nodetypes="cczczczcz" />
      <path
         style="fill:url(#linearGradient5307);fill-opacity:1;stroke:none;stroke-width:1;stroke-linejoin:bevel;stroke-miterlimit:4;stroke-dashoffset:0;stroke-opacity:1"
         d="M 299.6338,235.73445 C 288.30884,236.85424 284.76657,250.329 284.4463,259.8907 C 280.30372,263.40146 277.67385,256.22026 274.72755,254.2657 C 268.534,247.70349 255.9184,243.32745 249.16505,251.5157 C 242.14751,259.12422 235.72366,271.50129 241.91505,281.4532 C 246.91934,288.50377 256.16501,289.50928 263.5088,291.7032 C 264.39947,296.88416 257.37996,297.81994 255.29005,301.67195 C 248.03732,308.29742 247.43809,321.73924 256.29005,327.3907 C 263.28215,334.07509 275.06421,341.11742 284.1963,334.5782 C 291.48496,329.15549 291.8747,319.36722 294.60255,311.8282 C 300.12083,311.84244 301.15875,319.03625 305.54005,321.42195 C 311.78871,327.64361 323.48208,328.91211 328.8213,321.17195 C 335.71318,313.73928 342.36926,302.33464 337.9463,292.1407 C 333.2977,283.74204 322.51688,283.17653 314.6338,280.92195 C 314.1318,275.56275 321.44576,275.24803 323.97755,271.5157 C 330.71251,266.34243 333.94821,255.16036 326.72755,249.0782 C 319.83331,241.64387 309.98876,235.95549 299.6338,235.73445 z "
         id="path5051" />
      <path
         id="path1504"
         d="M 299.6338,235.73445 C 288.30884,236.85424 284.76657,250.329 284.4463,259.8907 C 280.30372,263.40146 277.67385,256.22026 274.72755,254.2657 C 268.534,247.70349 255.9184,243.32745 249.16505,251.5157 C 242.14751,259.12422 235.72366,271.50129 241.91505,281.4532 C 246.91934,288.50377 256.16501,289.50928 263.5088,291.7032 C 264.39947,296.88416 257.37996,297.81994 255.29005,301.67195 C 248.03732,308.29742 247.43809,321.73924 256.29005,327.3907 C 263.28215,334.07509 275.06421,341.11742 284.1963,334.5782 C 291.48496,329.15549 291.8747,319.36722 294.60255,311.8282 C 300.12083,311.84244 301.15875,319.03625 305.54005,321.42195 C 311.78871,327.64361 323.48208,328.91211 328.8213,321.17195 C 335.71318,313.73928 342.36926,302.33464 337.9463,292.1407 C 333.2977,283.74204 322.51688,283.17653 314.6338,280.92195 C 314.1318,275.56275 321.44576,275.24803 323.97755,271.5157 C 330.71251,266.34243 333.94821,255.16036 326.72755,249.0782 C 319.83331,241.64387 309.98876,235.95549 299.6338,235.73445 z "
         style="fill:url(#linearGradient1506);fill-opacity:1;stroke:none;stroke-width:1;stroke-linejoin:bevel;stroke-miterlimit:4;stroke-dashoffset:0;stroke-opacity:1" />
      <g
         id="g5053"
         transform="matrix(0.436782,0,0,0.436782,217.2659,247.449)">
        <path
           transform="translate(-87,-417.6378)"
           d="M 295 500.36218 A 41 41 0 1 1  213,500.36218 A 41 41 0 1 1  295 500.36218 z"
           sodipodi:ry="41"
           sodipodi:rx="41"
           sodipodi:cy="500.36218"
           sodipodi:cx="254"
           id="path5055"
           style="fill:#000000;fill-opacity:0.37848606;stroke:none;stroke-width:1;stroke-linejoin:bevel;stroke-miterlimit:4;stroke-dasharray:none;stroke-dashoffset:0;stroke-opacity:1"
           sodipodi:type="arc" />
        <path
           sodipodi:type="arc"
           style="fill:#000000;fill-opacity:0.37848606;stroke:none;stroke-width:1;stroke-linejoin:bevel;stroke-miterlimit:4;stroke-dasharray:none;stroke-dashoffset:0;stroke-opacity:1"
           id="path5057"
           sodipodi:cx="254"
           sodipodi:cy="500.36218"
           sodipodi:rx="41"
           sodipodi:ry="41"
           d="M 295 500.36218 A 41 41 0 1 1  213,500.36218 A 41 41 0 1 1  295 500.36218 z"
           transform="translate(-90,-419.6378)" />
        <path
           transform="translate(-92,-421)"
           d="M 295 500.36218 A 41 41 0 1 1  213,500.36218 A 41 41 0 1 1  295 500.36218 z"
           sodipodi:ry="41"
           sodipodi:rx="41"
           sodipodi:cy="500.36218"
           sodipodi:cx="254"
           id="path5059"
           style="fill:#fef708;fill-opacity:1;stroke:none;stroke-width:1;stroke-linejoin:bevel;stroke-miterlimit:4;stroke-dasharray:none;stroke-dashoffset:0;stroke-opacity:1"
           sodipodi:type="arc" />
        <path
           transform="translate(-92,-421)"
           sodipodi:type="arc"
           style="fill:url(#radialGradient5069);fill-opacity:1;stroke:none;stroke-width:1;stroke-linejoin:bevel;stroke-miterlimit:4;stroke-dasharray:none;stroke-dashoffset:0;stroke-opacity:1"
           id="path5061"
           sodipodi:cx="254"
           sodipodi:cy="500.36218"
           sodipodi:rx="41"
           sodipodi:ry="41"
           d="M 295 500.36218 A 41 41 0 1 1  213,500.36218 A 41 41 0 1 1  295 500.36218 z" />
        <path
           transform="matrix(-4.256921e-2,-1.132986,1.982307,-8.904336e-2,-790.6201,450.8964)"
           d="M 278 486.86218 A 13.5 13.5 0 1 1  251,486.86218 A 13.5 13.5 0 1 1  278 486.86218 z"
           sodipodi:ry="13.5"
           sodipodi:rx="13.5"
           sodipodi:cy="486.86218"
           sodipodi:cx="264.5"
           id="path5063"
           style="opacity:0.5;fill:url(#radialGradient5071);fill-opacity:1;stroke:none;stroke-width:1;stroke-linejoin:bevel;stroke-miterlimit:4;stroke-dasharray:none;stroke-dashoffset:0;stroke-opacity:1"
           sodipodi:type="arc" />
        <path
           transform="matrix(1.148149,0,0,1.5,174.6296,80.3622)"
           d="M 16 -13 A 27 13 0 1 1  -38,-13 A 27 13 0 1 1  16 -13 z"
           sodipodi:ry="13"
           sodipodi:rx="27"
           sodipodi:cy="-13"
           sodipodi:cx="-11"
           id="path5065"
           style="opacity:0.81102361;fill:url(#linearGradient5073);fill-opacity:1;stroke:none;stroke-width:1;stroke-linejoin:bevel;stroke-miterlimit:4;stroke-dasharray:none;stroke-dashoffset:0;stroke-opacity:1"
           sodipodi:type="arc" />
      </g>
    </g>
  </g>
</svg>
