<?xml version="1.0" encoding="UTF-8" standalone="no"?>
<!-- Created with Inkscape (http://www.inkscape.org/) -->
<svg
   xmlns:dc="http://purl.org/dc/elements/1.1/"
   xmlns:cc="http://creativecommons.org/ns#"
   xmlns:rdf="http://www.w3.org/1999/02/22-rdf-syntax-ns#"
   xmlns:svg="http://www.w3.org/2000/svg"
   xmlns="http://www.w3.org/2000/svg"
   xmlns:sodipodi="http://sodipodi.sourceforge.net/DTD/sodipodi-0.dtd"
   xmlns:inkscape="http://www.inkscape.org/namespaces/inkscape"
   width="360"
   height="200"
   id="svg2"
   sodipodi:version="0.32"
   inkscape:version="0.45+devel"
   sodipodi:docname="poloshirt.svg"
   inkscape:output_extension="org.inkscape.output.svg.inkscape"
   version="1.0">
  <defs
     id="defs4">
    <inkscape:perspective
       sodipodi:type="inkscape:persp3d"
       inkscape:vp_x="-50 : 600 : 1"
       inkscape:vp_y="0 : 1000 : 0"
       inkscape:vp_z="700 : 600 : 1"
       inkscape:persp3d-origin="300 : 400 : 1"
       id="perspective35" />
  </defs>
  <sodipodi:namedview
     id="base"
     pagecolor="#ffffff"
     bordercolor="#666666"
     borderopacity="1.0"
     gridtolerance="10000"
     guidetolerance="10"
     objecttolerance="10"
     inkscape:pageopacity="0.0"
     inkscape:pageshadow="2"
     inkscape:zoom="1"
     inkscape:cx="310.81206"
     inkscape:cy="147.88556"
     inkscape:document-units="px"
     inkscape:current-layer="layer1"
     showgrid="false"
     inkscape:window-width="899"
     inkscape:window-height="948"
     inkscape:window-x="775"
     inkscape:window-y="24"
     showguides="true"
     inkscape:guide-bbox="true">
    <inkscape:grid
       type="xygrid"
       id="grid3367"
       enabled="true"
       visible="true" />
  </sodipodi:namedview>
  <metadata
     id="metadata7">
    <rdf:RDF>
      <cc:Work
         rdf:about="">
        <dc:format>image/svg+xml</dc:format>
        <dc:type
           rdf:resource="http://purl.org/dc/dcmitype/StillImage" />
        <dc:title></dc:title>
        <dc:date></dc:date>
        <dc:creator>
          <cc:Agent>
            <dc:title></dc:title>
          </cc:Agent>
        </dc:creator>
        <dc:rights>
          <cc:Agent>
            <dc:title></dc:title>
          </cc:Agent>
        </dc:rights>
        <dc:publisher>
          <cc:Agent>
            <dc:title></dc:title>
          </cc:Agent>
        </dc:publisher>
        <dc:identifier></dc:identifier>
        <dc:source></dc:source>
        <dc:relation></dc:relation>
        <dc:language></dc:language>
        <dc:subject>
          <rdf:Bag />
        </dc:subject>
        <dc:coverage></dc:coverage>
        <dc:description></dc:description>
        <dc:contributor>
          <cc:Agent>
            <dc:title></dc:title>
          </cc:Agent>
        </dc:contributor>
        <cc:license
           rdf:resource="" />
      </cc:Work>
    </rdf:RDF>
  </metadata>
  <g
     inkscape:label="Layer 1"
     inkscape:groupmode="layer"
     id="layer1"
     transform="translate(-21.75,-11.09322)">
    <g
       id="g3327"
       transform="translate(-21.874997,-690.12578)">
      <path
         sodipodi:nodetypes="ccccccccccccc"
         id="path3292"
         d="M 126,724.61218 C 137.26193,726.12411 146.64389,725.75607 155.25,724.61218 L 160.5,731.86218 C 183.14389,740.44446 196.26552,739.50792 220.5,752.86218 C 217.38112,763.34796 216.79385,774.84639 207.5,782.86218 C 199.75,776.7742 192,778.06227 184.25,776.11218 L 184.25,864.36218 C 155.12214,869.66366 126.21302,871.02784 97.75,864.36218 L 97.75,776.11218 C 91.009209,776.86356 85.408118,776.31243 74.25,782.11218 C 65.874143,775.12674 63.259484,763.66036 60.75,752.11218 C 86.703947,740.44163 99.755167,738.85051 121,732.36218 L 126,724.61218 z"
         style="fill:#ffffff;fill-rule:evenodd;stroke:#000000;stroke-width:2;stroke-linecap:butt;stroke-linejoin:miter;stroke-miterlimit:4;stroke-dasharray:none;stroke-opacity:1" />
      <path
         sodipodi:nodetypes="cccc"
         id="path3296"
         d="M 125.5,725.61218 C 128.2397,733.67454 132.18291,740.29269 138.25,744.36218 L 131.25,752.11218 C 123.51719,746.17508 123.0785,739.42753 121,732.86218"
         style="fill:none;fill-rule:evenodd;stroke:#000000;stroke-width:1px;stroke-linecap:butt;stroke-linejoin:miter;stroke-opacity:1" />
      <path
         sodipodi:nodetypes="cc"
         id="path3298"
         d="M 98.5,739.36218 C 100.56102,750.40534 104.74287,764.18855 98.25,775.86218"
         style="fill:none;fill-rule:evenodd;stroke:#000000;stroke-width:1px;stroke-linecap:butt;stroke-linejoin:miter;stroke-opacity:1" />
      <path
         id="path3300"
         d="M 100,745.86218 L 122,738.36218"
         style="fill:none;fill-rule:evenodd;stroke:#000000;stroke-width:1px;stroke-linecap:butt;stroke-linejoin:miter;stroke-opacity:1" />
      <path
         sodipodi:nodetypes="cc"
         id="path3302"
         d="M 64.75,751.0041 C 66.179,762.49529 71.724195,771.65442 77.75,779.86218"
         style="fill:none;fill-rule:evenodd;stroke:#000000;stroke-width:1px;stroke-linecap:butt;stroke-linejoin:miter;stroke-opacity:1" />
      <path
         sodipodi:nodetypes="cc"
         id="path3304"
         d="M 97.75,860.86218 C 126.5,864.96002 155.25,866.699 184,860.86218"
         style="fill:none;fill-rule:evenodd;stroke:#000000;stroke-width:1px;stroke-linecap:butt;stroke-linejoin:miter;stroke-opacity:1" />
      <path
         style="fill:none;fill-rule:evenodd;stroke:#000000;stroke-width:1px;stroke-linecap:butt;stroke-linejoin:miter;stroke-opacity:1"
         d="M 155.5,725.11218 C 152.7603,733.17454 148.81709,739.79269 142.75,743.86218 L 149.75,751.61218 C 157.48281,745.67508 157.9215,738.92753 160,732.36218"
         id="path3314"
         sodipodi:nodetypes="cccc" />
      <path
         style="fill:none;fill-rule:evenodd;stroke:#000000;stroke-width:1px;stroke-linecap:butt;stroke-linejoin:miter;stroke-opacity:1"
         d="M 183.5,739.11218 C 181.43898,750.15534 177.25713,763.93855 183.75,775.61218"
         id="path3316"
         sodipodi:nodetypes="cc" />
      <path
         sodipodi:nodetypes="cc"
         style="fill:none;fill-rule:evenodd;stroke:#000000;stroke-width:1px;stroke-linecap:butt;stroke-linejoin:miter;stroke-opacity:1"
         d="M 182,745.86218 L 158.5,737.86218"
         id="path3318" />
      <path
         style="fill:none;fill-rule:evenodd;stroke:#000000;stroke-width:1px;stroke-linecap:butt;stroke-linejoin:miter;stroke-opacity:1"
         d="M 216.5,751.36218 C 215.071,762.85337 209.5258,771.40442 203.5,779.61218"
         id="path3320"
         sodipodi:nodetypes="cc" />
      <path
         sodipodi:nodetypes="cc"
         id="path3322"
         d="M 128.75,733.36218 C 136.15371,731.04738 143.68557,731.37337 151.75,733.36218"
         style="fill:none;fill-rule:evenodd;stroke:#000000;stroke-width:1px;stroke-linecap:butt;stroke-linejoin:miter;stroke-opacity:1" />
      <path
         id="rect3324"
         d="M 138.5,744.11218 L 142.25,744.11218 L 142.25,767.36218 L 138.5,767.36218 L 138.5,744.11218 z"
         style="fill:none;fill-opacity:0.71320753;stroke:#000000;stroke-width:1;stroke-linecap:round;stroke-miterlimit:4;stroke-opacity:1" />
    </g>
    <g
       transform="translate(144.125,-690.12578)"
       id="g3341">
      <path
         style="fill:#ffffff;fill-rule:evenodd;stroke:#000000;stroke-width:2;stroke-linecap:butt;stroke-linejoin:miter;stroke-miterlimit:4;stroke-dasharray:none;stroke-opacity:1"
         d="M 126,724.61218 C 137.26193,726.12411 146.64389,725.75607 155.25,724.61218 L 160.5,731.86218 C 183.14389,740.44446 196.26552,739.50792 220.5,752.86218 C 217.38112,763.34796 216.79385,774.84639 207.5,782.86218 C 199.75,776.7742 192,778.06227 184.25,776.11218 L 184.25,864.36218 C 155.12214,869.66366 126.21302,871.02784 97.75,864.36218 L 97.75,776.11218 C 91.009209,776.86356 85.408118,776.31243 74.25,782.11218 C 65.874143,775.12674 63.259484,763.66036 60.75,752.11218 C 86.703947,740.44163 99.755167,738.85051 121,732.36218 L 126,724.61218 z"
         id="path3343"
         sodipodi:nodetypes="ccccccccccccc" />
      <path
         style="fill:none;fill-rule:evenodd;stroke:#000000;stroke-width:1px;stroke-linecap:butt;stroke-linejoin:miter;stroke-opacity:1"
         d="M 98.5,739.36218 C 100.56102,750.40534 104.74287,764.18855 98.25,775.86218"
         id="path3347"
         sodipodi:nodetypes="cc" />
      <path
         style="fill:none;fill-rule:evenodd;stroke:#000000;stroke-width:1px;stroke-linecap:butt;stroke-linejoin:miter;stroke-opacity:1"
         d="M 64.547306,750.8014 C 65.976306,762.29259 71.724195,771.65442 77.75,779.86218"
         id="path3351"
         sodipodi:nodetypes="cc" />
      <path
         style="fill:none;fill-rule:evenodd;stroke:#000000;stroke-width:1px;stroke-linecap:butt;stroke-linejoin:miter;stroke-opacity:1"
         d="M 97.75,860.86218 C 126.5,864.96002 155.25,866.699 184,860.86218"
         id="path3353"
         sodipodi:nodetypes="cc" />
      <path
         sodipodi:nodetypes="cc"
         id="path3357"
         d="M 183.5,739.11218 C 181.43898,750.15534 177.25713,763.93855 183.75,775.61218"
         style="fill:none;fill-rule:evenodd;stroke:#000000;stroke-width:1px;stroke-linecap:butt;stroke-linejoin:miter;stroke-opacity:1" />
      <path
         sodipodi:nodetypes="cc"
         id="path3361"
         d="M 216.5,751.36218 C 215.071,762.85337 209.5258,771.40442 203.5,779.61218"
         style="fill:none;fill-rule:evenodd;stroke:#000000;stroke-width:1px;stroke-linecap:butt;stroke-linejoin:miter;stroke-opacity:1" />
      <path
         style="fill:none;fill-rule:evenodd;stroke:#000000;stroke-width:1px;stroke-linecap:butt;stroke-linejoin:miter;stroke-opacity:1"
         d="M 121.6557,732.96219 C 125.931,738.57924 153.32164,739.73207 160.26316,732.15141"
         id="path3363"
         sodipodi:nodetypes="cc" />
    </g>
    <path
       style="font-size:14px;font-style:normal;font-weight:normal;fill:#000000;fill-opacity:1;stroke:none;stroke-width:1px;stroke-linecap:butt;stroke-linejoin:miter;stroke-opacity:1;font-family:Bitstream Vera Sans"
       d="M 170.88356,29.781708 L 170.88356,33.616669 L 172.61989,33.616669 C 173.26246,33.616674 173.75921,33.450333 174.11012,33.117645 C 174.46103,32.784969 174.63648,32.311011 174.63649,31.69577 C 174.63648,31.085101 174.46103,30.613422 174.11012,30.280731 C 173.75921,29.948058 173.26246,29.781717 172.61989,29.781708 L 170.88356,29.781708 M 169.5027,28.646942 L 172.61989,28.646942 C 173.76376,28.646952 174.62737,28.906718 175.21071,29.426239 C 175.79859,29.941222 176.09254,30.697732 176.09254,31.69577 C 176.09254,32.702938 175.79859,33.464005 175.21071,33.978973 C 174.62737,34.493952 173.76376,34.751438 172.61989,34.751434 L 170.88356,34.751434 L 170.88356,38.852997 L 169.5027,38.852997 L 169.5027,28.646942 M 180.37184,32.078583 C 179.69736,32.07859 179.16416,32.342912 178.77223,32.871552 C 178.3803,33.395646 178.18434,34.115697 178.18434,35.031708 C 178.18434,35.947726 178.37802,36.670056 178.7654,37.1987 C 179.15732,37.72279 179.6928,37.984834 180.37184,37.984833 C 181.04176,37.984834 181.57268,37.720511 181.96461,37.191864 C 182.35654,36.66322 182.5525,35.943169 182.55251,35.031708 C 182.5525,34.124811 182.35654,33.407039 181.96461,32.878387 C 181.57268,32.345191 181.04176,32.07859 180.37184,32.078583 M 180.37184,31.012177 C 181.46559,31.012184 182.32463,31.367653 182.94899,32.078583 C 183.57333,32.789526 183.88551,33.7739 183.88551,35.031708 C 183.88551,36.284966 183.57333,37.26934 182.94899,37.984833 C 182.32463,38.69577 181.46559,39.051239 180.37184,39.051239 C 179.27353,39.051239 178.4122,38.69577 177.78786,37.984833 C 177.16806,37.26934 176.85817,36.284966 176.85817,35.031708 C 176.85817,33.7739 177.16806,32.789526 177.78786,32.078583 C 178.4122,31.367653 179.27353,31.012184 180.37184,31.012177 M 185.96364,28.216278 L 187.22145,28.216278 L 187.22145,38.852997 L 185.96364,38.852997 L 185.96364,28.216278 M 192.81325,32.078583 C 192.13876,32.07859 191.60556,32.342912 191.21364,32.871552 C 190.82171,33.395646 190.62575,34.115697 190.62575,35.031708 C 190.62575,35.947726 190.81943,36.670056 191.2068,37.1987 C 191.59873,37.72279 192.13421,37.984834 192.81325,37.984833 C 193.48316,37.984834 194.01409,37.720511 194.40602,37.191864 C 194.79794,36.66322 194.99391,35.943169 194.99391,35.031708 C 194.99391,34.124811 194.79794,33.407039 194.40602,32.878387 C 194.01409,32.345191 193.48316,32.07859 192.81325,32.078583 M 192.81325,31.012177 C 193.90699,31.012184 194.76604,31.367653 195.3904,32.078583 C 196.01474,32.789526 196.32691,33.7739 196.32692,35.031708 C 196.32691,36.284966 196.01474,37.26934 195.3904,37.984833 C 194.76604,38.69577 193.90699,39.051239 192.81325,39.051239 C 191.71494,39.051239 190.85361,38.69577 190.22926,37.984833 C 189.60947,37.26934 189.29958,36.284966 189.29958,35.031708 C 189.29958,33.7739 189.60947,32.789526 190.22926,32.078583 C 190.85361,31.367653 191.71494,31.012184 192.81325,31.012177 M 209.03493,28.981903 L 209.03493,30.328583 C 208.51083,30.07794 208.01637,29.891092 207.55153,29.768036 C 207.08668,29.644998 206.63779,29.583475 206.20485,29.583466 C 205.45289,29.583475 204.87184,29.729308 204.46169,30.020966 C 204.05608,30.312641 203.85328,30.727354 203.85329,31.265106 C 203.85328,31.716285 203.98772,32.058082 204.25661,32.290497 C 204.53004,32.518368 205.04502,32.702938 205.80153,32.844208 L 206.63551,33.015106 C 207.66546,33.211075 208.42424,33.557429 208.91188,34.054169 C 209.40406,34.546361 209.65015,35.207167 209.65016,36.036591 C 209.65015,37.025525 209.31747,37.775198 208.65211,38.285614 C 207.9913,38.796031 207.0206,39.051239 205.74001,39.051239 C 205.25693,39.051239 204.74196,38.996551 204.19508,38.887177 C 203.65276,38.777802 203.08994,38.616018 202.50661,38.401825 L 202.50661,36.97995 C 203.06715,37.294405 203.61631,37.531384 204.15407,37.690887 C 204.69183,37.850394 205.22047,37.930146 205.74001,37.930145 C 206.52841,37.930146 207.13681,37.775198 207.5652,37.465302 C 207.99358,37.155407 208.20777,36.713351 208.20778,36.13913 C 208.20777,35.637831 208.05282,35.245904 207.74294,34.963348 C 207.43759,34.6808 206.93401,34.468887 206.23219,34.327606 L 205.39137,34.163544 C 204.36142,33.95847 203.61631,33.637182 203.15602,33.199677 C 202.69573,32.762183 202.46559,32.153785 202.46559,31.374481 C 202.46559,30.472146 202.78232,29.761209 203.41579,29.241669 C 204.05381,28.722148 204.93108,28.462382 206.04762,28.462372 C 206.52613,28.462382 207.01376,28.505676 207.51051,28.592255 C 208.00725,28.678853 208.51539,28.808736 209.03493,28.981903 M 218.1404,34.231903 L 218.1404,38.852997 L 216.88258,38.852997 L 216.88258,34.272919 C 216.88258,33.548315 216.7413,33.005997 216.45876,32.645966 C 216.1762,32.285946 215.75237,32.105933 215.18727,32.105927 C 214.50823,32.105933 213.97275,32.322404 213.58083,32.755341 C 213.1889,33.188289 212.99293,33.778458 212.99294,34.525848 L 212.99294,38.852997 L 211.72829,38.852997 L 211.72829,28.216278 L 212.99294,28.216278 L 212.99294,32.3862 C 213.29371,31.92592 213.6469,31.581845 214.05251,31.353973 C 214.46266,31.126117 214.93434,31.012184 215.46754,31.012177 C 216.3471,31.012184 217.01246,31.285622 217.46364,31.832489 C 217.9148,32.374813 218.14039,33.174617 218.1404,34.231903 M 220.66286,31.196747 L 221.92067,31.196747 L 221.92067,38.852997 L 220.66286,38.852997 L 220.66286,31.196747 M 220.66286,28.216278 L 221.92067,28.216278 L 221.92067,29.809052 L 220.66286,29.809052 L 220.66286,28.216278 M 228.98219,32.372528 C 228.84091,32.290503 228.68596,32.231259 228.51735,32.194794 C 228.35328,32.153785 228.17099,32.133277 227.97047,32.13327 C 227.25953,32.133277 226.71266,32.365699 226.32985,32.830536 C 225.95159,33.290828 225.76246,33.953913 225.76247,34.819794 L 225.76247,38.852997 L 224.49782,38.852997 L 224.49782,31.196747 L 225.76247,31.196747 L 225.76247,32.3862 C 226.02679,31.921363 226.37086,31.577288 226.79469,31.353973 C 227.21852,31.126117 227.73349,31.012184 228.33961,31.012177 C 228.4262,31.012184 228.5219,31.01902 228.62672,31.032684 C 228.73154,31.041807 228.84775,31.057757 228.97536,31.080536 L 228.98219,32.372528 M 231.55934,29.022919 L 231.55934,31.196747 L 234.15016,31.196747 L 234.15016,32.174286 L 231.55934,32.174286 L 231.55934,36.330536 C 231.55934,36.954887 231.64365,37.355928 231.81227,37.533661 C 231.98545,37.711396 232.33408,37.800264 232.85817,37.800262 L 234.15016,37.800262 L 234.15016,38.852997 L 232.85817,38.852997 C 231.88746,38.852997 231.21754,38.672984 230.8484,38.312958 C 230.47926,37.948375 230.29469,37.287569 230.29469,36.330536 L 230.29469,32.174286 L 229.37184,32.174286 L 229.37184,31.196747 L 230.29469,31.196747 L 230.29469,29.022919 L 231.55934,29.022919"
       id="text3459" />
    <path
       style="font-size:12px;font-style:normal;font-variant:normal;font-weight:normal;font-stretch:normal;fill:#000000;fill-opacity:1;stroke:none;stroke-width:1px;stroke-linecap:butt;stroke-linejoin:miter;stroke-opacity:1;font-family:Liberation Sans;-inkscape-font-specification:Liberation Sans"
       d="M 106.54204,186.51118 L 106.54204,189.5815 L 111.14751,189.5815 L 111.14751,190.50728 L 106.54204,190.50728 L 106.54204,193.85298 L 105.4229,193.85298 L 105.4229,185.59712 L 111.28813,185.59712 L 111.28813,186.51118 L 106.54204,186.51118 M 112.60649,193.85298 L 112.60649,188.9897 C 112.60649,188.85689 112.60454,188.72213 112.60063,188.5854 C 112.60063,188.44478 112.59868,188.31002 112.59477,188.18111 C 112.59087,188.05221 112.58696,187.93111 112.58305,187.81783 C 112.57915,187.70455 112.57524,187.60299 112.57133,187.51314 L 113.56743,187.51314 C 113.57133,187.60299 113.57524,187.7065 113.57915,187.82368 C 113.58696,187.93697 113.59282,188.05416 113.59673,188.17525 C 113.60454,188.29635 113.60844,188.41353 113.60844,188.52681 C 113.61235,188.63619 113.6143,188.72994 113.6143,188.80806 L 113.63774,188.80806 C 113.71196,188.56588 113.79008,188.35689 113.87212,188.18111 C 113.95805,188.00142 114.05766,187.85494 114.17094,187.74165 C 114.28422,187.62447 114.41899,187.53853 114.57524,187.48384 C 114.73149,187.42525 114.92094,187.39596 115.1436,187.39595 C 115.22953,187.39596 115.31157,187.40377 115.38969,187.41939 C 115.46782,187.43111 115.52836,187.44283 115.57133,187.45454 L 115.57133,188.42134 C 115.50102,188.40182 115.41899,188.38814 115.32524,188.38033 C 115.23149,188.36861 115.12602,188.36275 115.00883,188.36275 C 114.76664,188.36275 114.55961,188.41744 114.38774,188.52681 C 114.21977,188.63619 114.0811,188.78853 113.97173,188.98384 C 113.86625,189.17525 113.78813,189.40572 113.73735,189.67525 C 113.68657,189.94088 113.66118,190.23189 113.66118,190.54829 L 113.66118,193.85298 L 112.60649,193.85298 M 121.95219,190.6772 C 121.95219,191.78658 121.70805,192.61275 121.21977,193.15572 C 120.73149,193.69868 120.0225,193.97017 119.09282,193.97017 C 118.65141,193.97017 118.25688,193.90376 117.90923,193.77095 C 117.56157,193.63814 117.26665,193.43501 117.02446,193.16158 C 116.78618,192.88814 116.60258,192.54634 116.47368,192.13618 C 116.34868,191.72212 116.28618,191.2358 116.28618,190.6772 C 116.28618,188.48971 117.23344,187.39596 119.12798,187.39595 C 119.62016,187.39596 120.04399,187.46432 120.39946,187.60103 C 120.75883,187.73775 121.0518,187.94283 121.27837,188.21626 C 121.50883,188.48971 121.67875,188.8315 121.78813,189.24165 C 121.8975,189.65181 121.95219,190.13033 121.95219,190.6772 M 120.84477,190.6772 C 120.84477,190.18502 120.8057,189.77877 120.72758,189.45845 C 120.65336,189.13814 120.54203,188.88228 120.3936,188.69087 C 120.24906,188.49947 120.07133,188.36666 119.8604,188.29243 C 119.64946,188.21432 119.41117,188.17525 119.14555,188.17525 C 118.87602,188.17525 118.63188,188.21627 118.41313,188.29829 C 118.19829,188.37642 118.01469,188.51314 117.86235,188.70845 C 117.71,188.89986 117.59282,189.15572 117.51079,189.47603 C 117.43266,189.79634 117.3936,190.19674 117.3936,190.6772 C 117.3936,191.16939 117.43657,191.57759 117.52251,191.90181 C 117.60844,192.22212 117.72563,192.47798 117.87407,192.66939 C 118.02641,192.8608 118.20414,192.99556 118.40727,193.07368 C 118.6143,193.15181 118.83891,193.19087 119.0811,193.19087 C 119.35063,193.19087 119.59477,193.15376 119.81352,193.07954 C 120.03227,193.00142 120.21781,192.86665 120.37016,192.67525 C 120.5225,192.48384 120.63969,192.22603 120.72173,191.90181 C 120.80375,191.57759 120.84477,191.16939 120.84477,190.6772 M 127.29594,193.85298 L 127.29594,189.83345 C 127.29594,189.52486 127.2725,189.26705 127.22563,189.06001 C 127.18266,188.85299 127.11039,188.68697 127.00883,188.56197 C 126.90727,188.43307 126.7725,188.34322 126.60454,188.29243 C 126.44047,188.23775 126.23539,188.21041 125.9893,188.2104 C 125.7393,188.21041 125.51274,188.25533 125.30962,188.34517 C 125.11039,188.43111 124.93852,188.55806 124.79399,188.72603 C 124.65336,188.8901 124.54399,189.09517 124.46587,189.34126 C 124.38774,189.58345 124.34868,189.86275 124.34868,190.17915 L 124.34868,193.85298 L 123.29399,193.85298 L 123.29399,188.86665 C 123.29399,188.73385 123.29204,188.59517 123.28813,188.45064 C 123.28813,188.30221 123.28618,188.16353 123.28227,188.03462 C 123.27837,187.90182 123.27446,187.78853 123.27055,187.69478 C 123.26665,187.60103 123.26274,187.54049 123.25883,187.51314 L 124.25493,187.51314 C 124.25883,187.53268 124.26274,187.58541 124.26665,187.67134 C 124.27055,187.75728 124.27446,187.85689 124.27837,187.97017 C 124.28618,188.07955 124.29204,188.19283 124.29594,188.31001 C 124.29985,188.4233 124.3018,188.519 124.3018,188.59712 L 124.31938,188.59712 C 124.42094,188.41353 124.53227,188.24752 124.65337,188.09908 C 124.77446,187.95064 124.91508,187.82564 125.07524,187.72408 C 125.23539,187.61861 125.41899,187.53853 125.62602,187.48384 C 125.83305,187.42525 126.07328,187.39596 126.34673,187.39595 C 126.69828,187.39596 127.00102,187.43893 127.25493,187.52486 C 127.50883,187.6108 127.71781,187.74361 127.88188,187.92329 C 128.04594,188.10299 128.16508,188.33541 128.2393,188.62056 C 128.31742,188.90181 128.35649,189.23775 128.35649,189.62837 L 128.35649,193.85298 L 127.29594,193.85298 M 132.38774,193.80611 C 132.22758,193.84908 132.06352,193.88228 131.89555,193.90572 C 131.73149,193.93306 131.54008,193.94673 131.32133,193.94673 C 130.47758,193.94673 130.05571,193.46822 130.05571,192.51118 L 130.05571,188.28072 L 129.32329,188.28072 L 129.32329,187.51314 L 130.09673,187.51314 L 130.40727,186.09517 L 131.1104,186.09517 L 131.1104,187.51314 L 132.28227,187.51314 L 132.28227,188.28072 L 131.1104,188.28072 L 131.1104,192.28267 C 131.1104,192.58736 131.15922,192.8022 131.25688,192.9272 C 131.35844,193.04829 131.53227,193.10884 131.77837,193.10884 C 131.87993,193.10884 131.97758,193.10103 132.07133,193.0854 C 132.16899,193.06978 132.27446,193.05025 132.38774,193.02681 L 132.38774,193.80611"
       id="text3471" />
    <path
       style="font-size:12px;font-style:normal;font-variant:normal;font-weight:normal;font-stretch:normal;fill:#000000;fill-opacity:1;stroke:none;stroke-width:1px;stroke-linecap:butt;stroke-linejoin:miter;stroke-opacity:1;font-family:Liberation Sans;-inkscape-font-specification:Liberation Sans"
       d="M 278.76236,191.52681 C 278.76235,191.94478 278.68032,192.3022 278.51627,192.59908 C 278.3522,192.89205 278.13149,193.13228 277.85416,193.31978 C 277.57681,193.50337 277.25454,193.63814 276.88736,193.72408 C 276.52017,193.81001 276.13345,193.85298 275.7272,193.85298 L 272.37564,193.85298 L 272.37564,185.59712 L 275.37564,185.59712 C 275.83267,185.59713 276.24087,185.63619 276.60025,185.71431 C 276.95962,185.78854 277.26431,185.90768 277.51431,186.07173 C 277.76431,186.2358 277.95376,186.44479 278.08267,186.69868 C 278.21548,186.94869 278.28188,187.24947 278.28189,187.60103 C 278.28188,187.8315 278.24868,188.0483 278.18228,188.25142 C 278.11977,188.45455 278.02212,188.6401 277.88931,188.80806 C 277.7604,188.97213 277.59634,189.11471 277.39713,189.23579 C 277.20181,189.35299 276.97329,189.44088 276.71158,189.49947 C 277.0436,189.53853 277.33657,189.6147 277.59048,189.72798 C 277.84829,189.84127 278.06313,189.9858 278.23502,190.16158 C 278.40688,190.33736 278.53774,190.54244 278.62759,190.77681 C 278.71743,191.00728 278.76235,191.25728 278.76236,191.52681 M 277.15689,187.73579 C 277.15689,187.29049 277.00454,186.97213 276.69986,186.78072 C 276.39517,186.58932 275.95376,186.49361 275.37564,186.49361 L 273.49478,186.49361 L 273.49478,189.10689 L 275.37564,189.10689 C 275.70376,189.10689 275.98111,189.07564 276.20767,189.01314 C 276.43423,188.94674 276.61782,188.85494 276.75845,188.73775 C 276.89907,188.61666 277.00064,188.47213 277.06314,188.30415 C 277.12564,188.13619 277.15689,187.94674 277.15689,187.73579 M 277.6315,191.43892 C 277.63149,191.1772 277.58267,190.95455 277.48502,190.77095 C 277.39126,190.58736 277.25454,190.43697 277.07486,190.31978 C 276.89517,190.20259 276.67837,190.11666 276.42447,190.06197 C 276.17446,190.00728 275.89321,189.97994 275.58072,189.97993 L 273.49478,189.97993 L 273.49478,192.9565 L 275.66861,192.9565 C 275.95376,192.9565 276.21548,192.93306 276.45377,192.88618 C 276.69595,192.83931 276.90298,192.75728 277.07486,192.64009 C 277.25064,192.5229 277.38735,192.36665 277.48502,192.17134 C 277.58267,191.97603 277.63149,191.73189 277.6315,191.43892 M 281.80923,193.97017 C 281.17251,193.97017 280.694,193.8022 280.37369,193.46626 C 280.05337,193.13033 279.89322,192.66939 279.89322,192.08345 C 279.89322,191.66548 279.97134,191.32369 280.12759,191.05806 C 280.28775,190.78853 280.49478,190.57759 280.74869,190.42525 C 281.0065,190.27291 281.29947,190.16744 281.62759,190.10884 C 281.95572,190.05025 282.2897,190.01705 282.62955,190.00923 L 284.05338,189.98579 L 284.05338,189.64009 C 284.05337,189.37838 284.02603,189.15572 283.97134,188.97212 C 283.91665,188.78853 283.83267,188.6401 283.71939,188.52681 C 283.60611,188.41353 283.46353,188.3315 283.29166,188.28072 C 283.12368,188.22603 282.92447,188.19869 282.694,188.19868 C 282.49087,188.19869 282.30728,188.21432 282.14322,188.24556 C 281.97915,188.27291 281.83658,188.32564 281.71548,188.40376 C 281.59439,188.47799 281.49673,188.5815 281.42252,188.71431 C 281.3483,188.84322 281.29947,189.00728 281.27603,189.2065 L 280.17447,189.10689 C 280.21353,188.85689 280.28775,188.62838 280.39713,188.42134 C 280.5065,188.21041 280.6608,188.02877 280.86002,187.87642 C 281.06314,187.72408 281.31509,187.60689 281.61588,187.52486 C 281.92056,187.43893 282.28775,187.39596 282.71744,187.39595 C 283.51431,187.39596 284.11392,187.57955 284.51627,187.94673 C 284.9186,188.31002 285.11978,188.83736 285.11978,189.52876 L 285.11978,192.25923 C 285.11978,192.57173 285.16079,192.80806 285.24283,192.96822 C 285.32485,193.12447 285.4811,193.20259 285.71158,193.20259 C 285.77017,193.20259 285.82876,193.19869 285.88736,193.19087 C 285.94595,193.18306 286.00259,193.17329 286.05728,193.16158 L 286.05728,193.81783 C 285.92446,193.84908 285.79165,193.87251 285.65884,193.88814 C 285.52993,193.90376 285.39126,193.91158 285.24283,193.91158 C 285.0436,193.91158 284.87173,193.88618 284.7272,193.8354 C 284.58657,193.78072 284.47134,193.70064 284.3815,193.59517 C 284.29165,193.48579 284.22329,193.35298 284.17642,193.19673 C 284.12954,193.03658 284.10025,192.85103 284.08853,192.64009 L 284.05338,192.64009 C 283.94009,192.84322 283.81509,193.02681 283.67838,193.19087 C 283.54556,193.35494 283.38931,193.49556 283.20963,193.61275 C 283.02993,193.72603 282.82486,193.81392 282.59439,193.87642 C 282.36783,193.93892 282.10611,193.97017 281.80923,193.97017 M 282.04947,193.17915 C 282.3854,193.17915 282.67837,193.11861 282.92838,192.99751 C 283.18228,192.87251 283.39126,192.71431 283.55533,192.5229 C 283.72329,192.3315 283.84829,192.12251 283.93033,191.89595 C 284.01235,191.66939 284.05337,191.45259 284.05338,191.24556 L 284.05338,190.72408 L 282.89908,190.74751 C 282.64126,190.75142 282.39517,190.77095 282.1608,190.80611 C 281.93033,190.83736 281.7272,190.90181 281.55142,190.99947 C 281.37564,191.09712 281.23501,191.23384 281.12955,191.40962 C 281.02798,191.58541 280.9772,191.81587 280.9772,192.10103 C 280.9772,192.44478 281.069,192.7104 281.25259,192.8979 C 281.44009,193.0854 281.70572,193.17915 282.04947,193.17915 M 287.67447,190.65376 C 287.67447,191.01705 287.69986,191.35103 287.75064,191.65572 C 287.80533,191.96041 287.89517,192.22408 288.02017,192.44673 C 288.14517,192.66548 288.30923,192.8354 288.51236,192.9565 C 288.71939,193.07759 288.97329,193.13814 289.27408,193.13814 C 289.64907,193.13814 289.96157,193.03658 290.21158,192.83345 C 290.46548,192.63033 290.62173,192.31783 290.68033,191.89595 L 291.74673,191.96626 C 291.71157,192.22798 291.6354,192.47994 291.51822,192.72212 C 291.40103,192.96431 291.24087,193.1772 291.03775,193.36079 C 290.83853,193.54439 290.59439,193.69283 290.30533,193.80611 C 290.01626,193.91548 289.68228,193.97017 289.30338,193.97017 C 288.80728,193.97017 288.3854,193.88618 288.03775,193.71822 C 287.69009,193.55025 287.40689,193.31978 287.18814,193.02681 C 286.9733,192.72994 286.81705,192.38228 286.71939,191.98384 C 286.62173,191.5815 286.57291,191.14595 286.57291,190.6772 C 286.57291,190.25142 286.60806,189.87642 286.67838,189.5522 C 286.74869,189.22408 286.84634,188.93892 286.97134,188.69673 C 287.10025,188.45064 287.25064,188.24557 287.42252,188.0815 C 287.59439,187.91353 287.77994,187.78072 287.97916,187.68306 C 288.18228,187.5815 288.39517,187.50924 288.61783,187.46626 C 288.84048,187.41939 289.06509,187.39596 289.29166,187.39595 C 289.64712,187.39596 289.96353,187.44478 290.24088,187.54243 C 290.51821,187.6401 290.7565,187.77486 290.95572,187.94673 C 291.15884,188.11471 291.3229,188.31392 291.44791,188.54439 C 291.5729,188.77486 291.66079,189.02291 291.71158,189.28853 L 290.62759,189.37056 C 290.5729,189.019 290.43423,188.73971 290.21158,188.53267 C 289.98892,188.32564 289.67251,188.22213 289.26236,188.22212 C 288.96158,188.22213 288.70962,188.27291 288.5065,188.37447 C 288.30728,188.47213 288.14517,188.62252 288.02017,188.82564 C 287.89517,189.02486 287.80533,189.27681 287.75064,189.5815 C 287.69986,189.88619 287.67447,190.24361 287.67447,190.65376 M 296.86783,193.85298 L 294.7233,190.95845 L 293.94986,191.59712 L 293.94986,193.85298 L 292.89517,193.85298 L 292.89517,185.15767 L 293.94986,185.15767 L 293.94986,190.58931 L 296.73306,187.51314 L 297.96939,187.51314 L 295.39713,190.23775 L 298.10416,193.85298 L 296.86783,193.85298"
       id="text3475" />
  </g>
</svg>
