<?xml version="1.0" encoding="UTF-8" standalone="no"?>
<!-- Created with Inkscape (http://www.inkscape.org/) -->
<svg
   xmlns:dc="http://purl.org/dc/elements/1.1/"
   xmlns:cc="http://creativecommons.org/ns#"
   xmlns:rdf="http://www.w3.org/1999/02/22-rdf-syntax-ns#"
   xmlns:svg="http://www.w3.org/2000/svg"
   xmlns="http://www.w3.org/2000/svg"
   xmlns:sodipodi="http://sodipodi.sourceforge.net/DTD/sodipodi-0.dtd"
   xmlns:inkscape="http://www.inkscape.org/namespaces/inkscape"
   width="360"
   height="200"
   id="svg2"
   sodipodi:version="0.32"
   inkscape:version="0.45+devel"
   sodipodi:docname="tshirt.svg"
   inkscape:output_extension="org.inkscape.output.svg.inkscape"
   version="1.0">
  <defs
     id="defs4" />
  <sodipodi:namedview
     id="base"
     pagecolor="#ffffff"
     bordercolor="#666666"
     borderopacity="1.0"
     gridtolerance="10000"
     guidetolerance="10"
     objecttolerance="10"
     inkscape:pageopacity="0.0"
     inkscape:pageshadow="2"
     inkscape:zoom="1"
     inkscape:cx="310.81206"
     inkscape:cy="147.88556"
     inkscape:document-units="px"
     inkscape:current-layer="layer1"
     showgrid="false"
     inkscape:window-width="899"
     inkscape:window-height="948"
     inkscape:window-x="775"
     inkscape:window-y="24"
     showguides="true"
     inkscape:guide-bbox="true">
    <inkscape:grid
       type="xygrid"
       id="grid3367"
       enabled="true"
       visible="true" />
  </sodipodi:namedview>
  <metadata
     id="metadata7">
    <rdf:RDF>
      <cc:Work
         rdf:about="">
        <dc:format>image/svg+xml</dc:format>
        <dc:type
           rdf:resource="http://purl.org/dc/dcmitype/StillImage" />
        <dc:title></dc:title>
        <dc:date></dc:date>
        <dc:creator>
          <cc:Agent>
            <dc:title></dc:title>
          </cc:Agent>
        </dc:creator>
        <dc:rights>
          <cc:Agent>
            <dc:title></dc:title>
          </cc:Agent>
        </dc:rights>
        <dc:publisher>
          <cc:Agent>
            <dc:title></dc:title>
          </cc:Agent>
        </dc:publisher>
        <dc:identifier></dc:identifier>
        <dc:source></dc:source>
        <dc:relation></dc:relation>
        <dc:language></dc:language>
        <dc:subject>
          <rdf:Bag />
        </dc:subject>
        <dc:coverage></dc:coverage>
        <dc:description></dc:description>
        <dc:contributor>
          <cc:Agent>
            <dc:title></dc:title>
          </cc:Agent>
        </dc:contributor>
        <cc:license
           rdf:resource="" />
      </cc:Work>
    </rdf:RDF>
  </metadata>
  <g
     inkscape:label="Layer 1"
     inkscape:groupmode="layer"
     id="layer1"
     transform="translate(-21.75,-11.09322)">
    <g
       id="g3219"
       transform="translate(-28.569025,-500.62579)"
       style="stroke:#000000">
      <path
         sodipodi:nodetypes="ccccccccccc"
         id="path2427"
         d="M 67.613793,570.41735 C 92.081868,557.31693 112.96983,558.64283 133.65517,547.35529 C 144.75154,549.78633 153.01217,548.81449 160.64828,547.09322 C 184.0769,557.87959 204.67653,559.60901 226.68966,570.67942 C 224.86002,582.23888 220.8308,592.2272 214.11034,600.29322 C 205.95673,595.92328 198.24205,594.1869 190.78621,594.00356 L 190.26207,672.62425 C 158.14057,678.60698 130.91491,676.022 104.30345,672.36218 L 104.04138,594.26563 C 94.670701,593.99343 87.540944,597.4561 80.193103,600.55529 C 73.125888,590.9199 69.824253,580.74656 67.613793,570.41735 z"
         style="fill:#ffffff;fill-rule:evenodd;stroke:#000000;stroke-width:2;stroke-linecap:butt;stroke-linejoin:miter;stroke-miterlimit:4;stroke-dasharray:none;stroke-opacity:1" />
      <path
         sodipodi:nodetypes="cc"
         id="path3199"
         d="M 71.282759,569.10701 C 73.497437,579.85552 77.366255,589.89387 84.910345,598.45873"
         style="fill:none;fill-rule:evenodd;stroke:#000000;stroke-width:1px;stroke-linecap:butt;stroke-linejoin:miter;stroke-opacity:1" />
      <path
         sodipodi:nodetypes="cc"
         id="path3203"
         d="M 105.35172,668.16908 C 133.48046,672.77351 161.60919,673.76203 189.73793,667.90701"
         style="fill:none;fill-rule:evenodd;stroke:#000000;stroke-width:1px;stroke-linecap:butt;stroke-linejoin:miter;stroke-opacity:1" />
      <path
         sodipodi:nodetypes="czc"
         id="path3205"
         d="M 133.3931,547.61736 C 133.16494,549.94206 135.08547,560.35018 147.28275,560.98287 C 159.21868,561.60201 161.55802,549.44684 161.17241,547.87942"
         style="fill:none;fill-rule:evenodd;stroke:#000000;stroke-width:1px;stroke-linecap:butt;stroke-linejoin:miter;stroke-opacity:1" />
      <path
         style="fill:none;fill-rule:evenodd;stroke:#000000;stroke-width:1px;stroke-linecap:butt;stroke-linejoin:miter;stroke-opacity:1"
         d="M 128.21194,550.41871 C 127.98378,552.74341 132.78618,565.53036 146.55676,565.88077 C 160.58924,566.23784 166.33548,551.19991 165.94987,549.63249"
         id="path3207"
         sodipodi:nodetypes="czc" />
      <path
         sodipodi:nodetypes="cc"
         id="path3209"
         d="M 134.52279,552.33459 C 143.06093,554.56783 150.60453,554.08878 159.84088,552.13274"
         style="fill:none;fill-rule:evenodd;stroke:#000000;stroke-width:1px;stroke-linecap:butt;stroke-linejoin:miter;stroke-opacity:1" />
      <path
         sodipodi:nodetypes="cc"
         id="path3213"
         d="M 104.16182,558.28077 C 106.73776,568.16616 110.99985,579.76968 103.89975,593.66008"
         style="fill:none;fill-rule:evenodd;stroke:#000000;stroke-width:1px;stroke-linecap:butt;stroke-linejoin:miter;stroke-opacity:1" />
      <path
         style="fill:none;fill-rule:evenodd;stroke:#000000;stroke-width:1px;stroke-linecap:butt;stroke-linejoin:miter;stroke-opacity:1"
         d="M 190.37521,558.48262 C 187.79927,568.36801 183.53718,579.97153 190.63728,593.86193"
         id="path3215"
         sodipodi:nodetypes="cc" />
      <path
         style="fill:none;fill-rule:evenodd;stroke:#000000;stroke-width:1px;stroke-linecap:butt;stroke-linejoin:miter;stroke-opacity:1"
         d="M 223.28276,568.84494 C 221.06808,579.59345 217.19926,589.6318 209.65517,598.19666"
         id="path3217"
         sodipodi:nodetypes="cc" />
    </g>
    <g
       transform="translate(137.76557,-500.62579)"
       id="g3272"
       style="stroke:#000000">
      <path
         style="fill:#ffffff;fill-rule:evenodd;stroke:#000000;stroke-width:2;stroke-linecap:butt;stroke-linejoin:miter;stroke-miterlimit:4;stroke-dasharray:none;stroke-opacity:1"
         d="M 67.613793,570.41735 C 92.081868,557.31693 112.96983,558.64283 133.65517,547.35529 C 144.75154,549.78633 153.01217,548.81449 160.64828,547.09322 C 184.0769,557.87959 204.67653,559.60901 226.68966,570.67942 C 224.86002,582.23888 220.8308,592.2272 214.11034,600.29322 C 205.95673,595.92328 198.24205,594.1869 190.78621,594.00356 L 190.26207,672.62425 C 158.14057,678.60698 130.91491,676.022 104.30345,672.36218 L 104.04138,594.26563 C 94.670701,593.99343 87.540944,597.4561 80.193103,600.55529 C 73.125888,590.9199 69.824253,580.74656 67.613793,570.41735 z"
         id="path3274"
         sodipodi:nodetypes="ccccccccccc" />
      <path
         style="fill:none;fill-rule:evenodd;stroke:#000000;stroke-width:1px;stroke-linecap:butt;stroke-linejoin:miter;stroke-opacity:1"
         d="M 71.282759,569.10701 C 73.497437,579.85552 77.366255,589.89387 84.910345,598.45873"
         id="path3276"
         sodipodi:nodetypes="cc" />
      <path
         style="fill:none;fill-rule:evenodd;stroke:#000000;stroke-width:1px;stroke-linecap:butt;stroke-linejoin:miter;stroke-opacity:1"
         d="M 105.35172,668.16908 C 133.48046,672.77351 161.60919,673.76203 189.73793,667.90701"
         id="path3278"
         sodipodi:nodetypes="cc" />
      <path
         style="fill:none;fill-rule:evenodd;stroke:#000000;stroke-width:1px;stroke-linecap:butt;stroke-linejoin:miter;stroke-opacity:1"
         d="M 128.66915,549.91239 C 136.6767,556.10373 156.57703,556.4878 165.29082,549.71055"
         id="path3284"
         sodipodi:nodetypes="cc" />
      <path
         style="fill:none;fill-rule:evenodd;stroke:#000000;stroke-width:1px;stroke-linecap:butt;stroke-linejoin:miter;stroke-opacity:1"
         d="M 104.16182,558.28077 C 106.73776,568.16616 110.99985,579.76968 103.89975,593.66008"
         id="path3286"
         sodipodi:nodetypes="cc" />
      <path
         sodipodi:nodetypes="cc"
         id="path3288"
         d="M 190.37521,558.48262 C 187.79927,568.36801 183.53718,579.97153 190.63728,593.86193"
         style="fill:none;fill-rule:evenodd;stroke:#000000;stroke-width:1px;stroke-linecap:butt;stroke-linejoin:miter;stroke-opacity:1" />
      <path
         sodipodi:nodetypes="cc"
         id="path3290"
         d="M 223.28276,568.84494 C 221.06808,579.59345 217.19926,589.6318 209.65517,598.19666"
         style="fill:none;fill-rule:evenodd;stroke:#000000;stroke-width:1px;stroke-linecap:butt;stroke-linejoin:miter;stroke-opacity:1" />
    </g>
    <path
       style="font-size:14px;font-style:normal;font-weight:normal;fill:#000000;fill-opacity:1;stroke:none;stroke-width:1px;stroke-linecap:butt;stroke-linejoin:miter;stroke-opacity:1;font-family:Bitstream Vera Sans"
       d="M 161.71524,32.146935 L 163.77286,32.146935 L 166.37735,39.092247 L 168.99551,32.146935 L 171.05313,32.146935 L 171.05313,42.352989 L 169.70645,42.352989 L 169.70645,33.391075 L 167.07462,40.391075 L 165.68692,40.391075 L 163.05508,33.391075 L 163.05508,42.352989 L 161.71524,42.352989 L 161.71524,32.146935 M 177.19864,38.504356 C 176.18236,38.50436 175.47826,38.620571 175.08633,38.852989 C 174.6944,39.085414 174.49844,39.481898 174.49844,40.042442 C 174.49844,40.489059 174.64427,40.844527 174.93594,41.108849 C 175.23216,41.368615 175.63321,41.498498 176.13907,41.498497 C 176.83633,41.498498 177.3946,41.252404 177.81387,40.760216 C 178.2377,40.263473 178.44961,39.604945 178.44962,38.78463 L 178.44962,38.504356 L 177.19864,38.504356 M 179.70743,37.984825 L 179.70743,42.352989 L 178.44962,42.352989 L 178.44962,41.19088 C 178.1625,41.655724 177.80475,41.999799 177.37637,42.223106 C 176.94798,42.441856 176.4239,42.551231 175.80411,42.551231 C 175.02025,42.551231 174.3959,42.332481 173.93106,41.894981 C 173.47077,41.452925 173.24063,40.862756 173.24063,40.124474 C 173.24063,39.263149 173.52774,38.613735 174.10196,38.176231 C 174.68073,37.738736 175.54206,37.519986 176.68594,37.519981 L 178.44962,37.519981 L 178.44962,37.396935 C 178.44961,36.818164 178.2582,36.37155 177.8754,36.057091 C 177.49714,35.738087 176.96393,35.578582 176.27579,35.578575 C 175.83828,35.578582 175.41218,35.630991 174.99747,35.735802 C 174.58275,35.840626 174.18399,35.997852 173.80118,36.207481 L 173.80118,35.045372 C 174.26146,34.867645 174.70808,34.735484 175.14102,34.648888 C 175.57396,34.55775 175.99551,34.512177 176.40567,34.512169 C 177.51309,34.512177 178.34023,34.799286 178.88712,35.373497 C 179.43398,35.947722 179.70742,36.818164 179.70743,37.984825 M 182.33243,31.71627 L 183.59024,31.71627 L 183.59024,42.352989 L 182.33243,42.352989 L 182.33243,31.71627 M 192.76407,38.210411 L 192.76407,38.825645 L 186.98087,38.825645 C 187.03555,39.691534 187.29532,40.35234 187.76016,40.808067 C 188.22956,41.25924 188.88125,41.484826 189.71524,41.484825 C 190.19831,41.484826 190.66543,41.425581 191.11661,41.307091 C 191.57233,41.188602 192.0235,41.010868 192.47012,40.773888 L 192.47012,41.963341 C 192.01894,42.154747 191.55638,42.30058 191.08243,42.400841 C 190.60846,42.501101 190.12767,42.551231 189.64005,42.551231 C 188.41869,42.551231 187.45026,42.195763 186.73477,41.484825 C 186.02383,40.773889 185.66836,39.812302 185.66837,38.60006 C 185.66836,37.346809 186.0056,36.353321 186.68008,35.619591 C 187.35912,34.881317 188.27285,34.512177 189.4213,34.512169 C 190.45124,34.512177 191.26471,34.844859 191.86172,35.510216 C 192.46328,36.171029 192.76406,37.071093 192.76407,38.210411 M 191.50626,37.84127 C 191.49713,37.153125 191.30345,36.603972 190.9252,36.19381 C 190.5515,35.78366 190.05475,35.578582 189.43497,35.578575 C 188.73314,35.578582 188.17032,35.776824 187.74649,36.173302 C 187.32722,36.569792 187.08568,37.12806 187.02188,37.848106 L 191.50626,37.84127 M 197.89786,32.146935 L 206.53165,32.146935 L 206.53165,33.309044 L 202.9086,33.309044 L 202.9086,42.352989 L 201.5209,42.352989 L 201.5209,33.309044 L 197.89786,33.309044 L 197.89786,32.146935 M 205.92325,37.957481 L 209.60782,37.957481 L 209.60782,39.078575 L 205.92325,39.078575 L 205.92325,37.957481 M 217.79044,32.481895 L 217.79044,33.828575 C 217.26634,33.577933 216.77187,33.391084 216.30704,33.268028 C 215.84219,33.144991 215.3933,33.083467 214.96036,33.083458 C 214.2084,33.083467 213.62735,33.2293 213.21719,33.520958 C 212.81159,33.812633 212.60879,34.227346 212.6088,34.765099 C 212.60879,35.216278 212.74323,35.558074 213.01212,35.790489 C 213.28555,36.01836 213.80052,36.20293 214.55704,36.3442 L 215.39102,36.515099 C 216.42096,36.711068 217.17975,37.057422 217.66739,37.554161 C 218.15957,38.046353 218.40566,38.70716 218.40567,39.536583 C 218.40566,40.525517 218.07298,41.275191 217.40762,41.785606 C 216.74681,42.296023 215.77611,42.551231 214.49551,42.551231 C 214.01244,42.551231 213.49746,42.496544 212.95059,42.387169 C 212.40827,42.277794 211.84545,42.11601 211.26212,41.901817 L 211.26212,40.479942 C 211.82266,40.794397 212.37181,41.031376 212.90958,41.19088 C 213.44733,41.350386 213.97598,41.430139 214.49551,41.430138 C 215.28392,41.430139 215.89232,41.275191 216.32071,40.965294 C 216.74909,40.6554 216.96328,40.213343 216.96329,39.639122 C 216.96328,39.137823 216.80833,38.745896 216.49844,38.463341 C 216.1931,38.180793 215.68952,37.968879 214.9877,37.827599 L 214.14688,37.663536 C 213.11693,37.458463 212.37181,37.137174 211.91153,36.699669 C 211.45124,36.262175 211.2211,35.653777 211.2211,34.874474 C 211.2211,33.972138 211.53783,33.261201 212.1713,32.741661 C 212.80931,32.22214 213.68659,31.962375 214.80313,31.962364 C 215.28164,31.962375 215.76927,32.005669 216.26602,32.092247 C 216.76276,32.178846 217.2709,32.308728 217.79044,32.481895 M 226.8959,37.731895 L 226.8959,42.352989 L 225.63809,42.352989 L 225.63809,37.772911 C 225.63809,37.048307 225.49681,36.50599 225.21426,36.145958 C 224.93171,35.785938 224.50788,35.605926 223.94278,35.605919 C 223.26374,35.605926 222.72826,35.822397 222.33633,36.255333 C 221.9444,36.688281 221.74844,37.27845 221.74844,38.025841 L 221.74844,42.352989 L 220.4838,42.352989 L 220.4838,31.71627 L 221.74844,31.71627 L 221.74844,35.886192 C 222.04922,35.425913 222.40241,35.081838 222.80801,34.853966 C 223.21817,34.626109 223.68985,34.512177 224.22305,34.512169 C 225.1026,34.512177 225.76797,34.785614 226.21915,35.332481 C 226.67031,35.874806 226.8959,36.674609 226.8959,37.731895 M 229.41837,34.696739 L 230.67618,34.696739 L 230.67618,42.352989 L 229.41837,42.352989 L 229.41837,34.696739 M 229.41837,31.71627 L 230.67618,31.71627 L 230.67618,33.309044 L 229.41837,33.309044 L 229.41837,31.71627 M 237.7377,35.87252 C 237.59642,35.790496 237.44147,35.731251 237.27286,35.694786 C 237.10879,35.653777 236.9265,35.633269 236.72598,35.633263 C 236.01504,35.633269 235.46817,35.865691 235.08536,36.330528 C 234.7071,36.79082 234.51797,37.453906 234.51797,38.319786 L 234.51797,42.352989 L 233.25333,42.352989 L 233.25333,34.696739 L 234.51797,34.696739 L 234.51797,35.886192 C 234.78229,35.421356 235.12637,35.07728 235.5502,34.853966 C 235.97403,34.626109 236.489,34.512177 237.09512,34.512169 C 237.18171,34.512177 237.27741,34.519013 237.38223,34.532677 C 237.48704,34.541799 237.60326,34.55775 237.73087,34.580528 L 237.7377,35.87252 M 240.31485,32.522911 L 240.31485,34.696739 L 242.90567,34.696739 L 242.90567,35.674278 L 240.31485,35.674278 L 240.31485,39.830528 C 240.31485,40.454879 240.39916,40.85592 240.56778,41.033653 C 240.74095,41.211389 241.08959,41.300256 241.61368,41.300255 L 242.90567,41.300255 L 242.90567,42.352989 L 241.61368,42.352989 C 240.64297,42.352989 239.97305,42.172976 239.60391,41.81295 C 239.23477,41.448368 239.0502,40.787561 239.0502,39.830528 L 239.0502,35.674278 L 238.12735,35.674278 L 238.12735,34.696739 L 239.0502,34.696739 L 239.0502,32.522911 L 240.31485,32.522911"
       id="text3455" />
    <path
       style="font-size:12px;font-style:normal;font-variant:normal;font-weight:normal;font-stretch:normal;fill:#000000;fill-opacity:1;stroke:none;stroke-width:1px;stroke-linecap:butt;stroke-linejoin:miter;stroke-opacity:1;font-family:Liberation Sans;-inkscape-font-specification:Liberation Sans"
       d="M 106.21943,183.01118 L 106.21943,186.0815 L 110.8249,186.0815 L 110.8249,187.00728 L 106.21943,187.00728 L 106.21943,190.35298 L 105.10029,190.35298 L 105.10029,182.09712 L 110.96552,182.09712 L 110.96552,183.01118 L 106.21943,183.01118 M 112.28388,190.35298 L 112.28388,185.4897 C 112.28388,185.35689 112.28193,185.22213 112.27802,185.0854 C 112.27802,184.94478 112.27607,184.81002 112.27216,184.68111 C 112.26826,184.55221 112.26435,184.43111 112.26044,184.31783 C 112.25654,184.20455 112.25263,184.10299 112.24873,184.01314 L 113.24482,184.01314 C 113.24872,184.10299 113.25263,184.2065 113.25654,184.32368 C 113.26435,184.43697 113.27021,184.55416 113.27412,184.67525 C 113.28193,184.79635 113.28583,184.91353 113.28584,185.02681 C 113.28974,185.13619 113.29169,185.22994 113.29169,185.30806 L 113.31513,185.30806 C 113.38935,185.06588 113.46747,184.85689 113.54951,184.68111 C 113.63544,184.50142 113.73505,184.35494 113.84834,184.24165 C 113.96161,184.12447 114.09638,184.03853 114.25263,183.98384 C 114.40888,183.92525 114.59833,183.89596 114.82099,183.89595 C 114.90693,183.89596 114.98896,183.90377 115.06709,183.91939 C 115.14521,183.93111 115.20575,183.94283 115.24873,183.95454 L 115.24873,184.92134 C 115.17841,184.90182 115.09638,184.88814 115.00263,184.88033 C 114.90888,184.86861 114.80341,184.86275 114.68623,184.86275 C 114.44404,184.86275 114.237,184.91744 114.06513,185.02681 C 113.89716,185.13619 113.75849,185.28853 113.64912,185.48384 C 113.54365,185.67525 113.46552,185.90572 113.41474,186.17525 C 113.36396,186.44088 113.33857,186.73189 113.33857,187.04829 L 113.33857,190.35298 L 112.28388,190.35298 M 121.62959,187.1772 C 121.62958,188.28658 121.38544,189.11275 120.89716,189.65572 C 120.40888,190.19868 119.69989,190.47017 118.77021,190.47017 C 118.3288,190.47017 117.93427,190.40376 117.58662,190.27095 C 117.23896,190.13814 116.94404,189.93501 116.70185,189.66158 C 116.46357,189.38814 116.27998,189.04634 116.15107,188.63618 C 116.02607,188.22212 115.96357,187.7358 115.96357,187.1772 C 115.96357,184.98971 116.91083,183.89596 118.80537,183.89595 C 119.29755,183.89596 119.72138,183.96432 120.07685,184.10103 C 120.43622,184.23775 120.72919,184.44283 120.95576,184.71626 C 121.18622,184.98971 121.35614,185.3315 121.46552,185.74165 C 121.57489,186.15181 121.62958,186.63033 121.62959,187.1772 M 120.52216,187.1772 C 120.52216,186.68502 120.4831,186.27877 120.40498,185.95845 C 120.33075,185.63814 120.21942,185.38228 120.07099,185.19087 C 119.92646,184.99947 119.74872,184.86666 119.53779,184.79243 C 119.32685,184.71432 119.08857,184.67525 118.82294,184.67525 C 118.55341,184.67525 118.30927,184.71627 118.09052,184.79829 C 117.87568,184.87642 117.69208,185.01314 117.53974,185.20845 C 117.3874,185.39986 117.27021,185.65572 117.18818,185.97603 C 117.11005,186.29634 117.07099,186.69674 117.07099,187.1772 C 117.07099,187.66939 117.11396,188.07759 117.1999,188.40181 C 117.28583,188.72212 117.40302,188.97798 117.55146,189.16939 C 117.7038,189.3608 117.88154,189.49556 118.08466,189.57368 C 118.29169,189.65181 118.5163,189.69087 118.75849,189.69087 C 119.02802,189.69087 119.27216,189.65376 119.49091,189.57954 C 119.70966,189.50142 119.89521,189.36665 120.04755,189.17525 C 120.19989,188.98384 120.31708,188.72603 120.39912,188.40181 C 120.48114,188.07759 120.52216,187.66939 120.52216,187.1772 M 126.97334,190.35298 L 126.97334,186.33345 C 126.97333,186.02486 126.94989,185.76705 126.90302,185.56001 C 126.86005,185.35299 126.78778,185.18697 126.68623,185.06197 C 126.58466,184.93307 126.44989,184.84322 126.28193,184.79243 C 126.11786,184.73775 125.91278,184.71041 125.66669,184.7104 C 125.41669,184.71041 125.19013,184.75533 124.98701,184.84517 C 124.78779,184.93111 124.61591,185.05806 124.47138,185.22603 C 124.33075,185.3901 124.22138,185.59517 124.14326,185.84126 C 124.06513,186.08345 124.02607,186.36275 124.02607,186.67915 L 124.02607,190.35298 L 122.97138,190.35298 L 122.97138,185.36665 C 122.97138,185.23385 122.96943,185.09517 122.96552,184.95064 C 122.96552,184.80221 122.96357,184.66353 122.95966,184.53462 C 122.95576,184.40182 122.95185,184.28853 122.94794,184.19478 C 122.94404,184.10103 122.94013,184.04049 122.93623,184.01314 L 123.93232,184.01314 C 123.93622,184.03268 123.94013,184.08541 123.94404,184.17134 C 123.94794,184.25728 123.95185,184.35689 123.95576,184.47017 C 123.96357,184.57955 123.96943,184.69283 123.97334,184.81001 C 123.97724,184.9233 123.97919,185.019 123.97919,185.09712 L 123.99677,185.09712 C 124.09833,184.91353 124.20966,184.74752 124.33076,184.59908 C 124.45185,184.45064 124.59247,184.32564 124.75263,184.22408 C 124.91279,184.11861 125.09638,184.03853 125.30341,183.98384 C 125.51044,183.92525 125.75068,183.89596 126.02412,183.89595 C 126.37567,183.89596 126.67841,183.93893 126.93232,184.02486 C 127.18622,184.1108 127.39521,184.24361 127.55927,184.42329 C 127.72333,184.60299 127.84247,184.83541 127.91669,185.12056 C 127.99481,185.40181 128.03388,185.73775 128.03388,186.12837 L 128.03388,190.35298 L 126.97334,190.35298 M 132.06513,190.30611 C 131.90497,190.34908 131.74091,190.38228 131.57294,190.40572 C 131.40888,190.43306 131.21747,190.44673 130.99873,190.44673 C 130.15497,190.44673 129.7331,189.96822 129.7331,189.01118 L 129.7331,184.78072 L 129.00068,184.78072 L 129.00068,184.01314 L 129.77412,184.01314 L 130.08466,182.59517 L 130.78779,182.59517 L 130.78779,184.01314 L 131.95966,184.01314 L 131.95966,184.78072 L 130.78779,184.78072 L 130.78779,188.78267 C 130.78779,189.08736 130.83661,189.3022 130.93427,189.4272 C 131.03583,189.54829 131.20966,189.60884 131.45576,189.60884 C 131.55732,189.60884 131.65497,189.60103 131.74873,189.5854 C 131.84638,189.56978 131.95185,189.55025 132.06513,189.52681 L 132.06513,190.30611"
       id="text3463" />
    <path
       style="font-size:12px;font-style:normal;font-variant:normal;font-weight:normal;font-stretch:normal;fill:#000000;fill-opacity:1;stroke:none;stroke-width:1px;stroke-linecap:butt;stroke-linejoin:miter;stroke-opacity:1;font-family:Liberation Sans;-inkscape-font-specification:Liberation Sans"
       d="M 278.43976,188.02681 C 278.43975,188.44478 278.35772,188.8022 278.19366,189.09908 C 278.0296,189.39205 277.80889,189.63228 277.53156,189.81978 C 277.25421,190.00337 276.93194,190.13814 276.56476,190.22408 C 276.19757,190.31001 275.81085,190.35298 275.4046,190.35298 L 272.05304,190.35298 L 272.05304,182.09712 L 275.05304,182.09712 C 275.51007,182.09713 275.91827,182.13619 276.27765,182.21431 C 276.63702,182.28854 276.94171,182.40768 277.19171,182.57173 C 277.44171,182.7358 277.63116,182.94479 277.76007,183.19868 C 277.89288,183.44869 277.95928,183.74947 277.95929,184.10103 C 277.95928,184.3315 277.92608,184.5483 277.85968,184.75142 C 277.79717,184.95455 277.69952,185.1401 277.56671,185.30806 C 277.4378,185.47213 277.27374,185.61471 277.07452,185.73579 C 276.87921,185.85299 276.65069,185.94088 276.38898,185.99947 C 276.721,186.03853 277.01397,186.1147 277.26788,186.22798 C 277.52569,186.34127 277.74053,186.4858 277.91241,186.66158 C 278.08428,186.83736 278.21514,187.04244 278.30499,187.27681 C 278.39483,187.50728 278.43975,187.75728 278.43976,188.02681 M 276.83429,184.23579 C 276.83428,183.79049 276.68194,183.47213 276.37726,183.28072 C 276.07257,183.08932 275.63116,182.99361 275.05304,182.99361 L 273.17218,182.99361 L 273.17218,185.60689 L 275.05304,185.60689 C 275.38116,185.60689 275.6585,185.57564 275.88507,185.51314 C 276.11163,185.44674 276.29522,185.35494 276.43585,185.23775 C 276.57647,185.11666 276.67803,184.97213 276.74054,184.80415 C 276.80303,184.63619 276.83428,184.44674 276.83429,184.23579 M 277.3089,187.93892 C 277.30889,187.6772 277.26006,187.45455 277.16241,187.27095 C 277.06866,187.08736 276.93194,186.93697 276.75226,186.81978 C 276.57257,186.70259 276.35577,186.61666 276.10187,186.56197 C 275.85186,186.50728 275.57061,186.47994 275.25812,186.47993 L 273.17218,186.47993 L 273.17218,189.4565 L 275.34601,189.4565 C 275.63116,189.4565 275.89288,189.43306 276.13116,189.38618 C 276.37335,189.33931 276.58038,189.25728 276.75226,189.14009 C 276.92803,189.0229 277.06475,188.86665 277.16241,188.67134 C 277.26006,188.47603 277.30889,188.23189 277.3089,187.93892 M 281.48663,190.47017 C 280.84991,190.47017 280.3714,190.3022 280.05109,189.96626 C 279.73077,189.63033 279.57062,189.16939 279.57062,188.58345 C 279.57062,188.16548 279.64874,187.82369 279.80499,187.55806 C 279.96515,187.28853 280.17218,187.07759 280.42609,186.92525 C 280.6839,186.77291 280.97687,186.66744 281.30499,186.60884 C 281.63312,186.55025 281.9671,186.51705 282.30695,186.50923 L 283.73077,186.48579 L 283.73077,186.14009 C 283.73077,185.87838 283.70343,185.65572 283.64874,185.47212 C 283.59405,185.28853 283.51007,185.1401 283.39679,185.02681 C 283.2835,184.91353 283.14093,184.8315 282.96906,184.78072 C 282.80108,184.72603 282.60186,184.69869 282.3714,184.69868 C 282.16827,184.69869 281.98468,184.71432 281.82062,184.74556 C 281.65655,184.77291 281.51397,184.82564 281.39288,184.90376 C 281.27179,184.97799 281.17413,185.0815 281.09991,185.21431 C 281.02569,185.34322 280.97687,185.50728 280.95343,185.7065 L 279.85187,185.60689 C 279.89093,185.35689 279.96515,185.12838 280.07452,184.92134 C 280.1839,184.71041 280.33819,184.52877 280.53741,184.37642 C 280.74054,184.22408 280.99249,184.10689 281.29327,184.02486 C 281.59796,183.93893 281.96515,183.89596 282.39484,183.89595 C 283.19171,183.89596 283.79132,184.07955 284.19366,184.44673 C 284.596,184.81002 284.79717,185.33736 284.79718,186.02876 L 284.79718,188.75923 C 284.79717,189.07173 284.83819,189.30806 284.92023,189.46822 C 285.00225,189.62447 285.1585,189.70259 285.38898,189.70259 C 285.44756,189.70259 285.50616,189.69869 285.56476,189.69087 C 285.62335,189.68306 285.67999,189.67329 285.73468,189.66158 L 285.73468,190.31783 C 285.60186,190.34908 285.46905,190.37251 285.33624,190.38814 C 285.20733,190.40376 285.06866,190.41158 284.92023,190.41158 C 284.721,190.41158 284.54913,190.38618 284.4046,190.3354 C 284.26397,190.28072 284.14874,190.20064 284.0589,190.09517 C 283.96905,189.98579 283.90069,189.85298 283.85382,189.69673 C 283.80694,189.53658 283.77764,189.35103 283.76593,189.14009 L 283.73077,189.14009 C 283.61749,189.34322 283.49249,189.52681 283.35577,189.69087 C 283.22296,189.85494 283.06671,189.99556 282.88702,190.11275 C 282.70733,190.22603 282.50225,190.31392 282.27179,190.37642 C 282.04522,190.43892 281.78351,190.47017 281.48663,190.47017 M 281.72687,189.67915 C 282.0628,189.67915 282.35577,189.61861 282.60577,189.49751 C 282.85968,189.37251 283.06866,189.21431 283.23273,189.0229 C 283.40069,188.8315 283.52569,188.62251 283.60773,188.39595 C 283.68975,188.16939 283.73077,187.95259 283.73077,187.74556 L 283.73077,187.22408 L 282.57648,187.24751 C 282.31866,187.25142 282.07257,187.27095 281.8382,187.30611 C 281.60772,187.33736 281.4046,187.40181 281.22882,187.49947 C 281.05304,187.59712 280.91241,187.73384 280.80695,187.90962 C 280.70538,188.08541 280.6546,188.31587 280.6546,188.60103 C 280.6546,188.94478 280.7464,189.2104 280.92999,189.3979 C 281.11749,189.5854 281.38312,189.67915 281.72687,189.67915 M 287.35187,187.15376 C 287.35187,187.51705 287.37726,187.85103 287.42804,188.15572 C 287.48273,188.46041 287.57257,188.72408 287.69757,188.94673 C 287.82257,189.16548 287.98663,189.3354 288.18976,189.4565 C 288.39679,189.57759 288.65069,189.63814 288.95148,189.63814 C 289.32647,189.63814 289.63897,189.53658 289.88898,189.33345 C 290.14288,189.13033 290.29913,188.81783 290.35773,188.39595 L 291.42413,188.46626 C 291.38897,188.72798 291.3128,188.97994 291.19562,189.22212 C 291.07842,189.46431 290.91827,189.6772 290.71515,189.86079 C 290.51593,190.04439 290.27179,190.19283 289.98273,190.30611 C 289.69366,190.41548 289.35968,190.47017 288.98077,190.47017 C 288.48468,190.47017 288.0628,190.38618 287.71515,190.21822 C 287.36749,190.05025 287.08429,189.81978 286.86554,189.52681 C 286.65069,189.22994 286.49445,188.88228 286.39679,188.48384 C 286.29913,188.0815 286.2503,187.64595 286.25031,187.1772 C 286.2503,186.75142 286.28546,186.37642 286.35577,186.0522 C 286.42609,185.72408 286.52374,185.43892 286.64874,185.19673 C 286.77765,184.95064 286.92804,184.74557 287.09991,184.5815 C 287.27179,184.41353 287.45733,184.28072 287.65656,184.18306 C 287.85968,184.0815 288.07257,184.00924 288.29523,183.96626 C 288.51788,183.91939 288.74249,183.89596 288.96906,183.89595 C 289.32452,183.89596 289.64093,183.94478 289.91827,184.04243 C 290.19561,184.1401 290.43389,184.27486 290.63312,184.44673 C 290.83624,184.61471 291.0003,184.81392 291.12531,185.04439 C 291.2503,185.27486 291.33819,185.52291 291.38898,185.78853 L 290.30499,185.87056 C 290.2503,185.519 290.11163,185.23971 289.88898,185.03267 C 289.66632,184.82564 289.34991,184.72213 288.93976,184.72212 C 288.63897,184.72213 288.38702,184.77291 288.1839,184.87447 C 287.98468,184.97213 287.82257,185.12252 287.69757,185.32564 C 287.57257,185.52486 287.48273,185.77681 287.42804,186.0815 C 287.37726,186.38619 287.35187,186.74361 287.35187,187.15376 M 296.54523,190.35298 L 294.4007,187.45845 L 293.62726,188.09712 L 293.62726,190.35298 L 292.57257,190.35298 L 292.57257,181.65767 L 293.62726,181.65767 L 293.62726,187.08931 L 296.41046,184.01314 L 297.64679,184.01314 L 295.07452,186.73775 L 297.78156,190.35298 L 296.54523,190.35298"
       id="text3467" />
  </g>
</svg>
