<?xml version="1.0" encoding="UTF-8" standalone="no"?>
<!-- Created with Inkscape (http://www.inkscape.org/) -->
<svg
   xmlns:dc="http://purl.org/dc/elements/1.1/"
   xmlns:cc="http://web.resource.org/cc/"
   xmlns:rdf="http://www.w3.org/1999/02/22-rdf-syntax-ns#"
   xmlns:svg="http://www.w3.org/2000/svg"
   xmlns="http://www.w3.org/2000/svg"
   xmlns:xlink="http://www.w3.org/1999/xlink"
   xmlns:sodipodi="http://inkscape.sourceforge.net/DTD/sodipodi-0.dtd"
   xmlns:inkscape="http://www.inkscape.org/namespaces/inkscape"
   width="256"
   height="256"
   id="svg2"
   sodipodi:version="0.32"
   inkscape:version="0.43"
   version="1.0"
   sodipodi:docbase="/home/nicu/Desktop"
   sodipodi:docname="eggs.svg"
   inkscape:export-filename="/home/nicu/Desktop/eggs.png"
   inkscape:export-xdpi="90"
   inkscape:export-ydpi="90">
  <defs
     id="defs4">
    <linearGradient
       id="linearGradient5492">
      <stop
         style="stop-color:#ffffff;stop-opacity:0;"
         offset="0"
         id="stop5494" />
      <stop
         id="stop6373"
         offset="0.43243244"
         style="stop-color:#ffffff;stop-opacity:0;" />
      <stop
         style="stop-color:#ffffff;stop-opacity:1;"
         offset="1"
         id="stop5496" />
    </linearGradient>
    <linearGradient
       inkscape:collect="always"
       id="linearGradient4595">
      <stop
         style="stop-color:#ffffff;stop-opacity:1;"
         offset="0"
         id="stop4597" />
      <stop
         style="stop-color:#ffffff;stop-opacity:0;"
         offset="1"
         id="stop4599" />
    </linearGradient>
    <linearGradient
       id="linearGradient2185">
      <stop
         style="stop-color:#000000;stop-opacity:0;"
         offset="0"
         id="stop2187" />
      <stop
         style="stop-color:#000000;stop-opacity:1;"
         offset="1"
         id="stop2189" />
    </linearGradient>
    <radialGradient
       inkscape:collect="always"
       xlink:href="#linearGradient2185"
       id="radialGradient1438"
       gradientUnits="userSpaceOnUse"
       gradientTransform="matrix(0.508374,-6.629727e-2,8.551809e-2,0.655762,209.5235,-240.9622)"
       cx="205.46703"
       cy="510.08594"
       fx="205.46703"
       fy="510.08594"
       r="233.57143" />
    <radialGradient
       inkscape:collect="always"
       xlink:href="#linearGradient4595"
       id="radialGradient1440"
       gradientUnits="userSpaceOnUse"
       gradientTransform="matrix(0.357107,-0.293029,0.223314,0.272147,295.798,-117.1959)"
       cx="-30.780413"
       cy="425.87891"
       fx="-30.780413"
       fy="425.87891"
       r="67.142862" />
    <radialGradient
       inkscape:collect="always"
       xlink:href="#linearGradient5492"
       id="radialGradient1442"
       gradientUnits="userSpaceOnUse"
       gradientTransform="matrix(-0.902878,0.916486,-1.641474,-1.617053,606.7399,313.7622)"
       cx="-5.7750578"
       cy="131.254"
       fx="-5.7750578"
       fy="131.254"
       r="85.609375" />
    <radialGradient
       inkscape:collect="always"
       xlink:href="#linearGradient4595"
       id="radialGradient1444"
       gradientUnits="userSpaceOnUse"
       gradientTransform="matrix(0.668448,0.295489,-0.19316,0.436963,378.9121,46.17374)"
       cx="69.682297"
       cy="213.34662"
       fx="69.682297"
       fy="213.34662"
       r="25.939982" />
    <radialGradient
       inkscape:collect="always"
       xlink:href="#linearGradient2185"
       id="radialGradient1446"
       gradientUnits="userSpaceOnUse"
       gradientTransform="matrix(0.592304,-1.291437e-4,1.665901e-4,0.764024,-69.031,-267.1844)"
       cx="222.64305"
       cy="524.91498"
       fx="222.64305"
       fy="524.91498"
       r="233.57143" />
    <radialGradient
       inkscape:collect="always"
       xlink:href="#linearGradient4595"
       id="radialGradient1448"
       gradientUnits="userSpaceOnUse"
       gradientTransform="matrix(0.328984,-0.420229,0.320252,0.250716,-46.88491,-69.97365)"
       cx="-30.780413"
       cy="425.87891"
       fx="-30.780413"
       fy="425.87891"
       r="67.142862" />
    <radialGradient
       inkscape:collect="always"
       xlink:href="#linearGradient5492"
       id="radialGradient1450"
       gradientUnits="userSpaceOnUse"
       gradientTransform="matrix(-1.17107,0.915302,-1.639361,-2.097392,303.3004,427.5768)"
       cx="-5.7750578"
       cy="131.254"
       fx="-5.7750578"
       fy="131.254"
       r="85.609375" />
    <radialGradient
       inkscape:collect="always"
       xlink:href="#linearGradient4595"
       id="radialGradient1452"
       gradientUnits="userSpaceOnUse"
       gradientTransform="matrix(0.721731,0.438224,-0.286466,0.471794,80.50703,82.15441)"
       cx="69.682297"
       cy="213.34662"
       fx="69.682297"
       fy="213.34662"
       r="25.939982" />
    <radialGradient
       inkscape:collect="always"
       xlink:href="#linearGradient5492"
       id="radialGradient2392"
       gradientUnits="userSpaceOnUse"
       gradientTransform="matrix(0.772283,-0.381859,0.642635,1.299687,-185.9434,28.4554)"
       cx="255.69705"
       cy="190.83289"
       fx="255.69705"
       fy="190.83289"
       r="69.389564" />
    <radialGradient
       inkscape:collect="always"
       xlink:href="#linearGradient4595"
       id="radialGradient2395"
       gradientUnits="userSpaceOnUse"
       gradientTransform="matrix(-0.628448,-0.253561,0.165752,-0.410815,141.3832,298.7037)"
       cx="69.682297"
       cy="213.34662"
       fx="69.682297"
       fy="213.34662"
       r="25.939982" />
    <radialGradient
       inkscape:collect="always"
       xlink:href="#linearGradient4595"
       id="radialGradient2398"
       gradientUnits="userSpaceOnUse"
       gradientTransform="matrix(0.282808,-0.134635,0.102604,0.215526,87.54622,33.42818)"
       cx="-30.780413"
       cy="425.87891"
       fx="-30.780413"
       fy="425.87891"
       r="67.142862" />
    <radialGradient
       inkscape:collect="always"
       xlink:href="#linearGradient2185"
       id="radialGradient2401"
       gradientUnits="userSpaceOnUse"
       gradientTransform="matrix(-9.583166e-2,0.334152,-0.431029,-0.123615,407.213,131.9732)"
       cx="299.664"
       cy="585.31921"
       fx="299.664"
       fy="585.31921"
       r="233.57143" />
  </defs>
  <sodipodi:namedview
     id="base"
     pagecolor="#ffffff"
     bordercolor="#666666"
     borderopacity="1.0"
     inkscape:pageopacity="0.0"
     inkscape:pageshadow="2"
     inkscape:zoom="1"
     inkscape:cx="128"
     inkscape:cy="128"
     inkscape:document-units="px"
     inkscape:current-layer="layer1"
     inkscape:window-width="814"
     inkscape:window-height="584"
     inkscape:window-x="306"
     inkscape:window-y="101" />
  <metadata
     id="metadata7">
    <rdf:RDF>
      <cc:Work
         rdf:about="">
        <dc:format>image/svg+xml</dc:format>
        <dc:type
           rdf:resource="http://purl.org/dc/dcmitype/StillImage" />
      </cc:Work>
    </rdf:RDF>
  </metadata>
  <g
     inkscape:label="Layer 1"
     inkscape:groupmode="layer"
     id="layer1">
    <g
       id="g6003"
       transform="matrix(0.642635,0,-0.441728,0.462371,61.57605,78.77061)">
      <path
         style="opacity:0.1;fill:#000000;fill-opacity:1;stroke:none;stroke-width:8;stroke-linecap:round;stroke-linejoin:round;stroke-miterlimit:4;stroke-dashoffset:0;stroke-opacity:1"
         d="M 217.90625,11.40625 C 195.77351,12.232677 178.06467,29.946266 169,48.96875 C 154.52916,78.947477 152.69013,113.54368 159.5625,145.75 C 164.06638,166.03438 176.46634,185.51375 195.84375,194.03125 C 219.33671,204.38152 247.36006,201.954 269.34375,189.59375 C 286.68805,180.05656 298.17266,161.74731 300.40497,142.04333 C 303.23768,115.17912 296.71806,88.030776 285.28125,63.6875 C 273.79735,40.202359 254.71785,17.009806 227.8125,11.96875 C 224.54009,11.458076 221.21684,11.19155 217.90625,11.40625 z "
         id="path6005" />
      <path
         style="opacity:0.1;fill:#000000;fill-opacity:1;stroke:none;stroke-width:8;stroke-linecap:round;stroke-linejoin:round;stroke-miterlimit:4;stroke-dashoffset:0;stroke-opacity:1"
         d="M 217.8125,10.28125 C 194.59025,11.287835 176.63513,29.801307 167.34375,49.78125 C 153.28367,80.014711 151.51795,114.81841 158.73879,147.03357 C 163.53443,168.2662 177.56904,188.45303 198.25,196.28125 C 223.25765,205.87945 252.71422,202.28091 274.6875,187.53125 C 291.25676,176.48395 301.02852,156.88952 302.02643,137.03521 C 303.39634,106.52074 294.7793,75.791985 278.90625,49.875 C 265.6467,29.004429 244.07701,9.1879507 217.8125,10.28125 z M 276.6875,186.0625 C 276.64457,186.12016 276.79114,186.09501 276.6875,186.0625 z "
         id="path6010" />
      <path
         style="opacity:0.1;fill:#000000;fill-opacity:1;stroke:none;stroke-width:8;stroke-linecap:round;stroke-linejoin:round;stroke-miterlimit:4;stroke-dashoffset:0;stroke-opacity:1"
         d="M 217.75,9.1875 C 194.30745,10.085258 175.71304,28.994899 166.375,49.28125 C 152.50138,78.834388 150.6408,112.75867 156.96875,144.40625 C 161.36904,166.59753 175.2978,188.34139 196.78125,196.875 C 222.43624,207.19946 252.95313,203.57927 275.5625,188.28125 C 292.20899,177.04839 302.15974,157.17476 303.11863,137.12883 C 304.53989,106.42367 295.86203,75.391421 279.84375,49.3125 C 266.411,28.058954 244.35034,7.9942632 217.75,9.1875 z "
         id="path6015" />
      <path
         style="opacity:0.1;fill:#000000;fill-opacity:1;stroke:none;stroke-width:8;stroke-linecap:round;stroke-linejoin:round;stroke-miterlimit:4;stroke-dashoffset:0;stroke-opacity:1"
         d="M 217.6875,8.0625 C 193.95845,9.0365957 175.09811,27.8874 165.58404,48.363177 C 151.47819,78.012502 149.43105,112.45299 155.875,144.625 C 160.38786,167.11004 174.31815,189.05601 196.28125,197.875 C 218.74511,207.16063 245.4208,205.21017 266.6875,194.78125 C 285.11292,186.10728 298.81867,168.6007 302.625,148.625 C 307.80316,121.57766 301.38812,93.457497 291.125,68.34375 C 279.67819,42.323265 260.32357,16.510039 231.5,9.3125 C 227.01149,8.2964778 222.34054,7.7873377 217.6875,8.0625 z "
         id="path6020" />
      <path
         style="opacity:0.1;fill:#000000;fill-opacity:1;stroke:none;stroke-width:8;stroke-linecap:round;stroke-linejoin:round;stroke-miterlimit:4;stroke-dashoffset:0;stroke-opacity:1"
         d="M 217.59375,6.96875 C 198.13313,7.7275915 181.30208,20.636439 171.12061,36.425066 C 160.89735,51.831809 155.1914,70.290211 152.8125,88.03125 C 150.09525,108.56879 150.93096,130.01005 156.09375,150.09375 C 161.05319,168.86406 172.22917,186.41369 189.51824,195.76737 C 208.39987,206.35815 232.12751,207.0907 252.40625,201.4375 C 268.95162,196.83549 284.47169,187.18851 293.9375,172.625 C 305.65885,155.19281 307.41809,132.25036 304.22996,111.45455 C 299.60233,79.646683 286.88329,47.878027 263.12342,25.591505 C 250.93802,14.338577 234.68375,6.0180596 217.59375,6.96875 z "
         id="path6025" />
      <path
         style="opacity:0.1;fill:#000000;fill-opacity:1;stroke:none;stroke-width:8;stroke-linecap:round;stroke-linejoin:round;stroke-miterlimit:4;stroke-dashoffset:0;stroke-opacity:1"
         d="M 217.53125,5.84375 C 197.97573,6.6279283 180.90406,19.434288 170.5,35.34375 C 159.92221,51.075033 154.1549,69.92808 151.6875,87.9375 C 148.94605,108.86691 149.79715,130.58716 155.19089,150.93838 C 160.35662,170.33873 172.40646,188.38454 190.54723,197.64645 C 209.91621,207.67235 233.69193,208.13164 253.96875,202.15625 C 270.53283,197.23595 285.66957,187.55213 295.15625,172.84375 C 307.04078,154.69458 308.584,131.22735 305.16424,109.9511 C 300.24511,78.234852 287.3739,46.535998 263.46558,24.401759 C 251.04959,13.090521 234.70247,4.9212279 217.53125,5.84375 z "
         id="path6030" />
      <path
         style="opacity:0.1;fill:#000000;fill-opacity:1;stroke:none;stroke-width:8;stroke-linecap:round;stroke-linejoin:round;stroke-miterlimit:4;stroke-dashoffset:0;stroke-opacity:1"
         d="M 217.5,4.75 C 191.87682,5.759177 171.62491,26.376954 161.75,48.6875 C 147.88769,79.060982 146.07345,114.15566 152.9375,146.6875 C 157.99465,170.59337 173.56213,193.23929 197.0625,201.78125 C 221.06156,210.78048 248.99876,208.21696 271.3125,196.15625 C 289.94404,186.25607 303.19029,167.41475 306.39764,146.60988 C 310.79849,118.39726 303.99341,89.302302 292.60922,63.562168 C 280.54701,37.523717 259.90922,11.966881 230.53125,5.71875 C 226.26389,4.839415 221.86334,4.5130039 217.5,4.75 z "
         id="path6035" />
      <path
         style="opacity:0.1;fill:#000000;fill-opacity:1;stroke:none;stroke-width:8;stroke-linecap:round;stroke-linejoin:round;stroke-miterlimit:4;stroke-dashoffset:0;stroke-opacity:1"
         d="M 217.4375,3.625 C 191.53014,4.6786226 171.02926,25.289291 160.92202,47.781721 C 146.83503,78.542173 144.92796,113.6357 151.75776,146.56776 C 156.83686,170.6481 172.26893,193.60074 195.84375,202.5 C 222.40857,212.76168 253.80427,209.06374 277.34375,193.78125 C 295.89598,181.84394 307.20866,160.57158 308.59375,138.5625 C 310.42163,106.37588 301.32257,73.758106 284.59375,46.375 C 270.08625,23.438707 246.22633,2.303971 217.4375,3.625 z "
         id="path6040" />
      <path
         style="opacity:0.1;fill:#000000;fill-opacity:1;stroke:none;stroke-width:8;stroke-linecap:round;stroke-linejoin:round;stroke-miterlimit:4;stroke-dashoffset:0;stroke-opacity:1"
         d="M 217.375,2.53125 C 191.39811,3.5590921 170.7213,23.925328 160.34375,46.40625 C 146.70928,75.352642 144.27982,107.9996 149.21875,139.375 C 153.07147,165.58839 167.77792,191.92714 192.9375,202.40625 C 218.25537,213.53639 249.04709,210.92991 272.875,197.8125 C 292.4104,187.26847 305.86319,167.32893 308.90868,145.20017 C 312.8216,115.36989 305.33715,84.777427 292.40625,58 C 278.20088,29.614194 251.68875,1.145893 217.375,2.53125 z "
         id="path6045" />
      <path
         style="opacity:0.1;fill:#000000;fill-opacity:1;stroke:none;stroke-width:8;stroke-linecap:round;stroke-linejoin:round;stroke-miterlimit:4;stroke-dashoffset:0;stroke-opacity:1"
         d="M 217.34375,1.40625 C 191.27621,2.4225445 170.17908,22.728653 159.61529,45.363177 C 145.19922,75.608668 142.92518,109.97766 148.625,142.53125 C 153.02251,168.17051 168.14966,193.20468 192.46875,203.46875 C 220.54458,215.558 254.74676,211.72283 279.84375,194.78125 C 298.58261,182.09547 309.70298,160.21491 310.8643,137.75345 C 312.44093,106.06884 303.67289,74.018152 287.46875,46.84375 C 272.64365,22.482258 247.62678,0.041170769 217.34375,1.40625 z "
         id="path6050" />
    </g>
    <g
       id="g4044"
       transform="matrix(0.642635,0,0,0.642635,-111.314,57.45884)">
      <path
         style="fill:#15ff00;fill-opacity:1;stroke:none;stroke-width:8;stroke-linecap:round;stroke-linejoin:round;stroke-miterlimit:4;stroke-dashoffset:0;stroke-opacity:1"
         d="M 323.24959,107.49891 C 314.85726,43.036075 342.2854,-13.739156 384.47312,-19.231515 C 426.66085,-24.723876 467.71132,23.136219 476.10364,87.599052 C 484.49597,152.0619 442.49394,174.4916 410.24033,178.69065 C 377.98673,182.8897 331.64191,171.96175 323.24959,107.49891 z "
         id="path3133"
         sodipodi:nodetypes="csssc" />
      <path
         sodipodi:nodetypes="csssc"
         id="path3135"
         d="M 323.24959,107.49891 C 314.85726,43.036075 342.2854,-13.739156 384.47312,-19.231515 C 426.66085,-24.723876 467.71132,23.136219 476.10364,87.599052 C 484.49597,152.0619 442.49394,174.4916 410.24033,178.69065 C 377.98673,182.8897 331.64191,171.96175 323.24959,107.49891 z "
         style="opacity:0.54940712;fill:url(#radialGradient1438);fill-opacity:1;stroke:none;stroke-width:8;stroke-linecap:round;stroke-linejoin:round;stroke-miterlimit:4;stroke-dashoffset:0;stroke-opacity:1" />
      <path
         style="opacity:0.63241104;fill:url(#radialGradient1440);fill-opacity:1;stroke:none;stroke-width:8;stroke-linecap:round;stroke-linejoin:round;stroke-miterlimit:4;stroke-dashoffset:0;stroke-opacity:1"
         d="M 397.23015,21.541814 C 384.73545,37.204468 366.83571,43.726455 357.27539,36.099817 C 347.71507,28.47318 350.09659,9.5717255 362.59129,-6.0909285 C 375.086,-21.753585 392.98572,-28.27557 402.54605,-20.648933 C 412.10637,-13.022294 409.72485,5.8791595 397.23015,21.541814 z "
         id="path3137" />
      <path
         style="fill:url(#radialGradient1442);fill-opacity:1;stroke:none;stroke-width:8;stroke-linecap:round;stroke-linejoin:round;stroke-miterlimit:4;stroke-dashoffset:0;stroke-opacity:1"
         d="M 328.2453,39.046006 C 322.0815,59.077553 320.02083,82.728175 323.24688,107.50797 C 331.6392,171.97082 377.97423,182.89676 410.22783,178.6977 C 435.33758,175.4287 466.363,161.10363 474.91176,124.50538 C 465.34752,129.08991 454.89967,132.26613 443.81376,133.70938 C 387.66907,141.01878 336.1701,101.38434 328.8607,45.239654 C 328.59064,43.165235 328.38873,41.105747 328.2453,39.046006 z "
         id="path3139" />
      <path
         style="opacity:0.71146246;fill:url(#radialGradient1444);fill-opacity:1;stroke:none;stroke-width:8;stroke-linecap:round;stroke-linejoin:round;stroke-miterlimit:4;stroke-dashoffset:0;stroke-opacity:1"
         d="M 388.27471,146.11231 C 400.82376,149.72408 409.21926,158.87202 407.01467,166.53183 C 404.81009,174.19163 392.83612,177.477 380.28708,173.86523 C 367.73803,170.25346 359.34253,161.10551 361.54712,153.44571 C 363.7517,145.7859 375.72567,142.50053 388.27471,146.11231 z "
         id="path3141" />
    </g>
    <g
       id="g7083"
       transform="matrix(0.642635,0,0,0.642635,-3.351417,55.17669)">
      <path
         style="opacity:0.1;fill:#000000;fill-opacity:1;stroke:none;stroke-width:8;stroke-linecap:round;stroke-linejoin:round;stroke-miterlimit:4;stroke-dashoffset:0;stroke-opacity:1"
         d="M 172,43.40625 C 155.27194,73.238091 152.63712,108.67147 158.71875,141.90625 C 162.58664,162.06296 173.1202,181.83152 191.65625,191.90625 C 210.53099,166.89527 220.44149,135.68141 221.1875,104.4375 C 221.5093,82.472193 213.7647,57.079035 192.375,47.25 C 186.16304,44.625561 178.49143,42.312403 172,43.40625 z "
         id="path7085" />
      <path
         style="opacity:0.1;fill:#000000;fill-opacity:1;stroke:none;stroke-width:8;stroke-linecap:round;stroke-linejoin:round;stroke-miterlimit:4;stroke-dashoffset:0;stroke-opacity:1"
         d="M 171,42.875 C 153.92858,73.435826 151.2884,110.12886 158.03125,144.09375 C 162.18162,163.9845 173.54939,184.19558 192.125,193.15625 C 211.3201,167.99056 221.59204,136.08143 222.3125,104.4375 C 222.50471,83.140612 215.69597,59.142058 196.03125,47.875 C 188.53851,43.66212 180.21584,41.866456 171.625,41.8125 L 171.11798,42.674434 L 171,42.875 z "
         id="path7090" />
      <path
         style="opacity:0.1;fill:#000000;fill-opacity:1;stroke:none;stroke-width:8;stroke-linecap:round;stroke-linejoin:round;stroke-miterlimit:4;stroke-dashoffset:0;stroke-opacity:1"
         d="M 170.90625,40.84375 C 153.35107,70.966327 150.39902,107.26151 156.25,141 C 160.03988,162.6985 172.00817,184.80182 192.28125,194.6875 C 212.21317,169.16972 222.67658,136.6505 223.40625,104.46875 C 223.72208,82.265134 216.0671,56.875315 195.0625,46.125 C 187.71163,42.317946 179.11673,40.442049 170.90625,40.84375 z "
         id="path7095" />
      <path
         style="opacity:0.1;fill:#000000;fill-opacity:1;stroke:none;stroke-width:8;stroke-linecap:round;stroke-linejoin:round;stroke-miterlimit:4;stroke-dashoffset:0;stroke-opacity:1"
         d="M 169.96875,40.28125 C 152.74228,69.847015 149.42803,104.98164 154.6875,138.375 C 158.12577,161.67991 170.41005,185.4569 192.53125,196.15625 C 212.75611,170.7329 223.3263,138.34763 224.5125,106.03133 C 225.08087,83.200644 217.78626,57.207076 196.40625,45.5625 C 188.47742,41.232581 179.38951,39.44704 170.375,39.59375 L 169.96875,40.28125 z "
         id="path7100" />
      <path
         style="opacity:0.1;fill:#000000;fill-opacity:1;stroke:none;stroke-width:8;stroke-linecap:round;stroke-linejoin:round;stroke-miterlimit:4;stroke-dashoffset:0;stroke-opacity:1"
         d="M 169,39.71875 C 160.14883,54.434094 154.99462,71.571764 152.8125,88.03125 C 150.09838,108.47624 150.93321,129.88813 156.04462,149.91509 C 160.9865,168.75296 172.17198,186.38394 189.51824,195.76737 C 191.07046,196.35422 193.08928,198.80103 194,196.09375 C 211.40389,174.22812 221.10461,146.8881 224.71921,119.36474 C 227.06346,99.061325 225.34463,77.210825 213.71875,59.90625 C 204.7269,46.138571 188.33596,38.230326 171.91319,38.5 C 170.63394,38.518424 169.41938,38.116781 169,39.71875 z "
         id="path7105" />
      <path
         style="opacity:0.1;fill:#000000;fill-opacity:1;stroke:none;stroke-width:8;stroke-linecap:round;stroke-linejoin:round;stroke-miterlimit:4;stroke-dashoffset:0;stroke-opacity:1"
         d="M 169,37.65625 C 159.38465,52.829585 154.08862,70.707175 151.70268,87.737472 C 148.94992,108.75268 149.7767,130.58798 155.21875,151.03125 C 160.41591,170.51469 172.59836,188.62357 190.875,197.8125 C 192.24046,198.77303 193.85836,199.10162 194.56783,197.16156 C 212.54633,174.78541 222.40806,146.63512 225.96966,118.38574 C 228.19691,97.894112 226.10253,75.659516 214.0625,58.46875 C 204.29145,44.036128 186.63724,36.56604 169.46875,37.375 L 169,37.65625 z "
         id="path7110" />
      <path
         style="opacity:0.1;fill:#000000;fill-opacity:1;stroke:none;stroke-width:8;stroke-linecap:round;stroke-linejoin:round;stroke-miterlimit:4;stroke-dashoffset:0;stroke-opacity:1"
         d="M 168.0625,37.0625 C 149.18155,67.974117 145.82564,105.76998 151.75,141.09375 C 155.80236,165.23004 169.26225,189.18703 192.1875,199.6875 C 196.3341,199.43971 197.77115,193.6465 200.59284,191.05496 C 218.77873,164.00832 228.77814,131.00063 227.68684,98.314497 C 226.88797,75.454252 216.62384,50.379486 194.34375,40.84375 C 186.25259,37.608398 176.56359,35.006949 168.0625,37.0625 z "
         id="path7115" />
      <path
         style="opacity:0.1;fill:#000000;fill-opacity:1;stroke:none;stroke-width:8;stroke-linecap:round;stroke-linejoin:round;stroke-miterlimit:4;stroke-dashoffset:0;stroke-opacity:1"
         d="M 167.46875,36 C 149.48032,64.978565 145.40071,99.48312 149.40625,133.09375 C 152.19052,159.0274 164.29219,186.23123 188.28283,198.91876 C 191.14006,201.35813 195.3246,201.47848 196.96875,197.71875 C 217.13991,171.76127 227.81272,138.80486 228.94969,106.09382 C 229.55787,82.383611 221.92313,55.516592 200.3125,42.71875 C 191.00332,37.173157 179.37412,34.291871 168.54739,35.544951 L 167.62602,35.933651 L 167.46875,36 z "
         id="path7120" />
      <path
         style="opacity:0.1;fill:#000000;fill-opacity:1;stroke:none;stroke-width:8;stroke-linecap:round;stroke-linejoin:round;stroke-miterlimit:4;stroke-dashoffset:0;stroke-opacity:1"
         d="M 166.84375,35.0625 C 160.4959,44.571511 155.44063,55.986559 152.90625,66.75 C 147.0248,85.503744 145.88304,106.79952 147.625,127.09375 C 149.58515,153.41582 159.72967,181.98227 182.75,196.875 C 186.77286,199.12799 193.03215,204.87333 196.8125,199.6875 C 217.61283,173.66451 228.6459,140.27243 230.03125,107.125 C 230.87123,82.645078 223.1531,54.979979 200.84375,41.71875 C 190.97806,36.078574 178.85605,32.716516 167.59977,34.774491 L 166.84375,35.0625 z "
         id="path7125" />
      <path
         style="opacity:0.1;fill:#000000;fill-opacity:1;stroke:none;stroke-width:8;stroke-linecap:round;stroke-linejoin:round;stroke-miterlimit:4;stroke-dashoffset:0;stroke-opacity:1"
         d="M 166.3125,34.0625 C 157.85324,45.954073 152.96164,60.203208 149.75,73.75 C 144.03498,99.448275 144.28086,127.18993 151.125,152.90625 C 157.00524,174.19637 170.98,194.26245 191.61606,202.78966 C 197.83046,204.00129 200.03562,196.11217 203.65625,192.46875 C 221.92125,165.15961 231.88313,131.99461 231.09375,99.09375 C 230.36921,74.999051 219.81951,48.72283 196.65625,38.21875 C 187.37948,34.346728 176.1806,31.259055 166.3125,34.0625 z "
         id="path7130" />
    </g>
    <g
       id="g4066"
       transform="matrix(0.642635,0,0,0.642635,-1.423513,40.75034)">
      <path
         sodipodi:nodetypes="csssc"
         id="path1307"
         d="M 9.285706,148.99002 C 9.285706,73.886874 49.176597,12.933594 98.327869,12.933594 C 147.47915,12.933594 187.37004,73.886874 187.37004,148.99002 C 187.37004,224.09318 135.9053,243.52503 98.327869,243.52503 C 60.750445,243.52503 9.285706,224.09318 9.285706,148.99002 z "
         style="opacity:1;fill:#ff2900;fill-opacity:1;stroke:none;stroke-width:8;stroke-linecap:round;stroke-linejoin:round;stroke-miterlimit:4;stroke-dashoffset:0;stroke-opacity:1" />
      <path
         style="opacity:0.54940712;fill:url(#radialGradient1446);fill-opacity:1;stroke:none;stroke-width:8;stroke-linecap:round;stroke-linejoin:round;stroke-miterlimit:4;stroke-dashoffset:0;stroke-opacity:1"
         d="M 9.285706,148.99002 C 9.285706,73.886874 49.176597,12.933594 98.327869,12.933594 C 147.47915,12.933594 187.37004,73.886874 187.37004,148.99002 C 187.37004,224.09318 135.9053,243.52503 98.327869,243.52503 C 60.750445,243.52503 9.285706,224.09318 9.285706,148.99002 z "
         id="path2183"
         sodipodi:nodetypes="csssc" />
      <path
         id="path3966"
         d="M 102.38152,60.959453 C 92.231318,81.763036 73.687616,93.61881 60.989324,87.423234 C 48.291033,81.227658 46.223014,59.315297 56.373212,38.511714 C 66.52341,17.708132 85.067113,5.8523583 97.765404,12.047934 C 110.4637,18.24351 112.53171,40.15587 102.38152,60.959453 z "
         style="opacity:0.63241104;fill:url(#radialGradient1448);fill-opacity:1;stroke:none;stroke-width:8;stroke-linecap:round;stroke-linejoin:round;stroke-miterlimit:4;stroke-dashoffset:0;stroke-opacity:1" />
      <path
         id="path4609"
         d="M 25.21875,71.3125 C 15.169534,93.342185 9.2812502,120.13002 9.28125,149 C 9.28125,224.10316 60.735079,243.53126 98.3125,243.53125 C 127.56689,243.53125 165.24755,231.74726 180.5,191.09375 C 168.85901,194.91948 156.41576,197 143.5,197 C 78.088,197 25,143.912 25,78.5 C 25,76.083175 25.075861,73.693621 25.21875,71.3125 z "
         style="opacity:1;fill:url(#radialGradient1450);fill-opacity:1;stroke:none;stroke-width:8;stroke-linecap:round;stroke-linejoin:round;stroke-miterlimit:4;stroke-dashoffset:0;stroke-opacity:1" />
      <path
         id="path3968"
         d="M 76.32746,198.04482 C 90.165501,204.05431 98.419339,215.78678 94.751211,224.23338 C 91.083083,232.67997 76.875175,234.65791 63.037138,228.64843 C 49.199096,222.63894 40.945257,210.90646 44.613387,202.45987 C 48.281517,194.01327 62.489422,192.03533 76.32746,198.04482 z "
         style="opacity:0.71146246;fill:url(#radialGradient1452);fill-opacity:1;stroke:none;stroke-width:8;stroke-linecap:round;stroke-linejoin:round;stroke-miterlimit:4;stroke-dashoffset:0;stroke-opacity:1" />
    </g>
    <g
       id="g6089"
       transform="matrix(0.600313,0,-0.383722,0.462471,108.4269,86.39261)">
      <path
         style="opacity:0.1;fill:#000000;fill-opacity:1;stroke:none;stroke-width:8;stroke-linecap:round;stroke-linejoin:round;stroke-miterlimit:4;stroke-dashoffset:0;stroke-opacity:1"
         d="M 216.15625,106.03125 C 191.99267,106.13092 169.21174,120.85352 158.1875,142.21875 C 144.23801,167.53573 141.23035,201.37635 158.28125,225.84375 C 174.8308,249.30387 204.43767,258.39624 231.4375,262.59375 C 262.31196,266.89956 296.02598,264.11864 322.1875,245.65625 C 338.91371,234.13541 348.4423,212.59585 343.875,192.6875 C 337.42662,163.07529 313.20595,141.1415 288,126.71875 C 265.92625,114.76545 241.45131,105.574 216.15625,106.03125 z "
         id="path6091" />
      <path
         style="opacity:0.1;fill:#000000;fill-opacity:1;stroke:none;stroke-width:8;stroke-linecap:round;stroke-linejoin:round;stroke-miterlimit:4;stroke-dashoffset:0;stroke-opacity:1"
         d="M 216.09375,104.90625 C 192.01277,105.066 169.19627,119.39119 157.84375,140.5625 C 142.8824,166.79377 139.60551,202.87073 158.59375,228.15625 C 175.44953,250.52828 204.15972,259.38157 230.3125,263.53125 C 262.16356,268.20447 297.04609,265.29686 323.75,245.875 C 341.11209,233.4075 350.14827,210.59572 344.40807,189.86756 C 336.49115,159.86001 311.25885,137.92909 284.78125,123.6875 C 263.51643,112.78918 240.18621,104.41997 216.09375,104.90625 z "
         id="path6096" />
      <path
         style="opacity:0.1;fill:#000000;fill-opacity:1;stroke:none;stroke-width:8;stroke-linecap:round;stroke-linejoin:round;stroke-miterlimit:4;stroke-dashoffset:0;stroke-opacity:1"
         d="M 216.0625,103.8125 C 191.59981,103.97181 168.69294,118.37067 157.0625,139.6875 C 141.64807,166.5103 138.45289,203.07066 157.6875,228.84375 C 174.95906,251.5804 203.96655,260.60289 231,264.75 C 262.74944,269.26495 297.69579,266.23887 324.40625,246.78125 C 341.83165,234.23287 351.08832,211.48562 345.71875,190.59375 C 338.44013,160.85369 313.9762,138.8235 288.25224,124.2931 C 266.12566,112.46604 241.38768,103.2914 216.0625,103.8125 z "
         id="path6101" />
      <path
         style="opacity:0.1;fill:#000000;fill-opacity:1;stroke:none;stroke-width:8;stroke-linecap:round;stroke-linejoin:round;stroke-miterlimit:4;stroke-dashoffset:0;stroke-opacity:1"
         d="M 216,102.6875 C 191.29654,102.85598 167.93477,117.45146 156.125,139.09375 C 140.92133,165.51362 137.30549,201.63311 155.5625,227.75 C 172.81199,252.2738 203.62531,261.7645 231.46875,265.9375 C 263.32205,270.40099 298.22625,267.14259 324.92169,247.77061 C 343.02706,234.82514 352.51698,211.16543 346.58346,189.40158 C 338.96432,160.07794 315.05338,138.34688 289.65625,123.8125 C 267.10866,111.59873 241.94841,102.20873 216,102.6875 z "
         id="path6106" />
      <path
         style="opacity:0.1;fill:#000000;fill-opacity:1;stroke:none;stroke-width:8;stroke-linecap:round;stroke-linejoin:round;stroke-miterlimit:4;stroke-dashoffset:0;stroke-opacity:1"
         d="M 215.96875,101.59375 C 195.07066,101.9419 174.72864,111.8365 162.01689,128.45512 C 149.61184,144.37409 142.9205,163.89179 142.1875,184.21875 C 141.30174,204.34127 148.77207,224.92954 163.5,238.75 C 181.65323,255.98693 206.93155,263.26828 230.59375,266.9375 C 260.36445,271.2075 292.78968,268.78509 319.21643,253.01069 C 335.44915,243.3992 348.34409,226.23325 349.22572,206.82076 C 350.63114,184.47981 338.65966,163.68008 323.53125,148.1875 C 300.84673,125.14149 270.60898,110.38489 239.09542,103.57649 C 231.55041,102.11103 223.71575,101.36511 215.96875,101.59375 z "
         id="path6111" />
      <path
         style="opacity:0.1;fill:#000000;fill-opacity:1;stroke:none;stroke-width:8;stroke-linecap:round;stroke-linejoin:round;stroke-miterlimit:4;stroke-dashoffset:0;stroke-opacity:1"
         d="M 215.9375,100.46875 C 194.96232,100.84 174.37626,110.69629 161.49282,127.33694 C 149.89171,141.96296 143.40549,159.39429 141.4375,178 C 139.09027,199.78794 145.67792,222.91663 161.5625,238.34375 C 177.75149,254.64418 200.38364,262.36136 222.1875,266.625 C 250.80166,272.15959 282.60177,271.46518 309.90949,259.16856 C 328.02683,251.20779 344.25869,236.18855 348.8893,216.32703 C 354.08774,195.78578 345.97506,174.19129 333.4375,157.9375 C 311.92605,130.24759 279.52099,112.74262 245.96875,103.96875 C 236.15843,101.52654 226.08876,100.14513 215.9375,100.46875 z "
         id="path6116" />
      <path
         style="opacity:0.1;fill:#000000;fill-opacity:1;stroke:none;stroke-width:8;stroke-linecap:round;stroke-linejoin:round;stroke-miterlimit:4;stroke-dashoffset:0;stroke-opacity:1"
         d="M 215.90625,99.375 C 190.60914,99.542015 166.61641,114.14679 154.07709,135.98119 C 138.29361,162.35131 133.79937,198.5876 150.5,226.09375 C 166.45083,252.27683 197.05526,263.39066 225.625,268.40625 C 259.45734,274.11047 297.29469,271.46404 326.09375,251.0625 C 344.80726,238.01651 355.48251,214.06971 350.4375,191.46875 C 343.94807,160.80859 319.38932,137.36983 293.25,122.03125 C 269.76604,108.88928 243.17523,98.847252 215.90625,99.375 z "
         id="path6121" />
      <path
         style="opacity:0.1;fill:#000000;fill-opacity:1;stroke:none;stroke-width:8;stroke-linecap:round;stroke-linejoin:round;stroke-miterlimit:4;stroke-dashoffset:0;stroke-opacity:1"
         d="M 215.875,98.25 C 190.18937,98.455022 165.79461,113.28167 153.13959,135.41869 C 137.06694,162.20968 132.6613,198.91988 149.5625,226.6875 C 167.67959,255.97249 202.89668,266.769 235.21875,270.90625 C 267.96489,274.70471 304.2531,270.3444 330.65625,248.84375 C 349.08897,234.18306 357.34088,208.35506 350.21875,185.78125 C 340.65407,153.80903 313.17268,130.58945 284.32432,115.92779 C 263.06794,105.62559 239.71215,97.626193 215.875,98.25 z "
         id="path6126" />
      <path
         style="opacity:0.1;fill:#000000;fill-opacity:1;stroke:none;stroke-width:8;stroke-linecap:round;stroke-linejoin:round;stroke-miterlimit:4;stroke-dashoffset:0;stroke-opacity:1"
         d="M 215.84375,97.15625 C 189.79795,97.326692 165.06317,112.38995 152.17084,134.85619 C 135.50255,162.55301 131.32811,201.24872 149.92462,229.33542 C 163.29946,249.79163 186.47567,261.38063 209.1875,267.03125 C 243.12692,275.95109 280.89749,276.42098 313.4375,261.21875 C 335.50566,251.15744 353.64556,229.77125 353.78125,204.6875 C 354.1972,174.22619 333.56718,148.17797 310.32357,130.68317 C 285.65792,112.65042 256.22895,100.10083 225.65826,97.342886 C 222.39214,97.1326 219.11568,97.074979 215.84375,97.15625 z "
         id="path6131" />
      <path
         style="opacity:0.1;fill:#000000;fill-opacity:1;stroke:none;stroke-width:8;stroke-linecap:round;stroke-linejoin:round;stroke-miterlimit:4;stroke-dashoffset:0;stroke-opacity:1"
         d="M 215.84375,96.03125 C 189.44157,96.245777 164.31507,111.43083 151.23334,134.26244 C 134.59154,161.83346 130.17539,200.75065 148.4375,229.125 C 157.92179,243.96402 172.72614,254.63082 188.375,261.25 C 217.611,272.98941 249.71475,277.23275 281.125,272.34375 C 308.79833,267.91518 338.06632,253.95787 349.96875,227.03125 C 360.81489,203.12224 352.51856,174.92482 336.96875,155.21875 C 312.26709,123.75456 274.29366,104.44333 235.4375,97.28125 C 228.96019,96.292774 222.40163,95.851896 215.84375,96.03125 z "
         id="path6136" />
    </g>
    <g
       id="g2312"
       transform="translate(-3.054893,3.665868)">
      <path
         style="opacity:0.1;fill:#000000;fill-opacity:1;fill-rule:evenodd;stroke:none;stroke-width:1px;stroke-linecap:butt;stroke-linejoin:miter;stroke-opacity:1"
         d="M 161.53125,111.6875 C 155.82412,112.01327 146.59299,112.44884 144.84375,119.25 C 145.95629,125.71604 153.80187,128.08524 159.0606,130.47806 C 168.38839,134.56855 178.49062,134.37106 188.375,134.34375 C 191.95175,135.34862 190.23246,129.28196 191,127.1875 C 192.31335,119.22512 182.7446,115.65465 176.6875,113.71875 C 171.7989,112.2985 166.67882,111.60984 161.53125,111.6875 z "
         id="path2314" />
      <path
         style="opacity:0.1;fill:#000000;fill-opacity:1;fill-rule:evenodd;stroke:none;stroke-width:1px;stroke-linecap:butt;stroke-linejoin:miter;stroke-opacity:1"
         d="M 161.5,110.5625 C 155.10911,110.83095 144.48898,111.82382 143.71875,119.875 C 146.16013,127.83276 156.09201,130.37999 163.0625,133 C 172.03475,136.28278 181.77045,135.14891 190.9375,135.46875 C 192.38337,129.49386 194.10199,121.34365 187.5625,117.59375 C 180.09507,112.39277 170.50538,110.53188 161.5,110.5625 z "
         id="path2319" />
      <path
         style="opacity:0.1;fill:#000000;fill-opacity:1;fill-rule:evenodd;stroke:none;stroke-width:1px;stroke-linecap:butt;stroke-linejoin:miter;stroke-opacity:1"
         d="M 161.46875,109.46875 C 154.49835,109.61007 143.32069,111.14181 142.59375,119.78125 C 144.61384,128.23228 154.70722,131.07227 161.86165,133.79531 C 171.45495,137.39725 181.74022,136.29334 191.65625,136.5625 C 193.40027,130.46718 195.46174,121.75703 189.03125,117.34375 C 181.22682,111.3616 171.03895,109.46527 161.46875,109.46875 z "
         id="path2324" />
      <path
         style="opacity:0.1;fill:#000000;fill-opacity:1;fill-rule:evenodd;stroke:none;stroke-width:1px;stroke-linecap:butt;stroke-linejoin:miter;stroke-opacity:1"
         d="M 161.4375,108.34375 C 153.80533,108.46853 142.19775,110.41087 141.46875,119.75 C 143.46534,129.17121 154.54125,132.21772 162.375,135.15625 C 171.90431,138.46315 182.19692,137.50135 192.0625,137.625 C 194.69971,133.50203 194.55386,127.58822 194.1875,122.78125 C 189.71552,112.20538 176.53888,109.63505 166.25327,108.48168 C 164.64996,108.40531 163.04401,108.24786 161.4375,108.34375 z "
         id="path2329" />
      <path
         style="opacity:0.1;fill:#000000;fill-opacity:1;fill-rule:evenodd;stroke:none;stroke-width:1px;stroke-linecap:butt;stroke-linejoin:miter;stroke-opacity:1"
         d="M 161.40625,107.25 C 154.15676,107.46582 144.9222,108.80414 141.28125,115.8125 C 138.12334,121.89004 143.8482,127.82162 148.90625,130.59375 C 159.61545,136.67752 172.21584,139.68888 184.59375,138.59375 C 187.73062,138.28491 193.15416,140.69085 194.21875,136.28125 C 195.08866,131.40092 196.49902,125.86964 194.75,121.09375 C 190.18285,112.32284 179.49871,109.3623 170.41999,107.85085 C 167.44386,107.39885 164.41643,107.18156 161.40625,107.25 z "
         id="path2334" />
      <path
         style="opacity:0.1;fill:#000000;fill-opacity:1;fill-rule:evenodd;stroke:none;stroke-width:1px;stroke-linecap:butt;stroke-linejoin:miter;stroke-opacity:1"
         d="M 161.40625,106.125 C 153.7182,106.34188 144.10886,107.86211 140.28125,115.34375 C 137.13733,121.24051 141.7608,127.52092 146.78125,130.53125 C 156.51552,136.66288 168.57556,140.15548 180.28125,139.875 C 184.70092,138.86479 189.63506,141.2995 193.71875,139.21875 C 196.92743,135.22005 196.17922,129.41099 196.6875,124.53125 C 196.01295,116.14333 187.31219,111.37482 180.0667,108.94932 C 174.04009,107.00497 167.75345,106.00472 161.40625,106.125 z "
         id="path2339" />
      <path
         style="opacity:0.1;fill:#000000;fill-opacity:1;fill-rule:evenodd;stroke:none;stroke-width:1px;stroke-linecap:butt;stroke-linejoin:miter;stroke-opacity:1"
         d="M 161.375,105.03125 C 152.20594,104.97622 139.36572,108.11479 138.1875,118.90625 C 138.28726,129.07914 149.47009,133.93319 157.5625,137.03125 C 167.16492,140.96583 177.61198,141.23028 187.84375,141 C 191.97418,142.20234 196.59952,139.89226 196.75,135.28125 C 198.25413,128.22404 199.07851,119.49467 192.625,114.5625 C 184.12783,107.39917 172.28734,105.00559 161.375,105.03125 z "
         id="path2344" />
      <path
         style="opacity:0.1;fill:#000000;fill-opacity:1;fill-rule:evenodd;stroke:none;stroke-width:1px;stroke-linecap:butt;stroke-linejoin:miter;stroke-opacity:1"
         d="M 161.34375,103.90625 C 151.83294,103.88512 138.9139,107.15293 137.15625,118.09375 C 136.31951,128.75544 147.77722,134.50318 156.24948,137.72438 C 166.20806,141.91413 177.09688,142.43588 187.75,142.125 C 192.44802,143.42921 197.57015,140.62283 197.84375,135.5 C 199.47279,128.03659 200.13382,118.92463 193.34375,113.71875 C 184.6021,106.35359 172.5151,103.89737 161.34375,103.90625 z "
         id="path2349" />
      <path
         style="opacity:0.1;fill:#000000;fill-opacity:1;fill-rule:evenodd;stroke:none;stroke-width:1px;stroke-linecap:butt;stroke-linejoin:miter;stroke-opacity:1"
         d="M 161.3125,102.8125 C 151.01778,102.64162 137.03932,106.78334 135.96875,118.8125 C 135.86811,130.01175 147.76252,135.81923 156.84375,139.125 C 166.65926,143.12173 177.21874,143.48146 187.65625,143.21875 C 192.90221,144.62992 198.56145,141.35598 198.9375,135.71875 C 200.65131,127.85251 201.15901,118.34216 194.0625,112.84375 C 185.09078,105.3486 172.76454,102.75328 161.3125,102.8125 z "
         id="path2354" />
      <path
         style="opacity:0.1;fill:#000000;fill-opacity:1;fill-rule:evenodd;stroke:none;stroke-width:1px;stroke-linecap:butt;stroke-linejoin:miter;stroke-opacity:1"
         d="M 161.28125,101.6875 C 150.69311,101.58186 136.67791,105.76272 134.9375,117.875 C 133.87554,129.57481 146.03606,136.33973 155.46823,139.81813 C 165.63688,144.03561 176.80122,144.71867 187.5625,144.3125 C 193.8935,146.1012 200.11808,141.30387 200.25,134.78125 C 201.92961,126.84951 201.83774,117.43845 194.75,112 C 185.61423,104.28137 172.96574,101.65725 161.28125,101.6875 z "
         id="path2359" />
    </g>
    <path
       sodipodi:nodetypes="csssc"
       id="path1334"
       d="M 159.75939,108.76736 C 202.12665,120.92789 230.05264,153.30059 222.09417,181.02786 C 214.13571,208.75513 173.29165,221.389 130.92439,209.22847 C 88.557115,197.06794 85.928256,164.88924 92.012705,143.69103 C 98.097154,122.49282 117.39212,96.606832 159.75939,108.76736 z "
       style="fill:#00dcff;fill-opacity:1;stroke:none;stroke-width:8;stroke-linecap:round;stroke-linejoin:round;stroke-miterlimit:4;stroke-dashoffset:0;stroke-opacity:1" />
    <path
       style="opacity:0.54940712;fill:url(#radialGradient2401);fill-opacity:1;stroke:none;stroke-width:8;stroke-linecap:round;stroke-linejoin:round;stroke-miterlimit:4;stroke-dashoffset:0;stroke-opacity:1"
       d="M 159.75939,108.76736 C 202.12665,120.92789 230.05264,153.30059 222.09417,181.02786 C 214.13571,208.75513 173.29165,221.389 130.92439,209.22847 C 88.557115,197.06794 85.928256,164.88924 92.012705,143.69103 C 98.097154,122.49282 117.39212,96.606832 159.75939,108.76736 z "
       id="path1336"
       sodipodi:nodetypes="csssc" />
    <path
       id="path1338"
       d="M 131.68442,141.27708 C 120.90727,149.54841 108.06309,150.92248 103.01436,144.34423 C 97.965632,137.76596 102.61478,125.71413 113.39193,117.44282 C 124.16908,109.1715 137.01326,107.79742 142.06199,114.37568 C 147.11072,120.95394 142.46156,133.00577 131.68442,141.27708 z "
       style="opacity:0.63241104;fill:url(#radialGradient2398);fill-opacity:1;stroke:none;stroke-width:8;stroke-linecap:round;stroke-linejoin:round;stroke-miterlimit:4;stroke-dashoffset:0;stroke-opacity:1" />
    <path
       id="path1342"
       d="M 129.67403,206.36998 C 117.93465,203.40354 109.87658,195.18045 111.68727,188.01485 C 113.49796,180.84926 124.4951,177.44126 136.23448,180.40768 C 147.97385,183.37412 156.03191,191.5972 154.22123,198.76279 C 152.41056,205.92839 141.41342,209.3364 129.67403,206.36998 z "
       style="opacity:0.71146246;fill:url(#radialGradient2395);fill-opacity:1;stroke:none;stroke-width:8;stroke-linecap:round;stroke-linejoin:round;stroke-miterlimit:4;stroke-dashoffset:0;stroke-opacity:1" />
    <path
       style="fill:url(#radialGradient2392);fill-opacity:1;stroke:none;stroke-width:8;stroke-linecap:round;stroke-linejoin:round;stroke-miterlimit:4;stroke-dashoffset:0;stroke-opacity:1"
       d="M 98.245159,129.15282 C 95.424891,133.91161 93.389062,138.92134 92.019632,143.69243 C 85.935184,164.89065 88.551858,197.06059 130.91913,209.22112 C 147.76012,214.05493 164.36543,214.98719 178.75528,212.59496 C 141.852,213.65083 87.092532,195.75524 98.245159,129.15282 z "
       id="path2253"
       sodipodi:nodetypes="csscc" />
  </g>
</svg>
