<?xml version="1.0" encoding="UTF-8" standalone="no"?>
<!DOCTYPE svg PUBLIC "-//W3C//DTD SVG 20010904//EN"
"http://www.w3.org/TR/2001/REC-SVG-20010904/DTD/svg10.dtd">
<!-- Created with Inkscape (http://www.inkscape.org/) -->
<svg
   id="svg1"
   sodipodi:version="0.32"
   inkscape:version="0.39"
   width="160.00000pt"
   height="160.00000pt"
   sodipodi:docbase="/home/nicu/Desktop"
   sodipodi:docname="jingle_bells.svg"
   xmlns="http://www.w3.org/2000/svg"
   xmlns:cc="http://web.resource.org/cc/"
   xmlns:inkscape="http://www.inkscape.org/namespaces/inkscape"
   xmlns:sodipodi="http://sodipodi.sourceforge.net/DTD/sodipodi-0.dtd"
   xmlns:rdf="http://www.w3.org/1999/02/22-rdf-syntax-ns#"
   xmlns:dc="http://purl.org/dc/elements/1.1/"
   xmlns:xlink="http://www.w3.org/1999/xlink">
  <defs
     id="defs3">
    <linearGradient
       id="linearGradient6593">
      <stop
         style="stop-color:#ff6600;stop-opacity:1.0000000;"
         offset="0.0000000"
         id="stop6594" />
      <stop
         style="stop-color:#960000;stop-opacity:1.0000000;"
         offset="1.0000000"
         id="stop6595" />
    </linearGradient>
    <linearGradient
       id="linearGradient5966">
      <stop
         style="stop-color:#009300;stop-opacity:1.0000000;"
         offset="0.0000000"
         id="stop5967" />
      <stop
         style="stop-color:#00bb4c;stop-opacity:1.0000000;"
         offset="1.0000000"
         id="stop5968" />
    </linearGradient>
    <linearGradient
       id="linearGradient5960">
      <stop
         style="stop-color:#006100;stop-opacity:1.0000000;"
         offset="0.0000000"
         id="stop5961" />
      <stop
         style="stop-color:#00ab00;stop-opacity:1.0000000;"
         offset="1.0000000"
         id="stop5962" />
    </linearGradient>
    <linearGradient
       id="linearGradient2187">
      <stop
         style="stop-color:#ff9900;stop-opacity:1.0000000;"
         offset="0.0000000"
         id="stop2188" />
      <stop
         style="stop-color:#ffcb00;stop-opacity:1.0000000;"
         offset="1.0000000"
         id="stop2190" />
    </linearGradient>
    <linearGradient
       id="linearGradient2180">
      <stop
         style="stop-color:#ffcb00;stop-opacity:1.0000000;"
         offset="0.0000000"
         id="stop2181" />
      <stop
         style="stop-color:#ffae00;stop-opacity:1.0000000;"
         offset="0.50000000"
         id="stop2184" />
      <stop
         style="stop-color:#ffcb00;stop-opacity:1.0000000;"
         offset="1.0000000"
         id="stop2182" />
    </linearGradient>
    <linearGradient
       inkscape:collect="always"
       xlink:href="#linearGradient2180"
       id="linearGradient2183"
       x1="0.031250000"
       y1="0.046875000"
       x2="0.90625000"
       y2="0.90625000" />
    <linearGradient
       inkscape:collect="always"
       xlink:href="#linearGradient2187"
       id="linearGradient2185"
       x1="-0.010638298"
       y1="0.10156250"
       x2="0.67021275"
       y2="0.93750000" />
    <linearGradient
       inkscape:collect="always"
       xlink:href="#linearGradient2187"
       id="linearGradient2186"
       x1="0.70588237"
       y1="0.65625000"
       x2="-4.5319651e-17"
       y2="0.11718750" />
    <linearGradient
       inkscape:collect="always"
       xlink:href="#linearGradient2187"
       id="linearGradient2812"
       x1="0.25000000"
       y1="0.15625000"
       x2="0.69166666"
       y2="0.46875000" />
    <linearGradient
       inkscape:collect="always"
       xlink:href="#linearGradient2180"
       id="linearGradient4059"
       x1="0.35416666"
       y1="0.14843750"
       x2="0.75000000"
       y2="0.63281250" />
    <linearGradient
       inkscape:collect="always"
       xlink:href="#linearGradient2187"
       id="linearGradient4684"
       x1="0.19565217"
       y1="0.49218750"
       x2="1.0217391"
       y2="0.51562500" />
    <linearGradient
       inkscape:collect="always"
       xlink:href="#linearGradient2187"
       id="linearGradient4685"
       x1="1.0357143"
       y1="0.33548388"
       x2="0.017857144"
       y2="0.34193549" />
    <linearGradient
       inkscape:collect="always"
       xlink:href="#linearGradient2187"
       id="linearGradient5327"
       x1="1.0000000"
       y1="0.13281250"
       x2="0.22580644"
       y2="0.64062500" />
    <linearGradient
       inkscape:collect="always"
       xlink:href="#linearGradient2187"
       id="linearGradient5328"
       x1="0.40793496"
       y1="0.13855031"
       x2="0.14095010"
       y2="0.77354926" />
    <linearGradient
       inkscape:collect="always"
       xlink:href="#linearGradient2180"
       id="linearGradient5329"
       x1="1.0696735"
       y1="0.027414195"
       x2="0.22122225"
       y2="1.0949317" />
    <linearGradient
       inkscape:collect="always"
       xlink:href="#linearGradient2187"
       id="linearGradient5330"
       x1="0.96205002"
       y1="0.73825002"
       x2="0.060496770"
       y2="0.087649524" />
    <linearGradient
       inkscape:collect="always"
       xlink:href="#linearGradient5960"
       id="linearGradient5959"
       x1="0.82608694"
       y1="1.0234375"
       x2="0.076086953"
       y2="4.0549161e-16" />
    <linearGradient
       inkscape:collect="always"
       xlink:href="#linearGradient5966"
       id="linearGradient5965"
       x1="0.97500002"
       y1="0.92968750"
       x2="0.037500001"
       y2="0.10937500" />
    <radialGradient
       inkscape:collect="always"
       xlink:href="#linearGradient6593"
       id="radialGradient6596"
       cx="0.23880596"
       cy="0.42968750"
       r="0.96441269"
       fx="0.23880596"
       fy="0.42968750" />
    <linearGradient
       inkscape:collect="always"
       xlink:href="#linearGradient5960"
       id="linearGradient7236"
       x1="0.17391305"
       y1="0.91406250"
       x2="0.65217394"
       y2="0.031250000" />
    <linearGradient
       inkscape:collect="always"
       xlink:href="#linearGradient5966"
       id="linearGradient7237"
       x1="0.20512821"
       y1="0.88281250"
       x2="0.70512819"
       y2="0.062500000" />
    <radialGradient
       inkscape:collect="always"
       xlink:href="#linearGradient6593"
       id="radialGradient7238"
       cx="0.61940300"
       cy="0.23437500"
       r="0.73674667"
       fx="0.61940300"
       fy="0.23437500" />
    <radialGradient
       inkscape:collect="always"
       xlink:href="#linearGradient6593"
       id="radialGradient7239"
       cx="0.92187500"
       cy="0.17968750"
       r="0.85955256"
       fx="0.92187500"
       fy="0.17968750" />
  </defs>
  <sodipodi:namedview
     id="base"
     pagecolor="#ffffff"
     bordercolor="#666666"
     borderopacity="1.0"
     inkscape:pageopacity="0.0"
     inkscape:pageshadow="2"
     inkscape:zoom="1.0000000"
     inkscape:cx="80.000000"
     inkscape:cy="80.000000"
     inkscape:window-width="1152"
     inkscape:window-height="793"
     inkscape:window-x="0"
     inkscape:window-y="25" />
  <metadata
     id="metadata4">
    <rdf:RDF
       id="RDF5">
      <cc:Work
         rdf:about=""
         id="Work6">
        <dc:format
           id="format7">image/svg+xml</dc:format>
        <dc:type
           id="type9"
           rdf:resource="http://purl.org/dc/dcmitype/StillImage" />
      </cc:Work>
    </rdf:RDF>
  </metadata>
  <g
     id="g7240"
     transform="matrix(0.897841,0.260575,-0.283661,0.824769,-26.45255,56.79117)">
    <path
       style="fill:url(#linearGradient5959);fill-opacity:1;fill-rule:evenodd;stroke:none;stroke-width:1.0000000pt;stroke-linecap:butt;stroke-linejoin:miter;stroke-opacity:1.0000000;"
       d="M -109.21988,46.338934 C -102.44072,64.416706 -79.843495,80.234758 -51.220355,72.702352 C -67.038406,87.013922 -54.986557,120.15650 -33.142582,117.89678 C -48.960633,134.46807 -32.389342,176.64954 -32.389342,176.64954 C -32.389342,176.64954 -76.077292,145.76669 -99.427748,157.06529 C -96.414786,141.24724 -99.427747,108.85790 -125.03792,109.61114 C -107.71339,99.065768 -102.44071,77.221795 -109.21988,46.338934 z "
       id="path6605"
       sodipodi:nodetypes="ccccccc"
       transform="matrix(-1.000000,0.000000,0.000000,1.000000,106.2863,-137.7442)" />
    <path
       style="fill:url(#linearGradient7236);fill-opacity:1;fill-rule:evenodd;stroke:none;stroke-width:1.0000000pt;stroke-linecap:butt;stroke-linejoin:miter;stroke-opacity:1.0000000;"
       d="M -109.21988,46.338934 C -102.44072,64.416706 -79.843495,80.234758 -51.220355,72.702352 C -67.038406,87.013922 -54.986557,120.15650 -33.142582,117.89678 C -48.960633,134.46807 -32.389342,176.64954 -32.389342,176.64954 C -32.389342,176.64954 -76.077292,145.76669 -99.427748,157.06529 C -96.414786,141.24724 -99.427747,108.85790 -125.03792,109.61114 C -107.71339,99.065768 -102.44071,77.221795 -109.21988,46.338934 z "
       id="path6606"
       sodipodi:nodetypes="ccccccc"
       transform="matrix(-1.000000,0.000000,0.000000,1.000000,106.2863,-137.7442)" />
    <path
       style="fill:url(#linearGradient7237);fill-opacity:1;fill-rule:evenodd;stroke:none;stroke-width:1.0000000pt;stroke-linecap:butt;stroke-linejoin:miter;stroke-opacity:1.0000000;"
       d="M -101.25000,67.500000 C -93.750000,87.500000 -73.750000,138.75000 -47.500000,157.50000 C -63.750000,121.25000 -86.250000,85.000000 -101.25000,67.500000 z "
       id="path6607"
       sodipodi:nodetypes="ccc"
       transform="matrix(-1.000000,0.000000,0.000000,1.000000,106.2863,-137.7442)" />
    <path
       style="fill:url(#radialGradient7238);fill-opacity:1.0000000;fill-rule:evenodd;stroke:none;stroke-width:1.0000000pt;stroke-linecap:butt;stroke-linejoin:miter;stroke-opacity:1.0000000;"
       d="M -55.183415,82.934606 C -55.183415,90.681977 -61.685488,96.969697 -69.696970,96.969697 C -77.708453,96.969697 -84.210526,90.681977 -84.210526,82.934606 C -84.210526,75.187238 -77.708453,68.899519 -69.696970,68.899519 C -61.685488,68.899519 -55.183415,75.187238 -55.183415,82.934606 z "
       id="path6608"
       transform="matrix(-1.000000,0.000000,0.000000,1.000000,106.2863,-137.7442)" />
    <path
       style="fill:url(#radialGradient7239);fill-opacity:1.0000000;fill-rule:evenodd;stroke:none;stroke-width:1.0000000pt;stroke-linecap:butt;stroke-linejoin:miter;stroke-opacity:1.0000000;"
       d="M -58.851675,146.57097 C -58.851675,152.99777 -64.067623,158.21372 -70.494416,158.21372 C -76.921210,158.21372 -82.137159,152.99777 -82.137159,146.57097 C -82.137159,140.14418 -76.921210,134.92823 -70.494416,134.92823 C -64.067623,134.92823 -58.851675,140.14418 -58.851675,146.57097 z "
       id="path6609"
       transform="matrix(-1.000000,0.000000,0.000000,1.000000,106.2863,-137.7442)" />
  </g>
  <g
     id="g6598"
     transform="matrix(0.941585,0.000000,0.000000,0.864953,131.9981,-20.23331)">
    <path
       style="fill:url(#linearGradient5959);fill-opacity:1;fill-rule:evenodd;stroke:none;stroke-width:1.0000000pt;stroke-linecap:butt;stroke-linejoin:miter;stroke-opacity:1.0000000;"
       d="M -109.21988,46.338934 C -102.44072,64.416706 -79.843495,80.234758 -51.220355,72.702352 C -67.038406,87.013922 -54.986557,120.15650 -33.142582,117.89678 C -48.960633,134.46807 -32.389342,176.64954 -32.389342,176.64954 C -32.389342,176.64954 -76.077292,145.76669 -99.427748,157.06529 C -96.414786,141.24724 -99.427747,108.85790 -125.03792,109.61114 C -107.71339,99.065768 -102.44071,77.221795 -109.21988,46.338934 z "
       id="path1551"
       sodipodi:nodetypes="ccccccc" />
    <path
       style="fill:url(#linearGradient5959);fill-opacity:1;fill-rule:evenodd;stroke:none;stroke-width:1.0000000pt;stroke-linecap:butt;stroke-linejoin:miter;stroke-opacity:1.0000000;"
       d="M -109.21988,46.338934 C -102.44072,64.416706 -79.843495,80.234758 -51.220355,72.702352 C -67.038406,87.013922 -54.986557,120.15650 -33.142582,117.89678 C -48.960633,134.46807 -32.389342,176.64954 -32.389342,176.64954 C -32.389342,176.64954 -76.077292,145.76669 -99.427748,157.06529 C -96.414786,141.24724 -99.427747,108.85790 -125.03792,109.61114 C -107.71339,99.065768 -102.44071,77.221795 -109.21988,46.338934 z "
       id="path5963"
       sodipodi:nodetypes="ccccccc" />
    <path
       style="fill:url(#linearGradient5965);fill-opacity:1;fill-rule:evenodd;stroke:none;stroke-width:1.0000000pt;stroke-linecap:butt;stroke-linejoin:miter;stroke-opacity:1.0000000;"
       d="M -101.25000,67.500000 C -93.750000,87.500000 -73.750000,138.75000 -47.500000,157.50000 C -63.750000,121.25000 -86.250000,85.000000 -101.25000,67.500000 z "
       id="path5964"
       sodipodi:nodetypes="ccc" />
    <path
       style="fill:url(#radialGradient6596);fill-opacity:1.0000000;fill-rule:evenodd;stroke:none;stroke-width:1.0000000pt;stroke-linecap:butt;stroke-linejoin:miter;stroke-opacity:1.0000000;"
       d="M -55.183415,82.934606 C -55.183415,90.681977 -61.685488,96.969697 -69.696970,96.969697 C -77.708453,96.969697 -84.210526,90.681977 -84.210526,82.934606 C -84.210526,75.187238 -77.708453,68.899519 -69.696970,68.899519 C -61.685488,68.899519 -55.183415,75.187238 -55.183415,82.934606 z "
       id="path5969" />
    <path
       style="fill:url(#radialGradient6596);fill-opacity:1.0000000;fill-rule:evenodd;stroke:none;stroke-width:1.0000000pt;stroke-linecap:butt;stroke-linejoin:miter;stroke-opacity:1.0000000;"
       d="M -58.851675,146.57097 C -58.851675,152.99777 -64.067623,158.21372 -70.494416,158.21372 C -76.921210,158.21372 -82.137159,152.99777 -82.137159,146.57097 C -82.137159,140.14418 -76.921210,134.92823 -70.494416,134.92823 C -64.067623,134.92823 -58.851675,140.14418 -58.851675,146.57097 z "
       id="path6597" />
  </g>
  <g
     id="g4686"
     transform="matrix(0.941585,0.000000,0.000000,0.864953,-3.947603,49.41429)">
    <path
       style="fill:url(#linearGradient2186);fill-opacity:1.0000000;fill-rule:evenodd;stroke:none;stroke-width:1.0000000pt;stroke-linecap:butt;stroke-linejoin:miter;stroke-opacity:1.0000000;"
       d="M 29.137959,44.899771 C 8.2674653,56.640001 7.2339413,129.33535 35.956938,149.67454 C 52.298235,134.65883 56.384975,72.682237 29.262959,44.993521 C 29.227740,44.955198 29.173046,44.938233 29.137959,44.899771 z "
       id="path1543"
       sodipodi:nodetypes="cccc" />
    <path
       style="fill:url(#linearGradient2812);fill-opacity:1;fill-rule:evenodd;stroke:none;stroke-width:1.0000000pt;stroke-linecap:butt;stroke-linejoin:miter;stroke-opacity:1.0000000;"
       d="M 48.353991,113.99925 C 36.228205,101.83190 20.169731,116.58020 26.724210,133.17204 C 36.228205,153.45096 63.101572,132.80334 48.353991,113.99925 z "
       id="path1545"
       sodipodi:nodetypes="ccc" />
    <path
       style="fill:url(#linearGradient2185);fill-opacity:1;fill-rule:evenodd;stroke:none;stroke-width:0.99999990pt;stroke-linecap:butt;stroke-linejoin:miter;stroke-opacity:1.0000000;"
       d="M 118.61150,83.861706 C 111.73262,75.682879 102.62276,85.596616 106.34107,96.749576 C 111.73262,110.38095 126.97770,96.501726 118.61150,83.861706 z "
       id="path1546"
       sodipodi:nodetypes="ccc" />
    <path
       style="fill:url(#linearGradient2183);fill-opacity:1.0000000;fill-rule:evenodd;stroke:none;stroke-width:1.0000000pt;stroke-linecap:butt;stroke-linejoin:miter;stroke-opacity:1.0000000;"
       d="M 28.989833,45.109450 C 57.768574,89.590053 47.299766,134.13582 35.833583,150.07820 C 55.224228,129.37035 83.670923,127.99639 91.208583,123.20320 C 98.746223,118.40999 109.23822,112.88815 107.92733,90.765700 C 106.28870,61.637803 77.122033,66.059326 70.239833,64.953200 C 63.368363,63.848809 41.778643,59.069748 28.989833,45.109450 z "
       id="path1553"
       sodipodi:nodetypes="cccccc" />
    <path
       style="fill:url(#linearGradient4059);fill-opacity:1.0000000;fill-rule:evenodd;stroke:none;stroke-width:1.0000000pt;stroke-linecap:butt;stroke-linejoin:miter;stroke-opacity:1.0000000;"
       d="M 65.796751,64.008473 C 72.989708,80.872836 76.840807,109.23923 71.953001,129.53972 C 79.312871,127.30502 85.693821,125.71062 89.390501,124.07097 C 94.240235,103.46586 88.808997,79.676403 83.171751,65.789723 C 77.631211,65.153504 72.638861,65.353653 70.296751,64.977223 C 69.270411,64.812269 67.401421,64.355734 65.796751,64.008473 z "
       id="path3434"
       sodipodi:nodetypes="cccccc" />
    <path
       style="fill:url(#linearGradient4684);fill-opacity:1.0000000;fill-rule:evenodd;stroke:url(#linearGradient4685);stroke-width:1.1080870pt;stroke-linecap:butt;stroke-linejoin:miter;stroke-opacity:1.0000000;"
       d="M 82.789424,66.956540 L 71.295903,83.256081 C 71.483233,84.165149 71.688403,85.049053 71.858403,85.974831 L 84.858403,94.724831 L 74.014653,111.88108 C 73.996313,112.74988 73.991023,113.61455 73.952153,114.47483 L 89.702153,122.38108 C 89.948653,121.14131 90.180213,119.88741 90.358403,118.63108 L 78.139653,111.97483 L 89.327153,93.474831 L 75.264653,83.881081 L 84.639653,70.881081 C 84.118583,69.401238 83.322704,68.270219 82.789424,66.956540 z "
       id="path4060"
       sodipodi:nodetypes="ccccccccccccc" />
  </g>
  <g
     id="g5331"
     transform="matrix(0.941585,0.000000,0.000000,0.864953,-26.59558,112.2010)">
    <path
       style="fill:url(#linearGradient5328);fill-opacity:1.0000000;fill-rule:evenodd;stroke:none;stroke-width:1.0000000pt;stroke-linecap:butt;stroke-linejoin:miter;stroke-opacity:1.0000000;"
       d="M 29.137959,44.899771 C 8.2674653,56.640001 7.2339413,129.33535 35.956938,149.67454 C 52.298235,134.65883 56.384975,72.682237 29.262959,44.993521 C 29.227740,44.955198 29.173046,44.938233 29.137959,44.899771 z "
       id="path4694"
       sodipodi:nodetypes="cccc"
       transform="matrix(-0.951745,-0.306891,0.306891,-0.951745,210.5529,127.2429)" />
    <path
       style="fill:url(#linearGradient5327);fill-opacity:1;fill-rule:evenodd;stroke:none;stroke-width:1.0000000pt;stroke-linecap:butt;stroke-linejoin:miter;stroke-opacity:1.0000000;"
       d="M 188.77854,58.068566 C 196.58515,73.370074 216.39484,64.261653 215.24853,46.458947 C 212.42657,24.241887 180.51341,35.645970 188.77854,58.068566 z "
       id="path4695"
       sodipodi:nodetypes="ccc" />
    <path
       style="fill:url(#linearGradient5330);fill-opacity:1;fill-rule:evenodd;stroke:none;stroke-width:0.99999990pt;stroke-linecap:butt;stroke-linejoin:miter;stroke-opacity:1.0000000;"
       d="M 118.61150,83.861706 C 111.73262,75.682879 102.62276,85.596616 106.34107,96.749576 C 111.73262,110.38095 126.97770,96.501726 118.61150,83.861706 z "
       id="path4696"
       sodipodi:nodetypes="ccc"
       transform="matrix(-0.951745,-0.306891,0.306891,-0.951745,210.5529,127.2429)" />
    <path
       style="fill:url(#linearGradient5329);fill-opacity:1.0000000;fill-rule:evenodd;stroke:none;stroke-width:1.0000000pt;stroke-linecap:butt;stroke-linejoin:miter;stroke-opacity:1.0000000;"
       d="M 28.989833,45.109450 C 57.768574,89.590053 47.299766,134.13582 35.833583,150.07820 C 55.224228,129.37035 83.670923,127.99639 91.208583,123.20320 C 98.746223,118.40999 109.23822,112.88815 107.92733,90.765700 C 106.28870,61.637803 77.122033,66.059326 70.239833,64.953200 C 63.368363,63.848809 41.778643,59.069748 28.989833,45.109450 z "
       id="path4697"
       sodipodi:nodetypes="cccccc"
       transform="matrix(-0.951745,-0.306891,0.306891,-0.951745,210.5529,127.2429)" />
    <path
       style="fill:url(#linearGradient4059);fill-opacity:1.0000000;fill-rule:evenodd;stroke:none;stroke-width:1.0000000pt;stroke-linecap:butt;stroke-linejoin:miter;stroke-opacity:1.0000000;"
       d="M 65.796751,64.008473 C 72.989708,80.872836 76.840807,109.23923 71.953001,129.53972 C 79.312871,127.30502 85.693821,125.71062 89.390501,124.07097 C 94.240235,103.46586 88.808997,79.676403 83.171751,65.789723 C 77.631211,65.153504 72.638861,65.353653 70.296751,64.977223 C 69.270411,64.812269 67.401421,64.355734 65.796751,64.008473 z "
       id="path4698"
       sodipodi:nodetypes="cccccc"
       transform="matrix(-0.951745,-0.306891,0.306891,-0.951745,210.5529,127.2429)" />
    <path
       style="fill:url(#linearGradient4684);fill-opacity:1.0000000;fill-rule:evenodd;stroke:url(#linearGradient4685);stroke-width:1.1080870pt;stroke-linecap:butt;stroke-linejoin:miter;stroke-opacity:1.0000000;"
       d="M 83.402078,67.229341 L 71.295903,83.256081 C 71.483233,84.165149 71.688403,85.049053 71.858403,85.974831 L 84.858403,94.724831 L 74.014653,111.88108 C 73.996313,112.74988 73.991023,113.61455 73.952153,114.47483 L 89.702153,122.38108 C 89.948653,121.14131 90.180213,119.88741 90.358403,118.63108 L 78.139653,111.97483 L 89.327153,93.474831 L 75.264653,83.881081 L 84.639653,70.881081 C 84.118583,69.401238 83.935358,68.543020 83.402078,67.229341 z "
       id="path4699"
       transform="matrix(-0.951745,-0.306891,0.306891,-0.951745,210.5529,127.2429)"
       sodipodi:nodetypes="ccccccccccccc" />
  </g>
</svg>
