<?xml version="1.0" encoding="UTF-8" standalone="no"?>
<!DOCTYPE svg PUBLIC "-//W3C//DTD SVG 20010904//EN"
"http://www.w3.org/TR/2001/REC-SVG-20010904/DTD/svg10.dtd">
<!-- Created with Inkscape (http://www.inkscape.org/) -->
<svg
   id="svg1"
   sodipodi:version="0.32"
   inkscape:version="0.39"
   width="120.00000pt"
   height="80.000000pt"
   sodipodi:docbase="/home/nicu/Desktop/winter"
   sodipodi:docname="leaf.svg"
   xmlns="http://www.w3.org/2000/svg"
   xmlns:cc="http://web.resource.org/cc/"
   xmlns:inkscape="http://www.inkscape.org/namespaces/inkscape"
   xmlns:sodipodi="http://sodipodi.sourceforge.net/DTD/sodipodi-0.dtd"
   xmlns:rdf="http://www.w3.org/1999/02/22-rdf-syntax-ns#"
   xmlns:dc="http://purl.org/dc/elements/1.1/"
   xmlns:xlink="http://www.w3.org/1999/xlink">
  <defs
     id="defs3">
    <linearGradient
       id="linearGradient6593">
      <stop
         style="stop-color:#ff6600;stop-opacity:1.0000000;"
         offset="0.0000000"
         id="stop6594" />
      <stop
         style="stop-color:#960000;stop-opacity:1.0000000;"
         offset="1.0000000"
         id="stop6595" />
    </linearGradient>
    <linearGradient
       id="linearGradient5966">
      <stop
         style="stop-color:#009300;stop-opacity:1.0000000;"
         offset="0.0000000"
         id="stop5967" />
      <stop
         style="stop-color:#00bb4c;stop-opacity:1.0000000;"
         offset="1.0000000"
         id="stop5968" />
    </linearGradient>
    <linearGradient
       id="linearGradient5960">
      <stop
         style="stop-color:#006100;stop-opacity:1.0000000;"
         offset="0.0000000"
         id="stop5961" />
      <stop
         style="stop-color:#00ab00;stop-opacity:1.0000000;"
         offset="1.0000000"
         id="stop5962" />
    </linearGradient>
    <linearGradient
       id="linearGradient2187">
      <stop
         style="stop-color:#ff9900;stop-opacity:1.0000000;"
         offset="0.0000000"
         id="stop2188" />
      <stop
         style="stop-color:#ffcb00;stop-opacity:1.0000000;"
         offset="1.0000000"
         id="stop2190" />
    </linearGradient>
    <linearGradient
       id="linearGradient2180">
      <stop
         style="stop-color:#ffcb00;stop-opacity:1.0000000;"
         offset="0.0000000"
         id="stop2181" />
      <stop
         style="stop-color:#ffae00;stop-opacity:1.0000000;"
         offset="0.50000000"
         id="stop2184" />
      <stop
         style="stop-color:#ffcb00;stop-opacity:1.0000000;"
         offset="1.0000000"
         id="stop2182" />
    </linearGradient>
    <linearGradient
       inkscape:collect="always"
       xlink:href="#linearGradient5960"
       id="linearGradient5959"
       x1="0.82608694"
       y1="1.0234375"
       x2="0.076086953"
       y2="4.0549161e-16" />
    <linearGradient
       inkscape:collect="always"
       xlink:href="#linearGradient5960"
       id="linearGradient7236"
       x1="0.17391305"
       y1="0.91406250"
       x2="0.65217394"
       y2="0.031250000" />
    <linearGradient
       inkscape:collect="always"
       xlink:href="#linearGradient5966"
       id="linearGradient7237"
       x1="0.20512821"
       y1="0.88281250"
       x2="0.70512819"
       y2="0.062500000" />
    <radialGradient
       inkscape:collect="always"
       xlink:href="#linearGradient6593"
       id="radialGradient7238"
       cx="0.61940300"
       cy="0.23437500"
       r="0.73674667"
       fx="0.61940300"
       fy="0.23437500" />
    <radialGradient
       inkscape:collect="always"
       xlink:href="#linearGradient6593"
       id="radialGradient7239"
       cx="0.92187500"
       cy="0.17968750"
       r="0.85955256"
       fx="0.92187500"
       fy="0.17968750" />
  </defs>
  <sodipodi:namedview
     id="base"
     pagecolor="#ffffff"
     bordercolor="#666666"
     borderopacity="1.0"
     inkscape:pageopacity="0.0"
     inkscape:pageshadow="2"
     inkscape:zoom="1.0000000"
     inkscape:cx="80.000000"
     inkscape:cy="80.000000"
     inkscape:window-width="1152"
     inkscape:window-height="793"
     inkscape:window-x="0"
     inkscape:window-y="25" />
  <metadata
     id="metadata4">
    <rdf:RDF
       id="RDF5">
      <cc:Work
         rdf:about=""
         id="Work6">
        <dc:format
           id="format7">image/svg+xml</dc:format>
        <dc:type
           id="type9"
           rdf:resource="http://purl.org/dc/dcmitype/StillImage" />
      </cc:Work>
    </rdf:RDF>
  </metadata>
  <g
     id="g7240"
     transform="matrix(0.552111,0.754448,-0.728130,0.480139,-40.24249,-79.57893)">
    <path
       style="fill:url(#linearGradient5959);fill-opacity:1;fill-rule:evenodd;stroke:none;stroke-width:1.0000000pt;stroke-linecap:butt;stroke-linejoin:miter;stroke-opacity:1.0000000;"
       d="M -109.21988,46.338934 C -102.44072,64.416706 -79.843495,80.234758 -51.220355,72.702352 C -67.038406,87.013922 -54.986557,120.15650 -33.142582,117.89678 C -48.960633,134.46807 -32.389342,176.64954 -32.389342,176.64954 C -32.389342,176.64954 -76.077292,145.76669 -99.427748,157.06529 C -96.414786,141.24724 -99.427747,108.85790 -125.03792,109.61114 C -107.71339,99.065768 -102.44071,77.221795 -109.21988,46.338934 z "
       id="path6605"
       sodipodi:nodetypes="ccccccc"
       transform="matrix(-1.000000,0.000000,0.000000,1.000000,106.2863,-137.7442)" />
    <path
       style="fill:url(#linearGradient7236);fill-opacity:1;fill-rule:evenodd;stroke:none;stroke-width:1.0000000pt;stroke-linecap:butt;stroke-linejoin:miter;stroke-opacity:1.0000000;"
       d="M -109.21988,46.338934 C -102.44072,64.416706 -79.843495,80.234758 -51.220355,72.702352 C -67.038406,87.013922 -54.986557,120.15650 -33.142582,117.89678 C -48.960633,134.46807 -32.389342,176.64954 -32.389342,176.64954 C -32.389342,176.64954 -76.077292,145.76669 -99.427748,157.06529 C -96.414786,141.24724 -99.427747,108.85790 -125.03792,109.61114 C -107.71339,99.065768 -102.44071,77.221795 -109.21988,46.338934 z "
       id="path6606"
       sodipodi:nodetypes="ccccccc"
       transform="matrix(-1.000000,0.000000,0.000000,1.000000,106.2863,-137.7442)" />
    <path
       style="fill:url(#linearGradient7237);fill-opacity:1;fill-rule:evenodd;stroke:none;stroke-width:1.0000000pt;stroke-linecap:butt;stroke-linejoin:miter;stroke-opacity:1.0000000;"
       d="M -101.25000,67.500000 C -93.750000,87.500000 -73.750000,138.75000 -47.500000,157.50000 C -63.750000,121.25000 -86.250000,85.000000 -101.25000,67.500000 z "
       id="path6607"
       sodipodi:nodetypes="ccc"
       transform="matrix(-1.000000,0.000000,0.000000,1.000000,106.2863,-137.7442)" />
    <path
       style="fill:url(#radialGradient7238);fill-opacity:1.0000000;fill-rule:evenodd;stroke:none;stroke-width:1.0000000pt;stroke-linecap:butt;stroke-linejoin:miter;stroke-opacity:1.0000000;"
       d="M -55.183415,82.934606 C -55.183415,90.681977 -61.685488,96.969697 -69.696970,96.969697 C -77.708453,96.969697 -84.210526,90.681977 -84.210526,82.934606 C -84.210526,75.187238 -77.708453,68.899519 -69.696970,68.899519 C -61.685488,68.899519 -55.183415,75.187238 -55.183415,82.934606 z "
       id="path6608"
       transform="matrix(-1.000000,0.000000,0.000000,1.000000,106.2863,-137.7442)" />
    <path
       style="fill:url(#radialGradient7239);fill-opacity:1.0000000;fill-rule:evenodd;stroke:none;stroke-width:1.0000000pt;stroke-linecap:butt;stroke-linejoin:miter;stroke-opacity:1.0000000;"
       d="M -58.851675,146.57097 C -58.851675,152.99777 -64.067623,158.21372 -70.494416,158.21372 C -76.921210,158.21372 -82.137159,152.99777 -82.137159,146.57097 C -82.137159,140.14418 -76.921210,134.92823 -70.494416,134.92823 C -64.067623,134.92823 -58.851675,140.14418 -58.851675,146.57097 z "
       id="path6609"
       transform="matrix(-1.000000,0.000000,0.000000,1.000000,106.2863,-137.7442)" />
  </g>
</svg>
