<?xml version="1.0" encoding="UTF-8" standalone="no"?>
<!-- Created with Inkscape (http://www.inkscape.org/) -->
<svg
   xmlns:dc="http://purl.org/dc/elements/1.1/"
   xmlns:cc="http://web.resource.org/cc/"
   xmlns:rdf="http://www.w3.org/1999/02/22-rdf-syntax-ns#"
   xmlns:svg="http://www.w3.org/2000/svg"
   xmlns="http://www.w3.org/2000/svg"
   xmlns:xlink="http://www.w3.org/1999/xlink"
   xmlns:sodipodi="http://sodipodi.sourceforge.net/DTD/sodipodi-0.dtd"
   xmlns:inkscape="http://www.inkscape.org/namespaces/inkscape"
   width="240"
   height="240"
   id="svg2"
   sodipodi:version="0.32"
   inkscape:version="0.45.1"
   version="1.0"
   sodipodi:docbase="/home/nicu/Desktop/svg"
   sodipodi:docname="vicious_easter.svg"
   inkscape:output_extension="org.inkscape.output.svg.inkscape"
   inkscape:export-filename="/home/nicu/Desktop/svg/vicious_easter.png"
   inkscape:export-xdpi="48"
   inkscape:export-ydpi="48">
  <defs
     id="defs4">
    <radialGradient
       gradientUnits="userSpaceOnUse"
       gradientTransform="matrix(1.3002216,1.6915989e-2,-1.6091003e-2,1.2368102,-18.689175,-26.924414)"
       r="57.437004"
       fy="100.17404"
       fx="99.515228"
       cy="100.17404"
       cx="99.515228"
       id="radialGradient2199"
       xlink:href="#linearGradient2227"
       inkscape:collect="always" />
    <radialGradient
       gradientUnits="userSpaceOnUse"
       gradientTransform="matrix(1.5501333,1.0621529,-1.3762716,2.0085689,113.65738,-191.9497)"
       r="61.021015"
       fy="116.69304"
       fx="67.449249"
       cy="116.69304"
       cx="67.449249"
       id="radialGradient2235"
       xlink:href="#linearGradient2227"
       inkscape:collect="always" />
    <linearGradient
       id="linearGradient2227">
      <stop
         id="stop2229"
         offset="0"
         style="stop-color:#000000;stop-opacity:0;" />
      <stop
         id="stop2231"
         offset="1"
         style="stop-color:#000000;stop-opacity:0.5356037;" />
    </linearGradient>
    <radialGradient
       gradientUnits="userSpaceOnUse"
       gradientTransform="matrix(1.3686911,1.1928496e-2,-1.6883082e-2,1.9371865,-29.36187,-73.580522)"
       r="67.8125"
       fy="73.415955"
       fx="83"
       cy="73.415955"
       cx="83"
       id="radialGradient2244"
       xlink:href="#linearGradient2227"
       inkscape:collect="always" />
    <radialGradient
       gradientUnits="userSpaceOnUse"
       gradientTransform="matrix(2.6520492,-7.2881779e-2,7.6570567e-2,2.7862783,-128.71104,-219.06111)"
       r="67.8125"
       fy="127.50964"
       fx="72"
       cy="127.50964"
       cx="72"
       id="radialGradient2240"
       xlink:href="#linearGradient2227"
       inkscape:collect="always" />
    <linearGradient
       id="linearGradient2223">
      <stop
         id="stop2225"
         offset="0"
         style="stop-color:#000000;stop-opacity:0;" />
      <stop
         id="stop2227"
         offset="1"
         style="stop-color:#000000;stop-opacity:0.5356037;" />
    </linearGradient>
    <radialGradient
       gradientUnits="userSpaceOnUse"
       gradientTransform="matrix(2.2726371,0.7525437,-0.9385961,2.8345137,-40.622012,-268.34073)"
       r="50.587826"
       fy="94.004463"
       fx="93.63131"
       cy="94.004463"
       cx="93.63131"
       id="radialGradient2203"
       xlink:href="#linearGradient2185"
       inkscape:collect="always" />
    <radialGradient
       r="57.234375"
       fy="135.72882"
       fx="91.523315"
       cy="135.72882"
       cx="91.523315"
       gradientTransform="matrix(3.973827,2.8623939,-4.1097887,5.7057941,208.04106,-941.87486)"
       gradientUnits="userSpaceOnUse"
       id="radialGradient7499"
       xlink:href="#linearGradient2185"
       inkscape:collect="always" />
    <filter
       id="filter6396"
       height="1.241912"
       y="-0.120956"
       width="1.256899"
       x="-0.12844948"
       inkscape:collect="always">
      <feGaussianBlur
         id="feGaussianBlur6398"
         stdDeviation="1.6801218"
         inkscape:collect="always" />
    </filter>
    <linearGradient
       id="linearGradient2185">
      <stop
         id="stop2187"
         offset="0"
         style="stop-color:#000000;stop-opacity:0;" />
      <stop
         id="stop2189"
         offset="1"
         style="stop-color:#000000;stop-opacity:1;" />
    </linearGradient>
    <linearGradient
       id="linearGradient3213">
      <stop
         id="stop3215"
         offset="0"
         style="stop-color:#c15e1d;stop-opacity:1;" />
      <stop
         id="stop3217"
         offset="1"
         style="stop-color:#803300;stop-opacity:1;" />
    </linearGradient>
    <filter
       inkscape:collect="always"
       x="-0.084846766"
       width="1.1696935"
       y="-0.13742782"
       height="1.2748556"
       id="filter3369">
      <feGaussianBlur
         inkscape:collect="always"
         stdDeviation="7.8842055"
         id="feGaussianBlur3371" />
    </filter>
    <filter
       inkscape:collect="always"
       x="-0.39367682"
       width="1.7873536"
       y="-0.20412872"
       height="1.4082574"
       id="filter3268">
      <feGaussianBlur
         inkscape:collect="always"
         stdDeviation="3.0460659"
         id="feGaussianBlur3270" />
    </filter>
    <filter
       inkscape:collect="always"
       x="-0.55719835"
       width="2.1143967"
       y="-0.32823725"
       height="1.6564745"
       id="filter3344">
      <feGaussianBlur
         inkscape:collect="always"
         stdDeviation="3.35607"
         id="feGaussianBlur3346" />
    </filter>
    <filter
       inkscape:collect="always"
       x="-0.44104691"
       width="1.8820938"
       y="-0.27792816"
       height="1.5558563"
       id="filter3404">
      <feGaussianBlur
         inkscape:collect="always"
         stdDeviation="7.8943862"
         id="feGaussianBlur3406" />
    </filter>
    <filter
       inkscape:collect="always"
       x="-0.47509725"
       width="1.9501945"
       y="-0.16290861"
       height="1.3258172"
       id="filter3432">
      <feGaussianBlur
         inkscape:collect="always"
         stdDeviation="4.4637806"
         id="feGaussianBlur3434" />
    </filter>
    <filter
       inkscape:collect="always"
       x="-0.31401381"
       width="1.6280276"
       y="-0.34300297"
       height="1.6860059"
       id="filter3444">
      <feGaussianBlur
         inkscape:collect="always"
         stdDeviation="4.109797"
         id="feGaussianBlur3446" />
    </filter>
    <filter
       inkscape:collect="always"
       x="-0.66463824"
       width="2.3292765"
       y="-0.47028404"
       height="1.9405681"
       id="filter3224">
      <feGaussianBlur
         inkscape:collect="always"
         stdDeviation="7.0344435"
         id="feGaussianBlur3226" />
    </filter>
  </defs>
  <sodipodi:namedview
     id="base"
     pagecolor="#ffffff"
     bordercolor="#666666"
     borderopacity="1.0"
     gridtolerance="10000"
     guidetolerance="10"
     objecttolerance="10"
     inkscape:pageopacity="0.0"
     inkscape:pageshadow="2"
     inkscape:zoom="1"
     inkscape:cx="120"
     inkscape:cy="119"
     inkscape:document-units="px"
     inkscape:current-layer="g2235"
     width="240px"
     height="240px"
     inkscape:window-width="778"
     inkscape:window-height="620"
     inkscape:window-x="320"
     inkscape:window-y="86" />
  <metadata
     id="metadata7">
    <rdf:RDF>
      <cc:Work
         rdf:about="">
        <dc:format>image/svg+xml</dc:format>
        <dc:type
           rdf:resource="http://purl.org/dc/dcmitype/StillImage" />
      </cc:Work>
    </rdf:RDF>
  </metadata>
  <g
     inkscape:label="Layer 1"
     inkscape:groupmode="layer"
     id="layer1">
    <path
       style="opacity:1;fill:#000000;fill-opacity:0.77900552;stroke:none;stroke-width:1;stroke-linecap:round;stroke-linejoin:bevel;stroke-miterlimit:4;stroke-dasharray:none;stroke-dashoffset:0;stroke-opacity:1;filter:url(#filter3369)"
       d="M 171.09375,91.3125 C 140.00687,91.3125 114.78127,104.84323 112.21875,122.1875 C 101.28116,117.67039 87.904136,115 73.5,115 C 37.344,115 8.448,131.8 9,152.5 C 9.5028758,171.35784 34.289832,186.96276 66.03125,189.59375 C 65.993191,190.22245 65.983028,190.86356 66,191.5 C 66.552,212.2 96.343999,229 132.5,229 C 168.656,229 197.552,212.2 197,191.5 C 196.64259,178.09699 184.00862,166.34992 165.34375,159.71875 C 167.82973,159.89796 170.34056,160 172.90625,160 C 206.02661,160 232.50565,144.61829 232,125.65625 C 231.49435,106.69421 204.21412,91.312501 171.09375,91.3125 z "
       id="path2353" />
    <g
       id="g2235"
       inkscape:label="Layer 1"
       transform="matrix(0.8246472,0,0,0.8246472,89.81952,6.7451)">
      <path
         sodipodi:nodetypes="ccccccccccccccssccccccccccscccc"
         style="fill:#4d4d4d;fill-opacity:1;stroke:none;stroke-width:1;stroke-linecap:round;stroke-linejoin:bevel;stroke-miterlimit:4;stroke-dashoffset:0;stroke-opacity:1"
         d="M 134,22.9375 L 128.12678,19.801975 L 121.19547,15.321953 L 114.51374,22.386371 L 106.06048,17.075652 L 95.206232,35.93314 L 84.920412,36.252228 L 74.664421,24.899275 L 64.61739,40.440253 L 67.883769,48.242427 L 58.411668,48.205434 L 54.710168,61.005343 L 47.401892,57.13581 L 39.28125,68.5 C 35.373701,80.444587 33.1875,93.046203 33.1875,105.15625 C 33.1875,149.85478 57.385967,175.00001 101,175 C 136.44207,175 159.85063,157.58312 166.71875,126 L 159.50016,119.36448 L 148.88391,129.97927 L 144.32026,120.88882 L 131.59784,121.59079 L 145.89459,114.74482 L 153.87678,119.69624 L 158.82983,114.72409 L 164.47733,116.72053 L 168.1875,116.9375 C 168.60365,113.17943 168.8125,109.24602 168.8125,105.15625 C 168.8125,92.850978 166.49548,80.04672 162.375,67.9375 L 156.52267,63.006962 L 157.625,56 C 151.63284,42.968007 143.5246,31.354298 134,22.9375 z "
         id="path2248" />
      <path
         sodipodi:nodetypes="ccccccccccccccssccccccccccscccc"
         style="fill:#b3b3b3;fill-opacity:1;stroke:none;stroke-width:1;stroke-linecap:round;stroke-linejoin:bevel;stroke-miterlimit:4;stroke-dashoffset:0;stroke-opacity:1"
         d="M 134,22.9375 L 128.12678,19.801975 L 122.36788,16.259877 L 114.74822,23.558776 L 106.76392,18.248057 L 95.675194,37.340026 L 84.216969,38.128076 L 73.960978,26.540642 L 64.61739,40.440253 L 67.649288,49.414832 L 57.708225,50.081282 L 54.710168,61.005343 L 45.760525,59.011658 L 39.28125,68.5 C 35.373701,80.444587 33.1875,93.046203 33.1875,105.15625 C 33.1875,149.85478 57.385967,175.00001 101,175 C 136.44207,175 159.85063,157.58312 166.71875,126 L 159.50016,119.36448 L 148.88391,129.97927 L 144.32026,120.88882 L 131.59784,121.59079 L 145.89459,114.74482 L 153.87678,119.69624 L 158.82983,114.72409 L 164.47733,116.72053 L 168.1875,116.9375 C 168.60365,113.17943 168.8125,109.24602 168.8125,105.15625 C 168.8125,92.850978 166.49548,80.04672 162.375,67.9375 L 156.52267,63.006962 L 157.625,56 C 151.63284,42.968007 143.5246,31.354298 134,22.9375 z "
         id="path2236" />
      <path
         id="path2242"
         d="M 134,22.9375 L 128.12678,19.801975 L 122.36788,16.259877 L 114.74822,23.558776 L 106.76392,18.248057 L 95.675194,37.340026 L 84.216969,38.128076 L 73.960978,26.540642 L 64.61739,40.440253 L 67.649288,49.414832 L 57.708225,50.081282 L 54.710168,61.005343 L 45.760525,59.011658 L 39.28125,68.5 C 35.373701,80.444587 33.1875,93.046203 33.1875,105.15625 C 33.1875,149.85478 57.385967,175.00001 101,175 C 136.44207,175 159.85063,157.58312 166.71875,126 L 159.50016,119.36448 L 148.88391,129.97927 L 144.32026,120.88882 L 131.59784,121.59079 L 145.89459,114.74482 L 153.87678,119.69624 L 158.82983,114.72409 L 164.47733,116.72053 L 168.1875,116.9375 C 168.60365,113.17943 168.8125,109.24602 168.8125,105.15625 C 168.8125,92.850978 166.49548,80.04672 162.375,67.9375 L 156.52267,63.006962 L 157.625,56 C 151.63284,42.968007 143.5246,31.354298 134,22.9375 z "
         style="fill:url(#radialGradient2244);fill-opacity:1;stroke:none;stroke-width:1;stroke-linecap:round;stroke-linejoin:bevel;stroke-miterlimit:4;stroke-dashoffset:0;stroke-opacity:1"
         sodipodi:nodetypes="ccccccccccccccssccccccccccscccc" />
      <path
         sodipodi:nodetypes="ccccccc"
         id="path3396"
         d="M 75.274611,30.839378 L 68.642487,41.119171 L 71.295337,53.388601 L 60.683938,52.725389 L 62.010363,65.326425 C 69.793879,64.451258 79.02565,70.817367 85.222798,62.010363 C 88.303634,48.95466 82.696877,39.518788 75.274611,30.839378 z "
         style="fill:#ffffff;fill-rule:evenodd;stroke:none;stroke-width:1px;stroke-linecap:butt;stroke-linejoin:miter;stroke-opacity:1;filter:url(#filter3224)" />
      <path
         sodipodi:nodetypes="cccccccccccccccsscccccccccccccscccccccccccccc"
         id="path2246"
         d="M 134,22.9375 L 124.47911,22.454825 L 128.66839,35.824644 L 116.07464,31.517325 L 103.44786,23.553756 L 100.64929,45.298575 L 84.548575,52.055538 L 103.14233,63.017325 L 89.487856,65.310719 L 85.564281,76.942681 L 70.302137,50.40965 L 61.6875,61.6875 L 51.0625,56.03125 L 41.78125,77.25 L 39.28125,68.5 C 35.373701,80.444587 33.1875,93.046203 33.1875,105.15625 C 33.1875,149.85478 57.385967,175.00001 101,175 C 136.44207,175 159.85063,157.58312 166.71875,126 L 153.86286,121.35411 L 141.58857,124.34197 L 135.28303,145.57804 L 128.32642,125.0034 L 114.08161,129.65447 L 97.15625,148.21875 L 111.40625,126.6875 L 127.65625,113.75 L 152.21875,117.375 L 160.15625,109.75 L 168.125,115.0625 L 168.1875,116.9375 C 168.60365,113.17943 168.8125,109.24602 168.8125,105.15625 C 168.8125,92.850978 166.08097,79.466409 161.96049,67.357189 L 158.16321,69.376295 L 157.85071,64.400583 L 152.875,62.34375 L 157.625,56 C 151.63284,42.968007 143.5246,31.354298 134,22.9375 z M 136.28125,67.65625 L 136.28643,80.567681 L 129.32642,88.543394 L 127.01392,79.579825 L 119.70839,75.618038 L 123.34375,67.96875 L 128,70.96875 L 136.28125,67.65625 z "
         style="fill:#4d4d4d;fill-opacity:1;stroke:none;stroke-width:1;stroke-linecap:round;stroke-linejoin:bevel;stroke-miterlimit:4;stroke-dashoffset:0;stroke-opacity:1" />
      <path
         id="path2201"
         d="M 134,22.9375 L 126.46875,23.78125 L 129,36.15625 L 116.40625,32.84375 L 105.4375,25.875 L 101.3125,46.625 L 85.875,52.71875 L 104.46875,64.34375 L 89.15625,66.96875 L 83.90625,77.9375 L 68.3125,53.0625 L 61.6875,61.6875 L 51.0625,56.03125 L 41.78125,77.25 L 39.28125,68.5 C 35.373701,80.444587 33.1875,93.046203 33.1875,105.15625 C 33.1875,149.85478 57.385967,175.00001 101,175 C 136.44207,175 159.85063,157.58312 166.71875,126 L 153.53125,123.34375 L 140.59375,126 L 133.625,148.5625 L 127,127.65625 L 113.75,131.3125 L 97.15625,148.21875 L 111.40625,126.6875 L 127.65625,113.75 L 152.21875,117.375 L 160.15625,109.75 L 168.125,115.0625 L 168.1875,116.9375 C 168.60365,113.17943 168.8125,109.24602 168.8125,105.15625 C 168.8125,92.850978 166.49548,80.04672 162.375,67.9375 L 157.5,69.625 L 157.1875,65.3125 L 152.875,62.34375 L 157.625,56 C 151.63284,42.968007 143.5246,31.354298 134,22.9375 z M 136.28125,67.65625 L 137.28125,81.5625 L 128,88.875 L 125.6875,80.90625 L 117.71875,76.28125 L 123.34375,67.96875 L 128,70.96875 L 136.28125,67.65625 z "
         style="fill:#00ff00;fill-opacity:1;stroke:none;stroke-width:1;stroke-linecap:round;stroke-linejoin:bevel;stroke-miterlimit:4;stroke-dashoffset:0;stroke-opacity:1" />
      <path
         style="fill:url(#radialGradient2240);fill-opacity:1;stroke:none;stroke-width:1;stroke-linecap:round;stroke-linejoin:bevel;stroke-miterlimit:4;stroke-dashoffset:0;stroke-opacity:1"
         d="M 134,22.9375 L 126.46875,23.78125 L 129,36.15625 L 116.40625,32.84375 L 105.4375,25.875 L 101.3125,46.625 L 85.875,52.71875 L 104.46875,64.34375 L 89.15625,66.96875 L 83.90625,77.9375 L 68.3125,53.0625 L 61.6875,61.6875 L 51.0625,56.03125 L 41.78125,77.25 L 39.28125,68.5 C 35.373701,80.444587 33.1875,93.046203 33.1875,105.15625 C 33.1875,149.85478 57.385967,175.00001 101,175 C 136.44207,175 159.85063,157.58312 166.71875,126 L 153.53125,123.34375 L 140.59375,126 L 133.625,148.5625 L 127,127.65625 L 113.75,131.3125 L 97.15625,148.21875 L 111.40625,126.6875 L 127.65625,113.75 L 152.21875,117.375 L 160.15625,109.75 L 168.125,115.0625 L 168.1875,116.9375 C 168.60365,113.17943 168.8125,109.24602 168.8125,105.15625 C 168.8125,92.850978 166.49548,80.04672 162.375,67.9375 L 157.5,69.625 L 157.1875,65.3125 L 152.875,62.34375 L 157.625,56 C 151.63284,42.968007 143.5246,31.354298 134,22.9375 z M 136.28125,67.65625 L 137.28125,81.5625 L 128,88.875 L 125.6875,80.90625 L 117.71875,76.28125 L 123.34375,67.96875 L 128,70.96875 L 136.28125,67.65625 z "
         id="path2238" />
      <path
         sodipodi:nodetypes="cccccccc"
         id="path2250"
         d="M 38.797927,77.264249 C 35.762732,89.842247 34.033671,102.60684 37.139896,116.06218 C 48.23124,128.78156 56.22555,127.10403 72.621762,115.06736 C 83.459584,94.463025 77.058943,75.582535 70.632124,56.704663 C 68.884824,61.098686 72.172585,67.730513 63.336788,68.974093 C 56.836611,70.628536 56.534452,64.845358 54.051813,61.678756 C 52.995782,68.985054 53.419853,76.620263 44.766839,82.238342 L 38.797927,77.264249 z "
         style="fill:#ffffff;fill-opacity:0.96132597;fill-rule:evenodd;stroke:none;stroke-width:1px;stroke-linecap:butt;stroke-linejoin:miter;stroke-opacity:1;filter:url(#filter3404)" />
    </g>
    <g
       id="g2191"
       inkscape:label="Layer 1"
       transform="translate(-21.714721,-4.25715)">
      <path
         style="fill:#333333;fill-opacity:1;fill-rule:evenodd;stroke:none;stroke-width:1px;stroke-linecap:butt;stroke-linejoin:miter;stroke-opacity:1"
         d="M 71.500909,36.006528 L 58.203461,56.856657 L 41.470864,89.15665 L 44.71671,98.193468 L 50.821893,101.6382 L 41.828869,103.98729 L 39.503472,139.03818 L 50.821893,136.57765 L 59.342332,144.10203 L 59.187679,150.50649 L 46.071944,144.25902 L 45.900842,154.78554 L 68.045565,166.59606 L 85.269236,176.43816 L 133.00342,167.08816 L 138.41658,116.89346 L 149.73499,104.09873 L 135.46394,50.951397 L 129.56929,45.517026 L 124.30603,48.640764 L 118.24027,50.459288 L 109.87448,57.327546 L 105.13516,48.96176 L 88.724581,56.835437 L 85.450959,41.740684 L 75.919241,47.998762 L 70.527311,44.864413 L 71.500909,36.006528 z "
         id="path4286"
         sodipodi:nodetypes="cccccccccccccccccccccccccccc" />
      <path
         sodipodi:nodetypes="ccccccccccccccccccccccccccccc"
         id="path2177"
         d="M 70.50609,37.664559 L 58.203461,56.856657 L 41.470864,89.15665 L 44.71671,98.193468 L 50.821893,101.6382 L 41.165657,108.29817 L 39.503472,139.03818 L 50.821893,136.57765 L 59.342332,144.10203 L 59.187679,151.83291 L 45.408732,146.91187 L 45.900842,154.78554 L 68.045565,166.59606 L 85.269236,176.43816 L 133.00342,167.08816 L 138.41658,116.89346 L 154.37748,102.77231 L 146.82152,74.632889 L 135.46394,50.951397 L 128.57447,47.506663 L 124.63764,49.967189 L 118.24027,50.459288 L 109.87448,59.317183 L 103.47713,50.951397 L 87.729762,58.825074 L 83.792928,44.061928 L 75.919241,47.998762 L 68.537674,46.522444 L 70.50609,37.664559 z "
         style="fill:#989898;fill-opacity:1;fill-rule:evenodd;stroke:none;stroke-width:1px;stroke-linecap:butt;stroke-linejoin:miter;stroke-opacity:1" />
      <path
         style="fill:url(#radialGradient2199);fill-opacity:1;fill-rule:evenodd;stroke:none;stroke-width:1px;stroke-linecap:butt;stroke-linejoin:miter;stroke-opacity:1"
         d="M 70.50609,37.664559 L 58.203461,56.856657 L 41.470864,89.15665 L 44.71671,98.193468 L 50.821893,101.6382 L 41.165657,108.29817 L 39.503472,139.03818 L 50.821893,136.57765 L 59.342332,144.10203 L 59.187679,151.83291 L 45.408732,146.91187 L 45.900842,154.78554 L 68.045565,166.59606 L 85.269236,176.43816 L 133.00342,167.08816 L 138.41658,116.89346 L 154.37748,102.77231 L 146.82152,74.632889 L 135.46394,50.951397 L 128.57447,47.506663 L 124.63764,49.967189 L 118.24027,50.459288 L 109.87448,59.317183 L 103.47713,50.951397 L 87.729762,58.825074 L 83.792928,44.061928 L 75.919241,47.998762 L 68.537674,46.522444 L 70.50609,37.664559 z "
         id="path2197"
         sodipodi:nodetypes="ccccccccccccccccccccccccccccc" />
      <path
         sodipodi:nodetypes="ccccccccscccccccccccccccccsscccccccccccccccccccccccccccccccccc"
         id="path4284"
         d="M 71.868036,36.834132 C 58.114065,48.780209 46.05489,68.637744 40.318522,89.550873 L 47.227267,94.267235 L 53.956232,86.222454 L 59.679779,99.177676 L 46.574664,107.19065 L 45.087737,99.648563 L 37.427405,103.63738 C 36.866555,107.76548 36.550847,111.86976 36.550847,115.90925 C 36.550847,124.53483 37.505162,132.34995 39.349691,139.33037 L 42.456107,135.59344 L 50.821893,131.1645 L 60.171888,139.53029 L 71.490299,139.03818 L 80.348184,128.70398 L 94.127131,141.99081 L 117.25606,146.41976 L 120.84008,157.71695 L 109.87448,149.19067 L 89.698178,142.93259 L 88.382363,169.98776 L 80.198301,147.05115 L 68.86928,151.64058 L 57.721973,146.07755 L 50.329784,151.83291 L 45.670164,154.77017 C 55.547263,171.49578 73.217547,180.375 97.571865,180.375 C 137.18824,180.375 158.59288,157.47047 158.59288,115.90925 C 158.59288,93.13522 149.05398,68.118467 135.61772,50.167102 L 129.53747,49.57883 L 130.8639,59.209533 L 134.62963,59.819893 L 133.98763,67.682959 L 146.78236,78.509271 L 136.27705,79.00138 L 140.20328,89.153869 L 132.68242,80.777472 L 127.77198,91.443281 L 124.65885,83.088106 L 114.50636,83.066885 L 116.76395,76.048745 L 117.74816,65.714542 L 119.57818,65.099416 L 121.11795,54.313402 L 118.41137,53.219588 L 109.714,75.374922 L 99.390389,64.388117 L 87.740372,84.39331 L 80.6904,67.009146 L 71.832515,66.356534 L 74.795751,51.593388 L 66.932684,48.148654 L 71.868036,36.834132 z M 105.44554,89.335583 L 104.95343,99.177676 L 117.25606,99.669785 L 110.52708,115.86682 L 102.35363,101.44588 L 90.36139,109.97216 L 85.761345,96.71716 L 98.556073,95.240843 L 105.44554,89.335583 z "
         style="fill:#333333;fill-opacity:1;stroke:none;stroke-width:1;stroke-linecap:round;stroke-linejoin:bevel;stroke-miterlimit:4;stroke-dashoffset:0;stroke-opacity:1" />
      <path
         id="path2160"
         d="M 71.53643,36.834132 C 57.782459,48.780209 46.05489,68.637744 40.318522,89.550873 L 45.900842,93.272416 L 52.298201,85.890848 L 59.679779,99.177676 L 44.916633,109.51189 L 44.424524,101.6382 L 37.427405,103.63738 C 36.866555,107.76548 36.550847,111.86976 36.550847,115.90925 C 36.550847,124.53483 37.505162,132.34995 39.349691,139.33037 L 42.456107,135.59344 L 50.821893,131.1645 L 60.171888,139.53029 L 71.490299,139.03818 L 80.348184,128.70398 L 94.127131,141.99081 L 117.25606,146.41976 L 123.16132,159.70659 L 109.87448,150.8487 L 89.698178,146.91187 L 88.71397,174.96185 L 78.871876,149.37239 L 68.537674,154.29343 L 56.727154,147.40397 L 50.329784,151.83291 L 45.670164,154.77017 C 55.547263,171.49578 73.217547,180.375 97.571865,180.375 C 137.18824,180.375 158.59288,157.47047 158.59288,115.90925 C 158.59288,93.13522 149.05398,68.118467 135.61772,50.167102 L 131.52711,50.905255 L 131.52711,59.209533 L 135.95605,58.825074 L 133.98763,67.682959 L 146.78236,78.509271 L 136.94026,79.00138 L 141.86131,90.8119 L 132.01921,83.430322 L 126.11395,93.764525 L 122.66921,84.414531 L 110.85869,86.382947 L 116.76395,76.048745 L 117.74816,65.714542 L 119.57818,65.099416 L 120.45474,56.303039 L 117.74816,55.872438 L 109.38239,77.032953 L 98.063964,65.714542 L 86.745553,86.382947 L 79.363975,68.667177 L 70.50609,67.682959 L 72.474507,52.919813 L 63.616622,49.475079 L 71.53643,36.834132 z M 105.44554,89.335583 L 104.95343,99.177676 L 117.25606,99.669785 L 110.85869,119.84609 L 100.03239,104.09873 L 89.698178,112.95662 L 85.761345,96.71716 L 98.556073,95.240843 L 105.44554,89.335583 z "
         style="fill:#0000e5;fill-opacity:1;stroke:none;stroke-width:1;stroke-linecap:round;stroke-linejoin:bevel;stroke-miterlimit:4;stroke-dashoffset:0;stroke-opacity:1" />
      <path
         style="fill:url(#radialGradient2235);fill-opacity:1;stroke:none;stroke-width:1;stroke-linecap:round;stroke-linejoin:bevel;stroke-miterlimit:4;stroke-dashoffset:0;stroke-opacity:1"
         d="M 71.53643,36.834132 C 57.782459,48.780209 46.05489,68.637744 40.318522,89.550873 L 45.900842,93.272416 L 52.298201,85.890848 L 59.679779,99.177676 L 44.916633,109.51189 L 44.424524,101.6382 L 37.427405,103.63738 C 36.866555,107.76548 36.550847,111.86976 36.550847,115.90925 C 36.550847,124.53483 37.505162,132.34995 39.349691,139.33037 L 42.456107,135.59344 L 50.821893,131.1645 L 60.171888,139.53029 L 71.490299,139.03818 L 80.348184,128.70398 L 94.127131,141.99081 L 117.25606,146.41976 L 123.16132,159.70659 L 109.87448,150.8487 L 89.698178,146.91187 L 88.71397,174.96185 L 78.871876,149.37239 L 68.537674,154.29343 L 56.727154,147.40397 L 50.329784,151.83291 L 45.670164,154.77017 C 55.547263,171.49578 73.217547,180.375 97.571865,180.375 C 137.18824,180.375 158.59288,157.47047 158.59288,115.90925 C 158.59288,93.13522 149.05398,68.118467 135.61772,50.167102 L 131.52711,50.905255 L 131.52711,59.209533 L 135.95605,58.825074 L 133.98763,67.682959 L 146.78236,78.509271 L 136.94026,79.00138 L 141.86131,90.8119 L 132.01921,83.430322 L 126.11395,93.764525 L 122.66921,84.414531 L 110.85869,86.382947 L 116.76395,76.048745 L 117.74816,65.714542 L 119.57818,65.099416 L 120.45474,56.303039 L 117.74816,55.872438 L 109.38239,77.032953 L 98.063964,65.714542 L 86.745553,86.382947 L 79.363975,68.667177 L 70.50609,67.682959 L 72.474507,52.919813 L 63.616622,49.475079 L 71.53643,36.834132 z M 105.44554,89.335583 L 104.95343,99.177676 L 117.25606,99.669785 L 110.85869,119.84609 L 100.03239,104.09873 L 89.698178,112.95662 L 85.761345,96.71716 L 98.556073,95.240843 L 105.44554,89.335583 z "
         id="path2225" />
      <path
         sodipodi:nodetypes="ccccc"
         id="path2168"
         d="M 63.005181,52.062176 C 54.167364,61.793471 47.967354,73.72294 44.435233,87.875648 L 51.398964,82.569949 L 58.031088,87.212435 C 55.092977,74.625661 57.655089,63.443287 63.005181,52.062176 z "
         style="fill:#ffffff;fill-rule:evenodd;stroke:none;stroke-width:1px;stroke-linecap:butt;stroke-linejoin:miter;stroke-opacity:1;filter:url(#filter3268)" />
      <path
         sodipodi:nodetypes="ccccccc"
         id="path2170"
         d="M 42.445596,105.11917 L 39.129534,105.78238 C 38.145659,114.28814 38.701251,122.02416 39.46114,129.65803 C 42.445596,129.03459 45.430052,129.31327 48.414508,125.34715 C 53.789455,118.29819 52.675369,112.33073 53.056995,106.11399 L 44.103627,113.07772 L 42.445596,105.11917 z "
         style="fill:#ffffff;fill-rule:evenodd;stroke:none;stroke-width:1px;stroke-linecap:butt;stroke-linejoin:miter;stroke-opacity:1;filter:url(#filter3344)" />
    </g>
    <g
       id="g2315"
       inkscape:label="Layer 1"
       transform="translate(39.53307,52.34047)">
      <g
         transform="matrix(0.642635,0,0,0.642635,53.576487,47.75034)"
         id="g4066">
        <path
           sodipodi:nodetypes="ccccccccccccccc"
           id="path2205"
           d="M 25.342582,10.387396 L 54.440173,-7.7985995 L 52.361774,13.504994 L 81.978959,1.5541981 L 94.322998,20.133435 L 95.235852,5.5846393 L 113.67456,19.220594 L 121.98816,12.985395 L 134.97815,27.53419 L 139.65455,96.121371 L 112.63535,166.78694 L 23.264182,173.54174 L -17.784206,119.50337 L -8.4314081,51.435783 L 25.342582,10.387396 z "
           style="fill:#333333;fill-opacity:1;fill-rule:evenodd;stroke:none;stroke-width:1px;stroke-linecap:butt;stroke-linejoin:miter;stroke-opacity:1" />
        <path
           id="path2321"
           d="M 22.622946,11.941474 L 51.720537,-6.2445218 L 49.642138,15.059072 L 79.259323,3.1082758 L 92.76892,22.853071 L 94.847332,8.3042752 L 110.95492,20.774672 L 119.26852,14.539473 L 132.25851,29.088268 L 136.93491,97.675449 L 109.91571,168.34102 L 20.544546,175.09582 L -20.503842,121.05745 L -11.151044,52.989861 L 22.622946,11.941474 z "
           style="fill:#e6e6e6;fill-rule:evenodd;stroke:none;stroke-width:1px;stroke-linecap:butt;stroke-linejoin:miter;stroke-opacity:1" />
        <path
           style="fill:url(#radialGradient2203);fill-opacity:1;fill-rule:evenodd;stroke:none;stroke-width:1px;stroke-linecap:butt;stroke-linejoin:miter;stroke-opacity:1"
           d="M 22.622946,11.941474 L 51.720537,-6.2445218 L 49.642138,15.059072 L 79.259323,3.1082758 L 92.76892,22.853071 L 94.847332,8.3042752 L 110.95492,20.774672 L 119.26852,14.539473 L 132.25851,29.088268 L 136.93491,97.675449 L 109.91571,168.34102 L 20.544546,175.09582 L -20.503842,121.05745 L -11.151044,52.989861 L 22.622946,11.941474 z "
           id="path2199" />
        <path
           sodipodi:nodetypes="cssssccccccccccccccccccccccccccccccccccccccccc"
           style="fill:#333333;fill-opacity:1;stroke:none;stroke-width:8;stroke-linecap:round;stroke-linejoin:round;stroke-miterlimit:4;stroke-dashoffset:0;stroke-opacity:1"
           d="M 36.427296,-32.196021 C -0.36118417,-15.476468 -26.707047,36.604792 -26.707046,98.224045 C -26.707043,173.32721 24.75324,192.75672 62.330669,192.75672 C 99.908099,192.75672 145.58922,173.71573 145.58922,98.612565 C 145.58922,71.412085 138.93107,36.466633 130.95104,19.475364 C 130.04337,17.542735 129.92153,18.450468 129.03992,17.042676 L 123.02133,32.67513 L 104.29385,27.938697 L 94.195909,47.146723 L 99.968679,55.334225 L 109.74289,55.334225 L 97.050999,71.916345 L 80.468879,61.218205 L 73.612349,48.526319 L 89.805439,39.919178 L 86.304229,18.231127 L 66.755809,26.060222 L 64.031289,-8.9046028 L 39.426919,11.423219 L 53.284522,-25.679881 L 34.564128,-15.954297 L 36.427296,-32.196021 z M 19.927125,37.779549 L 37.481803,39.724666 L 33.59157,49.498877 L 37.481803,66.080995 L 20.899684,68.026115 L 9.1803556,55.334225 L 19.927125,37.779549 z M 121.46221,99.293865 L 106.82521,127.5953 L 98.996119,156.86932 L 87.469949,134.14342 L 71.667229,142.23231 L 61.633219,135.87736 L 50.173689,141.25976 L 26.861551,132.39146 L 17.655567,152.58599 L 12.098031,129.54042 L -7.4503914,114.90342 L 16.960822,119.76622 L 36.509245,114.90342 L 55.085108,121.71133 L 71.667229,114.90342 L 93.160769,114.90342 L 121.46221,99.293865 z "
           id="path2198" />
        <path
           id="path1307"
           d="M 34.017774,-31.219651 C -2.7707054,-14.500098 -29.636169,37.581162 -29.636168,99.200419 C -29.636164,174.30358 21.824118,193.73309 59.401546,193.73309 C 96.978974,193.73309 148.48789,174.30358 148.48789,99.200419 C 148.48789,68.906083 142.00122,40.90157 131.03047,18.283567 L 122.42332,34.817058 L 102.92353,29.954267 L 92.565784,49.162293 L 97.039553,56.310597 L 106.81376,56.310597 L 94.121878,72.892716 L 77.539759,62.194575 L 70.683222,49.502689 L 86.876318,40.895548 L 83.375108,19.207497 L 63.826686,27.036592 L 61.88157,-7.1488328 L 36.497798,12.399589 L 51.1348,-24.70351 L 31.635006,-14.977927 L 34.017774,-31.219651 z M 16.998003,38.75592 L 34.552681,40.701036 L 30.662448,50.475247 L 34.552681,67.057366 L 17.970562,69.002483 L 6.2512338,56.310597 L 16.998003,38.75592 z M 118.53309,100.27023 L 103.89609,128.57168 L 96.066994,157.84568 L 85.320225,135.37959 L 68.738106,143.20868 L 58.963895,137.37333 L 47.244567,142.23612 L 25.751028,134.40703 L 16.025445,155.90057 L 9.1689088,130.5168 L -10.379513,115.87979 L 14.0317,120.74259 L 33.580123,115.87979 L 52.155987,122.6877 L 68.738106,115.87979 L 90.231644,115.87979 L 118.53309,100.27023 z "
           style="fill:#ff2900;fill-opacity:1;stroke:none;stroke-width:8;stroke-linecap:round;stroke-linejoin:round;stroke-miterlimit:4;stroke-dashoffset:0;stroke-opacity:1" />
        <path
           style="opacity:0.7;fill:url(#radialGradient7499);fill-opacity:1;stroke:none;stroke-width:8;stroke-linecap:round;stroke-linejoin:round;stroke-miterlimit:4;stroke-dashoffset:0;stroke-opacity:1"
           d="M 34.017774,-31.219651 C -2.7707054,-14.500098 -29.636169,37.581162 -29.636168,99.200419 C -29.636164,174.30358 21.824118,193.73309 59.401546,193.73309 C 96.978974,193.73309 148.48789,174.30358 148.48789,99.200419 C 148.48789,68.906083 142.00122,40.90157 131.03047,18.283567 L 122.42332,34.817058 L 102.92353,29.954267 L 92.565784,49.162293 L 97.039553,56.310597 L 106.81376,56.310597 L 94.121878,72.892716 L 77.539759,62.194575 L 70.683222,49.502689 L 86.876318,40.895548 L 83.375108,19.207497 L 63.826686,27.036592 L 61.88157,-7.1488328 L 36.497798,12.399589 L 51.1348,-24.70351 L 31.635006,-14.977927 L 34.017774,-31.219651 z M 16.998003,38.75592 L 34.552681,40.701036 L 30.662448,50.475247 L 34.552681,67.057366 L 17.970562,69.002483 L 6.2512338,56.310597 L 16.998003,38.75592 z M 118.53309,100.27023 L 103.89609,128.57168 L 96.066994,157.84568 L 85.320225,135.37959 L 68.738106,143.20868 L 58.963895,137.37333 L 47.244567,142.23612 L 25.751028,134.40703 L 16.025445,155.90057 L 9.1689088,130.5168 L -10.379513,115.87979 L 14.0317,120.74259 L 33.580123,115.87979 L 52.155987,122.6877 L 68.738106,115.87979 L 90.231644,115.87979 L 118.53309,100.27023 z "
           id="path3199" />
        <path
           sodipodi:nodetypes="cccc"
           transform="matrix(1.5560933,0,0,1.5560933,-128.49672,-119.43069)"
           id="path3225"
           d="M 91.965457,69.416235 C 78.834191,84.234079 69.947753,104.78224 69.416235,125.12608 C 70.446436,135.37707 77.974237,136.64083 84.891192,133.96891 C 87.681118,127.76316 79.713177,112.47886 91.965457,69.416235 z "
           style="fill:#ffffff;fill-rule:evenodd;stroke:none;stroke-width:1px;stroke-linecap:butt;stroke-linejoin:miter;stroke-opacity:1;filter:url(#filter3432)" />
        <path
           sodipodi:nodetypes="csssc"
           transform="matrix(1.5560933,0,0,1.5560933,-128.49672,-119.43069)"
           id="path4252"
           d="M 77.374784,175.53022 C 74.929245,168.82707 81.559839,161.75193 85.333333,166.68739 C 87.627817,169.68841 90.639033,182.16235 100.80829,184.8152 C 105.94218,186.15447 113.18826,194.98446 103.46114,193.65803 C 93.734024,192.33161 80.911917,184.8152 77.374784,175.53022 z "
           style="fill:#ffffff;fill-rule:evenodd;stroke:none;stroke-width:1px;stroke-linecap:butt;stroke-linejoin:miter;stroke-opacity:1;filter:url(#filter3444)" />
        <path
           sodipodi:nodetypes="ccc"
           transform="matrix(1.5560933,0,0,1.5560933,-128.49672,-119.43069)"
           id="path5281"
           d="M 171.55095,155.19171 C 164.59402,170.59751 146.52669,188.17611 129.5475,196.31087 C 149.88601,198.96373 171.10881,176.85665 171.55095,155.19171 z "
           style="fill:#000000;fill-opacity:0.28729278;fill-rule:evenodd;stroke:none;stroke-width:1px;stroke-linecap:butt;stroke-linejoin:miter;stroke-opacity:1;filter:url(#filter6396)" />
      </g>
    </g>
  </g>
</svg>
