<?xml version="1.0" encoding="UTF-8" standalone="no"?>
<!-- Created with Inkscape (http://www.inkscape.org/) -->
<svg
   xmlns:dc="http://purl.org/dc/elements/1.1/"
   xmlns:cc="http://web.resource.org/cc/"
   xmlns:rdf="http://www.w3.org/1999/02/22-rdf-syntax-ns#"
   xmlns:svg="http://www.w3.org/2000/svg"
   xmlns="http://www.w3.org/2000/svg"
   xmlns:xlink="http://www.w3.org/1999/xlink"
   xmlns:sodipodi="http://sodipodi.sourceforge.net/DTD/sodipodi-0.dtd"
   xmlns:inkscape="http://www.inkscape.org/namespaces/inkscape"
   width="192"
   height="192"
   id="svg2"
   sodipodi:version="0.32"
   inkscape:version="0.45.1"
   version="1.0"
   sodipodi:docbase="/home/nicu/Desktop/svg"
   sodipodi:docname="evileasteregg.svg"
   inkscape:export-filename="/home/nicu/Desktop/eggs.png"
   inkscape:export-xdpi="90"
   inkscape:export-ydpi="90"
   inkscape:output_extension="org.inkscape.output.svg.inkscape">
  <defs
     id="defs4">
    <linearGradient
       id="linearGradient3213">
      <stop
         style="stop-color:#c15e1d;stop-opacity:1;"
         offset="0"
         id="stop3215" />
      <stop
         style="stop-color:#803300;stop-opacity:1;"
         offset="1"
         id="stop3217" />
    </linearGradient>
    <linearGradient
       id="linearGradient6253">
      <stop
         style="stop-color:#fffedc;stop-opacity:1;"
         offset="0"
         id="stop6255" />
      <stop
         style="stop-color:#fafafa;stop-opacity:1;"
         offset="1"
         id="stop6257" />
    </linearGradient>
    <linearGradient
       id="linearGradient2185">
      <stop
         style="stop-color:#000000;stop-opacity:0;"
         offset="0"
         id="stop2187" />
      <stop
         style="stop-color:#000000;stop-opacity:1;"
         offset="1"
         id="stop2189" />
    </linearGradient>
    <filter
       inkscape:collect="always"
       id="filter3195">
      <feGaussianBlur
         inkscape:collect="always"
         stdDeviation="1.6280697"
         id="feGaussianBlur3197" />
    </filter>
    <filter
       inkscape:collect="always"
       x="-0.41089493"
       width="1.8217897"
       y="-0.14089394"
       height="1.2817879"
       id="filter4248">
      <feGaussianBlur
         inkscape:collect="always"
         stdDeviation="3.860567"
         id="feGaussianBlur4250" />
    </filter>
    <filter
       inkscape:collect="always"
       x="-0.28261244"
       width="1.5652249"
       y="-0.30870268"
       height="1.6174053"
       id="filter5275">
      <feGaussianBlur
         inkscape:collect="always"
         stdDeviation="3.6988173"
         id="feGaussianBlur5277" />
    </filter>
    <filter
       inkscape:collect="always"
       x="-0.12844948"
       width="1.256899"
       y="-0.120956"
       height="1.241912"
       id="filter6396">
      <feGaussianBlur
         inkscape:collect="always"
         stdDeviation="1.6801218"
         id="feGaussianBlur6398" />
    </filter>
    <filter
       inkscape:collect="always"
       x="-0.086054064"
       width="1.1721081"
       y="-0.13437432"
       height="1.2687486"
       id="filter7483">
      <feGaussianBlur
         inkscape:collect="always"
         stdDeviation="9.0994072"
         id="feGaussianBlur7485" />
    </filter>
    <radialGradient
       inkscape:collect="always"
       xlink:href="#linearGradient2185"
       id="radialGradient7499"
       gradientUnits="userSpaceOnUse"
       gradientTransform="matrix(3.973827,2.8623939,-4.1097887,5.7057941,198.7045,-941.87486)"
       cx="91.523315"
       cy="135.72882"
       fx="91.523315"
       fy="135.72882"
       r="57.234375" />
    <linearGradient
       inkscape:collect="always"
       xlink:href="#linearGradient6253"
       id="linearGradient7504"
       gradientUnits="userSpaceOnUse"
       x1="181.48297"
       y1="145.02454"
       x2="-2.2166562"
       y2="50.078667"
       gradientTransform="translate(-48.238891,-49.794985)" />
    <linearGradient
       inkscape:collect="always"
       xlink:href="#linearGradient3213"
       id="linearGradient7507"
       gradientUnits="userSpaceOnUse"
       x1="178.62521"
       y1="92.407593"
       x2="194.10016"
       y2="107.88255"
       gradientTransform="matrix(1.5560933,0,0,1.5560933,-137.83328,-119.43069)" />
    <linearGradient
       inkscape:collect="always"
       xlink:href="#linearGradient3213"
       id="linearGradient7510"
       gradientUnits="userSpaceOnUse"
       gradientTransform="matrix(-1.5560933,0,0,1.5560933,235.81847,-119.43069)"
       x1="178.62521"
       y1="92.407593"
       x2="194.10016"
       y2="107.88255" />
    <filter
       inkscape:collect="always"
       x="-0.10689566"
       width="1.2137913"
       y="-0.070888695"
       height="1.1417774"
       id="filter8515">
      <feGaussianBlur
         inkscape:collect="always"
         stdDeviation="0.93049065"
         id="feGaussianBlur8517" />
    </filter>
  </defs>
  <sodipodi:namedview
     id="base"
     pagecolor="#ffffff"
     bordercolor="#666666"
     borderopacity="1.0"
     inkscape:pageopacity="0.0"
     inkscape:pageshadow="2"
     inkscape:zoom="1"
     inkscape:cx="96"
     inkscape:cy="96"
     inkscape:document-units="px"
     inkscape:current-layer="g4066"
     inkscape:window-width="1152"
     inkscape:window-height="791"
     inkscape:window-x="0"
     inkscape:window-y="24"
     width="192px"
     height="192px" />
  <metadata
     id="metadata7">
    <rdf:RDF>
      <cc:Work
         rdf:about="">
        <dc:format>image/svg+xml</dc:format>
        <dc:type
           rdf:resource="http://purl.org/dc/dcmitype/StillImage" />
      </cc:Work>
    </rdf:RDF>
  </metadata>
  <g
     inkscape:label="Layer 1"
     inkscape:groupmode="layer"
     id="layer1">
    <g
       id="g4066"
       transform="matrix(0.642635,0,0,0.642635,57.576487,44.75034)">
      <path
         style="fill:#000000;fill-opacity:1;fill-rule:evenodd;stroke:none;stroke-width:1px;stroke-linecap:butt;stroke-linejoin:miter;stroke-opacity:1;filter:url(#filter7483)"
         d="M -54.005468,25.215776 C -65.646047,42.436007 -68.447921,63.851025 -53.667461,79.492005 C -47.721734,87.261865 -34.551183,89.424085 -24.812854,94.124695 C -32.183161,115.87605 -35.427771,139.80672 -21.206167,159.67391 C -7.9559292,178.60806 23.116438,188.06711 52.965179,187.72741 C 79.366649,187.88324 107.38873,180.66162 125.12656,165.67954 C 143.70631,150.03977 148.27942,129.12428 147.67008,110.02506 C 147.45551,104.16199 146.72004,98.334145 145.64881,92.554325 C 169.63797,88.713355 187.40038,72.079855 189.18719,55.408885 C 191.12463,45.142788 189.65986,34.680132 184.66035,25.215776 C 181.86553,39.339394 180.57696,54.815655 166.86107,66.655655 C 160.47218,71.340955 149.83622,77.222785 140.82811,74.217065 C 136.25952,69.451515 134.74906,63.375315 129.63221,58.700965 C 119.46747,45.418458 103.4237,33.832026 82.249109,29.462072 C 72.057519,27.311438 60.777679,26.972058 50.197377,29.272368 C 37.163543,28.641655 26.253391,35.125301 16.849984,40.973924 C 2.2265205,50.532295 -8.3099302,62.753625 -15.954271,75.471985 C -33.80752,76.488015 -48.534911,66.114895 -50.931632,54.303385 C -54.142699,44.873708 -53.867183,34.967126 -54.005468,25.215776 z "
         id="path6431" />
      <path
         sodipodi:nodetypes="ccsc"
         id="path3221"
         d="M -27.69074,33.996349 C -67.91915,34.522137 -68.52626,-11.736717 -70.34759,-37.557066 C -82.45209,-10.684574 -85.41038,48.061982 -32.50684,59.452845 C 4.06797,67.327915 -27.69074,38.812439 -27.69074,33.996349 z "
         style="fill:url(#linearGradient7510);fill-opacity:1;fill-rule:evenodd;stroke:none;stroke-width:1px;stroke-linecap:butt;stroke-linejoin:miter;stroke-opacity:1" />
      <path
         style="fill:url(#linearGradient7507);fill-opacity:1;fill-rule:evenodd;stroke:none;stroke-width:1px;stroke-linecap:butt;stroke-linejoin:miter;stroke-opacity:1"
         d="M 125.67593,33.996347 C 165.90434,34.522135 166.51145,-11.736719 168.33278,-37.557068 C 180.43728,-10.684576 183.39557,48.06198 130.49203,59.452847 C 93.91722,67.327909 125.67593,38.812437 125.67593,33.996347 z "
         id="path3205"
         sodipodi:nodetypes="ccsc" />
      <path
         style="fill:url(#linearGradient7504);fill-opacity:1;stroke:none;stroke-width:8;stroke-linecap:round;stroke-linejoin:round;stroke-miterlimit:4;stroke-dashoffset:0;stroke-opacity:1"
         d="M -38.953185,99.195035 C -38.953185,24.091889 -0.038666,-33.932274 49.112606,-33.932274 C 98.263889,-33.932274 139.13115,24.091889 139.13115,99.195035 C 139.13115,174.29819 87.666409,193.73004 50.088978,193.73004 C 12.511554,193.73004 -38.953185,174.29819 -38.953185,99.195035 z "
         id="path2255"
         sodipodi:nodetypes="csssc" />
      <path
         id="path2198"
         d="M 27.610336,-32.196021 C -9.178144,-15.476468 -36.043607,36.604792 -36.043606,98.224045 C -36.043603,173.32721 15.41668,192.75672 52.994109,192.75672 C 90.571539,192.75672 136.25266,173.71573 136.25266,98.612565 C 136.25266,68.318235 130.15451,41.479278 119.18376,18.861275 L 113.68477,32.67513 L 96.516089,28.977897 L 86.158349,48.185923 L 90.632119,55.334225 L 100.40633,55.334225 L 87.714439,71.916345 L 71.132319,61.218205 L 64.275789,48.526319 L 80.468879,39.919178 L 76.967669,18.231127 L 57.419249,26.060222 L 55.474129,-8.125203 L 30.090359,11.423219 L 44.727362,-25.679881 L 25.227568,-15.954297 L 27.610336,-32.196021 z M 10.590565,37.779549 L 28.145243,39.724666 L 24.25501,49.498877 L 28.145243,66.080995 L 11.563124,68.026115 L -0.156204,55.334225 L 10.590565,37.779549 z M 112.12565,99.293865 L 97.488649,127.5953 L 89.659559,156.86932 L 78.912789,134.40322 L 62.330669,142.23231 L 52.556459,136.39696 L 40.837129,141.25976 L 19.34359,133.43066 L 9.618007,154.92419 L 2.761471,129.54042 L -16.786951,114.90342 L 7.624262,119.76622 L 27.172685,114.90342 L 45.748548,121.71133 L 62.330669,114.90342 L 83.824209,114.90342 L 112.12565,99.293865 z "
         style="fill:#000000;fill-opacity:0.76243095;stroke:none;stroke-width:8;stroke-linecap:round;stroke-linejoin:round;stroke-miterlimit:4;stroke-dashoffset:0;stroke-opacity:1;filter:url(#filter3195)"
         sodipodi:nodetypes="csssccccccccccccccccccccccccccccccccccccccccc" />
      <path
         style="fill:#ff2900;fill-opacity:1;stroke:none;stroke-width:8;stroke-linecap:round;stroke-linejoin:round;stroke-miterlimit:4;stroke-dashoffset:0;stroke-opacity:1"
         d="M 24.681214,-31.219651 C -12.107265,-14.500098 -38.972729,37.581162 -38.972728,99.200419 C -38.972724,174.30358 12.487558,193.73309 50.064986,193.73309 C 87.642414,193.73309 139.15133,174.30358 139.15133,99.200419 C 139.15133,68.906083 132.66466,40.90157 121.69391,18.283567 L 113.08676,34.817058 L 93.58697,29.954267 L 83.229224,49.162293 L 87.702993,56.310597 L 97.477204,56.310597 L 84.785318,72.892716 L 68.203199,62.194575 L 61.346662,49.502689 L 77.539758,40.895548 L 74.038548,19.207497 L 54.490126,27.036592 L 52.54501,-7.1488328 L 27.161238,12.399589 L 41.79824,-24.70351 L 22.298446,-14.977927 L 24.681214,-31.219651 z M 7.6614435,38.75592 L 25.216121,40.701036 L 21.325888,50.475247 L 25.216121,67.057366 L 8.6340019,69.002483 L -3.0853258,56.310597 L 7.6614435,38.75592 z M 109.19653,100.27023 L 94.559529,128.57168 L 86.730434,157.84568 L 75.983665,135.37959 L 59.401546,143.20868 L 49.627335,137.37333 L 37.908007,142.23612 L 16.414468,134.40703 L 6.6888852,155.90057 L -0.16765087,130.5168 L -19.716073,115.87979 L 4.6951407,120.74259 L 24.243563,115.87979 L 42.819427,122.6877 L 59.401546,115.87979 L 80.895084,115.87979 L 109.19653,100.27023 z "
         id="path1307" />
      <path
         id="path3199"
         d="M 24.681214,-31.219651 C -12.107265,-14.500098 -38.972729,37.581162 -38.972728,99.200419 C -38.972724,174.30358 12.487558,193.73309 50.064986,193.73309 C 87.642414,193.73309 139.15133,174.30358 139.15133,99.200419 C 139.15133,68.906083 132.66466,40.90157 121.69391,18.283567 L 113.08676,34.817058 L 93.58697,29.954267 L 83.229224,49.162293 L 87.702993,56.310597 L 97.477204,56.310597 L 84.785318,72.892716 L 68.203199,62.194575 L 61.346662,49.502689 L 77.539758,40.895548 L 74.038548,19.207497 L 54.490126,27.036592 L 52.54501,-7.1488328 L 27.161238,12.399589 L 41.79824,-24.70351 L 22.298446,-14.977927 L 24.681214,-31.219651 z M 7.6614435,38.75592 L 25.216121,40.701036 L 21.325888,50.475247 L 25.216121,67.057366 L 8.6340019,69.002483 L -3.0853258,56.310597 L 7.6614435,38.75592 z M 109.19653,100.27023 L 94.559529,128.57168 L 86.730434,157.84568 L 75.983665,135.37959 L 59.401546,143.20868 L 49.627335,137.37333 L 37.908007,142.23612 L 16.414468,134.40703 L 6.6888852,155.90057 L -0.16765087,130.5168 L -19.716073,115.87979 L 4.6951407,120.74259 L 24.243563,115.87979 L 42.819427,122.6877 L 59.401546,115.87979 L 80.895084,115.87979 L 109.19653,100.27023 z "
         style="opacity:0.7;fill:url(#radialGradient7499);fill-opacity:1;stroke:none;stroke-width:8;stroke-linecap:round;stroke-linejoin:round;stroke-miterlimit:4;stroke-dashoffset:0;stroke-opacity:1" />
      <path
         style="fill:#ffffff;fill-rule:evenodd;stroke:none;stroke-width:1px;stroke-linecap:butt;stroke-linejoin:miter;stroke-opacity:1;filter:url(#filter4248)"
         d="M 91.965457,69.416235 C 78.834191,84.234079 69.947753,104.78224 69.416235,125.12608 C 70.446436,135.37707 77.974237,136.64083 84.891192,133.96891 C 87.681118,127.76316 79.713177,112.47886 91.965457,69.416235 z "
         id="path3225"
         transform="matrix(1.5560933,0,0,1.5560933,-137.83328,-119.43069)"
         sodipodi:nodetypes="cccc" />
      <path
         style="fill:#ffffff;fill-rule:evenodd;stroke:none;stroke-width:1px;stroke-linecap:butt;stroke-linejoin:miter;stroke-opacity:1;filter:url(#filter5275)"
         d="M 77.374784,175.53022 C 74.929245,168.82707 81.559839,161.75193 85.333333,166.68739 C 87.627817,169.68841 90.639033,182.16235 100.80829,184.8152 C 105.94218,186.15447 113.18826,194.98446 103.46114,193.65803 C 93.734024,192.33161 80.911917,184.8152 77.374784,175.53022 z "
         id="path4252"
         transform="matrix(1.5560933,0,0,1.5560933,-137.83328,-119.43069)"
         sodipodi:nodetypes="csssc" />
      <path
         style="fill:#000000;fill-opacity:0.28729278;fill-rule:evenodd;stroke:none;stroke-width:1px;stroke-linecap:butt;stroke-linejoin:miter;stroke-opacity:1;filter:url(#filter6396)"
         d="M 171.55095,155.19171 C 164.59402,170.59751 146.52669,188.17611 129.5475,196.31087 C 149.88601,198.96373 171.10881,176.85665 171.55095,155.19171 z "
         id="path5281"
         transform="matrix(1.5560933,0,0,1.5560933,-137.83328,-119.43069)"
         sodipodi:nodetypes="ccc" />
      <path
         style="fill:#000000;fill-rule:evenodd;stroke:none;stroke-width:1px;stroke-linecap:butt;stroke-linejoin:miter;stroke-opacity:1;filter:url(#filter8515);fill-opacity:0.46961325"
         d="M 168.45596,47.419689 C 168.12435,56.04145 162.48704,75.606218 147.56477,78.92228 C 154.11453,71.069541 164.54496,61.833253 168.45596,47.419689 z "
         id="path7512"
         transform="matrix(1.5560933,0,0,1.5560933,-89.594384,-69.635703)"
         sodipodi:nodetypes="ccc" />
      <path
         sodipodi:nodetypes="ccc"
         transform="matrix(-1.5560933,0,0,1.5560933,186.47109,-69.635703)"
         id="path8519"
         d="M 168.45596,47.419689 C 168.12435,56.04145 162.48704,75.606218 147.56477,78.92228 C 154.11453,71.069541 164.54496,61.833253 168.45596,47.419689 z "
         style="fill:#000000;fill-opacity:0.46961323;fill-rule:evenodd;stroke:none;stroke-width:1px;stroke-linecap:butt;stroke-linejoin:miter;stroke-opacity:1;filter:url(#filter8515)" />
    </g>
  </g>
</svg>
