<?xml version="1.0" encoding="UTF-8" standalone="no"?>
<!-- Created with Inkscape (http://www.inkscape.org/) -->
<svg
   xmlns:dc="http://purl.org/dc/elements/1.1/"
   xmlns:cc="http://web.resource.org/cc/"
   xmlns:rdf="http://www.w3.org/1999/02/22-rdf-syntax-ns#"
   xmlns:svg="http://www.w3.org/2000/svg"
   xmlns="http://www.w3.org/2000/svg"
   xmlns:xlink="http://www.w3.org/1999/xlink"
   xmlns:sodipodi="http://sodipodi.sourceforge.net/DTD/sodipodi-0.dtd"
   xmlns:inkscape="http://www.inkscape.org/namespaces/inkscape"
   width="192"
   height="192"
   id="svg2"
   sodipodi:version="0.32"
   inkscape:version="0.45.1"
   version="1.0"
   sodipodi:docbase="/home/nicu/Desktop/svg"
   sodipodi:docname="wicked_easter_shell.svg"
   inkscape:export-filename="/home/nicu/Desktop/wicked_easter_shell.png"
   inkscape:export-xdpi="60"
   inkscape:export-ydpi="60"
   inkscape:output_extension="org.inkscape.output.svg.inkscape">
  <defs
     id="defs4">
    <linearGradient
       id="linearGradient3213">
      <stop
         style="stop-color:#c15e1d;stop-opacity:1;"
         offset="0"
         id="stop3215" />
      <stop
         style="stop-color:#803300;stop-opacity:1;"
         offset="1"
         id="stop3217" />
    </linearGradient>
    <linearGradient
       id="linearGradient2185">
      <stop
         style="stop-color:#000000;stop-opacity:0;"
         offset="0"
         id="stop2187" />
      <stop
         style="stop-color:#000000;stop-opacity:1;"
         offset="1"
         id="stop2189" />
    </linearGradient>
    <filter
       inkscape:collect="always"
       x="-0.41089493"
       width="1.8217897"
       y="-0.14089394"
       height="1.2817879"
       id="filter4248">
      <feGaussianBlur
         inkscape:collect="always"
         stdDeviation="3.860567"
         id="feGaussianBlur4250" />
    </filter>
    <filter
       inkscape:collect="always"
       x="-0.28261244"
       width="1.5652249"
       y="-0.30870268"
       height="1.6174053"
       id="filter5275">
      <feGaussianBlur
         inkscape:collect="always"
         stdDeviation="3.6988173"
         id="feGaussianBlur5277" />
    </filter>
    <filter
       inkscape:collect="always"
       x="-0.12844948"
       width="1.256899"
       y="-0.120956"
       height="1.241912"
       id="filter6396">
      <feGaussianBlur
         inkscape:collect="always"
         stdDeviation="1.6801218"
         id="feGaussianBlur6398" />
    </filter>
    <radialGradient
       inkscape:collect="always"
       xlink:href="#linearGradient2185"
       id="radialGradient7499"
       gradientUnits="userSpaceOnUse"
       gradientTransform="matrix(3.973827,2.8623939,-4.1097887,5.7057941,208.04106,-941.87486)"
       cx="91.523315"
       cy="135.72882"
       fx="91.523315"
       fy="135.72882"
       r="57.234375" />
    <linearGradient
       inkscape:collect="always"
       xlink:href="#linearGradient3213"
       id="linearGradient7510"
       gradientUnits="userSpaceOnUse"
       gradientTransform="matrix(-1.5560933,0,0,1.5560933,245.15503,-119.43069)"
       x1="178.62521"
       y1="92.407593"
       x2="194.10016"
       y2="107.88255" />
    <filter
       inkscape:collect="always"
       x="-0.10689566"
       width="1.2137913"
       y="-0.070888695"
       height="1.1417774"
       id="filter8515">
      <feGaussianBlur
         inkscape:collect="always"
         stdDeviation="0.93049065"
         id="feGaussianBlur8517" />
    </filter>
    <radialGradient
       inkscape:collect="always"
       xlink:href="#linearGradient2185"
       id="radialGradient2203"
       cx="93.63131"
       cy="94.004463"
       fx="93.63131"
       fy="94.004463"
       r="50.587825"
       gradientTransform="matrix(2.2726371,0.7525437,-0.9385961,2.8345137,-40.622012,-268.34073)"
       gradientUnits="userSpaceOnUse" />
    <linearGradient
       inkscape:collect="always"
       xlink:href="#linearGradient3213"
       id="linearGradient3205"
       x1="105.51652"
       y1="67.450432"
       x2="106.18435"
       y2="81.808693"
       gradientUnits="userSpaceOnUse" />
    <filter
       inkscape:collect="always"
       x="-0.016970676"
       width="1.0339414"
       y="-0.48196727"
       height="1.9639345"
       id="filter4214">
      <feGaussianBlur
         inkscape:collect="always"
         stdDeviation="0.67056307"
         id="feGaussianBlur4216" />
    </filter>
    <linearGradient
       inkscape:collect="always"
       xlink:href="#linearGradient3213"
       id="linearGradient4222"
       gradientUnits="userSpaceOnUse"
       gradientTransform="matrix(1.5560933,0,0,1.5560933,-128.94886,-119.43069)"
       x1="178.62521"
       y1="92.407593"
       x2="194.10016"
       y2="107.88255" />
    <filter
       inkscape:collect="always"
       x="-0.095638197"
       width="1.1912764"
       y="-0.20029886"
       height="1.4005977"
       id="filter6200">
      <feGaussianBlur
         inkscape:collect="always"
         stdDeviation="4.4232666"
         id="feGaussianBlur6202" />
    </filter>
    <linearGradient
       inkscape:collect="always"
       xlink:href="#linearGradient2185"
       id="linearGradient2203"
       gradientUnits="userSpaceOnUse"
       gradientTransform="matrix(1.1531532,0,0,1.2452831,-21.351352,-45.433965)"
       x1="168.53906"
       y1="86.27272"
       x2="75.75"
       y2="189.06059" />
  </defs>
  <sodipodi:namedview
     id="base"
     pagecolor="#ffffff"
     bordercolor="#666666"
     borderopacity="1.0"
     inkscape:pageopacity="0.0"
     inkscape:pageshadow="2"
     inkscape:zoom="1"
     inkscape:cx="91.765625"
     inkscape:cy="92.031248"
     inkscape:document-units="px"
     inkscape:current-layer="layer1"
     inkscape:window-width="1152"
     inkscape:window-height="791"
     inkscape:window-x="0"
     inkscape:window-y="24"
     width="192px"
     height="192px" />
  <metadata
     id="metadata7">
    <rdf:RDF>
      <cc:Work
         rdf:about="">
        <dc:format>image/svg+xml</dc:format>
        <dc:type
           rdf:resource="http://purl.org/dc/dcmitype/StillImage" />
      </cc:Work>
    </rdf:RDF>
  </metadata>
  <g
     inkscape:label="Layer 1"
     inkscape:groupmode="layer"
     id="layer1">
    <g
       id="g4066"
       transform="matrix(0.642635,0,0,0.642635,53.576487,47.75034)">
      <path
         style="fill:#333333;fill-opacity:1;fill-rule:evenodd;stroke:none;stroke-width:1px;stroke-linecap:butt;stroke-linejoin:miter;stroke-opacity:1"
         d="M 25.342582,10.387396 L 54.440173,-7.7985995 L 52.361774,13.504994 L 81.978959,1.5541981 L 94.322998,20.133435 L 95.235852,5.5846393 L 113.67456,19.220594 L 121.98816,12.985395 L 134.97815,27.53419 L 139.65455,96.121371 L 112.63535,166.78694 L 23.264182,173.54174 L -17.784206,119.50337 L -8.4314081,51.435783 L 25.342582,10.387396 z "
         id="path2205"
         sodipodi:nodetypes="ccccccccccccccc" />
      <path
         style="fill:url(#linearGradient2203);fill-opacity:1;stroke:none;stroke-width:2;stroke-linecap:round;stroke-linejoin:bevel;stroke-miterlimit:4;stroke-dashoffset:0;stroke-opacity:1;filter:url(#filter6200)"
         d="M 161,93 C 125.672,93 51,114.784 42,135 C 33.157602,154.86199 62.672001,170.00001 98,170 C 133.328,170 154.16826,154.85391 162,138 C 164.20219,133.26088 167.78231,127.72823 171.09375,122.1875 C 176.52338,122.55412 182.4662,122.2028 183,119 C 184,113 193,95 193,95 C 184.14045,103.29774 169.66556,109.02186 165.15625,109.59375 C 169.10553,99.74901 179.65133,93 161,93 z "
         transform="matrix(1.5560933,0,0,1.5560933,-89.594384,-69.635703)"
         id="path4224"
         sodipodi:nodetypes="cssscsccc" />
      <path
         sodipodi:nodetypes="cccc"
         id="path3221"
         d="M -18.35418,33.996349 C -58.58259,34.522137 -59.1897,-11.736717 -61.01103,-37.557066 C -73.11553,-10.684574 -76.07382,48.061982 -23.17028,59.452845 C -10.497063,53.298719 -14.197381,37.773239 -18.35418,33.996349 z "
         style="fill:url(#linearGradient7510);fill-opacity:1;fill-rule:evenodd;stroke:none;stroke-width:1px;stroke-linecap:butt;stroke-linejoin:miter;stroke-opacity:1" />
      <path
         style="fill:#e6e6e6;fill-rule:evenodd;stroke:none;stroke-width:1px;stroke-linecap:butt;stroke-linejoin:miter;stroke-opacity:1"
         d="M 22.622946,11.941474 L 51.720537,-6.2445218 L 49.642138,15.059072 L 79.259323,3.1082758 L 92.76892,22.853071 L 94.847332,8.3042752 L 110.95492,20.774672 L 119.26852,14.539473 L 132.25851,29.088268 L 136.93491,97.675449 L 109.91571,168.34102 L 20.544546,175.09582 L -20.503842,121.05745 L -11.151044,52.989861 L 22.622946,11.941474 z "
         id="path2197" />
      <path
         id="path2199"
         d="M 22.622946,11.941474 L 51.720537,-6.2445218 L 49.642138,15.059072 L 79.259323,3.1082758 L 92.76892,22.853071 L 94.847332,8.3042752 L 110.95492,20.774672 L 119.26852,14.539473 L 132.25851,29.088268 L 136.93491,97.675449 L 109.91571,168.34102 L 20.544546,175.09582 L -20.503842,121.05745 L -11.151044,52.989861 L 22.622946,11.941474 z "
         style="fill:url(#radialGradient2203);fill-opacity:1;fill-rule:evenodd;stroke:none;stroke-width:1px;stroke-linecap:butt;stroke-linejoin:miter;stroke-opacity:1" />
      <path
         style="fill:url(#linearGradient3205);fill-opacity:1;fill-rule:evenodd;stroke:none;stroke-width:1px;stroke-linecap:butt;stroke-linejoin:miter;stroke-opacity:1"
         d="M 47.081739,67.450435 L 145.58608,67.450435 L 150.9287,81.474783 L 42.406956,81.808696 L 47.081739,67.450435 z "
         id="path3201"
         transform="matrix(1.5560933,0,0,1.5560933,-89.594384,-69.635703)"
         sodipodi:nodetypes="ccccc" />
      <path
         style="fill:#000000;fill-opacity:0.47058824;fill-rule:evenodd;stroke:none;stroke-width:1px;stroke-linecap:butt;stroke-linejoin:miter;stroke-opacity:1;filter:url(#filter4214)"
         d="M 50.086957,81.474782 L 144.91826,80.473043 L 144.58435,77.801739 L 48.417392,77.801739 L 50.086957,81.474782 z "
         id="path3207"
         transform="matrix(1.5560933,0,0,1.5560933,-89.594384,-69.635703)"
         sodipodi:nodetypes="ccccc" />
      <path
         style="fill:url(#linearGradient4222);fill-opacity:1;fill-rule:evenodd;stroke:none;stroke-width:1px;stroke-linecap:butt;stroke-linejoin:miter;stroke-opacity:1"
         d="M 134.56035,33.996349 C 174.78876,34.522137 175.39587,-11.736717 177.2172,-37.557066 C 189.3217,-10.684574 192.27999,48.061982 139.37645,59.452845 C 126.70323,53.298719 130.40355,37.773239 134.56035,33.996349 z "
         id="path4218"
         sodipodi:nodetypes="cccc" />
      <path
         id="path2198"
         d="M 36.427296,-32.196021 C -0.36118417,-15.476468 -26.707047,36.604792 -26.707046,98.224045 C -26.707043,173.32721 24.75324,192.75672 62.330669,192.75672 C 99.908099,192.75672 145.58922,173.71573 145.58922,98.612565 C 145.58922,71.412085 138.93107,36.466633 130.95104,19.475364 C 130.04337,17.542735 129.92153,18.450468 129.03992,17.042676 L 123.02133,32.67513 L 104.29385,27.938697 L 94.195909,47.146723 L 99.968679,55.334225 L 109.74289,55.334225 L 97.050999,71.916345 L 80.468879,61.218205 L 73.612349,48.526319 L 89.805439,39.919178 L 86.304229,18.231127 L 66.755809,26.060222 L 64.031289,-8.9046028 L 39.426919,11.423219 L 53.284522,-25.679881 L 34.564128,-15.954297 L 36.427296,-32.196021 z M 19.927125,37.779549 L 37.481803,39.724666 L 33.59157,49.498877 L 37.481803,66.080995 L 20.899684,68.026115 L 9.1803556,55.334225 L 19.927125,37.779549 z M 121.46221,99.293865 L 106.82521,127.5953 L 98.996119,156.86932 L 87.469949,134.14342 L 71.667229,142.23231 L 61.633219,135.87736 L 50.173689,141.25976 L 26.861551,132.39146 L 17.655567,152.58599 L 12.098031,129.54042 L -7.4503914,114.90342 L 16.960822,119.76622 L 36.509245,114.90342 L 55.085108,121.71133 L 71.667229,114.90342 L 93.160769,114.90342 L 121.46221,99.293865 z "
         style="fill:#333333;fill-opacity:1;stroke:none;stroke-width:8;stroke-linecap:round;stroke-linejoin:round;stroke-miterlimit:4;stroke-dashoffset:0;stroke-opacity:1"
         sodipodi:nodetypes="cssssccccccccccccccccccccccccccccccccccccccccc" />
      <path
         style="fill:#000000;fill-opacity:0.46961323;fill-rule:evenodd;stroke:none;stroke-width:1px;stroke-linecap:butt;stroke-linejoin:miter;stroke-opacity:1;filter:url(#filter8515)"
         d="M 168.45596,47.419689 C 168.12435,56.04145 162.48704,75.606218 147.56477,78.92228 C 154.11453,71.069541 164.54496,61.833253 168.45596,47.419689 z "
         id="path4220"
         transform="matrix(1.5560933,0,0,1.5560933,-79.601481,-69.635703)"
         sodipodi:nodetypes="ccc" />
      <path
         style="fill:#ff2900;fill-opacity:1;stroke:none;stroke-width:8;stroke-linecap:round;stroke-linejoin:round;stroke-miterlimit:4;stroke-dashoffset:0;stroke-opacity:1"
         d="M 34.017774,-31.219651 C -2.7707054,-14.500098 -29.636169,37.581162 -29.636168,99.200419 C -29.636164,174.30358 21.824118,193.73309 59.401546,193.73309 C 96.978974,193.73309 148.48789,174.30358 148.48789,99.200419 C 148.48789,68.906083 142.00122,40.90157 131.03047,18.283567 L 122.42332,34.817058 L 102.92353,29.954267 L 92.565784,49.162293 L 97.039553,56.310597 L 106.81376,56.310597 L 94.121878,72.892716 L 77.539759,62.194575 L 70.683222,49.502689 L 86.876318,40.895548 L 83.375108,19.207497 L 63.826686,27.036592 L 61.88157,-7.1488328 L 36.497798,12.399589 L 51.1348,-24.70351 L 31.635006,-14.977927 L 34.017774,-31.219651 z M 16.998003,38.75592 L 34.552681,40.701036 L 30.662448,50.475247 L 34.552681,67.057366 L 17.970562,69.002483 L 6.2512338,56.310597 L 16.998003,38.75592 z M 118.53309,100.27023 L 103.89609,128.57168 L 96.066994,157.84568 L 85.320225,135.37959 L 68.738106,143.20868 L 58.963895,137.37333 L 47.244567,142.23612 L 25.751028,134.40703 L 16.025445,155.90057 L 9.1689088,130.5168 L -10.379513,115.87979 L 14.0317,120.74259 L 33.580123,115.87979 L 52.155987,122.6877 L 68.738106,115.87979 L 90.231644,115.87979 L 118.53309,100.27023 z "
         id="path1307" />
      <path
         id="path3199"
         d="M 34.017774,-31.219651 C -2.7707054,-14.500098 -29.636169,37.581162 -29.636168,99.200419 C -29.636164,174.30358 21.824118,193.73309 59.401546,193.73309 C 96.978974,193.73309 148.48789,174.30358 148.48789,99.200419 C 148.48789,68.906083 142.00122,40.90157 131.03047,18.283567 L 122.42332,34.817058 L 102.92353,29.954267 L 92.565784,49.162293 L 97.039553,56.310597 L 106.81376,56.310597 L 94.121878,72.892716 L 77.539759,62.194575 L 70.683222,49.502689 L 86.876318,40.895548 L 83.375108,19.207497 L 63.826686,27.036592 L 61.88157,-7.1488328 L 36.497798,12.399589 L 51.1348,-24.70351 L 31.635006,-14.977927 L 34.017774,-31.219651 z M 16.998003,38.75592 L 34.552681,40.701036 L 30.662448,50.475247 L 34.552681,67.057366 L 17.970562,69.002483 L 6.2512338,56.310597 L 16.998003,38.75592 z M 118.53309,100.27023 L 103.89609,128.57168 L 96.066994,157.84568 L 85.320225,135.37959 L 68.738106,143.20868 L 58.963895,137.37333 L 47.244567,142.23612 L 25.751028,134.40703 L 16.025445,155.90057 L 9.1689088,130.5168 L -10.379513,115.87979 L 14.0317,120.74259 L 33.580123,115.87979 L 52.155987,122.6877 L 68.738106,115.87979 L 90.231644,115.87979 L 118.53309,100.27023 z "
         style="opacity:0.7;fill:url(#radialGradient7499);fill-opacity:1;stroke:none;stroke-width:8;stroke-linecap:round;stroke-linejoin:round;stroke-miterlimit:4;stroke-dashoffset:0;stroke-opacity:1" />
      <path
         style="fill:#ffffff;fill-rule:evenodd;stroke:none;stroke-width:1px;stroke-linecap:butt;stroke-linejoin:miter;stroke-opacity:1;filter:url(#filter4248)"
         d="M 91.965457,69.416235 C 78.834191,84.234079 69.947753,104.78224 69.416235,125.12608 C 70.446436,135.37707 77.974237,136.64083 84.891192,133.96891 C 87.681118,127.76316 79.713177,112.47886 91.965457,69.416235 z "
         id="path3225"
         transform="matrix(1.5560933,0,0,1.5560933,-128.49672,-119.43069)"
         sodipodi:nodetypes="cccc" />
      <path
         style="fill:#ffffff;fill-rule:evenodd;stroke:none;stroke-width:1px;stroke-linecap:butt;stroke-linejoin:miter;stroke-opacity:1;filter:url(#filter5275)"
         d="M 77.374784,175.53022 C 74.929245,168.82707 81.559839,161.75193 85.333333,166.68739 C 87.627817,169.68841 90.639033,182.16235 100.80829,184.8152 C 105.94218,186.15447 113.18826,194.98446 103.46114,193.65803 C 93.734024,192.33161 80.911917,184.8152 77.374784,175.53022 z "
         id="path4252"
         transform="matrix(1.5560933,0,0,1.5560933,-128.49672,-119.43069)"
         sodipodi:nodetypes="csssc" />
      <path
         style="fill:#000000;fill-opacity:0.28729278;fill-rule:evenodd;stroke:none;stroke-width:1px;stroke-linecap:butt;stroke-linejoin:miter;stroke-opacity:1;filter:url(#filter6396)"
         d="M 171.55095,155.19171 C 164.59402,170.59751 146.52669,188.17611 129.5475,196.31087 C 149.88601,198.96373 171.10881,176.85665 171.55095,155.19171 z "
         id="path5281"
         transform="matrix(1.5560933,0,0,1.5560933,-128.49672,-119.43069)"
         sodipodi:nodetypes="ccc" />
      <path
         sodipodi:nodetypes="ccc"
         transform="matrix(-1.5560933,0,0,1.5560933,195.80765,-69.635703)"
         id="path8519"
         d="M 168.45596,47.419689 C 168.12435,56.04145 162.48704,75.606218 147.56477,78.92228 C 154.11453,71.069541 164.54496,61.833253 168.45596,47.419689 z "
         style="fill:#000000;fill-opacity:0.46961323;fill-rule:evenodd;stroke:none;stroke-width:1px;stroke-linecap:butt;stroke-linejoin:miter;stroke-opacity:1;filter:url(#filter8515)" />
    </g>
  </g>
</svg>
