<?xml version="1.0" encoding="UTF-8" standalone="no"?>
<!-- Created with Inkscape (http://www.inkscape.org/) -->
<svg
   xmlns:dc="http://purl.org/dc/elements/1.1/"
   xmlns:cc="http://web.resource.org/cc/"
   xmlns:rdf="http://www.w3.org/1999/02/22-rdf-syntax-ns#"
   xmlns:svg="http://www.w3.org/2000/svg"
   xmlns="http://www.w3.org/2000/svg"
   xmlns:xlink="http://www.w3.org/1999/xlink"
   xmlns:sodipodi="http://sodipodi.sourceforge.net/DTD/sodipodi-0.dtd"
   xmlns:inkscape="http://www.inkscape.org/namespaces/inkscape"
   width="256"
   height="256"
   id="svg2"
   sodipodi:version="0.32"
   inkscape:version="0.45pre1"
   sodipodi:docbase="/home/nicu/Desktop/clipart"
   sodipodi:docname="xmas_ornament.svg"
   inkscape:output_extension="org.inkscape.output.svg.inkscape"
   version="1.0"
   sodipodi:modified="true">
  <defs
     id="defs4">
    <linearGradient
       id="linearGradient2212">
      <stop
         id="stop2214"
         offset="0"
         style="stop-color:#ffffff;stop-opacity:0.7918089;" />
      <stop
         style="stop-color:#ffffff;stop-opacity:0;"
         offset="1"
         id="stop2216" />
    </linearGradient>
    <linearGradient
       id="linearGradient5443">
      <stop
         style="stop-color:#ffffff;stop-opacity:0;"
         offset="0"
         id="stop5445" />
      <stop
         id="stop5451"
         offset="0.64285713"
         style="stop-color:#ffffff;stop-opacity:0;" />
      <stop
         style="stop-color:#ffffff;stop-opacity:1;"
         offset="1"
         id="stop5447" />
    </linearGradient>
    <linearGradient
       id="linearGradient3139">
      <stop
         style="stop-color:#000000;stop-opacity:0;"
         offset="0"
         id="stop3141" />
      <stop
         style="stop-color:#000000;stop-opacity:0.50515461;"
         offset="1"
         id="stop3143" />
    </linearGradient>
    <radialGradient
       inkscape:collect="always"
       xlink:href="#linearGradient3139"
       id="radialGradient3145"
       cx="330.67789"
       cy="494.03882"
       fx="330.67789"
       fy="494.03882"
       r="128.5"
       gradientTransform="matrix(0.7831482,0.5898402,-0.5308075,0.7047662,102.97221,-430.9705)"
       gradientUnits="userSpaceOnUse" />
    <linearGradient
       inkscape:collect="always"
       xlink:href="#linearGradient3139"
       id="linearGradient3149"
       x1="423.91296"
       y1="374.34137"
       x2="404.81693"
       y2="411.34137"
       gradientUnits="userSpaceOnUse"
       gradientTransform="matrix(0.6807993,0,0,0.6807993,-121.81165,-217.09092)" />
    <radialGradient
       inkscape:collect="always"
       xlink:href="#linearGradient3139"
       id="radialGradient5218"
       cx="421.35172"
       cy="355.85101"
       fx="421.35172"
       fy="355.85101"
       r="17.80612"
       gradientTransform="matrix(2.2345418,0.9882936,-1.247787,2.8212599,-332.45744,-1395.1953)"
       gradientUnits="userSpaceOnUse" />
    <filter
       inkscape:collect="always"
       x="-0.20038863"
       width="1.4007773"
       y="-0.52209578"
       height="2.0441916"
       id="filter5437">
      <feGaussianBlur
         inkscape:collect="always"
         stdDeviation="22.144155"
         id="feGaussianBlur5439" />
    </filter>
    <radialGradient
       inkscape:collect="always"
       xlink:href="#linearGradient5443"
       id="radialGradient5449"
       cx="83"
       cy="107.54552"
       fx="83"
       fy="107.54552"
       r="87.482711"
       gradientTransform="matrix(1.8383278,1.3637231,-1.0832331,1.4602077,46.915658,-165.22782)"
       gradientUnits="userSpaceOnUse" />
    <filter
       inkscape:collect="always"
       x="-0.32402941"
       width="1.6480588"
       y="-0.30930081"
       height="1.6186016"
       id="filter3450">
      <feGaussianBlur
         inkscape:collect="always"
         stdDeviation="1.5147671"
         id="feGaussianBlur3452" />
    </filter>
    <filter
       inkscape:collect="always"
       x="-0.40027164"
       width="1.8005433"
       y="-0.4252886"
       height="1.8505772"
       id="filter3454">
      <feGaussianBlur
         inkscape:collect="always"
         stdDeviation="1.5147671"
         id="feGaussianBlur3456" />
    </filter>
    <filter
       inkscape:collect="always"
       x="-0.29585296"
       width="1.5917059"
       y="-0.29585296"
       height="1.5917059"
       id="filter3458">
      <feGaussianBlur
         inkscape:collect="always"
         stdDeviation="1.5147671"
         id="feGaussianBlur3460" />
    </filter>
    <filter
       inkscape:collect="always"
       id="filter3462">
      <feGaussianBlur
         inkscape:collect="always"
         stdDeviation="1.5147671"
         id="feGaussianBlur3464" />
    </filter>
    <filter
       inkscape:collect="always"
       x="-0.031213841"
       width="1.0624277"
       y="-0.12133405"
       height="1.2426681"
       id="filter3466">
      <feGaussianBlur
         inkscape:collect="always"
         stdDeviation="1.5147671"
         id="feGaussianBlur3468" />
    </filter>
    <radialGradient
       inkscape:collect="always"
       xlink:href="#linearGradient2212"
       id="radialGradient2210"
       cx="70.181473"
       cy="148.15718"
       fx="70.181473"
       fy="148.15718"
       r="61.643635"
       gradientTransform="matrix(1.3583259,-0.4394242,0.7927171,2.4504039,-146.01266,-171.70807)"
       gradientUnits="userSpaceOnUse" />
    <filter
       inkscape:collect="always"
       x="-0.2122904"
       width="1.4245808"
       y="-0.15976563"
       height="1.3195313"
       id="filter3207">
      <feGaussianBlur
         inkscape:collect="always"
         stdDeviation="13.086352"
         id="feGaussianBlur3209" />
    </filter>
  </defs>
  <sodipodi:namedview
     id="base"
     pagecolor="#ffffff"
     bordercolor="#666666"
     borderopacity="1.0"
     gridtolerance="10000"
     guidetolerance="10"
     objecttolerance="10"
     inkscape:pageopacity="0.0"
     inkscape:pageshadow="2"
     inkscape:zoom="1"
     inkscape:cx="128"
     inkscape:cy="127.56454"
     inkscape:document-units="px"
     inkscape:current-layer="layer1"
     inkscape:window-width="1152"
     inkscape:window-height="791"
     inkscape:window-x="0"
     inkscape:window-y="24"
     width="256px"
     height="256px" />
  <metadata
     id="metadata7">
    <rdf:RDF>
      <cc:Work
         rdf:about="">
        <dc:format>image/svg+xml</dc:format>
        <dc:type
           rdf:resource="http://purl.org/dc/dcmitype/StillImage" />
      </cc:Work>
    </rdf:RDF>
  </metadata>
  <g
     inkscape:label="Layer 1"
     inkscape:groupmode="layer"
     id="layer1">
    <path
       style="fill:#ffff00;fill-opacity:1;fill-rule:evenodd;stroke:none;stroke-width:9;stroke-linecap:butt;stroke-linejoin:miter;stroke-miterlimit:4;stroke-dasharray:none;stroke-opacity:1"
       d="M 166.06007,9.2535711 C 165.00348,9.2359111 163.8915,9.3373701 162.76245,9.5939701 C 158.26289,10.616599 155.14088,13.424562 153.84824,16.742363 C 152.55559,20.060163 152.80075,23.561323 153.46529,26.741602 C 154.79436,33.102167 158.06068,38.634315 158.06068,38.634315 L 158.27343,38.974715 L 158.55001,39.251289 C 159.41133,40.112616 161.45071,41.21948 163.25178,41.080937 C 165.05284,40.942395 166.77241,40.347077 169.86829,39.315114 C 173.11163,38.234005 174.51167,35.418859 175.61254,32.400746 C 176.7134,29.382634 177.29046,25.844534 177.14434,22.337682 C 176.99822,18.83083 176.15454,15.260161 173.76162,12.551192 C 171.96693,10.519462 169.22985,9.3065501 166.06007,9.2535711 z M 166.01752,15.295664 C 167.62563,15.230716 168.44514,15.774321 169.18749,16.614713 C 170.1773,17.73524 170.90796,19.97264 171.01714,22.592982 C 171.12632,25.213324 170.63963,28.121542 169.84702,30.294524 C 169.05441,32.467506 167.73126,33.566956 167.911,33.507045 C 165.04413,34.462663 163.58138,34.818925 163.0603,34.889919 C 162.5716,33.997874 160.40832,30.001651 159.46483,25.486379 C 158.93797,22.964964 158.92783,20.55168 159.54993,18.954961 C 160.17203,17.358241 161.13482,16.251609 164.12405,15.572239 C 164.8672,15.40334 165.48149,15.317314 166.01752,15.295664 z "
       id="path4241" />
    <path
       sodipodi:type="arc"
       style="opacity:1;fill:#000000;fill-opacity:1;stroke:none;stroke-width:10;stroke-miterlimit:4;stroke-dasharray:none;stroke-dashoffset:0;stroke-opacity:1;filter:url(#filter5437)"
       id="path3210"
       sodipodi:cx="343"
       sodipodi:cy="636.36218"
       sodipodi:rx="109"
       sodipodi:ry="43"
       d="M 452 636.36218 A 109 43 0 1 1  234,636.36218 A 109 43 0 1 1  452 636.36218 z"
       transform="matrix(0.8551112,0,0,0.8319621,-153.04947,-339.12438)" />
    <path
       style="opacity:1;fill:#ff0000;fill-opacity:1;stroke:none;stroke-width:10;stroke-miterlimit:4;stroke-dasharray:none;stroke-dashoffset:0;stroke-opacity:1"
       d="M 145.06167,29.613724 C 141.37091,37.355066 137.24404,44.659253 132.70091,51.548227 C 86.838626,54.252572 50.430569,92.344831 50.430569,138.88201 C 50.430569,187.17247 89.622823,226.36472 137.91328,226.36472 C 186.20373,226.36472 225.39599,187.17247 225.39599,138.88201 C 225.39599,105.76743 206.98013,76.911956 179.82498,62.058066 C 178.97099,53.796185 179.17244,45.546395 181.14403,37.783316 L 145.06167,29.613724 z "
       id="path2160" />
    <path
       style="opacity:1;fill:url(#radialGradient2210);fill-opacity:1.0;stroke:none;stroke-width:10;stroke-miterlimit:4;stroke-dasharray:none;stroke-dashoffset:0;stroke-opacity:1;filter:url(#filter3207)"
       d="M 114.9375,58.53125 C 81.113091,68.042844 55.042739,100.53303 54.40625,135.875 C 52.927092,170.88416 75.537668,205.18313 108.53287,217.12483 C 130.7551,225.45574 156.75853,223.5947 177.625,212.40625 C 162.82749,187.83969 127.90533,186.26084 113.75,161.09375 C 106.53617,145.90847 113.66554,128.6434 121.5625,115.25 C 128.02284,102.81863 139.41439,90.960612 138.25,76 C 137.21062,67.974709 130.50369,62.471002 123,60.5 C 120.34905,59.807979 117.64942,58.14311 114.9375,58.53125 z "
       id="path2198" />
    <path
       id="path5216"
       d="M 166.06007,9.2535711 C 165.00348,9.2359111 163.8915,9.3373701 162.76245,9.5939701 C 158.26289,10.616599 155.14088,13.424562 153.84824,16.742363 C 152.55559,20.060163 152.80075,23.561323 153.46529,26.741602 C 154.79436,33.102167 158.06068,38.634315 158.06068,38.634315 L 158.27343,38.974715 L 158.55001,39.251289 C 159.41133,40.112616 161.45071,41.21948 163.25178,41.080937 C 165.05284,40.942395 166.77241,40.347077 169.86829,39.315114 C 173.11163,38.234005 174.51167,35.418859 175.61254,32.400746 C 176.7134,29.382634 177.29046,25.844534 177.14434,22.337682 C 176.99822,18.83083 176.15454,15.260161 173.76162,12.551192 C 171.96693,10.519462 169.22985,9.3065501 166.06007,9.2535711 z M 166.01752,15.295664 C 167.62563,15.230716 168.44514,15.774321 169.18749,16.614713 C 170.1773,17.73524 170.90796,19.97264 171.01714,22.592982 C 171.12632,25.213324 170.63963,28.121542 169.84702,30.294524 C 169.05441,32.467506 167.73126,33.566956 167.911,33.507045 C 165.04413,34.462663 163.58138,34.818925 163.0603,34.889919 C 162.5716,33.997874 160.40832,30.001651 159.46483,25.486379 C 158.93797,22.964964 158.92783,20.55168 159.54993,18.954961 C 160.17203,17.358241 161.13482,16.251609 164.12405,15.572239 C 164.8672,15.40334 165.48149,15.317314 166.01752,15.295664 z "
       style="fill:url(#radialGradient5218);fill-opacity:1;fill-rule:evenodd;stroke:none;stroke-width:9;stroke-linecap:butt;stroke-linejoin:miter;stroke-miterlimit:4;stroke-dasharray:none;stroke-opacity:1" />
    <path
       id="path3137"
       d="M 145.06167,29.613724 C 141.37091,37.355066 137.24404,44.659253 132.70091,51.548227 C 86.838626,54.252572 50.430569,92.344831 50.430569,138.88201 C 50.430569,187.17247 89.622823,226.36472 137.91328,226.36472 C 186.20373,226.36472 225.39599,187.17247 225.39599,138.88201 C 225.39599,105.76743 206.98013,76.911956 179.82498,62.058066 C 178.97099,53.796185 179.17244,45.546395 181.14403,37.783316 L 145.06167,29.613724 z "
       style="opacity:1;fill:url(#radialGradient3145);fill-opacity:1;stroke:none;stroke-width:10;stroke-miterlimit:4;stroke-dasharray:none;stroke-dashoffset:0;stroke-opacity:1" />
    <path
       style="fill:#ffff00;fill-rule:evenodd;stroke:none;stroke-width:1px;stroke-linecap:butt;stroke-linejoin:miter;stroke-opacity:1"
       d="M 137.57288,39.816986 C 138.44439,41.263344 179.91509,51.290088 180.86696,49.888458 C 181.9371,48.312701 182.99538,35.499316 181.95347,34.505165 C 180.49827,33.116689 147.3225,25.02528 145.06167,25.520201 C 143.38558,25.887118 136.82423,38.574527 137.57288,39.816986 z "
       id="path2165"
       sodipodi:nodetypes="cssss" />
    <path
       style="opacity:1;fill:url(#radialGradient5449);fill-opacity:1.0;stroke:none;stroke-width:10;stroke-miterlimit:4;stroke-dasharray:none;stroke-dashoffset:0;stroke-opacity:1"
       d="M 145.06167,29.613724 C 141.37091,37.355066 137.24404,44.659253 132.70091,51.548227 C 86.838626,54.252572 50.430569,92.344831 50.430569,138.88201 C 50.430569,187.17247 89.622823,226.36472 137.91328,226.36472 C 186.20373,226.36472 225.39599,187.17247 225.39599,138.88201 C 225.39599,105.76743 206.98013,76.911956 179.82498,62.058066 C 178.97099,53.796185 179.17244,45.546395 181.14403,37.783316 L 145.06167,29.613724 z "
       id="path5441" />
    <path
       sodipodi:nodetypes="cssss"
       id="path3147"
       d="M 137.57288,39.816986 C 138.44439,41.263344 179.91509,51.290088 180.86696,49.888458 C 181.9371,48.312701 182.99538,35.499316 181.95347,34.505165 C 180.49827,33.116689 147.3225,25.02528 145.06167,25.520201 C 143.38558,25.887118 136.82423,38.574527 137.57288,39.816986 z "
       style="fill:url(#linearGradient3149);fill-rule:evenodd;stroke:none;stroke-width:1px;stroke-linecap:butt;stroke-linejoin:miter;stroke-opacity:1" />
    <path
       style="fill:#ffffff;fill-rule:evenodd;stroke-width:1px;stroke-linecap:butt;stroke-linejoin:miter;stroke-opacity:1;filter:url(#filter3466)"
       d="M 180.75826,70.789565 C 150.35419,70.469064 117.7331,67.101802 86.153043,77.365217 L 95.721739,95.72174 C 124.92712,85.56459 154.81848,80.209362 185.21044,78.358261 L 180.75826,70.789565 z "
       id="path2189"
       sodipodi:nodetypes="ccccc" />
    <path
       style="fill:#ffffff;fill-rule:evenodd;stroke-width:1px;stroke-linecap:butt;stroke-linejoin:miter;stroke-opacity:1;filter:url(#filter3462)"
       d="M 187.43652,84.146087 C 157.54261,87.217968 128.58618,93.102316 101.06435,103.29043 L 114.41391,123.53739 C 141.65649,109.15891 165.68802,95.880899 194.11478,92.16 L 187.43652,84.146087 z "
       id="path2191"
       sodipodi:nodetypes="ccccc" />
    <path
       sodipodi:type="arc"
       style="opacity:1;fill:#ffffff;fill-opacity:1;stroke-width:9;stroke-miterlimit:4;stroke-dasharray:none;stroke-dashoffset:0;stroke-opacity:1;filter:url(#filter3458)"
       id="path2193"
       sodipodi:cx="76.354782"
       sodipodi:cy="100.39652"
       sodipodi:rx="5.1199999"
       sodipodi:ry="5.1199999"
       d="M 81.474782 100.39652 A 5.1199999 5.1199999 0 1 1  71.234782,100.39652 A 5.1199999 5.1199999 0 1 1  81.474782 100.39652 z" />
    <path
       sodipodi:type="arc"
       style="opacity:1;fill:#ffffff;fill-opacity:1;stroke-width:9;stroke-miterlimit:4;stroke-dasharray:none;stroke-dashoffset:0;stroke-opacity:1;filter:url(#filter3454)"
       id="path2195"
       sodipodi:cx="84.813911"
       sodipodi:cy="114.86609"
       sodipodi:rx="3.7843478"
       sodipodi:ry="3.5617392"
       d="M 88.598259 114.86609 A 3.7843478 3.5617392 0 1 1  81.029564,114.86609 A 3.7843478 3.5617392 0 1 1  88.598259 114.86609 z" />
    <path
       sodipodi:type="arc"
       style="opacity:1;fill:#ffffff;fill-opacity:1;stroke-width:9;stroke-miterlimit:4;stroke-dasharray:none;stroke-dashoffset:0;stroke-opacity:1;filter:url(#filter3450)"
       id="path2197"
       sodipodi:cx="97.72522"
       sodipodi:cy="136.23653"
       sodipodi:rx="4.6747828"
       sodipodi:ry="4.8973913"
       d="M 102.4 136.23653 A 4.6747828 4.8973913 0 1 1  93.050437,136.23653 A 4.6747828 4.8973913 0 1 1  102.4 136.23653 z"
       transform="matrix(1.5347842,0,0,1.3062855,-53.214078,-44.686404)" />
  </g>
</svg>
