<?xml version="1.0" encoding="UTF-8" standalone="no"?>
<!-- Created with Inkscape (http://www.inkscape.org/) -->
<svg
   xmlns:dc="http://purl.org/dc/elements/1.1/"
   xmlns:cc="http://web.resource.org/cc/"
   xmlns:rdf="http://www.w3.org/1999/02/22-rdf-syntax-ns#"
   xmlns:svg="http://www.w3.org/2000/svg"
   xmlns="http://www.w3.org/2000/svg"
   xmlns:xlink="http://www.w3.org/1999/xlink"
   xmlns:sodipodi="http://inkscape.sourceforge.net/DTD/sodipodi-0.dtd"
   xmlns:inkscape="http://www.inkscape.org/namespaces/inkscape"
   id="svg548"
   sodipodi:version="0.32"
   width="400pt"
   height="400pt"
   sodipodi:docbase="/var/www/html/svg_gallery/svg/toys"
   sodipodi:docname="ball.svg"
   inkscape:version="0.42">
  <metadata
     id="metadata16" />
  <defs
     id="defs550">
    <linearGradient
       id="linearGradient2117">
      <stop
         style="stop-color:#ff4f80;stop-opacity:1;"
         offset="0.00000000"
         id="stop2118" />
      <stop
         style="stop-color:#ff2c59;stop-opacity:1;"
         offset="1.00000000"
         id="stop2119" />
    </linearGradient>
    <radialGradient
       xlink:href="#linearGradient2117"
       id="radialGradient2120"
       cx="0.39320388"
       cy="0.34313726"
       r="0.77944887"
       fx="0.39320388"
       fy="0.34313726" />
  </defs>
  <sodipodi:namedview
     id="base"
     showgrid="true"
     inkscape:zoom="0.77250000"
     inkscape:cx="152.75431"
     inkscape:cy="200.00000"
     inkscape:window-width="712"
     inkscape:window-height="569"
     inkscape:window-x="136"
     inkscape:window-y="160"
     inkscape:current-layer="svg548" />
  <g
     id="g842">
    <path
       transform="matrix(1.078078,0.000000,0.000000,1.111455,-58.55104,-40.29411)"
       style="fill:url(#radialGradient2120);fill-rule:evenodd;stroke:#000000;stroke-width:9.1354294;stroke-linejoin:round"
       d="M 493.75005,249.37498 C 493.75005,360.80999 400.51004,451.25000 285.62503,451.25000 C 170.74002,451.25000 77.500015,360.80999 77.500015,249.37498 C 77.500015,137.93998 170.74002,47.499969 285.62503,47.499969 C 400.51004,47.499969 493.75005,137.93998 493.75005,249.37498 z "
       id="path648" />
    <path
       style="fill:#00ff00;fill-rule:evenodd;stroke:#000000;stroke-width:10.000000;stroke-dasharray:none;stroke-linejoin:round;"
       d="M 49.6525 338.454 C 108.206 227.52 244.403 91.7379 362.733 42.2561 C 391.172 57.9252 422.674 90.3735 435.695 111.494 C 301.747 175.898 187.07 307.209 117.293 417.344 C 92.4482 402.352 62.8475 366.52 49.6525 338.454 z "
       id="path649"
       sodipodi:nodetypes="ccccc" />
    <polygon
       sodipodi:type="star"
       style="font-size:12.000000;fill:#ffff00;fill-rule:evenodd;stroke-width:1.0000000pt;"
       id="polygon650"
       sodipodi:sides="5"
       sodipodi:cx="106.385345"
       sodipodi:cy="281.456451"
       sodipodi:r1="91.5705948"
       sodipodi:r2="27.4711800"
       sodipodi:arg1="0.80450398"
       sodipodi:arg2="1.43282247"
       points="169.887,347.432 110.164,308.667 63.262,362.237 81.6745,293.458 16.2323,265.406 87.3349,261.664 93.791,190.756 119.322,257.222 188.755,241.451 133.431,286.271 169.887,347.432 "
       transform="matrix(0.404409,-0.469124,0.365526,0.383571,-23.93852,272.0222)" />
    <polygon
       sodipodi:type="star"
       style="font-size:12.000000;fill:#ffff00;fill-rule:evenodd;stroke-width:1.0000000pt;"
       id="polygon651"
       sodipodi:sides="5"
       sodipodi:cx="106.385345"
       sodipodi:cy="281.456451"
       sodipodi:r1="91.5705948"
       sodipodi:r2="27.4711800"
       sodipodi:arg1="0.80450398"
       sodipodi:arg2="1.43282247"
       points="169.887,347.432 110.164,308.667 63.262,362.237 81.6745,293.458 16.2323,265.406 87.3349,261.664 93.791,190.756 119.322,257.222 188.755,241.451 133.431,286.271 169.887,347.432 "
       transform="matrix(0.487279,-0.385438,0.316418,0.435217,74.41716,134.8348)" />
    <polygon
       sodipodi:type="star"
       style="font-size:12.000000;fill:#ffff00;fill-rule:evenodd;stroke-width:1.0000000pt;"
       id="polygon652"
       sodipodi:sides="5"
       sodipodi:cx="106.385345"
       sodipodi:cy="281.456451"
       sodipodi:r1="91.5705948"
       sodipodi:r2="27.4711800"
       sodipodi:arg1="0.80450398"
       sodipodi:arg2="1.43282247"
       points="169.887,347.432 110.164,308.667 63.262,362.237 81.6745,293.458 16.2323,265.406 87.3349,261.664 93.791,190.756 119.322,257.222 188.755,241.451 133.431,286.271 169.887,347.432 "
       transform="matrix(0.523977,-0.291110,0.239349,0.463004,212.5147,19.41130)" />
    <path
       style="fill:#ffffff;fill-opacity:0.24999996;fill-rule:evenodd;stroke-width:1.0000000pt;"
       d="M 336.56958,37.216829 C 186.08414,-32.362459 -35.598705,113.26861 48.543689,313.91586 C 93.851132,330.09708 -3.2362454,-29.126213 336.56958,37.216829 z "
       id="path834"
       sodipodi:nodetypes="ccc" />
  </g>
  <metadata
     id="metadata18">
    <rdf:RDF>
      <cc:Work
         rdf:about="">
        <dc:title>Clipart by Nicu Buculei - piggybank</dc:title>
        <dc:rights>
          <cc:Agent>
            <dc:title>Nicu Buculei</dc:title>
          </cc:Agent>
        </dc:rights>
        <dc:type
           rdf:resource="http://purl.org/dc/dcmitype/StillImage" />
        <cc:license
           rdf:resource="http://web.resource.org/cc/PublicDomain" />
        <dc:format>image/svg+xml</dc:format>
      </cc:Work>
      <cc:License
         rdf:about="http://web.resource.org/cc/PublicDomain">
        <cc:permits
           rdf:resource="http://web.resource.org/cc/Reproduction" />
        <cc:permits
           rdf:resource="http://web.resource.org/cc/Distribution" />
        <cc:permits
           rdf:resource="http://web.resource.org/cc/DerivativeWorks" />
      </cc:License>
    </rdf:RDF>
  </metadata>
</svg>
