<?xml version="1.0" encoding="UTF-8" standalone="no"?>
<!-- Created with Inkscape (http://www.inkscape.org/) -->
<svg
   xmlns:dc="http://purl.org/dc/elements/1.1/"
   xmlns:cc="http://web.resource.org/cc/"
   xmlns:rdf="http://www.w3.org/1999/02/22-rdf-syntax-ns#"
   xmlns:svg="http://www.w3.org/2000/svg"
   xmlns="http://www.w3.org/2000/svg"
   xmlns:xlink="http://www.w3.org/1999/xlink"
   xmlns:sodipodi="http://sodipodi.sourceforge.net/DTD/sodipodi-0.dtd"
   xmlns:inkscape="http://www.inkscape.org/namespaces/inkscape"
   version="1.0"
   x="0.0000000"
   y="0.0000000"
   width="200.00000"
   height="200.00000"
   id="svg2"
   sodipodi:version="0.32"
   inkscape:version="0.45pre1"
   sodipodi:docname="paperboat_logo.svg"
   sodipodi:docbase="/home/nicu/Desktop/clipart"
   inkscape:export-filename="/home/nicu/Desktop/seamonkey/paperboat_blue/paperboat_logo.png"
   inkscape:export-xdpi="90.000000"
   inkscape:export-ydpi="90.000000"
   inkscape:output_extension="org.inkscape.output.svg.inkscape"
   sodipodi:modified="true">
  <metadata
     id="metadata86">
    <rdf:RDF>
      <cc:Work
         rdf:about="">
        <dc:format>image/svg+xml</dc:format>
        <dc:type
           rdf:resource="http://purl.org/dc/dcmitype/StillImage" />
      </cc:Work>
    </rdf:RDF>
  </metadata>
  <sodipodi:namedview
     inkscape:window-height="620"
     inkscape:window-width="778"
     inkscape:pageshadow="2"
     inkscape:pageopacity="0.0"
     borderopacity="1.0"
     bordercolor="#666666"
     pagecolor="#ffffff"
     id="base"
     inkscape:zoom="1"
     inkscape:cx="150.99662"
     inkscape:cy="123.74094"
     inkscape:window-x="0"
     inkscape:window-y="24"
     inkscape:current-layer="g7588" />
  <defs
     id="defs3">
    <linearGradient
       id="linearGradient12321">
      <stop
         style="stop-color:#00199f;stop-opacity:1.0000000"
         offset="0.0000000"
         id="stop12323" />
      <stop
         style="stop-color:#0021d2;stop-opacity:1.0000000"
         offset="1.0000000"
         id="stop12325" />
    </linearGradient>
    <linearGradient
       id="linearGradient11542">
      <stop
         style="stop-color:#ffffd8;stop-opacity:1.0000000"
         offset="0.0000000"
         id="stop11544" />
      <stop
         style="stop-color:#ffe800;stop-opacity:1.0000000"
         offset="1.0000000"
         id="stop11546" />
    </linearGradient>
    <linearGradient
       id="linearGradient2891">
      <stop
         style="stop-color:#ffffff;stop-opacity:1.0000000"
         offset="0.0000000"
         id="stop2893" />
      <stop
         style="stop-color:#ffffff;stop-opacity:0.0000000"
         offset="1.0000000"
         id="stop2895" />
    </linearGradient>
    <linearGradient
       id="linearGradient2120">
      <stop
         style="stop-color:#0079e9;stop-opacity:1.0000000"
         offset="0.0000000"
         id="stop2122" />
      <stop
         style="stop-color:#003fd2;stop-opacity:1.0000000"
         offset="1.0000000"
         id="stop2124" />
    </linearGradient>
    <linearGradient
       id="linearGradient13045">
      <stop
         style="stop-color:#dfcba7;stop-opacity:1.0000000"
         offset="0.0000000"
         id="stop13047" />
      <stop
         style="stop-color:#f1dbb4;stop-opacity:1.0000000"
         offset="1.0000000"
         id="stop13049" />
    </linearGradient>
    <linearGradient
       id="linearGradient13037">
      <stop
         style="stop-color:#084700;stop-opacity:1.0000000"
         offset="0.0000000"
         id="stop13039" />
      <stop
         style="stop-color:#086200;stop-opacity:1.0000000"
         offset="1.0000000"
         id="stop13041" />
    </linearGradient>
    <linearGradient
       id="linearGradient12271">
      <stop
         style="stop-color:#ffffff;stop-opacity:1.0000000"
         offset="0.0000000"
         id="stop12273" />
      <stop
         style="stop-color:#ffffff;stop-opacity:0.0000000"
         offset="1.0000000"
         id="stop12275" />
    </linearGradient>
    <linearGradient
       id="linearGradient2055">
      <stop
         style="stop-color:#ebebec;stop-opacity:1.0000000"
         offset="0.0000000"
         id="stop2057" />
      <stop
         style="stop-color:#fefeff;stop-opacity:1.0000000"
         offset="1.0000000"
         id="stop2059" />
    </linearGradient>
    <linearGradient
       inkscape:collect="always"
       xlink:href="#linearGradient2120"
       id="linearGradient2276"
       gradientUnits="userSpaceOnUse"
       gradientTransform="scale(0.628074,0.628075)"
       x1="296.59827"
       y1="20.325548"
       x2="8.1882935"
       y2="306.23819" />
    <radialGradient
       inkscape:collect="always"
       xlink:href="#linearGradient11542"
       id="radialGradient2278"
       gradientUnits="userSpaceOnUse"
       gradientTransform="scale(0.980581,1.019804)"
       cx="311.33151"
       cy="71.727669"
       fx="311.33151"
       fy="71.727669"
       r="54.701080" />
    <linearGradient
       inkscape:collect="always"
       xlink:href="#linearGradient2891"
       id="linearGradient2280"
       gradientUnits="userSpaceOnUse"
       gradientTransform="scale(0.838329,0.470552)"
       x1="244.70462"
       y1="811.11523"
       x2="83.840324"
       y2="160.96661" />
    <linearGradient
       inkscape:collect="always"
       xlink:href="#linearGradient2891"
       id="linearGradient2282"
       gradientUnits="userSpaceOnUse"
       gradientTransform="scale(0.628074,0.628075)"
       x1="6.8813176"
       y1="409.32019"
       x2="148.52177"
       y2="297.85550" />
    <linearGradient
       inkscape:collect="always"
       xlink:href="#linearGradient2055"
       id="linearGradient2290"
       gradientUnits="userSpaceOnUse"
       gradientTransform="matrix(0.597793,0,0,0.160311,73.980516,14.87796)"
       x1="329.70599"
       y1="704.68762"
       x2="10.362957"
       y2="728.41663" />
    <linearGradient
       inkscape:collect="always"
       xlink:href="#linearGradient2055"
       id="linearGradient2292"
       gradientUnits="userSpaceOnUse"
       gradientTransform="matrix(0.286442,0,0,0.334563,73.980516,14.87796)"
       x1="171.14290"
       y1="331.52631"
       x2="154.93179"
       y2="376.77737" />
    <linearGradient
       inkscape:collect="always"
       xlink:href="#linearGradient13045"
       id="linearGradient2294"
       gradientUnits="userSpaceOnUse"
       gradientTransform="matrix(0.244331,0,0,2.551905,33.386316,28.26053)"
       x1="615.23468"
       y1="18.839230"
       x2="624.07043"
       y2="19.560589" />
    <linearGradient
       inkscape:collect="always"
       xlink:href="#linearGradient2055"
       id="linearGradient2296"
       gradientUnits="userSpaceOnUse"
       gradientTransform="matrix(0.321136,0,0,0.298417,73.980516,14.87796)"
       x1="263.72675"
       y1="286.68005"
       x2="315.16544"
       y2="320.08524" />
    <linearGradient
       inkscape:collect="always"
       xlink:href="#linearGradient2055"
       id="linearGradient2298"
       gradientUnits="userSpaceOnUse"
       gradientTransform="matrix(0.272419,0,0,0.351785,73.980516,14.87796)"
       x1="342.39566"
       y1="316.66785"
       x2="438.45914"
       y2="347.90952" />
    <linearGradient
       inkscape:collect="always"
       xlink:href="#linearGradient2055"
       id="linearGradient2300"
       gradientUnits="userSpaceOnUse"
       gradientTransform="matrix(0.281759,0,0,0.340124,73.980516,14.87796)"
       x1="407.41614"
       y1="276.01013"
       x2="515.51489"
       y2="344.26947" />
    <linearGradient
       inkscape:collect="always"
       xlink:href="#linearGradient2055"
       id="linearGradient2302"
       gradientUnits="userSpaceOnUse"
       gradientTransform="matrix(0.279059,0,0,0.343413,73.980516,14.87796)"
       x1="760.54681"
       y1="358.18826"
       x2="612.60388"
       y2="329.75839" />
    <linearGradient
       inkscape:collect="always"
       xlink:href="#linearGradient2055"
       id="linearGradient2304"
       gradientUnits="userSpaceOnUse"
       gradientTransform="matrix(0.609783,0,0,0.157158,73.980516,14.87796)"
       x1="52.562695"
       y1="800.68506"
       x2="262.77576"
       y2="779.94244" />
    <linearGradient
       inkscape:collect="always"
       xlink:href="#linearGradient13037"
       id="linearGradient2306"
       gradientUnits="userSpaceOnUse"
       gradientTransform="matrix(0.650401,0,0,0.958653,33.386316,28.26053)"
       x1="227.92258"
       y1="29.655756"
       x2="232.89043"
       y2="32.984474" />
    <linearGradient
       inkscape:collect="always"
       xlink:href="#linearGradient12271"
       id="linearGradient2308"
       gradientUnits="userSpaceOnUse"
       gradientTransform="matrix(2.363802,0,0,0.263774,29.10396,58.23702)"
       x1="160.60570"
       y1="67.482513"
       x2="83.461487"
       y2="168.11174" />
    <linearGradient
       inkscape:collect="always"
       xlink:href="#linearGradient12321"
       id="linearGradient2310"
       gradientUnits="userSpaceOnUse"
       gradientTransform="matrix(2.839908,0,0,0.436238,-42.7403,-40.84963)"
       x1="97.072151"
       y1="593.64679"
       x2="124.30280"
       y2="515.79346" />
    <linearGradient
       inkscape:collect="always"
       xlink:href="#linearGradient2891"
       id="linearGradient2340"
       gradientUnits="userSpaceOnUse"
       gradientTransform="scale(0.652247,0.604798)"
       x1="13.040302"
       y1="-76.341072"
       x2="153.10281"
       y2="78.678040" />
    <linearGradient
       inkscape:collect="always"
       xlink:href="#linearGradient2891"
       id="linearGradient2343"
       gradientUnits="userSpaceOnUse"
       gradientTransform="scale(0.628074,0.628075)"
       x1="335.17352"
       y1="-152.35371"
       x2="176.43422"
       y2="77.908173" />
    <linearGradient
       inkscape:collect="always"
       xlink:href="#linearGradient2891"
       id="linearGradient2346"
       gradientUnits="userSpaceOnUse"
       gradientTransform="scale(0.628074,0.628075)"
       x1="80.063339"
       y1="439.89743"
       x2="195.60930"
       y2="141.63625" />
    <linearGradient
       inkscape:collect="always"
       xlink:href="#linearGradient12271"
       id="linearGradient2358"
       gradientUnits="userSpaceOnUse"
       gradientTransform="matrix(2.363802,0,0,0.263774,33.386316,28.26053)"
       x1="160.60570"
       y1="67.482513"
       x2="83.461487"
       y2="168.11174" />
  </defs>
  <g
     id="g13118"
     transform="matrix(0.700549,0,0,0.700549,-21.60388,16.41224)">
    <g
       id="g9237"
       transform="translate(4.2823557,-29.97649)">
      <path
         id="path7627"
         style="fill:#000000;fill-opacity:0.12399998;fill-rule:evenodd;stroke:none;stroke-width:1px;stroke-linecap:butt;stroke-linejoin:miter;stroke-opacity:1"
         d="M 37.750026,259.87296 C 31.637328,259.50485 44.582861,255.75362 46.381475,254.59791 C 47.298556,254.2711 49.123124,253.13628 50.418672,252.73613 C 50.442125,252.7414 50.523459,252.71334 50.550239,252.71674 L 52.857408,251.53373 C 52.722035,251.57004 52.627751,251.57028 52.487362,251.61131 L 67.547238,243.87329 C 67.679254,243.84546 67.78107,243.84053 67.910703,243.81511 L 79.030485,238.11341 L 79.221212,237.91947 L 93.791609,217.51747 C 72.002148,217.22128 50.984715,216.42093 30.838495,215.07388 L 127.23638,185.49873 C 175.36484,181.72045 225.58254,182.74689 252.85816,185.69267 L 226.38896,213.54179 C 200.20869,215.34394 174.87308,216.54665 150.37868,217.16838 L 84.303319,237.49281 L 83.089659,237.93886 L 71.155877,244.10601 C 71.131757,244.12699 71.171902,244.12164 71.142729,244.1448 C 108.80218,242.53149 132.41155,247.92405 192.75321,245.01751 C 185.54243,246.41144 168.14064,248.02095 163.66716,248.31441 C 165.00728,249.2437 174.4667,251.27059 177.29998,251.97979 C 118.51604,253.77471 102.31396,248.71524 57.802957,251.0489 C 57.803822,251.04013 57.779469,251.03775 57.778298,251.0295 L 53.876014,253.04643 C 53.838333,253.1057 53.907576,253.13862 53.854686,253.20158 C 53.462784,253.63268 51.779125,254.28668 51.141398,254.75306 C 50.615546,255.13836 44.742963,260.44832 37.750026,259.87296 z " />
      <path
         id="path9229"
         style="fill:#000000;fill-opacity:0.12399998;fill-rule:evenodd;stroke:none;stroke-width:1px;stroke-linecap:butt;stroke-linejoin:miter;stroke-opacity:1"
         d="M 163.4375,185.53125 C 147.29503,187.16258 130.49978,185.13962 115.1644,191.30936 C 90.859599,198.75832 66.5548,206.20729 42.25,213.65625 C 60.676277,214.85867 79.139841,215.123 97.59375,215.625 C 93.288689,222.04316 86.575082,230.26891 83.71875,235.59375 C 106.26831,228.88734 128.67687,221.28016 151.31185,215.12026 C 176.06392,214.40805 200.79162,213.18978 225.5,211.5625 C 233.16667,203.5 240.83333,195.4375 248.5,187.375 C 220.21983,184.78861 191.80162,184.93957 163.4375,185.53125 z M 68.8125,245.59375 C 60.013083,248.86848 63.795178,249.35021 71.150222,248.57689 C 101.71642,247.97123 132.91791,251.03569 163.0625,250.21875 C 156.62572,247.34343 157.38727,247.43167 151.53198,247.82113 C 124.06463,247.54498 96.630227,245.07032 69.15625,246.1875 L 69.15625,245.40625 L 68.8125,245.59375 z M 58.4375,248.875 C 61.762746,250.4308 60.231532,245.56178 58.4375,248.875 z M 60.625,249.6875 C 60.758322,249.81423 60.746525,249.51167 60.625,249.6875 z " />
      <path
         id="path9233"
         style="fill:#000000;fill-opacity:0.12399998;fill-rule:evenodd;stroke:none;stroke-width:1px;stroke-linecap:butt;stroke-linejoin:miter;stroke-opacity:1"
         d="M 163.5625,187.53125 C 145.89073,188.78104 127.64574,187.81893 110.96959,194.68426 C 91.938062,200.51867 72.906531,206.35309 53.875,212.1875 C 69.706885,213.03366 85.559709,213.28884 101.40625,213.71875 C 97.117655,219.82584 92.580344,225.75999 88.53125,232.03125 C 109.71142,225.57262 130.87169,218.64308 152.24925,213.08624 C 176.39197,212.28256 200.51716,211.12004 224.625,209.59375 C 231.125,202.76042 237.625,195.92708 244.125,189.09375 C 217.32292,186.65593 190.43381,187.36686 163.5625,187.53125 z " />
    </g>
    <g
       id="g7588"
       transform="translate(2,-19)">
      <path
         id="path2058"
         style="fill:url(#linearGradient2290);fill-opacity:1;fill-rule:evenodd;stroke:none;stroke-width:1px;stroke-linecap:butt;stroke-linejoin:miter;stroke-opacity:1"
         d="M 90.078071,127.673 C 156.11935,121.37845 220.61277,122.20396 282.62965,130.14955 L 254.76849,175.03697 C 213.07994,177.61671 170.77225,178.33903 128.77414,175.34654 L 90.078071,127.673 z " />
      <path
         id="path3613"
         style="fill:url(#linearGradient2292);fill-opacity:1;fill-rule:evenodd;stroke:none;stroke-width:1px;stroke-linecap:butt;stroke-linejoin:miter;stroke-opacity:1"
         d="M 90.387639,127.673 C 90.387639,127.673 120.10621,130.45911 128.46456,128.60171 C 125.05931,135.72178 129.0837,172.86999 129.0837,172.86999 C 129.0837,172.86999 91.625914,128.60171 90.387639,127.673 z " />
      <path
         id="path6082"
         style="fill:#f4d398;fill-opacity:1;fill-rule:evenodd;stroke:none;stroke-width:1px;stroke-linecap:butt;stroke-linejoin:miter;stroke-opacity:1"
         d="M 186.86184,93.46255 L 187.1962,62.700569 L 185.0228,63.034939 L 184.68844,94.29847 L 186.86184,93.46255 z " />
      <path
         id="path5322"
         style="fill:url(#linearGradient2294);fill-opacity:1;fill-rule:evenodd;stroke:none;stroke-width:1px;stroke-linecap:butt;stroke-linejoin:miter;stroke-opacity:1"
         d="M 183.18377,93.79692 L 183.18377,62.700569 L 185.85873,62.867755 L 186.19309,94.13129 L 183.18377,93.79692 z " />
      <path
         id="path1297"
         style="fill:url(#linearGradient2296);fill-opacity:1;fill-rule:evenodd;stroke:none;stroke-width:1px;stroke-linecap:butt;stroke-linejoin:miter;stroke-opacity:1"
         d="M 185.82645,91.26621 L 186.89474,90.83646 L 214.83416,150.27149 C 213.59588,149.96193 151.06306,144.08013 151.06306,144.08013 L 183.35425,90.29184 L 185.82645,91.26621 z " />
      <path
         id="path1293"
         style="fill:url(#linearGradient2298);fill-opacity:1;fill-rule:evenodd;stroke:none;stroke-width:1px;stroke-linecap:butt;stroke-linejoin:miter;stroke-opacity:1"
         d="M 183.42436,90.30487 L 143.63342,142.22272 L 182.65357,142.35747 L 183.42436,90.30487 z " />
      <path
         id="path1295"
         style="fill:url(#linearGradient2300);fill-opacity:1;fill-rule:evenodd;stroke:none;stroke-width:1px;stroke-linecap:butt;stroke-linejoin:miter;stroke-opacity:1"
         d="M 186.72371,90.89968 L 229.38387,143.77056 L 187.01307,142.08797 L 186.72371,90.89968 z " />
      <path
         id="path3615"
         style="fill:url(#linearGradient2302);fill-opacity:1;fill-rule:evenodd;stroke:none;stroke-width:1px;stroke-linecap:butt;stroke-linejoin:miter;stroke-opacity:1"
         d="M 281.70095,130.14955 C 281.70095,130.14955 253.83978,128.91128 245.17187,129.22084 C 243.31446,138.19833 252.91108,174.41784 252.91108,174.41784 C 254.76849,168.53603 280.46267,131.07826 281.70095,130.14955 z " />
      <path
         id="path1291"
         style="fill:url(#linearGradient2304);fill-opacity:1;fill-rule:evenodd;stroke:none;stroke-width:1px;stroke-linecap:butt;stroke-linejoin:miter;stroke-opacity:1"
         d="M 90.078071,127.673 C 167.57337,141.19083 217.51709,138.92065 282.62965,130.14955 L 254.76849,175.03697 C 221.74786,179.78369 169.53398,181.43472 128.77414,175.34654 L 90.078071,127.673 z " />
      <path
         id="path6844"
         style="fill:url(#linearGradient2306);fill-opacity:1;fill-rule:evenodd;stroke:none;stroke-width:1px;stroke-linecap:butt;stroke-linejoin:miter;stroke-opacity:1"
         d="M 183.09387,66.9831 C 182.57871,66.338309 182.95999,64.503554 182.68027,63.976942 C 183.13558,62.114672 177.52796,56.087673 184.35856,55.494514 C 192.4736,54.567391 187.97038,63.109776 187.74479,63.730628 C 187.47296,64.482136 187.872,65.562014 187.42313,66.256666 C 187.06547,66.77579 186.60755,67.22681 186.00125,67.510545 C 184.96448,67.87245 184.10216,66.729303 183.09387,66.9831 z " />
      <path
         id="path6902"
         style="fill:#ffffff;fill-opacity:0.56400003;stroke:none;stroke-width:1;stroke-miterlimit:4;stroke-opacity:1"
         d="M 184.21567,58.820043 C 183.57233,59.721861 182.56227,60.105685 181.96106,59.676795 C 181.35985,59.247906 181.39403,58.167912 182.03736,57.266096 C 182.6807,56.364279 183.69077,55.980454 184.29197,56.409343 C 184.89319,56.838233 184.859,57.918227 184.21567,58.820043 z " />
      <path
         id="path7663"
         style="fill:#00199f;fill-opacity:1;fill-rule:evenodd;stroke:none;stroke-width:1px;stroke-linecap:butt;stroke-linejoin:miter;stroke-opacity:1"
         d="M 182.98287,68.802176 C 183.81039,69.70851 185.05925,69.87159 186.00499,70.06862 C 186.433,70.0862 186.89495,69.96798 187.18716,69.713966 C 227.14694,73.47432 253.21153,65.305156 308.49492,68.197423 C 304.2785,69.340191 290.86201,72.61087 287.70954,74.10829 C 291.61071,74.58116 305.89414,77.18194 310.3864,79.42808 C 255.71323,74.74459 221.58203,83.4436 187.06895,80.84398 C 186.86101,81.32897 186.58517,81.50842 186.24143,81.65392 C 185.21688,82.12679 183.97347,81.85641 182.94892,81.26532 L 182.98287,68.802176 z " />
      <path
         id="path9944"
         style="fill:#000000;fill-opacity:0.18399999;fill-rule:evenodd;stroke:none;stroke-width:1px;stroke-linecap:butt;stroke-linejoin:miter;stroke-opacity:1"
         d="M 182.98287,68.802176 C 183.81039,69.70851 185.05925,69.87159 186.00499,70.06862 C 186.433,70.0862 186.58517,81.50842 186.24143,81.65392 C 185.21688,82.12679 183.97347,81.85641 182.94892,81.26532 L 182.98287,68.802176 z " />
      <path
         id="path11511"
         style="fill:url(#linearGradient2358);fill-opacity:1;fill-rule:evenodd;stroke:none;stroke-width:1px;stroke-linecap:butt;stroke-linejoin:miter;stroke-opacity:1"
         d="M 187.18716,69.713966 C 227.14694,73.47432 253.21153,65.305156 308.49492,68.197423 C 304.2785,69.340191 290.86201,72.61087 287.70954,74.10829 C 291.61071,74.58116 305.89414,77.18194 310.3864,79.42808 C 255.71323,74.74459 221.58203,83.4436 187.06895,80.84398 C 186.86101,81.32897 186.89495,69.96798 187.18716,69.713966 z " />
    </g>
  </g>
</svg>
