<?xml version="1.0" encoding="UTF-8" standalone="no"?>
<!DOCTYPE svg PUBLIC "-//W3C//DTD SVG 20010904//EN"
"http://www.w3.org/TR/2001/REC-SVG-20010904/DTD/svg10.dtd">
<!-- Created with Inkscape (http://www.inkscape.org/) -->
<svg
   id="svg1"
   sodipodi:version="0.32"
   inkscape:version="0.39"
   width="80.000000pt"
   height="120.00000pt"
   sodipodi:docbase="/home/nicu/Desktop"
   sodipodi:docname="teddy_bear.svg"
   xmlns="http://www.w3.org/2000/svg"
   xmlns:cc="http://web.resource.org/cc/"
   xmlns:inkscape="http://www.inkscape.org/namespaces/inkscape"
   xmlns:sodipodi="http://sodipodi.sourceforge.net/DTD/sodipodi-0.dtd"
   xmlns:rdf="http://www.w3.org/1999/02/22-rdf-syntax-ns#"
   xmlns:dc="http://purl.org/dc/elements/1.1/"
   xmlns:xlink="http://www.w3.org/1999/xlink">
  <defs
     id="defs3">
    <linearGradient
       id="linearGradient914">
      <stop
         style="stop-color:#ffffff;stop-opacity:0.50000000;"
         offset="0.0000000"
         id="stop915" />
      <stop
         style="stop-color:#ffffff;stop-opacity:0.0000000;"
         offset="1.0000000"
         id="stop916" />
    </linearGradient>
    <linearGradient
       xlink:href="#linearGradient914"
       id="linearGradient917"
       x1="0.36486486"
       y1="0.088757396"
       x2="0.47297296"
       y2="0.65680474" />
    <linearGradient
       xlink:href="#linearGradient914"
       id="linearGradient919"
       x1="0.24324325"
       y1="0.076923080"
       x2="0.33783785"
       y2="0.59171599" />
    <linearGradient
       xlink:href="#linearGradient914"
       id="linearGradient921"
       x1="0.22844827"
       y1="0.059171598"
       x2="0.65086210"
       y2="0.43786982" />
    <linearGradient
       xlink:href="#linearGradient914"
       id="linearGradient923"
       x1="0.028985508"
       y1="-0.096000001"
       x2="0.46376812"
       y2="0.17600000" />
  </defs>
  <sodipodi:namedview
     id="base"
     pagecolor="#ffffff"
     bordercolor="#666666"
     borderopacity="1.0"
     inkscape:pageopacity="0.0"
     inkscape:pageshadow="2"
     inkscape:zoom="4.9245777"
     inkscape:cx="46.489709"
     inkscape:cy="55.244417"
     inkscape:window-width="818"
     inkscape:window-height="775"
     inkscape:window-x="215"
     inkscape:window-y="32" />
  <metadata
     id="metadata51">
    <rdf:RDF
       id="RDF52">
      <cc:Work
         rdf:about=""
         id="Work53">
        <dc:format
           id="format54">image/svg+xml</dc:format>
        <dc:type
           id="type56"
           rdf:resource="http://purl.org/dc/dcmitype/StillImage" />
        <dc:title
           id="title954">Teddy Bear</dc:title>
        <dc:creator
           id="creator956">
          <cc:Agent
             id="Agent957">
            <dc:title
               id="title958">Nicu Buculei</dc:title>
          </cc:Agent>
        </dc:creator>
        <cc:license
           id="license960"
           rdf:resource="http://web.resource.org/cc/PublicDomain" />
        <dc:subject
           id="subject965">toys</dc:subject>
      </cc:Work>
      <cc:License
         rdf:about="http://web.resource.org/cc/PublicDomain"
         id="License961">
        <cc:permits
           rdf:resource="http://web.resource.org/cc/Reproduction"
           id="permits962" />
        <cc:permits
           rdf:resource="http://web.resource.org/cc/Distribution"
           id="permits963" />
        <cc:permits
           rdf:resource="http://web.resource.org/cc/DerivativeWorks"
           id="permits964" />
      </cc:License>
    </rdf:RDF>
  </metadata>
  <g
     id="g1590">
    <path
       style="fill:#cb844b;fill-rule:evenodd;stroke:#000000;stroke-width:1.2500000;stroke-linejoin:round;"
       d="M 71.742785,95.878192 C 70.557109,96.133773 68.993401,99.925507 67.354257,94.919736 C 66.338517,90.879729 70.881872,91.842054 71.978991,87.544808 C 72.736210,84.011685 71.744599,75.751925 70.863826,71.494595 C 70.094226,69.146319 66.379231,62.300868 64.612049,57.784848 C 62.565246,50.514829 64.836262,49.971627 68.307564,51.121655 C 74.821934,53.607260 76.584132,65.519301 77.273078,70.785084 C 78.264027,75.015767 79.478354,83.242357 81.922709,87.361471 C 84.184474,90.520990 87.966693,97.483039 82.781406,98.474017 C 80.558837,98.658252 79.896258,98.407824 79.200463,96.312829 C 79.394045,99.077895 79.179586,103.28292 74.328253,102.65763 C 70.923870,102.15672 70.825969,97.864413 71.742785,95.878192 z "
       id="path967"
       sodipodi:nodetypes="cccccccccccc" />
    <g
       id="g953">
      <path
         style="fill:#cb844b;fill-rule:evenodd;stroke:#000000;stroke-width:1.2500000;stroke-dasharray:none;"
         d="M 21.469906,94.561007 C 17.552216,90.521031 21.854386,86.713398 23.095166,83.352736 C 24.921786,78.893008 27.007676,74.799957 27.212056,70.086013 C 25.839506,65.527526 27.500896,60.281079 30.491696,56.747934 C 34.743236,51.996489 37.855966,54.554793 37.268126,59.817441 C 38.804636,64.836188 37.497866,70.045859 36.630636,75.056252 C 35.298436,80.874099 31.119576,85.416773 28.972546,90.944213 C 27.414796,94.006663 30.802636,99.351371 25.878226,100.60278 C 22.483726,101.09024 21.790156,96.635683 21.469906,94.561007 z "
         id="path840"
         sodipodi:nodetypes="ccccccccc" />
      <path
         style="fill:#cb844b;fill-rule:evenodd;stroke:#000000;stroke-width:1.2500000;stroke-dasharray:none;"
         d="M 31.185206,92.584386 C 34.227446,92.794261 42.571806,99.448062 45.025876,102.41370 C 46.869336,104.77873 45.632856,106.05872 44.716986,108.92416 C 42.989166,113.25666 43.902316,117.72166 43.917586,121.92432 C 43.645456,124.98359 47.109766,130.05309 43.373226,132.02874 C 39.087996,134.25252 34.032496,136.23948 27.842456,135.44499 C 24.350416,135.08073 20.581466,134.41512 18.635116,131.13485 C 17.043476,126.74904 21.538836,124.82758 24.388436,121.41123 C 26.650306,118.54103 26.504626,108.37206 26.509006,99.599116 C 26.331546,97.227062 28.049756,92.465778 31.185206,92.584386 z "
         id="path845"
         sodipodi:nodetypes="cccccccccc" />
      <path
         style="fill:#cb844b;fill-rule:evenodd;stroke:#000000;stroke-width:1.2500000;stroke-dasharray:none;"
         d="M 63.564576,46.636694 C 59.197016,46.057512 41.103036,49.436053 37.081246,51.463889 C 33.671446,53.307638 34.284446,57.659084 35.683746,60.601608 C 37.019076,64.166387 37.442456,69.782130 35.616516,73.728338 C 33.495646,77.805706 29.630216,89.711908 31.156546,92.153433 C 33.270686,95.410380 35.095206,97.887555 38.685476,99.802443 C 43.034016,102.04850 48.057246,103.97336 52.987416,103.79387 C 59.383146,103.99992 64.914316,101.61147 69.668716,98.052743 C 73.070336,95.492784 76.089466,92.034577 75.744886,87.856653 C 75.972076,83.919200 74.803196,80.779573 73.196286,77.116154 C 71.148906,72.865837 69.316376,69.115435 68.603446,63.557226 C 67.709616,57.626409 68.955166,49.134801 63.564576,46.636694 z "
         id="path848"
         sodipodi:nodetypes="cccccccccccc" />
      <path
         style="fill:#cb844b;fill-rule:evenodd;stroke:#000000;stroke-width:1.2500000;stroke-dasharray:none;"
         d="M 67.212236,94.640933 C 63.429396,96.731421 60.298336,100.18876 62.449116,104.34975 C 63.841746,108.56594 66.358776,111.72430 66.879796,115.87158 C 67.568006,119.22951 68.765036,124.27909 68.781586,127.56168 C 68.575746,132.47656 64.974566,135.23403 67.463426,139.66670 C 69.040646,143.51341 73.705496,144.73174 77.899886,144.96864 C 83.529566,145.19635 86.460366,144.87197 89.889886,141.31049 C 92.715106,137.37771 90.556266,133.81170 88.346236,130.30348 C 86.743966,127.67921 84.615676,123.92957 84.943816,119.97620 C 84.646326,114.95252 83.722966,109.60603 81.926866,104.53560 C 80.472276,99.245805 77.768576,94.631150 75.390326,90.784403 C 73.561046,90.837024 70.509086,92.894209 67.212236,94.640933 z "
         id="path842"
         sodipodi:nodetypes="cccccccccccc" />
      <path
         style="fill:#cb844b;fill-rule:evenodd;stroke:#000000;stroke-width:1.2500000;stroke-dasharray:none;"
         d="M 18.242226,21.385651 C 16.087986,24.269472 20.101316,30.733257 22.877346,30.406170 C 25.755466,30.973771 29.626536,20.503377 28.649116,18.330496 C 26.572146,17.879163 22.199856,16.063726 18.242226,21.385651 z "
         id="path850"
         sodipodi:nodetypes="cccc" />
      <path
         style="fill:#cb844b;fill-rule:evenodd;stroke:#000000;stroke-width:1.2500000;stroke-dasharray:none;"
         d="M 56.591906,11.703903 C 57.150036,9.8491354 63.276546,7.1192369 67.347806,9.5083473 C 69.537306,10.976297 69.657816,16.129020 68.104066,17.399032 C 65.581726,19.151588 57.926256,13.258165 56.591906,11.703903 L 56.591906,11.703903 z "
         id="path890"
         sodipodi:nodetypes="ccccc" />
      <path
         style="fill:#cb844b;fill-rule:evenodd;stroke:#000000;stroke-width:1.2500000;stroke-dasharray:none;"
         d="M 66.859126,17.440590 C 72.567276,25.303016 72.846996,35.846844 66.739006,42.786712 C 61.197536,48.467359 55.254006,51.414341 47.779766,51.944160 C 39.534776,52.315101 33.091436,50.887585 28.092106,46.403766 C 21.787806,40.264936 21.360226,30.860132 25.052996,23.193090 C 27.904886,18.215892 35.344096,14.235322 41.226876,12.755695 C 44.155236,12.069237 59.733236,9.5337700 66.859126,17.440590 z "
         id="path835"
         sodipodi:nodetypes="ccccccc" />
      <path
         style="fill:#000000;fill-rule:evenodd;stroke:none;stroke-opacity:1;stroke-width:1pt;stroke-linejoin:miter;stroke-linecap:butt;fill-opacity:0.10000000;"
         d="M 34.813686,50.235490 C 59.612796,46.367109 51.550366,13.893041 59.453386,13.893041 C 77.405406,15.610359 77.499386,59.798361 34.813686,50.235490 z "
         id="path895"
         sodipodi:nodetypes="ccc" />
      <path
         style="fill:#ffffff;fill-rule:evenodd;stroke:none;stroke-opacity:1;stroke-width:1pt;stroke-linejoin:miter;stroke-linecap:butt;fill-opacity:0.10000000;"
         d="M 43.839456,13.381501 C 27.479636,13.682082 18.958896,31.115636 23.900926,38.179231 C 38.045346,47.196590 35.148296,18.341047 43.839456,13.381501 z "
         id="path892"
         sodipodi:nodetypes="ccc" />
      <path
         style="fill:#ffffff;fill-rule:evenodd;stroke:#000000;stroke-width:1.2500000;stroke-dasharray:none;"
         d="M 44.871886,32.375745 C 39.912096,34.150565 35.075946,37.244845 34.189516,42.362091 C 33.336916,48.093496 42.051396,51.852048 49.297186,50.280459 C 54.827446,48.863084 61.312926,46.040672 62.377576,40.494844 C 62.975556,34.820074 54.663666,28.905362 44.871886,32.375745 z "
         id="path876"
         sodipodi:nodetypes="ccccc" />
      <path
         style="fill-rule:evenodd;stroke:#000000;stroke-width:0.22291107pt;"
         d="M 49.619236,32.637408 C 47.202766,32.162082 43.425656,33.560950 42.317846,35.624262 C 41.276216,37.349902 43.270836,38.923331 45.570086,38.824205 C 47.585796,38.609178 51.080926,37.773269 51.637806,36.395634 C 52.082506,34.715937 51.295776,33.305715 49.619236,32.637408 z "
         id="path883"
         sodipodi:nodetypes="ccccc" />
      <path
         style="fill-rule:evenodd;stroke:#000000;stroke-width:0.22291107pt;"
         d="M 49.099996,24.002343 C 49.814716,24.002343 50.806076,24.043048 51.028606,25.114429 C 51.251136,25.856807 51.547846,27.610902 51.547846,28.516131 C 51.547846,29.312581 51.751706,30.347813 50.657726,30.347813 C 49.912266,30.279153 48.818386,28.935265 48.580756,27.469459 C 48.580756,26.228224 48.108446,24.097574 49.099996,24.002343 z "
         id="path857"
         sodipodi:nodetypes="cccccc" />
      <path
         style="fill-rule:evenodd;stroke:#000000;stroke-width:0.22291107pt;"
         d="M 39.160236,26.030275 C 40.093726,26.003099 41.237196,27.614030 41.237196,28.908631 C 41.385556,29.894100 42.306626,32.637408 40.940486,32.637408 C 39.387756,32.637408 38.715166,29.304193 38.715166,28.908631 C 38.715166,28.103047 37.864736,26.061608 39.160236,26.030275 z "
         id="path858"
         sodipodi:nodetypes="ccccc" />
      <path
         style="fill:#000000;fill-rule:evenodd;stroke:none;stroke-opacity:1.0000000;stroke-width:1pt;stroke-linejoin:miter;stroke-linecap:butt;fill-opacity:0.75000000;"
         d="M 46.207086,20.404392 C 46.281256,19.479768 50.303156,18.860985 52.437976,19.423132 C 50.817686,19.881055 47.863306,21.581901 46.948856,21.254815 C 46.428726,21.254815 46.233176,20.985272 46.207086,20.404392 z "
         id="path859"
         sodipodi:nodetypes="cccc" />
      <path
         style="fill:#000000;fill-rule:evenodd;stroke:none;stroke-opacity:1;stroke-width:1pt;stroke-linejoin:miter;stroke-linecap:butt;fill-opacity:0.75000000;"
         d="M 33.819466,23.806094 C 33.819466,23.010186 37.978486,21.416117 39.679476,22.890248 C 37.739046,23.086497 35.197966,24.787342 34.412886,24.787342 C 33.893646,24.873482 33.703146,24.465483 33.819466,23.806094 z "
         id="path860"
         sodipodi:nodetypes="cccc" />
      <path
         style="fill-rule:evenodd;stroke:#000000;stroke-width:0.22291107pt;"
         d="M 41.385556,44.150839 C 42.427166,43.365839 46.551696,41.795820 48.729116,43.496665 C 47.098036,43.627502 43.082736,44.412513 43.091636,45.655434 C 42.317986,45.655434 41.227406,44.848216 41.385556,44.150839 z "
         id="path861"
         sodipodi:nodetypes="cccc" />
      <path
         style="fill:#260000;fill-rule:evenodd;stroke:none;stroke-opacity:1;stroke-width:1pt;stroke-linejoin:miter;stroke-linecap:butt;fill-opacity:0.50000000;"
         d="M 59.262296,11.180567 C 60.939536,11.376816 66.521276,14.202162 67.955106,15.968431 C 68.331866,9.8295678 61.320946,9.7055278 59.262296,11.180567 z "
         id="path862"
         sodipodi:nodetypes="ccc" />
      <path
         style="fill:#260000;fill-rule:evenodd;stroke:none;stroke-opacity:1;stroke-width:1pt;stroke-linejoin:miter;stroke-linecap:butt;fill-opacity:0.50000000;"
         d="M 21.943096,28.300422 C 17.823436,22.966439 22.207026,19.815642 25.140716,20.077305 C 23.716106,21.974411 21.812816,25.576216 21.943096,28.300422 z "
         id="path863"
         sodipodi:nodetypes="ccc" />
      <path
         style="fill:#000000;fill-rule:evenodd;stroke:none;stroke-opacity:1;stroke-width:1pt;stroke-linejoin:miter;stroke-linecap:butt;fill-opacity:0.10000000;"
         d="M 40.194556,49.634782 C 55.702306,47.981600 51.656466,33.976480 56.598496,33.976480 C 68.427166,35.749807 60.630546,55.137124 40.194556,49.634782 z "
         id="path893"
         sodipodi:nodetypes="ccc" />
      <path
         style="fill:#ffffff;fill-rule:evenodd;stroke:none;stroke-opacity:1;stroke-width:1pt;stroke-linejoin:miter;stroke-linecap:butt;fill-opacity:0.10000000;"
         d="M 30.661256,92.971116 C 32.144806,94.148626 33.864946,96.185552 35.416876,97.930652 C 40.529326,99.283264 29.847246,108.48106 26.352906,113.38225 C 28.199346,108.47085 23.758636,94.314961 30.661256,92.971116 z "
         id="path898"
         sodipodi:nodetypes="cccc" />
      <path
         style="fill:#ffffff;fill-rule:evenodd;stroke:none;stroke-opacity:1;stroke-width:1pt;stroke-linejoin:miter;stroke-linecap:butt;fill-opacity:0.10000000;"
         d="M 63.437146,106.10999 C 63.437146,106.10999 62.925906,99.797844 65.993376,98.896111 C 69.060836,97.994376 73.321206,102.05218 72.469136,107.31231 C 71.617056,112.57244 69.912916,127.15049 71.957886,129.85570 C 74.299576,132.43008 81.160286,135.71698 76.218256,137.37016 C 71.276226,139.02335 66.845446,135.11583 67.867936,132.71120 C 69.632196,130.04490 69.572086,118.87924 63.437146,106.10999 z "
         id="path899"
         sodipodi:nodetypes="ccccccc" />
      <g
         id="g910"
         transform="matrix(0.237367,0.000000,0.000000,0.209336,4.333946,1.063904)">
        <path
           style="fill:#cb844b;fill-rule:evenodd;stroke:black;stroke-opacity:1;stroke-width:5.6076110;stroke-linejoin:miter;stroke-linecap:butt;fill-opacity:1.0000000;stroke-dasharray:none;"
           d="M 171.56250,54.237183 C 168.12500,52.135742 164.06250,46.126395 164.06250,40.487183 C 164.06250,36.235304 171.37086,33.828863 174.68750,35.487183 C 178.22392,37.148599 182.50000,42.705927 182.50000,47.987183 C 182.50000,52.417313 175.73628,56.339926 171.56250,54.237183 z "
           id="path911"
           sodipodi:nodetypes="ccccc" />
        <path
           style="fill:#000000;fill-rule:evenodd;stroke:none;stroke-opacity:1;stroke-width:1pt;stroke-linejoin:miter;stroke-linecap:butt;fill-opacity:0.10000000;"
           d="M 168.75000,37.049683 C 166.46491,38.318412 175.17338,52.749597 177.81250,52.674683 C 178.97944,52.305997 173.61815,35.706040 168.75000,37.049683 z "
           id="path912"
           sodipodi:nodetypes="ccc" />
      </g>
      <path
         style="fill:url(#linearGradient917);fill-rule:evenodd;stroke:none;stroke-opacity:1;stroke-width:1pt;stroke-linejoin:miter;stroke-linecap:butt;fill-opacity:1.0000000;"
         d="M 39.150866,26.128568 C 40.084366,26.101392 41.227836,27.712322 41.227836,29.006923 C 41.376186,29.992393 42.297266,32.735701 40.931126,32.735701 C 39.378396,32.735701 38.705806,29.402485 38.705806,29.006923 C 38.705806,28.201350 37.855366,26.159900 39.150866,26.128568 z "
         id="path913"
         sodipodi:nodetypes="ccccc" />
      <path
         style="fill:url(#linearGradient919);fill-rule:evenodd;stroke:none;stroke-opacity:1;stroke-width:1pt;stroke-linejoin:miter;stroke-linecap:butt;fill-opacity:1.0000000;"
         d="M 49.074516,23.969637 C 49.789236,23.969637 50.780596,24.010341 51.003126,25.081722 C 51.225666,25.824102 51.522366,27.578195 51.522366,28.483424 C 51.522366,29.279874 51.726226,30.315106 50.632246,30.315106 C 49.886786,30.246436 48.792906,28.902548 48.555276,27.436741 C 48.555276,26.195518 48.082966,24.064867 49.074516,23.969637 z "
         id="path918"
         sodipodi:nodetypes="cccccc" />
      <path
         style="fill:url(#linearGradient921);fill-rule:evenodd;stroke:none;stroke-opacity:1;stroke-width:1pt;stroke-linejoin:miter;stroke-linecap:butt;fill-opacity:1.0000000;"
         d="M 49.745026,32.662929 C 47.328556,32.187592 43.551436,33.586470 42.443636,35.649771 C 41.401996,37.375412 43.396626,38.948841 45.695876,38.849714 C 47.711586,38.634687 51.206716,37.798777 51.763596,36.421155 C 52.208286,34.741447 51.421566,33.331236 49.745026,32.662929 z "
         id="path920"
         sodipodi:nodetypes="ccccc" />
      <path
         style="fill:url(#linearGradient923);fill-rule:evenodd;stroke:none;stroke-opacity:1;stroke-width:1pt;stroke-linejoin:miter;stroke-linecap:butt;fill-opacity:1.0000000;"
         d="M 41.504546,44.171608 C 42.546156,43.386598 46.670686,41.816589 48.848096,43.517435 C 47.217026,43.648261 43.201726,44.433271 43.210626,45.676204 C 42.436976,45.676204 41.346396,44.868985 41.504546,44.171608 z "
         id="path922"
         sodipodi:nodetypes="cccc" />
      <g
         id="g951"
         transform="matrix(0.237367,0.000000,0.000000,0.209336,-0.518630,1.758492)">
        <path
           style="fill:#cb844b;fill-rule:evenodd;stroke:black;stroke-opacity:1;stroke-width:5.6076110;stroke-linejoin:miter;stroke-linecap:butt;fill-opacity:1.0000000;stroke-dasharray:none;"
           d="M 171.56250,54.237183 C 168.12500,52.135742 164.06250,46.126395 164.06250,40.487183 C 164.06250,36.235304 171.37086,33.828863 174.68750,35.487183 C 178.22392,37.148599 182.50000,42.705927 182.50000,47.987183 C 182.50000,52.417313 175.73628,56.339926 171.56250,54.237183 z "
           id="path952"
           sodipodi:nodetypes="ccccc" />
        <path
           style="fill:#000000;fill-rule:evenodd;stroke:none;stroke-opacity:1;stroke-width:1pt;stroke-linejoin:miter;stroke-linecap:butt;fill-opacity:0.10000000;"
           d="M 168.75000,37.049683 C 166.46491,38.318412 175.17338,52.749597 177.81250,52.674683 C 178.97944,52.305997 173.61815,35.706040 168.75000,37.049683 z "
           id="path953"
           sodipodi:nodetypes="ccc" />
      </g>
      <g
         id="g954"
         transform="matrix(0.237367,0.000000,0.000000,0.209336,-4.326063,4.296783)">
        <path
           style="fill:#cb844b;fill-rule:evenodd;stroke:black;stroke-opacity:1;stroke-width:5.6076110;stroke-linejoin:miter;stroke-linecap:butt;fill-opacity:1.0000000;stroke-dasharray:none;"
           d="M 171.56250,54.237183 C 168.12500,52.135742 164.06250,46.126395 164.06250,40.487183 C 164.06250,36.235304 171.37086,33.828863 174.68750,35.487183 C 178.22392,37.148599 182.50000,42.705927 182.50000,47.987183 C 182.50000,52.417313 175.73628,56.339926 171.56250,54.237183 z "
           id="path955"
           sodipodi:nodetypes="ccccc" />
        <path
           style="fill:#000000;fill-rule:evenodd;stroke:none;stroke-opacity:1;stroke-width:1pt;stroke-linejoin:miter;stroke-linecap:butt;fill-opacity:0.10000000;"
           d="M 168.75000,37.049683 C 166.46491,38.318412 175.17338,52.749597 177.81250,52.674683 C 178.97944,52.305997 173.61815,35.706040 168.75000,37.049683 z "
           id="path956"
           sodipodi:nodetypes="ccc" />
      </g>
      <path
         style="fill:#ffffff;fill-opacity:0.37647060;fill-rule:evenodd;stroke:#000000;stroke-width:1.0000000pt;stroke-linecap:butt;stroke-linejoin:miter;stroke-opacity:1.0000000;"
         d="M 47.719830,96.188275 C 54.554577,96.196079 66.124183,93.212510 64.542450,83.202339 C 62.640118,72.013935 61.957634,55.506431 49.867911,56.886656 C 38.510812,58.769272 42.265513,66.497705 42.049429,71.141550 C 41.955729,77.744747 39.814928,80.292616 39.207800,86.840201 C 38.444301,90.099013 43.116627,95.723768 47.719830,96.188275 z "
         id="path958"
         sodipodi:nodetypes="cccccc" />
      <path
         style="fill:none;fill-opacity:0.75000000;fill-rule:evenodd;stroke:#000000;stroke-width:1.0000000pt;stroke-linecap:butt;stroke-linejoin:miter;stroke-opacity:1.0000000;"
         d="M 50.765775,86.542782 C 46.450684,86.288953 51.527262,81.973861 51.781091,85.273637"
         id="path1587"
         sodipodi:nodetypes="cc" />
    </g>
    <path
       style="fill:#ffffff;fill-opacity:0.099999972;fill-rule:evenodd;stroke:none;stroke-width:1.0000000pt;stroke-linecap:butt;stroke-linejoin:miter;stroke-opacity:1.0000000;"
       d="M 69.192395,60.745669 C 69.192395,60.745669 64.832105,53.976900 68.308843,50.964156 C 72.433642,50.839069 72.244416,54.546966 72.693673,57.280195 C 72.730593,62.487506 71.034386,64.167966 72.145893,73.344759 C 71.428878,69.897819 69.221282,66.108081 69.192395,60.745669 z "
       id="path1589"
       sodipodi:nodetypes="ccccc" />
  </g>
</svg>
