<?xml version="1.0" encoding="UTF-8" standalone="no"?>
<!DOCTYPE svg PUBLIC "-//W3C//DTD SVG 20010904//EN"
"http://www.w3.org/TR/2001/REC-SVG-20010904/DTD/svg10.dtd">
<!-- Created with Inkscape (http://www.inkscape.org/) -->
<svg
   id="svg1"
   sodipodi:version="0.32"
   inkscape:version="0.38.1"
   width="400pt"
   height="400pt"
   sodipodi:docbase="/var/www/html/svg_gallery/svg/special"
   sodipodi:docname="svg_globe.svg"
   xmlns="http://www.w3.org/2000/svg"
   xmlns:inkscape="http://www.inkscape.org/namespaces/inkscape"
   xmlns:sodipodi="http://sodipodi.sourceforge.net/DTD/sodipodi-0.dtd"
   xmlns:xlink="http://www.w3.org/1999/xlink">
  <defs
     id="defs3">
    <linearGradient
       id="linearGradient583">
      <stop
         style="stop-color:#ffffff;stop-opacity:0.466667;"
         offset="0.00000000"
         id="stop584" />
      <stop
         style="stop-color:#ffffff;stop-opacity:0.108333;"
         offset="1.00000000"
         id="stop585" />
    </linearGradient>
    <linearGradient
       id="linearGradient576">
      <stop
         style="stop-color:#006cff;stop-opacity:1;"
         offset="0.00000000"
         id="stop577" />
      <stop
         style="stop-color:#0000ff;stop-opacity:1;"
         offset="1.00000000"
         id="stop578" />
    </linearGradient>
    <radialGradient
       xlink:href="#linearGradient583"
       id="radialGradient579"
       cx="0.33980584"
       cy="0.32843137"
       r="0.28082165"
       fx="0.33980584"
       fy="0.32843137" />
    <radialGradient
       xlink:href="#linearGradient583"
       id="radialGradient582"
       cx="0.68367344"
       cy="0.22549020"
       r="0.40413386"
       fx="0.68367344"
       fy="0.22549020" />
  </defs>
  <sodipodi:namedview
     id="base"
     pagecolor="#ffffff"
     bordercolor="#666666"
     borderopacity="1.0"
     inkscape:pageopacity="0.0"
     inkscape:pageshadow="2"
     inkscape:zoom="1.3161220"
     inkscape:cx="168.21948"
     inkscape:cy="200.00038"
     inkscape:window-width="807"
     inkscape:window-height="709"
     showgrid="true"
     inkscape:window-x="74"
     inkscape:window-y="42" />
  <g
     id="g844">
    <path
       sodipodi:type="arc"
       style="font-size:12;fill:#0000ff;fill-opacity:1;fill-rule:evenodd;stroke-width:3pt;"
       id="path575"
       sodipodi:cx="273.05599976"
       sodipodi:cy="257.81121826"
       sodipodi:rx="219.86943054"
       sodipodi:ry="218.44479370"
       d="M 492.925430 257.811218 A 219.869431 218.444794 0 1 0 53.186569,257.811218 A 219.869 218.445 0 1 0 492.925 257.811 L 273.056000 257.811218 z"
       transform="matrix(1.047516,0.000000,0.000000,1.050000,-36.71858,-19.06400)" />
    <path
       style="fill:#00bd00;fill-rule:evenodd;stroke:none;stroke-opacity:1;stroke-width:1pt;stroke-linejoin:miter;stroke-linecap:butt;fill-opacity:1;"
       d="M 118.71999 81.155861 C 62.684157 159.03618 47.487998 116.29698 61.734397 159.98594 C 75.980792 203.67489 37.990399 236.91649 89.277432 202.72513 C 140.56447 168.53378 129.16735 121.04578 171.90655 157.13666 C 214.64575 193.22753 259.28446 148.58882 235.54047 206.52417 C 211.79647 264.45953 246.93759 348.98817 278.27966 249.26337 C 309.62174 149.53858 235.54047 202.72513 265.93278 130.54338 C 296.3251 58.361623 342.86334 42.215703 287.77726 29.868824 C 212.74623 67.859222 181.40415 114.39746 151.01183 90.653461 C 120.61951 66.909463 120.61951 82.105621 118.71999 81.155861 z "
       id="path580"
       sodipodi:nodetypes="cccccccccc" />
    <path
       style="fill:#00bd00;fill-rule:evenodd;stroke:none;stroke-opacity:1;stroke-width:1pt;stroke-linejoin:miter;stroke-linecap:butt;fill-opacity:1;"
       d="M 405.5475 188.47874 C 395.10014 254.96193 400.7987 277.75617 366.60734 273.00737 C 332.41598 268.25857 303.92318 255.91169 328.61694 304.34945 C 353.3107 352.78721 413.14558 311.94753 380.85374 361.33505 C 348.5619 410.72256 373.25566 419.2704 303.92318 443.96416 C 234.59071 468.65792 255.48543 480.05504 262.13375 481.0048 C 308.67199 479.10528 464.43261 442.06465 479.62877 264.45953 C 446.38718 132.4429 406.49726 190.37826 405.5475 188.47874 z "
       id="path586"
       sodipodi:nodetypes="cccccccc" />
    <path
       style="fill:#00bd00;fill-rule:evenodd;stroke:none;stroke-opacity:1;stroke-width:1pt;stroke-linejoin:miter;stroke-linecap:butt;fill-opacity:1;"
       d="M 83.578876 378.43073 C 98.775035 351.83745 101.62431 338.54081 120.61951 351.83745 C 139.61471 365.13409 125.36831 360.38529 160.50943 374.63169 C 195.65055 388.87809 187.10271 349.93793 207.99743 377.48097 C 228.89215 405.02401 202.29887 402.17473 194.70079 426.86848 C 187.10271 451.56224 136.76543 454.41152 136.76543 443.0144 C 136.76543 431.61728 96.875515 447.7632 83.578876 378.43073 z "
       id="path587" />
    <path
       style="fill:#b77719;fill-rule:evenodd;stroke:none;stroke-opacity:1;stroke-width:1pt;stroke-linejoin:miter;stroke-linecap:butt;fill-opacity:1;"
       d="M 267.83231 69.758743 C 258.33471 61.210903 218.44479 116.29698 185.20319 114.39746 C 151.96159 112.49794 144.36351 112.49794 113.97119 122.9453 C 83.578875 133.39266 73.131516 183.72994 98.775031 175.1821 C 106.37311 143.84002 167.15775 119.14626 194.70079 130.54338 C 222.24383 141.9405 237.43999 164.73474 248.83711 173.28258 C 245.98783 110.59842 250.73663 109.64866 267.83231 69.758743 z "
       id="path606"
       sodipodi:nodetypes="ccccccc" />
    <path
       style="fill:#b77719;fill-rule:evenodd;stroke:none;stroke-opacity:1;stroke-width:1pt;stroke-linejoin:miter;stroke-linecap:butt;fill-opacity:1;"
       d="M 107.32287 381.28001 C 117.77023 389.82785 133.91615 408.82305 148.16255 394.57665 C 186.15295 392.67713 204.19839 379.38049 191.85151 399.32545 C 151.96159 404.07424 183.30367 431.61728 147.21279 435.41632 C 140.56447 428.768 80.729596 395.52641 107.32287 381.28001 z "
       id="path607"
       sodipodi:nodetypes="ccccc" />
    <path
       style="fill:#b77719;fill-rule:evenodd;stroke:none;stroke-opacity:1;stroke-width:1pt;stroke-linejoin:miter;stroke-linecap:butt;fill-opacity:1;"
       d="M 432.14078 216.02178 C 431.19102 238.81601 468.23165 301.50017 432.14078 299.60065 C 396.0499 297.70113 376.10494 288.20353 378.95422 300.55041 C 381.8035 312.89729 425.49246 310.04801 425.49246 333.79201 C 425.49246 357.53601 381.8035 411.67232 362.8083 428.768 C 343.8131 445.86368 308.67198 454.41152 299.17438 464.85888 C 441.63837 461.05984 520.46845 233.11746 432.14078 216.02178 z "
       id="path608"
       sodipodi:nodetypes="ccccccc" />
    <path
       sodipodi:type="arc"
       style="font-size:12;fill:url(#radialGradient579);fill-opacity:1;fill-rule:evenodd;stroke-width:3pt;"
       id="path588"
       sodipodi:cx="273.05599976"
       sodipodi:cy="257.81121826"
       sodipodi:rx="219.86943054"
       sodipodi:ry="218.44479370"
       d="M 492.925430 257.811218 A 219.869431 218.444794 0 1 0 53.186569,257.811218 A 219.869 218.445 0 1 0 492.925 257.811 L 273.056000 257.811218 z"
       transform="matrix(1.047516,0.000000,0.000000,1.050000,-36.71858,-19.06400)" />
  </g>

  <rdf:RDF 
   xmlns="http://web.resource.org/cc/"
   xmlns:dc="http://purl.org/dc/elements/1.1/"
   xmlns:rdf="http://www.w3.org/1999/02/22-rdf-syntax-ns#">
  <Work rdf:about="">
    <dc:title>Clipart by Nicu Buculei - svg_globe_green</dc:title>
    <dc:rights>
       <Agent>
         <dc:title>Nicu Buculei</dc:title>
       </Agent>
    </dc:rights>
    <dc:type rdf:resource="http://purl.org/dc/dcmitype/StillImage" />
    <license rdf:resource="http://web.resource.org/cc/PublicDomain" />
  </Work>
   
  <License rdf:about="http://web.resource.org/cc/PublicDomain">
     <permits rdf:resource="http://web.resource.org/cc/Reproduction" />
     <permits rdf:resource="http://web.resource.org/cc/Distribution" />
     <permits rdf:resource="http://web.resource.org/cc/DerivativeWorks" />
  </License>

</rdf:RDF>
</svg>
