<?xml version="1.0" encoding="UTF-8" standalone="no"?>
<!-- Created with Inkscape (http://www.inkscape.org/) -->
<svg
   xmlns:dc="http://purl.org/dc/elements/1.1/"
   xmlns:cc="http://web.resource.org/cc/"
   xmlns:rdf="http://www.w3.org/1999/02/22-rdf-syntax-ns#"
   xmlns:svg="http://www.w3.org/2000/svg"
   xmlns="http://www.w3.org/2000/svg"
   xmlns:xlink="http://www.w3.org/1999/xlink"
   xmlns:sodipodi="http://sodipodi.sourceforge.net/DTD/sodipodi-0.dtd"
   xmlns:inkscape="http://www.inkscape.org/namespaces/inkscape"
   width="128"
   height="128"
   id="svg2"
   sodipodi:version="0.32"
   inkscape:version="0.45pre1"
   version="1.0"
   sodipodi:docbase="/home/nicu/Desktop/clipart"
   sodipodi:docname="broken_heart_1.svg"
   inkscape:output_extension="org.inkscape.output.svg.inkscape"
   sodipodi:modified="true">
  <defs
     id="defs4">
    <linearGradient
       id="linearGradient2902">
      <stop
         style="stop-color:#1700f2;stop-opacity:1;"
         offset="0"
         id="stop2904" />
      <stop
         style="stop-color:#1200c1;stop-opacity:1;"
         offset="1"
         id="stop2906" />
    </linearGradient>
    <radialGradient
       inkscape:collect="always"
       xlink:href="#linearGradient2902"
       id="radialGradient2908"
       cx="85.40419"
       cy="76.405174"
       fx="85.40419"
       fy="76.405174"
       r="41.041956"
       gradientTransform="matrix(-1.360155,0.349538,-0.203753,-0.792868,209.9938,108.2635)"
       gradientUnits="userSpaceOnUse" />
    <radialGradient
       inkscape:collect="always"
       xlink:href="#linearGradient2902"
       id="radialGradient2920"
       cx="114.12715"
       cy="55.536388"
       fx="114.12715"
       fy="55.536388"
       r="7.4241184"
       gradientTransform="matrix(1.26938,0,0,0.828768,-36.53935,0.15992)"
       gradientUnits="userSpaceOnUse" />
    <radialGradient
       inkscape:collect="always"
       xlink:href="#linearGradient2902"
       id="radialGradient2922"
       cx="123.63688"
       cy="70.862175"
       fx="123.63688"
       fy="70.862175"
       r="6.1725822"
       gradientTransform="matrix(1.26938,0,0,0.706544,-36.53935,16.46352)"
       gradientUnits="userSpaceOnUse" />
    <radialGradient
       inkscape:collect="always"
       xlink:href="#linearGradient2902"
       id="radialGradient2924"
       cx="120.69113"
       cy="86.041489"
       fx="120.69113"
       fy="86.041489"
       r="6.2919021"
       gradientTransform="matrix(1.26938,0,0,0.783235,-36.53935,17.78503)"
       gradientUnits="userSpaceOnUse" />
    <radialGradient
       inkscape:collect="always"
       xlink:href="#linearGradient2902"
       id="radialGradient2926"
       cx="45.474598"
       cy="102.61639"
       fx="45.474598"
       fy="102.61639"
       r="5.6191431"
       gradientTransform="matrix(1.26938,0,0,1.464526,-30.40289,-49.11369)"
       gradientUnits="userSpaceOnUse" />
    <radialGradient
       inkscape:collect="always"
       xlink:href="#linearGradient2902"
       id="radialGradient2928"
       cx="58.165207"
       cy="112.21231"
       fx="58.165207"
       fy="112.21231"
       r="4.3925252"
       gradientTransform="matrix(1.26938,0,0,2.071277,-30.40289,-117.9197)"
       gradientUnits="userSpaceOnUse" />
  </defs>
  <sodipodi:namedview
     id="base"
     pagecolor="#ffffff"
     bordercolor="#666666"
     borderopacity="1.0"
     gridtolerance="10000"
     guidetolerance="10"
     objecttolerance="10"
     inkscape:pageopacity="0.0"
     inkscape:pageshadow="2"
     inkscape:zoom="1"
     inkscape:cx="64"
     inkscape:cy="63.5"
     inkscape:document-units="px"
     inkscape:current-layer="layer1"
     width="128px"
     height="128px"
     inkscape:window-width="860"
     inkscape:window-height="717"
     inkscape:window-x="282"
     inkscape:window-y="66" />
  <metadata
     id="metadata7">
    <rdf:RDF>
      <cc:Work
         rdf:about="">
        <dc:format>image/svg+xml</dc:format>
        <dc:type
           rdf:resource="http://purl.org/dc/dcmitype/StillImage" />
      </cc:Work>
    </rdf:RDF>
  </metadata>
  <g
     inkscape:label="Layer 1"
     inkscape:groupmode="layer"
     id="layer1">
    <path
       sodipodi:nodetypes="ccccccccccccccc"
       id="path2015"
       d="M 64.11781,29.479223 C 55.585657,29.47764 47.679076,33.978522 41.351184,39.671575 C 34.466635,45.673204 26.619209,51.537089 22.183601,59.660515 C 17.595429,68.986493 9.452215,82.767463 2.650138,90.730364 C 12.640059,93.965843 24.049245,92.492602 34.817631,93.9486 C 45.719533,95.674929 56.813807,96.937137 67.858737,96.62923 C 77.130025,95.851925 91.355518,96.051196 99.42141,91.58907 C 101.82092,89.47283 103.62496,86.707185 104.94693,83.808532 C 106.28858,80.172252 107.21606,76.22251 106.70166,72.331876 C 105.83777,68.064056 105.08028,63.576528 102.02736,60.47441 C 97.765032,56.60741 92.470857,52.1275 87.280195,49.632439 C 86.520865,49.298977 85.70193,49.032608 84.853445,48.826015 C 85.643123,46.832588 85.705368,44.610864 85.555341,42.49407 C 84.146399,34.613078 75.872936,31.566815 68.919047,29.964577 C 67.302166,29.63427 65.697844,29.479525 64.11781,29.479223 z "
       style="fill:url(#radialGradient2908);fill-opacity:1;fill-rule:nonzero;stroke:none;stroke-width:1px;stroke-linecap:butt;stroke-linejoin:miter;stroke-opacity:1" />
    <path
       style="fill:#000000;fill-opacity:1;fill-rule:nonzero;stroke:none;stroke-width:1px;stroke-linecap:butt;stroke-linejoin:miter;stroke-opacity:1"
       d="M 64.11781,29.479223 C 55.585657,29.47764 47.679076,33.978522 41.351184,39.671575 C 34.466635,45.673204 26.619209,51.537089 22.183601,59.660515 C 17.595429,68.986493 9.452215,82.767463 2.650138,90.730364 C 12.640059,93.965843 24.049245,92.492602 34.817631,93.9486 C 45.719533,95.674929 56.813807,96.937137 67.858737,96.62923 C 77.130025,95.851925 91.355518,96.051196 99.42141,91.58907 C 101.82092,89.47283 103.62496,86.707185 104.94693,83.808532 C 106.28858,80.172252 107.21606,76.22251 106.70166,72.331876 C 105.83777,68.064056 105.08028,63.576528 102.02736,60.47441 C 97.765032,56.60741 92.470857,52.1275 87.280195,49.632439 C 86.520865,49.298977 85.70193,49.032608 84.853445,48.826015 C 85.643123,46.832588 85.705368,44.610864 85.555341,42.49407 C 84.146399,34.613078 75.872936,31.566815 68.919047,29.964577 C 67.302166,29.63427 65.697844,29.479525 64.11781,29.479223 z M 64.521028,31.711838 C 65.540977,31.72253 66.560065,31.801047 67.589928,31.958242 C 73.707039,33.406914 82.854465,35.941385 83.300328,43.5245 C 83.406026,45.196465 83.127868,46.862302 82.531238,48.415336 C 79.94579,48.098848 77.205898,48.193517 74.758176,48.497474 C 70.54371,49.540908 66.165079,50.808988 62.527366,53.246432 C 62.527366,53.474325 62.527366,53.705493 62.527366,53.933386 C 62.525802,54.013511 62.516966,54.083 62.504968,54.149929 C 62.621082,54.024157 62.769562,53.877944 62.975377,53.701917 C 65.599361,52.061257 69.142807,52.179382 72.122352,51.327432 C 87.125616,47.77317 91.825974,56.043777 99.04059,62.020064 C 102.17271,65.235002 104.41323,69.511549 104.78265,74.019399 C 104.83865,77.449362 104.09413,80.936573 102.59485,84.025062 C 97.648123,92.292717 93.837099,91.871469 84.823583,93.127245 C 59.157078,95.00268 32.431851,92.90085 7.0406866,90.13301 C 10.606572,85.060533 18.602458,71.554345 23.968195,61.325639 C 28.32163,52.024108 37.784437,46.241756 45.107045,39.499837 C 50.558312,34.991017 57.381383,31.636954 64.521028,31.711838 z M 62.504968,54.149929 C 61.886946,54.819313 62.390482,54.788033 62.504968,54.149929 z "
       id="path1872"
       sodipodi:nodetypes="cccccccccccccccccccccsccccccccccccc" />
    <path
       sodipodi:nodetypes="cccccccc"
       id="path2910"
       d="M 102.12668,39.145948 L 95.847008,42.498594 C 95.808635,42.600687 95.773358,42.702652 95.734998,42.804738 C 95.621439,44.429346 96.812168,45.510735 98.161742,46.202188 C 99.55185,46.949284 100.87508,47.808725 102.23122,48.614005 C 105.36809,50.510552 109.71082,51.646797 113.03584,49.510029 C 115.55738,47.073463 114.61871,42.863124 112.81184,40.295857 C 109.70775,37.732029 105.7409,38.122542 102.12668,39.145948 z "
       style="fill:url(#radialGradient2920);fill-opacity:1;fill-rule:nonzero;stroke:none;stroke-width:1px;stroke-linecap:butt;stroke-linejoin:miter;stroke-opacity:1" />
    <path
       style="fill:#000000;fill-opacity:1;fill-rule:nonzero;stroke:none;stroke-width:1px;stroke-linecap:butt;stroke-linejoin:miter;stroke-opacity:1"
       d="M 102.12668,39.145948 L 95.847008,42.498594 C 95.808635,42.600687 95.773358,42.702652 95.734998,42.804738 C 95.621439,44.429346 96.812168,45.510735 98.161742,46.202188 C 99.55185,46.949284 100.87508,47.808725 102.23122,48.614005 C 105.36809,50.510552 109.71082,51.646797 113.03584,49.510029 C 115.55738,47.073463 114.61871,42.863124 112.81184,40.295857 C 109.70775,37.732029 105.7409,38.122542 102.12668,39.145948 z M 112.63646,43.110881 C 112.86851,44.609361 112.83925,47.417735 111.69276,48.633247 C 109.06517,49.972957 105.6606,49.083546 103.30597,47.708304 C 101.82701,46.724152 98.6554,44.376036 97.175439,43.399694 C 98.026761,41.863395 101.21455,41.244012 102.80664,40.740998 C 105.54123,39.943893 111.25368,39.733534 112.63646,43.110881 z "
       id="path1894"
       sodipodi:nodetypes="ccccccccccscsc" />
    <path
       sodipodi:nodetypes="ccccccc"
       id="path2912"
       d="M 109.22025,65.235364 L 109.64348,66.000148 C 113.59634,68.527155 117.96707,72.083339 122.78764,70.499539 C 123.22678,70.210488 123.69308,69.944301 124.05702,69.55871 C 124.4796,68.923549 124.81618,68.297946 124.87838,67.512776 C 125.00918,65.747424 124.10439,64.515478 122.81752,63.435835 C 120.02946,61.261533 110.23937,61.903947 109.22025,65.235364 z "
       style="fill:url(#radialGradient2922);fill-opacity:1;fill-rule:nonzero;stroke:none;stroke-width:1px;stroke-linecap:butt;stroke-linejoin:miter;stroke-opacity:1" />
    <path
       style="fill:#000000;fill-opacity:1;fill-rule:nonzero;stroke:none;stroke-width:1px;stroke-linecap:butt;stroke-linejoin:miter;stroke-opacity:1"
       d="M 109.22025,65.235364 L 109.64348,66.000148 C 113.59634,68.527155 117.96707,72.083339 122.78764,70.499539 C 123.22678,70.210488 123.69308,69.944301 124.05702,69.55871 C 124.4796,68.923549 124.81618,68.297946 124.87838,67.512776 C 125.00918,65.747424 124.10439,64.515478 122.81752,63.435835 C 120.02946,61.261533 110.23937,61.903947 109.22025,65.235364 z M 121.65411,64.177261 C 122.67968,64.917945 123.33022,67.59848 122.71536,68.770569 C 120.0143,70.466761 116.64112,69.249794 114.16287,67.786855 C 113.59891,67.374329 111.34543,65.84424 110.74981,65.481293 C 113.78243,64.260925 118.62767,62.665172 121.65411,64.177261 z "
       id="path1896"
       sodipodi:nodetypes="cccccccccccs" />
    <path
       sodipodi:nodetypes="cccccccc"
       id="path2914"
       d="M 109.10079,79.845444 C 107.82537,80.152064 106.54017,80.755563 105.35238,81.325331 L 105.32952,82.373185 C 106.14546,82.662413 107.06785,84.181188 107.88367,84.470149 C 111.38995,86.410307 114.14112,89.086197 118.14323,89.099639 C 119.92483,89.070063 121.09326,88.036077 121.30172,86.277136 C 121.34176,84.423867 120.52834,82.711449 119.30806,81.348973 C 116.68484,78.468566 112.77106,79.163888 109.10079,79.845444 z "
       style="fill:url(#radialGradient2924);fill-opacity:1;fill-rule:nonzero;stroke:none;stroke-width:1px;stroke-linecap:butt;stroke-linejoin:miter;stroke-opacity:1" />
    <path
       style="fill:#000000;fill-opacity:1;fill-rule:nonzero;stroke:none;stroke-width:1px;stroke-linecap:butt;stroke-linejoin:miter;stroke-opacity:1"
       d="M 109.10079,79.845444 C 107.82537,80.152064 106.54017,80.755563 105.35238,81.325331 L 105.32952,82.373185 C 106.14546,82.662413 107.06785,84.181188 107.88367,84.470149 C 111.38995,86.410307 114.14112,89.086197 118.14323,89.099639 C 119.92483,89.070063 121.09326,88.036077 121.30172,86.277136 C 121.34176,84.423867 120.52834,82.711449 119.30806,81.348973 C 116.68484,78.468566 112.77106,79.163888 109.10079,79.845444 z M 119.23578,83.45589 C 119.51979,84.127582 119.18973,87.195494 118.80825,87.813123 C 115.13547,87.763884 112.18184,84.83667 108.78018,83.490264 C 108.28826,83.32362 107.70124,81.984603 107.21165,81.811929 C 112.22618,80.021491 116.03587,79.123152 119.23578,83.45589 z "
       id="path1898"
       sodipodi:nodetypes="ccccccccccccc" />
    <path
       sodipodi:nodetypes="cccccccc"
       id="path2916"
       d="M 35.498192,89.672919 C 27.958161,90.931405 22.102874,95.788065 22.556491,102.83537 C 22.725221,103.7303 23.275335,104.56877 24.05735,105.04557 C 25.638196,105.93247 27.61613,106.17049 29.321522,105.50105 C 30.96712,104.88601 32.175241,103.47747 32.980311,101.96174 C 33.864081,100.21713 34.453777,98.345803 35.026254,96.481014 C 35.161702,94.558666 37.703087,91.629898 36.452428,89.857852 C 35.793919,89.29297 36.37232,89.340241 35.498192,89.672919 z "
       style="fill:url(#radialGradient2926);fill-opacity:1;fill-rule:nonzero;stroke:none;stroke-width:1px;stroke-linecap:butt;stroke-linejoin:miter;stroke-opacity:1" />
    <path
       style="fill:#000000;fill-opacity:1;fill-rule:nonzero;stroke:none;stroke-width:1px;stroke-linecap:butt;stroke-linejoin:miter;stroke-opacity:1"
       d="M 35.498192,89.672919 C 27.958161,90.931405 22.102874,95.788065 22.556491,102.83537 C 22.725221,103.7303 23.275335,104.56877 24.05735,105.04557 C 25.638196,105.93247 27.61613,106.17049 29.321522,105.50105 C 30.96712,104.88601 32.175241,103.47747 32.980311,101.96174 C 33.864081,100.21713 34.453777,98.345803 35.026254,96.481014 C 35.161702,94.558666 37.703087,91.629898 36.452428,89.857852 C 35.793919,89.29297 36.37232,89.340241 35.498192,89.672919 z M 34.3617,91.224298 C 33.526412,95.954793 34.171697,98.886425 31.130262,102.64231 C 28.227787,105.67182 25.996907,105.23592 24.018488,101.87829 C 24.604162,95.031174 28.59817,92.337789 34.3617,91.224298 z "
       id="path1900"
       sodipodi:nodetypes="cccccccccccc" />
    <path
       sodipodi:nodetypes="cccccc"
       id="path2918"
       d="M 45.040255,101.22099 C 44.361187,101.29972 43.255241,103.14071 42.328899,103.70899 C 38.926334,106.54608 37.255659,111.11329 38.050349,115.52166 C 38.828082,117.39391 40.748005,118.60229 42.590237,119.27005 C 46.671045,120.12662 48.70016,117.12745 48.899784,113.33384 C 49.110812,108.59637 49.450813,103.93544 45.040255,101.22099 z "
       style="fill:url(#radialGradient2928);fill-opacity:1;fill-rule:nonzero;stroke:none;stroke-width:1px;stroke-linecap:butt;stroke-linejoin:miter;stroke-opacity:1" />
    <path
       style="fill:#000000;fill-opacity:1;fill-rule:nonzero;stroke:none;stroke-width:1px;stroke-linecap:butt;stroke-linejoin:miter;stroke-opacity:1"
       d="M 45.040255,101.22099 C 44.361187,101.29972 43.255241,103.14071 42.328899,103.70899 C 38.926334,106.54608 37.255659,111.11329 38.050349,115.52166 C 38.828082,117.39391 40.748005,118.60229 42.590237,119.27005 C 46.671045,120.12662 48.70016,117.12745 48.899784,113.33384 C 49.110812,108.59637 49.450813,103.93544 45.040255,101.22099 z M 45.763682,103.76873 C 46.041153,106.64918 48.013289,109.96787 47.846947,112.88584 C 46.61449,120.90599 38.578862,116.76351 39.461598,111.6986 C 39.758331,110.37051 44.557241,101.32215 45.763682,103.76873 z "
       id="path1902"
       sodipodi:nodetypes="cccccccccc" />
    <path
       style="fill:#000000;fill-opacity:1;fill-rule:nonzero;stroke:none;stroke-width:1px;stroke-linecap:butt;stroke-linejoin:miter;stroke-opacity:1"
       d="M 62.650209,37.52615 C 61.716015,38.805125 59.722781,39.051548 58.555702,40.111434 C 58.300597,39.699719 56.652845,38.681307 56.529775,38.248846 L 55.455511,38.833005 C 55.635737,39.859025 56.149809,40.735724 56.73394,41.581628 C 55.578809,42.470699 54.381177,43.305654 53.186299,44.138486 C 52.997738,43.685757 51.067322,42.652047 50.922449,42.180015 L 50.309834,43.371428 C 50.594763,44.096925 50.924468,44.788907 51.268656,45.480836 C 49.278891,46.901851 47.363323,48.391056 45.483764,49.955338 C 45.136616,49.408867 43.223502,47.923881 43.067209,47.549418 L 42.127888,48.133577 C 42.365628,49.414259 43.052961,50.535937 43.693963,51.649257 C 42.313564,53.061344 41.03564,54.579633 39.762794,56.091798 C 39.487027,55.67341 37.631643,54.597236 37.538003,54.497326 L 36.598682,55.164937 C 36.824339,56.252103 37.525401,57.125491 38.164757,58.009442 C 36.437068,60.085688 34.798667,62.241363 33.178884,64.401587 C 32.333363,63.369301 31.601438,62.241621 30.81379,61.173554 L 29.405721,62.258421 C 30.131919,64.201715 30.451884,64.69496 31.70869,66.319231 C 30.694115,67.651007 29.799757,69.066697 28.896146,70.474125 C 28.659132,70.110759 27.093711,68.570236 26.889749,68.18718 L 25.215361,68.943604 C 25.243815,69.366713 27.146443,72.221597 27.521835,72.711376 C 26.85074,73.844529 26.891667,76.438497 25.604191,76.163135 L 23.171642,75.642867 C 21.52655,76.872877 23.326761,76.303296 22.370856,76.465009 C 22.627089,76.771729 24.138903,78.245432 24.421645,78.528229 C 24.094726,79.217193 23.525764,81.07847 23.212468,81.773996 L 21.033807,81.053126 C 21.120322,81.745309 20.260534,81.971177 20.671252,82.494855 C 21.552623,82.393659 22.046609,83.394023 22.152433,83.482142 C 21.734995,84.386546 21.321385,85.311866 20.937925,86.230764 L 21.5896,86.907271 C 21.863723,86.170429 23.715437,85.682741 24.006155,84.952335 C 24.165287,85.113797 25.317814,85.933685 25.476599,86.092434 L 26.179485,83.705867 C 25.8254,83.344577 25.325701,83.58209 24.989839,83.203361 C 24.905201,82.497241 25.748854,80.840032 26.083602,80.094304 C 26.671532,80.577339 28.84375,81.036547 29.306275,81.62132 L 29.567322,80.413912 C 28.956661,79.379608 28.028867,78.585206 27.170267,77.761171 C 27.735264,76.661853 28.366933,75.598848 28.992029,74.533138 C 29.579614,75.260111 31.862252,75.891768 32.527209,76.546664 L 32.635552,74.820784 C 31.815252,74.024673 31.037269,73.201946 30.302418,72.327848 C 31.210593,70.862044 32.167268,69.413582 33.178884,68.013149 C 33.876034,68.805624 34.637532,69.537223 35.384174,70.282361 L 36.808209,70.090567 C 35.937651,69.275962 35.430368,66.934594 34.617117,66.063545 C 36.203034,63.918441 37.805054,61.79041 39.507108,59.735321 C 40.099363,60.53308 41.503021,61.861617 42.175814,62.588692 L 43.484436,61.761248 C 42.715736,61.000403 41.715322,58.72511 41.041223,57.881599 C 42.311629,56.391067 43.595449,54.92637 44.972392,53.53494 C 45.71871,54.519678 46.459119,55.50447 47.177683,56.507287 L 48.388656,55.800587 C 47.613207,54.662651 47.575052,52.927654 46.730232,51.841021 C 48.552263,50.303291 50.397265,48.803997 52.32336,47.39848 C 53.042943,48.777912 53.954087,49.424587 54.803866,50.72596 L 56.053899,49.896748 C 55.113466,48.623243 54.91736,47.498502 54.145121,46.120051 C 55.446529,45.219333 56.740792,44.316372 58.012369,43.371428 C 58.632801,44.232256 59.249217,45.099386 59.866092,45.960247 L 61.020242,45.45241 C 60.36967,44.585662 60.40677,42.867622 59.80217,41.965156 C 61.178643,40.912999 62.420164,39.708669 63.605497,38.449476 L 62.650209,37.52615 z "
       id="path1919"
       sodipodi:nodetypes="cccccccccccccccccccccccccscccccsscccccscccccccccccccccccccccccccccccc" />
    <path
       style="fill:#000000;fill-opacity:1;fill-rule:nonzero;stroke:none;stroke-width:1px;stroke-linecap:butt;stroke-linejoin:miter;stroke-opacity:1"
       d="M 90.076344,65.002656 C 89.939531,64.874337 88.161099,63.875702 87.990163,63.953966 L 86.872906,64.465509 C 87.100167,65.445922 88.210378,66.340842 88.933122,66.976857 C 88.044894,68.153622 86.881874,69.076797 85.850163,70.122557 C 85.347325,69.662032 83.768265,68.835909 83.426152,68.250424 L 82.682369,69.499394 C 82.596307,69.546801 83.460805,71.137306 84.156245,71.752555 C 82.444797,73.257836 80.555839,74.550631 78.595078,75.715685 C 78.361624,75.095701 76.539704,72.663704 76.74636,73.563269 L 75.303123,73.76608 C 75.547977,74.854217 76.090167,75.855398 76.549591,76.866271 C 74.266786,78.181285 71.843289,79.209603 69.390388,80.158226 C 68.977531,79.301524 67.8155,78.350598 67.460517,77.469843 L 65.746865,77.537446 C 66.015037,78.760591 66.617069,79.869376 67.153137,80.989205 C 64.972307,81.740557 62.764026,82.403149 60.537267,83.002731 C 60.058002,81.990572 58.569566,81.008812 58.024738,80.030383 L 56.446294,80.030383 C 56.894103,81.269871 57.54151,82.435238 58.140212,83.609984 C 56.624119,83.97399 55.097218,85.100174 53.569828,85.412013 L 53.540369,86.329148 C 55.264727,85.930282 57.514548,86.006984 59.226877,85.559589 C 59.965717,86.70983 60.643475,87.897492 61.336285,89.075269 L 62.840941,88.238105 C 62.267099,87.27161 62.22208,85.840297 61.623932,84.888414 C 63.840233,84.333503 65.992014,83.570614 68.14392,82.810966 C 68.678577,83.752642 69.274373,84.65641 69.869799,85.559589 L 71.346177,84.658504 C 70.83299,83.963779 70.866213,82.746194 70.413132,82.011948 C 72.903001,81.117659 75.254516,79.91688 77.572335,78.656072 C 78.526098,80.15293 79.64985,81.558548 80.800368,82.906848 L 82.053021,82.116375 C 80.970084,80.918855 80.406217,78.907867 79.5539,77.537446 C 81.738482,76.251655 83.843395,74.822149 85.754281,73.158827 C 86.531603,73.828137 88.059094,75.111375 88.863017,75.748826 L 89.927587,74.841557 C 89.208459,74.275684 88.147113,72.151996 87.448199,71.56079 C 88.524677,70.472682 89.455499,69.254368 90.388586,68.04511 C 91.189324,68.556047 91.80127,69.257436 92.402112,69.962754 L 93.839832,69.292205 C 93.18499,68.249591 92.758853,66.802355 91.794858,66.063545 C 92.447803,65.173883 92.710493,63.890953 92.881067,62.707897 L 92.307485,62.515961 C 92.247448,62.252471 90.350696,64.421677 90.076344,65.002656 z "
       id="path1921"
       sodipodi:nodetypes="cscccccccccccccccccccccccccccccccccccccccsccc" />
  </g>
</svg>
