<?xml version="1.0" encoding="UTF-8" standalone="no"?>
<!-- Created with Inkscape (http://www.inkscape.org/) -->
<svg
   xmlns:dc="http://purl.org/dc/elements/1.1/"
   xmlns:cc="http://web.resource.org/cc/"
   xmlns:rdf="http://www.w3.org/1999/02/22-rdf-syntax-ns#"
   xmlns:svg="http://www.w3.org/2000/svg"
   xmlns="http://www.w3.org/2000/svg"
   xmlns:xlink="http://www.w3.org/1999/xlink"
   xmlns:sodipodi="http://sodipodi.sourceforge.net/DTD/sodipodi-0.dtd"
   xmlns:inkscape="http://www.inkscape.org/namespaces/inkscape"
   width="96"
   height="96"
   id="svg2"
   sodipodi:version="0.32"
   inkscape:version="0.45pre1"
   version="1.0"
   sodipodi:docbase="/home/nicu/Desktop/clipart"
   sodipodi:docname="broken_heart.svg"
   inkscape:output_extension="org.inkscape.output.svg.inkscape"
   sodipodi:modified="true">
  <defs
     id="defs4">
    <linearGradient
       id="linearGradient3662">
      <stop
         style="stop-color:#2f7fed;stop-opacity:1;"
         offset="0"
         id="stop3664" />
      <stop
         style="stop-color:#1160ca;stop-opacity:1;"
         offset="1"
         id="stop3666" />
    </linearGradient>
    <linearGradient
       inkscape:collect="always"
       xlink:href="#linearGradient3662"
       id="linearGradient1911"
       gradientUnits="userSpaceOnUse"
       gradientTransform="matrix(0.82869,0,0,0.82869,8.448041,1.427866)"
       x1="15.837068"
       y1="35.975559"
       x2="57.091648"
       y2="81.336052" />
    <filter
       inkscape:collect="always"
       id="filter3173">
      <feGaussianBlur
         inkscape:collect="always"
         stdDeviation="1.3052202"
         id="feGaussianBlur3175" />
    </filter>
  </defs>
  <sodipodi:namedview
     id="base"
     pagecolor="#ffffff"
     bordercolor="#666666"
     borderopacity="1.0"
     gridtolerance="10000"
     guidetolerance="10"
     objecttolerance="10"
     inkscape:pageopacity="0.0"
     inkscape:pageshadow="2"
     inkscape:zoom="1"
     inkscape:cx="48"
     inkscape:cy="47.5"
     inkscape:document-units="px"
     inkscape:current-layer="layer1"
     width="96px"
     height="96px"
     inkscape:window-width="940"
     inkscape:window-height="687"
     inkscape:window-x="192"
     inkscape:window-y="85" />
  <metadata
     id="metadata7">
    <rdf:RDF>
      <cc:Work
         rdf:about="">
        <dc:format>image/svg+xml</dc:format>
        <dc:type
           rdf:resource="http://purl.org/dc/dcmitype/StillImage" />
      </cc:Work>
    </rdf:RDF>
  </metadata>
  <g
     inkscape:label="Layer 1"
     inkscape:groupmode="layer"
     id="layer1">
    <path
       style="fill:#000000;fill-opacity:0.68715084;fill-rule:nonzero;stroke:none;stroke-width:1px;stroke-linecap:butt;stroke-linejoin:miter;stroke-opacity:1;filter:url(#filter3173)"
       d="M 77.998415,38.841813 C 75.200513,38.799845 72.323858,39.086018 69.424864,39.435944 C 67.301038,39.805768 65.143497,40.230683 63.106987,40.984928 C 61.608935,41.535276 60.051112,42.020247 58.675788,42.746102 C 58.216269,43.017382 57.73404,43.284247 57.270165,43.552423 C 56.97819,43.720786 56.679718,43.896378 56.385691,44.061678 L 56.509112,44.146554 C 56.39913,44.144495 56.288085,44.158657 56.188405,44.167773 C 56.088724,44.176888 56.001234,44.177941 55.921991,44.210211 C 55.763503,44.27475 55.64877,44.405552 55.632846,44.63459 C 54.250681,47.826623 49.923794,52.602495 48.677283,55.265291 C 53.438684,56.469947 63.983076,56.733309 67.214835,57.026464 C 63.51295,59.412216 57.715683,63.091921 53.819254,66.53256 C 55.488538,66.944972 60.376166,66.690405 62.076508,67.402538 C 62.231085,67.467277 62.357854,67.554006 62.454978,67.635946 C 62.843477,67.963707 62.725233,68.441362 61.809767,69.142493 C 57.452564,72.369927 52.644346,75.189141 48.775929,78.521275 C 48.223298,78.997294 47.688704,79.486257 47.178382,79.985384 C 48.270931,78.542929 50.818987,76.149953 48.714397,75.529401 C 45.122412,75.084742 41.640255,74.518947 38.382339,73.640913 C 40.72182,70.061109 48.533936,65.115088 50.726799,61.843169 C 46.213473,60.765428 40.371017,59.431303 36.125182,58.066194 C 38.933569,54.397919 42.850036,51.015012 46.297915,47.520369 C 47.719362,47.313827 46.415371,46.634684 45.798557,46.226013 C 44.242418,45.291755 42.277141,44.698529 40.234491,44.210211 C 37.55781,43.566091 34.591554,43.451354 31.462713,43.700956 C 28.111295,44.09885 24.976548,45.191505 21.994575,46.607954 C 19.664349,47.790222 17.72597,49.218382 16.010962,50.766871 C 14.337943,52.451823 13.183595,54.24409 12.279866,56.050392 C 11.040646,58.540249 10.612881,60.9981 10.525715,63.413373 C 10.514663,65.701069 10.918229,67.903144 11.731478,69.991252 C 12.591872,71.794791 13.895361,73.448712 15.396533,74.977708 C 17.021952,76.587472 18.933517,78.001535 21.327377,79.115406 C 24.767592,80.463025 28.548618,81.471913 32.463088,82.319469 C 35.328658,82.929157 38.288395,83.432141 41.189719,83.995767 C 42.858389,84.352201 44.519137,84.708811 46.1774,85.077934 C 47.012521,85.275105 46.581057,85.194302 47.375,85.375 L 47.550822,85.162811 L 47.68245,85.226467 C 47.888007,85.100709 48.045005,84.984942 48.259473,84.865745 C 48.806251,84.532923 49.328387,84.185867 49.895212,83.868454 C 50.770897,83.381844 51.689965,82.912743 52.662266,82.531658 C 55.116822,81.495937 57.603502,80.476941 60.10894,79.518566 C 63.279249,78.256378 66.426195,76.936123 69.342553,75.359649 C 72.148916,73.731706 74.832413,72.000852 77.322071,70.161003 C 79.741234,68.336871 82.067115,66.473345 84.192689,64.516759 C 86.373504,62.524503 88.402999,60.49368 90.018487,58.342041 C 91.35346,56.466853 92.418196,54.556419 93.163727,52.634139 C 93.798213,50.940391 94.326388,49.231515 94.500249,47.562807 C 94.560718,46.261623 94.363156,45.018134 93.441564,43.998021 C 92.02982,42.567968 89.789387,41.674026 87.587096,40.793958 C 84.673016,39.797675 81.585051,38.981322 77.998415,38.841813 z "
       id="path2187" />
    <g
       id="g1905"
       transform="matrix(1.098906,0,0,1.098906,-10.69594,4.019019)">
      <path
         style="fill:url(#linearGradient1911);fill-opacity:1;fill-rule:nonzero;stroke:none;stroke-width:1px;stroke-linecap:butt;stroke-linejoin:miter;stroke-opacity:1"
         d="M 65.240106,11.662287 C 62.679254,11.606043 60.167319,11.996114 57.652412,12.46508 C 55.84991,12.960714 54.034945,13.525976 52.447203,14.536805 C 51.27769,15.274374 50.024912,15.920613 49.028856,16.893394 C 48.706179,17.25696 48.372521,17.621644 48.044787,17.981049 C 47.838352,18.206687 47.632652,18.432828 47.423269,18.65436 L 47.552752,18.783843 C 47.149516,18.772808 46.798985,18.817351 46.931234,19.431257 C 46.796983,23.709178 44.537977,30.125661 44.340892,33.694304 C 49.097756,35.308768 58.777688,35.638071 61.821759,36.030955 C 59.29278,39.228307 55.317733,44.180903 52.983014,48.792001 C 55.403668,49.595941 63.519511,48.509519 61.174345,52.268101 C 57.941129,57.211374 53.991911,61.459354 51.682225,66.810736 C 52.168731,64.877576 53.648512,61.67152 51.514926,60.839864 C 48.089726,60.243939 44.714899,59.478732 41.441162,58.302001 C 42.310083,53.504398 47.675076,46.890077 48.518941,42.505096 C 44.032496,41.06072 38.249439,39.258869 33.905262,37.429369 C 35.169745,32.513194 37.539596,27.97332 39.447127,23.289845 C 40.667941,23.013041 39.245887,22.128368 38.540747,21.580672 C 36.795832,20.328593 34.796493,19.51597 32.765813,18.861532 C 30.103333,17.998292 27.367773,17.853709 24.608395,18.188222 C 21.698667,18.721475 19.235732,20.174402 17.020701,22.072707 C 15.316332,23.657167 14.048253,25.565205 13.03263,27.640468 C 12.103249,29.898619 11.69135,32.315344 11.504732,34.736127 C 11.253412,38.073001 11.718011,41.365802 12.488802,44.602718 C 13.283956,47.66866 14.432134,50.609097 15.907148,53.40755 C 17.324902,55.82463 19.078649,58.039725 20.982876,60.088864 C 23.028597,62.246249 25.275009,64.16383 27.845466,65.656625 C 31.450375,67.462687 35.250001,68.793675 39.110472,69.929558 C 41.932721,70.746652 44.791865,71.427196 47.630441,72.18256 C 49.274377,72.660247 50.911852,73.138071 52.550789,73.632767 C 53.380144,73.897012 52.981841,73.779046 53.767927,74.021216 L 53.845617,73.736353 L 53.9751,73.83994 C 54.117893,73.671399 54.236234,73.507651 54.389445,73.347905 C 54.769866,72.901864 55.124807,72.426677 55.528894,72.001284 C 56.154491,71.349136 56.824063,70.725145 57.574722,70.214421 C 59.443811,68.826362 61.329352,67.458958 63.271967,66.174557 C 65.712676,64.482992 68.11325,62.719566 70.212246,60.606795 C 72.193027,58.425051 74.032526,56.10636 75.650525,53.640619 C 77.209904,51.19594 78.677863,48.701013 79.923458,46.078822 C 81.206772,43.408827 82.344176,40.67552 83.056942,37.791921 C 83.611745,35.278817 83.88379,32.728648 83.885632,30.152435 C 83.86685,27.882494 83.770931,25.603914 83.341804,23.367535 C 82.938845,21.623704 82.312399,19.943811 81.1147,18.57667 C 79.326678,16.660132 76.980283,15.457295 74.666455,14.277839 C 71.663983,12.942635 68.553033,11.849255 65.240106,11.662287 z M 50.375477,69.606879 C 50.807247,69.452993 38.162208,62.931403 50.375477,69.606879 z "
         id="path1888"
         sodipodi:nodetypes="ccccsccccccccccccccccccccccccccccccsccccccccccccc" />
      <path
         sodipodi:nodetypes="ccccsccccccccccccccccccccccccccccccsccccccccccccccccccccccccscccccccccccscccccccccccscccc"
         id="path1876"
         d="M 65.240106,11.662287 C 62.679254,11.606043 60.167319,11.996114 57.652412,12.46508 C 55.84991,12.960714 54.034945,13.525976 52.447203,14.536805 C 51.27769,15.274374 50.024912,15.920613 49.028856,16.893394 C 48.706179,17.25696 48.372521,17.621644 48.044787,17.981049 C 47.838352,18.206687 47.632652,18.432828 47.423269,18.65436 L 47.552752,18.783843 C 47.149516,18.772808 46.798985,18.817351 46.931234,19.431257 C 46.796983,23.709178 44.537977,30.125661 44.340892,33.694304 C 49.097756,35.308768 58.777688,35.638071 61.821759,36.030955 C 59.29278,39.228307 55.317733,44.180903 52.983014,48.792001 C 55.403668,49.595941 63.519511,48.509519 61.174345,52.268101 C 57.941129,57.211374 53.991911,61.459354 51.682225,66.810736 C 52.168731,64.877576 53.648512,61.67152 51.514926,60.839864 C 48.089726,60.243939 44.714899,59.478732 41.441162,58.302001 C 42.310083,53.504398 47.675076,46.890077 48.518941,42.505096 C 44.032496,41.06072 38.249439,39.258869 33.905262,37.429369 C 35.169745,32.513194 37.539596,27.97332 39.447127,23.289845 C 40.667941,23.013041 39.245887,22.128368 38.540747,21.580672 C 36.795832,20.328593 34.796493,19.51597 32.765813,18.861532 C 30.103333,17.998292 27.367773,17.853709 24.608395,18.188222 C 21.698667,18.721475 19.235732,20.174402 17.020701,22.072707 C 15.316332,23.657167 14.048253,25.565205 13.03263,27.640468 C 12.103249,29.898619 11.69135,32.315344 11.504732,34.736127 C 11.253412,38.073001 11.718011,41.365802 12.488802,44.602718 C 13.283956,47.66866 14.432134,50.609097 15.907148,53.40755 C 17.324902,55.82463 19.078649,58.039725 20.982876,60.088864 C 23.028597,62.246249 25.275009,64.16383 27.845466,65.656625 C 31.450375,67.462687 35.250001,68.793675 39.110472,69.929558 C 41.932721,70.746652 44.791865,71.427196 47.630441,72.18256 C 49.274377,72.660247 50.911852,73.138071 52.550789,73.632767 C 53.380144,73.897012 52.981841,73.779046 53.767927,74.021216 L 53.845617,73.736353 L 53.9751,73.83994 C 54.117893,73.671399 54.236234,73.507651 54.389445,73.347905 C 54.769866,72.901864 55.124807,72.426677 55.528894,72.001284 C 56.154491,71.349136 56.824063,70.725145 57.574722,70.214421 C 59.443811,68.826362 61.329352,67.458958 63.271967,66.174557 C 65.712676,64.482992 68.11325,62.719566 70.212246,60.606795 C 72.193027,58.425051 74.032526,56.10636 75.650525,53.640619 C 77.209904,51.19594 78.677863,48.701013 79.923458,46.078822 C 81.206772,43.408827 82.344176,40.67552 83.056942,37.791921 C 83.611745,35.278817 83.88379,32.728648 83.885632,30.152435 C 83.86685,27.882494 83.770931,25.603914 83.341804,23.367535 C 82.938845,21.623704 82.312399,19.943811 81.1147,18.57667 C 79.326678,16.660132 76.980283,15.457295 74.666455,14.277839 C 71.663983,12.942635 68.553033,11.849255 65.240106,11.662287 z M 65.240106,13.060701 C 68.367836,13.198707 71.310909,14.221281 74.148524,15.469081 C 76.282637,16.562396 78.443019,17.751344 80.052941,19.56074 C 81.048862,20.76076 81.574162,22.211136 81.94339,23.70419 C 82.361227,25.832025 82.452116,27.990347 82.487218,30.152435 C 82.506044,32.623847 82.226672,35.06898 81.710321,37.481163 C 81.068046,40.276438 79.931389,42.928127 78.706319,45.509098 C 77.491317,48.086344 76.022322,50.505284 74.511076,52.915515 C 72.939333,55.315828 71.143529,57.564437 69.20228,59.674519 C 67.178048,61.716194 64.858963,63.438949 62.49507,65.061004 C 60.548476,66.349793 58.653085,67.714191 56.720136,69.023179 C 55.854707,69.540342 55.122749,70.231657 54.415341,70.939524 C 53.9873,71.357905 53.623666,71.820304 53.249996,72.286146 C 53.158189,72.259201 53.158537,72.264968 52.965134,72.208456 C 51.300296,71.740546 49.672854,71.222929 47.992993,70.810042 C 45.151261,70.128297 42.290113,69.493082 39.473024,68.71242 C 35.708373,67.625795 31.996319,66.346132 28.518777,64.517176 C 26.08482,63.059896 23.932881,61.200776 21.966946,59.156587 C 20.13943,57.196787 18.501702,55.062074 17.124287,52.760136 C 15.674794,50.077859 14.511243,47.252433 13.757734,44.291959 C 13.022484,41.191972 12.585044,38.059488 12.87725,34.86561 C 13.078701,32.622038 13.477373,30.360257 14.327458,28.261986 C 15.249073,26.358208 16.369081,24.587615 17.901184,23.108569 C 19.897188,21.373503 22.150646,20.047449 24.789671,19.56074 C 27.349795,19.248231 29.88698,19.375013 32.351468,20.208154 C 34.228307,20.820449 36.062005,21.577286 37.634367,22.79781 C 36.718922,27.841739 33.767043,33.335109 32.403261,38.252784 C 36.247821,40.696651 41.893467,41.548614 46.36151,43.799924 C 41.078973,57.927939 33.920768,58.616948 51.178271,62.315968 C 51.699176,64.442019 50.51821,67.536281 50.375477,69.606879 C 55.424103,65.02657 58.183426,58.497342 62.49507,53.070895 C 65.066678,47.970876 58.808593,48.58752 55.22478,47.853765 C 57.281366,44.263672 61.154145,40.006412 63.40145,36.056852 C 61.894481,34.353024 49.904759,33.484291 46.095213,33.008388 C 46.387401,31.781183 46.991079,25.086192 47.604545,22.668327 C 47.821533,21.651851 48.216367,20.697964 48.459132,19.690223 L 48.562718,19.793809 C 48.771242,19.524912 49.009081,19.270665 49.236029,19.016912 C 49.552135,18.668012 49.86108,18.311433 50.168305,17.955153 C 51.035518,17.043516 52.16617,16.44289 53.2241,15.77984 C 54.706941,14.86787 56.374521,14.307551 58.040861,13.837598 C 60.407711,13.30952 62.817483,13.043986 65.240106,13.060701 z "
         style="fill:black;fill-opacity:1;fill-rule:nonzero;stroke:none;stroke-width:1px;stroke-linecap:butt;stroke-linejoin:miter;stroke-opacity:1" />
    </g>
  </g>
</svg>
