<?xml version="1.0" encoding="UTF-8" standalone="no"?>
<!-- Created with Inkscape (http://www.inkscape.org/) -->

<svg
   xmlns:dc="http://purl.org/dc/elements/1.1/"
   xmlns:cc="http://creativecommons.org/ns#"
   xmlns:rdf="http://www.w3.org/1999/02/22-rdf-syntax-ns#"
   xmlns:svg="http://www.w3.org/2000/svg"
   xmlns="http://www.w3.org/2000/svg"
   xmlns:sodipodi="http://sodipodi.sourceforge.net/DTD/sodipodi-0.dtd"
   xmlns:inkscape="http://www.inkscape.org/namespaces/inkscape"
   width="380"
   height="380"
   id="svg2"
   version="1.1"
   inkscape:version="0.48.0 r9654"
   sodipodi:docname="emblem.svg"
   inkscape:export-filename="emblem.png"
   inkscape:export-xdpi="30.32"
   inkscape:export-ydpi="30.32">
  <defs
     id="defs4" />
  <sodipodi:namedview
     id="base"
     pagecolor="#ffffff"
     bordercolor="#666666"
     borderopacity="1.0"
     inkscape:pageopacity="0.0"
     inkscape:pageshadow="2"
     inkscape:zoom="1"
     inkscape:cx="178.51178"
     inkscape:cy="154.49055"
     inkscape:document-units="px"
     inkscape:current-layer="g2891"
     showgrid="false"
     inkscape:window-width="1488"
     inkscape:window-height="974"
     inkscape:window-x="184"
     inkscape:window-y="24"
     inkscape:window-maximized="0" />
  <metadata
     id="metadata7">
    <rdf:RDF>
      <cc:Work
         rdf:about="">
        <dc:format>image/svg+xml</dc:format>
        <dc:type
           rdf:resource="http://purl.org/dc/dcmitype/StillImage" />
        <dc:title></dc:title>
      </cc:Work>
    </rdf:RDF>
  </metadata>
  <g
     inkscape:label="Layer 1"
     inkscape:groupmode="layer"
     id="layer1"
     transform="translate(-8.4541098,6.350179)">
    <g
       id="g2891"
       transform="matrix(0.96855216,0,0,0.96855216,22.146796,-7.220959)">
      <path
         style="color:#000000;fill:#000000;stroke:#000000;stroke-width:15.48703384;stroke-linecap:butt;stroke-linejoin:miter;stroke-miterlimit:4;stroke-opacity:1;stroke-dasharray:none;stroke-dashoffset:0;marker:none;visibility:visible;display:inline;overflow:visible;enable-background:accumulate"
         d="m 191.38487,16.402577 c -38.33483,-0.471965 -74.13792,24.111416 -114.999995,46.75 l 10.3125,11.78125 c -5.073145,4.40459 -9.851852,9.13355 -14.3125,14.156251 L 59.916125,77.715077 C 40.886638,121.15949 12.669349,152.2865 12.197375,190.62133 c -0.471965,38.33484 24.111415,74.10667 46.75,114.96875 l 13.28125,-11.59375 c 4.121238,4.65518 8.507605,9.05905 13.15625,13.1875 l -10.90625,12 c 43.444415,19.02949 74.571415,47.24677 112.906245,47.71875 38.33484,0.47196 74.10667,-24.11142 114.96875,-46.75 l -11.5625,-13.21875 c 4.11608,-3.6744 8.01666,-7.56556 11.71875,-11.65625 l 13.4375,12.25 c 19.02949,-43.44442 47.24678,-74.57142 47.71875,-112.90625 0.47196,-38.33484 -24.11142,-74.10667 -46.75,-114.968753 l -12.28125,10.750001 c -3.9367,-4.534241 -8.12928,-8.827291 -12.5625,-12.875001 l 12.21875,-13.40625 C 260.84671,45.091841 229.71971,16.874551 191.38487,16.402577 z"
         id="path3680" />
      <path
         id="path2844"
         d="m 191.38487,16.402577 c -38.33483,-0.471965 -74.13792,24.111416 -114.999995,46.75 l 10.3125,11.78125 c -5.073145,4.40459 -9.851852,9.13355 -14.3125,14.156251 L 59.916125,77.715077 C 40.886638,121.15949 12.669349,152.2865 12.197375,190.62133 c -0.471965,38.33484 24.111415,74.10667 46.75,114.96875 l 13.28125,-11.59375 c 4.121238,4.65518 8.507605,9.05905 13.15625,13.1875 l -10.90625,12 c 43.444415,19.02949 74.571415,47.24677 112.906245,47.71875 38.33484,0.47196 74.10667,-24.11142 114.96875,-46.75 l -11.5625,-13.21875 c 4.11608,-3.6744 8.01666,-7.56556 11.71875,-11.65625 l 13.4375,12.25 c 19.02949,-43.44442 47.24678,-74.57142 47.71875,-112.90625 0.47196,-38.33484 -24.11142,-74.10667 -46.75,-114.968753 l -12.28125,10.750001 c -3.9367,-4.534241 -8.12928,-8.827291 -12.5625,-12.875001 l 12.21875,-13.40625 C 260.84671,45.091841 229.71971,16.874551 191.38487,16.402577 z"
         style="color:#000000;fill:#ff0000;stroke:#ffffff;stroke-width:5.16234446;stroke-linecap:butt;stroke-linejoin:miter;stroke-miterlimit:4;stroke-opacity:1;stroke-dasharray:none;stroke-dashoffset:0;marker:none;visibility:visible;display:inline;overflow:visible;enable-background:accumulate" />
      <path
         style="fill:#ffffff;fill-rule:evenodd;stroke:#000000;stroke-width:1.45817876000000002;stroke-miterlimit:4"
         d="m 209,242.86218 c 0,17.8886 -6.30481,34.30463 -16.81353,47.14719 -15.30264,11.77501 -33.51849,19.5151 -56.77511,19.5151 -20.78476,0 -33.01973,-8.32929 -54.006259,-14.40156 C 68.1676,281.67545 60,263.22264 60,242.86218 c 0,-41.14521 33.354786,-74.5 74.5,-74.5 41.14521,0 74.5,33.35479 74.5,74.5 z"
         id="path3644"
         sodipodi:nodetypes="ccscssc"
         transform="matrix(1.4161075,0,0,1.4161075,-2.5366953,-152.27791)" />
      <path
         transform="matrix(1.2953021,0,0,1.2953021,13.711625,-122.93886)"
         d="m 209,242.86218 c 0,41.14522 -33.35479,74.5 -74.5,74.5 -41.145214,0 -74.5,-33.35478 -74.5,-74.5 0,-41.14521 33.354786,-74.5 74.5,-74.5 41.14521,0 74.5,33.35479 74.5,74.5 z"
         sodipodi:ry="74.5"
         sodipodi:rx="74.5"
         sodipodi:cy="242.86218"
         sodipodi:cx="134.5"
         id="path3642"
         style="fill:#000000;fill-rule:evenodd;stroke:none"
         sodipodi:type="arc" />
      <path
         style="color:#000000;fill:#ffffff;stroke:#000000;stroke-width:2.06493783;stroke-linecap:butt;stroke-linejoin:bevel;stroke-miterlimit:4;stroke-opacity:1;stroke-dasharray:none;stroke-dashoffset:0;marker:none;visibility:visible;display:inline;overflow:visible;enable-background:accumulate"
         d="m 125.08385,277.69694 c -6.15333,0.0854 -6.5682,-5.48685 -11.16689,-8.38602 -4.30463,-2.71383 -6.83954,3.75773 -16.495777,-7.97787 l 6.212317,17.30338 -13.276521,-3.49768 c 9.563678,17.72451 11.176661,7.88524 20.868441,13.48897 6.97803,4.03466 0.35757,12.45621 17.75022,12.46482 5.23538,-7.73107 1.65029,-15.55323 -3.89179,-23.3956 z"
         id="path2903"
         sodipodi:nodetypes="cscccscc" />
      <path
         sodipodi:nodetypes="cscccscc"
         id="path3733"
         d="m 259.39362,273.70179 c 6.07953,-0.95397 5.54833,-6.51635 9.59195,-10.14984 3.78507,-3.40117 7.37548,2.54993 14.91333,-10.64659 l -3.20392,18.10345 12.49609,-5.6875 c -6.43618,19.08397 -9.68608,9.65788 -18.29349,16.81643 -6.1973,5.15413 1.74911,12.33798 -15.39276,15.28087 -6.46468,-6.73696 -4.2507,-15.05184 -0.1112,-23.71682 z"
         style="color:#000000;fill:#ffffff;stroke:#000000;stroke-width:2.06493783;stroke-linecap:butt;stroke-linejoin:bevel;stroke-miterlimit:4;stroke-opacity:1;stroke-dasharray:none;stroke-dashoffset:0;marker:none;visibility:visible;display:inline;overflow:visible;enable-background:accumulate" />
      <path
         style="color:#000000;fill:#ffffff;stroke:#000000;stroke-width:2;stroke-linecap:butt;stroke-linejoin:bevel;stroke-miterlimit:4;stroke-opacity:1;stroke-dasharray:none;stroke-dashoffset:0;marker:none;visibility:visible;display:inline;overflow:visible;enable-background:accumulate"
         d="m 251.02291,290.2065 c -5.50084,-10.1352 10.60213,-11.78512 6.36396,-19.44544 l -16.26346,-16.26345 4.5962,22.62741 c -0.80871,3.83851 -2.11827,8.32849 5.3033,13.08148 z"
         id="path2901"
         transform="matrix(1.0324689,0,0,1.0324689,0.56154797,-1.9442985)"
         sodipodi:nodetypes="ccccc" />
      <path
         sodipodi:nodetypes="ccccc"
         id="path2905"
         d="m 128.67061,300.67421 c 3.83254,-11.27248 -11.62407,-11.98214 -8.6454,-20.51607 l 10.43253,-14.27332 1.45434,21.27259 c 1.49163,3.76546 3.48328,7.38705 -3.24147,13.5168 z"
         style="color:#000000;fill:#ffffff;stroke:#000000;stroke-width:2.06493783;stroke-linecap:butt;stroke-linejoin:bevel;stroke-miterlimit:4;stroke-opacity:1;stroke-dasharray:none;stroke-dashoffset:0;marker:none;visibility:visible;display:inline;overflow:visible;enable-background:accumulate" />
      <path
         sodipodi:nodetypes="ccccc"
         id="path3731"
         d="m 128.80195,260.98772 c 40.9043,21.02127 84.86766,33.82917 119.50104,-2.82842 6.3693,1.86427 14.97746,2.55126 17.67767,19.09188 -37.42022,37.08481 -112.73578,32.38564 -145.664,2.82843 -1.07592,-8.96686 -1.53807,-17.52454 8.48529,-19.09189 z"
         style="color:#000000;fill:#ffffff;stroke:#000000;stroke-width:2.06493783;stroke-linecap:butt;stroke-linejoin:bevel;stroke-miterlimit:4;stroke-opacity:1;stroke-dasharray:none;stroke-dashoffset:0;marker:none;visibility:visible;display:inline;overflow:visible;enable-background:accumulate" />
      <g
         id="g3688"
         transform="matrix(0.80743734,-0.58995335,0.58995335,0.80743734,-56.883417,138.89577)">
        <path
           sodipodi:nodetypes="ccccc"
           id="rect3679"
           d="m 59.696873,177.58908 c 5.293272,1.5824 9.582503,1.15672 13.506216,0 l 0,13.96742 -13.506216,0 0,-13.96742 z"
           style="fill:#ffffff;fill-opacity:1;stroke:#000000;stroke-width:2.06493783;stroke-miterlimit:4" />
        <path
           sodipodi:nodetypes="ccccc"
           id="rect3683"
           d="m 60.51078,187.83595 11.878403,0 -1.548703,27.13769 -8.522879,0 -1.806821,-27.13769 z"
           style="fill:#ffffff;fill-opacity:1;stroke:#000000;stroke-width:2.06493783;stroke-miterlimit:4" />
        <path
           sodipodi:nodetypes="ccccc"
           id="rect3681"
           d="m 58.281025,184.88972 c 6.938525,2.39921 11.815132,1.70554 16.01716,0 l 0,9.12583 c -4.981494,2.50292 -10.347573,2.31374 -16.01716,0 l 0,-9.12583 z"
           style="fill:#ffffff;fill-opacity:1;stroke:#000000;stroke-width:2.06493783;stroke-miterlimit:4" />
      </g>
      <g
         transform="matrix(-0.81592334,-0.57816011,-0.57816011,0.81592334,436.26284,130.78034)"
         id="g3693">
        <path
           style="fill:#ffffff;fill-opacity:1;stroke:#000000;stroke-width:2.06493783;stroke-miterlimit:4"
           d="m 59.696873,177.58908 c 5.293272,1.5824 9.582503,1.15672 13.506216,0 l 0,13.96742 -13.506216,0 0,-13.96742 z"
           id="path3695"
           sodipodi:nodetypes="ccccc" />
        <path
           style="fill:#ffffff;fill-opacity:1;stroke:#000000;stroke-width:2.06493783;stroke-miterlimit:4"
           d="m 60.51078,187.83595 11.878403,0 -1.548703,27.13769 -8.522879,0 -1.806821,-27.13769 z"
           id="path3697"
           sodipodi:nodetypes="ccccc" />
        <path
           style="fill:#ffffff;fill-opacity:1;stroke:#000000;stroke-width:2.06493783;stroke-miterlimit:4"
           d="m 58.281025,184.88972 c 6.938525,2.39921 11.815132,1.70554 16.01716,0 l 0,9.12583 c -4.981494,2.50292 -10.347573,2.31374 -16.01716,0 l 0,-9.12583 z"
           id="path3699"
           sodipodi:nodetypes="ccccc" />
      </g>
    </g>
  </g>
</svg>
