<?xml version="1.0" encoding="UTF-8" standalone="no"?>
<!-- Created with Inkscape (http://www.inkscape.org/) -->
<svg
   xmlns:dc="http://purl.org/dc/elements/1.1/"
   xmlns:cc="http://web.resource.org/cc/"
   xmlns:rdf="http://www.w3.org/1999/02/22-rdf-syntax-ns#"
   xmlns:svg="http://www.w3.org/2000/svg"
   xmlns="http://www.w3.org/2000/svg"
   xmlns:xlink="http://www.w3.org/1999/xlink"
   xmlns:sodipodi="http://sodipodi.sourceforge.net/DTD/sodipodi-0.dtd"
   xmlns:inkscape="http://www.inkscape.org/namespaces/inkscape"
   width="128"
   height="128"
   id="svg2"
   sodipodi:version="0.32"
   inkscape:version="0.45.1"
   version="1.0"
   sodipodi:docbase="/home/nicu/Desktop"
   sodipodi:docname="film.svg"
   inkscape:output_extension="org.inkscape.output.svg.inkscape"
   inkscape:export-filename="/home/nicu/Desktop/film.png"
   inkscape:export-xdpi="90"
   inkscape:export-ydpi="90">
  <defs
     id="defs4">
    <linearGradient
       inkscape:collect="always"
       id="linearGradient3604">
      <stop
         style="stop-color:#ffffff;stop-opacity:1;"
         offset="0"
         id="stop3606" />
      <stop
         style="stop-color:#ffffff;stop-opacity:0;"
         offset="1"
         id="stop3608" />
    </linearGradient>
    <filter
       inkscape:collect="always"
       id="filter3562">
      <feGaussianBlur
         inkscape:collect="always"
         stdDeviation="1.3401337"
         id="feGaussianBlur3564" />
    </filter>
    <linearGradient
       inkscape:collect="always"
       xlink:href="#linearGradient3604"
       id="linearGradient3610"
       x1="25.474201"
       y1="54.093365"
       x2="26.41769"
       y2="36.79607"
       gradientUnits="userSpaceOnUse" />
    <linearGradient
       inkscape:collect="always"
       xlink:href="#linearGradient3604"
       id="linearGradient3614"
       x1="12.791231"
       y1="14.028233"
       x2="63.986408"
       y2="82.588432"
       gradientUnits="userSpaceOnUse" />
  </defs>
  <sodipodi:namedview
     id="base"
     pagecolor="#ffffff"
     bordercolor="#666666"
     borderopacity="1.0"
     gridtolerance="10000"
     guidetolerance="10"
     objecttolerance="10"
     inkscape:pageopacity="0.0"
     inkscape:pageshadow="2"
     inkscape:zoom="1"
     inkscape:cx="64"
     inkscape:cy="64"
     inkscape:document-units="px"
     inkscape:current-layer="layer1"
     width="128px"
     height="128px"
     inkscape:window-width="872"
     inkscape:window-height="622"
     inkscape:window-x="134"
     inkscape:window-y="77" />
  <metadata
     id="metadata7">
    <rdf:RDF>
      <cc:Work
         rdf:about="">
        <dc:format>image/svg+xml</dc:format>
        <dc:type
           rdf:resource="http://purl.org/dc/dcmitype/StillImage" />
      </cc:Work>
    </rdf:RDF>
  </metadata>
  <g
     inkscape:label="Layer 1"
     inkscape:groupmode="layer"
     id="layer1">
    <path
       style="fill:#000000;fill-opacity:0.5714286;stroke:none;stroke-width:1;stroke-miterlimit:4;stroke-dasharray:none;stroke-opacity:1;filter:url(#filter3562)"
       d="M 17.541232,22.287239 C 17.162442,22.281601 16.786439,22.301204 16.416232,22.318489 C 11.233326,22.560474 7.1972866,24.670213 2.7912316,24.693489 C 2.5495856,25.101058 3.0784406,26.015109 3.6662316,26.943489 C 4.2039778,27.087972 4.7623796,27.240964 5.1974816,27.349739 C 5.4371678,27.409656 5.6882296,27.48867 5.9162316,27.599739 C 6.790938,27.435355 7.7078146,27.300874 8.6349816,27.255989 C 10.075759,27.186237 11.498627,27.328473 12.666232,27.880989 C 13.689855,29.143216 13.718423,31.123114 13.259982,32.474739 C 11.430365,33.069441 9.4700646,33.41466 7.5099816,33.505989 C 7.2829696,32.62585 7.5034366,32.80581 6.8537316,33.662239 C 6.604817,34.160064 6.2500236,34.644199 5.8224816,35.099739 C 5.801172,35.234675 5.7832826,35.370886 5.7599816,35.505989 C 5.381717,38.469751 5.4541566,40.43826 6.3224816,43.412239 C 6.935449,45.220233 5.7975436,48.169025 5.6037316,50.037239 C 5.293286,52.207358 5.8858706,54.335349 6.5412316,56.380989 C 7.243976,58.174878 8.1279656,62.312149 8.9474816,65.068489 C 8.8324876,72.061258 8.9302576,79.080329 9.3849816,86.068489 C 9.7527748,86.521478 10.115027,86.950199 10.541232,87.349739 C 13.619446,87.642228 16.758038,88.619499 19.384982,90.162239 C 19.321845,92.240718 18.343633,93.934179 16.416232,94.787239 C 14.741038,94.520338 12.675364,94.103049 10.978732,93.287239 C 10.510712,93.448438 10.122347,93.549939 9.6974816,93.630989 C 9.8079913,93.699408 9.9262766,93.755009 10.041232,93.818489 C 10.062539,94.016108 10.081727,94.214699 10.103732,94.412239 C 12.199235,97.043608 16.366978,99.549541 20.103732,101.03724 C 47.810341,102.36272 74.021555,91.056049 101.50998,89.130989 C 103.76407,88.967018 106.69509,88.099099 109.82248,87.849739 C 109.35074,89.083718 108.88397,90.332059 108.32248,91.505989 C 108.6403,91.917588 108.94158,92.303289 109.16623,92.630989 C 111.16697,91.825588 113.29961,91.300319 115.38498,91.130989 C 116.52744,92.868468 116.69117,94.825429 115.60373,96.630989 C 113.32841,97.741438 110.19286,99.076149 107.66623,98.537239 C 106.78598,97.857498 106.26526,96.749109 106.07248,95.662239 C 105.62189,95.656358 105.25062,95.520769 104.97873,95.287239 C 103.40625,97.314068 103.83769,100.0446 103.19748,102.50599 L 100.22873,105.84974 C 102.59135,105.66057 104.91812,105.44323 107.22873,104.91224 C 119.08923,102.56604 121.21656,94.495699 122.94748,84.599739 C 123.94433,76.098058 125.07092,67.735329 125.00998,59.162239 C 124.8088,51.099478 124.45602,42.164253 120.41623,35.005989 C 119.53257,32.959611 117.78109,31.281925 115.44748,30.849739 C 108.54316,31.024916 101.74439,32.742294 94.853732,33.255989 C 72.479932,34.936655 51.368542,43.955564 28.853732,44.880989 C 28.301042,44.926124 27.70447,44.939974 27.103732,44.943489 C 26.849222,39.300366 27.221507,33.62028 26.509982,28.005989 C 26.434389,26.507285 25.936393,25.07175 25.697482,23.599739 C 23.793161,22.614054 21.229168,22.29204 18.697482,22.349739 C 18.301596,22.323734 17.920021,22.292873 17.541232,22.287239 z M 22.072482,32.412239 C 23.69494,32.419092 24.517732,34.383695 25.041232,35.849739 C 22.946724,38.26992 19.939958,39.792109 16.822482,40.380989 C 15.348534,39.822504 15.285987,38.499745 15.322482,37.037239 C 16.518495,36.396395 17.594661,34.556007 20.822482,32.755989 C 21.289469,32.520068 21.698068,32.410657 22.072482,32.412239 z M 86.009982,36.099739 C 84.368403,36.383762 82.74041,36.688624 81.103732,37.005989 C 82.733256,36.690348 84.375699,36.3824 86.009982,36.099739 z M 109.16623,36.787239 C 110.22947,36.758042 111.23576,36.864206 112.13498,37.224739 C 113.23324,38.422586 113.41688,40.410308 113.04123,41.787239 C 109.99397,42.986498 106.52221,43.485575 103.29123,43.193489 C 102.46142,41.286794 102.63088,39.318676 104.00998,37.724739 C 105.52949,37.28309 107.39416,36.835897 109.16623,36.787239 z M 91.228732,38.974739 C 92.291972,38.945543 93.329522,39.082956 94.228732,39.443489 C 95.327004,40.641338 95.479392,42.597808 95.103732,43.974739 C 92.056472,45.173996 88.584712,45.704325 85.353732,45.412239 C 84.523922,43.505545 84.693382,41.537426 86.072482,39.943489 C 87.591992,39.501839 89.456672,39.023396 91.228732,38.974739 z M 69.259982,39.474739 C 65.81671,40.230096 62.390723,40.993991 58.947482,41.724739 C 57.379805,42.057442 55.798155,42.379797 54.228732,42.693489 C 52.658851,43.007272 51.082707,43.313688 49.509982,43.599739 C 51.08243,43.313962 52.65907,43.006924 54.228732,42.693489 C 55.798394,42.380054 57.379532,42.057143 58.947482,41.724739 C 62.391001,40.994715 65.816435,40.229279 69.259982,39.474739 z M 72.041232,42.755989 C 73.104472,42.726793 74.142022,42.832956 75.041232,43.193489 C 76.139501,44.391338 76.291892,46.379058 75.916232,47.755989 C 72.868972,48.955248 69.397212,49.485569 66.166232,49.193489 C 65.336432,47.286795 65.505882,45.318676 66.884982,43.724739 C 68.404492,43.283089 70.269172,42.804646 72.041232,42.755989 z M 42.884982,44.693489 C 41.946604,44.831642 41.012718,44.946913 40.072482,45.068489 C 41.014207,44.946761 41.945084,44.831815 42.884982,44.693489 z M 34.572482,45.693489 C 31.61993,45.956265 28.645974,46.133139 25.666232,46.162239 C 25.688167,46.155129 25.706967,46.138236 25.728732,46.130989 C 28.682148,46.099383 31.645241,45.954172 34.572482,45.693489 z M 53.791232,45.912239 C 54.854476,45.883043 55.892023,45.989206 56.791232,46.349739 C 57.889505,47.547588 58.073143,49.504063 57.697482,50.880989 C 54.650225,52.080248 51.147213,52.610569 47.916232,52.318489 C 47.086425,50.411788 47.255882,48.443681 48.634982,46.849739 C 50.154495,46.408089 52.019172,45.960896 53.791232,45.912239 z M 10.447482,47.849739 C 10.443726,48.765858 10.461302,49.681176 10.478732,50.599739 C 10.438519,50.818433 10.404617,51.009542 10.353732,51.255989 C 10.321678,49.997811 10.358245,48.904195 10.447482,47.849739 z M 35.259982,49.037239 C 36.323224,49.008048 37.329518,49.145459 38.228732,49.505989 C 39.327005,50.703834 39.510643,52.660309 39.134982,54.037239 C 36.087731,55.236498 32.615961,55.766819 29.384982,55.474739 C 28.555172,53.568048 28.724625,51.599929 30.103732,50.005989 C 31.62324,49.564338 33.487918,49.085899 35.259982,49.037239 z M 109.75998,78.318489 C 110.58829,78.291658 111.38974,78.307969 112.19748,78.380989 C 113.02729,80.287678 112.85783,82.255799 111.47873,83.849739 C 109.04751,84.556378 105.75164,85.311159 103.35373,84.349739 C 102.25547,83.151888 102.07183,81.195419 102.44748,79.818489 C 104.73292,78.919038 107.27505,78.398969 109.75998,78.318489 z M 91.822482,80.193489 C 92.650792,80.166658 93.483492,80.182969 94.291232,80.255989 C 95.121044,82.162678 94.951592,84.130799 93.572482,85.724739 C 91.141272,86.431368 87.814142,87.186159 85.416232,86.224739 C 84.317972,85.026888 84.134332,83.070419 84.509982,81.693489 C 86.795432,80.794038 89.337551,80.273969 91.822482,80.193489 z M 71.697482,83.662239 C 72.525792,83.635408 73.358492,83.651719 74.166232,83.724739 C 74.996052,85.631428 74.826592,87.599549 73.447482,89.193489 C 71.016272,89.900128 67.689143,90.654909 65.291232,89.693489 C 64.192975,88.495638 64.009333,86.539169 64.384982,85.162239 C 66.670436,84.262788 69.212551,83.742719 71.697482,83.662239 z M 53.759982,87.099739 C 54.588295,87.072908 55.420992,87.120469 56.228732,87.193489 C 57.058545,89.100188 56.889092,91.068309 55.509982,92.662239 C 53.078776,93.368878 49.751643,94.123659 47.353732,93.162239 C 46.255475,91.964378 46.103082,89.976679 46.478732,88.599739 C 48.764185,87.700288 51.275052,87.180219 53.759982,87.099739 z M 34.259982,90.255989 C 35.088295,90.229158 35.920988,90.245469 36.728732,90.318489 C 37.558544,92.225178 37.389091,94.193299 36.009982,95.787239 C 33.57877,96.493868 30.25164,97.248659 27.853732,96.287239 C 26.755467,95.089388 26.603079,93.132919 26.978732,91.755989 C 29.264177,90.856548 31.775051,90.336469 34.259982,90.255989 z "
       id="path2539" />
    <g
       id="g2524"
       transform="translate(-2.5159705,-13.837838)">
      <path
         sodipodi:nodetypes="cccccccscc"
         id="path2386"
         d="M 25.9375,38.28125 C 26.603908,41.210752 26.889561,44.446615 27,47.75 C 26.64972,46.407924 25.574153,45.199396 24.46875,44.5 C 21.122094,43.843445 17.318675,46.746037 15.25,48.875 C 14.561126,51.207316 15.364935,53.333119 17.28125,54.5625 C 21.049448,54.596973 25.141338,51.659114 27.03125,49.1875 C 27.090489,52.175783 25.599531,67.92311 25.59404,70.854573 C 23.017984,70.682286 15.365327,70.806758 12.717515,68.748164 C 11.041455,67.445078 13.311137,57.018941 12.339659,55.794104 C 9.4422738,48.438097 21.977934,42.468325 25.9375,38.28125 z "
         style="fill:#333333;fill-opacity:1;stroke:none;stroke-width:1;stroke-miterlimit:4;stroke-dasharray:none;stroke-opacity:1" />
      <path
         id="path2382"
         d="M 113.25,45.90625 C 109.65185,45.993603 106.05072,46.75938 102.46875,47.03125 C 74.98033,48.956308 48.769111,60.262983 21.0625,58.9375 C 18.366867,57.960278 13.583757,55.867426 11.875,53.09375 C 11.311165,57.014863 11.336317,60.965893 11.4375,64.9375 C 11.404922,63.113309 12.346126,61.504309 14.15625,60.53125 C 17.124603,60.503335 21.861867,61.128658 23.75,63.96875 C 24.12694,65.684007 23.839308,67.993146 22.28125,69.09375 C 19.198402,69.502602 14.200999,68.682753 11.5625,65.96875 C 11.505313,65.700497 11.45372,65.418507 11.4375,65.15625 C 11.481808,66.845054 11.52887,68.528219 11.5625,70.21875 C 14.264433,71.335868 16.135398,74.01463 16.125,77.125 L 16.09375,90.03125 C 16.083036,93.234709 14.058795,95.940924 11.21875,96.96875 C 11.238806,97.818161 11.271194,98.653439 11.3125,99.5 C 14.39664,99.43058 18.649464,100.44259 20.96875,102.9375 C 21.393551,105.17428 20.385995,107.20919 18.21875,108.3125 C 16.750504,108.29348 14.853084,108.1006 13.09375,107.5625 C 17.709135,111.34051 22.974611,113.72606 29.8125,112.78125 C 52.327306,111.85583 73.4387,102.83692 95.8125,101.15625 C 101.62738,100.72275 105.30945,100.19642 110.96875,99.75 C 110.98321,99.732478 110.98545,99.704967 111,99.6875 C 110.53966,99.662735 110.74554,99.569947 111.03125,99.65625 C 111.76451,98.825069 112.46052,97.961558 113.125,97.09375 C 110.39261,98.275578 106.10024,99.437191 103.34375,97.6875 C 102.30228,96.27344 101.61742,94.045048 102.59375,92.40625 C 105.2444,90.77986 110.17377,89.498712 113.6875,90.90625 C 114.67734,92.268019 114.91825,93.88866 114.375,95.40625 C 115.64008,93.602861 116.79294,91.714594 117.875,89.75 C 118.84724,88.466133 120.16155,86.787334 120.28125,85.125 C 119.53059,85.529123 118.70646,85.816972 117.8125,85.9375 L 99.4375,88.40625 C 95.372843,88.954274 91.641775,86.127154 91.09375,82.0625 L 89.375,69.28125 C 88.826976,65.216593 91.654091,61.485523 95.71875,60.9375 L 114.125,58.46875 C 114.28356,58.447372 114.43642,58.448714 114.59375,58.4375 C 114.59639,58.512428 114.63299,58.596371 114.65625,58.6875 C 118.36001,55.089141 121.49867,47.995129 116.84375,46.09375 C 115.64455,45.931332 114.44938,45.877132 113.25,45.90625 z M 110.3125,48.78125 C 111.68068,48.749681 112.98274,49.002117 114.0625,49.6875 C 115.10397,51.101551 115.78883,53.329954 114.8125,54.96875 C 112.16185,56.595143 107.23248,57.876291 103.71875,56.46875 C 102.3801,54.627101 102.41701,52.360107 103.90625,50.4375 C 105.59427,49.667624 108.0322,48.833865 110.3125,48.78125 z M 92.375,51 C 93.743177,50.968431 95.045238,51.220866 96.125,51.90625 C 97.166466,53.320301 97.851328,55.548702 96.875,57.1875 C 94.224347,58.813893 89.326233,60.063793 85.8125,58.65625 C 84.473854,56.814601 84.479516,54.547605 85.96875,52.625 C 87.656778,51.855124 90.094705,51.052615 92.375,51 z M 73.1875,54.78125 C 74.555677,54.749681 75.88899,54.970868 76.96875,55.65625 C 78.010216,57.070301 78.663825,59.298706 77.6875,60.9375 C 75.036847,62.563893 70.138731,63.845043 66.625,62.4375 C 65.286354,60.595851 65.323264,58.328855 66.8125,56.40625 C 68.500528,55.636374 70.907205,54.833864 73.1875,54.78125 z M 54.9375,57.90625 C 56.305677,57.874681 57.638989,58.127116 58.71875,58.8125 C 59.760216,60.226551 60.445081,62.454957 59.46875,64.09375 C 56.818097,65.720143 51.888732,67.00129 48.375,65.59375 C 47.036354,63.752101 47.073262,61.485105 48.5625,59.5625 C 50.250528,58.792624 52.657205,57.958865 54.9375,57.90625 z M 36.40625,61.0625 C 37.774427,61.030931 39.076489,61.283367 40.15625,61.96875 C 41.197716,63.382801 41.88258,65.611203 40.90625,67.25 C 38.255597,68.876393 33.326232,70.126294 29.8125,68.71875 C 28.473854,66.877101 28.510763,64.610106 30,62.6875 C 31.688028,61.917624 34.125955,61.115115 36.40625,61.0625 z M 92.53125,92.1875 C 93.657552,92.216281 94.761763,92.416629 95.75,92.8125 C 97.088646,94.654149 97.051737,96.921142 95.5625,98.84375 C 92.861655,100.07556 88.285611,101.39018 85.40625,99.5625 C 84.364784,98.148444 83.711168,95.920048 84.6875,94.28125 C 86.344158,93.264754 88.876519,92.390618 91.40625,92.21875 C 91.78571,92.19297 92.155816,92.177906 92.53125,92.1875 z M 71.65625,95.65625 C 72.034761,95.640902 72.407754,95.636261 72.78125,95.65625 C 73.777239,95.709554 74.746567,95.898115 75.625,96.25 C 76.963646,98.091649 76.926734,100.38989 75.4375,102.3125 C 72.736655,103.5443 68.160609,104.85893 65.28125,103.03125 C 64.239784,101.61719 63.586173,99.388793 64.5625,97.75 C 66.301991,96.682679 69.006675,95.763687 71.65625,95.65625 z M 53.71875,99.125 C 54.097261,99.109652 54.470254,99.105011 54.84375,99.125 C 55.839739,99.178304 56.809067,99.366864 57.6875,99.71875 C 59.026146,101.5604 59.020488,103.8274 57.53125,105.75 C 54.830405,106.9818 50.254362,108.32769 47.375,106.5 C 46.333534,105.08595 45.648673,102.85754 46.625,101.21875 C 48.364491,100.15143 51.069175,99.232438 53.71875,99.125 z M 34.96875,102.25 C 36.095052,102.27878 37.199263,102.47913 38.1875,102.875 C 39.526146,104.71665 39.520487,106.98365 38.03125,108.90625 C 35.330405,110.13806 30.754362,111.45269 27.875,109.625 C 26.833534,108.21095 26.148671,105.98255 27.125,104.34375 C 28.781658,103.32726 31.314019,102.45312 33.84375,102.28125 C 34.22321,102.25547 34.593316,102.24041 34.96875,102.25 z "
         style="fill:#666666;fill-opacity:1;stroke:none;stroke-width:1;stroke-miterlimit:4;stroke-dasharray:none;stroke-opacity:1" />
      <path
         id="path2388"
         d="M 19.65625,36.09375 C 21.231389,36.08171 24.073348,36.481601 25.15625,37.3125 C 20.349252,41.740422 13.41506,46.594214 10.75,50.59375 C 9.281915,59.146342 9.9601508,67.903229 10.125,76.53125 C 9.8619445,74.832193 8.2287341,68.587719 7.75,66.9375 C 7.1536843,65.108538 7.2738606,63.195005 7.46875,61.3125 C 7.7640549,59.465767 8.6925827,57.121961 8.25,55.34375 C 7.7638931,52.581112 8.2055045,50.040525 8.40625,47.375 C 10.870307,47.318041 13.334595,46.606377 15,45.71875 C 16.07389,44.142163 15.54757,41.880841 14.59375,40.40625 C 12.297124,38.744908 8.7088398,39.189722 5.96875,40 C 5.5631697,39.440664 5.185699,38.903969 4.9375,38.375 C 9.3721359,37.424015 15.11899,36.429711 19.65625,36.09375 z "
         style="fill:#666666;fill-opacity:1;stroke:none;stroke-width:1;stroke-miterlimit:4;stroke-dasharray:none;stroke-opacity:1" />
      <path
         id="path2380"
         d="M 120.59375,48.65625 C 125.80952,63.930464 125.05792,80.085138 123.21875,95.78125 C 122.61321,108.19531 116.33395,115.63743 103.65625,117.53125 C 104.52789,116.4446 105.03817,114.71926 105.5,113.65625 C 105.63043,112.25383 105.82146,110.98466 106.28125,109.875 C 106.62363,110.69588 107.16211,111.46708 107.75,112.03125 C 110.89861,113.34175 115.17346,111.23636 117.625,109.5625 C 118.76498,107.41431 118.41404,105.18046 116.78125,103.59375 C 114.72614,103.15608 112.38624,103.59978 110.3125,104.4375 C 110.71121,103.13468 110.89692,101.71259 111.53125,100.59375 C 113.20164,97.956933 115.06041,96.284188 116.40625,93.40625 C 117.49529,90.546454 120.96911,88.08194 121.3125,84.9375 C 121.12062,82.852298 120.15428,80.824667 120.59375,78.6875 C 120.95634,76.467584 119.6411,74.349927 120.125,72.15625 C 120.70456,70.662848 120.59324,69.121919 120.125,67.65625 C 120.23746,67.582704 120.36287,67.509791 120.46875,67.4375 C 121.60873,65.289308 121.22654,63.02421 119.59375,61.4375 C 118.45633,61.195266 117.24947,61.252135 116.03125,61.46875 C 115.66686,60.927188 115.32443,60.381322 115,59.8125 C 119.32851,56.455407 120.15314,53.632582 120.59375,48.65625 z "
         style="fill:#666666;fill-opacity:1;stroke:none;stroke-width:1;stroke-miterlimit:4;stroke-dasharray:none;stroke-opacity:1" />
      <path
         id="path2362"
         d="M 113.625,59.5625 C 113.46794,59.683799 113.31241,59.800623 113.15625,59.90625 C 114.31179,60.915521 114.21129,60.855504 114.65625,61.78125 C 114.63432,61.787559 114.61566,61.806088 114.59375,61.8125 C 115.05068,61.864155 115.50211,61.922403 115.9375,62.03125 C 116.22829,62.103946 116.51348,62.175439 116.78125,62.25 C 117.57299,62.085523 118.3681,61.938995 119.15625,61.875 C 120.14224,63.374515 120.42688,65.065651 119.78125,66.65625 C 119.71941,66.516368 119.63047,66.386999 119.5625,66.25 C 119.43342,66.57676 119.29616,66.909112 119.21875,67.21875 C 119.08022,67.772864 118.87615,68.311314 118.625,68.84375 C 118.90827,69.839812 119.00648,70.864464 118.75,71.9375 C 117.90619,73.914688 119.953,75.910814 120.15625,77.90625 C 120.1273,79.927177 119.45848,81.852762 120.125,83.8125 C 120.15465,83.886504 120.16459,83.956784 120.1875,84.03125 C 119.44475,84.482598 118.61252,84.812783 117.6875,84.9375 L 99.28125,87.4375 C 95.748488,87.913813 92.570061,85.470266 92.09375,81.9375 L 90.375,69.125 C 89.898686,65.592234 92.310984,62.413811 95.84375,61.9375 L 113.625,59.5625 z "
         style="fill:#b3b3b3;fill-opacity:1;stroke:none;stroke-width:1;stroke-miterlimit:4;stroke-dasharray:none;stroke-opacity:1" />
      <path
         style="fill:url(#linearGradient3614);fill-opacity:1;stroke:none;stroke-width:1;stroke-miterlimit:4;stroke-dasharray:none;stroke-opacity:1"
         d="M 113.25,45.90625 C 109.65185,45.993603 106.05072,46.75938 102.46875,47.03125 C 74.98033,48.956308 48.769111,60.262983 21.0625,58.9375 C 18.366867,57.960278 13.583757,55.867426 11.875,53.09375 C 11.311165,57.014863 11.336317,60.965893 11.4375,64.9375 C 11.404922,63.113309 12.346126,61.504309 14.15625,60.53125 C 17.124603,60.503335 21.861867,61.128658 23.75,63.96875 C 24.12694,65.684007 23.839308,67.993146 22.28125,69.09375 C 19.198402,69.502602 14.200999,68.682753 11.5625,65.96875 C 11.505313,65.700497 11.45372,65.418507 11.4375,65.15625 C 11.481808,66.845054 11.52887,68.528219 11.5625,70.21875 C 14.264433,71.335868 16.135398,74.01463 16.125,77.125 L 16.09375,90.03125 C 16.083036,93.234709 14.058795,95.940924 11.21875,96.96875 C 11.238806,97.818161 11.271194,98.653439 11.3125,99.5 C 14.39664,99.43058 18.649464,100.44259 20.96875,102.9375 C 21.393551,105.17428 20.385995,107.20919 18.21875,108.3125 C 16.750504,108.29348 14.853084,108.1006 13.09375,107.5625 C 17.709135,111.34051 22.974611,113.72606 29.8125,112.78125 C 52.327306,111.85583 73.4387,102.83692 95.8125,101.15625 C 101.62738,100.72275 105.30945,100.19642 110.96875,99.75 C 110.98321,99.732478 110.98545,99.704967 111,99.6875 C 110.53966,99.662735 110.74554,99.569947 111.03125,99.65625 C 111.76451,98.825069 112.46052,97.961558 113.125,97.09375 C 110.39261,98.275578 106.10024,99.437191 103.34375,97.6875 C 102.30228,96.27344 101.61742,94.045048 102.59375,92.40625 C 105.2444,90.77986 110.17377,89.498712 113.6875,90.90625 C 114.67734,92.268019 114.91825,93.88866 114.375,95.40625 C 115.64008,93.602861 116.79294,91.714594 117.875,89.75 C 118.84724,88.466133 120.16155,86.787334 120.28125,85.125 C 119.53059,85.529123 118.70646,85.816972 117.8125,85.9375 L 99.4375,88.40625 C 95.372843,88.954274 91.641775,86.127154 91.09375,82.0625 L 89.375,69.28125 C 88.826976,65.216593 91.654091,61.485523 95.71875,60.9375 L 114.125,58.46875 C 114.28356,58.447372 114.43642,58.448714 114.59375,58.4375 C 114.59639,58.512428 114.63299,58.596371 114.65625,58.6875 C 118.36001,55.089141 121.49867,47.995129 116.84375,46.09375 C 115.64455,45.931332 114.44938,45.877132 113.25,45.90625 z M 110.3125,48.78125 C 111.68068,48.749681 112.98274,49.002117 114.0625,49.6875 C 115.10397,51.101551 115.78883,53.329954 114.8125,54.96875 C 112.16185,56.595143 107.23248,57.876291 103.71875,56.46875 C 102.3801,54.627101 102.41701,52.360107 103.90625,50.4375 C 105.59427,49.667624 108.0322,48.833865 110.3125,48.78125 z M 92.375,51 C 93.743177,50.968431 95.045238,51.220866 96.125,51.90625 C 97.166466,53.320301 97.851328,55.548702 96.875,57.1875 C 94.224347,58.813893 89.326233,60.063793 85.8125,58.65625 C 84.473854,56.814601 84.479516,54.547605 85.96875,52.625 C 87.656778,51.855124 90.094705,51.052615 92.375,51 z M 73.1875,54.78125 C 74.555677,54.749681 75.88899,54.970868 76.96875,55.65625 C 78.010216,57.070301 78.663825,59.298706 77.6875,60.9375 C 75.036847,62.563893 70.138731,63.845043 66.625,62.4375 C 65.286354,60.595851 65.323264,58.328855 66.8125,56.40625 C 68.500528,55.636374 70.907205,54.833864 73.1875,54.78125 z M 54.9375,57.90625 C 56.305677,57.874681 57.638989,58.127116 58.71875,58.8125 C 59.760216,60.226551 60.445081,62.454957 59.46875,64.09375 C 56.818097,65.720143 51.888732,67.00129 48.375,65.59375 C 47.036354,63.752101 47.073262,61.485105 48.5625,59.5625 C 50.250528,58.792624 52.657205,57.958865 54.9375,57.90625 z M 36.40625,61.0625 C 37.774427,61.030931 39.076489,61.283367 40.15625,61.96875 C 41.197716,63.382801 41.88258,65.611203 40.90625,67.25 C 38.255597,68.876393 33.326232,70.126294 29.8125,68.71875 C 28.473854,66.877101 28.510763,64.610106 30,62.6875 C 31.688028,61.917624 34.125955,61.115115 36.40625,61.0625 z M 92.53125,92.1875 C 93.657552,92.216281 94.761763,92.416629 95.75,92.8125 C 97.088646,94.654149 97.051737,96.921142 95.5625,98.84375 C 92.861655,100.07556 88.285611,101.39018 85.40625,99.5625 C 84.364784,98.148444 83.711168,95.920048 84.6875,94.28125 C 86.344158,93.264754 88.876519,92.390618 91.40625,92.21875 C 91.78571,92.19297 92.155816,92.177906 92.53125,92.1875 z M 71.65625,95.65625 C 72.034761,95.640902 72.407754,95.636261 72.78125,95.65625 C 73.777239,95.709554 74.746567,95.898115 75.625,96.25 C 76.963646,98.091649 76.926734,100.38989 75.4375,102.3125 C 72.736655,103.5443 68.160609,104.85893 65.28125,103.03125 C 64.239784,101.61719 63.586173,99.388793 64.5625,97.75 C 66.301991,96.682679 69.006675,95.763687 71.65625,95.65625 z M 53.71875,99.125 C 54.097261,99.109652 54.470254,99.105011 54.84375,99.125 C 55.839739,99.178304 56.809067,99.366864 57.6875,99.71875 C 59.026146,101.5604 59.020488,103.8274 57.53125,105.75 C 54.830405,106.9818 50.254362,108.32769 47.375,106.5 C 46.333534,105.08595 45.648673,102.85754 46.625,101.21875 C 48.364491,100.15143 51.069175,99.232438 53.71875,99.125 z M 34.96875,102.25 C 36.095052,102.27878 37.199263,102.47913 38.1875,102.875 C 39.526146,104.71665 39.520487,106.98365 38.03125,108.90625 C 35.330405,110.13806 30.754362,111.45269 27.875,109.625 C 26.833534,108.21095 26.148671,105.98255 27.125,104.34375 C 28.781658,103.32726 31.314019,102.45312 33.84375,102.28125 C 34.22321,102.25547 34.593316,102.24041 34.96875,102.25 z "
         id="path3612" />
      <path
         id="path2354"
         d="M 78.6875,64.65625 C 78.436835,64.664381 78.191541,64.684499 77.9375,64.71875 L 59.53125,67.21875 C 55.466594,67.766773 52.639476,71.497842 53.1875,75.5625 L 54.9375,88.375 C 55.485526,92.439655 59.185345,95.266774 63.25,94.71875 L 81.65625,92.21875 C 85.720907,91.670722 88.54802,87.970908 88,83.90625 L 86.28125,71.125 C 85.767475,67.314382 82.447473,64.534288 78.6875,64.65625 z "
         style="fill:#000000;fill-opacity:1;stroke:none;stroke-width:1;stroke-miterlimit:4;stroke-dasharray:none;stroke-opacity:1" />
      <path
         id="path2352"
         d="M 78.71875,65.65625 C 81.982953,65.547791 84.834708,67.938031 85.28125,71.25 L 87,84.03125 C 87.476308,87.56402 85.064016,90.773689 81.53125,91.25 L 63.125,93.71875 C 59.592237,94.19506 56.382562,91.751517 55.90625,88.21875 L 54.1875,75.4375 C 53.711187,71.904735 56.154734,68.663811 59.6875,68.1875 L 78.0625,65.71875 C 78.283298,65.688981 78.501136,65.663481 78.71875,65.65625 z "
         style="fill:#b3b3b3;fill-opacity:1;stroke:none;stroke-width:1;stroke-miterlimit:4;stroke-dasharray:none;stroke-opacity:1" />
      <path
         id="path2350"
         d="M 43.1875,69.71875 C 42.936835,69.726881 42.660291,69.746999 42.40625,69.78125 C 35.740278,70.912341 30.76047,74.093641 23.65625,71.71875 C 19.591595,72.266776 18.014475,76.372843 18.5625,80.4375 L 19.375,93.375 C 19.923024,97.439658 20.591595,100.82927 24.65625,100.28125 C 31.566133,100.57902 39.662633,98.773545 46.125,97.28125 C 50.189658,96.733225 53.016772,92.970906 52.46875,88.90625 L 50.75,76.15625 C 50.236226,72.345636 46.947476,69.596789 43.1875,69.71875 z "
         style="fill:#000000;fill-opacity:1;stroke:none;stroke-width:1;stroke-miterlimit:4;stroke-dasharray:none;stroke-opacity:1" />
      <path
         id="path2348"
         d="M 43.21875,70.71875 C 46.482955,70.610287 49.303458,72.969283 49.75,76.28125 L 51.5,89.03125 C 51.976309,92.564018 49.532765,95.804939 46,96.28125 C 40.010332,98.115234 32.248556,100.2463 24.875,99.3125 C 21.342234,99.788812 20.851311,96.782765 20.375,93.25 L 19.71875,79.9375 C 19.242439,76.404734 20.810985,73.726311 24.34375,73.25 C 31.331177,74.605393 36.01101,72.010221 42.5625,70.75 C 42.783298,70.72023 43.001136,70.725981 43.21875,70.71875 z "
         style="fill:#b3b3b3;fill-opacity:1;stroke:none;stroke-width:1;stroke-miterlimit:4;stroke-dasharray:none;stroke-opacity:1" />
      <path
         id="path2346"
         d="M 11.59375,71.34375 C 13.705534,72.400171 15.133485,74.587296 15.125,77.125 L 15.09375,90.03125 C 15.084859,92.689613 13.503527,94.938207 11.21875,95.90625 C 11.125699,89.55281 11.500622,83.13059 11.5,76.84375 C 11.599771,75.021844 11.616854,73.179899 11.59375,71.34375 z "
         style="fill:#b3b3b3;fill-opacity:1;stroke:none;stroke-width:1;stroke-miterlimit:4;stroke-dasharray:none;stroke-opacity:1" />
      <path
         sodipodi:nodetypes="csccscsccccccccccccccccccccccccccccccccccccccccccccccccccccccccccccccccccccccccccccccccccccccccsccccccccccccccccccccccccccccccccccccccccccccccccccccccccccccccccccccccccccccccccccccccccccccccccssccccscccsccccccccccccccccccccccccccccccccccccsccccccccccccccccsccccccccccccsccccccccsccccccccccc"
         id="path2449"
         d="M 18.5,35.1875 C 18.121211,35.181863 17.745207,35.201465 17.375,35.21875 C 12.192095,35.460736 8.156055,37.570474 3.75,37.59375 C 3.5083541,38.00132 4.037209,38.91537 4.625,39.84375 C 5.1627462,39.988234 5.721148,40.141225 6.15625,40.25 C 6.3959362,40.309918 6.646998,40.388931 6.875,40.5 C 7.7497062,40.335617 8.666583,40.201135 9.59375,40.15625 C 11.034527,40.086499 12.457396,40.228734 13.625,40.78125 C 14.648623,42.043478 14.677192,44.023375 14.21875,45.375 C 12.389134,45.969703 10.428833,46.314921 8.46875,46.40625 C 8.2417378,45.526112 8.462205,45.706071 7.8125,46.5625 C 7.5635852,47.060326 7.208792,47.54446 6.78125,48 C 6.7599402,48.134937 6.742051,48.271147 6.71875,48.40625 C 6.3404852,51.370013 6.412925,53.338521 7.28125,56.3125 C 7.8942172,58.120495 6.756312,61.069286 6.5625,62.9375 C 6.2520542,65.10762 6.844639,67.23561 7.5,69.28125 C 8.2027442,71.07514 9.086734,75.21241 9.90625,77.96875 C 9.7912558,84.96152 9.889026,91.98059 10.34375,98.96875 C 10.711543,99.42174 11.073795,99.85046 11.5,100.25 C 14.578214,100.54249 17.716806,101.51976 20.34375,103.0625 C 20.280614,105.14098 19.302402,106.83444 17.375,107.6875 C 15.699807,107.4206 13.634131,107.00331 11.9375,106.1875 C 11.469481,106.3487 11.081115,106.4502 10.65625,106.53125 C 10.76676,106.59967 10.885045,106.65527 11,106.71875 C 11.021308,106.91637 11.040495,107.11496 11.0625,107.3125 C 13.158003,109.94387 17.325745,112.4498 21.0625,113.9375 C 48.76911,115.26298 74.980323,103.95631 102.46875,102.03125 C 104.72284,101.86728 107.65386,100.99936 110.78125,100.75 C 110.30951,101.98398 109.84274,103.23232 109.28125,104.40625 C 109.59907,104.81785 109.90035,105.20355 110.125,105.53125 C 112.12574,104.72585 114.25838,104.20058 116.34375,104.03125 C 117.48621,105.76873 117.64994,107.72569 116.5625,109.53125 C 114.28718,110.6417 111.15163,111.97641 108.625,111.4375 C 107.74475,110.75776 107.22403,109.64937 107.03125,108.5625 C 106.58066,108.55662 106.20939,108.42103 105.9375,108.1875 C 104.36502,110.21433 104.79646,112.94486 104.15625,115.40625 L 101.1875,118.75 C 103.55012,118.56083 105.87689,118.34349 108.1875,117.8125 C 120.048,115.4663 122.17533,107.39596 123.90625,97.5 C 124.9031,88.99832 126.02969,80.63559 125.96875,72.0625 C 125.76757,63.99974 125.41479,55.064514 121.375,47.90625 C 120.49134,45.859873 118.73986,44.182186 116.40625,43.75 C 109.50193,43.925178 102.70316,45.642555 95.8125,46.15625 C 73.438702,47.836917 52.32731,56.855825 29.8125,57.78125 C 29.259811,57.826386 28.663238,57.840235 28.0625,57.84375 C 27.807991,52.200628 28.180274,46.520541 27.46875,40.90625 C 27.393158,39.407547 26.89516,37.972011 26.65625,36.5 C 24.751929,35.514316 22.187935,35.192301 19.65625,35.25 C 19.260365,35.223996 18.878789,35.193134 18.5,35.1875 z M 19.65625,36.09375 C 21.231389,36.081707 24.073348,36.481601 25.15625,37.3125 C 20.349252,41.740419 13.41506,46.594214 10.75,50.59375 C 9.2819148,59.146341 9.960151,67.90323 10.125,76.53125 C 9.8619438,74.83219 8.228734,68.58772 7.75,66.9375 C 7.1536842,65.10854 7.27386,63.194996 7.46875,61.3125 C 7.7640552,59.465766 8.692583,57.121961 8.25,55.34375 C 7.7638928,52.581111 8.205504,50.040525 8.40625,47.375 C 10.870307,47.31804 13.334595,46.606377 15,45.71875 C 16.07389,44.14216 15.54757,41.880841 14.59375,40.40625 C 12.297124,38.744905 8.70884,39.189722 5.96875,40 C 5.5631702,39.440661 5.185699,38.903969 4.9375,38.375 C 9.3721362,37.424012 15.11899,36.429711 19.65625,36.09375 z M 25.9375,38.28125 C 26.603908,41.210749 26.889561,44.446615 27,47.75 C 26.64972,46.407923 25.574153,45.199396 24.46875,44.5 C 21.122094,43.843442 17.318675,46.746037 15.25,48.875 C 14.561126,51.207315 15.364935,53.333119 17.28125,54.5625 C 21.049448,54.596972 25.141338,51.659114 27.03125,49.1875 C 27.056719,50.4723 26.77673,54.212645 26.46875,58.1875 C 20.885483,58.664659 15.711389,56.021343 12.34375,51.4375 C 14.270823,46.058669 22.790916,41.608631 25.9375,38.28125 z M 23.03125,45.3125 C 24.653709,45.319354 25.476499,47.283956 26,48.75 C 23.905493,51.170182 20.898727,52.69237 17.78125,53.28125 C 16.307302,52.722766 16.244756,51.400006 16.28125,49.9375 C 17.477263,49.296657 18.553428,47.456268 21.78125,45.65625 C 22.248238,45.42033 22.656836,45.310918 23.03125,45.3125 z M 113.25,45.90625 C 114.44938,45.87713 115.64455,45.931331 116.84375,46.09375 C 121.49867,47.995127 118.36001,55.089142 114.65625,58.6875 C 114.63299,58.596369 114.59639,58.512429 114.59375,58.4375 C 114.43642,58.448712 114.28356,58.447373 114.125,58.46875 L 95.71875,60.9375 C 91.654092,61.48552 88.82698,65.21659 89.375,69.28125 L 91.09375,82.0625 C 91.641782,86.12715 95.372848,88.95427 99.4375,88.40625 L 117.8125,85.9375 C 118.70646,85.81697 119.53059,85.52912 120.28125,85.125 C 120.16155,86.78733 118.84724,88.46613 117.875,89.75 C 116.79294,91.71459 115.64008,93.60286 114.375,95.40625 C 114.91825,93.88866 114.67734,92.26802 113.6875,90.90625 C 110.17377,89.49871 105.2444,90.77986 102.59375,92.40625 C 101.61742,94.04505 102.30228,96.27344 103.34375,97.6875 C 106.10024,99.43719 110.39261,98.27558 113.125,97.09375 C 112.46052,97.96156 111.76451,98.82507 111.03125,99.65625 C 110.74554,99.56995 110.53966,99.66273 111,99.6875 C 110.98545,99.70497 110.98321,99.73248 110.96875,99.75 C 105.30945,100.19642 101.62739,100.72275 95.8125,101.15625 C 73.438702,102.83692 52.32731,111.85583 29.8125,112.78125 C 22.974611,113.72606 17.709135,111.34051 13.09375,107.5625 C 14.853084,108.1006 16.750504,108.29348 18.21875,108.3125 C 20.385995,107.20919 21.393551,105.17428 20.96875,102.9375 C 18.649464,100.44259 14.39664,99.43058 11.3125,99.5 C 11.271194,98.65344 11.238806,97.81816 11.21875,96.96875 C 14.058795,95.94092 16.083036,93.23471 16.09375,90.03125 L 16.125,77.125 C 16.135398,74.01463 14.264433,71.33587 11.5625,70.21875 C 11.52887,68.52822 11.481808,66.84505 11.4375,65.15625 C 11.45372,65.41851 11.505313,65.7005 11.5625,65.96875 C 11.84553,66.55547 12.093133,67.142303 12.46875,67.71875 C 14.800935,68.942876 17.355749,69.466355 19.90625,70 C 21.034401,70.256654 22.120674,69.805537 23.125,69.34375 C 24.642368,69.011849 24.789542,67.40718 24.625,66.125 C 24.416798,64.909369 24.702529,63.456154 23.75,62.5 C 20.888303,60.698887 16.65705,60.139081 13.315749,60.1875 C 11.612295,61.168758 11.687414,62.195505 11.2819,64.159499 C 11.183134,60.282761 11.787364,57.826243 12.310551,53.997401 C 15.891002,57.897212 20.632166,59.953455 25.96875,59.1875 C 26.219433,59.179185 26.458131,59.10762 26.6875,59.03125 C 52.327448,58.756867 76.854272,48.825072 102.46875,47.03125 C 106.05072,46.759378 109.65185,45.993602 113.25,45.90625 z M 120.59375,48.65625 C 125.80952,63.930456 125.05792,80.08514 123.21875,95.78125 C 122.61321,108.19531 116.33395,115.63743 103.65625,117.53125 C 104.52789,116.4446 105.03817,114.71926 105.5,113.65625 C 105.63043,112.25383 105.82146,110.98466 106.28125,109.875 C 106.62363,110.69588 107.16211,111.46708 107.75,112.03125 C 110.89861,113.34175 115.17346,111.23636 117.625,109.5625 C 118.76498,107.41431 118.41404,105.18046 116.78125,103.59375 C 114.72614,103.15608 112.38624,103.59978 110.3125,104.4375 C 110.71121,103.13468 110.89692,101.71259 111.53125,100.59375 C 113.20164,97.95693 115.06041,96.28419 116.40625,93.40625 C 117.49529,90.54645 120.96911,88.08194 121.3125,84.9375 C 121.12062,82.8523 120.15428,80.82467 120.59375,78.6875 C 120.95634,76.46758 119.6411,74.34993 120.125,72.15625 C 120.70456,70.66285 120.59324,69.12192 120.125,67.65625 C 120.23746,67.5827 120.36287,67.50979 120.46875,67.4375 C 121.60873,65.28931 121.22654,63.024206 119.59375,61.4375 C 118.45633,61.19527 117.24947,61.25213 116.03125,61.46875 C 115.66686,60.927187 115.32443,60.381322 115,59.8125 C 119.32851,56.455406 120.15314,53.632582 120.59375,48.65625 z M 110.3125,48.78125 C 108.0322,48.833863 105.59427,49.667625 103.90625,50.4375 C 102.41701,52.360105 102.3801,54.627102 103.71875,56.46875 C 107.23248,57.876289 112.16185,56.595144 114.8125,54.96875 C 115.78883,53.329952 115.10397,51.101552 114.0625,49.6875 C 112.98274,49.002115 111.68068,48.749682 110.3125,48.78125 z M 110.125,49.6875 C 111.18824,49.658304 112.19453,49.764467 113.09375,50.125 C 114.19201,51.322848 114.37565,53.310569 114,54.6875 C 110.95274,55.88676 107.48098,56.385836 104.25,56.09375 C 103.42019,54.187056 103.58965,52.218937 104.96875,50.625 C 106.48826,50.183352 108.35293,49.736158 110.125,49.6875 z M 92.375,51 C 90.094712,51.052613 87.65678,51.855125 85.96875,52.625 C 84.479522,54.547603 84.47386,56.814602 85.8125,58.65625 C 89.326242,60.063791 94.22435,58.813894 96.875,57.1875 C 97.851334,55.5487 97.16647,53.320302 96.125,51.90625 C 95.045244,51.220864 93.743182,50.968432 92.375,51 z M 92.1875,51.875 C 93.250742,51.845805 94.28829,51.983217 95.1875,52.34375 C 96.285774,53.5416 96.43816,55.498069 96.0625,56.875 C 93.015242,58.074258 89.54348,58.604586 86.3125,58.3125 C 85.482692,56.405807 85.65215,54.437687 87.03125,52.84375 C 88.550762,52.402101 90.41544,51.923657 92.1875,51.875 z M 73.1875,54.78125 C 70.907212,54.833862 68.50053,55.636375 66.8125,56.40625 C 65.323272,58.328853 65.28636,60.59585 66.625,62.4375 C 70.138732,63.845036 75.03685,62.563888 77.6875,60.9375 C 78.663832,59.298704 78.01022,57.070302 76.96875,55.65625 C 75.888992,54.970866 74.55568,54.749682 73.1875,54.78125 z M 73,55.65625 C 74.063242,55.627055 75.10079,55.733217 76,56.09375 C 77.098272,57.2916 77.25066,59.279319 76.875,60.65625 C 73.827742,61.85551 70.35598,62.38583 67.125,62.09375 C 66.295202,60.187057 66.46465,58.218937 67.84375,56.625 C 69.363262,56.183351 71.22794,55.704907 73,55.65625 z M 54.9375,57.90625 C 52.657212,57.958863 50.25053,58.792625 48.5625,59.5625 C 47.073272,61.4851 47.03636,63.7521 48.375,65.59375 C 51.888742,67.00129 56.8181,65.72014 59.46875,64.09375 C 60.445082,62.45496 59.76022,60.226552 58.71875,58.8125 C 57.638992,58.127114 56.30568,57.874682 54.9375,57.90625 z M 54.75,58.8125 C 55.813242,58.783305 56.85079,58.889467 57.75,59.25 C 58.848272,60.44785 59.03191,62.404324 58.65625,63.78125 C 55.608992,64.98051 52.10598,65.51083 48.875,65.21875 C 48.045192,63.31205 48.21465,61.343942 49.59375,59.75 C 51.113262,59.308351 52.97794,58.861157 54.75,58.8125 z M 113.625,59.5625 C 113.46794,59.683798 113.31241,59.800623 113.15625,59.90625 C 114.31179,60.91552 114.21129,60.855502 114.65625,61.78125 C 114.63432,61.78756 114.61566,61.80609 114.59375,61.8125 C 115.05068,61.86415 115.50211,61.9224 115.9375,62.03125 C 116.22829,62.10395 116.51348,62.17544 116.78125,62.25 C 117.57299,62.08552 118.3681,61.93899 119.15625,61.875 C 120.14224,63.374506 120.42688,65.06565 119.78125,66.65625 C 119.71941,66.51637 119.63047,66.387 119.5625,66.25 C 119.43342,66.57676 119.29616,66.90911 119.21875,67.21875 C 119.08022,67.77286 118.87615,68.31131 118.625,68.84375 C 118.90827,69.83981 119.00648,70.86446 118.75,71.9375 C 117.90619,73.91469 119.953,75.91081 120.15625,77.90625 C 120.1273,79.92718 119.45848,81.85276 120.125,83.8125 C 120.15465,83.8865 120.16459,83.95678 120.1875,84.03125 C 119.44475,84.4826 118.61252,84.81278 117.6875,84.9375 L 99.28125,87.4375 C 95.748486,87.91381 92.57006,85.47026 92.09375,81.9375 L 90.375,69.125 C 89.898692,65.59223 92.310988,62.41381 95.84375,61.9375 L 113.625,59.5625 z M 22.8125,63.6875 C 23.336494,65.996594 24.339111,68.816089 21.25,69.125 C 18.517332,68.550621 15.208542,68.286064 13.25,66.1875 C 11.364913,58.920166 18.846364,61.187942 22.8125,63.6875 z M 36.40625,61.0625 C 34.125957,61.115113 31.688028,61.917624 30,62.6875 C 28.510763,64.6101 28.473854,66.8771 29.8125,68.71875 C 33.326232,70.12629 38.255604,68.87639 40.90625,67.25 C 41.882582,65.6112 41.19772,63.382796 40.15625,61.96875 C 39.076495,61.28337 37.774427,61.030932 36.40625,61.0625 z M 36.21875,61.9375 C 37.281991,61.90831 38.288285,62.04572 39.1875,62.40625 C 40.285772,63.604096 40.46941,65.56057 40.09375,66.9375 C 37.046498,68.13676 33.574729,68.66708 30.34375,68.375 C 29.51394,66.46831 29.683392,64.50019 31.0625,62.90625 C 32.582009,62.4646 34.446685,61.98616 36.21875,61.9375 z M 11.59375,71.34375 C 13.705534,72.40017 15.133485,74.58729 15.125,77.125 L 15.09375,90.03125 C 15.084859,92.68961 13.503527,94.93821 11.21875,95.90625 C 11.125699,89.55281 11.500622,83.13059 11.5,76.84375 C 11.599771,75.02184 11.616854,73.1799 11.59375,71.34375 z M 110.71875,91.21875 C 111.54706,91.19192 112.34851,91.20823 113.15625,91.28125 C 113.98606,93.18794 113.8166,95.15606 112.4375,96.75 C 110.00628,97.45664 106.71041,98.21142 104.3125,97.25 C 103.21424,96.05215 103.0306,94.09568 103.40625,92.71875 C 105.69169,91.8193 108.23382,91.29923 110.71875,91.21875 z M 92.53125,92.1875 C 92.155822,92.1779 91.78571,92.19297 91.40625,92.21875 C 88.876522,92.39062 86.34416,93.26475 84.6875,94.28125 C 83.711172,95.92005 84.36479,98.14844 85.40625,99.5625 C 88.285612,101.39018 92.861658,100.07556 95.5625,98.84375 C 97.051744,96.92114 97.08865,94.65415 95.75,92.8125 C 94.761774,92.41663 93.65756,92.21628 92.53125,92.1875 z M 92.78125,93.09375 C 93.609562,93.06692 94.44226,93.08323 95.25,93.15625 C 96.079814,95.06294 95.91036,97.03106 94.53125,98.625 C 92.100042,99.33163 88.77291,100.08642 86.375,99.125 C 85.276742,97.92715 85.0931,95.97068 85.46875,94.59375 C 87.754202,93.6943 90.29632,93.17423 92.78125,93.09375 z M 71.65625,95.65625 C 69.006682,95.76369 66.30199,96.68268 64.5625,97.75 C 63.586182,99.38879 64.23979,101.61719 65.28125,103.03125 C 68.160612,104.85893 72.73666,103.5443 75.4375,102.3125 C 76.926742,100.38989 76.96365,98.09165 75.625,96.25 C 74.746572,95.89811 73.77724,95.70955 72.78125,95.65625 C 72.407762,95.63626 72.03476,95.6409 71.65625,95.65625 z M 72.65625,96.5625 C 73.484562,96.53567 74.31726,96.55198 75.125,96.625 C 75.954822,98.53169 75.78536,100.49981 74.40625,102.09375 C 71.975042,102.80039 68.64791,103.55517 66.25,102.59375 C 65.151742,101.3959 64.9681,99.43943 65.34375,98.0625 C 67.629202,97.16305 70.17132,96.64298 72.65625,96.5625 z M 53.71875,99.125 C 51.069182,99.23244 48.36449,100.15143 46.625,101.21875 C 45.648682,102.85754 46.33354,105.08595 47.375,106.5 C 50.254372,108.32769 54.83041,106.9818 57.53125,105.75 C 59.020492,103.8274 59.02615,101.5604 57.6875,99.71875 C 56.809072,99.36686 55.83974,99.1783 54.84375,99.125 C 54.470262,99.10501 54.09726,99.10965 53.71875,99.125 z M 54.71875,100 C 55.547062,99.97317 56.37976,100.02073 57.1875,100.09375 C 58.017312,102.00045 57.84786,103.96857 56.46875,105.5625 C 54.037542,106.26914 50.71041,107.02392 48.3125,106.0625 C 47.214242,104.86464 47.06185,102.87694 47.4375,101.5 C 49.722952,100.60055 52.23382,100.08048 54.71875,100 z M 34.96875,102.25 C 34.593318,102.24041 34.22321,102.25547 33.84375,102.28125 C 31.314021,102.45312 28.781658,103.32726 27.125,104.34375 C 26.148671,105.98255 26.833534,108.21095 27.875,109.625 C 30.754362,111.45269 35.330405,110.13806 38.03125,108.90625 C 39.520492,106.98365 39.52615,104.71665 38.1875,102.875 C 37.199265,102.47913 36.095052,102.27878 34.96875,102.25 z M 35.21875,103.15625 C 36.047062,103.12942 36.879755,103.14573 37.6875,103.21875 C 38.517311,105.12544 38.347858,107.09356 36.96875,108.6875 C 34.537537,109.39413 31.210408,110.14892 28.8125,109.1875 C 27.714235,107.98965 27.561847,106.03318 27.9375,104.65625 C 30.222945,103.75681 32.733819,103.23673 35.21875,103.15625 z "
         style="fill:#000000;fill-opacity:1;stroke:none;stroke-width:1;stroke-miterlimit:4;stroke-dasharray:none;stroke-opacity:1" />
    </g>
  </g>
</svg>
