<?xml version="1.0" encoding="UTF-8" standalone="no"?>
<!-- Created with Inkscape (http://www.inkscape.org/) -->

<svg
   xmlns:dc="http://purl.org/dc/elements/1.1/"
   xmlns:cc="http://creativecommons.org/ns#"
   xmlns:rdf="http://www.w3.org/1999/02/22-rdf-syntax-ns#"
   xmlns:svg="http://www.w3.org/2000/svg"
   xmlns="http://www.w3.org/2000/svg"
   xmlns:xlink="http://www.w3.org/1999/xlink"
   xmlns:sodipodi="http://sodipodi.sourceforge.net/DTD/sodipodi-0.dtd"
   xmlns:inkscape="http://www.inkscape.org/namespaces/inkscape"
   width="128"
   height="128"
   id="svg2"
   version="1.1"
   inkscape:version="0.48.0 r9654"
   sodipodi:docname="firefight01.svg"
   inkscape:export-filename="firefight01.png"
   inkscape:export-xdpi="90"
   inkscape:export-ydpi="90">
  <defs
     id="defs4">
    <linearGradient
       id="linearGradient3496">
      <stop
         style="stop-color:#ffff82;stop-opacity:1;"
         offset="0"
         id="stop3498" />
      <stop
         style="stop-color:#ffff00;stop-opacity:1;"
         offset="1"
         id="stop3500" />
    </linearGradient>
    <linearGradient
       id="linearGradient3488">
      <stop
         style="stop-color:#ff1919;stop-opacity:1;"
         offset="0"
         id="stop3490" />
      <stop
         style="stop-color:#aa0000;stop-opacity:1;"
         offset="1"
         id="stop3492" />
    </linearGradient>
    <linearGradient
       id="linearGradient3478">
      <stop
         style="stop-color:#803300;stop-opacity:1;"
         offset="0"
         id="stop3480" />
      <stop
         style="stop-color:#c44e00;stop-opacity:1;"
         offset="1"
         id="stop3482" />
    </linearGradient>
    <linearGradient
       id="linearGradient3452">
      <stop
         style="stop-color:#800000;stop-opacity:1;"
         offset="0"
         id="stop3454" />
      <stop
         style="stop-color:#df0000;stop-opacity:1;"
         offset="1"
         id="stop3456" />
    </linearGradient>
    <linearGradient
       id="linearGradient3372">
      <stop
         style="stop-color:#ff4000;stop-opacity:1;"
         offset="0"
         id="stop3374" />
      <stop
         style="stop-color:#ffff00;stop-opacity:1;"
         offset="1"
         id="stop3376" />
    </linearGradient>
    <radialGradient
       inkscape:collect="always"
       xlink:href="#linearGradient3372"
       id="radialGradient3430"
       gradientUnits="userSpaceOnUse"
       gradientTransform="matrix(1.4298465,-1.9337543,1.0000003,0.73941271,-378.72211,1022.8172)"
       cx="496.71225"
       cy="199.01865"
       fx="496.71225"
       fy="199.01865"
       r="85.768875" />
    <radialGradient
       inkscape:collect="always"
       xlink:href="#linearGradient3372"
       id="radialGradient3432"
       gradientUnits="userSpaceOnUse"
       gradientTransform="matrix(1.4445168,-0.48956421,0.35245715,1.039891,-74.035655,192.99964)"
       cx="352.95682"
       cy="130.94678"
       fx="352.95682"
       fy="130.94678"
       r="85.34375" />
    <radialGradient
       inkscape:collect="always"
       xlink:href="#linearGradient3372"
       id="radialGradient3434"
       gradientUnits="userSpaceOnUse"
       gradientTransform="matrix(1,-4.2600706e-7,1.7528795e-7,0.41146725,-1.7260555e-5,53.046185)"
       cx="523.43982"
       cy="98.469986"
       fx="523.43982"
       fy="98.469986"
       r="40.255615" />
    <radialGradient
       inkscape:collect="always"
       xlink:href="#linearGradient3372"
       id="radialGradient3436"
       gradientUnits="userSpaceOnUse"
       gradientTransform="matrix(1,0,0,0.47040844,0,47.242024)"
       cx="593.1803"
       cy="129.46025"
       fx="593.1803"
       fy="129.46025"
       r="40.255615" />
    <linearGradient
       inkscape:collect="always"
       xlink:href="#linearGradient3452"
       id="linearGradient3460"
       x1="485.04532"
       y1="175.65999"
       x2="501.42227"
       y2="110.15217"
       gradientUnits="userSpaceOnUse" />
    <linearGradient
       inkscape:collect="always"
       xlink:href="#linearGradient3452"
       id="linearGradient3462"
       x1="592.73358"
       y1="174.61465"
       x2="592.73358"
       y2="126.95705"
       gradientUnits="userSpaceOnUse" />
    <linearGradient
       inkscape:collect="always"
       xlink:href="#linearGradient3478"
       id="linearGradient3484"
       x1="232.81491"
       y1="259.08475"
       x2="243.24474"
       y2="249.00847"
       gradientUnits="userSpaceOnUse" />
    <linearGradient
       inkscape:collect="always"
       xlink:href="#linearGradient3478"
       id="linearGradient3486"
       x1="179.95868"
       y1="255.19565"
       x2="170.7663"
       y2="245.47293"
       gradientUnits="userSpaceOnUse" />
    <radialGradient
       inkscape:collect="always"
       xlink:href="#linearGradient3488"
       id="radialGradient3494"
       cx="522.8512"
       cy="175.27078"
       fx="522.8512"
       fy="175.27078"
       r="49.328671"
       gradientTransform="matrix(0.50505922,0.60748331,-0.52190748,0.43391255,349.35135,-213.48578)"
       gradientUnits="userSpaceOnUse" />
    <radialGradient
       inkscape:collect="always"
       xlink:href="#linearGradient3496"
       id="radialGradient3502"
       cx="514.68927"
       cy="191.85309"
       fx="514.68927"
       fy="191.85309"
       r="9.6264067"
       gradientTransform="matrix(1.1018547,0.85497354,-0.96041998,1.2377489,131.18894,-487.04273)"
       gradientUnits="userSpaceOnUse" />
  </defs>
  <sodipodi:namedview
     id="base"
     pagecolor="#ffffff"
     bordercolor="#666666"
     borderopacity="1.0"
     inkscape:pageopacity="0.0"
     inkscape:pageshadow="2"
     inkscape:zoom="1"
     inkscape:cx="64"
     inkscape:cy="64"
     inkscape:document-units="px"
     inkscape:current-layer="g2891"
     showgrid="false"
     inkscape:window-width="1488"
     inkscape:window-height="974"
     inkscape:window-x="184"
     inkscape:window-y="24"
     inkscape:window-maximized="0" />
  <metadata
     id="metadata7">
    <rdf:RDF>
      <cc:Work
         rdf:about="">
        <dc:format>image/svg+xml</dc:format>
        <dc:type
           rdf:resource="http://purl.org/dc/dcmitype/StillImage" />
        <dc:title></dc:title>
      </cc:Work>
    </rdf:RDF>
  </metadata>
  <g
     inkscape:label="Layer 1"
     inkscape:groupmode="layer"
     id="layer1"
     transform="translate(-8.4541098,-245.64982)">
    <g
       id="g2891"
       transform="matrix(0.96855216,0,0,0.96855216,22.146796,-7.220959)">
      <g
         id="g3416"
         transform="matrix(0.65776046,0,0,0.65776046,-297.39572,219.75124)">
        <path
           transform="matrix(1.0324689,0,0,1.0324689,-14.137273,0.89905328)"
           id="path3370"
           d="m 491.75,203.625 c -1,-0.5 -14,-1.625 -14,-1.625 l -14.625,-2.5 -8.75,-3 -4.5,-5 -2.25,-9 5.5,0.875 12.25,-2.5 2.375,-0.875 c 0,0 -18.75,-21.125 -19,-21.75 C 448.5,157.625 445,146.125 445,146.125 l -0.25,-5.25 c 0,0 0.75,-6.25 1.125,-7.25 0.375,-1 4.5,-7.375 4.5,-7.375 l 1.75,4.25 4.125,4.625 5.5,3.375 12,4.5 -3.5,-8.625 -1.75,-9.875 -0.625,-9.5 2.125,-9.875 2.25,-4.625 1.625,-3.25 2.125,6.75 3.5,6.25 5.5,6.125 c 0,0 6.125,4.125 6.375,4.625 0.25,0.5 4.75,4 4.75,4 l 3,-13.5 3.25,-8.875 c 0,0 4.75,-5.875 4.875,-6.5 0.125,-0.625 7.375,-4.625 7.375,-4.625 l 1.5,0 -1.125,6.375 0.375,7.25 1.5,8 4.625,8.5 4.125,3.5 5.625,-4.875 6.125,-4.25 4.09202,-2.00473 3.35876,-2.38649 3.09359,-2.82843 2.07712,-3.04939 1.59099,-3.75651 1.06066,-5.568464 0.30936,-7.380427 0.48614,-6.408155 4.72878,9.192388 1.85615,7.159456 0.48614,7.866562 -1.81196,8.75045 -2.34229,5.21491 -3.88909,13.03728 0.57452,0.44194 5.52427,-2.87262 10.78338,-5.25911 5.74525,-3.62392 5.70104,-7.02687 2.38649,-7.68979 c 0,0 3.40295,7.42462 3.40295,7.6014 0,0.17678 1.5468,8.79464 1.5468,8.79464 l -0.88389,8.39689 -0.0442,0 6.62913,0.26517 0.61871,-0.0442 1.28163,-0.44195 8.83884,-2.47487 11.71146,-0.66291 -2.87263,1.81196 -6.93848,6.54074 -4.81717,6.27557 -11.22532,34.25048 -1.28163,4.5962 2.47488,3.09359 c 0,0 4.68458,1.67938 5.03813,1.67938 0.35356,0 5.61266,-1.01647 5.61266,-1.01647 l 1.59099,-0.66291 -2.91681,7.82237 -7.77818,9.41336 -7.20365,3.84489 -8.04334,2.56326 L 491.75,203.625 z"
           style="color:#000000;fill:url(#radialGradient3430);fill-opacity:1;stroke:none;stroke-width:1px;marker:none;visibility:visible;display:inline;overflow:visible;enable-background:accumulate"
           inkscape:connector-curvature="0" />
        <path
           sodipodi:nodetypes="cccccccccccccccccccsccccccccccccccccccccccccccccccccccccccscccccccccccccccc"
           id="path3345"
           transform="matrix(1.0324689,0,0,1.0324689,-14.137273,0.89905328)"
           d="m 492.3125,72.8125 c -0.10929,9.85e-4 -0.0969,0.249477 -0.0937,0.90625 -1.15097,12.807848 -3.05722,27.31189 -12.8125,36.59375 4.21824,6.26633 10.56923,10.13169 16.46875,14.75 2.57446,-8.31692 3.18448,-17.44556 7.625,-25.03125 -1.29106,-9.451192 -2.2869,-20.393 -10.40625,-26.625 -0.42764,-0.35852 -0.67196,-0.594735 -0.78125,-0.59375 l -5e-5,0 z m 50.40625,13.03125 0.0625,0.5 0.0313,0.21875 c 0.808,7.760185 -1.01487,15.86778 -4.84375,22.5 -1.68023,-5.29651 -4.90626,-10.845799 -10.46875,-12.625 2.04106,7.87658 -1.54504,16.63476 -7.6875,21.71875 -0.55166,1.3277 1.76636,3.12011 2.84375,4.28125 1.57103,1.13919 4.00802,2.99793 5.3125,0.59375 7.18879,-6.84542 18.86777,-9.1978 22.96875,-19.125 1.17019,-3.75744 2.23587,-7.854062 1.625,-11.75 -1.74735,-3.727994 -5.99257,-5.49566 -9.84375,-6.3125 l -5e-5,0 z M 457.25,96.375 c 0,0 1.75,9.25 2.375,11.125 0.625,1.875 0.5,9 0.5,9 l -0.375,10.5 -2.625,9 8.375,3.5 6.75,3 0.625,-1 -4.75,-16.375 -0.125,-7.625 0.25,-6 -1.375,-3.375 -1.875,-4.75 -3.25,-3.75 -4.5,-3.25 z M 559.875,98 l 0.5,5.375 -0.5,7.5 -2.875,8.375 -3.5,10.125 -1.125,5.25 4.75,-2.5 12.25,-5.875 5.5,-3.5 2,-2.75 3.125,-3.125 -4.125,-6.375 -1.875,-4.75 -1,-4.125 1,-2.75 -3.5,1.875 -3.375,2.25 -1.375,2 -3.125,-4.625 -2.75,-2.375 z m 39.5,8.75 -0.75,5.125 -2.875,3.625 -4.25,4.625 -3.75,3.375 c -0.375,0.375 0.25,3.875 0.375,4.375 0.125,0.5 -0.625,4.75 -0.625,4.75 l 6.375,0.5 7,-2.625 4,-0.625 0.375,-7.75 -0.25,-4.875 -2,-5.25 -3.625,-5.25 z m -164.8125,27.84375 0,1.59375 c 0.0818,8.52911 4.79307,18.34413 13.75,20.1875 -1.59334,-4.62718 -3.25418,-8.4422 -3.34375,-13.375 -1.02894,0.74318 -3.23461,-0.9348 -4.53125,-1.4375 -2.40816,-1.66225 -4.25762,-4.47168 -5.875,-6.96875 z"
           style="font-size:medium;font-style:normal;font-variant:normal;font-weight:normal;font-stretch:normal;text-indent:0;text-align:start;text-decoration:none;line-height:normal;letter-spacing:normal;word-spacing:normal;text-transform:none;direction:ltr;block-progression:tb;writing-mode:lr-tb;text-anchor:start;color:#000000;fill:url(#radialGradient3432);fill-opacity:1;stroke:none;stroke-width:1px;marker:none;visibility:visible;display:inline;overflow:visible;enable-background:accumulate;font-family:Bitstream Vera Sans;-inkscape-font-specification:Bitstream Vera Sans"
           inkscape:connector-curvature="0" />
        <path
           id="path3295"
           d="m 529.58666,163.83555 c -4.42006,0.31939 -9.40043,1.55873 -12.00245,5.42046 3.75484,-1.30756 7.36832,-3.04736 11.42169,-3.45231 -12.55468,3.75175 -22.77643,13.09895 -30.45783,23.42413 -2.68194,1.82464 -6.49116,2.65704 -8.29202,5.74311 -3.81518,5.7653 0.31013,13.01199 4.48479,17.35839 9.20047,8.8349 22.01353,12.74369 34.16826,15.74515 10.02464,2.38586 20.34522,3.24602 30.61706,2.32181 9.03954,-0.87041 19.2918,-1.52846 26.29779,-7.77454 3.40776,-3.09941 0.64791,-8.45377 -2.14882,-10.93836 -4.49534,-4.29222 -10.58621,-6.45775 -16.01618,-9.19478 -0.17941,2.74793 -0.53193,5.48003 -1.16153,8.16295 2.20322,-11.79306 1.28903,-25.95776 -8.19522,-34.29732 -1.29658,-1.36418 -5.76311,-4.09125 -1.62006,-1.7388 2.1854,0.90003 -1.42283,-3.01319 -2.41302,-3.68166 -3.29652,-3.07212 -7.41428,-4.90285 -11.99148,-4.61459 -2.64375,-1.11152 -4.63463,-0.3857 -6.20578,-1.80608 -2.11027,-0.56855 -4.30092,-0.81376 -6.4852,-0.67756 z m 15.06759,8.48561 c 5.34202,14.56977 2.94692,31.40843 -4.48478,44.75107 6.25735,-14.15792 8.53158,-30.64429 4.12987,-45.65448 l 0.18877,0.48049 0.16614,0.42292 z"
           style="font-size:medium;font-style:normal;font-variant:normal;font-weight:normal;font-stretch:normal;text-indent:0;text-align:start;text-decoration:none;line-height:normal;letter-spacing:normal;word-spacing:normal;text-transform:none;direction:ltr;block-progression:tb;writing-mode:lr-tb;text-anchor:start;color:#000000;fill:url(#radialGradient3494);fill-opacity:1;stroke:none;stroke-width:1px;marker:none;visibility:visible;display:inline;overflow:visible;enable-background:accumulate;font-family:Bitstream Vera Sans;-inkscape-font-specification:Bitstream Vera Sans"
           sodipodi:nodetypes="ccccccccccccccccccccccc"
           inkscape:connector-curvature="0" />
        <path
           id="path3289"
           d="m 519.64344,181.17884 c 0.13775,0.41312 1.69757,6.10875 3.54562,9.19479 1.55745,2.87563 -1.11231,5.03813 -1.86542,7.59398 0.46214,2.40045 1.32706,2.71184 1.32299,2.87089 -1.57945,0.68009 -2.77375,0.23381 -3.625,2.51369 -1.06286,2.21408 0.92731,9.15987 -3.25456,7.81888 -3.19625,-1.85507 -10.90221,-3.52997 -11.35127,-8.30839 0.7101,-2.81512 1.06305,-5.48621 2.28878,-8.10994 l 0.0264,-0.0397 0,-0.0397 c -0.12054,-1.31663 -0.17939,-2.36678 -1.17746,-3.17517 2.54795,-0.93996 3.84989,-2.86597 5.01414,-5.2126 2.22375,-2.89383 5.98984,-3.32682 9.07573,-5.10674 l 1e-5,0 z"
           style="font-size:medium;font-style:normal;font-variant:normal;font-weight:normal;font-stretch:normal;text-indent:0;text-align:start;text-decoration:none;line-height:normal;letter-spacing:normal;word-spacing:normal;text-transform:none;direction:ltr;block-progression:tb;writing-mode:lr-tb;text-anchor:start;color:#000000;fill:url(#radialGradient3502);fill-opacity:1;stroke:none;stroke-width:1px;marker:none;visibility:visible;display:inline;overflow:visible;enable-background:accumulate;font-family:Bitstream Vera Sans;-inkscape-font-specification:Bitstream Vera Sans"
           inkscape:connector-curvature="0" />
        <path
           style="font-size:medium;font-style:normal;font-variant:normal;font-weight:normal;font-stretch:normal;text-indent:0;text-align:start;text-decoration:none;line-height:normal;letter-spacing:normal;word-spacing:normal;text-transform:none;direction:ltr;block-progression:tb;writing-mode:lr-tb;text-anchor:start;color:#000000;fill:url(#linearGradient3460);fill-opacity:1;stroke:none;stroke-width:1px;marker:none;visibility:visible;display:inline;overflow:visible;enable-background:accumulate;font-family:Bitstream Vera Sans;-inkscape-font-specification:Bitstream Vera Sans"
           d="m 517.90686,126.98932 c -10.25024,2.9898 -21.00922,7.4192 -30.65477,12.76246 -13.49484,7.3047 -25.50139,16.76394 -38.39805,24.8807 5.34916,9.09209 10.87924,18.44978 20.89673,22.90525 1.90208,0.65269 4.5099,3.06204 5.66354,1.01255 1.69457,0.1258 4.61913,-2.66991 6.82353,-3.65836 7.5884,-4.49684 15.30623,-8.84717 21.95654,-14.66797 -1.18699,-1.99378 -4.47316,-3.76225 -2.38758,-6.25934 1.39136,-2.58838 4.81695,-3.38958 7.45313,-3.09741 1.45264,1.31486 3.18423,4.03585 4.45252,1.16153 2.58984,-2.83206 5.63489,-5.79577 7.2628,-8.49206 -1.55723,-1.47071 -2.4436,-4.73956 -5.54123,-6.86698 -1.98097,-1.97495 -3.74506,-3.85566 -1.64727,-6.34559 1.80187,-4.31049 3.08777,-8.685 4.12011,-13.33478 z"
           id="path3450"
           sodipodi:nodetypes="cccccccccccccc"
           inkscape:connector-curvature="0" />
        <path
           style="font-size:medium;font-style:normal;font-variant:normal;font-weight:normal;font-stretch:normal;text-indent:0;text-align:start;text-decoration:none;line-height:normal;letter-spacing:normal;word-spacing:normal;text-transform:none;direction:ltr;block-progression:tb;writing-mode:lr-tb;text-anchor:start;color:#000000;fill:url(#linearGradient3462);fill-opacity:1;stroke:none;stroke-width:1px;marker:none;visibility:visible;display:inline;overflow:visible;enable-background:accumulate;font-family:Bitstream Vera Sans;-inkscape-font-specification:Bitstream Vera Sans"
           d="m 560.56073,127.50555 c 0.99414,5.37913 2.78293,10.74617 5.22687,15.61609 -2.85281,3.38541 -5.68356,6.78986 -8.55013,10.16337 1.91017,2.31643 1.80995,1.51056 2.42997,2.84941 2.17909,2.3624 3.67601,5.49747 6.34601,7.47528 1.76412,-1.70524 3.64834,-3.84919 6.25935,-2.67797 2.31563,0.66786 5.34374,2.50809 5.06555,5.25914 -1.49111,2.05855 -4.80924,4.24535 -1.19379,5.80764 8.84659,5.91579 17.64186,11.3485 26.46615,16.72407 0.69498,0.43234 2.39744,1.09112 4.31433,-0.39816 9.11822,-3.82378 15.71193,-11.4708 20.42352,-19.93955 2.62648,-2.68344 2.39391,-4.82838 -1.08886,-6.05175 -20.72965,-13.8326 -41.94889,-28.96224 -66.08615,-35.37607 l 0.2977,0.42175 0.0895,0.12675 -2e-5,0 z"
           id="path3448"
           sodipodi:nodetypes="cccccccccccccccc"
           inkscape:connector-curvature="0" />
        <path
           style="font-size:medium;font-style:normal;font-variant:normal;font-weight:normal;font-stretch:normal;text-indent:0;text-align:start;text-decoration:none;line-height:normal;letter-spacing:normal;word-spacing:normal;text-transform:none;direction:ltr;block-progression:tb;writing-mode:lr-tb;text-anchor:start;color:#000000;fill:#800000;fill-opacity:1;stroke:none;stroke-width:1px;marker:none;visibility:visible;display:inline;overflow:visible;enable-background:accumulate;font-family:Bitstream Vera Sans;-inkscape-font-specification:Bitstream Vera Sans"
           d="m 509.67937,138.12062 c -0.55401,0.77151 -4.04443,3.87511 -1.63279,1.61858 0.33509,-0.28614 2.80644,-2.94398 1.63279,-1.61858 z"
           id="path3446"
           inkscape:connector-curvature="0" />
        <path
           style="font-size:medium;font-style:normal;font-variant:normal;font-weight:normal;font-stretch:normal;text-indent:0;text-align:start;text-decoration:none;line-height:normal;letter-spacing:normal;word-spacing:normal;text-transform:none;direction:ltr;block-progression:tb;writing-mode:lr-tb;text-anchor:start;color:#000000;fill:#800000;fill-opacity:1;stroke:none;stroke-width:1px;marker:none;visibility:visible;display:inline;overflow:visible;enable-background:accumulate;font-family:Bitstream Vera Sans;-inkscape-font-specification:Bitstream Vera Sans"
           d="m 510.09881,151.09101 c -2.33319,-1.75698 -4.53089,-3.96421 -6.00122,-6.54972 2.0004,2.18324 4.00081,4.36649 6.00122,6.54972 z"
           id="path3444"
           inkscape:connector-curvature="0" />
        <path
           style="font-size:medium;font-style:normal;font-variant:normal;font-weight:normal;font-stretch:normal;text-indent:0;text-align:start;text-decoration:none;line-height:normal;letter-spacing:normal;word-spacing:normal;text-transform:none;direction:ltr;block-progression:tb;writing-mode:lr-tb;text-anchor:start;color:#000000;fill:#800000;fill-opacity:1;stroke:none;stroke-width:1px;marker:none;visibility:visible;display:inline;overflow:visible;enable-background:accumulate;font-family:Bitstream Vera Sans;-inkscape-font-specification:Bitstream Vera Sans"
           d="m 574.01509,144.79941 c -1.47983,2.4163 -3.55577,4.54138 -5.77537,6.22707 1.83085,-1.95843 4.35442,-4.8575 5.77537,-6.22707 z"
           id="path3442"
           inkscape:connector-curvature="0" />
        <path
           style="font-size:medium;font-style:normal;font-variant:normal;font-weight:normal;font-stretch:normal;text-indent:0;text-align:start;text-decoration:none;line-height:normal;letter-spacing:normal;word-spacing:normal;text-transform:none;direction:ltr;block-progression:tb;writing-mode:lr-tb;text-anchor:start;color:#000000;fill:#800000;fill-opacity:1;stroke:none;stroke-width:1px;marker:none;visibility:visible;display:inline;overflow:visible;enable-background:accumulate;font-family:Bitstream Vera Sans;-inkscape-font-specification:Bitstream Vera Sans"
           d="m 505.29138,156.60827 c -9.12475,6.17642 -15.65749,15.23993 -22.71432,23.58546 6.73401,-8.75765 12.82414,-18.21784 22.71432,-23.58546 z"
           id="path3440"
           inkscape:connector-curvature="0" />
        <path
           style="font-size:medium;font-style:normal;font-variant:normal;font-weight:normal;font-stretch:normal;text-indent:0;text-align:start;text-decoration:none;line-height:normal;letter-spacing:normal;word-spacing:normal;text-transform:none;direction:ltr;block-progression:tb;writing-mode:lr-tb;text-anchor:start;color:#000000;fill:#800000;fill-opacity:1;stroke:none;stroke-width:1px;marker:none;visibility:visible;display:inline;overflow:visible;enable-background:accumulate;font-family:Bitstream Vera Sans;-inkscape-font-specification:Bitstream Vera Sans"
           d="m 584.56563,166.96522 c 4.00804,4.28938 7.67673,8.90794 11.32489,13.51889 -4.00989,-4.79958 -7.88054,-9.7179 -12.09924,-14.3255 0.25812,0.26887 0.51623,0.53774 0.77435,0.80661 z"
           id="path3319"
           inkscape:connector-curvature="0" />
        <path
           id="path3402"
           d="m 522.069,71.752232 c -2.22448,5.075638 -2.06665,10.767063 0.48061,15.655856 0.81128,2.159754 0.88355,3.86472 0.71318,6.155049 3.98164,-4.742408 3.99608,-11.290748 0.83116,-16.647772 -1.08138,-2.082695 -1.13779,-4.355263 -1.47645,-6.647308 -0.24736,0.451706 -0.30114,1.03247 -0.5485,1.484175 z"
           style="font-size:medium;font-style:normal;font-variant:normal;font-weight:normal;font-stretch:normal;text-indent:0;text-align:start;text-decoration:none;line-height:normal;letter-spacing:normal;word-spacing:normal;text-transform:none;direction:ltr;block-progression:tb;writing-mode:lr-tb;text-anchor:start;color:#000000;fill:url(#radialGradient3434);fill-opacity:1;stroke:none;stroke-width:1px;marker:none;visibility:visible;display:inline;overflow:visible;enable-background:accumulate;font-family:Bitstream Vera Sans;-inkscape-font-specification:Bitstream Vera Sans"
           inkscape:connector-curvature="0" />
        <path
           id="path3349"
           d="m 593.59973,84.141858 c 2.27827,4.228936 2.33132,9.193007 0.45171,13.551155 -1.19801,3.835377 -0.1781,6.788517 1.15275,10.448207 0.22699,-5.0379 3.70689,-7.98094 5.65509,-12.351822 1.14523,-5.640207 -3.95833,-9.841138 -7.67899,-13.196243 0.13982,0.516234 0.27963,1.032469 0.41944,1.548703 z"
           style="font-size:medium;font-style:normal;font-variant:normal;font-weight:normal;font-stretch:normal;text-indent:0;text-align:start;text-decoration:none;line-height:normal;letter-spacing:normal;word-spacing:normal;text-transform:none;direction:ltr;block-progression:tb;writing-mode:lr-tb;text-anchor:start;color:#000000;fill:url(#radialGradient3436);fill-opacity:1;stroke:none;stroke-width:1px;marker:none;visibility:visible;display:inline;overflow:visible;enable-background:accumulate;font-family:Bitstream Vera Sans;-inkscape-font-specification:Bitstream Vera Sans"
           inkscape:connector-curvature="0" />
        <path
           sodipodi:nodetypes="ccccccccccccccccccccccccsccscccccccccccccccccccscccccccccccccccccccccsccccccccccccccccccccccccsccccccscccccccccccccccccccccccccccccccccc"
           style="font-size:medium;font-style:normal;font-variant:normal;font-weight:normal;font-stretch:normal;text-indent:0;text-align:start;text-decoration:none;line-height:normal;letter-spacing:normal;word-spacing:normal;text-transform:none;direction:ltr;block-progression:tb;writing-mode:lr-tb;text-anchor:start;color:#000000;fill:#000000;fill-opacity:1;stroke:none;stroke-width:1px;marker:none;visibility:visible;display:inline;overflow:visible;enable-background:accumulate;font-family:Bitstream Vera Sans;-inkscape-font-specification:Bitstream Vera Sans"
           d="m 522.80539,69.452104 c -2.91392,4.004708 -2.52478,13.131423 -1.74635,15.518697 1.16368,3.398498 2.53879,6.823579 1.8125,9.975361 2.1834,-3.591308 3.6532,-7.211979 3.96898,-9.287405 0.24437,-5.744546 -3.79616,-10.200383 -4.03513,-16.206653 z m -0.44982,2.328466 c -0.002,5.183919 3.83599,8.31646 3.3604,13.50775 -0.27254,1.79131 -0.52056,4.460346 -2.26231,7.488135 0.54655,-2.937098 -0.23467,-5.401356 -1.34946,-7.990873 -1.08023,-2.673989 -2.24514,-6.206462 0.25137,-13.005012 z m -28.4311,3.029652 c -1.19803,15.792741 -2.36451,26.924248 -12.59488,39.398708 -2.26869,-3.39316 -4.11159,-7.56876 -5.90055,-13.53421 -3.33794,4.10019 -5.27193,8.88164 -6.1916,13.99725 -1.81694,-4.93996 -2.40378,-9.67509 -12.07892,-14.883657 3.48588,13.751937 5.22193,27.264327 0.56889,40.298337 -2.31604,-2.26081 -4.67227,-5.71302 -7.19708,-10.25319 -4.06774,3.86705 -5.37594,12.51849 -5.74178,18.76003 -4.23917,-0.16078 -5.93101,-3.85064 -10.37226,-8.6656 -1.04136,9.20347 4.36195,19.91873 14.05017,23.05976 0.18149,0.45438 0.36263,0.90783 0.55566,1.36268 0.12178,-0.14473 0.29011,-0.31875 0.50274,-0.5292 -1.72281,-4.78176 -2.63817,-9.25955 -3.63823,-13.67974 -0.92467,-6.49936 0.32637,-12.44099 4.33941,-17.70163 3.65205,6.48303 6.73163,9.38047 10.13412,11.04698 3.17075,1.553 7.03764,2.70599 11.53649,4.31296 0.35934,-0.21849 0.71888,-0.44184 1.08486,-0.6615 -4.80069,-1.70955 -8.7591,-3.07655 -12.01277,-4.67016 -0.69044,-0.33817 -1.38516,-0.79126 -2.0771,-1.34945 2.28275,-10.44778 5.45823,-22.17205 -0.15876,-39.23995 5.20649,4.00801 9.04548,7.37004 10.20027,14.75136 -1.2751,9.90475 0.97147,20.8648 4.07482,30.49497 0.60048,-0.36031 1.20783,-0.72207 1.82573,-1.08485 -4.56385,-11.02148 -9.54726,-23.70633 0.11907,-43.63228 3.71359,16.57248 12.44152,18.24024 23.19205,28.10035 4.45,-14.89487 4.76564,-29.63488 20.13594,-34.926992 -3.3467,17.493192 0.35798,26.451122 10.76915,35.985382 7.0915,-11.6676 20.23839,-10.98828 26.06295,-23.78739 1.72845,-4.51531 2.47217,-10.829277 2.03741,-19.858116 6.0611,8.346598 7.74934,17.197116 6.54881,27.200716 -3.35081,9.67668 -6.71285,19.37261 -8.1364,25.74543 2.14726,-1.32459 4.57633,-2.65756 7.09123,-3.96898 -0.0927,-0.26941 -0.17993,-0.53484 -0.26459,-0.80702 -1.81559,0.84769 -3.5556,1.7372 -5.13321,2.73859 0.30915,-3.84618 1.63838,-7.62439 3.12226,-11.44388 -0.0915,-0.13309 -0.18445,-0.2657 -0.27783,-0.3969 0.12889,0.0371 0.25493,0.0816 0.38367,0.11907 1.5028,-3.85187 3.14373,-7.7478 4.04835,-11.81432 0.78255,-3.51777 0.80791,-7.76341 -0.0132,-12.31706 1.63494,1.72791 3.32656,3.8083 5.19936,6.70757 1.94234,-3.02393 5.03878,-4.82644 8.21578,-6.27098 -2.08215,7.07345 2.86839,12.02505 6.01962,17.79425 l 0.18521,-0.0281 c -2.24555,3.63933 -5.36349,6.66079 -8.86404,8.90535 -0.75598,0.42776 -1.52083,0.83878 -2.30201,1.23039 0.15358,0.0586 0.30981,0.11306 0.46305,0.17198 0.84914,-0.42517 1.67808,-0.84801 2.47399,-1.25684 5.99708,-3.39336 10.63104,-7.95969 11.99954,-16.52417 5.2434,11.02001 5.32362,17.97576 3.94252,23.82709 l 0.63506,-0.60858 c 0.63999,-2.5423 1.069,-5.34407 0.92609,-8.57299 4.43218,-4.08145 12.04696,-9.54092 11.2322,-16.1405 6.28196,6.2996 5.92347,14.26595 5.41104,22.42472 -3.38214,0.75579 -6.72599,1.86718 -9.92244,3.20164 0.0353,0.0382 0.0717,0.0793 0.10584,0.11907 7.60825,-2.79198 15.60443,-3.32726 20.28147,-2.79152 -5.21272,2.61532 -9.56272,7.77334 -13.08439,13.29607 0.40607,0.25014 0.82023,0.50607 1.21715,0.75411 4.11172,-6.84308 8.54903,-13.11254 15.37317,-15.2541 -1.74948,-0.28365 -3.53093,-0.40153 -5.33166,-0.38367 -2.71489,0.0269 -5.4709,0.38141 -8.20255,0.96579 0.30752,-6.41863 3.51559,-15.71665 -6.3239,-23.97262 1.59503,6.58553 -6.29836,12.89205 -10.80885,16.82846 -0.36104,-4.6377 -1.91691,-10.15372 -5.64918,-17.02691 -0.28232,3.80483 -1.53164,7.37206 -3.43978,10.53102 -2.60419,-5.81893 -7.48555,-10.83297 -5.72855,-18.19114 -3.42573,1.16979 -6.27434,3.1786 -8.61268,5.90054 -0.97629,-1.99763 -2.4585,-3.74776 -5.54334,-6.36359 -1.1743,-5.904547 -3.77264,-12.282576 -8.03056,-18.257293 -0.0737,3.197653 0.005,7.403722 -0.14553,11.642331 -2.24558,-3.686931 -6.64337,-5.430682 -10.54425,-6.906019 1.29846,7.579941 0.0178,17.733101 -4.53786,24.091691 -1.61632,-5.73185 -5.64081,-9.8986 -10.92791,-13.018247 0.95342,9.983987 -1.70437,17.829607 -7.68659,23.178827 -4.2414,-6.86369 -6.01452,-18.45254 -3.06934,-28.536945 -6.73766,2.010698 -10.8667,5.052496 -13.61359,8.864045 -2.12612,-13.263182 -1.27969,-21.191178 -11.90693,-28.497248 l -5e-5,-1e-5 z m 0.6615,2.222627 c 9.32246,7.593145 9.07229,18.712925 10.6104,27.227181 -4.23589,6.59196 -4.88015,15.28444 -7.6469,24.88548 -7.47987,-5.7815 -12.31281,-9.23913 -16.02143,-14.65875 9.18701,-8.48062 12.06743,-23.958227 13.05793,-37.453911 z m 98.0734,4.9083 c 2.88649,5.763111 2.64986,9.536123 1.70666,12.594885 -0.94319,3.058767 -1.96032,7.281516 0.71442,14.433846 0.86457,-3.80079 3.68074,-8.71598 5.62272,-12.502277 1.14917,-6.606138 -1.16086,-9.613741 -8.0438,-14.526454 z m 1.42884,1.997719 c 3.12615,3.241766 7.70051,7.174131 6.11222,12.158297 -1.09103,2.792983 -4.0182,5.572915 -4.96122,11.152825 -2.22482,-6.44504 -0.7281,-9.358395 0.17199,-12.277368 0.87946,-2.852088 0.94927,-5.940205 -1.32299,-11.033754 z m -47.25728,6.270982 c 3.70116,0.835666 8.00104,2.824675 9.32709,6.76049 -0.18637,3.85958 -0.59898,7.66285 -1.5479,10.66332 -4.82469,11.68904 -16.53417,11.99793 -25.21623,21.14141 -2.52708,-0.61936 -4.78307,-2.5815 -6.61496,-5.39781 5.77722,-4.00763 10.43259,-15.06765 8.42746,-22.1072 4.85851,1.67681 8.77159,8.54584 9.90921,13.40191 3.31623,-4.07363 6.96806,-16.167268 5.71533,-24.46212 z m -111.76638,51.2924 c 2.6737,4.08423 6.59965,6.78472 9.67108,7.7792 l 0.0132,-0.0529 c -0.005,0.0908 -0.009,0.18826 -0.0132,0.27783 0.45533,3.44761 1.5607,7.69802 3.20164,12.07892 -8.80603,-1.94457 -13.127,-13.65441 -12.87272,-20.08303 l 0,-2e-5 z m 160.13497,42.82526 c -0.44214,1.74363 -0.97071,3.39353 -1.64051,4.89507 3.58293,6.51233 10.29111,7.54021 15.46578,3.82345 -3.29405,9.79976 -10.02314,17.29531 -20.83713,22.09397 0.11781,0.18778 0.23836,0.37675 0.34398,0.56888 10.3252,-3.63513 18.47181,-8.11661 21.26048,-23.58895 -4.5382,2.78084 -13.29295,1.82247 -15.37317,-2.51368 0.64712,-1.47261 1.15097,-3.08563 1.56114,-4.78923 -0.26071,-0.16286 -0.51995,-0.32666 -0.78057,-0.48951 z M 467.1868,186.8412 c -5.5107,1.69762 -14.27041,3.77139 -19.79196,1.13777 -0.0792,10.98019 6.98622,17.58305 16.78877,19.71258 l 29.13229,4.20712 c -0.4499,-0.41257 -0.89143,-0.82147 -1.29654,-1.23039 -8.38214,-0.82148 -19.06843,-2.50222 -27.33301,-4.03512 -9.6835,-1.44089 -14.91704,-7.07456 -15.88914,-16.6697 6.0256,1.74858 13.30784,-0.45797 18.95848,-2.84444 -0.18855,-0.0959 -0.38451,-0.18047 -0.56889,-0.27782 z"
           id="path3225"
           inkscape:connector-curvature="0" />
        <path
           style="font-size:medium;font-style:normal;font-variant:normal;font-weight:normal;font-stretch:normal;text-indent:0;text-align:start;text-decoration:none;line-height:normal;letter-spacing:normal;word-spacing:normal;text-transform:none;direction:ltr;block-progression:tb;writing-mode:lr-tb;text-anchor:start;color:#000000;fill:url(#linearGradient3484);fill-opacity:1;stroke:none;stroke-width:1px;marker:none;visibility:visible;display:inline;overflow:visible;enable-background:accumulate;font-family:Bitstream Vera Sans;-inkscape-font-specification:Bitstream Vera Sans"
           d="m 148.375,159.15625 c -0.19025,0.01 -0.40783,0.0262 -0.59375,0.0625 -2.62155,0.0811 -5.85568,2.87897 -3.25,5.46875 0.69916,3.78733 3.61074,0.0588 5.6875,-0.5625 2.0791,-0.63078 3.62046,-1.9401 1.625,-3.5 -0.77288,-0.97504 -2.13701,-1.53624 -3.46875,-1.46875 z M 174.4375,183.5 c -0.36086,-0.002 -0.70491,0.0371 -1.0625,0.0937 -3.29466,0.27597 -6.80994,2.99563 -6.84375,6.28125 2.85123,3.2879 5.7582,6.5037 8.65625,9.75 2.89408,-2.78147 5.94329,-5.23638 9.34375,-7.25 -3.01791,-2.89573 -5.91353,-6.15779 -9,-8.84375 -0.35967,-0.0166 -0.73289,-0.0294 -1.09375,-0.0313 z m 69.46875,68.25 -0.28125,0.0937 c -5.87435,1.51234 -12.08259,2.35893 -18.1875,2.875 4.6736,4.89348 9.48376,10.67548 14.09375,15.09375 4.42172,2.7756 10.6763,-0.2698 11.34375,-5.375 0.76608,-1.17691 -0.0324,-4.09455 1.125,-4.1875 -2.25262,-3.1996 -5.48582,-5.58728 -8.09375,-8.5 z"
           transform="matrix(0.9855538,0,0,0.9855538,336.39961,-20.446157)"
           id="path3474"
           inkscape:connector-curvature="0" />
        <path
           style="font-size:medium;font-style:normal;font-variant:normal;font-weight:normal;font-stretch:normal;text-indent:0;text-align:start;text-decoration:none;line-height:normal;letter-spacing:normal;word-spacing:normal;text-transform:none;direction:ltr;block-progression:tb;writing-mode:lr-tb;text-anchor:start;color:#000000;fill:url(#linearGradient3486);fill-opacity:1;stroke:none;stroke-width:1px;marker:none;visibility:visible;display:inline;overflow:visible;enable-background:accumulate;font-family:Bitstream Vera Sans;-inkscape-font-specification:Bitstream Vera Sans"
           d="m 262.1875,159.1875 c -1.81255,0.17912 -4.09724,2.23588 -3.46875,3.65625 2.40107,1.23192 4.75628,2.51914 7.125,3.8125 1.03682,-1.97752 3.24662,-4.66337 0.71875,-6.25 -1.18031,-0.96434 -2.81844,-1.34232 -4.375,-1.21875 z M 236.5625,183.5 c -4.82219,2.60803 -8.35671,9.06151 -13.4375,12.5 1.62857,2.37972 3.23497,4.51693 5.40625,6.46875 1.45301,2.28257 2.68789,4.31022 4.46875,0.75 3.91857,-4.63999 8.40117,-9.09008 12,-13.8125 -0.68244,-3.86047 -4.76461,-6.112 -8.4375,-5.90625 z m -62.3125,61.46875 -0.25,0.25 c -4.79001,5.07158 -10.22579,9.64129 -14.625,15.03125 1.20405,0.0276 0.32733,3.05695 1.125,4.1875 0.64533,5.42088 7.79418,8.22896 11.84375,5 5.79362,-6.17954 11.48507,-12.45126 17.21875,-18.6875 -5.24501,-1.54288 -10.38743,-3.41266 -15.3125,-5.78125 z"
           transform="matrix(0.9855538,0,0,0.9855538,336.39961,-20.446157)"
           id="path3472"
           sodipodi:nodetypes="cccccccccccccccccc"
           inkscape:connector-curvature="0" />
        <path
           style="color:#000000;fill:#b46868;fill-opacity:1;stroke:none;stroke-width:1px;marker:none;visibility:visible;display:inline;overflow:visible;enable-background:accumulate"
           d="m 291.23961,183.68948 6.18718,4.24264 -6.54074,11.22532 -8.39689,7.95495 -10.96016,5.83363 -3.62392,-3.8007 c 8.97016,-6.92654 17.39834,-14.56181 23.33453,-25.45584 z"
           id="path3504"
           transform="matrix(0.9855538,0,0,0.9855538,336.39961,-20.446157)"
           sodipodi:nodetypes="ccccccc"
           inkscape:connector-curvature="0" />
        <path
           sodipodi:nodetypes="ccccccc"
           id="path4278"
           d="m 454.8712,160.76393 -6.0978,4.18135 6.44625,11.06315 8.27559,7.84004 10.80182,5.74935 3.57157,-3.74579 c -8.84057,-6.82648 -17.147,-14.35145 -22.99743,-25.0881 z"
           style="color:#000000;fill:#b46868;fill-opacity:1;stroke:none;stroke-width:1px;marker:none;visibility:visible;display:inline;overflow:visible;enable-background:accumulate"
           inkscape:connector-curvature="0" />
        <path
           style="font-size:medium;font-style:normal;font-variant:normal;font-weight:normal;font-stretch:normal;text-indent:0;text-align:start;text-decoration:none;line-height:normal;letter-spacing:normal;word-spacing:normal;text-transform:none;direction:ltr;block-progression:tb;writing-mode:lr-tb;text-anchor:start;color:#000000;fill:#000000;fill-opacity:1;stroke:none;stroke-width:1px;marker:none;visibility:visible;display:inline;overflow:visible;enable-background:accumulate;font-family:Bitstream Vera Sans;-inkscape-font-specification:Bitstream Vera Sans"
           d="m 487.86517,138.97534 -2.50046,-2.44754 c -3.78226,-1.38589 -4.56702,0.23369 -6.5885,0.60858 -0.74803,0.54911 -1.59094,1.82701 -1.71989,2.72536 0.15265,1.3971 0.99285,2.69021 1.86542,3.83668 -18.25402,10.2005 -30.27363,20.32013 -30.16422,21.07527 4.70518,9.84262 9.0921,19.50522 25.49406,25.05747 10.32648,-5.49185 20.2518,-12.10664 29.88638,-18.86587 1.42728,1.74169 2.87302,3.4805 4.32618,5.21259 -3.92828,3.96792 -7.42802,8.6985 -10.45163,13.61359 -6.14215,2.13464 -12.99502,6.71685 -10.82208,14.01048 1.83012,4.72782 7.75266,10.74195 17.60903,16.0479 0.8307,0.44719 1.69331,0.90057 2.57983,1.33622 -4.54643,4.69052 -9.10059,9.37384 -13.69297,14.01049 -0.25133,3.92197 0.38483,7.09803 2.92381,9.9489 2.45135,1.92318 6.78271,2.28205 10.01505,0.97901 l 0.0397,-0.0132 0.0397,-0.0265 c 5.63649,-6.264 11.36182,-12.49564 17.10628,-18.72033 6.56692,1.8494 13.97267,3.29815 22.22627,4.1145 2.61622,0.11332 6.94767,0.0439 11.88047,-0.33075 4.57293,4.96769 9.13138,9.94065 13.62682,14.93658 l 0.0397,0.0265 0.0397,0.0132 c 3.23234,1.30304 7.5637,0.94417 10.01504,-0.97901 2.53899,-2.85087 3.17514,-6.02693 2.92382,-9.9489 -2.36963,-2.39247 -4.72344,-4.8002 -7.07801,-7.21031 5.84509,-1.65695 10.57863,-4.01113 12.22445,-7.28969 0.54983,-9.63984 -14.47371,-15.08681 -21.578,-17.86039 l -0.0132,0.0264 c 0.1414,-2.48144 0.10777,-5.17515 -0.19845,-8.17609 -0.43116,-4.22541 -1.35415,-8.472 -3.42655,-12.2906 3.26019,-3.79137 6.47548,-7.59569 9.61816,-11.43065 9.67635,6.28862 19.83304,12.57724 29.88638,18.86587 16.40195,-5.55226 20.78888,-15.21486 25.49405,-25.05747 0.10941,-0.75514 -11.9102,-10.87477 -30.16422,-21.07527 0.87258,-1.14647 1.71277,-2.43958 1.86542,-3.83668 -0.91586,-3.73234 -5.17493,-4.14793 -8.30839,-3.33394 l -2.50045,2.44754 c -9.17111,-4.57541 -19.45069,-8.86727 -30.28329,-11.98631 0.12096,0.16994 0.2383,0.34483 0.3572,0.51597 1.07581,5.2283 1.78871,11.10395 5.54334,15.5187 -4.90042,4.43421 -7.6214,7.78015 -8.73175,10.31933 1.62092,3.74539 5.01299,7.17885 7.84536,10.38548 -2.97335,2.68923 -5.91917,5.40942 -8.83759,8.16286 -3.36052,-3.50326 -8.92476,-6.21339 -13.78557,-5.59626 -1.21376,-0.39339 -2.42016,-0.69703 -3.625,-0.91286 -3.00792,-1.29848 -6.13304,-2.06807 -9.40648,-2.06388 -4.20101,0.0943 -8.81163,2.23783 -11.35127,4.96122 -1.65003,-1.52967 -3.30642,-3.04246 -4.97445,-4.55109 2.83679,-3.10957 5.55315,-6.53734 7.7395,-9.93568 0.0661,-0.009 0.1326,-0.0174 0.19845,-0.0264 -1.07954,-4.16981 -5.79285,-7.85635 -8.82434,-10.7427 2.95045,-3.49685 4.68551,-14.86064 5.90054,-16.03466 -10.50122,2.9159 -20.48445,7.28095 -30.28328,11.98633 z m 15.09534,4.55109 c 2.09007,4.30096 5.62085,7.28348 9.11542,9.61816 -16.38825,5.21986 -23.12716,18.60378 -32.38685,29.88639 -8.86767,-6.66722 -16.12166,-14.47284 -21.49864,-24.19753 17.05761,-11.46659 33.26671,-23.28531 58.6747,-31.01093 -3.67971,6.11047 -8.39808,11.23176 -13.90463,15.70391 z m 117.09803,15.30702 c -6.44744,9.27863 -13.99696,16.63478 -21.48539,24.09169 -11.37273,-13.82894 -16.49568,-22.16598 -32.4001,-29.78055 3.49457,-2.33468 7.02535,-5.3172 9.11542,-9.61816 -6.24908,-4.52981 -10.15159,-10.0586 -13.90465,-15.70391 21.64779,6.15075 40.24793,18.58585 58.67472,31.01093 z M 517.1033,128.5237 c -1.3861,5.01352 -2.82701,10.18407 -5.25228,14.67199 l 8.50683,10.12089 c -2.6809,-0.0824 -5.36288,-0.2339 -8.04379,-0.54243 l -8.16286,-8.94343 c 2.294,0.17389 3.89534,1.01526 7.79242,-0.1323 l -0.0794,-0.42336 c -2.86265,0.47647 -5.24785,0.15138 -7.89826,0.11908 6.56819,-3.68036 9.52406,-9.46636 13.13732,-14.87044 z m 44.0424,0 c 3.61325,5.40408 6.56913,11.19008 13.13732,14.87044 -2.65041,0.0323 -5.03561,0.35739 -7.89827,-0.11908 l -0.0794,0.42336 c 3.89708,1.14756 5.49842,0.30619 7.79242,0.1323 l -8.16286,8.94343 c -2.6809,0.30853 -5.36289,0.46004 -8.04379,0.54243 l 8.50684,-10.12089 c -2.42527,-4.48792 -3.86618,-9.65847 -5.25228,-14.67199 z m -78.34759,8.38777 c 1.60438,-0.004 2.96743,0.85447 3.83668,2.68568 -2.26386,1.14808 -4.46206,2.31478 -6.57527,3.47947 l -1.73312,-3.26779 c 0.40553,-2.05489 2.61307,-2.77108 4.47171,-2.89736 z m 112.65278,0 c 1.917,0.0989 3.99416,0.86992 4.47171,2.89736 l -1.73312,3.26779 c -2.11321,-1.16468 -4.31142,-2.33139 -6.57527,-3.47947 0.86925,-1.83121 2.2323,-2.68985 3.83668,-2.68568 z m -83.00453,16.5374 c 2.93561,0.62893 5.57974,0.67141 8.05702,0.38367 -2.17827,3.10252 -5.43701,5.71724 -8.25547,9.08896 -1.14535,-0.82252 -1.95943,-2.03153 -3.10903,-2.77828 -4.52305,0.31991 -7.90644,1.32462 -8.69205,6.37682 1.04033,1.10597 2.05216,2.42676 3.04288,3.63822 -8.97966,7.70906 -18.95251,12.35617 -27.17426,17.82071 11.79912,-12.05537 20.87158,-28.52081 36.13092,-34.5301 l -10e-6,0 z m 53.35627,0 c 15.25934,6.00929 24.3318,22.47473 36.13092,34.5301 -8.22176,-5.46454 -18.1946,-10.11165 -27.17426,-17.82071 0.9912,-1.21423 1.98618,-2.41879 2.96351,-3.63822 l 0.0794,0 c 0.91959,-1.96714 -2.30606,-6.71664 -8.69205,-6.37682 -1.07007,0.88848 -2.07059,1.8536 -3.10904,2.77828 -3.07999,-2.39522 -4.48093,-6.58034 -8.25547,-9.08896 2.47728,0.28774 5.12142,0.24526 8.05702,-0.38367 z m -107.95615,5.62272 c 3.94307,9.36645 12.84404,17.06292 21.65738,24.25914 -1.64036,1.98633 -3.35597,3.8327 -5.22582,5.62725 -15.32733,-5.88577 -19.18776,-15.12855 -25.05747,-24.23721 2.9294,-1.86101 5.79286,-3.74689 8.62591,-5.64918 z m 162.55604,0 c 2.83304,1.90229 5.6965,3.78817 8.62591,5.64918 -5.86971,9.10866 -9.73014,18.35144 -25.05747,24.23721 -1.86986,-1.79455 -3.58546,-3.71576 -5.22582,-5.70209 7.74735,-7.68076 15.73581,-15.71716 21.65738,-24.1843 z m -111.03873,1.89188 8.08348,8.08348 c -3.0375,1.79715 -5.76306,4.09315 -8.36131,6.49589 -2.73505,-3.10814 -5.49216,-6.08978 -8.17609,-9.23448 1.0266,-3.8499 4.65805,-5.68042 8.45392,-5.34489 z m 60.56658,-0.0661 c 3.35282,0.0464 6.78942,1.96312 7.40876,5.41104 -4.49721,4.96907 -8.91658,10.07664 -13.41515,15.09534 -1.28073,-2.10097 -2.94239,-4.05681 -5.10674,-5.78148 -0.39227,-0.95586 -1.00178,-1.90893 -1.75958,-2.8312 3.41211,-2.23883 9.3342,-11.74765 12.87271,-11.8937 z m -33.97444,4.12773 c -0.23791,-0.0164 -0.4771,-0.0296 -0.71441,-0.0397 -5.60564,-0.23921 -11.23213,0.84871 -16.39188,3.41332 2.72124,-2.64231 7.2026,-4.03136 11.56296,-4.08805 1.88284,-0.0608 3.7289,0.24525 5.54333,0.71442 z m 6.35036,1.65375 -0.21167,0.14553 c 7.88273,18.5655 2.93774,41.88422 -5.47719,55.9361 l 0.33075,0.25137 c 10.39145,-13.85823 15.8657,-37.28388 5.72855,-56.30654 5.15901,-0.67258 11.19398,3.87355 13.77235,7.26322 -2.12747,-1.32221 -4.6351,-2.46541 -7.6072,-3.37363 l -0.15876,0.3969 c 12.1099,5.00079 16.79762,13.99055 17.96623,23.64187 1.16861,9.65131 -1.2215,19.94989 -3.37363,27.46532 l 0.41013,0.11907 c 1.61522,-5.64051 3.9094,-11.20183 4.41879,-18.93202 5.95099,2.97923 20.0914,7.95878 18.65419,17.2915 -5.99004,9.57505 -31.10695,9.71644 -40.9863,9.63139 -17.53903,-1.73476 -31.39743,-6.08861 -41.19797,-11.36451 -9.80054,-5.27589 -12.89657,-10.54302 -14.65876,-15.09534 -2.33789,-7.12214 1.87031,-11.13972 7.58075,-13.12408 -1.10212,1.83096 -2.14114,3.67616 -3.10903,5.51688 l 0.37044,0.19845 c 4.97444,-9.46031 12.67119,-17.55139 20.92973,-23.37727 5.93583,-4.18736 12.15935,-7.21022 18.77326,-7.40876 2.67165,-0.15492 5.28582,0.42591 7.84534,1.12455 z m -21.7103,12.74041 c -2.99403,2.28523 -8.62429,2.79398 -10.72946,6.16514 -1.18255,2.18935 -2.94588,5.14145 -5.63595,5.59626 0.50268,1.07842 0.82763,2.22074 1.24362,3.66469 -0.0433,0.0902 -1.65523,4.9492 -2.28878,7.91149 0.73338,4.73859 8.85076,7.95677 12.58165,9.64461 4.53354,1.43652 3.28966,-6.27531 4.08805,-8.8905 1.40431,-1.00137 2.8028,-1.80922 4.20711,-1.69343 -0.69568,-1.50572 -1.48152,-1.29211 -1.78603,-3.86314 0.91945,-2.76795 3.56178,-4.655 1.94479,-7.79242 -1.22733,-3.56284 -2.90095,-6.67659 -3.625,-10.7427 z m -0.95255,1.75958 c 0.13775,0.41312 1.69757,6.10875 3.54562,9.19479 1.55745,2.87563 -1.11231,5.03813 -1.86542,7.59398 0.46214,2.40045 1.32706,2.71184 1.32299,2.87089 -1.57945,0.68009 -2.77375,0.23381 -3.625,2.51369 -1.06286,2.21408 0.92731,9.15987 -3.25456,7.81888 -3.19625,-1.85507 -10.90221,-3.52997 -11.35127,-8.30839 0.7101,-2.81512 1.06305,-5.48621 2.28878,-8.10994 l 0.0264,-0.0397 0,-0.0397 c -0.12054,-1.31663 -0.17939,-2.36678 -1.17746,-3.17517 2.54795,-0.93996 3.84989,-2.86597 5.01414,-5.2126 2.22375,-2.89383 5.98984,-3.32682 9.07573,-5.10674 l 1e-5,0 z m -4.76277,8.83758 c -2.64801,0 -5.34791,2.56019 -6.00639,5.7021 -0.65847,3.14191 0.96377,5.7021 3.61177,5.7021 2.648,0 5.33468,-2.56019 5.99316,-5.7021 0.65847,-3.14191 -0.95055,-5.7021 -3.59854,-5.7021 z m -0.5292,1.323 c 2.43795,0 3.29192,1.69809 2.68567,4.59078 -0.60624,2.89269 -1.90146,4.27327 -4.33941,4.27327 -2.43795,0 -3.41099,-1.48642 -2.80474,-4.37911 0.60623,-2.89268 2.02053,-4.48494 4.45848,-4.48494 z m -6.11222,30.25683 c 4.11186,1.96157 8.79479,3.78418 14.05017,5.34489 -5.145,5.58745 -10.28916,11.17924 -15.41285,16.78877 0.47203,-3.27697 -0.177,-5.59401 -3.57208,-7.59398 -2.42866,-1.57649 -5.60892,-2.89555 -8.65237,-0.96578 l 13.58713,-13.5739 z m 68.39869,6.62819 6.95894,6.94571 c -3.04345,-1.92977 -6.22371,-0.61071 -8.65237,0.96578 -3.39508,1.99997 -4.04411,4.31701 -3.57208,7.59398 -3.88279,-4.25097 -7.77201,-8.49067 -11.66879,-12.72719 5.52529,-0.49089 11.63431,-1.36088 16.9343,-2.77828 z m -73.78327,8.37454 c 2.07859,1.39006 4.05584,3.9089 3.53239,7.66012 -2.19355,2.33641 -5.9639,1.93543 -8.46715,0.44982 -2.18915,-1.71748 -3.31056,-4.76182 -3.41332,-8.67883 2.68223,-1.54342 5.79226,-0.92292 8.34808,0.56889 z m 77.4215,-1.48175 c 1.21177,-0.002 2.42015,0.26946 3.46624,0.91286 -0.10277,3.91701 -1.22418,6.96135 -3.41332,8.67883 -2.37361,1.62815 -6.38858,1.81217 -8.46715,-0.44982 -0.52346,-3.75122 1.4538,-6.27006 3.53239,-7.66012 1.31135,-0.87696 3.10169,-1.47823 4.88184,-1.48175 z"
           id="path3223"
           inkscape:export-xdpi="90"
           inkscape:export-ydpi="90"
           sodipodi:nodetypes="cccccccccccsccccccccccccccccccsccccccccccccccccccccccccccccccccccccccccccccccccccccccccccccccccccccccccccccccccccccccccccccccccccccccccscccccccccccscccccsccccsccccccccccccccccccccccccccccsssccsssccccccccccccccccccccccsc"
           inkscape:connector-curvature="0" />
        <path
           id="path3335"
           d="m 595.19952,184.32751 c -0.44214,1.74363 -0.97071,3.39353 -1.64051,4.89507 3.58293,6.51233 10.29111,7.54021 15.46578,3.82345 -3.29405,9.79976 -10.02314,17.29531 -20.83713,22.09397 0.11781,0.18778 0.23836,0.37675 0.34398,0.56888 10.3252,-3.63513 18.47181,-8.11661 21.26048,-23.58895 -4.5382,2.78084 -13.29295,1.82247 -15.37317,-2.51368 0.64712,-1.47261 1.15097,-3.08563 1.56114,-4.78923 -0.26071,-0.16286 -0.51995,-0.32666 -0.78057,-0.48951 z"
           style="font-size:medium;font-style:normal;font-variant:normal;font-weight:normal;font-stretch:normal;text-indent:0;text-align:start;text-decoration:none;line-height:normal;letter-spacing:normal;word-spacing:normal;text-transform:none;direction:ltr;block-progression:tb;writing-mode:lr-tb;text-anchor:start;color:#000000;fill:#000000;fill-opacity:1;stroke:none;stroke-width:1px;marker:none;visibility:visible;display:inline;overflow:visible;enable-background:accumulate;font-family:Bitstream Vera Sans;-inkscape-font-specification:Bitstream Vera Sans"
           inkscape:connector-curvature="0" />
        <path
           id="path3331"
           d="m 467.1868,186.8412 c -5.5107,1.69762 -14.27041,3.77139 -19.79196,1.13777 -0.0792,10.98019 6.98622,17.58305 16.78877,19.71258 l 29.13229,4.20712 c -0.4499,-0.41257 -0.89143,-0.82147 -1.29654,-1.23039 -8.38214,-0.82148 -19.06843,-2.50222 -27.33301,-4.03512 -9.6835,-1.44089 -14.91704,-7.07456 -15.88914,-16.6697 6.0256,1.74858 13.30784,-0.45797 18.95848,-2.84444 -0.18855,-0.0959 -0.38451,-0.18047 -0.56889,-0.27782 z"
           style="font-size:medium;font-style:normal;font-variant:normal;font-weight:normal;font-stretch:normal;text-indent:0;text-align:start;text-decoration:none;line-height:normal;letter-spacing:normal;word-spacing:normal;text-transform:none;direction:ltr;block-progression:tb;writing-mode:lr-tb;text-anchor:start;color:#000000;fill:#000000;fill-opacity:1;stroke:none;stroke-width:1px;marker:none;visibility:visible;display:inline;overflow:visible;enable-background:accumulate;font-family:Bitstream Vera Sans;-inkscape-font-specification:Bitstream Vera Sans"
           inkscape:connector-curvature="0" />
      </g>
    </g>
  </g>
</svg>
