<?xml version="1.0" encoding="UTF-8" standalone="no"?>
<!-- Created with Inkscape (http://www.inkscape.org/) -->

<svg
   xmlns:dc="http://purl.org/dc/elements/1.1/"
   xmlns:cc="http://creativecommons.org/ns#"
   xmlns:rdf="http://www.w3.org/1999/02/22-rdf-syntax-ns#"
   xmlns:svg="http://www.w3.org/2000/svg"
   xmlns="http://www.w3.org/2000/svg"
   xmlns:sodipodi="http://sodipodi.sourceforge.net/DTD/sodipodi-0.dtd"
   xmlns:inkscape="http://www.inkscape.org/namespaces/inkscape"
   width="128"
   height="128"
   id="svg2"
   version="1.1"
   inkscape:version="0.48.0 r9654"
   sodipodi:docname="firefight02.svg"
   inkscape:export-filename="firefight02.png"
   inkscape:export-xdpi="90"
   inkscape:export-ydpi="90">
  <defs
     id="defs4" />
  <sodipodi:namedview
     id="base"
     pagecolor="#ffffff"
     bordercolor="#666666"
     borderopacity="1.0"
     inkscape:pageopacity="0.0"
     inkscape:pageshadow="2"
     inkscape:zoom="1"
     inkscape:cx="27.163214"
     inkscape:cy="54.284087"
     inkscape:document-units="px"
     inkscape:current-layer="g2891"
     showgrid="false"
     inkscape:window-width="1488"
     inkscape:window-height="974"
     inkscape:window-x="184"
     inkscape:window-y="24"
     inkscape:window-maximized="0" />
  <metadata
     id="metadata7">
    <rdf:RDF>
      <cc:Work
         rdf:about="">
        <dc:format>image/svg+xml</dc:format>
        <dc:type
           rdf:resource="http://purl.org/dc/dcmitype/StillImage" />
        <dc:title></dc:title>
      </cc:Work>
    </rdf:RDF>
  </metadata>
  <g
     inkscape:label="Layer 1"
     inkscape:groupmode="layer"
     id="layer1"
     transform="translate(-8.4541098,-245.64982)">
    <g
       id="g2891"
       transform="matrix(0.96855216,0,0,0.96855216,22.146796,-7.220959)">
      <g
         transform="matrix(-0.44358326,0.10569204,0.10569204,0.44358326,-60.606343,331.23641)"
         id="g2900">
        <path
           style="color:#000000;fill:#e6e6e6;fill-opacity:1;stroke:none;stroke-width:1px;marker:none;visibility:visible;display:inline;overflow:visible;enable-background:accumulate"
           d="m -185.78523,-42.464642 c -1.18101,10.629065 -15.35467,39.1709888 -25.29549,55.753321 -21.02394,35.070129 -51.21839,77.246536 -73.82153,105.569941 -11.53561,14.45498 -23.74813,45.43415 -35.10394,61.69002 0,0 21.83556,-0.84009 22.97243,-2.58117 1.20575,-1.84655 -0.8732,-11.43771 1.29059,-16.5195 19.20797,-45.11118 44.70829,-67.569941 67.11048,-101.181956 20.82146,-31.748419 36.58438,-58.4383024 62.46437,-95.245256 l -19.61691,-7.4854 z"
           id="path2902"
           sodipodi:nodetypes="csscssccc"
           inkscape:connector-curvature="0" />
        <path
           style="color:#000000;fill:#ff0000;fill-opacity:1;stroke:none;stroke-width:1px;marker:none;visibility:visible;display:inline;overflow:visible;enable-background:accumulate"
           d="m -209.14484,-73.696826 c 21.57154,0.05675 33.56012,6.031542 47.88074,11.615275 14.25405,5.557775 25.46673,9.136147 37.427,14.454565 5.58883,2.485201 4.64768,4.932409 3.87176,6.711048 -4.44334,10.185508 -13.69119,27.158765 -16.77762,27.102308 -2.65088,-0.0485 -16.33052,-10.609468 -25.5536,-16.519502 -2.13408,-1.367482 -4.30196,-2.826497 -6.45294,-2.839289 l -21.93996,-12.13151 4.64611,-10.324689 c 2.25331,-9.75347 -14.90636,-12.002419 -23.10149,-18.068206 z"
           id="path2904"
           sodipodi:nodetypes="cssssscccc"
           inkscape:connector-curvature="0" />
      </g>
      <g
         id="g2906"
         transform="matrix(0.61099511,0.13804652,-0.13804652,0.61099511,339.80181,189.46131)" />
      <g
         id="g3754"
         transform="matrix(0.445935,0.09528322,-0.09528322,0.445935,164.76489,327.84754)">
        <path
           sodipodi:nodetypes="csscssccc"
           id="path3756"
           d="m -185.78523,-42.464642 c -1.18101,10.629065 -15.35467,39.1709888 -25.29549,55.753321 -21.02394,35.070129 -51.21839,77.246536 -73.82153,105.569941 -11.53561,14.45498 -23.74813,45.43415 -35.10394,61.69002 0,0 21.83556,-0.84009 22.97243,-2.58117 1.20575,-1.84655 -0.8732,-11.43771 1.29059,-16.5195 19.20797,-45.11118 44.70829,-67.569941 67.11048,-101.181956 20.82146,-31.748419 36.58438,-58.4383024 62.46437,-95.245256 l -19.61691,-7.4854 z"
           style="color:#000000;fill:#e6e6e6;stroke:none;stroke-width:1px;marker:none;visibility:visible;display:inline;overflow:visible;enable-background:accumulate"
           inkscape:connector-curvature="0" />
        <path
           sodipodi:nodetypes="cssssscccc"
           id="path3758"
           d="m -209.14484,-73.696826 c 21.57154,0.05675 33.56012,6.031542 47.88074,11.615275 14.25405,5.557775 25.46673,9.136147 37.427,14.454565 5.58883,2.485201 4.64768,4.932409 3.87176,6.711048 -4.44334,10.185508 -13.69119,27.158765 -16.77762,27.102308 -2.65088,-0.0485 -16.33052,-10.609468 -25.5536,-16.519502 -2.13408,-1.367482 -4.30196,-2.826497 -6.45294,-2.839289 l -21.93996,-12.13151 4.64611,-10.324689 c 2.25331,-9.75347 -14.90636,-12.002419 -23.10149,-18.068206 z"
           style="color:#000000;fill:#ff0000;fill-opacity:1;stroke:none;stroke-width:1px;marker:none;visibility:visible;display:inline;overflow:visible;enable-background:accumulate"
           inkscape:connector-curvature="0" />
      </g>
      <path
         style="font-size:medium;font-style:normal;font-variant:normal;font-weight:normal;font-stretch:normal;text-indent:0;text-align:start;text-decoration:none;line-height:normal;letter-spacing:normal;word-spacing:normal;text-transform:none;direction:ltr;block-progression:tb;writing-mode:lr-tb;text-anchor:start;baseline-shift:baseline;color:#000000;fill:#000000;fill-opacity:1;stroke:none;stroke-width:1.03246891;marker:none;visibility:visible;display:inline;overflow:visible;enable-background:accumulate;font-family:Sans;-inkscape-font-specification:Sans"
         d="m 77.459868,274.46194 0.752229,0.8624 c 1.606562,1.8203 4.285276,3.34401 6.252905,4.92819 1.549832,1.23935 3.389067,3.1648 2.622998,4.9785 -1.089248,1.48696 -2.48655,2.81805 -3.546669,4.32517 0.694301,0.52181 1.603198,0.93263 2.259638,1.50117 -4.520958,8.35682 -10.294776,15.45316 -16.694211,22.35161 -5.215197,5.59202 -11.244631,11.57126 -17.414075,17.40201 -6.019427,-5.45151 -11.886934,-11.02432 -17.00127,-16.25715 -3.069694,-3.14082 -6.910218,-7.48458 -10.203301,-11.62575 -3.207852,-4.03396 -5.907499,-7.90906 -6.765361,-10.11716 0.646488,-0.60411 1.307546,-1.19248 1.979885,-1.76558 -1.077383,-1.47583 -2.587462,-2.85424 -3.706586,-4.29929 -0.275217,-2.13298 1.213635,-3.81612 2.565462,-4.98021 1.930022,-1.6298 4.54008,-3.21539 6.10361,-5.07279 l 0.731843,-0.87977 -1.126165,0.27132 c -9.629875,2.32129 -14.3655312,6.25887 -20.1115204,10.23806 -5.7254935,3.96497 -10.2641226,7.05338 -15.0269506,10.6916 -1.546974,1.25792 -1.973935,1.63479 -1.031613,3.30977 1.989558,2.885 8.9119538,10.8269 10.5716363,10.68245 0.2642622,-0.0681 0.49844241,-0.21155 0.76939084,-0.42847 3.22317326,-2.94958 6.01484466,-6.58827 9.01776986,-9.72105 0.5816259,-0.60342 1.2034212,-1.29187 1.76883,-1.64187 15.311637,12.99081 24.960869,23.13504 36.727251,34.87801 0.214522,0.19946 0.405201,0.37671 0.619782,0.57355 -7.527722,6.96397 -15.038361,13.52391 -21.399517,18.73932 -3.311942,2.71541 -7.057207,7.23543 -10.799928,11.83925 -3.880648,4.40419 -7.2654467,9.17335 -11.3363083,12.87806 4.0160295,0.43996 8.1243443,1.22922 11.5961853,1.05813 1.266758,-2.22227 0.927851,-5.38153 2.141166,-7.2851 11.02385,-15.67083 22.552611,-23.46396 33.971787,-33.53559 11.94331,10.17286 23.920502,17.66719 35.594726,33.46369 1.377074,2.31209 1.279084,5.00711 2.375576,7.23225 3.784698,0.46466 8.227785,-0.73124 11.535987,-1.32887 -4.436978,-4.03255 -8.326753,-8.7279 -11.634552,-12.60927 -3.849429,-4.51498 -7.699431,-8.94612 -11.074009,-11.58328 -6.71545,-5.24799 -14.714711,-11.90652 -22.679666,-18.96566 0.47835,-0.45239 0.958179,-0.90649 1.435955,-1.37201 12.033823,-11.90057 21.497606,-22.09773 35.948652,-35.55928 0.57286,0.3368 1.164552,0.87464 1.759538,1.46369 1.762602,1.74498 3.946881,4.14621 5.815202,6.12719 1.42167,1.4174 2.76901,2.37931 4.58208,3.83407 3.66826,-3.41061 8.50686,-7.56356 10.64593,-12.27258 -0.0694,-0.69698 -0.68578,-1.13012 -1.85687,-1.98206 -4.84665,-3.52576 -9.41031,-6.47539 -15.227012,-10.3053 -5.837545,-3.84365 -10.697044,-7.73348 -20.378603,-9.8288 z m 1.160982,0.64931 c 8.364131,2.13094 14.535722,6.16594 20.025794,9.7808 5.836926,3.84324 10.556366,6.74792 15.363196,10.24472 1.08437,0.78883 1.23161,1.33372 1.2708,1.72754 -0.0921,1.84208 -6.63638,9.63763 -10.0628,11.41115 -1.53847,-0.88769 -2.7926,-2.4484 -3.84925,-3.56884 -2.327462,-3.45217 -7.074517,-6.82607 -8.482995,-7.99972 -12.108555,12.01669 -23.956347,24.24798 -36.072794,35.98019 -0.493189,0.48054 -0.973528,0.93791 -1.467839,1.40465 -1.025684,-0.91153 -2.045053,-1.84995 -3.065514,-2.77134 6.163526,-5.82385 12.166788,-11.8098 17.381812,-17.40164 7.163035,-6.91079 11.841994,-15.12518 16.867092,-22.78417 l -1.956133,-1.71952 2.826432,-3.87283 c 0.52742,-2.50404 -0.969136,-4.65694 -2.489147,-5.90798 -1.575997,-1.26887 -4.818302,-3.27032 -6.288654,-4.52301 z m -54.337092,1.37797 c -1.440638,1.28674 -4.635209,3.36353 -6.181094,4.66893 -1.844294,1.5327 -3.425159,3.77642 -2.415499,5.90083 1.528121,2.288 2.944671,3.01372 3.126263,3.64019 0.16659,0.57472 -0.778105,1.09567 -2.091945,2.02668 2.357408,3.95787 4.822784,7.70941 7.158928,10.66109 3.311208,4.16394 7.815369,8.56349 10.907878,11.72766 5.110891,5.22931 10.320164,10.77772 16.329711,16.21939 -1.000648,0.94283 -1.99524,1.91044 -2.999825,2.84232 -0.230885,-0.21154 -0.454333,-0.42281 -0.685062,-0.63732 -14.005023,-12.38825 -25.461226,-25.53895 -36.946522,-34.98332 -0.9618612,0.40429 -1.5272548,1.2935 -2.1693439,1.9236 -3.1982945,3.33587 -6.1040755,6.47162 -9.366236,9.52369 -0.2374946,0.19014 -0.4198436,0.28831 -0.4482766,0.29565 -3.696242,-1.66775 -8.3798625,-7.74025 -9.8951955,-10.11281 -0.956446,-1.22933 -0.207547,-2.27857 0.582473,-2.89193 4.7237001,-3.60832 9.6508356,-6.35209 15.3962299,-10.33086 5.403966,-3.74232 11.3855371,-8.14771 19.6975161,-10.47379 z m 27.388744,55.35455 c 1.026606,0.92679 2.065845,1.85413 3.097776,2.77097 -1.007078,0.94054 -2.022388,1.84935 -3.03322,2.74591 -1.02764,-0.88096 -2.03977,-1.77816 -3.064759,-2.70682 1.004611,-0.93168 1.999591,-1.86746 3.000203,-2.81006 z m -3.542624,3.33267 c 1.015285,0.92095 2.015959,1.80191 3.032119,2.67494 -11.364343,9.99776 -22.581255,17.95214 -33.650582,33.68763 -1.393918,2.42643 -1.587263,4.74437 -2.398601,7.06778 -3.437169,0.0868 -6.9771571,-0.52618 -10.1216357,-0.82832 3.2216228,-3.10961 7.4063257,-7.67106 10.9711407,-12.05605 3.739748,-4.60017 7.462886,-9.07725 10.672388,-11.70868 6.389447,-5.23859 13.936595,-11.8468 21.495171,-18.83725 z m 7.194525,-0.0842 c 7.996627,7.08515 16.258399,13.55972 23.003045,18.83051 3.270193,2.55562 6.871999,7.20742 10.718367,11.71881 3.666451,4.30036 8.016261,8.80758 11.309765,11.84096 -3.236798,0.38409 -6.896024,1.49601 -10.273243,1.34082 -1.300032,-2.37587 -1.261335,-5.57 -2.52847,-7.45309 -11.728075,-15.86937 -23.381988,-23.43249 -35.262736,-33.5321 1.007712,-0.89593 2.027337,-1.80485 3.03322,-2.74591 z"
         id="path3012"
         inkscape:connector-curvature="0"
         sodipodi:nodetypes="ccccccccsscccccccsccccccccscccccccccscccscccsscccssccccccccccccccccsccscccccccccscccccccccccsscccsccccccc" />
      <path
         style="font-size:medium;font-style:normal;font-variant:normal;font-weight:normal;font-stretch:normal;text-indent:0;text-align:start;text-decoration:none;line-height:normal;letter-spacing:normal;word-spacing:normal;text-transform:none;direction:ltr;block-progression:tb;writing-mode:lr-tb;text-anchor:start;color:#000000;fill:#ff0000;fill-opacity:1;stroke:none;stroke-width:1px;marker:none;visibility:visible;display:inline;overflow:visible;enable-background:accumulate;font-family:Bitstream Vera Sans;-inkscape-font-specification:Bitstream Vera Sans"
         d="m 66.007965,302.66503 c -9.749869,-0.0244 -19.435889,2.95147 -26.40038,10.21724 -3.644936,2.66294 -8.610109,3.97023 -12.260675,6.71753 -5.401416,4.33472 -10.471642,12.36105 -13.505533,26.84665 -0.32423,0.10117 -5.1328644,1.60867 -9.9823496,3.82852 -10.201151,3.5262 -13.7419445,12.17226 0,13.12974 4.7678144,0.20659 10.8886296,-0.69501 17.3105686,-2.11391 12.843875,-2.83784 26.898317,-7.77131 33.540697,-10.26421 2.934874,-0.7864 6.02297,-0.83679 9.042836,-1.00998 11.684029,-1.88439 29.287789,2.48936 37.416201,-7.39868 -1.509109,-3.94143 -10.735218,-4.29874 -14.210173,-4.6506 0.906162,-4.36824 2.232472,-8.13723 -1.526711,-12.77741 0.108949,-4.09757 0.30029,-8.83567 -1.1744,-13.576 -4.744494,-3.13431 -11.165587,-6.05657 -14.069237,-8.76098 -1.387387,-0.12234 -2.788016,-0.18441 -4.180844,-0.18791 z"
         id="path3772"
         inkscape:connector-curvature="0" />
      <path
         style="font-size:medium;font-style:normal;font-variant:normal;font-weight:normal;font-stretch:normal;text-indent:0;text-align:start;text-decoration:none;line-height:normal;letter-spacing:normal;word-spacing:normal;text-transform:none;direction:ltr;block-progression:tb;writing-mode:lr-tb;text-anchor:start;color:#000000;fill:#000000;fill-opacity:1;stroke:none;stroke-width:1px;marker:none;visibility:visible;display:inline;overflow:visible;enable-background:accumulate;font-family:Bitstream Vera Sans;-inkscape-font-specification:Bitstream Vera Sans"
         d="m 58.280451,306.49356 c -5.805062,4.58025 -9.243846,9.69433 -9.958862,15.40805 -0.715017,5.71374 1.074467,11.56243 1.926006,17.54545 l 0.281856,0 c -0.85254,-5.98997 -1.30734,-12.07251 -0.610686,-17.6394 0.69664,-5.56688 2.607261,-10.5191 8.267736,-14.98526 l 0.09395,-0.32884 z m -14.468535,3.82852 c -0.707719,0.47276 -0.831471,-0.61172 -2.207861,1.64416 -2.346526,8.98209 -2.401386,18.73047 -2.818546,27.99755 l 0.751612,0 c -0.111516,-9.55914 0.822377,-20.54606 4.274795,-29.64171 z m 11.109768,31.63819 c -7.246563,2.25739 -13.900579,1.97207 -20.105627,2.25482 -6.205047,0.28278 -12.5346,-0.76398 -18.273573,1.87904 -1.013279,1.34438 -0.570872,2.77165 0.798588,2.11391 5.544065,-2.66272 11.301648,-2.95894 17.498474,-3.24133 6.196824,-0.28239 12.865413,-0.47956 20.223065,-2.77157 l -0.140927,-0.23487 z"
         id="path2926"
         sodipodi:nodetypes="csccsccccccccccsccc"
         inkscape:connector-curvature="0" />
      <path
         style="font-size:medium;font-style:normal;font-variant:normal;font-weight:normal;font-stretch:normal;text-indent:0;text-align:start;text-decoration:none;line-height:normal;letter-spacing:normal;word-spacing:normal;text-transform:none;direction:ltr;block-progression:tb;writing-mode:lr-tb;text-anchor:start;color:#000000;fill:#ffffff;fill-opacity:1;stroke:none;stroke-width:1px;marker:none;visibility:visible;display:inline;overflow:visible;enable-background:accumulate;font-family:Bitstream Vera Sans;-inkscape-font-specification:Bitstream Vera Sans"
         d="m 70.716943,307.00017 c -3.492073,2.57745 -6.97427,2.41787 -8.297333,6.50015 5.263076,11.99094 3.43547,12.83456 5.535775,19.3037 1.382447,2.99856 3.869427,6.84257 7.498043,6.58202 4.111468,-0.49599 5.811365,-1.47474 9.69521,-2.78366 0.621538,-4.17069 0.844422,-7.56833 -1.440832,-11.33797 -0.491449,-4.00842 -0.616858,-8.32108 -1.174392,-13.12638 -4.264256,-2.39462 -4.241179,0.25517 -11.816471,-5.13786 z m 3.20644,7.43229 c 2.080118,0.11081 4.777952,2.69105 5.73104,5.44919 1.089248,3.15216 -0.135738,7.18316 -2.254832,7.91542 -2.119101,0.73227 -5.299462,-1.70984 -6.388707,-4.86199 -1.089244,-3.15216 -0.05216,-7.65291 2.066934,-8.38517 0.264881,-0.0915 0.548405,-0.13328 0.845565,-0.11745 z m 0.516732,1.90253 c -0.23448,0.009 -0.45561,0.063 -0.681152,0.14092 -1.804302,0.62349 -2.524609,3.28202 -1.597173,5.96592 0.927445,2.68391 3.128142,4.33458 4.932459,3.71109 1.804303,-0.62349 2.524612,-3.28201 1.597172,-5.96593 -0.811504,-2.34841 -2.609917,-3.91624 -4.251306,-3.852 z"
         id="path3781"
         sodipodi:nodetypes="cccccccccssssccssssc"
         inkscape:connector-curvature="0" />
      <path
         style="font-size:medium;font-style:normal;font-variant:normal;font-weight:normal;font-stretch:normal;text-indent:0;text-align:start;text-decoration:none;line-height:normal;letter-spacing:normal;word-spacing:normal;text-transform:none;direction:ltr;block-progression:tb;writing-mode:lr-tb;text-anchor:start;baseline-shift:baseline;color:#000000;fill:#000000;fill-opacity:1;stroke:none;stroke-width:1px;marker:none;visibility:visible;display:inline;overflow:visible;enable-background:accumulate;font-family:Bitstream Vera Sans;-inkscape-font-specification:Bitstream Vera Sans"
         d="m 77.625,39.90625 c -9.491558,-0.02383 -18.95771,2.888624 -25.78125,9.96875 -0.01896,0.01966 -0.0436,0.01149 -0.0625,0.03125 -3.444292,2.488753 -8.248097,3.76278 -11.84375,6.46875 l 0,0.03125 c -5.287441,4.243246 -10.201222,12.058253 -13.15625,26 -0.572596,0.179695 -4.927337,1.563102 -9.5,3.65625 -4.987302,1.735771 -8.5006599,5.12126 -8.96875,8 0.1589772,10.01115 19.736618,4.477369 25.9375,3.125 12.472112,-2.755705 26.18128,-7.425401 32.625,-9.84375 9.078346,-1.687528 19.454351,-1.104536 28,-1.53125 7.32199,-1.398046 12.31401,-0.732912 17.21875,-6.78125 -3.28474,-4.274801 -9.26493,-4.484032 -13.71875,-4.875 1.22865,-4.435183 0.924508,-8.89824 -1.5625,-12.125 0.105734,-3.950744 0.287378,-8.547012 -1.15625,-13.1875 C 90.605181,46.047381 85.550926,43.442016 81.9375,40.1875 L 81.84375,40.125 81.6875,40.09375 c -1.354379,-0.119432 -2.703277,-0.184081 -4.0625,-0.1875 z m 0,0.71875 c 1.301081,0.0039 2.609992,0.07639 3.90625,0.1875 2.927432,2.66469 9.315421,5.4548 13.8125,8.40625 1.36719,4.479505 1.01099,8.935753 0.90625,12.875 2.71546,4.303975 2.462203,8.006119 1.5625,12.4375 4.52659,0.95733 10.77343,0.553648 13.625,4.53125 -3.84716,4.493404 -10.1033,5.672682 -16.625,6.03125 -9.736492,1.173667 -18.923063,-0.510093 -27.90625,1.8125 C 55.73898,90.25873 44.108796,94.490419 34.0625,96.8125 30.604001,97.766797 7.871105,102.27329 9.09375,93.75 c 0.3876897,-2.384285 3.571854,-5.349349 8.4375,-7.03125 l 0.03125,0 0.03125,0 c 4.670888,-2.138098 9.315588,-3.590955 9.625,-3.6875 2.31751,-12.043616 6.143761,-19.883882 13.1875,-26.0625 3.453396,-2.598906 8.232113,-3.861383 11.84375,-6.5 7.605113,-6.754341 16.897538,-9.838922 25.375,-9.84375 z m 4.5625,3.25 c -3.153376,2.04809 -7.389957,3.49976 -8.5,6.75 1.215022,3.953589 3.28985,8.103874 4,11.71875 0.587863,5.144199 2.727879,13.80194 9,13.71875 C 90.522575,75.560266 93.81795,74.443445 96.59375,73.5 96.976131,69.185377 96.8767,65.022368 95.25,62.125 95.2488,62.1163 94.8136,62.22785 94.8125,62.21875 94.267096,57.573444 94.532286,53.004357 94.09375,49.125 89.955835,47.553415 85.713618,47.819622 82.1875,43.875 z m 0.03125,0.71875 c 3.000257,3.130832 8.128822,3.700524 10.96875,5.1875 0.508462,4.511022 0.624164,8.607399 1.09375,12.4375 l 0,0.125 0.0625,0.09375 c 2.086226,3.441334 2.188986,6.749397 1.625,10.625 -3.526347,1.211891 -5.270637,2.198813 -9.0625,2.65625 -6.975501,-1.557186 -7.935916,-8.350412 -8.875,-13.5625 -0.447127,-2.429342 -1.386616,-5.673163 -3.84375,-11.3125 1.754258,-3.118733 5.436759,-4.456766 8.03125,-6.25 z M 85.125,51.4375 c -1.984553,-0.0016 -2.514923,2.16431 -2.875,3.59375 -0.788796,3.611099 0.170192,6.556842 3.053998,8.810279 2.955041,2.06328 4.976647,0.481222 5.894225,-2.546415 0.448561,-1.53993 0.371531,-2.918348 -0.195082,-4.558058 -1.1585,-2.714983 -2.904658,-5.10294 -5.878141,-5.299556 z m 0.15625,0.34375 c 0.81907,0.04368 3.146066,1.768217 4.112437,2.688801 0.08971,0.08546 1.434061,2.595781 1.715475,3.545177 0.118394,0.399421 -0.715159,-0.277619 -0.678863,-0.238578 -1.084367,-3.054499 -3.58314,-4.796894 -5.284772,-4.456567 -1.055804,0.364844 -1.562437,1.168292 -1.872779,2.323223 -0.418256,2.6839 0.314198,5.415074 2.411611,7.036611 2.132043,1.362144 3.754913,0.554553 4.519226,-1.650888 -0.01083,0.0432 0.10563,-2.914249 0.692566,-2.835194 0.649585,0.08749 -0.181211,3.308246 -0.193486,3.350359 -0.849966,2.725845 -3.195091,3.537911 -5.158471,2.077665 -2.381799,-2.116485 -3.648181,-5.593676 -2.981694,-8.559359 0.501069,-1.613011 1.325742,-2.92092 2.71875,-3.28125 z m 4.465609,5.492417 c 0.420376,1.216531 0.425365,2.76393 0.174556,3.697304 -0.651113,1.887108 -2.746573,2.580014 -4.160692,1.546415 -1.667049,-1.624753 -2.877209,-4.605703 -2.301776,-6.876301 0.250809,-0.933374 1.029214,-1.706044 1.72097,-1.945083 2.038757,-0.125298 4.083494,2.257056 4.566942,3.577665 z"
         transform="matrix(1.0324689,0,0,1.0324689,-14.137273,261.08122)"
         id="path3811"
         inkscape:connector-curvature="0"
         sodipodi:nodetypes="scccccccccccccccccscccccccccccccccccccccccccccccccccccccccccccsscccccscccccccccc" />
    </g>
  </g>
</svg>
