<?xml version="1.0" encoding="UTF-8" standalone="no"?>
<!-- Created with Inkscape (http://www.inkscape.org/) -->

<svg
   xmlns:dc="http://purl.org/dc/elements/1.1/"
   xmlns:cc="http://creativecommons.org/ns#"
   xmlns:rdf="http://www.w3.org/1999/02/22-rdf-syntax-ns#"
   xmlns:svg="http://www.w3.org/2000/svg"
   xmlns="http://www.w3.org/2000/svg"
   xmlns:xlink="http://www.w3.org/1999/xlink"
   xmlns:sodipodi="http://sodipodi.sourceforge.net/DTD/sodipodi-0.dtd"
   xmlns:inkscape="http://www.inkscape.org/namespaces/inkscape"
   width="128"
   height="128"
   id="svg2"
   version="1.1"
   inkscape:version="0.48.1 r9760"
   sodipodi:docname="happy-star.svg"
   inkscape:export-filename="happy-star.svg.png"
   inkscape:export-xdpi="90"
   inkscape:export-ydpi="90">
  <defs
     id="defs4">
    <linearGradient
       id="linearGradient3865">
      <stop
         style="stop-color:#000000;stop-opacity:0;"
         offset="0"
         id="stop3867" />
      <stop
         style="stop-color:#000000;stop-opacity:0.23913044;"
         offset="1"
         id="stop3869" />
    </linearGradient>
    <linearGradient
       id="linearGradient3766">
      <stop
         style="stop-color:#ffbd00;stop-opacity:1;"
         offset="0"
         id="stop3768" />
      <stop
         style="stop-color:#ffeb00;stop-opacity:1;"
         offset="1"
         id="stop3770" />
    </linearGradient>
    <linearGradient
       inkscape:collect="always"
       xlink:href="#linearGradient3766"
       id="linearGradient3772"
       x1="-141.78847"
       y1="-0.12723064"
       x2="-172.57693"
       y2="-103.85877"
       gradientUnits="userSpaceOnUse" />
    <filter
       inkscape:collect="always"
       id="filter3788">
      <feGaussianBlur
         inkscape:collect="always"
         stdDeviation="1.4823959"
         id="feGaussianBlur3790" />
    </filter>
    <filter
       inkscape:collect="always"
       id="filter3802">
      <feGaussianBlur
         inkscape:collect="always"
         stdDeviation="2.6826697"
         id="feGaussianBlur3804" />
    </filter>
    <filter
       inkscape:collect="always"
       id="filter3836">
      <feGaussianBlur
         inkscape:collect="always"
         stdDeviation="2.8460998"
         id="feGaussianBlur3838" />
    </filter>
    <radialGradient
       inkscape:collect="always"
       xlink:href="#linearGradient3865"
       id="radialGradient3903"
       gradientUnits="userSpaceOnUse"
       gradientTransform="matrix(-0.58676718,-0.84792605,1.1281985,-0.78071602,12.380687,160.20833)"
       cx="59.060104"
       cy="63.486603"
       fx="59.060104"
       fy="63.486603"
       r="9.7913771" />
    <linearGradient
       inkscape:collect="always"
       xlink:href="#linearGradient3865"
       id="linearGradient3940"
       x1="61.429901"
       y1="71.961784"
       x2="63.020893"
       y2="80.1819"
       gradientUnits="userSpaceOnUse" />
    <linearGradient
       inkscape:collect="always"
       xlink:href="#linearGradient3865"
       id="linearGradient3942"
       x1="61.46904"
       y1="81.764862"
       x2="66.325691"
       y2="91.575966"
       gradientUnits="userSpaceOnUse" />
    <radialGradient
       inkscape:collect="always"
       xlink:href="#linearGradient3865"
       id="radialGradient3948"
       cx="52.576061"
       cy="1005.0599"
       fx="52.576061"
       fy="1005.0599"
       r="20.737685"
       gradientTransform="matrix(1.3229425,-0.00403914,0.00139805,0.45791207,-16.778177,545.67648)"
       gradientUnits="userSpaceOnUse" />
    <radialGradient
       inkscape:collect="always"
       xlink:href="#linearGradient3865"
       id="radialGradient3960"
       gradientUnits="userSpaceOnUse"
       gradientTransform="matrix(-0.58676718,-0.84792605,1.1281985,-0.78071602,12.380687,160.20833)"
       cx="59.060104"
       cy="63.486603"
       fx="59.060104"
       fy="63.486603"
       r="9.7913771" />
  </defs>
  <sodipodi:namedview
     id="base"
     pagecolor="#ffffff"
     bordercolor="#666666"
     borderopacity="1.0"
     inkscape:pageopacity="0.0"
     inkscape:pageshadow="2"
     inkscape:zoom="1"
     inkscape:cx="64"
     inkscape:cy="42.786797"
     inkscape:document-units="px"
     inkscape:current-layer="layer1"
     showgrid="false"
     inkscape:window-width="1316"
     inkscape:window-height="942"
     inkscape:window-x="356"
     inkscape:window-y="24"
     inkscape:window-maximized="0" />
  <metadata
     id="metadata7">
    <rdf:RDF>
      <cc:Work
         rdf:about="">
        <dc:format>image/svg+xml</dc:format>
        <dc:type
           rdf:resource="http://purl.org/dc/dcmitype/StillImage" />
        <dc:title></dc:title>
      </cc:Work>
    </rdf:RDF>
  </metadata>
  <g
     inkscape:label="Layer 1"
     inkscape:groupmode="layer"
     id="layer1"
     transform="translate(0,-924.36217)">
    <path
       id="path3806"
       d="m 103.39911,1046.057 c -10.43506,8.0169 -23.273851,-16.2544 -36.432843,-16.2093 -13.650087,0.047 -26.691954,24.1899 -37.945981,16.465 -10.84912,-7.447 8.266798,-27.1576 4.15752,-39.6586 C 28.915172,993.68656 1.9235824,988.74362 5.7927218,975.65329 9.522653,963.03391 34.175738,975.12331 44.795053,967.35214 c 11.015648,-8.06119 7.375794,-35.25917 21.021069,-35.62454 13.154356,-0.35223 9.274878,26.83008 19.947246,34.52823 11.070668,7.98545 35.812702,-3.88089 40.376822,8.98364 4.3999,12.40168 -22.65084,17.11188 -26.674267,29.64073 -4.173587,12.9965 14.757687,32.8607 3.933177,41.1768 z"
       inkscape:transform-center-y="-8.5290354"
       inkscape:transform-center-x="6.764848"
       style="fill:#000000;fill-opacity:0.56916993999999999;stroke:none;filter:url(#filter3836)"
       inkscape:connector-curvature="0" />
    <path
       transform="matrix(0.89787108,0.09297155,-0.09297155,0.89787108,206.29593,1047.6587)"
       style="fill:url(#linearGradient3772);fill-opacity:1;stroke:none"
       inkscape:transform-center-x="6.764848"
       inkscape:transform-center-y="-8.5290354"
       d="m -116,8.0000006 c -10.58398,10.0247094 -27.50082,-15.255606 -41.99597,-13.7044202 -15.03611,1.6090775 -26.65259,29.7011716 -39.93517,22.4729596 -12.80469,-6.9681531 6.01072,-30.869079 0.0562,-44.175436 -6.17674,-13.802963 -36.4836,-16.16996 -33.7137,-31.036081 2.67024,-14.331265 31.21565,-3.822534 42.0307,-13.597501 11.21869,-10.139778 4.1045,-39.694752 19.09896,-41.654312 14.455,-1.88906 13.28162,28.506622 25.9202,35.771718 13.11026,7.536235 39.02031,-8.362749 45.517508,5.292299 6.263437,13.163765 -23.007168,21.440597 -26.011148,35.70564 -3.11609,14.797427 20.01139,34.5262927 9.03241,44.9251336 z"
       id="path2985" />
    <path
       style="fill:#ffffff;fill-opacity:0.798419;stroke:none;filter:url(#filter3788)"
       d="m 63.34375,930.76842 c -8.213655,1.3764 -8.96689,11.72343 -11.136415,18.09023 -1.888585,8.64406 -6.148123,19.59793 -16.519835,20.06602 -9.494003,1.74364 -20.245978,-3.23882 -28.96875,1.84375 -3.0110095,2.39512 -2.8897028,7.78082 -0.53125,10.125 0.2147004,-8.12246 9.859295,-9.86687 16.342846,-8.95749 8.978547,0.16717 21.649823,3.38293 27.032154,-6.19876 5.875426,-9.32217 4.173437,-22.91598 13.125,-30.1875 2.048323,-1.54043 5.246927,-1.65799 7.34375,-1.28125 -1.437148,-2.33036 -3.947334,-3.86744 -6.6875,-3.5 z m 22.59375,35.9375 c 7.364925,8.08795 19.75536,3.77157 29.3125,4.46875 2.36723,-0.0649 5.43528,0.52329 7.25,0.96875 -5.58122,-7.08248 -16.05325,-3.38338 -23.84375,-3.875 -4.186466,0.23077 -9.270093,-0.27215 -12.71875,-1.5625 z m -53.15625,41.56248 c 0.251938,11.2116 -9.362971,20.7605 -7.75,31.9063 0.36459,1.3335 1.915448,3.536 1.53125,0.5312 1.403575,-10.6462 10.667671,-20.6397 6.9375,-31.5625 -0.18367,-0.3153 -0.978127,-2.163 -0.71875,-0.875 z"
       id="path2988"
       inkscape:connector-curvature="0" />
    <path
       style="fill:#000000;fill-opacity:0.23715416;stroke:none;filter:url(#filter3802)"
       d="m 64.3125,931.01842 c 6.897616,9.52827 4.119211,24.52554 14.28125,31.84375 1.462569,0.82784 4.864154,2.19856 2.125,-0.0937 -7.28512,-8.84468 -4.803011,-22.71556 -12.9375,-30.9375 -0.800494,-0.54866 -3.496099,-1.63153 -3.46875,-0.8125 z m 17.75,33.1875 c 0.117838,0.10771 0.04633,-0.0295 0,0 z m 34.375,4.21875 c 4.86857,4.99707 1.53638,12.80115 -3.90625,15.90625 -7.4038,6.16489 -20.152719,9.72133 -21.4375,20.56248 -0.595823,11.987 10.28186,22.566 7.21875,34.6875 -0.473056,2 -2.944247,3.7537 -3.78125,4.7188 6.47784,2.2991 11.20821,-5.7201 8.8125,-11.3125 -2.12814,-10.7161 -11.162056,-21.9395 -5.71875,-32.875 5.97085,-10.14646 20.30665,-12.02426 25.71875,-22.40628 1.50264,-4.57975 -2.99674,-9.23987 -6.90625,-9.28125 z m -59.15625,59.25003 c -10.807404,1.6865 -18.175766,12.6978 -27.375,16.9062 9.172534,1.0406 15.266119,-8.1611 22.34375,-12.4687 1.69347,-1.7559 6.831708,-3.6706 7.21875,-4.4063 -0.722798,-0.068 -1.466993,-0.1682 -2.1875,-0.031 z"
       id="path2993"
       inkscape:connector-curvature="0" />
    <g
       transform="translate(83.326953,132.2726)"
       id="g3893">
      <path
         sodipodi:type="arc"
         style="fill:#ffffff;fill-opacity:1;stroke:none"
         id="path3895"
         sodipodi:cx="53.05146"
         sodipodi:cy="62.93185"
         sodipodi:rx="9.7913771"
         sodipodi:ry="11.838665"
         d="m 62.842837,62.93185 c 0,6.538315 -4.383748,11.838665 -9.791377,11.838665 -5.407628,0 -9.791377,-5.30035 -9.791377,-11.838665 0,-6.538314 4.383749,-11.838665 9.791377,-11.838665 5.407629,0 9.791377,5.300351 9.791377,11.838665 z"
         transform="translate(-55.721835,787.10486)" />
      <path
         sodipodi:type="arc"
         style="fill:#000000;fill-opacity:1;stroke:none"
         id="path3899"
         sodipodi:cx="1.5132128"
         sodipodi:cy="-71.566063"
         sodipodi:rx="4.7176633"
         sodipodi:ry="5.874826"
         d="m 6.2308761,-71.566063 c 0,3.244577 -2.1121698,5.874826 -4.7176633,5.874826 -2.6054935,0 -4.7176633,-2.630249 -4.7176633,-5.874826 0,-3.244577 2.1121698,-5.874826 4.7176633,-5.874826 2.6054935,0 4.7176633,2.630249 4.7176633,5.874826 z"
         transform="matrix(1.0757576,0,0,1.0757576,-4.3858895,928.98273)" />
      <path
         transform="matrix(0.55400088,-0.5150464,0.309495,0.33290302,17.580584,874.72966)"
         d="m 6.2308761,-71.566063 c 0,3.244577 -2.1121698,5.874826 -4.7176633,5.874826 -2.6054935,0 -4.7176633,-2.630249 -4.7176633,-5.874826 0,-3.244577 2.1121698,-5.874826 4.7176633,-5.874826 2.6054935,0 4.7176633,2.630249 4.7176633,5.874826 z"
         sodipodi:ry="5.874826"
         sodipodi:rx="4.7176633"
         sodipodi:cy="-71.566063"
         sodipodi:cx="1.5132128"
         id="path3901"
         style="fill:#ffffff;fill-opacity:1;stroke:none"
         sodipodi:type="arc" />
      <path
         transform="translate(-55.721835,787.10486)"
         d="m 62.842837,62.93185 c 0,6.538315 -4.383748,11.838665 -9.791377,11.838665 -5.407628,0 -9.791377,-5.30035 -9.791377,-11.838665 0,-6.538314 4.383749,-11.838665 9.791377,-11.838665 5.407629,0 9.791377,5.300351 9.791377,11.838665 z"
         sodipodi:ry="11.838665"
         sodipodi:rx="9.7913771"
         sodipodi:cy="62.93185"
         sodipodi:cx="53.05146"
         id="path3897"
         style="fill:url(#radialGradient3903);fill-opacity:1;stroke:none"
         sodipodi:type="arc" />
    </g>
    <path
       style="fill:#000000;fill-opacity:1;stroke:none"
       d="m 40.84375,998.94097 c 0.885292,8.06543 10.968754,14.43753 23.3125,14.43753 12.343746,0 22.458458,-6.3721 23.34375,-14.43753 l -46.65625,0 z"
       id="path3905"
       inkscape:connector-curvature="0" />
    <path
       inkscape:connector-curvature="0"
       id="path3910"
       d="m 43.719354,1000.1871 c 0.786984,6.3748 9.750744,11.4111 20.723795,11.4111 10.97305,0 19.964588,-5.0363 20.751574,-11.4111 l -41.475369,0 z"
       style="fill:#ff0000;fill-opacity:1;stroke:none" />
    <path
       style="fill:url(#radialGradient3948);fill-opacity:1;stroke:none"
       d="m 43.719354,1000.1871 c 0.786984,6.3748 9.750744,11.4111 20.723795,11.4111 10.97305,0 19.964588,-5.0363 20.751574,-11.4111 l -41.475369,0 z"
       id="path3944"
       inkscape:connector-curvature="0" />
    <path
       style="fill:#ffffff;fill-opacity:1;stroke:none"
       d="m 48.75,75.8125 0.618718,2.943782 28.549175,0 L 78.625,75.8125 z"
       transform="translate(0,924.36217)"
       id="path3926"
       inkscape:connector-curvature="0"
       sodipodi:nodetypes="ccccc" />
    <path
       style="fill:#ffffff;fill-opacity:1;stroke:none"
       d="M 78.9375,81.40625 C 67.709693,85.747734 59.046881,84.409584 51.09375,81.5 L 49.625,83.53125 c 3.768434,2.277547 8.998712,3.71875 14.8125,3.71875 6.15349,0 11.690239,-1.578271 15.5,-4.09375 -0.500089,-0.839983 -1,-1.75 -1,-1.75 z"
       transform="translate(0,924.36217)"
       id="path3929"
       inkscape:connector-curvature="0"
       sodipodi:nodetypes="cccscc" />
    <path
       sodipodi:nodetypes="ccccc"
       inkscape:connector-curvature="0"
       id="path3934"
       transform="translate(0,924.36217)"
       d="m 48.75,75.8125 0.618718,2.943782 28.549175,0 L 78.625,75.8125 z"
       style="fill:url(#linearGradient3940);fill-opacity:1;stroke:none" />
    <path
       sodipodi:nodetypes="cccscc"
       inkscape:connector-curvature="0"
       id="path3936"
       transform="translate(0,924.36217)"
       d="M 78.9375,81.40625 C 67.709693,85.747734 59.046881,84.409584 51.09375,81.5 L 49.625,83.53125 c 3.768434,2.277547 8.998712,3.71875 14.8125,3.71875 6.15349,0 11.690239,-1.578271 15.5,-4.09375 -0.500089,-0.839983 -1,-1.75 -1,-1.75 z"
       style="fill:url(#linearGradient3942);fill-opacity:1;stroke:none" />
    <g
       id="g3950"
       transform="translate(52.214254,132.2726)">
      <path
         transform="translate(-55.721835,787.10486)"
         d="m 62.842837,62.93185 c 0,6.538315 -4.383748,11.838665 -9.791377,11.838665 -5.407628,0 -9.791377,-5.30035 -9.791377,-11.838665 0,-6.538314 4.383749,-11.838665 9.791377,-11.838665 5.407629,0 9.791377,5.300351 9.791377,11.838665 z"
         sodipodi:ry="11.838665"
         sodipodi:rx="9.7913771"
         sodipodi:cy="62.93185"
         sodipodi:cx="53.05146"
         id="path3952"
         style="fill:#ffffff;fill-opacity:1;stroke:none"
         sodipodi:type="arc" />
      <path
         transform="matrix(1.0757576,0,0,1.0757576,-4.3858895,928.98273)"
         d="m 6.2308761,-71.566063 c 0,3.244577 -2.1121698,5.874826 -4.7176633,5.874826 -2.6054935,0 -4.7176633,-2.630249 -4.7176633,-5.874826 0,-3.244577 2.1121698,-5.874826 4.7176633,-5.874826 2.6054935,0 4.7176633,2.630249 4.7176633,5.874826 z"
         sodipodi:ry="5.874826"
         sodipodi:rx="4.7176633"
         sodipodi:cy="-71.566063"
         sodipodi:cx="1.5132128"
         id="path3954"
         style="fill:#000000;fill-opacity:1;stroke:none"
         sodipodi:type="arc" />
      <path
         sodipodi:type="arc"
         style="fill:#ffffff;fill-opacity:1;stroke:none"
         id="path3956"
         sodipodi:cx="1.5132128"
         sodipodi:cy="-71.566063"
         sodipodi:rx="4.7176633"
         sodipodi:ry="5.874826"
         d="m 6.2308761,-71.566063 c 0,3.244577 -2.1121698,5.874826 -4.7176633,5.874826 -2.6054935,0 -4.7176633,-2.630249 -4.7176633,-5.874826 0,-3.244577 2.1121698,-5.874826 4.7176633,-5.874826 2.6054935,0 4.7176633,2.630249 4.7176633,5.874826 z"
         transform="matrix(0.55400088,-0.5150464,0.309495,0.33290302,17.580584,874.72966)" />
      <path
         sodipodi:type="arc"
         style="fill:url(#radialGradient3960);fill-opacity:1;stroke:none"
         id="path3958"
         sodipodi:cx="53.05146"
         sodipodi:cy="62.93185"
         sodipodi:rx="9.7913771"
         sodipodi:ry="11.838665"
         d="m 62.842837,62.93185 c 0,6.538315 -4.383748,11.838665 -9.791377,11.838665 -5.407628,0 -9.791377,-5.30035 -9.791377,-11.838665 0,-6.538314 4.383749,-11.838665 9.791377,-11.838665 5.407629,0 9.791377,5.300351 9.791377,11.838665 z"
         transform="translate(-55.721835,787.10486)" />
    </g>
  </g>
</svg>
