<?xml version="1.0" encoding="UTF-8" standalone="no"?>
<!-- Created with Inkscape (http://www.inkscape.org/) -->
<svg
   xmlns:dc="http://purl.org/dc/elements/1.1/"
   xmlns:cc="http://web.resource.org/cc/"
   xmlns:rdf="http://www.w3.org/1999/02/22-rdf-syntax-ns#"
   xmlns:svg="http://www.w3.org/2000/svg"
   xmlns="http://www.w3.org/2000/svg"
   xmlns:xlink="http://www.w3.org/1999/xlink"
   xmlns:sodipodi="http://sodipodi.sourceforge.net/DTD/sodipodi-0.dtd"
   xmlns:inkscape="http://www.inkscape.org/namespaces/inkscape"
   width="128"
   height="128"
   id="svg2"
   sodipodi:version="0.32"
   inkscape:version="0.45pre1"
   sodipodi:docbase="/home/nicu/Desktop/clipart"
   sodipodi:docname="keys.svg"
   inkscape:output_extension="org.inkscape.output.svg.inkscape"
   sodipodi:modified="true"
   version="1.0">
  <defs
     id="defs4">
    <linearGradient
       id="linearGradient4258">
      <stop
         style="stop-color:#a2a2a2;stop-opacity:1;"
         offset="0"
         id="stop4260" />
      <stop
         style="stop-color:#ffffff;stop-opacity:1.0000000;"
         offset="1.0000000"
         id="stop4262" />
    </linearGradient>
    <linearGradient
       id="linearGradient4246">
      <stop
         style="stop-color:#cfcfcf;stop-opacity:1;"
         offset="0"
         id="stop4248" />
      <stop
         style="stop-color:#ffffff;stop-opacity:1.0000000;"
         offset="1.0000000"
         id="stop4250" />
    </linearGradient>
    <linearGradient
       inkscape:collect="always"
       id="linearGradient4234">
      <stop
         style="stop-color:#ffffff;stop-opacity:1;"
         offset="0"
         id="stop4236" />
      <stop
         style="stop-color:#ffffff;stop-opacity:0;"
         offset="1"
         id="stop4238" />
    </linearGradient>
    <linearGradient
       inkscape:collect="always"
       xlink:href="#linearGradient4246"
       id="linearGradient5096"
       gradientUnits="userSpaceOnUse"
       x1="17.522577"
       y1="39.450005"
       x2="4.2750001"
       y2="26.18047" />
    <linearGradient
       inkscape:collect="always"
       xlink:href="#linearGradient4246"
       id="linearGradient5098"
       gradientUnits="userSpaceOnUse"
       x1="33.524998"
       y1="37.950001"
       x2="17.174999"
       y2="24.6" />
    <linearGradient
       inkscape:collect="always"
       xlink:href="#linearGradient4246"
       id="linearGradient5100"
       gradientUnits="userSpaceOnUse"
       x1="48.352283"
       y1="41.502735"
       x2="32.972576"
       y2="27.402735" />
    <linearGradient
       inkscape:collect="always"
       xlink:href="#linearGradient4258"
       id="linearGradient5102"
       gradientUnits="userSpaceOnUse"
       x1="9.6000004"
       y1="49.724998"
       x2="9.75"
       y2="40.650002" />
    <linearGradient
       inkscape:collect="always"
       xlink:href="#linearGradient4258"
       id="linearGradient5104"
       gradientUnits="userSpaceOnUse"
       x1="27.300001"
       y1="51.852707"
       x2="27.33345"
       y2="41.27771" />
    <linearGradient
       inkscape:collect="always"
       xlink:href="#linearGradient4258"
       id="linearGradient5106"
       gradientUnits="userSpaceOnUse"
       x1="40.474998"
       y1="52.66708"
       x2="40.245293"
       y2="41.342083" />
    <linearGradient
       inkscape:collect="always"
       xlink:href="#linearGradient4234"
       id="linearGradient5108"
       gradientUnits="userSpaceOnUse"
       x1="8.6999998"
       y1="-21.6"
       x2="16.725"
       y2="15.675" />
    <linearGradient
       inkscape:collect="always"
       xlink:href="#linearGradient4234"
       id="linearGradient5110"
       gradientUnits="userSpaceOnUse"
       x1="20.6"
       y1="-10.075"
       x2="32"
       y2="10.325" />
  </defs>
  <sodipodi:namedview
     id="base"
     pagecolor="#ffffff"
     bordercolor="#666666"
     borderopacity="1.0"
     inkscape:pageopacity="0.0"
     inkscape:pageshadow="2"
     inkscape:zoom="1"
     inkscape:cx="64"
     inkscape:cy="64"
     inkscape:document-units="px"
     inkscape:current-layer="layer1"
     showgrid="false"
     inkscape:window-width="1152"
     inkscape:window-height="791"
     inkscape:window-x="0"
     inkscape:window-y="24"
     width="128px"
     height="128px" />
  <metadata
     id="metadata7">
    <rdf:RDF>
      <cc:Work
         rdf:about="">
        <dc:format>image/svg+xml</dc:format>
        <dc:type
           rdf:resource="http://purl.org/dc/dcmitype/StillImage" />
      </cc:Work>
    </rdf:RDF>
  </metadata>
  <g
     inkscape:label="Layer 1"
     inkscape:groupmode="layer"
     id="layer1">
    <g
       id="g5073"
       transform="matrix(2.6029308,0,0,2.6029308,0.9356062,-2.1808659)">
      <g
         transform="matrix(0.1,0,0,9.999943e-2,2.5021,42.43753)"
         id="g5031">
        <path
           id="path5033"
           d="M 110.84375,-352.3125 C 112.14632,-344.21162 101.70069,-349.11987 96.843856,-347.82492 C 80.520904,-347.90411 64.197952,-347.98331 47.875,-348.0625 C 35.833333,-234.83333 23.791667,-121.60417 11.75,-8.375 C 56.145833,-8.375 100.54167,-8.375 144.9375,-8.375 C 149.93459,-11.865612 148.68236,-0.98125879 148.6875,3.625 C 148.69399,11.584781 149.77733,19.784866 144.86127,26.646163 C 142.9049,30.656065 138.0252,18.39036 138.5699,14.657979 C 137.22941,9.862246 141.67515,-0.91904565 133.18755,1.6785436 C 92.802116,1.8586124 52.416683,2.0386812 12.03125,2.21875 C 13.145833,13.270833 14.260417,24.322917 15.375,35.375 C 56.6875,35.375 98,35.375 139.3125,35.375 C 141.83369,31.552348 145.43461,41.731322 148.23472,37.545876 C 144.16976,31.265859 157.73985,35.854898 161.65614,34.493991 C 209.20826,34.673077 256.76038,34.852164 304.3125,35.03125 C 304.3125,20.5625 304.3125,6.09375 304.3125,-8.375 C 350.61458,-8.375 396.91667,-8.375 443.21875,-8.375 C 426.52083,-121.40625 409.82292,-234.4375 393.125,-347.46875 C 375.40625,-347.46875 357.6875,-347.46875 339.96875,-347.46875 C 338.3141,-359.46 336.63384,-371.4477 334.96875,-383.4375 C 308.125,-383.4375 281.28125,-383.4375 254.4375,-383.4375 C 254.74741,-371.65618 255.08579,-359.8756 255.375,-348.09375 C 235.26042,-348.09375 215.14583,-348.09375 195.03125,-348.09375 C 194.80833,-359.87473 194.61611,-371.65628 194.40625,-383.4375 C 167.55208,-383.4375 140.69792,-383.4375 113.84375,-383.4375 C 112.84375,-373.0625 111.84375,-362.6875 110.84375,-352.3125 z M 319.46875,35.375 C 359.03125,35.375 398.59375,35.375 438.15625,35.375 C 439.83333,24.322917 441.51042,13.270833 443.1875,2.21875 C 402.27083,2.03125 361.35417,1.84375 320.4375,1.65625 C 320.11458,12.895833 319.79167,24.135417 319.46875,35.375 z M 139.25,38.5625 C 139.40968,38.647646 139.27959,38.201817 139.25,38.5625 z "
           style="opacity:0.12499994;fill:#000000;fill-opacity:1;fill-rule:evenodd;stroke:none;stroke-width:1.00000012px;stroke-linecap:butt;stroke-linejoin:miter;stroke-opacity:1" />
        <path
           id="path5038"
           d="M 109.4375,-352.4375 C 109.58272,-345.84486 99.340477,-350.74595 94.843874,-349.27096 C 78.760499,-349.34731 62.677125,-349.42365 46.59375,-349.5 C 34.447917,-235.3125 22.302083,-121.125 10.15625,-6.9375 C 55.083333,-6.9375 100.01042,-6.9375 144.9375,-6.9375 C 148.95848,-9.4604464 146.6465,2.6137578 147.25,6.625 C 147.45041,13.344784 147.85534,20.110265 143.78125,25.875 C 138.14073,18.39381 140.38916,8.9223138 139.59375,0.21875 C 96.552083,0.40625 53.510417,0.59375 10.46875,0.78125 C 11.6875,12.791667 12.90625,24.802083 14.125,36.8125 C 56.333333,36.8125 98.541667,36.8125 140.75,36.8125 C 144.68266,34.612616 152.76904,36.537801 158.3124,35.9292 C 207.45826,36.119467 256.60413,36.309733 305.75,36.5 C 305.75,22.020833 305.75,7.5416667 305.75,-6.9375 C 352.125,-6.9375 398.5,-6.9375 444.875,-6.9375 C 428.03125,-120.92708 411.1875,-234.91667 394.34375,-348.90625 C 376.63542,-348.90625 358.92708,-348.90625 341.21875,-348.90625 C 339.52704,-360.89231 337.88944,-372.88598 336.21875,-384.875 C 308.46875,-384.875 280.71875,-384.875 252.96875,-384.875 C 253.28031,-373.09373 253.6006,-361.31268 253.90625,-349.53125 C 234.75,-349.53125 215.59375,-349.53125 196.4375,-349.53125 C 196.22787,-361.31248 196.02102,-373.09375 195.8125,-384.875 C 168.0625,-384.875 140.3125,-384.875 112.5625,-384.875 C 111.52083,-374.0625 110.47917,-363.25 109.4375,-352.4375 z M 317.96875,36.8125 C 358.4375,36.8125 398.90625,36.8125 439.375,36.8125 C 441.19792,24.802083 443.02083,12.791667 444.84375,0.78125 C 402.90625,0.59375 360.96875,0.40625 319.03125,0.21875 C 318.67708,12.416667 318.32292,24.614583 317.96875,36.8125 z "
           style="opacity:0.12499994;fill:#000000;fill-opacity:1;fill-rule:evenodd;stroke:none;stroke-width:1.00000012px;stroke-linecap:butt;stroke-linejoin:miter;stroke-opacity:1" />
        <path
           id="path5043"
           d="M 108,-352.5625 C 105.63325,-348.2299 96.126588,-351.82665 90.875199,-350.70236 C 75.677216,-350.78074 60.479233,-350.85912 45.28125,-350.9375 C 33.041667,-235.80208 20.802083,-120.66667 8.5625,-5.53125 C 54.020833,-5.53125 99.479167,-5.53125 144.9375,-5.53125 C 148.34382,-6.936802 144.61887,3.4838607 145.84375,7.84375 C 146.12004,11.490114 146.29123,26.056984 142.39309,20.261907 C 140.36213,13.4972 141.66924,5.8841027 140.96875,-1.21875 C 96.9375,-1.0104167 52.90625,-0.80208333 8.875,-0.59375 C 10.1875,12.34375 11.5,25.28125 12.8125,38.21875 C 55.927083,38.21875 99.041667,38.21875 142.15625,38.21875 C 145.96172,35.990999 153.92953,37.970056 159.31239,37.33882 C 208.59368,37.527963 257.87496,37.717107 307.15625,37.90625 C 307.15625,23.427083 307.15625,8.9479167 307.15625,-5.53125 C 353.60417,-5.53125 400.05208,-5.53125 446.5,-5.53125 C 429.53125,-120.45833 412.5625,-235.38542 395.59375,-350.3125 C 377.875,-350.3125 360.15625,-350.3125 342.4375,-350.3125 C 340.79259,-362.30505 339.1007,-374.29119 337.4375,-386.28125 C 308.80208,-386.28125 280.16667,-386.28125 251.53125,-386.28125 C 251.82387,-374.49981 252.19062,-362.71987 252.4375,-350.9375 C 234.23958,-350.9375 216.04167,-350.9375 197.84375,-350.9375 C 197.57553,-362.71758 197.41474,-374.5002 197.1875,-386.28125 C 168.54167,-386.28125 139.89583,-386.28125 111.25,-386.28125 C 110.16667,-375.04167 109.08333,-363.80208 108,-352.5625 z M 316.53125,38.21875 C 357.88542,38.21875 399.23958,38.21875 440.59375,38.21875 C 442.5625,25.28125 444.53125,12.34375 446.5,-0.59375 C 403.55208,-0.80208333 360.60417,-1.0104167 317.65625,-1.21875 C 317.28125,11.927083 316.90625,25.072917 316.53125,38.21875 z "
           style="opacity:0.12499994;fill:#000000;fill-opacity:1;fill-rule:evenodd;stroke:none;stroke-width:1.00000012px;stroke-linecap:butt;stroke-linejoin:miter;stroke-opacity:1" />
        <path
           id="path5048"
           d="M 106.59375,-352.71875 C 103.49995,-351.19532 97.820846,-352.54236 93.7323,-352.12386 C 77.165283,-352.20757 60.598267,-352.29129 44.03125,-352.375 C 31.6875,-236.28125 19.34375,-120.1875 7,-4.09375 C 52.802083,-4.09375 98.604167,-4.09375 144.40625,-4.09375 C 144.0158,3.8284734 145.19303,12.092846 143.81103,19.798664 C 141.95221,16.776221 143.21926,11.136308 142.64861,7.1071651 C 141.67588,3.5390051 144.87897,-4.3435505 138.80361,-2.6397234 C 94.97324,-2.436899 51.14287,-2.2340745 7.3125,-2.03125 C 8.71875,11.864583 10.125,25.760417 11.53125,39.65625 C 55.552083,39.65625 99.572917,39.65625 143.59375,39.65625 C 145.1236,37.301127 151.16622,39.485103 154.31243,38.756794 C 205.73953,38.952446 257.16664,39.148098 308.59375,39.34375 C 308.59375,24.864583 308.59375,10.385417 308.59375,-4.09375 C 355.11458,-4.09375 401.63542,-4.09375 448.15625,-4.09375 C 431.04167,-119.97917 413.92708,-235.86458 396.8125,-351.75 C 379.10417,-351.75 361.39583,-351.75 343.6875,-351.75 C 342.00713,-363.73761 340.35645,-375.7295 338.6875,-387.71875 C 309.14583,-387.71875 279.60417,-387.71875 250.0625,-387.71875 C 250.35783,-375.93741 250.70623,-364.15677 250.96875,-352.375 C 233.72917,-352.375 216.48958,-352.375 199.25,-352.375 C 198.99429,-364.15511 198.81891,-375.9377 198.59375,-387.71875 C 169.05208,-387.71875 139.51042,-387.71875 109.96875,-387.71875 C 108.84375,-376.05208 107.71875,-364.38542 106.59375,-352.71875 z M 146.5,-5.03125 C 147.2722,-0.82009238 142.04766,-5.8322725 146.5,-5.03125 z M 315.0625,39.65625 C 357.3125,39.65625 399.5625,39.65625 441.8125,39.65625 C 443.92708,25.760417 446.04167,11.864583 448.15625,-2.03125 C 404.1875,-2.2395833 360.21875,-2.4479167 316.25,-2.65625 C 315.85417,11.447917 315.45833,25.552083 315.0625,39.65625 z "
           style="opacity:0.12499994;fill:#000000;fill-opacity:1;fill-rule:evenodd;stroke:none;stroke-width:1.00000012px;stroke-linecap:butt;stroke-linejoin:miter;stroke-opacity:1" />
        <path
           id="path5053"
           d="M 108.59375,-388.5 C 107.46875,-376.83333 106.34375,-365.16667 105.21875,-353.5 C 84.385414,-353.60305 63.5521,-353.71498 42.71875,-353.8125 C 30.302455,-236.75833 17.800598,-119.71237 5.40625,-2.65625 C 6.9281251,3.7026176 6.9859057,11.681745 7.9456146,18.662741 C 8.7019054,26.139884 9.4692875,33.615935 10.21875,41.09375 C 55.15625,41.09375 100.09375,41.09375 145.03125,41.09375 C 146.85935,38.806791 153.03859,40.88756 156.45974,40.199729 C 207.65025,40.392658 258.84074,40.592878 310.03125,40.78125 C 310.03125,26.302083 310.03125,11.822917 310.03125,-2.65625 C 315.84527,-4.4441783 315.00698,0.23434119 314.61013,4.4837412 C 314.25746,16.686956 313.93186,28.891119 313.5625,41.09375 C 356.72917,41.09375 399.89583,41.09375 443.0625,41.09375 C 445.21906,26.315411 447.82258,10.953164 449.71875,-3.46875 C 432.49953,-120.0416 415.28406,-236.615 398.0625,-353.1875 C 380.35417,-353.1875 362.64583,-353.1875 344.9375,-353.1875 C 343.26855,-365.17675 341.61788,-377.16865 339.9375,-389.15625 C 309.48958,-389.15625 279.04167,-389.15625 248.59375,-389.15625 C 248.85613,-377.37448 249.20478,-365.59384 249.5,-353.8125 C 233.21875,-353.8125 216.9375,-353.8125 200.65625,-353.8125 C 200.43123,-365.59356 200.25553,-377.37613 200,-389.15625 C 169.55208,-389.15625 139.10417,-389.15625 108.65625,-389.15625 L 108.59375,-388.5 z "
           style="opacity:0.12499994;fill:#000000;fill-opacity:1;fill-rule:evenodd;stroke:none;stroke-width:1.00000012px;stroke-linecap:butt;stroke-linejoin:miter;stroke-opacity:1" />
        <path
           id="path5058"
           d="M 107.1875,-388.65625 C 106.10417,-377.41667 105.02083,-366.17708 103.9375,-354.9375 C 83.104158,-355.03831 62.270885,-355.16586 41.4375,-355.25 C 28.939506,-237.256 16.307156,-119.10843 3.8125,-1.21875 C 5.920291,3.7117075 5.3440951,11.612793 6.4213409,17.683854 C 7.2567133,25.966652 8.1178125,34.246897 8.9375,42.53125 C 54.78125,42.53125 100.625,42.53125 146.46875,42.53125 C 150.60573,40.371642 158.77215,42.25696 164.46862,41.662834 C 213.46867,41.845389 262.46867,42.049985 311.46875,42.21875 C 311.46875,27.739583 311.46875,13.260417 311.46875,-1.21875 C 315.61515,0.86605427 311.87916,10.611086 312.85787,15.774305 C 312.60345,24.693295 312.34661,33.612216 312.09375,42.53125 C 356.15625,42.53125 400.21875,42.53125 444.28125,42.53125 C 446.62528,26.829343 449.29501,9.9851713 451.5,-4.875 C 448.98661,-12.993212 448.55952,-23.528444 446.84712,-32.574618 C 430.9889,-139.92431 415.15412,-247.27751 399.28125,-354.625 C 381.58333,-354.625 363.88542,-354.625 346.1875,-354.625 C 344.52459,-366.6151 342.83201,-378.60115 341.1875,-390.59375 C 309.83333,-390.59375 278.47917,-390.59375 247.125,-390.59375 C 247.3722,-378.81139 247.73841,-367.03144 248.03125,-355.25 C 232.70833,-355.25 217.38542,-355.25 202.0625,-355.25 C 201.83532,-367.03105 201.67441,-378.81367 201.40625,-390.59375 C 170.0625,-390.59375 138.71875,-390.59375 107.375,-390.59375 L 107.27868,-389.5984 L 107.1875,-388.65625 z "
           style="opacity:0.12499994;fill:#000000;fill-opacity:1;fill-rule:evenodd;stroke:none;stroke-width:1.00000012px;stroke-linecap:butt;stroke-linejoin:miter;stroke-opacity:1" />
        <path
           id="path5063"
           d="M 105.75,-388.78125 C 104.70833,-377.97917 103.66667,-367.17708 102.625,-356.375 C 81.802121,-356.48441 60.97894,-356.55173 40.15625,-356.6875 C 27.73649,-239.89616 15.323433,-123.10411 2.90625,-6.3125 C 1.4493495,-0.88048973 4.2684402,3.7136921 4.199231,10.136188 C 5.3568592,21.402738 6.4667243,32.674292 7.65625,43.9375 C 54.395833,43.9375 101.13542,43.9375 147.875,43.9375 C 152.01198,41.77803 160.1784,43.663621 165.87487,43.069686 C 221.70552,43.32318 277.95113,43.365982 333.3125,43.9375 C 370.70833,43.9375 408.10417,43.9375 445.5,43.9375 C 447.73463,29.356601 449.93487,14.77043 452.15625,0.1875 C 454.50419,-3.9930783 451.01635,-9.3317125 450.87214,-15.21586 C 434.09521,-128.82148 417.29132,-242.42317 400.53125,-356.03125 C 382.82292,-356.03125 365.11458,-356.03125 347.40625,-356.03125 C 345.73563,-368.02028 344.09786,-380.01393 342.40625,-392 C 310.15625,-392 277.90625,-392 245.65625,-392 C 245.9619,-380.21857 246.28219,-368.43752 246.59375,-356.65625 C 232.20833,-356.65625 217.82292,-356.65625 203.4375,-356.65625 C 203.22899,-368.4375 203.02212,-380.21877 202.8125,-392 C 170.5625,-392 138.3125,-392 106.0625,-392 C 105.95833,-390.92708 105.85417,-389.85417 105.75,-388.78125 z "
           style="opacity:0.12499994;fill:#000000;fill-opacity:1;fill-rule:evenodd;stroke:none;stroke-width:1.00000012px;stroke-linecap:butt;stroke-linejoin:miter;stroke-opacity:1" />
        <path
           id="path5068"
           d="M 104.34375,-388.90625 C 103.34375,-378.54167 102.34375,-368.17708 101.34375,-357.8125 C 80.520849,-357.91935 59.697811,-358.00288 38.875,-358.125 C 26.477605,-241.32089 14.038461,-124.52117 1.625,-7.71875 C 0.13113476,-3.001023 1.4260884,1.7275994 2.4405084,6.5996339 C 3.7372743,19.525184 5.0753586,32.446636 6.34375,45.375 C 54,45.375 101.65625,45.375 149.3125,45.375 C 153.50928,43.28531 161.6075,45.111593 167.31238,44.535612 C 222.00236,44.775559 277.08938,44.802675 331.3125,45.375 C 369.78125,45.375 408.25,45.375 446.71875,45.375 C 448.95766,30.794754 451.1533,16.207882 453.375,1.625 C 456.19009,-1.72112 453.57523,-8.1099735 452.6756,-12.665077 C 435.70282,-127.59999 418.7107,-242.53206 401.75,-357.46875 C 384.05208,-357.46875 366.35417,-357.46875 348.65625,-357.46875 C 346.99099,-369.45853 345.31114,-381.44629 343.65625,-393.4375 C 310.5,-393.4375 277.34375,-393.4375 244.1875,-393.4375 C 244.47664,-381.65565 244.81515,-369.87507 245.125,-358.09375 C 231.69792,-358.09375 218.27083,-358.09375 204.84375,-358.09375 C 204.63374,-369.87497 204.4419,-381.65652 204.21875,-393.4375 C 171.07292,-393.4375 137.92708,-393.4375 104.78125,-393.4375 C 104.63542,-391.92708 104.48958,-390.41667 104.34375,-388.90625 z "
           style="opacity:0.12499994;fill:#000000;fill-opacity:1;fill-rule:evenodd;stroke:none;stroke-width:1.00000012px;stroke-linecap:butt;stroke-linejoin:miter;stroke-opacity:1" />
      </g>
      <path
         sodipodi:nodetypes="ccccc"
         id="path1306"
         d="M 5.4002775,5.5304705 L 1.6772858,40.5 L 15.55,40.5 L 17.022577,5.6054705 L 5.4002775,5.5304705 z "
         style="fill:url(#linearGradient5096);fill-opacity:1;fill-rule:evenodd;stroke:#000000;stroke-width:1px;stroke-linecap:butt;stroke-linejoin:miter;stroke-opacity:1" />
      <path
         style="fill:url(#linearGradient5098);fill-opacity:1;fill-rule:evenodd;stroke:#000000;stroke-width:0.99999994px;stroke-linecap:butt;stroke-linejoin:miter;stroke-opacity:1"
         d="M 29.755525,5.5304705 L 32.14509,40.5 L 15.722074,40.5 L 17.079907,5.5304705 L 29.755525,5.5304705 z "
         id="path1308"
         sodipodi:nodetypes="ccccc" />
      <path
         style="fill:url(#linearGradient5100);fill-opacity:1;fill-rule:evenodd;stroke:#000000;stroke-width:1px;stroke-linecap:butt;stroke-linejoin:miter;stroke-opacity:1"
         d="M 40.824585,5.6054705 L 45.972577,40.5 L 32.174863,40.5 L 30.027286,5.6054705 L 40.824585,5.6054705 z "
         id="path1310"
         sodipodi:nodetypes="ccccc" />
      <path
         sodipodi:nodetypes="ccccc"
         id="path1312"
         d="M 12,2 L 21,2 L 21.375,23.075 L 10,22.992137 L 12,2 z "
         style="fill:#000000;fill-opacity:1;fill-rule:evenodd;stroke:none;stroke-width:1px;stroke-linecap:butt;stroke-linejoin:miter;stroke-opacity:1" />
      <path
         id="path1314"
         d="M 26,2 L 35,2 L 38,23 L 26.475,23 L 26,2 z "
         style="fill:#000000;fill-opacity:1;fill-rule:evenodd;stroke:none;stroke-width:1px;stroke-linecap:butt;stroke-linejoin:miter;stroke-opacity:1" />
      <path
         style="fill:#3a3a3a;fill-opacity:1;fill-rule:evenodd;stroke:none;stroke-width:1px;stroke-linecap:butt;stroke-linejoin:miter;stroke-opacity:1"
         d="M 10.575,26.975004 L 20.925,26.993191 L 21.375,22.903475 L 10,22.918671 L 10.575,26.975004 z "
         id="path2044"
         sodipodi:nodetypes="ccccc" />
      <path
         sodipodi:nodetypes="ccccc"
         style="fill:#3a3a3a;fill-opacity:1;fill-rule:evenodd;stroke:none;stroke-width:1px;stroke-linecap:butt;stroke-linejoin:miter;stroke-opacity:1"
         d="M 26.749914,27.009243 L 37.170358,26.975004 L 37.995,22.9 L 26.475,22.9 L 26.749914,27.009243 z "
         id="path2772" />
      <path
         style="fill:url(#linearGradient5102);fill-opacity:1;fill-rule:evenodd;stroke:#000000;stroke-width:0.9999994px;stroke-linecap:butt;stroke-linejoin:miter;stroke-opacity:1"
         d="M 1.777701,44.884167 L 1.7297093,40.575 L 15.377423,40.5 L 15.5,44.87589 L 1.777701,44.884167 z "
         id="path2774"
         sodipodi:nodetypes="ccccc" />
      <path
         sodipodi:nodetypes="ccccc"
         id="path3502"
         d="M 32.008451,44.855884 L 31.998016,40.399529 L 15.425,40.399529 L 15.432833,44.780884 L 32.008451,44.855884 z "
         style="fill:url(#linearGradient5104);fill-opacity:1;fill-rule:evenodd;stroke:#000000;stroke-width:0.99999851px;stroke-linecap:butt;stroke-linejoin:miter;stroke-opacity:1" />
      <path
         sodipodi:nodetypes="ccccc"
         id="path3504"
         d="M 45.322298,44.884167 L 45.97029,40.575 L 32.622577,40.5 L 32.5,44.87589 L 45.322298,44.884167 z "
         style="fill:url(#linearGradient5106);fill-opacity:1;fill-rule:evenodd;stroke:#000000;stroke-width:0.9999994px;stroke-linecap:butt;stroke-linejoin:miter;stroke-opacity:1" />
      <path
         style="fill:url(#linearGradient5108);fill-opacity:1;fill-rule:evenodd;stroke:none;stroke-width:1px;stroke-linecap:butt;stroke-linejoin:miter;stroke-opacity:1"
         d="M 12,2 L 21,2 L 21.375,23.075 L 10,22.992137 L 12,2 z "
         id="path4232"
         sodipodi:nodetypes="ccccc" />
      <path
         style="fill:url(#linearGradient5110);fill-opacity:1;fill-rule:evenodd;stroke:none;stroke-width:1px;stroke-linecap:butt;stroke-linejoin:miter;stroke-opacity:1"
         d="M 26,2 L 35,2 L 38,23 L 26.475,23 L 26,2 z "
         id="path4242" />
    </g>
  </g>
</svg>
