<?xml version="1.0" encoding="UTF-8" standalone="no"?>
<!-- Created with Inkscape (http://www.inkscape.org/) -->
<svg
   xmlns:dc="http://purl.org/dc/elements/1.1/"
   xmlns:cc="http://web.resource.org/cc/"
   xmlns:rdf="http://www.w3.org/1999/02/22-rdf-syntax-ns#"
   xmlns:svg="http://www.w3.org/2000/svg"
   xmlns="http://www.w3.org/2000/svg"
   xmlns:xlink="http://www.w3.org/1999/xlink"
   xmlns:sodipodi="http://sodipodi.sourceforge.net/DTD/sodipodi-0.dtd"
   xmlns:inkscape="http://www.inkscape.org/namespaces/inkscape"
   width="128"
   height="128"
   id="svg2"
   sodipodi:version="0.32"
   inkscape:version="0.45.1"
   version="1.0"
   sodipodi:docbase="/home/nicu/Desktop"
   sodipodi:docname="mb.svg"
   inkscape:output_extension="org.inkscape.output.svg.inkscape">
  <defs
     id="defs4">
    <linearGradient
       id="linearGradient2165">
      <stop
         style="stop-color:#b5c5cd;stop-opacity:0.57894737;"
         offset="0"
         id="stop2167" />
      <stop
         style="stop-color:#b5c5cd;stop-opacity:0.08978328;"
         offset="1"
         id="stop2169" />
    </linearGradient>
    <linearGradient
       inkscape:collect="always"
       xlink:href="#linearGradient2165"
       id="linearGradient2173"
       x1="31.833044"
       y1="69.899132"
       x2="83.033043"
       y2="107.74261"
       gradientUnits="userSpaceOnUse" />
    <linearGradient
       inkscape:collect="always"
       xlink:href="#linearGradient2165"
       id="linearGradient2177"
       x1="65.455116"
       y1="109.78773"
       x2="23.159464"
       y2="122.82739"
       gradientUnits="userSpaceOnUse" />
  </defs>
  <sodipodi:namedview
     id="base"
     pagecolor="#ffffff"
     bordercolor="#666666"
     borderopacity="1.0"
     gridtolerance="10000"
     guidetolerance="10"
     objecttolerance="10"
     inkscape:pageopacity="0.0"
     inkscape:pageshadow="2"
     inkscape:zoom="4.4921875"
     inkscape:cx="64"
     inkscape:cy="46.191304"
     inkscape:document-units="px"
     inkscape:current-layer="layer1"
     width="128px"
     height="128px"
     inkscape:window-width="1142"
     inkscape:window-height="787"
     inkscape:window-x="0"
     inkscape:window-y="24" />
  <metadata
     id="metadata7">
    <rdf:RDF>
      <cc:Work
         rdf:about="">
        <dc:format>image/svg+xml</dc:format>
        <dc:type
           rdf:resource="http://purl.org/dc/dcmitype/StillImage" />
      </cc:Work>
    </rdf:RDF>
  </metadata>
  <g
     inkscape:label="Layer 1"
     inkscape:groupmode="layer"
     id="layer1">
    <path
       sodipodi:nodetypes="ccccccccc"
       d="M 21.663614,105.87694 C 26.897689,103.66249 31.913931,103.03872 37.308701,103.64572 C 42.77195,104.02273 48.004756,105.55569 53.03088,107.7298 C 57.768849,110.44496 61.980274,114.86134 65.455118,119.07697 L 65.09608,119.01926 C 61.205585,120.86959 58.951673,122.21469 52.106729,122.40985 C 45.462118,123.59654 34.657721,122.30841 29.272557,117.84261 C 24.723353,115.54506 22.799223,109.65813 21.674909,105.91083 L 21.663614,105.87694 z "
       id="path2175"
       style="opacity:1;fill:url(#linearGradient2177);fill-opacity:1;stroke:none;stroke-width:2;stroke-linecap:round;stroke-linejoin:bevel;stroke-miterlimit:4;stroke-dasharray:none;stroke-dashoffset:0;stroke-opacity:1" />
    <path
       style="opacity:1;fill:#000000;fill-opacity:1;stroke:none;stroke-width:2;stroke-linecap:round;stroke-linejoin:bevel;stroke-miterlimit:4;stroke-dasharray:none;stroke-dashoffset:0;stroke-opacity:1"
       id="path2172"
       d="M 21.663614,105.87694 C 26.897689,103.66249 31.913931,103.03872 37.308701,103.64572 C 42.77195,104.02273 48.004756,105.55569 53.03088,107.7298 C 57.768849,110.44496 61.980274,114.86134 65.455118,119.07697 L 65.09608,119.01926 C 61.829989,114.79206 57.328224,111.39169 52.689506,108.75623 C 47.793225,106.23812 42.400325,105.7409 37.056788,105.02152 C 31.633419,103.80627 26.961913,104.45477 21.674909,105.91083 L 21.663614,105.87694 z "
       sodipodi:nodetypes="ccccccccc" />
    <path
       sodipodi:nodetypes="czcccczzcccz"
       id="path3281"
       d="M 74.860561,15.366887 C 72.698673,18.626127 70.917862,22.784634 69.794091,25.027943 C 68.67032,27.271252 68.638087,27.676244 68.087834,28.782236 C 69.417849,30.3059 71.482013,32.196356 73.398363,32.893732 C 75.008961,33.162283 78.147092,33.083759 79.643732,33.632887 C 79.648163,33.630234 79.639319,33.604316 79.643732,33.601637 C 80.610156,32.580825 80.872752,31.833972 81.709191,29.565458 C 82.552974,27.277025 85.280507,24.747526 87.209576,21.351987 C 89.149947,17.936554 89.711167,16.289718 91.87446,14.067142 C 92.07896,11.450036 89.133943,9.397618 87.06743,8.0565845 C 85.130684,7.0064332 81.427055,5.8501633 79.60023,5.7357872 C 77.709552,8.7485314 77.051606,12.06369 74.860561,15.366887 z "
       style="opacity:1;fill:#a05a2c;fill-opacity:1;stroke:none;stroke-width:2;stroke-linecap:round;stroke-linejoin:bevel;stroke-miterlimit:4;stroke-dasharray:none;stroke-dashoffset:0;stroke-opacity:1" />
    <path
       sodipodi:nodetypes="czzccccczzccc"
       id="path2309"
       d="M 54.041073,44.858215 C 52.434452,51.367377 48.93783,56.536215 46.043144,64.425356 C 43.184173,72.21716 41.8125,76.392422 37.910892,85.298035 C 34.067644,94.070439 29.101252,103.73321 29.101252,103.73321 C 32.417615,104.9705 36.222841,107.19807 39.53125,108.3125 C 39.346579,109.09136 39.0554,109.83091 38.8125,110.59375 C 41.577339,113.42049 46.127886,113.29907 49.8125,113.75 C 52.594634,113.9281 55.784847,114.33193 58.40625,113.3125 C 61.128849,109.19164 60.817504,103.60387 62.890004,98.168934 C 64.948801,92.769932 66.792859,88.4144 69.928217,81.296254 C 73.1043,74.085651 77.275235,66.785409 79.107553,60.813486 C 78.541849,55.994725 73.987502,53.636121 69.429613,51.637817 L 54.041073,44.858215 z "
       style="opacity:1;fill:#ffffb8;fill-opacity:1;stroke:none;stroke-width:2;stroke-linecap:round;stroke-linejoin:bevel;stroke-miterlimit:4;stroke-dasharray:none;stroke-dashoffset:0;stroke-opacity:1" />
    <path
       style="opacity:1;fill:#000000;fill-opacity:1;stroke:none;stroke-width:2;stroke-linecap:round;stroke-linejoin:bevel;stroke-miterlimit:4;stroke-dasharray:none;stroke-dashoffset:0;stroke-opacity:1"
       d="M 54.041073,44.858215 C 52.434452,51.367377 48.93783,56.536215 46.043144,64.425356 C 43.184173,72.21716 41.8125,76.392422 37.910892,85.298035 C 34.067644,94.070439 29.101252,103.73321 29.101252,103.73321 C 32.417615,104.9705 36.222841,107.19807 39.53125,108.3125 C 39.346579,109.09136 39.0554,109.83091 38.8125,110.59375 C 41.577339,113.42049 46.127886,113.29907 49.8125,113.75 C 52.594634,113.9281 55.784847,114.33193 58.40625,113.3125 C 61.128849,109.19164 60.817504,103.60387 62.890004,98.168934 C 64.948801,92.769932 66.792859,88.4144 69.928217,81.296254 C 73.1043,74.085651 77.275235,66.785409 79.107553,60.813486 C 78.541849,55.994725 73.987502,53.636121 69.429613,51.637817 L 54.041073,44.858215 z M 54.90625,46.613337 C 59.581217,49.035115 65.312789,50.444472 69.480894,52.261604 C 73.648999,54.078737 77.201464,56.0187 77.875,60.09375 C 77.458366,62.569364 75.290101,64.265136 73.65625,66.0625 C 72.252724,67.869954 70.775968,67.926552 68.615203,67.860078 C 69.383847,65.534558 69.470904,63.432199 70.699157,61.0625 C 70.388423,57.289926 67.658549,55.843145 63.96875,55.46875 C 61.194342,55.884882 58.382437,57.238233 56.804613,59.527306 C 55.159923,63.571668 54.25413,67.145195 52.663151,72.758873 C 51.076805,78.356205 48.397927,85.868692 46.288151,91.845722 C 44.178375,97.822752 41.838474,102.6069 39.625,107.96875 C 36.535574,106.72752 33.433289,105.09381 30.46875,103.4375 C 33.671812,97.716666 35.934907,92.223653 39.028389,85.612856 C 42.164368,78.911245 44.470301,70.851576 46.951425,64.1875 C 49.432549,57.523424 52.337869,52.723609 54.90625,46.613337 z M 65.5,62.84375 C 65.779336,61.516749 66.107508,59.796214 66.475378,58.526124 C 64.860368,58.768306 63.475554,58.44524 62.007937,59.991609 C 62.071428,61.635695 61.114011,63.437964 60.71875,65.09375 C 58.758208,63.989726 57.669642,62.022965 57.6875,59.84375 C 59.030796,57.638054 61.599782,56.984253 64.118469,56.464079 C 70.208118,55.872221 71.411538,63.080276 65.5,62.84375 z M 65.15625,59.375 C 65.299082,60.516139 65.247659,61.636863 65.125,62.78125 C 64.498197,62.663962 63.929916,62.082461 63.40625,61.65625 C 62.598949,60.137601 63.691102,59.630447 65.15625,59.375 z M 57.103547,60.980407 C 57.354953,63.149683 58.524545,64.660077 60.272859,65.855407 C 64.542779,68.418067 69.644833,70.473788 73.965484,66.727141 C 75.399103,65.197987 76.83719,63.320664 77.9375,61.53125 C 76.033458,68.768514 72.888687,73.534755 69.695002,79.986615 C 66.479866,86.481811 64.381715,90.465072 61.993577,97.601792 C 59.638729,104.63903 60.100007,108.4557 57.617113,112.68158 C 32.339721,114.79073 41.650241,107.37228 46.918081,92.002958 C 48.942344,85.527008 51.703193,78.448061 53.578275,73.075317 C 55.460146,67.68312 54.977893,64.600039 57.103547,60.980407 z M 62.513062,61.692626 C 64.252183,64.028618 67.064536,64.022722 69.210359,62.508391 C 68.609715,64.468718 68.156154,66.011515 67.682374,68.003266 C 65.27632,68.088622 63.598888,66.758182 61.56436,65.577422 C 61.883884,64.112107 62.192455,62.938698 62.513062,61.692626 z "
       id="path2224"
       sodipodi:nodetypes="czzccccczzcccczcccccczzcczzcccccccccccccccczzcczcccccc" />
    <path
       style="font-size:12px;font-style:normal;font-weight:bold;fill:#000000;fill-opacity:1;stroke:none;stroke-width:1px;stroke-linecap:butt;stroke-linejoin:miter;stroke-opacity:1;font-family:Bitstream Vera Sans"
       d="M 65.051343,71.136338 C 64.516857,72.865056 62.055228,71.742968 61.66951,70.474002 C 62.421258,69.301221 63.981753,71.280254 65.051343,71.136338 z M 63.607978,75.133735 C 63.206393,76.244294 60.212741,76.821821 61.821173,78.161151 C 60.522366,79.194729 58.453185,77.437145 59.190833,76.001561 C 59.663618,75.214363 61.751555,75.934539 60.220152,74.840201 C 59.368679,74.412393 59.249652,73.469227 60.446084,74.034727 C 61.515856,74.354492 62.548508,74.783342 63.607978,75.133735 z M 61.929283,79.782883 C 62.576403,81.424544 60.323453,81.754043 59.673872,81.254265 C 58.852772,81.222671 57.997831,79.593648 57.303259,80.723176 C 56.443031,78.728786 58.873674,78.16879 60.224875,79.033795 C 60.807814,79.248072 61.372771,79.507998 61.929283,79.782883 z M 60.556517,83.584755 C 61.20364,85.22642 58.950687,85.555906 58.301109,85.056136 C 57.480009,85.024545 56.625068,83.395514 55.930496,84.525047 C 55.070267,82.530656 57.50091,81.970663 58.85211,82.835668 C 59.435049,83.049945 60.000006,83.30987 60.556517,83.584755 z M 58.015994,88.146808 C 56.822315,85.997004 54.116708,89.224726 56.72562,89.55436 C 57.409397,89.436395 57.812182,88.749637 58.015994,88.146808 z M 59.183755,87.386626 C 59.714164,89.202624 57.558788,90.671512 55.93966,90.038749 C 54.665537,89.70003 53.619613,87.870265 54.904596,86.911599 C 55.947214,86.022917 57.599201,86.140913 58.533416,87.114203 C 58.741272,87.226176 58.963798,87.30281 59.183755,87.386626 z M 57.022629,93.371862 C 55.662138,93.845942 55.941182,97.029878 54.230434,96.250319 C 53.261636,95.654989 51.989978,93.756286 53.994767,93.669427 C 55.010905,93.685771 56.144124,94.177888 57.022629,93.371862 z M 54.084996,99.36527 C 54.734248,96.81792 50.164232,99.06438 52.427503,99.97067 C 52.998412,100.11182 53.867925,100.01674 54.084996,99.36527 z M 54.842654,99.638841 C 54.512162,101.07431 52.639252,101.3939 51.61591,100.49464 C 50.257891,99.671085 50.178374,97.121939 51.922677,96.732087 C 53.424411,96.292623 55.472919,97.541546 55.014207,99.250789 C 54.957023,99.38014 54.899838,99.509491 54.842654,99.638841 z M 53.731916,102.4855 C 53.294393,103.77182 50.538257,102.57936 50.653331,103.73414 C 52.123268,104.31187 51.786358,106.21004 50.212499,105.04774 C 48.755387,104.54838 48.102224,102.43864 49.75115,101.70157 C 51.110771,101.10138 52.519484,101.9468 53.731916,102.4855 z M 49.076215,105.97683 C 49.174942,108.05378 46.885866,104.89306 48.977736,105.91534 L 49.054037,105.96299 L 49.076215,105.97683 z M 48.315309,108.08415 C 48.414048,110.1611 46.124957,107.00041 48.216828,108.02266 L 48.29313,108.0703 L 48.315309,108.08415 z M 47.554409,110.19148 C 47.653129,112.26843 45.364062,109.10771 47.455927,110.13 L 47.532227,110.17763 L 47.554409,110.19148 z "
       id="text2297" />
    <path
       sodipodi:nodetypes="ccczszzzczzcsszzzccsccccccc"
       id="path3283"
       d="M 73.872042,13.373028 C 71.231034,16.202177 69.069528,19.845881 67.21875,23.3125 C 67.867679,23.40816 68.071229,24.017042 68.40625,24.5 C 67.415977,27.040049 66.899729,26.611391 64.4375,31.625 C 61.941834,36.706694 61.703147,37.43151 58.715378,39.481998 C 55.420693,41.743121 50.890072,42.5896 47.375,44.28125 C 40.672303,47.506965 39.121085,53.224131 36.53125,61.46875 C 33.941415,69.713369 29.698024,82.800117 26.90625,90.09375 C 24.114476,97.387383 23.073482,100.48488 21.03125,105.625 C 21.122119,110.19646 24.069323,114.66521 27.78125,117.59375 C 31.493177,120.52229 35.759643,123.07276 41.990617,123.23442 C 48.221591,123.39608 59.650746,123.13193 66.304563,119.39319 C 67.884326,112.135 71.602022,105.66393 73.942626,98.705688 C 76.007235,92.567933 78.461009,86.732196 80.771908,80.118469 C 83.342577,72.761289 87.368595,64.592788 87.125,58.125 C 86.881405,51.657212 82.369506,46.721891 80.3125,43.6875 C 78.255494,40.653109 79.810746,40.20031 80.679563,37.53125 C 81.536331,34.899209 82.371758,32.655102 83.154845,30.087219 C 84.454943,30.105518 85.21502,30.172106 86.5,30.5 C 87.677778,27.218776 89.234825,24.396376 89.75,20.96875 C 89.754313,20.956269 89.776932,20.949979 89.78125,20.9375 C 88.906697,20.102102 88.318876,19.373854 87.381901,18.534208 L 86.328591,21.40202 C 83.642441,20.891162 81.885872,19.793251 79.451003,18.602623 C 77.243618,18.494649 73.113386,12.487514 75.52783,16.297542 L 76.28125,14 C 75.616325,13.523402 74.631712,13.430825 73.872042,13.373028 z "
       style="opacity:1;fill:url(#linearGradient2173);fill-opacity:1.0;stroke:none;stroke-width:2;stroke-linecap:round;stroke-linejoin:bevel;stroke-miterlimit:4;stroke-dasharray:none;stroke-dashoffset:0;stroke-opacity:1" />
    <path
       style="opacity:1;fill:#000000;fill-opacity:1;stroke:none;stroke-width:2;stroke-linecap:round;stroke-linejoin:bevel;stroke-miterlimit:4;stroke-dasharray:none;stroke-dashoffset:0;stroke-opacity:1"
       d="M 73.872042,13.373028 C 71.231034,16.202177 69.069528,19.845881 67.21875,23.3125 C 67.867679,23.40816 68.071229,24.017042 68.40625,24.5 C 67.415977,27.040049 66.899729,26.611391 64.4375,31.625 C 61.941834,36.706694 61.703147,37.43151 58.715378,39.481998 C 55.420693,41.743121 50.890072,42.5896 47.375,44.28125 C 40.672303,47.506965 39.121085,53.224131 36.53125,61.46875 C 33.941415,69.713369 29.698024,82.800117 26.90625,90.09375 C 24.114476,97.387383 23.073482,100.48488 21.03125,105.625 C 21.122119,110.19646 24.069323,114.66521 27.78125,117.59375 C 31.493177,120.52229 35.759643,123.07276 41.990617,123.23442 C 48.221591,123.39608 59.650746,123.13193 66.304563,119.39319 C 67.884326,112.135 71.602022,105.66393 73.942626,98.705688 C 76.007235,92.567933 78.461009,86.732196 80.771908,80.118469 C 83.342577,72.761289 87.368595,64.592788 87.125,58.125 C 86.881405,51.657212 82.369506,46.721891 80.3125,43.6875 C 78.255494,40.653109 79.810746,40.20031 80.679563,37.53125 C 81.536331,34.899209 82.371758,32.655102 83.154845,30.087219 C 84.454943,30.105518 85.21502,30.172106 86.5,30.5 C 87.677778,27.218776 89.234825,24.396376 89.75,20.96875 C 89.754313,20.956269 89.776932,20.949979 89.78125,20.9375 C 88.906697,20.102102 88.318876,19.373854 87.381901,18.534208 L 86.87993,19.039137 C 87.842446,19.762837 87.804394,20.131485 88.697323,20.9375 C 88.898234,21.086675 89.186068,21.363711 89.15625,21.5625 C 85.833066,21.452792 82.557863,20.226704 79.451003,18.602623 C 76.244859,16.926642 76.256432,16.173493 74.441444,14.193416 C 75.172953,14.12286 75.673985,14.132319 76.315458,14.407236 L 76.28125,14 C 75.616325,13.523402 74.631712,13.430825 73.872042,13.373028 z M 73.558556,15.106567 C 75.38359,16.936251 75.670863,18.071172 78.94706,19.67794 C 82.274337,21.30976 85.304712,21.582309 88.492113,22.096708 C 87.605987,24.879776 87.716355,26.746789 85.68257,29.428627 C 81.830217,29.212691 78.436867,28.659763 74.845722,27.24507 C 72.488152,25.789427 70.133059,24.977784 68.543081,22.683556 C 70.156054,19.538177 71.37357,17.861871 73.558556,15.106567 z M 69.022581,24.83246 C 71.128349,25.327678 72.619212,26.872012 74.5625,27.875 C 76.991849,28.868618 79.519301,29.707811 82.15625,29.8125 C 81.389716,32.428919 80.428647,35.112865 79.625,37.46875 C 78.834518,39.786044 77.835337,41.674903 79.263062,44.765377 C 80.712327,47.902474 86.323306,52.013746 85.951968,58.305969 C 85.580629,64.598191 82.481069,71.828952 79.867063,79.045718 C 77.656945,85.147429 74.964111,92.426605 72.682374,98.493469 C 70.053646,105.48294 67.089256,112.0145 64.84375,119.15625 C 57.726723,121.30114 48.356561,123.0762 42.15625,122.375 C 35.955939,121.6738 32.225207,119.57122 28.3094,116.6937 C 24.393593,113.81619 23.279631,110.42934 22.380242,105.88629 C 24.352612,100.73469 25.352601,97.677119 28.306752,90.446769 C 31.260903,83.216419 34.788741,70.24351 37.536192,61.951111 C 40.283643,53.658712 41.251568,48.594204 47.897581,45.598992 C 54.727846,42.520742 55.01737,42.595814 58.799531,40.552567 C 62.581692,38.50932 64.128428,35.437935 65.420161,32.451411 C 66.711894,29.464887 67.815644,27.160331 69.022581,24.83246 z "
       id="path2162"
       sodipodi:nodetypes="ccczszzzczzcsszzzccsccccczccccczcccccccczzzssczzczzzzzc" />
    <path
       style="opacity:1;fill:#000000;fill-opacity:1;stroke:none;stroke-width:2;stroke-linecap:round;stroke-linejoin:bevel;stroke-miterlimit:4;stroke-dasharray:none;stroke-dashoffset:0;stroke-opacity:1"
       d="M 74.860561,15.366887 C 72.698673,18.626127 70.917862,22.784634 69.794091,25.027943 C 68.67032,27.271252 68.638087,27.676244 68.087834,28.782236 C 69.417849,30.3059 71.482013,32.196356 73.398363,32.893732 C 75.008961,33.162283 78.147092,33.083759 79.643732,33.632887 C 79.648163,33.630234 79.639319,33.604316 79.643732,33.601637 C 80.610156,32.580825 80.872752,31.833972 81.709191,29.565458 C 82.552974,27.277025 85.280507,24.747526 87.209576,21.351987 C 89.149947,17.936554 89.711167,16.289718 91.87446,14.067142 C 92.07896,11.450036 89.133943,9.397618 87.06743,8.0565845 C 85.130684,7.0064332 81.427055,5.8501633 79.60023,5.7357872 C 77.709552,8.7485314 77.051606,12.06369 74.860561,15.366887 z M 86.5625,8.75 C 88.551552,9.4151806 90.846208,11.30946 91.011604,13.377321 C 89.979807,13.523931 85.766541,12.804174 84.0625,11.71875 C 82.386617,10.651262 81.434215,8.7634535 80.978573,7.0746438 C 82.783985,6.8773172 84.573448,8.0848194 86.5625,8.75 z M 83.683556,12.633873 C 85.530053,13.352464 87.55586,14.212455 89.510582,14.497715 C 88.326758,17.299613 86.995631,18.12593 85.678926,21.006902 C 84.37297,23.864355 81.543361,27.124387 80.590069,29.124651 C 79.636777,31.124916 79.655255,31.716773 79.102623,32.785194 C 77.603106,32.35062 75.330495,32.374635 73.809542,32.009859 C 71.946703,31.40985 70.749783,29.927426 69.25493,28.672049 C 69.522893,27.355403 69.826688,27.661722 70.772701,25.627958 C 71.730314,23.569254 74.502532,18.571411 76.060589,15.72806 C 77.593829,12.929999 78.361027,10.498996 79.813101,7.5597692 C 80.698478,9.1014809 82.116108,11.711207 83.683556,12.633873 z "
       id="path2208"
       sodipodi:nodetypes="czcccczzccczcczczcczzccczzcc" />
  </g>
</svg>
