<?xml version="1.0" encoding="UTF-8" standalone="no"?>
<!-- Created with Inkscape (http://www.inkscape.org/) -->
<svg
   xmlns:dc="http://purl.org/dc/elements/1.1/"
   xmlns:cc="http://web.resource.org/cc/"
   xmlns:rdf="http://www.w3.org/1999/02/22-rdf-syntax-ns#"
   xmlns:svg="http://www.w3.org/2000/svg"
   xmlns="http://www.w3.org/2000/svg"
   xmlns:xlink="http://www.w3.org/1999/xlink"
   xmlns:sodipodi="http://sodipodi.sourceforge.net/DTD/sodipodi-0.dtd"
   xmlns:inkscape="http://www.inkscape.org/namespaces/inkscape"
   width="128"
   height="128"
   id="svg2"
   sodipodi:version="0.32"
   inkscape:version="0.45"
   version="1.0"
   sodipodi:docbase="/home/nicu/Desktop"
   sodipodi:docname="pentagram.svg"
   inkscape:output_extension="org.inkscape.output.svg.inkscape"
   inkscape:export-filename="/home/nicu/Desktop/pentagram.png"
   inkscape:export-xdpi="67.5"
   inkscape:export-ydpi="67.5"
   sodipodi:modified="TRUE">
  <defs
     id="defs4">
    <linearGradient
       inkscape:collect="always"
       id="linearGradient6299">
      <stop
         style="stop-color:#ff0000;stop-opacity:1;"
         offset="0"
         id="stop6301" />
      <stop
         style="stop-color:#ff0000;stop-opacity:0;"
         offset="1"
         id="stop6303" />
    </linearGradient>
    <linearGradient
       inkscape:collect="always"
       id="linearGradient5154">
      <stop
         style="stop-color:#ff0000;stop-opacity:1;"
         offset="0"
         id="stop5156" />
      <stop
         style="stop-color:#ff0000;stop-opacity:0;"
         offset="1"
         id="stop5158" />
    </linearGradient>
    <radialGradient
       inkscape:collect="always"
       xlink:href="#linearGradient6299"
       id="radialGradient6305"
       cx="63.577747"
       cy="62.481014"
       fx="63.577747"
       fy="62.481014"
       r="55.975991"
       gradientTransform="matrix(1.8021943,-0.8069308,0.7704315,1.720672,-98.412348,8.9547653)"
       gradientUnits="userSpaceOnUse" />
    <filter
       inkscape:collect="always"
       x="-0.22717678"
       width="1.4543536"
       y="-0.23188796"
       height="1.4637759"
       id="filter6407">
      <feGaussianBlur
         inkscape:collect="always"
         stdDeviation="12.716445"
         id="feGaussianBlur6409" />
    </filter>
    <linearGradient
       inkscape:collect="always"
       xlink:href="#linearGradient5154"
       id="linearGradient6425"
       x1="64"
       y1="84.5"
       x2="64"
       y2="133.5"
       gradientUnits="userSpaceOnUse" />
    <linearGradient
       inkscape:collect="always"
       xlink:href="#linearGradient5154"
       id="linearGradient6454"
       x1="67.961838"
       y1="97.554916"
       x2="67.961838"
       y2="128.04692"
       gradientUnits="userSpaceOnUse" />
    <filter
       inkscape:collect="always"
       x="-0.037099426"
       width="1.0741989"
       y="-0.83385374"
       height="2.6677075"
       id="filter7443">
      <feGaussianBlur
         inkscape:collect="always"
         stdDeviation="1.9355776"
         id="feGaussianBlur7445" />
    </filter>
  </defs>
  <sodipodi:namedview
     id="base"
     pagecolor="#ffffff"
     bordercolor="#666666"
     borderopacity="1.0"
     gridtolerance="10000"
     guidetolerance="10"
     objecttolerance="10"
     inkscape:pageopacity="0.0"
     inkscape:pageshadow="2"
     inkscape:zoom="4.5234375"
     inkscape:cx="64"
     inkscape:cy="64"
     inkscape:document-units="px"
     inkscape:current-layer="layer1"
     width="128px"
     height="128px"
     inkscape:window-width="1152"
     inkscape:window-height="791"
     inkscape:window-x="0"
     inkscape:window-y="24" />
  <metadata
     id="metadata7">
    <rdf:RDF>
      <cc:Work
         rdf:about="">
        <dc:format>image/svg+xml</dc:format>
        <dc:type
           rdf:resource="http://purl.org/dc/dcmitype/StillImage" />
      </cc:Work>
    </rdf:RDF>
  </metadata>
  <g
     inkscape:label="Layer 1"
     inkscape:groupmode="layer"
     id="layer1">
    <rect
       style="opacity:1;fill:#000000;fill-opacity:1;stroke-width:4;stroke-linecap:round;stroke-linejoin:bevel;stroke-miterlimit:4;stroke-dasharray:none;stroke-dashoffset:0;stroke-opacity:1"
       id="rect5148"
       width="128"
       height="128"
       x="0"
       y="5.5788707e-15" />
    <path
       style="opacity:0.68852459;fill:url(#radialGradient6305);fill-opacity:1;fill-rule:evenodd;stroke-width:1px;stroke-linecap:butt;stroke-linejoin:miter;stroke-opacity:1;filter:url(#filter6407)"
       d="M 58,21 C 54.53536,13.265386 44.188834,13.297209 35,11 C 27.968185,9.2420462 27,17.059027 27,22 C 27,33.340144 25.150689,34.465747 18,44 C 14.123415,49.168781 14.797806,54.989028 16,61 C 18.180729,71.903646 18.587219,68.825563 13,80 C 9.5637023,86.872595 6.2195143,91.439029 10,99 C 17.970234,114.94047 43.570989,105.85802 49,95 C 51.711307,89.577387 60.436368,106.87274 61,108 C 65.031879,116.06376 75.809245,120 85,120 C 90.316065,120 88,103.27982 88,99 C 88,90.559736 110.6003,95.479939 118,94 C 124.34326,92.731348 115.61017,78.207626 114,77 C 104.58092,69.935689 100.83035,66.848226 103,56 C 104.16934,50.153285 114.27001,45.919959 116,39 C 117.52517,32.899324 120,29.392526 120,22 C 120,10.889569 104.12074,16.93963 100,19 C 94.024979,21.987511 91.579476,26.355131 85,28 C 77.996149,29.750963 73.315908,18.631815 71,14 C 67.465253,6.9305051 63.282365,11.43527 61,16 C 60.130773,17.738454 59,19.333333 58,21 z "
       id="path6297"
       transform="matrix(1.1965128,0,0,1.127647,-16.636648,-15.317636)" />
    <path
       style="fill:url(#linearGradient6454);fill-opacity:1;fill-rule:evenodd;stroke:none;stroke-width:4.03736734;stroke-linecap:butt;stroke-linejoin:bevel;stroke-miterlimit:4;stroke-dasharray:none;stroke-opacity:1"
       d="M 64 107.8125 C 47.612509 107.8125 33.050692 115.75989 23.96875 128 L 28.71875 128 C 37.168975 117.94689 49.831482 111.5625 64 111.5625 C 78.168517 111.5625 90.831026 117.94689 99.28125 128 L 104.03125 128 C 94.949308 115.75989 80.387491 107.8125 64 107.8125 z M 64.71875 112.90625 L 58.71875 128 L 62.75 128 L 66.78125 117.9375 L 69.25 128 L 73.09375 128 L 69.5 113.21875 C 67.932644 113.03012 66.331852 112.92826 64.71875 112.90625 z "
       id="path6447" />
    <path
       sodipodi:type="arc"
       style="opacity:0.863388;fill:#000000;fill-opacity:1;stroke-width:4;stroke-linecap:round;stroke-linejoin:bevel;stroke-miterlimit:4;stroke-dasharray:none;stroke-dashoffset:0;stroke-opacity:1;filter:url(#filter7443)"
       id="path6456"
       sodipodi:cx="68.089813"
       sodipodi:cy="101.36097"
       sodipodi:rx="52.17271"
       sodipodi:ry="2.3212435"
       d="M 120.26252 101.36097 A 52.17271 2.3212435 0 1 1  15.917103,101.36097 A 52.17271 2.3212435 0 1 1  120.26252 101.36097 z"
       transform="matrix(1.1122881,0,0,1.6190476,-9.5247803,-57.994245)" />
    <path
       sodipodi:nodetypes="csssccsssccccccccccccccccccccccccccccccccccccccccc"
       id="path5152"
       d="M 64,6.125 C 36.520762,6.1249998 14.1875,28.458263 14.1875,55.9375 C 14.1875,83.416738 36.520764,105.75 64,105.75 C 91.479236,105.75 113.8125,83.416737 113.8125,55.9375 C 113.8125,28.458264 91.479237,6.125 64,6.125 z M 64,9.8623974 C 89.45707,9.8623974 110.0751,30.48043 110.0751,55.9375 C 110.0751,81.39457 89.45707,102.0126 64,102.0126 C 38.542929,102.0126 17.924897,81.39457 17.924897,55.9375 C 17.924897,30.480431 38.54293,9.8623974 64,9.8623974 z M 84.84767,16.490438 L 49.459188,46.010038 L 50.919109,49.689039 L 84.84767,21.395772 L 79.50436,43.265387 L 82.862178,45.367673 L 89.256631,19.118296 C 87.844053,18.154428 86.37036,17.28997 84.84767,16.490438 z M 37.955012,19.848256 C 36.517921,20.88855 35.139117,22.035058 33.838035,23.235273 L 51.152696,66.594922 L 55.094483,66.302938 L 38.451385,24.607598 L 57.576348,36.549751 L 60.642182,33.98029 L 37.955012,19.848256 z M 67.766596,38.447648 L 64.700762,40.98791 L 103.41786,65.1642 L 79.883939,66.799311 L 78.94959,70.653502 L 106.92167,68.697208 C 107.41009,67.042386 107.7938,65.345555 108.08961,63.616684 L 67.766596,38.447648 z M 77.548066,51.411745 L 66.77385,95.618149 L 58.189515,74.098916 L 54.247729,74.361701 L 64.72996,100.66948 C 66.34306,100.64747 67.921946,100.53692 69.489302,100.34829 L 80.905884,53.484833 L 77.548066,51.411745 z M 42.626758,51.703729 L 21.457906,69.339574 C 22.008857,71.10767 22.68617,72.841614 23.443398,74.507693 L 70.423652,71.237471 L 71.358001,67.412478 L 25.896065,70.536709 L 44.086679,55.38273 L 42.626758,51.703729 z "
       style="fill:#ff0000;fill-opacity:1;fill-rule:evenodd;stroke:none;stroke-width:4.03736734;stroke-linecap:butt;stroke-linejoin:bevel;stroke-miterlimit:4;stroke-dasharray:none;stroke-opacity:1" />
  </g>
</svg>
