<?xml version="1.0" encoding="UTF-8" standalone="no"?>
<!-- Created with Inkscape (http://www.inkscape.org/) -->
<svg
   xmlns:dc="http://purl.org/dc/elements/1.1/"
   xmlns:cc="http://web.resource.org/cc/"
   xmlns:rdf="http://www.w3.org/1999/02/22-rdf-syntax-ns#"
   xmlns:svg="http://www.w3.org/2000/svg"
   xmlns="http://www.w3.org/2000/svg"
   xmlns:xlink="http://www.w3.org/1999/xlink"
   xmlns:sodipodi="http://inkscape.sourceforge.net/DTD/sodipodi-0.dtd"
   xmlns:inkscape="http://www.inkscape.org/namespaces/inkscape"
   width="128"
   height="128"
   id="svg2"
   sodipodi:version="0.32"
   inkscape:version="0.43"
   version="1.0"
   sodipodi:docbase="/home/nicu/Desktop/svg"
   sodipodi:docname="shit.svg">
  <defs
     id="defs4">
    <linearGradient
       id="linearGradient2261">
      <stop
         style="stop-color:#735017;stop-opacity:1;"
         offset="0"
         id="stop2263" />
      <stop
         style="stop-color:#93651d;stop-opacity:1;"
         offset="1"
         id="stop2265" />
    </linearGradient>
    <linearGradient
       inkscape:collect="always"
       xlink:href="#linearGradient2261"
       id="linearGradient2267"
       x1="233"
       y1="184.36218"
       x2="187"
       y2="101.36218"
       gradientUnits="userSpaceOnUse"
       gradientTransform="matrix(0.385144,0,0,0.385144,-0.279789,41.71114)" />
    <linearGradient
       inkscape:collect="always"
       xlink:href="#linearGradient2261"
       id="linearGradient2269"
       x1="221.69165"
       y1="147.21933"
       x2="164.31416"
       y2="67.21933"
       gradientUnits="userSpaceOnUse"
       gradientTransform="matrix(0.385144,0,0,0.385144,-0.279789,41.71114)" />
    <linearGradient
       inkscape:collect="always"
       xlink:href="#linearGradient2261"
       id="linearGradient2271"
       x1="174.22121"
       y1="106.7634"
       x2="136.711"
       y2="54.502182"
       gradientUnits="userSpaceOnUse"
       gradientTransform="matrix(0.385144,0,0,0.385144,-0.279789,41.71114)" />
  </defs>
  <sodipodi:namedview
     id="base"
     pagecolor="#ffffff"
     bordercolor="#666666"
     borderopacity="1.0"
     inkscape:pageopacity="0.0"
     inkscape:pageshadow="2"
     inkscape:zoom="1"
     inkscape:cx="64"
     inkscape:cy="31.856595"
     inkscape:document-units="px"
     inkscape:current-layer="layer1"
     showguides="true"
     inkscape:guide-bbox="true"
     inkscape:window-width="1152"
     inkscape:window-height="791"
     inkscape:window-x="0"
     inkscape:window-y="24" />
  <metadata
     id="metadata7">
    <rdf:RDF>
      <cc:Work
         rdf:about="">
        <dc:format>image/svg+xml</dc:format>
        <dc:type
           rdf:resource="http://purl.org/dc/dcmitype/StillImage" />
      </cc:Work>
    </rdf:RDF>
  </metadata>
  <g
     inkscape:label="Layer 1"
     inkscape:groupmode="layer"
     id="layer1">
    <path
       style="fill:url(#linearGradient2271);fill-opacity:1;fill-rule:nonzero;stroke:none;stroke-width:1px;stroke-linecap:butt;stroke-linejoin:miter;stroke-opacity:1"
       d="M 53.086772,55.456009 C 50.153374,60.281359 50.317981,66.093662 48.537255,71.270996 C 46.912007,74.273879 42.911756,74.537062 39.967793,75.399263 C 35.565329,76.399353 32.50267,76.160644 27.560115,77.516883 C 25.113534,77.966432 24.907966,80.461876 23.569165,82.488837 C 22.442839,85.111002 23.681631,87.488617 25.520309,88.910849 C 28.421719,91.834879 30.507754,92.363496 34.788215,91.36212 C 40.497058,90.730298 45.658767,87.619927 51.498487,87.721536 C 55.918273,87.14731 60.515417,87.284556 64.84571,86.363845 C 68.159176,84.922622 70.32113,81.684724 72.42824,78.901671 C 74.597588,75.636899 71.875211,72.078146 69.816044,69.574542 C 66.151789,64.143652 60.79551,60.250255 55.205066,56.996581 C 54.332009,56.779898 53.500248,54.199402 53.086772,55.456009 z "
       id="path1358"
       sodipodi:nodetypes="ccccccccccccc" />
    <path
       style="fill:url(#linearGradient2269);fill-opacity:1;fill-rule:nonzero;stroke:none;stroke-width:1px;stroke-linecap:butt;stroke-linejoin:miter;stroke-opacity:1"
       d="M 76.123218,71.34321 C 75.118549,71.484169 72.818187,71.210861 72.797089,71.92405 C 75.28023,74.848299 72.690211,78.818808 70.646947,81.188465 C 67.78995,85.162686 62.926236,87.541496 57.949219,87.230419 C 51.831699,87.879489 45.491869,87.668938 39.75115,90.155108 C 35.427807,91.285838 30.103914,93.058803 26.138705,89.890319 C 23.766491,88.25806 25.226914,85.154055 23.092143,83.242846 C 18.616243,83.721217 15.413991,88.737432 13.788148,92.030818 C 12.199991,96.146828 16.040315,100.3197 18.917248,102.81673 C 23.620832,106.48165 29.869981,109.0727 35.884391,107.73786 C 44.082952,106.61505 51.573304,105.1684 59.626114,103.52821 C 63.981538,103.45857 68.695451,102.73181 73.042063,101.92608 C 78.555138,101.66761 84.253042,100.37323 88.411728,96.546095 C 91.954104,93.661078 95.581637,90.07798 96.511797,85.449122 C 96.569817,80.800107 92.679948,77.396837 89.543092,74.472512 C 86.644075,71.86082 82.690409,70.938053 78.855362,71.350662 C 77.944604,71.339395 77.033995,71.322866 76.123218,71.34321 z "
       id="path1356"
       sodipodi:nodetypes="ccccccccccccccccc" />
    <path
       style="fill:url(#linearGradient2267);fill-opacity:1;fill-rule:nonzero;stroke:none;stroke-width:1px;stroke-linecap:butt;stroke-linejoin:miter;stroke-opacity:1"
       d="M 96.078506,78.745206 C 94.495731,79.112874 96.217257,80.564475 96.463649,81.356966 C 98.741307,85.461345 95.212532,89.846138 92.367018,92.645068 C 87.017545,98.422546 79.39609,102.1135 71.424615,102.11859 C 67.244917,102.76161 63.05675,102.96021 58.072388,104.02979 C 49.04556,105.68714 41.082775,107.22984 31.879762,107.90785 C 28.375027,107.67408 25.218897,106.20903 21.957497,104.98556 C 20.174542,104.40396 16.628556,100.15969 15.154735,99.472983 C 10.660092,99.291937 8.2887782,105.95608 9.0032966,110.15541 C 10.271709,112.875 16.561427,116.86262 19.783108,117.69628 C 31.042345,117.75175 37.636739,118.16328 45.778231,119.10991 C 59.584947,119.53842 73.53737,117.85092 87.015583,114.62381 C 96.191162,112.34128 104.15322,105.33016 106.89374,96.175958 C 108.45679,92.259823 110.57209,86.871033 107.17548,83.342868 C 104.18886,80.767405 100.12029,78.705255 96.078506,78.745206 z "
       id="path1354"
       sodipodi:nodetypes="ccccccccccccccc" />
    <path
       style="fill:#000000;fill-opacity:1;fill-rule:nonzero;stroke:none;stroke-width:1px;stroke-linecap:butt;stroke-linejoin:miter;stroke-opacity:1"
       d="M 54.165084,52.284776 C 52.326964,53.235017 49.693158,62.142787 49.556647,64.477432 C 49.723261,66.456414 49.017469,71.146007 46.638474,72.79224 C 42.59524,75.583058 33.867346,75.833748 30.693463,76.134826 C 27.228095,76.398846 23.568109,78.868631 23.303136,82.568877 C 17.825387,82.143632 12.90885,89.520388 12.74828,95.292922 C 12.435742,97.299565 13.185656,97.651287 14.093015,98.808247 C 11.823547,99.988436 7.2770361,104.80753 8.3292744,110.09339 C 9.5759893,113.43717 16.449491,117.86107 19.653387,118.15992 C 23.145648,118.79243 40.220549,119.74519 43.664879,119.98749 C 50.09243,120.77007 79.568305,117.41987 87.793431,115.82301 C 93.932689,114.27315 96.051649,111.58849 99.762146,109.19248 C 102.97375,107.169 105.24799,102.1519 106.63916,98.603245 C 107.87499,95.359909 109.42383,92.172823 110.00008,88.726007 C 110.34881,86.453129 109.87215,83.689548 107.7414,82.430454 C 105.21092,80.399306 102.67872,77.97344 99.306058,77.56627 C 97.727632,77.287387 96.061258,77.300524 94.540936,77.852503 C 92.595037,75.819418 90.643107,73.710261 88.256583,72.188544 C 86.270724,70.936945 83.86444,70.542293 81.560999,70.881403 C 78.48837,70.973699 74.950245,70.624041 71.913024,71.370853 C 69.706741,68.353107 67.510081,65.487335 64.583446,63.107797 C 61.944857,60.815878 59.405682,58.288936 56.38348,56.564068 C 54.681185,55.689534 54.668699,53.332168 54.165084,52.284776 z M 53.424925,55.632876 C 54.730017,57.797878 57.370089,58.515592 59.271581,60.027253 C 62.812294,62.297145 66.027945,65.097437 68.490327,68.521905 C 70.123185,70.645907 72.072446,72.721549 72.80151,75.357518 C 73.263783,78.146069 70.917719,80.35669 69.245202,82.267476 C 67.642517,84.170226 65.727167,86.241782 63.046223,86.325966 C 58.160552,86.742204 53.277264,87.178253 48.391952,87.603001 C 44.479709,87.898648 41.01814,90.013861 37.142116,90.49926 C 34.24106,91.193813 30.998898,91.676429 28.291662,90.064945 C 25.690328,88.652296 25.410485,88.215907 24.298686,85.199656 C 23.953274,83.341825 24.336709,80.536596 26.165011,79.648975 C 27.312142,77.989166 29.531543,77.475075 31.442282,77.002246 C 35.809549,77.108228 45.587288,75.832182 48.339864,72.373887 C 49.897022,70.508805 50.502839,63.12595 51.206921,61.155021 C 51.802624,59.26957 52.509841,57.375702 53.424925,55.632876 z M 81.034296,71.73254 C 85.557425,71.421395 89.424591,74.392956 92.227421,77.638365 C 94.383558,79.955137 96.784597,82.992592 95.982827,86.37578 C 93.990108,91.753236 89.391026,95.656411 84.71045,98.707468 C 78.875581,102.33505 60.657093,102.74334 56.998842,103.7665 C 52.190696,104.97366 33.943443,108.71244 29.120022,107.19941 C 23.913149,105.98674 18.805941,103.34382 15.771268,98.800448 C 13.851288,96.655553 13.612042,92.315869 15.408036,90.063063 C 16.751601,88.047852 18.517973,84.240058 22.987039,84.128113 C 23.027445,87.522048 26.155745,91.515523 30.368237,92.068254 C 33.190308,92.238888 35.976531,91.485308 38.712616,90.885688 C 41.802444,89.962516 44.800385,88.55556 48.085446,88.511692 C 52.473777,88.07824 56.867557,87.617905 61.268351,87.42423 C 65.184872,86.927463 68.586602,84.507585 70.943515,81.426397 C 72.5424,79.593459 75.397344,75.060957 72.86552,71.925327 C 74.995619,71.587165 78.955076,71.781246 81.034296,71.73254 z M 96.930294,79.153984 C 100.04628,79.255753 102.89086,80.854625 105.48686,82.451796 C 107.56957,83.733957 108.89917,86.120262 108.5812,88.593067 C 108.3251,92.584401 106.34938,96.169191 105.00903,99.863261 C 102.07027,106.40871 95.194328,111.41202 90.172723,113.23055 C 77.330869,117.97903 50.138805,119.2755 43.565844,118.50344 C 40.08263,117.98961 25.839328,117.95872 19.942222,117.16087 C 15.437009,116.48546 10.202144,111.7861 9.2133621,109.98893 C 9.8982954,102.25484 13.852875,100.24263 14.903508,99.821288 C 17.894414,103.98126 25.613372,106.84025 30.106435,108.16086 C 34.151482,109.19503 51.950327,105.75527 56.911726,104.54875 C 59.911834,103.69743 72.557116,102.38701 75.843777,102.11489 C 83.994056,100.91079 91.053585,95.644306 95.844067,89.121259 C 97.444546,86.858556 98.304759,83.711135 96.798732,81.179769 C 96.508896,80.011778 94.552465,78.898998 96.930294,79.153984 z "
       id="path1315"
       sodipodi:nodetypes="ccccccccccccccccccccccccccccccccccccccccccccccccccccccccccccccccccccc" />
    <path
       style="fill:#000000;fill-opacity:1;fill-rule:nonzero;stroke:none;stroke-width:1px;stroke-linecap:butt;stroke-linejoin:miter;stroke-opacity:1"
       d="M 99.171697,14.438136 C 93.054779,14.935569 87.440627,20.163004 87.162023,26.409434 C 88.343295,32.429741 96.321015,35.185445 98.897129,40.456157 C 99.58275,43.521188 94.12095,46.595668 95.456149,49.647605 C 96.206929,51.102591 94.7619,53.400211 94.20499,53.56818 C 97.048347,53.668723 100.10538,50.509578 98.619541,47.69329 C 97.134281,44.749728 101.33369,42.692772 100.52254,39.75734 C 98.633464,34.971578 91.641767,32.240345 89.710189,27.455509 C 88.107139,24.154927 90.484959,19.89436 93.699603,17.753583 C 95.393756,16.41814 97.608987,15.951693 99.171697,14.438136 z M 67.589864,18.28958 C 64.699383,18.825795 61.686429,21.649952 62.609331,24.800506 C 63.853116,28.398283 68.816629,29.686685 69.91577,33.357986 C 69.600252,36.117483 64.596009,38.598671 65.424748,41.601461 C 66.708168,44.650429 69.689616,46.723719 70.551135,49.990454 C 73.057442,50.997133 73.591021,48.951182 72.527741,47.027234 C 70.9905,45.017064 67.452098,43.876895 67.507285,40.870517 C 67.491779,37.942665 72.993662,34.503889 71.814966,31.347043 C 69.979457,28.325629 65.005541,27.302574 64.726643,23.505327 C 64.080328,22.20428 65.913153,18.649707 67.589864,18.28958 z M 32.541729,23.296456 C 29.355354,23.074908 25.397546,25.110254 25.394889,28.681067 C 25.331958,32.766642 30.524401,34.45687 32.674554,37.483167 C 34.00736,40.074516 30.808924,44.537384 28.021469,45.32738 C 25.408457,47.188495 26.083581,51.086798 28.059768,53.155436 C 29.121564,54.997256 32.152872,58.085202 34.101925,55.613835 C 34.920654,53.405913 30.700218,53.045038 29.427969,51.632424 C 27.702479,50.198746 29.508995,46.36408 30.85659,44.68583 C 33.273083,43.18081 36.207215,40.984231 34.943445,37.691494 C 34.148357,35.012595 29.642627,33.607433 28.318893,31.229854 C 26.977955,29.363098 28.22601,26.278084 30.370042,24.746347 C 31.039896,24.186164 31.806478,23.761691 32.541729,23.296456 z M 125.31337,41.02513 C 119.50245,42.26371 113.02421,42.619704 108.34,46.714939 C 105.9783,49.069302 107.65136,52.744797 109.63949,54.748217 C 111.18929,57.388932 110.39521,58.204101 108.46841,59.951596 C 106.11301,60.844757 104.79132,68.796144 108.02277,66.978617 C 109.46037,64.467383 109.5623,61.25784 111.82356,59.214206 C 113.88095,57.393356 112.47608,54.889151 110.38638,52.854383 C 109.19583,51.100036 110.01051,47.678419 111.91022,45.946497 C 114.4946,43.818613 118.13583,44.811893 121.08075,43.56542 C 122.65904,43.059847 124.17636,42.250734 125.31337,41.02513 z M 6.1593426,49.618667 C 2.6419697,49.645347 5.6024089,54.241341 8.4447869,53.140979 C 11.083467,55.206665 8.8661394,59.954988 8.76195,62.759662 C 8.9709006,66.277821 13.711622,68.125131 14.767904,71.21943 C 15.613257,73.560581 9.9568066,76.089029 12.847644,77.528467 C 15.380295,77.149964 15.966775,74.380783 16.913638,72.428185 C 17.821062,70.128187 15.998229,68.306727 14.019996,66.788224 C 11.725042,65.060159 10.094158,62.423919 10.837674,59.654129 C 11.809365,56.632154 12.106899,52.295019 9.1085459,51.237959 C 8.1142004,50.719968 7.0860793,50.255988 6.1593426,49.618667 z "
       id="path2273"
       sodipodi:nodetypes="cccccccccccccccccccccccccccccccccccccccccccccccccccc" />
  </g>
</svg>
