<?xml version="1.0" encoding="UTF-8" standalone="no"?>
<!-- Created with Inkscape (http://www.inkscape.org/) -->
<svg
   xmlns:dc="http://purl.org/dc/elements/1.1/"
   xmlns:cc="http://web.resource.org/cc/"
   xmlns:rdf="http://www.w3.org/1999/02/22-rdf-syntax-ns#"
   xmlns:svg="http://www.w3.org/2000/svg"
   xmlns="http://www.w3.org/2000/svg"
   xmlns:sodipodi="http://sodipodi.sourceforge.net/DTD/sodipodi-0.dtd"
   xmlns:inkscape="http://www.inkscape.org/namespaces/inkscape"
   width="240"
   height="155"
   id="svg2"
   sodipodi:version="0.32"
   inkscape:version="0.44+devel"
   version="1.0"
   sodipodi:docbase="/home/nicu/Desktop"
   sodipodi:docname="alliance.svg"
   inkscape:output_extension="org.inkscape.output.svg.inkscape"
   sodipodi:modified="true">
  <defs
     id="defs4" />
  <sodipodi:namedview
     id="base"
     pagecolor="#ffffff"
     bordercolor="#666666"
     borderopacity="1.0"
     gridtolerance="10000"
     guidetolerance="10"
     objecttolerance="10"
     inkscape:pageopacity="0.0"
     inkscape:pageshadow="2"
     inkscape:zoom="1"
     inkscape:cx="120"
     inkscape:cy="157.5"
     inkscape:document-units="px"
     inkscape:current-layer="layer1"
     width="240px"
     height="155px"
     inkscape:window-width="778"
     inkscape:window-height="620"
     inkscape:window-x="409"
     inkscape:window-y="40" />
  <metadata
     id="metadata7">
    <rdf:RDF>
      <cc:Work
         rdf:about="">
        <dc:format>image/svg+xml</dc:format>
        <dc:type
           rdf:resource="http://purl.org/dc/dcmitype/StillImage" />
      </cc:Work>
    </rdf:RDF>
  </metadata>
  <g
     inkscape:label="Layer 1"
     inkscape:groupmode="layer"
     id="layer1">
    <g
       id="g3279"
       transform="translate(-92,192)">
      <rect
         transform="matrix(0.48,0,0,0.4783951,48.8,-378.26897)"
         style="fill:#ffffff;fill-opacity:1;stroke:none;stroke-width:4;stroke-linecap:round;stroke-linejoin:round;stroke-miterlimit:4;stroke-dasharray:none;stroke-dashoffset:0;stroke-opacity:1"
         id="rect3241"
         width="500"
         height="324"
         x="90"
         y="389.36218" />
      <path
         id="path3243"
         d="M 189.4375,-192 L 189.4375,-161 L 331.53125,-161 L 331.53125,-192 L 189.4375,-192 z M 189.4375,-130 L 189.4375,-99 L 331.53125,-99 L 331.53125,-130 L 189.4375,-130 z M 189.4375,-68 L 189.4375,-37 L 331.53125,-37 L 331.53125,-68 L 189.4375,-68 z "
         style="fill:#ff0103;fill-opacity:1;stroke:none;stroke-width:4;stroke-linecap:round;stroke-linejoin:round;stroke-miterlimit:4;stroke-dasharray:none;stroke-dashoffset:0;stroke-opacity:1" />
      <rect
         transform="matrix(0.48,0,0,0.4783951,48.8,-378.26897)"
         y="389.36218"
         x="90"
         height="324"
         width="250"
         id="rect3245"
         style="fill:#012466;fill-opacity:1;stroke:none;stroke-width:4;stroke-linecap:round;stroke-linejoin:round;stroke-miterlimit:4;stroke-dasharray:none;stroke-dashoffset:0;stroke-opacity:1" />
      <g
         id="g3247"
         transform="matrix(0.4565026,0,0,0.4549763,53.334991,-214.94203)">
        <rect
           y="116.36218"
           x="193"
           height="211"
           width="322"
           id="rect3249"
           style="opacity:1;fill:#ff0103;fill-opacity:1;stroke:none;stroke-width:4;stroke-linecap:round;stroke-linejoin:round;stroke-miterlimit:4;stroke-dasharray:none;stroke-dashoffset:0;stroke-opacity:1" />
        <path
           id="path3251"
           d="M 430.6875,125.03125 L 422.5625,133.40625 L 411.71875,128.5 L 417.15625,138.8125 L 409.15625,147.59375 L 420.65625,145.625 L 426.53125,155.9375 L 428.1875,144.40625 L 439.84375,142 L 429.375,136.84375 L 430.6875,125.03125 z M 265.28125,130.15625 L 245.625,159 L 211.21875,150.125 L 232.5625,177.75 L 213.5,207.75 L 246.34375,195.96875 L 269,223.375 L 267.9375,188.46875 L 301,175.40625 L 267.5,165.625 L 265.28125,130.15625 z M 453.03125,173.25 L 454.28125,184.84375 L 443.59375,190.0625 L 455.03125,192.46875 L 456.6875,204.21875 L 462.46875,194.09375 L 474.1875,196.15625 L 466.34375,187.5 L 471.90625,177.03125 L 461.28125,181.8125 L 453.03125,173.25 z M 305.53125,215.25 L 303.125,250.0625 L 268.90625,259.78125 L 301.28125,272.84375 L 299.96875,308.375 L 322.375,281.625 L 355.75,293.84375 L 337.25,264.25 L 359.1875,236.3125 L 325.34375,244.75 L 305.53125,215.25 z M 462.34375,236.875 L 458.5625,247.90625 L 446.6875,248.09375 L 456,255.09375 L 452.46875,266.4375 L 462.03125,259.75 L 471.75,266.59375 L 468.34375,255.4375 L 477.84375,248.34375 L 466.1875,248.125 L 462.34375,236.875 z M 435.78125,290.1875 L 428.6875,299.4375 L 417.375,295.84375 L 423.96875,305.46875 L 417.0625,315.125 L 428.25,311.78125 L 435.28125,321.34375 L 435.59375,309.6875 L 446.84375,305.9375 L 435.84375,302.0625 L 435.78125,290.1875 z "
           style="opacity:1;fill:#f5ea04;fill-opacity:1;stroke:none;stroke-width:4;stroke-linecap:round;stroke-linejoin:round;stroke-miterlimit:4;stroke-dasharray:none;stroke-dashoffset:0;stroke-opacity:1" />
      </g>
    </g>
  </g>
</svg>
