<?xml version="1.0" encoding="UTF-8" standalone="no"?>
<!DOCTYPE svg PUBLIC "-//W3C//DTD SVG 1.0//EN"
"http://www.w3.org/TR/2001/REC-SVG-20010904/DTD/svg10.dtd">
<!-- Created with Inkscape (http://www.inkscape.org/) -->
<svg
   id="svg1"
   sodipodi:version="0.32"
   inkscape:version="0.39"
   xmlns="http://www.w3.org/2000/svg"
   xmlns:sodipodi="http://sodipodi.sourceforge.net/DTD/sodipodi-0.dtd"
   xmlns:inkscape="http://www.inkscape.org/namespaces/inkscape"
   xmlns:xlink="http://www.w3.org/1999/xlink"
   xmlns:rdf="http://www.w3.org/1999/02/22-rdf-syntax-ns#"
   xmlns:cc="http://web.resource.org/cc/"
   xmlns:dc="http://purl.org/dc/elements/1.1/"
   width="160.00000pt"
   height="160.00000pt"
   sodipodi:docbase="/home/nicu/Desktop/camel"
   sodipodi:docname="waving_flag.svg">
  <defs
     id="defs3" />
  <sodipodi:namedview
     id="base"
     pagecolor="#ffffff"
     bordercolor="#666666"
     borderopacity="1.0"
     inkscape:pageopacity="0.0"
     inkscape:pageshadow="2"
     inkscape:zoom="1.0000000"
     inkscape:cx="80.000000"
     inkscape:cy="80.000000"
     inkscape:window-width="911"
     inkscape:window-height="694"
     inkscape:window-x="86"
     inkscape:window-y="32" />
  <metadata
     id="metadata4">
    <rdf:RDF
       id="RDF5">
      <cc:Work
         rdf:about=""
         id="Work6">
        <dc:format
           id="format7">image/svg+xml</dc:format>
        <dc:type
           id="type9"
           rdf:resource="http://purl.org/dc/dcmitype/StillImage" />
        <dc:title
           id="title2216">Waving White Flag</dc:title>
        <dc:rights
           id="rights2218">
          <cc:Agent
             id="Agent2219">
            <dc:title
               id="title2220">Nicu Buculei</dc:title>
          </cc:Agent>
        </dc:rights>
        <dc:creator
           id="creator2222">
          <cc:Agent
             id="Agent2223">
            <dc:title
               id="title2224">Nicu Buculei</dc:title>
          </cc:Agent>
        </dc:creator>
        <dc:subject
           id="subject2226">flag</dc:subject>
        <cc:license
           id="license2228"
           rdf:resource="http://web.resource.org/cc/PublicDomain" />
      </cc:Work>
      <cc:License
         rdf:about="http://web.resource.org/cc/PublicDomain"
         id="License2229">
        <cc:permits
           rdf:resource="http://web.resource.org/cc/Reproduction"
           id="permits2230" />
        <cc:permits
           rdf:resource="http://web.resource.org/cc/Distribution"
           id="permits2231" />
        <cc:permits
           rdf:resource="http://web.resource.org/cc/DerivativeWorks"
           id="permits2232" />
      </cc:License>
    </rdf:RDF>
  </metadata>
  <path
     style="fill:#ffffff;fill-opacity:1.0000000;fill-rule:evenodd;stroke:none;stroke-width:1.0000000pt;stroke-linecap:butt;stroke-linejoin:miter;stroke-opacity:1.0000000;"
     d="M 172.78125 7.1875000 C 170.89089 8.3217155 135.35444 19.672141 122.50000 21.562500 C 122.50329 21.571912 122.52790 21.646671 122.53125 21.656250 C 104.56875 24.033921 86.996750 0.95021447 71.062500 9.8437500 C 71.062500 9.8437500 71.124848 9.9683422 71.125000 9.9687500 C 50.967668 13.366511 31.519962 18.211168 11.718750 24.562500 C 11.718750 24.562500 36.672140 93.388354 38.562500 99.437500 C 49.669053 92.033132 90.437097 82.913462 97.468750 81.468750 C 97.477794 81.494815 97.522467 81.630878 97.531250 81.656250 C 117.56468 84.995156 122.08752 97.701428 147.25000 91.750000 C 147.27696 91.783704 147.41550 92.232400 147.43750 92.250000 C 153.48665 91.115784 197.34375 77.500003 197.34375 77.500000 C 197.34375 77.500000 174.67162 6.0532844 172.78125 7.1875000 z "
     id="path2171" />
  <path
     style="fill:#404040;fill-opacity:1.0000000;fill-rule:evenodd;stroke:none;stroke-width:1.0000000pt;stroke-linecap:butt;stroke-linejoin:miter;stroke-opacity:1.0000000;"
     d="M 7.9395085,18.903592 L 12.098299,23.818526 L 70.699433,184.87713 L 68.809074,189.79206 L 65.028355,187.52363 L 6.0491493,24.196597 L 5.2930057,21.172023 L 7.9395085,18.903592 z "
     id="path2167" />
  <path
     style="fill:#ffffff;fill-opacity:0.12549020;fill-rule:evenodd;stroke:none;stroke-width:1.0000000pt;stroke-linecap:butt;stroke-linejoin:miter;stroke-opacity:1.0000000;"
     d="M 143.66730,17.013233 C 143.66730,17.013233 171.26654,6.0491493 173.15690,7.1833648 C 175.04726,8.3175803 193.95085,63.516068 195.08507,69.187146 C 196.21928,74.858223 163.32703,21.550095 143.66730,17.013233 z "
     id="path2177"
     sodipodi:nodetypes="cccc" />
  <path
     style="fill:#ffffff;fill-opacity:0.12549020;fill-rule:evenodd;stroke:none;stroke-width:1.0000000pt;stroke-linecap:butt;stroke-linejoin:miter;stroke-opacity:1.0000000;"
     d="M 27.599244,20.037807 C 27.599244,20.037807 69.565217,6.4272212 72.211720,9.8298677 C 74.858223,13.232514 97.164461,74.102079 94.139887,70.321361 C 91.115312,66.540643 37.807183,22.306238 27.599244,20.037807 z "
     id="path2178" />
  <path
     style="fill:#000000;fill-opacity:1.0000000;fill-rule:evenodd;stroke:none;stroke-width:2.5000000;stroke-linecap:butt;stroke-linejoin:miter;stroke-miterlimit:4.0000000;stroke-opacity:1.0000000;"
     d="M 174.28125,5.1875000 C 154.83023,11.884612 135.38168,19.969683 114.59399,21.121326 C 101.15337,19.147309 91.779380,3.2059672 77.152312,7.1591252 C 55.184000,10.936936 33.740601,17.127494 12.250000,22.937500 C 7.5541696,10.948796 0.99801704,19.227956 6.7906603,30.816281 C 26.104217,83.896826 45.955978,137.00846 65.342336,190.06250 C 79.233357,199.11058 67.629229,173.29377 65.417417,166.88978 C 57.232154,144.40828 48.972603,121.95330 40.968750,99.406250 C 61.021995,91.939057 81.661156,84.034472 103.20859,83.113966 C 115.38417,86.292710 125.10326,100.03107 139.33808,94.608288 C 159.43013,91.857185 178.33561,84.159244 197.73510,78.703019 C 198.44707,67.967127 190.39437,55.812424 187.83043,44.521302 C 183.32307,31.406924 178.81599,18.292441 174.28125,5.1875000 z M 172.75000,8.4062500 C 180.54167,31.052082 188.33333,53.697918 196.12500,76.343750 C 174.08214,83.084472 152.14126,92.042000 128.85037,92.914235 C 116.00247,90.004848 107.07663,77.051965 91.576082,81.636098 C 73.927431,84.839368 56.821501,90.482769 40.156250,97.031250 C 31.259485,73.078567 22.320071,49.141731 13.343750,25.218750 C 36.350345,19.183467 59.188067,12.000388 82.871561,9.0731505 C 96.866583,10.903902 106.52715,27.310987 121.74686,23.211409 C 139.29148,20.414456 156.09467,14.393785 172.75000,8.4062500 z M 20.835671,52.625908 C 35.698631,91.912391 49.956654,131.46452 64.197684,170.94939 C 67.485551,174.78384 72.740971,194.94749 65.319727,184.91619 C 45.945381,130.44869 25.965999,75.404241 6.3122172,21.001697 C 10.303167,16.636595 15.799940,42.138969 20.835671,52.625908 z "
     id="path908"
     sodipodi:nodetypes="ccccccccccccccccccccccccccc" />
  <path
     style="fill:#000000;fill-opacity:0.094117649;fill-rule:evenodd;stroke:none;stroke-width:1.0000000pt;stroke-linecap:butt;stroke-linejoin:miter;stroke-opacity:1.0000000;"
     d="M 97.164461,15.122873 C 97.164461,15.122873 116.82420,87.334594 120.60491,90.359168 C 126.27599,96.408318 152.74102,90.359168 157.65596,89.603024 C 131.19092,73.724008 107.75047,35.538752 102.07940,17.391304 C 99.432901,15.122873 100.56711,17.769376 97.164461,15.122873 z "
     id="path2176"
     sodipodi:nodetypes="ccccc" />
</svg>
