<?xml version="1.0" encoding="UTF-8" standalone="no"?>
<!-- Created with Inkscape (http://www.inkscape.org/) -->
<svg xmlns:dc="http://purl.org/dc/elements/1.1/" xmlns:cc="http://creativecommons.org/ns#" xmlns:rdf="http://www.w3.org/1999/02/22-rdf-syntax-ns#" xmlns:svg="http://www.w3.org/2000/svg" xmlns="http://www.w3.org/2000/svg" xmlns:sodipodi="http://sodipodi.sourceforge.net/DTD/sodipodi-0.dtd" xmlns:inkscape="http://www.inkscape.org/namespaces/inkscape" width="128" height="128" id="svg2" sodipodi:version="0.32" inkscape:version="0.46" version="1.0" sodipodi:docname="trekker.svg" inkscape:output_extension="org.inkscape.output.svg.inkscape" inkscape:export-xdpi="90" inkscape:export-ydpi="90">
  <defs id="defs4">
    <filter inkscape:collect="always" id="filter3443" x="-0.12513924" width="1.2502785" y="-0.32663372" height="1.6532674">
      <feGaussianBlur inkscape:collect="always" stdDeviation="1.9634296" id="feGaussianBlur3445"/>
    </filter>
  </defs>
  <sodipodi:namedview id="base" pagecolor="#ffffff" bordercolor="#666666" borderopacity="1.0" gridtolerance="10000" guidetolerance="10" objecttolerance="10" inkscape:pageopacity="0" inkscape:pageshadow="2" inkscape:zoom="1" inkscape:cx="64" inkscape:cy="64" inkscape:document-units="px" inkscape:current-layer="g4221" showgrid="false" inkscape:window-width="1026" inkscape:window-height="741" inkscape:window-x="543" inkscape:window-y="105" showguides="true" inkscape:guide-bbox="true"/>
  <metadata id="metadata7">
    <rdf:RDF>
      <cc:Work rdf:about="">
        <dc:format>image/svg+xml</dc:format>
        <dc:type rdf:resource="http://purl.org/dc/dcmitype/StillImage"/>
        <cc:license rdf:resource="http://creativecommons.org/licenses/by-sa/3.0/"/>
        <dc:title>Fedora WEBCOMIC 2.0</dc:title>
        <dc:date>May 2008</dc:date>
        <dc:creator>
          <cc:Agent>
            <dc:title>Nicu Buculei</dc:title>
          </cc:Agent>
        </dc:creator>
        <dc:rights>
          <cc:Agent>
            <dc:title>Nicu Buculei</dc:title>
          </cc:Agent>
        </dc:rights>
        <dc:subject>
          <rdf:Bag>
            <rdf:li>fedora</rdf:li>
            <rdf:li>webcomic</rdf:li>
            <rdf:li>nicubunu</rdf:li>
          </rdf:Bag>
        </dc:subject>
        <dc:language>en-US</dc:language>
      </cc:Work>
      <cc:License rdf:about="http://creativecommons.org/licenses/by-sa/3.0/">
        <cc:permits rdf:resource="http://creativecommons.org/ns#Reproduction"/>
        <cc:permits rdf:resource="http://creativecommons.org/ns#Distribution"/>
        <cc:requires rdf:resource="http://creativecommons.org/ns#Notice"/>
        <cc:requires rdf:resource="http://creativecommons.org/ns#Attribution"/>
        <cc:permits rdf:resource="http://creativecommons.org/ns#DerivativeWorks"/>
        <cc:requires rdf:resource="http://creativecommons.org/ns#ShareAlike"/>
      </cc:License>
    </rdf:RDF>
  </metadata>
  <g inkscape:label="Layer 1" inkscape:groupmode="layer" id="layer1">
    <path id="path3018" d="M 52.021263,113.30556 C 46.556523,113.72794 45.198433,110.04568 40.526383,114.19507 C 39.113073,115.60838 38.800983,118.41232 39.192123,119.97686 C 42.066723,123.82788 45.190733,122.8565 49.797493,124.42439 C 52.073823,124.99348 54.060413,125.3139 56.913543,125.3139 C 59.813353,125.3139 61.597503,126.75233 64.474353,125.3139 C 66.705443,124.19836 68.765063,124.54201 70.700903,123.09013 C 72.213263,121.95586 72.927303,119.9663 73.369423,118.19785 C 74.153253,115.06252 71.492793,114.59101 69.811393,113.75032 C 67.650393,112.66982 63.905023,113.33671 62.250583,113.75032 C 60.477303,114.19364 58.934563,111.52655 56.468793,111.52655 C 54.469443,111.52655 55.409373,113.30556 52.021263,113.30556 z" style="fill: rgb(0, 0, 0); fill-opacity: 0.728395; fill-rule: evenodd; stroke: none; stroke-width: 1px; stroke-linecap: butt; stroke-linejoin: miter; stroke-opacity: 1; filter: url(#filter3443);" sodipodi:nodetypes="ccccsssssssc"/>
    <g transform="translate(-237.488, -101.709)" id="g3765"/>
    <g id="g4184" transform="translate(-302.488, -113.709)"/>
    <g id="g3779" transform="translate(-158.909, -175.709)"/>
    <g id="g4221" transform="matrix(0.775049, 0, 0, 0.775049, 27.786, -77.6533)">
      <path id="path4211" d="M 18.649942,251.82835 L 17.500893,254.12645 L 19.622214,254.92194 L 20.152544,253.33095 L 21.566757,253.7729 L 21.566757,255.2755 L 23.334524,255.54066 L 23.511301,254.21484 L 24.925514,254.48 L 24.925514,255.9826 L 26.870058,255.89422 L 26.958446,254.48 L 29.079767,254.65678 L 29.079767,255.71744 L 32.173359,255.62905 L 32.350136,252.44707 L 19.091883,251.82835 L 18.649942,251.82835 z" style="fill: rgb(43, 17, 0); fill-opacity: 1; fill-rule: evenodd; stroke: rgb(0, 0, 0); stroke-width: 1.29024px; stroke-linecap: butt; stroke-linejoin: miter; stroke-opacity: 1;"/>
      <path sodipodi:nodetypes="ccccccc" id="path4151" d="M 52.325902,157.51798 C 59.922299,156.00458 69.079206,159.35772 73.539105,165.64971 C 79.547586,171.18704 79.977086,178.61335 79.903066,186.50936 C 79.191468,194.06267 79.821353,201.58179 79.19596,209.13678 C 76.153656,216.50342 65.000495,219.88867 57.982756,217.62206 C 49.244295,208.09262 39.417486,182.0038 38.183766,168.47814 C 37.159887,161.24215 46.82004,160.22311 52.325902,157.51798 z" style="fill: rgb(0, 128, 0); fill-rule: evenodd; stroke: rgb(0, 38, 0); stroke-width: 1.29024px; stroke-linecap: butt; stroke-linejoin: miter; stroke-opacity: 1;"/>
      <path sodipodi:nodetypes="cccccccc" style="fill: rgb(0, 50, 92); fill-opacity: 1; fill-rule: evenodd; stroke: rgb(0, 25, 46); stroke-width: 1.29024px; stroke-linecap: butt; stroke-linejoin: miter; stroke-opacity: 1;" d="M 29.49451,214.63736 C 29.310813,215.62321 28.368702,218.18305 28.703586,219.85746 C 29.897514,223.39456 30.062735,226.6988 29.17814,230.29766 C 29.198299,233.82791 28.074365,239.72493 30.601804,242.3197 C 34.202811,243.74591 37.823016,244.65485 40.883816,241.52878 C 39.307625,236.65443 39.183621,232.21055 39.934707,227.13396 C 39.971254,222.32455 40.907114,217.73176 40.725632,212.89733 C 37.982871,211.88384 31.225786,212.61754 29.49451,214.63736 z" id="path2635"/>
      <path sodipodi:nodetypes="cccccccsc" id="path2637" d="M 29.571704,242.15516 C 25.552772,242.94499 22.245887,243.70034 18.833765,246.18189 C 18.074275,247.09168 18.108734,247.96968 18.162643,249.09009 C 18.462929,250.05696 18.808885,251.00396 19.057463,251.99828 C 22.540225,252.32351 26.38757,254.40962 30.024644,253.23854 C 33.844744,253.28735 37.705909,251.94973 40.868909,249.64935 C 41.59971,247.48598 40.903679,240.31011 40.733586,237.91252 C 38.43386,238.6352 30.771303,235.38954 28.908683,237.31795 C 28.122589,238.13181 30.802871,242.47731 29.571704,242.15516 z" style="fill: rgb(85, 34, 0); fill-rule: evenodd; stroke: rgb(43, 17, 0); stroke-width: 1.29024px; stroke-linecap: butt; stroke-linejoin: miter; stroke-opacity: 1;"/>
      <path sodipodi:nodetypes="cscccccccc" id="path2633" d="M 43.572958,214.79554 C 43.389261,215.78139 42.447151,218.34124 42.782034,220.01564 C 43.039306,221.30199 43.424644,222.58606 43.731143,223.81208 C 44.387534,227.03311 43.167031,230.11706 42.940219,233.30317 C 43.592054,236.09829 42.767317,240.51399 44.680252,242.47789 C 48.008448,244.99337 53.114413,244.87575 54.962265,241.68696 C 54.645566,240.42018 54.886551,239.6648 54.329525,238.36508 C 52.702019,234.89876 53.472834,230.94418 54.013156,227.29214 C 54.086199,222.4948 54.984309,217.85669 54.80408,213.05551 C 52.06132,212.04203 45.304234,212.77573 43.572958,214.79554 z" style="fill: rgb(0, 50, 92); fill-opacity: 1; fill-rule: evenodd; stroke: rgb(0, 25, 46); stroke-width: 1.29024px; stroke-linecap: butt; stroke-linejoin: miter; stroke-opacity: 1;"/>
      <path id="path4209" d="M 32.375,253.375 L 30.75,255.875 L 32.75,258.25 L 33.625,256.125 L 35.25,257 L 35,258.75 L 37,258.875 L 37.375,257 L 39.375,257.25 L 39.75,258.625 L 42.375,258.625 L 42.625,256.75 L 44.625,256.875 L 45,258.375 L 47.125,258 L 47,256 L 48.75,255.5 L 49.625,257.125 L 51.5,256.625 L 51,254.875 L 52.875,253.875 L 53.625,255.25 L 55.375,253.875 L 54.125,252.25 L 56.125,251.375 L 55,248.25 L 32.375,253.375 z" style="fill: rgb(43, 17, 0); fill-rule: evenodd; stroke: rgb(0, 0, 0); stroke-width: 1.29024px; stroke-linecap: butt; stroke-linejoin: miter; stroke-opacity: 1;"/>
      <path sodipodi:nodetypes="ccccccscsc" id="path2641" d="M 43.777105,242.82629 C 40.574749,244.53733 35.754819,245.41309 32.591743,248.0834 C 32.051485,249.22101 32.073378,250.53618 31.920622,251.77457 C 32.103015,253.41184 33.066437,254.44709 34.269553,255.46573 C 37.51758,256.7222 41.139468,255.74215 44.448226,255.13018 C 47.352044,255.02833 50.77629,254.3626 52.798866,252.14851 C 54.53927,250.52085 55.09323,247.43161 55.186135,244.31028 C 55.260075,241.82615 54.688434,239.23331 54.54398,237.42913 C 52.211553,238.9451 45.78774,236.24022 43.435507,237.776 C 42.257759,238.54495 45.036761,242.82629 43.777105,242.82629 z" style="fill: rgb(85, 34, 0); fill-rule: evenodd; stroke: rgb(43, 17, 0); stroke-width: 1.29024px; stroke-linecap: butt; stroke-linejoin: miter; stroke-opacity: 1;"/>
      <path sodipodi:nodetypes="ccccccccccccccc" id="path2647" d="M 20.63616,193.59878 C 19.672524,195.10154 19.598734,196.63069 19.687051,198.34432 C 19.317152,201.87421 21.097035,205.21399 20.003421,208.62634 C 19.01979,210.70437 18.428508,212.06 16.68154,213.53007 C 14.763556,213.61503 13.367733,214.58603 12.885105,216.21921 C 14.006243,217.35096 15.608819,216.96349 17.156094,216.85195 C 17.616134,218.57368 15.104121,220.81762 14.941507,222.86297 C 17.190338,225.55059 19.073358,221.10117 19.212497,219.06653 C 19.479969,221.02398 18.386507,224.20871 18.579758,225.55211 C 21.156955,226.05758 22.048194,221.7381 22.059824,219.54109 C 22.008838,221.94993 20.807898,224.36352 23.641672,224.28663 C 25.586307,222.85423 25.122978,220.18657 25.381705,217.95924 C 26.146079,214.44858 27.567313,211.12348 27.912662,207.51904 C 27.529994,202.22786 30.068607,195.65618 27.754477,190.75145 C 24.350454,189.04415 23.164751,192.20988 20.63616,193.59878 z" style="fill: rgb(233, 210, 175); fill-opacity: 1; fill-rule: evenodd; stroke: rgb(63, 45, 16); stroke-width: 1.29024px; stroke-linecap: butt; stroke-linejoin: miter; stroke-opacity: 1;"/>
      <path sodipodi:nodetypes="ccccc" id="path2593" d="M 29.089202,173.28194 C 25.673752,176.81956 23.399333,180.83996 21.930568,185.46034 C 20.096662,188.72066 18.218008,191.62286 17.811182,195.41418 C 22.831348,196.36146 27.913877,195.36627 32.892218,196.05024 C 35.170877,190.0002 34.781401,183.362 34.905582,176.9884" style="fill: rgb(61, 99, 72); fill-opacity: 1; fill-rule: evenodd; stroke: rgb(41, 67, 47); stroke-width: 1.29024px; stroke-linecap: butt; stroke-linejoin: miter; stroke-opacity: 1;"/>
      <path sodipodi:nodetypes="cccccccccccc" id="path2581" d="M 61.017073,218.7838 C 57.467267,214.40365 59.912386,207.84342 60.365149,202.82712 C 58.810977,196.55408 62.847702,189.85927 61.515482,183.5883 C 60.92606,179.65803 59.621769,176.11926 57.646939,172.69218 C 55.388984,169.63849 52.373425,167.90104 48.54048,167.70512 C 43.622894,168.42539 38.65889,167.76168 33.775801,168.82365 C 30.172616,170.39142 27.689292,172.98839 27.2883,176.87709 C 27.114259,180.38744 27.350157,183.55068 25.722346,186.7202 C 25.232416,192.35333 23.363596,198.07279 24.156405,203.72194 C 25.288338,210.29405 22.467903,212.99162 23.196046,219.54621 C 28.867769,216.29925 36.218756,221.19374 42.658561,220.47284 C 48.059801,218.54194 57.666124,222.87938 61.017073,218.7838 z" style="fill: rgb(61, 99, 72); fill-opacity: 1; fill-rule: evenodd; stroke: rgb(41, 67, 47); stroke-width: 1.29024px; stroke-linecap: butt; stroke-linejoin: miter; stroke-opacity: 1;"/>
      <g id="g4191">
        <path style="fill: rgb(77, 77, 77); fill-opacity: 1; fill-rule: evenodd; stroke: rgb(26, 26, 26); stroke-width: 1.29024px; stroke-linecap: butt; stroke-linejoin: miter; stroke-opacity: 1;" d="M 17.425441,204.17308 L 23.331791,201.18442 L 30.658655,202.97762 L 26.696167,206.71345 L 17.425441,204.17308 z" id="path4179"/>
        <path style="fill: rgb(77, 77, 77); fill-opacity: 1; fill-rule: evenodd; stroke: rgb(26, 26, 26); stroke-width: 1.29024px; stroke-linecap: butt; stroke-linejoin: miter; stroke-opacity: 1;" d="M 29.013849,202.75347 L 34.023032,199.3165 L 39.480799,200.73612 L 41.125605,205.89157 L 44.26569,206.56402 L 43.89187,222.70283 L 40.07891,224.3466 L 29.013849,202.75347 z" id="path4181"/>
        <path style="fill: rgb(77, 77, 77); fill-rule: evenodd; stroke: rgb(26, 26, 26); stroke-width: 1.29024px; stroke-linecap: butt; stroke-linejoin: miter; stroke-opacity: 1;" d="M 17.507563,204.34055 L 26.161873,206.52572 L 29.278414,202.76891 L 35.307912,204.36689 L 36.347379,209.82938 L 40.198381,211.15222 L 39.762625,224.35508 L 17.558872,218.86048 L 17.507563,204.34055 z" id="path4173" sodipodi:nodetypes="ccccccccc"/>
        <path style="fill: rgb(77, 77, 77); fill-rule: evenodd; stroke: rgb(26, 26, 26); stroke-width: 1.29024px; stroke-linecap: butt; stroke-linejoin: miter; stroke-opacity: 1;" d="M 20.939345,212.01834 L 29.537197,209.47797 C 32.142426,209.89631 38.38451,216.44782 35.144491,221.88095 L 24.07943,225.6915 C 16.660299,225.30456 13.874496,214.45901 20.939345,212.01834 z" id="path4163" sodipodi:nodetypes="ccccc"/>
        <path style="fill: rgb(0, 0, 0); fill-rule: evenodd; stroke: none; stroke-width: 1px; stroke-linecap: butt; stroke-linejoin: miter; stroke-opacity: 1;" d="M 21.238401,213.13909 C 16.110081,213.82019 15.945318,223.14573 23.780374,225.09377 C 28.858077,224.54784 28.30571,213.03996 21.238401,213.13909 z" id="path4165" sodipodi:nodetypes="ccc"/>
        <path style="fill: rgb(51, 51, 51); fill-rule: evenodd; stroke: rgb(26, 26, 26); stroke-width: 1.29024px; stroke-linecap: butt; stroke-linejoin: miter; stroke-opacity: 1;" d="M 21.98604,211.42061 C 29.379344,213.10625 30.421031,221.20303 26.920459,224.86961 L 32.826809,222.5534 C 34.946828,218.7251 31.859172,211.36841 26.920459,209.70212 L 21.98604,211.42061 z" id="path4175" sodipodi:nodetypes="ccccc"/>
        <path style="fill: none; fill-rule: evenodd; stroke: rgb(26, 26, 26); stroke-width: 1.29024px; stroke-linecap: butt; stroke-linejoin: miter; stroke-opacity: 1;" d="M 35.219255,204.2478 L 39.331271,200.73612" id="path4183"/>
        <path style="fill: none; fill-rule: evenodd; stroke: rgb(26, 26, 26); stroke-width: 1.29024px; stroke-linecap: butt; stroke-linejoin: miter; stroke-opacity: 1;" d="M 36.714533,209.77684 L 41.200369,205.89157" id="path4185"/>
        <path style="fill: none; fill-rule: evenodd; stroke: rgb(26, 26, 26); stroke-width: 1.29024px; stroke-linecap: butt; stroke-linejoin: miter; stroke-opacity: 1;" d="M 44.415218,206.78817 L 40.07891,210.97231" id="path4187"/>
        <path style="fill: rgb(204, 204, 204); fill-rule: evenodd; stroke: rgb(128, 128, 128); stroke-width: 1.29024px; stroke-linecap: butt; stroke-linejoin: miter; stroke-opacity: 1;" d="M 29.761488,203.87422 L 27.742862,206.63874 L 34.994963,208.95495 L 34.621143,205.36855 L 29.761488,203.87422 z" id="path4189"/>
        <path sodipodi:nodetypes="ccc" id="path4207" d="M 21.613401,213.63909 C 18.360081,215.07019 14.945318,221.27073 23.405374,223.84377 C 28.483077,223.29784 17.05571,221.41496 21.613401,213.63909 z" style="fill: rgb(230, 230, 230); fill-rule: evenodd; stroke: none; stroke-width: 1px; stroke-linecap: butt; stroke-linejoin: miter; stroke-opacity: 1;"/>
      </g>
      <path sodipodi:nodetypes="ccccc" style="fill: rgb(26, 26, 26); fill-rule: evenodd; stroke: rgb(0, 0, 0); stroke-width: 1.29024px; stroke-linecap: butt; stroke-linejoin: miter; stroke-opacity: 1;" d="M 39.875,207.75 C 44.057595,195.30361 47.82894,182.54879 49.375,168.125 L 51.125,167.625 C 49.756097,178.23006 49.006983,187.86669 42.5,206.5 L 39.875,207.75 z" id="path4205"/>
      <path sodipodi:nodetypes="cccccccccccccccc" id="path2645" d="M 54.132098,200.6607 C 50.956899,203.38831 49.360143,204.83801 45.167853,205.15266 C 43.225521,204.70043 43.964333,201.90914 41.664186,202.09183 C 40.345532,203.36569 40.843979,205.08076 41.317724,206.73127 C 38.691856,206.92436 35.821219,205.98985 34.783286,209.37147 C 36.246723,210.27875 38.304885,210.27151 39.856919,209.82587 C 38.388698,210.91193 34.503236,211.45965 37.528957,213.62697 C 39.450118,214.40738 40.590934,212.77709 42.219896,211.9116 C 41.147314,214.10577 38.712394,216.03782 42.65903,215.709 C 44.114102,215.03902 44.666496,213.81015 45.313257,212.45003 C 46.576673,211.43706 48.314415,211.06232 49.841063,210.4636 C 53.802023,210.43337 57.348995,208.96545 60.959734,207.46459 C 62.363238,203.94011 67.196506,203.75769 68.790604,200.53635 C 69.673629,199.37434 66.28974,192.32153 66.816255,191.02289 C 65.852466,187.44575 57.774942,190.55924 54.115495,190.8855 C 49.399867,191.51593 56.752132,198.11627 54.132098,200.6607 z" style="fill: rgb(233, 210, 175); fill-opacity: 1; fill-rule: evenodd; stroke: rgb(63, 45, 16); stroke-width: 1.29024px; stroke-linecap: butt; stroke-linejoin: miter; stroke-opacity: 1;"/>
      <path sodipodi:nodetypes="ccccccc" id="path2585" d="M 49.216258,179.65423 C 49.379075,182.86956 50.188652,185.81777 51.229622,188.82623 C 52.070507,191.90754 52.314871,195.0492 52.348153,198.22193 C 57.668781,197.65695 63.363802,195.42174 68.678761,193.74779 C 68.120786,191.12777 67.399615,188.55565 66.889108,185.91803 C 66.043946,182.4456 63.275421,180.41771 61.74385,177.41717 C 59.8747,174.80251 57.33348,173.56738 54.137805,174.50897" style="fill: rgb(61, 99, 72); fill-opacity: 1; fill-rule: evenodd; stroke: rgb(41, 67, 47); stroke-width: 1.29024px; stroke-linecap: butt; stroke-linejoin: miter; stroke-opacity: 1;"/>
      <path sodipodi:nodetypes="ccccccccc" id="path2550" d="M 36.394772,114.08285 C 23.169674,114.0054 17.938021,122.7312 17.76155,134.08079 C 17.76155,136.45503 18.85896,141.12776 19.447307,143.48115 C 19.173444,148.11501 18.025364,151.61656 19.39303,156.13979 C 20.98356,162.53898 25.281858,165.94521 31.473212,167.32514 C 36.969362,167.21722 44.355872,165.35064 48.474941,161.50876 C 54.372767,156.68281 56.14841,148.5145 58.318061,141.37512 C 59.089256,134.55556 55.780637,128.04974 53.843911,121.6889 C 51.146847,114.72836 42.989535,113.10862 36.394772,114.08285 z" style="fill: rgb(233, 210, 175); fill-opacity: 1; fill-rule: evenodd; stroke: rgb(63, 45, 16); stroke-width: 1.29024px; stroke-linecap: butt; stroke-linejoin: miter; stroke-opacity: 1;"/>
      <path sodipodi:nodetypes="cccccccc" id="path2554" d="M 19.39303,123.03114 C 18.577252,110.55041 52.617991,106.42936 54.395229,116.29744 C 63.957703,117.0317 64.005931,141.52767 61.630628,149.95741 C 51.765134,149.85691 56.894891,138.42725 51.159426,135.55874 C 48.715787,134.94782 47.899199,136.82121 45.790469,137.34839 C 41.323975,134.4776 45.841227,125.64495 38.631834,122.58372 C 35.111602,124.00638 30.649727,126.20199 26.999075,122.58372 C 23.878734,122.58372 22.050295,124.09404 19.39303,123.03114 z" style="fill: rgb(40, 23, 11); fill-rule: evenodd; stroke: rgb(18, 10, 4); stroke-width: 1.29024px; stroke-linecap: butt; stroke-linejoin: miter; stroke-opacity: 1;"/>
      <path id="path2556" d="M 60.208888,148.18751 C 58.210001,148.18751 61.652596,155.30455 61.998553,156.68839 C 62.534837,158.83353 66.417477,161.98374 67.814933,163.84701 C 69.001888,165.42962 74.10412,163.92635 75.420977,163.3996 C 77.637146,162.51312 80.217748,163.72222 81.237357,164.74185 C 84.418998,167.92347 82.516439,163.27326 81.684779,161.60994 C 81.03159,160.30356 78.047149,158.54616 76.76322,157.58321 C 74.580624,155.94626 74.136086,154.06125 72.289082,152.21424 C 70.526359,150.45152 68.41358,150.42459 66.02528,150.42459 C 64.533319,150.42459 62.033379,148.55241 60.208888,148.18751 z" style="fill: rgb(40, 23, 11); fill-rule: evenodd; stroke: rgb(18, 10, 4); stroke-width: 1.29024px; stroke-linecap: butt; stroke-linejoin: miter; stroke-opacity: 1;"/>
      <path sodipodi:nodetypes="ccccc" id="path2619" d="M 32.904392,171.47541 C 35.104705,177.27698 46.004778,175.3645 49.868549,169.84393 C 48.327095,166.7088 47.235266,162.94352 43.857526,161.30195 C 40.98899,160.97444 38.2049,161.77205 35.473731,162.56742 C 33.274089,164.28292 32.412324,169.27189 32.904392,171.47541 z" style="fill: rgb(233, 210, 175); fill-opacity: 1; fill-rule: evenodd; stroke: rgb(63, 45, 16); stroke-width: 1.29024px; stroke-linecap: butt; stroke-linejoin: miter; stroke-opacity: 1;"/>
      <path sodipodi:nodetypes="cccccccccccccc" id="path2558" d="M 17.899728,164.17758 C 18.729768,165.83766 20.416208,166.86672 22.526633,166.86672 C 25.850413,167.82506 29.066247,169.31637 32.373638,170.46543 C 36.716393,171.5814 39.880988,169.3648 43.090659,166.86672 C 48.499099,164.07033 54.102878,159.31037 55.231331,153.0651 C 55.5477,150.44866 54.517538,150.45505 53.016743,150.9296 C 50.523637,153.47375 47.400448,156.16224 44.000222,157.49427 C 39.692482,158.71799 36.279651,159.28527 35.06278,154.33058 C 33.634004,150.22685 29.020474,149.0486 25.215775,148.08228 C 17.128747,147.7329 15.364202,158.28288 17.899728,164.17758 z M 25.136683,153.0651 C 29.039064,151.41724 37.170637,161.45382 30.119504,161.05343 C 27.157158,160.06685 26.541073,158.14941 24.780767,160.61842 C 18.502905,162.52139 20.978232,154.64225 25.136683,153.0651 z" style="fill: rgb(40, 23, 11); fill-rule: evenodd; stroke: rgb(18, 10, 4); stroke-width: 1.29024px; stroke-linecap: butt; stroke-linejoin: miter; stroke-opacity: 1;"/>
      <path sodipodi:nodetypes="cccc" id="path2565" d="M 29.368127,134.71566 C 27.639571,138.51017 28.977043,140.73504 32.678757,140.1866 C 33.815878,140.68724 36.185006,137.91344 35.64123,136.0738 C 36.048183,131.13318 31.765209,131.02594 29.368127,134.71566 z" style="fill: rgb(255, 255, 255); fill-rule: evenodd; stroke: rgb(51, 51, 51); stroke-width: 1.29024px; stroke-linecap: butt; stroke-linejoin: miter; stroke-opacity: 1;"/>
      <path sodipodi:nodetypes="ccc" id="path2567" d="M 21.775256,132.1847 C 18.796673,132.8536 17.398813,135.12854 17.97882,138.51209 C 21.417581,144.86216 27.957181,135.72575 21.775256,132.1847 z" style="fill: rgb(255, 255, 255); fill-rule: evenodd; stroke: rgb(51, 51, 51); stroke-width: 1.29024px; stroke-linecap: butt; stroke-linejoin: miter; stroke-opacity: 1;"/>
      <path sodipodi:nodetypes="cccc" id="path2569" d="M 26.20443,136.93024 C 25.678523,139.98077 22.725668,141.40086 21.142516,142.94127 C 20.33361,146.32618 20.819452,148.75464 24.622582,148.00318 C 27.280011,146.76851 28.34686,144.72045 28.735387,141.99216" style="fill: rgb(233, 210, 175); fill-opacity: 1; fill-rule: evenodd; stroke: rgb(63, 45, 16); stroke-width: 1.29024px; stroke-linecap: butt; stroke-linejoin: miter; stroke-opacity: 1;"/>
      <path sodipodi:nodetypes="cc" id="path2571" d="M 48.350291,137.56298 C 55.770273,134.61503 54.462818,145.60405 48.983031,144.52311" style="fill: rgb(233, 210, 175); fill-opacity: 1; fill-rule: evenodd; stroke: rgb(63, 45, 16); stroke-width: 1.29024px; stroke-linecap: butt; stroke-linejoin: miter; stroke-opacity: 1;"/>
      <path sodipodi:nodetypes="cs" id="path2573" d="M 49.773955,139.30301 C 50.850978,137.41374 53.687434,140.79601 49.773955,142.6249" style="fill: rgb(233, 210, 175); fill-opacity: 1; fill-rule: evenodd; stroke: rgb(63, 45, 16); stroke-width: 1.29024px; stroke-linecap: butt; stroke-linejoin: miter; stroke-opacity: 1;"/>
      <path sodipodi:nodetypes="cc" id="path2575" d="M 23.040734,157.1779 C 24.261731,157.69566 27.721891,157.42001 29.842681,157.1779" style="fill: none; fill-rule: evenodd; stroke: rgb(63, 45, 16); stroke-width: 1.29024px; stroke-linecap: butt; stroke-linejoin: miter; stroke-opacity: 1;"/>
      <path sodipodi:nodetypes="cssc" id="path2577" d="M 32.864087,136.12808 C 33.353245,135.67675 30.488771,134.83454 30.649499,137.39356 C 30.774073,139.377 33.171434,139.84927 33.97138,139.29177 C 35.578045,138.17207 33.639041,135.73236 32.864087,136.12808 z" style="fill: rgb(0, 0, 0); fill-rule: evenodd; stroke: rgb(0, 0, 0); stroke-width: 1.29024px; stroke-linecap: butt; stroke-linejoin: miter; stroke-opacity: 1;"/>
      <path sodipodi:nodetypes="cssc" id="path2579" d="M 22.23856,136.08969 C 22.817314,134.88912 19.483411,135.85221 20.340342,138.62065 C 20.931751,140.53126 23.029104,139.35581 23.187669,139.25339 C 25.314116,137.87989 23.594533,134.37846 22.23856,136.08969 z" style="fill: rgb(0, 0, 0); fill-rule: evenodd; stroke: rgb(0, 0, 0); stroke-width: 1.29024px; stroke-linecap: butt; stroke-linejoin: miter; stroke-opacity: 1;"/>
      <path sodipodi:nodetypes="ccccc" id="path4155" d="M 62.225397,165.29616 C 50.804115,163.44484 39.734556,177.1698 51.795572,196.0553 L 52.325902,193.40365 C 45.055454,176.86589 54.748195,165.63142 64.346717,169.18525 L 62.225397,165.29616 z" style="fill: rgb(0, 128, 0); fill-opacity: 1; fill-rule: evenodd; stroke: rgb(0, 38, 0); stroke-width: 1.29024px; stroke-linecap: butt; stroke-linejoin: miter; stroke-opacity: 1;"/>
      <path style="fill: rgb(0, 128, 0); fill-opacity: 1; fill-rule: evenodd; stroke: rgb(0, 38, 0); stroke-width: 1.29024px; stroke-linecap: butt; stroke-linejoin: miter; stroke-opacity: 1;" d="M 27.400388,169.5388 C 27.257956,169.4498 15.52091,179.35263 24.041631,198.17662 L 24.571961,194.46431 C 21.005666,179.95793 30.505058,172.43904 30.405592,170.24591 L 27.400388,169.5388 z" id="path4157" sodipodi:nodetypes="ccccc"/>
      <path id="path4159" d="M 67.175144,187.03969 L 74.422989,185.4487 L 75.306872,207.54579 L 67.351921,208.42967 L 66.998368,203.12637" style="fill: none; fill-rule: evenodd; stroke: rgb(0, 38, 0); stroke-width: 1.29024px; stroke-linecap: butt; stroke-linejoin: miter; stroke-opacity: 1;"/>
      <path sodipodi:nodetypes="cc" id="path4161" d="M 62.932504,176.25631 C 68.640856,177.38282 73.95352,175.73953 79.19596,173.60466" style="fill: none; fill-rule: evenodd; stroke: rgb(0, 38, 0); stroke-width: 1.29024px; stroke-linecap: butt; stroke-linejoin: miter; stroke-opacity: 1;"/>
      <path sodipodi:nodetypes="ccccc" id="path4203" d="M 18.875,203.25 C 17.042497,190.94183 23.602852,180.31224 29.875,169.625 L 31.875,170.5 C 25.88421,180.74675 17.955514,190.79972 21.5,202 L 18.875,203.25 z" style="fill: rgb(26, 26, 26); fill-rule: evenodd; stroke: rgb(0, 0, 0); stroke-width: 1.29024px; stroke-linecap: butt; stroke-linejoin: miter; stroke-opacity: 1;"/>
      <path id="path4213" d="M 46.125,238.5625 L 44.4375,240.25 L 46.6875,240.4375" style="fill: none; fill-rule: evenodd; stroke: rgb(43, 17, 0); stroke-width: 1.29024px; stroke-linecap: butt; stroke-linejoin: miter; stroke-opacity: 1;"/>
      <path style="fill: none; fill-rule: evenodd; stroke: rgb(43, 17, 0); stroke-width: 1.29024px; stroke-linecap: butt; stroke-linejoin: miter; stroke-opacity: 1;" d="M 46.4375,240.5625 L 44.75,242.25 L 47,242.4375" id="path4215"/>
      <path id="path4217" d="M 31.5625,237.4375 L 29.875,239.125 L 32.125,239.3125" style="fill: none; fill-rule: evenodd; stroke: rgb(43, 17, 0); stroke-width: 1.29024px; stroke-linecap: butt; stroke-linejoin: miter; stroke-opacity: 1;"/>
      <path style="fill: none; fill-rule: evenodd; stroke: rgb(43, 17, 0); stroke-width: 1.29024px; stroke-linecap: butt; stroke-linejoin: miter; stroke-opacity: 1;" d="M 32.5,239.875 L 30.8125,241.5625 L 33.0625,241.75" id="path4219"/>
    </g>
  </g>
</svg>