<?xml version="1.0" encoding="UTF-8" standalone="no"?>
<!-- Created with Inkscape (http://www.inkscape.org/) -->
<svg
   xmlns:dc="http://purl.org/dc/elements/1.1/"
   xmlns:cc="http://creativecommons.org/ns#"
   xmlns:rdf="http://www.w3.org/1999/02/22-rdf-syntax-ns#"
   xmlns:svg="http://www.w3.org/2000/svg"
   xmlns="http://www.w3.org/2000/svg"
   xmlns:sodipodi="http://sodipodi.sourceforge.net/DTD/sodipodi-0.dtd"
   xmlns:inkscape="http://www.inkscape.org/namespaces/inkscape"
   width="128"
   height="128"
   id="svg2"
   sodipodi:version="0.32"
   inkscape:version="0.46"
   version="1.0"
   sodipodi:docname="soldier.svg"
   inkscape:output_extension="org.inkscape.output.svg.inkscape"
   inkscape:export-xdpi="90"
   inkscape:export-ydpi="90">
  <defs
     id="defs4">
    <filter
       inkscape:collect="always"
       id="filter3443"
       x="-0.12513924"
       width="1.2502785"
       y="-0.32663372"
       height="1.6532674">
      <feGaussianBlur
         inkscape:collect="always"
         stdDeviation="1.9634296"
         id="feGaussianBlur3445" />
    </filter>
  </defs>
  <sodipodi:namedview
     id="base"
     pagecolor="#ffffff"
     bordercolor="#666666"
     borderopacity="1.0"
     gridtolerance="10000"
     guidetolerance="10"
     objecttolerance="10"
     inkscape:pageopacity="0"
     inkscape:pageshadow="2"
     inkscape:zoom="1"
     inkscape:cx="64"
     inkscape:cy="64"
     inkscape:document-units="px"
     inkscape:current-layer="g5792"
     showgrid="false"
     inkscape:window-width="1306"
     inkscape:window-height="841"
     inkscape:window-x="303"
     inkscape:window-y="130"
     showguides="true"
     inkscape:guide-bbox="true" />
  <metadata
     id="metadata7">
    <rdf:RDF>
      <cc:Work
         rdf:about="">
        <dc:format>image/svg+xml</dc:format>
        <dc:type
           rdf:resource="http://purl.org/dc/dcmitype/StillImage" />
        <cc:license
           rdf:resource="http://creativecommons.org/licenses/by-sa/3.0/" />
        <dc:title>Fedora WEBCOMIC 2.0</dc:title>
        <dc:date>May 2008</dc:date>
        <dc:creator>
          <cc:Agent>
            <dc:title>Nicu Buculei</dc:title>
          </cc:Agent>
        </dc:creator>
        <dc:rights>
          <cc:Agent>
            <dc:title>Nicu Buculei</dc:title>
          </cc:Agent>
        </dc:rights>
        <dc:subject>
          <rdf:Bag>
            <rdf:li>fedora</rdf:li>
            <rdf:li>webcomic</rdf:li>
            <rdf:li>nicubunu</rdf:li>
          </rdf:Bag>
        </dc:subject>
        <dc:language>en-US</dc:language>
      </cc:Work>
      <cc:License
         rdf:about="http://creativecommons.org/licenses/by-sa/3.0/">
        <cc:permits
           rdf:resource="http://creativecommons.org/ns#Reproduction" />
        <cc:permits
           rdf:resource="http://creativecommons.org/ns#Distribution" />
        <cc:requires
           rdf:resource="http://creativecommons.org/ns#Notice" />
        <cc:requires
           rdf:resource="http://creativecommons.org/ns#Attribution" />
        <cc:permits
           rdf:resource="http://creativecommons.org/ns#DerivativeWorks" />
        <cc:requires
           rdf:resource="http://creativecommons.org/ns#ShareAlike" />
      </cc:License>
    </rdf:RDF>
  </metadata>
  <g
     inkscape:label="Layer 1"
     inkscape:groupmode="layer"
     id="layer1">
    <path
       id="path3018"
       d="M -147.25234,128.56568 C -152.71708,128.98806 -154.07517,125.3058 -158.74722,129.45519 C -160.16053,130.8685 -160.47262,133.67244 -160.08148,135.23698 C -157.20688,139.088 -154.08287,138.11662 -149.47611,139.68451 C -147.19978,140.2536 -145.21319,140.57402 -142.36006,140.57402 C -139.46025,140.57402 -137.6761,142.01245 -134.79925,140.57402 C -132.56816,139.45848 -130.50854,139.80213 -128.5727,138.35025 C -127.06034,137.21598 -126.3463,135.22642 -125.90418,133.45797 C -125.12035,130.32264 -127.78081,129.85113 -129.46221,129.01044 C -131.62321,127.92994 -135.36858,128.59683 -137.02302,129.01044 C -138.7963,129.45376 -140.33904,126.78667 -142.80481,126.78667 C -144.80416,126.78667 -143.86423,128.56568 -147.25234,128.56568 z"
       style="fill:#000000;fill-opacity:0.72839505;fill-rule:evenodd;stroke:none;stroke-width:1px;stroke-linecap:butt;stroke-linejoin:miter;stroke-opacity:1;filter:url(#filter3443)"
       sodipodi:nodetypes="ccccsssssssc"
       transform="matrix(-1.1740446,0,0,1,-101.88838,-17)" />
    <g
       transform="translate(-237.48788,-101.70871)"
       id="g3765" />
    <g
       id="g4184"
       transform="translate(-302.48787,-113.70871)" />
    <g
       id="g4406"
       transform="translate(-369.90874,245.29129)" />
    <g
       id="g2998"
       transform="matrix(0.9497673,0,0,0.9497673,261.72623,-278.81792)">
      <g
         transform="matrix(0.9710676,-0.2388048,0.2388048,0.9710676,-678.11408,175.67956)"
         id="g5852">
        <path
           id="path5682"
           d="M 429.91052,307.75631 L 436.98158,303.51367 L 433.0925,314.82738 L 429.91052,307.75631 z"
           style="fill:#b3b3b3;fill-rule:evenodd;stroke:#000000;stroke-width:1.05288947px;stroke-linecap:butt;stroke-linejoin:miter;stroke-opacity:1" />
        <path
           style="fill:none;fill-rule:evenodd;stroke:#008000;stroke-width:1.05288947px;stroke-linecap:butt;stroke-linejoin:miter;stroke-opacity:1"
           d="M 420.75,239 C 431.96289,240.98504 430.54405,250.78851 430.75,259.5"
           id="path5850"
           sodipodi:nodetypes="cc" />
        <path
           sodipodi:nodetypes="cccccccccc"
           id="path5676"
           d="M 429.20341,255.07686 L 432.73894,255.07686 L 432.73894,309.52408 L 445.11331,337.80835 L 431.67828,342.7581 L 427.7892,304.92789 L 428.99818,263.21801 L 426.46999,261.25655 L 426.97745,256.35281 L 429.20341,255.07686 z"
           style="fill:#1a1a1a;fill-rule:evenodd;stroke:#000000;stroke-width:1.05288947px;stroke-linecap:butt;stroke-linejoin:miter;stroke-opacity:1" />
        <path
           sodipodi:nodetypes="ccc"
           id="path5678"
           d="M 432.38539,297.14971 C 439.99509,299.25007 439.94444,307.0957 436.27448,317.65581 L 436.27448,317.65581"
           style="fill:none;fill-rule:evenodd;stroke:#000000;stroke-width:1.05288947px;stroke-linecap:butt;stroke-linejoin:miter;stroke-opacity:1" />
        <g
           id="g5704"
           transform="translate(6.0000001,131.5)">
          <g
             id="g5698">
            <path
               style="fill:#cccccc;fill-rule:evenodd;stroke:#1a1a1a;stroke-width:1.05288947px;stroke-linecap:butt;stroke-linejoin:miter;stroke-opacity:1"
               d="M 431.15836,125.16785 L 430.0977,110.67216 L 433.98679,101.12622 C 436.95476,107.56196 435.24567,116.67031 435.22422,124.81429 L 431.15836,125.16785 z"
               id="path5696"
               sodipodi:nodetypes="ccccc" />
            <path
               style="fill:#552200;fill-opacity:1;fill-rule:evenodd;stroke:#2b1100;stroke-width:1.05288947px;stroke-linecap:butt;stroke-linejoin:miter;stroke-opacity:1"
               d="M 429.56737,123.75363 L 429.74415,139.13321 L 435.401,141.07775 L 435.93133,123.2233 L 429.56737,123.75363 z"
               id="path5692" />
            <path
               style="fill:#1a1a1a;fill-opacity:1;fill-rule:evenodd;stroke:#000000;stroke-width:1.05288947px;stroke-linecap:butt;stroke-linejoin:miter;stroke-opacity:1"
               d="M 426.91572,126.75884 L 436.46166,126.58206 L 436.46166,129.41049 L 426.91572,129.58727 L 426.91572,126.75884 z"
               id="path5684" />
            <path
               id="path5686"
               d="M 426.91572,133.65313 L 436.46166,133.47635 L 436.46166,136.30478 L 426.91572,136.48156 L 426.91572,133.65313 z"
               style="fill:#1a1a1a;fill-opacity:1;fill-rule:evenodd;stroke:#000000;stroke-width:1.05288947px;stroke-linecap:butt;stroke-linejoin:miter;stroke-opacity:1" />
          </g>
        </g>
        <path
           transform="matrix(0.9753816,-0.512622,0.3788259,1.3198728,-91.429088,125.13284)"
           d="M 428.86028,247.76248 A 2.7400389,1.8561553 0 1 1 423.3802,247.76248 A 2.7400389,1.8561553 0 1 1 428.86028,247.76248 z"
           sodipodi:ry="1.8561553"
           sodipodi:rx="2.7400389"
           sodipodi:cy="247.76248"
           sodipodi:cx="426.12024"
           id="path5840"
           style="opacity:1;fill:#ff0000;fill-opacity:1;stroke:#800000;stroke-width:0.52644473;stroke-linejoin:round;stroke-miterlimit:4;stroke-dasharray:none;stroke-dashoffset:0;stroke-opacity:1"
           sodipodi:type="arc" />
        <path
           sodipodi:type="arc"
           style="opacity:1;fill:#ff0000;fill-opacity:1;stroke:#800000;stroke-width:0.52644473;stroke-linejoin:round;stroke-miterlimit:4;stroke-dasharray:none;stroke-dashoffset:0;stroke-opacity:1"
           id="path5842"
           sodipodi:cx="426.12024"
           sodipodi:cy="247.76248"
           sodipodi:rx="2.7400389"
           sodipodi:ry="1.8561553"
           d="M 428.86028,247.76248 A 2.7400389,1.8561553 0 1 1 423.3802,247.76248 A 2.7400389,1.8561553 0 1 1 428.86028,247.76248 z"
           transform="matrix(0.9753816,-0.512622,0.3788259,1.3198728,-86.656117,126.54705)" />
        <path
           transform="matrix(0.9753816,-0.512622,0.3788259,1.3198728,-88.600661,130.78969)"
           d="M 428.86028,247.76248 A 2.7400389,1.8561553 0 1 1 423.3802,247.76248 A 2.7400389,1.8561553 0 1 1 428.86028,247.76248 z"
           sodipodi:ry="1.8561553"
           sodipodi:rx="2.7400389"
           sodipodi:cy="247.76248"
           sodipodi:cx="426.12024"
           id="path5844"
           style="opacity:1;fill:#ff0000;fill-opacity:1;stroke:#800000;stroke-width:0.52644473;stroke-linejoin:round;stroke-miterlimit:4;stroke-dasharray:none;stroke-dashoffset:0;stroke-opacity:1"
           sodipodi:type="arc" />
        <path
           sodipodi:type="arc"
           style="opacity:1;fill:#ff0000;fill-opacity:1;stroke:#800000;stroke-width:0.52644473;stroke-linejoin:round;stroke-miterlimit:4;stroke-dasharray:none;stroke-dashoffset:0;stroke-opacity:1"
           id="path5846"
           sodipodi:cx="426.12024"
           sodipodi:cy="247.76248"
           sodipodi:rx="2.7400389"
           sodipodi:ry="1.8561553"
           d="M 428.86028,247.76248 A 2.7400389,1.8561553 0 1 1 423.3802,247.76248 A 2.7400389,1.8561553 0 1 1 428.86028,247.76248 z"
           transform="matrix(0.9753816,-0.512622,0.3788259,1.3198728,-93.373632,132.02713)" />
        <path
           transform="matrix(0.9753816,-0.512622,0.3788259,1.3198728,-94.611069,128.31482)"
           d="M 428.86028,247.76248 A 2.7400389,1.8561553 0 1 1 423.3802,247.76248 A 2.7400389,1.8561553 0 1 1 428.86028,247.76248 z"
           sodipodi:ry="1.8561553"
           sodipodi:rx="2.7400389"
           sodipodi:cy="247.76248"
           sodipodi:cx="426.12024"
           id="path5848"
           style="opacity:1;fill:#ff0000;fill-opacity:1;stroke:#800000;stroke-width:0.52644473;stroke-linejoin:round;stroke-miterlimit:4;stroke-dasharray:none;stroke-dashoffset:0;stroke-opacity:1"
           sodipodi:type="arc" />
        <path
           sodipodi:type="arc"
           style="opacity:1;fill:#ffd600;fill-opacity:1;stroke:#8b6600;stroke-width:0.52644473;stroke-linejoin:round;stroke-miterlimit:4;stroke-dasharray:none;stroke-dashoffset:0;stroke-opacity:1"
           id="path5838"
           sodipodi:cx="426.12024"
           sodipodi:cy="247.76248"
           sodipodi:rx="2.7400389"
           sodipodi:ry="1.8561553"
           d="M 428.86028,247.76248 A 2.7400389,1.8561553 0 1 1 423.3802,247.76248 A 2.7400389,1.8561553 0 1 1 428.86028,247.76248 z"
           transform="matrix(0.9321625,-0.3620402,0.3620402,0.9321625,-68.146593,160.20893)" />
      </g>
      <g
         transform="translate(-426,129)"
         id="g5792">
        <path
           style="fill:#e9d2af;fill-opacity:1;fill-rule:evenodd;stroke:#3f2d10;stroke-width:1.05288947px;stroke-linecap:butt;stroke-linejoin:miter;stroke-opacity:1"
           d="M 199.56357,249.99077 C 202.85435,249.65598 206.47512,248.59654 208.93694,246.36583 C 209.73489,245.00687 207.73357,243.91109 209.09002,242.69266 C 210.53751,242.6304 211.24888,243.84937 211.93671,245.01903 C 213.47638,243.61966 214.50323,241.46637 217.00557,242.71203 C 216.72895,244.04426 215.60471,245.21952 214.50472,245.86623 C 215.92601,245.61607 218.35439,243.68801 217.94948,246.60107 C 217.35107,248.1265 215.79615,247.89289 214.41376,248.35517 C 216.25461,248.93476 218.68669,248.59116 216.35046,250.6734 C 215.17472,251.14245 214.17002,250.79016 213.03878,250.42052 C 211.77083,250.5931 210.6104,251.38479 209.43654,251.93363 C 207.26357,254.18658 204.4922,255.41992 201.66727,256.67186 C 198.88413,255.55789 193.89924,258.7278 191.18605,257.888 C 190.03972,257.76154 189.74102,247.81152 188.71043,247.40643 C 187.18546,244.90748 191.07944,245.08151 193.25791,243.16242 C 196.18546,240.80373 196.67988,250.10717 199.56357,249.99077 z"
           id="path3467"
           sodipodi:nodetypes="cccccccccccccccc" />
        <path
           sodipodi:nodetypes="ccccc"
           id="path4503"
           d="M 196.43653,231.47733 C 193.73759,234.27281 191.94031,237.44979 190.77967,241.10088 C 189.33049,243.67724 187.84595,245.9706 187.52447,248.96656 C 191.49148,249.71511 195.50777,248.9287 199.44173,249.46918 C 201.24236,244.68835 200.93459,239.44274 201.03272,234.40623"
           style="fill:#427742;fill-opacity:1;fill-rule:evenodd;stroke:#2a4d2a;stroke-width:1.05288947000000022px;stroke-linecap:butt;stroke-linejoin:miter;stroke-opacity:1" />
        <path
           sodipodi:nodetypes="cccccccc"
           style="fill:#264426;fill-opacity:1;fill-rule:evenodd;stroke:#182c18;stroke-width:1.05288947000000022px;stroke-linecap:butt;stroke-linejoin:miter;stroke-opacity:1"
           d="M 207.57541,262.907 C 207.72057,263.68603 208.46504,265.70886 208.20041,267.032 C 207.25695,269.82707 207.12639,272.43813 207.82541,275.282 C 207.80948,278.07166 208.69763,282.73157 206.70041,284.782 C 203.85484,285.90901 200.9941,286.62727 198.57541,284.157 C 199.82094,280.30522 199.91893,276.7936 199.32541,272.782 C 199.29653,268.98153 198.557,265.35224 198.70041,261.532 C 200.86778,260.73113 206.20733,261.31091 207.57541,262.907 z"
           id="path3353" />
        <path
           style="fill:#552200;fill-opacity:1;fill-rule:evenodd;stroke:#401a00;stroke-width:1.05288947px;stroke-linecap:butt;stroke-linejoin:miter;stroke-opacity:1"
           d="M 208.12958,280.77822 C 210.99598,280.90289 213.31522,280.05639 216.48148,280.87796 C 217.2552,281.50386 217.68906,282.44838 218.22114,283.27852 C 218.65072,284.50739 218.3181,285.57426 217.80903,286.7112 C 215.92424,288.71646 213.00874,289.25599 210.44214,289.95075 C 208.33839,290.8706 204.17114,292.56653 201.97339,291.68024 C 198.74753,290.66576 197.92242,287.50918 198.51332,284.49712 C 199.07688,284.27749 198.55199,276.57622 199.7727,274.8894 C 202.2686,275.7506 206.3832,274.81995 207.6095,273.12196 C 208.55631,274.75023 208.08132,278.48171 208.12958,280.77822 z"
           id="path3523"
           sodipodi:nodetypes="cccccccccc" />
        <path
           sodipodi:nodetypes="cscccccccc"
           id="path4505"
           d="M 218.70041,263.032 C 218.84557,263.81103 219.59004,265.83386 219.32541,267.157 C 219.12211,268.17349 218.81761,269.18818 218.57541,270.157 C 218.05672,272.70231 219.02118,275.13929 219.20041,277.657 C 218.68532,279.86575 219.33704,283.3551 217.82541,284.907 C 215.19542,286.89477 212.39805,286.62506 210.93785,284.10523 C 211.18811,283.1042 210.99768,282.33051 211.43785,281.30345 C 212.72393,278.56431 210.87738,275.79289 210.45041,272.907 C 210.39269,269.11607 209.68299,265.45096 209.82541,261.657 C 211.99278,260.85613 217.33233,261.43591 218.70041,263.032 z"
           style="fill:#264426;fill-opacity:1;fill-rule:evenodd;stroke:#182c18;stroke-width:1.05288947000000022px;stroke-linecap:butt;stroke-linejoin:miter;stroke-opacity:1" />
        <path
           style="fill:#552200;fill-opacity:1;fill-rule:evenodd;stroke:#401a00;stroke-width:1.05288947px;stroke-linecap:butt;stroke-linejoin:miter;stroke-opacity:1"
           d="M 217.843,284.4586 C 215.25072,286.33381 211.03399,288.52013 208.42733,288.61973 C 205.6037,289.44207 202.73024,290.93726 199.11878,289.39412"
           id="path3527"
           sodipodi:nodetypes="ccc" />
        <path
           sodipodi:nodetypes="cccccccccc"
           id="path3521"
           d="M 219.62958,281.55855 C 222.49598,281.68322 224.81522,280.30639 227.98148,281.12796 C 228.7552,281.75386 229.18906,282.69838 229.72114,283.52852 C 230.15072,284.75739 229.8181,285.82426 229.30903,286.9612 C 227.42424,288.96646 224.50874,289.50599 221.94214,290.20075 C 219.83839,291.1206 215.67114,292.81653 213.47339,291.93024 C 210.24753,290.91576 209.5992,287.05207 210.1901,284.04001 C 211.5336,283.51642 209.50695,278.55365 210.47492,275.33466 C 211.26299,277.07002 217.38906,276.5765 219.14235,274.43152 C 220.53362,275.84668 219.01451,281.85358 219.62958,281.55855 z"
           style="fill:#552200;fill-opacity:1;fill-rule:evenodd;stroke:#401a00;stroke-width:1.05288947px;stroke-linecap:butt;stroke-linejoin:miter;stroke-opacity:1" />
        <path
           sodipodi:nodetypes="cccccccccccc"
           id="path3355"
           d="M 194.79397,266.18358 C 197.59908,262.72232 194.41691,258.03833 194.05913,254.07437 C 191.91604,250.80293 193.16861,243.41637 194.40012,238.37157 C 194.86589,235.26581 195.89656,232.46942 197.4571,229.76129 C 199.24137,227.34822 201.62431,225.97526 204.65316,225.82044 C 208.53911,226.38961 212.46174,225.86514 216.32043,226.70432 C 219.16772,227.9432 221.13008,229.99536 221.44695,233.06827 C 221.58448,235.8422 221.39807,238.34184 222.68439,240.84644 C 223.07154,245.29783 222.54831,250.06743 221.92182,254.53147 C 221.02735,259.72485 225.2561,261.60651 224.68071,266.78605 C 220.19883,264.22025 214.38997,268.08795 209.30114,267.51828 C 205.033,265.99246 197.44194,269.41997 194.79397,266.18358 z"
           style="fill:#427742;fill-opacity:1;fill-rule:evenodd;stroke:#2a4d2a;stroke-width:1.05288947000000022px;stroke-linecap:butt;stroke-linejoin:miter;stroke-opacity:1" />
        <path
           sodipodi:nodetypes="cccccccccccccccc"
           id="path3357"
           d="M 228.79237,246.78643 C 231.66336,245.14366 234.5415,242.70465 235.88481,239.66622 C 236.06188,238.10028 233.78799,237.91202 234.53249,236.24761 C 235.82987,235.60269 236.97509,236.42755 238.07877,237.21692 C 238.91718,235.31274 238.98072,232.92799 241.77331,233.04967 C 242.06176,234.37939 241.51191,235.91002 240.7695,236.94782 C 241.9666,236.14185 243.4023,233.39354 244.21572,236.21989 C 244.28861,237.85687 242.77288,238.27508 241.6975,239.25908 C 243.61505,239.04086 245.69782,237.73887 244.40895,240.59063 C 243.52515,241.49687 242.46398,241.58311 241.28012,241.7049 C 240.19162,242.3777 239.45288,243.57253 238.60321,244.55092 C 237.53288,247.49234 235.50153,249.74517 233.4288,252.03677 C 230.43312,252.14949 229.01871,255.70019 226.19833,256.03503 C 225.09948,256.38516 218.88092,249.90234 217.77464,249.95085 C 215.36599,248.28691 219.04551,245.74715 220.2565,243.10856 C 221.97339,239.76397 226.20464,248.06427 228.79237,246.78643 z"
           style="fill:#e9d2af;fill-opacity:1;fill-rule:evenodd;stroke:#3f2d10;stroke-width:1.05288947px;stroke-linecap:butt;stroke-linejoin:miter;stroke-opacity:1" />
        <path
           sodipodi:nodetypes="ccccccc"
           id="path3359"
           d="M 220.16603,231.70991 C 221.90985,233.56228 223.14748,235.63718 224.29281,237.87695 C 225.58917,240.04252 227.24637,241.90106 229.0368,243.65629 C 225.80306,246.38018 221.41231,248.40347 217.5495,250.51725 C 216.36128,248.76539 215.28967,246.94671 214.06545,245.21228 C 212.54847,242.83023 212.9075,240.14226 212.03516,237.62716 C 211.56753,235.13079 212.25409,233.00623 214.53966,231.69978"
           style="fill:#427742;fill-opacity:1;fill-rule:evenodd;stroke:#2a4d2a;stroke-width:1.05288947000000022px;stroke-linecap:butt;stroke-linejoin:miter;stroke-opacity:1" />
        <path
           sodipodi:nodetypes="ccccc"
           id="path3367"
           d="M 201.95135,228.79978 C 203.69007,233.38427 212.30347,231.873 215.35668,227.51056 C 214.1386,225.03314 213.27582,222.05776 210.60668,220.76056 C 208.33992,220.50176 206.13989,221.13204 203.98168,221.76056 C 202.24349,223.11617 201.56251,227.05853 201.95135,228.79978 z"
           style="fill:#e9d2af;fill-opacity:1;fill-rule:evenodd;stroke:#3f2d10;stroke-width:1.05288947px;stroke-linecap:butt;stroke-linejoin:miter;stroke-opacity:1" />
        <path
           style="fill:#e9d2af;fill-opacity:1;fill-rule:evenodd;stroke:#3f2d10;stroke-width:1.05288947px;stroke-linecap:butt;stroke-linejoin:miter;stroke-opacity:1"
           d="M 204.37405,183.23236 C 199.92219,183.2934 195.3557,184.98209 193.62405,189.45111 C 192.09362,194.47754 189.45214,199.62469 190.06155,205.01361 C 191.77604,210.65525 193.18224,217.10632 197.8428,220.91986 C 201.09775,223.95577 206.93716,225.42833 211.2803,225.51361 C 216.1728,224.42317 219.58594,221.72659 220.8428,216.66986 C 221.74897,213.67291 221.24653,211.25372 220.93655,208.38861 C 222.0751,209.11492 223.36266,209.42386 224.93655,209.10736 C 227.71036,207.80723 226.87867,206.01 224.7803,204.23236 C 223.81595,204.0981 222.59994,204.172 221.4053,203.98236 C 221.77286,202.28166 222.12405,200.43621 222.12405,199.26361 C 221.9846,190.29499 217.85597,183.3899 207.4053,183.45111 C 206.42819,183.30676 205.4014,183.21827 204.37405,183.23236 z"
           id="path3375" />
        <path
           sodipodi:nodetypes="ccc"
           id="path3373"
           d="M 220.15694,196.50168 C 217.80322,197.03025 216.69861,198.82794 217.15694,201.50168 C 219.8743,206.5196 225.04199,199.29987 220.15694,196.50168 z"
           style="fill:#ffffff;fill-rule:evenodd;stroke:#333333;stroke-width:1.05288947px;stroke-linecap:butt;stroke-linejoin:miter;stroke-opacity:1" />
        <g
           id="g3437"
           transform="matrix(-0.8001753,6.6857359e-2,8.326326e-2,0.9965276,376.40608,323.61018)">
          <path
             style="fill:#e9d2af;fill-opacity:1;fill-rule:evenodd;stroke:#3f2d10;stroke-width:1.17499197px;stroke-linecap:butt;stroke-linejoin:miter;stroke-opacity:1"
             d="M 192.15788,-132.54318 C 198.02126,-134.8727 196.98809,-126.18901 192.65788,-127.04318"
             id="path3377"
             sodipodi:nodetypes="cc" />
          <path
             style="fill:#e9d2af;fill-opacity:1;fill-rule:evenodd;stroke:#3f2d10;stroke-width:1.17499197px;stroke-linecap:butt;stroke-linejoin:miter;stroke-opacity:1"
             d="M 193.28288,-131.16818 C 194.13396,-132.66112 196.37537,-129.98839 193.28288,-128.54318"
             id="path3379"
             sodipodi:nodetypes="cs" />
        </g>
        <path
           sodipodi:nodetypes="cssc"
           id="path3385"
           d="M 221.02305,197.83746 C 221.48039,196.88875 218.84589,197.6498 219.52305,199.83746 C 219.99039,201.34726 221.64775,200.4184 221.77305,200.33746 C 223.4534,199.2521 222.09456,196.48522 221.02305,197.83746 z"
           style="fill:#000000;fill-rule:evenodd;stroke:#000000;stroke-width:1.05288947px;stroke-linecap:butt;stroke-linejoin:miter;stroke-opacity:1" />
        <path
           style="fill:#28170b;fill-opacity:1;fill-rule:evenodd;stroke:#120a04;stroke-width:1.05288947px;stroke-linecap:butt;stroke-linejoin:miter;stroke-opacity:1"
           d="M 220.49905,189.54486 C 217.8179,190.29225 214.81488,187.82888 213.99905,190.79486 C 212.87874,193.12836 211.45367,194.30747 212.99905,196.79486 C 213.9693,198.41582 213.38989,203.03829 214.24905,206.04486 C 213.87545,206.41846 209.09307,202.79486 208.49905,202.79486 C 207.29899,206.15165 208.10206,209.66312 208.49905,213.29486 C 208.31317,219.2535 204.18595,220.97122 200.74905,224.04486 C 197.46664,223.06065 193.74883,221.55607 193.24905,218.54486 C 185.06464,208.23683 182.9106,190.44071 194.74905,184.29486 C 198.15938,180.10892 208.02611,178.96609 216.24905,182.54486 C 218.4973,184.44265 224.28643,188.34653 220.49905,189.54486 z"
           id="path3433"
           sodipodi:nodetypes="ccccccccccc" />
        <path
           style="fill:#28170b;fill-opacity:1;fill-rule:evenodd;stroke:#120a04;stroke-width:1.05288947px;stroke-linecap:butt;stroke-linejoin:miter;stroke-opacity:1"
           d="M 207.74905,225.29486 C 211.24629,228.7967 215.00224,227.0804 218.49905,225.79486 C 220.7617,224.63456 222.42662,220.1897 223.49905,218.04486 C 220.14737,215.73373 222.31645,213.99688 222.49905,211.79486 C 220.54837,210.21521 217.39613,212.62641 216.24905,214.29486 C 215.56465,220.02253 210.53623,220.40605 205.74905,221.79486 C 203.87912,223.50477 206.11657,224.34843 207.74905,225.29486 z"
           id="path3435"
           sodipodi:nodetypes="ccccccc" />
        <path
           id="path3465"
           d="M 196.8101,215.8048 C 198.47779,215.25049 195.95747,223.88313 195.98258,225.09799 C 196.02152,226.98118 191.78446,228.01587 191.04101,229.90999 C 188.07574,234.04146 188.61736,231.12181 185.45464,234.72814 C 185.02204,230.68727 186.45414,227.12772 187.12096,225.21814 C 187.70345,223.10354 189.21036,221.81231 191.20294,221.15 C 192.44767,220.73626 195.37067,216.60581 196.8101,215.8048 z"
           style="fill:#28170b;fill-rule:evenodd;stroke:#120a04;stroke-width:1.05288935px;stroke-linecap:butt;stroke-linejoin:miter;stroke-opacity:1"
           sodipodi:nodetypes="cscccsc" />
        <path
           sodipodi:nodetypes="ccc"
           id="path3525"
           d="M 230.093,284.7086 C 227.50072,286.58381 223.28399,288.77013 220.67733,288.86973 C 217.8537,289.69207 214.98024,291.18726 211.36878,289.64412"
           style="fill:#552200;fill-opacity:1;fill-rule:evenodd;stroke:#401a00;stroke-width:1.05288947px;stroke-linecap:butt;stroke-linejoin:miter;stroke-opacity:1" />
        <path
           style="fill:#333333;fill-rule:evenodd;stroke:#1a1a1a;stroke-width:1.05288947px;stroke-linecap:butt;stroke-linejoin:miter;stroke-opacity:1"
           d="M 203,204 C 206.71508,212.50099 210.79614,220.77325 219.75,226 L 222,223.75 C 214.79134,219.74226 209.37577,212.50695 205.5,202.5 L 203,204 z"
           id="path5568"
           sodipodi:nodetypes="ccccc" />
        <path
           style="fill:#666666;fill-rule:evenodd;stroke:#1a1a1a;stroke-width:1.05288947px;stroke-linecap:butt;stroke-linejoin:miter;stroke-opacity:1"
           d="M 190,216 C 205.41726,208.60823 214.66401,197.22377 218.75,182.5 C 207.58333,183 198.01474,169.11734 185.25,184 C 177.01459,196.84861 187.58854,205.51736 190,216 z"
           id="path5566"
           sodipodi:nodetypes="cccc" />
      </g>
      <path
         transform="matrix(0.2758528,-0.5543175,0.684271,0.2234642,-460.79717,410.14995)"
         d="M 278.5,245.5 L 275.98092,244.36505 L 273.44384,245.4592 L 273.74481,242.71269 L 271.92021,240.6379 L 274.6253,240.07542 L 276.03471,237.69898 L 277.40558,240.09785 L 280.10124,240.70392 L 278.2434,242.74899 L 278.5,245.5 z"
         inkscape:randomized="0"
         inkscape:rounded="0"
         inkscape:flatsided="false"
         sodipodi:arg2="1.5788654"
         sodipodi:arg1="0.95054684"
         sodipodi:r2="2.3651259"
         sodipodi:r1="4.3011627"
         sodipodi:cy="242"
         sodipodi:cx="276"
         sodipodi:sides="5"
         id="path6206"
         style="opacity:1;fill:#ffcb00;fill-opacity:1;stroke:#92420c;stroke-width:1.05288947;stroke-linejoin:round;stroke-miterlimit:4;stroke-dasharray:none;stroke-dashoffset:0;stroke-opacity:1"
         sodipodi:type="star" />
      <path
         sodipodi:nodetypes="ccccc"
         id="path6208"
         d="M -206.58579,356.96967 C -217.54246,355.21262 -229.65767,367.86195 -231.79289,384.74264 L -231,389.5 C -230.56687,382.74451 -219.94653,360.5179 -205.17678,359.93934 L -206.58579,356.96967 z"
         style="fill:#9c009c;fill-opacity:1;fill-rule:evenodd;stroke:#3d003d;stroke-width:1.05288947px;stroke-linecap:butt;stroke-linejoin:miter;stroke-opacity:1" />
    </g>
  </g>
</svg>
