<?xml version="1.0" encoding="UTF-8" standalone="no"?>
<!-- Created with Inkscape (http://www.inkscape.org/) -->
<svg
   xmlns:dc="http://purl.org/dc/elements/1.1/"
   xmlns:cc="http://creativecommons.org/ns#"
   xmlns:rdf="http://www.w3.org/1999/02/22-rdf-syntax-ns#"
   xmlns:svg="http://www.w3.org/2000/svg"
   xmlns="http://www.w3.org/2000/svg"
   xmlns:sodipodi="http://sodipodi.sourceforge.net/DTD/sodipodi-0.dtd"
   xmlns:inkscape="http://www.inkscape.org/namespaces/inkscape"
   width="128"
   height="128"
   id="svg2"
   sodipodi:version="0.32"
   inkscape:version="0.46"
   version="1.0"
   sodipodi:docname="countdown-07.svg"
   inkscape:output_extension="org.inkscape.output.svg.inkscape">
  <defs
     id="defs4">
    <filter
       inkscape:collect="always"
       id="filter3640"
       x="-0.063052297"
       width="1.1261046"
       y="-0.19454689"
       height="1.3890938">
      <feGaussianBlur
         inkscape:collect="always"
         stdDeviation="2.2334623"
         id="feGaussianBlur3642" />
    </filter>
  </defs>
  <sodipodi:namedview
     id="base"
     pagecolor="#ffffff"
     bordercolor="#666666"
     borderopacity="1.0"
     gridtolerance="10000"
     guidetolerance="10"
     objecttolerance="10"
     inkscape:pageopacity="0.0"
     inkscape:pageshadow="2"
     inkscape:zoom="1"
     inkscape:cx="64"
     inkscape:cy="64"
     inkscape:document-units="px"
     inkscape:current-layer="layer1"
     showgrid="false"
     inkscape:window-width="1538"
     inkscape:window-height="961"
     inkscape:window-x="127"
     inkscape:window-y="31" />
  <metadata
     id="metadata7">
    <rdf:RDF>
      <cc:Work
         rdf:about="">
        <dc:format>image/svg+xml</dc:format>
        <dc:type
           rdf:resource="http://purl.org/dc/dcmitype/StillImage" />
      </cc:Work>
    </rdf:RDF>
  </metadata>
  <g
     inkscape:label="Layer 1"
     inkscape:groupmode="layer"
     id="layer1">
    <path
       style="fill:#000000;fill-opacity:0.76639344;fill-rule:evenodd;stroke:none;stroke-width:1px;stroke-linecap:butt;stroke-linejoin:miter;stroke-opacity:1;filter:url(#filter3640)"
       d="M 39.41661,61.661155 C 30.68131,61.693535 21.675,63.365967 14.51036,68.567405 C 11.8554,69.409127 7.4169003,71.051964 8.5103603,74.629905 C 9.8331603,77.423525 13.91938,76.180905 16.35411,75.786155 C 18.77941,74.884035 22.81453,72.606325 24.63536,75.598655 C 25.37069,78.623365 21.43316,79.176695 19.41661,79.942405 C 16.67973,80.292955 8.4330056,82.916665 10.070996,86.051535 C 11.348636,89.389645 13.386239,95.56045 16.457859,94.16285 C 18.301317,93.653404 19.23543,86.195355 22.757032,87.551893 C 28.530841,89.775993 37.462214,84.314647 40.69786,82.629905 C 44.69498,79.229595 50.25932,82.576145 54.94568,81.551985 C 57.40635,80.841725 59.45055,82.307715 61.54161,83.036155 C 64.10341,83.444405 65.10191,80.689045 64.69786,78.692405 C 65.89016,75.678365 70.14463,76.476415 72.67745,75.539555 C 76.12786,75.156585 79.5222,74.134575 82.82286,73.536155 C 86.15222,74.450415 90.38372,77.158925 93.35411,74.036155 C 91.22732,68.038731 84.49369,66.348267 78.91661,65.192405 C 69.21833,63.509807 59.06523,64.564421 49.60466,61.887652 C 46.21201,61.737397 42.81315,61.567323 39.41661,61.661155 z"
       id="path2691"
       transform="matrix(0.9488143,0,0,0.9487682,32.979182,33.644549)"
       sodipodi:nodetypes="ccccccccscccccccccc" />
    <path
       sodipodi:nodetypes="ccccccccccc"
       id="path2686"
       d="M 47.426625,96.732999 C 44.115406,95.022557 39.603236,94.078647 36.580803,93.66407 C 37.40844,91.599929 37.146594,88.103577 34.800725,88.118619 C 33.569288,88.729558 33.960511,91.425596 33.924483,92.712419 C 30.490798,90.874944 34.793453,98.497964 34.548643,97.111511 C 35.681404,96.674434 36.563933,97.746676 37.790807,97.665326 C 40.388299,99.142535 41.731191,100.14042 43.932178,100.8473 C 46.108545,101.66815 48.929348,104.59172 50.796689,102.26154 C 51.691449,101.63165 55.289929,97.415534 55.960917,96.607091 C 56.083962,93.832421 54.527537,94.104799 51.838338,93.507458 C 48.325355,92.887745 47.614917,95.074684 47.426625,96.732999 z"
       style="fill:#e9d2af;fill-opacity:1;fill-rule:evenodd;stroke:#3f2d10;stroke-width:1px;stroke-linecap:butt;stroke-linejoin:miter;stroke-opacity:1" />
    <path
       style="fill:#502d16;fill-rule:evenodd;stroke:#2e180c;stroke-width:1px;stroke-linecap:butt;stroke-linejoin:miter;stroke-opacity:1"
       d="M 9.1254725,43.451076 C 14.400528,54.95027 20.720502,69.976773 24.511511,82.047308 C 25.911885,85.772904 27.793711,91.922956 30.332885,94.944245 C 33.702493,99.994465 36.195869,105.6099 39.630867,110.62101 C 41.993502,113.44868 42.387629,117.05821 44.520876,119.96736 C 46.95915,121.77833 48.659487,120.70314 48.424055,117.82725 C 47.9567,115.46889 46.613359,113.46551 45.513368,111.37878 C 41.77998,105.66261 37.278007,98.598911 34.257393,92.558132 C 28.405576,79.916384 19.87723,61.09299 17.821969,48.914009 C 14.50011,41.925533 14.936441,34.214558 6.0853855,32.778005 C 2.0574816,36.176927 9.0853845,39.088345 9.1254725,43.451076 z"
       id="path2413"
       sodipodi:nodetypes="ccccccccccc" />
    <path
       style="fill:#aee0fd;fill-rule:evenodd;stroke:#00527f;stroke-width:1px;stroke-linecap:butt;stroke-linejoin:miter;stroke-opacity:1;fill-opacity:1"
       d="M 47.5625,22.78125 C 28.366519,26.026334 17.903088,34.212622 6.65625,37.78125 C 21.570657,36.846694 24.642184,66.127451 22.96875,74.28125 C 38.278319,68.477387 38.334217,58.452618 55.5,54.65625 C 66.804251,51.623552 78.206632,54.094453 89.21875,57.0625 C 100.69147,60.168119 107.49784,61.827718 125.15625,57.65625 C 121.34872,48.046472 119.55092,42.428033 120.09375,34.375 C 118.8713,29.61365 120.91756,28.125696 118.53125,23.78125 C 107.23588,30.556398 96.02615,27.465505 84.21875,24.78125 C 72.151892,21.404737 59.859251,21.142545 47.5625,22.78125 z"
       id="path2421"
       sodipodi:nodetypes="cccccccccc" />
    <path
       style="fill:none;fill-rule:evenodd;stroke:#000000;stroke-width:1px;stroke-linecap:butt;stroke-linejoin:miter;stroke-opacity:1"
       d="M 26.218792,74.506912 C 25.096417,74.859366 23.550963,74.742326 22.138998,74.506912 C 21.416938,72.468791 21.000908,71.228882 22.978956,69.947597 C 23.514267,71.091548 23.623907,74.659167 21.677995,75.126302 C 19.193277,75.722783 16.181018,76.441818 17.819216,74.626894 C 19.620124,73.783717 21.274789,73.669563 21.539028,75.826714 C 21.148395,77.538118 20.182807,77.968216 18.53918,78.226354 C 12.380926,80.978122 21.213274,72.378252 21.865225,74.897995 C 22.401713,76.971484 21.135313,80.303708 21.419034,81.465868"
       id="path3214"
       sodipodi:nodetypes="cccscccsc" />
    <g
       id="g2678"
       transform="matrix(0.7416538,-0.5917469,0.5917756,0.7416179,-99.064596,151.58758)">
      <path
         sodipodi:nodetypes="cccccccc"
         id="path2641"
         d="M 209.33692,90.923451 C 211.19054,93.113411 212.66743,96.691751 215.25564,98.692081 C 216.22424,98.920581 217.23666,98.685301 218.21878,98.597691 C 219.4534,98.184931 220.09324,97.268721 220.68046,96.170091 C 221.11187,93.452131 219.75333,90.816681 218.73115,88.362031 C 218.17032,86.135531 217.08744,83.600581 215.04106,82.405621 C 212.26384,80.476261 210.20663,81.342011 207.11548,82.269811 C 207.96116,85.131601 208.71004,88.006611 209.33692,90.923451 z"
         style="fill:#e6e6e6;fill-rule:evenodd;stroke:#333333;stroke-width:1.0539726px;stroke-linecap:butt;stroke-linejoin:miter;stroke-opacity:1" />
      <path
         sodipodi:nodetypes="ccc"
         id="path2643"
         d="M 219.10718,97.683501 C 219.10575,94.484071 218.73171,91.092131 217.28366,88.922411 C 216.29375,86.153061 215.15625,83.737721 211.78834,81.717571"
         style="fill:none;fill-rule:evenodd;stroke:#333333;stroke-width:1.0539726px;stroke-linecap:butt;stroke-linejoin:miter;stroke-opacity:1" />
    </g>
    <path
       style="fill:#00325c;fill-opacity:1;fill-rule:evenodd;stroke:#00192e;stroke-width:1px;stroke-linecap:butt;stroke-linejoin:miter;stroke-opacity:1"
       d="M 89.775347,99.432287 C 90.526941,99.411631 92.551805,99.698935 93.72644,99.18969 C 94.628843,98.798474 95.509383,98.313739 96.359813,97.895939 C 98.617523,96.907389 101.07042,97.316186 103.44166,96.98052 C 105.38788,96.062407 106.46374,96.650036 107.60197,94.938487 C 108.92156,92.102676 108.20063,87.784681 105.57206,86.932553 C 104.69336,87.364253 103.33805,87.900486 102.47306,88.513533 C 99.814143,89.503809 100.02645,89.578417 97.290983,89.811058 C 93.76288,90.51326 90.221504,90.585605 86.730506,91.474059 C 86.419693,93.644139 88.022025,98.481462 89.775347,99.432287 z"
       id="path2633"
       sodipodi:nodetypes="cscccccccc" />
    <g
       id="g2682"
       transform="matrix(0.8003533,-0.5095664,0.509591,0.8003145,-109.21086,125.73546)">
      <path
         sodipodi:nodetypes="cccccccc"
         id="path2637"
         d="M 211.17708,102.00961 C 212.45458,104.98339 213.58722,107.41278 216.07095,109.63686 C 216.89993,110.07256 217.57253,109.90016 218.42918,109.67248 C 219.1263,109.27994 219.80048,108.85543 220.5274,108.49829 C 220.20039,105.7536 221.17325,102.43487 219.66461,99.819401 C 219.06803,96.859991 217.39351,94.099051 215.09112,92.037351 C 213.29841,91.831961 211.16252,92.925011 209.33845,93.454511 C 210.77874,95.992521 211.30513,99.116321 211.17708,102.00961 z"
         style="fill:#e6e6e6;fill-rule:evenodd;stroke:#333333;stroke-width:1.0539726px;stroke-linecap:butt;stroke-linejoin:miter;stroke-opacity:1" />
      <path
         sodipodi:nodetypes="ccc"
         id="path2639"
         d="M 219.05833,108.81401 C 217.83135,105.75207 219.23444,102.12633 218.07991,98.911751 C 217.31767,95.860061 214.74118,94.745191 214.10985,92.519461"
         style="fill:none;fill-rule:evenodd;stroke:#333333;stroke-width:1.0539726px;stroke-linecap:butt;stroke-linejoin:miter;stroke-opacity:1" />
    </g>
    <path
       style="fill:#1a1a1a;fill-opacity:1;fill-rule:evenodd;stroke:#000000;stroke-width:1px;stroke-linecap:butt;stroke-linejoin:miter;stroke-opacity:1"
       d="M 57.166567,85.646048 C 53.8073,87.165253 56.369342,85.266052 54.066683,88.078614 C 51.886165,89.842484 49.20382,90.729152 47.870638,93.258085 C 51.10627,95.307956 51.026056,98.601822 54.305461,100.45665 C 57.568268,96.872219 58.341844,94.245147 60.193042,89.83879"
       id="path2593"
       sodipodi:nodetypes="ccccc" />
    <path
       id="path2635"
       d="M 89.193674,105.41589 C 89.945278,105.39523 91.970142,105.68254 93.144767,105.1733 C 95.549473,103.74094 97.945553,103.09931 100.72298,103.18078 C 103.30759,102.60987 109.9878,101.16298 111.49168,98.901615 C 111.96983,96.037428 109.88531,94.58241 107.1116,92.831324 C 103.78687,94.754536 100.54892,95.545486 96.709303,95.79467 C 93.178107,96.525526 89.664022,96.563059 86.148833,97.457671 C 85.83801,99.627752 87.440352,104.46507 89.193674,105.41589 z"
       style="fill:#00325c;fill-opacity:1;fill-rule:evenodd;stroke:#00192e;stroke-width:1px;stroke-linecap:butt;stroke-linejoin:miter;stroke-opacity:1"
       sodipodi:nodetypes="cccccccc" />
    <path
       style="fill:#1a1a1a;fill-opacity:1;fill-rule:evenodd;stroke:#000000;stroke-width:1px;stroke-linecap:butt;stroke-linejoin:miter;stroke-opacity:1"
       d="M 95.269143,82.177359 C 91.64972,84.361016 87.0305,81.867782 83.352062,81.013496 C 78.533059,81.519733 73.978296,77.830703 69.183759,78.172335 C 66.204189,78.204121 63.44151,78.80719 60.692531,79.919722 C 58.191602,81.281066 54.073939,83.005489 53.532572,85.831532 C 53.559565,89.557646 51.715343,90.156322 51.999641,93.892095 C 52.791756,96.72968 57.818394,102.19637 60.664807,102.89574 C 63.253677,103.38753 65.627118,103.53905 67.812746,105.07518 C 71.94542,106.02076 75.999784,107.99921 80.276829,107.99392 C 85.274317,107.83212 86.986295,110.20513 91.929056,110.34136 C 90.103593,105.79428 94.49757,100.84106 94.627326,95.984533 C 93.751274,91.774237 97.964503,85.088702 95.269143,82.177359 z"
       id="path2581"
       sodipodi:nodetypes="cccccccccccc" />
    <path
       style="fill:#e9d2af;fill-opacity:1;fill-rule:evenodd;stroke:#3f2d10;stroke-width:1px;stroke-linecap:butt;stroke-linejoin:miter;stroke-opacity:1"
       d="M 61.849676,107.46057 C 58.934867,108.62404 50.732895,109.56985 47.682737,108.77476 C 46.414826,107.98223 46.258864,105.93491 44.58292,105.5058 C 43.33814,106.08906 44.633142,107.67355 44.568273,108.95931 C 42.409421,108.20913 37.642341,106.497 37.524237,110.08303 C 38.341912,111.08202 41.571251,110.73861 42.780407,110.79948 C 41.475142,111.21322 38.8536,111.56674 40.473396,113.83894 C 41.646581,114.8591 42.584207,113.76947 43.949907,113.55123 C 42.721414,113.86791 42.087176,115.48259 43.338999,116.70057 C 44.533882,116.57877 46.173017,116.33546 46.962159,115.52784 C 48.104381,115.11621 48.479218,113.73073 49.707564,113.67686 C 52.524545,114.61749 60.088466,114.19091 63.014248,114.00336 C 64.865878,111.84435 68.338577,112.88892 70.251778,110.9912 C 71.160407,110.38147 72.676349,100.18824 73.365264,99.394987 C 73.5505,96.623642 69.131156,99.929166 66.456142,99.271732 C 62.958089,98.573529 64.326189,106.29219 61.849676,107.46057 z"
       id="path2645"
       sodipodi:nodetypes="cccccccccccccccc" />
    <path
       style="font-size:12px;font-style:normal;font-variant:normal;font-weight:normal;font-stretch:normal;fill:#ffffff;fill-opacity:1;stroke:none;stroke-width:1px;stroke-linecap:butt;stroke-linejoin:miter;stroke-opacity:1;font-family:Rufscript;-inkscape-font-specification:Rufscript"
       d="M 60.004623,102.3257 C 59.967422,102.35699 59.934106,102.48551 59.909833,102.24328 C 59.64148,101.21086 59.309221,100.2413 59.038931,99.20953 C 58.904377,98.705516 58.767689,98.199397 58.648671,97.686757 C 58.620251,97.383172 58.715172,97.281962 58.77786,97.163983 C 58.920092,96.962884 59.079142,96.810981 59.24998,96.713411 C 59.373492,96.817082 59.502964,97.069033 59.623909,97.295832 C 59.788657,97.616357 59.884791,98.129475 59.880908,98.493246 C 59.896013,98.986867 59.791933,99.281475 59.785742,99.739927 C 59.764715,100.01931 59.902772,100.39897 60.024551,100.48376 C 60.193009,100.6478 60.356153,100.68889 60.531057,100.98581 C 60.628984,101.15301 60.741154,101.3602 60.805738,101.62972 C 60.774396,101.84484 60.62909,101.89402 60.499943,101.63403 C 60.379518,101.47549 60.250661,101.24064 60.134943,101.12466 C 60.035299,101.09212 59.826461,100.52417 59.837187,100.9733 C 59.858495,101.2745 59.960589,101.60758 60.031788,101.91729 C 60.082,102.06777 60.027156,102.12505 60.021757,102.22622 C 60.016046,102.25938 60.010335,102.29255 60.004623,102.3257 z M 59.483277,99.795842 C 59.566648,99.354168 59.662496,98.911843 59.648444,98.297839 C 59.64963,98.039011 59.546858,97.669823 59.429455,97.565563 C 59.23547,97.347497 59.103314,97.536482 58.972553,97.647792 C 58.83213,97.674223 59.032466,98.187036 59.10045,98.442615 C 59.237143,98.882848 59.355363,99.345472 59.483277,99.795842 z M 61.432272,101.15621 C 61.247077,100.44201 61.073559,99.708085 60.845178,99.037665 C 60.691597,98.5591 60.538621,98.079605 60.385828,97.599844 C 60.263928,97.420603 60.168789,97.545889 60.071163,97.553912 C 59.962207,97.60444 59.802019,97.628254 59.664523,97.234501 C 59.571165,96.920902 59.775004,96.989866 59.816286,96.871016 C 60.137042,96.602513 60.448889,96.288994 60.815099,96.200372 C 60.897491,96.175147 61.066953,96.183297 61.118125,96.582115 C 61.123233,96.868774 61.006639,96.899922 60.926916,96.969852 C 60.830074,97.038897 60.729823,97.095722 60.636763,97.178788 C 60.654052,97.577479 60.822987,97.990291 60.940226,98.36152 C 61.18424,99.145245 61.403151,99.966128 61.594478,100.7925 C 61.682799,101.11234 61.700067,101.45958 61.552502,101.34464 C 61.514671,101.33756 61.462238,101.28034 61.432272,101.15621 z M 62.056131,98.731318 C 62.053355,98.997839 62.225655,99.344395 62.312315,99.610396 C 62.419584,99.903161 62.561405,100.22578 62.597251,100.57228 C 62.595824,100.87575 62.404874,100.83808 62.305669,100.45282 C 61.98585,99.418598 61.69789,98.346718 61.403488,97.285352 C 61.314249,96.940176 61.206689,96.593834 61.142161,96.2408 C 61.156742,95.835249 61.296824,95.693366 61.411315,95.535089 C 61.530583,95.415371 61.645581,95.244416 61.80994,95.320714 C 61.906019,95.478977 62.090408,95.694436 62.126432,95.972018 C 61.914675,96.050678 61.674853,96.048504 61.521868,96.34949 C 61.442534,96.51628 61.593622,96.972908 61.664657,97.258539 C 61.744644,97.616392 61.907245,98.019068 62.021092,97.915681 C 62.163838,97.858482 62.22199,97.460056 62.406067,97.578667 C 62.580175,97.742552 62.585502,98.251434 62.488946,98.322515 C 62.369045,98.54013 62.213116,98.644037 62.056131,98.731318 z M 64.749666,100.37698 C 64.60824,99.997297 64.5046,99.553371 64.388744,99.13799 C 64.023126,97.774229 63.691858,96.385489 63.319379,95.02726 C 63.282678,94.97565 63.328543,95.398752 63.32203,95.52225 C 63.333174,95.961105 63.305696,96.363735 63.27114,96.722822 C 63.365508,96.855811 63.549795,96.960143 63.58577,97.240834 C 63.605984,97.631523 63.454656,97.577736 63.320758,97.297599 C 63.043426,96.885071 62.766089,96.463532 62.488381,96.070459 C 62.821265,97.264215 63.158085,98.456199 63.473786,99.664325 C 63.562624,99.993594 63.470527,100.28746 63.344894,100.0801 C 63.220257,99.821823 63.147014,99.448926 63.053245,99.133026 C 62.761242,98.03551 62.470028,96.936162 62.192944,95.828563 C 62.104403,95.486722 62.189748,95.309543 62.285644,95.320658 C 62.412534,95.363244 62.565572,95.556854 62.692089,95.870053 C 62.784338,96.037845 62.960332,96.513347 63.001822,96.299678 C 63.011889,95.831802 63.028306,95.372318 63.034392,94.899179 C 63.021863,94.609362 63.060461,94.355616 62.98158,94.012197 C 62.967731,93.749261 63.118888,93.58814 63.218587,93.962486 C 63.423564,94.652424 63.605183,95.366133 63.807777,96.058773 C 64.106284,97.140088 64.381597,98.243501 64.696239,99.309458 C 64.791762,99.582518 64.904726,99.925833 64.862258,100.16827 C 64.852741,100.29141 64.837231,100.53496 64.749666,100.37698 z"
       id="text2420" />
    <path
       style="fill:#1a1a1a;fill-opacity:1;fill-rule:evenodd;stroke:#000000;stroke-width:1px;stroke-linecap:butt;stroke-linejoin:miter;stroke-opacity:1"
       d="M 64.980861,86.832957 C 64.152924,89.100252 63.849622,91.372286 63.688456,93.75358 C 63.367841,96.126655 62.617741,98.366937 61.712845,100.56695 C 65.551315,101.73289 70.136725,101.85528 74.295612,102.25397 C 74.676633,100.28209 74.930986,98.29554 75.349922,96.325388 C 75.781975,93.681053 74.463712,91.471483 74.283869,88.952187 C 73.758117,86.60056 72.36493,85.004741 69.88334,84.720217"
       id="path2585"
       sodipodi:nodetypes="ccccccc" />
    <path
       style="fill:#e9d2af;fill-opacity:1;fill-rule:evenodd;stroke:#3f2d10;stroke-width:1px;stroke-linecap:butt;stroke-linejoin:miter;stroke-opacity:1"
       d="M 49.853886,43.147615 C 39.938142,43.089545 36.015622,49.631543 35.883304,58.140685 C 35.883304,59.920724 36.706107,63.424013 37.147236,65.18842 C 36.9419,68.662579 36.081104,71.287789 37.106534,74.678995 C 38.299067,79.47666 41.52179,82.030421 46.163861,83.065002 C 50.284695,82.984084 55.822862,81.584657 58.911203,78.704278 C 63.333193,75.08611 64.664513,68.962083 66.291252,63.609469 C 66.869468,58.496631 64.388777,53.619018 62.936677,48.850098 C 60.914507,43.631568 54.798419,42.417202 49.853886,43.147615 z"
       id="path2550"
       sodipodi:nodetypes="ccccccccc" />
    <path
       style="fill:#28170b;fill-rule:evenodd;stroke:#120a04;stroke-width:1px;stroke-linecap:butt;stroke-linejoin:miter;stroke-opacity:1"
       d="M 37.106534,49.856419 C 36.494895,40.499236 62.017529,37.409558 63.350043,44.807959 C 70.519671,45.358458 70.555829,63.72384 68.774906,70.043875 C 61.378076,69.968524 65.224202,61.399356 60.92394,59.248745 C 59.091777,58.790725 58.479525,60.195261 56.898475,60.590506 C 53.549638,58.438184 56.93653,51.816073 51.531164,49.520978 C 48.891804,50.587586 45.546444,52.2337 42.809296,49.520978 C 40.469771,49.520978 39.098866,50.653311 37.106534,49.856419 z"
       id="path2554"
       sodipodi:nodetypes="cccccccc" />
    <path
       style="fill:#28170b;fill-rule:evenodd;stroke:#120a04;stroke-width:1px;stroke-linecap:butt;stroke-linejoin:miter;stroke-opacity:1"
       d="M 67.708933,68.716929 C 66.210234,68.716929 68.791371,74.052791 69.05076,75.090293 C 69.452848,76.698574 72.363923,79.060382 73.411694,80.457337 C 74.301637,81.643865 78.127119,80.516813 79.114452,80.121897 C 80.776071,79.457284 82.71092,80.363781 83.475387,81.128218 C 85.860876,83.513591 84.434398,80.027175 83.810852,78.780136 C 83.321104,77.800703 81.083466,76.483124 80.120827,75.761173 C 78.484386,74.533906 78.15109,73.120648 76.766259,71.735892 C 75.444629,70.414325 73.860537,70.39413 72.069866,70.39413 C 70.951249,70.39413 69.076874,68.990505 67.708933,68.716929 z"
       id="path2556" />
    <path
       style="fill:#e9d2af;fill-opacity:1;fill-rule:evenodd;stroke:#3f2d10;stroke-width:1px;stroke-linecap:butt;stroke-linejoin:miter;stroke-opacity:1"
       d="M 52.033863,90.292013 C 55.550158,93.337889 62.063455,88.197799 62.649267,83.179919 C 60.516489,81.659334 58.456265,79.562923 55.642979,79.681296 C 53.633304,80.485713 52.079671,82.002597 50.560163,83.499177 C 49.718823,85.413877 50.925114,89.012895 52.033863,90.292013 z"
       id="path2619"
       sodipodi:nodetypes="ccccc" />
    <path
       style="fill:#28170b;fill-rule:evenodd;stroke:#120a04;stroke-width:1px;stroke-linecap:butt;stroke-linejoin:miter;stroke-opacity:1"
       d="M 35.986911,80.705171 C 36.609247,81.949787 37.873681,82.721303 39.456014,82.721303 C 41.948074,83.4398 44.359195,84.557889 46.838968,85.419363 C 50.095023,86.256044 52.467734,84.594192 54.874242,82.721303 C 58.929316,80.624762 63.130841,77.056083 63.976922,72.373801 C 64.214129,70.412182 63.441738,70.416965 62.316494,70.772754 C 60.447245,72.680177 58.105577,74.695827 55.556203,75.694489 C 52.326399,76.611956 49.767574,77.037258 48.855201,73.322568 C 47.783953,70.245875 44.324884,69.362512 41.472238,68.638024 C 35.408851,68.376094 34.085859,76.285735 35.986911,80.705171 z M 41.412939,72.373801 C 44.338819,71.138358 50.435608,78.663084 45.1489,78.3629 C 42.927825,77.623231 42.465906,76.185672 41.146083,78.036759 C 36.439151,79.463478 38.295067,73.556241 41.412939,72.373801 z"
       id="path2558"
       sodipodi:nodetypes="cccccccccccccc" />
    <path
       style="fill:#ffffff;fill-rule:evenodd;stroke:#333333;stroke-width:1px;stroke-linecap:butt;stroke-linejoin:miter;stroke-opacity:1"
       d="M 44.585537,58.616661 C 43.289527,61.461524 44.29232,63.129583 47.06774,62.718397 C 47.92032,63.093741 49.69661,61.014139 49.288903,59.6349 C 49.594022,55.930768 46.382796,55.850366 44.585537,58.616661 z"
       id="path2565"
       sodipodi:nodetypes="cccc" />
    <path
       style="fill:#ffffff;fill-rule:evenodd;stroke:#333333;stroke-width:1px;stroke-linecap:butt;stroke-linejoin:miter;stroke-opacity:1"
       d="M 38.892652,56.719125 C 36.65941,57.220623 35.611342,58.926213 36.04621,61.462965 C 38.624482,66.223812 43.527653,59.373963 38.892652,56.719125 z"
       id="path2567"
       sodipodi:nodetypes="ccc" />
    <path
       style="fill:#e9d2af;fill-opacity:1;fill-rule:evenodd;stroke:#3f2d10;stroke-width:1px;stroke-linecap:butt;stroke-linejoin:miter;stroke-opacity:1"
       d="M 42.213499,60.277005 C 41.819194,62.564077 39.605241,63.628762 38.418248,64.783655 C 37.811755,67.321429 38.176025,69.14212 41.027484,68.578727 C 43.019935,67.653059 43.819822,66.117561 44.111133,64.072078"
       id="path2569"
       sodipodi:nodetypes="cccc" />
    <path
       style="fill:#e9d2af;fill-opacity:1;fill-rule:evenodd;stroke:#3f2d10;stroke-width:1px;stroke-linecap:butt;stroke-linejoin:miter;stroke-opacity:1"
       d="M 58.81774,60.75139 C 64.381004,58.541216 63.400711,66.780027 59.292154,65.969614"
       id="path2571"
       sodipodi:nodetypes="cc" />
    <path
       style="fill:#e9d2af;fill-opacity:1;fill-rule:evenodd;stroke:#3f2d10;stroke-width:1px;stroke-linecap:butt;stroke-linejoin:miter;stroke-opacity:1"
       d="M 59.885156,62.055946 C 60.692679,60.639499 62.819352,63.175294 59.885156,64.546462"
       id="path2573"
       sodipodi:nodetypes="cs" />
    <path
       style="fill:none;fill-rule:evenodd;stroke:#3f2d10;stroke-width:1px;stroke-linecap:butt;stroke-linejoin:miter;stroke-opacity:1"
       d="M 39.841469,75.457297 C 40.756934,75.845482 43.351246,75.638817 44.941342,75.457297"
       id="path2575"
       sodipodi:nodetypes="cc" />
    <path
       style="fill:#000000;fill-rule:evenodd;stroke:#000000;stroke-width:1px;stroke-linecap:butt;stroke-linejoin:miter;stroke-opacity:1"
       d="M 48.204738,59.639731 C 48.701596,59.686257 47.735492,57.667054 46.389056,59.03924 C 45.345458,60.1028 46.283723,61.676154 46.995548,61.842744 C 48.425239,62.177354 48.813829,59.87347 48.204738,59.639731 z"
       id="path2577"
       sodipodi:nodetypes="cssc" />
    <path
       style="fill:#000000;fill-rule:evenodd;stroke:#000000;stroke-width:1px;stroke-linecap:butt;stroke-linejoin:miter;stroke-opacity:1"
       d="M 39.012742,58.672219 C 39.359638,57.684757 37.361349,58.476894 37.874977,60.753913 C 38.229461,62.325378 39.486584,61.358578 39.581625,61.274337 C 40.85619,60.14464 39.825498,57.26474 39.012742,58.672219 z"
       id="path2579"
       sodipodi:nodetypes="cssc" />
    <g
       id="g3779"
       transform="matrix(0.9819927,0,0,0.9819634,-101.32171,-19.876026)" />
    <path
       style="fill:none;fill-rule:evenodd;stroke:#000000;stroke-width:1px;stroke-linecap:butt;stroke-linejoin:miter;stroke-opacity:1"
       d="M 10.979562,34.432928 C 9.5707745,35.139151 8.4836085,36.217275 7.3797435,37.312496 C 6.7742145,37.766597 6.4597225,37.85917 6.4197915,37.912406 C 8.8930445,38.896184 11.368664,39.092222 13.619429,40.671992 C 14.31633,41.368824 14.048614,40.911956 13.019459,40.911956 C 9.0744715,41.515205 7.4006265,37.746363 3.6599312,38.032388 C 1.8326755,38.215096 1.5502526,41.235392 1.5502526,43.786956 C 4.6891683,45.106434 3.290981,40.120152 5.6998285,38.272352 C 6.4482155,39.427212 4.9824747,42.359441 2.6999797,42.591704 C 2.5993271,39.593556 5.1887525,37.380374 6.5413495,39.513466 C 6.9660375,40.183214 6.8361375,43.011892 7.0197615,44.151469"
       id="path3212"
       sodipodi:nodetypes="cccccccccsc" />
    <path
       style="fill:#e9d2af;fill-opacity:1;fill-rule:evenodd;stroke:#3f2d10;stroke-width:1px;stroke-linecap:butt;stroke-linejoin:miter;stroke-opacity:1"
       d="M 31.794926,93.096377 C 29.591229,93.022969 28.34813,93.846186 27.297954,95.726419 C 27.168461,96.263088 28.393416,96.968388 29.419168,96.663924 C 28.914701,97.168339 28.008767,98.263556 28.525243,98.730964 C 29.789435,99.875049 31.435032,98.265785 31.54038,98.186782 C 30.649379,98.845265 30.856007,100.11018 31.964623,100.30778 C 32.768904,100.30778 33.140206,100.34067 33.721591,99.759339 C 34.993144,98.96459 34.843208,96.819242 33.237351,97.592901 C 33.178516,97.607608 33.918637,96.564831 34.000987,96.23546 C 33.688154,95.550128 32.93671,95.339121 32.188287,95.672458 C 33.225854,93.874595 32.784454,93.444935 31.794926,93.096377 z"
       id="path3220"
       sodipodi:nodetypes="cccsccccccc" />
    <path
       style="fill:none;fill-rule:evenodd;stroke:none;stroke-width:1px;stroke-linecap:butt;stroke-linejoin:miter;stroke-opacity:1"
       d="M 68.235804,44.384623 C 88.324655,41.672426 101.79716,56.66904 118.26361,46.859497"
       id="path2438"
       sodipodi:nodetypes="cc" />
  </g>
</svg>
