<?xml version="1.0" encoding="UTF-8" standalone="no"?>
<!-- Created with Inkscape (http://www.inkscape.org/) -->
<svg
   xmlns:dc="http://purl.org/dc/elements/1.1/"
   xmlns:cc="http://creativecommons.org/ns#"
   xmlns:rdf="http://www.w3.org/1999/02/22-rdf-syntax-ns#"
   xmlns:svg="http://www.w3.org/2000/svg"
   xmlns="http://www.w3.org/2000/svg"
   xmlns:sodipodi="http://sodipodi.sourceforge.net/DTD/sodipodi-0.dtd"
   xmlns:inkscape="http://www.inkscape.org/namespaces/inkscape"
   width="128"
   height="128"
   id="svg2"
   sodipodi:version="0.32"
   inkscape:version="0.46"
   version="1.0"
   sodipodi:docname="rtfm3.svg"
   inkscape:output_extension="org.inkscape.output.svg.inkscape">
  <defs
     id="defs4">
    <inkscape:perspective
       sodipodi:type="inkscape:persp3d"
       inkscape:vp_x="0 : 64 : 1"
       inkscape:vp_y="0 : 1000 : 0"
       inkscape:vp_z="400 : 64 : 1"
       inkscape:persp3d-origin="200 : 42.666667 : 1"
       id="perspective149" />
    <filter
       inkscape:collect="always"
       id="filter3443"
       x="-0.12513924"
       width="1.2502785"
       y="-0.32663372"
       height="1.6532674">
      <feGaussianBlur
         inkscape:collect="always"
         stdDeviation="1.9634296"
         id="feGaussianBlur3445" />
    </filter>
  </defs>
  <sodipodi:namedview
     id="base"
     pagecolor="#ffffff"
     bordercolor="#666666"
     borderopacity="1.0"
     gridtolerance="10000"
     guidetolerance="10"
     objecttolerance="10"
     inkscape:pageopacity="0.0"
     inkscape:pageshadow="2"
     inkscape:zoom="1"
     inkscape:cx="140.30667"
     inkscape:cy="94.710678"
     inkscape:document-units="px"
     inkscape:current-layer="layer1"
     showgrid="false"
     inkscape:window-width="1538"
     inkscape:window-height="961"
     inkscape:window-x="21"
     inkscape:window-y="39" />
  <metadata
     id="metadata7">
    <rdf:RDF>
      <cc:Work
         rdf:about="">
        <dc:format>image/svg+xml</dc:format>
        <dc:type
           rdf:resource="http://purl.org/dc/dcmitype/StillImage" />
      </cc:Work>
    </rdf:RDF>
  </metadata>
  <g
     inkscape:label="Layer 1"
     inkscape:groupmode="layer"
     id="layer1">
    <g
       id="g3779"
       transform="translate(-101,-22)" />
    <path
       sodipodi:nodetypes="cssssssssssssc"
       style="fill:#000000;fill-opacity:0.72839505;fill-rule:evenodd;stroke:none;stroke-width:1px;stroke-linecap:butt;stroke-linejoin:miter;stroke-opacity:1;filter:url(#filter3443)"
       d="M 55.94457,112.23332 C 54.07255,112.83873 49.83098,111.59443 47.0495,110.89906 C 44.69301,110.30994 42.32214,112.0684 41.26771,113.12283 C 39.8544,114.53614 39.54231,117.34008 39.93345,118.90462 C 40.76539,122.23239 45.3158,122.00883 47.49426,121.57314 C 49.50202,121.17159 51.73854,122.85659 53.7208,123.35215 C 55.99713,123.92124 62.23372,122.99166 65.08685,122.99166 C 67.98666,122.99166 76.27081,125.68009 79.14766,124.24166 C 81.37875,123.12612 83.43837,123.46977 85.37421,122.01789 C 86.88657,120.88362 87.60061,118.89406 88.04273,117.12561 C 88.82656,113.99028 86.1661,113.51877 84.4847,112.67808 C 82.3237,111.59758 78.57833,112.26447 76.92389,112.67808 C 75.15061,113.1214 62.85787,110.45431 60.3921,110.45431 C 58.39275,110.45431 59.33268,112.23332 55.94457,112.23332 z"
       id="path2478" />
    <g
       id="g2584"
       transform="matrix(0.7238568,-0.6899502,0.6899502,0.7238568,-206.7916,225.00517)">
      <path
         sodipodi:nodetypes="cccccccc"
         id="path2480"
         d="M 282.90062,109.14166 C 285.25587,110.78015 289.23865,110.59283 291.4745,112.98053 C 291.79347,113.92321 291.37392,116.27295 291.37947,117.25895 C 291.08517,118.52704 290.23349,119.25056 289.19524,119.93892 C 286.53017,120.62513 283.77819,119.52159 281.23796,118.73583 C 278.96844,118.3878 276.34255,117.54919 274.95964,115.62483 C 272.7766,113.04226 273.44416,110.91248 274.07585,107.74751 C 277.00471,108.3191 279.93761,108.79309 282.90062,109.14166 z"
         style="fill:#e6e6e6;fill-rule:evenodd;stroke:#333333;stroke-width:1px;stroke-linecap:butt;stroke-linejoin:miter;stroke-opacity:1" />
      <path
         sodipodi:nodetypes="ccc"
         id="path2484"
         d="M 290.50428,118.79357 C 287.60876,120.38172 284.00381,118.69135 281.65911,117.24187 C 278.80865,116.51797 276.29667,115.61369 273.96744,112.45164"
         style="fill:none;fill-rule:evenodd;stroke:#333333;stroke-width:1px;stroke-linecap:butt;stroke-linejoin:miter;stroke-opacity:1" />
    </g>
    <path
       style="fill:#00325c;fill-opacity:1;fill-rule:evenodd;stroke:#00192e;stroke-width:1px;stroke-linecap:butt;stroke-linejoin:miter;stroke-opacity:1"
       d="M 70.4043,90.91032 C 72.58144,93.63478 72.3664,94.70744 75.22905,99.09598 C 74.71036,101.64129 75.67482,104.07827 75.85405,106.59598 C 75.33896,108.80473 75.99068,112.29408 74.47905,113.84598 C 71.84906,115.83375 67.81425,115.74081 66.35405,113.22098 C 66.60431,112.21995 66.41388,111.62304 66.85405,110.59598 C 68.14013,107.85684 67.53102,104.73187 67.10405,101.84598 C 67.04633,98.05505 62.97787,95.27382 63.12029,91.47986 C 65.28766,90.67899 69.03622,89.31423 70.4043,90.91032 z"
       id="path2482"
       sodipodi:nodetypes="ccccccccc" />
    <g
       id="g2600"
       transform="matrix(0.8444666,0.5356083,-0.5356083,0.8444666,-106.57462,-121.77289)">
      <path
         sodipodi:nodetypes="ccccccc"
         id="path2492"
         d="M 260.4617,110.09096 C 257.29681,110.7594 254.91139,107.94455 251.97642,113.27294 C 251.37626,113.99187 251.40349,114.68568 251.44609,115.57104 C 252.16159,117.85941 257.52823,119.37504 260.81962,118.84921 C 263.83832,118.88778 266.88947,117.83077 269.38892,116.01298 C 269.96641,114.30345 269.34655,111.98557 269.21214,110.09096 C 266.42816,110.96581 263.26349,110.82408 260.4617,110.09096 z"
         style="fill:#e6e6e6;fill-rule:evenodd;stroke:#333333;stroke-width:1px;stroke-linecap:butt;stroke-linejoin:miter;stroke-opacity:1" />
      <path
         sodipodi:nodetypes="ccc"
         id="path2494"
         d="M 251.51045,115.51818 C 255.26069,117.34371 258.65458,117.94392 262.03998,117.4906 C 265.18371,117.3866 266.81506,115.10188 269.12376,114.95232"
         style="fill:none;fill-rule:evenodd;stroke:#333333;stroke-width:1px;stroke-linecap:butt;stroke-linejoin:miter;stroke-opacity:1" />
    </g>
    <path
       id="path2496"
       d="M 55.93623,90.87111 C 55.79107,91.65014 52.74851,96.50139 53.01314,97.82453 C 53.9566,100.6196 54.22472,103.00211 53.5257,105.84598 C 52.97147,108.63564 51.27848,113.17055 53.2757,115.22098 C 56.12127,116.34799 58.98201,117.06625 61.4007,114.59598 C 60.15517,110.7442 61.06606,107.4308 61.65958,103.4192 C 61.68846,99.61873 64.42431,96.49833 64.2809,92.67809 C 62.11353,91.87722 57.30431,89.27502 55.93623,90.87111 z"
       style="fill:#00325c;fill-opacity:1;fill-rule:evenodd;stroke:#00192e;stroke-width:1px;stroke-linecap:butt;stroke-linejoin:miter;stroke-opacity:1"
       sodipodi:nodetypes="cccccccc" />
    <path
       sodipodi:nodetypes="cccccccccccccccc"
       id="path2532"
       d="M 46.77443,80.30133 C 45.55569,83.37639 44.82815,87.07815 45.67406,90.29077 C 46.51268,91.62503 48.40717,90.35345 48.86378,92.1187 C 48.25226,93.43212 46.84263,93.50202 45.48762,93.57373 C 46.02044,95.58493 47.45865,97.48825 45.20031,99.13547 C 44.14527,98.27626 43.62,96.73703 43.55271,95.4628 C 43.12003,96.83954 43.71272,99.88308 41.31366,98.18179 C 40.23537,96.94797 41.15899,95.67546 41.38547,94.23553 C 40.02305,95.60245 39.2077,97.91941 38.43571,94.88663 C 38.56099,93.62699 39.33649,92.89752 40.18568,92.06372 C 40.61658,90.85881 40.44844,89.46415 40.50203,88.16943 C 39.50332,85.20292 39.68525,82.17497 39.87535,79.09089 C 42.14614,77.13376 41.03618,73.47645 43.0314,71.45512 C 43.67169,70.4959 44.26193,69.68282 45.09621,68.95469 C 48.01672,68.75228 50.08652,70.02982 50.78637,72.84742 C 51.53134,76.53239 47.99948,77.6882 46.77443,80.30133 z"
       style="fill:#e9d2af;fill-opacity:1;fill-rule:evenodd;stroke:#3f2d10;stroke-width:1px;stroke-linecap:butt;stroke-linejoin:miter;stroke-opacity:1" />
    <path
       style="fill:#e9d2af;fill-opacity:1;fill-rule:evenodd;stroke:#3f2d10;stroke-width:1px;stroke-linecap:butt;stroke-linejoin:miter;stroke-opacity:1"
       d="M 79.8526,80.837097 C 80.40556,84.098317 80.34779,87.870457 78.8526,90.837097 C 77.75497,91.967897 76.16615,90.330317 75.3526,91.962097 C 75.67777,93.373957 77.04208,93.735317 78.3526,94.087097 C 77.41338,95.943637 75.61097,97.506447 77.4776,99.587097 C 78.68819,98.965947 79.52192,97.569507 79.8526,96.337097 C 79.98967,97.773707 78.77731,100.62758 81.4776,99.462097 C 82.78879,98.479347 82.14984,97.042657 82.2276,95.587097 C 83.27614,97.207347 83.5921,99.643177 84.9776,96.837097 C 85.11688,95.578927 84.50994,94.704197 83.8526,93.712097 C 83.68156,92.443937 84.13591,91.114687 84.3526,89.837097 C 85.9461,87.142967 86.39751,84.143327 86.8526,81.087097 C 85.0382,78.700727 86.8841,75.353987 85.3526,72.962097 C 84.92566,71.890747 84.51732,70.972737 83.8526,70.087097 C 81.03795,69.282077 78.74781,70.101497 77.4776,72.712097 C 75.98297,76.161737 79.19745,78.026407 79.8526,80.837097 z"
       id="path2528"
       sodipodi:nodetypes="cccccccccccccccc" />
    <path
       style="fill:#1a1a1a;fill-opacity:1;fill-rule:evenodd;stroke:#000000;stroke-width:1px;stroke-linecap:butt;stroke-linejoin:miter;stroke-opacity:1"
       d="M 78.71043,94.85111 C 75.90532,91.38985 76.44992,86.1452 76.8077,82.18124 C 75.57957,77.22419 78.23912,72.33918 77.18638,67.38377 C 76.72061,64.27801 79.58271,61.4084 78.02217,58.70027 C 76.2379,56.2872 71.72996,55.16424 68.70111,55.00942 C 64.81516,55.57859 60.89253,55.05412 57.03384,55.8933 C 54.18655,57.13218 49.22419,58.05934 48.90732,61.13225 C 48.76979,63.90618 51.66331,68.32371 50.37699,70.82831 C 49.98984,75.2797 50.0434,80.30819 50.66989,84.77223 C 51.56436,89.96561 49.28015,91.1276 49.85554,96.30714 C 54.33742,93.74134 58.5893,99.27693 63.67813,98.70726 C 67.94627,97.18144 76.06246,98.0875 78.71043,94.85111 z"
       id="path2498"
       sodipodi:nodetypes="cccccccccccc" />
    <path
       sodipodi:nodetypes="cccccc"
       id="path2534"
       d="M 51.33908,69.455103 C 50.28674,73.055513 49.77809,75.825569 48.74909,80.194971 C 44.55619,79.650711 43.44002,76.882774 39.27202,75.462528 C 39.76103,73.402974 41.70142,70.990471 42.15327,68.916148 C 42.88487,66.188488 44.10583,65.9869 45.371,63.644654 C 46.66821,62.167926 46.78725,60.508573 49.93587,59.74842"
       style="fill:#1a1a1a;fill-opacity:1;fill-rule:evenodd;stroke:#000000;stroke-width:0.99999994px;stroke-linecap:butt;stroke-linejoin:miter;stroke-opacity:1" />
    <path
       sodipodi:nodetypes="ccccccc"
       id="path2502"
       d="M 50.13977,21.54233 C 48.73057,26.342799 50.77317,31.996141 52.03131,36.697981 C 50.20804,42.55211 52.56648,46.8286 58.11882,51.49878 C 64.54377,53.58731 71.73295,53.139186 77.29109,46.215857 C 78.65761,34.838408 77.23858,41.74454 79.82468,32.240264 C 80.67952,19.926762 76.31057,11.580092 64.73498,12.474709 C 56.73317,12.212589 53.29877,16.339288 50.13977,21.54233 z"
       style="fill:#e9d2af;fill-opacity:1;fill-rule:evenodd;stroke:#3f2d10;stroke-width:0.99999994px;stroke-linecap:butt;stroke-linejoin:miter;stroke-opacity:1" />
    <path
       style="fill:#e9d2af;fill-opacity:1;fill-rule:evenodd;stroke:#3f2d10;stroke-width:1px;stroke-linecap:butt;stroke-linejoin:miter;stroke-opacity:1"
       d="M 61.48762,51.51809 C 60.18437,52.213066 59.20657,54.283489 58.9324,56.153885 C 61.11223,58.727608 67.75409,58.742862 70.9345,56.355419 C 70.30856,53.666639 70.72348,53.28551 68.41707,51.41803"
       id="path2500"
       sodipodi:nodetypes="cccc" />
    <path
       style="fill:#e9d2af;fill-opacity:1;fill-rule:evenodd;stroke:#3f2d10;stroke-width:1px;stroke-linecap:butt;stroke-linejoin:miter;stroke-opacity:1"
       d="M 79.1147,26.661411 C 86.52804,23.704179 83.45172,33.838346 79.26536,32.664726"
       id="path2520"
       sodipodi:nodetypes="cc" />
    <path
       sodipodi:nodetypes="cc"
       id="path2524"
       d="M 51.59845,28.739241 C 43.85149,26.818965 48.27904,36.439873 52.26661,34.70716"
       style="fill:#e9d2af;fill-opacity:1;fill-rule:evenodd;stroke:#3f2d10;stroke-width:1px;stroke-linecap:butt;stroke-linejoin:miter;stroke-opacity:1" />
    <path
       style="fill:#1a1a1a;fill-opacity:1;fill-rule:evenodd;stroke:#000000;stroke-width:0.99999988px;stroke-linecap:butt;stroke-linejoin:miter;stroke-opacity:1"
       d="M 76.92623,70.877241 C 77.62744,73.301823 77.65675,74.969635 77.72095,77.476084 C 81.91816,76.966116 83.02486,75.992624 87.20433,74.606502 C 86.73217,72.543028 85.88453,70.481284 85.44966,68.403338 C 84.74039,65.669788 83.05125,64.813445 81.80527,62.460938 C 80.20745,60.749955 76.84375,57.875703 74.94744,56.36915"
       id="path2530"
       sodipodi:nodetypes="cccccc" />
    <path
       style="fill:#28170b;fill-opacity:1;fill-rule:evenodd;stroke:#120a04;stroke-width:1px;stroke-linecap:butt;stroke-linejoin:miter;stroke-opacity:1"
       d="M 51.95014,44.081322 C 50.94664,46.247221 51.84762,47.737697 52.74563,49.738176 C 54.05708,51.615018 55.5118,51.335303 57.69538,51.594332 C 59.15984,50.405767 59.41513,50.094527 59.46315,48.235574 C 59.10665,45.730614 58.64741,46.395922 56.63472,45.318759 C 55.28273,44.971889 53.34971,44.081322 51.95014,44.081322 z"
       id="path2580"
       sodipodi:nodetypes="cccccc" />
    <path
       sodipodi:nodetypes="cccccc"
       id="path2582"
       d="M 77.86366,43.302028 C 79.13883,45.319966 78.43817,46.914442 77.8064,49.014254 C 76.74868,51.044934 75.27,50.955694 73.13826,51.494931 C 71.53239,50.505733 71.23899,50.230121 70.95097,48.392988 C 70.98053,45.86296 71.52195,46.463292 73.37844,45.13489 C 74.67422,44.616092 76.47584,43.483023 77.86366,43.302028 z"
       style="fill:#28170b;fill-opacity:1;fill-rule:evenodd;stroke:#120a04;stroke-width:0.99999994px;stroke-linecap:butt;stroke-linejoin:miter;stroke-opacity:1" />
    <path
       sodipodi:nodetypes="ccsccc"
       id="path2506"
       d="M 65.47962,50.433155 C 82.15254,42.018624 75.80178,40.72151 79.17479,37.025207 C 83.6524,34.307876 84.46458,22.370776 79.69035,15.833845 C 76.16753,11.010352 71.37179,7.1416253 65.14345,9.3052107 C 49.77115,6.1285347 43.87886,26.868585 51.43719,40.06765 C 56.60572,44.370699 54.05962,46.707194 65.47962,50.433155 z"
       style="fill:#28170b;fill-opacity:1;fill-rule:evenodd;stroke:#120a04;stroke-width:0.99999994px;stroke-linecap:butt;stroke-linejoin:miter;stroke-opacity:1" />
    <path
       sodipodi:nodetypes="cssssssssc"
       style="fill:#28170b;fill-rule:evenodd;stroke:#120a04;stroke-width:0.99999988px;stroke-linecap:butt;stroke-linejoin:miter;stroke-opacity:1"
       d="M 63.65288,36.438332 C 61.90797,36.6474 67.09138,43.22637 67.58628,44.33614 C 68.35342,46.05643 75.56448,48.60579 77.0441,50.002607 C 78.30082,51.189011 84.06317,51.275223 85.1393,50.701303 C 86.9503,49.735422 89.37155,50.466775 90.40374,51.204487 C 93.62459,53.506414 91.31558,49.854569 90.35775,48.564167 C 89.60546,47.550676 86.89842,45.499537 85.50024,45.744383 C 81.80262,46.391907 79.11237,41.930499 77.60932,40.17807 C 76.18137,38.513201 72.3131,38.478165 70.22825,38.727957 C 68.92587,38.883997 65.29641,36.549688 63.65288,36.438332 z"
       id="path2476" />
    <path
       id="path2623"
       d="M 57.91453,66.001857 C 57.7884,66.006902 57.60314,66.092082 57.70979,65.884591 C 57.70499,64.911328 57.47696,63.954054 57.46631,62.980256 C 57.45409,62.503207 57.43744,62.023314 57.4747,61.547718 C 57.61393,61.288747 57.95115,61.258698 58.21064,61.197811 C 58.75147,61.113417 59.30386,61.076491 59.84987,61.09075 C 60.11934,61.240545 60.29874,61.512558 60.47247,61.759787 C 60.7008,62.105855 60.59945,62.569498 60.32694,62.859357 C 60.01391,63.263662 59.51206,63.443989 59.165,63.808588 C 58.90545,64.021477 59.01689,64.400615 59.29511,64.534321 C 59.64634,64.756804 60.07122,64.877746 60.34482,65.210332 C 60.49731,65.397331 60.66071,65.62409 60.64673,65.875212 C 60.40467,66.030958 59.96454,65.992086 59.79183,65.7138 C 59.57044,65.521634 59.38045,65.263674 59.14155,65.108201 C 58.8874,65.028363 58.71425,64.459951 58.42104,64.826185 C 58.26371,65.079414 58.30847,65.401773 58.284,65.68872 C 58.31562,65.836558 58.12164,65.852969 58.03382,65.931253 C 57.99406,65.954787 57.95429,65.978322 57.91453,66.001857 z M 58.28226,63.690387 C 58.83223,63.380865 59.41742,63.077547 59.81998,62.577191 C 60.00948,62.370106 59.9888,62.018397 59.73677,61.871421 C 59.3533,61.591817 58.84923,61.672241 58.40491,61.691072 C 57.99475,61.636573 58.18388,62.156152 58.18939,62.397926 C 58.25345,62.824942 58.24994,63.259967 58.28226,63.690387 z M 62.73258,65.832996 C 62.73051,65.159953 62.77515,64.477377 62.62128,63.816187 C 62.53775,63.349301 62.45658,62.881997 62.37611,62.414576 C 62.16549,62.205 61.81036,62.254254 61.53265,62.208056 C 61.1928,62.189864 60.72946,62.122607 60.62972,61.732464 C 60.59527,61.430444 61.11346,61.595694 61.31395,61.522567 C 62.40058,61.480017 63.49477,61.396533 64.57861,61.522856 C 64.82626,61.547033 65.29244,61.644943 65.14808,61.992609 C 64.95609,62.225424 64.6089,62.187562 64.33653,62.200702 C 64.0171,62.203905 63.69697,62.195458 63.37799,62.211947 C 63.13934,62.541244 63.31294,62.963636 63.37245,63.324781 C 63.48835,64.085336 63.5076,64.862176 63.44606,65.62855 C 63.46199,65.932866 63.26029,66.220854 62.93193,66.04905 C 62.83165,66.022969 62.72676,65.948771 62.73258,65.832996 L 62.73258,65.832996 z M 66.21479,64.223224 C 66.01614,64.422485 66.2397,64.784076 66.28451,65.031969 C 66.37435,65.336413 66.55104,65.68222 66.39772,65.992471 C 66.17544,66.235258 65.67064,66.10207 65.67145,65.739389 C 65.5246,64.736919 65.49358,63.721406 65.43706,62.710863 C 65.4368,62.385721 65.38634,62.049767 65.46057,61.731642 C 65.79293,61.414026 66.2852,61.37568 66.71798,61.310379 C 67.13633,61.278602 67.57964,61.203405 67.98258,61.353256 C 68.13635,61.532074 68.49497,61.804409 68.39563,62.04661 C 67.74919,61.995573 67.08272,61.864518 66.44005,62.023597 C 66.09908,62.114681 66.19145,62.562619 66.18384,62.830155 C 66.14921,63.160481 66.31245,63.571324 66.70395,63.54973 C 67.14272,63.580788 67.59133,63.292379 68.01875,63.486821 C 68.38583,63.71222 68.03459,64.123505 67.7145,64.128494 C 67.22396,64.238496 66.71487,64.237815 66.21479,64.223224 L 66.21479,64.223224 z M 72.5338,66.996234 C 72.41301,66.615259 72.44366,66.203101 72.41977,65.807268 C 72.38241,64.515632 72.45871,63.222469 72.39825,61.931575 C 72.33314,61.870364 72.15653,62.234661 72.04954,62.330265 C 71.76488,62.688481 71.39869,62.996806 71.04411,63.266366 C 71.20386,63.4231 71.66083,63.608395 71.54787,63.851739 C 71.32311,64.176192 70.94028,64.051435 70.76884,63.754411 C 70.29309,63.273804 69.82381,62.78596 69.33302,62.320766 C 69.40151,63.45831 69.48222,64.596557 69.4925,65.736372 C 69.50309,66.048529 69.03514,66.234726 68.83437,66.000563 C 68.67299,65.72608 68.73723,65.387316 68.70329,65.083229 C 68.67945,64.044962 68.65912,63.005653 68.6841,61.96734 C 68.68338,61.645253 69.04857,61.549065 69.30769,61.609694 C 69.63051,61.712284 69.91752,61.950183 70.04463,62.269759 C 70.18088,62.454159 70.32904,62.93067 70.59833,62.781558 C 70.96295,62.411482 71.33923,62.051568 71.69655,61.675123 C 71.87015,61.435773 72.1602,61.252936 72.18753,60.93479 C 72.33811,60.716302 72.87507,60.668488 72.88348,61.022679 C 72.95811,61.686916 72.95058,62.357638 73.01663,63.022758 C 73.07024,64.051528 73.04334,65.085527 73.15295,66.110672 C 73.22259,66.381322 73.29028,66.717761 72.99758,66.889438 C 72.88248,66.98313 72.66408,67.170232 72.53381,66.996234 L 72.5338,66.996234 z"
       style="font-size:7.68487883px;font-style:normal;font-variant:normal;font-weight:normal;font-stretch:normal;fill:#ffffff;fill-opacity:1;stroke:none;stroke-width:1px;stroke-linecap:butt;stroke-linejoin:miter;stroke-opacity:1;font-family:Rufscript;-inkscape-font-specification:Rufscript" />
  </g>
</svg>
