<?xml version="1.0" encoding="UTF-8" standalone="no"?>
<!-- Created with Inkscape (http://www.inkscape.org/) -->
<svg xmlns:dc="http://purl.org/dc/elements/1.1/" xmlns:cc="http://creativecommons.org/ns#" xmlns:rdf="http://www.w3.org/1999/02/22-rdf-syntax-ns#" xmlns:svg="http://www.w3.org/2000/svg" xmlns="http://www.w3.org/2000/svg" xmlns:sodipodi="http://sodipodi.sourceforge.net/DTD/sodipodi-0.dtd" xmlns:inkscape="http://www.inkscape.org/namespaces/inkscape" width="128" height="128" id="svg2" sodipodi:version="0.32" inkscape:version="0.46" version="1.0" sodipodi:docname="camera.svg" inkscape:output_extension="org.inkscape.output.svg.inkscape" inkscape:export-xdpi="90" inkscape:export-ydpi="90" inkscape:export-filename="/home/nicu/Desktop/size-matters.png">
  <defs id="defs4">
    <filter inkscape:collect="always" id="filter3443" x="-0.12513924" width="1.2502785" y="-0.32663372" height="1.6532674">
      <feGaussianBlur inkscape:collect="always" stdDeviation="1.9634296" id="feGaussianBlur3445"/>
    </filter>
  </defs>
  <sodipodi:namedview id="base" pagecolor="#ffffff" bordercolor="#666666" borderopacity="1.0" gridtolerance="10000" guidetolerance="10" objecttolerance="10" inkscape:pageopacity="0" inkscape:pageshadow="2" inkscape:zoom="1" inkscape:cx="92.449521" inkscape:cy="44" inkscape:document-units="px" inkscape:current-layer="g2826" showgrid="false" inkscape:window-width="823" inkscape:window-height="682" inkscape:window-x="598" inkscape:window-y="88" showguides="true" inkscape:guide-bbox="true"/>
  <metadata id="metadata7">
    <rdf:RDF>
      <cc:Work rdf:about="">
        <dc:format>image/svg+xml</dc:format>
        <dc:type rdf:resource="http://purl.org/dc/dcmitype/StillImage"/>
        <cc:license rdf:resource="http://creativecommons.org/licenses/by-sa/3.0/"/>
        <dc:title>Fedora WEBCOMIC 2.0</dc:title>
        <dc:date>May 2008</dc:date>
        <dc:creator>
          <cc:Agent>
            <dc:title>Nicu Buculei</dc:title>
          </cc:Agent>
        </dc:creator>
        <dc:rights>
          <cc:Agent>
            <dc:title>Nicu Buculei</dc:title>
          </cc:Agent>
        </dc:rights>
        <dc:subject>
          <rdf:Bag>
            <rdf:li>fedora</rdf:li>
            <rdf:li>webcomic</rdf:li>
            <rdf:li>nicubunu</rdf:li>
          </rdf:Bag>
        </dc:subject>
        <dc:language>en-US</dc:language>
      </cc:Work>
      <cc:License rdf:about="http://creativecommons.org/licenses/by-sa/3.0/">
        <cc:permits rdf:resource="http://creativecommons.org/ns#Reproduction"/>
        <cc:permits rdf:resource="http://creativecommons.org/ns#Distribution"/>
        <cc:requires rdf:resource="http://creativecommons.org/ns#Notice"/>
        <cc:requires rdf:resource="http://creativecommons.org/ns#Attribution"/>
        <cc:permits rdf:resource="http://creativecommons.org/ns#DerivativeWorks"/>
        <cc:requires rdf:resource="http://creativecommons.org/ns#ShareAlike"/>
      </cc:License>
    </rdf:RDF>
  </metadata>
  <g inkscape:label="Layer 1" inkscape:groupmode="layer" id="layer1">
    <g transform="translate(-237.488, -101.709)" id="g3765"/>
    <g id="g4184" transform="translate(-302.488, -113.709)"/>
    <g transform="translate(-96.1441, -492.384)" id="g2834"/>
    <g id="g2836" transform="translate(-161.144, -504.384)"/>
    <g id="g3779" transform="translate(-121.235, -465.384)"/>
    <g id="g3922" transform="translate(187.435, -544.384)"/>
    <g transform="translate(-6.56499, -581.384)" id="g4629"/>
    <g transform="translate(-274.191, -480.873)" id="g4517"/>
    <g id="g4519" transform="translate(-339.191, -492.873)"/>
    <g id="g4529" transform="translate(-195.612, -554.873)"/>
    <g id="g2826" transform="matrix(0.951518, 0, 0, 0.951518, -5.19117, -26.3518)">
      <path id="path3018" d="M 55.24199,112.04398 C 49.77725,112.46636 48.41916,108.7841 43.74711,112.93349 C 42.3338,114.3468 42.02171,117.15074 42.41285,118.71528 C 45.28745,122.5663 48.41146,121.59492 53.01822,123.16281 C 55.29455,123.7319 57.28114,124.05232 60.13427,124.05232 C 63.03408,124.05232 64.81823,125.49075 67.69508,124.05232 C 69.92617,122.93678 71.98579,123.28043 73.92163,121.82855 C 75.43399,120.69428 76.14803,118.70472 76.59015,116.93627 C 77.37398,113.80094 74.71352,113.32943 73.03212,112.48874 C 70.87112,111.40824 67.12575,112.07513 65.47131,112.48874 C 63.69803,112.93206 62.15529,110.26497 59.68952,110.26497 C 57.69017,110.26497 58.6301,112.04398 55.24199,112.04398 z" style="fill: rgb(0, 0, 0); fill-opacity: 0.728395; fill-rule: evenodd; stroke: none; stroke-width: 1px; stroke-linecap: butt; stroke-linejoin: miter; stroke-opacity: 1; filter: url(#filter3443);" sodipodi:nodetypes="ccccsssssssc" transform="matrix(1.05095, 0, 0, 1.05095, 21.7514, 27.1918)"/>
      <path sodipodi:nodetypes="cccccccc" id="path2637" d="M 80.998924,145.46318 C 77.604848,146.13021 74.812113,146.76812 71.930503,148.86384 C 71.289096,149.63218 71.318201,150.37367 71.363726,151.31988 C 71.617331,152.13642 71.909496,152.93618 72.119428,153.77591 C 75.060687,154.05057 78.309858,155.81233 81.381443,154.82333 C 84.607598,154.86455 87.868433,153.7349 90.539661,151.79219 C 91.156835,149.96517 90.494379,147.488 90.350735,145.46318 C 87.375421,146.39816 83.993262,146.24669 80.998924,145.46318 z" style="fill: rgb(230, 230, 230); fill-rule: evenodd; stroke: rgb(51, 51, 51); stroke-width: 1.12318px; stroke-linecap: butt; stroke-linejoin: miter; stroke-opacity: 1;"/>
      <path sodipodi:nodetypes="ccc" id="path2639" d="M 72.119428,152.17003 C 75.594276,151.57559 79.06761,153.85583 82.685669,153.37136 C 86.045447,153.26021 87.788911,150.81847 90.256273,150.65863" style="fill: none; fill-rule: evenodd; stroke: rgb(51, 51, 51); stroke-width: 1.12318px; stroke-linecap: butt; stroke-linejoin: miter; stroke-opacity: 1;"/>
      <path sodipodi:nodetypes="cccccccc" id="path2641" d="M 92.995692,146.02996 C 90.291234,147.47497 86.2207,148.21457 83.549419,150.46971 C 83.093154,151.43045 83.111648,152.54113 82.982642,153.58698 C 83.136674,154.96969 83.950299,155.84398 84.966359,156.70425 C 87.709385,157.76536 90.768148,156.93769 93.562468,156.42086 C 96.014806,156.33485 98.906652,155.77263 100.61476,153.90278 C 103.25433,151.43421 102.81171,149.09029 102.53642,145.65211 C 99.356347,145.89309 96.184169,146.02996 92.995692,146.02996 z" style="fill: rgb(230, 230, 230); fill-rule: evenodd; stroke: rgb(51, 51, 51); stroke-width: 1.12318px; stroke-linecap: butt; stroke-linejoin: miter; stroke-opacity: 1;"/>
      <path sodipodi:nodetypes="ccccccccccccccc" id="path2647" d="M 73.452668,104.45628 C 72.638859,105.72538 72.576542,107.01679 72.651125,108.46399 C 72.338741,111.44505 73.84189,114.26557 72.918306,117.14737 C 72.087611,118.90231 71.588262,120.04717 70.112906,121.28867 C 68.493126,121.36043 67.314329,122.18046 66.906734,123.55971 C 67.853562,124.5155 69.206967,124.18827 70.513677,124.09407 C 70.902196,125.54811 68.780737,127.44316 68.643411,129.17051 C 70.542593,131.44027 72.132846,127.68263 72.250353,125.96434 C 72.47624,127.61744 71.552786,130.30701 71.715992,131.44155 C 73.892489,131.86843 74.645163,128.22053 74.654982,126.36511 C 74.611925,128.39943 73.597704,130.43776 75.990887,130.37283 C 77.633171,129.16313 77.241885,126.91023 77.460382,125.02921 C 78.105911,122.06437 79.306176,119.25626 79.59783,116.21223 C 79.274657,111.74372 81.418576,106.19379 79.464239,102.05165 C 76.589465,100.60979 75.588118,103.28332 73.452668,104.45628 z" style="fill: rgb(233, 210, 175); fill-opacity: 1; fill-rule: evenodd; stroke: rgb(63, 45, 16); stroke-width: 1.12318px; stroke-linecap: butt; stroke-linejoin: miter; stroke-opacity: 1;"/>
      <path sodipodi:nodetypes="ccccc" id="path2593" d="M 80.59144,87.298272 C 77.70702,90.285864 75.786231,93.681178 74.545826,97.583185 C 72.997048,100.3366 71.410487,102.78757 71.066912,105.98942 C 75.30655,106.78941 79.598857,105.94896 83.803173,106.52658 C 85.727547,101.4172 85.398629,95.811092 85.503502,90.428453" style="fill: rgb(181, 74, 181); fill-opacity: 1; fill-rule: evenodd; stroke: rgb(83, 33, 83); stroke-width: 1.12318px; stroke-linecap: butt; stroke-linejoin: miter; stroke-opacity: 1;"/>
      <path sodipodi:nodetypes="cscccccccc" id="path2633" d="M 92.823287,122.3574 C 92.668146,123.18996 91.872521,125.35181 92.155334,126.76588 C 92.372604,127.85223 92.698027,128.93665 92.956877,129.97205 C 93.511212,132.69229 92.480469,135.29675 92.288925,137.98748 C 92.839411,140.34803 92.142905,144.07718 93.75842,145.73573 C 96.569156,147.86011 100.88125,147.76078 102.4418,145.06778 C 102.17434,143.99795 102.37786,143.36002 101.90744,142.26238 C 100.53297,139.33499 101.18394,135.99526 101.64025,132.91104 C 101.70194,128.85959 102.46042,124.9426 102.30821,120.8879 C 99.991889,120.03199 94.285385,120.65162 92.823287,122.3574 z" style="fill: rgb(0, 50, 92); fill-opacity: 1; fill-rule: evenodd; stroke: rgb(0, 25, 46); stroke-width: 1.12318px; stroke-linecap: butt; stroke-linejoin: miter; stroke-opacity: 1;"/>
      <path sodipodi:nodetypes="cccccccc" style="fill: rgb(0, 50, 92); fill-opacity: 1; fill-rule: evenodd; stroke: rgb(0, 25, 46); stroke-width: 1.12318px; stroke-linecap: butt; stroke-linejoin: miter; stroke-opacity: 1;" d="M 80.933734,122.22381 C 80.778594,123.05637 79.982969,125.21822 80.265782,126.63229 C 81.274077,129.61945 81.413614,132.40995 80.666553,135.44926 C 80.683576,138.43064 79.734391,143.4108 81.868868,145.60214 C 84.909999,146.8066 87.967339,147.57422 90.552248,144.93419 C 89.22112,140.8177 89.116398,137.06475 89.750706,132.77745 C 89.781571,128.7158 90.571919,124.83709 90.418658,120.75431 C 88.102337,119.8984 82.395833,120.51803 80.933734,122.22381 z" id="path2635"/>
      <path sodipodi:nodetypes="cccccccccccc" id="path2581" d="M 107.55521,125.72557 C 104.55733,122.02643 106.62228,116.48618 107.00465,112.2498 C 105.69212,106.95209 109.10122,101.29818 107.97613,96.002211 C 107.47835,92.683012 106.37685,89.694443 104.70906,86.800203 C 102.80217,84.221299 100.25547,82.753975 97.018461,82.588515 C 92.865454,83.196811 88.673248,82.63629 84.549381,83.533142 C 81.50641,84.857165 79.409192,87.05036 79.070543,90.334448 C 78.923564,93.299014 79.122783,95.970438 77.748064,98.647164 C 77.334308,103.40447 75.756044,108.23467 76.425586,113.0055 C 77.381526,118.55579 74.999609,120.83394 75.61455,126.36944 C 80.40444,123.62731 86.612507,127.76081 92.051064,127.15199 C 96.612517,125.52131 104.72527,129.18437 107.55521,125.72557 z" style="fill: rgb(181, 74, 181); fill-opacity: 1; fill-rule: evenodd; stroke: rgb(83, 33, 83); stroke-width: 1.12318px; stroke-linecap: butt; stroke-linejoin: miter; stroke-opacity: 1;"/>
      <path sodipodi:nodetypes="ccccccc" id="path2585" d="M 97.589171,92.679806 C 97.726676,95.395219 98.41038,97.885046 99.289499,100.42576 C 99.999647,103.02799 100.20602,105.68118 100.23413,108.36062 C 104.72751,107.88349 109.53708,105.9958 114.02567,104.58212 C 113.55445,102.36945 112.94541,100.19724 112.51427,97.969721 C 111.80052,95.037175 109.46244,93.324577 108.16899,90.790558 C 106.59046,88.582425 104.44434,87.539333 101.74553,88.334524" style="fill: rgb(181, 74, 181); fill-opacity: 1; fill-rule: evenodd; stroke: rgb(83, 33, 83); stroke-width: 1.12318px; stroke-linecap: butt; stroke-linejoin: miter; stroke-opacity: 1;"/>
      <path sodipodi:nodetypes="ccccc" id="path2619" d="M 83.813458,85.772607 C 85.671659,90.672165 94.877015,89.057035 98.140053,84.39479 C 96.838253,81.74711 95.916186,78.567251 93.063615,77.180905 C 90.641072,76.904318 88.289846,77.577916 85.98332,78.249629 C 84.125669,79.6984 83.397888,83.911696 83.813458,85.772607 z" style="fill: rgb(233, 210, 175); fill-opacity: 1; fill-rule: evenodd; stroke: rgb(63, 45, 16); stroke-width: 1.12318px; stroke-linecap: butt; stroke-linejoin: miter; stroke-opacity: 1;"/>
      <path sodipodi:nodetypes="ccccccccc" id="path2550" d="M 86.761151,37.303368 C 75.592275,37.237957 71.174035,44.607079 71.025003,54.192057 C 71.025003,56.197152 71.951785,60.143372 72.448657,62.130858 C 72.217368,66.044264 71.247794,69.001388 72.402815,72.821355 C 73.746054,78.225603 77.376063,81.102243 82.604791,82.267628 C 87.246406,82.17648 93.484477,80.60012 96.96312,77.355565 C 101.94396,73.279942 103.44352,66.381637 105.27584,60.352274 C 105.92713,54.593005 103.13293,49.098701 101.49732,43.726834 C 99.219602,37.848509 92.330574,36.480607 86.761151,37.303368 z" style="fill: rgb(233, 210, 175); fill-opacity: 1; fill-rule: evenodd; stroke: rgb(63, 45, 16); stroke-width: 1.12318px; stroke-linecap: butt; stroke-linejoin: miter; stroke-opacity: 1;"/>
      <path sodipodi:nodetypes="cccccccc" id="path2554" d="M 72.402815,44.860387 C 71.713871,34.320146 100.46201,30.839831 101.96293,39.173635 C 110.03864,39.793734 107.81226,60.103255 105.80627,67.222353 C 97.474654,67.137474 104.07394,57.862733 99.230225,55.440212 C 97.166519,54.924284 96.476893,56.506399 94.69602,56.951616 C 90.923972,54.527171 94.73889,47.067806 88.650405,44.482535 C 85.677489,45.683997 81.909344,47.538234 78.826281,44.482535 C 76.191088,44.482535 74.646931,45.758032 72.402815,44.860387 z" style="fill: rgb(40, 23, 11); fill-rule: evenodd; stroke: rgb(18, 10, 4); stroke-width: 1.12318px; stroke-linecap: butt; stroke-linejoin: miter; stroke-opacity: 1;"/>
      <path sodipodi:nodetypes="cccc" id="path2565" d="M 80.826997,54.728212 C 79.367197,57.93276 80.496728,59.811715 83.622903,59.348543 C 84.583221,59.771342 86.584002,57.428811 86.124775,55.875191 C 86.468449,51.702734 82.851391,51.612166 80.826997,54.728212 z" style="fill: rgb(255, 255, 255); fill-rule: evenodd; stroke: rgb(51, 51, 51); stroke-width: 1.12318px; stroke-linecap: butt; stroke-linejoin: miter; stroke-opacity: 1;"/>
      <path sodipodi:nodetypes="ccc" id="path2567" d="M 74.414654,52.590764 C 71.899176,53.155668 70.718661,55.076901 71.208482,57.934383 C 74.112589,63.297157 79.635423,55.581263 74.414654,52.590764 z" style="fill: rgb(255, 255, 255); fill-rule: evenodd; stroke: rgb(51, 51, 51); stroke-width: 1.12318px; stroke-linecap: butt; stroke-linejoin: miter; stroke-opacity: 1;"/>
      <path sodipodi:nodetypes="cccc" id="path2569" d="M 78.155187,56.598478 C 77.711052,59.174712 75.217304,60.374008 73.880292,61.674916 C 73.19716,64.53355 73.607461,66.584437 76.819282,65.949811 C 79.063538,64.907109 79.964525,63.177472 80.292635,60.873373" style="fill: rgb(233, 210, 175); fill-opacity: 1; fill-rule: evenodd; stroke: rgb(63, 45, 16); stroke-width: 1.12318px; stroke-linecap: butt; stroke-linejoin: miter; stroke-opacity: 1;"/>
      <path sodipodi:nodetypes="cc" id="path2571" d="M 96.85785,57.13284 C 103.12418,54.643229 102.02001,63.923697 97.392212,63.010821" style="fill: rgb(233, 210, 175); fill-opacity: 1; fill-rule: evenodd; stroke: rgb(63, 45, 16); stroke-width: 1.12318px; stroke-linecap: butt; stroke-linejoin: miter; stroke-opacity: 1;"/>
      <path sodipodi:nodetypes="cs" id="path2573" d="M 98.060165,58.602335 C 98.969734,57.006802 101.36518,59.863206 98.060165,61.407735" style="fill: rgb(233, 210, 175); fill-opacity: 1; fill-rule: evenodd; stroke: rgb(63, 45, 16); stroke-width: 1.12318px; stroke-linecap: butt; stroke-linejoin: miter; stroke-opacity: 1;"/>
      <path sodipodi:nodetypes="cc" id="path2575" d="M 75.483378,73.698059 C 75.920927,74.847661 83.371825,77.266409 87.651234,74.07591" style="fill: none; fill-rule: evenodd; stroke: rgb(63, 45, 16); stroke-width: 1.12318px; stroke-linecap: butt; stroke-linejoin: miter; stroke-opacity: 1;"/>
      <path sodipodi:nodetypes="cssc" id="path2577" d="M 84.065582,55.497341 C 84.478683,55.116182 82.059579,54.404925 82.195316,56.566065 C 82.300523,58.241128 84.325143,58.639965 85.000716,58.169151 C 86.357579,57.223537 84.720045,55.163147 84.065582,55.497341 z" style="fill: rgb(0, 0, 0); fill-rule: evenodd; stroke: rgb(0, 0, 0); stroke-width: 1.12318px; stroke-linecap: butt; stroke-linejoin: miter; stroke-opacity: 1;"/>
      <path sodipodi:nodetypes="cssc" id="path2579" d="M 74.069218,56.220627 C 74.557988,55.206717 71.742431,56.02007 72.466132,58.358074 C 72.965588,59.971628 74.736846,58.978934 74.870761,58.892436 C 76.666588,57.732483 75.214362,54.775451 74.069218,56.220627 z" style="fill: rgb(0, 0, 0); fill-rule: evenodd; stroke: rgb(0, 0, 0); stroke-width: 1.12318px; stroke-linecap: butt; stroke-linejoin: miter; stroke-opacity: 1;"/>
      <path sodipodi:nodetypes="ccc" id="path2643" d="M 83.738344,154.72053 C 87.081644,155.4375 90.709761,155.80838 93.302,154.78258 C 96.417883,154.37015 99.197025,153.724 102.06411,150.65863" style="fill: none; fill-rule: evenodd; stroke: rgb(51, 51, 51); stroke-width: 1.12318px; stroke-linecap: butt; stroke-linejoin: miter; stroke-opacity: 1;"/>
      <g transform="translate(0.353554, 0.707107)" id="g2747">
        <path style="fill: rgb(77, 77, 77); fill-opacity: 1; fill-rule: evenodd; stroke: rgb(26, 26, 26); stroke-width: 1.05095px; stroke-linecap: butt; stroke-linejoin: miter; stroke-opacity: 1;" d="M 69.96532,113.15087 L 75.87167,110.16221 L 83.19854,111.95541 L 79.23605,115.69124 L 69.96532,113.15087 z" id="path5513"/>
        <path style="fill: rgb(77, 77, 77); fill-opacity: 1; fill-rule: evenodd; stroke: rgb(26, 26, 26); stroke-width: 1.05095px; stroke-linecap: butt; stroke-linejoin: miter; stroke-opacity: 1;" d="M 81.55373,111.73126 L 86.56291,108.29429 L 92.02068,109.71391 L 93.66549,114.86936 L 96.80557,115.54181 L 96.43175,131.68062 L 92.61879,133.32439 L 81.55373,111.73126 z" id="path5515"/>
        <path style="fill: rgb(77, 77, 77); fill-rule: evenodd; stroke: rgb(26, 26, 26); stroke-width: 1.05095px; stroke-linecap: butt; stroke-linejoin: miter; stroke-opacity: 1;" d="M 70.04745,113.31834 L 78.70176,115.50351 L 81.8183,111.7467 L 87.84779,113.34468 L 88.88726,118.80717 L 92.73826,120.13001 L 92.30251,133.33287 L 70.09875,127.83827 L 70.04745,113.31834 z" id="path5517" sodipodi:nodetypes="ccccccccc"/>
        <path style="fill: rgb(77, 77, 77); fill-rule: evenodd; stroke: rgb(26, 26, 26); stroke-width: 1.05095px; stroke-linecap: butt; stroke-linejoin: miter; stroke-opacity: 1;" d="M 62.165521,124.35489 L 82.07708,118.45576 C 84.68231,118.8741 90.92439,125.42561 87.68437,130.85874 L 65.305601,138.02805 C 57.886471,137.64111 55.100671,126.79556 62.165521,124.35489 z" id="path5519" sodipodi:nodetypes="ccccc"/>
        <path style="fill: rgb(0, 0, 0); fill-rule: evenodd; stroke: none; stroke-width: 1px; stroke-linecap: butt; stroke-linejoin: miter; stroke-opacity: 1;" d="M 62.287795,125.12208 C 57.159475,125.80318 56.994715,135.12872 64.829775,137.07676 C 69.907475,136.53083 69.355105,125.02295 62.287795,125.12208 z" id="path5521" sodipodi:nodetypes="ccc"/>
        <path style="fill: rgb(51, 51, 51); fill-rule: evenodd; stroke: rgb(26, 26, 26); stroke-width: 1.05095px; stroke-linecap: butt; stroke-linejoin: miter; stroke-opacity: 1;" d="M 74.52592,120.3984 C 81.91923,122.08404 82.96091,130.18082 79.46034,133.8474 L 85.36669,131.53119 C 87.48671,127.70289 84.39905,120.3462 79.46034,118.67991 L 74.52592,120.3984 z" id="path5523" sodipodi:nodetypes="ccccc"/>
        <path style="fill: none; fill-rule: evenodd; stroke: rgb(26, 26, 26); stroke-width: 1.05095px; stroke-linecap: butt; stroke-linejoin: miter; stroke-opacity: 1;" d="M 87.75914,113.22559 L 91.87115,109.71391" id="path5525"/>
        <path style="fill: none; fill-rule: evenodd; stroke: rgb(26, 26, 26); stroke-width: 1.05095px; stroke-linecap: butt; stroke-linejoin: miter; stroke-opacity: 1;" d="M 89.25442,118.75463 L 93.74025,114.86936" id="path5527"/>
        <path style="fill: none; fill-rule: evenodd; stroke: rgb(26, 26, 26); stroke-width: 1.05095px; stroke-linecap: butt; stroke-linejoin: miter; stroke-opacity: 1;" d="M 96.9551,115.76596 L 92.61879,119.9501" id="path5529"/>
        <path style="fill: rgb(204, 204, 204); fill-rule: evenodd; stroke: rgb(128, 128, 128); stroke-width: 1.05095px; stroke-linecap: butt; stroke-linejoin: miter; stroke-opacity: 1;" d="M 82.30137,112.85201 L 80.28274,115.61653 L 87.53485,117.93274 L 87.16103,114.34634 L 82.30137,112.85201 z" id="path5531"/>
        <path sodipodi:nodetypes="ccc" id="path5533" d="M 62.486018,125.79886 C 59.232698,127.22996 55.817938,133.4305 64.277998,136.00354 C 69.355698,135.45761 57.928328,133.57473 62.486018,125.79886 z" style="fill: rgb(230, 230, 230); fill-rule: evenodd; stroke: none; stroke-width: 1px; stroke-linecap: butt; stroke-linejoin: miter; stroke-opacity: 1;"/>
        <path id="path5535" d="M 92.41488,116.72779 C 96.59747,104.2814 98.881223,96.86998 100.42728,82.44619 L 102.07389,83.497081 C 100.70499,94.102141 101.54686,96.84448 95.03988,115.47779 L 92.41488,116.72779 z" style="fill: rgb(26, 26, 26); fill-rule: evenodd; stroke: rgb(0, 0, 0); stroke-width: 1.05095px; stroke-linecap: butt; stroke-linejoin: miter; stroke-opacity: 1;" sodipodi:nodetypes="ccccc"/>
        <path style="fill: rgb(26, 26, 26); fill-rule: evenodd; stroke: rgb(0, 0, 0); stroke-width: 1.05095px; stroke-linecap: butt; stroke-linejoin: miter; stroke-opacity: 1;" d="M 71.41488,112.22779 C 69.58238,99.91962 73.827991,95.390465 80.100141,84.703225 L 82.203533,83.303584 C 76.212743,93.550334 70.49539,99.77751 74.03988,110.97779 L 71.41488,112.22779 z" id="path5537" sodipodi:nodetypes="ccccc"/>
        <path sodipodi:nodetypes="ccccc" id="path2661" d="M 65.863862,123.4036 C 73.257172,125.08924 74.298852,133.18602 70.798282,136.8526 L 76.704632,134.53639 C 78.824652,130.70809 75.736992,123.3514 70.798282,121.68511 L 65.863862,123.4036 z" style="fill: rgb(51, 51, 51); fill-rule: evenodd; stroke: rgb(26, 26, 26); stroke-width: 1.05095px; stroke-linecap: butt; stroke-linejoin: miter; stroke-opacity: 1;"/>
      </g>
      <path sodipodi:nodetypes="cccccccccccccccc" id="path2645" d="M 103.86069,113.37106 C 102.9376,116.7835 101.19312,120.41841 98.414212,122.62822 C 96.842842,123.23434 96.033912,120.93395 94.513989,122.1534 C 94.197612,123.66913 95.359899,124.63048 96.474272,125.55847 C 94.731792,126.9398 92.28308,127.64971 93.163299,130.50444 C 94.616179,130.44349 96.050342,129.46145 96.922882,128.41344 C 96.412882,129.86898 93.958919,132.09594 97.101162,132.17353 C 98.813522,131.80668 98.836502,130.12641 99.563472,128.74863 C 99.855822,130.79037 99.072182,133.29571 101.67277,131.19263 C 102.3711,130.03394 102.17361,128.91338 101.97974,127.65635 C 102.38138,126.34906 103.41729,125.26243 104.19943,124.11954 C 106.95178,122.21821 108.7325,119.50917 110.54213,116.74688 C 109.84944,113.61884 113.13883,111.19713 112.72316,108.19036 C 112.78837,106.95954 112.54025,106.27997 112.29156,105.12295 L 103.60734,107.96048 C 103.58546,109.73438 104.22712,111.59215 103.86069,113.37106 z" style="fill: rgb(233, 210, 175); fill-opacity: 1; fill-rule: evenodd; stroke: rgb(63, 45, 16); stroke-width: 1.12318px; stroke-linecap: butt; stroke-linejoin: miter; stroke-opacity: 1;"/>
    </g>
    <g id="g4294" transform="translate(-284.957, 198.402)"/>
  </g>
</svg>