<?xml version="1.0" encoding="UTF-8" standalone="no"?>
<!-- Created with Inkscape (http://www.inkscape.org/) -->
<svg
   xmlns:dc="http://purl.org/dc/elements/1.1/"
   xmlns:cc="http://creativecommons.org/ns#"
   xmlns:rdf="http://www.w3.org/1999/02/22-rdf-syntax-ns#"
   xmlns:svg="http://www.w3.org/2000/svg"
   xmlns="http://www.w3.org/2000/svg"
   xmlns:sodipodi="http://sodipodi.sourceforge.net/DTD/sodipodi-0.dtd"
   xmlns:inkscape="http://www.inkscape.org/namespaces/inkscape"
   width="128"
   height="128"
   id="svg2"
   sodipodi:version="0.32"
   inkscape:version="0.46"
   version="1.0"
   sodipodi:docname="countdown-02.svg"
   inkscape:output_extension="org.inkscape.output.svg.inkscape">
  <defs
     id="defs4">
    <filter
       inkscape:collect="always"
       id="filter3443"
       x="-0.12513924"
       width="1.2502785"
       y="-0.32663372"
       height="1.6532674">
      <feGaussianBlur
         inkscape:collect="always"
         stdDeviation="1.9634296"
         id="feGaussianBlur3445" />
    </filter>
  </defs>
  <sodipodi:namedview
     id="base"
     pagecolor="#ffffff"
     bordercolor="#666666"
     borderopacity="1.0"
     gridtolerance="10000"
     guidetolerance="10"
     objecttolerance="10"
     inkscape:pageopacity="0.0"
     inkscape:pageshadow="2"
     inkscape:zoom="1"
     inkscape:cx="64"
     inkscape:cy="64"
     inkscape:document-units="px"
     inkscape:current-layer="layer1"
     showgrid="false"
     inkscape:window-width="1538"
     inkscape:window-height="961"
     inkscape:window-x="127"
     inkscape:window-y="31">
    <inkscape:grid
       type="xygrid"
       id="grid2524"
       visible="true"
       enabled="true" />
  </sodipodi:namedview>
  <metadata
     id="metadata7">
    <rdf:RDF>
      <cc:Work
         rdf:about="">
        <dc:format>image/svg+xml</dc:format>
        <dc:type
           rdf:resource="http://purl.org/dc/dcmitype/StillImage" />
      </cc:Work>
    </rdf:RDF>
  </metadata>
  <g
     inkscape:label="Layer 1"
     inkscape:groupmode="layer"
     id="layer1">
    <path
       sodipodi:nodetypes="cccscccccc"
       id="path3302"
       d="M 13.984138,36.740689 C 13.812157,43.393235 16.22559,63.987237 17.54965,57.210307 C 31.721788,56.761218 71.034437,53.755889 85.263412,53.383502 C 96.925243,53.085868 107.10919,56.899596 118.75299,57.114732 C 119.51111,57.12874 121.76906,53.393389 122.52682,53.408622 C 122.45769,48.569461 122.86308,42.508266 123.85109,37.118401 C 124.24673,33.857606 126.18101,28.437265 123.56331,26.122166 C 105.06497,26.177515 86.497477,28.092559 67.858553,28.580359 C 57.688048,30.196519 27.934752,30.703581 18.005436,31.388498 C 17.622485,32.033129 13.777082,33.768201 13.984138,36.740689 z"
       style="fill:#9100d2;fill-opacity:1;fill-rule:evenodd;stroke:#49006b;stroke-width:1px;stroke-linecap:butt;stroke-linejoin:miter;stroke-opacity:1" />
    <path
       style="fill:#b000ff;fill-opacity:1;fill-rule:evenodd;stroke:#49006b;stroke-width:1px;stroke-linecap:butt;stroke-linejoin:miter;stroke-opacity:1"
       d="M 14.153204,59.899647 C 28.325342,59.450558 67.284437,57.505889 81.513412,57.133502 C 93.934538,56.816489 106.38075,56.909426 118.77682,57.158622 C 118.70769,52.319461 119.11308,46.258266 120.10109,40.868401 C 120.49673,37.607606 122.43101,32.187265 119.81331,29.872166 C 101.31497,29.927515 82.747477,31.842559 64.108553,32.330359 C 53.938048,33.946519 24.361529,33.039367 14.255436,35.138498 C 9.6494477,39.305845 13.212878,56.134205 14.153204,59.899647 z"
       id="path2522"
       sodipodi:nodetypes="cccccccc" />
    <g
       id="g3779"
       transform="translate(-101,-22)" />
    <path
       id="path3018"
       d="M 177.24199,112.04398 C 171.77725,112.46636 170.41916,108.7841 165.74711,112.93349 C 164.3338,114.3468 164.02171,117.15074 164.41285,118.71528 C 167.28745,122.5663 170.41146,121.59492 175.01822,123.16281 C 177.29455,123.7319 178.79306,121.05232 181.64619,121.05232 C 184.546,121.05232 186.81823,125.49075 189.69508,124.05232 C 191.92617,122.93678 193.98579,123.28043 195.92163,121.82855 C 197.43399,120.69428 198.14803,118.70472 198.59015,116.93627 C 199.37398,113.80094 196.71352,113.32943 195.03212,112.48874 C 192.87112,111.40824 189.12575,112.07513 187.47131,112.48874 C 185.69803,112.93206 184.80606,114.51497 182.34029,114.51497 C 180.34094,114.51497 180.6301,112.04398 177.24199,112.04398 z"
       style="fill:#000000;fill-opacity:0.72839505;fill-rule:evenodd;stroke:none;stroke-width:1px;stroke-linecap:butt;stroke-linejoin:miter;stroke-opacity:1;filter:url(#filter3443)"
       sodipodi:nodetypes="ccccsssssssc"
       transform="matrix(-1.5366375,0,0,1,356.51003,0)" />
    <path
       sodipodi:nodetypes="cccccccc"
       id="path3006"
       d="M 65.301439,110.06362 C 66.429067,112.70185 70.734516,112.08966 71.363553,115.29972 C 71.133967,116.26805 70.823652,117.95171 70.305391,118.79054 C 69.383306,119.70946 68.984654,120.22465 67.739369,120.25753 C 65.116099,119.42573 60.186422,120.74289 58.449698,118.72945 C 56.710297,117.23067 55.282536,113.71277 55.130834,111.34791 C 54.64993,108.00066 56.875803,106.72598 59.089993,104.37791 C 61.269781,106.41593 62.974427,108.19656 65.301439,110.06362 z"
       style="fill:#e6e6e6;fill-rule:evenodd;stroke:#333333;stroke-width:1px;stroke-linecap:butt;stroke-linejoin:miter;stroke-opacity:1" />
    <path
       sodipodi:nodetypes="cscccccccc"
       id="path3008"
       d="M 80.156405,96.181589 C 79.707447,96.83458 78.801283,98.790326 77.677709,99.537527 C 76.814533,100.11156 75.881154,100.61267 75.024249,101.12549 C 72.856044,102.55606 73.756622,106.55105 72.100897,108.45619 C 70.173489,109.65159 66.219105,110.9865 64.052831,111.01251 C 60.788101,110.55467 58.004103,107.63274 58.756578,104.81929 C 59.641977,104.28942 60.460366,102.67235 61.498326,102.25854 C 64.626807,101.57236 67.438018,101.87046 67.338795,97.316047 C 69.981669,94.597647 67.580391,86.751447 70.36677,84.172589 C 72.464531,85.141239 80.320018,94.08579 80.156405,96.181589 z"
       style="fill:#00325c;fill-opacity:1;fill-rule:evenodd;stroke:#00192e;stroke-width:0.99999994px;stroke-linecap:butt;stroke-linejoin:miter;stroke-opacity:1" />
    <path
       sodipodi:nodetypes="ccc"
       id="path3010"
       d="M 70.557457,118.07756 C 67.581657,119.25273 64.11306,118.03088 61.56287,117.48214 C 58.62355,117.57994 56.843033,114.58189 55.49373,109.01083"
       style="fill:none;fill-rule:evenodd;stroke:#333333;stroke-width:1px;stroke-linecap:butt;stroke-linejoin:miter;stroke-opacity:1" />
    <path
       style="fill:#e6e6e6;fill-rule:evenodd;stroke:#333333;stroke-width:1px;stroke-linecap:butt;stroke-linejoin:miter;stroke-opacity:1"
       d="M 87.83624,110.35029 C 90.45755,111.51673 94.30626,111.93282 96.95117,113.85756 C 97.44169,114.72346 97.49924,115.76127 97.69008,116.72864 C 97.63944,118.02945 96.93899,118.9002 96.04868,119.77149 C 93.56016,120.94654 90.64977,120.3801 88.00711,120.08596 C 85.71263,120.17086 82.9759,119.84092 81.25584,118.21089 C 78.62616,116.08482 78.88138,113.86751 78.90673,110.64022 C 81.89083,110.65094 84.86054,110.56503 87.83624,110.35029 z"
       id="path3012"
       sodipodi:nodetypes="cccccccc" />
    <path
       style="fill:#00325c;fill-opacity:1;fill-rule:evenodd;stroke:#00192e;stroke-width:1px;stroke-linecap:butt;stroke-linejoin:miter;stroke-opacity:1"
       d="M 84.82577,86.76386 C 84.97093,87.54289 88.89738,91.15671 88.63275,92.47985 C 88.42945,93.49634 88.12495,94.51103 87.88275,95.47985 C 87.36406,98.02516 89.82852,100.58714 90.00775,103.10485 C 89.49266,105.3136 88.64438,108.67795 87.13275,110.22985 C 84.50276,112.21762 80.46795,112.12468 79.00775,109.60485 C 79.25801,108.60382 79.06758,108.00691 79.50775,106.97985 C 81.350593,104.19431 83.263664,100.85916 79.75775,98.22985 C 79.70003,94.43892 68.73728,89.00604 68.8797,85.21208 C 71.04707,84.41121 83.45769,85.16777 84.82577,86.76386 z"
       id="path3014"
       sodipodi:nodetypes="cscccccccc" />
    <path
       style="fill:none;fill-rule:evenodd;stroke:#333333;stroke-width:1px;stroke-linecap:butt;stroke-linejoin:miter;stroke-opacity:1"
       d="M 97.06114,117.83745 C 93.98924,118.73174 90.62821,119.32222 88.13986,118.53947 C 85.20413,118.36441 82.56693,117.94856 79.68471,115.28084"
       id="path3016"
       sodipodi:nodetypes="ccc" />
    <path
       sodipodi:nodetypes="ccccccccc"
       id="path2964"
       d="M 89.15846,9.423629 C 99.6093,9.413599 103.70962,16.329013 103.80515,25.29821 C 103.79596,27.174345 102.9107,30.862514 102.43668,32.719896 C 102.63516,36.38266 103.52883,39.15403 102.43059,42.72303 C 101.14898,47.77354 98.27391,49.56727 93.37613,50.63374 C 89.03346,50.52719 86.39096,47.97856 83.15092,44.92675 C 78.5091,41.09043 73.41579,36.55526 71.72895,30.905296 C 71.14593,25.513454 73.7856,20.385324 75.34062,15.366446 C 77.49879,9.876626 83.95101,8.628266 89.15846,9.423629 z"
       style="fill:#e9d2af;fill-opacity:1;fill-rule:evenodd;stroke:#3f2d10;stroke-width:1px;stroke-linecap:butt;stroke-linejoin:miter;stroke-opacity:1" />
    <path
       style="fill:#e9d2af;fill-opacity:1;fill-rule:evenodd;stroke:#3f2d10;stroke-width:1px;stroke-linecap:butt;stroke-linejoin:miter;stroke-opacity:1"
       d="M 105.80189,26.540116 C 104.18913,24.708888 102.8084,26.661678 104.11826,27.969115 C 104.60775,28.457685 104.3278,29.233156 104.96501,29.692702 C 106.8165,31.099489 107.99375,30.244305 107.53401,28.48488 C 107.46365,29.012424 109.30915,29.330322 109.92614,29.514473 C 111.38826,28.78744 110.96412,28.258003 110.32095,27.155987 C 110.90071,27.637256 112.29222,29.725351 112.22874,25.053949 C 111.12092,22.936016 107.24092,20.672368 108.66107,24.567732 C 105.90727,19.877383 104.54003,23.495149 105.80189,26.540116 z"
       id="path3300"
       sodipodi:nodetypes="csccccccc" />
    <path
       sodipodi:nodetypes="cccc"
       id="path2966"
       d="M 102.7614,28.037456 C 103.65974,30.312656 106.17291,30.935505 107.64585,31.872117 C 108.817,34.36041 108.83241,36.31737 105.76918,36.34879 C 103.51442,35.82178 102.35912,34.40925 101.61897,32.361206"
       style="fill:#e9d2af;fill-opacity:1;fill-rule:evenodd;stroke:#3f2d10;stroke-width:1px;stroke-linecap:butt;stroke-linejoin:miter;stroke-opacity:1" />
    <path
       sodipodi:nodetypes="cccc"
       id="path2968"
       d="M 101.12332,23.29409 C 102.47455,26.299224 101.40906,28.052158 98.48607,27.604451 C 97.58558,27.995657 95.72421,25.794622 96.16102,24.343027 C 95.85857,20.43735 99.24341,20.36918 101.12332,23.29409 z"
       style="fill:#ffffff;fill-rule:evenodd;stroke:#333333;stroke-width:1px;stroke-linecap:butt;stroke-linejoin:miter;stroke-opacity:1" />
    <path
       sodipodi:nodetypes="cssc"
       id="path2974"
       d="M 99.85898,23.654021 C 99.47419,23.295483 101.74097,22.641055 101.60406,24.662578 C 101.49795,26.229426 99.60172,26.593335 98.97175,26.149706 C 97.70649,25.258694 99.24814,23.338322 99.85898,23.654021 z"
       style="fill:#000000;fill-rule:evenodd;stroke:#000000;stroke-width:1px;stroke-linecap:butt;stroke-linejoin:miter;stroke-opacity:1" />
    <path
       id="path2976"
       d="M 70.29331,31.303597 C 71.85522,31.068189 70.00338,37.03479 69.89603,38.15685 C 69.72961,39.8962 67.06675,42.81499 66.19423,44.43552 C 65.45314,45.81194 61.28927,45.23818 60.19825,44.98168 C 58.36216,44.54998 56.4881,45.79868 55.81147,46.71548 C 53.70007,49.57627 54.63906,45.71857 55.09302,44.32093 C 55.44956,43.22321 57.57461,41.49853 58.46445,40.59488 C 59.97712,39.05874 60.10248,37.53346 61.32819,35.87271 C 62.49797,34.28774 64.14571,34.01788 66.0119,33.736613 C 67.1777,33.560903 68.91065,31.803595 70.29331,31.303597 z"
       style="fill:#28170b;fill-rule:evenodd;stroke:#120a04;stroke-width:1px;stroke-linecap:butt;stroke-linejoin:miter;stroke-opacity:1" />
    <path
       sodipodi:nodetypes="cccccccccccc"
       id="path2989"
       d="M 65.73175,91.28924 C 68.47312,88.21932 64.77856,82.04633 66.7309,78.40785 C 67.16969,72.30741 66.716243,65.60159 71.78031,59.6852 C 72.75251,56.69898 75.66644,56.21471 77.65272,53.80143 C 79.81095,51.7161 80.70222,51.56612 83.71506,51.91355 C 87.45369,53.11656 86.98598,52.67377 90.65313,54.13858 C 93.25678,55.8306 94.85335,58.17861 94.65847,61.26167 C 94.33608,64.02023 93.73949,66.45478 94.59459,69.1374 C 94.24141,73.59161 97.4265,78.64657 96.07151,82.94588 C 94.33179,87.92028 95.1173,89.68359 93.69456,94.69703 C 89.69787,91.4264 81.9159,94.6354 76.99099,93.23328 C 73.03338,91.02365 67.80898,94.91844 65.73175,91.28924 z"
       style="fill:#1a1a1a;fill-opacity:1;fill-rule:evenodd;stroke:#000000;stroke-width:1px;stroke-linecap:butt;stroke-linejoin:miter;stroke-opacity:1" />
    <path
       sodipodi:nodetypes="ccccc"
       id="path2987"
       d="M 91.90033,55.53091 C 90.06473,60.07747 80.77822,58.38378 77.81827,53.95754 C 80.41761,51.17427 80.47863,47.19661 82.71042,46.0724 C 84.98216,45.86176 87.16832,46.53858 89.31271,47.21275 C 91.02175,48.60494 92.32603,53.7983 91.90033,55.53091 z"
       style="fill:#e9d2af;fill-opacity:1;fill-rule:evenodd;stroke:#3f2d10;stroke-width:1px;stroke-linecap:butt;stroke-linejoin:miter;stroke-opacity:1" />
    <path
       style="fill:#28170b;fill-opacity:1;fill-rule:evenodd;stroke:#120a04;stroke-width:1px;stroke-linecap:butt;stroke-linejoin:miter;stroke-opacity:1"
       d="M 75.22603,36.02303 C 80.06458,35.10537 80.99405,38.60656 83.04949,40.18639 C 85.29487,40.72725 87.23059,41.98218 89.41232,42.68632 C 90.32825,42.69081 91.12695,42.72795 91.88272,42.35467 C 93.79524,41.36702 95.14547,39.5945 96.68473,38.12813 C 98.97057,37.06478 100.62084,36.55363 103.2237,36.56638 C 104.61525,37.53777 106.14696,37.63192 104.51339,41.229 C 101.00595,41.30317 99.49344,40.5111 97.26225,41.4435 C 95.62621,42.80053 95.59105,45.01238 97.70911,45.91449 C 99.361,45.6181 100.88727,45.87254 101.78105,43.9969 C 104.49462,44.25838 104.03892,46.38231 103.16663,48.22249 C 102.52683,52.5864 99.62048,53.25571 95.39499,52.62199 C 92.70617,52.27563 89.21071,52.71631 86.72351,51.70543 C 84.50251,50.29106 83.02272,49.00987 81.42286,46.89725 C 80.08236,43.99777 77.98152,42.41848 76.33954,39.9982 C 75.9854,38.32847 73.87354,37.19454 75.22603,36.02303 z"
       id="path2978"
       sodipodi:nodetypes="cccccccccccccccc" />
    <path
       sodipodi:nodetypes="cccsccccc"
       id="path2983"
       d="M 103.09336,15.679124 C 103.78629,5.819944 76.90306,2.431749 75.46049,10.22268 C 67.49264,10.845554 67.33581,30.171559 72.97497,36.10231 C 73.43478,35.39569 74.89644,35.40397 75.10226,34.3125 C 75.97132,29.704151 75.44367,22.276107 79.36922,22.987662 C 82.7854,21.875589 81.54282,26.387805 82.35447,27.068193 C 88.00679,23.563925 82.22254,17.619205 87.89249,15.251131 C 90.66869,16.388941 94.18599,18.141187 97.08475,15.296143 C 99.55047,15.308217 100.98946,16.508755 103.09336,15.679124 z"
       style="fill:#28170b;fill-rule:evenodd;stroke:#120a04;stroke-width:1px;stroke-linecap:butt;stroke-linejoin:miter;stroke-opacity:1" />
    <path
       sodipodi:nodetypes="cc"
       id="path2970"
       d="M 80.52579,23.516457 C 74.67389,21.158256 75.66453,29.846903 79.99887,29.013943"
       style="fill:#e9d2af;fill-opacity:1;fill-rule:evenodd;stroke:#3f2d10;stroke-width:1px;stroke-linecap:butt;stroke-linejoin:miter;stroke-opacity:1" />
    <path
       sodipodi:nodetypes="cs"
       id="path2972"
       d="M 79.39407,24.885932 C 78.55032,23.388849 76.29584,26.050566 79.38122,27.5109"
       style="fill:#e9d2af;fill-opacity:1;fill-rule:evenodd;stroke:#3f2d10;stroke-width:1px;stroke-linecap:butt;stroke-linejoin:miter;stroke-opacity:1" />
    <path
       sodipodi:nodetypes="cc"
       id="path2985"
       d="M 102.23292,42.56384 C 101.26614,42.967189 100.42993,41.415785 97.288416,43.60981"
       style="fill:none;fill-rule:evenodd;stroke:#3f2d10;stroke-width:1px;stroke-linecap:butt;stroke-linejoin:miter;stroke-opacity:1" />
    <path
       sodipodi:nodetypes="cccccccccccccccc"
       id="path2993"
       d="M 106.23368,46.777592 C 108.5932,44.459396 109.38236,38.744286 109.90976,35.464287 C 109.68324,33.904733 109.1129,31.437843 109.41018,29.638901 C 110.50117,28.685585 110.14157,32.054897 111.40957,32.538013 C 111.72173,30.378026 110.16175,26.445798 113.29936,28.693961 C 113.91612,29.906787 114.39812,30.40188 113.94369,31.594221 C 116.39632,30.454959 114.83023,21.725476 117.46695,29.889752 C 117.95328,31.454525 116.21852,32.36905 115.42836,33.593944 C 116.96502,32.501925 119.5132,28.885279 119.38913,32.568028 C 118.76452,33.669055 116.76006,35.64703 115.64598,36.065566 C 114.76408,36.992792 114.3531,38.336087 113.77983,39.49822 C 113.4918,42.61505 111.97436,48.684987 110.55173,51.427943 C 107.68295,52.297947 102.59191,59.341474 99.9491,60.381753 C 98.97524,60.99955 97.10632,62.128998 96.04866,62.45694 C 93.296326,61.459432 92.921101,58.828199 93.422104,55.96854 C 94.039563,52.233038 103.31814,48.425086 106.23368,46.777592 z"
       style="fill:#e9d2af;fill-opacity:1;fill-rule:evenodd;stroke:#3f2d10;stroke-width:0.99999994px;stroke-linecap:butt;stroke-linejoin:miter;stroke-opacity:1" />
    <path
       style="font-size:12px;font-style:normal;font-variant:normal;font-weight:normal;font-stretch:normal;fill:#ffffff;fill-opacity:1;stroke:none;stroke-width:1px;stroke-linecap:butt;stroke-linejoin:miter;stroke-opacity:1;font-family:Rufscript;-inkscape-font-specification:Rufscript"
       d="M 88.497257,73.070643 C 88.450008,73.095158 88.380609,73.209865 88.42056,72.983476 C 88.418764,71.999286 88.333344,71.065621 88.329355,70.08179 C 88.324777,69.600904 88.31854,69.117821 88.332498,68.630793 C 88.384654,68.347298 88.510976,68.265008 88.608183,68.163468 C 88.810791,67.994532 89.017689,67.872966 89.222247,67.802925 C 89.323189,67.913059 89.390392,68.160733 89.455476,68.384195 C 89.541007,68.699283 89.50304,69.184075 89.400958,69.519333 C 89.283696,69.976644 89.095698,70.236342 88.965691,70.658704 C 88.868461,70.914078 88.910206,71.280616 89.014429,71.37312 C 89.146001,71.544232 89.305163,71.601255 89.407657,71.895733 C 89.464778,72.061514 89.52599,72.26585 89.520751,72.522132 C 89.430076,72.716988 89.2652,72.745365 89.200503,72.490313 C 89.117568,72.329905 89.046398,72.098083 88.956907,71.977501 C 88.8617,71.935808 88.796837,71.387224 88.686998,71.802958 C 88.628061,72.083427 88.644832,72.402762 88.635665,72.696913 C 88.647507,72.84166 88.574842,72.888109 88.541945,72.980841 C 88.527049,73.010775 88.512153,73.040709 88.497257,73.070643 z M 88.635011,70.674897 C 88.841032,70.277053 89.060246,69.88007 89.211049,69.311781 C 89.282037,69.07306 89.274289,68.720318 89.179879,68.610354 C 89.036228,68.3864 88.8474,68.545335 88.680958,68.632752 C 88.527309,68.640704 88.598157,69.137412 88.600221,69.381237 C 88.624219,69.803513 88.622906,70.244291 88.635011,70.674897 z M 90.302121,72.158501 C 90.301343,71.477713 90.318066,70.780088 90.260428,70.134646 C 90.229137,69.675015 90.19873,69.214598 90.168584,68.753956 C 90.089687,68.574272 89.956651,68.678755 89.85262,68.674728 C 89.725311,68.708603 89.551743,68.711826 89.514382,68.332352 C 89.501476,68.032012 89.69559,68.11952 89.770695,68.014671 C 90.177751,67.804432 90.587641,67.551606 90.993652,67.512694 C 91.086423,67.499058 91.261054,67.526421 91.206975,67.900466 C 91.135054,68.165609 91.004998,68.180705 90.902966,68.235906 C 90.783307,68.288291 90.663385,68.328995 90.543895,68.394759 C 90.454494,68.76472 90.519525,69.165465 90.541818,69.521784 C 90.585235,70.273621 90.592444,71.05681 90.569394,71.841835 C 90.575359,72.147349 90.499802,72.469821 90.376796,72.346476 C 90.339231,72.33551 90.29994,72.276559 90.302121,72.158501 z M 91.606572,69.993696 C 91.531852,70.239336 91.618248,70.579331 91.636991,70.834956 C 91.670027,71.117699 91.731071,71.432034 91.675097,71.756006 C 91.591828,72.035899 91.402729,71.97878 91.403034,71.611625 C 91.348023,70.619734 91.336404,69.596823 91.315229,68.582864 C 91.315131,68.253867 91.29623,67.921649 91.324035,67.588293 C 91.44854,67.215732 91.632946,67.101194 91.795067,66.968527 C 91.951782,66.872008 92.117848,66.727703 92.26879,66.817358 C 92.326395,66.974661 92.460736,67.195086 92.423522,67.455474 C 92.181362,67.503277 91.931702,67.473194 91.690955,67.733051 C 91.563226,67.877687 91.597827,68.316781 91.594975,68.588695 C 91.582002,68.928308 91.643155,69.31896 91.789812,69.236874 C 91.954177,69.2008 92.122228,68.839916 92.282341,68.970928 C 92.419852,69.142554 92.288274,69.612804 92.168366,69.667101 C 91.984608,69.85389 91.793901,69.931528 91.606572,69.993696 z M 93.9737,71.827758 C 93.928447,71.460803 93.939932,71.038988 93.930981,70.642087 C 93.916985,69.340719 93.945566,68.02032 93.92292,66.723256 C 93.898531,66.671329 93.83237,67.067162 93.792293,67.180372 C 93.685656,67.586677 93.548481,67.955034 93.415653,68.282379 C 93.478285,68.416157 93.642465,68.534014 93.604362,68.797265 C 93.520169,69.160184 93.376759,69.092829 93.312535,68.818625 C 93.134317,68.405451 92.958525,67.98396 92.774673,67.588697 C 92.800326,68.72934 92.830564,69.868809 92.834414,71.020703 C 92.838379,71.334973 92.663086,71.595393 92.587875,71.389314 C 92.527421,71.13637 92.551485,70.783663 92.538771,70.481154 C 92.529842,69.43411 92.522228,68.385472 92.531582,67.330873 C 92.531315,67.005034 92.668117,66.851512 92.765185,66.872999 C 92.886114,66.927155 92.993629,67.123747 93.041243,67.427598 C 93.092284,67.593245 93.147786,68.052673 93.248661,67.860344 C 93.385251,67.429736 93.526207,67.007618 93.660061,66.571688 C 93.725089,66.302761 93.833746,66.073107 93.843983,65.746943 C 93.90039,65.502671 94.101536,65.371673 94.104688,65.728814 C 94.132646,66.38953 94.129825,67.069448 94.154567,67.732377 C 94.174652,68.765228 94.164576,69.815757 94.205632,70.836327 C 94.231724,71.099504 94.257079,71.429563 94.14743,71.64833 C 94.104316,71.760851 94.022498,71.983801 93.9737,71.827758 z"
       id="text2415" />
    <path
       sodipodi:nodetypes="cccccc"
       id="path2991"
       d="M 80.148388,57.868492 C 82.293428,56.500639 84.562694,55.671606 86.976739,54.963978 C 89.346054,54.094141 91.481002,52.812545 93.539284,51.38079 C 95.61245,55.065707 96.808838,60.657694 98.165298,64.846898 C 96.222605,65.687629 93.871609,66.967318 91.939331,67.846672 C 89.34122,69.053433 82.639795,68.811036 80.860357,66.330799"
       style="fill:#1a1a1a;fill-opacity:1;fill-rule:evenodd;stroke:#000000;stroke-width:1px;stroke-linecap:butt;stroke-linejoin:miter;stroke-opacity:1" />
    <path
       style="fill:none;fill-rule:evenodd;stroke:#49006b;stroke-width:1px;stroke-linecap:butt;stroke-linejoin:miter;stroke-opacity:1"
       d="M 123.74369,25.999847 L 119.67782,30.242487"
       id="path3308" />
  </g>
</svg>
