<?xml version="1.0" encoding="UTF-8" standalone="no"?>
<!-- Created with Inkscape (http://www.inkscape.org/) -->
<svg
   xmlns:dc="http://purl.org/dc/elements/1.1/"
   xmlns:cc="http://creativecommons.org/ns#"
   xmlns:rdf="http://www.w3.org/1999/02/22-rdf-syntax-ns#"
   xmlns:svg="http://www.w3.org/2000/svg"
   xmlns="http://www.w3.org/2000/svg"
   xmlns:sodipodi="http://sodipodi.sourceforge.net/DTD/sodipodi-0.dtd"
   xmlns:inkscape="http://www.inkscape.org/namespaces/inkscape"
   width="128"
   height="128"
   id="svg2"
   sodipodi:version="0.32"
   inkscape:version="0.46"
   version="1.0"
   sodipodi:docname="the-alternate-alternate.svg"
   inkscape:output_extension="org.inkscape.output.svg.inkscape">
  <defs
     id="defs4">
    <filter
       inkscape:collect="always"
       id="filter3406"
       x="-0.11461057"
       width="1.2292211"
       y="-0.24987043"
       height="1.499741">
      <feGaussianBlur
         inkscape:collect="always"
         stdDeviation="4.5975223"
         id="feGaussianBlur3408" />
    </filter>
    <filter
       inkscape:collect="always"
       id="filter3408"
       x="-0.15531251"
       width="1.310625"
       y="-0.61039191"
       height="2.2207839">
      <feGaussianBlur
         inkscape:collect="always"
         stdDeviation="3.8088166"
         id="feGaussianBlur3410" />
    </filter>
    <filter
       inkscape:collect="always"
       id="filter3533"
       x="-0.21768413"
       width="1.4353683"
       y="-0.50795257"
       height="2.0159051">
      <feGaussianBlur
         inkscape:collect="always"
         stdDeviation="3.2924533"
         id="feGaussianBlur3535" />
    </filter>
    <filter
       inkscape:collect="always"
       id="filter3457"
       x="-0.12386652"
       width="1.247733"
       y="-0.51899701"
       height="2.0379941">
      <feGaussianBlur
         inkscape:collect="always"
         stdDeviation="3.5216725"
         id="feGaussianBlur3459" />
    </filter>
  </defs>
  <sodipodi:namedview
     id="base"
     pagecolor="#ffffff"
     bordercolor="#666666"
     borderopacity="1.0"
     gridtolerance="10000"
     guidetolerance="10"
     objecttolerance="10"
     inkscape:pageopacity="0.0"
     inkscape:pageshadow="2"
     inkscape:zoom="1"
     inkscape:cx="334.89331"
     inkscape:cy="-35.060779"
     inkscape:document-units="px"
     inkscape:current-layer="layer1"
     showgrid="false"
     inkscape:window-width="1538"
     inkscape:window-height="961"
     inkscape:window-x="127"
     inkscape:window-y="31" />
  <metadata
     id="metadata7">
    <rdf:RDF>
      <cc:Work
         rdf:about="">
        <dc:format>image/svg+xml</dc:format>
        <dc:type
           rdf:resource="http://purl.org/dc/dcmitype/StillImage" />
      </cc:Work>
    </rdf:RDF>
  </metadata>
  <g
     inkscape:label="Layer 1"
     inkscape:groupmode="layer"
     id="layer1">
    <g
       id="g3461"
       transform="translate(-225.48868,-43.270493)">
      <path
         sodipodi:nodetypes="ccccccc"
         id="path3353"
         d="M 282.37125,162 C 275.65648,160.15939 259.96388,163.72297 255.37125,157.5 C 257.37242,147.50154 281.82556,148.95481 289.37125,149.5 C 298.90336,147.9452 307.33255,148.48905 316.87125,148 C 319.92933,148 321.52994,151.57935 323.37125,152.5 C 325.41893,154.11429 313.50321,163.03769 309.87125,163.5 C 303.4782,165.48757 289.28218,163.22009 282.37125,162 z"
         style="fill:#000000;fill-opacity:0.69958849;fill-rule:evenodd;stroke:none;stroke-width:1px;stroke-linecap:butt;stroke-linejoin:miter;stroke-opacity:1;filter:url(#filter3457)" />
      <path
         sodipodi:nodetypes="ccccccccccc"
         id="path3341"
         d="M 268.75,122.25 C 267.03204,122.25 266.41667,125.08333 264.75,125.5 C 262.12758,125.7595 258.45485,126.14127 260.25,129.5 C 261.38023,130.63023 263.35383,127.83467 262.75,130.25 C 260.91297,132.10351 258.3164,132.96914 261.25,135.25 C 262.35703,135.80352 263.04751,134.60125 263.75,134.25 C 261.54753,135.87437 261.09266,137.07048 264.75,137.5 C 266.38273,138.96415 266.83726,139.41171 269.5,138.25 C 271.15845,136.66324 271.73344,134.23202 272,132 C 271.70565,129.56208 273.23752,127.66939 273.75,125.5 C 273.36104,123.38264 270.61479,122.96768 268.75,122.25 z"
         style="fill:#f4e3d7;fill-opacity:1;fill-rule:evenodd;stroke:#432612;stroke-width:1px;stroke-linecap:butt;stroke-linejoin:miter;stroke-opacity:1" />
      <path
         sodipodi:nodetypes="cccccc"
         id="path3333"
         d="M 277.75,106 C 276.31307,108.73669 274.37258,110.63085 272,112.5 C 270.32975,116.01544 268.91719,119.42632 267,122.75 C 269.91667,123.36882 270.4388,127.37116 274.375,128 C 275.88352,125.75224 276.95843,123.25236 278.5,121 C 280.44508,118.93357 281.8981,116.7116 283.25,114.25"
         style="fill:#2b1100;fill-opacity:1;fill-rule:evenodd;stroke:#120700;stroke-width:1px;stroke-linecap:butt;stroke-linejoin:miter;stroke-opacity:1" />
      <path
         sodipodi:nodetypes="ccccccc"
         id="path3319"
         d="M 279.74983,153.20153 C 278.64293,153.20153 276.87177,152.75594 275.73393,152.18702 C 273.62409,150.19898 272.31594,151.65973 269.96525,152.5344 C 268.56388,152.88474 268.63099,154.43073 268.63099,155.64767 C 273.55031,160.1718 283.52752,158.16394 289.75678,156.09243 C 289.87094,153.96888 289.83525,151.76261 289.5344,149.6435 C 285.90667,149.35135 283.14474,152.26954 279.74983,153.20153 z"
         style="fill:#5d6dd6;fill-opacity:1;fill-rule:evenodd;stroke:#162167;stroke-width:1px;stroke-linecap:butt;stroke-linejoin:miter;stroke-opacity:1" />
      <path
         sodipodi:nodetypes="ccccccc"
         id="path3321"
         d="M 268.40862,156.3148 C 267.29887,156.7587 268.25375,157.96328 267.96386,159.12283 C 270.71819,160.22613 274.42875,159.53996 277.59581,159.53996 C 281.36659,158.94174 285.22656,158.43304 289.08965,158.63595 C 290.10045,158.63595 289.75678,156.53455 289.75678,155.74505 C 285.83273,154.87361 282.08721,156.88706 278.19319,157.20431 C 274.76563,157.70382 271.68799,157.31783 268.40862,156.3148 z"
         style="fill:#e6e6e6;fill-rule:evenodd;stroke:#4d4d4d;stroke-width:1px;stroke-linecap:butt;stroke-linejoin:miter;stroke-opacity:1" />
      <path
         sodipodi:nodetypes="ccccccccc"
         id="path2545"
         d="M 282.41029,129.85152 C 281.49585,130.30874 283.25717,134.93201 283.98273,136.14128 C 284.94101,139.60718 283.7143,143.00224 281.78132,145.89041 C 281.83012,148.51332 280.57326,150.96558 280.2208,153.43414 C 285.22705,152.83319 289.51847,149.22353 295.93328,149.03529 C 297.66436,149.03529 296.80422,146.15678 296.56225,144.94694 C 295.29282,139.75291 295.63493,134.49959 295.3043,129.22254 C 295.3043,127.32971 293.01376,127.98241 291.53045,128.27907 C 288.36213,128.88358 285.12521,127.85252 282.41029,129.85152 z"
         style="fill:#364936;fill-opacity:1;fill-rule:evenodd;stroke:#141b14;stroke-width:1px;stroke-linecap:butt;stroke-linejoin:miter;stroke-opacity:1" />
      <path
         sodipodi:nodetypes="ccccccccc"
         id="path2543"
         d="M 290.27249,137.08474 C 291.76178,141.79026 289.20966,142.84833 289.20005,147.60375 C 289.20005,149.58495 288.12259,152.55157 287.75659,154.38159 C 291.97138,152.11671 302.14109,153.73055 307.73894,153.74068 C 306.90023,149.68192 304.67972,148.33463 304.10997,145.89041 C 302.29937,142.70509 302.65081,139.63006 302.85202,136.14128 C 302.85202,134.56884 302.85202,132.9964 302.85202,131.42396 C 302.44231,126.8444 293.38678,128.73908 289.95801,129.53703 C 290.14372,131.77183 289.85669,134.60526 290.27249,137.08474 z"
         style="fill:#364936;fill-opacity:1;fill-rule:evenodd;stroke:#141b14;stroke-width:1px;stroke-linecap:butt;stroke-linejoin:miter;stroke-opacity:1" />
      <path
         sodipodi:nodetypes="cccccccccccc"
         id="path2541"
         d="M 303.25,99.5 C 303.72055,102.02909 304.86182,104.29513 306.5,106.25 C 309.04677,108.98844 307.30006,112.23885 307.5,115.75 C 309.51089,121.91884 306.32899,128.03721 307.25,134.25 C 303.95126,134.5271 300.48173,134.07418 296.375,134.125 C 288.02864,133.6948 288.25686,131.32774 280,133.875 C 277.8946,126.97914 278.71213,127.15955 278.875,123.25 C 279.2124,119.89193 279.27964,115.332 278.75,112 C 278.06071,108.65188 276.47201,105.35638 279,102.75 C 280.19549,100.87697 281.63096,99.977136 283.75,99.5 C 287.53473,98.49942 291.5367,98.411778 295.25,97.25 C 298.43689,96.201818 300.68015,98.090014 303.25,99.5 z"
         style="fill:#2b1100;fill-opacity:1;fill-rule:evenodd;stroke:#120700;stroke-width:1px;stroke-linecap:butt;stroke-linejoin:miter;stroke-opacity:1" />
      <path
         sodipodi:nodetypes="cccscccc"
         id="path2539"
         d="M 285.5,94.75 C 288.36672,94.832176 291.18666,94.818861 294,94.25 C 296.30857,93.930683 298.01899,94.29132 300.25,93.25 C 301.88495,92.841263 302.28257,93.815129 302.75,94.75 C 303.35316,95.956314 302.625,97.735565 302.625,99.125 C 298.3128,102.08863 292.81225,99.982554 288,100.5 C 285.47999,101.04066 282.45151,103.06512 282.25,99.5 C 282.0559,96.154368 282.00945,95.146436 285.5,94.75 z"
         style="fill:#2b1100;fill-rule:evenodd;stroke:#120700;stroke-width:1px;stroke-linecap:butt;stroke-linejoin:miter;stroke-opacity:1" />
      <path
         sodipodi:nodetypes="cccccccccc"
         id="path2519"
         d="M 285.64276,62.198044 C 282.09829,64.636202 278.12687,67.176272 276.3888,71.262679 C 274.56975,75.898908 275.91458,81.04369 277.52194,85.615021 C 278.50091,89.51282 278.2423,93.692282 278.27735,97.701204 C 278.27735,99.066783 278.47357,99.264711 279.4105,99.967363 C 283.01906,101.83734 287.74263,98.881505 290.74188,96.75697 C 294.54599,93.717795 299.25443,93.537372 303.39526,90.902726 C 306.97599,88.151874 307.1903,83.670489 307.92781,79.57193 C 309.19476,74.662051 307.5502,70.59214 304.33956,66.919207 C 299.49568,62.911922 291.87309,59.483289 285.64276,62.198044 z"
         style="fill:#f4e3d7;fill-opacity:1;fill-rule:evenodd;stroke:#432612;stroke-width:1px;stroke-linecap:butt;stroke-linejoin:miter;stroke-opacity:1" />
      <path
         sodipodi:nodetypes="ccccccccccc"
         id="path2509"
         d="M 294.51901,56.154953 C 288.16012,53.273421 284.99055,49.823012 278.03576,50.987946 C 271.13234,53.071995 263.43168,64.170203 264.1252,70.965203 C 265.36245,62.231046 270.6165,57.357115 278.67923,57.561368 C 272.62088,60.274266 271.73651,63.693903 269.7031,66.914936 C 272.9724,63.500371 276.05477,62.687632 279.82887,62.575735 C 281.48011,62.575735 280.05267,65.849898 279.36336,67.164132 C 281.68936,63.91878 286.94662,64.309968 287.68836,68.449849 C 290.47456,64.151258 296.04632,64.299964 300.56242,64.464202 C 302.59124,62.873212 303.25472,61.901198 303.25472,59.345477 C 303.61363,54.329472 298.5634,55.613595 294.51901,56.154953 z"
         style="fill:#000000;fill-rule:evenodd;stroke:#000000;stroke-width:1px;stroke-linecap:butt;stroke-linejoin:miter;stroke-opacity:1" />
      <path
         sodipodi:nodetypes="cccscccc"
         id="path2513"
         d="M 280.35478,95.623892 C 285.30669,95.180764 283.53227,99.781006 282.99876,103.17775 C 281.96058,107.04058 283.30467,110.42863 283.7542,114.13086 C 283.8165,112.3804 281.48295,111.84482 281.11021,110.35393 C 280.10826,106.34636 279.37961,106.84045 278.71351,105.34045 C 278.06481,107.75463 277.89592,108.73479 276.83036,111.22893 C 272.41158,104.14286 278.35802,104.27297 278.84393,100.9116 C 278.84393,98.436432 278.6503,97.754369 280.35478,95.623892 z"
         style="fill:#000000;fill-rule:evenodd;stroke:#000000;stroke-width:1px;stroke-linecap:butt;stroke-linejoin:miter;stroke-opacity:1" />
      <path
         sodipodi:nodetypes="ccccccscccc"
         id="path2511"
         d="M 302.33956,62.448044 C 306.96355,53.927023 315.22998,58.734794 319.84228,59.530798 C 317.52203,60.668824 312.18578,58.732019 310.79367,61.483139 C 314.23102,61.69925 318.6913,62.205235 320.2035,66.722563 C 318.0132,63.557706 311.61303,63.126198 307.1285,64.713399 C 308.01104,68.037207 311.31229,67.938811 313.86252,70.322719 C 309.61988,69.369073 307.54989,72.674461 308.11668,71.262679 C 308.38745,70.588232 312.02758,75.350555 311.29101,77.89218 C 307.86985,75.605339 306.99863,73.896928 303.20642,73.906532 C 302.00326,76.118418 300.27677,74.838158 297.163,82.215783 C 298.12671,74.1051 296.40436,67.616498 302.33956,62.448044 z"
         style="fill:#000000;fill-rule:evenodd;stroke:#000000;stroke-width:1px;stroke-linecap:butt;stroke-linejoin:miter;stroke-opacity:1" />
      <path
         sodipodi:nodetypes="ccccc"
         id="path2523"
         d="M 304.33956,75.417306 C 306.15211,73.500051 307.93012,73.387914 310.00524,74.850765 C 311.43,76.266232 312.21129,77.837581 312.64924,79.760778 C 313.00872,82.689718 310.84964,83.088013 308.49439,83.726555 C 306.43252,84.132884 304.72241,83.763194 304.15069,81.271549"
         style="fill:#f4e3d7;fill-opacity:1;fill-rule:evenodd;stroke:#432612;stroke-width:1px;stroke-linecap:butt;stroke-linejoin:miter;stroke-opacity:1" />
      <path
         sodipodi:nodetypes="ccccc"
         id="path2527"
         d="M 277.36932,73.858253 C 276.87658,74.913666 276.51988,75.473905 276.5165,77.619617 C 276.3987,80.622116 278.99316,82.740901 281.11019,80.13847 C 281.72072,78.341811 281.48792,77.239975 281.48792,75.356955 C 281.07025,73.250581 279.16771,73.201112 277.36932,73.858253 z"
         style="fill:#ffffff;fill-rule:evenodd;stroke:#333333;stroke-width:1px;stroke-linecap:butt;stroke-linejoin:miter;stroke-opacity:1" />
      <path
         sodipodi:nodetypes="ccccc"
         id="path2529"
         d="M 288.34104,73.339992 C 286.3344,73.526454 284.97702,75.38364 284.52314,77.305771 C 284.2309,79.08962 284.65863,80.403049 286.31982,81.460397 C 291.01944,81.044222 290.92044,78.053263 290.58687,76.17269 C 290.54039,74.493312 290.26155,73.575699 288.34104,73.339992 z"
         style="fill:#ffffff;fill-rule:evenodd;stroke:#333333;stroke-width:1px;stroke-linecap:butt;stroke-linejoin:miter;stroke-opacity:1" />
      <path
         sodipodi:nodetypes="ccc"
         id="path2531"
         d="M 285.26505,80.13847 C 285.98255,81.598885 288.02848,81.483032 288.85332,79.57193 C 287.07692,77.029973 285.94589,77.55581 285.26505,80.13847 z"
         style="fill:#000000;fill-rule:evenodd;stroke:#000000;stroke-width:1px;stroke-linecap:butt;stroke-linejoin:miter;stroke-opacity:1" />
      <path
         sodipodi:nodetypes="ccc"
         id="path2533"
         d="M 280.85207,79.008083 C 280.74407,77.655944 277.18525,78.351927 276.95536,79.194237 C 276.84815,81.006643 280.75321,82.440024 280.85207,79.008083 z"
         style="fill:#000000;fill-rule:evenodd;stroke:#000000;stroke-width:1px;stroke-linecap:butt;stroke-linejoin:miter;stroke-opacity:1" />
      <path
         sodipodi:nodetypes="cscc"
         id="path2535"
         d="M 282.61834,81.526936 C 282.40584,82.746105 281.21646,84.005028 279.78822,83.537709 C 278.32253,83.058137 278.24917,84.664094 278.53278,85.798482 C 278.99551,87.415939 282.00704,85.992431 282.4322,85.992715"
         style="fill:none;fill-rule:evenodd;stroke:#432612;stroke-width:1px;stroke-linecap:butt;stroke-linejoin:miter;stroke-opacity:1" />
      <path
         sodipodi:nodetypes="cc"
         id="path2537"
         d="M 279.78822,91.469266 C 280.99067,90.752177 284.31295,90.861611 286.58704,92.602345"
         style="fill:none;fill-rule:evenodd;stroke:#432612;stroke-width:1px;stroke-linecap:butt;stroke-linejoin:miter;stroke-opacity:1" />
      <path
         sodipodi:nodetypes="cccccc"
         id="path3325"
         d="M 287.97776,158.31619 C 291.69015,156.56572 295.62512,158.37805 299.54135,157.87144 C 301.85336,157.55268 304.12533,157.2076 306.46265,157.20431 C 308.46909,154.49265 305.65593,152.10317 303.32175,151.20014 C 299.27506,150.32331 295.85578,149.49819 291.98054,151.42252 C 289.67734,153.15829 287.34106,155.28228 287.97776,158.31619 z"
         style="fill:#5d6dd6;fill-opacity:1;fill-rule:evenodd;stroke:#162167;stroke-width:1px;stroke-linecap:butt;stroke-linejoin:miter;stroke-opacity:1" />
      <path
         sodipodi:nodetypes="ccccccc"
         id="path3327"
         d="M 287.88039,157.46882 C 287.41455,157.93465 287.95143,159.58467 288.20014,160.08209 C 291.55405,160.18017 294.94484,160.69032 298.20709,159.87283 C 300.94883,159.85156 304.07066,159.63097 306.82314,159.49783 C 307.0084,159.07028 307.1124,157.92599 306.71265,156.88456 C 303.71857,157.1435 300.27703,157.07872 297.31758,156.53718 C 294.34003,156.64651 290.68607,156.34751 287.88039,157.46882 z"
         style="fill:#e6e6e6;fill-opacity:1;fill-rule:evenodd;stroke:#4d4d4d;stroke-width:1px;stroke-linecap:butt;stroke-linejoin:miter;stroke-opacity:1" />
      <path
         sodipodi:nodetypes="ccccsccsccc"
         id="path3337"
         d="M 304,124 C 304.32809,124.66009 304.5,126.54101 304.5,128 C 304.65729,130.82967 301.66105,130.75505 300.5,132.75 C 300.38259,135.89928 303.50178,134.64956 305,133.25 C 306.18301,132.06699 306.63616,132.63616 307.5,133.5 C 308.25766,134.25766 308.02268,136.04537 308.5,137 C 311.01914,139.51761 310.79985,133.69809 312.75,135.5 C 313.33602,136.08602 314.63711,132.98789 314.75,132.875 C 315.96296,131.66204 316.75,132.4684 316.75,130.75 C 315.32486,128.40534 314.20678,126.08079 312.375,124 C 310.77387,119.16601 305.59586,117.61657 304,124 z"
         style="fill:#f4e3d7;fill-opacity:1;fill-rule:evenodd;stroke:#432612;stroke-width:1px;stroke-linecap:butt;stroke-linejoin:miter;stroke-opacity:1" />
      <path
         sodipodi:nodetypes="cccccccc"
         id="path3331"
         d="M 294.5,104.25 C 295.69375,106.38154 296.97632,108.32367 298.75,110 C 299.25368,112.37242 298.77641,114.51554 300,116.75 C 299.82773,120.3201 301.79892,123.13933 302.75,126.5 C 306.19002,123.10166 310.54023,126.98521 313.375,122.625 C 312.24405,120.63005 310.83599,118.30199 309.5,116.25 C 307.78439,114.36379 307.04318,112.17878 306.5,109.75 C 305.02371,107.33811 303.54843,104.92122 302,102.5"
         style="fill:#2b1100;fill-opacity:1;fill-rule:evenodd;stroke:#120700;stroke-width:1px;stroke-linecap:butt;stroke-linejoin:miter;stroke-opacity:1" />
      <path
         sodipodi:nodetypes="cccc"
         id="path3343"
         d="M 262.75,130.25 C 265.23323,130.82057 264.46869,131.23853 263.75,134.25 C 266.45386,132.49297 267.69358,133.46557 266.375,137.125 C 265.06744,137.86362 270.39436,134.27543 270.125,137.625"
         style="fill:#f4e3d7;fill-opacity:1;fill-rule:evenodd;stroke:#432612;stroke-width:1px;stroke-linecap:butt;stroke-linejoin:miter;stroke-opacity:1" />
      <path
         sodipodi:nodetypes="cc"
         id="path3345"
         d="M 307.59145,76.055303 C 311.53164,75.175292 310.66252,82.009496 306.53079,80.651497"
         style="fill:#f4e3d7;fill-opacity:1;fill-rule:evenodd;stroke:#432612;stroke-width:1px;stroke-linecap:butt;stroke-linejoin:miter;stroke-opacity:1" />
      <path
         sodipodi:nodetypes="cc"
         id="path3347"
         d="M 310.95021,77.646293 C 313.27794,74.036713 316.09235,79.397915 312.7483,79.78906"
         style="fill:none;fill-rule:evenodd;stroke:#000000;stroke-width:1px;stroke-linecap:butt;stroke-linejoin:miter;stroke-opacity:1" />
      <path
         sodipodi:nodetypes="cc"
         id="path3349"
         d="M 310.77343,80.651497 C 315.55726,80.569105 314.73364,86.222276 310.95021,83.303148"
         style="fill:none;fill-rule:evenodd;stroke:#000000;stroke-width:1px;stroke-linecap:butt;stroke-linejoin:miter;stroke-opacity:1" />
      <path
         sodipodi:nodetypes="cc"
         id="path3351"
         d="M 308.29856,81.888934 C 311.60785,85.035394 308.3767,88.366588 307.41467,84.010254"
         style="fill:none;fill-rule:evenodd;stroke:#000000;stroke-width:1px;stroke-linecap:butt;stroke-linejoin:miter;stroke-opacity:1" />
    </g>
  </g>
</svg>
