<?xml version="1.0" encoding="UTF-8" standalone="no"?>
<!-- Created with Inkscape (http://www.inkscape.org/) -->
<svg xmlns:dc="http://purl.org/dc/elements/1.1/" xmlns:cc="http://creativecommons.org/ns#" xmlns:rdf="http://www.w3.org/1999/02/22-rdf-syntax-ns#" xmlns:svg="http://www.w3.org/2000/svg" xmlns="http://www.w3.org/2000/svg" xmlns:sodipodi="http://sodipodi.sourceforge.net/DTD/sodipodi-0.dtd" xmlns:inkscape="http://www.inkscape.org/namespaces/inkscape" width="128" height="128" id="svg2" sodipodi:version="0.32" inkscape:version="0.46" version="1.0" sodipodi:docname="comic-char-ninja.svg" inkscape:output_extension="org.inkscape.output.svg.inkscape" inkscape:export-xdpi="90" inkscape:export-ydpi="90">
  <defs id="defs4">
    <filter height="1.6532674" y="-0.32663372" width="1.2502785" x="-0.12513924" id="filter3443" inkscape:collect="always">
      <feGaussianBlur id="feGaussianBlur3445" stdDeviation="1.9634296" inkscape:collect="always"/>
    </filter>
  </defs>
  <sodipodi:namedview id="base" pagecolor="#ffffff" bordercolor="#666666" borderopacity="1.0" gridtolerance="10000" guidetolerance="10" objecttolerance="10" inkscape:pageopacity="0" inkscape:pageshadow="2" inkscape:zoom="1" inkscape:cx="215.44567" inkscape:cy="64" inkscape:document-units="px" inkscape:current-layer="g2917" showgrid="false" inkscape:window-width="1397" inkscape:window-height="903" inkscape:window-x="256" inkscape:window-y="57" showguides="true" inkscape:guide-bbox="true"/>
  <metadata id="metadata7">
    <rdf:RDF>
      <cc:Work rdf:about="">
        <dc:format>image/svg+xml</dc:format>
        <dc:type rdf:resource="http://purl.org/dc/dcmitype/StillImage"/>
        <cc:license rdf:resource="http://creativecommons.org/licenses/by-sa/3.0/"/>
        <dc:title>Fedora WEBCOMIC 2.0</dc:title>
        <dc:date>May 2008</dc:date>
        <dc:creator>
          <cc:Agent>
            <dc:title>Nicu Buculei</dc:title>
          </cc:Agent>
        </dc:creator>
        <dc:rights>
          <cc:Agent>
            <dc:title>Nicu Buculei</dc:title>
          </cc:Agent>
        </dc:rights>
        <dc:subject>
          <rdf:Bag>
            <rdf:li>fedora</rdf:li>
            <rdf:li>webcomic</rdf:li>
            <rdf:li>nicubunu</rdf:li>
          </rdf:Bag>
        </dc:subject>
        <dc:language>en-US</dc:language>
      </cc:Work>
      <cc:License rdf:about="http://creativecommons.org/licenses/by-sa/3.0/">
        <cc:permits rdf:resource="http://creativecommons.org/ns#Reproduction"/>
        <cc:permits rdf:resource="http://creativecommons.org/ns#Distribution"/>
        <cc:requires rdf:resource="http://creativecommons.org/ns#Notice"/>
        <cc:requires rdf:resource="http://creativecommons.org/ns#Attribution"/>
        <cc:permits rdf:resource="http://creativecommons.org/ns#DerivativeWorks"/>
        <cc:requires rdf:resource="http://creativecommons.org/ns#ShareAlike"/>
      </cc:License>
    </rdf:RDF>
  </metadata>
  <g inkscape:label="Layer 1" inkscape:groupmode="layer" id="layer1">
    <g transform="translate(-237.488, -101.709)" id="g3765"/>
    <g id="g4184" transform="translate(-302.488, -113.709)"/>
    <g transform="translate(-437.461, -364.586)" id="g2996"/>
    <g id="g2998" transform="translate(-502.461, -376.586)"/>
    <g id="g3779" transform="translate(-272.881, -452.586)"/>
    <g id="g3109" transform="translate(-175.881, -517.586)"/>
    <g transform="translate(-332.117, -812.262)" id="g4449"/>
    <g id="g4451" transform="translate(-397.117, -824.262)"/>
    <g id="g4524" transform="translate(-357.208, -785.262)"/>
    <g id="g3922" transform="translate(-48.5377, -864.262)"/>
    <g transform="translate(-242.538, -901.262)" id="g4629"/>
    <g transform="translate(-428.095, -539.518)" id="g3869"/>
    <g id="g3871" transform="translate(-493.095, -551.518)"/>
    <g id="g3959" transform="translate(-328.516, -650.518)"/>
    <g id="g2979" inkscape:label="Layer 1" transform="translate(79.8541, -427.73)"/>
    <g id="g4951" transform="translate(540.029, -499.142)"/>
    <g transform="translate(-485.988, -406.094)" id="g4625"/>
    <g id="g4627" transform="translate(-550.988, -418.094)"/>
    <g id="g4690" transform="translate(-696.409, -397.094)"/>
    <g transform="translate(-320.238, -410.677)" id="g5403"/>
    <g id="g5405" transform="translate(-385.238, -422.677)"/>
    <g transform="matrix(1.27524, 0, 0, 1.27524, -318.051, -610.543)" id="g5523"/>
    <g transform="translate(-536.82, -1269.64)" id="g6346"/>
    <g id="g6377" transform="translate(-601.82, -1281.64)"/>
    <g id="g2803" transform="translate(-483.912, -1315.64)"/>
    <g transform="translate(-545.104, 252.412)" id="g7732"/>
    <g id="g7734" transform="translate(-610.104, 240.412)"/>
    <g id="g7797" transform="translate(-755.525, 261.412)"/>
    <g id="g2917" transform="translate(-480, 82)">
      <path sodipodi:nodetypes="ccccssssscc" style="fill: rgb(0, 0, 0); fill-opacity: 0.728395; fill-rule: evenodd; stroke: none; stroke-width: 1px; stroke-linecap: butt; stroke-linejoin: miter; stroke-opacity: 1; filter: url(#filter3443);" d="M 523.31031,24.98546 C 517.84557,25.40784 518.17911,21.72558 513.50706,25.87497 C 512.09375,27.28828 508.77432,32.911603 509.16546,34.476143 C 512.04006,38.327163 514.97611,34.348441 519.58287,35.916331 C 521.8592,36.485421 527.60497,26.813246 530.4581,36.429923 C 531.28289,39.209961 532.88655,38.43223 535.7634,36.9938 C 537.99449,35.87826 540.05411,36.22191 541.98995,34.77003 C 543.50231,33.63576 544.21635,31.6462 544.65847,29.87775 C 545.4423,26.74242 542.78184,26.27091 541.10044,25.43022 C 538.93944,24.34972 535.19407,25.01661 533.53963,25.43022 C 531.26164,30.657342 527.53428,28.457468 523.31031,24.98546 z" id="path2886"/>
      <path style="fill: rgb(204, 204, 204); fill-rule: evenodd; stroke: rgb(128, 128, 128); stroke-width: 1px; stroke-linecap: butt; stroke-linejoin: miter; stroke-opacity: 1;" d="M 587.88291,29.977856 L 585.78864,32.083972 C 575.41136,25.875343 566.11256,18.286806 559.88495,6.7686933 L 561.92541,4.2770904 C 568.61214,14.932193 577.26464,23.499115 587.88291,29.977856 z" id="path9474" sodipodi:nodetypes="ccccc"/>
      <path style="fill: rgb(92, 0, 39); fill-opacity: 1; fill-rule: evenodd; stroke: rgb(46, 0, 7); stroke-width: 1px; stroke-linecap: butt; stroke-linejoin: miter; stroke-opacity: 1;" d="M 565.22648,2.1536978 C 565.03892,2.5426404 557.45554,9.0727356 557.45554,9.0727356 L 556.9052,7.7287134 C 556.9052,7.7287134 559.6732,5.4681058 559.03944,5.0426392 C 558.40568,4.6171726 553.96788,-1.8373895 553.96788,-1.8373895 L 556.06906,-3.4607823 L 561.90814,3.0702832 L 564.05275,1.1082933 L 565.22648,2.1536978 z" id="path9476" sodipodi:nodetypes="cccsccccc"/>
      <path sodipodi:nodetypes="csssc" id="path9358" d="M 521.6994,-58.70563 C 521.6994,-58.70563 519.57809,-47.74548 521.34585,-43.14928 C 523.11362,-38.55309 529.12402,-36.07821 535.84154,-38.19953 C 542.55905,-40.32085 548.21591,-55.8772 545.03393,-63.30182 C 541.85195,-70.72644 519.57808,-65.7767 521.6994,-58.70563 z" style="fill: rgb(233, 210, 175); fill-opacity: 1; fill-rule: evenodd; stroke: rgb(122, 102, 71); stroke-width: 1px; stroke-linecap: butt; stroke-linejoin: miter; stroke-opacity: 1;"/>
      <path sodipodi:nodetypes="cccccsscccsc" id="path9360" d="M 530.53824,-71.7871 C 518.30006,-68.76562 523.82593,-62.13097 516.3961,-54.54877 L 523.00271,-54.35943 C 527.77723,-56.23344 529.74639,-61.24672 530.89179,-64.36248 C 530.89179,-64.36248 533.54698,-60.46865 533.31713,-56.45598 C 534.5396,-55.70359 537.19738,-56.99902 539.44509,-57.17009 C 545.80049,-57.65378 540.81241,-49.26233 559.12886,-43.08862 C 566.4297,-40.62781 581.29317,-43.9879 587.5314,-51.20258 C 581.44319,-46.40772 567.44364,-45.41329 559.23241,-49.26324 C 568.27882,-48.87815 575.35872,-51.45921 585.41008,-58.98075 C 569.98279,-51.03173 558.07479,-49.38909 550.49408,-59.14497 C 542.69835,-69.17757 536.54865,-71.7871 530.53824,-71.7871 z" style="fill: rgb(48, 0, 0); fill-opacity: 1; fill-rule: evenodd; stroke: rgb(15, 0, 0); stroke-width: 1px; stroke-linecap: butt; stroke-linejoin: miter; stroke-opacity: 1;"/>
      <path id="path9364" d="M 527.24826,-52.8796 C 527.24826,-52.8796 522.28748,-55.26775 523.32612,-50.50303 C 524.36475,-45.73832 527.31562,-47.87693 527.24826,-52.8796 z" style="fill: rgb(255, 255, 255); fill-rule: evenodd; stroke: rgb(77, 77, 77); stroke-width: 1px; stroke-linecap: butt; stroke-linejoin: miter; stroke-opacity: 1;"/>
      <path style="fill: rgb(255, 255, 255); fill-rule: evenodd; stroke: rgb(77, 77, 77); stroke-width: 1px; stroke-linecap: butt; stroke-linejoin: miter; stroke-opacity: 1;" d="M 538.38519,-52.70283 C 538.38519,-52.70283 533.42441,-55.09098 534.46305,-50.32626 C 535.50168,-45.56155 538.45255,-47.70016 538.38519,-52.70283 z" id="path9366"/>
      <path style="fill: rgb(128, 0, 128); fill-opacity: 1; fill-rule: evenodd; stroke: rgb(79, 0, 79); stroke-width: 1px; stroke-linecap: butt; stroke-linejoin: miter; stroke-opacity: 1;" d="M 522.9421,3.94003 C 520.51157,6.26812 518.15495,6.73778 515.64692,11.01546 C 512.54066,17.59687 514.02489,21.31424 514.55802,25.62502 C 514.90814,26.95234 512.40963,29.45949 509.35378,32.19747 C 509.83922,32.90961 510.73881,33.14428 511.65187,33.36339 C 515.72613,28.89088 523.67409,30.02104 518.77505,24.41712 C 519.69176,21.52917 522.5859,19.14791 521.47646,15.7408 C 529.78798,14.09593 530.58128,11.33205 535.0059,9.10865 L 522.9421,3.94003 z" id="path9448" sodipodi:nodetypes="ccccccccc"/>
      <path sodipodi:nodetypes="ccccccccc" id="path9446" d="M 528.875,4.125 C 528.56433,7.47625 527.0918,9.37517 528,14.25 C 529.96576,21.25711 533.52272,23.09282 536.75,26 C 537.88419,26.77329 537.63949,30.30436 537.125,34.375 C 537.95833,34.5949 538.79167,34.18274 539.625,33.75 C 539.77231,27.70176 546.51696,23.3478 539.14423,22.3244 C 537.94448,19.5421 538.57054,15.8469 535.5,14 C 540.70102,7.31147 539.48933,4.70376 541.375,0.125 L 528.875,4.125 z" style="fill: rgb(128, 0, 128); fill-opacity: 1; fill-rule: evenodd; stroke: rgb(79, 0, 79); stroke-width: 1px; stroke-linecap: butt; stroke-linejoin: miter; stroke-opacity: 1;"/>
      <path sodipodi:nodetypes="csscsscssscc" id="path9368" d="M 536.25,-36 C 536.25,-36 543.75,-30.5 545.5,-27.75 C 547.25,-25 544.25,-11.5 542.5,-7.5 C 540.75,-3.5 543.5,7.75 543.5,7.75 C 538.55619,9.49817 531.00344,10.77861 526.41856,10.07424 C 525.42551,9.92168 526.67925,8.15125 525.6846,7.99452 C 523.03973,7.57776 520.39487,7.15781 517.75,7 C 517.75,7 519.18797,0.55721 520.25,-6 C 520.49774,-7.52962 519.56933,-13.48679 517.05333,-16.7683 C 515.28691,-19.07218 513.91962,-19.20902 513.73991,-21.71177 C 513.25561,-28.45644 518.46412,-25.22608 521.5,-36 C 521.5,-36 533.75,-37.25 536.25,-36 z" style="fill: rgb(128, 0, 128); fill-opacity: 1; fill-rule: evenodd; stroke: rgb(79, 0, 79); stroke-width: 1px; stroke-linecap: butt; stroke-linejoin: miter; stroke-opacity: 1;"/>
      <path sodipodi:nodetypes="csc" id="path9440" d="M 527.625,-36.5 C 527.625,-36.5 525.375,-6.125 525,-5.5 C 524.625,-4.875 526.125,9.125 526.125,9.125" style="fill: none; fill-rule: evenodd; stroke: rgb(79, 0, 79); stroke-width: 1px; stroke-linecap: butt; stroke-linejoin: miter; stroke-opacity: 1;"/>
      <path sodipodi:nodetypes="cccc" id="path9442" d="M 522.75,-36.625 C 521.17139,-34.84585 523.99673,-23.36337 526.25,-24.75 C 529.84739,-27.59689 533.19335,-30.94664 536.125,-35.125 L 522.75,-36.625 z" style="fill: rgb(233, 210, 175); fill-opacity: 1; fill-rule: evenodd; stroke: rgb(122, 102, 71); stroke-width: 1px; stroke-linecap: butt; stroke-linejoin: miter; stroke-opacity: 1;"/>
      <path style="fill: rgb(0, 25, 46); fill-opacity: 1; fill-rule: evenodd; stroke: none; stroke-width: 1px; stroke-linecap: butt; stroke-linejoin: miter; stroke-opacity: 1;" d="M 526.67702,-51.54188 C 526.67702,-51.54188 523.81555,-52.91941 524.41466,-50.17103 C 525.01376,-47.42266 526.71587,-48.65625 526.67702,-51.54188 z" id="path9454"/>
      <path id="path9456" d="M 537.90234,-51.18833 C 537.90234,-51.18833 535.04087,-52.56586 535.63998,-49.81748 C 536.23908,-47.06911 537.94119,-48.3027 537.90234,-51.18833 z" style="fill: rgb(0, 25, 46); fill-opacity: 1; fill-rule: evenodd; stroke: none; stroke-width: 1px; stroke-linecap: butt; stroke-linejoin: miter; stroke-opacity: 1;"/>
      <path sodipodi:nodetypes="cccccc" id="path9362" d="M 520,-48 C 523.14371,-48.73428 526.30335,-49.50839 530.75,-53.5 C 534.21216,-50.13639 538.23889,-47.22445 545,-46.5 C 542.34566,-41.7858 540.10921,-37.15517 544,-33.75 C 535.40052,-32.16147 527.7503,-39.5803 520.5,-33.75 C 522.22151,-38.5 522.27595,-43.25 520,-48 z" style="fill: rgb(128, 0, 128); fill-opacity: 1; fill-rule: evenodd; stroke: rgb(79, 0, 79); stroke-width: 1px; stroke-linecap: butt; stroke-linejoin: miter; stroke-opacity: 1;"/>
      <path sodipodi:nodetypes="cc" id="path9434" d="M 527.75,-20.75 C 530.70166,-17.24664 533.83053,-14.57025 538.75,-20.25" style="fill: rgb(128, 0, 128); fill-rule: evenodd; stroke: rgb(79, 0, 79); stroke-width: 1px; stroke-linecap: butt; stroke-linejoin: miter; stroke-opacity: 1;"/>
      <path sodipodi:nodetypes="cc" id="path9436" d="M 516.25,-17.5 C 517.83333,-16.94838 519.91667,-17.25024 521.5,-20" style="fill: rgb(128, 0, 128); fill-rule: evenodd; stroke: rgb(79, 0, 79); stroke-width: 1px; stroke-linecap: butt; stroke-linejoin: miter; stroke-opacity: 1;"/>
      <path sodipodi:nodetypes="ccccc" id="path9438" d="M 519.5,-7.5 C 527.01452,-5.35165 534.91879,-5.9315 542.75,-6 L 543.25,-1.875 C 535.33333,-2.2227 526.66667,-1.873 518.75,-3.5 C 519.16667,-5.36061 519.08333,-6.28345 519.5,-7.5 z" style="fill: rgb(92, 0, 39); fill-opacity: 1; fill-rule: evenodd; stroke: rgb(46, 0, 7); stroke-width: 1px; stroke-linecap: butt; stroke-linejoin: miter; stroke-opacity: 1;"/>
      <path sodipodi:nodetypes="cccccccc" id="path9450" d="M 518.875,24.5 L 514.125,22.875 L 520.5,21 L 513.625,17.875 C 517.78215,14.38331 519.62124,16.30043 521.875,17.25 L 513.5,20 L 519.5,22.625 L 514.625,25.125" style="fill: rgb(128, 0, 128); fill-rule: evenodd; stroke: rgb(79, 0, 79); stroke-width: 1px; stroke-linecap: butt; stroke-linejoin: bevel; stroke-opacity: 1;"/>
      <path style="fill: rgb(128, 0, 128); fill-rule: evenodd; stroke: rgb(79, 0, 79); stroke-width: 1px; stroke-linecap: butt; stroke-linejoin: bevel; stroke-opacity: 1;" d="M 539.10949,22.93546 L 534.30115,24.37872 L 538.39377,19.14358 L 530.9844,20.60391 C 532.33258,15.34499 534.94389,15.83352 537.32925,15.29392 L 532.11958,22.40464 L 538.52641,21.04701 L 536.01731,25.91733" id="path9452" sodipodi:nodetypes="cccccccc"/>
      <path sodipodi:nodetypes="cccccccccc" id="path9464" d="M 548.12752,-23.2619 C 550.35397,-20.2018 552.26393,-16.50868 553.16566,-10.79914 C 554.83105,-8.55532 556.33163,-6.31149 558.29984,-4.06767 C 559.7964,-2.77628 560.38558,-2.88307 560.22156,1.06526 C 559.1477,-0.56793 558.27811,-0.54105 556.6128,-0.10415 L 556.6128,2.81266 L 555.28698,-0.72287 C 553.36363,-2.75115 550.97236,-6.18317 548.74624,-9.11976 C 546.67661,-11.544 544.65304,-14.2906 542.91261,-19.01926 L 548.12752,-23.2619 z" style="fill: rgb(233, 210, 175); fill-opacity: 1; fill-rule: evenodd; stroke: rgb(122, 102, 71); stroke-width: 1px; stroke-linecap: butt; stroke-linejoin: miter; stroke-opacity: 1;"/>
      <path sodipodi:nodetypes="cccc" id="path9460" d="M 543.44294,-28.03487 C 545.43775,-30.17786 550.81404,-22.6158 550.42562,-21.93607 C 547.12747,-22.14839 544.62287,-20.59728 543.44294,-16.10244 C 542.00834,-18.54785 538.85731,-21.70037 539.64224,-24.14578" style="fill: rgb(128, 0, 128); fill-opacity: 1; fill-rule: evenodd; stroke: rgb(79, 0, 79); stroke-width: 1px; stroke-linecap: butt; stroke-linejoin: miter; stroke-opacity: 1;"/>
      <path id="path9470" d="M 523.20201,-6.99844 L 522.58329,-5.31907 L 533.54344,1.84039 L 535.84154,-0.72287 L 523.20201,-6.99844 z" style="fill: rgb(92, 0, 39); fill-opacity: 1; fill-rule: evenodd; stroke: rgb(46, 0, 7); stroke-width: 1px; stroke-linecap: butt; stroke-linejoin: miter; stroke-opacity: 1;"/>
      <path id="path9468" d="M 523.46717,-7.26361 C 523.46717,-7.26361 529.47758,4.40365 529.83113,4.58043 C 530.18469,4.75721 532.92473,3.51977 532.57117,2.98944 C 532.21762,2.45911 526.73754,-7.61716 526.73754,-7.61716 L 523.46717,-7.26361 z" style="fill: rgb(92, 0, 39); fill-opacity: 1; fill-rule: evenodd; stroke: rgb(46, 0, 7); stroke-width: 1px; stroke-linecap: butt; stroke-linejoin: miter; stroke-opacity: 1;"/>
      <path sodipodi:nodetypes="ccccsccccccc" id="path9480" d="M 515.3125,-17.375 C 513.84023,-15.25304 512.22429,-13.31579 511.875,-9.75 C 515.41025,-6.24672 519.19013,-4.4559 522.875,-2 C 523.72427,-1.27401 524.82061,0.24261 526.5,3.625 C 528.44836,4.3792 533.15613,0.97173 529.375,-0.625 C 528.70355,-0.90855 526.125,-3.125 526.125,-3.125 L 528.5,-3.375 C 527.9929,-5.18831 525.34329,-4.55305 523.75,-5.125 C 521.7612,-7.26235 520.52652,-9.83063 517.5,-11.375 L 518.125,-13.3125 L 516.58229,-16.02477 L 515.3125,-17.375 z" style="fill: rgb(233, 210, 175); fill-opacity: 1; fill-rule: evenodd; stroke: rgb(122, 102, 71); stroke-width: 1px; stroke-linecap: butt; stroke-linejoin: miter; stroke-opacity: 1;"/>
      <path style="fill: rgb(128, 0, 128); fill-opacity: 1; fill-rule: evenodd; stroke: rgb(79, 0, 79); stroke-width: 1px; stroke-linecap: butt; stroke-linejoin: miter; stroke-opacity: 1;" d="M 556.5,-5.125 L 554.875,-11.375 C 552.68892,-11.18042 550.72876,-9.85619 548.875,-8 L 553.625,-2.875 C 554.71065,-5.56481 555.08563,-5.06498 556.5,-5.125 z" id="path2747" sodipodi:nodetypes="ccccc"/>
      <path sodipodi:nodetypes="ccccc" id="path2749" d="M 523.50802,-5.79725 L 519.59038,-10.931 C 517.65005,-9.90538 516.3553,-7.92562 515.36456,-5.49657 L 521.7281,-2.60978 C 521.68792,-5.51014 522.22714,-5.19442 523.50802,-5.79725 z" style="fill: rgb(128, 0, 128); fill-opacity: 1; fill-rule: evenodd; stroke: rgb(79, 0, 79); stroke-width: 1px; stroke-linecap: butt; stroke-linejoin: miter; stroke-opacity: 1;"/>
    </g>
    <g id="g2837" transform="translate(133.068, -211.059)"/>
  </g>
</svg>