<?xml version="1.0" encoding="UTF-8" standalone="no"?>
<!-- Created with Inkscape (http://www.inkscape.org/) -->
<svg
   xmlns:dc="http://purl.org/dc/elements/1.1/"
   xmlns:cc="http://creativecommons.org/ns#"
   xmlns:rdf="http://www.w3.org/1999/02/22-rdf-syntax-ns#"
   xmlns:svg="http://www.w3.org/2000/svg"
   xmlns="http://www.w3.org/2000/svg"
   xmlns:sodipodi="http://sodipodi.sourceforge.net/DTD/sodipodi-0.dtd"
   xmlns:inkscape="http://www.inkscape.org/namespaces/inkscape"
   width="128"
   height="128"
   id="svg2"
   sodipodi:version="0.32"
   inkscape:version="0.46"
   version="1.0"
   sodipodi:docname="countdown-16.svg"
   inkscape:output_extension="org.inkscape.output.svg.inkscape">
  <defs
     id="defs4">
    <filter
       inkscape:collect="always"
       id="filter3640"
       x="-0.063052297"
       width="1.1261046"
       y="-0.19454689"
       height="1.3890938">
      <feGaussianBlur
         inkscape:collect="always"
         stdDeviation="2.2334623"
         id="feGaussianBlur3642" />
    </filter>
  </defs>
  <sodipodi:namedview
     id="base"
     pagecolor="#ffffff"
     bordercolor="#666666"
     borderopacity="1.0"
     gridtolerance="10000"
     guidetolerance="10"
     objecttolerance="10"
     inkscape:pageopacity="0.0"
     inkscape:pageshadow="2"
     inkscape:zoom="1"
     inkscape:cx="64.334166"
     inkscape:cy="54.556305"
     inkscape:document-units="px"
     inkscape:current-layer="layer1"
     showgrid="false"
     inkscape:window-width="1538"
     inkscape:window-height="961"
     inkscape:window-x="127"
     inkscape:window-y="31" />
  <metadata
     id="metadata7">
    <rdf:RDF>
      <cc:Work
         rdf:about="">
        <dc:format>image/svg+xml</dc:format>
        <dc:type
           rdf:resource="http://purl.org/dc/dcmitype/StillImage" />
      </cc:Work>
    </rdf:RDF>
  </metadata>
  <g
     inkscape:label="Layer 1"
     inkscape:groupmode="layer"
     id="layer1">
    <path
       style="fill:#000000;fill-opacity:0.76639344;fill-rule:evenodd;stroke:none;stroke-width:1px;stroke-linecap:butt;stroke-linejoin:miter;stroke-opacity:1;filter:url(#filter3640)"
       d="M 39.41661,61.661155 C 30.68131,61.693535 21.675,63.365967 14.51036,68.567405 C 11.8554,69.409127 7.4169003,71.051964 8.5103603,74.629905 C 9.8331603,77.423525 13.91938,76.180905 16.35411,75.786155 C 18.77941,74.884035 22.81453,72.606325 24.63536,75.598655 C 25.37069,78.623365 21.43316,79.176695 19.41661,79.942405 C 16.67973,80.292955 8.4330056,82.916665 10.070996,86.051535 C 11.348636,89.389645 13.386239,95.56045 16.457859,94.16285 C 18.301317,93.653404 19.23543,86.195355 22.757032,87.551893 C 28.530841,89.775993 37.462214,84.314647 40.69786,82.629905 C 44.69498,79.229595 50.25932,82.576145 54.94568,81.551985 C 57.40635,80.841725 59.45055,82.307715 61.54161,83.036155 C 64.10341,83.444405 65.10191,80.689045 64.69786,78.692405 C 65.89016,75.678365 70.14463,76.476415 72.67745,75.539555 C 76.12786,75.156585 79.5222,74.134575 82.82286,73.536155 C 86.15222,74.450415 90.38372,77.158925 93.35411,74.036155 C 91.22732,68.038731 84.49369,66.348267 78.91661,65.192405 C 69.21833,63.509807 59.06523,64.564421 49.60466,61.887652 C 46.21201,61.737397 42.81315,61.567323 39.41661,61.661155 z"
       id="path2691"
       transform="matrix(0.8570737,0,0,0.8565882,44.818822,32.05502)"
       sodipodi:nodetypes="ccccccccscccccccccc" />
    <path
       style="fill:#502d16;fill-rule:evenodd;stroke:#2e180c;stroke-width:0.99999994px;stroke-linecap:butt;stroke-linejoin:miter;stroke-opacity:1"
       d="M 22.236742,48.990442 C 27.881187,58.922307 31.934866,67.186913 36.288347,77.748394 C 37.839287,80.990262 40.012674,86.375315 42.533505,88.894888 C 45.959982,93.17467 48.64201,98.03117 52.124283,102.27068 C 54.471133,104.62987 55.10746,107.84579 57.254234,110.29615 C 59.589824,111.73495 61.036123,110.63528 60.599854,108.06685 C 59.995251,105.98203 58.630015,104.28479 57.477275,102.49361 C 53.671458,97.64319 49.068822,91.640635 45.879126,86.442659 C 39.626482,75.528072 33.289155,64.02047 30.489272,53.226109 C 26.954531,47.199201 26.745541,40.229401 18.668081,39.627387 C 15.308436,42.998668 21.860257,45.069428 22.236742,48.990442 z"
       id="path2413"
       sodipodi:nodetypes="ccccccccccc" />
    <path
       style="fill:#c08b68;fill-opacity:1;fill-rule:evenodd;stroke:#4c3220;stroke-width:0.99999994px;stroke-linecap:butt;stroke-linejoin:miter;stroke-opacity:1"
       d="M 39.410926,34.5 C 38.924437,34.5 37.803404,34.657635 36.630832,34.657635 C 30.106917,37.748254 22.656993,42.564117 15.953318,46.788188 C 12.517306,51.310997 7.9066262,54.750349 2.9133235,57.52243 C 3.2109985,60.288647 2.9622672,62.077475 7.8380073,68.294921 C 9.7795429,67.755129 13.044654,75.551847 14.387385,76.753131 C 14.780984,75.782806 16.491509,76.392411 16.986642,75.430357 C 21.818144,61.087934 37.552197,51.834944 39.857009,36.729299 C 39.857009,35.774306 39.869999,35.417687 39.410926,34.5 z"
       id="path3191"
       sodipodi:nodetypes="ccccccccc" />
    <path
       style="fill:#c08b68;fill-opacity:1;fill-rule:evenodd;stroke:#4c3220;stroke-width:0.99999994px;stroke-linecap:butt;stroke-linejoin:miter;stroke-opacity:1"
       d="M 5.0625585,58.353495 C 12.057345,55.439317 15.632859,47.574829 22.459784,44.531844 C 27.798065,41.419504 32.777347,37.835797 38.51876,35.391719 C 39.923876,34.689511 39.843841,35.142466 40.526133,36.506369 C 42.172436,41.143542 51.159477,46.838612 50.339953,51.6656 C 43.517519,54.50011 37.664807,58.827518 32.942727,64.595532 C 29.043911,70.473072 21.675963,71.972418 16.883751,76.410815 C 14.858013,74.987218 14.153469,72.33292 12.645964,70.391709 C 10.368386,68.106936 3.9215723,61.83302 5.0625585,58.353495 z"
       id="path2415"
       sodipodi:nodetypes="ccccccccc" />
    <g
       id="g2678"
       transform="matrix(0.6699435,-0.5342542,0.534557,0.6695641,-74.457677,138.53899)">
      <path
         sodipodi:nodetypes="cccccccc"
         id="path2641"
         d="M 209.33692,90.923451 C 211.19054,93.113411 212.66743,96.691751 215.25564,98.692081 C 216.22424,98.920581 217.23666,98.685301 218.21878,98.597691 C 219.4534,98.184931 220.09324,97.268721 220.68046,96.170091 C 221.11187,93.452131 219.75333,90.816681 218.73115,88.362031 C 218.17032,86.135531 217.08744,83.600581 215.04106,82.405621 C 212.26384,80.476261 210.20663,81.342011 207.11548,82.269811 C 207.96116,85.131601 208.71004,88.006611 209.33692,90.923451 z"
         style="fill:#e6e6e6;fill-rule:evenodd;stroke:#333333;stroke-width:1.16709149px;stroke-linecap:butt;stroke-linejoin:miter;stroke-opacity:1" />
      <path
         sodipodi:nodetypes="ccc"
         id="path2643"
         d="M 219.10718,97.683501 C 219.10575,94.484071 218.73171,91.092131 217.28366,88.922411 C 216.29375,86.153061 215.15625,83.737721 211.78834,81.717571"
         style="fill:none;fill-rule:evenodd;stroke:#333333;stroke-width:1.16709149px;stroke-linecap:butt;stroke-linejoin:miter;stroke-opacity:1" />
    </g>
    <path
       style="fill:#00325c;fill-opacity:1;fill-rule:evenodd;stroke:#00192e;stroke-width:0.99999994px;stroke-linecap:butt;stroke-linejoin:miter;stroke-opacity:1"
       d="M 96.123378,91.450982 C 96.802301,91.432333 98.631381,91.691717 99.692441,91.231952 C 100.50759,90.878746 101.30299,90.441107 102.0712,90.063899 C 104.11061,89.171394 106.32634,89.540473 108.4683,89.23742 C 110.22634,88.408508 111.19817,88.939045 112.22635,87.393786 C 113.41835,84.833495 112.76713,80.935026 110.39271,80.165689 C 109.59898,80.555446 108.37471,81.03958 107.59336,81.593065 C 105.19153,82.487129 105.3833,82.554487 102.91233,82.764526 C 99.725357,83.398503 96.526396,83.46382 93.372942,84.265954 C 93.092181,86.225194 94.539584,90.592534 96.123378,91.450982 z"
       id="path2633"
       sodipodi:nodetypes="cscccccccc" />
    <g
       id="g2682"
       transform="matrix(0.7229673,-0.4600581,0.4603188,0.7225579,-83.622893,115.19861)">
      <path
         sodipodi:nodetypes="cccccccc"
         id="path2637"
         d="M 211.17708,102.00961 C 212.45458,104.98339 213.58722,107.41278 216.07095,109.63686 C 216.89993,110.07256 217.57253,109.90016 218.42918,109.67248 C 219.1263,109.27994 219.80048,108.85543 220.5274,108.49829 C 220.20039,105.7536 221.17325,102.43487 219.66461,99.819401 C 219.06803,96.859991 217.39351,94.099051 215.09112,92.037351 C 213.29841,91.831961 211.16252,92.925011 209.33845,93.454511 C 210.77874,95.992521 211.30513,99.116321 211.17708,102.00961 z"
         style="fill:#e6e6e6;fill-rule:evenodd;stroke:#333333;stroke-width:1.16709149px;stroke-linecap:butt;stroke-linejoin:miter;stroke-opacity:1" />
      <path
         sodipodi:nodetypes="ccc"
         id="path2639"
         d="M 219.05833,108.81401 C 217.83135,105.75207 219.23444,102.12633 218.07991,98.911751 C 217.31767,95.860061 214.74118,94.745191 214.10985,92.519461"
         style="fill:none;fill-rule:evenodd;stroke:#333333;stroke-width:1.16709149px;stroke-linecap:butt;stroke-linejoin:miter;stroke-opacity:1" />
    </g>
    <path
       sodipodi:nodetypes="cccccccccccccccc"
       id="path2686"
       d="M 56.241171,89.411184 C 56.508133,86.057239 53.440165,81.8693 52.72868,79.208609 C 52.915553,77.871677 54.843309,78.20003 54.580147,76.660482 C 53.640669,75.84897 52.514105,76.289293 51.429617,76.709019 C 51.1396,74.950538 51.5953,72.958471 49.251136,72.46436 C 48.728175,73.506108 48.858288,74.893181 49.253322,75.91239 C 48.431396,74.98862 48.57548,71.438884 47.297641,73.610459 C 46.888119,74.95308 47.307268,76.586689 47.990175,77.632225 C 46.444883,77.042566 45.850576,74.447815 46.312495,77.088441 C 46.85295,78.028653 46.858402,79.397056 47.815186,79.750369 C 48.575338,80.540505 49.148118,81.046775 49.644866,82.039567 C 49.906243,84.708018 50.148003,87.331182 51.380065,89.674105 C 52.330846,91.053584 53.400249,94.54153 55.994167,95.28152 C 56.831704,95.80617 65.894177,90.475392 66.802205,90.751377 C 69.15646,89.884114 63.780486,87.796156 63.337758,85.348969 C 62.625622,82.208266 57.688343,88.988371 56.241171,89.411184 z"
       style="fill:#e9d2af;fill-opacity:1;fill-rule:evenodd;stroke:#3f2d10;stroke-width:0.99999994px;stroke-linecap:butt;stroke-linejoin:miter;stroke-opacity:1" />
    <path
       style="fill:#1a1a1a;fill-opacity:1;fill-rule:evenodd;stroke:#000000;stroke-width:0.99999994px;stroke-linecap:butt;stroke-linejoin:miter;stroke-opacity:1"
       d="M 66.627885,79.115231 C 63.648312,80.602166 65.895105,78.800018 63.914097,81.417196 C 62.006995,83.084038 59.616518,83.976867 58.500776,86.304586 C 61.492447,88.041876 61.534201,91.016305 64.558624,92.576122 C 67.379553,89.229321 67.986769,86.832444 69.50503,82.793014"
       id="path2593"
       sodipodi:nodetypes="ccccc" />
    <path
       id="path2635"
       d="M 95.597947,96.85323 C 96.276878,96.83458 98.105959,97.09397 99.16701,96.63421 C 101.33921,95.34102 103.50361,94.76172 106.01249,94.83528 C 108.34719,94.31984 114.38149,93.01352 115.73997,90.971866 C 116.17188,88.385957 114.28892,87.072304 111.78339,85.49135 C 108.78014,87.227707 105.85526,87.94181 102.3869,88.166785 C 99.197125,88.826632 96.022817,88.860518 92.847511,89.668212 C 92.566741,91.627452 94.014153,95.99479 95.597947,96.85323 z"
       style="fill:#00325c;fill-opacity:1;fill-rule:evenodd;stroke:#00192e;stroke-width:0.99999994px;stroke-linecap:butt;stroke-linejoin:miter;stroke-opacity:1"
       sodipodi:nodetypes="cccccccc" />
    <path
       style="fill:#1a1a1a;fill-opacity:1;fill-rule:evenodd;stroke:#000000;stroke-width:0.99999994px;stroke-linecap:butt;stroke-linejoin:miter;stroke-opacity:1"
       d="M 101.08598,75.872498 C 97.816518,77.843996 93.64393,75.593 90.321159,74.821714 C 85.968104,75.278766 81.85374,71.948153 77.522786,72.256593 C 74.83131,72.285291 72.335754,72.829767 69.852573,73.834208 C 67.593458,75.063287 63.873931,76.620169 63.384909,79.171641 C 63.409292,82.535734 61.743387,83.076245 62.000197,86.449059 C 62.715722,89.010951 67.256336,93.94651 69.827529,94.57793 C 72.166082,95.02195 74.310036,95.15874 76.284336,96.54563 C 80.017423,97.39934 83.679771,99.18556 87.543269,99.18079 C 92.057552,99.0347 93.603998,101.17716 98.068845,101.30016 C 96.419886,97.19486 100.38901,92.722882 100.50622,88.3382 C 99.714874,84.536967 103.52072,78.500982 101.08598,75.872498 z"
       id="path2581"
       sodipodi:nodetypes="cccccccccccc" />
    <path
       style="fill:#e9d2af;fill-opacity:1;fill-rule:evenodd;stroke:#3f2d10;stroke-width:0.99999994px;stroke-linecap:butt;stroke-linejoin:miter;stroke-opacity:1"
       d="M 70.897834,98.69925 C 68.264857,99.74968 60.855932,100.6036 58.100693,99.88577 C 56.955376,99.17023 56.814494,97.32183 55.300597,96.93441 C 54.176174,97.461 55.345963,98.89154 55.287366,100.05239 C 53.337253,99.37509 49.0311,97.82931 48.924416,101.06692 C 49.66303,101.96885 52.580126,101.65881 53.672368,101.71377 C 52.493309,102.08731 50.125243,102.40648 51.588422,104.45792 C 52.648171,105.37896 53.495139,104.3952 54.72879,104.19816 C 53.61908,104.48408 53.046166,105.94188 54.17695,107.04152 C 55.256301,106.93156 56.736947,106.71188 57.449788,105.98273 C 58.481568,105.6111 58.820162,104.36022 59.92974,104.31159 C 62.474347,105.16083 69.306915,104.7757 71.949803,104.60636 C 73.6224,102.65712 76.759325,103.6002 78.487538,101.88686 C 79.308312,101.33637 80.677679,92.133484 81.299983,91.417304 C 81.467308,88.915215 77.47527,91.899581 75.058902,91.306025 C 71.899075,90.675656 73.134894,97.64439 70.897834,98.69925 z"
       id="path2645"
       sodipodi:nodetypes="cccccccccccccccc" />
    <path
       style="font-size:12px;font-style:normal;font-variant:normal;font-weight:normal;font-stretch:normal;fill:#ffffff;fill-opacity:1;stroke:none;stroke-width:1px;stroke-linecap:butt;stroke-linejoin:miter;stroke-opacity:1;font-family:Rufscript;-inkscape-font-specification:Rufscript"
       d="M 70.047997,93.7579 C 70.016132,93.78931 70.011985,93.84494 69.927454,93.79355 C 69.392276,93.67578 68.804568,93.61446 68.267487,93.49806 C 68.002456,93.44275 67.734649,93.38816 67.484003,93.32095 C 67.380183,93.25531 67.456298,93.16932 67.494157,93.09854 C 67.596211,92.956155 67.728042,92.81691 67.885564,92.685297 C 68.041725,92.637823 68.240195,92.627272 68.423514,92.615072 C 68.67604,92.601627 68.902531,92.683027 68.986696,92.784971 C 69.122512,92.910795 69.083618,93.05534 69.18831,93.18462 C 69.23381,93.27399 69.47238,93.29312 69.622121,93.24154 C 69.840607,93.18299 70.023618,93.09406 70.281183,93.06791 C 70.42563,93.05354 70.594884,93.04136 70.72879,93.07546 C 70.747755,93.15358 70.605572,93.25628 70.405497,93.26443 C 70.239296,93.29499 70.045626,93.30984 69.894744,93.34916 C 69.781161,93.40145 69.421824,93.37425 69.542198,93.49058 C 69.637897,93.55994 69.827015,93.5884 69.977693,93.62944 C 70.067468,93.63979 70.023201,93.68915 70.042027,93.72015 C 70.044018,93.73274 70.046008,93.74532 70.047997,93.7579 z M 68.881072,93.38566 C 68.862311,93.21358 68.856625,93.03366 68.692709,92.874245 C 68.631155,92.802679 68.432553,92.764747 68.282726,92.808308 C 68.024055,92.86775 67.92975,93.00063 67.818072,93.11139 C 67.675546,93.20486 68.012485,93.22218 68.146618,93.25039 C 68.398439,93.28693 68.6361,93.34095 68.881072,93.38566 z M 71.278409,92.561119 C 70.908656,92.479378 70.546503,92.385066 70.14157,92.341826 C 69.862532,92.30516 69.583912,92.267869 69.305421,92.230391 C 69.132629,92.256193 69.062125,92.348906 68.960524,92.411052 C 68.857224,92.491791 68.693099,92.596678 68.451708,92.573346 C 68.276581,92.544848 68.509519,92.438548 68.524461,92.380669 C 68.799509,92.11021 69.05418,91.832901 69.421095,91.58376 C 69.502361,91.526259 69.684078,91.424426 69.835141,91.502153 C 69.910127,91.577472 69.794021,91.657597 69.726435,91.725692 C 69.640477,91.80406 69.547935,91.881175 69.469391,91.961057 C 69.584485,92.059556 69.863849,92.068797 70.07829,92.098403 C 70.527302,92.163054 70.958705,92.253291 71.362185,92.361966 C 71.533485,92.395268 71.636068,92.479698 71.451662,92.53886 C 71.409818,92.560153 71.340316,92.576689 71.278409,92.561119 z M 71.351616,91.514347 C 71.413354,91.588997 71.680208,91.578038 71.836677,91.597621 C 72.021503,91.611876 72.25022,91.613082 72.37233,91.685903 C 72.444467,91.769836 72.232792,91.876787 72.034074,91.832266 C 71.443866,91.745608 70.878312,91.629079 70.308477,91.519384 C 70.130057,91.479714 69.931921,91.450975 69.777803,91.393979 C 69.694847,91.27403 69.808992,91.149176 69.892014,91.035549 C 69.98946,90.929542 70.069944,90.812135 70.262788,90.732085 C 70.403102,90.7164 70.650963,90.662137 70.756538,90.715985 C 70.551028,90.867553 70.296134,91.014229 70.206914,91.190553 C 70.163247,91.28492 70.434317,91.317112 70.578977,91.351664 C 70.750662,91.400486 71.020849,91.410842 71.116509,91.312633 C 71.25403,91.20932 71.219017,91.064564 71.443043,90.983988 C 71.667483,90.921924 71.796631,91.057926 71.711471,91.136676 C 71.637109,91.269864 71.496939,91.394057 71.351616,91.514347 z M 74.607886,90.310676 C 74.365741,90.293608 74.148079,90.235755 73.924391,90.193216 C 73.205633,90.044492 72.517247,89.867836 71.792555,89.724839 C 71.741102,89.733252 71.892428,89.820885 71.915492,89.858685 C 72.033816,89.971951 72.102385,90.099021 72.15288,90.21852 C 72.285246,90.196966 72.506027,90.112353 72.612304,90.167084 C 72.728558,90.261597 72.555,90.339804 72.344997,90.345359 C 71.950729,90.402763 71.554271,90.457701 71.164328,90.520659 C 71.807109,90.642956 72.453634,90.762352 73.081678,90.899135 C 73.25581,90.934697 73.229448,91.071682 73.045871,91.092078 C 72.850994,91.097929 72.682812,91.040849 72.506691,91.011973 C 71.930627,90.890911 71.354955,90.768864 70.792269,90.63588 C 70.615398,90.596694 70.662919,90.495791 70.767329,90.439946 C 70.91225,90.373679 71.121556,90.332689 71.331754,90.340714 C 71.470318,90.329989 71.772383,90.352053 71.764537,90.268094 C 71.661666,90.13386 71.56757,89.998022 71.459199,89.864792 C 71.375577,89.793167 71.354934,89.700017 71.187927,89.654466 C 71.109427,89.591008 71.230649,89.454087 71.427242,89.495317 C 71.81209,89.558271 72.177931,89.642075 72.560905,89.707234 C 73.139937,89.819868 73.699728,89.952793 74.292148,90.051315 C 74.459731,90.067389 74.662863,90.091981 74.676657,90.184414 C 74.696444,90.223958 74.7391,90.30014 74.607886,90.310676 z"
       id="text2415" />
    <path
       style="fill:#1a1a1a;fill-opacity:1;fill-rule:evenodd;stroke:#000000;stroke-width:0.99999994px;stroke-linecap:butt;stroke-linejoin:miter;stroke-opacity:1"
       d="M 73.726265,80.075769 C 72.978381,82.12278 72.704406,84.174068 72.558823,86.324002 C 72.269208,88.466514 71.591634,90.489136 70.774233,92.475399 C 74.241562,93.52806 78.38361,93.63856 82.140375,93.99852 C 82.484555,92.218216 82.714315,90.424676 83.092744,88.645939 C 83.483022,86.258521 82.292221,84.263628 82.129767,81.9891 C 81.65485,79.865952 80.39637,78.425179 78.154725,78.168298"
       id="path2585"
       sodipodi:nodetypes="ccccccc" />
    <path
       style="fill:#e9d2af;fill-opacity:1;fill-rule:evenodd;stroke:#3f2d10;stroke-width:0.99999994px;stroke-linecap:butt;stroke-linejoin:miter;stroke-opacity:1"
       d="M 60.061914,40.634791 C 51.104922,40.582363 47.561669,46.488756 47.442145,54.17117 C 47.442145,55.778265 48.185391,58.941183 48.583867,60.534164 C 48.398386,63.670782 47.62082,66.040933 48.547101,69.102658 C 49.624328,73.434193 52.535446,75.739837 56.728677,76.6739 C 60.451068,76.600844 65.453751,75.337382 68.243481,72.736853 C 72.23791,69.470219 73.440505,63.941187 74.909955,59.10862 C 75.432264,54.492533 73.19143,50.088817 71.879733,45.783235 C 70.053086,41.071725 64.528361,39.975343 60.061914,40.634791 z"
       id="path2550"
       sodipodi:nodetypes="ccccccccc" />
    <path
       style="fill:#28170b;fill-rule:evenodd;stroke:#120a04;stroke-width:0.99999994px;stroke-linecap:butt;stroke-linejoin:miter;stroke-opacity:1"
       d="M 48.547101,46.691784 C 47.994601,38.243722 71.049457,35.45423 72.253131,42.13382 C 78.729529,42.630833 78.762191,59.211879 77.153465,64.917875 C 70.471833,64.849844 73.946078,57.113237 70.061607,55.171574 C 68.406596,54.758054 67.853542,56.026129 66.425364,56.382972 C 63.400325,54.439765 66.459739,48.461043 61.577016,46.388933 C 59.192856,47.351913 56.170958,48.838094 53.698464,46.388933 C 51.585147,46.388933 50.346795,47.411251 48.547101,46.691784 z"
       id="path2554"
       sodipodi:nodetypes="cccccccc" />
    <path
       style="fill:#28170b;fill-rule:evenodd;stroke:#120a04;stroke-width:0.99999994px;stroke-linecap:butt;stroke-linejoin:miter;stroke-opacity:1"
       d="M 76.19056,63.719852 C 74.836771,63.719852 77.168338,68.537294 77.402647,69.473995 C 77.765857,70.926019 80.39546,73.05836 81.341923,74.31959 C 82.145817,75.390838 85.601415,74.373287 86.493283,74.016741 C 87.99424,73.416699 89.742009,74.235124 90.43256,74.92529 C 92.587396,77.078905 91.298844,73.931221 90.735588,72.805342 C 90.293194,71.921068 88.271913,70.731502 87.402351,70.079694 C 85.924138,68.971665 85.623068,67.695716 84.372136,66.445499 C 83.178294,65.252333 81.747367,65.2341 80.129836,65.2341 C 79.119378,65.2341 77.426236,63.966848 76.19056,63.719852 z"
       id="path2556" />
    <path
       style="fill:#e9d2af;fill-opacity:1;fill-rule:evenodd;stroke:#3f2d10;stroke-width:0.99999994px;stroke-linecap:butt;stroke-linejoin:miter;stroke-opacity:1"
       d="M 62.03111,83.198752 C 65.207415,85.948699 71.090943,81.308007 71.620113,76.777652 C 69.693553,75.404804 67.832531,73.512074 65.291261,73.618947 C 63.475901,74.345208 62.072489,75.714716 60.699902,77.065892 C 59.939911,78.794564 61.029565,82.04391 62.03111,83.198752 z"
       id="path2619"
       sodipodi:nodetypes="ccccc" />
    <path
       style="fill:#28170b;fill-rule:evenodd;stroke:#120a04;stroke-width:0.99999994px;stroke-linecap:butt;stroke-linejoin:miter;stroke-opacity:1"
       d="M 47.535734,74.543345 C 48.097896,75.667037 49.240073,76.363595 50.669411,76.363595 C 52.920514,77.012284 55.098504,78.021742 57.338508,78.799517 C 60.279736,79.554908 62.423029,78.054517 64.596853,76.363595 C 68.259843,74.470748 72.055124,71.248794 72.819397,67.02143 C 73.033669,65.250398 72.33596,65.254717 71.319516,65.575938 C 69.631004,67.29804 67.515751,69.117855 65.212875,70.019489 C 62.29536,70.847817 59.983948,71.231798 59.159792,67.878018 C 58.192122,65.100249 55.06751,64.302711 52.490686,63.648613 C 47.013567,63.412131 45.818494,70.55329 47.535734,74.543345 z M 52.43712,67.02143 C 55.080098,65.906021 60.58739,72.699663 55.811852,72.428643 C 53.805532,71.760839 53.388276,70.46295 52.196067,72.13419 C 47.944247,73.422291 49.620715,68.088988 52.43712,67.02143 z"
       id="path2558"
       sodipodi:nodetypes="cccccccccccccc" />
    <path
       style="fill:#ffffff;fill-rule:evenodd;stroke:#333333;stroke-width:0.99999994px;stroke-linecap:butt;stroke-linejoin:miter;stroke-opacity:1"
       d="M 55.302961,54.600902 C 54.132262,57.169365 55.038095,58.675359 57.54516,58.304123 C 58.315304,58.642999 59.919845,56.765446 59.551559,55.520211 C 59.827176,52.175964 56.926443,52.103373 55.302961,54.600902 z"
       id="path2565"
       sodipodi:nodetypes="cccc" />
    <path
       style="fill:#ffffff;fill-rule:evenodd;stroke:#333333;stroke-width:0.99999994px;stroke-linecap:butt;stroke-linejoin:miter;stroke-opacity:1"
       d="M 50.16052,52.887725 C 48.143209,53.340499 47.196479,54.880378 47.589299,57.170665 C 49.918279,61.46896 54.347363,55.284626 50.16052,52.887725 z"
       id="path2567"
       sodipodi:nodetypes="ccc" />
    <path
       style="fill:#e9d2af;fill-opacity:1;fill-rule:evenodd;stroke:#3f2d10;stroke-width:0.99999994px;stroke-linecap:butt;stroke-linejoin:miter;stroke-opacity:1"
       d="M 53.160275,56.099931 C 52.804095,58.164796 50.804208,59.126039 49.731986,60.168725 C 49.184134,62.459935 49.513183,64.103732 52.088935,63.595077 C 53.888737,62.759345 54.611283,61.373032 54.874427,59.526283"
       id="path2569"
       sodipodi:nodetypes="cccc" />
    <path
       style="fill:#e9d2af;fill-opacity:1;fill-rule:evenodd;stroke:#3f2d10;stroke-width:0.99999994px;stroke-linecap:butt;stroke-linejoin:miter;stroke-opacity:1"
       d="M 68.159055,56.528226 C 73.184409,54.532787 72.298899,61.971135 68.587598,61.239459"
       id="path2571"
       sodipodi:nodetypes="cc" />
    <path
       style="fill:#e9d2af;fill-opacity:1;fill-rule:evenodd;stroke:#3f2d10;stroke-width:0.99999994px;stroke-linecap:butt;stroke-linejoin:miter;stroke-opacity:1"
       d="M 69.123263,57.706034 C 69.852706,56.427205 71.773753,58.716629 69.123263,59.954577"
       id="path2573"
       sodipodi:nodetypes="cs" />
    <path
       style="fill:none;fill-rule:evenodd;stroke:#3f2d10;stroke-width:0.99999994px;stroke-linecap:butt;stroke-linejoin:miter;stroke-opacity:1"
       d="M 51.017596,69.805342 C 51.844544,70.155812 54.188013,69.969225 55.624363,69.805342"
       id="path2575"
       sodipodi:nodetypes="cc" />
    <path
       style="fill:#000000;fill-rule:evenodd;stroke:#000000;stroke-width:0.99999994px;stroke-linecap:butt;stroke-linejoin:miter;stroke-opacity:1"
       d="M 58.572222,55.524573 C 59.021039,55.566578 58.148348,53.743556 56.932098,54.982424 C 55.989405,55.942651 56.83695,57.363141 57.479949,57.513546 C 58.771402,57.815646 59.12242,55.735602 58.572222,55.524573 z"
       id="path2577"
       sodipodi:nodetypes="cssc" />
    <path
       style="fill:#000000;fill-rule:evenodd;stroke:#000000;stroke-width:0.99999994px;stroke-linecap:butt;stroke-linejoin:miter;stroke-opacity:1"
       d="M 50.268998,54.651062 C 50.582353,53.759539 48.777278,54.474714 49.241243,56.530503 C 49.561453,57.949289 50.697024,57.07642 50.782876,57.000364 C 51.934204,55.980426 51.003169,53.380329 50.268998,54.651062 z"
       id="path2579"
       sodipodi:nodetypes="cssc" />
    <g
       id="g3779"
       transform="matrix(0.9819927,0,0,0.9819634,-101.32171,-19.876026)" />
  </g>
</svg>
