<?xml version="1.0" encoding="UTF-8" standalone="no"?>
<!-- Created with Inkscape (http://www.inkscape.org/) -->
<svg
   xmlns:dc="http://purl.org/dc/elements/1.1/"
   xmlns:cc="http://creativecommons.org/ns#"
   xmlns:rdf="http://www.w3.org/1999/02/22-rdf-syntax-ns#"
   xmlns:svg="http://www.w3.org/2000/svg"
   xmlns="http://www.w3.org/2000/svg"
   xmlns:sodipodi="http://sodipodi.sourceforge.net/DTD/sodipodi-0.dtd"
   xmlns:inkscape="http://www.inkscape.org/namespaces/inkscape"
   width="128"
   height="128"
   id="svg2"
   sodipodi:version="0.32"
   inkscape:version="0.46"
   version="1.0"
   sodipodi:docname="the-reality-distorter.svg"
   inkscape:output_extension="org.inkscape.output.svg.inkscape">
  <defs
     id="defs4">
    <filter
       inkscape:collect="always"
       id="filter3408"
       x="-0.15531251"
       width="1.310625"
       y="-0.61039191"
       height="2.2207839">
      <feGaussianBlur
         inkscape:collect="always"
         stdDeviation="3.8088166"
         id="feGaussianBlur3410" />
    </filter>
  </defs>
  <sodipodi:namedview
     id="base"
     pagecolor="#ffffff"
     bordercolor="#666666"
     borderopacity="1.0"
     gridtolerance="10000"
     guidetolerance="10"
     objecttolerance="10"
     inkscape:pageopacity="0.0"
     inkscape:pageshadow="2"
     inkscape:zoom="1"
     inkscape:cx="64"
     inkscape:cy="64"
     inkscape:document-units="px"
     inkscape:current-layer="g3412"
     showgrid="false"
     inkscape:window-width="1538"
     inkscape:window-height="961"
     inkscape:window-x="127"
     inkscape:window-y="31" />
  <metadata
     id="metadata7">
    <rdf:RDF>
      <cc:Work
         rdf:about="">
        <dc:format>image/svg+xml</dc:format>
        <dc:type
           rdf:resource="http://purl.org/dc/dcmitype/StillImage" />
      </cc:Work>
    </rdf:RDF>
  </metadata>
  <g
     inkscape:label="Layer 1"
     inkscape:groupmode="layer"
     id="layer1">
    <g
       id="g3412"
       transform="matrix(0.9684046,0,0,0.9684046,-271.08612,-309.73169)">
      <path
         style="fill:#e9c6af;fill-opacity:1;fill-rule:evenodd;stroke:#4c1413;stroke-width:1.03262615px;stroke-linecap:butt;stroke-linejoin:miter;stroke-opacity:1"
         d="M 339.09018,375.16674 C 337.02293,377.48998 334.45729,378.02953 332.65037,382.56413 C 332.23952,385.00541 331.91446,388.6929 332.18023,390.00674 C 330.29307,393.00935 330.75401,395.47789 331.47298,398.67673 C 329.49541,401.6217 326.35776,403.01195 324.72132,406.32326 C 323.64527,407.98304 321.64974,407.40279 320.12105,408.52758 C 318.71738,410.06548 320.5295,409.9887 321.51016,409.84153 C 321.94094,410.66033 316.6306,414.57613 319.05722,414.88128 C 319.20994,415.4978 321.99081,412.58974 322.86581,411.63105 C 322.51454,412.08871 319.85927,415.49387 320.98341,416.64737 C 321.91582,416.68087 323.66741,414.12168 324.72702,412.62878 C 323.75142,414.43573 322.93341,415.35981 323.56341,416.72734 C 324.08007,417.8488 325.78282,414.56009 325.91278,414.31938 C 326.49556,413.24001 327.01739,412.26393 327.35637,411.15979 C 327.4745,410.77509 328.01209,410.72796 328.73428,410.2205 C 331.87746,407.89361 334.80024,404.35693 335.44186,400.55699 C 337.81166,399.5435 338.30008,398.64711 340.18115,396.90664 C 343.87427,393.43827 346.33094,388.28464 347.0403,383.44765 C 347.64571,379.25606 345.04965,373.12477 339.09018,375.16674 z"
         id="path3275"
         sodipodi:nodetypes="cccccccccccsssccccc" />
      <path
         sodipodi:nodetypes="ccccccccccc"
         id="path2489"
         d="M 353.91258,369.296 C 353.55306,370.36345 354.54274,371.82086 354.9586,372.65349 C 357.9613,373.12911 360.79031,374.76131 363.44503,376.59561 C 366.2638,382.33123 369.74194,394.78024 360.03672,394.83644 C 354.20832,393.11254 346.57087,396.15129 341.34001,392.98786 C 338.02425,391.76307 341.35409,389.9096 340.16601,386.91926 C 339.88466,385.79265 339.81019,384.64997 339.81019,383.45317 C 341.09013,382.00535 340.241,378.37578 340.83895,376.52743 C 341.60803,374.55848 342.8712,375.01957 344.57154,375.19529 C 346.50766,374.1885 345.94845,372.83258 347.43488,370.8794 C 348.09012,367.81643 352.26742,366.01661 353.91258,369.296 z"
         style="fill:#e9c6af;fill-opacity:1;fill-rule:evenodd;stroke:#4c1413;stroke-width:1.03262615px;stroke-linecap:butt;stroke-linejoin:miter;stroke-opacity:1" />
      <path
         sodipodi:nodetypes="ccccccccc"
         id="path3305"
         d="M 342.67886,433.60571 C 336.79771,432.93512 330.61775,432.94272 325.12429,435.43059 C 321.72796,436.86257 318.24795,435.45861 314.89457,434.96909 C 308.51414,437.91011 314.01189,443.91721 318.32537,445.45615 C 327.53535,445.56897 336.83672,449.84617 345.72347,446.51828 C 350.99634,444.97066 356.26514,448.19482 361.58574,446.98347 C 365.39607,443.93852 366.40419,442.0432 370.82698,438.24583 C 371.19933,434.38626 365.87695,434.12193 363.31813,432.80748 C 356.54878,433.97622 349.70521,433.87153 342.67886,433.60571 z"
         style="fill:#000000;fill-opacity:0.78278689;fill-rule:evenodd;stroke:none;stroke-width:1px;stroke-linecap:butt;stroke-linejoin:miter;stroke-opacity:1;filter:url(#filter3408)" />
      <path
         sodipodi:nodetypes="ccccccssscc"
         id="path2495"
         d="M 339.72424,434.11877 C 338.74497,434.11877 338.24428,436.6478 337.02304,437.25908 C 333.16068,438.81623 328.92617,437.83708 329.79883,441.51308 C 332.35947,440.8895 337.40171,441.61796 339.04134,438.65183 C 340.72214,437.67665 342.18131,437.52888 344.08512,437.29949 C 344.40595,438.19201 343.81662,438.4066 343.44669,439.57611 C 344.93175,439.6831 345.09219,440.01269 345.67161,439.6645 C 346.84568,438.95897 347.93123,440.0756 348.26472,438.74022 C 348.55105,437.59365 348.25054,435.91059 348.03389,435.04305 C 347.66864,433.58046 347.99068,432.81611 346.41813,432.50126 C 343.78011,432.03665 341.89069,432.77482 339.72424,434.11877 z"
         style="fill:#1a1a1a;fill-rule:evenodd;stroke:#000000;stroke-width:1.03262615px;stroke-linecap:butt;stroke-linejoin:miter;stroke-opacity:1" />
      <path
         style="fill:#1c0443;fill-opacity:1;fill-rule:evenodd;stroke:#0b001c;stroke-width:1.03262615px;stroke-linecap:butt;stroke-linejoin:miter;stroke-opacity:1"
         d="M 339.15116,410.33218 C 340.81732,412.35287 338.00467,419.07432 337.58437,422.09669 C 336.41341,426.31332 339.40337,430.04401 339.62237,434.16674 C 341.55138,435.06061 345.59736,433.76579 347.52441,432.7399 C 346.06425,427.48777 343.19778,421.62124 349.17452,415.34886 C 350.76805,413.74972 351.23798,410.03183 351.16354,407.82449 C 349.12452,406.55768 345.8228,407.13127 343.31554,407.13127 C 340.95442,407.09432 344.05889,400.69909 339.15116,410.33218 z"
         id="path3277"
         sodipodi:nodetypes="cccccccc" />
      <path
         sodipodi:nodetypes="ccccssscccc"
         id="path2499"
         d="M 348.91778,433.47984 C 348.63901,435.98788 347.44328,437.52151 345.49484,439.20236 C 343.73655,440.80439 344.42907,443.64296 342.26331,444.7481 C 344.41446,447.65107 349.06891,445.15527 350.80378,443.1306 C 351.45126,442.26635 351.22003,440.4486 351.72707,439.43343 C 352.05623,438.7744 353.52304,438.09768 354.03531,437.58485 C 354.80353,436.8158 355.42025,435.67321 355.42025,437.58485 C 355.42025,438.63485 355.65107,439.54889 355.65107,440.81987 C 356.38443,441.92226 356.85196,439.10899 358.19013,436.66057 C 358.19013,435.39054 357.6838,434.30843 357.46332,433.42555 C 355.32794,430.57695 350.43721,429.97571 348.91778,433.47984 z"
         style="fill:#1a1a1a;fill-rule:evenodd;stroke:#000000;stroke-width:1.03262615px;stroke-linecap:butt;stroke-linejoin:miter;stroke-opacity:1" />
      <path
         sodipodi:nodetypes="cccccccc"
         id="path2491"
         d="M 349.13904,409.4483 C 350.8052,411.46899 347.10867,418.10205 346.68837,421.12442 C 345.51741,425.34105 348.50737,429.07174 348.72637,433.19447 C 350.65538,434.08834 354.70136,432.79352 356.62841,431.76763 C 355.16825,426.5155 354.68826,417.73215 360.665,411.45977 C 362.25853,409.86063 360.34198,409.05956 360.26754,406.85222 C 358.22852,405.58541 354.9268,406.159 352.41954,406.159 C 350.05842,406.12205 350.59631,407.86629 349.13904,409.4483 z"
         style="fill:#1c0443;fill-opacity:1;fill-rule:evenodd;stroke:#0b001c;stroke-width:1.03262615px;stroke-linecap:butt;stroke-linejoin:miter;stroke-opacity:1" />
      <path
         sodipodi:nodetypes="ccccccccccccc"
         id="path2454"
         d="M 337.09077,328.47969 C 328.45507,333.04872 332.86863,336.69195 332.98315,341.4987 C 332.98315,343.95511 332.80637,346.5883 332.80637,349.04472 C 332.87527,351.37017 333.03625,353.4729 332.52675,355.74591 C 331.69552,357.85136 331.62896,359.22602 331.51039,361.46035 C 331.73283,364.21463 336.98696,365.30499 338.67734,364.8221 C 336.93405,365.55278 331.87185,364.65497 331.59878,362.1096 C 330.5153,371.07856 334.19594,371.35532 335.72157,371.71262 C 340.78314,373.65283 349.94859,371.79287 354.89046,369.50184 C 359.59447,365.62973 359.28831,360.91302 360.13909,355.50027 C 360.20891,348.3096 360.22944,339.1128 357.17246,332.40996 C 356.54037,331.04917 356.58662,330.05984 355.57506,328.97098 C 350.96529,324.51798 342.3043,327.30196 337.09077,328.47969 z"
         style="fill:#e9c6af;fill-opacity:1;fill-rule:evenodd;stroke:#4c1413;stroke-width:1.03262639px;stroke-linecap:butt;stroke-linejoin:miter;stroke-opacity:1" />
      <path
         sodipodi:nodetypes="cccccccccccccccc"
         id="path2458"
         d="M 337.64833,331.05675 C 338.82902,331.05675 334.4699,329.75469 333.68354,328.73406 C 333.27787,326.35181 337.01833,324.6376 341.30589,323.31686 C 344.82364,322.12366 355.19112,320.05191 359.13599,324.30379 C 362.57566,327.47889 362.90152,332.123 364.04796,336.34022 C 364.85799,340.97776 364.07251,345.6766 364.04796,350.3418 C 364.04796,351.75528 362.62583,353.33605 362.94817,354.62561 C 361.39057,354.02242 359.66014,357.16487 360.11839,354.02642 C 360.13928,350.3632 360.23292,346.72306 359.7257,343.04141 C 358.92373,339.24884 356.77153,341.37419 353.52636,341.65489 C 350.5554,344.51191 351.92403,347.30173 352.32806,350.80326 C 350.95555,351.49473 348.59014,352.45844 349.06646,349.85052 C 348.96291,346.08424 349.40792,342.32164 349.55765,338.551 C 349.1093,334.15284 346.98458,335.41595 343.60527,335.48403 C 342.88297,334.03916 346.34786,331.16474 345.38248,330.19918 C 342.6789,329.27437 340.29289,330.62675 337.64833,331.05675 z"
         style="fill:#241c1c;fill-rule:evenodd;stroke:#000000;stroke-width:1.03262627px;stroke-linecap:butt;stroke-linejoin:miter;stroke-opacity:1" />
      <path
         sodipodi:nodetypes="ccscccccc"
         id="path2464"
         d="M 327.94499,362.1326 C 329.1037,359.43182 330.3037,357.75485 333.34816,356.2372 C 335.01687,356.2372 334.11682,357.33462 335.55854,356.97412 C 336.89947,356.63883 338.03273,356.287 339.12192,356.83169 C 342.30416,359.12249 342.61697,364.56941 342.3191,368.15299 C 341.14194,366.98508 340.11857,364.54299 339.84551,362.74452 C 339.02964,360.91168 337.86757,359.47958 334.79974,359.19362 C 330.31931,358.03614 330.25676,362.40208 329.17298,365.81722 C 328.85903,367.07321 328.42572,363.33465 327.94499,362.1326 z"
         style="fill:#241c1c;fill-rule:evenodd;stroke:#000000;stroke-width:1.03262627px;stroke-linecap:butt;stroke-linejoin:miter;stroke-opacity:1" />
      <path
         sodipodi:nodetypes="cccc"
         id="path2466"
         d="M 354.46082,346.19204 C 356.78088,345.4532 359.24817,339.12216 362.24403,344.88069 C 362.06605,348.9496 358.76861,350.05927 358.39919,350.09615 C 357.1917,350.80513 355.88392,350.18932 354.71522,349.60488"
         style="fill:#e9c6af;fill-opacity:1;fill-rule:evenodd;stroke:#4c1413;stroke-width:1.03262627px;stroke-linecap:butt;stroke-linejoin:miter;stroke-opacity:1" />
      <path
         sodipodi:nodetypes="ccccc"
         id="path2468"
         d="M 342.4353,340.02485 C 339.83291,339.09891 338.91295,340.98843 338.50572,343.21819 C 338.55114,346.171 340.21309,346.98944 342.9265,346.65717 C 344.26809,346.32171 344.53507,345.87149 344.89129,344.4464 C 345.00692,342.3145 344.17907,341.00971 342.4353,340.02485 z"
         style="fill:#ffffff;fill-rule:evenodd;stroke:#333333;stroke-width:1.03262627px;stroke-linecap:butt;stroke-linejoin:miter;stroke-opacity:1" />
      <path
         sodipodi:nodetypes="cssc"
         id="path2470"
         d="M 339.36312,345.4464 C 338.97689,343.90122 339.75071,342.72691 341.2073,342.72691 C 342.51062,342.72691 341.812,345.22054 341.6985,345.67461 C 341.49408,346.49245 339.88965,346.10468 339.36312,345.4464 z"
         style="fill:#000000;fill-rule:evenodd;stroke:#000000;stroke-width:1.03262627px;stroke-linecap:butt;stroke-linejoin:miter;stroke-opacity:1" />
      <path
         sodipodi:nodetypes="cccc"
         id="path2472"
         d="M 330.89217,344.93768 C 330.19175,342.66356 330.27113,340.60894 332.85696,340.27049 C 335.42244,340.93853 336.24027,342.71666 336.29534,345.18332 C 334.59692,347.92111 332.5785,347.01265 330.89217,344.93768 z"
         style="fill:#ffffff;fill-rule:evenodd;stroke:#333333;stroke-width:1.03262627px;stroke-linecap:butt;stroke-linejoin:miter;stroke-opacity:1" />
      <path
         sodipodi:nodetypes="ccss"
         id="path2477"
         d="M 334.57615,345.67461 C 334.59218,345.40826 332.80305,346.70445 332.11576,345.54961 C 332.27131,343.57318 332.13044,344.06402 332.85255,343.47255 C 334.01189,342.52295 334.51865,346.62972 334.57615,345.67461 z"
         style="fill:#000000;fill-rule:evenodd;stroke:#000000;stroke-width:1.03262627px;stroke-linecap:butt;stroke-linejoin:miter;stroke-opacity:1" />
      <path
         sodipodi:nodetypes="cccccscccccsccccccccc"
         id="path2487"
         d="M 343.22095,375.0728 C 341.32955,377.01386 341.80166,379.84061 341.80166,382.35853 C 342.10254,384.56098 342.75668,389.80509 344.85066,390.26783 C 348.43276,390.18226 352.13654,383.62454 352.8812,380.27887 C 354.0383,376.43457 356.93866,374.06613 357.72849,373.3467 C 358.94262,373.3467 360.13654,373.62774 360.96002,374.03992 C 361.51485,374.31763 362.09699,374.21791 363.01772,375.67132 C 360.43867,374.70629 358.91641,374.57324 357.49767,377.04386 C 356.30437,378.83549 355.48776,380.81625 354.72778,382.82067 C 354.33651,385.05519 355.22724,386.76906 356.34355,388.59748 C 359.60905,391.58187 363.51043,389.12986 365.11484,385.82462 C 365.60147,384.85033 365.57649,387.97034 365.57649,389.05963 C 365.57649,390.21499 365.57649,391.37035 365.57649,392.52571 C 362.62171,400.51314 363.91797,400.49757 364.88402,409.39401 C 364.88402,410.81832 363.27754,410.89133 362.11414,411.47366 C 358.58752,411.53292 355.10667,410.00005 351.49625,410.54937 C 346.48192,411.20989 340.88476,411.82079 337.01798,409.25133 C 336.71466,402.33611 336.81239,397.51632 339.03178,392.29465 C 340.0017,388.91562 339.75313,389.81654 338.61858,386.80319 C 338.61858,385.83975 338.76108,383.6445 339.31158,383.09341 C 341.46772,380.95708 339.25934,373.85946 343.22095,375.0728 z"
         style="fill:#000000;fill-rule:evenodd;stroke:#000000;stroke-width:1.03262615px;stroke-linecap:butt;stroke-linejoin:miter;stroke-opacity:1" />
      <path
         sodipodi:nodetypes="cccccccccccsssccccc"
         id="path2501"
         d="M 357.66937,382.86235 C 356.95407,385.88879 356.89388,385.79443 357.45825,390.64304 C 358.25656,392.9864 359.37515,395.31553 360.2332,396.34536 C 359.99913,399.88404 361.57752,401.83722 363.7299,404.31042 C 363.38889,407.84133 361.28845,410.55533 361.42166,414.24653 C 361.26335,416.21826 359.23173,416.65573 358.42096,418.37174 C 357.91647,420.39186 359.47454,419.46338 360.26754,418.86798 C 361.0356,419.38381 358.2232,425.35236 360.50344,424.46801 C 360.93073,424.93795 361.99613,421.05788 362.31061,419.79859 C 362.21895,420.36818 361.50023,424.626 363.03743,425.10694 C 363.8738,424.69344 364.19924,421.60935 364.42237,419.79228 C 364.42237,421.84578 364.14159,423.04754 365.34566,423.95158 C 366.33308,424.69293 366.26896,420.99011 366.26896,420.71656 C 366.26896,419.48991 366.26441,418.3831 366.03813,417.25048 C 365.9593,416.85585 366.40996,416.55897 366.80436,415.76934 C 368.46467,412.22853 369.35629,407.72788 368.11555,404.07935 C 369.71933,402.06167 369.72324,401.04086 370.55158,398.61568 C 372.15351,393.80917 371.86678,388.10715 370.19296,383.5139 C 368.71817,379.77935 364.99581,374.53923 360.85699,377.14615"
         style="fill:#e9c6af;fill-opacity:1;fill-rule:evenodd;stroke:#4c1413;stroke-width:1.03262615px;stroke-linecap:butt;stroke-linejoin:miter;stroke-opacity:1" />
      <path
         sodipodi:nodetypes="ccc"
         id="path2456"
         d="M 336.93362,343.78757 C 335.98696,348.22546 330.37207,350.32887 330.64657,351.57 C 332.86843,352.12342 335.42034,351.81565 337.76892,351.81565"
         style="fill:#e9c6af;fill-opacity:1;fill-rule:evenodd;stroke:#4c1413;stroke-width:1.03262627px;stroke-linecap:butt;stroke-linejoin:miter;stroke-opacity:1" />
      <path
         sodipodi:nodetypes="ccc"
         id="path3279"
         d="M 365.70165,389.21416 C 361.0102,386.72891 364.19801,393.74949 367.65051,392.01621 C 369.92452,389.87743 366.78698,382.87128 365.70165,389.21416 z"
         style="fill:#000000;fill-rule:evenodd;stroke:none;stroke-width:1px;stroke-linecap:butt;stroke-linejoin:miter;stroke-opacity:1" />
      <path
         sodipodi:nodetypes="ccsccc"
         id="path3284"
         d="M 359.67363,345.08537 C 361.60285,346.52992 360.53262,349.30722 359.82896,350.59946 C 359.54428,351.16882 358.68188,354.04378 358.07008,354.19673 C 357.55019,354.3267 357.49587,351.12028 357.24426,350.93157 C 356.0294,350.28369 356.32288,349.66676 356.20504,348.38975 C 356.62577,346.5763 357.9821,343.76497 359.67363,345.08537 z"
         style="fill:#ffffff;fill-rule:evenodd;stroke:#333333;stroke-width:1.03262627px;stroke-linecap:butt;stroke-linejoin:miter;stroke-opacity:1" />
      <path
         sodipodi:nodetypes="ccc"
         id="path3288"
         d="M 340.25,396.5 C 342.86324,395.5875 345.90005,395.3908 348,397 C 350.43561,398.24951 353.15738,399.93845 353.75,402.625"
         style="fill:none;fill-rule:evenodd;stroke:#000000;stroke-width:1.03262627px;stroke-linecap:butt;stroke-linejoin:miter;stroke-opacity:1" />
      <path
         id="path3290"
         d="M 342,387.5 C 343.81772,388.14505 345.7665,388.03631 347.625,388.5 C 348.59991,391.23705 347.86465,394.52606 347.375,397.375 C 347.0677,398.84283 346.55587,399.14601 345.125,399.125 C 343.45863,399.12257 341.86025,398.61954 340.25,398.25 C 339.59875,395.1546 339.58037,391.71699 340.375,388.625 C 340.65849,387.49105 340.81839,387.73632 342,387.5 z"
         style="fill:#ffffff;fill-rule:evenodd;stroke:#333333;stroke-width:1.03262627px;stroke-linecap:butt;stroke-linejoin:miter;stroke-opacity:1"
         sodipodi:nodetypes="ccccccc" />
      <path
         id="path3299"
         d="M 342.15129,393.20264 C 341.35232,393.82543 341.24118,394.37895 341.17902,395.32396 C 341.21313,396.35899 341.75336,396.63358 342.50485,397.18012 C 343.43946,397.73645 343.88397,397.41119 344.71456,397.09173 C 345.47295,395.66794 344.86512,394.88125 344.18423,393.82136 C 343.51708,393.49583 342.94517,393.30603 342.15129,393.20264 z"
         style="fill:none;fill-rule:evenodd;stroke:#333333;stroke-width:1.03262627px;stroke-linecap:butt;stroke-linejoin:miter;stroke-opacity:1"
         sodipodi:nodetypes="cccccc" />
      <path
         sodipodi:nodetypes="cccccc"
         id="path3301"
         d="M 357.70764,354.04661 C 356.47027,356.36399 357.12686,359.17526 356.02826,361.47123 C 354.09787,364.59798 354.78463,368.26712 352.66951,371.37072 C 350.59577,374.88218 347.4291,375.14674 344.09584,376.58563 C 344.22965,378.50204 344.4284,380.47013 344.44939,382.41926 C 344.02898,384.17575 344.53778,386.44004 344.53778,388.2529"
         style="fill:none;fill-rule:evenodd;stroke:#333333;stroke-width:1.03262627px;stroke-linecap:butt;stroke-linejoin:miter;stroke-opacity:1" />
      <path
         sodipodi:nodetypes="ccc"
         id="path3303"
         d="M 336.75961,371.98944 C 337.17627,373.73481 337.26938,376.22123 338.88093,376.8508 C 340.39105,377.2304 342.45732,376.44309 344.00745,376.67402"
         style="fill:none;fill-rule:evenodd;stroke:#333333;stroke-width:1.03262627px;stroke-linecap:butt;stroke-linejoin:miter;stroke-opacity:1" />
    </g>
  </g>
</svg>
