<?xml version="1.0" encoding="UTF-8" standalone="no"?>
<!-- Created with Inkscape (http://www.inkscape.org/) -->
<svg xmlns:dc="http://purl.org/dc/elements/1.1/" xmlns:cc="http://creativecommons.org/ns#" xmlns:rdf="http://www.w3.org/1999/02/22-rdf-syntax-ns#" xmlns:svg="http://www.w3.org/2000/svg" xmlns="http://www.w3.org/2000/svg" xmlns:sodipodi="http://sodipodi.sourceforge.net/DTD/sodipodi-0.dtd" xmlns:inkscape="http://www.inkscape.org/namespaces/inkscape" width="128" height="128" id="svg2" sodipodi:version="0.32" inkscape:version="0.46" version="1.0" sodipodi:docname="fake-ninja.svg" inkscape:output_extension="org.inkscape.output.svg.inkscape" inkscape:export-xdpi="90" inkscape:export-ydpi="90">
  <defs id="defs4">
    <filter height="1.6532674" y="-0.32663372" width="1.2502785" x="-0.12513924" id="filter3443" inkscape:collect="always">
      <feGaussianBlur id="feGaussianBlur3445" stdDeviation="1.9634296" inkscape:collect="always"/>
    </filter>
  </defs>
  <sodipodi:namedview id="base" pagecolor="#ffffff" bordercolor="#666666" borderopacity="1.0" gridtolerance="10000" guidetolerance="10" objecttolerance="10" inkscape:pageopacity="0" inkscape:pageshadow="2" inkscape:zoom="1" inkscape:cx="602.92496" inkscape:cy="64" inkscape:document-units="px" inkscape:current-layer="layer1" showgrid="false" inkscape:window-width="1397" inkscape:window-height="903" inkscape:window-x="256" inkscape:window-y="57" showguides="true" inkscape:guide-bbox="true"/>
  <metadata id="metadata7">
    <rdf:RDF>
      <cc:Work rdf:about="">
        <dc:format>image/svg+xml</dc:format>
        <dc:type rdf:resource="http://purl.org/dc/dcmitype/StillImage"/>
        <cc:license rdf:resource="http://creativecommons.org/licenses/by-sa/3.0/"/>
        <dc:title>Fedora WEBCOMIC 2.0</dc:title>
        <dc:date>May 2008</dc:date>
        <dc:creator>
          <cc:Agent>
            <dc:title>Nicu Buculei</dc:title>
          </cc:Agent>
        </dc:creator>
        <dc:rights>
          <cc:Agent>
            <dc:title>Nicu Buculei</dc:title>
          </cc:Agent>
        </dc:rights>
        <dc:subject>
          <rdf:Bag>
            <rdf:li>fedora</rdf:li>
            <rdf:li>webcomic</rdf:li>
            <rdf:li>nicubunu</rdf:li>
          </rdf:Bag>
        </dc:subject>
        <dc:language>en-US</dc:language>
      </cc:Work>
      <cc:License rdf:about="http://creativecommons.org/licenses/by-sa/3.0/">
        <cc:permits rdf:resource="http://creativecommons.org/ns#Reproduction"/>
        <cc:permits rdf:resource="http://creativecommons.org/ns#Distribution"/>
        <cc:requires rdf:resource="http://creativecommons.org/ns#Notice"/>
        <cc:requires rdf:resource="http://creativecommons.org/ns#Attribution"/>
        <cc:permits rdf:resource="http://creativecommons.org/ns#DerivativeWorks"/>
        <cc:requires rdf:resource="http://creativecommons.org/ns#ShareAlike"/>
      </cc:License>
    </rdf:RDF>
  </metadata>
  <g inkscape:label="Layer 1" inkscape:groupmode="layer" id="layer1">
    <g transform="translate(-237.488, -101.709)" id="g3765"/>
    <g id="g4184" transform="translate(-302.488, -113.709)"/>
    <g id="g2977" transform="translate(-580, 76)">
      <path sodipodi:nodetypes="ccccsssssssc" style="fill: rgb(0, 0, 0); fill-opacity: 0.728395; fill-rule: evenodd; stroke: none; stroke-width: 1px; stroke-linecap: butt; stroke-linejoin: miter; stroke-opacity: 1; filter: url(#filter3443);" d="M 639.43806,35.481789 C 633.97332,35.904169 632.61523,32.221909 627.94318,36.371299 C 626.52987,37.784609 626.21778,40.588549 626.60892,42.153089 C 629.48352,46.004109 632.60753,45.032729 637.21429,46.600619 C 639.49062,47.169709 641.47721,47.490129 644.33034,47.490129 C 647.23015,47.490129 649.0143,48.928559 651.89115,47.490129 C 654.12224,46.374589 656.18186,46.718239 658.1177,45.266359 C 659.63006,44.132089 660.3441,42.142529 660.78622,40.374079 C 661.57005,37.238749 658.90959,36.767239 657.22819,35.926549 C 655.06719,34.846049 651.32182,35.512939 649.66738,35.926549 C 647.8941,36.369869 646.35136,33.702779 643.88559,33.702779 C 641.88624,33.702779 642.82617,35.481789 639.43806,35.481789 z" id="path3018"/>
      <path style="fill: rgb(43, 17, 0); fill-rule: evenodd; stroke: rgb(14, 3, 0); stroke-width: 1px; stroke-linecap: butt; stroke-linejoin: miter; stroke-opacity: 1;" d="M 638.55987,33.3397 C 636.20438,36.42482 633.01642,37.17229 629.82459,37.64668 C 629.22443,38.36561 629.50166,37.93442 629.54426,38.81978 C 629.78155,39.58382 630.05493,40.33215 630.25136,41.11788 C 633.00349,41.37488 636.04372,43.02335 638.91779,42.09795 C 641.93649,42.13652 644.98764,41.07951 647.48709,39.26172 C 648.06458,37.55219 647.44472,35.23431 647.31031,33.3397 C 644.52633,34.21455 641.36166,34.07282 638.55987,33.3397 z" id="path3694" sodipodi:nodetypes="cccccccc"/>
      <path style="fill: none; fill-rule: evenodd; stroke: rgb(14, 3, 0); stroke-width: 1px; stroke-linecap: butt; stroke-linejoin: miter; stroke-opacity: 1;" d="M 630.25136,39.61527 C 633.50276,39.05905 636.75275,41.19266 640.13815,40.73934 C 643.28188,40.63534 644.91323,38.35062 647.22193,38.20106" id="path3696" sodipodi:nodetypes="ccc"/>
      <path style="fill: rgb(43, 17, 0); fill-rule: evenodd; stroke: rgb(14, 3, 0); stroke-width: 1px; stroke-linecap: butt; stroke-linejoin: miter; stroke-opacity: 1;" d="M 649.78519,33.87003 C 647.46101,37.28586 643.56812,38.51174 640.94635,39.39928 C 640.51943,40.29824 640.53673,39.9625 640.41602,40.9411 C 640.56015,42.23489 641.32146,43.05296 642.27218,43.85791 C 644.83882,44.85079 647.70089,44.07634 650.31552,43.59275 C 652.61016,43.51227 655.31605,42.9862 656.91432,41.23659 C 659.38415,38.92676 658.96999,36.73357 658.71241,33.51648 C 655.73682,33.74196 652.76863,33.87003 649.78519,33.87003 z" id="path3698" sodipodi:nodetypes="cccccccc"/>
      <path sodipodi:nodetypes="cccccccccccccccc" id="path2584" d="M 626.92249,-10.34856 C 624.02139,-8.75955 620.75126,-7.82137 617.45878,-8.26424 C 616.03121,-8.93174 617.0592,-10.96871 615.25109,-11.20393 C 614.02319,-10.43494 614.12784,-9.02747 614.22395,-7.67397 C 612.16235,-7.95444 610.09606,-9.14671 608.7402,-6.70231 C 609.72308,-5.7614 611.31538,-5.43015 612.58817,-5.52066 C 611.27537,-4.92134 608.18195,-5.13381 610.16637,-2.9631 C 611.52386,-2.04537 612.67262,-3.119 614.07358,-3.5215 C 612.8853,-2.00077 610.68671,-0.90564 613.79158,-0.51393 C 615.02613,-0.79374 615.65429,-1.65335 616.37689,-2.59898 C 617.5194,-3.17532 618.92414,-3.18062 620.20235,-3.39363 C 623.26945,-2.76875 627.18355,-1.48764 630.22057,-2.05698 C 631.88241,-4.552 636.40669,-4.63856 638.16627,-6.86803 C 639.0391,-7.62184 643.46798,-12.76652 644.08756,-13.68431 C 643.92791,-16.60746 642.40464,-18.50373 639.5222,-18.85042 C 634.65023,-20.44699 625.3717,-16.69774 626.92249,-10.34856 z" style="fill: rgb(255, 204, 170); fill-opacity: 1; fill-rule: evenodd; stroke: rgb(63, 45, 16); stroke-width: 1px; stroke-linecap: butt; stroke-linejoin: miter; stroke-opacity: 1;"/>
      <path sodipodi:nodetypes="cscccsccccccc" id="path3720" d="M 649,-30.625 C 648.7188,-30.62879 648.43562,-30.61001 648.15625,-30.59375 C 646.48004,-30.4962 644.83741,-30.03389 643.21875,-29.5625 C 641.48056,-28.20688 640.79866,-24.24125 641.1875,-22.5 C 641.16719,-22.44456 641.14453,-22.39833 641.125,-22.34375 C 637.34384,-21.46104 637.35967,-20.84055 636.58731,-20.34467 C 630.1815,-16.23192 637.68976,-1.40109 635.34375,0.53125 C 638.18359,7.63806 641.62768,6.28536 644.90625,7.25 L 661.15625,3.875 C 662.37928,-4.35263 665.40892,-11.52931 663.28309,-18.91973 C 662.93878,-24.53842 657.06706,-21.63146 654.59375,-23.84375 C 653.38217,-26.31611 652.50386,-29.26969 649.84375,-30.5625 C 649.5604,-30.59485 649.2812,-30.62121 649,-30.625 z" style="fill: rgb(255, 204, 170); fill-opacity: 1; fill-rule: evenodd; stroke: rgb(63, 45, 16); stroke-width: 1px; stroke-linecap: butt; stroke-linejoin: miter; stroke-opacity: 1;"/>
      <path sodipodi:nodetypes="cccccccccccccccccc" id="path3704" d="M 664.3125,1.0625 C 655.42719,4.84708 641.00715,8.19893 635.56863,0.71974 C 635.555,4.67774 636.90719,8.63575 638.0625,12.59375 C 637.51629,13.57932 636.68729,14.90523 636.875,15.84375 C 637.81846,18.63881 638.94902,21.12488 638.25,23.96875 C 638.26593,26.7584 635.25278,31.79332 637.25,33.84375 C 640.09557,34.97075 645.08131,35.31402 647.5,32.84375 C 646.25447,28.99196 646.15648,25.48035 646.75,21.46875 C 646.76931,18.92775 647.10288,16.46494 647.28125,13.96875 L 648,13.9375 C 647.86851,14.22356 647.8109,14.52326 647.875,14.84375 C 647.3881,18.35935 649.40886,22.04558 649.125,26.34375 C 649.64009,28.55249 647.23837,32.16685 648.75,33.71875 C 651.37999,35.70651 657.9148,35.61358 659.375,33.09375 C 658.35706,29.23629 657.27815,25.6011 657.875,21.59375 C 657.91877,18.71897 658.33104,15.90362 658.46875,13.0625 L 658.5,13.0625 L 664.3125,1.0625 z" style="fill: rgb(0, 50, 92); fill-opacity: 1; fill-rule: evenodd; stroke: rgb(0, 25, 46); stroke-width: 1px; stroke-linecap: butt; stroke-linejoin: miter; stroke-opacity: 1;"/>
      <path style="fill: rgb(255, 204, 170); fill-opacity: 1; fill-rule: evenodd; stroke: rgb(63, 45, 16); stroke-width: 1px; stroke-linecap: butt; stroke-linejoin: miter; stroke-opacity: 1;" d="M 655.88123,-16.52965 C 652.77926,-12.44763 653.03821,-2.70319 659.54544,-2.09247 C 660.0984,1.16875 659.91563,4.56589 658.42044,7.53253 C 657.32281,8.66333 655.73399,7.02575 654.92044,8.65753 C 655.24561,10.06939 656.60992,10.43075 657.92044,10.78253 C 656.98122,12.63907 655.17881,14.20188 657.04544,16.28253 C 658.25603,15.66138 659.08976,14.26494 659.42044,13.03253 C 659.55751,14.46914 658.34515,17.32301 661.04544,16.15753 C 662.35663,15.17478 661.71768,13.73809 661.79544,12.28253 C 662.84398,13.90278 663.15994,16.33861 664.54544,13.53253 C 664.68472,12.27436 664.07778,11.39963 663.42044,10.40753 C 663.2494,9.13937 663.70375,7.81012 663.92044,6.53253 C 665.51394,3.8384 668.00457,0.55843 668.45966,-2.4978 C 666.64526,-4.88417 668.04293,-9.18802 666.51143,-11.57991 C 666.33454,-12.87005 664.80173,-20.38344 662.00623,-19.40465" id="path3710" sodipodi:nodetypes="ccccccccccccccc"/>
      <path style="fill: rgb(255, 204, 170); fill-opacity: 1; fill-rule: evenodd; stroke: rgb(63, 45, 16); stroke-width: 1px; stroke-linecap: butt; stroke-linejoin: miter; stroke-opacity: 1;" d="M 643.95156,-67.864951 C 633.50089,-67.926156 629.36676,-61.0309 629.22732,-52.06228 C 629.22732,-50.18612 630.0945,-46.49366 630.55942,-44.63398 C 630.34301,-40.97222 629.43578,-38.20526 630.51653,-34.63093 C 631.77339,-29.5742 635.16997,-26.88254 640.06247,-25.7921 C 644.40561,-25.87738 651.0987,-26.298 654.35365,-29.33391 C 659.01419,-33.14745 657.93618,-41.03155 659.65067,-46.67319 C 660.26008,-52.06212 659.27056,-56.82811 657.74013,-61.85454 C 655.60887,-67.354865 649.16284,-68.634805 643.95156,-67.864951 z" id="path3714" sodipodi:nodetypes="ccccccccc"/>
      <path style="fill: rgb(160, 90, 44); fill-opacity: 1; fill-rule: evenodd; stroke: rgb(96, 59, 0); stroke-width: 1px; stroke-linecap: butt; stroke-linejoin: miter; stroke-opacity: 1;" d="M 631.7272,-67.536241 C 640.50977,-66.293432 647.60604,-72.342674 657.46868,-65.054291 C 660.43917,-61.02533 663.53913,-56.4678 661.24318,-50.27199 C 660.89325,-47.83482 659.65196,-42.61196 658.53499,-43.4547 C 659.77826,-48.49215 659.44108,-49.1369 655.61881,-50.89439 C 653.68781,-51.37714 653.21931,-50.78064 651.55296,-50.36406 C 654.27246,-59.27216 651.85244,-59.19181 645.71932,-61.14744 C 641.02274,-65.448623 634.17701,-62.54281 632.10752,-63.091984 C 631.7631,-63.622314 633.82701,-66.696311 631.7272,-67.536241 z" id="path3716" sodipodi:nodetypes="ccccccccc"/>
      <path style="fill: rgb(255, 255, 255); fill-rule: evenodd; stroke: rgb(51, 51, 51); stroke-width: 1px; stroke-linecap: butt; stroke-linejoin: miter; stroke-opacity: 1;" d="M 637.95706,-50.23477 C 636.59113,-47.23629 638.08996,-46.80399 641.01511,-47.23738 C 641.91368,-46.84177 643.77952,-49.21044 643.34982,-50.66416 C 641.13183,-52.10095 639.0859,-51.84018 637.95706,-50.23477 z" id="path3724" sodipodi:nodetypes="cccc"/>
      <path style="fill: rgb(255, 255, 255); fill-rule: evenodd; stroke: rgb(51, 51, 51); stroke-width: 1px; stroke-linecap: butt; stroke-linejoin: miter; stroke-opacity: 1;" d="M 631.14012,-51.73477 C 628.7864,-51.2062 628.94067,-51.23434 629.399,-48.5606 C 632.73508,-45.75239 636.02517,-48.93658 631.14012,-51.73477 z" id="path3726" sodipodi:nodetypes="ccc"/>
      <path style="fill: rgb(255, 204, 170); fill-opacity: 1; fill-rule: evenodd; stroke: rgb(63, 45, 16); stroke-width: 1px; stroke-linecap: butt; stroke-linejoin: miter; stroke-opacity: 1;" d="M 634.024,-46.1856 C 633.39745,-42.57231 631.67377,-45.18525 631.78288,-41.09353 C 631.66423,-39.13093 635.84198,-38.90467 636.149,-41.0606" id="path3728" sodipodi:nodetypes="ccc"/>
      <path style="fill: rgb(255, 204, 170); fill-opacity: 1; fill-rule: evenodd; stroke: rgb(63, 45, 16); stroke-width: 1px; stroke-linecap: butt; stroke-linejoin: miter; stroke-opacity: 1;" d="M 653.39899,-49.3106 C 659.26237,-51.64012 658.2292,-42.95643 653.89899,-43.8106" id="path3730" sodipodi:nodetypes="cc"/>
      <path style="fill: rgb(255, 204, 170); fill-opacity: 1; fill-rule: evenodd; stroke: rgb(63, 45, 16); stroke-width: 1px; stroke-linecap: butt; stroke-linejoin: miter; stroke-opacity: 1;" d="M 654.52399,-47.9356 C 655.37507,-49.42854 657.61648,-46.75581 654.52399,-45.3106" id="path3732" sodipodi:nodetypes="cs"/>
      <path style="fill: none; fill-rule: evenodd; stroke: rgb(63, 45, 16); stroke-width: 1px; stroke-linecap: butt; stroke-linejoin: miter; stroke-opacity: 1;" d="M 632.649,-34.0606 C 632.40334,-34.10666 635.60571,-32.03526 639.06169,-34.1375" id="path3734" sodipodi:nodetypes="cc"/>
      <path style="fill: rgb(0, 0, 0); fill-rule: evenodd; stroke: rgb(0, 0, 0); stroke-width: 1px; stroke-linecap: butt; stroke-linejoin: miter; stroke-opacity: 1;" d="M 640.17044,-49.45705 C 640.55698,-49.8137 638.91843,-50.10422 639.04544,-48.08205 C 639.14388,-46.5147 640.78831,-47.01651 641.42044,-47.45705 C 642.69005,-48.34185 640.78282,-49.76975 640.17044,-49.45705 z" id="path3736" sodipodi:nodetypes="cssc"/>
      <path style="fill: rgb(0, 0, 0); fill-rule: evenodd; stroke: rgb(0, 0, 0); stroke-width: 1px; stroke-linecap: butt; stroke-linejoin: miter; stroke-opacity: 1;" d="M 631.43561,-49.67932 C 631.89295,-50.62803 629.63344,-50.61698 630.31061,-48.42932 C 630.77795,-46.91952 632.4697,-47.81105 632.56061,-47.92932 C 633.49095,-49.13968 632.50711,-51.03156 631.43561,-49.67932 z" id="path3738" sodipodi:nodetypes="cssc"/>
      <path style="fill: none; fill-rule: evenodd; stroke: rgb(14, 3, 0); stroke-width: 1px; stroke-linecap: butt; stroke-linejoin: miter; stroke-opacity: 1;" d="M 641.12313,42.00176 C 644.25144,42.67262 647.64625,43.01965 650.0718,42.05982 C 652.98732,41.67391 655.58775,41.06931 658.27047,38.20106" id="path3748" sodipodi:nodetypes="ccc"/>
      <path sodipodi:nodetypes="cc" id="path2586" d="M 634.25,-10 C 636.62736,-5.76093 638.70005,-5.48272 640.75,-5.5" style="fill: none; fill-rule: evenodd; stroke: rgb(63, 45, 16); stroke-width: 1px; stroke-linecap: butt; stroke-linejoin: miter; stroke-opacity: 1;"/>
      <path sodipodi:nodetypes="cc" id="path2588" d="M 645.625,-5.375 C 648.49289,-5.61888 651.21532,-6.59007 653.75,-8.5" style="fill: none; fill-opacity: 1; fill-rule: evenodd; stroke: rgb(63, 45, 16); stroke-width: 1px; stroke-linecap: butt; stroke-linejoin: miter; stroke-opacity: 1;"/>
      <path sodipodi:nodetypes="cc" id="path2592" d="M 641.5,-22.375 C 642.30199,-22.10398 643.4293,-22.4836 643.625,-21" style="fill: none; fill-rule: evenodd; stroke: rgb(63, 45, 16); stroke-width: 1px; stroke-linecap: butt; stroke-linejoin: miter; stroke-opacity: 1;"/>
      <path sodipodi:nodetypes="cc" id="path2594" d="M 646.5,-20.625 C 645.16518,-21.01061 646.07383,-21.78639 652.375,-23.5" style="fill: none; fill-rule: evenodd; stroke: rgb(63, 45, 16); stroke-width: 1px; stroke-linecap: butt; stroke-linejoin: miter; stroke-opacity: 1;"/>
      <path sodipodi:nodetypes="cc" id="path2596" d="M 643.47651,1.05872 C 642.58591,-0.8799 646.28561,-0.6635 644.97911,0.79356" style="fill: none; fill-rule: evenodd; stroke: rgb(63, 45, 16); stroke-width: 1px; stroke-linecap: butt; stroke-linejoin: miter; stroke-opacity: 1;"/>
      <path style="fill: none; fill-rule: evenodd; stroke: rgb(63, 45, 16); stroke-width: 1px; stroke-linecap: butt; stroke-linejoin: miter; stroke-opacity: 1;" d="M 649.78896,-9.90653 C 647.93205,-10.95691 651.05824,-12.94727 650.85196,-11.00113" id="path2598" sodipodi:nodetypes="cc"/>
      <path sodipodi:nodetypes="cc" id="path2600" d="M 636.41681,-11.51093 C 637.20681,-13.49267 639.60109,-10.66389 637.64493,-10.60548" style="fill: none; fill-rule: evenodd; stroke: rgb(63, 45, 16); stroke-width: 1px; stroke-linecap: butt; stroke-linejoin: miter; stroke-opacity: 1;"/>
      <path sodipodi:nodetypes="ccccc" id="path2616" d="M 664,-55.5 C 664.12254,-53.55453 664.85836,-51.57063 665.875,-49.875 C 667.83212,-48.81836 669.78584,-47.56889 672,-47 C 672.03966,-49.43092 669.90544,-51.57072 668.5,-53.625 C 667.19557,-55.00517 665.77988,-55.26033 664,-55.5 z" style="fill: rgb(0, 108, 169); fill-opacity: 1; fill-rule: evenodd; stroke: rgb(0, 50, 80); stroke-width: 1px; stroke-linecap: butt; stroke-linejoin: miter; stroke-opacity: 1;"/>
      <path sodipodi:nodetypes="ccccc" id="path2612" d="M 658.375,-55.25 C 659.16201,-52.71231 662.26719,-53.47075 664.625,-54 C 665.63519,-54.33673 666.25,-56.0852 666.25,-57 C 665.69215,-58.31063 664.34273,-59.15641 663.375,-60.25 C 662.68664,-60.93836 659.70118,-58.54571 659,-58.125" style="fill: rgb(0, 108, 169); fill-opacity: 1; fill-rule: evenodd; stroke: rgb(0, 50, 80); stroke-width: 1px; stroke-linecap: butt; stroke-linejoin: miter; stroke-opacity: 1;"/>
      <path sodipodi:nodetypes="ccscc" id="path2602" d="M 630,-62 L 628.5,-56.75 C 627.89692,-54.13664 661.98834,-51.94949 663,-53.875 C 663.31309,-54.4709 662.25,-59.5 662.25,-59.5 C 651.40428,-56.86042 640.51278,-58.64674 630,-62 z" style="fill: rgb(0, 108, 169); fill-opacity: 1; fill-rule: evenodd; stroke: rgb(0, 50, 80); stroke-width: 1px; stroke-linecap: butt; stroke-linejoin: miter; stroke-opacity: 1;"/>
      <path sodipodi:nodetypes="ccccc" id="path2614" d="M 664.75,-58 C 667.11787,-60.41698 669.54952,-61.12264 672.75,-60.375 C 674.81341,-58.52594 675.96023,-56.18361 678.25,-54.5 C 675.50065,-53.48151 672.21049,-55.46235 669.5,-56.5 C 667.87838,-56.88512 666.34108,-57.52759 664.75,-58 z" style="fill: rgb(0, 108, 169); fill-opacity: 1; fill-rule: evenodd; stroke: rgb(0, 50, 80); stroke-width: 1px; stroke-linecap: butt; stroke-linejoin: miter; stroke-opacity: 1;"/>
      <path sodipodi:nodetypes="ccccc" id="path2618" d="M 599.875,-50.125 L 596.625,-49 C 597.88115,-35.05387 601.11897,-21.53854 610,-9.25 L 613.625,-10.125 C 605.875,-22.45833 601.29167,-35.79167 599.875,-50.125 z" style="fill: rgb(204, 204, 204); fill-rule: evenodd; stroke: rgb(128, 128, 128); stroke-width: 1px; stroke-linecap: butt; stroke-linejoin: miter; stroke-opacity: 1;"/>
      <path sodipodi:nodetypes="cccsccccc" id="path2620" d="M 617.5,-12.5 C 617,-12.5 606.375,-7.875 606.375,-7.875 L 607.5,-6.625 C 607.5,-6.625 611.25,-8.375 611.375,-7.5 C 611.5,-6.625 616,1.25 616,1.25 L 618.75,-0.125 L 614.875,-9.5 L 618,-10.75 L 617.5,-12.5 z" style="fill: rgb(51, 51, 51); fill-rule: evenodd; stroke: rgb(0, 0, 0); stroke-width: 1px; stroke-linecap: butt; stroke-linejoin: miter; stroke-opacity: 1;"/>
    </g>
    <g transform="translate(-437.461, -364.586)" id="g2996"/>
    <g id="g2998" transform="translate(-502.461, -376.586)"/>
    <g id="g3779" transform="translate(-272.881, -452.586)"/>
    <g id="g3109" transform="translate(-175.881, -517.586)"/>
    <g transform="translate(-332.117, -812.262)" id="g4449"/>
    <g id="g4451" transform="translate(-397.117, -824.262)"/>
    <g id="g4524" transform="translate(-357.208, -785.262)"/>
    <g id="g3922" transform="translate(-48.5377, -864.262)"/>
    <g transform="translate(-242.538, -901.262)" id="g4629"/>
    <g transform="translate(-428.095, -539.518)" id="g3869"/>
    <g id="g3871" transform="translate(-493.095, -551.518)"/>
    <g id="g3959" transform="translate(-328.516, -650.518)"/>
    <g id="g2979" inkscape:label="Layer 1" transform="translate(79.8541, -427.73)"/>
    <g id="g4951" transform="translate(540.029, -499.142)"/>
    <g transform="translate(-485.988, -406.094)" id="g4625"/>
    <g id="g4627" transform="translate(-550.988, -418.094)"/>
    <g id="g4690" transform="translate(-696.409, -397.094)"/>
    <g transform="translate(-320.238, -410.677)" id="g5403"/>
    <g id="g5405" transform="translate(-385.238, -422.677)"/>
    <g transform="matrix(1.27524, 0, 0, 1.27524, -318.051, -610.543)" id="g5523"/>
    <g transform="translate(-536.82, -1269.64)" id="g6346"/>
    <g id="g6377" transform="translate(-601.82, -1281.64)"/>
    <g id="g2803" transform="translate(-483.912, -1315.64)"/>
    <g transform="translate(-545.104, 252.412)" id="g7732"/>
    <g id="g7734" transform="translate(-610.104, 240.412)"/>
    <g id="g7797" transform="translate(-755.525, 261.412)"/>
    <g id="g2837" transform="translate(133.068, -211.059)"/>
  </g>
</svg>