<?xml version="1.0" encoding="UTF-8" standalone="no"?>
<!-- Created with Inkscape (http://www.inkscape.org/) -->
<svg
   xmlns:dc="http://purl.org/dc/elements/1.1/"
   xmlns:cc="http://creativecommons.org/ns#"
   xmlns:rdf="http://www.w3.org/1999/02/22-rdf-syntax-ns#"
   xmlns:svg="http://www.w3.org/2000/svg"
   xmlns="http://www.w3.org/2000/svg"
   xmlns:sodipodi="http://sodipodi.sourceforge.net/DTD/sodipodi-0.dtd"
   xmlns:inkscape="http://www.inkscape.org/namespaces/inkscape"
   width="128"
   height="128"
   id="svg2"
   sodipodi:version="0.32"
   inkscape:version="0.46"
   version="1.0"
   sodipodi:docname="countdown-01.svg"
   inkscape:output_extension="org.inkscape.output.svg.inkscape">
  <defs
     id="defs4">
    <filter
       inkscape:collect="always"
       id="filter3443"
       x="-0.12513924"
       width="1.2502785"
       y="-0.32663372"
       height="1.6532674">
      <feGaussianBlur
         inkscape:collect="always"
         stdDeviation="1.9634296"
         id="feGaussianBlur3445" />
    </filter>
  </defs>
  <sodipodi:namedview
     id="base"
     pagecolor="#ffffff"
     bordercolor="#666666"
     borderopacity="1.0"
     gridtolerance="10000"
     guidetolerance="10"
     objecttolerance="10"
     inkscape:pageopacity="0.0"
     inkscape:pageshadow="2"
     inkscape:zoom="1"
     inkscape:cx="64"
     inkscape:cy="64"
     inkscape:document-units="px"
     inkscape:current-layer="layer1"
     showgrid="false"
     inkscape:window-width="1538"
     inkscape:window-height="961"
     inkscape:window-x="127"
     inkscape:window-y="31" />
  <metadata
     id="metadata7">
    <rdf:RDF>
      <cc:Work
         rdf:about="">
        <dc:format>image/svg+xml</dc:format>
        <dc:type
           rdf:resource="http://purl.org/dc/dcmitype/StillImage" />
      </cc:Work>
    </rdf:RDF>
  </metadata>
  <g
     inkscape:label="Layer 1"
     inkscape:groupmode="layer"
     id="layer1">
    <path
       style="fill:#000000;fill-opacity:0.72839505;fill-rule:evenodd;stroke:none;stroke-width:1px;stroke-linecap:butt;stroke-linejoin:miter;stroke-opacity:1;filter:url(#filter3443)"
       d="M 60.83461,110.98332 C 58.96259,111.58873 54.72102,110.34443 51.93954,109.64906 C 49.58305,109.05994 47.21218,110.8184 46.15775,111.87283 C 44.74444,113.28614 44.43235,116.09008 44.82349,117.65462 C 45.65543,120.98239 50.20584,120.75883 52.3843,120.32314 C 54.39206,119.92159 56.62858,121.60659 58.61084,122.10215 C 60.88717,122.67124 62.87376,122.99166 65.72689,122.99166 C 68.6267,122.99166 70.41085,124.43009 73.2877,122.99166 C 75.51879,121.87612 77.57841,122.21977 79.51425,120.76789 C 81.02661,119.63362 81.74065,117.64406 82.18277,115.87561 C 82.9666,112.74028 80.30614,112.26877 78.62474,111.42808 C 76.46374,110.34758 72.71837,111.01447 71.06393,111.42808 C 69.29065,111.8714 67.74791,109.20431 65.28214,109.20431 C 63.28279,109.20431 64.22272,110.98332 60.83461,110.98332 z"
       id="path2651" />
    <path
       style="fill:#e6e6e6;fill-rule:evenodd;stroke:#333333;stroke-width:1px;stroke-linecap:butt;stroke-linejoin:miter;stroke-opacity:1"
       d="M 59.60174,109.09096 C 56.42592,109.71509 53.81277,110.31198 51.11646,112.27294 C 50.5163,112.99187 50.54353,113.68568 50.58613,114.57104 C 50.82342,115.33508 51.0968,116.08341 51.29323,116.86914 C 54.04536,117.12614 57.08559,118.77461 59.95966,117.84921 C 62.97836,117.88778 66.02951,116.83077 68.52896,115.01298 C 69.10645,113.30345 68.48659,110.98557 68.35218,109.09096 C 65.5682,109.96581 62.40353,109.82408 59.60174,109.09096 z"
       id="path2637"
       sodipodi:nodetypes="cccccccc" />
    <path
       style="fill:none;fill-rule:evenodd;stroke:#333333;stroke-width:1px;stroke-linecap:butt;stroke-linejoin:miter;stroke-opacity:1"
       d="M 51.29323,115.36653 C 54.54463,114.81031 57.79462,116.94392 61.18002,116.4906 C 64.32375,116.3866 65.9551,114.10188 68.2638,113.95232"
       id="path2639"
       sodipodi:nodetypes="ccc" />
    <path
       style="fill:#e6e6e6;fill-rule:evenodd;stroke:#333333;stroke-width:1px;stroke-linecap:butt;stroke-linejoin:miter;stroke-opacity:1"
       d="M 70.82706,109.62129 C 68.29651,110.97338 64.48773,111.66542 61.98822,113.77554 C 61.5613,114.6745 61.5786,115.71376 61.45789,116.69236 C 61.60202,117.98615 62.36333,118.80422 63.31405,119.60917 C 65.88069,120.60205 68.74276,119.8276 71.35739,119.34401 C 73.65203,119.26353 76.35792,118.73746 77.95619,116.98785 C 80.42602,114.67802 80.01186,112.48483 79.75428,109.26774 C 76.77869,109.49322 73.8105,109.62129 70.82706,109.62129 z"
       id="path2641"
       sodipodi:nodetypes="cccccccc" />
    <path
       style="fill:#1a1a1a;fill-opacity:1;fill-rule:evenodd;stroke:#000000;stroke-width:1px;stroke-linecap:butt;stroke-linejoin:miter;stroke-opacity:1"
       d="M 61.90587,53.551476 C 58.841,55.940116 56.61527,58.83313 54.95327,62.284983 C 53.15655,64.632231 51.36458,66.694317 50.62545,69.615413 C 54.44797,70.91379 58.53491,70.699349 62.35394,71.787076 C 64.80828,67.306585 65.24042,62.069754 66.04506,57.096966"
       id="path2593"
       sodipodi:nodetypes="ccccc" />
    <path
       style="fill:#00325c;fill-opacity:1;fill-rule:evenodd;stroke:#00192e;stroke-width:1px;stroke-linecap:butt;stroke-linejoin:miter;stroke-opacity:1"
       d="M 70.66574,87.47098 C 70.52058,88.25001 69.02611,89.64784 69.29074,90.97098 C 69.49404,91.98747 68.92354,93.25216 69.16574,94.22098 C 68.68443,96.76629 68.34497,99.07827 68.16574,101.59598 C 68.68083,103.80473 70.02911,107.79408 71.54074,109.34598 C 74.17073,111.33375 78.20554,111.24081 79.66574,108.72098 C 79.41548,107.71995 79.60591,107.12304 79.16574,106.09598 C 75.86748,103.46274 73.45745,100.07562 78.04074,96.97098 C 80.5331,92.26706 79.71155,89.879292 79.54074,86.09598 C 77.37337,85.29511 72.03382,85.87489 70.66574,87.47098 z"
       id="path2633"
       sodipodi:nodetypes="cscccccccc" />
    <path
       id="path2635"
       d="M 59.54074,87.34598 C 59.39558,88.12501 58.65111,90.14784 58.91574,91.47098 C 59.8592,94.26605 57.36476,97.00211 56.66574,99.84598 C 56.68167,102.63564 58.41852,107.17055 60.41574,109.22098 C 63.26131,110.34799 66.12205,111.06625 68.54074,108.59598 C 67.29521,104.7442 63.94722,101.48258 64.54074,97.47098 C 64.56962,93.67051 71.68415,90.54122 71.54074,86.72098 C 69.37337,85.92011 60.90882,85.74989 59.54074,87.34598 z"
       style="fill:#00325c;fill-opacity:1;fill-rule:evenodd;stroke:#00192e;stroke-width:1px;stroke-linecap:butt;stroke-linejoin:miter;stroke-opacity:1"
       sodipodi:nodetypes="cccccccc" />
    <path
       style="fill:#1a1a1a;fill-opacity:1;fill-rule:evenodd;stroke:#000000;stroke-width:1px;stroke-linecap:butt;stroke-linejoin:miter;stroke-opacity:1"
       d="M 81.83479,92.695275 C 79.54369,88.874298 82.18491,84.013121 83.09596,80.138722 C 82.57633,75.058306 86.47772,70.268505 86.13151,65.21435 C 86.10662,62.073957 85.47898,59.160515 84.31433,56.260026 C 82.88672,53.620244 80.72026,51.926164 77.74319,51.347414 C 73.81582,51.365078 70.00576,50.294793 66.06745,50.58362 C 63.07436,51.410255 60.84319,53.166413 60.09781,56.164344 C 59.57199,58.891451 59.40542,61.392491 57.78003,63.691567 C 56.77143,68.044438 54.67443,72.311782 54.66764,76.819564 C 54.82373,82.087098 52.31764,83.884548 52.15975,89.093557 C 56.95761,87.182771 62.16558,91.828097 67.28397,91.978907 C 71.72412,91.067765 78.75845,95.527613 81.83479,92.695275 z"
       id="path2581"
       sodipodi:nodetypes="cccccccccccc" />
    <path
       style="fill:#e9d2af;fill-opacity:1;fill-rule:evenodd;stroke:#3f2d10;stroke-width:1px;stroke-linecap:butt;stroke-linejoin:miter;stroke-opacity:1"
       d="M 59.98637,11.970023 C 49.55896,12.669568 45.93762,19.847414 46.45127,28.8024 C 46.58781,30.673583 47.72143,34.293138 48.32047,36.114052 C 48.37113,39.781842 47.66768,42.607502 49.0057,46.093697 C 50.62725,51.045544 54.21072,53.482867 59.16961,54.214345 C 63.49502,53.813203 69.20912,51.917309 72.23449,48.652558 C 76.60514,44.509942 77.53479,37.970221 78.83414,32.218759 C 79.04973,26.799776 76.06799,21.862696 74.1758,16.960976 C 71.64989,11.630351 65.1278,10.82294 59.98637,11.970023 z"
       id="path2550"
       sodipodi:nodetypes="ccccccccc" />
    <path
       style="fill:#28170b;fill-rule:evenodd;stroke:#120a04;stroke-width:1px;stroke-linecap:butt;stroke-linejoin:miter;stroke-opacity:1"
       d="M 47.10159,20.000126 C 45.74088,10.210741 72.33204,5.005147 74.30024,12.68016 C 81.87884,12.708898 83.32563,32.011872 81.93841,38.792119 C 74.15745,39.280284 77.54298,29.977331 72.85778,28.046453 C 70.89676,27.705518 70.36093,29.228932 68.72932,29.76569 C 65.04409,27.760036 68.09625,20.53906 62.23833,18.541068 C 59.54579,19.864741 56.15557,21.851748 53.07033,19.210079 C 50.61113,19.389532 49.25696,20.684999 47.10159,20.000126 z"
       id="path2554"
       sodipodi:nodetypes="cccccccc" />
    <path
       style="fill:#28170b;fill-rule:evenodd;stroke:#120a04;stroke-width:1px;stroke-linecap:butt;stroke-linejoin:miter;stroke-opacity:1"
       d="M 80.71612,37.478994 C 79.14076,37.593952 82.26325,43.005041 82.61549,44.075774 C 83.16151,45.735557 86.40267,47.995001 87.61119,49.383118 C 88.63767,50.562138 92.57238,49.083944 93.57993,48.593075 C 95.27555,47.766968 97.37891,48.571472 98.24112,49.316416 C 100.93161,51.64094 99.16473,48.085433 98.41363,46.822368 C 97.8237,45.830351 95.37054,44.616952 94.30327,43.93187 C 92.48898,42.767283 92.03022,41.307229 90.46834,39.957792 C 88.97773,38.669932 87.31106,38.770217 85.42879,38.90757 C 84.25295,38.993374 82.17503,37.661651 80.71612,37.478994 z"
       id="path2556" />
    <path
       style="fill:#e9d2af;fill-opacity:1;fill-rule:evenodd;stroke:#3f2d10;stroke-width:1px;stroke-linecap:butt;stroke-linejoin:miter;stroke-opacity:1"
       d="M 63.23528,54.48876 C 64.974,59.07325 73.5874,57.56198 76.64061,53.19954 C 75.42253,50.72212 74.55975,47.74674 71.89061,46.44954 C 69.62385,46.19074 67.42382,46.82102 65.26561,47.44954 C 63.52742,48.80515 62.84644,52.74751 63.23528,54.48876 z"
       id="path2619"
       sodipodi:nodetypes="ccccc" />
    <path
       style="fill:#28170b;fill-rule:evenodd;stroke:#120a04;stroke-width:1px;stroke-linecap:butt;stroke-linejoin:miter;stroke-opacity:1"
       d="M 48.29106,52.514315 C 49.0407,53.774919 50.429,54.488954 52.09227,54.367582 C 54.76692,54.93171 57.38715,55.922099 60.05985,56.63748 C 63.54664,57.267246 65.91324,55.338302 68.29918,53.184926 C 72.40085,50.669991 76.54355,46.596297 77.07373,41.609377 C 77.17259,39.529115 76.36107,39.593397 75.20556,40.053715 C 73.38701,42.202184 71.08018,44.500658 68.477,45.746006 C 65.15237,46.958184 62.49527,47.60154 61.25128,43.766637 C 59.88923,40.614577 56.18545,39.951304 53.13132,39.408541 C 46.73769,39.598285 45.95375,48.014408 48.29106,52.514315 z M 53.35556,43.340148 C 56.33633,41.817011 63.32219,49.259375 57.74203,49.349341 C 55.35061,48.742166 54.75479,47.266425 53.50945,49.313538 C 48.67119,51.174346 50.1689,44.822289 53.35556,43.340148 z"
       id="path2558"
       sodipodi:nodetypes="cccccccccccccc" />
    <path
       style="fill:#ffffff;fill-rule:evenodd;stroke:#333333;stroke-width:1px;stroke-linecap:butt;stroke-linejoin:miter;stroke-opacity:1"
       d="M 55.63514,28.635242 C 54.49106,31.725182 55.6731,33.40173 58.55896,32.756603 C 59.48394,33.085768 61.19157,30.763435 60.65721,29.344847 C 60.69379,25.427647 57.31213,25.589446 55.63514,28.635242 z"
       id="path2565"
       sodipodi:nodetypes="cccc" />
    <path
       style="fill:#ffffff;fill-rule:evenodd;stroke:#333333;stroke-width:1px;stroke-linecap:butt;stroke-linejoin:miter;stroke-opacity:1"
       d="M 49.5055,27.077219 C 47.19649,27.775696 46.22564,29.64901 46.87735,32.282296 C 49.9527,37.089145 54.58124,29.512466 49.5055,27.077219 z"
       id="path2567"
       sodipodi:nodetypes="ccc" />
    <path
       style="fill:#e9d2af;fill-opacity:1;fill-rule:evenodd;stroke:#3f2d10;stroke-width:1px;stroke-linecap:butt;stroke-linejoin:miter;stroke-opacity:1"
       d="M 53.26914,30.562548 C 53.0301,32.996971 50.78457,34.285993 49.62544,35.591067 C 49.1826,38.305306 49.70516,40.191278 52.65927,39.380322 C 54.68263,38.254422 55.40565,36.578945 55.55495,34.406383"
       id="path2569"
       sodipodi:nodetypes="cccc" />
    <path
       style="fill:#e9d2af;fill-opacity:1;fill-rule:evenodd;stroke:#3f2d10;stroke-width:1px;stroke-linecap:butt;stroke-linejoin:miter;stroke-opacity:1"
       d="M 70.75911,29.787593 C 76.4374,27.037523 76.03896,35.77338 71.65807,35.236618"
       id="path2571"
       sodipodi:nodetypes="cc" />
    <path
       style="fill:#e9d2af;fill-opacity:1;fill-rule:evenodd;stroke:#3f2d10;stroke-width:1px;stroke-linecap:butt;stroke-linejoin:miter;stroke-opacity:1"
       d="M 71.9812,31.077071 C 72.72137,29.526156 75.15135,32.028665 72.17224,33.695109"
       id="path2573"
       sodipodi:nodetypes="cs" />
    <path
       style="fill:none;fill-rule:evenodd;stroke:#3f2d10;stroke-width:1px;stroke-linecap:butt;stroke-linejoin:miter;stroke-opacity:1"
       d="M 51.94023,46.702069 C 52.59936,46.484996 54.99837,45.548513 57.30098,46.310883"
       id="path2575"
       sodipodi:nodetypes="cc" />
    <path
       style="fill:#000000;fill-rule:evenodd;stroke:#000000;stroke-width:1px;stroke-linecap:butt;stroke-linejoin:miter;stroke-opacity:1"
       d="M 58.10666,30.085277 C 58.46622,29.701442 56.16024,29.202426 56.43408,31.209988 C 56.64633,32.766017 58.5629,33.000343 59.16129,32.514966 C 60.36314,31.540106 58.69466,29.728834 58.10666,30.085277 z"
       id="path2577"
       sodipodi:nodetypes="cssc" />
    <path
       style="fill:#000000;fill-rule:evenodd;stroke:#000000;stroke-width:1px;stroke-linecap:butt;stroke-linejoin:miter;stroke-opacity:1"
       d="M 49.252377,30.787858 C 49.639467,29.808379 47.067337,30.759147 47.901917,32.891723 C 48.477897,34.363502 50.063267,33.316485 50.182337,33.226644 C 51.779237,32.021866 50.222637,29.361217 49.252377,30.787858 z"
       id="path2579"
       sodipodi:nodetypes="cssc" />
    <path
       style="fill:none;fill-rule:evenodd;stroke:#333333;stroke-width:1px;stroke-linecap:butt;stroke-linejoin:miter;stroke-opacity:1"
       d="M 62.165,117.75302 C 65.29331,118.42388 68.68812,118.77091 71.11367,117.81108 C 74.02919,117.42517 76.62962,116.82057 79.31234,113.95232"
       id="path2643"
       sodipodi:nodetypes="ccc" />
    <g
       id="g3779"
       transform="translate(-101,-22)" />
    <path
       style="fill:#666666;fill-opacity:1;fill-rule:evenodd;stroke:#333333;stroke-width:1px;stroke-linecap:butt;stroke-linejoin:miter;stroke-opacity:1"
       d="M 42.942023,58.332133 C 52.853033,59.233707 68.839705,61.420446 77.028347,66.463861 C 78.077766,68.33954 78.859692,70.300095 78.084505,72.297492 C 75.600237,80.097733 76.373751,88.417261 72.592466,95.808793 C 71.498513,97.620364 70.333511,98.132093 67.94535,98.10689 C 58.432591,95.749275 44.968906,94.153703 35.41556,91.212599 C 33.689735,90.181718 33.061644,88.678275 32.880771,86.969958 C 33.101945,77.97748 35.767993,69.087246 38.471683,60.453454 C 39.627222,58.952567 40.837916,58.432506 42.942023,58.332133 z"
       id="path2411"
       sodipodi:nodetypes="ccccccccc" />
    <path
       style="fill:none;fill-rule:evenodd;stroke:#333333;stroke-width:1px;stroke-linecap:butt;stroke-linejoin:miter;stroke-opacity:1"
       d="M 38.714396,61.16056 C 39.221096,60.313408 42.35532,60.807007 43.66415,60.807007 C 50.28329,62.076046 67.086394,64.807612 73.185854,67.878075 C 74.840574,68.994476 74.861004,70.304256 74.423284,72.120716 C 73.790074,80.828982 71.961454,89.473505 69.473544,97.753337"
       id="path3185"
       sodipodi:nodetypes="ccccc" />
    <path
       style="fill:#e9d2af;fill-opacity:1;fill-rule:evenodd;stroke:#3f2d10;stroke-width:1px;stroke-linecap:butt;stroke-linejoin:miter;stroke-opacity:1"
       d="M 91.125,67 C 94.30177,70.486714 95.12558,74.062929 94.125,78.75 C 93.90939,79.612458 93.57862,80.217764 93.25,80.875 C 93.10579,81.163425 92.09565,81.507339 91.625,81.625 C 90.8966,81.807099 90.30627,81.875 89.5,81.875 C 86.86682,80.141832 84.67347,77.167386 84.25,74 C 83.01332,69.264325 87.17331,61.228409 91.125,67 z"
       id="path3189"
       sodipodi:nodetypes="ccssccc" />
    <path
       style="fill:#1a1a1a;fill-opacity:1;fill-rule:evenodd;stroke:#000000;stroke-width:1px;stroke-linecap:butt;stroke-linejoin:miter;stroke-opacity:1"
       d="M 76.84091,61.652349 C 77.55514,64.094089 78.71758,66.212011 80.06893,68.333853 C 81.27981,70.548356 82.04323,72.918523 82.65008,75.351254 C 86.63645,73.942196 90.60462,71.180655 94.38346,68.920181 C 93.47455,67.008437 92.44897,65.163411 91.57332,63.22945 C 90.28749,60.715084 87.78784,59.663489 86.06083,57.63762 C 84.14502,55.970215 81.96535,55.486354 79.68138,56.795613"
       id="path2585"
       sodipodi:nodetypes="ccccccc" />
    <path
       style="fill:#ffdd55;fill-rule:evenodd;stroke:#333333;stroke-width:1px;stroke-linecap:butt;stroke-linejoin:miter;stroke-opacity:1"
       d="M 39.605119,65.579978 C 37.498956,71.380971 38.589538,75.364469 37.130245,81.313104 C 37.022058,83.292636 37.820732,84.71198 39.428342,85.732521 C 47.516515,88.678657 56.324817,89.520981 64.884186,90.859045 C 66.853132,90.821591 68.335898,89.882577 68.95005,88.030618 C 71.261663,82.87695 70.000429,79.392259 70.894595,73.888483 C 71.639821,71.262607 71.066187,70.467831 68.596498,69.469065 C 60.837777,66.133887 52.453339,65.270737 44.37809,62.751551 C 41.109299,62.187034 40.829283,62.810002 39.605119,65.579978 z"
       id="path2421"
       sodipodi:nodetypes="ccccccccc" />
    <path
       style="fill:#e9d2af;fill-opacity:1;fill-rule:evenodd;stroke:#3f2d10;stroke-width:0.99999994px;stroke-linecap:butt;stroke-linejoin:miter;stroke-opacity:1"
       d="M 88.054965,78.130758 C 84.438171,79.156769 84.852077,82.295358 83.090544,84.581451 C 80.91552,87.073553 78.497406,88.17616 75.254217,88.896054 C 73.684027,88.761885 74.448076,85.604925 72.669789,86.00777 C 71.782463,87.153073 71.864426,89.32851 72.421476,90.565808 C 70.389634,91.0136 67.529584,92.034084 67.100016,94.796123 C 68.347104,95.340302 70.46528,93.675113 71.628744,93.151172 C 70.603206,94.166505 67.778823,96.178009 70.390168,97.531082 C 71.980891,97.924296 72.536355,95.376338 73.712533,94.51534 C 73.121667,96.352598 69.143758,98.500016 72.193223,97.796802 C 73.255503,97.108364 75.840572,95.723658 76.192678,94.586832 C 77.066303,93.651802 78.383019,93.162319 79.509325,92.521524 C 82.60375,92.050208 84.737695,89.765924 87.391993,88.18403 C 89.564977,86.400959 92.324966,85.315383 93.207607,82.615838 C 93.766897,81.607237 93.960923,79.012573 94.225936,77.937407"
       id="path2645"
       sodipodi:nodetypes="ccccccccccccccc" />
    <path
       style="fill:#e9d2af;fill-opacity:1;fill-rule:evenodd;stroke:#3f2d10;stroke-width:1px;stroke-linecap:butt;stroke-linejoin:miter;stroke-opacity:1"
       d="M 32.75,71.625 C 32.903925,72.114625 31.448764,70.425767 31,72.375 C 30.56096,73.157401 30.123929,74.155885 31.375,74.5 C 28.59461,77.049365 32.167117,78.602089 34.5,79.25 C 36.09744,79.354081 36.77541,79.261028 37.375,77.875 C 36.75676,76.748645 35.448289,76.346832 34.375,75.375 C 35.38873,76.001285 38.14718,78.1672 38.5,76.3125 C 39.5652,74.78521 36.9651,73.487676 35.625,73 C 36.57841,73.083487 37.58552,74.415844 38.75,73 C 39.07092,71.53113 38.21828,70.906876 37.125,70.125 C 35.22866,69.296666 32.164106,68.684786 32.75,71.625 z"
       id="path3191"
       sodipodi:nodetypes="ccccccccccc" />
    <path
       style="fill:#bbc9d3;fill-opacity:1;fill-rule:evenodd;stroke:#274166;stroke-width:1px;stroke-linecap:butt;stroke-linejoin:miter;stroke-opacity:1"
       d="M 66.99489,20.871321 C 66.02494,23.698721 64.29341,26.652906 64.69668,29.474038 C 65.93968,31.997555 68.54157,31.435912 70.05917,29.474038 C 71.0097,26.33929 69.12297,23.905942 66.99489,20.871321 z"
       id="path3216"
       sodipodi:nodetypes="cccc" />
    <path
       style="fill:none;fill-rule:evenodd;stroke:#333333;stroke-width:1px;stroke-linecap:butt;stroke-linejoin:miter;stroke-opacity:1"
       d="M 63.220568,92.31935 C 62.877654,92.092576 61.438435,92.003722 60.622463,91.799729 C 59.638839,91.553823 59.581451,93.019258 59.410014,93.705007 C 59.096118,94.96059 59.802401,94.917456 60.79567,94.917456 C 61.786278,94.917456 62.393689,95.273659 63.047361,95.437077 C 63.429861,95.532702 63.848256,93.684295 63.913397,93.358593 C 63.995047,92.95034 63.451511,92.665764 63.220568,92.31935 z"
       id="path2429" />
    <path
       id="path2431"
       d="M 55.253044,91.280108 C 54.91013,91.053334 38.748313,87.327132 37.932341,87.123139 C 36.948717,86.877233 36.891329,88.342668 36.719892,89.028417 C 36.405996,90.284 37.112279,90.240866 38.105548,90.240866 C 39.096156,90.240866 54.426165,94.234417 55.079837,94.397835 C 55.462337,94.49346 55.880732,92.645053 55.945873,92.319351 C 56.027523,91.911098 55.483987,91.626522 55.253044,91.280108 z"
       style="fill:none;fill-rule:evenodd;stroke:#333333;stroke-width:1px;stroke-linecap:butt;stroke-linejoin:miter;stroke-opacity:1"
       sodipodi:nodetypes="csssssc" />
  </g>
</svg>
