<?xml version="1.0" encoding="UTF-8" standalone="no"?>
<!-- Created with Inkscape (http://www.inkscape.org/) -->
<svg
   xmlns:dc="http://purl.org/dc/elements/1.1/"
   xmlns:cc="http://creativecommons.org/ns#"
   xmlns:rdf="http://www.w3.org/1999/02/22-rdf-syntax-ns#"
   xmlns:svg="http://www.w3.org/2000/svg"
   xmlns="http://www.w3.org/2000/svg"
   xmlns:sodipodi="http://sodipodi.sourceforge.net/DTD/sodipodi-0.dtd"
   xmlns:inkscape="http://www.inkscape.org/namespaces/inkscape"
   width="128"
   height="128"
   id="svg2"
   sodipodi:version="0.32"
   inkscape:version="0.46+devel"
   version="1.0"
   sodipodi:docname="sf_stormtrooper.svg"
   inkscape:output_extension="org.inkscape.output.svg.inkscape">
  <defs
     id="defs4">
    <inkscape:perspective
       sodipodi:type="inkscape:persp3d"
       inkscape:vp_x="0 : 64 : 1"
       inkscape:vp_y="0 : 1000 : 0"
       inkscape:vp_z="400 : 64 : 1"
       inkscape:persp3d-origin="200 : 42.666667 : 1"
       id="perspective134" />
    <filter
       inkscape:collect="always"
       id="filter4212">
      <feGaussianBlur
         inkscape:collect="always"
         stdDeviation="0.65370021"
         id="feGaussianBlur4214" />
    </filter>
  </defs>
  <sodipodi:namedview
     id="base"
     pagecolor="#ffffff"
     bordercolor="#666666"
     borderopacity="1.0"
     gridtolerance="10000"
     guidetolerance="10"
     objecttolerance="10"
     inkscape:pageopacity="0.0"
     inkscape:pageshadow="2"
     inkscape:zoom="1"
     inkscape:cx="249.21253"
     inkscape:cy="62.345341"
     inkscape:document-units="px"
     inkscape:current-layer="layer1"
     showgrid="false"
     inkscape:window-width="1538"
     inkscape:window-height="961"
     inkscape:window-x="136"
     inkscape:window-y="24" />
  <metadata
     id="metadata7">
    <rdf:RDF>
      <cc:Work
         rdf:about="">
        <dc:format>image/svg+xml</dc:format>
        <dc:type
           rdf:resource="http://purl.org/dc/dcmitype/StillImage" />
        <dc:title></dc:title>
      </cc:Work>
    </rdf:RDF>
  </metadata>
  <g
     inkscape:label="Layer 1"
     inkscape:groupmode="layer"
     id="layer1">
    <g
       id="g3779"
       transform="translate(-101,-22)" />
    <g
       id="g2914"
       transform="translate(-190,-2)">
      <path
         style="fill:#1a1a1a;fill-opacity:1;stroke:none"
         d="m 248.69726,58.664539 c 1.47549,5.737386 -7.68546,8.341178 -10.32751,13.770021 l -6.88501,2.458933 -6.39323,2.213039 c -0.52602,-2.213039 -2.97396,-2.213039 -6.63911,-4.426078 -1.1881,2.622861 0.78668,2.583084 1.96714,5.901437 -2.58535,1.031535 -5.80053,-0.05441 -8.86451,1.721253 0.98471,2.824872 2.99203,0.94637 5.42201,2.213039 -2.44082,1.191751 -6.5017,2.614938 -4.67198,3.196612 2.87132,1.644407 6.54845,-0.837342 7.64017,-1.013405 -1.01011,2.157909 -4.66003,4.163085 -4.93534,5.19359 4.36045,-1.139594 6.19266,-0.291686 7.62269,-3.442505 3.58893,-0.12252 5.63534,-0.715196 8.60626,-5.163758 l 11.80288,-5.163758 c 5.17563,-0.202447 9.48445,-5.707398 8.11448,-7.868584 l -2.45894,-9.589836 z"
         id="path3107"
         sodipodi:nodetypes="cccccccccccccccc" />
      <path
         sodipodi:nodetypes="cccccccccccccccccccc"
         id="path3103"
         d="m 247.02711,111.23458 -4.67197,-8.85215 3.19661,-8.360372 2.95072,-9.589836 1.22947,-5.409651 20.90092,-1.721253 5.65555,8.36037 -4.91787,11.556982 0.49179,11.80288 -2.45893,9.09805 -4.42608,-1.47536 -1.72125,-11.80288 -0.49179,-7.130903 1.72125,-4.671972 -1.47536,-0.983573 -3.19661,-0.491786 -5.65554,2.213039 -3.93429,7.622695 -0.49179,13.03234 -2.70483,-3.19662 z"
         style="fill:#1a1a1a;fill-opacity:1;stroke:none" />
      <path
         style="fill:#f2f2f2;fill-opacity:1;stroke:#333333;stroke-width:1;stroke-linejoin:round;stroke-miterlimit:4;stroke-opacity:1;stroke-dasharray:none;stroke-dashoffset:0"
         d="m 248.60369,54.913503 c 3.19959,-1.318236 6.43755,-2.761435 7.19153,3.885093 l -8.20504,17.662524 c -2.67088,-4.550214 -4.47384,-7.309064 -7.92868,-7.780876 l 8.94219,-13.766741 z"
         id="path3097"
         sodipodi:nodetypes="ccccc" />
      <path
         sodipodi:nodetypes="ccccccc"
         id="path3073"
         d="m 254.41469,52.720209 18.06982,-1.368926 c 10.68069,15.522453 6.57084,27.92608 2.73784,38.056128 -7.23039,-2.028654 -10.71194,0.227068 -12.85891,4.008034 l -4.10453,-0.02469 c -3.38043,-5.086593 -6.76086,-6.445217 -10.14128,-6.447414 -0.0596,0.139196 -2.99777,-28.688514 6.29706,-34.223136 z"
         style="fill:#f2f2f2;fill-opacity:1;stroke:#333333;stroke-width:1" />
      <path
         sodipodi:nodetypes="ccccc"
         id="path3075"
         d="m 246.47492,77.087081 c 9.41096,6.523608 25.65947,2.067479 32.58043,0 l -0.27378,6.297058 c -12.12424,3.74258 -25.79033,2.908128 -32.30664,-0.54757 l -1e-5,-5.749488 z"
         style="fill:#f2f2f2;fill-opacity:1;stroke:#333333;stroke-width:1;stroke-linejoin:round;stroke-miterlimit:4;stroke-opacity:1;stroke-dasharray:none;stroke-dashoffset:0" />
      <path
         sodipodi:nodetypes="ccccc"
         id="path3077"
         d="m 263.99717,92.692831 -1.64271,7.939769 c 3.49144,-0.52681 6.96993,-1.014747 9.03491,2.73785 l 2.19028,-12.594113 c -2.63242,-1.555419 -5.52608,-1.512023 -9.58248,1.916494 z"
         style="fill:#f2f2f2;fill-opacity:1;stroke:#333333;stroke-width:1;stroke-linejoin:round;stroke-miterlimit:4;stroke-opacity:1;stroke-dasharray:none;stroke-dashoffset:0" />
      <path
         inkscape:transform-center-y="3.4908893"
         inkscape:transform-center-x="-15.749093"
         style="fill:#f2f2f2;fill-opacity:1;stroke:#333333;stroke-width:1;stroke-linejoin:round;stroke-miterlimit:4;stroke-opacity:1;stroke-dasharray:none;stroke-dashoffset:0"
         d="m 245.97458,89.943219 -3.11291,8.581678 c 3.52811,0.14219 7.58371,0.0463 8.90268,4.121403 l 4.25601,-10.310934 c -2.29122,-2.024664 -5.41477,-4.99271 -10.04578,-2.392147 z"
         id="path3079"
         sodipodi:nodetypes="ccccc" />
      <path
         sodipodi:nodetypes="csccc"
         id="path3081"
         d="m 263.17582,103.09666 c 0,0 2.73784,-3.559206 6.29705,-0.82135 2.18091,1.67762 3.01164,8.21355 3.01164,8.21355 -2.88278,0.21466 -5.2311,-1.70851 -8.76113,1.09514 l -0.54756,-8.48734 z"
         style="fill:#f2f2f2;fill-opacity:1;stroke:#333333;stroke-width:1;stroke-linejoin:round;stroke-miterlimit:4;stroke-opacity:1;stroke-dasharray:none;stroke-dashoffset:0" />
      <path
         style="fill:#f2f2f2;fill-opacity:1;stroke:#333333;stroke-width:1;stroke-linejoin:round;stroke-miterlimit:4;stroke-opacity:1;stroke-dasharray:none;stroke-dashoffset:0"
         d="m 243.26347,100.45872 c 0,0 6.84462,-1.368924 8.21354,3.28543 0.77639,2.6397 1.91651,5.74948 1.91651,5.74948 -2.88279,0.21467 -5.23111,-1.7085 -8.76113,1.09514 l -1.36892,-10.13005 z"
         id="path3083"
         sodipodi:nodetypes="csccc" />
      <path
         sodipodi:nodetypes="cccccc"
         id="path3085"
         d="m 251.40306,110.48886 c -1.78996,-0.68868 -3.52633,-1.59172 -6.02327,0.54757 -4.84321,2.52369 -10.29067,2.43671 -14.51062,7.66599 l 0.54757,2.73785 c 9.88153,3.46233 15.77818,0.61523 21.35524,-2.73786 l -1.36892,-8.21355 z"
         style="fill:#f2f2f2;fill-opacity:1;stroke:#333333;stroke-width:1;stroke-linejoin:round;stroke-miterlimit:4;stroke-opacity:1;stroke-dasharray:none;stroke-dashoffset:0" />
      <path
         style="fill:#f2f2f2;fill-opacity:1;stroke:#333333;stroke-width:1;stroke-linejoin:round;stroke-miterlimit:4;stroke-opacity:1;stroke-dasharray:none;stroke-dashoffset:0"
         d="m 270.97869,111.31021 c -1.78996,-0.68868 -3.52633,-1.59171 -6.02327,0.54758 -4.84321,2.52368 -10.29068,2.4367 -14.51062,7.66598 l 0.54757,2.73785 c 9.88153,3.46233 15.77818,0.61523 21.35524,-2.73786 l -1.36892,-8.21355 z"
         id="path3087"
         sodipodi:nodetypes="cccccc" />
      <path
         sodipodi:nodetypes="ccccc"
         id="path3157"
         d="m 261.07969,73.749962 c -1.03858,-0.09847 -29.28891,10.496673 -29.28891,10.496673 -0.99343,2.421659 -1.74485,4.801345 2.36824,6.337373 l 29.98872,-12.351499 c 0.47308,-1.973915 -0.18697,-3.584404 -3.06805,-4.482547 z"
         style="fill:#000000;fill-opacity:1;stroke:none" />
      <path
         sodipodi:nodetypes="ccccccccc"
         id="path3159"
         d="m 252.74847,84.169218 3.99907,10.08462 4.69456,-2.608091 -4.17294,-10.084621 6.08555,-2.260346 -1.73873,-2.260346 -22.4296,9.910748 0.86938,2.608091 12.69271,-5.390055 z"
         style="fill:#333333;fill-opacity:1;stroke:#1a1a1a;stroke-width:1" />
      <path
         style="fill:#f2f2f2;fill-opacity:1;stroke:#333333;stroke-width:1;stroke-linejoin:round;stroke-miterlimit:4;stroke-opacity:1;stroke-dasharray:none;stroke-dashoffset:0"
         d="m 237.02564,72.599197 c 6.18102,-2.53278 6.28629,1.118464 8.21583,4.796613 l -16.22329,7.619255 c 0.0252,-4.055984 -0.3474,-7.653429 -3.16927,-8.42836 l 11.17673,-3.987508 z"
         id="path3099"
         sodipodi:nodetypes="ccccc" />
      <path
         id="path3165"
         d="m 255.87818,72.693615 -24.8638,8.345893 2.78196,6.085547 c 0,0 2.43422,0.521618 1.56485,-0.695491 -0.86936,-1.21711 -2.08647,-4.694564 -2.08647,-4.694564 l 22.77733,-7.824276 -0.17387,-1.217109 z"
         style="fill:#000000;fill-opacity:1;stroke:none" />
      <path
         sodipodi:nodetypes="ccccc"
         id="path3161"
         d="m 251.00974,73.215233 4.86844,7.650402 4.34682,-1.912601 -3.99907,-8.172019 -5.21619,2.434218 z"
         style="fill:#333333;fill-opacity:1;stroke:#1a1a1a;stroke-width:1;stroke-linejoin:round;stroke-miterlimit:4;stroke-opacity:1;stroke-dasharray:none;stroke-dashoffset:0" />
      <path
         sodipodi:nodetypes="cccccccccccccccc"
         id="path3105"
         d="m 272.8459,57.138073 c 1.47549,5.737386 3.62563,10.80011 4.42608,17.212527 l -8.36037,4.671971 -5.40965,3.196612 c -0.52602,-2.213039 -0.51503,-4.426078 -4.18018,-6.639117 -1.1881,2.622861 0.4091,5.245722 2.45893,7.868583 -3.80247,-1.054938 -8.00122,-3.496917 -10.57341,-0.245893 0.86156,3.440637 3.88819,2.551139 6.63912,2.213039 -2.44082,1.191751 -6.5017,2.614938 -4.67198,3.196612 2.87132,1.644407 4.28811,0.379768 5.90144,-0.491786 -2.22722,2.331782 -2.9213,3.641466 -3.19661,4.671971 4.0127,0.07752 5.70088,-2.750619 7.1309,-5.901437 3.58893,-0.12252 7.3566,1.006056 10.32752,-3.442506 l 10.8193,-9.343943 c 2.96259,-3.399059 0.3864,-5.215611 -0.98357,-7.376797 L 272.8459,57.138073 z"
         style="fill:#1a1a1a;fill-opacity:1;stroke:none" />
      <path
         sodipodi:nodetypes="ccccc"
         id="path3089"
         d="m 270.63286,54.925034 c 1.07325,-3.289875 2.07632,-6.690039 7.62269,-2.950719 l 8.11448,17.704313 c -5.19526,-0.920495 -8.46433,-1.338929 -11.06519,0.983573 l -4.67198,-15.737167 z"
         style="fill:#f2f2f2;fill-opacity:1;stroke:#333333;stroke-width:1;stroke-linejoin:round;stroke-miterlimit:4;stroke-opacity:1;stroke-dasharray:none;stroke-dashoffset:0" />
      <path
         sodipodi:nodetypes="ccccc"
         id="path3091"
         d="m 276.04252,72.87524 c 5.35803,-3.988919 7.48053,-0.924411 9.83572,0.491787 l -14.5077,13.524128 c -0.98317,-3.935102 -2.23784,-7.327191 -5.16375,-7.376798 l 9.83573,-6.639117 z"
         style="fill:#f2f2f2;fill-opacity:1;stroke:#333333;stroke-width:1;stroke-linejoin:round;stroke-miterlimit:4;stroke-opacity:1;stroke-dasharray:none;stroke-dashoffset:0" />
      <path
         sodipodi:nodetypes="ccccc"
         id="path3095"
         d="m 260.30535,81.23561 6.14733,-0.491786 c 2.24638,0.865208 3.48,2.338076 2.45893,5.163758 l -6.39322,3.442505 c -4.23146,-3.481221 -3.8357,-5.934172 -2.21304,-8.114477 z"
         style="fill:#f2f2f2;fill-opacity:1;stroke:#333333;stroke-width:1;stroke-linejoin:round;stroke-miterlimit:4;stroke-opacity:1;stroke-dasharray:none;stroke-dashoffset:0" />
      <path
         sodipodi:nodetypes="ccccccccc"
         id="path3101"
         d="m 245.83306,32.487288 c 0.4549,-2.386416 0.94469,-15.518371 2.95565,-18.491954 5.18492,-6.4684787 18.31988,-9.9166016 27.49106,-1.713822 6.04293,9.147004 6.0428,17.288611 6.98806,25.587502 0.66307,15.501205 -11.3197,14.519396 -17.82831,20.672782 -1.92191,0.108057 -3.69354,2.087773 -5.9023,-1.377085 -2.06825,-3.973978 -1.24722,-7.889935 -13.40518,-2.780477 -1.81882,1.530387 -3.54435,1.552542 -5.0777,-1.53183 -1.8086,-7.471462 2.19863,-13.774991 4.77872,-20.365116 z"
         style="fill:#f2f2f2;fill-opacity:1;stroke:#333333;stroke-width:1;stroke-linejoin:round;stroke-miterlimit:4;stroke-opacity:1;stroke-dasharray:none;stroke-dashoffset:0" />
      <path
         sodipodi:nodetypes="cccccc"
         id="path3111"
         d="m 276.00756,21.492525 c 1.23296,5.561375 -1.53101,8.898098 -2.97044,12.972045 -6.14593,-4.145969 -10.62757,-7.876227 -15.98924,-7.961173 -3.37942,0.478605 -3.80421,-0.338859 -8.31153,2.934932 -1.86984,-1.908923 -1.75582,-4.314415 -0.90324,-6.904771 9.92534,3.819337 20.53419,0.883832 28.17445,-1.041033 z"
         style="fill:#000000;fill-opacity:1;stroke:none" />
      <path
         sodipodi:nodetypes="ccccc"
         id="path3113"
         d="m 247.55481,19.067256 c 10.48973,4.608986 24.44622,2.062847 32.18853,-1.01445 l 0.31246,1.719237 c -11.41287,2.919063 -23.40479,6.008947 -33.41565,0.938539 l 0.91466,-1.643326 z"
         style="fill:#800000;fill-opacity:1;stroke:none" />
      <path
         sodipodi:nodetypes="cccc"
         id="path3115"
         d="m 248.38961,53.363391 c 2.88173,-3.144192 3.3555,-8.338412 8.66326,-9.417167 1.78331,3.478564 1.48904,6.445104 1.99245,9.608238 -2.17893,-1.625309 -6.81443,-1.023855 -10.65571,-0.191071 z"
         style="fill:#000000;fill-opacity:1;stroke:none" />
      <path
         transform="matrix(0.98041808,-0.07871541,0.11091717,1.3814982,127.75984,-6.5055952)"
         d="m 114.5513,49.33437 a 2.2097087,1.9445436 0 1 1 -4.41942,0 2.2097087,1.9445436 0 1 1 4.41942,0 z"
         sodipodi:ry="1.9445436"
         sodipodi:rx="2.2097087"
         sodipodi:cy="49.33437"
         sodipodi:cx="112.34159"
         id="path3117"
         style="fill:#000000;fill-opacity:1;stroke:none"
         sodipodi:type="arc" />
      <path
         sodipodi:type="arc"
         style="fill:#000000;fill-opacity:1;stroke:none"
         id="path3119"
         sodipodi:cx="112.34159"
         sodipodi:cy="49.33437"
         sodipodi:rx="2.2097087"
         sodipodi:ry="1.9445436"
         d="m 114.5513,49.33437 a 2.2097087,1.9445436 0 1 1 -4.41942,0 2.2097087,1.9445436 0 1 1 4.41942,0 z"
         transform="matrix(1.1765017,-0.09445849,0.11091717,1.3814982,124.24646,-1.1649789)" />
      <path
         sodipodi:nodetypes="cccc"
         id="path3121"
         d="m 248.60094,40.787299 c 3.72379,-3.850241 3.6015,-3.017414 8.98963,-7.524615 4.29351,3.202074 5.48206,6.653438 8.12807,9.987787 -4.66492,-5.378425 -9.91151,-7.103053 -17.1177,-2.463172 z"
         style="fill:#999999;fill-opacity:1;stroke:none" />
      <path
         id="path3167"
         d="m 233.79634,85.386327 -6.95491,2.608091 1.39098,2.955838 6.08554,-2.434219 -0.52161,-3.12971 z"
         style="fill:#000000;fill-opacity:1;stroke:none" />
      <path
         style="fill:#b3b3b3;fill-opacity:1;stroke:none"
         d="m 248.9041,67.008143 7.35513,1.854669 11.1176,0.693294 -9.23636,-2.707211 0.47774,-7.803135 -2.07022,7.166145 -7.64389,0.796238 z"
         id="path2889"
         sodipodi:nodetypes="ccccccc" />
      <path
         style="fill:#ffffff;fill-opacity:1;stroke:none"
         d="m 266.89909,28.151712 c 2.0803,0.644112 3.84499,1.730074 7.96238,-0.477743 l -2.22946,4.618183 -5.73292,-4.14044 z"
         id="path2891"
         sodipodi:nodetypes="cccc" />
    </g>
  </g>
</svg>
