<?xml version="1.0" encoding="UTF-8" standalone="no"?>
<!-- Created with Inkscape (http://www.inkscape.org/) -->
<svg
   xmlns:dc="http://purl.org/dc/elements/1.1/"
   xmlns:cc="http://creativecommons.org/ns#"
   xmlns:rdf="http://www.w3.org/1999/02/22-rdf-syntax-ns#"
   xmlns:svg="http://www.w3.org/2000/svg"
   xmlns="http://www.w3.org/2000/svg"
   xmlns:sodipodi="http://sodipodi.sourceforge.net/DTD/sodipodi-0.dtd"
   xmlns:inkscape="http://www.inkscape.org/namespaces/inkscape"
   width="128"
   height="128"
   id="svg2"
   sodipodi:version="0.32"
   inkscape:version="0.46"
   version="1.0"
   sodipodi:docname="countdown-03.svg"
   inkscape:output_extension="org.inkscape.output.svg.inkscape">
  <defs
     id="defs4">
    <filter
       inkscape:collect="always"
       id="filter3467"
       x="-0.051421243"
       width="1.1028425"
       y="-0.14699863"
       height="1.2939973">
      <feGaussianBlur
         inkscape:collect="always"
         stdDeviation="2.1899038"
         id="feGaussianBlur3469" />
    </filter>
  </defs>
  <sodipodi:namedview
     id="base"
     pagecolor="#ffffff"
     bordercolor="#666666"
     borderopacity="1.0"
     gridtolerance="10000"
     guidetolerance="10"
     objecttolerance="10"
     inkscape:pageopacity="0.0"
     inkscape:pageshadow="2"
     inkscape:zoom="1"
     inkscape:cx="64"
     inkscape:cy="64"
     inkscape:document-units="px"
     inkscape:current-layer="layer1"
     showgrid="false"
     inkscape:window-width="1538"
     inkscape:window-height="961"
     inkscape:window-x="127"
     inkscape:window-y="31" />
  <metadata
     id="metadata7">
    <rdf:RDF>
      <cc:Work
         rdf:about="">
        <dc:format>image/svg+xml</dc:format>
        <dc:type
           rdf:resource="http://purl.org/dc/dcmitype/StillImage" />
      </cc:Work>
    </rdf:RDF>
  </metadata>
  <g
     inkscape:label="Layer 1"
     inkscape:groupmode="layer"
     id="layer1">
    <path
       style="fill:#000000;fill-rule:evenodd;stroke:none;stroke-width:1px;stroke-linecap:butt;stroke-linejoin:miter;stroke-opacity:1;filter:url(#filter3467)"
       d="M 83.875,88.875 C 82.960027,89.057995 81.743728,88.925029 81.125,89.75 C 80.70017,90.31644 80.120035,91.002483 79.625,91.25 C 76.325998,92.570293 71.172772,95.342774 69.5,98.375 C 68.932978,99.73683 71.484583,100.72121 70.75,102 C 68.222076,105.80112 64.738711,107.20177 60.5,105.5 C 56.865322,104.28258 51.782676,107.47651 48.25,109.75 C 43.338982,110.52001 43.855407,114.68802 40.5,116.25 C 34.844725,111.81476 32.10175,106.4257 24.375,107.5 C 20.462612,107.91628 17.908047,110.54982 18.5,113.625 C 19.373349,118.31944 25.547293,121.1606 29.25,122.375 C 34.774711,124.00196 36.540181,123.74702 41.625,119.875 C 46.327096,125.26687 52.119428,122.70836 56.25,120.75 C 60.092363,115.94793 67.108314,118.14519 64.375,110.25 C 66.998483,107.22216 70.673188,105.36222 73.625,102.625 C 74.584094,100.73518 77.914806,101.05842 79.875,100.375 C 80.609207,100.19145 80.113263,97.25 80.875,97.25 C 87.898019,96.48026 95.277639,99.488734 102,96.625 C 103.87902,94.920942 100.69323,98.174773 101.125,99.875 C 107.09062,102.15976 114.76538,101.27259 114.25,97.75 C 114.06319,97.00276 110.18384,94.48534 110,93.75 C 109.89825,93.343015 109.72544,92.03739 110.375,91.875 C 115.72332,92.64958 117.97404,91.129128 120.625,89.5 C 117.96402,85.369781 113.29078,89.166231 109.875,89 C 101.09497,88.456889 92.606354,87.763401 83.875,88.875 z M 103,90.625 C 103.65385,90.788464 103.48819,93.386814 102.875,94 C 96.943323,97.549531 88.626822,94.509658 81.875,95.125 C 78.851489,96.12911 81.452336,93.056816 82.125,92 C 83.963462,93.721446 87.853228,91.252089 87.75,90.5 C 94.422915,91.03462 96.346224,90.149637 103,90.625 z"
       id="path3398"
       sodipodi:nodetypes="csccccccccccccccccccscccccccccc" />
    <path
       sodipodi:nodetypes="cccccccccccccccscccccccc"
       style="fill:#502d16;fill-rule:evenodd;stroke:#28170b;stroke-width:1px;stroke-linecap:butt;stroke-linejoin:miter;stroke-opacity:1"
       d="M 83.921258,6.6893389 C 82.598846,10.339757 82.758769,14.326531 82.130754,18.14259 C 80.980405,20.679097 87.942143,20.193493 88.337392,17.442599 C 88.268816,16.335596 87.330741,12.380612 87.55488,11.346483 C 89.419802,9.8542346 95.728679,11.052842 98.962997,11.398821 C 100.54139,13.724255 99.732523,16.66601 100.69615,19.198211 C 102.84261,19.316356 106.30849,20.340829 106.81735,18.301166 C 104.56392,15.524216 103.87402,9.3487105 102.24193,6.6075309 C 96.040867,5.9437536 90.162656,6.4131596 83.921258,6.6893389 z M 112.91734,65.287154 C 110.57545,65.971809 109.01969,64.923608 106.5282,64.915587 C 106.02488,68.164735 107.82093,73.683892 107.34665,76.658782 C 101.48108,75.476764 92.843611,76.899104 86.934484,76.488936 C 86.468274,73.001019 88.354124,69.375038 87.366618,66.342775 C 86.087828,66.342775 80.612853,66.136863 79.772876,66.847363 C 79.749173,66.798561 79.700238,66.822051 79.658295,67.015558 C 79.668982,66.966272 80.446249,67.076696 80.491543,67.033972 C 79.854802,74.178228 76.803517,82.423186 77.679223,89.69313 C 72.62542,92.303002 90.138838,91.268133 84.533636,89.217401 C 84.781764,85.923298 85.341083,82.615115 85.90981,79.349915 C 92.730009,79.286952 102.21634,78.506689 108.54256,79.415599 C 109.39499,82.287157 109.65629,85.375133 109.96569,88.610302 C 102.63644,90.730747 124.02825,90.733302 117.47498,88.27061 C 114.21687,81.360883 113.79364,72.391541 112.91734,65.287154 z"
       id="path2574" />
    <path
       id="path2519"
       d="M 83,6 C 81.451455,10.069385 81.364408,14.513731 80.5,18.767767 C 79.192521,21.595395 86.184341,21.054057 86.75,17.987437 C 86.75,16.75338 86.565353,12.738604 86.853553,11.585786 C 88.810916,9.92227 94.537114,10.864312 97.75,11.25 C 99.184341,13.84233 98.193238,17.121716 99,19.944544 C 101.13914,20.076248 104.54156,21.218303 105.17678,18.944544 C 103.09537,15.848876 103.46228,9.5557912 102,6.5 C 95.84005,5.7600395 89.258506,5.6921229 83,6 z M 108.36612,71.323223 C 105.98182,72.086458 104.49099,70.917952 102,70.90901 C 101.2954,74.531071 102.74955,80.683674 102.09099,84 C 96.298639,82.682318 87.573058,84.267903 81.68934,83.81066 C 81.439197,79.922426 83.549666,75.880283 82.75,72.5 C 81.47121,72.5 76.00899,72.270456 75.125,73.0625 C 75.10432,73.008097 75.05393,73.034283 75,73.25 C 75.01374,73.195057 75.784167,73.318155 75.832107,73.270527 C 74.7528,81.234746 71.190763,90.425997 71.616117,98.53033 C 66.40064,101.43974 83.978165,100.2861 78.5,98 C 78.952188,94.327825 79.71644,90.639955 80.487437,87 C 87.311536,86.929811 96.846204,86.059994 103.11612,87.073223 C 103.79067,90.274356 103.86068,93.716747 103.96967,97.323223 C 96.509057,99.687036 117.90071,99.689885 111.5,96.944544 C 108.66993,89.241772 108.80232,79.242997 108.36612,71.323223 z"
       style="fill:#784421;fill-rule:evenodd;stroke:#28170b;stroke-width:1px;stroke-linecap:butt;stroke-linejoin:miter;stroke-opacity:1"
       sodipodi:nodetypes="cccccccccccccccscccccccc" />
    <path
       id="path2517"
       d="M 72.25,17 C 80.451117,18.771436 87.229866,15.187537 95.335786,16.457107 C 99.759581,18.408027 113.13457,13.055903 115.5,17.25 C 116.01488,25.881198 118.14813,34.248991 118.48744,42.926777 C 120.77132,55.540594 120.25791,61.358966 121.25,70.75 C 113.42757,71.655387 103.97571,71.006004 95.75,73.75 C 93.212241,73.740812 66.300794,74.446188 65.25,72.5 C 66.701427,65.736764 67.144717,58.894421 67.25,52 C 66.964556,46.183797 67.831785,40.429837 69,34.75 C 70.396726,28.93602 70.121565,22.637849 72.25,17 z"
       style="fill:#f9f9f9;fill-rule:evenodd;stroke:#333333;stroke-width:1px;stroke-linecap:butt;stroke-linejoin:miter;stroke-opacity:1"
       sodipodi:nodetypes="cccccccccc" />
    <path
       style="opacity:1;fill:#00325c;fill-opacity:1;stroke:none;stroke-width:1;stroke-linejoin:bevel;stroke-miterlimit:10;stroke-dasharray:none;stroke-dashoffset:0;stroke-opacity:1"
       d="M 83.832711,20.43934 C 80.855627,23.166875 79.876986,27.340652 78.082711,30.78309 C 78.152115,32.232634 79.851102,32.662263 80.957711,32.03309 C 80.156968,33.783237 81.163344,35.498581 80.551461,37.28309 C 80.18521,39.062446 82.744842,39.316306 83.145211,38.97059 C 81.702992,42.627239 78.663471,45.721471 77.832711,49.53309 C 79.782938,52.109935 82.347305,48.745115 84.270211,47.84559 C 84.518381,48.127377 81.90032,51.094007 81.398994,52.73452 C 80.492,54.499525 79.751077,57.913328 82.801461,57.72059 C 85.95365,58.189044 89.535994,55.609049 91.832711,55.22059 C 89.961917,56.725728 87.862836,60.910667 90.895211,62.22059 C 92.88606,62.562076 95.591669,60.879173 96.738961,60.68934 C 95.124691,62.264469 92.108017,65.402144 94.301461,67.47059 C 97.406445,68.179061 97.381678,63.548897 99.551461,62.34559 C 101.12031,61.08985 103.95872,58.090212 101.48896,56.47059 C 98.702105,55.736915 95.784993,57.973235 93.520211,58.40809 C 94.891084,55.91207 99.06492,54.113095 98.238961,50.97059 C 95.726156,49.027744 92.822727,52.065717 90.181978,52.377529 C 88.316768,53.118645 86.468166,53.956429 84.520211,54.25184 C 86.678211,48.744867 92.545641,44.921502 93.488961,38.90809 C 91.288844,36.25668 88.812947,40.220772 87.176461,41.53309 C 84.219284,44.486388 84.431496,43.062364 86.384259,40.169762 C 88.065128,36.660567 90.959539,33.780114 92.738961,30.53309 C 92.736019,28.309411 89.630773,28.285395 88.872246,30.060472 C 87.465266,31.226702 85.710637,33.314518 84.363961,33.72059 C 84.49902,31.370415 86.891323,29.678106 87.832711,27.47059 C 89.146526,26.258077 89.615275,23.061642 87.082711,23.28309 C 85.864492,23.186284 83.636459,26.582215 85.082711,24.12684 C 85.924761,22.844253 85.90935,20.224867 83.832711,20.43934 z"
       id="path2589" />
    <g
       id="g3779"
       transform="translate(-101,-22)" />
    <path
       style="opacity:1;fill:#006ca9;fill-opacity:1;stroke:none;stroke-width:1;stroke-linejoin:bevel;stroke-miterlimit:10;stroke-dasharray:none;stroke-dashoffset:0;stroke-opacity:1"
       d="M 78.77665,39.614908 C 74.916028,42.360101 73.03299,47.076687 69.96415,50.489908 C 68.871786,52.215331 71.177042,54.7761 72.58915,52.771158 C 74.367482,50.142647 72.750085,52.954396 72.83915,54.458658 C 72.309844,57.303744 76.339044,56.728586 77.33915,55.021158 C 78.454646,54.151934 80.825289,51.20597 81.33915,51.521158 C 80.84278,54.208212 84.440866,54.314875 85.833539,52.800472 C 86.601153,52.290206 86.573321,54.680057 87.9329,54.458658 C 90.634762,54.438843 92.352599,51.627594 94.6829,50.489908 C 97.219583,48.086067 95.661177,51.11782 95.33915,52.771158 C 94.645905,54.796475 96.450453,57.383414 98.58915,55.927408 C 101.92939,54.351124 103.76391,50.892239 106.46415,48.521158 C 104.85723,50.612533 106.94662,55.063625 109.58915,52.833658 C 111.7292,51.653808 112.59707,48.514408 115.3704,48.677408 C 117.4681,47.244384 114.91345,43.287965 113.02665,45.489908 C 111.53062,45.957515 109.68254,49.313824 110.65165,46.052408 C 111.47842,43.717426 108.79937,41.848231 107.02665,43.677408 C 104.10179,45.532563 101.53155,49.587935 99.40165,51.177408 C 100.234,49.294664 101.07127,45.37287 98.08915,45.177408 C 95.152467,45.746667 92.934029,48.040469 90.5579,49.646158 C 92.002921,47.473643 88.93103,45.794469 87.3704,47.489908 C 86.651506,47.818852 84.579337,50.905759 85.1204,48.708658 C 86.117508,45.972729 81.876951,44.592696 80.6829,47.052408 C 78.454806,49.417391 78.058961,49.890535 79.6829,46.677408 C 80.468873,44.662442 81.925165,40.992488 79.58915,39.614908 C 79.326041,39.564088 79.039824,39.564079 78.77665,39.614908 z"
       id="path2597" />
    <path
       style="fill:#ffa400;fill-opacity:1;fill-rule:evenodd;stroke:#7e3b00;stroke-width:1px;stroke-linecap:butt;stroke-linejoin:miter;stroke-opacity:1"
       d="M 10.46875 61.4375 C 3.0576908 61.336899 -1.5841717 70.390783 3.78125 75.84375 C 7.7715739 78.151631 12.280155 78.40732 16.71875 78.8125 C 19.755422 83.307234 22.513136 86.06535 27.375 82.9375 C 30.641662 78.729116 31.877389 74.470709 29.28125 72.15625 C 25.606834 66.654158 17.977173 63.922215 11.96875 61.59375 C 11.452143 61.502058 10.962821 61.444207 10.46875 61.4375 z M 17.125 73.625 C 17.787558 73.625 18.561799 74.2342 19.125 74.375 C 19.881424 74.564106 20.562641 75.15632 21.25 75.5 C 21.622715 75.686358 22.538579 76.904318 22.625 77.25 C 22.783913 77.885654 22.999216 78.371864 23.125 78.875 C 23.331739 79.701957 22.836784 79.875 22.125 79.875 C 21.457307 79.875 20.619566 79.086957 20.25 78.625 C 20.296114 78.625 18.610785 77.742893 16.875 76.875 C 15.9153 76.39515 15.875 75.488032 15.875 74.625 C 15.875 73.808551 16.389313 73.625 17.125 73.625 z "
       id="path2605" />
    <g
       id="g2548">
      <g
         transform="matrix(0.7238568,-0.6899502,0.6899502,0.7238568,-229.7916,226.00517)"
         id="g2584">
        <path
           style="fill:#e6e6e6;fill-rule:evenodd;stroke:#333333;stroke-width:1px;stroke-linecap:butt;stroke-linejoin:miter;stroke-opacity:1"
           d="M 282.90062,109.14166 C 285.25587,110.78015 289.23865,110.59283 291.4745,112.98053 C 291.79347,113.92321 291.37392,116.27295 291.37947,117.25895 C 291.08517,118.52704 290.23349,119.25056 289.19524,119.93892 C 286.53017,120.62513 283.77819,119.52159 281.23796,118.73583 C 278.96844,118.3878 276.34255,117.54919 274.95964,115.62483 C 272.7766,113.04226 273.44416,110.91248 274.07585,107.74751 C 277.00471,108.3191 279.93761,108.79309 282.90062,109.14166 z"
           id="path2480"
           sodipodi:nodetypes="cccccccc" />
        <path
           style="fill:none;fill-rule:evenodd;stroke:#333333;stroke-width:1px;stroke-linecap:butt;stroke-linejoin:miter;stroke-opacity:1"
           d="M 290.50428,118.79357 C 287.60876,120.38172 284.00381,118.69135 281.65911,117.24187 C 278.80865,116.51797 276.29667,115.61369 273.96744,112.45164"
           id="path2484"
           sodipodi:nodetypes="ccc" />
      </g>
      <path
         sodipodi:nodetypes="ccccccccc"
         id="path2482"
         d="M 47.4043,91.91032 C 49.58144,94.63478 49.3664,95.70744 52.22905,100.09598 C 51.71036,102.64129 52.67482,105.07827 52.85405,107.59598 C 52.33896,109.80473 52.99068,113.29408 51.47905,114.84598 C 48.84906,116.83375 44.81425,116.74081 43.35405,114.22098 C 43.60431,113.21995 43.41388,112.62304 43.85405,111.59598 C 45.14013,108.85684 44.53102,105.73187 44.10405,102.84598 C 44.04633,99.05505 39.97787,96.27382 40.12029,92.47986 C 42.28766,91.67899 46.03622,90.31423 47.4043,91.91032 z"
         style="fill:#00325c;fill-opacity:1;fill-rule:evenodd;stroke:#00192e;stroke-width:1px;stroke-linecap:butt;stroke-linejoin:miter;stroke-opacity:1" />
      <g
         transform="matrix(0.8444666,0.5356083,-0.5356083,0.8444666,-129.57462,-120.77289)"
         id="g2600">
        <path
           style="fill:#e6e6e6;fill-rule:evenodd;stroke:#333333;stroke-width:1px;stroke-linecap:butt;stroke-linejoin:miter;stroke-opacity:1"
           d="M 260.4617,110.09096 C 257.29681,110.7594 254.91139,107.94455 251.97642,113.27294 C 251.37626,113.99187 251.40349,114.68568 251.44609,115.57104 C 252.16159,117.85941 257.52823,119.37504 260.81962,118.84921 C 263.83832,118.88778 266.88947,117.83077 269.38892,116.01298 C 269.96641,114.30345 269.34655,111.98557 269.21214,110.09096 C 266.42816,110.96581 263.26349,110.82408 260.4617,110.09096 z"
           id="path2492"
           sodipodi:nodetypes="ccccccc" />
        <path
           style="fill:none;fill-rule:evenodd;stroke:#333333;stroke-width:1px;stroke-linecap:butt;stroke-linejoin:miter;stroke-opacity:1"
           d="M 251.51045,115.51818 C 255.26069,117.34371 258.65458,117.94392 262.03998,117.4906 C 265.18371,117.3866 266.81506,115.10188 269.12376,114.95232"
           id="path2494"
           sodipodi:nodetypes="ccc" />
      </g>
      <path
         sodipodi:nodetypes="cccccccc"
         style="fill:#00325c;fill-opacity:1;fill-rule:evenodd;stroke:#00192e;stroke-width:1px;stroke-linecap:butt;stroke-linejoin:miter;stroke-opacity:1"
         d="M 32.93623,91.87111 C 32.79107,92.65014 29.74851,97.50139 30.01314,98.82453 C 30.9566,101.6196 31.22472,104.00211 30.5257,106.84598 C 29.97147,109.63564 28.27848,114.17055 30.2757,116.22098 C 33.12127,117.34799 35.98201,118.06625 38.4007,115.59598 C 37.15517,111.7442 38.06606,108.4308 38.65958,104.4192 C 38.68846,100.61873 41.42431,97.49833 41.2809,93.67809 C 39.11353,92.87722 34.30431,90.27502 32.93623,91.87111 z"
         id="path2496" />
      <path
         style="fill:#e9d2af;fill-opacity:1;fill-rule:evenodd;stroke:#3f2d10;stroke-width:1px;stroke-linecap:butt;stroke-linejoin:miter;stroke-opacity:1"
         d="M 24.89943,85.42633 C 21.501546,91.671372 15.645867,90.157235 15.75035,82.71589 C 18.02114,80.75876 18.03618,74.47645 20.0314,72.45512 C 20.67169,71.4959 21.26193,70.68282 22.09621,69.95469 C 25.01672,69.75228 27.08652,71.02982 27.78637,73.84742 C 27.249164,77.07447 22.922467,81.669624 24.89943,85.42633 z"
         id="path2532"
         sodipodi:nodetypes="cccccc" />
      <path
         style="fill:#e9d2af;fill-rule:evenodd;stroke:#3f2d10;stroke-width:1px;stroke-linecap:butt;stroke-linejoin:miter;stroke-opacity:1;fill-opacity:1"
         d="M 56.5,83 C 57.162061,85.364117 57.959365,86.917544 60.25,87.125 C 66.092022,88.324605 64.426266,80.377574 63.125,76.375 C 58.284104,68.678306 55.172335,76.389388 56.5,83 z"
         id="path2576"
         sodipodi:nodetypes="cccc" />
      <path
         sodipodi:nodetypes="cccccssccccccccc"
         id="path2528"
         d="M 61.921611,79.764719 C 63.488381,77.34724 63.648907,78.616759 66.177379,77.225345 C 68.972642,75.456781 71.739702,72.892458 72.946848,69.797405 C 73.05425,68.225157 73.649246,66.762994 74.319157,65.067179 C 75.58663,64.365328 73.892331,66.513547 75.029952,67.253161 C 75.307116,66.539344 76.854878,66.791508 77.40611,66.053083 C 77.917253,65.368361 77.400017,63.622375 78.132275,63.454585 C 79.494211,63.142511 79.114367,64.790111 80.035928,64.426062 C 80.383098,65.741673 78.526719,66.670193 77.831099,67.73991 C 78.991253,66.88161 81.17857,63.822299 81.491614,64.859767 C 81.637073,66.491903 79.766396,68.101964 78.735743,69.13272 C 80.641726,68.829612 81.664663,66.561471 80.50362,69.467618 C 79.660905,70.412193 79.604603,71.420441 78.427315,71.594654 C 77.369746,72.315093 76.68476,73.541525 75.879342,74.556657 C 74.940599,77.54268 73.01123,79.883439 71.042231,82.26476 C 67.354715,86.268657 63.641696,88.464385 58.605313,86.63596"
         style="fill:#e9d2af;fill-opacity:1;fill-rule:evenodd;stroke:#3f2d10;stroke-width:1px;stroke-linecap:butt;stroke-linejoin:miter;stroke-opacity:1" />
      <path
         sodipodi:nodetypes="cccccccccccc"
         id="path2498"
         d="M 55.71043,95.85111 C 52.90532,92.38985 53.44992,87.1452 53.8077,83.18124 C 52.57957,78.22419 55.23912,73.33918 54.18638,68.38377 C 53.72061,65.27801 56.58271,62.4084 55.02217,59.70027 C 53.2379,57.2872 48.72996,56.16424 45.70111,56.00942 C 41.81516,56.57859 37.89253,56.05412 34.03384,56.8933 C 31.18655,58.13218 26.22419,59.05934 25.90732,62.13225 C 25.76979,64.90618 28.66331,69.32371 27.37699,71.82831 C 26.98984,76.2797 27.0434,81.30819 27.66989,85.77223 C 28.56436,90.96561 26.28015,92.1276 26.85554,97.30714 C 31.33742,94.74134 35.5893,100.27693 40.67813,99.70726 C 44.94627,98.18144 53.06246,99.0875 55.71043,95.85111 z"
         style="fill:#1a1a1a;fill-opacity:1;fill-rule:evenodd;stroke:#000000;stroke-width:1px;stroke-linecap:butt;stroke-linejoin:miter;stroke-opacity:1" />
      <path
         style="fill:#1a1a1a;fill-opacity:1;fill-rule:evenodd;stroke:#000000;stroke-width:0.99999994000000003px;stroke-linecap:butt;stroke-linejoin:miter;stroke-opacity:1"
         d="M 28.33908,70.455103 C 27.28674,74.055513 26.77809,76.825569 25.74909,81.194971 C 21.55619,80.650711 20.44002,77.882774 16.27202,76.462528 C 16.76103,74.402974 18.70142,71.990471 19.15327,69.916148 C 19.88487,67.188488 21.10583,66.9869 22.371,64.644654 C 23.66821,63.167926 23.78725,61.508573 26.93587,60.74842"
         id="path2534"
         sodipodi:nodetypes="cccccc" />
      <path
         style="fill:#e9d2af;fill-opacity:1;fill-rule:evenodd;stroke:#3f2d10;stroke-width:0.99999994px;stroke-linecap:butt;stroke-linejoin:miter;stroke-opacity:1"
         d="M 27.13977,22.54233 C 25.73057,27.342799 27.77317,32.996141 29.03131,37.697981 C 27.20804,43.55211 29.56648,47.8286 35.11882,52.49878 C 41.54377,54.58731 48.73295,54.139186 54.29109,47.215857 C 55.65761,35.838408 54.23858,42.74454 56.82468,33.240264 C 57.67952,20.926762 53.31057,12.580092 41.73498,13.474709 C 33.73317,13.212589 30.29877,17.339288 27.13977,22.54233 z"
         id="path2502"
         sodipodi:nodetypes="ccccccc" />
      <path
         sodipodi:nodetypes="cccc"
         id="path2500"
         d="M 38.48762,52.51809 C 37.18437,53.213066 36.20657,55.283489 35.9324,57.153885 C 38.11223,59.727608 44.75409,59.742862 47.9345,57.355419 C 47.30856,54.666639 47.72348,54.28551 45.41707,52.41803"
         style="fill:#e9d2af;fill-opacity:1;fill-rule:evenodd;stroke:#3f2d10;stroke-width:1px;stroke-linecap:butt;stroke-linejoin:miter;stroke-opacity:1" />
      <path
         sodipodi:nodetypes="cc"
         id="path2520"
         d="M 56.1147,27.661411 C 63.52804,24.704179 60.45172,34.838346 56.26536,33.664726"
         style="fill:#e9d2af;fill-opacity:1;fill-rule:evenodd;stroke:#3f2d10;stroke-width:1px;stroke-linecap:butt;stroke-linejoin:miter;stroke-opacity:1" />
      <path
         style="fill:#e9d2af;fill-opacity:1;fill-rule:evenodd;stroke:#3f2d10;stroke-width:1px;stroke-linecap:butt;stroke-linejoin:miter;stroke-opacity:1"
         d="M 28.59845,29.739241 C 20.85149,27.818965 25.27904,37.439873 29.26661,35.70716"
         id="path2524"
         sodipodi:nodetypes="cc" />
      <path
         sodipodi:nodetypes="cccccc"
         id="path2530"
         d="M 53.92623,71.877241 C 54.62744,74.301823 54.65675,75.969635 54.72095,78.476084 C 58.91816,77.966116 60.02486,76.992624 64.20433,75.606502 C 63.73217,73.543028 62.88453,71.481284 62.44966,69.403338 C 61.74039,66.669788 60.05125,65.813445 58.80527,63.460938 C 57.20745,61.749955 53.84375,58.875703 51.94744,57.36915"
         style="fill:#1a1a1a;fill-opacity:1;fill-rule:evenodd;stroke:#000000;stroke-width:0.99999987999999995px;stroke-linecap:butt;stroke-linejoin:miter;stroke-opacity:1" />
      <path
         sodipodi:nodetypes="cccccc"
         id="path2580"
         d="M 28.95014,45.081322 C 27.94664,47.247221 28.84762,48.737697 29.74563,50.738176 C 31.05708,52.615018 32.5118,52.335303 34.69538,52.594332 C 36.15984,51.405767 36.41513,51.094527 36.46315,49.235574 C 36.10665,46.730614 35.64741,47.395922 33.63472,46.318759 C 32.28273,45.971889 30.34971,45.081322 28.95014,45.081322 z"
         style="fill:#28170b;fill-opacity:1;fill-rule:evenodd;stroke:#120a04;stroke-width:1px;stroke-linecap:butt;stroke-linejoin:miter;stroke-opacity:1" />
      <path
         style="fill:#28170b;fill-opacity:1;fill-rule:evenodd;stroke:#120a04;stroke-width:0.99999994px;stroke-linecap:butt;stroke-linejoin:miter;stroke-opacity:1"
         d="M 54.86366,44.302028 C 56.13883,46.319966 55.43817,47.914442 54.8064,50.014254 C 53.74868,52.044934 52.27,51.955694 50.13826,52.494931 C 48.53239,51.505733 48.23899,51.230121 47.95097,49.392988 C 47.98053,46.86296 48.52195,47.463292 50.37844,46.13489 C 51.67422,45.616092 53.47584,44.483023 54.86366,44.302028 z"
         id="path2582"
         sodipodi:nodetypes="cccccc" />
      <path
         style="fill:#28170b;fill-opacity:1;fill-rule:evenodd;stroke:#120a04;stroke-width:0.99999994px;stroke-linecap:butt;stroke-linejoin:miter;stroke-opacity:1"
         d="M 42.47962,51.433155 C 59.15254,43.018624 52.80178,41.72151 56.17479,38.025207 C 60.6524,35.307876 61.46458,23.370776 56.69035,16.833845 C 53.16753,12.010352 48.37179,8.1416253 42.14345,10.305211 C 26.77115,7.1285347 20.87886,27.868585 28.43719,41.06765 C 33.60572,45.370699 31.05962,47.707194 42.47962,51.433155 z"
         id="path2506"
         sodipodi:nodetypes="ccsccc" />
      <path
         id="path2476"
         d="M 40.65288,37.438332 C 38.90797,37.6474 44.09138,44.22637 44.58628,45.33614 C 45.35342,47.05643 52.56448,49.60579 54.0441,51.002607 C 55.30082,52.189011 61.06317,52.275223 62.1393,51.701303 C 63.9503,50.735422 66.37155,51.466775 67.40374,52.204487 C 70.62459,54.506414 68.31558,50.854569 67.35775,49.564167 C 66.60546,48.550676 63.89842,46.499537 62.50024,46.744383 C 58.80262,47.391907 56.11237,42.930499 54.60932,41.17807 C 53.18137,39.513201 49.3131,39.478165 47.22825,39.727957 C 45.92587,39.883997 42.29641,37.549688 40.65288,37.438332 z"
         style="fill:#28170b;fill-rule:evenodd;stroke:#120a04;stroke-width:0.99999988px;stroke-linecap:butt;stroke-linejoin:miter;stroke-opacity:1"
         sodipodi:nodetypes="cssssssssc" />
      <path
         style="fill:#d38d5f;fill-rule:evenodd;stroke:#502d16;stroke-width:1px;stroke-linecap:butt;stroke-linejoin:miter;stroke-opacity:1"
         d="M 75.375,66.125 C 75.804932,62.719451 76.658114,57.753965 78.875,54.75 C 79.17398,54.675255 80.242487,55.246243 80.5,55.375 C 80.619262,58.816102 78.474941,61.589622 77.875,64.875 C 77.711806,65.527777 77.458213,65.833575 77.25,66.25 C 76.947861,66.854277 75.699843,66.368632 75.375,66.125 z"
         id="path2578"
         sodipodi:nodetypes="ccccsc" />
      <path
         style="fill:#4d4d4d;fill-rule:evenodd;stroke:#1a1a1a;stroke-width:0.99999994000000003px;stroke-linecap:butt;stroke-linejoin:miter;stroke-opacity:1"
         d="M 79.272499,54.348705 C 78.561913,52.596988 78.419811,52.030219 80.925874,51.113048 C 81.087885,50.729168 82.206994,49.78027 82.239297,49.364858 C 82.869988,49.951776 83.569418,51.384611 83.788732,52.513151 C 81.444166,55.545114 80.950333,54.430718 79.272499,54.348705 z"
         id="path2581"
         sodipodi:nodetypes="ccccc" />
      <path
         style="font-size:7.52686548px;font-style:normal;font-variant:normal;font-weight:normal;font-stretch:normal;fill:#ffffff;fill-opacity:1;stroke:none;stroke-width:1px;stroke-linecap:butt;stroke-linejoin:miter;stroke-opacity:1;font-family:Rufscript;-inkscape-font-specification:Rufscript"
         d="M 34.563982,69.539126 C 34.440446,69.544072 34.258998,69.627502 34.363453,69.424274 C 34.358758,68.471023 34.135415,67.533433 34.124987,66.579657 C 34.113017,66.112417 34.09671,65.642391 34.133206,65.176574 C 34.269575,64.92293 34.599852,64.893498 34.85401,64.833862 C 35.383722,64.751202 35.924746,64.715039 36.459538,64.729 C 36.723463,64.875714 36.89917,65.142137 37.069337,65.384283 C 37.292966,65.723235 37.193699,66.177344 36.926796,66.461242 C 36.620202,66.857235 36.128665,67.033855 35.78875,67.390957 C 35.534531,67.599469 35.643677,67.970812 35.916177,68.101767 C 36.260186,68.319675 36.67633,68.438131 36.944312,68.763879 C 37.093659,68.947033 37.253704,69.169128 37.240006,69.415086 C 37.002929,69.567633 36.571844,69.529561 36.402687,69.256993 C 36.185846,69.068779 35.999765,68.816121 35.765781,68.663847 C 35.516855,68.585651 35.347265,68.028927 35.06008,68.38763 C 34.905983,68.635652 34.949832,68.951383 34.925863,69.23243 C 34.956827,69.377229 34.766836,69.393301 34.680824,69.469974 C 34.641877,69.493025 34.60293,69.516075 34.563982,69.539126 z M 34.924154,67.275187 C 35.462817,66.972028 36.035973,66.674947 36.430261,66.184879 C 36.615865,65.982052 36.59561,65.637573 36.348764,65.49362 C 35.973175,65.219771 35.479466,65.298533 35.044288,65.31698 C 34.642557,65.263601 34.827797,65.772496 34.833193,66.0093 C 34.895937,66.427536 34.892505,66.853617 34.924154,67.275187 z M 39.282976,69.373736 C 39.280938,68.714533 39.324663,68.045993 39.173962,67.398399 C 39.092149,66.941113 39.012647,66.483418 38.933828,66.025607 C 38.727545,65.820342 38.37971,65.868582 38.107709,65.823334 C 37.774848,65.805514 37.321037,65.739641 37.223354,65.357521 C 37.18961,65.061709 37.69714,65.223562 37.893509,65.151939 C 38.957796,65.110267 40.029492,65.028497 41.091047,65.152223 C 41.333606,65.175902 41.790195,65.2718 41.6488,65.612317 C 41.460758,65.840345 41.120714,65.803262 40.85394,65.816131 C 40.54108,65.819267 40.227532,65.810993 39.915114,65.827145 C 39.681367,66.149672 39.851395,66.563378 39.909686,66.917098 C 40.023203,67.662014 40.042051,68.422881 39.981782,69.173497 C 39.99738,69.471556 39.799831,69.753623 39.47822,69.585351 C 39.380001,69.559806 39.277272,69.487133 39.282975,69.373739 L 39.282976,69.373736 z M 42.693586,67.797068 C 42.499009,67.992231 42.717984,68.346387 42.761867,68.589183 C 42.849862,68.887367 43.02292,69.226065 42.872752,69.529938 C 42.655036,69.767728 42.160617,69.637282 42.161417,69.282055 C 42.017585,68.300198 41.987204,67.305566 41.93184,66.315802 C 41.931585,65.997345 41.882168,65.668299 41.954865,65.356716 C 42.280397,65.045628 42.762544,65.008073 43.186425,64.944115 C 43.59617,64.912991 44.030366,64.839339 44.425017,64.98611 C 44.575631,65.161251 44.926878,65.427987 44.82958,65.665208 C 44.19643,65.615213 43.54367,65.486863 42.914213,65.642668 C 42.580254,65.731881 42.670719,66.170605 42.663265,66.43264 C 42.629345,66.756175 42.789237,67.158571 43.172686,67.137421 C 43.602434,67.167842 44.041818,66.885363 44.46045,67.075805 C 44.819984,67.296571 44.475962,67.699397 44.162451,67.704283 C 43.681999,67.812023 43.183375,67.81136 42.693585,67.797067 L 42.693586,67.797068 z M 48.88267,70.513056 C 48.76435,70.139917 48.794381,69.736233 48.770977,69.34854 C 48.734382,68.083462 48.80911,66.816889 48.749899,65.552538 C 48.686133,65.492589 48.513146,65.84939 48.408362,65.943031 C 48.129551,66.293883 47.77089,66.595864 47.423603,66.859884 C 47.580064,67.013396 48.027635,67.194879 47.917,67.43322 C 47.69687,67.751002 47.321911,67.62881 47.153989,67.337895 C 46.688022,66.867169 46.228396,66.389356 45.747698,65.933726 C 45.814772,67.047881 45.893829,68.162723 45.903895,69.279102 C 45.914265,69.584841 45.455944,69.767209 45.259295,69.537862 C 45.101234,69.269022 45.164152,68.937224 45.130909,68.63939 C 45.107562,67.622471 45.087656,66.604531 45.112114,65.587567 C 45.111414,65.272101 45.469096,65.177895 45.722891,65.237275 C 46.039072,65.337757 46.320179,65.570763 46.44467,65.883767 C 46.578121,66.064376 46.723239,66.531091 46.986986,66.385044 C 47.344114,66.022578 47.712658,65.670067 48.062631,65.301361 C 48.232652,65.066931 48.516746,64.887854 48.543512,64.576249 C 48.690993,64.362253 49.21691,64.315423 49.22515,64.662331 C 49.29825,65.312909 49.290872,65.969839 49.355564,66.621282 C 49.408074,67.6289 49.381731,68.641638 49.48908,69.645706 C 49.557294,69.910791 49.623587,70.240312 49.336902,70.40846 C 49.224178,70.500225 49.010256,70.68348 48.882668,70.51306 L 48.88267,70.513056 z"
         id="text2423" />
    </g>
    <path
       style="font-size:13.26022243px;font-style:normal;font-variant:normal;font-weight:normal;font-stretch:normal;text-align:end;text-anchor:end;fill:#ff0000;fill-opacity:1;stroke:none;stroke-width:1px;stroke-linecap:butt;stroke-linejoin:miter;stroke-opacity:1;font-family:handfont;-inkscape-font-specification:handfont"
       d="M 109.94365,34.724358 C 109.04627,34.284609 109.78478,32.680795 110.70344,33.048773 C 111.67617,33.204925 112.41062,31.860301 111.7917,31.110133 C 111.44086,29.972916 110.79218,28.88503 109.79774,28.200765 C 109.22566,27.445086 109.9425,26.181808 110.88456,26.28499 C 112.14698,26.106528 113.48119,26.862083 113.96641,28.043271 C 113.67162,29.291493 113.94773,30.609295 114.48779,31.751325 C 114.69902,33.489938 112.95702,35.159393 111.22714,34.842343 C 110.79678,34.841958 110.36802,34.792808 109.94365,34.724358 z M 84.722018,43.725249 C 85.624695,42.351315 87.883162,42.234614 88.922627,43.508213 C 100.34774,33.454738 91.109212,49.128625 88.561067,50.590425 C 82.787874,53.478388 84.234962,47.727275 84.722018,43.725249 z M 87.073637,43.733231 C 78.198897,52.639658 95.959965,49.948086 87.073637,43.733231 z M 97.219635,43.237419 C 97.31076,43.293489 97.317484,43.297627 97.219635,43.237419 z M 95.484325,41.769747 C 96.263349,41.308988 97.391274,42.090601 97.233438,42.981813 C 97.458395,45.074954 98.089969,47.091623 98.544918,49.139811 C 98.498628,50.07316 96.964714,50.330352 96.616487,49.463179 C 92.293932,49.977967 89.390586,58.976949 95.484325,41.769747 z M 101.77866,51.43224 C 101.89354,47.672878 103.3805,45.885677 101.29497,42.033669 C 101.71703,41.170765 103.27215,41.647599 103.14282,42.597581 C 103.70195,43.361856 105.13547,42.719735 104.94292,41.794563 C 105.42696,40.928068 106.99777,41.727489 106.57785,42.627491 C 104.64422,45.210576 103.81048,48.314469 102.27724,51.109553 C 102.13739,51.251502 101.96884,51.368948 101.77866,51.43224 z M 111.69276,51.40572 C 110.53153,51.281427 109.41205,50.767195 108.57397,49.951739 C 108.68018,49.038884 110.117,48.746149 110.57187,49.544706 C 111.21964,50.174425 112.27281,50.33496 113.07879,49.926866 C 112.36177,47.146609 108.32219,46.764692 110.54277,43.16148 C 111.66764,42.284717 113.47779,42.5209 114.34,43.656967 C 114.42708,44.605727 112.89944,45.056203 112.45736,44.212496 C 108.83169,44.930526 113.99127,48.084982 114.95935,49.357942 C 115.29419,50.565196 113.98495,51.849243 112.78443,51.491029 C 112.42248,51.447107 112.05918,51.36615 111.69276,51.40572 z"
       id="text2583"
       sodipodi:nodetypes="ccccccccccccccccccccccccccccccccccccccc" />
    <path
       style="fill:#00ff00;fill-rule:evenodd;stroke:#008000;stroke-width:1px;stroke-linecap:butt;stroke-linejoin:miter;stroke-opacity:1"
       d="M 4.125,69.5 C 2.5321314,70.075246 3.0888154,71.360766 3.625,72.625 C 4.2592728,74.167204 5.3408163,74.247676 6.75,73.75 C 7.6660459,72.787562 7.3868628,71.482499 7.25,70.25 C 6.3761283,68.997209 5.4869099,69.04763 4.125,69.5 z"
       id="path3385"
       sodipodi:nodetypes="ccccc" />
    <path
       id="path3392"
       d="M 6.625,65.375 C 7.1696791,67.595556 8.5011429,68.659333 10.875,68.25 C 11.791046,67.287562 11.511863,65.982499 11.375,64.75 C 9.9249668,63.150241 7.3467401,63.481598 6.625,65.375 z"
       style="fill:#0000ff;fill-rule:evenodd;stroke:#000080;stroke-width:1px;stroke-linecap:butt;stroke-linejoin:miter;stroke-opacity:1"
       sodipodi:nodetypes="cccc" />
    <path
       style="fill:#ff0000;fill-rule:evenodd;stroke:#800000;stroke-width:1px;stroke-linecap:butt;stroke-linejoin:miter;stroke-opacity:1"
       d="M 14.75,64.75 C 12.892271,65.983174 13.996501,68.218069 15.5,69.25 C 18.051292,69.507216 18.715677,68.19225 18.5,66.25 C 17.626128,64.997209 16.11191,64.29763 14.75,64.75 z"
       id="path3394"
       sodipodi:nodetypes="cccc" />
    <path
       style="fill:#ff0000;fill-rule:evenodd;stroke:#800000;stroke-width:1px;stroke-linecap:butt;stroke-linejoin:miter;stroke-opacity:1;fill-opacity:1"
       d="M 82,50.5 C 80.901689,51.717499 81.632144,52.747733 82.5,53.875 C 83.288496,54.928787 83.125,56.129088 83.125,57.375 C 84.512671,56.498384 84.987742,55.546953 85.25,54 C 85.598639,51.772296 83.915658,50.671098 82,50.5 z"
       id="path3473"
       sodipodi:nodetypes="ccccc" />
  </g>
</svg>
