<?xml version="1.0" encoding="UTF-8" standalone="no"?>
<!-- Created with Inkscape (http://www.inkscape.org/) -->
<svg xmlns:dc="http://purl.org/dc/elements/1.1/" xmlns:cc="http://creativecommons.org/ns#" xmlns:rdf="http://www.w3.org/1999/02/22-rdf-syntax-ns#" xmlns:svg="http://www.w3.org/2000/svg" xmlns="http://www.w3.org/2000/svg" xmlns:sodipodi="http://sodipodi.sourceforge.net/DTD/sodipodi-0.dtd" xmlns:inkscape="http://www.inkscape.org/namespaces/inkscape" width="128" height="128" id="svg2" sodipodi:version="0.32" inkscape:version="0.46" version="1.0" sodipodi:docname="house-painter.svg" inkscape:output_extension="org.inkscape.output.svg.inkscape" inkscape:export-xdpi="90" inkscape:export-ydpi="90" inkscape:export-filename="/home/nicu/public_html/fedora/webcomics/perfect-wallpaper.png">
  <defs id="defs4">
    <filter height="1.6532674" y="-0.32663372" width="1.2502785" x="-0.12513924" id="filter3443" inkscape:collect="always">
      <feGaussianBlur id="feGaussianBlur3445" stdDeviation="1.9634296" inkscape:collect="always"/>
    </filter>
  </defs>
  <sodipodi:namedview id="base" pagecolor="#ffffff" bordercolor="#666666" borderopacity="1.0" gridtolerance="10000" guidetolerance="10" objecttolerance="10" inkscape:pageopacity="0" inkscape:pageshadow="2" inkscape:zoom="1" inkscape:cx="64" inkscape:cy="84.927091" inkscape:document-units="px" inkscape:current-layer="layer1" showgrid="false" inkscape:window-width="1026" inkscape:window-height="741" inkscape:window-x="630" inkscape:window-y="128" showguides="true" inkscape:guide-bbox="true"/>
  <metadata id="metadata7">
    <rdf:RDF>
      <cc:Work rdf:about="">
        <dc:format>image/svg+xml</dc:format>
        <dc:type rdf:resource="http://purl.org/dc/dcmitype/StillImage"/>
        <cc:license rdf:resource="http://creativecommons.org/licenses/by-sa/3.0/"/>
        <dc:title>Fedora WEBCOMIC 2.0</dc:title>
        <dc:date>May 2008</dc:date>
        <dc:creator>
          <cc:Agent>
            <dc:title>Nicu Buculei</dc:title>
          </cc:Agent>
        </dc:creator>
        <dc:rights>
          <cc:Agent>
            <dc:title>Nicu Buculei</dc:title>
          </cc:Agent>
        </dc:rights>
        <dc:subject>
          <rdf:Bag>
            <rdf:li>fedora</rdf:li>
            <rdf:li>webcomic</rdf:li>
            <rdf:li>nicubunu</rdf:li>
          </rdf:Bag>
        </dc:subject>
        <dc:language>en-US</dc:language>
      </cc:Work>
      <cc:License rdf:about="http://creativecommons.org/licenses/by-sa/3.0/">
        <cc:permits rdf:resource="http://creativecommons.org/ns#Reproduction"/>
        <cc:permits rdf:resource="http://creativecommons.org/ns#Distribution"/>
        <cc:requires rdf:resource="http://creativecommons.org/ns#Notice"/>
        <cc:requires rdf:resource="http://creativecommons.org/ns#Attribution"/>
        <cc:permits rdf:resource="http://creativecommons.org/ns#DerivativeWorks"/>
        <cc:requires rdf:resource="http://creativecommons.org/ns#ShareAlike"/>
      </cc:License>
    </rdf:RDF>
  </metadata>
  <g inkscape:label="Layer 1" inkscape:groupmode="layer" id="layer1">
    <path id="path3018" d="M 80.31031,109.98546 C 74.84557,110.40784 73.48748,106.72558 68.81543,110.87497 C 67.40212,112.28828 67.09003,115.09222 67.48117,116.65676 C 70.35577,120.50778 73.47978,119.5364 78.08654,121.10429 C 80.36287,121.67338 82.34946,121.9938 85.20259,121.9938 C 88.1024,121.9938 89.88655,123.43223 92.7634,121.9938 C 94.99449,120.87826 97.05411,121.22191 98.98995,119.77003 C 100.50231,118.63576 101.21635,116.6462 101.65847,114.87775 C 102.4423,111.74242 99.78184,111.27091 98.10044,110.43022 C 95.93944,109.34972 92.19407,110.01661 90.53963,110.43022 C 88.76635,110.87354 87.22361,108.20645 84.75784,108.20645 C 82.75849,108.20645 83.69842,109.98546 80.31031,109.98546 z" style="fill: rgb(0, 0, 0); fill-opacity: 0.728395; fill-rule: evenodd; stroke: none; stroke-width: 1px; stroke-linecap: butt; stroke-linejoin: miter; stroke-opacity: 1; filter: url(#filter3443);" sodipodi:nodetypes="ccccsssssssc"/>
    <path style="fill: rgb(0, 128, 0); fill-rule: evenodd; stroke: rgb(0, 50, 0); stroke-width: 1px; stroke-linecap: butt; stroke-linejoin: miter; stroke-opacity: 1; fill-opacity: 1;" d="M 45.342031,2.08867 C 35.533668,5.5999398 22.890563,2.5136249 12.905039,4.7045563 C 6.5235292,7.7173401 6.5103973,43.321751 9.068406,46.035561 C 15.772499,54.118735 19.29273,39.42976 20.055129,36.61837 C 20.636629,40.666088 19.237182,44.163233 23.891762,45.861168 C 30.166571,45.026347 28.459931,36.422058 32.262598,32.607344 C 31.531037,35.115518 29.415825,34.845283 35.22727,36.269585 C 44.653468,36.878606 49.078501,30.545775 48.306701,22.492583 C 47.654146,11.778543 48.812559,11.292491 45.342031,2.08867 z" id="path3590" sodipodi:nodetypes="ccccccccc"/>
    <g transform="translate(-237.488, -101.709)" id="g3765"/>
    <g id="g4184" transform="translate(-302.488, -113.709)"/>
    <g transform="translate(-239.179, -459.88)" id="g2913"/>
    <g id="g2915" transform="translate(-304.179, -471.88)"/>
    <g transform="translate(-491.787, -747.689)" id="g4771"/>
    <g id="g4773" transform="translate(-556.787, -759.689)"/>
    <g id="g3779" transform="translate(-392.208, -858.689)"/>
    <g id="g2979" inkscape:label="Layer 1" transform="translate(16.1626, -635.901)"/>
    <g id="g4951" transform="translate(476.337, -707.313)"/>
    <g id="g2549" transform="translate(-206.957, -193.24)"/>
    <g transform="translate(-375.436, -569.526)" id="g4612"/>
    <g id="g4614" transform="translate(-440.436, -581.526)"/>
    <g id="g4620" transform="translate(52.1431, -702.526)"/>
    <g transform="translate(-221.092, -1194.2)" id="g5123"/>
    <g id="g5125" transform="translate(-286.092, -1206.2)"/>
    <g id="g5217" transform="translate(-246.184, -1167.2)"/>
    <g id="g3922" transform="translate(62.4868, -1246.2)"/>
    <g transform="translate(-131.513, -1283.2)" id="g4629"/>
    <g transform="translate(-738.043, -1106.33)" id="g6345"/>
    <g id="g6347" transform="translate(-803.043, -1118.33)"/>
    <g id="g6435" transform="translate(-638.464, -1217.33)"/>
    <g id="g4863" inkscape:label="Layer 1" transform="translate(-230.094, -994.547)"/>
    <g id="g4865" transform="translate(230.081, -1065.96)"/>
    <g transform="translate(-828.908, -1227.35)" id="g7337"/>
    <g id="g7339" transform="translate(-893.908, -1239.35)"/>
    <g transform="translate(-1028.88, -1490.23)" id="g2996"/>
    <g id="g2998" transform="translate(-1093.88, -1502.23)"/>
    <g id="g7400" transform="translate(-864.301, -1578.23)"/>
    <g id="g3109" transform="translate(-767.301, -1643.23)"/>
    <g transform="translate(-923.537, -1937.91)" id="g4449"/>
    <g id="g4451" transform="translate(-988.537, -1949.91)"/>
    <g id="g4524" transform="translate(-948.628, -1910.91)"/>
    <g id="g7429" transform="translate(-639.958, -1989.91)"/>
    <g transform="translate(-833.958, -2026.91)" id="g7431"/>
    <g transform="translate(-1019.52, -1665.16)" id="g3869"/>
    <g id="g3871" transform="translate(-1084.52, -1677.16)"/>
    <g id="g3959" transform="translate(-919.936, -1776.16)"/>
    <g id="g7451" inkscape:label="Layer 1" transform="translate(-511.566, -1553.37)"/>
    <g id="g7453" transform="translate(-51.391, -1624.79)"/>
    <g transform="translate(-1077.41, -1531.74)" id="g4625"/>
    <g id="g4627" transform="translate(-1142.41, -1543.74)"/>
    <g id="g4690" transform="translate(-1287.83, -1522.74)"/>
    <g transform="translate(-911.658, -1536.32)" id="g5403"/>
    <g id="g5405" transform="translate(-976.658, -1548.32)"/>
    <g transform="matrix(1.27524, 0, 0, 1.27524, -909.471, -1736.19)" id="g5523"/>
    <g transform="translate(-1128.24, -2395.28)" id="g6346"/>
    <g id="g6377" transform="translate(-1193.24, -2407.28)"/>
    <g id="g2803" transform="translate(-1075.33, -2441.28)"/>
    <g transform="translate(-1136.52, -873.233)" id="g7732"/>
    <g id="g7734" transform="translate(-1201.52, -885.233)"/>
    <g id="g7797" transform="translate(-1346.94, -864.233)"/>
    <g transform="translate(340.901, -151.339)" id="g11939">
      <g id="g11965" transform="matrix(0.924475, -0.381242, 0.381242, 0.924475, 32.8554, 35.0044)"/>
    </g>
    <g id="g7854" transform="translate(30.0913, -162.709)"/>
    <path style="fill: rgb(233, 210, 175); fill-opacity: 1; fill-rule: evenodd; stroke: rgb(63, 45, 16); stroke-width: 1px; stroke-linecap: butt; stroke-linejoin: miter; stroke-opacity: 1;" d="M 80.97461,79.67127 C 78.15859,79.38441 75.06018,78.47662 72.95352,76.56524 C 72.27069,75.40081 73.98328,74.4619 72.82253,73.41788 C 71.58386,73.36454 70.97512,74.40901 70.38652,75.41124 C 69.06898,74.21218 68.19027,72.36714 66.04894,73.43448 C 66.28565,74.57601 67.2477,75.58303 68.18899,76.13716 C 66.97275,75.92282 64.89471,74.27075 65.2412,76.76681 C 65.75328,78.07387 67.08388,77.8737 68.26683,78.26981 C 66.69156,78.76643 64.61035,78.47202 66.60954,80.25618 C 67.61565,80.65809 68.47541,80.35623 69.44345,80.0395 C 70.52847,80.18738 71.52149,80.86574 72.526,81.33601 C 74.38548,83.26646 76.75703,84.32324 79.17441,85.39597 C 81.55603,84.44146 85.82176,87.1576 88.14352,86.43802 C 89.12448,86.32966 89.38008,77.80398 90.26199,77.45688 C 91.56696,75.31566 88.23475,75.46478 86.37057,73.8204 C 83.86537,71.79936 83.44228,79.77101 80.97461,79.67127 z" id="path3467" sodipodi:nodetypes="cccccccccccccccc"/>
    <path style="fill: rgb(170, 109, 0); fill-opacity: 1; fill-rule: evenodd; stroke: rgb(98, 62, 0); stroke-width: 1px; stroke-linecap: butt; stroke-linejoin: miter; stroke-opacity: 1;" d="M 86.483382,108.52501 L 39.948923,26.044431 C 38.299748,25.262211 36.481601,23.794039 35.913991,27.402489 L 83.647451,110.31596 C 85.751895,110.88614 86.297889,109.88707 86.483382,108.52501 z" id="path7587" sodipodi:nodetypes="ccccc"/>
    <path style="fill: rgb(0, 128, 0); fill-opacity: 1; fill-rule: evenodd; stroke: rgb(0, 50, 0); stroke-width: 1px; stroke-linecap: butt; stroke-linejoin: miter; stroke-opacity: 1;" d="M 45.347996,2.1388854 C 52.319091,5.6450103 51.115522,8.7868998 49.94466,11.930243 L 20.749786,23.491361 C 17.161469,20.491313 12.372875,17.968986 15.85463,13.227348 L 45.347996,2.1388854 z" id="path7627" sodipodi:nodetypes="ccccc"/>
    <path style="fill: rgb(0, 128, 0); fill-opacity: 1; fill-rule: evenodd; stroke: rgb(0, 50, 0); stroke-width: 1px; stroke-linecap: butt; stroke-linejoin: miter; stroke-opacity: 1;" d="M 17.630733,14.155294 C 21.025199,15.222189 23.336282,17.065852 20.603058,22.526169" id="path7629" sodipodi:nodetypes="cc"/>
    <path style="fill: none; fill-rule: evenodd; stroke: rgb(0, 0, 0); stroke-width: 1px; stroke-linecap: butt; stroke-linejoin: miter; stroke-opacity: 1;" d="M 36.085637,27.360207 C 27.954774,28.671381 16.351707,27.36577 19.070837,19.262383" id="path7631" sodipodi:nodetypes="cc"/>
    <path style="fill: none; fill-rule: evenodd; stroke: rgb(0, 0, 0); stroke-width: 1px; stroke-linecap: butt; stroke-linejoin: miter; stroke-opacity: 1;" d="M 49.235678,12.377981 C 48.70836,17.286951 47.35491,22.074985 40.120569,26.002149" id="path7633" sodipodi:nodetypes="cc"/>
    <path style="fill: rgb(230, 230, 230); fill-rule: evenodd; stroke: rgb(51, 51, 51); stroke-width: 1px; stroke-linecap: butt; stroke-linejoin: miter; stroke-opacity: 1;" d="M 91.4716,109.56172 C 89.01873,109.66855 85.8239,108.79175 83.11443,109.49572 C 82.45233,110.03202 82.08106,110.84133 81.62575,111.55263 C 81.25814,112.60559 81.54277,113.51974 81.9784,114.49392 C 83.59128,116.21213 86.08616,116.67442 88.28248,117.26974 C 90.08273,118.0579 93.64878,119.51106 95.52946,118.75164 C 98.28993,117.88239 98.99601,115.17767 98.49036,112.59679 C 96.11105,111.66831 93.77351,110.66731 91.4716,109.56172 z" id="path3523" sodipodi:nodetypes="cccccccc"/>
    <path style="fill: none; fill-rule: evenodd; stroke: rgb(51, 51, 51); stroke-width: 1px; stroke-linecap: butt; stroke-linejoin: miter; stroke-opacity: 1;" d="M 81.94933,112.56379 C 84.16763,114.17056 87.77602,116.04391 90.00662,116.12925 C 92.42289,116.83388 94.8818,118.11503 97.97224,116.79278" id="path3527" sodipodi:nodetypes="ccc"/>
    <path sodipodi:nodetypes="cccccccc" id="path3521" d="M 81.63068,109.77594 C 79.17781,109.88276 75.98298,109.00597 73.27351,109.70993 C 72.61141,110.24623 72.24015,111.05555 71.78483,111.76685 C 71.41722,112.81981 71.70186,113.73395 72.13748,114.70814 C 73.75036,116.42634 76.24525,116.88864 78.44157,117.48395 C 80.24181,118.27212 83.80786,119.72527 85.68855,118.96586 C 88.44902,118.09661 89.15509,115.39189 88.64944,112.811 C 86.27014,111.88252 83.93259,110.88153 81.63068,109.77594 z" style="fill: rgb(230, 230, 230); fill-rule: evenodd; stroke: rgb(51, 51, 51); stroke-width: 1px; stroke-linecap: butt; stroke-linejoin: miter; stroke-opacity: 1;"/>
    <path sodipodi:nodetypes="ccccc" id="path7972" d="M 99.91398,67.52035 C 102.22355,69.91565 103.76154,72.63785 104.75474,75.76628 C 105.99485,77.97384 100.5477,87.18674 100.8228,89.75383 C 97.42811,90.39523 100.70875,82.47355 97.34234,82.93666 C 95.80148,78.84021 96.06485,74.34551 95.98087,70.02997" style="fill: rgb(108, 83, 83); fill-opacity: 1; fill-rule: evenodd; stroke: rgb(36, 28, 28); stroke-width: 1px; stroke-linecap: butt; stroke-linejoin: miter; stroke-opacity: 1;"/>
    <path sodipodi:nodetypes="cscccccccc" id="path7974" d="M 81.21562,94.20441 C 81.0914,94.87192 80.45433,96.60518 80.68079,97.73892 C 80.85476,98.6099 81.11533,99.47933 81.32258,100.30947 C 81.76644,102.49041 80.94113,104.57854 80.78775,106.73584 C 81.22853,108.62841 80.67083,111.61826 81.96438,112.948 C 84.21495,114.65122 87.66767,114.57158 88.91721,112.41247 C 88.70305,111.55474 88.86601,111.04327 88.48934,110.16324 C 87.3888,107.81621 87.91003,105.13858 88.27541,102.6658 C 88.3248,99.41754 88.93211,96.2771 88.81024,93.02624 C 86.95555,92.34002 82.38633,92.8368 81.21562,94.20441 z" style="fill: rgb(0, 50, 92); fill-opacity: 1; fill-rule: evenodd; stroke: rgb(0, 25, 46); stroke-width: 1px; stroke-linecap: butt; stroke-linejoin: miter; stroke-opacity: 1;"/>
    <path sodipodi:nodetypes="cccccccc" style="fill: rgb(0, 50, 92); fill-opacity: 1; fill-rule: evenodd; stroke: rgb(0, 25, 46); stroke-width: 1px; stroke-linecap: butt; stroke-linejoin: miter; stroke-opacity: 1;" d="M 90.73564,94.09731 C 90.61142,94.76482 89.97435,96.49808 90.2008,97.63181 C 91.00815,100.02677 91.11988,102.26405 90.5217,104.70082 C 90.53533,107.09114 89.77532,111.08398 91.4844,112.84089 C 93.91945,113.80657 96.36747,114.42201 98.43722,112.30536 C 97.37138,109.00497 97.28753,105.99604 97.79542,102.5587 C 97.82014,99.30226 98.45298,96.19251 98.33026,92.91914 C 96.47557,92.23291 91.90635,92.72969 90.73564,94.09731 z" id="path3353"/>
    <path sodipodi:nodetypes="cccccccccccc" id="path3355" d="M 101.67312,96.90484 C 99.2727,93.93906 101.99578,89.92559 102.30195,86.52907 C 104.13586,83.72593 103.06399,77.39676 102.01015,73.07413 C 101.61158,70.41295 100.7296,68.01687 99.3942,65.69641 C 97.86734,63.62877 95.82818,62.45235 93.2363,62.31969 C 89.91097,62.80738 86.55425,62.35799 83.25224,63.07704 C 80.81573,64.13858 79.13647,65.89697 78.86532,68.52999 C 78.74763,70.90683 78.90714,73.04865 77.8064,75.19472 C 77.4751,79.00889 77.92285,83.09572 78.45896,86.92073 C 79.22438,91.37068 75.60571,92.98298 76.09809,97.42107 C 79.93337,95.22256 84.9042,98.5366 89.25887,98.04848 C 92.91126,96.74108 99.40717,99.67794 101.67312,96.90484 z" style="fill: rgb(108, 83, 83); fill-opacity: 1; fill-rule: evenodd; stroke: rgb(36, 28, 28); stroke-width: 1px; stroke-linecap: butt; stroke-linejoin: miter; stroke-opacity: 1;"/>
    <path sodipodi:nodetypes="cccccccccccccccc" id="path3357" d="M 72.57961,80.28439 C 70.12281,78.87678 67.65989,76.78692 66.51038,74.18344 C 66.35885,72.84167 68.3047,72.68036 67.6676,71.25421 C 66.55739,70.70161 65.57739,71.40839 64.63294,72.08476 C 63.91548,70.45317 63.86111,68.40979 61.4714,68.51405 C 61.22457,69.65342 61.69509,70.96495 62.33039,71.85418 C 61.306,71.16359 60.07742,68.8087 59.38135,71.23046 C 59.31898,72.6331 60.61604,72.99145 61.53627,73.83459 C 59.89537,73.6476 58.11307,72.53199 59.216,74.97552 C 59.9723,75.75204 60.88037,75.82593 61.89344,75.93029 C 62.8249,76.50678 63.45707,77.53057 64.18416,78.3689 C 65.10007,80.88925 66.83836,82.81959 68.61207,84.78314 C 71.17556,84.87973 72.38592,87.92215 74.79941,88.20905 C 75.73973,88.50906 81.06115,82.95426 82.00783,82.99583 C 84.06899,81.57008 80.92031,79.39388 79.88402,77.13301 C 78.41483,74.2672 74.79401,81.37931 72.57961,80.28439 z" style="fill: rgb(233, 210, 175); fill-opacity: 1; fill-rule: evenodd; stroke: rgb(63, 45, 16); stroke-width: 1px; stroke-linecap: butt; stroke-linejoin: miter; stroke-opacity: 1;"/>
    <path sodipodi:nodetypes="ccccccc" id="path3359" d="M 79.96144,67.36608 C 78.4692,68.95328 77.41012,70.73116 76.43002,72.65031 C 75.32069,74.50588 73.90257,76.09837 72.37044,77.60233 C 75.13765,79.9363 78.89496,81.66996 82.20049,83.48115 C 83.21729,81.98007 84.1343,80.42173 85.1819,78.93559 C 86.48003,76.89452 86.1728,74.59134 86.91929,72.43628 C 87.31945,70.29726 86.73194,68.47683 84.77611,67.3574" style="fill: rgb(108, 83, 83); fill-opacity: 1; fill-rule: evenodd; stroke: rgb(36, 28, 28); stroke-width: 1px; stroke-linecap: butt; stroke-linejoin: miter; stroke-opacity: 1;"/>
    <path sodipodi:nodetypes="ccccc" id="path3367" d="M 95.54832,64.87254 C 94.06045,68.80076 86.68968,67.50583 84.07695,63.76787 C 85.1193,61.64509 85.85761,59.09564 88.14168,57.98413 C 90.08142,57.76238 91.96406,58.30244 93.81091,58.84098 C 95.29833,60.00254 95.88107,63.38055 95.54832,64.87254 z" style="fill: rgb(233, 210, 175); fill-opacity: 1; fill-rule: evenodd; stroke: rgb(63, 45, 16); stroke-width: 1px; stroke-linecap: butt; stroke-linejoin: miter; stroke-opacity: 1;"/>
    <path style="fill: rgb(233, 210, 175); fill-opacity: 1; fill-rule: evenodd; stroke: rgb(63, 45, 16); stroke-width: 1px; stroke-linecap: butt; stroke-linejoin: miter; stroke-opacity: 1;" d="M 93.47514,25.8281 C 97.28474,25.88041 101.19243,27.32736 102.67426,31.15664 C 103.9839,35.46353 106.2443,39.87387 105.7228,44.49136 C 104.25566,49.3254 103.05233,54.853 99.06414,58.12063 C 96.27878,60.72195 91.28181,61.98371 87.56524,62.05678 C 83.37858,61.12244 80.45784,58.81188 79.38231,54.47902 C 78.60687,51.91108 79.03682,49.8382 79.30208,47.38323 C 78.32779,48.00557 77.22598,48.27028 75.87915,47.99909 C 73.50552,46.88507 74.21722,45.34512 76.01286,43.82195 C 76.83809,43.70691 77.87867,43.77023 78.90096,43.60774 C 78.58643,42.15049 78.2859,40.56922 78.2859,39.56448 C 78.40523,31.87972 81.93823,25.96309 90.8812,26.01554 C 91.71735,25.89185 92.59601,25.81603 93.47514,25.8281 z" id="path3375"/>
    <path sodipodi:nodetypes="ccc" id="path3373" d="M 79.96922,37.19792 C 81.98337,37.65082 82.92862,39.19117 82.53642,41.48217 C 80.21108,45.78177 75.78893,39.59555 79.96922,37.19792 z" style="fill: rgb(255, 255, 255); fill-rule: evenodd; stroke: rgb(51, 51, 51); stroke-width: 1px; stroke-linecap: butt; stroke-linejoin: miter; stroke-opacity: 1;"/>
    <g id="g3437" transform="matrix(0.684736, 0.0572867, -0.071251, 0.853875, -53.7381, 146.111)">
      <path style="fill: rgb(233, 210, 175); fill-opacity: 1; fill-rule: evenodd; stroke: rgb(63, 45, 16); stroke-width: 1.30326px; stroke-linecap: butt; stroke-linejoin: miter; stroke-opacity: 1;" d="M 192.15788,-132.54318 C 198.02126,-134.8727 196.98809,-126.18901 192.65788,-127.04318" id="path3377" sodipodi:nodetypes="cc"/>
      <path style="fill: rgb(233, 210, 175); fill-opacity: 1; fill-rule: evenodd; stroke: rgb(63, 45, 16); stroke-width: 1.30326px; stroke-linecap: butt; stroke-linejoin: miter; stroke-opacity: 1;" d="M 193.28288,-131.16818 C 194.13396,-132.66112 196.37537,-129.98839 193.28288,-128.54318" id="path3379" sodipodi:nodetypes="cs"/>
    </g>
    <path sodipodi:nodetypes="cssc" id="path3385" d="M 79.22806,38.34248 C 78.8367,37.52958 81.09113,38.18168 80.51166,40.05618 C 80.11174,41.34985 78.69349,40.55396 78.58626,40.4846 C 77.14833,39.55461 78.31114,37.18381 79.22806,38.34248 z" style="fill: rgb(0, 0, 0); fill-rule: evenodd; stroke: rgb(0, 0, 0); stroke-width: 1px; stroke-linecap: butt; stroke-linejoin: miter; stroke-opacity: 1;"/>
    <path style="fill: rgb(40, 23, 11); fill-opacity: 1; fill-rule: evenodd; stroke: rgb(18, 10, 4); stroke-width: 1px; stroke-linecap: butt; stroke-linejoin: miter; stroke-opacity: 1;" d="M 79.67646,31.23697 C 81.97081,31.87737 84.54059,29.76663 85.23872,32.30803 C 86.19741,34.30749 87.41689,35.31781 86.09445,37.44913 C 85.26418,38.83805 85.76,42.79881 85.02479,45.37499 C 85.34449,45.69511 89.43693,42.59023 89.94525,42.59023 C 90.97218,45.46649 90.28496,48.47529 89.94525,51.58715 C 90.10431,56.69281 93.6361,58.16464 96.57717,60.79828 C 99.38603,59.95497 102.56748,58.66577 102.99516,56.08561 C 109.99882,47.25318 111.8421,32.00458 101.71156,26.73851 C 98.79323,23.15178 90.34996,22.17255 83.31333,25.23902 C 81.38943,26.86514 76.43548,30.21018 79.67646,31.23697 z" id="path3433" sodipodi:nodetypes="ccccccccccc"/>
    <path sodipodi:nodetypes="ccc" id="path3525" d="M 71.46662,112.778 C 73.68491,114.38477 77.2933,116.25812 79.5239,116.34346 C 81.94018,117.04809 84.39909,118.32924 87.48953,117.00699" style="fill: none; fill-rule: evenodd; stroke: rgb(51, 51, 51); stroke-width: 1px; stroke-linecap: butt; stroke-linejoin: miter; stroke-opacity: 1;"/>
    <path style="fill: none; fill-rule: evenodd; stroke: rgb(63, 45, 16); stroke-width: 1px; stroke-linecap: butt; stroke-linejoin: miter; stroke-opacity: 1;" d="M 79.56411,55.88715 C 81.87434,57.75633 83.30476,56.54613 84.69063,55.18004" id="path8155" sodipodi:nodetypes="cc"/>
    <g transform="matrix(0.924475, -0.381242, 0.381242, 0.924475, 628.756, -33.3349)" id="g9892"/>
    <g id="g3648" transform="translate(-405.932, -168.059)"/>
  </g>
</svg>