<?xml version="1.0" encoding="UTF-8" standalone="no"?>
<!-- Created with Inkscape (http://www.inkscape.org/) -->
<svg
   xmlns:dc="http://purl.org/dc/elements/1.1/"
   xmlns:cc="http://creativecommons.org/ns#"
   xmlns:rdf="http://www.w3.org/1999/02/22-rdf-syntax-ns#"
   xmlns:svg="http://www.w3.org/2000/svg"
   xmlns="http://www.w3.org/2000/svg"
   xmlns:sodipodi="http://sodipodi.sourceforge.net/DTD/sodipodi-0.dtd"
   xmlns:inkscape="http://www.inkscape.org/namespaces/inkscape"
   width="128"
   height="128"
   id="svg2"
   sodipodi:version="0.32"
   inkscape:version="0.46"
   version="1.0"
   sodipodi:docname="the-sweaty-fatman.svg"
   inkscape:output_extension="org.inkscape.output.svg.inkscape">
  <defs
     id="defs4">
    <filter
       inkscape:collect="always"
       id="filter3406"
       x="-0.11461057"
       width="1.2292211"
       y="-0.24987043"
       height="1.499741">
      <feGaussianBlur
         inkscape:collect="always"
         stdDeviation="4.5975223"
         id="feGaussianBlur3408" />
    </filter>
  </defs>
  <sodipodi:namedview
     id="base"
     pagecolor="#ffffff"
     bordercolor="#666666"
     borderopacity="1.0"
     gridtolerance="10000"
     guidetolerance="10"
     objecttolerance="10"
     inkscape:pageopacity="0.0"
     inkscape:pageshadow="2"
     inkscape:zoom="1"
     inkscape:cx="64"
     inkscape:cy="64.157618"
     inkscape:document-units="px"
     inkscape:current-layer="layer1"
     showgrid="false"
     inkscape:window-width="1538"
     inkscape:window-height="961"
     inkscape:window-x="127"
     inkscape:window-y="31" />
  <metadata
     id="metadata7">
    <rdf:RDF>
      <cc:Work
         rdf:about="">
        <dc:format>image/svg+xml</dc:format>
        <dc:type
           rdf:resource="http://purl.org/dc/dcmitype/StillImage" />
      </cc:Work>
    </rdf:RDF>
  </metadata>
  <g
     inkscape:label="Layer 1"
     inkscape:groupmode="layer"
     id="layer1">
    <g
       id="g3652"
       transform="translate(-349.57531,-188.21168)">
      <path
         sodipodi:nodetypes="ccccccccsc"
         id="path2494"
         d="M 439,291 C 436.90037,291.67211 426.24838,290.979 420.89498,292.31735 C 414.71149,290.57985 420.20345,295.92681 414.17157,292.94975 C 412.09443,276.87714 382.63195,272.24643 368.5,276 C 362.51268,277.49683 381.27198,288.54395 382,290 C 417.58733,299.24238 401.33468,272.77807 411.79454,297.07501 C 412.48358,307.89756 433.58747,311.94002 443,312 C 449.2177,309.58345 464.2141,309.43567 467.94976,303.73059 C 471.08382,297.46248 455.10157,294.77539 452,294 C 446.25683,292.56421 445.77997,291 439,291 z"
         style="fill:#000000;fill-opacity:0.60905349;fill-rule:evenodd;stroke:none;stroke-width:1px;stroke-linecap:butt;stroke-linejoin:miter;stroke-opacity:1;filter:url(#filter3406)" />
      <path
         style="fill:#aa4400;fill-opacity:1;fill-rule:evenodd;stroke:#301200;stroke-width:1px;stroke-linecap:butt;stroke-linejoin:miter;stroke-opacity:1"
         d="M 398.93133,253.58612 C 401.69988,252.24359 403.31626,254.53898 403.62372,250.78721 C 402.96199,243.65617 404.15441,235.7006 402.81068,228.4285 C 402.50224,225.67002 402.6027,228.12477 402.49764,225.3448 C 395.50943,226.57358 387.38941,225.37658 379.32589,228.39372 C 377.37212,228.88216 378.18314,221.0919 378.41936,220.50133 C 375.99338,213.46261 376.05254,208.11033 373.94762,202.4111 C 372.48071,199.81532 370.96731,202.89102 370.89871,204.64697 C 369.2581,213.34782 376.89142,223.67061 373.99436,231.99372 C 376.76866,239.85345 377.00269,235.49472 379.63893,250.99047 C 379.38465,255.61006 383.49008,255.97702 384.44002,252.02199 C 384.84238,245.12437 382.17605,238.59851 383.84654,231.8209 C 384.10845,230.51138 385.22152,229.41329 386.37915,229.41329 C 388.5899,229.78622 394.50866,227.92836 396.46176,228.86655 C 398.05643,231.38235 397.50317,234.73935 397.46285,237.65351 C 396.38442,242.8799 396.39542,248.52694 398.93133,253.58612 z"
         id="path2482"
         sodipodi:nodetypes="cccccccccccccccc" />
      <path
         sodipodi:nodetypes="ccccccc"
         id="path2459"
         d="M 432.66757,296.30295 C 429.98052,296.19389 427.46979,296.02259 425.78569,298.36056 C 425.08238,301.07577 425.68631,303.45647 428.12845,304.82733 C 430.3983,305.6425 432.41494,305.02314 434.57107,304.23946 C 435.18164,303.93303 436.09479,303.94551 436.76742,303.94551 C 439.68656,302.65635 440.92898,298.58584 440.28157,295.56808 C 437.76736,295.45365 435.18627,296.00275 432.66757,296.30295 z"
         style="fill:#552200;fill-opacity:1;fill-rule:evenodd;stroke:#170800;stroke-width:0.99999988px;stroke-linecap:butt;stroke-linejoin:miter;stroke-opacity:1" />
      <path
         sodipodi:nodetypes="ccccc"
         id="path2457"
         d="M 437.35311,297.62571 C 435.51277,300.70327 434.91795,304.16224 437.79238,306.73798 C 442.37118,307.50775 446.26651,305.67404 450.67761,303.21064 C 451.09627,300.88351 451.767,296.63739 448.77411,296.009 C 444.36871,295.1066 440.82884,295.94907 437.35311,297.62571 z"
         style="fill:#552200;fill-opacity:1;fill-rule:evenodd;stroke:#170800;stroke-width:0.99999988px;stroke-linecap:butt;stroke-linejoin:miter;stroke-opacity:1" />
      <path
         sodipodi:nodetypes="ccccccccc"
         id="path2488"
         d="M 370.5812,237.47903 C 373.53534,235.31476 375.65493,231.854 378.71292,229.70086 C 382.95484,228.17409 387.2916,228.37791 391.61762,227.75631 C 394.16163,227.20175 396.80448,227.40276 399.3958,227.40276 C 401.28734,228.72774 400.2856,231.40314 401.34034,233.58994 C 399.77813,237.26429 396.1224,239.30162 393.73894,242.42878 C 392.87016,242.81288 393.36619,239.16985 391.97118,237.65581 C 385.77729,234.47699 379.54389,237.10374 373.23285,238.00936 C 372.10705,238.29081 371.60189,238.29559 370.5812,237.47903 z"
         style="fill:#aa4400;fill-opacity:1;fill-rule:evenodd;stroke:#301200;stroke-width:1px;stroke-linecap:butt;stroke-linejoin:miter;stroke-opacity:1" />
      <path
         sodipodi:nodetypes="cccccccccccccccc"
         id="path2469"
         d="M 389.56217,262.42495 C 392.33072,261.08242 393.9471,263.37781 394.25456,259.62604 C 393.59283,252.495 394.78525,244.53943 393.44152,237.26733 C 393.13308,234.50885 393.23354,236.9636 393.12848,234.18363 C 386.14027,235.41241 378.02025,234.21541 369.95673,237.23255 C 368.00296,237.72099 368.81398,229.93073 369.0502,229.34016 C 366.62422,222.30144 366.68338,216.94916 364.57846,211.24993 C 363.11155,208.65415 361.59815,211.72985 361.52955,213.4858 C 359.88894,222.18665 367.52226,232.50944 364.6252,240.83255 C 367.3995,248.69228 367.63353,244.33355 370.26977,259.8293 C 370.01549,264.44889 374.12092,264.81585 375.07086,260.86082 C 375.47322,253.9632 372.80689,247.43734 374.47738,240.65973 C 374.73929,239.35021 375.85236,238.25212 377.00999,238.25212 C 379.22074,238.62505 385.1395,236.76719 387.0926,237.70538 C 388.68727,240.22118 388.13401,243.57818 388.09369,246.49234 C 387.01526,251.71873 387.02626,257.36577 389.56217,262.42495 z"
         style="fill:#aa4400;fill-opacity:1;fill-rule:evenodd;stroke:#301200;stroke-width:1px;stroke-linecap:butt;stroke-linejoin:miter;stroke-opacity:1" />
      <path
         sodipodi:nodetypes="ccccccccc"
         id="path2465"
         d="M 417.62287,251.88545 C 412.34134,253.10379 405.69916,253.54136 400.30566,252.4956 C 397.23262,251.41628 397.26095,247.57848 397.25674,244.77168 C 397.25674,243.92649 395.13388,241.10099 394.53717,240.50429 C 392.32797,239.27234 392.9317,242.97573 393.59804,244.97495 C 392.74449,248.65807 393.9596,253.90182 393.39478,257.37386 C 393.60512,258.2152 395.1038,258.86824 395.63065,258.99995 C 403.47918,258.91817 409.0873,259.66735 416.51871,262.03147 C 418.06561,261.27256 417.47512,253.57769 417.62287,251.88545 z"
         style="fill:#ffe6e5;fill-opacity:1;fill-rule:evenodd;stroke:#561c00;stroke-width:1px;stroke-linecap:butt;stroke-linejoin:miter;stroke-opacity:1" />
      <path
         sodipodi:nodetypes="ccccccc"
         id="path2463"
         d="M 423.35962,251.42092 C 420.16047,251.40684 421.06717,250.71788 417.8987,250.50194 C 414.29084,253.84946 415.46234,258.8815 415.8747,262.6625 C 419.33375,263.65337 419.22916,263.37252 421.96328,262.76843 C 425.61291,263.38117 429.06858,259.84129 430.09372,256.46734 C 430.35967,254.15454 429.65071,253.14696 427.85784,251.9956 C 426.28238,252.10594 424.95144,251.13847 423.35962,251.42092 z"
         style="fill:#cbcbeb;fill-opacity:1;fill-rule:evenodd;stroke:#0e0e26;stroke-width:1px;stroke-linecap:butt;stroke-linejoin:miter;stroke-opacity:1" />
      <path
         id="path2447"
         d="M 428.56772,249.41879 C 428.3591,249.84769 427.88849,250.97013 427.68918,251.77034 C 427.5195,252.45164 427.39635,252.98578 427.39635,253.68099 C 427.39635,254.20484 426.63259,255.21421 426.37138,255.73859 C 425.95927,256.5659 425.43721,256.8438 425.2,257.7962 C 425.03717,258.44996 424.66422,258.91854 424.46788,259.70685 C 424.35258,260.16976 424.03285,261.01256 423.88219,261.61749 C 423.65645,262.52379 423.58934,263.28578 423.58934,264.26299 C 423.58934,265.15564 423.68319,265.96254 423.88219,266.76151 C 424.11279,267.68739 424.24757,268.22988 424.61431,268.9661 C 424.97906,269.69835 425.03215,270.24585 425.34642,270.87674 C 425.69904,271.58462 426.06754,272.04149 426.51781,272.49344 C 426.96613,272.94345 427.24014,273.70512 427.54277,274.11013 C 428.04114,274.77713 428.32655,275.07842 429.15341,275.28591 C 429.90072,275.47343 430.62399,275.54471 431.34976,275.72683 C 432.07492,275.90879 433.09553,275.72683 433.83895,275.72683 C 434.75458,275.72683 435.60217,275.43289 436.62099,275.43289 C 437.54834,275.43289 438.47569,275.43289 439.40303,275.43289 C 440.69892,275.43289 440.94874,275.47377 441.45296,275.72683 C 442.08532,276.04419 443.7637,275.57985 444.52784,275.57985 C 445.77776,275.57985 446.51308,275.13552 447.60273,274.69802 C 448.38254,274.38492 449.01754,274.64934 449.79908,274.25711 C 450.45427,273.92828 451.08619,274.14092 451.55615,273.66922 C 451.998,273.22571 452.97892,273.12295 453.60607,272.49344 C 454.25082,271.84627 454.57047,271.11992 454.77746,270.28886 C 454.96245,269.5461 454.92388,268.73859 454.92388,267.93729 C 454.92388,267.02142 454.63104,266.55957 454.63104,265.58573 C 454.63104,264.64187 454.48462,263.88842 454.48462,262.94024 C 454.48462,261.91143 454.48462,260.88262 454.48462,259.85382 C 454.48462,258.47416 454.19177,257.22184 454.19177,255.88557 C 454.19177,254.81506 453.71692,253.39119 453.45965,252.35823 C 453.23291,251.44789 452.59666,250.32142 452.14184,249.71273 C 451.69567,249.1156 451.5502,248.21913 451.40973,247.65512 C 451.23651,246.95962 450.98144,246.29807 450.67761,245.89145 C 450.23196,245.29501 450.44541,244.96656 449.65265,244.5687 C 449.1028,244.29275 447.64828,244.5687 447.01704,244.5687 C 446.20727,244.5687 445.67,243.98081 444.67426,243.98081 C 443.50288,243.98081 442.3315,243.98081 441.16011,243.98081 C 440.32989,243.98081 439.47618,243.55457 438.67091,243.39292 C 437.82451,243.223 436.74733,243.39292 435.88887,243.39292 C 434.70875,243.39292 433.76348,244.05658 433.10684,244.71568 C 432.64565,245.17859 431.98038,245.50147 431.49618,245.74448 C 430.81384,246.08693 430.33064,246.76549 429.88553,247.36117 C 429.2339,248.23328 428.99306,248.35146 428.56772,249.41879 z"
         style="fill:#cbcbeb;fill-opacity:1;fill-rule:evenodd;stroke:#0e0e26;stroke-width:0.99999988px;stroke-linecap:butt;stroke-linejoin:miter;stroke-opacity:1" />
      <path
         sodipodi:nodetypes="ccccccccc"
         id="path2413"
         d="M 426.99504,200.88158 C 424.51077,206.96727 419.22907,211.50365 417.77028,218.03113 C 416.69876,223.99454 418.32334,230.25654 420.09506,235.9629 C 422.90429,242.92759 434.84472,243.18361 441.71846,242.72066 C 445.84344,241.71023 450.10858,239.98261 453.6415,237.544 C 458.71518,231.54907 458.9462,223.54032 458.95981,216.11229 C 457.98705,209.67826 456.40989,201.86304 450.87557,197.7565 C 447.0608,194.45398 443.53752,192.75366 438.40773,192.93675 C 433.66222,193.93399 429.73887,196.92786 426.99504,200.88158 z"
         style="fill:#ffe6e5;fill-opacity:1;fill-rule:evenodd;stroke:#561c00;stroke-width:1px;stroke-linecap:butt;stroke-linejoin:miter;stroke-opacity:1" />
      <path
         sodipodi:nodetypes="ccc"
         id="path2417"
         d="M 422.17515,236.95429 C 422.80886,239.81846 423.54679,242.63823 426.44363,243.6619 C 430.89192,244.46955 434.50038,242.2283 436.40342,238.37712"
         style="fill:#ffe6d5;fill-opacity:1;fill-rule:evenodd;stroke:#562200;stroke-width:1px;stroke-linecap:butt;stroke-linejoin:miter;stroke-opacity:1" />
      <path
         sodipodi:nodetypes="cccc"
         id="path2419"
         d="M 427.86646,209.71732 C 424.85134,210.76424 417.82679,211.80796 415.87406,215.61189 C 415.63212,218.60504 416.8456,220.36509 419.73602,220.89667 C 421.91,220.60765 424.23585,219.98822 425.83385,218.45754"
         style="fill:#ffe6e5;fill-opacity:1;fill-rule:evenodd;stroke:#561c00;stroke-width:1px;stroke-linecap:butt;stroke-linejoin:miter;stroke-opacity:1" />
      <path
         sodipodi:nodetypes="ccccc"
         id="path2421"
         d="M 435.9969,201.9934 C 432.94425,200.81902 430.58308,202.13384 430.30559,205.85536 C 430.50251,208.07907 432.32806,208.92464 434.16755,209.71732 C 436.33398,210.01881 437.50007,208.85028 438.43603,207.07493 C 438.82836,204.6424 438.11759,203.11251 435.9969,201.9934 z"
         style="fill:#ffffff;fill-rule:evenodd;stroke:#333333;stroke-width:1px;stroke-linecap:butt;stroke-linejoin:miter;stroke-opacity:1" />
      <path
         id="path2423"
         d="M 432.16755,204.74558 C 431.97861,203.98983 430.75585,204.97109 431.35451,206.1684 C 431.93695,207.33329 433.18386,205.95917 433.18386,205.1521 C 433.18386,204.78723 432.50632,204.88108 432.16755,204.74558 z"
         style="fill:#000000;fill-rule:evenodd;stroke:#000000;stroke-width:1px;stroke-linecap:butt;stroke-linejoin:miter;stroke-opacity:1" />
      <path
         sodipodi:nodetypes="cccc"
         id="path2425"
         d="M 428.06972,203.41623 C 426.56424,201.12603 423.705,200.95678 421.09726,203.39835 C 419.17693,208.27618 423.02506,209.53236 426.24037,208.70101 C 427.94312,207.52225 427.98612,205.36964 428.06972,203.41623 z"
         style="fill:#ffffff;fill-rule:evenodd;stroke:#333333;stroke-width:1px;stroke-linecap:butt;stroke-linejoin:miter;stroke-opacity:1" />
      <path
         sodipodi:nodetypes="csc"
         id="path2427"
         d="M 423.13059,204.99558 C 423.1447,204.12202 420.82979,204.69474 421.70776,206.4184 C 421.775,206.55042 424.60466,207.45236 423.13059,204.99558 z"
         style="fill:#000000;fill-rule:evenodd;stroke:#000000;stroke-width:1px;stroke-linecap:butt;stroke-linejoin:miter;stroke-opacity:1" />
      <path
         sodipodi:nodetypes="ccscccc"
         id="path2429"
         d="M 437.62299,226.9945 C 437.14541,225.75988 436.45191,224.91069 435.38712,224.14885 C 431.95196,222.43127 430.63018,223.05881 426.85016,223.3358 C 422.34687,223.66579 419.05648,224.48758 419.53276,227.40102 C 420.06964,230.09201 421.31528,231.0547 424.0045,231.05972 C 427.27239,231.28492 429.65834,229.50274 432.3382,228.01081 C 433.87387,227.23138 434.20974,226.82715 434.85679,225.28896"
         style="fill:#000000;fill-rule:evenodd;stroke:#000000;stroke-width:1px;stroke-linecap:butt;stroke-linejoin:miter;stroke-opacity:1" />
      <path
         sodipodi:nodetypes="cc"
         id="path2431"
         d="M 440.06212,224.35211 C 437.55808,225.46622 437.76013,227.88846 437.62299,230.24668"
         style="fill:none;fill-rule:evenodd;stroke:#562200;stroke-width:1px;stroke-linecap:butt;stroke-linejoin:miter;stroke-opacity:1" />
      <path
         sodipodi:nodetypes="ccccccc"
         id="path2433"
         d="M 447.78604,203.41623 C 452.32825,203.59888 454.91629,198.92696 459.37191,201.18036 C 462.941,202.69549 462.32688,208.1649 461.81104,211.34341 C 462.11507,213.902 460.59594,214.81591 458.76213,212.76623 C 457.57617,211.30327 456.84244,209.57742 455.71322,208.09123 C 453.12538,206.007 450.725,208.79754 447.78604,207.88797 C 445.56379,206.44799 445.40632,204.53779 447.78604,203.41623 z"
         style="fill:#4d4d4d;fill-opacity:1;fill-rule:evenodd;stroke:#1a1a1a;stroke-width:1px;stroke-linecap:butt;stroke-linejoin:miter;stroke-opacity:1" />
      <path
         sodipodi:nodetypes="ccc"
         id="path2435"
         d="M 451.648,209.51406 C 454.91523,206.63578 460.65517,209.16488 457.3393,213.9858 C 455.74697,215.50185 454.10072,216.17129 452.46104,214.59558"
         style="fill:#ffe6e5;fill-opacity:1;fill-rule:evenodd;stroke:#561c00;stroke-width:1px;stroke-linecap:butt;stroke-linejoin:miter;stroke-opacity:1" />
      <path
         sodipodi:nodetypes="cccccc"
         id="path2437"
         d="M 437.49953,243.24596 C 438.35161,245.14774 440.00668,247.42967 440.01373,249.33141 C 443.16509,247.41913 446.48518,246.47586 450.09192,246.03843 C 452.04691,245.90021 451.59553,244.5793 450.67761,243.39292 C 448.76535,241.46867 446.46862,241.65044 443.94215,241.9232 C 441.75642,242.1716 439.64054,242.75627 437.49953,243.24596 z"
         style="fill:#cbcbeb;fill-opacity:1;fill-rule:evenodd;stroke:#0e0e26;stroke-width:0.99999988px;stroke-linecap:butt;stroke-linejoin:miter;stroke-opacity:1" />
      <path
         sodipodi:nodetypes="ccccc"
         id="path2439"
         d="M 430.3498,244.45154 C 432.4961,244.13015 435.06195,242.76916 433.95502,244.21515 C 432.84809,245.66113 432.30736,248.51449 430.91049,249.71478 C 429.53412,248.46509 428.45151,248.35898 427.95702,246.73938 C 428.78386,244.547 428.20351,244.77293 430.3498,244.45154 z"
         style="fill:#cbcbeb;fill-opacity:1;fill-rule:evenodd;stroke:#0e0e26;stroke-width:0.99999988px;stroke-linecap:butt;stroke-linejoin:miter;stroke-opacity:1" />
      <path
         sodipodi:nodetypes="ccccc"
         id="path2441"
         d="M 434.30318,244.46568 C 434.73314,243.60254 433.73998,246.42498 433.5068,247.36117 C 434.03564,248.64881 435.69063,248.72842 437.06026,248.97786 C 438.48957,248.21596 438.64186,246.59524 438.04238,245.24448 C 437.25107,244.00184 435.64796,244.65107 434.30318,244.46568 z"
         style="fill:#008000;fill-rule:evenodd;stroke:#094709;stroke-width:0.99999988px;stroke-linecap:butt;stroke-linejoin:miter;stroke-opacity:1" />
      <path
         sodipodi:nodetypes="cc"
         id="path2449"
         d="M 433.64969,264.54863 C 432.48702,268.14129 434.09957,271.61192 434.27822,275.13894"
         style="fill:none;fill-rule:evenodd;stroke:#0e0e26;stroke-width:0.99999988px;stroke-linecap:butt;stroke-linejoin:miter;stroke-opacity:1" />
      <path
         sodipodi:nodetypes="cccccccsc"
         id="path2443"
         d="M 434.56197,248.243 C 433.78324,250.392 433.76625,252.41687 432.28453,254.21482 C 431.18636,255.92626 431.53246,257.97739 431.58379,259.91518 C 431.78588,261.74509 431.95958,264.70324 433.57288,267.16313 C 436.18158,265.24253 434.30903,262.71935 434.56197,261.3629 C 436.45246,258.9999 436.95313,256.42424 437.45254,253.49096 C 437.54455,252.00459 436.79347,250.70732 436.57661,249.2383 C 436.57661,248.87914 436.08349,248.66692 435.78828,248.51444 C 435.3579,248.29216 435.10824,248.243 434.56197,248.243 z"
         style="fill:#008000;fill-rule:evenodd;stroke:#094709;stroke-width:0.99999976px;stroke-linecap:butt;stroke-linejoin:miter;stroke-opacity:1" />
      <path
         sodipodi:nodetypes="cccccccccc"
         id="path2453"
         d="M 426.26781,272.89724 C 426.60639,276.80497 429.43421,278.38509 431.93545,280.72388 C 433.01146,285.64002 431.47119,290.71125 432.96041,295.86203 C 434.62684,296.88687 437.18508,296.58687 439.11019,296.21506 C 441.11555,296.86533 447.65713,296.73009 449.50622,295.89914 C 448.87614,289.68959 452.47046,283.55062 454.92388,278.07839 C 455.71128,275.30879 456.454,272.12816 454.48462,269.70096 C 450.91079,273.25845 446.71059,274.40407 441.89222,274.40407 C 438.76882,274.55421 435.64611,274.72549 432.52114,274.845 C 430.4415,274.73178 428.03534,273.98715 426.26781,272.89724 z"
         style="fill:#0c0d1e;fill-opacity:1;fill-rule:evenodd;stroke:#020206;stroke-width:0.99999988px;stroke-linecap:butt;stroke-linejoin:miter;stroke-opacity:1" />
      <path
         sodipodi:nodetypes="cccccccsscccccccccc"
         id="path2461"
         d="M 451.68721,264.64452 C 452.18853,266.41775 454.49206,267.70417 455.7046,269.06952 C 456.45138,269.8163 457.55212,269.45787 456.51764,270.49235 C 454.47488,272.63327 453.00404,275.37656 451.63938,278.01301 C 449.65937,278.05638 447.95702,277.15929 445.94807,277.80974 C 446.05244,281.23471 448.89322,278.85842 448.59046,281.46844 C 446.93591,282.78196 444.94195,283.50707 446.35459,285.73692 C 447.28376,286.66609 449.44755,283.97332 449.45025,283.97062 C 450.33471,283.08616 450.35712,283.14203 450.01329,284.51736 C 449.6603,285.92931 448.69891,285.43594 449.12199,287.12823 C 451.17875,288.02413 452.11239,285.82869 452.85894,284.11084 C 453.00476,285.47258 451.72203,287.69458 454.68829,286.69127 C 454.95127,284.40434 454.94677,283.17467 456.12743,281.0467 C 456.68809,280.48604 457.95643,279.57523 458.14373,278.82605 C 460.84764,275.73719 464.13023,271.3434 463.77346,267.16934 C 461.08865,265.30835 460.88683,262.32373 458.61221,260.36082 C 458.15358,260.01685 458.18781,258.22629 457.42416,257.04669 C 455.77175,254.04825 449.32463,254.50285 448.59155,257.85974 C 449.41404,259.89375 451.00751,262.35857 451.68721,264.64452 z"
         style="fill:#ffe6e5;fill-opacity:1;fill-rule:evenodd;stroke:#561c00;stroke-width:1px;stroke-linecap:butt;stroke-linejoin:miter;stroke-opacity:1" />
      <path
         sodipodi:nodetypes="ccc"
         id="path2455"
         d="M 438.37807,280.72388 C 436.91781,282.97779 436.77021,285.59626 436.91384,288.21946 C 437.41865,290.54291 437.42501,294.1601 437.9388,296.4598"
         style="fill:none;fill-rule:evenodd;stroke:#020206;stroke-width:0.99999988px;stroke-linecap:butt;stroke-linejoin:miter;stroke-opacity:1" />
      <path
         sodipodi:nodetypes="cccccscccssc"
         id="path2467"
         d="M 385.51434,246.21082 C 384.10013,245.89777 383.74764,245.63315 384.20639,243.79817 C 385.92268,242.42617 391.05056,243.75254 388.15674,245.80429 C 388.15674,246.87252 387.5889,245.84624 388.76652,247.02386 C 389.61823,248.5271 389.56095,249.60012 387.92699,249.94035 C 387.13549,249.74247 388.84983,250.31769 389.57956,250.68256 C 390.6878,251.23668 389.10335,252.81825 388.96978,252.91843 C 387.4032,254.10011 385.76267,254.33505 384.09152,253.32495 C 382.51701,251.8311 382.81326,250.81171 384.75427,250.6031 C 384.28546,250.19864 383.49661,249.27461 382.87195,248.64995 C 382.13014,247.90814 382.64682,247.31089 382.77462,247.18309 C 383.21288,246.74482 384.89432,246.21082 385.51434,246.21082 z"
         style="fill:#ffe6e5;fill-opacity:1;fill-rule:evenodd;stroke:#561c00;stroke-width:1px;stroke-linecap:butt;stroke-linejoin:miter;stroke-opacity:1" />
      <path
         sodipodi:nodetypes="ccccc"
         id="path2474"
         d="M 425.15495,227.27777 C 423.5022,225.70146 421.05528,225.73685 420.02842,227.63132 C 419.84767,230.14515 423.29253,230.77826 425.15495,230.63653 C 426.98427,230.46917 431.26337,229.0824 431.87246,227.27776 C 430.37049,225.07518 426.13159,226.02256 425.15495,227.27777 z"
         style="fill:#800000;fill-rule:evenodd;stroke:#000000;stroke-width:1px;stroke-linecap:butt;stroke-linejoin:miter;stroke-opacity:1" />
      <path
         sodipodi:nodetypes="cccccsccc"
         id="path2480"
         d="M 445.77716,253.71216 C 443.88024,253.97539 443.16829,255.86668 442.4184,257.42447 C 441.90504,259.12752 443.8444,259.33871 444.36294,260.96 C 443.27699,262.42277 442.88861,263.55603 442.94873,265.37942 C 444.67046,266.36455 445.80499,265.14478 447.19137,263.96521 C 447.80826,263.65676 447.59003,265.29286 447.89848,265.90975 C 448.33671,266.78622 449.77552,265.62369 450.0198,265.37942 C 451.93674,263.59778 452.70707,261.43011 452.84822,258.83868 C 452.27059,254.93892 449.41759,252.74688 445.77716,253.71216 z"
         style="fill:#a0a0da;fill-opacity:1;fill-rule:evenodd;stroke:none;stroke-width:1px;stroke-linecap:butt;stroke-linejoin:miter;stroke-opacity:1" />
      <path
         sodipodi:nodetypes="cccccc"
         id="path2451"
         d="M 450.50793,265.14171 C 447.17033,262.22668 445.42487,259.19314 445.40639,255.60195 C 445.38791,252.01076 447.20946,249.44762 451.01807,249.94878 C 452.46951,251.05842 453.91949,251.91119 455.60945,252.59871 C 457.9044,254.04119 459.16648,256.47632 460.03078,258.95854 C 457.35582,261.75334 453.49198,262.75344 450.50793,265.14171 z"
         style="fill:#cbcbeb;fill-opacity:1;fill-rule:evenodd;stroke:#0e0e26;stroke-width:0.99999988px;stroke-linecap:butt;stroke-linejoin:miter;stroke-opacity:1" />
      <path
         sodipodi:nodetypes="ccccccc"
         id="path2486"
         d="M 363.86368,215.02839 C 364.48581,214.00137 367.40258,212.19156 368.10632,210.4322 C 369.18735,208.6142 373.96089,203.89148 375.35416,202.30047 C 377.98622,204.22765 376.91885,210.78643 377.47548,214.32128 C 377.48093,216.35933 372.91576,219.12916 371.81863,220.68525 C 369.57554,222.25173 368.78799,225.07919 366.69211,226.69565 C 363.9492,224.8167 364.46534,218.49353 363.86368,215.02839 z"
         style="fill:#aa4400;fill-opacity:1;fill-rule:evenodd;stroke:#301200;stroke-width:1px;stroke-linecap:butt;stroke-linejoin:miter;stroke-opacity:1" />
      <path
         sodipodi:nodetypes="cc"
         id="path2490"
         d="M 399.74935,228.28664 C 398.38397,230.50198 395.08417,233.77149 393.20861,235.53449"
         style="fill:none;fill-rule:evenodd;stroke:#301200;stroke-width:1px;stroke-linecap:butt;stroke-linejoin:miter;stroke-opacity:1" />
      <path
         sodipodi:nodetypes="cc"
         id="path2492"
         d="M 425.61421,240.87853 C 425.83657,238.90698 429.12587,238.74555 429.14975,241.23208"
         style="fill:none;fill-rule:evenodd;stroke:#562200;stroke-width:1px;stroke-linecap:butt;stroke-linejoin:miter;stroke-opacity:1" />
      <path
         sodipodi:nodetypes="cc"
         id="path3629"
         d="M 453.12828,210.5644 C 457.90919,208.52965 455.8704,213.86732 453.47295,212.9771"
         style="fill:none;fill-rule:evenodd;stroke:#561c00;stroke-width:1px;stroke-linecap:butt;stroke-linejoin:miter;stroke-opacity:1" />
    </g>
  </g>
</svg>
