<?xml version="1.0" encoding="UTF-8" standalone="no"?>
<!-- Created with Inkscape (http://www.inkscape.org/) -->
<svg
   xmlns:dc="http://purl.org/dc/elements/1.1/"
   xmlns:cc="http://creativecommons.org/ns#"
   xmlns:rdf="http://www.w3.org/1999/02/22-rdf-syntax-ns#"
   xmlns:svg="http://www.w3.org/2000/svg"
   xmlns="http://www.w3.org/2000/svg"
   xmlns:sodipodi="http://sodipodi.sourceforge.net/DTD/sodipodi-0.dtd"
   xmlns:inkscape="http://www.inkscape.org/namespaces/inkscape"
   width="128"
   height="128"
   id="svg2"
   sodipodi:version="0.32"
   inkscape:version="0.46"
   version="1.0"
   sodipodi:docname="nmetal.svg"
   inkscape:output_extension="org.inkscape.output.svg.inkscape">
  <defs
     id="defs4">
    <filter
       inkscape:collect="always"
       id="filter3443"
       x="-0.12513924"
       width="1.2502785"
       y="-0.32663372"
       height="1.6532674">
      <feGaussianBlur
         inkscape:collect="always"
         stdDeviation="1.9634296"
         id="feGaussianBlur3445" />
    </filter>
  </defs>
  <sodipodi:namedview
     id="base"
     pagecolor="#ffffff"
     bordercolor="#666666"
     borderopacity="1.0"
     gridtolerance="10000"
     guidetolerance="10"
     objecttolerance="10"
     inkscape:pageopacity="0.0"
     inkscape:pageshadow="2"
     inkscape:zoom="1"
     inkscape:cx="202.19689"
     inkscape:cy="64"
     inkscape:document-units="px"
     inkscape:current-layer="layer1"
     showgrid="false"
     inkscape:window-width="1538"
     inkscape:window-height="961"
     inkscape:window-x="21"
     inkscape:window-y="39" />
  <metadata
     id="metadata7">
    <rdf:RDF>
      <cc:Work
         rdf:about="">
        <dc:format>image/svg+xml</dc:format>
        <dc:type
           rdf:resource="http://purl.org/dc/dcmitype/StillImage" />
      </cc:Work>
    </rdf:RDF>
  </metadata>
  <g
     inkscape:label="Layer 1"
     inkscape:groupmode="layer"
     id="layer1">
    <g
       id="g3779"
       transform="translate(-98.921516,-24.251691)" />
    <path
       id="path2812"
       d="M 39.913094,111.73163 C 38.041074,112.33704 35.390494,113.21406 32.609014,112.51869 C 27.821714,112.03567 23.463974,115.18388 24.078751,119.64037 C 26.953346,123.49139 34.47901,122.14869 39.085771,123.71658 C 41.362101,124.28567 46.448892,120.67726 47.964384,118.2599 C 49.626757,115.60825 57.76446,125.16063 60.64131,123.7222 C 66.567218,123.05811 74.777523,117.18347 66.685458,113.5906 C 64.524458,112.5101 61.839747,108.05047 60.185307,108.46408 C 58.412027,108.9074 49.831598,110.8365 47.365828,110.8365 C 45.366478,110.8365 43.301204,111.73163 39.913094,111.73163 z"
       style="fill:#000000;fill-opacity:0.72839505;fill-rule:evenodd;stroke:none;stroke-width:1px;stroke-linecap:butt;stroke-linejoin:miter;stroke-opacity:1;filter:url(#filter3443)"
       sodipodi:nodetypes="ccccsccssc"
       transform="matrix(-1,0,0,1,113.24486,0)" />
    <path
       style="fill:#241c1c;fill-opacity:1;fill-rule:evenodd;stroke:none;stroke-width:1px;stroke-linecap:butt;stroke-linejoin:miter;stroke-opacity:1"
       d="M 46.870058,115.00691 L 45.279067,116.95146 L 46.958446,119.77988 L 48.637825,118.71922 L 48.637825,121.1941 L 52.792077,121.63604 L 53.057242,120.04505 L 54.648232,121.81282 L 58.183766,119.77988 L 57.653436,117.65856 L 59.156038,118.36567 L 61.365747,115.80241 L 60.65864,113.41592 L 62.161242,113.5927 L 62.868349,110.67588 L 62.072854,108.64295 L 63.045125,108.81973 L 62.77996,106.25647 L 61.542523,105.81452 L 46.870058,115.00691 z"
       id="path3489" />
    <path
       sodipodi:nodetypes="ccccccc"
       id="path2818"
       d="M 51.754921,106.79276 C 50.398566,109.32103 47.612479,112.00867 46.702238,115.15058 C 47.248543,117.65499 47.71825,118.93125 50.164981,119.39541 C 53.02828,120.84505 56.584344,119.53345 58.845755,115.90091 C 60.835795,113.9367 61.412158,111.313 61.772246,108.97079 C 62.547062,105.67914 60.986416,104.08352 58.988385,101.54898 C 56.637033,103.38639 54.237828,105.13864 51.754921,106.79276 z"
       style="fill:#483737;fill-rule:evenodd;stroke:#241c1c;stroke-width:1px;stroke-linecap:butt;stroke-linejoin:miter;stroke-opacity:1" />
    <path
       sodipodi:nodetypes="ccccccc"
       id="path2820"
       d="M 56.872037,84.408629 C 54.694897,87.133089 54.909937,88.205749 52.047287,92.594289 C 52.565977,95.139599 52.95875,98.180132 52.77952,100.69784 C 53.29461,102.90659 51.285657,105.79239 52.797287,107.34429 C 55.427277,109.33206 59.462087,109.23912 60.922287,106.71929 C 60.755699,97.512278 64.735177,93.547963 65.570261,86.038829 C 63.402891,85.237959 58.240117,82.812539 56.872037,84.408629 z"
       style="fill:#00325c;fill-opacity:1;fill-rule:evenodd;stroke:#00192e;stroke-width:1px;stroke-linecap:butt;stroke-linejoin:miter;stroke-opacity:1" />
    <path
       style="fill:#241c1c;fill-rule:evenodd;stroke:none;stroke-width:1px;stroke-linecap:butt;stroke-linejoin:miter;stroke-opacity:1"
       d="M 67.25,114.625 L 65.25,118.25 L 67.875,119.75 L 69.125,118.625 L 69.625,120.625 L 73.25,121.625 L 74.375,119.625 L 75.25,121.875 L 78.75,122 L 80,120.25 L 80.75,121.625 L 84.625,121 L 84.625,119.5 L 86.375,120 L 87.875,117.375 L 84.375,115.25 L 67.25,114.625 z"
       id="path3487" />
    <path
       sodipodi:nodetypes="cccccccc"
       id="path2814"
       d="M 76.43964,110.21427 C 79.61546,110.8384 82.22861,111.43529 84.92492,113.39625 C 85.52508,114.11518 85.49785,114.80899 85.45525,115.69435 C 85.21796,116.45839 84.94458,117.20672 84.74815,117.99245 C 81.99602,118.24945 78.95579,119.89792 76.08172,118.97252 C 73.06302,119.01109 70.01187,117.95408 67.51242,116.13629 C 66.93493,114.42676 67.55479,112.10888 67.6892,110.21427 C 70.47318,111.08912 73.63785,110.94739 76.43964,110.21427 z"
       style="fill:#483737;fill-rule:evenodd;stroke:#241c1c;stroke-width:1px;stroke-linecap:butt;stroke-linejoin:miter;stroke-opacity:1" />
    <path
       sodipodi:nodetypes="cccccccc"
       style="fill:#00325c;fill-opacity:1;fill-rule:evenodd;stroke:#00192e;stroke-width:1px;stroke-linecap:butt;stroke-linejoin:miter;stroke-opacity:1"
       d="M 73.090106,86.619419 C 73.235266,87.398449 76.277833,92.249699 76.013203,93.572839 C 75.069743,96.367909 76.17662,98.625419 76.87564,101.46929 C 76.85971,104.25895 77.74786,108.91886 75.75064,110.96929 C 72.90507,112.0963 70.04433,112.81456 67.62564,110.34429 C 68.87117,106.49251 68.08528,102.80411 67.49176,98.792509 C 67.46288,94.992039 64.60203,92.246639 64.74544,88.426399 C 66.91281,87.625529 71.722026,85.023329 73.090106,86.619419 z"
       id="path2822" />
    <path
       sodipodi:nodetypes="cccccccccccc"
       id="path2794"
       d="M 50.190907,91.349419 C 52.996017,87.888159 51.451417,81.893509 51.093637,77.929549 C 52.321767,72.972499 50.787217,68.087489 51.839957,63.132079 C 52.305727,60.026319 49.443627,57.156709 51.004167,54.448579 C 52.788437,52.035509 57.296377,50.912549 60.325227,50.757729 C 64.211177,51.326899 68.133807,50.802429 71.992497,51.641609 C 74.839787,52.880489 79.802147,53.807649 80.119017,56.880559 C 80.256547,59.654489 77.36303,64.072019 78.64935,66.576619 C 79.0365,71.028009 80.35794,76.056499 79.73145,80.520539 C 78.83698,85.713919 80.371186,87.875909 79.795796,93.055449 C 75.313916,90.489649 70.062037,93.025239 64.973207,92.455569 C 60.705067,90.929749 52.838877,94.585809 50.190907,91.349419 z"
       style="fill:#262d26;fill-opacity:1;fill-rule:evenodd;stroke:#142214;stroke-width:1px;stroke-linecap:butt;stroke-linejoin:miter;stroke-opacity:1" />
    <path
       sodipodi:nodetypes="ccccc"
       id="path2792"
       d="M 70.359112,54.913679 C 69.70279,59.772679 60.970827,60.249509 57.009727,56.691039 C 57.635667,54.002259 57.802857,50.908819 60.109267,49.041339 C 62.258677,48.276359 64.544267,48.392509 66.788717,48.516399 C 68.788552,49.443569 70.343886,53.129599 70.359112,54.913679 z"
       style="fill:#e9d2af;fill-opacity:1;fill-rule:evenodd;stroke:#3f2d10;stroke-width:1px;stroke-linecap:butt;stroke-linejoin:miter;stroke-opacity:1" />
    <path
       style="fill:#e9d2af;fill-opacity:1;fill-rule:evenodd;stroke:#3f2d10;stroke-width:0.99999994px;stroke-linecap:butt;stroke-linejoin:miter;stroke-opacity:1"
       d="M 78.886566,17.290639 C 80.295768,22.091108 78.253172,27.74445 76.995026,32.44629 C 78.8183,38.300419 78.581175,43.637569 73.028832,48.307749 C 66.603887,50.396279 52.873967,51.362369 50.674587,42.317719 C 49.308067,30.94027 51.787757,37.492849 49.201657,27.988573 C 48.346817,15.675071 52.715767,7.3284005 64.291357,8.2230175 C 72.293164,7.9608975 75.727562,12.087597 78.886566,17.290639 z"
       id="path2649"
       sodipodi:nodetypes="ccccccc" />
    <path
       style="fill:#372416;fill-opacity:1;fill-rule:evenodd;stroke:#120a04;stroke-width:1px;stroke-linecap:butt;stroke-linejoin:miter;stroke-opacity:1"
       d="M 74.424552,20.560972 C 74.424552,20.560972 67.265096,16.053166 67.353484,17.99771 C 67.441873,19.942254 74.424552,20.64936 74.424552,20.560972 z"
       id="path3359" />
    <path
       style="fill:#372416;fill-opacity:1;fill-rule:evenodd;stroke:#120a04;stroke-width:0.99999994px;stroke-linecap:butt;stroke-linejoin:miter;stroke-opacity:1"
       d="M 63.807157,34.889359 C 69.368218,34.577785 72.236781,37.862379 75.416216,39.832119 C 75.95554,40.012159 76.331062,40.740899 76.751394,41.231819 C 78.431317,44.746159 76.179965,54.949019 73.03711,57.135429 C 72.710925,55.546413 69.157237,53.309643 68.046039,53.222275 C 66.423932,52.369536 66.535317,56.699182 64.896387,56.414129 C 64.179412,53.955746 61.811248,52.400156 60.161653,53.189929 C 59.237012,53.06076 58.824623,56.587833 56.285377,55.767549 C 56.542193,54.077545 54.469009,49.942425 53.50171,49.620092 C 51.772972,48.527237 51.019707,46.667973 50.697997,43.997509 C 50.873377,41.349589 52.173167,38.212979 54.434797,36.914049 C 57.381317,36.080209 60.743657,34.380185 63.807157,34.889359 z M 64.580937,38.258049 C 62.765767,38.783569 59.239857,39.849909 57.838117,41.026669 C 57.275187,43.348399 58.374687,45.658859 60.770027,45.379049 C 62.326307,43.502429 65.440167,43.963079 67.188487,45.722609 C 69.273973,46.094759 70.146471,43.613169 70.09314,41.876409 C 69.41633,40.051159 66.159987,39.232089 64.580937,38.258049 z"
       id="path2654"
       sodipodi:nodetypes="cccccccccccccccccc" />
    <path
       sodipodi:nodetypes="cccc"
       id="path2696"
       d="M 60.675617,24.017328 C 62.090987,26.992792 61.063337,28.768173 58.131417,28.383256 C 57.239517,28.793684 55.331377,26.633073 55.736957,25.172445 C 55.350807,21.274153 58.733417,21.133407 60.675617,24.017328 z"
       style="fill:#ffffff;fill-rule:evenodd;stroke:#333333;stroke-width:1px;stroke-linecap:butt;stroke-linejoin:miter;stroke-opacity:1" />
    <path
       sodipodi:nodetypes="ccc"
       id="path2698"
       d="M 68.588631,21.886074 C 71.180515,22.371823 72.422551,24.149199 71.963801,26.830892 C 69.064617,31.897491 63.273737,24.772628 68.588631,21.886074 z"
       style="fill:#ffffff;fill-rule:evenodd;stroke:#333333;stroke-width:0.99999994px;stroke-linecap:butt;stroke-linejoin:miter;stroke-opacity:1" />
    <path
       sodipodi:nodetypes="cssc"
       id="path2700"
       d="M 57.29917,25.718698 C 56.676489,25.738561 58.021195,23.670139 59.604525,25.19308 C 60.831737,26.373484 59.552703,27.974322 58.653674,28.10796 C 56.848009,28.376366 56.523559,25.929016 57.29917,25.718698 z"
       style="fill:#000000;fill-rule:evenodd;stroke:#000000;stroke-width:1px;stroke-linecap:butt;stroke-linejoin:miter;stroke-opacity:1" />
    <path
       sodipodi:nodetypes="cssc"
       id="path2702"
       d="M 69.179933,25.10095 C 68.706955,24.159938 71.353689,24.877283 70.712828,27.07585 C 70.270539,28.593173 68.598034,27.691871 68.471411,27.61302 C 66.773324,26.555616 68.08619,23.766625 69.179933,25.10095 z"
       style="fill:#000000;fill-rule:evenodd;stroke:#000000;stroke-width:1px;stroke-linecap:butt;stroke-linejoin:miter;stroke-opacity:1" />
    <path
       sodipodi:nodetypes="ccc"
       id="path2704"
       d="M 64.978604,29.568476 C 65.591664,31.400606 66.423384,36.479025 61.166713,35.150526 C 60.131391,31.551987 61.608093,28.509883 63.110787,27.632851"
       style="fill:#e9d2af;fill-opacity:1;fill-rule:evenodd;stroke:#3f2d10;stroke-width:1px;stroke-linecap:butt;stroke-linejoin:miter;stroke-opacity:1" />
    <path
       sodipodi:nodetypes="cc"
       id="path2706"
       d="M 67.120964,42.549859 C 65.871258,40.714075 61.263619,40.736679 60.155713,43.434314"
       style="fill:none;fill-rule:evenodd;stroke:#3f2d10;stroke-width:1px;stroke-linecap:butt;stroke-linejoin:miter;stroke-opacity:1" />
    <path
       sodipodi:nodetypes="cc"
       id="path2708"
       d="M 49.911637,22.40972 C 42.498297,19.452488 45.574617,29.586655 49.760977,28.413035"
       style="fill:#e9d2af;fill-opacity:1;fill-rule:evenodd;stroke:#3f2d10;stroke-width:1px;stroke-linecap:butt;stroke-linejoin:miter;stroke-opacity:1" />
    <path
       sodipodi:nodetypes="cs"
       id="path2710"
       d="M 48.936597,23.926064 C 46.809037,22.343126 45.995247,25.529755 49.111237,26.923585"
       style="fill:#e9d2af;fill-opacity:1;fill-rule:evenodd;stroke:#3f2d10;stroke-width:1px;stroke-linecap:butt;stroke-linejoin:miter;stroke-opacity:1" />
    <path
       style="fill:#e9d2af;fill-opacity:1;fill-rule:evenodd;stroke:#3f2d10;stroke-width:1px;stroke-linecap:butt;stroke-linejoin:miter;stroke-opacity:1"
       d="M 77.427888,24.48755 C 85.174845,22.567274 80.747295,32.188182 76.759727,30.455469"
       id="path2743"
       sodipodi:nodetypes="cc" />
    <path
       style="fill:#e9d2af;fill-opacity:1;fill-rule:evenodd;stroke:#3f2d10;stroke-width:1px;stroke-linecap:butt;stroke-linejoin:miter;stroke-opacity:1"
       d="M 78.187377,26.122536 C 80.510667,24.844034 80.882973,28.11179 77.606221,29.068361"
       id="path2745"
       sodipodi:nodetypes="cs" />
    <path
       style="fill:#e9d2af;fill-opacity:1;fill-rule:evenodd;stroke:#3f2d10;stroke-width:1px;stroke-linecap:butt;stroke-linejoin:miter;stroke-opacity:1"
       d="M 92.397169,38.903026 C 94.455089,36.313377 96.224605,32.981537 96.346435,29.66165 C 93.773583,26.992864 93.29574,25.095672 97.476671,26.573746 C 97.549825,24.494449 96.7252,21.106859 99.364102,20.185126 C 100.14617,21.259706 99.870922,23.625975 99.169053,25.857113 C 99.982295,24.664946 101.71166,24.143552 101.03957,25.936983 C 101.979,25.220721 103.201,25.375305 102.47839,27.394837 C 104.17859,26.481618 105.98421,22.90957 107.08121,25.593967 C 106.59612,26.763186 103.87467,29.092646 102.82021,29.644435 C 102.05849,30.672668 101.10796,31.967787 100.6813,33.191362 C 100.77707,36.32001 99.72508,39.165164 98.649007,42.061671 C 95.856848,44.864406 94.34859,50.562002 90.713672,52.546981 C 87.85992,51.89398 85.011962,49.364122 85.159056,46.464636 C 85.514435,42.721951 90.467129,41.048754 92.397169,38.903026 z"
       id="path2810"
       sodipodi:nodetypes="cccccccccccccc" />
    <path
       style="fill:#262d26;fill-opacity:1;fill-rule:evenodd;stroke:#142214;stroke-width:0.99999994px;stroke-linecap:butt;stroke-linejoin:miter;stroke-opacity:1"
       d="M 75.918123,53.057877 C 77.624191,51.197862 84.25177,44.946855 85.423643,42.730286 C 90.370697,42.755051 91.139094,50.115561 94.26651,53.215341 C 92.926157,54.853743 88.535211,55.29105 87.22183,56.958986 C 84.257863,59.378091 80.179647,62.593994 76.213991,62.154377"
       id="path2798"
       sodipodi:nodetypes="ccccc" />
    <path
       style="fill:#1a1a1a;fill-opacity:1;fill-rule:evenodd;stroke:#000000;stroke-width:1px;stroke-linecap:butt;stroke-linejoin:miter;stroke-opacity:1"
       d="M 55.532116,75.497321 L 57.299883,73.641166 L 61.454135,74.171496 L 62.603184,72.580506 L 65.166445,71.254681 L 72.502678,72.138564 C 74.410863,77.361028 76.085694,79.893596 73.916893,86.545865 C 73.916893,86.545865 70.734912,89.020738 70.558135,88.225243 C 70.381358,87.429748 55.885669,75.408933 55.532116,75.497321 z"
       id="path2440"
       sodipodi:nodetypes="cccccccsc" />
    <path
       style="fill:#1a1a1a;fill-rule:evenodd;stroke:#000000;stroke-width:1px;stroke-linecap:butt;stroke-linejoin:miter;stroke-opacity:1"
       d="M 55.085851,75.96599 L 53.460851,86.84099 C 57.528526,88.105683 62.981551,88.740672 70.710851,88.34099 C 72.858555,85.176594 73.271353,81.838707 72.085851,78.34099 L 70.835851,73.46599 L 62.710851,72.84099 L 61.335851,76.21599 C 57.146562,75.175404 55.62709,75.348371 55.085851,75.96599 z"
       id="path3371"
       sodipodi:nodetypes="cccccccc" />
    <path
       style="fill:#372416;fill-opacity:1;fill-rule:evenodd;stroke:#120a04;stroke-width:1px;stroke-linecap:butt;stroke-linejoin:miter;stroke-opacity:1"
       d="M 65.166377,8.9983085 C 63.112034,5.5526511 66.380157,2.1082509 73.166377,6.1233083 C 90.640332,16.461749 77.424497,51.115915 84.041377,56.623309 C 80.874139,56.430384 79.017002,61.303916 79.666377,61.123309 C 79.803636,54.230014 74.931497,48.018558 74.666377,58.873309 C 70.687436,51.220607 78.901768,45.720862 77.39493,37.306367 C 76.811896,41.149826 76.672301,44.540357 73.791377,46.498309 C 77.879772,31.236939 77.227751,18.819818 69.541377,10.623309 C 72.307146,14.557073 72.273351,17.472814 72.541377,20.498309 C 71.167059,15.735819 69.764249,10.997752 65.166377,8.9983085 z"
       id="path3351"
       sodipodi:nodetypes="cscccccccc" />
    <path
       id="path3361"
       d="M 52.856983,20.560972 C 52.856983,20.560972 60.016439,16.053166 59.928051,17.99771 C 59.839662,19.942254 52.856983,20.64936 52.856983,20.560972 z"
       style="fill:#372416;fill-opacity:1;fill-rule:evenodd;stroke:#120a04;stroke-width:1px;stroke-linecap:butt;stroke-linejoin:miter;stroke-opacity:1" />
    <path
       sodipodi:nodetypes="cccccccccccccccc"
       id="path2808"
       d="M 43.71204,72.23744 C 46.205127,74.411338 46.831544,76.517308 50.142427,76.790441 C 51.679886,76.444437 53.174892,75.671966 54.991391,75.829766 C 54.099694,75.742335 53.878775,76.723 53.954372,77.251564 C 53.35391,77.610118 53.403352,77.288262 53.175552,78.060342 C 55.249359,78.228267 56.420896,78.363933 57.221307,81.042134 C 56.059601,81.750508 55.53559,80.875429 54.311781,80.514214 C 55.465616,81.380989 58.532683,81.836506 56.12911,83.531425 C 54.307377,82.641441 53.709492,82.816807 52.432389,82.148537 C 53.267109,83.888621 56.649581,85.184589 53.532905,84.9017 C 52.387029,84.363781 50.488004,83.634456 49.984884,82.555925 C 48.992462,81.748099 47.6215,81.441823 46.418654,80.959796 C 41.459126,79.384606 36.510297,78.497987 33.418508,70.902794 C 34.333795,66.807611 36.047836,65.340647 37.797587,63.534877 C 38.58008,60.713881 44.466416,64.316681 48.106177,66.345875 C 46.57875,69.496595 46.281579,69.336538 43.71204,72.23744 z"
       style="fill:#e9d2af;fill-opacity:1;fill-rule:evenodd;stroke:#3f2d10;stroke-width:1px;stroke-linecap:butt;stroke-linejoin:miter;stroke-opacity:1" />
    <path
       sodipodi:nodetypes="ccccc"
       id="path2796"
       d="M 52.37919,64.501275 C 49.788041,66.909709 48.075759,68.890335 46.541927,72.099624 C 42.855792,70.028623 38.801068,67.352154 35.465229,64.477877 C 37.881087,60.376963 44.157483,55.561698 47.889802,52.898441 C 50.019084,51.925486 51.358534,51.846797 53.810885,52.0516"
       style="fill:#262d26;fill-opacity:1;fill-rule:evenodd;stroke:#142214;stroke-width:0.99999994px;stroke-linecap:butt;stroke-linejoin:miter;stroke-opacity:1" />
    <path
       style="fill:#372416;fill-opacity:1;fill-rule:evenodd;stroke:#120a04;stroke-width:1px;stroke-linecap:butt;stroke-linejoin:miter;stroke-opacity:1"
       d="M 63.291377,9.2483085 C 65.986373,1.585588 51.637487,5.1625713 47.166377,15.248309 C 44.416377,25.373309 43.041377,41.873309 43.541377,47.748309 C 44.041377,53.623309 46.166377,56.123309 46.166377,56.123309 C 45.11942,51.659685 43.857204,46.980803 46.041377,45.748309 L 49.291377,58.123309 C 49.107396,53.483564 46.697313,48.287293 48.916377,44.248309 C 51.00161,41.699691 51.560217,49.153837 51.166377,49.623309 C 52.327169,48.169172 53.564605,38.99876 51.291377,36.998309 C 48.893131,34.887841 52.833205,6.4011934 63.291377,9.2483085 z"
       id="path3353"
       sodipodi:nodetypes="ccccccccsc" />
    <path
       style="fill:none;fill-rule:evenodd;stroke:#3f2d10;stroke-width:1px;stroke-linecap:butt;stroke-linejoin:miter;stroke-opacity:1"
       d="M 102.42849,27.313257 C 101.36783,29.434577 99.459902,29.044412 100.87412,25.95082 C 100.77336,28.82894 96.221046,27.862439 99.42329,25.437495"
       id="path3355"
       sodipodi:nodetypes="ccc" />
    <path
       style="fill:none;fill-rule:evenodd;stroke:#3f2d10;stroke-width:1px;stroke-linecap:butt;stroke-linejoin:miter;stroke-opacity:1"
       d="M 97.484081,26.378828 C 100.56921,28.855397 98.686701,30.791988 95.973358,28.868105"
       id="path3357"
       sodipodi:nodetypes="cc" />
    <path
       style="fill:#6f5e51;fill-opacity:1;fill-rule:evenodd;stroke:none;stroke-width:1px;stroke-linecap:butt;stroke-linejoin:miter;stroke-opacity:1"
       d="M 73.166377,14.123309 C 82.733142,16.291335 76.859341,43.989819 74.541377,45.435809 C 77.105486,34.900364 77.36075,23.585723 73.916377,15.623309 L 73.166377,14.123309 z"
       id="path3363"
       sodipodi:nodetypes="cccc" />
    <path
       style="fill:#6f5e51;fill-opacity:1;fill-rule:evenodd;stroke:none;stroke-width:1px;stroke-linecap:butt;stroke-linejoin:miter;stroke-opacity:1"
       d="M 52.541377,18.873309 C 48.287669,26.215346 48.778801,33.0829 47.541377,40.123309 C 48.610655,33.190369 42.783421,25.071383 52.791377,17.248309 L 52.541377,18.873309 z"
       id="path3365"
       sodipodi:nodetypes="cccc" />
    <path
       sodipodi:nodetypes="cccc"
       id="path3367"
       d="M 69.666377,4.9983085 C 77.233142,11.041335 76.984341,10.739819 79.291377,16.810809 C 76.480486,11.775364 72.23575,8.9607225 66.791377,5.3733085 L 69.666377,4.9983085 z"
       style="fill:#6f5e51;fill-opacity:1;fill-rule:evenodd;stroke:none;stroke-width:1px;stroke-linecap:butt;stroke-linejoin:miter;stroke-opacity:1" />
    <path
       style="fill:#6f5e51;fill-opacity:1;fill-rule:evenodd;stroke:none;stroke-width:1px;stroke-linecap:butt;stroke-linejoin:miter;stroke-opacity:1"
       d="M 78.915746,38.891338 C 86.482511,44.934364 78.045001,52.812673 80.352037,58.883663 C 77.541146,53.848218 82.149332,45.155529 78.579959,39.568115 L 78.915746,38.891338 z"
       id="path3369"
       sodipodi:nodetypes="cccc" />
    <path
       style="fill:#000000;fill-rule:evenodd;stroke:#000000;stroke-width:1px;stroke-linecap:butt;stroke-linejoin:miter;stroke-opacity:1"
       d="M 58.583333,82 C 59.889549,80.484504 60.871193,78.783538 63.75,78.166666 C 67.523376,77.245006 70.364352,79.511452 70.75,82.666666 C 70.099231,86.436539 67.040062,87.858824 64.553003,89.333333 L 58.583333,82 z"
       id="path2438"
       sodipodi:nodetypes="ccccc" />
    <path
       style="fill:#150d25;fill-opacity:1;fill-rule:evenodd;stroke:none;stroke-width:1px;stroke-linecap:butt;stroke-linejoin:miter;stroke-opacity:1"
       d="M 59.541667,83.697917 L 59.416667,86.916667 L 61.041667,87.822917 L 63.416667,87.479167 L 64.416667,85.885417 C 64.416667,85.885417 64.135417,83.354167 63.854167,83.166667 C 63.572917,82.979167 61.479167,82.760417 61.479167,82.760417 L 59.541667,83.697917 z"
       id="path3468" />
    <path
       style="fill:#000000;fill-opacity:1;stroke:#4d4d4d;stroke-width:1.06733787;stroke-miterlimit:4;stroke-opacity:1"
       d="M 61.925487,80.996209 C 59.104458,80.982624 57.809276,82.303102 57.445757,84.977965 C 57.46792,87.866238 58.817946,89.340344 61.574135,89.779495 C 64.493665,89.720745 66.02745,88.284406 66.493054,85.504962 C 66.387313,82.549828 64.65466,81.339102 61.925487,80.996209 z M 61.925487,82.610366 C 62.975062,82.559062 64.246426,83.33949 64.525287,85.504962 C 64.550138,86.948441 63.59541,87.57975 61.485747,87.811784 C 60.40724,87.487714 59.613106,87.144743 59.413525,85.066353 C 59.418603,84.056748 59.90196,82.794192 61.925487,82.610366 z"
       id="path3461"
       sodipodi:nodetypes="cccccccccc" />
    <path
       style="fill:#000000;fill-rule:evenodd;stroke:none;stroke-width:1px;stroke-linecap:butt;stroke-linejoin:miter;stroke-opacity:1"
       d="M 53.675961,50.218254 C 49.030154,52.087466 52.534281,66.821666 54.825009,75.762486 L 55.797281,75.58571 C 54.572586,68.059959 50.711553,58.050135 54.250485,51.013748 L 53.675961,50.218254 z"
       id="path3470"
       sodipodi:nodetypes="ccccc" />
    <path
       sodipodi:nodetypes="ccccc"
       id="path3472"
       d="M 78.9042,55.963496 C 81.796659,60.367658 78.89349,64.907699 72.628627,73.817942 L 72.363463,72.757283 C 74.030099,65.143144 78.762264,63.953288 78.37387,54.814447 L 78.9042,55.963496 z"
       style="fill:#000000;fill-rule:evenodd;stroke:none;stroke-width:1px;stroke-linecap:butt;stroke-linejoin:miter;stroke-opacity:1" />
    <path
       style="fill:none;fill-rule:evenodd;stroke:#000000;stroke-width:1px;stroke-linecap:butt;stroke-linejoin:miter;stroke-opacity:1"
       d="M 70.513941,73.862137 L 72.370096,72.359535"
       id="path2442" />
    <path
       style="fill:#1a1a1a;fill-rule:evenodd;stroke:#000000;stroke-width:1px;stroke-linecap:butt;stroke-linejoin:miter;stroke-opacity:1"
       d="M 67.69971,62.207961 L 69.712273,60.686514 L 74.928263,61.576679 C 74.53791,63.903463 74.632222,65.475383 74.238919,67.682496 C 74.142104,68.225796 73.299389,68.889769 73.180115,69.446505 L 73.100598,71.723126 L 71.600598,72.473126 L 67.69971,62.207961 z"
       id="path2446"
       sodipodi:nodetypes="cccscccc" />
    <path
       style="fill:#1a1a1a;fill-rule:evenodd;stroke:#000000;stroke-width:1px;stroke-linecap:butt;stroke-linejoin:miter;stroke-opacity:1"
       d="M 67.663098,62.348126 L 72.788098,63.223126 C 72.766035,64.928933 72.757927,66.620786 72.574666,68.487791 L 71.656765,69.546017 L 71.600598,72.473126 L 68.538098,72.285626 L 68.598294,69.163382 L 67.816589,68.411021 L 67.663098,62.348126 z"
       id="path2444"
       sodipodi:nodetypes="ccccccccc" />
    <path
       style="fill:none;fill-rule:evenodd;stroke:#000000;stroke-width:1px;stroke-linecap:butt;stroke-linejoin:miter;stroke-opacity:1"
       d="M 72.796873,63.408263 L 75.183359,61.640496"
       id="path2448" />
    <path
       style="fill:#808080;fill-opacity:1;fill-rule:evenodd;stroke:none;stroke-width:1px;stroke-linecap:butt;stroke-linejoin:miter;stroke-opacity:1"
       d="M 68.554233,63.511816 L 68.756898,67.349127 L 71.471048,67.474127 L 71.736213,64.188593 L 68.554233,63.511816 z"
       id="path2450"
       sodipodi:nodetypes="ccccc" />
    <path
       id="path2452"
       d="M 71.921873,69.658263 L 74.308359,67.890496"
       style="fill:none;fill-rule:evenodd;stroke:#000000;stroke-width:1px;stroke-linecap:butt;stroke-linejoin:miter;stroke-opacity:1" />
    <path
       style="fill:none;fill-rule:evenodd;stroke:#808080;stroke-width:1px;stroke-linecap:butt;stroke-linejoin:bevel;stroke-opacity:1"
       d="M 63.000931,75.629904 L 63.708038,74.259885 L 64.636116,75.850875 L 65.608387,74.480855 L 66.492271,76.071846 L 67.376154,74.569244 L 68.260038,76.337011 L 69.276504,74.878603"
       id="path2454" />
  </g>
</svg>
