<?xml version="1.0" encoding="UTF-8" standalone="no"?>
<!-- Created with Inkscape (http://www.inkscape.org/) -->
<svg
   xmlns:dc="http://purl.org/dc/elements/1.1/"
   xmlns:cc="http://creativecommons.org/ns#"
   xmlns:rdf="http://www.w3.org/1999/02/22-rdf-syntax-ns#"
   xmlns:svg="http://www.w3.org/2000/svg"
   xmlns="http://www.w3.org/2000/svg"
   xmlns:sodipodi="http://sodipodi.sourceforge.net/DTD/sodipodi-0.dtd"
   xmlns:inkscape="http://www.inkscape.org/namespaces/inkscape"
   width="128"
   height="128"
   id="svg2"
   sodipodi:version="0.32"
   inkscape:version="0.46+devel"
   version="1.0"
   sodipodi:docname="sf_borg.svg"
   inkscape:output_extension="org.inkscape.output.svg.inkscape">
  <defs
     id="defs4">
    <filter
       inkscape:collect="always"
       id="filter4212">
      <feGaussianBlur
         inkscape:collect="always"
         stdDeviation="0.65370021"
         id="feGaussianBlur4214" />
    </filter>
    <filter
       inkscape:collect="always"
       id="filter3715"
       x="-0.047764308"
       width="1.0955286"
       y="-0.18456888"
       height="1.3691378">
      <feGaussianBlur
         inkscape:collect="always"
         stdDeviation="1.1815144"
         id="feGaussianBlur3717" />
    </filter>
  </defs>
  <sodipodi:namedview
     id="base"
     pagecolor="#ffffff"
     bordercolor="#666666"
     borderopacity="1.0"
     gridtolerance="10000"
     guidetolerance="10"
     objecttolerance="10"
     inkscape:pageopacity="0.0"
     inkscape:pageshadow="2"
     inkscape:zoom="1"
     inkscape:cx="249.21253"
     inkscape:cy="62.345341"
     inkscape:document-units="px"
     inkscape:current-layer="layer1"
     showgrid="false"
     inkscape:window-width="1538"
     inkscape:window-height="961"
     inkscape:window-x="136"
     inkscape:window-y="24" />
  <metadata
     id="metadata7">
    <rdf:RDF>
      <cc:Work
         rdf:about="">
        <dc:format>image/svg+xml</dc:format>
        <dc:type
           rdf:resource="http://purl.org/dc/dcmitype/StillImage" />
        <dc:title></dc:title>
      </cc:Work>
    </rdf:RDF>
  </metadata>
  <g
     inkscape:label="Layer 1"
     inkscape:groupmode="layer"
     id="layer1">
    <g
       id="g3779"
       transform="translate(-101,-22)" />
    <g
       id="g5136"
       transform="translate(-278,0)">
      <path
         style="fill:#4b584b;fill-opacity:1;fill-rule:evenodd;stroke:#2a312a;stroke-width:1px;stroke-linecap:butt;stroke-linejoin:miter;stroke-opacity:1"
         d="m 314.84387,88.287214 c -1.61117,-1.151709 -2.43648,-2.890008 -4.43458,-3.573061 -1.96874,2.804521 1.72946,2.604335 -0.0769,4.512465 -2.11169,0.06015 -5.69844,-0.83546 -5.90366,1.796206 0.18711,1.300656 5.08887,0.722751 5.09265,0.722207 1.23807,-0.178104 1.22254,-0.119947 0.12315,0.775096 -1.12866,0.918872 -3.05269,-0.475037 -3.72802,1.133302 1.10978,1.94969 4.62276,1.17435 6.2498,0.2464 -0.69923,1.17757 -4.29489,2.36583 -1.31894,3.34003 1.58091,-1.67331 3.5514,-2.83845 5.77174,-3.83461 1.51656,-3.037859 7.72507,-6.785719 -1.77525,-5.118035 z"
         id="path5088"
         sodipodi:nodetypes="ccccssccccc" />
      <path
         style="fill:#617161;fill-opacity:1;fill-rule:evenodd;stroke:#4b584b;stroke-width:0.99999988px;stroke-linecap:butt;stroke-linejoin:miter;stroke-opacity:1"
         d="m 316.9578,89.11705 c -0.42007,-1.967411 5.52027,-6.14965 8.73604,-7.459965 -1.55766,-4.202509 8.01631,-16.973958 9.18321,-18.549842 5.01721,-6.035004 1.90559,2.285639 4.31117,6.537911 0.58637,1.524772 -2.9061,5.552341 -4.59012,16.237724 -0.8912,5.654822 -16.34841,6.85964 -16.66446,7.854991 L 316.9578,89.11705 z"
         id="path5090"
         sodipodi:nodetypes="ccccscc" />
      <path
         sodipodi:nodetypes="ccccccc"
         id="path2447"
         d="m 331.53825,65.09098 c -1.26052,6.168152 -6.63482,11.817037 -4.42705,18.421736 0.71172,6.430786 8.19897,9.215777 13.85343,7.714483 5.78301,-0.176178 15.78829,0.694564 16.73819,-6.944989 -0.0624,-6.432004 1.38241,-15.104302 -0.93062,-21.190499 -2.16635,-7.164993 -12.00894,-3.464211 -17.73729,-3.767875 -3.48113,0.211601 -6.00178,2.83235 -7.49666,5.767144 z"
         style="fill:#617161;fill-opacity:1;fill-rule:evenodd;stroke:#4b584b;stroke-width:0.99999988px;stroke-linecap:butt;stroke-linejoin:miter;stroke-opacity:1" />
      <path
         sodipodi:nodetypes="ccscccc"
         id="path5094"
         d="m 352.13918,55.875108 4.06586,4.772971 c 0,0 -9.72272,-1.06066 -11.84404,0.353553 -2.12132,1.414214 -8.66206,11.667262 -8.66206,11.667262 l 0.17678,-10.429825 -3.71231,0.883884 c -1.51582,-1.894778 12.38698,-11.165368 19.97577,-7.247845 z"
         style="fill:#4b584b;fill-opacity:1;stroke:#2a312a;stroke-width:1;stroke-linejoin:round;stroke-miterlimit:4;stroke-opacity:1;stroke-dasharray:none;stroke-dashoffset:0" />
      <path
         sodipodi:nodetypes="ccccccccc"
         id="path2413"
         d="m 329.96557,16.55377 c -2.48427,6.08569 -7.76597,10.62207 -9.22476,17.14955 -1.07152,5.96341 0.55306,12.22541 2.32478,17.93177 2.80923,6.96469 14.74966,7.22071 21.6234,6.75776 4.12498,-1.01043 8.39012,-2.73805 11.92304,-5.17666 5.07368,-5.99493 5.3047,-14.00368 5.31831,-21.43171 -0.97276,-6.43403 -2.54992,-14.24925 -8.08424,-18.35579 -3.81477,-3.30252 -7.33805,-5.00284 -12.46784,-4.81975 -4.74551,0.99724 -8.66886,3.99111 -11.41269,7.94483 z"
         style="fill:#e7d4d3;fill-opacity:1;fill-rule:evenodd;stroke:#422524;stroke-width:1px;stroke-linecap:butt;stroke-linejoin:miter;stroke-opacity:1" />
      <path
         sodipodi:nodetypes="ccc"
         id="path2417"
         d="m 325.14568,52.62648 c 0.63371,2.86417 1.37164,5.68394 4.26848,6.70761 4.44829,0.80765 8.05675,-1.4336 9.95979,-5.28478"
         style="fill:#e7d4d3;fill-opacity:1;fill-rule:evenodd;stroke:#422524;stroke-width:1px;stroke-linecap:butt;stroke-linejoin:miter;stroke-opacity:1" />
      <path
         sodipodi:nodetypes="cccc"
         id="path2419"
         d="m 330.83699,25.38951 c -3.01512,1.04692 -10.03967,2.09064 -11.9924,5.89457 -0.24194,2.99315 0.97154,4.7532 3.86196,5.28478 2.17398,-0.28902 4.49983,-0.90845 6.09783,-2.43913"
         style="fill:#e7d4d3;fill-opacity:1;fill-rule:evenodd;stroke:#422524;stroke-width:1px;stroke-linecap:butt;stroke-linejoin:miter;stroke-opacity:1" />
      <path
         sodipodi:nodetypes="ccccc"
         id="path2421"
         d="m 338.96743,17.66559 c -3.05265,-1.17438 -5.41382,0.14044 -5.69131,3.86196 0.19692,2.22371 2.02247,3.06928 3.86196,3.86196 2.16643,0.30149 3.33252,-0.86704 4.26848,-2.64239 0.39233,-2.43253 -0.31844,-3.96242 -2.43913,-5.08153 z"
         style="fill:#ffffff;fill-rule:evenodd;stroke:#333333;stroke-width:1px;stroke-linecap:butt;stroke-linejoin:miter;stroke-opacity:1" />
      <path
         id="path2423"
         d="m 336.19874,22.539091 c -0.18894,-0.75575 -1.4117,0.22551 -0.81304,1.42282 0.58244,1.16489 1.82935,-0.20923 1.82935,-1.0163 0,-0.36487 -0.67754,-0.27102 -1.01631,-0.40652 z"
         style="fill:#000000;fill-rule:evenodd;stroke:#000000;stroke-width:1px;stroke-linecap:butt;stroke-linejoin:miter;stroke-opacity:1" />
      <path
         sodipodi:nodetypes="cccc"
         id="path2425"
         d="m 329.29025,19.58842 c -1.50548,-2.2902 -4.36472,-2.45945 -6.97246,-0.0179 -1.92033,4.87783 1.9278,6.13401 5.14311,5.30266 1.70275,-1.17876 1.74575,-3.33137 1.82935,-5.28478 z"
         style="fill:#ffffff;fill-rule:evenodd;stroke:#333333;stroke-width:1px;stroke-linecap:butt;stroke-linejoin:miter;stroke-opacity:1" />
      <path
         sodipodi:nodetypes="csc"
         id="path2427"
         d="m 325.41178,23.28909 c 0.0141,-0.87356 -2.3008,-0.30084 -1.42283,1.42282 0.0672,0.13202 2.8969,1.03396 1.42283,-1.42282 z"
         style="fill:#000000;fill-rule:evenodd;stroke:#000000;stroke-width:1px;stroke-linecap:butt;stroke-linejoin:miter;stroke-opacity:1" />
      <path
         sodipodi:nodetypes="ccscccc"
         id="path2429"
         d="m 340.59352,42.66669 c -0.47758,-1.23462 -1.17108,-2.08381 -2.23587,-2.84565 -3.43516,-1.71758 -4.75694,-1.09004 -8.53696,-0.81305 -4.50329,0.32999 -7.79368,1.15178 -7.3174,4.06522 0.53688,2.69099 1.78252,3.65368 4.47174,3.6587 3.26789,0.2252 5.65384,-1.55698 8.3337,-3.04891 1.53567,-0.77943 1.87154,-1.18366 2.51859,-2.72185"
         style="fill:#000000;fill-rule:evenodd;stroke:#000000;stroke-width:1px;stroke-linecap:butt;stroke-linejoin:miter;stroke-opacity:1" />
      <path
         sodipodi:nodetypes="cc"
         id="path2431"
         d="m 343.03265,40.0243 c -2.50404,1.11411 -2.30199,3.53635 -2.43913,5.89457"
         style="fill:#e7d4d3;fill-opacity:1;stroke:#422524;stroke-width:1px;stroke-linecap:butt;stroke-linejoin:miter;stroke-opacity:1" />
      <path
         sodipodi:nodetypes="ccsccccccsssc"
         id="path2433"
         d="m 355.84375,11.84375 c -0.68791,2.199351 -17.48708,4.645195 -25.59375,0.25 0.55318,0.877569 -3.81297,5.340099 -1.59375,4.1875 5.11862,-2.658452 -1.71773,13.479485 6.84375,17.28125 3.51151,7.525518 12.48246,-15.928941 23.1875,-9.8125 1.12922,1.48619 1.84529,3.22454 3.03125,4.6875 1.83381,2.04968 3.36653,1.12109 3.0625,-1.4375 0.51584,-3.17851 -5.36841,-13.64112 -8.9375,-15.15625 z M 338.625,16 c 1.86396,0 4.375,5.705075 4.375,7.5 0,1.794925 -2.702,1.796086 -4.125,3 -2.36396,2 -6.375,-2.205075 -6.375,-4 0,-1.794925 0.51104,-7.5 6.125,-6.5 z"
         style="fill:#4d4d4d;fill-opacity:1;fill-rule:evenodd;stroke:#1a1a1a;stroke-width:1px;stroke-linecap:butt;stroke-linejoin:miter;stroke-opacity:1" />
      <path
         sodipodi:nodetypes="ccc"
         id="path2435"
         d="m 354.61853,25.18625 c 3.26723,-2.87828 9.00717,-0.34918 5.6913,4.47174 -1.59233,1.51605 -3.23858,2.18549 -4.87826,0.60978"
         style="fill:#e7d4d3;fill-opacity:1;fill-rule:evenodd;stroke:#422524;stroke-width:1px;stroke-linecap:butt;stroke-linejoin:miter;stroke-opacity:1" />
      <path
         sodipodi:nodetypes="cccccccccc"
         id="path2453"
         d="m 329.23834,88.56943 c 0.33858,3.90773 3.1664,5.48785 5.66764,7.82664 1.07601,4.91614 0.53574,9.61237 2.02496,14.76315 1.66643,1.02484 3.22467,1.09984 5.14978,0.72803 2.00536,0.65027 6.04694,0.39003 7.89603,-0.44092 -0.63008,-6.20955 5.46424,-12.22352 7.91766,-17.69575 0.7874,-2.7696 1.53012,-5.95023 -0.43926,-8.37743 -3.57383,3.55749 -7.77403,4.70311 -12.5924,4.70311 -3.1234,0.15014 -6.24611,0.32142 -9.37108,0.44093 -2.07964,-0.11322 -4.4858,-0.85785 -6.25333,-1.94776 z"
         style="fill:#617161;fill-opacity:1;fill-rule:evenodd;stroke:#4b584b;stroke-width:0.99999988px;stroke-linecap:butt;stroke-linejoin:miter;stroke-opacity:1" />
      <path
         style="fill:#4b584b;fill-opacity:1;fill-rule:evenodd;stroke:#2a312a;stroke-width:0.99999988px;stroke-linecap:butt;stroke-linejoin:miter;stroke-opacity:1"
         d="m 332.07364,116.4229 c -1.84034,3.07756 -1.56016,3.66153 1.31427,6.23727 4.5788,0.76977 8.47413,-1.06394 12.88523,-3.52734 0.41866,-2.32713 -2.91061,-5.32325 -3.9035,-12.70164 -3.37273,-0.69087 -3.58783,0.0922 -6.33087,0.9619 -0.55788,0.17689 0.50942,4.79033 1.97209,7.19318 1.12623,1.85016 -5.60048,1.67419 -5.93722,1.83663 z"
         id="path5086"
         sodipodi:nodetypes="ccccssc" />
      <path
         sodipodi:nodetypes="cc"
         id="path2455"
         d="m 341.3486,96.39607 c -1.46026,2.25391 0.40102,7.52403 0.54465,10.14723"
         style="fill:#617161;fill-opacity:1;stroke:#4b584b;stroke-width:0.99999988px;stroke-linecap:butt;stroke-linejoin:miter;stroke-opacity:1" />
      <path
         sodipodi:nodetypes="ccccc"
         id="path2474"
         d="m 328.12548,42.94996 c -1.65275,-1.57631 -4.09967,-1.54092 -5.12653,0.35355 -0.18075,2.51383 3.26411,3.14694 5.12653,3.00521 1.82932,-0.16736 6.10842,-1.55413 6.71751,-3.35877 -1.50197,-2.20258 -5.74087,-1.2552 -6.71751,10e-6 z"
         style="fill:#800000;fill-rule:evenodd;stroke:#000000;stroke-width:1px;stroke-linecap:butt;stroke-linejoin:miter;stroke-opacity:1" />
      <path
         sodipodi:nodetypes="cccccsccc"
         id="path2480"
         d="m 349.4548,66.025593 c -1.89692,0.26323 -2.60887,2.15452 -3.35876,3.71231 -0.51336,1.70305 1.426,1.91424 1.94454,3.53553 -1.08595,1.46277 -1.47433,2.59603 -1.41421,4.41942 1.72173,0.98513 2.85626,-0.23464 4.24264,-1.41421 0.61689,-0.30845 0.39866,1.32765 0.70711,1.94454 0.43823,0.87647 1.87704,-0.28606 2.12132,-0.53033 1.91694,-1.78164 2.68727,-3.94931 2.82842,-6.54074 -0.57763,-3.89976 -3.43063,-6.0918 -7.07106,-5.12652 z"
         style="fill:#515e51;fill-opacity:1;fill-rule:evenodd;stroke:none" />
      <path
         sodipodi:nodetypes="cc"
         id="path2492"
         d="m 328.58474,56.55072 c 0.22236,-1.97155 3.51166,-2.13298 3.53554,0.35355"
         style="fill:#e7d4d3;fill-opacity:1;stroke:#422524;stroke-width:1px;stroke-linecap:butt;stroke-linejoin:miter;stroke-opacity:1" />
      <path
         sodipodi:nodetypes="cc"
         id="path3629"
         d="m 356.09881,26.23659 c 4.78091,-2.03475 2.74212,3.30292 0.34467,2.4127"
         style="fill:#e7d4d3;fill-opacity:1;stroke:#422524;stroke-width:1px;stroke-linecap:butt;stroke-linejoin:miter;stroke-opacity:1" />
      <path
         sodipodi:nodetypes="ccccssc"
         id="path2457"
         d="m 337.44864,116.6729 c -1.84034,3.07756 -1.56016,3.66153 1.31427,6.23727 4.5788,0.76977 8.47413,-1.06394 12.88523,-3.52734 0.41866,-2.32713 -3.03561,-6.44825 -0.9035,-12.95164 -3.37273,-0.69087 -6.58783,0.34215 -9.33087,1.2119 -0.55788,0.17689 0.50942,4.79033 1.97209,7.19318 1.12623,1.85016 -5.60048,1.67419 -5.93722,1.83663 z"
         style="fill:#4b584b;fill-opacity:1;fill-rule:evenodd;stroke:#2a312a;stroke-width:0.99999988px;stroke-linecap:butt;stroke-linejoin:miter;stroke-opacity:1" />
      <path
         sodipodi:nodetypes="ccccssccccc"
         id="path2461"
         d="m 354.43314,94.038754 c -1.98001,0.0434 -3.68236,-0.85372 -5.69131,-0.20327 0.10437,3.424969 2.94515,1.04868 2.64239,3.658699 -1.65455,1.31352 -5.06272,2.745737 -3.65008,4.975587 0.92917,0.92917 4.50717,-2.470707 4.50987,-2.473407 0.88446,-0.88446 0.90687,-0.82859 0.56304,0.546737 -0.35299,1.41195 -2.72859,1.44891 -2.30551,3.1412 2.05676,0.8959 4.40461,-1.82987 5.15116,-3.54772 0.14582,1.36174 -2.02079,4.46762 0.94547,3.46431 0.26298,-2.28693 1.14236,-4.400477 2.32302,-6.528447 -0.6062,-3.340828 2.11848,-10.06156 -4.48805,-3.033689 z"
         style="fill:#4b584b;fill-opacity:1;fill-rule:evenodd;stroke:#2a312a;stroke-width:1px;stroke-linecap:butt;stroke-linejoin:miter;stroke-opacity:1" />
      <path
         sodipodi:nodetypes="cccccscc"
         id="path2451"
         d="m 355.95334,91.066949 c -1.51521,-1.323369 1.40392,-5.861703 3.19326,-8.837665 -3.76525,-2.431103 -10.05248,-12.353043 -10.06257,-14.313901 -0.0185,-3.59119 1.80307,-6.15433 5.61168,-5.65317 1.45144,1.10964 2.90142,1.96241 4.59138,2.64993 1.38311,0.869349 4.46565,5.801015 9.52031,15.36468 2.67498,5.061198 -8.97792,15.287974 -8.63451,16.274217 -2.67496,2.794803 -2.11939,-3.806497 -4.21955,-5.484091 z"
         style="fill:#617161;fill-opacity:1;fill-rule:evenodd;stroke:#4b584b;stroke-width:0.99999988px;stroke-linecap:butt;stroke-linejoin:miter;stroke-opacity:1" />
      <path
         sodipodi:nodetypes="ccccc"
         id="path5112"
         d="m 349.5,16.75 12.5,-3.5 c 1.71082,1.441169 3.30376,2.905915 1.75,5 l -13,4.5 c -5.75927,-2.485691 -2.35896,-4.138693 -1.25,-6 z"
         style="fill:#333333;fill-opacity:1;stroke:#1a1a1a;stroke-width:1;stroke-linejoin:round;stroke-miterlimit:4;stroke-opacity:1;stroke-dasharray:none;stroke-dashoffset:0" />
      <path
         sodipodi:nodetypes="csc"
         id="path5114"
         d="m 349.75,17.75 c 0,0 -2.94715,3.484835 1.25,4 0.78468,0.09631 1.45971,-4.058058 -1.25,-4 z"
         style="fill:#ff0000;fill-opacity:1;stroke:none" />
      <path
         sodipodi:nodetypes="ccccc"
         id="path5116"
         d="m 363.25,16.6875 c 16.84274,24.771457 -3.0959,30.732233 -5.26256,46.982233 l 1.25,0.25 c 8.1127,-15.576864 21.1156,-28.849001 5.54289,-47.107233 L 363.25,16.6875 z"
         style="font-size:medium;font-style:normal;font-variant:normal;font-weight:normal;font-stretch:normal;text-indent:0;text-align:start;text-decoration:none;line-height:normal;letter-spacing:normal;word-spacing:normal;text-transform:none;direction:ltr;block-progression:tb;writing-mode:lr-tb;text-anchor:start;color:#000000;fill:#000000;fill-opacity:1;fill-rule:nonzero;stroke:none;stroke-width:1;marker:none;visibility:visible;display:inline;overflow:visible;enable-background:accumulate;font-family:Bitstream Vera Sans;-inkscape-font-specification:Bitstream Vera Sans" />
      <path
         sodipodi:nodetypes="ccccc"
         id="path5118"
         d="m 333.45987,11.62132 1.93382,-0.237437 c 1.80731,-7.4941641 19.16099,-11.38287605 26.4571,3.68934 l 1.77849,-1 C 365.97219,6.0835195 338.69287,-6.091525 333.45987,11.62132 z"
         style="font-size:medium;font-style:normal;font-variant:normal;font-weight:normal;font-stretch:normal;text-indent:0;text-align:start;text-decoration:none;line-height:normal;letter-spacing:normal;word-spacing:normal;text-transform:none;direction:ltr;block-progression:tb;writing-mode:lr-tb;text-anchor:start;color:#000000;fill:#000000;fill-opacity:1;fill-rule:nonzero;stroke:none;stroke-width:1;marker:none;visibility:visible;display:inline;overflow:visible;enable-background:accumulate;font-family:Bitstream Vera Sans;-inkscape-font-specification:Bitstream Vera Sans" />
      <path
         id="path5134"
         d="m 343.25,75 c 0,0 -8.125,-1.25 -8.375,2.625 -0.25,3.875 3.875,11.125 6.25,10 C 343.5,86.5 350.875,79.5 343.25,75 z"
         style="fill:#4b584b;fill-opacity:1;stroke:#2a312a;stroke-width:1;stroke-linejoin:round;stroke-miterlimit:4;stroke-opacity:1;stroke-dasharray:none;stroke-dashoffset:0" />
      <path
         sodipodi:nodetypes="ccccc"
         id="path5120"
         d="m 331.09375,66.5625 -0.0625,-1.625 c -17.0973,8.325225 5.86171,10.623893 8.375,16.375 1.49656,0.899793 1.59372,0.07441 0.8125,-1.25 -2.63599,-5.744449 -21.70947,-7.134307 -9.125,-13.5 z"
         style="font-size:medium;font-style:normal;font-variant:normal;font-weight:normal;font-stretch:normal;text-indent:0;text-align:start;text-decoration:none;line-height:normal;letter-spacing:normal;word-spacing:normal;text-transform:none;direction:ltr;block-progression:tb;writing-mode:lr-tb;text-anchor:start;color:#000000;fill:#000000;fill-opacity:1;fill-rule:nonzero;stroke:none;stroke-width:1;marker:none;visibility:visible;display:inline;overflow:visible;enable-background:accumulate;font-family:Bitstream Vera Sans;-inkscape-font-specification:Bitstream Vera Sans" />
    </g>
  </g>
</svg>
