<?xml version="1.0" encoding="UTF-8" standalone="no"?>
<!-- Created with Inkscape (http://www.inkscape.org/) -->
<svg
   xmlns:dc="http://purl.org/dc/elements/1.1/"
   xmlns:cc="http://creativecommons.org/ns#"
   xmlns:rdf="http://www.w3.org/1999/02/22-rdf-syntax-ns#"
   xmlns:svg="http://www.w3.org/2000/svg"
   xmlns="http://www.w3.org/2000/svg"
   xmlns:sodipodi="http://sodipodi.sourceforge.net/DTD/sodipodi-0.dtd"
   xmlns:inkscape="http://www.inkscape.org/namespaces/inkscape"
   width="128"
   height="128"
   id="svg2"
   sodipodi:version="0.32"
   inkscape:version="0.46"
   version="1.0"
   sodipodi:docname="countdown-14.svg"
   inkscape:output_extension="org.inkscape.output.svg.inkscape">
  <defs
     id="defs4">
    <filter
       inkscape:collect="always"
       id="filter3437"
       x="-0.046459185"
       width="1.0929184"
       y="-0.21160748"
       height="1.423215">
      <feGaussianBlur
         inkscape:collect="always"
         stdDeviation="1.9287525"
         id="feGaussianBlur3439" />
    </filter>
  </defs>
  <sodipodi:namedview
     id="base"
     pagecolor="#ffffff"
     bordercolor="#666666"
     borderopacity="1.0"
     gridtolerance="10000"
     guidetolerance="10"
     objecttolerance="10"
     inkscape:pageopacity="0.0"
     inkscape:pageshadow="2"
     inkscape:zoom="1"
     inkscape:cx="64"
     inkscape:cy="64"
     inkscape:document-units="px"
     inkscape:current-layer="layer1"
     showgrid="false"
     inkscape:window-width="1538"
     inkscape:window-height="961"
     inkscape:window-x="127"
     inkscape:window-y="31" />
  <metadata
     id="metadata7">
    <rdf:RDF>
      <cc:Work
         rdf:about="">
        <dc:format>image/svg+xml</dc:format>
        <dc:type
           rdf:resource="http://purl.org/dc/dcmitype/StillImage" />
      </cc:Work>
    </rdf:RDF>
  </metadata>
  <g
     inkscape:label="Layer 1"
     inkscape:groupmode="layer"
     id="layer1">
    <path
       style="fill:#000000;fill-opacity:0.84773661;fill-rule:evenodd;stroke:none;stroke-width:1px;stroke-linecap:butt;stroke-linejoin:miter;stroke-opacity:1;filter:url(#filter3437)"
       d="M 14.849243,107.14036 C 10.329456,109.46747 13.425859,113.03904 16.970563,113.85787 C 18.614113,114.26876 23.142628,113.54474 24.395184,113.85787 C 26.190318,117.74729 22.776732,119.45592 27.930718,120.22183 C 36.448849,119.57479 45.124194,119.16117 53.740116,119.16117 C 57.071145,118.78938 59.91181,118.30552 62.57895,120.57539 C 64.64256,122.61664 67.62035,121.55134 70.35712,122.34315 C 71.89885,122.72858 73.7083,124.46447 75.30688,124.46447 C 77.07464,124.46447 80.61018,123.75736 82.37795,123.75736 C 90.31796,123.57584 95.82761,120.51438 103.59115,119.16117 C 106.27614,119.16117 104.19159,116.33274 107.12668,116.33274 C 112.08895,115.82504 114.38539,115.57511 109.60156,110.67589 C 94.73287,102.41723 67.33074,100.61859 51.618796,104.66548 C 39.715605,104.64361 26.671849,108.15153 14.849243,107.14036 z"
       id="path3319"
       sodipodi:nodetypes="cccccccscccccc"
       transform="matrix(0.989866,0,0,0.98988,-2.8673009,1.541771e-2)" />
    <path
       style="fill:#e9d2af;fill-opacity:1;fill-rule:evenodd;stroke:#3f2d10;stroke-width:1px;stroke-linecap:butt;stroke-linejoin:miter;stroke-opacity:1"
       d="M 63.147249,68.024213 C 62.069829,68.912507 61.64871,70.033542 61.304138,71.330772 C 60.183432,73.870774 60.70909,76.783994 59.077623,79.063169 C 57.847556,80.375061 57.082647,81.242961 55.429739,81.919338 C 53.981156,81.523327 52.709237,81.912152 51.958771,83.012748 C 52.522628,84.123992 53.808771,84.219207 54.987674,84.506659 C 54.917958,85.898932 52.510047,86.968379 51.89919,88.452541 C 52.930215,90.992422 55.397855,88.130009 55.988676,86.648208 C 55.719126,88.169892 54.142266,90.279602 53.964487,91.326264 C 55.762571,92.319805 57.460558,89.316661 57.995313,87.683413 C 57.380527,89.464978 55.908299,90.974717 58.036887,91.596037 C 59.827961,90.995038 60.121733,88.897584 60.84774,87.300928 C 62.257597,84.869701 64.11213,82.733953 65.232411,80.132558 C 66.214467,76.100776 69.678484,71.814983 69.129732,67.608468 C 67.003747,65.52197 65.362747,67.595447 63.147249,68.024213 z"
       id="path2647"
       sodipodi:nodetypes="ccccccccccccccc" />
    <path
       style="fill:#bfb074;fill-opacity:1;fill-rule:evenodd;stroke:#3f381d;stroke-width:1px;stroke-linecap:butt;stroke-linejoin:miter;stroke-opacity:1"
       d="M 26.53022,63.549493 C 26.363155,63.507726 26.080044,66.199733 24.780367,68.799124 C 20.905019,76.549931 21.347981,84.945031 19.53081,93.122416 C 17.86291,98.244819 15.793825,103.23445 14.106268,108.34635 C 12.933477,111.63104 17.616832,111.01329 20.230751,110.97117 C 22.713249,107.97777 66.095555,108.95938 67.126807,107.47142 C 62.320226,98.666261 73.584307,71.250292 69.926564,64.424431 C 63.048638,65.535775 56.158458,66.809332 49.103316,66.699271 C 44.136779,65.427981 29.602342,68.519307 26.53022,63.549493 z"
       id="path2541"
       sodipodi:nodetypes="csccccccc" />
    <path
       style="fill:#1a1a1a;fill-opacity:1;fill-rule:evenodd;stroke:#000000;stroke-width:1px;stroke-linecap:butt;stroke-linejoin:miter;stroke-opacity:1"
       d="M 71.518763,50.398867 C 68.847174,53.166057 67.068108,56.310886 65.91923,59.925027 C 64.484736,62.475314 63.01524,64.745466 62.697018,67.711106 C 66.623826,68.452081 70.599415,67.67363 74.493509,68.20864 C 76.275891,63.476192 75.97124,58.283668 76.068375,53.298127"
       id="path2593"
       sodipodi:nodetypes="ccccc" />
    <path
       style="fill:#f8edbf;fill-opacity:1;fill-rule:evenodd;stroke:#3f381d;stroke-width:1px;stroke-linecap:butt;stroke-linejoin:miter;stroke-opacity:1"
       d="M 99.1491,64.599419 C 86.578654,69.371135 73.785151,62.042309 61.177297,65.124382 C 55.146875,66.86475 27.288523,59.529855 26.355234,63.549493 C 26.909947,68.012873 26.278798,73.454551 26.18025,77.898485 C 25.481961,85.391173 25.604022,93.050171 24.255412,100.4719 C 22.796098,105.88473 24.605382,110.89922 24.605382,116.22081 C 24.605382,116.51471 28.523869,115.31145 28.805028,115.17088 C 40.644522,113.98615 48.518965,116.55335 58.202551,114.29594 C 64.141183,112.81125 77.256719,114.29594 84.100376,114.29594 C 87.615895,112.64296 101.38115,116.13041 102.64881,113.24601 C 102.64881,111.14616 102.64881,109.0463 102.64881,106.94645 C 102.95098,98.045348 100.7506,89.338416 100.19901,80.5233 C 100.42077,77.325954 103.90764,65.635471 99.1491,64.599419 z"
       id="path2539"
       sodipodi:nodetypes="ccccccccccccc" />
    <path
       style="fill:#784421;fill-rule:evenodd;stroke:#28170b;stroke-width:0.99999994px;stroke-linecap:butt;stroke-linejoin:miter;stroke-opacity:1"
       d="M 80.180853,82.900278 C 74.708488,85.257556 59.313062,82.262219 56.645007,88.177275 C 55.333979,93.394576 57.621965,98.369138 57.744808,103.56853 C 57.556862,108.3328 57.413975,113.20361 62.803914,114.78214 C 66.321353,117.52374 70.038953,119.90475 73.801978,122.25789 C 77.996209,120.77615 82.281319,119.3844 86.779696,118.52002 C 90.953198,118.05887 94.931024,117.2399 98.87756,115.88152 C 100.69789,115.42662 99.92605,115.20724 100.41729,113.24302 C 100.32521,107.81512 102.68434,103.07049 102.39694,97.631895 C 102.39694,96.31265 102.39694,94.993397 102.39694,93.674147 C 102.4891,91.375371 99.54207,90.818085 97.77775,89.936274 C 92.443471,86.407292 85.997088,85.593334 80.180853,82.900278 z"
       id="path2503"
       sodipodi:nodetypes="cccccccccccc" />
    <g
       id="g2521"
       transform="matrix(0.989866,0,0,0.98988,23.9107,22.888806)">
      <path
         sodipodi:nodetypes="cccccccc"
         id="path2637"
         d="M 32.737882,82.341947 C 29.642394,81.396791 27.056092,80.692608 23.753988,81.152569 C 22.885961,81.504111 22.583215,82.128978 22.203812,82.930059 C 22.053294,83.715812 21.94201,84.504704 21.745232,85.290346 C 24.051974,86.813241 25.957516,89.699305 28.928707,90.23658 C 31.573478,91.692336 34.762865,92.196912 37.82388,91.770532 C 39.138456,90.534458 39.683311,88.19781 40.457055,86.463182 C 37.589144,85.923744 34.864192,84.308238 32.737882,82.341947 z"
         style="fill:#e6e6e6;fill-rule:evenodd;stroke:#333333;stroke-width:1.01023066px;stroke-linecap:butt;stroke-linejoin:miter;stroke-opacity:1" />
      <path
         sodipodi:nodetypes="ccc"
         id="path2639"
         d="M 22.16823,84.99153 C 27.057144,82.470293 30.540209,83.674213 33.55502,87.1156 C 36.57375,88.3866 38.2051,89.47688 37.2638,91.32732"
         style="fill:none;fill-rule:evenodd;stroke:#333333;stroke-width:1.01023066px;stroke-linecap:butt;stroke-linejoin:miter;stroke-opacity:1" />
    </g>
    <path
       style="fill:none;fill-rule:evenodd;stroke:#28170b;stroke-width:0.99999994px;stroke-linecap:butt;stroke-linejoin:miter;stroke-opacity:1"
       d="M 101.87466,92.684267 C 97.50715,93.744965 89.845707,95.145383 85.459927,96.31265 C 82.46096,96.680578 79.68981,97.719104 76.881432,98.731276 C 75.145593,99.165065 74.681821,100.15013 74.681821,102.24927 C 75.751975,106.77604 74.393344,111.05012 73.58202,115.44177 C 73.454248,117.75134 74.042021,119.54675 73.664535,121.8365"
       id="path2507"
       sodipodi:nodetypes="cccccc" />
    <g
       id="g2517"
       transform="matrix(0.8479263,0.5107474,-0.5107402,0.8479383,69.925475,17.021291)">
      <path
         sodipodi:nodetypes="cccccccc"
         id="path2641"
         d="M 41.82706,83.62129 C 39.29651,84.97338 35.48773,85.66542 32.98822,87.77554 C 32.5613,88.6745 32.5786,89.71376 32.45789,90.69236 C 32.60202,91.98615 33.36333,92.80422 34.31405,93.60917 C 36.88069,94.60205 39.74276,93.8276 42.35739,93.34401 C 44.65203,93.26353 47.35792,92.73746 48.95619,90.98785 C 51.42602,88.67802 51.01186,86.48483 50.75428,83.26774 C 47.77869,83.49322 44.8105,83.62129 41.82706,83.62129 z"
         style="fill:#e6e6e6;fill-rule:evenodd;stroke:#333333;stroke-width:1.01023066px;stroke-linecap:butt;stroke-linejoin:miter;stroke-opacity:1" />
      <path
         sodipodi:nodetypes="ccc"
         id="path2643"
         d="M 33.165,91.75302 C 35.518753,87.945145 41.621126,87.122951 44.314673,87.712762 C 47.229953,87.187429 47.62391,87.498784 50.31234,87.95232"
         style="fill:none;fill-rule:evenodd;stroke:#333333;stroke-width:1.01023066px;stroke-linecap:butt;stroke-linejoin:miter;stroke-opacity:1" />
    </g>
    <path
       style="fill:none;fill-rule:evenodd;stroke:#28170b;stroke-width:0.99999994px;stroke-linecap:butt;stroke-linejoin:miter;stroke-opacity:1"
       d="M 56.947401,88.45234 C 56.786409,88.387969 61.719931,91.407379 67.203145,93.234398 C 70.157529,94.985443 72.527951,96.818587 75.011723,99.22622"
       id="path2505"
       sodipodi:nodetypes="ccc" />
    <path
       sodipodi:nodetypes="ccccccccccc"
       id="path2515"
       d="M 86.148527,77.950881 C 88.36356,81.160268 88.763446,83.283809 87.633326,86.117391 C 87.95238,87.393635 84.495273,89.160078 83.302663,89.458236 C 77.856351,89.48324 72.844174,90.18955 67.836006,92.304141 C 63.220232,95.096384 62.288085,102.98071 62.63921,107.39982 C 61.06173,109.85845 58.631074,104.4116 55.586415,104.18271 C 55.444963,99.103257 58.697583,96.084255 56.328814,92.180406 C 55.591067,89.939943 56.781123,88.286349 57.442413,86.117391 C 59.912327,81.04472 66.552655,84.817308 70.805604,82.900281 C 71.664798,82.041076 71.79547,81.108447 71.79547,79.683171 C 74.159399,76.583705 82.535259,76.478176 86.148527,77.950881 z"
       style="fill:#00325c;fill-opacity:1;fill-rule:evenodd;stroke:#00192e;stroke-width:1px;stroke-linecap:butt;stroke-linejoin:miter;stroke-opacity:1" />
    <path
       style="fill:#00325c;fill-opacity:1;fill-rule:evenodd;stroke:#00192e;stroke-width:1px;stroke-linecap:butt;stroke-linejoin:miter;stroke-opacity:1"
       d="M 91.716524,83.890161 C 93.931557,87.099548 94.331443,89.223089 93.201323,92.056671 C 93.520376,93.332915 90.063269,95.099358 88.870659,95.397516 C 83.424347,95.42252 78.41217,96.128829 73.404003,98.243423 C 68.788228,101.03567 70.701946,108.79625 71.053071,113.21536 C 70.000972,115.29871 64.740596,108.42621 60.040812,109.37958 C 56.558562,105.04254 64.265579,102.02354 61.89681,98.119688 C 61.159063,95.879221 62.34912,94.225629 63.01041,92.056671 C 65.480323,86.984 72.120651,90.756588 76.373601,88.839561 C 77.232794,87.980356 77.363467,87.047727 77.363467,85.622451 C 79.727395,82.522985 88.103255,82.417456 91.716524,83.890161 z"
       id="path2513"
       sodipodi:nodetypes="ccccccccccc" />
    <path
       style="fill:#1a1a1a;fill-opacity:1;fill-rule:evenodd;stroke:#000000;stroke-width:1px;stroke-linecap:butt;stroke-linejoin:miter;stroke-opacity:1"
       d="M 96.492964,85.99124 C 93.716281,82.565008 95.628873,77.43348 95.983027,73.509635 C 94.76734,68.602751 97.92489,63.365949 96.882822,58.460688 C 96.421772,55.386358 95.401547,52.618268 93.856822,49.937544 C 92.090634,47.548894 89.731842,46.189828 86.733687,46.036575 C 82.887117,46.599985 79.004239,46.080823 75.184653,46.91151 C 72.366217,48.137853 70.423744,50.169245 70.110085,53.211057 C 69.973949,55.956915 70.15847,58.431259 68.885185,60.910512 C 68.501959,65.316854 67.040154,69.790716 67.660295,74.20958 C 68.545701,79.350403 66.339537,81.46049 66.909096,86.587613 C 71.345556,84.047779 77.095549,87.876338 82.132809,87.312433 C 86.357696,85.802054 93.871828,89.194878 96.492964,85.99124 z"
       id="path2581"
       sodipodi:nodetypes="cccccccccccc" />
    <path
       style="fill:#e9d2af;fill-opacity:1;fill-rule:evenodd;stroke:#3f2d10;stroke-width:1px;stroke-linecap:butt;stroke-linejoin:miter;stroke-opacity:1"
       d="M 91.099778,67.694302 C 91.060173,71.195935 92.434751,74.423386 94.774467,76.968651 C 95.767207,78.204505 97.09436,78.943059 98.62415,79.243492 C 99.20035,79.243492 101.32474,77.015357 101.4239,76.618676 C 101.96161,73.066246 101.02116,70.03574 101.42391,66.469389 C 101.42391,65.275073 100.37088,64.188315 99.84903,63.144622 C 95.690205,60.371251 93.409986,65.583918 91.099778,67.694302 z"
       id="path2525"
       sodipodi:nodetypes="ccccccc" />
    <path
       style="fill:#1a1a1a;fill-opacity:1;fill-rule:evenodd;stroke:#000000;stroke-width:1px;stroke-linecap:butt;stroke-linejoin:miter;stroke-opacity:1"
       d="M 87.262285,55.383388 C 87.389641,57.898476 88.022898,60.204619 88.837152,62.55789 C 89.494898,64.968149 89.686041,67.425605 89.712075,69.907373 C 93.873907,69.465441 98.32859,67.717016 102.48599,66.407623 C 102.04954,64.358195 101.48543,62.346234 101.08611,60.283047 C 100.42502,57.566846 98.25946,55.980593 97.06145,53.633518 C 95.599395,51.588287 93.611632,50.622145 91.111953,51.358675"
       id="path2585"
       sodipodi:nodetypes="ccccccc" />
    <path
       style="fill:#e9d2af;fill-opacity:1;fill-rule:evenodd;stroke:#3f2d10;stroke-width:1px;stroke-linecap:butt;stroke-linejoin:miter;stroke-opacity:1"
       d="M 77.23323,4.0922801 C 66.888467,4.0316945 62.796232,10.857168 62.658195,19.735027 C 62.658195,21.592198 63.516597,25.247291 63.976806,27.088153 C 63.762589,30.712847 62.864553,33.451815 63.934351,36.989973 C 65.178474,41.995529 68.540633,44.659949 73.383552,45.739354 C 77.682679,45.654937 83.460457,44.194864 86.682421,41.189677 C 91.295741,37.41473 92.684662,31.025332 94.381777,25.440781 C 94.985012,20.106395 92.396987,15.017427 90.882067,10.041863 C 88.772405,4.597204 82.391699,3.330217 77.23323,4.0922801 z"
       id="path2550"
       sodipodi:nodetypes="ccccccccc" />
    <path
       style="fill:#28170b;fill-rule:evenodd;stroke:#120a04;stroke-width:1px;stroke-linecap:butt;stroke-linejoin:miter;stroke-opacity:1"
       d="M 63.934351,11.091789 C 63.296243,1.3291419 89.923144,-1.8944172 91.313312,5.8245701 C 98.79314,6.3989222 98.83087,25.560109 96.97289,32.154003 C 89.256033,32.075387 93.268564,23.134903 88.782244,20.891101 C 86.870813,20.413234 86.232072,21.878631 84.582609,22.291002 C 81.088887,20.045418 84.622312,13.136358 78.983075,10.741813 C 76.229526,11.854639 72.739416,13.572082 69.883851,10.741813 C 67.443099,10.741813 66.012881,11.923212 63.934351,11.091789 z"
       id="path2554"
       sodipodi:nodetypes="cccccccc" />
    <path
       style="fill:#28170b;fill-rule:evenodd;stroke:#120a04;stroke-width:1px;stroke-linecap:butt;stroke-linejoin:miter;stroke-opacity:1"
       d="M 95.860799,30.769557 C 94.297253,30.769557 96.990074,36.336632 97.26068,37.419096 C 97.68017,39.097061 100.7172,41.561209 101.8103,43.018698 C 102.73874,44.256642 106.72974,43.080754 107.7598,42.668726 C 109.4933,41.975305 111.51186,42.921086 112.30941,43.718652 C 114.79811,46.207379 113.30992,42.569897 112.65939,41.268818 C 112.14846,40.246945 109.81401,38.872279 108.80971,38.11904 C 107.10247,36.83859 106.75475,35.364095 105.31001,33.919335 C 103.93119,32.540502 102.27856,32.519437 100.41042,32.519437 C 99.2434,32.519437 97.28793,31.054989 95.860799,30.769557 z"
       id="path2556" />
    <path
       style="fill:#e9d2af;fill-opacity:1;fill-rule:evenodd;stroke:#3f2d10;stroke-width:1px;stroke-linecap:butt;stroke-linejoin:miter;stroke-opacity:1"
       d="M 74.503031,48.985764 C 76.224131,53.523859 84.750243,52.027883 87.772511,47.709591 C 86.566775,45.257243 85.712739,42.311974 83.070648,41.027901 C 80.826859,40.77172 78.649124,41.395622 76.512786,42.017781 C 74.79221,43.359672 74.118132,47.262136 74.503031,48.985764 z"
       id="path2619"
       sodipodi:nodetypes="ccccc" />
    <path
       style="fill:#28170b;fill-rule:evenodd;stroke:#120a04;stroke-width:1px;stroke-linecap:butt;stroke-linejoin:miter;stroke-opacity:1"
       d="M 62.766279,43.277275 C 63.415542,44.575819 64.734687,45.38077 66.385477,45.38077 C 68.98536,46.130396 71.500807,47.29693 74.087871,48.195741 C 77.484804,49.068677 79.960172,47.334813 82.470799,45.38077 C 86.701318,43.193382 91.084633,39.470058 91.967316,34.584891 C 92.214783,32.538265 91.408982,32.543264 90.235051,32.914469 C 88.284925,34.904543 85.841946,37.007533 83.182265,38.049471 C 79.812722,39.006685 77.143182,39.450419 76.191337,35.574771 C 75.073738,32.364758 71.465004,31.443111 68.488942,30.687239 C 62.163213,30.413952 60.782974,38.666335 62.766279,43.277275 z M 68.427075,34.584891 C 71.479545,33.295909 77.840117,41.146697 72.324673,40.833509 C 70.007505,40.061788 69.525599,38.561932 68.148675,40.493237 C 63.238089,41.981769 65.174306,35.818569 68.427075,34.584891 z"
       id="path2558"
       sodipodi:nodetypes="cccccccccccccc" />
    <path
       style="fill:#ffffff;fill-rule:evenodd;stroke:#333333;stroke-width:1px;stroke-linecap:butt;stroke-linejoin:miter;stroke-opacity:1"
       d="M 71.73694,20.231627 C 70.384852,23.199763 71.431031,24.940101 74.326538,24.511099 C 75.216002,24.902706 77.06915,22.732993 76.643804,21.293989 C 76.962125,17.42935 73.611954,17.345464 71.73694,20.231627 z"
       id="path2565"
       sodipodi:nodetypes="cccc" />
    <path
       style="fill:#ffffff;fill-rule:evenodd;stroke:#333333;stroke-width:1px;stroke-linecap:butt;stroke-linejoin:miter;stroke-opacity:1"
       d="M 65.797744,18.251867 C 63.467876,18.775096 62.37446,20.554592 62.828146,23.201267 C 65.517968,28.168409 70.633288,21.021745 65.797744,18.251867 z"
       id="path2567"
       sodipodi:nodetypes="ccc" />
    <path
       style="fill:#e9d2af;fill-opacity:1;fill-rule:evenodd;stroke:#3f2d10;stroke-width:1px;stroke-linecap:butt;stroke-linejoin:miter;stroke-opacity:1"
       d="M 69.262275,21.963917 C 68.850906,24.350092 66.541163,25.460912 65.302811,26.665847 C 64.670078,29.313589 65.050108,31.213172 68.024942,30.625371 C 70.103601,29.659589 70.938098,28.057554 71.242007,25.923437"
       id="path2569"
       sodipodi:nodetypes="cccc" />
    <path
       style="fill:#e9d2af;fill-opacity:1;fill-rule:evenodd;stroke:#3f2d10;stroke-width:1px;stroke-linecap:butt;stroke-linejoin:miter;stroke-opacity:1"
       d="M 86.58492,22.458857 C 92.38888,20.152914 91.36618,28.748727 87.079853,27.903197"
       id="path2571"
       sodipodi:nodetypes="cc" />
    <path
       style="fill:#e9d2af;fill-opacity:1;fill-rule:evenodd;stroke:#3f2d10;stroke-width:1px;stroke-linecap:butt;stroke-linejoin:miter;stroke-opacity:1"
       d="M 87.698519,23.819942 C 88.540974,22.342118 90.75967,24.987794 87.698519,26.418377"
       id="path2573"
       sodipodi:nodetypes="cs" />
    <path
       style="fill:none;fill-rule:evenodd;stroke:#3f2d10;stroke-width:1px;stroke-linecap:butt;stroke-linejoin:miter;stroke-opacity:1"
       d="M 66.78761,37.802001 C 67.742682,38.207001 70.449243,37.991385 72.108139,37.802001"
       id="path2575"
       sodipodi:nodetypes="cc" />
    <path
       style="fill:#000000;fill-rule:evenodd;stroke:#000000;stroke-width:1px;stroke-linecap:butt;stroke-linejoin:miter;stroke-opacity:1"
       d="M 76.095102,20.962953 C 76.614514,20.99821 75.552932,18.917945 74.185462,20.385121 C 73.125563,21.522302 74.146174,23.138278 74.892999,23.293031 C 76.392962,23.603847 76.736575,21.190484 76.095102,20.962953 z"
       id="path2577"
       sodipodi:nodetypes="cssc" />
    <path
       style="fill:#000000;fill-rule:evenodd;stroke:#000000;stroke-width:1px;stroke-linecap:butt;stroke-linejoin:miter;stroke-opacity:1"
       d="M 66.531343,20.44028 C 66.984048,19.50117 64.376247,20.254519 65.046544,22.42004 C 65.509148,23.914556 67.149712,22.995097 67.273743,22.91498 C 68.937064,21.840601 67.591994,19.101721 66.531343,20.44028 z"
       id="path2579"
       sodipodi:nodetypes="cssc" />
    <g
       id="g3779"
       transform="translate(-101,-22)" />
    <path
       style="fill:#e9d2af;fill-opacity:1;fill-rule:evenodd;stroke:#3f2d10;stroke-width:0.99999994px;stroke-linecap:butt;stroke-linejoin:miter;stroke-opacity:1"
       d="M 98.07467,71.515578 C 98.66317,68.398544 99.27789,69.715362 100.77003,68.434761 C 102.68842,65.781335 104.28821,62.406966 104.25923,59.118583 C 103.77967,57.634163 101.65228,58.392636 101.64423,56.587766 C 102.55091,55.476586 103.92035,55.752922 105.23787,56.014229 C 105.2166,53.954797 104.3004,51.778326 106.86838,50.748075 C 107.6713,51.829448 107.80029,53.434208 107.55444,54.673137 C 108.30496,53.457648 108.47773,50.393182 110.365,52.609896 C 111.09896,54.05635 109.90284,55.052237 109.33477,56.378586 C 110.97489,55.399009 112.32158,53.374666 112.32345,56.472485 C 111.8964,57.650513 110.97466,58.161473 109.9568,58.754577 C 109.24986,59.805643 109.07144,61.184687 108.70461,62.413841 C 108.94014,65.503306 108.02797,68.364115 107.09429,71.276775 C 104.43888,72.601323 104.61283,76.380683 102.20618,77.833962 C 101.35819,78.598278 100.59384,79.234596 99.61603,79.729953 C 96.764721,79.586844 95.956261,79.447808 95.971208,75.970038"
       id="path2645"
       sodipodi:nodetypes="cccccccccccccccc" />
    <path
       style="fill:#784421;fill-opacity:1;fill-rule:evenodd;stroke:#28170b;stroke-width:1px;stroke-linecap:butt;stroke-linejoin:miter;stroke-opacity:1"
       d="M 75.577241,120.31022 C 75.954043,117.04772 76.133738,112.99893 76.372736,109.70361 C 76.5619,106.66667 76.917527,103.81523 76.72629,100.77639 C 77.987431,100.08437 79.75572,100.00925 81.499261,99.185399 C 82.706114,100.91724 80.968931,105.10315 80.968931,107.4939 C 81.176113,111.62183 81.240786,114.56568 80.615377,118.63083 C 78.636045,118.80422 77.500444,119.93105 75.577241,120.31022 z"
       id="path3447"
       sodipodi:nodetypes="ccccccc" />
    <path
       id="path3449"
       d="M 93.520075,116.15597 C 93.82364,113.57055 94.403959,109.40303 94.403959,106.7868 C 95.026701,102.82509 94.371915,99.502155 94.580735,95.561477 C 96.202943,95.492794 98.27817,94.533206 99.88403,94.500817 C 100.39825,96.500817 99.70727,100.40162 99.70727,102.89771 C 99.98251,107.07189 99.24455,110.70337 98.6466,114.83014 C 96.66727,115.00353 95.443279,115.7768 93.520075,116.15597 z"
       style="fill:#784421;fill-opacity:1;fill-rule:evenodd;stroke:#28170b;stroke-width:1px;stroke-linecap:butt;stroke-linejoin:miter;stroke-opacity:1"
       sodipodi:nodetypes="ccccccc" />
    <path
       style="fill:#784421;fill-opacity:1;fill-rule:evenodd;stroke:#28170b;stroke-width:1px;stroke-linecap:butt;stroke-linejoin:miter;stroke-opacity:1"
       d="M 78,119.75 C 76.862793,118.78482 75.929904,116.68292 75,115.5 C 78.455243,111.82771 81.742397,110.36866 83.75,107.5 C 85.748148,104.50278 88.115976,103.75902 90.625,101.25 C 92.670739,99.767439 94.677935,96.880057 96.375,95 C 96.897746,97.152363 99.93591,98.116228 100.875,99.25 C 99.87827,99.997549 97.81885,103.05615 96.875,104 C 93.09743,107.19508 90.131602,110.08957 86.25,113.125 C 82.996026,116.50483 82.245424,117.75388 78,119.75 z"
       id="path3443"
       sodipodi:nodetypes="ccccccccc" />
    <path
       style="font-size:12px;font-style:normal;font-variant:normal;font-weight:normal;font-stretch:normal;fill:#ffffff;fill-opacity:1;stroke:none;stroke-width:1px;stroke-linecap:butt;stroke-linejoin:miter;stroke-opacity:1;font-family:Rufscript;-inkscape-font-specification:Rufscript"
       d="M 70.165402,65.486211 C 70.048157,65.477044 69.875949,65.535868 69.975085,65.35471 C 69.970627,64.449481 69.758663,63.534582 69.748764,62.628211 C 69.737404,62.183424 69.721927,61.735507 69.756565,61.297508 C 69.885987,61.07208 70.199444,61.081206 70.440658,61.053124 C 70.943416,61.033819 71.456823,61.060902 71.964418,61.133745 C 72.214901,61.3026 72.38166,61.575168 72.543161,61.824074 C 72.755401,62.170855 72.661188,62.590699 72.407879,62.830191 C 72.1169,63.171616 71.650396,63.28409 71.327794,63.584866 C 71.086521,63.754236 71.190107,64.118913 71.448731,64.273774 C 71.775218,64.519181 72.170169,64.678295 72.424502,65.017521 C 72.566244,65.208103 72.718138,65.436846 72.705137,65.66874 C 72.480134,65.786916 72.071005,65.702416 71.910462,65.424752 C 71.704665,65.221794 71.528061,64.961126 71.305994,64.790352 C 71.069744,64.688208 70.908792,64.140811 70.636234,64.449023 C 70.489985,64.667125 70.5316,64.971695 70.508852,65.235739 C 70.538239,65.376637 70.357924,65.370573 70.276293,65.433692 C 70.239329,65.451198 70.202366,65.468704 70.165402,65.486211 z M 70.507231,63.377984 C 71.018459,63.150704 71.562425,62.933061 71.936632,62.512191 C 72.112784,62.340519 72.093558,62.011313 71.859285,61.846994 C 71.502826,61.544948 71.034261,61.564308 70.621246,61.532988 C 70.239975,61.437253 70.415779,61.941015 70.420901,62.166364 C 70.48045,62.570338 70.477193,62.974332 70.507231,63.377984 z M 74.644059,65.858721 C 74.642127,65.232862 74.683623,64.603274 74.540599,63.971752 C 74.462952,63.528576 74.387499,63.08527 74.312694,62.641932 C 74.116918,62.423975 73.786797,62.430732 73.528649,62.35727 C 73.21274,62.303012 72.782041,62.189575 72.689334,61.815956 C 72.657308,61.531424 73.13899,61.741979 73.325358,61.696036 C 74.335441,61.775897 75.352557,61.818539 76.360047,62.055069 C 76.590254,62.104759 77.023589,62.247001 76.889394,62.554312 C 76.710929,62.749629 76.388204,62.67628 76.135016,62.658561 C 75.83809,62.626435 75.540511,62.583402 75.244004,62.563678 C 75.022161,62.843552 75.183531,63.255266 75.238852,63.597512 C 75.346587,64.317226 75.364477,65.041458 75.307277,65.747084 C 75.32208,66.031712 75.134592,66.277249 74.82936,66.081464 C 74.736143,66.046199 74.638647,65.9657 74.644059,65.858721 z M 77.88097,64.745019 C 77.695555,64.920542 77.909944,65.290782 77.956453,65.538154 C 78.038431,65.820022 78.189906,66.14969 78.051011,66.409736 C 77.844384,66.610992 77.375146,66.431714 77.375904,66.094669 C 77.239397,65.146679 77.210564,64.199294 77.15802,63.253725 C 77.157778,62.951459 77.110877,62.633626 77.179872,62.346068 C 77.488825,62.087349 77.946417,62.105804 78.348709,62.092662 C 78.737587,62.109099 79.149669,62.087913 79.524222,62.271488 C 79.667164,62.454608 80.000523,62.74717 79.90818,62.961393 C 79.307275,62.842907 78.68776,62.64785 78.090362,62.725096 C 77.77341,62.772294 77.859269,63.198826 77.852193,63.44668 C 77.820002,63.749932 77.97175,64.149774 78.33567,64.172723 C 78.743531,64.249812 79.160538,64.031018 79.557848,64.258733 C 79.899072,64.508594 79.572571,64.852306 79.275027,64.821767 C 78.819044,64.870114 78.345815,64.813537 77.88097,64.745019 z M 83.754847,68.017102 C 83.642555,67.64969 83.671056,67.269935 83.648844,66.899361 C 83.614114,65.694608 83.685035,64.500924 83.62884,63.294321 C 83.568322,63.23027 83.404145,63.549492 83.304697,63.626606 C 83.040084,63.928306 82.699692,64.174667 82.370091,64.386275 C 82.525507,64.551157 82.932911,64.769515 82.83836,64.985771 C 82.629439,65.262669 82.273578,65.104629 82.114208,64.80969 C 81.671973,64.310655 81.235756,63.805609 80.77954,63.319249 C 80.843196,64.384186 80.918228,65.451122 80.927781,66.511772 C 80.937622,66.803103 80.502643,66.92476 80.31601,66.68503 C 80.165999,66.412147 80.225713,66.104306 80.194163,65.817911 C 80.172005,64.850163 80.153113,63.881833 80.176325,62.919407 C 80.175661,62.61993 80.515126,62.570652 80.755995,62.655483 C 81.056074,62.786324 81.322864,63.039003 81.441015,63.350035 C 81.56767,63.536419 81.705396,63.995645 81.955711,63.88663 C 82.294651,63.582693 82.644424,63.289485 82.976574,62.978825 C 83.137937,62.775411 83.407562,62.63733 83.432964,62.344597 C 83.572934,62.158047 84.072066,62.17261 84.079887,62.502775 C 84.149264,63.128423 84.142262,63.751068 84.203658,64.376592 C 84.253495,65.338784 84.228494,66.296988 84.330375,67.261964 C 84.395115,67.521201 84.458032,67.841378 84.185947,67.968796 C 84.078965,68.043241 83.875937,68.193162 83.754847,68.017104 L 83.754847,68.017102 z"
       id="text2426" />
  </g>
</svg>
