<?xml version="1.0" encoding="UTF-8" standalone="no"?>
<!-- Created with Inkscape (http://www.inkscape.org/) -->
<svg
   xmlns:dc="http://purl.org/dc/elements/1.1/"
   xmlns:cc="http://creativecommons.org/ns#"
   xmlns:rdf="http://www.w3.org/1999/02/22-rdf-syntax-ns#"
   xmlns:svg="http://www.w3.org/2000/svg"
   xmlns="http://www.w3.org/2000/svg"
   xmlns:sodipodi="http://sodipodi.sourceforge.net/DTD/sodipodi-0.dtd"
   xmlns:inkscape="http://www.inkscape.org/namespaces/inkscape"
   width="128"
   height="128"
   id="svg2"
   sodipodi:version="0.32"
   inkscape:version="0.46"
   version="1.0"
   sodipodi:docname="countdown-10.svg"
   inkscape:output_extension="org.inkscape.output.svg.inkscape">
  <defs
     id="defs4">
    <inkscape:perspective
       sodipodi:type="inkscape:persp3d"
       inkscape:vp_x="0 : 64 : 1"
       inkscape:vp_y="0 : 1000 : 0"
       inkscape:vp_z="128 : 64 : 1"
       inkscape:persp3d-origin="64 : 42.666667 : 1"
       id="perspective53" />
    <filter
       inkscape:collect="always"
       id="filter3625"
       x="-0.16910569"
       width="1.3382114"
       y="-0.63030303"
       height="2.2606061">
      <feGaussianBlur
         inkscape:collect="always"
         stdDeviation="5.7777778"
         id="feGaussianBlur3627" />
    </filter>
  </defs>
  <sodipodi:namedview
     id="base"
     pagecolor="#ffffff"
     bordercolor="#666666"
     borderopacity="1.0"
     gridtolerance="10000"
     guidetolerance="10"
     objecttolerance="10"
     inkscape:pageopacity="0.0"
     inkscape:pageshadow="2"
     inkscape:zoom="1"
     inkscape:cx="64"
     inkscape:cy="64"
     inkscape:document-units="px"
     inkscape:current-layer="layer1"
     showgrid="false"
     inkscape:window-width="1538"
     inkscape:window-height="961"
     inkscape:window-x="127"
     inkscape:window-y="31" />
  <metadata
     id="metadata7">
    <rdf:RDF>
      <cc:Work
         rdf:about="">
        <dc:format>image/svg+xml</dc:format>
        <dc:type
           rdf:resource="http://purl.org/dc/dcmitype/StillImage" />
      </cc:Work>
    </rdf:RDF>
  </metadata>
  <g
     inkscape:label="Layer 1"
     inkscape:groupmode="layer"
     id="layer1">
    <path
       sodipodi:type="arc"
       style="opacity:1;fill:#000000;fill-opacity:0.72016458;stroke:none;stroke-width:1;stroke-linejoin:bevel;stroke-miterlimit:10;stroke-dasharray:none;stroke-dashoffset:0;stroke-opacity:1;filter:url(#filter3625)"
       id="path3447"
       sodipodi:cx="63"
       sodipodi:cy="111"
       sodipodi:rx="41"
       sodipodi:ry="11"
       d="M 104,111 A 41,11 0 1 1 22,111 A 41,11 0 1 1 104,111 z"
       transform="matrix(1,0,0,0.7727273,4,25.727273)" />
    <path
       style="fill:#502d16;fill-rule:evenodd;stroke:none;stroke-width:1px;stroke-linecap:butt;stroke-linejoin:miter;stroke-opacity:1"
       d="M 94.929082,38.462603 L 91.570328,41.732972 L 89.183843,48.008545 L 88.211571,54.460894 L 90.067726,69.575302 L 92.896152,74.790214 L 95.901362,76.64637 L 100.76271,70.989515 L 103.06081,54.814448 L 99.260112,42.528467 C 97.869202,40.751037 96.542192,38.462446 94.929082,38.462603 z"
       id="path2669"
       sodipodi:nodetypes="ccccccccccc" />
    <g
       id="g2620"
       transform="translate(-8.131728,-0.7071068)">
      <path
         style="fill:#28170b;fill-rule:evenodd;stroke:#120a04;stroke-width:1px;stroke-linecap:butt;stroke-linejoin:miter;stroke-opacity:1"
         d="M 42.248805,70.448048 C 43.464005,69.438953 44.96402,75.503581 45.452304,76.519516 C 46.20921,78.094344 45.439137,81.969544 45.530211,83.807777 C 45.607565,85.369109 41.746841,87.030979 40.680356,87.375544 C 38.885547,87.955409 37.927099,89.993232 37.821977,91.127832 C 37.493926,94.668238 36.302992,90.880737 35.968894,89.449705 C 35.706494,88.32576 36.633653,85.750743 36.928074,84.517156 C 37.428564,82.420156 36.7472,81.049776 36.937645,78.994487 C 37.11939,77.032988 38.390226,75.950023 39.842163,74.744336 C 40.749171,73.991153 41.323846,71.590947 42.248805,70.448048 z"
         id="path2866" />
      <path
         style="fill:#e6e6e6;fill-rule:evenodd;stroke:#333333;stroke-width:1px;stroke-linecap:butt;stroke-linejoin:miter;stroke-opacity:1"
         d="M 118.12852,48.087 C 119.76701,45.73175 120.89931,42.02991 123.28701,39.79406 C 124.22969,39.47509 125.25981,39.6137 126.24581,39.60815 C 127.5139,39.90245 128.23742,40.75413 128.92578,41.79238 C 129.61199,44.45745 128.50845,47.20943 127.72269,49.74966 C 127.37466,52.01918 126.53605,54.64507 124.61169,56.02798 C 122.02912,58.21102 119.89934,57.54346 116.73437,56.91177 C 117.30596,53.98291 117.77995,51.05001 118.12852,48.087 z"
         id="path2818"
         sodipodi:nodetypes="cccccccc" />
      <path
         style="fill:#00325c;fill-opacity:1;fill-rule:evenodd;stroke:#00192e;stroke-width:1px;stroke-linecap:butt;stroke-linejoin:miter;stroke-opacity:1"
         d="M 94.897177,52.58332 C 97.621637,50.40618 98.694297,50.62122 103.08284,47.75857 C 105.62815,48.27726 108.06513,47.3128 110.58284,47.13357 C 112.79159,47.64866 116.15594,47.37194 117.70784,48.88357 C 119.69561,51.51356 119.72767,57.17337 117.20784,58.63357 C 116.20681,58.38331 115.3599,57.44874 114.33284,57.00857 C 111.5937,55.72249 108.71873,55.4566 105.83284,55.88357 C 102.04191,55.94129 99.260677,60.00975 95.466717,59.86733 C 94.665847,57.69996 93.301087,53.9514 94.897177,52.58332 z"
         id="path2820"
         sodipodi:nodetypes="ccccccccc" />
      <path
         style="fill:none;fill-rule:evenodd;stroke:#333333;stroke-width:1px;stroke-linecap:butt;stroke-linejoin:miter;stroke-opacity:1"
         d="M 127.21659,40.43434 C 127.51736,43.6196 127.46538,47.03171 126.22873,49.32851 C 125.50483,52.17897 124.60055,54.69095 121.4385,57.02018"
         id="path2824"
         sodipodi:nodetypes="ccc" />
      <g
         transform="matrix(0,-1,1,0,-57.013143,162.12766)"
         id="g2845">
        <g
           id="g2839">
          <g
             id="g2834">
            <path
               sodipodi:nodetypes="cccccccc"
               id="path2814"
               d="M 91.60174,176.09096 C 88.42592,176.71509 85.81277,177.31198 83.11646,179.27294 C 82.5163,179.99187 82.54353,180.68568 82.58613,181.57104 C 82.82342,182.33508 83.0968,183.08341 83.29323,183.86914 C 86.04536,184.12614 89.08559,185.77461 91.95966,184.84921 C 94.97836,184.88778 98.02951,183.83077 100.52896,182.01298 C 101.10645,180.30345 100.48659,177.98557 100.35218,176.09096 C 97.5682,176.96581 94.40353,176.82408 91.60174,176.09096 z"
               style="fill:#e6e6e6;fill-rule:evenodd;stroke:#333333;stroke-width:1px;stroke-linecap:butt;stroke-linejoin:miter;stroke-opacity:1" />
            <path
               sodipodi:nodetypes="ccc"
               id="path2816"
               d="M 83.29323,182.36653 C 86.54463,181.81031 89.79462,183.94392 93.18002,183.4906 C 96.32375,183.3866 97.9551,181.10188 100.2638,180.95232"
               style="fill:none;fill-rule:evenodd;stroke:#333333;stroke-width:1px;stroke-linecap:butt;stroke-linejoin:miter;stroke-opacity:1" />
            <path
               sodipodi:nodetypes="cccccccc"
               style="fill:#00325c;fill-opacity:1;fill-rule:evenodd;stroke:#00192e;stroke-width:1px;stroke-linecap:butt;stroke-linejoin:miter;stroke-opacity:1"
               d="M 95.076274,151.87111 C 94.931114,152.65014 91.888547,157.50139 92.153177,158.82453 C 93.096637,161.6196 91.98976,163.87711 91.29074,166.72098 C 91.30667,169.51064 88.16852,174.04555 90.16574,176.09598 C 93.01131,177.22299 98.12205,178.06625 100.54074,175.59598 C 99.29521,171.7442 100.0811,168.0558 100.67462,164.0442 C 100.7035,160.24373 103.56435,157.49833 103.42094,153.67809 C 101.25357,152.87722 96.444354,150.27502 95.076274,151.87111 z"
               id="path2822" />
          </g>
        </g>
      </g>
      <path
         style="fill:#1a1a1a;fill-opacity:1;fill-rule:evenodd;stroke:#000000;stroke-width:1px;stroke-linecap:butt;stroke-linejoin:miter;stroke-opacity:1"
         d="M 100.71297,46.40219 C 97.501707,46.5823 90.132057,45.4127 86.168097,45.05492 C 81.211047,46.28305 76.326037,44.7485 71.370627,45.80124 C 68.264867,46.26701 65.395257,43.40491 62.687127,44.96545 C 60.274057,46.74972 59.151097,51.25766 58.996277,54.28651 C 59.565447,58.17246 59.040977,62.09509 59.880157,65.95378 C 61.119037,68.80107 62.046197,73.76343 65.119107,74.0803 C 67.893037,74.21783 72.310567,71.324313 74.815167,72.610633 C 79.266557,72.997783 84.295047,74.319223 88.759087,73.692733 C 93.952467,72.798263 96.614457,75.832469 101.794,75.257079 C 99.228197,70.775199 101.26379,64.02332 100.69412,58.93449 C 99.168297,54.66635 103.94936,49.05016 100.71297,46.40219 z"
         id="path2794"
         sodipodi:nodetypes="cccccccccccc" />
      <path
         style="fill:#e9d2af;fill-opacity:1;fill-rule:evenodd;stroke:#3f2d10;stroke-width:1px;stroke-linecap:butt;stroke-linejoin:miter;stroke-opacity:1"
         d="M 63.152227,64.320395 C 68.011227,63.664073 68.488057,54.93211 64.929587,50.97101 C 62.240807,51.59695 59.147367,51.76414 57.279887,54.07055 C 56.514907,56.21996 56.631057,58.50555 56.754947,60.75 C 57.682117,62.749835 61.368147,64.305169 63.152227,64.320395 z"
         id="path2792"
         sodipodi:nodetypes="ccccc" />
      <path
         sodipodi:nodetypes="ccccccc"
         id="path2649"
         d="M 25.529187,72.847849 C 30.329656,74.257051 35.982998,72.214455 40.684838,70.956309 C 46.538967,72.779583 51.876117,72.542458 56.546297,66.990115 C 58.634827,60.56517 59.600917,46.83525 50.556267,44.63587 C 39.178818,43.26935 45.731397,45.74904 36.227121,43.16294 C 19.717729,41.708687 13.287904,46.351472 16.461566,58.25264 C 16.199446,66.254447 20.326145,69.688845 25.529187,72.847849 z"
         style="fill:#e9d2af;fill-opacity:1;fill-rule:evenodd;stroke:#3f2d10;stroke-width:0.99999994px;stroke-linecap:butt;stroke-linejoin:miter;stroke-opacity:1" />
      <path
         sodipodi:nodetypes="ccccccccccccccc"
         id="path2654"
         d="M 43.127907,57.76844 C 42.816333,63.329501 46.100927,66.198064 48.070667,69.377499 C 48.250707,69.916823 48.979447,70.292345 49.470367,70.712677 C 52.984707,72.3926 56.812567,69.953748 58.998977,66.810893 C 60.527287,64.178056 61.029967,61.49562 60.527677,58.60767 C 60.041567,55.87709 60.177457,52.90673 58.881097,50.49666 C 58.295907,46.51298 56.127077,45.12803 52.236057,44.65928 C 49.588137,44.83466 46.451527,46.13445 45.152597,48.39608 C 44.318757,51.3426 42.618733,54.70494 43.127907,57.76844 z M 46.496597,58.54222 C 47.022117,56.72705 48.088457,53.20114 49.265217,51.7994 C 51.586947,51.23647 53.897407,52.33597 53.617597,54.73131 C 51.740977,56.28759 52.201627,59.40145 53.961157,61.14977 C 54.333307,63.235256 51.851717,64.107754 50.114957,64.054423 C 48.289707,63.377613 47.470637,60.12127 46.496597,58.54222 z"
         style="fill:#28170b;fill-opacity:1;fill-rule:evenodd;stroke:#120a04;stroke-width:0.99999994px;stroke-linecap:butt;stroke-linejoin:miter;stroke-opacity:1" />
      <path
         sodipodi:nodetypes="ccccscscccccc"
         id="path2665"
         d="M 22.600207,58.21511 C 21.570207,53.73352 20.50399,54.46968 19.109887,53.32882 C 17.27577,42.62948 26.397579,43.42643 30.270107,45.19047 C 28.775699,43.5341 28.020716,44.40522 29.462105,42.35927 C 29.864615,41.88956 33.522719,42.24469 33.997011,42.32504 C 34.495834,42.40955 40.86003,44.18619 41.012064,43.81283 C 38.294733,39.33522 26.357633,38.52304 19.820702,43.29727 C 14.997209,46.82009 13.073026,53.03004 14.883058,58.3745 C 11.706382,73.746798 30.855442,79.108764 44.054507,71.550429 C 41.068708,70.669103 35.071342,73.183429 31.821048,72.073515 C 30.998104,71.149828 32.625161,70.906943 32.496746,69.712724 C 24.364736,73.731141 19.969889,69.318211 19.123385,63.935207 C 17.899832,62.552994 22.165014,62.583832 22.600207,58.21511 z"
         style="fill:#28170b;fill-opacity:1;fill-rule:evenodd;stroke:#120a04;stroke-width:0.99999994px;stroke-linecap:butt;stroke-linejoin:miter;stroke-opacity:1" />
      <path
         style="fill:#ffffff;fill-rule:evenodd;stroke:#333333;stroke-width:1px;stroke-linecap:butt;stroke-linejoin:miter;stroke-opacity:1"
         d="M 32.255876,54.6369 C 35.23134,56.05227 37.006721,55.02462 36.621804,52.0927 C 37.032232,51.2008 34.871621,49.29266 33.410993,49.69824 C 29.512701,49.31209 29.371955,52.6947 32.255876,54.6369 z"
         id="path2696"
         sodipodi:nodetypes="cccc" />
      <path
         style="fill:#ffffff;fill-rule:evenodd;stroke:#333333;stroke-width:0.99999994px;stroke-linecap:butt;stroke-linejoin:miter;stroke-opacity:1"
         d="M 30.124622,62.549914 C 30.610371,65.141798 32.387747,66.383834 35.06944,65.925084 C 40.136039,63.0259 33.011176,57.23502 30.124622,62.549914 z"
         id="path2698"
         sodipodi:nodetypes="ccc" />
      <path
         style="fill:#000000;fill-rule:evenodd;stroke:#000000;stroke-width:1px;stroke-linecap:butt;stroke-linejoin:miter;stroke-opacity:1"
         d="M 33.250139,51.65599 C 33.270002,51.13042 31.20158,52.26541 32.724521,53.60181 C 33.904925,54.63763 35.505763,53.55807 35.639401,52.79925 C 35.907807,51.27519 33.460457,51.00134 33.250139,51.65599 z"
         id="path2700"
         sodipodi:nodetypes="cssc" />
      <path
         style="fill:#000000;fill-rule:evenodd;stroke:#000000;stroke-width:1px;stroke-linecap:butt;stroke-linejoin:miter;stroke-opacity:1"
         d="M 32.440449,63.775099 C 31.499437,63.302121 32.216782,65.948855 34.415349,65.307994 C 35.932672,64.865705 35.03137,63.1932 34.952519,63.066577 C 33.895115,61.36849 31.106124,62.681356 32.440449,63.775099 z"
         id="path2702"
         sodipodi:nodetypes="cssc" />
      <path
         style="fill:#e9d2af;fill-opacity:1;fill-rule:evenodd;stroke:#3f2d10;stroke-width:1px;stroke-linecap:butt;stroke-linejoin:miter;stroke-opacity:1"
         d="M 35.950869,59.82377 C 38.120286,60.9615 43.320017,64.211278 43.212297,59.19386 C 43.201467,54.51128 37.894385,56.93853 35.871399,57.07207"
         id="path2704"
         sodipodi:nodetypes="ccc" />
      <path
         style="fill:none;fill-rule:evenodd;stroke:#3f2d10;stroke-width:1px;stroke-linecap:butt;stroke-linejoin:miter;stroke-opacity:1"
         d="M 49.727747,60.90547 C 50.152797,59.94753 49.980267,57.21003 49.816707,55.53121"
         id="path2706"
         sodipodi:nodetypes="cc" />
      <path
         style="fill:#e9d2af;fill-opacity:1;fill-rule:evenodd;stroke:#3f2d10;stroke-width:1px;stroke-linecap:butt;stroke-linejoin:miter;stroke-opacity:1"
         d="M 30.648268,43.87292 C 27.691036,36.45958 37.825203,39.5359 36.651583,43.72226"
         id="path2708"
         sodipodi:nodetypes="cc" />
      <path
         style="fill:#e9d2af;fill-opacity:1;fill-rule:evenodd;stroke:#3f2d10;stroke-width:1px;stroke-linecap:butt;stroke-linejoin:miter;stroke-opacity:1"
         d="M 32.164612,42.89788 C 30.581674,40.77032 33.768303,39.95653 35.162133,43.07252"
         id="path2710"
         sodipodi:nodetypes="cs" />
      <path
         sodipodi:nodetypes="cc"
         id="path2743"
         d="M 32.726098,71.389171 C 30.805822,79.136128 40.42673,74.708578 38.694017,70.72101"
         style="fill:#e9d2af;fill-opacity:1;fill-rule:evenodd;stroke:#3f2d10;stroke-width:1px;stroke-linecap:butt;stroke-linejoin:miter;stroke-opacity:1" />
      <path
         sodipodi:nodetypes="cs"
         id="path2745"
         d="M 34.361084,72.14866 C 33.082582,74.47195 36.350338,74.844256 37.306909,71.567504"
         style="fill:#e9d2af;fill-opacity:1;fill-rule:evenodd;stroke:#3f2d10;stroke-width:1px;stroke-linecap:butt;stroke-linejoin:miter;stroke-opacity:1" />
    </g>
    <g
       id="g3779"
       transform="translate(-101,-22)" />
    <path
       style="fill:none;fill-rule:evenodd;stroke:#634e00;stroke-width:1px;stroke-linecap:butt;stroke-linejoin:miter;stroke-opacity:1"
       d="M 102.34055,55.676776 C 103.37513,57.670161 102.36827,58.899614 102.36827,61.073223"
       id="path2653"
       sodipodi:nodetypes="cc" />
    <path
       style="fill:#ddcf99;fill-rule:evenodd;stroke:none;stroke-width:1px;stroke-linecap:butt;stroke-linejoin:miter;stroke-opacity:1;fill-opacity:1"
       d="M 88.024522,24.730393 C 76.59891,24.815587 60.867877,27.246264 53.118272,26.792893 C 37.797608,29.323642 39.819482,48.176325 40.930772,59.480393 C 40.674688,70.697056 41.672499,77.283372 46.680772,87.324143 C 47.619844,88.423637 48.86787,89.248734 50.368272,89.855393 C 60.156859,93.81322 80.558814,88.567463 94.118272,90.949143 C 99.304562,91.860098 105.64032,83.187617 105.80133,71.62408 C 104.33068,71.138456 101.00074,70.216595 100.63344,70.356313 C 100.11949,71.682442 97.910382,75.895644 94.930772,75.855393 C 92.270162,75.819449 91.569385,73.427726 90.649522,69.792893 C 89.491745,65.217934 88.505986,58.551958 88.618272,50.917893 C 88.699716,45.38062 93.219652,38.39783 95.868272,39.105393 C 99.326112,40.029137 100.37158,45.323118 100.93521,46.579505 C 103.81945,45.316827 105.9313,47.30984 107.18077,46.011643 C 106.28614,39.154636 102.96325,24.589324 97.820942,25.636643 C 95.421372,24.951072 91.833059,24.701995 88.024522,24.730393 z M 102.54412,55.599111 C 103.2758,57.895228 102.56733,59.083925 102.61383,60.923255 C 103.95345,61.234213 105.49496,61.343282 107.30577,61.183058 L 107.11827,57.197303 C 105.48228,56.687457 104.63136,55.6577 102.54412,55.599111 z"
       id="path2662"
       sodipodi:nodetypes="ccccssccssssccccccccc" />
    <path
       id="path2659"
       d="M 97.554192,25.622583 C 87.955893,22.880301 63.451079,27.397387 53.118272,26.792893 C 37.797608,29.323642 39.830205,48.165602 40.941495,59.46967 C 40.685411,70.686333 41.665455,77.289811 46.673728,87.330582 C 47.612798,88.430076 48.86395,89.252862 50.364352,89.859521 C 60.152937,93.817348 80.550194,88.576319 94.109652,90.957999"
       style="fill:none;fill-rule:evenodd;stroke:#000000;stroke-width:1px;stroke-linecap:butt;stroke-linejoin:miter;stroke-opacity:1"
       sodipodi:nodetypes="ccccsc" />
    <path
       style="fill:none;fill-rule:evenodd;stroke:#634e00;stroke-width:1px;stroke-linecap:butt;stroke-linejoin:miter;stroke-opacity:1"
       d="M 107.27988,57.222272 C 107.45955,58.410843 107.68457,59.802278 107.58794,61.71967"
       id="path2657"
       sodipodi:nodetypes="cc" />
    <path
       style="fill:none;fill-rule:evenodd;stroke:#634e00;stroke-width:1px;stroke-linecap:butt;stroke-linejoin:miter;stroke-opacity:1"
       d="M 100.32538,69.896446 C 100.00874,72.499321 98.060782,75.378293 95.545052,75.957107 C 90.184453,75.731733 89.652461,64.821526 88.446699,58.176776 C 87.647294,50.536824 90.419217,40.209735 94.989592,38.90901 C 97.545634,38.178854 99.575376,42.999983 100.36827,46.234835"
       id="path2651"
       sodipodi:nodetypes="ccccc" />
    <path
       style="fill:none;fill-rule:evenodd;stroke:#634e00;stroke-width:1px;stroke-linecap:butt;stroke-linejoin:miter;stroke-opacity:1"
       d="M 83.243272,77.667893 C 85.925152,83.528325 87.225874,87.093542 92.368272,90.792893 C 93.931902,91.105619 96.875372,90.386612 98.062812,89.792893 C 104.66355,85.825603 103.92726,78.540006 105.8531,71.691942 M 107.08794,46.661612 C 106.61526,41.414359 105.32718,35.580904 103.11827,30.792893 C 101.68361,26.385907 98.357952,25.540925 94.118272,25.292893"
       id="path2655"
       sodipodi:nodetypes="ccccccc" />
    <path
       sodipodi:nodetypes="ccccccccssc"
       style="fill:#fff6d5;fill-opacity:1;fill-rule:evenodd;stroke:#634e00;stroke-width:1px;stroke-linecap:butt;stroke-linejoin:miter;stroke-opacity:1"
       d="M 97.554192,25.622583 C 87.955893,22.880301 63.451079,27.397387 53.118272,26.792893 C 37.797608,29.323642 39.830205,48.165602 40.941495,59.46967 C 40.378546,77.255257 38.664356,103.04557 43.646838,119.91156 C 45.823917,120.79182 54.573283,108.28055 55.657207,104.55478 C 57.946755,106.55196 64.746655,112.46924 66.879333,115.84745 C 69.387974,113.6228 73.176947,110.15733 74.62259,108.09069 C 78.95612,110.14873 85.352479,117.74187 87.525489,120.50815 C 89.00269,116.86318 87.559267,87.21143 83.720817,80.772771 C 83.377171,80.196335 79.74675,47.083977 84.258978,36.191024 C 85.727103,32.646828 94.431682,23.994071 97.645822,25.869164"
       id="path2671" />
    <path
       style="fill:#e9d2af;fill-opacity:1;fill-rule:evenodd;stroke:#3f2d10;stroke-width:1px;stroke-linecap:butt;stroke-linejoin:miter;stroke-opacity:1"
       d="M 38.130905,80.869982 C 35.844331,81.020635 35.891213,82.947737 37.575304,83.428746 C 39.769074,84.245908 42.216072,84.849965 44.575883,84.875004 C 48.830927,82.759302 43.558703,81.098175 41.464514,80.536231 C 44.173281,81.629914 46.314482,82.011986 48.576214,80.31373 C 48.172734,77.489623 44.676015,77.59802 42.353477,77.421214 C 43.781408,77.322441 45.97856,77.519666 47.465011,76.419958 C 47.969845,75.158963 47.251844,74.542559 46.131567,74.083696 C 44.007589,73.491353 41.184926,73.910242 39.464349,73.527443 C 40.566941,71.834513 43.015755,70.19056 39.90883,67.686786 C 37.649916,67.52303 36.403516,70.866312 35.575138,72.748689 C 32.897629,73.867452 34.626387,75.834313 36.089416,76.793955 C 32.087083,78.368908 35.527977,81.381388 38.130905,80.869982 z"
       id="path3629"
       sodipodi:nodetypes="ccccccccccccc" />
    <path
       sodipodi:nodetypes="ccccccccccccc"
       id="path3631"
       d="M 40.380905,38.561008 C 38.094331,38.410355 38.141213,36.483253 39.825304,36.002244 C 42.019074,35.185082 44.466072,34.581025 46.825883,34.555986 C 51.080927,36.671688 45.808703,38.332815 43.714514,38.894759 C 46.423281,37.801076 48.564482,37.419004 50.826214,39.11726 C 50.422734,41.941367 46.926015,41.83297 44.603477,42.009776 C 46.031408,42.108549 48.22856,41.911324 49.715011,43.011032 C 50.219845,44.272027 49.501844,44.888431 48.381567,45.347294 C 46.257589,45.939637 43.434926,45.520748 41.714349,45.903547 C 42.816941,47.596477 45.265755,49.24043 42.15883,51.744204 C 39.899916,51.90796 38.653516,48.564678 37.825138,46.682301 C 35.147629,45.563538 36.876387,43.596677 38.339416,42.637035 C 34.337083,41.062082 37.777977,38.049602 40.380905,38.561008 z"
       style="fill:#e9d2af;fill-opacity:1;fill-rule:evenodd;stroke:#3f2d10;stroke-width:1px;stroke-linecap:butt;stroke-linejoin:miter;stroke-opacity:1" />
  </g>
</svg>
