<?xml version="1.0" encoding="UTF-8" standalone="no"?>
<!-- Created with Inkscape (http://www.inkscape.org/) -->
<svg xmlns:dc="http://purl.org/dc/elements/1.1/" xmlns:cc="http://creativecommons.org/ns#" xmlns:rdf="http://www.w3.org/1999/02/22-rdf-syntax-ns#" xmlns:svg="http://www.w3.org/2000/svg" xmlns="http://www.w3.org/2000/svg" xmlns:sodipodi="http://sodipodi.sourceforge.net/DTD/sodipodi-0.dtd" xmlns:inkscape="http://www.inkscape.org/namespaces/inkscape" width="128" height="128" id="svg2" sodipodi:version="0.32" inkscape:version="0.46" version="1.0" sodipodi:docname="gentelman.svg" inkscape:output_extension="org.inkscape.output.svg.inkscape" inkscape:export-xdpi="90" inkscape:export-ydpi="90">
  <sodipodi:namedview id="base" pagecolor="#ffffff" bordercolor="#666666" borderopacity="1.0" gridtolerance="10000" guidetolerance="10" objecttolerance="10" inkscape:pageopacity="0" inkscape:pageshadow="2" inkscape:zoom="1" inkscape:cx="-102.88123" inkscape:cy="64" inkscape:document-units="px" inkscape:current-layer="layer1" showgrid="false" inkscape:window-width="1026" inkscape:window-height="741" inkscape:window-x="600" inkscape:window-y="158" showguides="true" inkscape:guide-bbox="true"/>
  <defs id="defs4">
    <filter height="1.6532674" y="-0.32663372" width="1.2502785" x="-0.12513924" id="filter3443" inkscape:collect="always">
      <feGaussianBlur id="feGaussianBlur3445" stdDeviation="1.9634296" inkscape:collect="always"/>
    </filter>
    <filter height="2.0159051" y="-0.50795257" width="1.4353683" x="-0.21768413" id="filter3533" inkscape:collect="always">
      <feGaussianBlur id="feGaussianBlur3535" stdDeviation="3.2924533" inkscape:collect="always"/>
    </filter>
  </defs>
  <metadata id="metadata7">
    <rdf:RDF>
      <cc:Work rdf:about="">
        <dc:format>image/svg+xml</dc:format>
        <dc:type rdf:resource="http://purl.org/dc/dcmitype/StillImage"/>
        <cc:license rdf:resource="http://creativecommons.org/licenses/by-sa/3.0/"/>
        <dc:title>Fedora WEBCOMIC 2.0</dc:title>
        <dc:date>May 2008</dc:date>
        <dc:creator>
          <cc:Agent>
            <dc:title>Nicu Buculei</dc:title>
          </cc:Agent>
        </dc:creator>
        <dc:rights>
          <cc:Agent>
            <dc:title>Nicu Buculei</dc:title>
          </cc:Agent>
        </dc:rights>
        <dc:subject>
          <rdf:Bag>
            <rdf:li>fedora</rdf:li>
            <rdf:li>webcomic</rdf:li>
            <rdf:li>nicubunu</rdf:li>
          </rdf:Bag>
        </dc:subject>
        <dc:language>en-US</dc:language>
      </cc:Work>
      <cc:License rdf:about="http://creativecommons.org/licenses/by-sa/3.0/">
        <cc:permits rdf:resource="http://creativecommons.org/ns#Reproduction"/>
        <cc:permits rdf:resource="http://creativecommons.org/ns#Distribution"/>
        <cc:requires rdf:resource="http://creativecommons.org/ns#Notice"/>
        <cc:requires rdf:resource="http://creativecommons.org/ns#Attribution"/>
        <cc:permits rdf:resource="http://creativecommons.org/ns#DerivativeWorks"/>
        <cc:requires rdf:resource="http://creativecommons.org/ns#ShareAlike"/>
      </cc:License>
    </rdf:RDF>
  </metadata>
  <g inkscape:label="Layer 1" inkscape:groupmode="layer" id="layer1">
    <g transform="translate(-237.488, -101.709)" id="g3765"/>
    <g id="g4184" transform="translate(-302.488, -113.709)"/>
    <g id="g3751" transform="matrix(0.937428, 0, 0, 0.937428, 106.218, 41.59)">
      <path id="path2651" d="M -47.839736,76.690002 C -49.711756,77.295412 -53.953326,76.051112 -56.734806,75.355742 C -59.091296,74.766622 -61.462166,76.525082 -62.516596,77.579512 C -63.929906,78.992822 -64.241996,81.796762 -63.850856,83.361302 C -63.018916,86.689072 -58.468506,86.465512 -56.290046,86.029822 C -54.282286,85.628272 -52.045766,87.313272 -50.063506,87.808832 C -47.787176,88.377922 -45.800586,88.698342 -42.947456,88.698342 C -40.047646,88.698342 -38.263496,90.136772 -35.386646,88.698342 C -33.155556,87.582802 -31.095936,87.926452 -29.160096,86.474572 C -27.647736,85.340302 -26.933696,83.350742 -26.491576,81.582292 C -25.707746,78.446962 -28.368206,77.975452 -30.049606,77.134762 C -32.210606,76.054262 -35.955976,76.721152 -37.610416,77.134762 C -39.383696,77.578082 -40.926436,74.910992 -43.392206,74.910992 C -45.391556,74.910992 -44.451626,76.690002 -47.839736,76.690002 z" style="fill: rgb(0, 0, 0); fill-opacity: 0.728395; fill-rule: evenodd; stroke: none; stroke-width: 1px; stroke-linecap: butt; stroke-linejoin: miter; stroke-opacity: 1; filter: url(#filter3443);"/>
      <path sodipodi:nodetypes="cccccccc" id="path2637" d="M -49.072606,74.797642 C -52.248426,75.421772 -54.861576,76.018662 -57.557886,77.979622 C -58.158046,78.698552 -58.130816,79.392362 -58.088216,80.277722 C -57.850926,81.041762 -57.577546,81.790092 -57.381116,82.575822 C -54.628986,82.832822 -51.588756,84.481292 -48.714686,83.555892 C -45.695986,83.594462 -42.644836,82.537452 -40.145386,80.719662 C -39.567896,79.010132 -40.187756,76.692252 -40.322166,74.797642 C -43.106146,75.672492 -46.270816,75.530762 -49.072606,74.797642 z" style="fill: rgb(72, 55, 55); fill-rule: evenodd; stroke: rgb(36, 28, 28); stroke-width: 1.06675px; stroke-linecap: butt; stroke-linejoin: miter; stroke-opacity: 1;"/>
      <path sodipodi:nodetypes="ccc" id="path2639" d="M -57.381116,81.073212 C -54.129716,80.516992 -50.879726,82.650602 -47.494326,82.197282 C -44.350596,82.093282 -42.719246,79.808562 -40.410546,79.659002" style="fill: rgb(72, 55, 55); fill-rule: evenodd; stroke: rgb(36, 28, 28); stroke-width: 1.06675px; stroke-linecap: butt; stroke-linejoin: miter; stroke-opacity: 1;"/>
      <path sodipodi:nodetypes="cccccccc" id="path2641" d="M -37.847286,75.327972 C -40.377836,76.680062 -44.186616,77.372102 -46.686126,79.482222 C -47.113046,80.381182 -47.095746,81.420442 -47.216456,82.399042 C -47.072326,83.692832 -46.311016,84.510902 -45.360296,85.315852 C -42.793656,86.308732 -39.931586,85.534282 -37.316956,85.050692 C -35.022316,84.970212 -32.316426,84.444142 -30.718156,82.694532 C -28.248326,80.384702 -28.662486,78.191512 -28.920066,74.974422 C -31.895656,75.199902 -34.863846,75.327972 -37.847286,75.327972 z" style="fill: rgb(72, 55, 55); fill-rule: evenodd; stroke: rgb(36, 28, 28); stroke-width: 1.06675px; stroke-linecap: butt; stroke-linejoin: miter; stroke-opacity: 1;"/>
      <path sodipodi:nodetypes="cscccccccc" id="path3068" d="M -38.008606,53.177662 C -38.153766,53.956692 -38.898236,55.979522 -38.633606,57.302662 C -38.430306,58.319152 -38.125816,59.333842 -37.883606,60.302662 C -37.364916,62.847972 -38.329376,65.284952 -38.508606,67.802662 C -37.993516,70.011412 -38.645236,73.500762 -37.133606,75.052662 C -34.503616,77.040432 -30.468806,76.947492 -29.008606,74.427662 C -29.258866,73.426632 -29.068436,72.829722 -29.508606,71.802662 C -30.794686,69.063522 -30.185576,65.938552 -29.758606,63.052662 C -29.700886,59.261732 -28.991186,55.596622 -29.133606,51.802662 C -31.300976,51.001792 -36.640526,51.581572 -38.008606,53.177662 z" style="fill: rgb(100, 66, 12); fill-opacity: 1; fill-rule: evenodd; stroke: rgb(56, 34, 5); stroke-width: 1.06675px; stroke-linecap: butt; stroke-linejoin: miter; stroke-opacity: 1;"/>
      <path sodipodi:nodetypes="cccccccc" style="fill: rgb(100, 66, 12); fill-opacity: 1; fill-rule: evenodd; stroke: rgb(56, 34, 5); stroke-width: 1.06675px; stroke-linecap: butt; stroke-linejoin: miter; stroke-opacity: 1;" d="M -49.133606,53.052662 C -49.278766,53.831692 -50.023236,55.854522 -49.758606,57.177662 C -48.815146,59.972732 -48.684586,62.583792 -49.383606,65.427662 C -49.367676,68.217322 -50.255826,72.877232 -48.258606,74.927662 C -45.413036,76.054672 -42.552296,76.772932 -40.133606,74.302662 C -41.379136,70.450882 -41.477126,66.939262 -40.883606,62.927662 C -40.854726,59.127192 -40.115196,55.497902 -40.258606,51.677662 C -42.425976,50.876792 -47.765526,51.456572 -49.133606,53.052662 z" id="path2635"/>
      <path sodipodi:nodetypes="ccc" id="path2643" d="M -46.509346,83.459702 C -43.381036,84.130562 -39.986226,84.477592 -37.560676,83.517762 C -34.645156,83.131852 -32.044726,82.527252 -29.362006,79.659002" style="fill: rgb(72, 55, 55); fill-rule: evenodd; stroke: rgb(36, 28, 28); stroke-width: 1.06675px; stroke-linecap: butt; stroke-linejoin: miter; stroke-opacity: 1;"/>
      <path sodipodi:nodetypes="cc" id="path3475" d="M -60.780234,-14.329268 C -71.782668,-7.1531372 -60.26081,3.5917894 -58.262391,11.64432" style="fill: none; fill-rule: evenodd; stroke: rgb(18, 10, 4); stroke-width: 1.06675px; stroke-linecap: butt; stroke-linejoin: miter; stroke-opacity: 1;"/>
      <path sodipodi:nodetypes="ccccccccccccccc" id="path2647" d="M -53.853207,37.947621 C -55.267907,38.229867 -56.198888,39.04458 -57.146279,40.057077 C -59.407266,41.821684 -60.351921,44.730305 -62.950447,46.007949 C -64.711029,46.601219 -65.831301,47.01756 -67.666337,46.825757 C -68.791497,45.757615 -70.404288,44.628819 -71.625087,45.264039 C -71.654682,46.551031 -69.337772,47.332272 -68.405067,48.169849 C -69.148676,49.403144 -72.790629,49.995417 -74.071729,51.047989 C -74.373982,53.863648 -70.729383,52.463581 -69.467684,51.40337 C -70.456418,52.656837 -72.922438,53.806908 -73.595582,54.672798 C -72.444192,56.455599 -69.431432,54.551439 -68.146794,53.325971 C -69.576749,54.647348 -71.654427,55.302396 -70.020332,56.90784 C -68.096351,57.235746 -66.804292,55.470014 -65.363415,54.371294 C -62.892358,52.84696 -60.160846,51.808848 -57.870256,49.988145 C -55.006703,46.797893 -49.759778,44.588924 -48.204342,40.491769 C -49.120308,37.55389 -51.627003,38.639656 -53.853207,37.947621 z" style="fill: rgb(233, 210, 175); fill-opacity: 1; fill-rule: evenodd; stroke: rgb(63, 45, 16); stroke-width: 1.06675px; stroke-linecap: butt; stroke-linejoin: miter; stroke-opacity: 1;"/>
      <path sodipodi:nodetypes="ccccsc" id="path2593" d="M -49.028852,19.027501 C -51.788842,21.886211 -53.439355,30.195103 -54.626255,33.928781 C -56.10822,36.563417 -65.122707,43.031658 -65.45146,46.095386 C -61.394711,46.86087 -62.347619,51.866353 -58.324678,52.41906 C -57.693387,50.742925 -51.926086,48.935378 -49.787215,44.859145 C -45.687406,37.045756 -44.394635,25.407315 -44.328689,22.022652" style="fill: rgb(100, 66, 12); fill-opacity: 1; fill-rule: evenodd; stroke: rgb(56, 34, 5); stroke-width: 1.06675px; stroke-linecap: butt; stroke-linejoin: miter; stroke-opacity: 1;"/>
      <path sodipodi:nodetypes="cccccccccccc" id="path2581" d="M -23.228272,55.797073 C -26.096833,52.257521 -24.120955,46.956269 -23.755087,42.902646 C -25.010991,37.833467 -21.748962,32.423465 -22.825515,27.355966 C -23.301819,24.179949 -24.355801,21.32031 -25.951643,18.550919 C -27.776274,16.083272 -30.213118,14.679248 -33.310475,14.520924 C -37.28433,15.10298 -41.295689,14.566637 -45.241649,15.424799 C -48.153351,16.691707 -50.160099,18.790286 -50.484137,21.932703 C -50.624776,24.769381 -50.434151,27.32556 -51.749569,29.886814 C -52.145475,34.438894 -53.655655,39.060727 -53.014993,43.625745 C -52.100294,48.9366 -54.379452,51.116476 -53.79104,56.413177 C -49.207783,53.789336 -43.267526,57.744525 -38.063585,57.161967 C -33.698914,55.601636 -25.936141,59.106675 -23.228272,55.797073 z" style="fill: rgb(100, 66, 12); fill-opacity: 1; fill-rule: evenodd; stroke: rgb(56, 34, 5); stroke-width: 1.06675px; stroke-linecap: butt; stroke-linejoin: miter; stroke-opacity: 1;"/>
      <path sodipodi:nodetypes="cccccc" id="path3442" d="M -46.890318,16.626856 L -47.54625,28.246227 L -43.891771,29.464387 L -40.143587,29.93291 L -32.084991,17.189084 L -46.890318,16.626856 z" style="fill: rgb(255, 255, 255); fill-rule: evenodd; stroke: rgb(0, 0, 0); stroke-width: 1.06675px; stroke-linecap: butt; stroke-linejoin: miter; stroke-opacity: 1;"/>
      <path sodipodi:nodetypes="cccccc" id="path2619" d="M -45.945828,17.567658 C -45.404658,18.994577 -43.8374,20.874778 -42.258537,21.802536 C -40.462835,20.200143 -34.409233,19.352588 -32.237273,16.249279 C -33.482914,13.715814 -34.365199,10.673136 -37.094717,9.3465937 C -39.412751,9.0819344 -41.662546,9.7264796 -43.869574,10.369211 C -45.647083,11.755484 -46.343473,15.787023 -45.945828,17.567658 z" style="fill: rgb(233, 210, 175); fill-opacity: 1; fill-rule: evenodd; stroke: rgb(63, 45, 16); stroke-width: 1.06675px; stroke-linecap: butt; stroke-linejoin: miter; stroke-opacity: 1;"/>
      <path sodipodi:nodetypes="cccccccccccccccc" id="path2645" d="M -24.4141,44.393246 C -23.848634,47.728238 -23.907713,51.585704 -25.436717,54.619446 C -26.559179,55.775829 -28.183941,54.101208 -29.015896,55.769899 C -28.683364,57.213692 -27.288193,57.583225 -25.94803,57.942961 C -26.908494,59.841499 -28.751679,61.439657 -26.842826,63.567374 C -25.604854,62.932169 -24.752262,61.504148 -24.4141,60.243859 C -24.273933,61.712967 -25.513713,64.631386 -22.752343,63.439546 C -21.411498,62.434568 -22.064896,60.965377 -21.985382,59.476891 C -20.913124,61.13379 -20.590016,63.624721 -19.173172,60.755171 C -19.030741,59.46854 -19.65141,58.57402 -20.323625,57.559477 C -20.49853,56.262635 -20.033905,54.903319 -19.812313,53.596829 C -18.182767,50.841757 -17.721148,47.774265 -17.255759,44.648902 C -19.1112,42.208557 -17.223547,38.786113 -18.789688,36.340115 C -19.226291,35.244536 -19.643869,34.305758 -20.323625,33.400085 C -23.201938,32.576856 -25.543878,33.414808 -26.842826,36.084459 C -28.371261,39.61213 -25.084073,41.518981 -24.4141,44.393246 z" style="fill: rgb(233, 210, 175); fill-opacity: 1; fill-rule: evenodd; stroke: rgb(63, 45, 16); stroke-width: 1.06675px; stroke-linecap: butt; stroke-linejoin: miter; stroke-opacity: 1;"/>
      <path sodipodi:nodetypes="ccccccc" id="path2585" d="M -32.764387,24.176883 C -32.632818,26.775155 -28.980056,33.467987 -28.138866,35.899089 C -27.45935,38.389068 -27.074479,50.673081 -27.047575,53.236929 C -22.748033,52.780385 -20.957083,54.722312 -16.662121,53.369614 C -16.671747,51.105307 -14.652487,38.664064 -17.358684,37.297192 C -18.041655,34.491151 -21.403327,24.793842 -22.64097,22.369134 C -24.151413,20.25626 -26.204945,19.258164 -28.787332,20.019053" style="fill: rgb(100, 66, 12); fill-opacity: 1; fill-rule: evenodd; stroke: rgb(56, 34, 5); stroke-width: 1.06675px; stroke-linecap: butt; stroke-linejoin: miter; stroke-opacity: 1;"/>
      <path sodipodi:nodetypes="ccccccccc" id="path2550" d="M -43.125297,-28.810662 C -53.812359,-28.873249 -58.039996,-21.822023 -58.1826,-12.650531 C -58.1826,-10.731941 -57.295802,-6.9559527 -56.82036,-5.0542066 C -57.041675,-1.3096209 -57.969418,1.5199357 -56.864228,5.1751123 C -55.578931,10.346219 -52.105519,13.098766 -47.102353,14.21388 C -42.660972,14.12666 -36.692012,12.618309 -33.363429,9.5137177 C -28.597464,5.6139122 -27.162584,-0.98680476 -25.409318,-6.756062 C -24.786123,-12.266882 -27.459777,-17.524167 -29.024832,-22.664299 C -31.204296,-28.289034 -37.796137,-29.59793 -43.125297,-28.810662 z" style="fill: rgb(233, 210, 175); fill-opacity: 1; fill-rule: evenodd; stroke: rgb(63, 45, 16); stroke-width: 1.06675px; stroke-linecap: butt; stroke-linejoin: miter; stroke-opacity: 1;"/>
      <path sodipodi:nodetypes="cccccccc" id="path2554" d="M -56.864228,-21.579643 C -57.523451,-31.665189 -30.015484,-34.995368 -28.579315,-27.021076 C -20.851976,-26.427724 -20.813003,-6.6327918 -22.732463,0.17919531 C -30.704663,0.097979662 -26.559366,-9.1382129 -31.194131,-11.456225 C -33.168809,-11.949898 -33.828684,-10.436029 -35.532728,-10.010018 C -39.142057,-12.329874 -35.491708,-19.467451 -41.317541,-21.941192 C -44.16221,-20.791564 -47.767798,-19.017316 -50.717859,-21.941192 C -53.239375,-21.941192 -54.716916,-20.720724 -56.864228,-21.579643 z" style="fill: rgb(40, 23, 11); fill-rule: evenodd; stroke: rgb(18, 10, 4); stroke-width: 1.06675px; stroke-linecap: butt; stroke-linejoin: miter; stroke-opacity: 1;"/>
      <path id="path2556" d="M -23.881356,-1.2510442 C -25.496636,-1.2510442 -22.714711,4.5001618 -22.435149,5.618425 C -22.001784,7.3518926 -18.864262,9.8975393 -17.734994,11.403237 C -16.775826,12.682125 -12.652764,11.467339 -11.588624,11.041687 C -9.7977646,10.325334 -7.7124099,11.302396 -6.8884691,12.126337 C -4.3174248,14.697381 -5.8548624,10.939587 -6.5269118,9.5954806 C -7.0547536,8.5398121 -9.4664476,7.1196701 -10.503975,6.3415247 C -12.267705,5.0187231 -12.626931,3.4954611 -14.119481,2.0029192 C -15.543918,0.57848186 -17.251231,0.55671241 -19.181193,0.55671241 C -20.386827,0.55671241 -22.407008,-0.9561671 -23.881356,-1.2510442 z" style="fill: rgb(40, 23, 11); fill-rule: evenodd; stroke: rgb(18, 10, 4); stroke-width: 1.06675px; stroke-linecap: butt; stroke-linejoin: miter; stroke-opacity: 1;"/>
      <path sodipodi:nodetypes="cccc" id="path3434" d="M -42.673611,21.499496 L -43.891771,25.153975 L -46.702909,16.533152 L -42.673611,21.499496 z" style="fill: rgb(255, 255, 255); fill-rule: evenodd; stroke: rgb(107, 85, 50); stroke-width: 1.06675px; stroke-linecap: butt; stroke-linejoin: miter; stroke-opacity: 1;"/>
      <path sodipodi:nodetypes="cccccccccccccc" id="path2558" d="M -58.070949,11.670363 C -57.400196,13.011853 -56.037401,13.843425 -54.331993,13.843425 C -51.646082,14.617852 -49.047406,15.822968 -46.374733,16.751506 C -42.865398,17.653312 -40.308125,15.862099 -37.714419,13.843425 C -33.343909,11.58369 -28.815563,7.7372284 -27.903667,2.6904786 C -27.648011,0.57617298 -28.480475,0.58132298 -29.693253,0.96480718 C -31.707902,3.0207011 -34.231719,5.1932535 -36.979415,6.2696495 C -40.460443,7.2585329 -43.218327,7.7169358 -44.201663,3.7130956 C -45.356246,0.39691983 -49.084385,-0.55520887 -52.158931,-1.3360905 C -58.693964,-1.6184112 -60.119878,6.9069157 -58.070949,11.670363 z M -52.222845,2.6904786 C -49.069362,1.3588688 -42.498324,9.4693167 -48.196275,9.145766 C -50.590113,8.3485198 -51.087969,6.7990655 -52.51045,8.7942388 C -57.58352,10.332014 -55.583234,3.9649586 -52.222845,2.6904786 z" style="fill: rgb(40, 23, 11); fill-rule: evenodd; stroke: rgb(18, 10, 4); stroke-width: 1.06675px; stroke-linecap: butt; stroke-linejoin: miter; stroke-opacity: 1;"/>
      <path sodipodi:nodetypes="cccc" id="path2565" d="M -49.19812,-12.020634 C -50.728579,-9.2683199 -49.54437,-7.6545167 -46.26689,-8.0523265 C -45.260091,-7.6891799 -43.162479,-9.7011526 -43.643934,-11.035521 C -43.283621,-14.61916 -47.075741,-14.69695 -49.19812,-12.020634 z" style="fill: rgb(255, 255, 255); fill-rule: evenodd; stroke: rgb(51, 51, 51); stroke-width: 1.06675px; stroke-linecap: butt; stroke-linejoin: miter; stroke-opacity: 1;"/>
      <path sodipodi:nodetypes="ccc" id="path2567" d="M -55.279669,-12.870887 C -57.428255,-12.47756 -58.436592,-11.139833 -58.018204,-9.1502296 C -55.537679,-5.4162362 -50.820357,-10.788666 -55.279669,-12.870887 z" style="fill: rgb(255, 255, 255); fill-rule: evenodd; stroke: rgb(55, 41, 30); stroke-width: 1.06675px; stroke-linecap: butt; stroke-linejoin: miter; stroke-opacity: 1;"/>
      <path sodipodi:nodetypes="cccc" id="path2569" d="M -51.360005,-10.347924 C -51.784982,-7.8828261 -54.171151,-6.7352671 -55.450488,-5.4904802 C -56.104149,-2.755168 -55.711549,-0.79275378 -52.638278,-1.3999971 C -50.490839,-2.3977187 -49.628719,-4.0527443 -49.314764,-6.2574486" style="fill: rgb(233, 210, 175); fill-opacity: 1; fill-rule: evenodd; stroke: rgb(63, 45, 16); stroke-width: 1.06675px; stroke-linecap: butt; stroke-linejoin: miter; stroke-opacity: 1;"/>
      <path sodipodi:nodetypes="cc" id="path2571" d="M -33.464158,-9.836612 C -27.468158,-12.218823 -28.524696,-3.3387078 -32.952853,-4.212207" style="fill: rgb(233, 210, 175); fill-opacity: 1; fill-rule: evenodd; stroke: rgb(63, 45, 16); stroke-width: 1.06675px; stroke-linecap: butt; stroke-linejoin: miter; stroke-opacity: 1;"/>
      <path sodipodi:nodetypes="cs" id="path2573" d="M -32.313713,-8.4305108 C -31.443385,-9.9572136 -29.15128,-7.2240378 -32.313713,-5.7461364" style="fill: rgb(233, 210, 175); fill-opacity: 1; fill-rule: evenodd; stroke: rgb(63, 45, 16); stroke-width: 1.06675px; stroke-linecap: butt; stroke-linejoin: miter; stroke-opacity: 1;"/>
      <path sodipodi:nodetypes="cc" id="path2575" d="M -53.916559,6.0139933 C -52.929872,6.4323956 -50.133764,6.2096411 -48.419975,6.0139933" style="fill: none; fill-rule: evenodd; stroke: rgb(63, 45, 16); stroke-width: 1.06675px; stroke-linecap: butt; stroke-linejoin: miter; stroke-opacity: 1;"/>
      <path sodipodi:nodetypes="cssc" id="path2577" d="M -47.777371,-11.498077 C -47.382087,-11.86279 -49.696831,-12.543371 -49.566956,-10.47546 C -49.466288,-8.8726541 -47.529001,-8.4910215 -46.882574,-8.9415307 C -45.584248,-9.8463498 -47.151139,-11.817857 -47.777371,-11.498077 z" style="fill: rgb(36, 21, 9); fill-opacity: 1; fill-rule: evenodd; stroke: rgb(0, 0, 0); stroke-width: 1.06675px; stroke-linecap: butt; stroke-linejoin: miter; stroke-opacity: 1;"/>
      <path sodipodi:nodetypes="cssc" id="path2579" d="M -56.354363,-11.794131 C -55.886679,-12.764296 -58.580777,-11.986031 -57.888292,-9.7488895 C -57.410384,-8.2049451 -55.715537,-9.1548098 -55.587394,-9.2375772 C -53.86904,-10.347489 -55.258619,-13.176956 -56.354363,-11.794131 z" style="fill: rgb(36, 21, 9); fill-opacity: 1; fill-rule: evenodd; stroke: rgb(0, 0, 0); stroke-width: 1.06675px; stroke-linecap: butt; stroke-linejoin: miter; stroke-opacity: 1;"/>
      <path sodipodi:nodetypes="cccc" id="path3436" d="M -42.111384,21.5932 L -41.642861,25.528793 L -34.521311,17.563902 L -42.111384,21.5932 z" style="fill: rgb(255, 255, 255); fill-rule: evenodd; stroke: rgb(107, 85, 50); stroke-width: 1.06675px; stroke-linecap: butt; stroke-linejoin: miter; stroke-opacity: 1;"/>
      <path sodipodi:nodetypes="ccccc" id="path3424" d="M -33.67797,12.972377 C -33.961835,15.931066 -39.089155,28.985054 -44.360294,29.651796 L -39.862473,35.086663 C -38.738775,28.651593 -31.585553,19.611355 -29.929786,15.127583 L -33.67797,12.972377 z" style="fill: rgb(100, 66, 12); fill-opacity: 1; fill-rule: evenodd; stroke: rgb(56, 34, 5); stroke-width: 1.06675px; stroke-linecap: butt; stroke-linejoin: miter; stroke-opacity: 1;"/>
      <path sodipodi:nodetypes="ccccc" id="path3426" d="M -46.046977,16.814266 C -45.97915,20.784732 -47.316442,24.430943 -44.266589,29.089568 L -49.139229,33.306275 C -48.968979,27.672042 -49.406662,21.885821 -48.343677,16.47477 L -46.046977,16.814266 z" style="fill: rgb(100, 66, 12); fill-opacity: 1; fill-rule: evenodd; stroke: rgb(56, 34, 5); stroke-width: 1.06675px; stroke-linecap: butt; stroke-linejoin: miter; stroke-opacity: 1;"/>
      <path sodipodi:nodetypes="cc" id="path3438" d="M -43.891771,30.120319 C -44.268179,38.400889 -44.042433,47.111564 -42.673611,56.638721" style="fill: none; fill-rule: evenodd; stroke: rgb(56, 34, 5); stroke-width: 1.06675px; stroke-linecap: butt; stroke-linejoin: miter; stroke-opacity: 1;"/>
      <path transform="matrix(8.62082, 0, 0, 3.24843, -1958.6, -772.678)" d="M 221.875,249.125 A 0.125,0.375 0 1 1 221.625,249.125 A 0.125,0.375 0 1 1 221.875,249.125 z" sodipodi:ry="0.375" sodipodi:rx="0.125" sodipodi:cy="249.125" sodipodi:cx="221.75" id="path3444" style="fill: rgb(56, 34, 5); fill-opacity: 1; stroke: none; stroke-width: 0.112657; stroke-linejoin: round; stroke-miterlimit: 4; stroke-dasharray: none; stroke-dashoffset: 0pt; stroke-opacity: 1;" sodipodi:type="arc"/>
      <path sodipodi:type="arc" style="fill: rgb(56, 34, 5); fill-opacity: 1; stroke: none; stroke-width: 0.112657; stroke-linejoin: round; stroke-miterlimit: 4; stroke-dasharray: none; stroke-dashoffset: 0pt; stroke-opacity: 1;" id="path3446" sodipodi:cx="221.75" sodipodi:cy="249.125" sodipodi:rx="0.125" sodipodi:ry="0.375" d="M 221.875,249.125 A 0.125,0.375 0 1 1 221.625,249.125 A 0.125,0.375 0 1 1 221.875,249.125 z" transform="matrix(8.62082, 0, 0, 3.24843, -1958.98, -765.65)"/>
      <path transform="matrix(8.62082, 0, 0, 3.24843, -1958.32, -758.904)" d="M 221.875,249.125 A 0.125,0.375 0 1 1 221.625,249.125 A 0.125,0.375 0 1 1 221.875,249.125 z" sodipodi:ry="0.375" sodipodi:rx="0.125" sodipodi:cy="249.125" sodipodi:cx="221.75" id="path3448" style="fill: rgb(56, 34, 5); fill-opacity: 1; stroke: none; stroke-width: 0.112657; stroke-linejoin: round; stroke-miterlimit: 4; stroke-dasharray: none; stroke-dashoffset: 0pt; stroke-opacity: 1;" sodipodi:type="arc"/>
      <path transform="matrix(8.62082, 0, 0, 3.24843, -1951.86, -766.306)" d="M 221.875,249.125 A 0.125,0.375 0 1 1 221.625,249.125 A 0.125,0.375 0 1 1 221.875,249.125 z" sodipodi:ry="0.375" sodipodi:rx="0.125" sodipodi:cy="249.125" sodipodi:cx="221.75" id="path3450" style="fill: rgb(56, 34, 5); fill-opacity: 1; stroke: none; stroke-width: 0.112657; stroke-linejoin: round; stroke-miterlimit: 4; stroke-dasharray: none; stroke-dashoffset: 0pt; stroke-opacity: 1;" sodipodi:type="arc"/>
      <path sodipodi:type="arc" style="fill: rgb(56, 34, 5); fill-opacity: 1; stroke: none; stroke-width: 0.112657; stroke-linejoin: round; stroke-miterlimit: 4; stroke-dasharray: none; stroke-dashoffset: 0pt; stroke-opacity: 1;" id="path3452" sodipodi:cx="221.75" sodipodi:cy="249.125" sodipodi:rx="0.125" sodipodi:ry="0.375" d="M 221.875,249.125 A 0.125,0.375 0 1 1 221.625,249.125 A 0.125,0.375 0 1 1 221.875,249.125 z" transform="matrix(8.62082, 0, 0, 3.24843, -1951.11, -759.653)"/>
      <path transform="matrix(8.62082, 0, 0, 3.24843, -1952.51, -772.866)" d="M 221.875,249.125 A 0.125,0.375 0 1 1 221.625,249.125 A 0.125,0.375 0 1 1 221.875,249.125 z" sodipodi:ry="0.375" sodipodi:rx="0.125" sodipodi:cy="249.125" sodipodi:cx="221.75" id="path3454" style="fill: rgb(56, 34, 5); fill-opacity: 1; stroke: none; stroke-width: 0.112657; stroke-linejoin: round; stroke-miterlimit: 4; stroke-dasharray: none; stroke-dashoffset: 0pt; stroke-opacity: 1;" sodipodi:type="arc"/>
      <path sodipodi:nodetypes="csssc" id="path3052" d="M -31.752932,35.587278 C -31.752932,37.306307 -33.118403,36.448648 -34.800858,36.448648 C -36.483313,36.448648 -37.848776,37.306307 -37.848776,35.587278 C -37.848776,33.868248 -36.670722,32.004576 -34.988267,32.004576 C -33.305812,32.004576 -31.752932,33.868248 -31.752932,35.587278 z" style="fill: rgb(179, 141, 104); fill-opacity: 1; stroke: rgb(40, 23, 11); stroke-width: 1.06675; stroke-linejoin: round; stroke-miterlimit: 4; stroke-dashoffset: 0pt; stroke-opacity: 1;"/>
      <path id="path3456" d="M -38.17579,35.180367 L -31.897582,34.992958 L -31.710173,37.429278 L -37.988381,37.616687 L -38.17579,35.180367 z" style="fill: rgb(100, 66, 12); fill-opacity: 1; fill-rule: evenodd; stroke: rgb(56, 34, 5); stroke-width: 1.06675px; stroke-linecap: butt; stroke-linejoin: miter; stroke-opacity: 1;"/>
      <path id="path3458" d="M -35.083539,37.804096 L -34.802425,41.55228" style="fill: none; fill-rule: evenodd; stroke: rgb(56, 34, 5); stroke-width: 1.06675px; stroke-linecap: butt; stroke-linejoin: miter; stroke-opacity: 1;"/>
      <path id="path3464" d="M -42.818216,22.799268 L -46.926286,19.618822 L -47.19132,24.124446 L -42.751956,23.461857 L -38.643886,25.383371 L -38.180071,20.546452 L -42.818216,22.799268 z" style="fill: rgb(40, 23, 11); fill-opacity: 1; fill-rule: evenodd; stroke: rgb(18, 10, 4); stroke-width: 1.06675px; stroke-linecap: butt; stroke-linejoin: miter; stroke-opacity: 1;"/>
      <path transform="matrix(0.749637, 0, 0, 0.749637, -213.966, -150.542)" d="M 229.72131,231.41064 A 1.4142135,1.8561553 0 1 1 226.89288,231.41064 A 1.4142135,1.8561553 0 1 1 229.72131,231.41064 z" sodipodi:ry="1.8561553" sodipodi:rx="1.4142135" sodipodi:cy="231.41064" sodipodi:cx="228.3071" id="path3466" style="fill: rgb(40, 23, 11); fill-opacity: 1; stroke: rgb(18, 10, 4); stroke-width: 1.42302; stroke-linejoin: round; stroke-miterlimit: 4; stroke-dasharray: none; stroke-dashoffset: 0pt; stroke-opacity: 1;" sodipodi:type="arc"/>
      <path sodipodi:nodetypes="csc" id="path3473" d="M -59.66359,-12.542194 C -59.66359,-12.542194 -61.614579,-13.423744 -60.364927,-14.69533 C -59.688717,-15.383415 -58.960947,-13.439869 -58.960947,-13.439869" style="fill: none; fill-rule: evenodd; stroke: rgb(0, 0, 0); stroke-width: 1.06675px; stroke-linecap: butt; stroke-linejoin: miter; stroke-opacity: 1;"/>
      <path sodipodi:nodetypes="ccc" id="path3477" d="M -64.102286,-22.221736 C -60.699895,-16.27477 -18.125525,-12.761275 -16.245016,-23.510864 C -16.16919,-37.831199 -71.527132,-30.288263 -64.102286,-22.221736 z" style="fill: rgb(100, 66, 12); fill-opacity: 1; fill-rule: evenodd; stroke: rgb(56, 34, 5); stroke-width: 1.06675px; stroke-linecap: butt; stroke-linejoin: miter; stroke-opacity: 1;"/>
      <path sodipodi:nodetypes="cscc" id="path3479" d="M -56.818088,-25.8268 C -57.535408,-32.380402 -49.531641,-38.5354 -40.860082,-37.980729 C -31.002291,-37.350172 -21.882742,-33.273812 -22.784727,-24.279055 C -23.803994,-20.526598 -50.232094,-20.211383 -56.818088,-25.8268 z" style="fill: rgb(100, 66, 12); fill-opacity: 1; fill-rule: evenodd; stroke: rgb(56, 34, 5); stroke-width: 1.06675px; stroke-linecap: butt; stroke-linejoin: miter; stroke-opacity: 1;"/>
      <path style="fill: rgb(40, 23, 11); fill-opacity: 1; fill-rule: evenodd; stroke: rgb(18, 10, 4); stroke-width: 1.06675px; stroke-linecap: butt; stroke-linejoin: miter; stroke-opacity: 1;" d="M -56.818088,-25.8268 C -57.00064,-27.494644 -56.618355,-29.136679 -55.80398,-30.648868 C -51.340575,-25.445475 -29.888743,-23.755846 -23.583428,-29.601161 C -22.883664,-28.063019 -22.582618,-26.294506 -22.784727,-24.279055 C -23.803994,-20.526598 -50.232094,-20.211383 -56.818088,-25.8268 z" id="path3481" sodipodi:nodetypes="ccccc"/>
      <path transform="matrix(0.663142, 0, -0.0662014, 0.749637, -192.08, -150.83)" d="M 228.39549,187.39325 A 5.5684657,5.3033009 0 1 1 217.25856,187.39325 A 5.5684657,5.3033009 0 1 1 228.39549,187.39325 z" sodipodi:ry="5.3033009" sodipodi:rx="5.5684657" sodipodi:cy="187.39325" sodipodi:cx="222.82703" id="path3471" style="fill: rgb(255, 255, 255); fill-opacity: 0.269912; stroke: rgb(18, 10, 4); stroke-width: 1.51298; stroke-linejoin: round; stroke-miterlimit: 4; stroke-dasharray: none; stroke-dashoffset: 0pt; stroke-opacity: 1;" sodipodi:type="arc"/>
      <path sodipodi:nodetypes="ccccccc" id="path2680" d="M -74.93142,51.157002 C -73.960715,51.895079 -71.950766,49.870782 -72.704676,50.345812 C -74.34773,48.618139 -73.86243,47.369469 -73.126227,48.088176 C -68.204471,53.205024 -57.352644,70.129737 -53.154378,75.843289 L -50.381009,74.602573 C -54.659021,68.94337 -65.792118,51.699101 -70.70472,46.559501 C -73.686925,43.134793 -79.027263,45.945826 -74.93142,51.157002 z" style="fill: rgb(40, 23, 11); fill-opacity: 1; fill-rule: evenodd; stroke: none; stroke-width: 1px; stroke-linecap: butt; stroke-linejoin: miter; stroke-opacity: 1;"/>
      <path sodipodi:nodetypes="ccccccc" id="path3825" d="M -34.966408,29.159847 C -37.326932,29.275793 -37.385426,31.004283 -36.723369,32.837752 L -35.505209,32.369229 C -36.222117,31.27838 -36.015577,30.518923 -34.989834,30.471711 C -34.227731,30.358313 -33.314441,31.088122 -33.537413,32.392655 L -32.881481,32.720621 C -32.090254,30.749496 -33.019504,29.527903 -34.966408,29.159847 z" style="fill: rgb(179, 141, 104); fill-opacity: 1; fill-rule: evenodd; stroke: rgb(40, 23, 11); stroke-width: 1.06675px; stroke-linecap: butt; stroke-linejoin: miter; stroke-opacity: 1;"/>
      <path sodipodi:nodetypes="csccscc" id="path3831" d="M -36.8405,29.7455 C -43.017702,30.545918 -46.472231,33.4775 -47.288563,35.789447 C -48.104895,38.101394 -46.010117,41.549132 -44.149459,42.536178 L -44.102606,40.755791 C -45.673883,39.922255 -46.710923,38.064115 -46.023551,36.117413 C -45.336179,34.170711 -42.838891,32.016795 -37.074761,30.776251 L -36.8405,29.7455 z" style="fill: rgb(179, 141, 104); fill-opacity: 1; fill-rule: evenodd; stroke: rgb(40, 23, 11); stroke-width: 1.06675px; stroke-linecap: butt; stroke-linejoin: miter; stroke-opacity: 1;"/>
      <path sodipodi:nodetypes="cc" id="path2765" d="M -57.461486,-15.233495 C -55.694578,-14.343623 -53.927661,-14.775512 -52.160752,-12.31809" style="fill: none; fill-rule: evenodd; stroke: rgb(63, 45, 16); stroke-width: 1.06675px; stroke-linecap: butt; stroke-linejoin: miter; stroke-opacity: 1;"/>
    </g>
  </g>
</svg>