<?xml version="1.0" encoding="UTF-8" standalone="no"?>
<!-- Created with Inkscape (http://www.inkscape.org/) -->
<svg
   xmlns:dc="http://purl.org/dc/elements/1.1/"
   xmlns:cc="http://creativecommons.org/ns#"
   xmlns:rdf="http://www.w3.org/1999/02/22-rdf-syntax-ns#"
   xmlns:svg="http://www.w3.org/2000/svg"
   xmlns="http://www.w3.org/2000/svg"
   xmlns:sodipodi="http://sodipodi.sourceforge.net/DTD/sodipodi-0.dtd"
   xmlns:inkscape="http://www.inkscape.org/namespaces/inkscape"
   width="128"
   height="128"
   id="svg2"
   sodipodi:version="0.32"
   inkscape:version="0.46+devel"
   version="1.0"
   sodipodi:docname="sf_vader.svg"
   inkscape:output_extension="org.inkscape.output.svg.inkscape">
  <defs
     id="defs4">
    <filter
       inkscape:collect="always"
       id="filter4212">
      <feGaussianBlur
         inkscape:collect="always"
         stdDeviation="0.65370021"
         id="feGaussianBlur4214" />
    </filter>
  </defs>
  <sodipodi:namedview
     id="base"
     pagecolor="#ffffff"
     bordercolor="#666666"
     borderopacity="1.0"
     gridtolerance="10000"
     guidetolerance="10"
     objecttolerance="10"
     inkscape:pageopacity="0.0"
     inkscape:pageshadow="2"
     inkscape:zoom="1"
     inkscape:cx="249.21253"
     inkscape:cy="62.345341"
     inkscape:document-units="px"
     inkscape:current-layer="layer1"
     showgrid="false"
     inkscape:window-width="1538"
     inkscape:window-height="961"
     inkscape:window-x="136"
     inkscape:window-y="24" />
  <metadata
     id="metadata7">
    <rdf:RDF>
      <cc:Work
         rdf:about="">
        <dc:format>image/svg+xml</dc:format>
        <dc:type
           rdf:resource="http://purl.org/dc/dcmitype/StillImage" />
        <dc:title></dc:title>
      </cc:Work>
    </rdf:RDF>
  </metadata>
  <g
     inkscape:label="Layer 1"
     inkscape:groupmode="layer"
     id="layer1">
    <g
       id="g3779"
       transform="translate(-101,-22)" />
    <g
       id="g4276"
       transform="translate(6,-1)">
      <path
         sodipodi:nodetypes="ccccc"
         id="path4274"
         d="m 42.75,56.25 c -4.666667,1.757568 -5.833333,57.22172 -10,53.25 24.545961,-13.137881 40.666667,-1 61,-1.5 C 89.193658,97.166667 93.583547,67.333333 84.5,60 L 42.75,56.25 z"
         style="fill:#000000;fill-opacity:1;stroke:#000000;stroke-width:1;stroke-linejoin:round;stroke-miterlimit:4;stroke-opacity:1;stroke-dasharray:none;stroke-dashoffset:0" />
      <path
         sodipodi:nodetypes="ccccc"
         id="path3371"
         d="m 49.528078,108.24692 c -2.70757,-1.23846 0.653224,-21.474589 3.484715,-20.908291 l 9.48617,7.163027 c -5.5639,6.700484 -5.121895,11.148754 -6.969431,16.455604 l -6.001454,-2.71034 z"
         style="fill:#333333;fill-opacity:1;stroke:#000000;stroke-width:1;stroke-linejoin:round;stroke-miterlimit:4;stroke-opacity:1;stroke-dasharray:none;stroke-dashoffset:0" />
      <path
         style="fill:#333333;fill-opacity:1;stroke:#000000;stroke-width:1;stroke-linejoin:round;stroke-miterlimit:4;stroke-opacity:1;stroke-dasharray:none;stroke-dashoffset:0"
         d="m 75.634219,109.0213 c 2.707569,-1.23846 -0.653225,-21.474588 -3.484716,-20.90829 l -9.486169,7.163026 c 5.5639,6.700484 5.121895,11.148754 6.96943,16.455594 l 6.001455,-2.71033 z"
         id="path3373"
         sodipodi:nodetypes="ccccc" />
      <path
         sodipodi:nodetypes="cccccccc"
         id="path3361"
         d="m 47.730538,57.363608 2.042463,23.720867 c 1.682947,6.416584 2.902832,12.851856 12.006972,15.625237 2.621423,1.559996 4.847323,1.974886 6.239999,-0.02262 8.442807,-2.417347 8.11671,-8.791224 10.265801,-14.048284 L 77.877278,58.174546 48.220723,57.36357 l -0.490185,0 z"
         style="fill:#333333;fill-opacity:1;stroke:#000000;stroke-width:1;stroke-linejoin:round;stroke-miterlimit:4;stroke-opacity:1;stroke-dasharray:none;stroke-dashoffset:0" />
      <path
         id="path3353"
         d="m 49.651399,80.81415 6.454181,0.810976 0.245092,5.541627 -7.189469,-0.675803 0.490196,-5.6768 z"
         style="fill:#333333;fill-opacity:1;stroke:#000000;stroke-width:1;stroke-linejoin:round;stroke-miterlimit:4;stroke-opacity:1;stroke-dasharray:none;stroke-dashoffset:0" />
      <path
         id="path3351"
         d="M 58.066341,67.774519 58.148001,78.519866 69.177303,78.72261 69.422396,68.315159 58.0663,67.774519 z"
         style="fill:#333333;fill-opacity:1;stroke:#000000;stroke-width:1;stroke-linejoin:round;stroke-miterlimit:4;stroke-opacity:1;stroke-dasharray:none;stroke-dashoffset:0" />
      <path
         id="path3357"
         d="m 68.596716,80.80031 8.496643,-0.54065 0.89868,5.474046 -9.150231,0.608231 -0.245092,-5.541627 z"
         style="fill:#333333;fill-opacity:1;stroke:#000000;stroke-width:1;stroke-linejoin:round;stroke-miterlimit:4;stroke-opacity:1;stroke-dasharray:none;stroke-dashoffset:0" />
      <path
         style="fill:#333333;fill-opacity:1;stroke:#000000;stroke-width:1;stroke-linejoin:round;stroke-miterlimit:4;stroke-opacity:1;stroke-dasharray:none;stroke-dashoffset:0"
         d="m 82.674944,58.530955 c 2.535474,-1.382984 12.839817,13.536352 10.25722,16.886426 -1.057203,1.371371 -5.196225,9.471434 -7.112717,11.387929 -1.916492,1.916496 -8.02969,9.811858 -8.02969,9.811858 -0.654603,-0.162662 1.714306,-7.113568 1.045298,-5.567349 -0.783235,1.810226 -2.780018,5.68439 -4.739596,3.868629 -1.549294,-1.435588 2.208159,-5.760886 1.417339,-5.14918 -0.974241,0.753584 -4.49251,3.535791 -5.438838,2.62404 -1.238921,-1.193655 2.456751,-3.882754 3.151372,-4.492857 l 5.201917,-3.011636 c -2.090706,-0.669657 -3.742885,-1.589901 -3.559206,-3.559207 2.794467,-0.885296 4.436708,0.149789 6.297058,0.821356 L 83.88349,74.830896 C 79.799066,72.504287 76.406434,68.766729 74.829129,63.43157 l 7.845815,-4.900615 z"
         id="path3414"
         sodipodi:nodetypes="csscssssccccccc" />
      <path
         id="path3355"
         d="m 57.110288,81.141677 9.640415,0.202744 0.245104,5.338883 -9.477036,-0.270325 -0.408483,-5.271302 z"
         style="fill:#333333;fill-opacity:1;stroke:#000000;stroke-width:1;stroke-linejoin:round;stroke-miterlimit:4;stroke-opacity:1;stroke-dasharray:none;stroke-dashoffset:0" />
      <path
         transform="matrix(0.98357294,0,0,0.98357294,-19.163342,-0.6920115)"
         sodipodi:nodetypes="cccscc"
         id="path3418"
         d="M 71.375,86.375 122.25,55 l 1,2.875 c 0,0 -50.375,31.75 -50.5,32.375 -0.101076,0.50538 -1.25,-4.625 -1.25,-4.625 l -0.125,0.75 z"
         style="fill:#ffbcbc;fill-opacity:1;stroke:#ff0000;stroke-width:1.01670146;stroke-linejoin:round;stroke-miterlimit:4;stroke-opacity:1;stroke-dasharray:none;stroke-dashoffset:0;filter:url(#filter4212)" />
      <path
         sodipodi:nodetypes="ccccc"
         id="path3416"
         d="m 37.760942,91.395005 14.261808,-9.09805 c 1.058364,1.291538 -0.612589,2.810518 3.934291,3.811345 L 40.465767,96.435816 C 38.629808,95.42294 37.317784,94.035823 37.760942,91.395005 z"
         style="fill:#808080;fill-opacity:1;stroke:#4d4d4d;stroke-width:1" />
      <path
         sodipodi:nodetypes="csscccccccc"
         id="path3365"
         d="m 42.09265,59.760421 c -2.535471,-1.382984 -12.839809,13.536352 -10.257213,16.886426 1.0572,1.371371 5.196219,9.471434 7.112715,11.38793 1.916495,1.916495 5.201916,8.213552 5.201916,8.213552 3.638921,-0.904235 5.809363,-3.644068 7.392197,-7.118412 l -5.201916,-3.011636 c 1.461712,-1.002862 3.886077,-1.363956 3.559206,-3.559206 -1.607264,-1.44736 -4.085067,0.152168 -6.297057,0.821355 l -2.718393,-7.320068 c 4.08443,-2.326609 7.477058,-6.064167 9.054364,-11.399326 L 42.09265,59.760421 z"
         style="fill:#333333;fill-opacity:1;stroke:#000000;stroke-width:1;stroke-linejoin:round;stroke-miterlimit:4;stroke-opacity:1;stroke-dasharray:none;stroke-dashoffset:0" />
      <path
         sodipodi:nodetypes="ccccccccc"
         id="path3338"
         d="m 37.466923,60.564703 9.005697,3.914252 5.820327,0.476869 2.5004,1.402013 13.567893,-0.05898 6.371749,-2.517318 3.993938,-0.339651 8.245297,-2.85869 c -9.249371,-7.618119 -41.570031,-9.373581 -49.505301,-0.0185 z"
         style="fill:#333333;fill-opacity:1;stroke:#000000;stroke-width:1;stroke-linejoin:round;stroke-miterlimit:4;stroke-opacity:1;stroke-dasharray:none;stroke-dashoffset:0" />
      <g
         transform="matrix(0.98357294,0,0,0.98357294,-128.33994,11.60265)"
         id="g3340">
        <path
           style="fill:#000000;fill-opacity:1;stroke:none"
           d="m 167.66932,39.75 c 5.76329,4.093949 11.59417,7.841061 18.12434,8 l 21.33994,-1.5 c 4.87214,-0.749776 9.74427,-2.585661 14.61641,-6 0,0 -4.67725,-11 -4.67725,-12 0,-1 -11.69312,-20.0000001 -11.69312,-20.0000001 l -22.80159,0 L 173.22355,19.5 167.66932,39.75 z"
           id="path3332"
           sodipodi:nodetypes="ccccscccc" />
        <path
           style="fill:#333333;fill-opacity:1;stroke:#000000;stroke-width:1.01670146;stroke-opacity:1"
           d="m 176.14683,19.25 c -0.68773,7.703232 -2.57846,15.12588 4.96958,24.75 l 7.3082,6.75 c 3.08293,-0.863473 6.31407,-1.600185 11.69312,-0.5 5.64069,-2.060866 7.99596,-4.523118 8.18519,-7.25 7.5398,-5.903382 5.32703,-13.323207 4.67725,-20.5 l -4.67725,-14.0000001 -28.64815,-0.25 L 176.14683,19.25 z"
           id="path3330"
           sodipodi:nodetypes="ccccccccc" />
        <path
           style="fill:#333333;fill-opacity:1;stroke:#000000;stroke-width:1.01670146;stroke-linejoin:round;stroke-miterlimit:4;stroke-opacity:1;stroke-dasharray:none;stroke-dashoffset:0"
           d="m 166.50001,39.75 c 1.75396,-0.244486 3.50793,-1.436629 5.2619,-5 -0.19563,-4.899873 0.42162,-9.938781 4.09259,-15.5 2.97808,-2.953138 6.43805,-7.744158 15.20106,-3 l 6.13889,-0.5 c 2.87475,-1.874485 6.10099,-2.847233 10.52381,-0.75 4.03108,5.964865 8.01861,12.022816 10.52381,21.25 L 221.16535,40 C 223.22656,30.603499 216.08002,23.456854 213.27249,15.25 209.61092,7.4553617 217.4046,-6.4989624 193.68651,-5.5000001 174.59043,-6.9774446 175.09341,4.1159956 174.10053,14.25 c -3.82503,8.868172 -6.10846,17.296883 -7.60052,25.5 z"
           id="path3320"
           sodipodi:nodetypes="cccccccccccc" />
        <path
           style="fill:#000000;fill-opacity:1;stroke:none"
           d="m 179.65476,22.75 c 0.49393,-2.936786 3.99499,-5.277966 10.52381,-2.75 0,0 1.75397,8 -10.52381,2.75 z"
           id="path3322"
           sodipodi:nodetypes="ccc" />
        <path
           sodipodi:nodetypes="ccc"
           id="path3324"
           d="m 209.26651,21.5 c -0.49393,-2.936786 -3.99499,-5.277966 -10.52381,-2.75 0,0 -1.75397,8 10.52381,2.75 z"
           style="fill:#000000;fill-opacity:1;stroke:none" />
        <path
           style="fill:#000000;fill-opacity:1;stroke:none"
           d="m 191.34788,30 -6.43121,7.75 18.12434,-0.25 -7.30821,-8.25 -4.38492,0.75 z"
           id="path3328"
           sodipodi:nodetypes="ccccc" />
        <path
           sodipodi:nodetypes="ccccc"
           id="path3334"
           d="M 192.31917,45.764706 187.54762,40.75 200.99471,40.911765 195.57249,46.25 192.31917,45.764706 z"
           style="fill:#000000;fill-opacity:1;stroke:none" />
        <path
           style="fill:#b3b3b3;fill-opacity:1;stroke:none"
           d="m 149.76018,6.1235537 c -14.42156,0.1797522 -13.32853,8.7566603 -14.78451,17.0060153 2.69593,-2.172934 6.5352,1.656659 6.35811,1.225659 -3.25545,-7.262239 -0.94679,-15.9611884 8.4264,-18.2316743 z"
           id="path2887"
           transform="matrix(1.0167014,0,0,1.0167014,37.96357,-10.779729)"
           sodipodi:nodetypes="cccc" />
      </g>
      <path
         sodipodi:nodetypes="ccccccc"
         id="path3367"
         d="m 39.267528,121.02422 c 1.316823,-0.10158 16.26719,3.43354 18.585148,-2.12956 -1.85641,-4.24318 -0.576417,-7.85909 0,-11.61571 -4.73854,1.64568 -7.328418,-0.46882 -10.066955,-2.32315 l 1.161571,7.93741 c -3.11127,0.80187 -6.044209,1.24709 -10.647741,5.03348 l 0.967977,3.09753 z"
         style="fill:#333333;fill-opacity:1;stroke:#000000;stroke-width:1;stroke-linejoin:round;stroke-miterlimit:4;stroke-opacity:1;stroke-dasharray:none;stroke-dashoffset:0" />
      <path
         style="fill:#333333;fill-opacity:1;stroke:#000000;stroke-width:1;stroke-linejoin:round;stroke-miterlimit:4;stroke-opacity:1;stroke-dasharray:none;stroke-dashoffset:0"
         d="m 86.117587,120.44344 c -1.316817,-0.10158 -16.267188,3.43354 -18.585146,-2.12956 1.856409,-4.24318 0.576416,-7.85909 0,-11.61571 4.738539,1.64568 7.328417,-0.46882 10.066954,-2.32315 l -1.161571,7.93741 c 3.111267,0.80187 6.044212,1.24709 10.647737,5.03348 l -0.967974,3.09753 z"
         id="path3369"
         sodipodi:nodetypes="ccccccc" />
      <path
         sodipodi:type="arc"
         style="fill:#008000;fill-opacity:1;stroke:none"
         id="path2881"
         sodipodi:cx="157.86159"
         sodipodi:cy="69.575302"
         sodipodi:rx="1.2374369"
         sodipodi:ry="0.9722718"
         d="m 159.09902,69.575302 a 1.2374369,0.9722718 0 1 1 -2.47487,0 1.2374369,0.9722718 0 1 1 2.47487,0 z"
         transform="matrix(1,0,0,1.4545455,-91,-30.183196)" />
      <path
         transform="matrix(1,0,0,1.4545455,-94.005204,-30.006419)"
         d="m 159.09902,69.575302 a 1.2374369,0.9722718 0 1 1 -2.47487,0 1.2374369,0.9722718 0 1 1 2.47487,0 z"
         sodipodi:ry="0.9722718"
         sodipodi:rx="1.2374369"
         sodipodi:cy="69.575302"
         sodipodi:cx="157.86159"
         id="path2883"
         style="fill:#ff0000;fill-opacity:1;stroke:none"
         sodipodi:type="arc" />
    </g>
  </g>
</svg>
