<?xml version="1.0" encoding="UTF-8" standalone="no"?>
<!-- Created with Inkscape (http://www.inkscape.org/) -->

<svg
   xmlns:dc="http://purl.org/dc/elements/1.1/"
   xmlns:cc="http://creativecommons.org/ns#"
   xmlns:rdf="http://www.w3.org/1999/02/22-rdf-syntax-ns#"
   xmlns:svg="http://www.w3.org/2000/svg"
   xmlns="http://www.w3.org/2000/svg"
   xmlns:xlink="http://www.w3.org/1999/xlink"
   xmlns:sodipodi="http://sodipodi.sourceforge.net/DTD/sodipodi-0.dtd"
   xmlns:inkscape="http://www.inkscape.org/namespaces/inkscape"
   width="128"
   height="128"
   id="svg2"
   version="1.1"
   inkscape:version="0.48.4 r9939"
   sodipodi:docname="New document 1">
  <defs
     id="defs4">
    <linearGradient
       inkscape:collect="always"
       id="linearGradient3002">
      <stop
         style="stop-color:#ffffff;stop-opacity:1;"
         offset="0"
         id="stop3004" />
      <stop
         style="stop-color:#ffffff;stop-opacity:0;"
         offset="1"
         id="stop3006" />
    </linearGradient>
    <linearGradient
       id="linearGradient2990">
      <stop
         style="stop-color:#000000;stop-opacity:0;"
         offset="0"
         id="stop2992" />
      <stop
         style="stop-color:#000000;stop-opacity:0.33613446;"
         offset="1"
         id="stop2994" />
    </linearGradient>
    <radialGradient
       inkscape:collect="always"
       xlink:href="#linearGradient2990"
       id="radialGradient2996"
       cx="64.383598"
       cy="993.0824"
       fx="64.383598"
       fy="993.0824"
       r="52.158031"
       gradientTransform="matrix(0.75021959,-0.58252086,0.4741609,0.61066887,-469.67145,425.72334)"
       gradientUnits="userSpaceOnUse" />
    <linearGradient
       inkscape:collect="always"
       xlink:href="#linearGradient3002"
       id="linearGradient3010"
       x1="76.013985"
       y1="35.369011"
       x2="91.923882"
       y2="94.41243"
       gradientUnits="userSpaceOnUse"
       gradientTransform="translate(2,933.36217)" />
    <filter
       inkscape:collect="always"
       id="filter3800"
       x="-0.12853532"
       width="1.2570706"
       y="-0.23370708"
       height="1.4674142">
      <feGaussianBlur
         inkscape:collect="always"
         stdDeviation="2.4178001"
         id="feGaussianBlur3802" />
    </filter>
    <linearGradient
       inkscape:collect="always"
       xlink:href="#linearGradient2990"
       id="linearGradient3816"
       x1="57.616314"
       y1="954.58276"
       x2="49.198856"
       y2="957.05768"
       gradientUnits="userSpaceOnUse"
       gradientTransform="matrix(0.94412135,0,0,0.94412135,3.9573339,54.212245)" />
    <linearGradient
       inkscape:collect="always"
       xlink:href="#linearGradient2990"
       id="linearGradient3818"
       x1="87.114235"
       y1="961.11768"
       x2="78.415482"
       y2="947.15228"
       gradientUnits="userSpaceOnUse"
       gradientTransform="matrix(0.94412135,0,0,0.94412135,3.9573339,54.212245)" />
    <linearGradient
       inkscape:collect="always"
       xlink:href="#linearGradient2990"
       id="linearGradient3820"
       x1="92.454216"
       y1="956.90277"
       x2="74.246216"
       y2="930.20947"
       gradientUnits="userSpaceOnUse"
       gradientTransform="matrix(0.94412135,0,0,0.94412135,3.9573339,54.212245)" />
    <linearGradient
       inkscape:collect="always"
       xlink:href="#linearGradient3002"
       id="linearGradient3824"
       x1="48.125"
       y1="32.125"
       x2="57.75"
       y2="29.625"
       gradientUnits="userSpaceOnUse"
       gradientTransform="translate(3,924.36217)" />
    <filter
       inkscape:collect="always"
       id="filter3842"
       x="-0.11944241"
       width="1.2388848"
       y="-0.057961726"
       height="1.1159235">
      <feGaussianBlur
         inkscape:collect="always"
         stdDeviation="0.51320278"
         id="feGaussianBlur3844" />
    </filter>
    <linearGradient
       inkscape:collect="always"
       xlink:href="#linearGradient3002"
       id="linearGradient3848"
       x1="80.375"
       y1="1.4098482"
       x2="92.125"
       y2="22.409849"
       gradientUnits="userSpaceOnUse"
       gradientTransform="translate(3,924.36217)" />
    <filter
       inkscape:collect="always"
       id="filter3858"
       x="-0.035427761"
       width="1.0708555"
       y="-0.16834409"
       height="1.3366882">
      <feGaussianBlur
         inkscape:collect="always"
         stdDeviation="0.76391109"
         id="feGaussianBlur3860" />
    </filter>
    <filter
       inkscape:collect="always"
       id="filter3888"
       x="-0.13909614"
       width="1.2781923"
       y="-0.66650242"
       height="2.3330048">
      <feGaussianBlur
         inkscape:collect="always"
         stdDeviation="4.7128836"
         id="feGaussianBlur3890" />
    </filter>
  </defs>
  <sodipodi:namedview
     id="base"
     pagecolor="#ffffff"
     bordercolor="#666666"
     borderopacity="1.0"
     inkscape:pageopacity="0.0"
     inkscape:pageshadow="2"
     inkscape:zoom="1"
     inkscape:cx="98.667084"
     inkscape:cy="92.15656"
     inkscape:document-units="px"
     inkscape:current-layer="layer1"
     showgrid="false"
     inkscape:window-width="1097"
     inkscape:window-height="826"
     inkscape:window-x="0"
     inkscape:window-y="24"
     inkscape:window-maximized="0" />
  <metadata
     id="metadata7">
    <rdf:RDF>
      <cc:Work
         rdf:about="">
        <dc:format>image/svg+xml</dc:format>
        <dc:type
           rdf:resource="http://purl.org/dc/dcmitype/StillImage" />
        <dc:title></dc:title>
      </cc:Work>
    </rdf:RDF>
  </metadata>
  <g
     inkscape:label="Layer 1"
     inkscape:groupmode="layer"
     id="layer1"
     transform="translate(0,-924.36217)">
    <path
       sodipodi:type="arc"
       style="opacity:0.69834708000000001;fill:#000000;fill-opacity:0.44843048000000002;stroke:none;filter:url(#filter3888)"
       id="path3862"
       sodipodi:cx="61.871845"
       sodipodi:cy="114.91853"
       sodipodi:rx="40.658642"
       sodipodi:ry="8.485281"
       d="m 102.53049,114.91853 a 40.658642,8.485281 0 1 1 -81.317287,0 40.658642,8.485281 0 1 1 81.317287,0 z"
       transform="matrix(0.76086957,0,0,0.47916664,16.032877,988.635)" />
    <path
       style="fill:#ff0000;fill-opacity:1;stroke:none"
       d="m 110.32006,1001.4217 c -3.86,17.4978 -11.48969,37.7952 -31.747591,43.9066 -4.967102,1.4984 -10.90134,-2.486 -17.48337,-2.5879 -6.94014,-0.1077 -12.753156,3.5371 -17.90825,1.6084 -18.197706,-6.8087 -23.35979,-25.0684 -27.608336,-42.455 -3.282412,-13.43278 -0.995375,-27.12001 8.399556,-33.94849 15.942671,-11.58755 25.869492,0.43642 37.713317,0.35685 17.343045,-0.11653 23.442667,-13.92963 42.869094,3.27198 10.81656,9.57779 8.59794,17.00822 5.76558,29.84756 z"
       id="path2985"
       inkscape:connector-curvature="0"
       sodipodi:nodetypes="sssssssss" />
    <path
       sodipodi:nodetypes="sssssssss"
       inkscape:connector-curvature="0"
       id="path2988"
       d="m 110.32006,1001.4217 c -3.86,17.4978 -11.48969,37.7952 -31.747591,43.9066 -4.967102,1.4984 -10.90134,-2.486 -17.48337,-2.5879 -6.94014,-0.1077 -12.753156,3.5371 -17.90825,1.6084 -18.197706,-6.8087 -23.35979,-25.0684 -27.608336,-42.455 -3.282412,-13.43278 -0.995375,-27.12001 8.399556,-33.94849 15.942671,-11.58755 25.869492,0.43642 37.713317,0.35685 17.343045,-0.11653 23.442667,-13.92963 42.869094,3.27198 10.81656,9.57779 8.59794,17.00822 5.76558,29.84756 z"
       style="fill:url(#radialGradient2996);fill-opacity:1;stroke:none" />
    <path
       style="opacity:0.72314046;fill:url(#linearGradient3010);fill-opacity:1;stroke:none;filter:url(#filter3800)"
       d="m 64.225397,975.4487 c 12.474825,0.79886 22.397818,-2.23002 31.112698,-7.07107 0,0 15.934245,8.84984 12.727915,15.9099 -3.21132,7.07107 -28.394944,10.6066 -35.355332,8.13173 -9.29166,-3.30379 -10.606602,-12.37437 -8.485281,-16.97056 z"
       id="path3000"
       inkscape:connector-curvature="0"
       sodipodi:nodetypes="ccssc"
       transform="matrix(0.94412135,0,0,0.94412135,1.1249699,54.212245)" />
    <path
       style="fill:#00ff00;stroke:none"
       d="m 48.331037,946.51282 c -1.272363,10.39603 5.444567,14.60272 9.677244,20.65266 1.553435,0.41804 3.008782,1.10113 4.248546,0 -4.094449,-7.19451 -5.733163,-14.87538 -3.540455,-23.01296 -4.022923,-0.55998 -7.910309,-0.79467 -10.385335,2.3603 z"
       id="path3804"
       inkscape:connector-curvature="0"
       sodipodi:nodetypes="ccccc" />
    <path
       style="fill:#00ff00;stroke:none"
       d="m 59.499957,955.85205 c 30.279416,-8.13213 39.251135,-15.6859 56.210193,-23.45648 -0.11392,0.015 -24.375099,45.31496 -56.210193,23.45648 z"
       id="path3806"
       inkscape:connector-curvature="0"
       sodipodi:nodetypes="ccc" />
    <path
       sodipodi:nodetypes="ccc"
       inkscape:connector-curvature="0"
       id="path3808"
       d="m 59.499957,955.85205 c 30.279416,-8.13213 39.251135,-15.6859 56.210193,-23.45648 -1.72946,-2.33983 -64.177658,-12.70216 -56.210193,23.45648 z"
       style="fill:#00ff00;stroke:none" />
    <path
       sodipodi:nodetypes="ccccc"
       inkscape:connector-curvature="0"
       id="path3810"
       d="m 48.331037,946.51282 c -1.272363,10.39603 5.444567,14.60272 9.677244,20.65266 1.553435,0.41804 3.008782,1.10113 4.248546,0 -4.094449,-7.19451 -5.733163,-14.87538 -3.540455,-23.01296 -4.022923,-0.55998 -7.910309,-0.79467 -10.385335,2.3603 z"
       style="fill:url(#linearGradient3816);stroke:none" />
    <path
       sodipodi:nodetypes="ccc"
       inkscape:connector-curvature="0"
       id="path3812"
       d="m 59.499957,955.85205 c 30.279416,-8.13213 39.251135,-15.6859 56.210193,-23.45648 -0.11392,0.015 -24.375099,45.31496 -56.210193,23.45648 z"
       style="fill:url(#linearGradient3818);stroke:none" />
    <path
       style="fill:url(#linearGradient3820);fill-opacity:1;stroke:none"
       d="m 59.499957,955.85205 c 30.279416,-8.13213 39.251135,-15.6859 56.210193,-23.45648 -1.72946,-2.33983 -64.177658,-12.70216 -56.210193,23.45648 z"
       id="path3814"
       inkscape:connector-curvature="0"
       sodipodi:nodetypes="ccc" />
    <path
       style="fill:url(#linearGradient3824);fill-opacity:1;stroke:none;filter:url(#filter3842)"
       d="m 50.875,945.73717 c -0.685247,8.64845 4.435891,14.56448 9.25,20.625 l 1,-0.375 c -4.057594,-6.13248 -10.120125,-10.99869 -8.25,-20.875 z"
       id="path3822"
       inkscape:connector-curvature="0"
       sodipodi:nodetypes="ccccc"
       transform="matrix(0.94412135,0,0,0.94412135,1.1249699,54.212245)" />
    <path
       style="opacity:0.69834708;fill:url(#linearGradient3848);stroke:none;filter:url(#filter3858)"
       d="m 65.75,938.61217 c 16.1999,-5.01687 33.551164,-7.731 51.75,-8.75 0,0 -37.5,-8.625 -51.75,8.75 z"
       id="path3846"
       inkscape:connector-curvature="0"
       sodipodi:nodetypes="ccc"
       transform="matrix(0.94412135,0,0,0.94412135,1.1249699,54.212245)" />
  </g>
</svg>
