<?xml version="1.0" encoding="UTF-8" standalone="no"?>
<!-- Created with Inkscape (http://www.inkscape.org/) -->

<svg
   xmlns:dc="http://purl.org/dc/elements/1.1/"
   xmlns:cc="http://creativecommons.org/ns#"
   xmlns:rdf="http://www.w3.org/1999/02/22-rdf-syntax-ns#"
   xmlns:svg="http://www.w3.org/2000/svg"
   xmlns="http://www.w3.org/2000/svg"
   xmlns:xlink="http://www.w3.org/1999/xlink"
   xmlns:sodipodi="http://sodipodi.sourceforge.net/DTD/sodipodi-0.dtd"
   xmlns:inkscape="http://www.inkscape.org/namespaces/inkscape"
   id="svg1"
   height="150.00000"
   width="150.00000"
   y="0.0000000"
   x="0.0000000"
   version="1.0"
   inkscape:version="0.48.4 r9939"
   sodipodi:docname="bananas.svg">
  <sodipodi:namedview
     pagecolor="#ffffff"
     bordercolor="#666666"
     borderopacity="1"
     objecttolerance="10"
     gridtolerance="10"
     guidetolerance="10"
     inkscape:pageopacity="0"
     inkscape:pageshadow="2"
     inkscape:window-width="1257"
     inkscape:window-height="795"
     id="namedview44"
     showgrid="false"
     inkscape:zoom="1"
     inkscape:cx="75"
     inkscape:cy="76.474578"
     inkscape:window-x="0"
     inkscape:window-y="24"
     inkscape:window-maximized="0"
     inkscape:current-layer="svg1" />
  <defs
     id="defs3">
    <linearGradient
       id="linearGradient855">
      <stop
         id="stop856"
         offset="0.0000000"
         style="stop-color:#ffffff;stop-opacity:0.0000000;" />
      <stop
         id="stop857"
         offset="1.0000000"
         style="stop-color:#5f0e00;stop-opacity:0.41666666;" />
    </linearGradient>
    <linearGradient
       id="linearGradient829">
      <stop
         id="stop830"
         offset="0.0000000"
         style="stop-color:#ffffff;stop-opacity:0.52499998;" />
      <stop
         id="stop831"
         offset="1.0000000"
         style="stop-color:#ffffff;stop-opacity:0.0000000;" />
    </linearGradient>
    <radialGradient
       xlink:href="#linearGradient829"
       id="radialGradient832" />
    <linearGradient
       gradientTransform="scale(1.532982,0.652323)"
       gradientUnits="userSpaceOnUse"
       xlink:href="#linearGradient829"
       id="linearGradient850"
       y2="191.31802"
       x2="312.91138"
       y1="339.76996"
       x1="62.831093" />
    <linearGradient
       gradientTransform="scale(1.221106,0.818930)"
       gradientUnits="userSpaceOnUse"
       xlink:href="#linearGradient855"
       id="linearGradient854"
       y2="332.16705"
       x2="370.90094"
       y1="332.16705"
       x1="109.53184" />
    <linearGradient
       gradientTransform="matrix(0.355996,-4.394554e-2,2.947191e-2,0.238748,-12.35522,9.060914)"
       gradientUnits="userSpaceOnUse"
       xlink:href="#linearGradient855"
       id="linearGradient1374"
       y2="332.16705"
       x2="370.90094"
       y1="332.16705"
       x1="109.53184" />
    <linearGradient
       gradientTransform="matrix(0.446919,-5.516943e-2,2.347600e-2,0.190176,-12.35522,9.060914)"
       gradientUnits="userSpaceOnUse"
       xlink:href="#linearGradient829"
       id="linearGradient1379"
       y2="191.31802"
       x2="312.91138"
       y1="339.76996"
       x1="62.831093" />
    <linearGradient
       gradientTransform="matrix(0.446919,-5.516943e-2,2.347600e-2,0.190176,-12.35522,9.060914)"
       gradientUnits="userSpaceOnUse"
       xlink:href="#linearGradient829"
       id="linearGradient2164"
       y2="191.31802"
       x2="312.91138"
       y1="339.76996"
       x1="62.831093" />
    <linearGradient
       gradientTransform="matrix(0.355996,-4.394554e-2,2.947191e-2,0.238748,-12.35522,9.060914)"
       gradientUnits="userSpaceOnUse"
       xlink:href="#linearGradient855"
       id="linearGradient2166"
       y2="332.16705"
       x2="370.90094"
       y1="332.16705"
       x1="109.53184" />
    <linearGradient
       gradientTransform="matrix(0.446919,-5.516943e-2,2.347600e-2,0.190176,-12.35522,9.060914)"
       gradientUnits="userSpaceOnUse"
       xlink:href="#linearGradient829"
       id="linearGradient2180"
       y2="191.31802"
       x2="312.91138"
       y1="339.76996"
       x1="62.831093" />
    <linearGradient
       gradientTransform="matrix(0.355996,-4.394554e-2,2.947191e-2,0.238748,-12.35522,9.060914)"
       gradientUnits="userSpaceOnUse"
       xlink:href="#linearGradient855"
       id="linearGradient2182"
       y2="332.16705"
       x2="370.90094"
       y1="332.16705"
       x1="109.53184" />
  </defs>
  <image
     sodipodi:absref="/home/nicu/public_html/clipart/svg/fruits/euembl2.gif"
     xlink:href="euembl2.gif"
     x="22.061697"
     y="1.7665182"
     width="67.732307"
     height="46.881878"
     style="display:none"
     id="sheet" />
  <g
     id="layer1"
     transform="matrix(0.101093,0.000000,0.000000,0.101093,3.724900,-7.984000)" />
  <g
     id="g2145">
    <path
       id="path847"
       style="fill:#ffe200;fill-rule:evenodd;stroke:none;stroke-width:2.9374888;stroke-linejoin:round"
       d="M 104.35330,22.401958 C 98.257209,17.974859 112.38415,12.531244 114.43118,14.128417 C 117.52648,15.226214 112.19514,16.994255 112.87446,19.500209 C 113.55377,22.006164 114.85381,35.534689 117.85914,35.903646 C 120.86448,36.272603 124.82357,38.373689 125.27343,42.017889 C 137.17302,63.487294 109.10738,129.84726 20.738179,109.30817 C 19.145543,108.39485 10.003668,100.27403 8.2760761,98.267454 C 7.2323384,95.806485 5.3743268,89.746301 9.4774545,87.019956 C 45.798109,72.547121 91.548315,86.508120 105.78376,39.984089 C 108.11885,31.926401 104.35330,22.401958 104.35330,22.401958 z " />
    <path
       id="path849"
       style="fill:url(#linearGradient1379);fill-rule:evenodd;stroke-width:1.0000000pt"
       d="M 10.836090,92.031865 L 11.115076,88.297695 C 36.822565,74.765016 89.402243,90.102798 107.74082,40.852422 C 99.763644,75.134740 81.101480,97.786993 10.836090,92.031865 z " />
    <path
       id="path852"
       style="fill:#442400;fill-rule:evenodd;stroke-width:1.0000000pt"
       d="M 8.1063239,96.850314 C 7.1733125,91.528407 6.6833672,89.795735 9.5583265,87.647685 C 11.153513,89.500474 11.672566,95.783559 8.1063239,96.850314 z " />
    <path
       id="path853"
       style="fill:url(#linearGradient1374);fill-opacity:1;fill-rule:evenodd;stroke-width:1.0000000pt"
       d="M 39.818439,111.02254 C 105.57130,119.18457 122.24427,76.245258 124.91770,66.110058 C 130.03773,53.638881 124.40963,41.014600 124.40963,41.014600 C 128.90363,80.416945 91.637902,117.20483 39.818439,111.02254 z " />
  </g>
  <g
     id="g2152"
     transform="matrix(0.986546,-0.163481,0.163481,0.986546,1.118890,19.35070)">
    <path
       id="path2154"
       style="fill:#ffe200;fill-rule:evenodd;stroke:none;stroke-width:2.9374888;stroke-linejoin:round"
       d="M 104.35330,22.401958 C 98.257209,17.974859 112.38415,12.531244 114.43118,14.128417 C 117.52648,15.226214 112.19514,16.994255 112.87446,19.500209 C 113.55377,22.006164 114.85381,35.534689 117.85914,35.903646 C 120.86448,36.272603 124.82357,38.373689 125.27343,42.017889 C 137.17302,63.487294 109.10738,129.84726 20.738179,109.30817 C 19.145543,108.39485 10.003668,100.27403 8.2760761,98.267454 C 7.2323384,95.806485 5.3743268,89.746301 9.4774545,87.019956 C 45.798109,72.547121 91.548315,86.508120 105.78376,39.984089 C 108.11885,31.926401 104.35330,22.401958 104.35330,22.401958 z " />
    <path
       id="path2156"
       style="fill:url(#linearGradient2164);fill-rule:evenodd;stroke-width:1.0000000pt"
       d="M 10.836090,92.031865 L 11.115076,88.297695 C 36.822565,74.765016 89.402243,90.102798 107.74082,40.852422 C 99.763644,75.134740 81.101480,97.786993 10.836090,92.031865 z " />
    <path
       id="path2160"
       style="fill:#442400;fill-rule:evenodd;stroke-width:1.0000000pt"
       d="M 8.1063239,96.850314 C 7.1733125,91.528407 6.6833672,89.795735 9.5583265,87.647685 C 11.153513,89.500474 11.672566,95.783559 8.1063239,96.850314 z " />
    <path
       id="path2162"
       style="fill:url(#linearGradient2166);fill-opacity:1;fill-rule:evenodd;stroke-width:1.0000000pt"
       d="M 39.818439,111.02254 C 105.57130,119.18457 122.24427,76.245258 124.91770,66.110058 C 130.03773,53.638881 124.40963,41.014600 124.40963,41.014600 C 128.90363,80.416945 91.637902,117.20483 39.818439,111.02254 z " />
  </g>
  <g
     id="g2168"
     transform="matrix(0.951501,-0.307645,0.307645,0.951501,6.323315,37.29399)">
    <path
       id="path2170"
       style="fill:#ffe200;fill-rule:evenodd;stroke:none;stroke-width:2.9374888;stroke-linejoin:round"
       d="M 104.35330,22.401958 C 98.257209,17.974859 110.21145,12.383843 112.25848,13.981016 C 115.35378,15.078813 110.11123,17.430652 110.79055,19.936606 C 111.46986,22.442561 114.85381,35.534689 117.85914,35.903646 C 120.86448,36.272603 124.82357,38.373689 125.27343,42.017889 C 137.17302,63.487294 109.10738,129.84726 20.738179,109.30817 C 19.145543,108.39485 10.003668,100.27403 8.2760761,98.267454 C 7.2323384,95.806485 5.3743268,89.746301 9.4774545,87.019956 C 45.798109,72.547121 91.548315,86.508120 105.78376,39.984089 C 108.11885,31.926401 104.35330,22.401958 104.35330,22.401958 z " />
    <path
       id="path2172"
       style="fill:url(#linearGradient2180);fill-rule:evenodd;stroke-width:1.0000000pt"
       d="M 10.836090,92.031865 L 11.115076,88.297695 C 36.822565,74.765016 89.402243,90.102798 107.74082,40.852422 C 99.763644,75.134740 81.101480,97.786993 10.836090,92.031865 z " />
    <path
       id="path2176"
       style="fill:#442400;fill-rule:evenodd;stroke-width:1.0000000pt"
       d="M 8.1063239,96.850314 C 7.1733125,91.528407 6.6833672,89.795735 9.5583265,87.647685 C 11.153513,89.500474 11.672566,95.783559 8.1063239,96.850314 z " />
    <path
       id="path2178"
       style="fill:url(#linearGradient2182);fill-opacity:1;fill-rule:evenodd;stroke-width:1.0000000pt"
       d="M 39.818439,111.02254 C 105.57130,119.18457 122.24427,76.245258 124.91770,66.110058 C 130.03773,53.638881 124.40963,41.014600 124.40963,41.014600 C 128.90363,80.416945 91.637902,117.20483 39.818439,111.02254 z " />
  </g>
  <path
     id="path3021"
     style="fill:#442400;fill-rule:evenodd;stroke-width:1.0000000pt"
     d="M 103.60252,18.558719 C 102.19750,13.510077 117.30264,11.457789 117.56290,17.183224 C 115.40321,19.019941 111.07850,23.229265 103.60252,18.558719 z " />
  <path
     id="path2186"
     style="fill:#000000;fill-opacity:1;fill-rule:evenodd;stroke:none"
     d="m 112.4375,11 c -4.20056,0.314061 -8.70576,2.088334 -11.2129,5.600216 -1.793017,3.424065 2.49195,5.921557 2.31743,9.445149 1.27037,5.216052 1.07878,10.796298 -1.09558,15.748729 C 98.878993,52.000008 92.178411,61.529488 82.524578,66.659081 69.701644,73.581582 54.677084,74.584175 40.513827,76.701841 29.472269,78.306487 18.302915,80.123764 7.9375,84.40625 3.8315142,87.147382 4.2950838,92.879362 5.9965621,96.894585 c 1.8733676,3.218945 5.2856089,5.288595 7.8944789,7.912045 2.128023,2.36915 5.391684,4.14081 7.616646,5.5689 0.744056,3.88676 4.123353,5.92098 7.227879,7.80955 3.251539,1.95267 6.36567,4.27631 9.889434,5.68992 2.989993,0.28757 3.405346,5.31215 7.087057,5.68255 4.390788,1.94519 8.735305,4.22938 13.381693,5.44245 21.763036,-1.83037 43.90182,-7.86677 61.26912,-21.6028 15.03116,-11.74284 25.58584,-29.645094 26.71805,-48.864678 0.50139,-9.500379 -0.96067,-19.949158 -7.5164,-27.296606 -2.03185,-3.32092 -5.71929,-5.535827 -9.70541,-5.037043 -3.51065,0.486398 -4.72122,-5.143738 -6.62856,-7.570429 -1.0846,-2.870087 -6.64767,-3.130904 -3.94695,-6.111957 0.84116,-3.9687 -1.61483,-5.223482 -3.43985,-6.766487 -1.23147,0.112588 -2.10666,-0.844859 -3.40625,-0.75 z m 0.375,2.90625 c 1.75874,0.794862 5.3464,2.076064 3.49738,4.92713 -1.32246,3.340313 5.19652,7.631142 6.17596,10.592485 2.12246,3.314133 1.74677,4.719748 5.92346,5.867279 3.36691,-0.763522 7.10496,0.362696 8.74667,3.540097 5.82094,6.439833 7.23404,15.588846 7.06278,23.979259 -0.63203,19.466043 -11.46676,37.68999 -26.88697,49.23117 -16.69124,12.66688 -37.631712,18.21556 -58.23803,19.98758 C 54.17864,130.27319 49.401464,128.11498 44.75,125.75 42.91995,123.62919 42.297951,120.03012 38.776142,120.79777 34.272064,118.32726 29.925028,115.55436 25.75,112.5625 24.129568,110.05189 24.199073,106.13652 20.333642,106.34494 16.28421,103.15482 12.423712,99.710449 8.8125,96.03125 7.4740773,92.986284 6.5302815,87.579145 10.753126,86.455336 30.76019,78.941097 52.85364,80.19106 73.137454,73.783826 84.082307,70.372628 94.022202,63.258763 100.05538,53.359697 c 3.272,-5.438457 6.04624,-11.369727 7.07916,-17.669836 0.55777,-5.260817 -0.32021,-10.683219 -2.33752,-15.553811 -3.28448,-2.142721 1.90414,-4.625715 3.84919,-5.275419 1.27753,-0.488034 3.06475,-0.971552 4.16629,-0.954381 z"
     inkscape:connector-curvature="0"
     sodipodi:nodetypes="cccccccccccccccccccccccccccccccccccccccccc" />
  <path
     id="path3023"
     style="fill:#000000;fill-opacity:1.0000000;fill-rule:evenodd;stroke:none;stroke-width:1.0000000px;stroke-linecap:butt;stroke-linejoin:miter;stroke-opacity:1.0000000"
     d="M 113.05942,46.184419 C 112.21150,56.946501 106.78010,64.530040 99.593750,70.968750 C 92.407398,77.407460 82.925017,82.146832 73.000000,86.031250 C 63.074983,89.915668 52.708282,92.955587 43.750000,96.031250 C 34.791718,99.106913 25.932511,100.35223 21.585827,106.34375 L 25.442342,106.27025 C 28.754108,101.30227 35.432645,100.56122 44.357835,97.496919 C 53.283025,94.432618 63.922817,91.138910 73.903169,87.232835 C 83.883521,83.326760 92.919957,78.286202 100.25000,71.718750 C 107.58004,65.151298 112.66262,56.743640 113.53125,45.718750 L 113.05942,46.184419 z " />
  <path
     id="path3025"
     style="fill:#000000;fill-opacity:1.0000000;fill-rule:evenodd;stroke:none;stroke-width:1.0000000px;stroke-linecap:butt;stroke-linejoin:miter;stroke-opacity:1.0000000"
     d="M 121.14525,49.464349 C 119.56582,49.092941 121.15963,47.900428 121.03494,48.863797 C 121.25358,57.122539 117.54584,63.976457 112.53842,70.502188 C 105.70097,79.508887 96.911612,86.698291 87.224854,92.279187 C 75.841232,98.836594 63.711465,103.99034 52.377157,110.63443 C 48.364628,113.08773 43.010545,116.80307 40.054577,120.52509 C 41.041333,121.93585 43.477968,119.55705 44.348361,119.01187 C 49.731156,113.85480 55.961431,109.69312 62.491724,106.24210 C 76.538855,99.023455 90.899730,93.569384 103.04395,82.308669 C 110.67950,76.170734 116.37254,69.354538 119.07055,59.761075 C 120.27101,55.570435 121.46098,53.807697 121.14525,49.464349 z " />
  <path
     id="path3034"
     style="fill:#000000;fill-opacity:1.0000000;fill-rule:evenodd;stroke:none;stroke-width:1.0000000px;stroke-linecap:butt;stroke-linejoin:miter;stroke-opacity:1.0000000"
     d="M 113.19058,26.167254 L 112.84375,25.843750 C 112.84375,25.843750 114.56911,28.939434 116.34375,32.718750 C 118.11839,36.498066 119.93947,41.020638 120.18750,43.625000 L 120.65933,43.531250 C 120.37919,40.589837 119.04051,36.125613 117.25000,32.312500 C 115.45949,28.499387 113.19058,26.167254 113.19058,26.167254 z " />
  <path
     id="path3036"
     style="fill:#000000;fill-opacity:1.0000000;fill-rule:evenodd;stroke:none;stroke-width:1.0000000px;stroke-linecap:butt;stroke-linejoin:miter;stroke-opacity:1.0000000"
     d="M 111.65625,27.843750 C 111.33333,27.937500 111.80267,27.503081 111.47975,27.596831 C 112.27510,30.320549 112.20398,33.597430 112.74328,36.384263 C 112.98336,37.694958 113.22854,39.022508 113.15857,40.360979 C 113.19773,40.505933 112.99053,40.494239 113.19671,40.523665 C 113.47489,40.625665 114.19338,39.542617 114.11169,38.774715 C 113.73412,35.693637 112.97484,32.676227 112.17207,29.682883 C 112.00490,29.068518 111.83426,28.455068 111.65625,27.843750 z " />
  <metadata
     id="metadata42">
    <rdf:RDF>
      <cc:Work
         rdf:about="">
        <dc:title>bananas</dc:title>
        <dc:description />
        <dc:subject>
          <rdf:Bag>
            <rdf:li />
          </rdf:Bag>
        </dc:subject>
        <dc:publisher>
          <cc:Agent>
            <dc:title />
          </cc:Agent>
        </dc:publisher>
        <dc:creator>
          <cc:Agent>
            <dc:title>Nicu Buculei</dc:title>
          </cc:Agent>
        </dc:creator>
        <dc:rights>
          <cc:Agent>
            <dc:title>Nicu Buculei</dc:title>
          </cc:Agent>
        </dc:rights>
        <dc:date />
        <dc:format>image/svg+xml</dc:format>
        <dc:type
           rdf:resource="http://purl.org/dc/dcmitype/StillImage" />
        <cc:license
           rdf:resource="" />
        <dc:language>en</dc:language>
      </cc:Work>
    </rdf:RDF>
  </metadata>
</svg>
