<?xml version="1.0" encoding="UTF-8" standalone="no"?>
<!-- Created with Inkscape (http://www.inkscape.org/) -->
<svg
   xmlns:dc="http://purl.org/dc/elements/1.1/"
   xmlns:cc="http://creativecommons.org/ns#"
   xmlns:rdf="http://www.w3.org/1999/02/22-rdf-syntax-ns#"
   xmlns:svg="http://www.w3.org/2000/svg"
   xmlns="http://www.w3.org/2000/svg"
   xmlns:xlink="http://www.w3.org/1999/xlink"
   xmlns:sodipodi="http://sodipodi.sourceforge.net/DTD/sodipodi-0.dtd"
   xmlns:inkscape="http://www.inkscape.org/namespaces/inkscape"
   width="400"
   height="400"
   id="svg2"
   sodipodi:version="0.32"
   inkscape:version="0.45+devel"
   sodipodi:docname="banana.svg"
   inkscape:output_extension="org.inkscape.output.svg.inkscape"
   version="1.0">
  <defs
     id="defs4">
    <linearGradient
       id="linearGradient2428">
      <stop
         id="stop2430"
         offset="0"
         style="stop-color:#ffffff;stop-opacity:0;" />
      <stop
         style="stop-color:#ffffff;stop-opacity:0.26517573;"
         offset="0.43763012"
         id="stop2432" />
      <stop
         id="stop2434"
         offset="1"
         style="stop-color:#ffffff;stop-opacity:0;" />
    </linearGradient>
    <linearGradient
       id="linearGradient4743">
      <stop
         id="stop4745"
         offset="0"
         style="stop-color:#a05a2c;stop-opacity:0;" />
      <stop
         style="stop-color:#a05a2c;stop-opacity:0.55910546;"
         offset="0.39432615"
         id="stop4747" />
      <stop
         id="stop4749"
         offset="0.56942344"
         style="stop-color:#a05a2c;stop-opacity:0.65814698;" />
      <stop
         id="stop4751"
         offset="1"
         style="stop-color:#a05a2c;stop-opacity:0;" />
    </linearGradient>
    <linearGradient
       id="linearGradient4715">
      <stop
         style="stop-color:#a05a2c;stop-opacity:0;"
         offset="0"
         id="stop4717" />
      <stop
         id="stop4723"
         offset="0.2871727"
         style="stop-color:#a05a2c;stop-opacity:0.55910546;" />
      <stop
         style="stop-color:#a05a2c;stop-opacity:0.65814698;"
         offset="0.56942344"
         id="stop4725" />
      <stop
         style="stop-color:#a05a2c;stop-opacity:0;"
         offset="1"
         id="stop4719" />
    </linearGradient>
    <linearGradient
       id="linearGradient4197">
      <stop
         style="stop-color:#000000;stop-opacity:0.12140575;"
         offset="0"
         id="stop4199" />
      <stop
         style="stop-color:#000000;stop-opacity:0;"
         offset="1"
         id="stop4201" />
    </linearGradient>
    <linearGradient
       id="linearGradient4187">
      <stop
         style="stop-color:#ffffff;stop-opacity:0;"
         offset="0"
         id="stop4189" />
      <stop
         id="stop4195"
         offset="0.66214466"
         style="stop-color:#ffffff;stop-opacity:0.26517573;" />
      <stop
         style="stop-color:#ffffff;stop-opacity:0;"
         offset="1"
         id="stop4191" />
    </linearGradient>
    <linearGradient
       id="linearGradient4157">
      <stop
         style="stop-color:#af9e79;stop-opacity:1;"
         offset="0"
         id="stop4159" />
      <stop
         style="stop-color:#d9be84;stop-opacity:1;"
         offset="1"
         id="stop4161" />
    </linearGradient>
    <linearGradient
       inkscape:collect="always"
       id="linearGradient4142">
      <stop
         style="stop-color:#d0c149;stop-opacity:1;"
         offset="0"
         id="stop4144" />
      <stop
         style="stop-color:#d0c149;stop-opacity:0;"
         offset="1"
         id="stop4146" />
    </linearGradient>
    <linearGradient
       inkscape:collect="always"
       id="linearGradient3748">
      <stop
         style="stop-color:#c3e449;stop-opacity:1;"
         offset="0"
         id="stop3750" />
      <stop
         style="stop-color:#c3e449;stop-opacity:0;"
         offset="1"
         id="stop3752" />
    </linearGradient>
    <linearGradient
       inkscape:collect="always"
       xlink:href="#linearGradient3748"
       id="linearGradient3754"
       x1="93.75"
       y1="168.5"
       x2="119"
       y2="173.5"
       gradientUnits="userSpaceOnUse"
       gradientTransform="translate(-7,54)" />
    <linearGradient
       inkscape:collect="always"
       xlink:href="#linearGradient4142"
       id="linearGradient4148"
       x1="90.86322"
       y1="164.58905"
       x2="105.35891"
       y2="172.72078"
       gradientUnits="userSpaceOnUse"
       gradientTransform="translate(-7,54)" />
    <linearGradient
       inkscape:collect="always"
       xlink:href="#linearGradient3748"
       id="linearGradient4155"
       x1="342.99689"
       y1="55.061291"
       x2="333.45096"
       y2="77.335152"
       gradientUnits="userSpaceOnUse"
       gradientTransform="translate(-7,54)" />
    <linearGradient
       inkscape:collect="always"
       xlink:href="#linearGradient4157"
       id="linearGradient4163"
       x1="58"
       y1="160"
       x2="57.836811"
       y2="140"
       gradientUnits="userSpaceOnUse"
       gradientTransform="translate(-7,54)" />
    <linearGradient
       inkscape:collect="always"
       xlink:href="#linearGradient4157"
       id="linearGradient4167"
       x1="344.36099"
       y1="57.462376"
       x2="350.19464"
       y2="50.568085"
       gradientUnits="userSpaceOnUse"
       gradientTransform="translate(-7,54)" />
    <linearGradient
       inkscape:collect="always"
       xlink:href="#linearGradient4187"
       id="linearGradient4193"
       x1="174"
       y1="169"
       x2="304"
       y2="97"
       gradientUnits="userSpaceOnUse"
       gradientTransform="translate(-7,54)" />
    <linearGradient
       inkscape:collect="always"
       xlink:href="#linearGradient4197"
       id="linearGradient4203"
       x1="203"
       y1="222"
       x2="174"
       y2="121"
       gradientUnits="userSpaceOnUse"
       gradientTransform="translate(-7,54)" />
    <linearGradient
       inkscape:collect="always"
       xlink:href="#linearGradient4197"
       id="linearGradient4205"
       x1="65.53125"
       y1="185.28125"
       x2="81.90625"
       y2="165.35938"
       gradientUnits="userSpaceOnUse"
       gradientTransform="translate(-7,54)" />
    <linearGradient
       inkscape:collect="always"
       xlink:href="#linearGradient4187"
       id="linearGradient4207"
       x1="68.40625"
       y1="175.84375"
       x2="82.869583"
       y2="140.28125"
       gradientUnits="userSpaceOnUse"
       gradientTransform="translate(-7,54)" />
    <linearGradient
       inkscape:collect="always"
       xlink:href="#linearGradient4187"
       id="linearGradient4209"
       x1="330.625"
       y1="53.786488"
       x2="345.16858"
       y2="51.802746"
       gradientUnits="userSpaceOnUse"
       gradientTransform="translate(-7,54)" />
    <linearGradient
       inkscape:collect="always"
       xlink:href="#linearGradient4197"
       id="linearGradient4211"
       x1="348.78125"
       y1="58.203125"
       x2="352.23776"
       y2="58.203125"
       gradientUnits="userSpaceOnUse"
       gradientTransform="translate(-7,54)" />
    <filter
       inkscape:collect="always"
       id="filter4711"
       x="-0.11180146"
       width="1.2236029"
       y="-0.20224649"
       height="1.404493">
      <feGaussianBlur
         inkscape:collect="always"
         stdDeviation="12.97591"
         id="feGaussianBlur4713" />
    </filter>
    <linearGradient
       inkscape:collect="always"
       xlink:href="#linearGradient4715"
       id="linearGradient4721"
       x1="316.58041"
       y1="104.64957"
       x2="322.63693"
       y2="111.69006"
       gradientUnits="userSpaceOnUse"
       gradientTransform="translate(-7,54)" />
    <linearGradient
       inkscape:collect="always"
       xlink:href="#linearGradient4715"
       id="linearGradient4729"
       x1="303.45569"
       y1="68.952858"
       x2="307.94501"
       y2="75.603081"
       gradientUnits="userSpaceOnUse"
       gradientTransform="translate(-7,54)" />
    <linearGradient
       inkscape:collect="always"
       xlink:href="#linearGradient4715"
       id="linearGradient4733"
       x1="277.9986"
       y1="172.33276"
       x2="284.2984"
       y2="182.40903"
       gradientUnits="userSpaceOnUse"
       gradientTransform="translate(-7,54)" />
    <linearGradient
       inkscape:collect="always"
       xlink:href="#linearGradient4715"
       id="linearGradient4739"
       x1="210.32504"
       y1="191.88364"
       x2="212.27365"
       y2="197.92017"
       gradientUnits="userSpaceOnUse"
       gradientTransform="translate(-7,54)" />
    <linearGradient
       inkscape:collect="always"
       xlink:href="#linearGradient4743"
       id="linearGradient4741"
       x1="241.11838"
       y1="170.75"
       x2="244.2791"
       y2="175.41803"
       gradientUnits="userSpaceOnUse"
       gradientTransform="translate(-7,54)" />
    <linearGradient
       inkscape:collect="always"
       xlink:href="#linearGradient2428"
       id="linearGradient2426"
       x1="231.22392"
       y1="116.15223"
       x2="258.09396"
       y2="148.32559"
       gradientUnits="userSpaceOnUse"
       gradientTransform="translate(-7,54)" />
    <linearGradient
       inkscape:collect="always"
       xlink:href="#linearGradient4197"
       id="linearGradient2438"
       gradientUnits="userSpaceOnUse"
       x1="262.69016"
       y1="158.22508"
       x2="260.56885"
       y2="152.92178"
       gradientTransform="translate(-7,54)" />
    <filter
       inkscape:collect="always"
       id="filter3043">
      <feGaussianBlur
         inkscape:collect="always"
         stdDeviation="1.0778792"
         id="feGaussianBlur3045" />
    </filter>
  </defs>
  <sodipodi:namedview
     id="base"
     pagecolor="#ffffff"
     bordercolor="#666666"
     borderopacity="1.0"
     gridtolerance="10000"
     guidetolerance="10"
     objecttolerance="10"
     inkscape:pageopacity="0.0"
     inkscape:pageshadow="2"
     inkscape:zoom="1"
     inkscape:cx="200"
     inkscape:cy="200"
     inkscape:document-units="px"
     inkscape:current-layer="layer3"
     inkscape:window-width="1152"
     inkscape:window-height="793"
     inkscape:window-x="0"
     inkscape:window-y="24"
     width="400px"
     height="400px" />
  <metadata
     id="metadata7">
    <rdf:RDF>
      <cc:Work
         rdf:about="">
        <dc:format>image/svg+xml</dc:format>
        <dc:type
           rdf:resource="http://purl.org/dc/dcmitype/StillImage" />
      </cc:Work>
    </rdf:RDF>
  </metadata>
  <g
     inkscape:groupmode="layer"
     id="layer3"
     inkscape:label="shadow"
     style="display:inline">
    <path
       style="fill:#000000;fill-opacity:0.58215966;fill-rule:evenodd;stroke:none;stroke-width:1px;stroke-linecap:butt;stroke-linejoin:miter;stroke-opacity:1;filter:url(#filter4711)"
       d="M 84,274 C 80.678281,280.64344 122.88842,291.64007 146,285 C 158.01498,281.54804 225.13924,283.35328 290,229 C 311.70583,210.81053 341,181 343,169 C 347.85908,146.62126 355.39899,128.75115 327,147 C 298,166 246,201 225,213 C 204,225 155,262 132,262 C 109,262 76,262 69,258 C 62,254 50,261 84,274 z"
       id="path4244"
       sodipodi:nodetypes="cssccsssc" />
  </g>
  <g
     inkscape:groupmode="layer"
     id="layer2"
     inkscape:label="color"
     style="display:inline">
    <path
       style="fill:#ffe349;fill-opacity:1;fill-rule:evenodd;stroke:none;stroke-width:1px;stroke-linecap:butt;stroke-linejoin:miter;stroke-opacity:1"
       d="M 334,104.25 C 328.08982,105.01278 326.65614,103.26924 316.53125,109.15625 C 255.87548,165.81985 171.58257,206.32267 90,212.875 C 72.02766,207.39663 67.785678,193.14799 60.6875,184.78125 C 52.914199,180.43218 45.752055,185.1102 38.875,189.375 C 39.66001,206.67996 39.08398,226.81735 46.625,230.0625 C 66.66047,230.64952 71.50525,236.63184 83.71875,240 C 107.56615,265.16342 129.02715,279.53435 152.21875,283.21875 C 175.49084,286.91593 200.63538,281.8917 222.25,271.03125 C 265.47923,249.31033 303.12632,203.92593 334.6875,166.75 C 340.65289,158.66821 343.91077,146.88568 346.40625,136.5 C 348.24723,125.45312 348.64873,111.13741 342.09375,105.84375 C 342.0034,105.60433 341.20039,105.17692 341.09375,104.9375 C 338.73888,104.59656 336.37774,104.34778 334,104.25 z"
       id="path2383" />
    <path
       style="fill:url(#linearGradient3754);fill-opacity:1;fill-rule:evenodd;stroke:none;stroke-width:1px;stroke-linecap:butt;stroke-linejoin:miter;stroke-opacity:1"
       d="M 58.875,183.9375 C 59.116495,184.03141 59.351087,184.13941 59.59375,184.25 C 59.352741,184.1401 59.114937,184.03094 58.875,183.9375 z M 60.6875,184.78125 C 61.311738,185.51705 60.939913,185.58943 61.53125,186.40625 C 64.095314,197.53443 61.954045,203.54499 62.125,212.0625 L 58.9375,219.8125 L 50.8125,227.78125 L 47.1875,230.09375 C 66.734554,230.77885 71.624793,236.66481 83.71875,240 C 88.07983,244.60175 92.367108,248.83822 96.59375,252.71875 C 103.24539,250.14418 109.71746,242.8962 107.5,233.75 C 110.40846,225.83274 111.46476,215.91045 101.25,211.71875 C 97.49451,212.16114 93.74661,212.57409 90,212.875 C 72.02766,207.39663 67.785678,193.14799 60.6875,184.78125 z"
       id="path2978"
       sodipodi:nodetypes="csccccccccccccc" />
    <path
       style="fill:url(#linearGradient4163);fill-opacity:1;fill-rule:evenodd;stroke:none;stroke-width:1px;stroke-linecap:butt;stroke-linejoin:miter;stroke-opacity:1"
       d="M 53.5625,183.0625 C 48.45907,183.31753 43.602975,186.44295 38.875,189.375 C 39.66001,206.67996 39.08398,226.81735 46.625,230.0625 C 46.821102,230.06825 46.994287,230.08698 47.1875,230.09375 L 50.8125,227.78125 L 58.9375,219.8125 L 62.125,212.0625 C 61.954045,203.54499 64.091792,197.54607 61.527728,186.41789 C 60.936388,185.60107 61.311738,185.51705 60.6875,184.78125 C 58.258343,183.42217 55.882241,182.94658 53.5625,183.0625 z"
       id="path2973"
       sodipodi:nodetypes="cccccccccc" />
    <path
       style="fill:url(#linearGradient4148);fill-opacity:1;fill-rule:evenodd;stroke:none;stroke-width:1px;stroke-linecap:butt;stroke-linejoin:miter;stroke-opacity:1"
       d="M 58.875,183.9375 C 59.116495,184.03141 59.351087,184.13941 59.59375,184.25 C 59.352741,184.1401 59.114937,184.03094 58.875,183.9375 z M 60.6875,184.78125 C 61.311738,185.51705 60.939913,185.58943 61.53125,186.40625 C 64.095314,197.53443 61.954045,203.54499 62.125,212.0625 L 58.9375,219.8125 L 50.8125,227.78125 L 47.1875,230.09375 C 66.576038,230.77329 71.556081,236.55758 83.4375,239.90625 L 87.5625,235.21875 L 90.21875,230.25 L 90.40625,217 L 89.28125,212.65625 C 71.914119,207.02091 67.689877,193.03507 60.6875,184.78125 z"
       id="path3756" />
    <path
       style="fill:url(#linearGradient4155);fill-opacity:1;fill-rule:evenodd;stroke:none;stroke-width:1px;stroke-linecap:butt;stroke-linejoin:miter;stroke-opacity:1"
       d="M 334,104.25 C 328.08982,105.01278 326.65614,103.26924 316.53125,109.15625 C 314.44197,111.11093 312.32038,113.03062 310.1875,114.9375 C 315.81064,112.11847 311.88304,145.41607 339.84375,122.0625 C 339.09765,132.74219 343.7439,132.63719 346.40625,136.5 C 348.24723,125.45312 348.64873,111.13741 342.09375,105.84375 C 342.0034,105.60433 341.20039,105.17692 341.09375,104.9375 C 338.73888,104.59656 336.37774,104.34778 334,104.25 z"
       id="path4150"
       sodipodi:nodetypes="cccccccc" />
    <path
       style="fill:url(#linearGradient4167);fill-rule:evenodd;stroke:none;stroke-width:1px;stroke-linecap:butt;stroke-linejoin:miter;stroke-opacity:1"
       d="M 322.46856,106.80276 L 328.16861,104.74486 L 335.41646,104.56808 L 341.25009,105.27519 L 343.37141,107.75006 C 345.30482,111.58788 346.04168,115.4257 346.96362,119.26352 L 341.9572,111.10882 L 335.23968,108.81072 L 322.46856,106.80276 z"
       id="path4165"
       sodipodi:nodetypes="ccccccccc" />
    <path
       style="fill:url(#linearGradient4193);fill-opacity:1;fill-rule:evenodd;stroke:none;stroke-width:1px;stroke-linecap:butt;stroke-linejoin:miter;stroke-opacity:1"
       d="M 322.53125,107.46875 C 328.21698,107.25052 335.4111,109.49603 341.40625,111.40625 C 339.24502,124.00964 335.44523,136.19937 328.21875,146.78125 C 328.20971,146.79202 328.19656,146.80175 328.1875,146.8125 C 292.01828,180.23112 255.01876,206.10853 222.97579,222.01164 C 186.60411,240.06311 143.1014,242.20375 90.59375,230.09375 C 91.197363,224.70583 91.045634,219.0338 89.8125,213.71875 C 171.43718,207.01619 255.03961,168.3927 315.71875,111.75 C 318.70495,110.02857 320.56294,108.56305 322.53125,107.46875 z"
       id="path4179"
       sodipodi:nodetypes="ccccscccc" />
    <path
       style="fill:url(#linearGradient4203);fill-opacity:1;fill-rule:evenodd;stroke:none;stroke-width:1px;stroke-linecap:butt;stroke-linejoin:miter;stroke-opacity:1"
       d="M 342.1875,112.09375 C 343.70299,114.27202 344.75402,115.48138 346.125,118.5625 C 346.58007,124.09091 345.65901,130.17048 344.6875,136 C 342.82317,147.1869 338.64314,158.38779 333.90625,166.09375 C 333.89485,166.1123 333.88641,166.13774 333.875,166.15625 C 302.33499,203.30508 264.02777,248.9179 221.08211,270.49632 C 199.59972,281.29033 176.81539,285.88454 153.79105,282.22671 C 130.86593,278.58464 107.84758,264.61574 84.125,239.625 C 86.74842,237.44793 88.201728,233.92958 90.4375,230.5625 C 143.03083,242.67121 183.25971,239.05524 220.91697,223.45006 C 258.63464,207.81986 293.41394,180.61599 329.625,147.15625 C 335.75322,136.40006 341.08779,124.59723 342.1875,112.09375 z"
       id="path4177"
       sodipodi:nodetypes="ccsscssccscc" />
    <path
       style="fill:url(#linearGradient4207);fill-opacity:1;fill-rule:evenodd;stroke:none;stroke-width:1px;stroke-linecap:butt;stroke-linejoin:miter;stroke-opacity:1"
       d="M 61.40625,186.71875 C 69.745691,195.9704 71.737097,208.22032 88.59375,213.4375 C 90.783338,218.65451 90.421581,224.3198 90.0625,229.84375 C 80.802577,223.77452 72.527377,220.59415 62.53125,211.3125 C 62.175188,203.12016 64.385032,195.50716 61.40625,186.71875 z"
       id="path4173" />
    <path
       style="fill:url(#linearGradient4205);fill-opacity:1;fill-rule:evenodd;stroke:none;stroke-width:1px;stroke-linecap:butt;stroke-linejoin:miter;stroke-opacity:1"
       d="M 61.8125,213.4375 C 65.981638,214.82143 80.44243,225.24379 89.90625,230.3125 C 88.295815,233.66251 86.7212,237.03917 83.78125,239.28125 C 72.02788,235.94509 61.8583,228.52585 48.53125,229.28125 C 62.904008,220.65498 58.849353,218.40982 61.8125,213.4375 z"
       id="path4169" />
    <path
       style="fill:url(#linearGradient4211);fill-opacity:1;fill-rule:evenodd;stroke:none;stroke-width:1px;stroke-linecap:butt;stroke-linejoin:miter;stroke-opacity:1"
       d="M 341.78125,106.875 C 344.33677,109.89505 345.56835,113.56027 346.03125,117.53125 L 342.25,111.125 C 342.28919,109.70298 342.16602,108.29702 341.78125,106.875 z"
       id="path4181" />
    <path
       style="fill:url(#linearGradient4209);fill-opacity:1;fill-rule:evenodd;stroke:none;stroke-width:1px;stroke-linecap:butt;stroke-linejoin:miter;stroke-opacity:1"
       d="M 340,105.8125 C 341.39333,105.43364 341.7994,107.57636 341.5625,110.25 C 335.38959,107.20293 329.51628,107.61701 323.625,106.90625 C 328.77535,104.67122 334.55846,105.30382 340,105.8125 z"
       id="path4183" />
    <path
       style="fill:url(#linearGradient4721);fill-opacity:1;fill-rule:evenodd;stroke:none;stroke-width:1px;stroke-linecap:butt;stroke-linejoin:miter;stroke-opacity:1"
       d="M 327.40625,145.0625 C 319.50491,146.62752 316.39698,155.40375 309.84375,159.3125 C 306.97604,163.25306 300.1206,165.51059 300.4375,171.15625 C 307.11203,175.45253 312.64072,167.20011 316.125,162.625 C 320.25735,159.58806 324.08033,156.4611 327.59375,152.90625 C 330.83482,151.32234 332.98426,143.90646 327.40625,145.0625 z"
       id="path4217" />
    <path
       style="fill:url(#linearGradient4729);fill-rule:evenodd;stroke:none;stroke-width:1px;stroke-linecap:butt;stroke-linejoin:miter;stroke-opacity:1"
       d="M 302.00566,122.95286 L 291.39906,131.26136 C 291.39906,131.26136 289.45452,132.85235 290.51518,134.26657 C 291.57584,135.68078 298.29335,130.02393 302.71277,123.65997 L 302.71277,123.30641"
       id="path4727"
       sodipodi:nodetypes="ccscc" />
    <path
       style="fill:url(#linearGradient4733);fill-rule:evenodd;stroke:none;stroke-width:1px;stroke-linecap:butt;stroke-linejoin:miter;stroke-opacity:1"
       d="M 267.53421,238.74159 L 284.68155,222.47814 C 284.68155,222.47814 285.91898,219.11938 285.21188,217.52839 C 284.50477,215.9374 256.57405,239.27192 267.53421,238.74159 z"
       id="path4731" />
    <path
       style="fill:url(#linearGradient4739);fill-rule:evenodd;stroke:none;stroke-width:1px;stroke-linecap:butt;stroke-linejoin:miter;stroke-opacity:1"
       d="M 207.25,248 C 205.11812,246.57875 198.38561,247.50708 199.5,250.5 C 200.16436,252.28427 207.75,253.25 207.25,248 z"
       id="path4735"
       sodipodi:nodetypes="csc" />
    <path
       style="fill:url(#linearGradient4741);fill-rule:evenodd;stroke:none;stroke-width:1px;stroke-linecap:butt;stroke-linejoin:miter;stroke-opacity:1"
       d="M 239,224.75 C 239,224.75 231.54584,226.09168 232.75,228.5 C 233.75,230.5 239.48542,229.22422 239,224.75 z"
       id="path4737"
       sodipodi:nodetypes="csc" />
  </g>
  <g
     inkscape:groupmode="layer"
     id="layer4"
     inkscape:label="label">
    <path
       sodipodi:nodetypes="ccccccsssssc"
       id="path2440"
       d="M 253.94914,161.68566 C 252.26138,161.6998 250.52704,161.80776 248.76164,162.02941 L 248.73039,162.02941 L 238.54289,167.56066 L 225.79289,174.31066 L 215.01164,179.21691 C 205.61887,189.03582 201.66667,200.97184 205.98039,210.15441 C 209.16719,216.93812 216.24708,220.90811 225.04279,221.80594 C 233.407,222.65972 236.82279,224.73538 246.41789,219.81066 C 258.09869,213.81544 273.19972,200.70779 276.96415,191.52724 C 279.54377,185.23617 279.8522,178.91087 277.32414,173.52941 C 273.63264,165.67135 264.70047,161.59557 253.94914,161.68566 z"
       style="fill:#000000;fill-opacity:0.74647887;stroke:none;stroke-width:1;stroke-linecap:square;stroke-linejoin:miter;stroke-miterlimit:4;stroke-dasharray:none;stroke-dashoffset:0;stroke-opacity:1;filter:url(#filter3043)" />
    <path
       style="fill:#072b61;fill-opacity:1;stroke:none;stroke-width:1;stroke-linecap:square;stroke-linejoin:miter;stroke-miterlimit:4;stroke-dasharray:none;stroke-dashoffset:0;stroke-opacity:1"
       d="M 254.65625,160.625 C 252.96849,160.63914 251.23415,160.7471 249.46875,160.96875 L 249.4375,160.96875 L 239.25,166.5 L 226.5,173.25 L 215.71875,178.15625 C 206.32598,187.97516 202.37378,199.91118 206.6875,209.09375 C 209.8743,215.87746 216.95419,219.84745 225.7499,220.74528 C 234.11411,221.59906 237.5299,223.67472 247.125,218.75 C 258.8058,212.75478 273.90683,199.64713 277.67126,190.46658 C 280.25088,184.17551 280.55931,177.85021 278.03125,172.46875 C 274.33975,164.61069 265.40758,160.53491 254.65625,160.625 z"
       id="path2368"
       sodipodi:nodetypes="ccccccsssssc" />
    <path
       style="fill:#ffffff;fill-opacity:1;stroke:none;stroke-width:1.19733882;stroke-linecap:square;stroke-linejoin:miter;stroke-miterlimit:4;stroke-dasharray:none;stroke-dashoffset:0;stroke-opacity:1"
       d="M 211.02597,206.85086 C 213.66319,212.46468 219.64637,215.64981 227.00712,216.32179 C 230.38287,216.62997 234.06454,216.41885 237.88927,215.67508 C 242.40429,214.79709 244.11866,215.92683 248.76445,213.54236 C 256.2731,209.68852 265.38005,201.71589 269.46386,196.11671 C 270.04726,195.31683 270.58937,194.50926 271.08838,193.6969 C 275.08047,187.19803 276.29684,180.3177 273.65962,174.70387 C 271.02241,169.09006 265.08471,165.92017 257.72395,165.24819 C 250.36321,164.57623 241.54793,166.37324 232.96663,170.77763 C 224.38532,175.18202 217.63479,181.37422 213.6427,187.87308 C 209.65061,194.37195 208.38876,201.23704 211.02597,206.85086 z M 212.22987,206.23295 C 209.83407,201.13304 210.89661,194.78754 214.72747,188.55113 C 218.55834,182.31473 225.14101,176.2605 233.52165,171.9591 C 241.90229,167.6577 250.4796,165.93101 257.54308,166.57584 C 264.60658,167.22067 270.09079,170.20602 272.48659,175.30593 C 274.8824,180.40586 273.789,186.7672 269.95812,193.00361 C 269.08897,194.41853 268.07976,195.82325 266.94091,197.19981 C 263.06016,201.89058 255.67406,208.75429 249.19482,212.07979 C 245.64162,213.90348 244.04752,212.76721 240.54758,213.68402 C 235.7925,214.92963 231.21124,215.35034 227.14251,214.9789 C 220.07903,214.33407 214.62568,211.33287 212.22987,206.23295 z"
       id="path2370"
       sodipodi:nodetypes="csssssssssccsssssssssc" />
    <path
       style="font-size:7.06221294px;font-style:normal;font-weight:normal;fill:#ffffff;fill-opacity:1;stroke:none;stroke-width:1px;stroke-linecap:butt;stroke-linejoin:miter;stroke-opacity:1;font-family:Arial"
       d="M 255.22044,205.60208 C 253.91452,204.291 251.06518,198.80932 254.36427,202.63188 C 254.8873,203.41307 255.98494,204.5459 255.22044,205.60208 z M 255.15217,202.18197 C 251.1536,197.99146 261.73152,194.07839 260.5928,200.41069 C 260.24013,203.01214 256.63594,204.52766 255.15217,202.18197 z M 255.84776,201.62353 C 260.48253,205.64836 260.80113,194.06133 255.60424,198.66301 C 254.94355,199.58058 254.89758,201.00123 255.84776,201.62353 z M 262.16826,200.18466 C 260.94178,198.4949 257.87692,192.60724 262.70742,194.56377 C 264.93366,194.81268 267.13963,196.27239 263.50077,196.24797 C 261.1587,196.74673 263.03726,199.33926 262.16826,200.18466 z M 261.55587,197.17477 C 264.73794,195.69174 258.17433,193.32961 261.3211,196.54801 C 261.39935,196.75693 261.47761,196.96585 261.55587,197.17477 z M 266.70026,195.10565 C 264.96766,194.49182 259.52916,191.45015 264.47151,191.19909 C 267.12376,191.56617 267.82973,189.81755 265.0434,189.47221 C 262.71091,186.27381 272.46395,191.82943 266.73845,191.81325 C 264.40993,191.04371 262.62164,193.20706 265.73642,193.49925 C 266.35426,193.72249 267.04936,194.36194 266.70026,195.10565 z M 269.79051,190.12178 C 267.90077,189.17125 262.45001,185.34879 267.83699,185.00895 C 270.0341,184.28499 272.74194,184.6219 269.31802,186.1376 C 267.33941,187.56027 270.23578,189.02 269.79051,190.12178 z M 267.89921,187.76457 C 270.23514,185.13166 263.045,185.85095 267.40477,187.31903 C 267.56959,187.46754 267.7344,187.61605 267.89921,187.76457 z M 271.02856,177.08874 C 268.93105,179.91353 261.78156,181.00061 264.94608,175.98366 C 267.01876,173.42193 270.72965,173.65055 271.02856,177.08874 z M 267.391,178.34753 C 266.22003,174.18858 263.42237,180.98843 267.36228,178.36903 L 267.391,178.34753 z M 269.97322,176.79256 C 268.6193,171.22339 264.14729,180.04058 269.97322,176.79256 z M 268.48607,172.72974 C 266.76362,174.20258 260.7644,178.14663 262.76538,173.08997 C 263.02311,170.86287 264.51325,168.46391 264.48132,172.04366 C 264.98447,174.26621 267.62718,172.00964 268.48607,172.72974 z M 265.421,173.80812 C 263.91754,170.91594 261.50028,177.74002 264.78254,174.13807 C 264.99535,174.02809 265.20817,173.91811 265.421,173.80812 z M 263.20294,169.23552 C 262.81792,171.08242 260.49643,177.20155 259.59608,172.51104 C 259.61388,169.84905 257.77544,169.67353 257.797,172.45841 C 254.9107,175.62939 259.17468,164.62669 259.91118,170.14908 C 259.44911,172.61519 261.84375,173.71418 261.72602,170.6281 C 261.86767,169.96823 262.41462,169.11382 263.20294,169.23552 z M 257.80312,167.77474 C 257.09129,169.86741 253.95785,176.20972 252.93931,171.10855 C 251.9389,169.19389 251.93438,166.48581 253.8807,169.35976 C 255.55194,170.8656 256.64585,167.65734 257.80312,167.77474 z M 255.68555,170.26758 C 252.75976,168.75998 254.38475,175.49336 255.30255,170.87088 C 255.43021,170.66978 255.55788,170.46868 255.68555,170.26758 z M 251.2227,167.68129 C 251.62761,169.46184 251.9799,175.78158 249.17511,172.01454 C 248.08347,169.66413 246.27147,170.2486 247.45154,172.69141 C 246.042,176.64305 245.4934,165.24359 248.48961,169.80871 C 249.07948,172.16534 251.80207,172.17006 250.40562,169.50081 C 250.2648,168.86301 250.42635,167.89098 251.2227,167.68129 z M 245.51776,168.51908 C 245.48175,170.67426 244.42001,177.5027 241.8199,173.08602 C 240.24065,171.61613 239.38365,169.10851 242.18819,171.17968 C 244.29349,172.0669 244.35123,168.76209 245.51776,168.51908 z M 244.23564,171.47222 C 240.90524,170.96468 244.6112,176.7092 244.05176,172.14757 C 244.11304,171.92245 244.17434,171.69734 244.23564,171.47222 z"
       id="text2378" />
    <path
       style="font-size:42.21609879px;font-style:normal;font-weight:normal;fill:#ffffff;fill-opacity:1;stroke:none;stroke-width:1px;stroke-linecap:butt;stroke-linejoin:miter;stroke-opacity:1;font-family:Arial"
       d="M 261.45551,189.29942 C 248.09947,196.15447 234.74344,203.00951 221.38741,209.86455 C 218.59742,206.39069 223.99793,204.57761 225.66635,202.15183 C 232.82557,195.29467 239.98479,188.4375 247.14401,181.58034 C 236.65779,186.96243 226.17157,192.34453 215.68535,197.72663 C 212.84181,193.95508 219.58596,193.68486 221.57047,191.81443 C 232.59996,186.15349 243.62946,180.49256 254.65895,174.83163 C 257.44933,178.30761 252.04358,180.12028 250.37447,182.54719 C 243.20798,189.40808 236.04149,196.26898 228.875,203.12987 C 239.37034,197.74309 249.86567,192.35632 260.36101,186.96954 C 260.72582,187.74618 261.0907,188.52279 261.45551,189.29942 z"
       id="text2398" />
    <path
       sodipodi:nodetypes="ccccccsssssc"
       id="path2422"
       d="M 254.65625,160.625 C 252.96849,160.63914 251.23415,160.7471 249.46875,160.96875 L 249.4375,160.96875 L 239.25,166.5 L 226.5,173.25 L 215.71875,178.15625 C 206.32598,187.97516 202.37378,199.91118 206.6875,209.09375 C 209.8743,215.87746 216.95419,219.84745 225.7499,220.74528 C 234.11411,221.59906 237.5299,223.67472 247.125,218.75 C 258.8058,212.75478 273.90683,199.64713 277.67126,190.46658 C 280.25088,184.17551 280.55931,177.85021 278.03125,172.46875 C 274.33975,164.61069 265.40758,160.53491 254.65625,160.625 z"
       style="fill:url(#linearGradient2426);fill-opacity:1;stroke:none;stroke-width:1;stroke-linecap:square;stroke-linejoin:miter;stroke-miterlimit:4;stroke-dasharray:none;stroke-dashoffset:0;stroke-opacity:1" />
    <path
       style="fill:url(#linearGradient2438);fill-opacity:1;stroke:none;stroke-width:1;stroke-linecap:square;stroke-linejoin:miter;stroke-miterlimit:4;stroke-dasharray:none;stroke-dashoffset:0;stroke-opacity:1"
       d="M 254.65625,160.625 C 252.96849,160.63914 251.23415,160.7471 249.46875,160.96875 L 249.4375,160.96875 L 239.25,166.5 L 226.5,173.25 L 215.71875,178.15625 C 206.32598,187.97516 202.37378,199.91118 206.6875,209.09375 C 209.8743,215.87746 216.95419,219.84745 225.7499,220.74528 C 234.11411,221.59906 237.5299,223.67472 247.125,218.75 C 258.8058,212.75478 273.90683,199.64713 277.67126,190.46658 C 280.25088,184.17551 280.55931,177.85021 278.03125,172.46875 C 274.33975,164.61069 265.40758,160.53491 254.65625,160.625 z"
       id="path2436"
       sodipodi:nodetypes="ccccccsssssc" />
  </g>
  <g
     inkscape:label="outline"
     inkscape:groupmode="layer"
     id="layer1"
     style="display:inline">
    <path
       style="fill:#605107;fill-opacity:1;fill-rule:evenodd;stroke:none;stroke-width:1px;stroke-linecap:butt;stroke-linejoin:miter;stroke-opacity:1"
       d="M 334,104.25 C 328.08982,105.01278 326.65614,103.26924 316.53125,109.15625 C 255.87548,165.81985 171.58257,206.32267 90,212.875 C 72.02766,207.39663 67.785678,193.14799 60.6875,184.78125 C 52.914199,180.43218 45.752055,185.1102 38.875,189.375 C 39.66001,206.67996 39.08398,226.81735 46.625,230.0625 C 66.66047,230.64952 71.50525,236.63184 83.71875,240 C 107.56615,265.16342 129.02715,279.53435 152.21875,283.21875 C 175.49084,286.91593 200.63538,281.8917 222.25,271.03125 C 265.47923,249.31033 303.12632,203.92593 334.6875,166.75 C 340.65289,158.66821 343.91077,146.88568 346.40625,136.5 C 348.24723,125.45312 348.64248,111.14783 342.0875,105.85417 C 341.99714,105.61475 341.20039,105.17692 341.09375,104.9375 C 338.73888,104.59656 336.37774,104.34778 334,104.25 z M 340,105.8125 C 341.39333,105.43364 341.7994,107.57636 341.5625,110.25 C 335.38959,107.20293 329.51628,107.61701 323.625,106.90625 C 328.77535,104.67122 334.55846,105.30382 340,105.8125 z M 341.78125,106.875 C 344.33677,109.89505 345.56835,113.56027 346.03125,117.53125 L 342.25,111.125 C 342.28919,109.70298 342.16602,108.29702 341.78125,106.875 z M 322.53125,107.46875 C 328.21698,107.25052 335.4111,109.49603 341.40625,111.40625 C 339.24502,124.00964 335.44523,136.19937 328.21875,146.78125 C 328.20971,146.79202 328.19656,146.80175 328.1875,146.8125 C 292.01828,180.23112 258.5543,207.16919 221.03125,222.71875 C 183.51973,238.26353 143.1014,242.20375 90.59375,230.09375 C 91.197363,224.70583 91.045634,219.0338 89.8125,213.71875 C 171.43718,207.01619 255.03961,168.3927 315.71875,111.75 C 318.70495,110.02857 320.56294,108.56305 322.53125,107.46875 z M 342.1875,112.09375 C 343.70299,114.27202 344.75402,115.48138 346.125,118.5625 C 346.58007,124.09091 345.65901,130.17048 344.6875,136 C 342.82317,147.1869 338.64314,158.38779 333.90625,166.09375 C 333.89485,166.1123 333.88641,166.13774 333.875,166.15625 C 302.33499,203.30508 263.32066,247.50369 220.375,269.08211 C 198.89261,279.87612 177.16895,285.53099 154.14461,281.87316 C 131.21949,278.23109 107.84758,264.61574 84.125,239.625 C 86.74842,237.44793 88.201728,233.92958 90.4375,230.5625 C 143.03083,242.67121 183.79004,238.87847 221.4473,223.27329 C 259.16497,207.64309 293.41394,180.61599 329.625,147.15625 C 335.75322,136.40006 341.08779,124.59723 342.1875,112.09375 z M 53.40625,183.73333 C 55.21748,183.73124 57.232888,184.16109 59.53125,185 C 64.33326,190.42381 60.98068,202.69748 61.5,211.71875 C 59.2875,220.06132 54.07053,225.2688 47.46875,229.03125 C 37.13804,220.92197 42.59724,203.04399 40.1875,190.03125 C 44.332224,187.04727 47.97256,183.73961 53.40625,183.73333 z M 61.40625,186.71875 C 69.745691,195.9704 71.737097,208.22032 88.59375,213.4375 C 90.783338,218.65451 90.421581,224.3198 90.0625,229.84375 C 80.802577,223.77452 72.527377,220.59415 62.53125,211.3125 C 62.175188,203.12016 64.385032,195.50716 61.40625,186.71875 z M 61.8125,213.4375 C 65.981638,214.82143 80.44243,225.24379 89.90625,230.3125 C 88.295815,233.66251 86.7212,237.03917 83.78125,239.28125 C 72.02788,235.94509 61.8583,228.52585 48.53125,229.28125 C 62.904008,220.65498 58.849353,218.40982 61.8125,213.4375 z"
       id="path2311"
       sodipodi:nodetypes="cccccccsscccccccccccccccccsccccccsscssccscccccccccccccccccc" />
  </g>
</svg>
