<?xml version="1.0" encoding="UTF-8" standalone="no"?>
<!-- Created with Inkscape (http://www.inkscape.org/) -->
<svg
   xmlns:dc="http://purl.org/dc/elements/1.1/"
   xmlns:cc="http://creativecommons.org/ns#"
   xmlns:rdf="http://www.w3.org/1999/02/22-rdf-syntax-ns#"
   xmlns:svg="http://www.w3.org/2000/svg"
   xmlns="http://www.w3.org/2000/svg"
   xmlns:xlink="http://www.w3.org/1999/xlink"
   xmlns:sodipodi="http://sodipodi.sourceforge.net/DTD/sodipodi-0.dtd"
   xmlns:inkscape="http://www.inkscape.org/namespaces/inkscape"
   width="280"
   height="280"
   id="svg2"
   sodipodi:version="0.32"
   inkscape:version="0.45+devel"
   version="1.0"
   sodipodi:docbase="/home/nicu/Desktop"
   sodipodi:docname="face02_jock.svg"
   inkscape:output_extension="org.inkscape.output.svg.inkscape"
   inkscape:export-filename="/home/nicu/Desktop/faces.png"
   inkscape:export-xdpi="90"
   inkscape:export-ydpi="90">
  <defs
     id="defs4">
    <linearGradient
       id="linearGradient3381">
      <stop
         style="stop-color:#0000c3;stop-opacity:1;"
         offset="0"
         id="stop3383" />
      <stop
         style="stop-color:#00008a;stop-opacity:1;"
         offset="1"
         id="stop3385" />
    </linearGradient>
    <linearGradient
       id="linearGradient3371">
      <stop
         style="stop-color:#ebae89;stop-opacity:1;"
         offset="0"
         id="stop3373" />
      <stop
         style="stop-color:#f2cab2;stop-opacity:1;"
         offset="1"
         id="stop3375" />
    </linearGradient>
    <linearGradient
       id="linearGradient3363">
      <stop
         style="stop-color:#800000;stop-opacity:1;"
         offset="0"
         id="stop3365" />
      <stop
         style="stop-color:#270000;stop-opacity:1;"
         offset="1"
         id="stop3367" />
    </linearGradient>
    <linearGradient
       id="linearGradient3337">
      <stop
         style="stop-color:#ffffff;stop-opacity:1;"
         offset="0"
         id="stop3339" />
      <stop
         style="stop-color:#c4c4c4;stop-opacity:1;"
         offset="1"
         id="stop3341" />
    </linearGradient>
    <linearGradient
       id="linearGradient3327">
      <stop
         style="stop-color:#0040ff;stop-opacity:1;"
         offset="0"
         id="stop3329" />
      <stop
         style="stop-color:#0000ff;stop-opacity:1;"
         offset="1"
         id="stop3331" />
    </linearGradient>
    <linearGradient
       id="linearGradient3295">
      <stop
         style="stop-color:#ffff00;stop-opacity:1;"
         offset="0"
         id="stop3297" />
      <stop
         style="stop-color:#ffbc00;stop-opacity:1;"
         offset="1"
         id="stop3299" />
    </linearGradient>
    <filter
       inkscape:collect="always"
       id="filter3287"
       x="-0.29097733"
       width="1.5819547"
       y="-0.29740155"
       height="1.5948031">
      <feGaussianBlur
         inkscape:collect="always"
         stdDeviation="1.6925575"
         id="feGaussianBlur3289" />
    </filter>
    <filter
       inkscape:collect="always"
       id="filter3291"
       x="-0.29011497"
       width="1.5802299"
       y="-0.29795658"
       height="1.5959132">
      <feGaussianBlur
         inkscape:collect="always"
         stdDeviation="1.6925575"
         id="feGaussianBlur3293" />
    </filter>
    <linearGradient
       inkscape:collect="always"
       xlink:href="#linearGradient3295"
       id="linearGradient3303"
       x1="103"
       y1="37.25"
       x2="112.75"
       y2="65"
       gradientUnits="userSpaceOnUse" />
    <linearGradient
       inkscape:collect="always"
       xlink:href="#linearGradient3295"
       id="linearGradient3307"
       x1="168.58614"
       y1="52.011543"
       x2="187.35449"
       y2="83.761543"
       gradientUnits="userSpaceOnUse" />
    <linearGradient
       inkscape:collect="always"
       xlink:href="#linearGradient3295"
       id="linearGradient3309"
       x1="86.993584"
       y1="71.82373"
       x2="90.493584"
       y2="87.82373"
       gradientUnits="userSpaceOnUse" />
    <linearGradient
       inkscape:collect="always"
       xlink:href="#linearGradient3295"
       id="linearGradient3317"
       x1="103.22671"
       y1="81.093315"
       x2="126.75064"
       y2="89.223671"
       gradientUnits="userSpaceOnUse" />
    <linearGradient
       inkscape:collect="always"
       xlink:href="#linearGradient3295"
       id="linearGradient3325"
       x1="148.27812"
       y1="80.195183"
       x2="171.42705"
       y2="84.070184"
       gradientUnits="userSpaceOnUse" />
    <linearGradient
       inkscape:collect="always"
       xlink:href="#linearGradient3327"
       id="linearGradient3333"
       x1="97.986801"
       y1="91.307617"
       x2="96.80809"
       y2="99.789864"
       gradientUnits="userSpaceOnUse" />
    <linearGradient
       inkscape:collect="always"
       xlink:href="#linearGradient3327"
       id="linearGradient3335"
       x1="98.821953"
       y1="90.558823"
       x2="101.9816"
       y2="99.401161"
       gradientUnits="userSpaceOnUse" />
    <radialGradient
       inkscape:collect="always"
       xlink:href="#linearGradient3337"
       id="radialGradient3343"
       cx="102.75"
       cy="94.42617"
       fx="102.75"
       fy="94.42617"
       r="16"
       gradientTransform="matrix(0.6124887,0.7071878,-0.4509502,0.3905637,82.398279,-12.917975)"
       gradientUnits="userSpaceOnUse" />
    <radialGradient
       inkscape:collect="always"
       xlink:href="#linearGradient3337"
       id="radialGradient3351"
       cx="149.94276"
       cy="95.002533"
       fx="149.94276"
       fy="95.002533"
       r="16"
       gradientTransform="matrix(0.7421875,0.4101566,-0.2986724,0.5404531,65.33899,-15.531934)"
       gradientUnits="userSpaceOnUse" />
    <linearGradient
       inkscape:collect="always"
       xlink:href="#linearGradient3337"
       id="linearGradient3359"
       x1="132.4375"
       y1="151.125"
       x2="132.4375"
       y2="152.72078"
       gradientUnits="userSpaceOnUse" />
    <linearGradient
       inkscape:collect="always"
       xlink:href="#linearGradient3337"
       id="linearGradient3361"
       x1="132.12897"
       y1="158.81958"
       x2="132.46959"
       y2="163.68092"
       gradientUnits="userSpaceOnUse" />
    <linearGradient
       inkscape:collect="always"
       xlink:href="#linearGradient3363"
       id="linearGradient3369"
       x1="135.6875"
       y1="152.0625"
       x2="137.625"
       y2="162.1875"
       gradientUnits="userSpaceOnUse" />
    <linearGradient
       inkscape:collect="always"
       xlink:href="#linearGradient3371"
       id="linearGradient3377"
       x1="125.5"
       y1="70.75"
       x2="158.25"
       y2="172.25"
       gradientUnits="userSpaceOnUse" />
    <linearGradient
       inkscape:collect="always"
       xlink:href="#linearGradient3371"
       id="linearGradient3379"
       x1="124.125"
       y1="184.00287"
       x2="138.375"
       y2="211.25287"
       gradientUnits="userSpaceOnUse" />
    <linearGradient
       inkscape:collect="always"
       xlink:href="#linearGradient3381"
       id="linearGradient3387"
       x1="106.25"
       y1="191"
       x2="118.5"
       y2="215.25"
       gradientUnits="userSpaceOnUse" />
    <linearGradient
       inkscape:collect="always"
       xlink:href="#linearGradient3381"
       id="linearGradient3389"
       x1="152.71875"
       y1="197.2018"
       x2="167.21875"
       y2="207.4518"
       gradientUnits="userSpaceOnUse" />
    <linearGradient
       inkscape:collect="always"
       xlink:href="#linearGradient3381"
       id="linearGradient3391"
       x1="107.125"
       y1="202.83099"
       x2="151.625"
       y2="254.58099"
       gradientUnits="userSpaceOnUse" />
    <linearGradient
       inkscape:collect="always"
       xlink:href="#linearGradient3337"
       id="linearGradient3393"
       x1="184.5"
       y1="244.10805"
       x2="170.875"
       y2="223.10805"
       gradientUnits="userSpaceOnUse" />
    <filter
       inkscape:collect="always"
       id="filter3453">
      <feGaussianBlur
         inkscape:collect="always"
         stdDeviation="0.82504204"
         id="feGaussianBlur3455" />
    </filter>
    <filter
       inkscape:collect="always"
       id="filter3565"
       x="-0.082920305"
       width="1.1658406"
       y="-0.11077635"
       height="1.2215527">
      <feGaussianBlur
         inkscape:collect="always"
         stdDeviation="1.4770179"
         id="feGaussianBlur3567" />
    </filter>
    <filter
       inkscape:collect="always"
       id="filter3569"
       x="-0.08243821"
       width="1.1648764"
       y="-0.14038982"
       height="1.2807796">
      <feGaussianBlur
         inkscape:collect="always"
         stdDeviation="1.4770179"
         id="feGaussianBlur3571" />
    </filter>
    <filter
       inkscape:collect="always"
       id="filter3655"
       x="-0.32445265"
       width="1.6489053"
       y="-0.084856847"
       height="1.1697137">
      <feGaussianBlur
         inkscape:collect="always"
         stdDeviation="1.1491031"
         id="feGaussianBlur3657" />
    </filter>
    <filter
       inkscape:collect="always"
       id="filter3705"
       x="-0.15834799"
       width="1.316696"
       y="-0.2885589"
       height="1.5771178">
      <feGaussianBlur
         inkscape:collect="always"
         stdDeviation="2.7875845"
         id="feGaussianBlur3707" />
    </filter>
    <filter
       inkscape:collect="always"
       id="filter3807"
       x="-0.15048157"
       width="1.3009631"
       y="-0.23331558"
       height="1.4666312">
      <feGaussianBlur
         inkscape:collect="always"
         stdDeviation="0.85249353"
         id="feGaussianBlur3809" />
    </filter>
    <filter
       inkscape:collect="always"
       id="filter3881"
       x="-0.29909459"
       width="1.5981892"
       y="-0.21113589"
       height="1.4222718">
      <feGaussianBlur
         inkscape:collect="always"
         stdDeviation="1.0631076"
         id="feGaussianBlur3883" />
    </filter>
    <filter
       inkscape:collect="always"
       id="filter4035"
       x="-0.37070582"
       width="1.7414116"
       y="-0.2247252"
       height="1.4494504">
      <feGaussianBlur
         inkscape:collect="always"
         stdDeviation="1.4651711"
         id="feGaussianBlur4037" />
    </filter>
    <filter
       inkscape:collect="always"
       id="filter4075"
       x="-0.19214126"
       width="1.3842825"
       y="-0.13137864"
       height="1.2627573">
      <feGaussianBlur
         inkscape:collect="always"
         stdDeviation="3.2023543"
         id="feGaussianBlur4077" />
    </filter>
    <filter
       inkscape:collect="always"
       id="filter4185"
       x="-0.10691909"
       width="1.2138382"
       y="-0.44214198"
       height="1.884284">
      <feGaussianBlur
         inkscape:collect="always"
         stdDeviation="1.7374353"
         id="feGaussianBlur4187" />
    </filter>
    <filter
       inkscape:collect="always"
       id="filter4273"
       x="-0.11864931"
       width="1.2372986"
       y="-0.30550047"
       height="1.6110009">
      <feGaussianBlur
         inkscape:collect="always"
         stdDeviation="1.4507316"
         id="feGaussianBlur4275" />
    </filter>
    <filter
       inkscape:collect="always"
       id="filter4277"
       x="-0.11864931"
       width="1.2372986"
       y="-0.29834075"
       height="1.5966815">
      <feGaussianBlur
         inkscape:collect="always"
         stdDeviation="1.4507316"
         id="feGaussianBlur4279" />
    </filter>
    <filter
       inkscape:collect="always"
       id="filter4417"
       x="-0.21077476"
       width="1.4215495"
       y="-0.18865632"
       height="1.3773126">
      <feGaussianBlur
         inkscape:collect="always"
         stdDeviation="1.3832295"
         id="feGaussianBlur4419" />
    </filter>
    <filter
       inkscape:collect="always"
       id="filter4670">
      <feGaussianBlur
         inkscape:collect="always"
         stdDeviation="1.9829687"
         id="feGaussianBlur4672" />
    </filter>
  </defs>
  <sodipodi:namedview
     id="base"
     pagecolor="#ffffff"
     bordercolor="#666666"
     borderopacity="1.0"
     gridtolerance="10000"
     guidetolerance="10"
     objecttolerance="10"
     inkscape:pageopacity="0.0"
     inkscape:pageshadow="2"
     inkscape:zoom="1"
     inkscape:cx="309.41998"
     inkscape:cy="156.69401"
     inkscape:document-units="px"
     inkscape:current-layer="layer1"
     width="280px"
     height="280px"
     inkscape:window-width="1081"
     inkscape:window-height="925"
     inkscape:window-x="550"
     inkscape:window-y="24"
     showgrid="false"
     showguides="true"
     inkscape:guide-bbox="true" />
  <metadata
     id="metadata7">
    <rdf:RDF>
      <cc:Work
         rdf:about="">
        <dc:format>image/svg+xml</dc:format>
        <dc:type
           rdf:resource="http://purl.org/dc/dcmitype/StillImage" />
      </cc:Work>
    </rdf:RDF>
  </metadata>
  <g
     inkscape:label="Layer 1"
     inkscape:groupmode="layer"
     id="layer1">
    <path
       style="fill:#000000;fill-opacity:1;fill-rule:evenodd;stroke:none;stroke-width:5;stroke-linecap:butt;stroke-linejoin:miter;stroke-miterlimit:4;stroke-dasharray:none;stroke-opacity:1;filter:url(#filter4670)"
       d="M 134.28125,25.4065 C 130.93118,35.011364 128.74724,32.954972 126,36.5315 C 117.32912,34.57258 106.71918,37.138137 100,30.62525 C 95.839565,34.28909 94.799128,39.413081 92.59375,43.969 C 89.688943,42.333428 86.879146,41.875905 84,40.62525 L 80.34375,38.50025 C 79.074954,37.521488 77.788846,36.248509 76.46875,34.50025 C 77.835409,36.49329 78.750902,38.453341 79.40625,40.37525 L 80.625,45.50025 C 81.269964,49.867024 81.165505,54.155148 82.21875,58.56275 C 74.143386,60.105734 66.982214,62.824108 56.75,61.594 C 58.794603,62.289817 60.426729,63.116073 61.8125,64.0315 L 66.4375,68.25025 C 68.293058,70.419925 69.860019,72.6858 72.21875,74.68775 C 76.354167,75.744129 80.489583,73.938603 84.625,73.18775 C 83.470883,79.007549 78.418377,83.304069 74.71875,87.75025 C 81.929772,87.311225 84.225815,88.20366 86.21875,89.18775 C 86.366752,89.536092 86.520124,89.920487 86.59375,90.37525 C 86.589735,90.75933 86.561794,91.141147 86.5625,91.5315 C 81.47578,86.555131 76.516377,90.73503 75.46875,94.719 C 74.250726,101.86593 76.428537,109.68874 80.5625,115.50025 C 81.920755,117.36403 87.710453,117.57303 89.375,118.43775 C 80.033236,138.55072 81.565627,152.96459 89.0625,162.43775 C 94.947406,170.58357 105.67051,173.84983 112.3125,181.18775 C 112.51923,182.00084 112.80348,182.77974 113.1875,183.5315 C 112.95492,185.63513 112.53781,186.899 111.625,188.43775 C 110.72235,187.09553 109.85481,185.65109 109.0625,184.0315 C 102.12931,186.67799 96.624257,193.28648 91.90625,198.81275 C 83.209027,199.65653 75.947418,202.66056 69.5,208.469 C 63.708953,214.94343 63.10666,221.05375 62.1875,227.2815 C 61.96435,232.34878 61.544961,239.5273 57.53125,247.719 C 81.515912,255.83547 107.24565,254.41982 132.1875,254.594 C 162.84375,252.16692 187.11915,258.08402 224.15625,247.31275 C 222.42108,232.27243 216.05393,218.5299 209.625,205.0315 C 203.0553,198.56853 195.8588,195.6027 187.125,193.5315 C 182.86003,188.11835 177.26277,183.66197 170.15625,181.68775 C 169.51843,182.63853 168.87534,183.51558 168.25,184.344 C 168.1918,184.19576 168.11461,184.05632 168.0625,183.9065 C 167.66176,181.22799 167.46408,178.50972 167.96875,175.7815 L 167.9375,175.719 C 182.45785,166.30715 189.59948,159.13474 192.28125,149.969 C 195.34891,139.48436 192.05987,129.77326 187.6875,120.594 C 187.77122,119.72946 187.81282,118.89931 187.875,118.06275 C 194.75225,116.12286 197.36385,108.11652 198.625,101.844 C 200.10806,92.348393 193.90973,89.589667 185.96875,94.56275 C 185.87965,93.551089 185.76616,91.575885 185.65625,90.1565 C 187.35064,90.018605 190.51252,90.395019 196.6875,91.844 L 192.28125,84.50025 C 197.31358,82.888088 202.6439,81.946427 209,83.31275 C 204.2723,77.277085 198.17307,75.35605 192.53125,72.06275 C 195.50774,69.481063 198.02598,68.961456 201.59375,63.719 C 193.52673,63.327862 186.86457,56.614907 179.5,53.06275 C 178.30119,51.462966 176.89469,51.286497 175.75,49.344 L 175.40625,48.719 C 174.86499,47.568013 174.41041,45.917477 174.09375,43.344 C 168.84633,44.964027 165.06946,45.490728 163.25,48.25025 C 162.84226,48.036281 162.41288,47.856567 162,47.6565 C 163.84253,44.294035 167.21783,42.182417 172.15625,41.5315 C 171.45263,40.780077 170.78148,40.013457 169.875,39.31275 C 170.17837,39.195083 170.4945,39.079483 170.8125,38.969 L 169.46875,39.0315 C 168.85675,38.605171 168.14566,38.199415 167.25,37.844 C 162.26042,37.584945 157.27083,37.980326 152.28125,38.719 C 150.18265,37.339916 148.25926,36.24789 146.375,35.1565 L 140.15625,31.06275 C 138.31449,29.608779 136.38602,27.823243 134.28125,25.4065 z M 161.625,39.1565 C 162.21583,39.169406 162.78417,39.204865 163.375,39.25025 L 157.09375,39.469 C 158.60186,39.220375 160.11689,39.123558 161.625,39.1565 z M 164.96875,49.469 C 164.60673,50.048529 164.29271,50.732015 164.0625,51.594 C 164.00964,51.562396 163.95923,51.531586 163.90625,51.50025 L 164.5,50.06275 C 164.63674,49.851387 164.78953,49.656065 164.96875,49.469 z M 220.75,245.81275 C 220.75169,245.82297 220.74831,245.83377 220.75,245.844 C 220.20112,246.02002 219.64453,246.17733 219.09375,246.344 C 219.64847,246.16717 220.1982,245.99751 220.75,245.81275 z"
       id="path4466" />
    <g
       id="g4421">
      <path
         style="fill:url(#linearGradient3379);fill-opacity:1;fill-rule:evenodd;stroke:none;stroke-width:5;stroke-linecap:butt;stroke-linejoin:miter;stroke-miterlimit:4;stroke-dasharray:none;stroke-opacity:1"
         d="M 113.625,169.35805 C 113.20237,178.0515 113.47505,186.7775 109.375,194.85805 C 113.17657,214.94137 98.141503,213.05219 134.375,219.35805 C 160.50005,219.12219 167.47516,214.61052 170.125,187.60805 C 163.61131,181.50109 167.3366,172.34522 167.125,165.60805 C 150.375,160.01005 130.375,162.96466 113.625,169.35805 z"
         id="path23994"
         sodipodi:nodetypes="cccccc" />
      <path
         sodipodi:nodetypes="cccccc"
         id="path3659"
         d="M 124.25,191.5 C 127.38063,197.19112 129.35667,202.70143 159.25,189.75 C 161.38364,186.35315 161.94943,183.89701 160.75,182.5 L 166.5,174.5 L 157.25,177.75 L 124.25,191.5 z"
         style="fill:#000000;fill-rule:evenodd;stroke:none;stroke-width:1px;stroke-linecap:butt;stroke-linejoin:miter;stroke-opacity:1;filter:url(#filter3705);fill-opacity:0.52511417999999999" />
      <path
         sodipodi:nodetypes="cccccccccc"
         id="path23996"
         d="M 131.84375,43.65625 C 109.29023,43.846463 85.204727,51.345948 85.5625,91.21875 C 69.495739,80.362026 75.585331,119.15187 88.34375,116.4375 C 88.46179,117.04905 88.561498,117.62839 88.6875,118.25 C 69.617712,158.14629 103.50178,168.93158 112.03125,179.78125 C 122.2642,198.45558 157.387,191.58171 157.28125,180.46875 C 196.84433,156.78778 193.0446,138.43291 184.15625,120.03125 C 184.29007,118.69551 184.39643,117.4154 184.5,116.125 C 197.36702,118.04533 203.05905,79.931075 184.84375,95.375 C 182.14936,50.294656 155.06327,43.46042 131.84375,43.65625 z"
         style="fill:url(#linearGradient3377);fill-opacity:1;fill-rule:evenodd;stroke:none;stroke-width:5;stroke-linecap:butt;stroke-linejoin:miter;stroke-miterlimit:4;stroke-dasharray:none;stroke-opacity:1" />
      <path
         sodipodi:nodetypes="ccscccc"
         id="path4041"
         d="M 184,95.5 C 180.11248,95.087427 177.91139,99.73416 176,105.25 C 174.89149,88.636095 167.94606,63.349102 155.04265,59.202693 C 149.51369,57.426006 148.10073,51.300529 144,49.75 L 154.75,46.75 L 176.5,58 L 184,95.5 z"
         style="fill:#000000;fill-rule:evenodd;stroke:none;stroke-width:1px;stroke-linecap:butt;stroke-linejoin:miter;stroke-opacity:1;fill-opacity:0.33333333999999998;filter:url(#filter4075)" />
      <path
         style="fill:url(#radialGradient3343);fill-rule:evenodd;stroke:none;stroke-width:2;stroke-linecap:butt;stroke-linejoin:miter;stroke-miterlimit:4;stroke-dasharray:none;stroke-opacity:1;fill-opacity:1"
         d="M 96.97855,98.650938 C 100.51982,95.791412 100.21009,91.487764 108.47855,90.400938 C 115.9637,89.603037 122.15327,93.419819 128.97855,97.900938 C 116.66755,114.71 105.12806,113.24724 96.97855,98.650938 z"
         id="path23998"
         sodipodi:nodetypes="cccc" />
      <path
         sodipodi:type="arc"
         style="fill:url(#linearGradient3335);fill-opacity:1;stroke:none;stroke-width:1.41852187999999990;stroke-miterlimit:4;stroke-dasharray:none"
         id="path24000"
         sodipodi:cx="100.5"
         sodipodi:cy="95"
         sodipodi:rx="6"
         sodipodi:ry="6.25"
         d="M 106.5,95 A 6,6.25 0 1 1 94.5,95 A 6,6.25 0 1 1 106.5,95 z"
         transform="matrix(1.2725732,0,0,1.5620866,-16.11328,-48.31791)" />
      <path
         sodipodi:type="arc"
         style="fill:#000000;fill-opacity:1;stroke:none;stroke-width:3;stroke-miterlimit:4;stroke-dasharray:none"
         id="path24008"
         sodipodi:cx="100.625"
         sodipodi:cy="98.875"
         sodipodi:rx="2.625"
         sodipodi:ry="2.875"
         d="M 103.25,98.875 A 2.625,2.875 0 1 1 98,98.875 A 2.625,2.875 0 1 1 103.25,98.875 z"
         transform="matrix(1.3333333,0,0,1.2586847,-21.90778,-23.402461)" />
      <path
         transform="matrix(1.0639593,0,0,1.0403884,2.4731,-5.3476639)"
         d="M 103.25,98.875 A 2.625,2.875 0 1 1 98,98.875 A 2.625,2.875 0 1 1 103.25,98.875 z"
         sodipodi:ry="2.875"
         sodipodi:rx="2.625"
         sodipodi:cy="98.875"
         sodipodi:cx="100.625"
         id="path24010"
         style="fill:#ffffff;fill-opacity:1;stroke:none;stroke-width:3;stroke-miterlimit:4;stroke-dasharray:none"
         sodipodi:type="arc" />
      <path
         sodipodi:nodetypes="cccsc"
         id="path24012"
         d="M 141.46562,86.590278 C 150.79633,81.659168 158.86415,78.032174 169.46562,80.090278 C 171.82098,84.513239 172.15443,82.89948 169.92273,86.011851 C 163.37711,78.737669 151.20296,86.237335 142.17431,88.554905 C 141.26308,88.788809 141.60886,88.643991 141.46562,86.590278 z"
         style="fill:url(#linearGradient3325);fill-opacity:1;fill-rule:evenodd;stroke:none;stroke-width:2;stroke-linecap:butt;stroke-linejoin:miter;stroke-miterlimit:4;stroke-dasharray:none;stroke-opacity:1" />
      <path
         style="fill:url(#linearGradient3369);fill-rule:evenodd;stroke:none;stroke-width:2;stroke-linecap:butt;stroke-linejoin:miter;stroke-miterlimit:4;stroke-dasharray:none;stroke-opacity:1;fill-opacity:1"
         d="M 107.875,147.85805 C 126.58785,151.57196 148.24468,151.80066 166.43566,143.88318 C 155.06423,168.68901 115.27636,168.69718 107.875,147.85805 z"
         id="path24018"
         sodipodi:nodetypes="ccc" />
      <path
         style="fill:url(#linearGradient3307);fill-rule:evenodd;stroke:none;stroke-width:3;stroke-linecap:butt;stroke-linejoin:miter;stroke-miterlimit:4;stroke-dasharray:none;stroke-opacity:1"
         d="M 172.49179,44.355953 C 168.43256,46.499899 162.36584,44.342095 162.5923,55.669661 L 173.22035,70.747457 L 175.67377,87.84302 L 176.38088,105.16714 L 180.62352,88.90368 L 192.99789,89.257233 L 188.75525,82.186166 L 203.60449,81.125505 L 189.1088,71.22601 L 198.19764,63.844282 L 177.44154,53.194788 L 172.49179,44.355953 z"
         id="path24022"
         sodipodi:nodetypes="ccccccccccccc" />
      <path
         style="fill:url(#linearGradient3309);fill-rule:evenodd;stroke:none;stroke-width:3;stroke-linecap:butt;stroke-linejoin:miter;stroke-miterlimit:4;stroke-dasharray:none;stroke-opacity:1"
         d="M 85.16411,62.033622 L 85.11816,73.675758 L 76.32527,85.7217 L 89.40675,88.196573 L 94.00294,100.57094 L 96.83137,90.317894 L 90.46741,82.539719 L 97.6619,66.488859 L 93.09913,56.076516 L 85.16411,62.033622 z"
         id="path24024"
         sodipodi:nodetypes="cccccccccc" />
      <path
         style="fill:url(#linearGradient3303);fill-rule:evenodd;stroke:none;stroke-width:3;stroke-linecap:butt;stroke-linejoin:miter;stroke-miterlimit:4;stroke-dasharray:none;stroke-opacity:1;fill-opacity:1"
         d="M 157.9961,51.780574 L 143.85397,50.012807 C 135.9528,50.349211 129.24169,54.652498 122.28721,58.144535 L 101.78111,56.730321 L 90.81088,68.691736 L 84.33283,70.551498 L 72.31118,73.54403 L 59.35471,61.680069 L 83.04278,58.851642 L 77.73948,36.577778 L 92.23517,45.06306 C 92.23517,45.06306 96.74926,33.88171 98.43124,31.753031 C 101.61322,33.874351 125.6763,37.156205 125.6763,37.156205 L 133.64381,26.44605 L 152.12174,38.620671 L 169.7994,37.974225 C 161.99046,40.687305 158.62714,45.58431 157.9961,51.780574 z"
         id="path24026"
         sodipodi:nodetypes="ccccccccccccccccc" />
      <path
         sodipodi:nodetypes="cccc"
         id="path24028"
         d="M 171.72855,98.650938 C 168.18729,95.791412 168.49701,91.487764 160.22855,90.400938 C 152.7434,89.603037 146.55383,93.419819 139.72855,97.900938 C 152.03955,114.71 163.57904,113.24724 171.72855,98.650938 z"
         style="fill:url(#radialGradient3351);fill-rule:evenodd;stroke:none;stroke-width:2;stroke-linecap:butt;stroke-linejoin:miter;stroke-miterlimit:4;stroke-dasharray:none;stroke-opacity:1;fill-opacity:1" />
      <path
         transform="matrix(-1.2725732,0,0,1.5620866,284.82038,-48.31791)"
         d="M 106.5,95 A 6,6.25 0 1 1 94.5,95 A 6,6.25 0 1 1 106.5,95 z"
         sodipodi:ry="6.25"
         sodipodi:rx="6"
         sodipodi:cy="95"
         sodipodi:cx="100.5"
         id="path24030"
         style="fill:url(#linearGradient3333);fill-opacity:1;stroke:none;stroke-width:1.41852187999999990;stroke-miterlimit:4;stroke-dasharray:none"
         sodipodi:type="arc" />
      <path
         transform="matrix(-1.3333333,0,0,1.2586847,291.11489,-23.402461)"
         d="M 103.25,98.875 A 2.625,2.875 0 1 1 98,98.875 A 2.625,2.875 0 1 1 103.25,98.875 z"
         sodipodi:ry="2.875"
         sodipodi:rx="2.625"
         sodipodi:cy="98.875"
         sodipodi:cx="100.625"
         id="path24032"
         style="fill:#000000;fill-opacity:1;stroke:none;stroke-width:3;stroke-miterlimit:4;stroke-dasharray:none"
         sodipodi:type="arc" />
      <path
         sodipodi:type="arc"
         style="fill:#ffffff;fill-opacity:1;stroke:none;stroke-width:3;stroke-miterlimit:4;stroke-dasharray:none"
         id="path24034"
         sodipodi:cx="100.625"
         sodipodi:cy="98.875"
         sodipodi:rx="2.625"
         sodipodi:ry="2.875"
         d="M 103.25,98.875 A 2.625,2.875 0 1 1 98,98.875 A 2.625,2.875 0 1 1 103.25,98.875 z"
         transform="matrix(-1.0639593,0,0,1.0403884,261.484,-5.8476639)" />
      <path
         sodipodi:nodetypes="cccccccscsc"
         id="path24036"
         d="M 109.375,194.85805 C 102.57652,202.25829 80.86889,197.17287 70.375,209.10805 C 59.5202,221.24378 63.20566,233.10939 59.625,245.10805 C 80.8153,252.23938 107.15097,250.65092 131.375,251.10805 C 159.70833,253.27942 192.04167,254.27157 220.375,244.60805 C 217.93741,228.7165 214.09926,216.0556 208.375,204.10805 C 195.875,193.27472 182.375,198.22425 170.125,187.60805 C 161.03384,195.07014 151.73674,200.40754 143.06571,203.19634 C 139.87189,204.22355 142.01301,214.90499 139.53064,218.96948 C 135.58964,213.60869 132.34242,204.93586 129.11781,204.16082 C 123.47978,202.80572 112.92509,200.10968 109.375,194.85805 z"
         style="fill:url(#linearGradient3391);fill-opacity:1;fill-rule:evenodd;stroke:none;stroke-width:5;stroke-linecap:butt;stroke-linejoin:miter;stroke-miterlimit:4;stroke-dasharray:none;stroke-opacity:1" />
      <path
         sodipodi:nodetypes="ccccc"
         id="path3457"
         d="M 94,199 L 87.5,202.25 C 99.666667,221.47955 111.83333,216.91667 124,224.25 L 130.5,206.75 L 94,199 z"
         style="fill:#000000;fill-rule:evenodd;stroke:none;stroke-width:1px;stroke-linecap:butt;stroke-linejoin:miter;stroke-opacity:1;filter:url(#filter3569);fill-opacity:0.58447486000000004" />
      <path
         id="path24038"
         d="M 108.15625,184.0143 C 104.59322,184.34825 94.1835,195.25155 91.28125,198.8893 C 97.90535,209.12387 109.906,216.98661 123.9375,219.7018 L 130.6875,200.4518 C 122.20223,199.53489 114.17276,194.7076 108.15625,184.0143 z"
         style="fill:url(#linearGradient3387);fill-opacity:1;fill-rule:evenodd;stroke:none;stroke-width:2;stroke-linecap:butt;stroke-linejoin:miter;stroke-miterlimit:4;stroke-dasharray:none;stroke-opacity:1" />
      <path
         sodipodi:nodetypes="ccccccc"
         id="path2538"
         d="M 111.63448,149.36202 L 134.52707,149.80396 L 158.21514,147.41748 L 152.82345,149.89235 L 140.71425,152.72078 L 123.83208,152.45561 L 111.63448,149.36202 z"
         style="fill:url(#linearGradient3359);fill-rule:evenodd;stroke:none;stroke-width:1px;stroke-linecap:butt;stroke-linejoin:miter;stroke-opacity:1;fill-opacity:1" />
      <path
         sodipodi:nodetypes="ccc"
         id="path4079"
         d="M 116.5,158.75 L 156.75,156.75 C 153.42413,163.32296 126.71948,176.34545 116.5,158.75 z"
         style="fill:#000000;fill-rule:evenodd;stroke:none;stroke-width:1px;stroke-linecap:butt;stroke-linejoin:miter;stroke-opacity:1;filter:url(#filter4185);fill-opacity:0.48858449" />
      <path
         sodipodi:nodetypes="cccccsscc"
         id="path2540"
         d="M 114.81646,156.87503 C 115.87712,157.49375 128.60505,160.41057 128.60505,160.41057 L 139.83037,159.96862 L 155.03316,155.10726 L 158.65709,153.95822 C 158.65709,153.95822 154.23767,158.02408 153.00023,158.55441 C 151.76279,159.08474 140.97941,163.68093 139.83037,163.68093 C 138.68132,163.68093 126.13017,162.88544 126.13017,162.88544 L 114.81646,156.87503 z"
         style="fill:url(#linearGradient3361);fill-rule:evenodd;stroke:none;stroke-width:1px;stroke-linecap:butt;stroke-linejoin:miter;stroke-opacity:1" />
      <path
         sodipodi:nodetypes="cccccccccsccccccccccsscccccccscc"
         id="path28897"
         d="M 165.875,139.09375 C 165.51563,140.55541 165.29525,141.9486 165.3125,143.28125 C 155.77585,149.82825 145.67853,147.1372 137.08411,149.23213 C 129.84487,146.91914 119.20003,150.20844 108.3125,146.90625 C 108.71484,145.02601 108.46897,143.00537 107.9375,140.84375 L 107.59099,140.9902 C 107.61738,144.86146 105.89931,150.32201 102.69638,152.71691 L 102.78125,153.40625 C 104.94748,152.21388 106.4562,150.84185 107.375,149.28125 C 111.68015,159.48495 123.72821,165.0231 135.89553,164.53033 C 147.64584,164.05445 159.70509,157.94496 166.0625,146.8125 C 166.91629,148.66548 168.54591,150.28823 171.03125,151.65625 L 170.90809,151.32046 C 167.44626,147.01766 165.81055,142.43776 166.48667,139.32858 L 165.875,139.09375 z M 164.21875,145.78125 C 162.80868,148.23923 161.10074,150.4165 159.15625,152.3125 C 144.72739,160.7661 130.75991,161.01552 114.90625,155.84375 C 112.66247,153.9931 110.8318,151.75903 109.59375,149.125 C 110.57415,149.1927 111.2184,149.77884 112.125,150.125 C 112.93353,150.40591 114.1335,150.75035 115.625,151.125 C 118.60801,151.8743 122.82124,152.71675 127.78125,153.125 C 137.70127,153.9415 150.55988,153.10054 162.125,146.6875 C 162.36291,146.30256 163.61937,146.00237 164.21875,145.78125 z M 156.34375,148.3125 C 146.49852,152.29321 136.16852,152.80763 127.875,152.125 C 123.71302,151.82811 119.61766,151.04141 115.5625,150.09375 C 128.86127,151.93635 143.08675,151.82797 156.34375,148.3125 z M 156.5,154.59375 C 150.52809,159.23631 143.10448,162.49616 135.71339,162.7955 C 129.50445,163.04695 123.42416,160.98794 118.59375,158.34375 C 132.4372,163.0938 144.18335,161.04983 156.5,154.59375 z"
         style="fill:#000000;fill-opacity:1;fill-rule:evenodd;stroke:none;stroke-width:2;stroke-linecap:butt;stroke-linejoin:miter;stroke-miterlimit:4;stroke-dasharray:none;stroke-opacity:1" />
      <path
         style="fill:url(#linearGradient3317);fill-opacity:1;fill-rule:evenodd;stroke:none;stroke-width:2;stroke-linecap:butt;stroke-linejoin:miter;stroke-miterlimit:4;stroke-dasharray:none;stroke-opacity:1"
         d="M 129.00064,88.181268 C 119.66993,83.250158 111.60211,79.623164 101.00064,81.681268 C 98.64528,86.104229 98.31183,84.49047 100.54353,87.602841 C 107.08915,80.328659 119.2633,87.828325 128.29195,90.145895 C 129.20318,90.379799 128.8574,90.234981 129.00064,88.181268 z"
         id="path28901"
         sodipodi:nodetypes="cccsc" />
      <path
         sodipodi:nodetypes="ccccc"
         id="path3459"
         d="M 144.5,210.5 L 150.5,225.75 C 162.7493,216.58928 173.65317,218.86473 187.25,198.25 L 182,193.75 L 144.5,210.5 z"
         style="fill:#000000;fill-rule:evenodd;stroke:none;stroke-width:1px;stroke-linecap:butt;stroke-linejoin:miter;stroke-opacity:1;filter:url(#filter3565);fill-opacity:0.58447486000000004" />
      <path
         style="fill:#000000;fill-opacity:1;stroke:none;stroke-width:2;stroke-miterlimit:4;stroke-dasharray:none;stroke-opacity:1;filter:url(#filter3453)"
         d="M 180.1875,221.7643 C 177.66216,221.7643 175.33106,222.7357 173.4375,224.3268 C 175.26762,226.40397 177.64716,227.54556 180.1875,227.54555 C 182.72785,227.54555 185.10738,226.40396 186.9375,224.3268 C 185.04394,222.7357 182.71284,221.7643 180.1875,221.7643 z M 171.375,226.54555 C 169.74254,228.80977 168.75,231.69908 168.75,234.85805 C 168.75,237.88949 169.67304,240.67042 171.1875,242.8893 C 172.99184,240.89202 175.39578,239.43368 178.125,238.8893 L 178.125,230.1393 C 175.5146,229.67486 173.17939,228.36033 171.375,226.54555 z M 189,226.54555 C 187.16778,228.38633 184.78446,229.69418 182.125,230.1393 L 182.125,238.7643 C 184.96601,239.17445 187.49567,240.5939 189.40625,242.5768 C 190.79291,240.41215 191.625,237.74564 191.625,234.85805 C 191.625,231.69908 190.63246,228.80977 189,226.54555 z M 180.4375,241.42055 C 177.88328,241.42055 175.49034,242.57193 173.65625,244.67055 C 173.51281,244.83467 173.38508,245.02707 173.25,245.2018 C 175.18009,246.9047 177.56356,247.9518 180.1875,247.9518 C 182.93324,247.9518 185.46589,246.83127 187.4375,244.98305 C 187.35847,244.88607 187.30046,244.76405 187.21875,244.67055 C 185.38466,242.57194 182.99173,241.42056 180.4375,241.42055 z"
         id="path3395" />
      <path
         id="path28923"
         d="M 179.6875,221.2643 C 177.16216,221.2643 174.83106,222.2357 172.9375,223.8268 C 174.76762,225.90397 177.14716,227.04556 179.6875,227.04555 C 182.22785,227.04555 184.60738,225.90396 186.4375,223.8268 C 184.54394,222.2357 182.21284,221.2643 179.6875,221.2643 z M 170.875,226.04555 C 169.24254,228.30977 168.25,231.19908 168.25,234.35805 C 168.25,237.38949 169.17304,240.17042 170.6875,242.3893 C 172.49184,240.39202 174.89578,238.93368 177.625,238.3893 L 177.625,229.6393 C 175.0146,229.17486 172.67939,227.86033 170.875,226.04555 z M 188.5,226.04555 C 186.66778,227.88633 184.28446,229.19418 181.625,229.6393 L 181.625,238.2643 C 184.46601,238.67445 186.99567,240.0939 188.90625,242.0768 C 190.29291,239.91215 191.125,237.24564 191.125,234.35805 C 191.125,231.19908 190.13246,228.30977 188.5,226.04555 z M 179.9375,240.92055 C 177.38328,240.92055 174.99034,242.07193 173.15625,244.17055 C 173.01281,244.33467 172.88508,244.52707 172.75,244.7018 C 174.68009,246.4047 177.06356,247.4518 179.6875,247.4518 C 182.43324,247.4518 184.96589,246.33127 186.9375,244.48305 C 186.85847,244.38607 186.80046,244.26405 186.71875,244.17055 C 184.88466,242.07194 182.49173,240.92056 179.9375,240.92055 z"
         style="fill:url(#linearGradient3393);fill-opacity:1;stroke:none;stroke-width:2;stroke-miterlimit:4;stroke-dasharray:none;stroke-opacity:1" />
      <path
         sodipodi:nodetypes="ccccc"
         id="path29918"
         d="M 169.125,181.7018 C 160.86851,191.71023 153.34456,198.47052 140.46875,198.85805 L 147.96875,220.2018 C 163.26415,218.59183 171.84761,210.77973 185.21875,193.35805 C 183.34343,190.61807 175.45259,181.89762 169.125,181.7018 z"
         style="fill:url(#linearGradient3389);fill-opacity:1;fill-rule:evenodd;stroke:none;stroke-width:2;stroke-linecap:butt;stroke-linejoin:miter;stroke-miterlimit:4;stroke-dasharray:none;stroke-opacity:1" />
      <path
         id="path4283"
         d="M 95.75,73.25 L 96.5,63.5 L 101.25,56.75 L 111.5,57 C 111.5,57 111.75,79.5 95.75,73.25 z"
         style="fill:#ffffff;fill-rule:evenodd;stroke:none;stroke-width:1px;stroke-linecap:butt;stroke-linejoin:miter;stroke-opacity:1;filter:url(#filter4417);fill-opacity:0.25570777" />
      <path
         id="path29926"
         d="M 133.28125 24.40625 C 129.93118 34.011114 127.74724 31.954722 125 35.53125 C 116.32912 33.57233 105.71918 36.137887 99 29.625 C 94.839565 33.28884 93.799128 38.412831 91.59375 42.96875 C 86.227742 39.947382 81.133469 41.002028 75.46875 33.5 C 81.232566 41.905548 79.302083 49.541667 81.21875 57.5625 C 73.143386 59.105484 65.982214 61.823858 55.75 60.59375 C 64.780378 63.666957 66.072427 69.319608 71.21875 73.6875 C 75.354167 74.743879 79.489583 72.938353 83.625 72.1875 C 82.470883 78.007299 77.418377 82.303819 73.71875 86.75 C 80.929772 86.310975 83.225815 87.20341 85.21875 88.1875 C 85.481575 88.806095 85.738885 89.563828 85.59375 90.5625 C 80.495558 85.535938 75.518629 89.726216 74.46875 93.71875 C 73.250726 100.86568 75.428537 108.68849 79.5625 114.5 C 80.920755 116.36378 86.710453 116.57278 88.375 117.4375 C 79.033236 137.55047 80.565627 151.96434 88.0625 161.4375 C 93.947406 169.58332 104.67051 172.84958 111.3125 180.1875 C 111.51923 181.00059 111.80348 181.77949 112.1875 182.53125 C 111.95492 184.63488 111.53781 185.89875 110.625 187.4375 C 109.72235 186.09528 108.85481 184.65084 108.0625 183.03125 C 101.12931 185.67774 95.624257 192.28623 90.90625 197.8125 C 82.209027 198.65628 74.947418 201.66031 68.5 207.46875 C 62.708953 213.94318 62.10666 220.0535 61.1875 226.28125 C 60.96435 231.34853 60.544961 238.52705 56.53125 246.71875 C 80.515912 254.83522 106.24565 253.41957 131.1875 253.59375 C 161.84375 251.16667 186.11915 257.08377 223.15625 246.3125 C 221.42108 231.27218 215.05393 217.52965 208.625 204.03125 C 202.0553 197.56828 194.8588 194.60245 186.125 192.53125 C 181.86003 187.1181 176.26277 182.66172 169.15625 180.6875 C 168.48723 181.6848 167.81008 182.60514 167.15625 183.46875 C 166.70076 180.60896 166.42875 177.70044 166.96875 174.78125 L 166.9375 174.71875 C 181.45785 165.3069 188.59948 158.13449 191.28125 148.96875 C 194.34891 138.48411 191.05987 128.77301 186.6875 119.59375 C 186.77122 118.72921 186.81282 117.89906 186.875 117.0625 C 193.75225 115.12261 196.36385 107.11627 197.625 100.84375 C 199.10806 91.348143 192.90973 88.589417 184.96875 93.5625 C 184.87965 92.550839 184.76616 90.575635 184.65625 89.15625 C 186.35064 89.018355 189.51252 89.394769 195.6875 90.84375 L 191.28125 83.5 C 196.31358 81.887838 201.6439 80.946177 208 82.3125 C 203.2723 76.276835 197.17307 74.3558 191.53125 71.0625 C 194.50774 68.480813 197.02598 67.961206 200.59375 62.71875 C 192.52673 62.327612 185.86457 55.614657 178.5 52.0625 C 176.58905 49.512374 174.10706 50.578876 173.09375 42.34375 C 167.84633 43.963777 164.06946 44.490478 162.25 47.25 C 161.84226 47.036031 161.41288 46.856317 161 46.65625 C 162.84253 43.293785 166.21783 41.182167 171.15625 40.53125 C 169.91339 39.203943 168.78242 37.848667 166.25 36.84375 C 161.26042 36.584695 156.27083 36.980076 151.28125 37.71875 C 144.86579 33.502855 140.0165 32.139828 133.28125 24.40625 z M 134 28.46875 C 139.76042 32.270833 143.65128 43.08374 151.28125 39.875 C 156.26042 37.701301 161.23958 37.918867 166.21875 38.71875 C 162.16099 40.678765 157.59936 46.031056 156.84375 50.125 L 144.03125 48.53125 C 136.18364 48.868032 129.31108 53.592583 122.0625 56.625 C 115.41011 53.931316 108.12645 55.656507 101.15625 55.1875 L 92.09375 66.5 L 83.625 69.125 C 80.352614 70.167184 77.653274 71.018353 72.5 72.6875 L 62.9375 62.75 C 70.125 61.333333 80.86805 62.287033 84.5 58.5 C 81.204604 52.21875 81.5 45.9375 80 39.65625 C 84.291667 42.166667 86.631083 45.165146 92.875 47.1875 C 95.09593 42.558203 94.609358 35.549005 99.65625 32.75 C 107.90408 38.237196 116.91063 37.335028 125.46875 38.625 C 131.10914 35.239583 131.15625 31.854167 134 28.46875 z M 171.78125 46.15625 L 176.125 53.9375 L 197.1875 63.875 C 193.10603 67.766481 189.80821 69.829454 186.71875 71.40625 C 191.97767 74.471427 197.40783 76.943855 202.1875 80.8125 C 196.76293 80.596145 190.74808 79.002475 186.21875 80.875 L 192.1875 88.8125 C 188.57292 87.185506 183.08333 86.347625 179.46875 87.375 L 176.71875 99.1875 L 177.1875 87.78125 L 177.15625 87.6875 L 177.15625 87.59375 L 174.09375 70.03125 C 170.93704 65.043729 169.28538 59.55437 162.875 55.75 C 162.65738 53.584753 162.57429 51.870143 162.90625 50.5 L 163.5 49.0625 C 164.59393 47.371593 166.97622 46.471006 171.78125 46.15625 z M 144 50.15625 C 149.12527 51.196317 154.51596 50.643839 159.34375 53.46875 C 159.36039 52.772602 159.41637 52.114053 159.5 51.46875 C 160.01812 51.729118 160.52453 52.027386 161.03125 52.3125 C 161.02455 53.510969 161.12142 54.8871 161.34375 56.5 C 167.2425 59.364583 168.58796 66.479167 171.9375 71.46875 C 172.82655 77.010417 175.07307 82.552083 174.1875 88.09375 C 174.51066 93.086489 174.87184 98.164763 176.5 106.09375 C 177.97948 96.817188 179.59931 96.895975 181.375 92.0625 C 182.83952 91.635109 182.33005 90.512185 182.9375 89.78125 C 183.03036 91.788306 183.02767 94.182936 183.125 95.90625 C 182.61665 96.394151 181.35096 97.251777 180.8125 97.8125 L 181.125 98.4375 C 187.32783 91.939584 196.36983 91.004184 195.25 101.3125 C 194.28004 106.92004 192.01525 113.19003 186.25 115.15625 C 184.79217 115.39232 182.44799 116.02302 180.59375 114.6875 L 180.1875 115.3125 C 180.77422 115.73508 181.35075 116.09543 181.9375 116.375 L 181.59375 120.46875 C 188.22673 122.67722 190.48222 137.71106 188.75 147.4375 C 186.12335 156.41484 175.50674 166.66775 156 178.34375 C 159.30598 187.5598 145.01572 190.07576 136.84375 190.9375 C 129.0625 190.70833 112.52286 189.67774 114.125 178.375 C 107.19308 171.13471 97.04342 167.86933 90.46875 160.21875 C 83.762611 151.74477 82.094999 125.412 90.96875 119.3125 C 89.942157 118.39827 90.408702 117.49604 90.9375 116.5 C 91.324833 116.28765 91.707505 116.05944 92.09375 115.78125 L 92.03125 115.03125 C 88.741749 117.46828 84.532293 115.49575 81.96875 112.71875 C 78.130526 107.46351 76.109653 100.61628 77.1875 94.125 C 77.937081 90.891184 79.758803 89.684118 82.90625 90.84375 C 84.756041 91.659002 87.192583 93.476315 90.15625 96.5625 L 90.59375 96.40625 C 89.34311 95.103908 89.189016 92.749586 88.09375 91.84375 C 88.079802 90.905677 87.404967 89.943568 86.875 89 C 87.293926 89.18154 87.758593 89.346751 88.28125 89.5 C 90.55167 93.647485 92.612852 98.631926 94.21875 105.4375 C 93.554385 98.260402 96.49904 95.143452 98.28125 90.71875 L 98.46875 89.96875 L 98 89.375 L 91.21875 81.5625 C 93.104167 75.197917 100.26267 70.437951 97.875 63.21875 L 102.40625 58.28125 C 109 58.732449 115.59375 55.618548 122.1875 59.65625 C 129.45833 52.532214 136.72917 52.553117 144 50.15625 z M 95.65625 65.65625 C 95.749091 69.921378 95.190086 74.577615 88.71875 82.78125 L 95.15625 90.6875 L 93.78125 95.71875 L 90.53125 86.875 L 76.8125 85.5625 C 80.083333 80.864583 86.303564 75.404016 86.125 69.84375 C 89.302083 68.447917 92.080165 70.244095 95.65625 65.65625 z M 163.84375 78.53125 C 163.19486 78.529169 162.55518 78.532966 161.90625 78.5625 C 154.75072 81.040808 151.01753 79.4123 140.4375 86 C 140.31787 87.522557 140.5402 88.498381 141.5625 89.625 C 146.88186 88.530104 151.98037 86.183265 157.21875 84.65625 C 161.18077 84.144352 164.00848 81.237814 170.75 86.59375 C 170.59169 84.130151 174.85874 82.447498 169.65625 79.09375 C 167.74252 78.688767 165.79042 78.537494 163.84375 78.53125 z M 106.6875 80.09375 C 104.80022 80.100398 102.8582 80.29036 100.8125 80.6875 C 96.024091 85.598089 99.838284 86.6853 100.46875 89.1875 C 102.00842 87.18393 104.03187 86.059432 106.5 85.59375 C 114.01716 85.210002 120.98162 89.032578 128.03125 91.125 C 129.55928 90.693261 129.57915 89.054986 129.46875 87.3125 C 122.40437 83.387712 114.85414 80.278299 106.6875 80.09375 z M 163.71875 80.5 C 165.45205 80.533032 167.16418 80.74804 168.875 81.03125 C 170.04337 83.057499 170.86085 83.062133 169.71875 84.625 C 166.00098 81.297832 161.41904 82.059205 156.875 83.09375 C 151.90013 84.398097 144.71284 88.869912 142.5 87.40625 C 142.49858 87.328679 141.87802 87.40814 141.875 87.3125 C 142.014 84.433518 155.19629 80.889705 161.96875 80.53125 C 162.5475 80.497311 163.14098 80.488989 163.71875 80.5 z M 106.84375 81.34375 C 114.56625 81.228914 121.70092 85.174327 128.46875 88.53125 C 128.21573 89.62689 127.97017 90.047429 127.96875 90.125 C 120.80883 87.451852 114.16687 84.031392 106.25 84.625 C 104.23133 84.884909 102.38051 84.786074 100.75 86.21875 C 99.70329 85.663207 99.074479 84.80297 101.59375 82.625 C 103.40398 82.298017 105.15904 81.365907 106.84375 81.34375 z M 83.21875 95.78125 C 80.942388 95.964762 79.338972 98.133809 79.875 102.03125 C 80.665457 107.00367 85.374911 115.04884 90.625 110.375 L 90 109.71875 C 86.311229 113.27878 83.231155 104.75611 82.59375 102.15625 C 81.33565 95.126986 85.90913 96.901455 89.21875 100.75 L 89.90625 100.21875 C 87.990063 97.288143 85.644478 95.848371 83.6875 95.78125 C 83.530243 95.775856 83.370507 95.769016 83.21875 95.78125 z M 190.15625 98.0625 C 187.86094 98.021485 184.56241 100.46794 182.5 102.875 L 182.90625 103.53125 C 185.37136 100.70023 190.91563 96.613871 190.03125 103.25 C 189.30384 106.92387 187.08846 111.31205 182.90625 109.5 L 182.25 109.90625 C 187.19189 114.87653 191.52431 108.55933 192.625 103.875 C 193.1227 99.628016 191.94149 98.094401 190.15625 98.0625 z M 143.875 124.34375 L 143.4375 124.71875 C 145.16829 125.34509 145.88674 127.87596 146.4375 129.0625 C 147.59577 131.67342 146.60865 133.82844 144.96875 135.5625 C 142.91125 134.1907 140.4632 133.75786 137.96875 133.65625 C 134.35377 133.09732 132.28708 135.99739 129.28125 137.0625 C 125.88561 136.48137 127.49904 131.52589 128.4375 129.375 C 129.18624 128.1048 130.14379 125.71896 131.34375 125.65625 L 131.25 125.28125 C 129.22889 125.38687 127.6861 126.73393 126.71875 128.375 C 124.524 131.92306 120.99752 140.47907 129.59375 139.03125 C 132.72013 137.98638 134.34967 134.98152 137.84375 134.78125 C 140.53717 134.35118 142.57329 136.84019 144.84375 137.5625 C 152.24455 137.52613 149.92015 131.67387 148.28125 128.21875 C 147.52333 126.58592 146.06175 125.13509 143.875 124.34375 z M 135.625 171.65625 C 134.85966 171.663 134.00945 171.72847 133.09375 171.84375 C 124.09879 172.62657 124.17394 176.67712 127.71875 182.1875 L 128.46875 181.65625 C 125.47988 177.28368 128.77037 175.80543 133.21875 174.96875 C 137.31067 174.57324 141.04589 174.64623 138.84375 178.875 L 139.5 179.34375 C 142.58051 174.21622 140.98235 171.60897 135.625 171.65625 z M 165.625 175.5625 C 165.18473 178.18669 165.2379 182.38125 165.9375 185.03125 C 156.10797 196.98876 147.8791 194.86252 139.0625 197.90625 L 141.78125 204.375 C 139.65076 207.33374 139.02297 211.3107 138.71875 214.78125 C 136.6423 211.19811 134.34258 204.9466 131.09375 202.28125 L 132.0625 199.59375 C 123.87608 198.61671 117.42778 195.90243 112.46875 189.96875 C 113.32757 188.21569 113.12564 185.70278 113.125 184.0625 C 117.64511 190.52966 128.44852 194.2019 136.8125 193.40625 C 145.26541 192.43718 160.36981 187.60718 159.4375 179.40625 C 161.64001 178.07684 163.6818 176.80262 165.625 175.5625 z M 169.53125 182.78125 C 175.52319 184.04356 180.26067 188.69846 183.9375 193.375 C 177.518 201.69262 172.16678 207.78686 166.71875 211.90625 C 161.3148 215.99232 155.74237 218.23074 148.625 219.09375 L 141.8125 199.71875 C 154.017 198.90549 161.6538 192.25468 169.53125 182.78125 z M 107.8125 185.25 C 113.61018 195.07867 121.26886 199.91372 129.375 201.15625 L 123.3125 218.46875 C 110.34896 215.74835 99.247826 208.60193 92.8125 199.3125 C 96.417544 193.79346 101.88103 188.6665 107.8125 185.25 z M 187.9375 196.78125 C 197.34358 197.07501 202.88226 202.14179 208.71875 206.59375 C 213.93024 217.59622 217.3701 230.42346 219.75 244.84375 C 194.55828 252.92255 167.33606 251.04315 141.40625 249.3125 C 144.35935 242.1033 143.05209 235.60417 143.875 228.75 L 140.3125 218.6875 C 142.85052 215.30371 143.35632 214.61713 143.5 210.53125 L 146.65625 221.28125 C 152.32563 223.95467 162.95507 216.86332 167.90625 213.5 C 173.06737 209.59754 177.97464 204.17653 183.65625 196.96875 C 185.16992 196.80046 186.59377 196.73928 187.9375 196.78125 z M 89.625 201.28125 C 90.468161 201.25646 91.238694 201.3184 91.875 201.5 C 101.68828 209.40521 109.22302 220.34848 124.59375 220.84375 L 129.34375 207.3125 L 141.8125 228.59375 C 140.54527 235.572 140.52908 242.89145 135.84375 248.9375 C 111.21699 249.50655 84.763109 248.37965 60.46875 244.34375 C 61.738775 238.81291 62.638018 232.02465 63.375 227.03125 C 64.221975 221.29259 65.561247 214.81756 70.625 209.15625 C 73.584346 206.21836 83.722875 201.45476 89.625 201.28125 z M 135.375 225.21875 C 132.96 225.21875 130.625 226.72176 130.625 229.34375 C 130.625 231.96575 132.96 234.71876 135.375 234.71875 C 137.79 234.71875 140 233.21576 140 230.59375 C 140 227.97175 137.79 225.21876 135.375 225.21875 z "
         style="fill:#000000;fill-opacity:1;fill-rule:evenodd;stroke:none;stroke-width:2;stroke-linecap:butt;stroke-linejoin:miter;stroke-miterlimit:4;stroke-dasharray:none;stroke-opacity:1" />
      <path
         sodipodi:nodetypes="cccccccccccccsssccsssccsccsccsccsccsccccccsc"
         id="path2555"
         d="M 111.78125,89.1875 C 107.50631,89.324416 103.45201,90.022764 100.21875,93.1875 L 95.6875,98.40625 C 99.228591,105.07203 103.84796,109.83644 111.40625,111.0625 C 118.33902,109.19133 124.8465,108.58035 130.40625,97.65625 C 124.72438,93.572677 118.67326,90.453018 111.78125,89.1875 z M 138.3125,97.65625 C 142.91524,104.5994 148.9278,110.01162 157.3125,111.0625 C 163.22703,109.24252 169.28572,110.69127 173,98.40625 C 171.12064,97.025804 169.9524,94.967298 168.5,93.1875 C 165.84484,90.269391 161.95141,89.38673 158.15625,89.3125 C 151.20386,89.31398 143.99563,94.030941 138.3125,97.65625 z M 111.78125,91.4375 C 115.48731,91.4375 118.5,95.280029 118.5,100.09375 C 118.5,104.90747 115.48491,108.58549 111.78125,108.71875 C 106.30032,108.91596 105.00763,104.9201 105.0625,100.09375 C 105.1175,95.255817 107.29024,91.045027 111.78125,91.4375 z M 156.9375,91.4375 C 162.55604,91.271207 163.58986,95.231363 163.65625,100.09375 C 163.72328,105.0028 161.43445,108.36156 156.9375,108.71875 C 152.54083,109.06797 150.53697,104.91485 150.21875,100.09375 C 149.88557,95.046085 151.63093,90.370492 156.9375,91.4375 z M 107.15977,91.433058 C 105.3523,93.436516 103.21875,96.834122 103.21875,100.09375 C 103.21875,102.63404 104.19709,105.15834 105.35892,107.02053 C 102.91712,105.29795 99.28631,102.41 97.15809,98.75 C 98.624583,97.317517 100.58562,95.767381 101.6875,94.53125 C 102.66423,93.435519 104.86499,92.049593 107.15977,91.433058 z M 162.53125,91.875 C 164.81745,92.491535 166.02327,93.435519 167,94.53125 C 168.10188,95.767381 169.00226,97.317517 170.46875,98.75 C 168.3554,102.38396 166.07104,105.08802 163.65625,106.8125 C 164.80468,104.95603 165.46875,102.61776 165.46875,100.09375 C 165.46875,96.836213 164.33671,93.878384 162.53125,91.875 z M 150.5,92.9375 C 149.18131,94.857356 148.375,97.367958 148.375,100.09375 C 148.375,102.66053 149.09746,105.03498 150.28125,106.90625 C 147.38872,105.14257 143.38178,102.00046 140.24648,97.891085 C 143.44549,95.808212 147.42934,94.192755 150.5,92.9375 z M 116.27421,91.996478 C 119.32796,93.244995 125.61718,95.879484 128.79458,97.948223 C 125.89137,102.28688 120.46777,107.56637 116.52421,108.08119 C 117.68605,106.219 120.34375,102.63404 120.34375,100.09375 C 120.34375,97.380101 117.58241,93.912989 116.27421,91.996478 z"
         style="fill:#000000;fill-opacity:1;fill-rule:evenodd;stroke:none;stroke-width:2;stroke-linecap:butt;stroke-linejoin:miter;stroke-miterlimit:4;stroke-dasharray:none;stroke-opacity:1" />
      <path
         transform="matrix(0.945219,0.326437,-0.4226193,1.223721,64.640439,-69.820999)"
         d="M 104,143 A 6.6875,7 0 1 1 90.625,143 A 6.6875,7 0 1 1 104,143 z"
         sodipodi:ry="7"
         sodipodi:rx="6.6875"
         sodipodi:cy="143"
         sodipodi:cx="97.3125"
         id="path2610"
         style="opacity:1;fill:#ff0000;fill-opacity:0.22374429;stroke:none;stroke-width:1;stroke-miterlimit:4;stroke-dasharray:none;stroke-opacity:1;filter:url(#filter3287)"
         sodipodi:type="arc" />
      <path
         sodipodi:type="arc"
         style="opacity:1;fill:#ff0000;fill-opacity:0.22374429;stroke:none;stroke-width:1;stroke-miterlimit:4;stroke-dasharray:none;stroke-opacity:1;filter:url(#filter3291)"
         id="path2612"
         sodipodi:cx="97.3125"
         sodipodi:cy="143"
         sodipodi:rx="6.6875"
         sodipodi:ry="7"
         d="M 104,143 A 6.6875,7 0 1 1 90.625,143 A 6.6875,7 0 1 1 104,143 z"
         transform="matrix(0.9410881,-0.3381615,0.4377984,1.218373,24.127693,-5.1324868)" />
      <path
         sodipodi:nodetypes="ccccc"
         id="path3573"
         d="M 137.25,217 L 149.25,227.75 L 138,251.75 L 143.25,230.5 L 137.25,217 z"
         style="fill:#000000;fill-rule:evenodd;stroke:none;stroke-width:1px;stroke-linecap:butt;stroke-linejoin:miter;stroke-opacity:1;filter:url(#filter3655);fill-opacity:0.51598173" />
      <path
         sodipodi:nodetypes="ccc"
         id="path3709"
         d="M 127.98633,181.53538 C 130.76572,178.58437 133.41923,175.31866 138.94648,179.23728 C 148.10588,173.05837 119.63756,168.51591 127.98633,181.53538 z"
         style="fill:#000000;fill-rule:evenodd;stroke:none;stroke-width:1px;stroke-linecap:butt;stroke-linejoin:miter;stroke-opacity:1;filter:url(#filter3807);fill-opacity:0.45662099" />
      <path
         sodipodi:nodetypes="ccc"
         id="path3811"
         d="M 145.13367,125.32039 C 147.43931,128.36445 148.76679,131.82773 147.78532,136.28055 C 147.78532,141.03345 162.63456,129.43522 145.13367,125.32039 z"
         style="fill:#000000;fill-rule:evenodd;stroke:none;stroke-width:1px;stroke-linecap:butt;stroke-linejoin:miter;stroke-opacity:1;filter:url(#filter3881);fill-opacity:0.4977169" />
      <path
         sodipodi:nodetypes="ccc"
         id="path3885"
         d="M 89.095455,100.2181 C 88.333511,102.58311 85.39518,103.10657 90.332891,110.29437 C 84.570455,121.18504 73.81639,84.230291 89.095455,100.2181 z"
         style="fill:#000000;fill-rule:evenodd;stroke:none;stroke-width:1px;stroke-linecap:butt;stroke-linejoin:miter;stroke-opacity:1;filter:url(#filter4035);fill-opacity:0.34703195" />
      <path
         transform="matrix(-1,0,0,1,272.17128,2.1213203)"
         style="fill:#000000;fill-opacity:0.34703195;fill-rule:evenodd;stroke:none;stroke-width:1px;stroke-linecap:butt;stroke-linejoin:miter;stroke-opacity:1;filter:url(#filter4035)"
         d="M 89.095455,100.2181 C 88.333511,102.58311 84.511297,100.80847 89.449008,107.99627 C 82.095581,118.35661 73.81639,84.230291 89.095455,100.2181 z"
         id="path4039"
         sodipodi:nodetypes="ccc" />
      <path
         sodipodi:nodetypes="cccsc"
         id="path4189"
         d="M 100.58594,111.88536 C 102.15184,116.26904 100.0508,119.73599 97.934289,123.19907 C 107.71593,120.13601 117.49758,116.80857 127.27922,118.77965 C 125.31149,118.49855 127.84695,110.93096 126.74889,111.88536 C 124.93435,113.46251 100.76272,115.24258 100.58594,111.88536 z"
         style="fill:#ffffff;fill-rule:evenodd;stroke:none;stroke-width:1px;stroke-linecap:butt;stroke-linejoin:miter;stroke-opacity:1;filter:url(#filter4273);fill-opacity:0.25114155" />
      <path
         style="fill:#ffffff;fill-rule:evenodd;stroke:none;stroke-width:1px;stroke-linecap:butt;stroke-linejoin:miter;stroke-opacity:1;filter:url(#filter4277);fill-opacity:0.25114155"
         d="M 169.70563,111.70858 C 168.13973,116.09226 170.24077,119.55921 172.35728,123.02229 C 162.57564,119.95923 152.79399,116.63179 143.01235,118.60287 C 144.98008,118.32177 142.95846,112.0991 143.54268,111.70858 C 146.07016,110.01909 169.52885,115.0658 169.70563,111.70858 z"
         id="path4191"
         sodipodi:nodetypes="cccsc" />
    </g>
  </g>
</svg>
