<?xml version="1.0" encoding="UTF-8" standalone="no"?>
<!-- Created with Inkscape (http://www.inkscape.org/) -->
<svg
   xmlns:dc="http://purl.org/dc/elements/1.1/"
   xmlns:cc="http://creativecommons.org/ns#"
   xmlns:rdf="http://www.w3.org/1999/02/22-rdf-syntax-ns#"
   xmlns:svg="http://www.w3.org/2000/svg"
   xmlns="http://www.w3.org/2000/svg"
   xmlns:xlink="http://www.w3.org/1999/xlink"
   xmlns:sodipodi="http://sodipodi.sourceforge.net/DTD/sodipodi-0.dtd"
   xmlns:inkscape="http://www.inkscape.org/namespaces/inkscape"
   width="280"
   height="280"
   id="svg2"
   sodipodi:version="0.32"
   inkscape:version="0.45+devel"
   sodipodi:docbase="/home/nicu/Desktop"
   sodipodi:docname="face06_girl.svg"
   inkscape:output_extension="org.inkscape.output.svg.inkscape"
   version="1.0">
  <defs
     id="defs4">
    <linearGradient
       inkscape:collect="always"
       id="linearGradient3066">
      <stop
         style="stop-color:#ffffff;stop-opacity:1;"
         offset="0"
         id="stop3068" />
      <stop
         style="stop-color:#ffffff;stop-opacity:0;"
         offset="1"
         id="stop3070" />
    </linearGradient>
    <linearGradient
       id="linearGradient3017">
      <stop
         style="stop-color:#0039cd;stop-opacity:1;"
         offset="0"
         id="stop3019" />
      <stop
         style="stop-color:#4b92ff;stop-opacity:1;"
         offset="1"
         id="stop3021" />
    </linearGradient>
    <linearGradient
       id="linearGradient2430">
      <stop
         style="stop-color:#ffdc00;stop-opacity:1;"
         offset="0"
         id="stop2432" />
      <stop
         id="stop2438"
         offset="0.5"
         style="stop-color:#ffff00;stop-opacity:1;" />
      <stop
         style="stop-color:#ffb100;stop-opacity:1;"
         offset="1"
         id="stop2434" />
    </linearGradient>
    <linearGradient
       id="linearGradient5327">
      <stop
         style="stop-color:#f3c3a3;stop-opacity:1;"
         offset="0"
         id="stop5329" />
      <stop
         style="stop-color:#f6d0b7;stop-opacity:1;"
         offset="1"
         id="stop5331" />
    </linearGradient>
    <linearGradient
       id="linearGradient5315">
      <stop
         style="stop-color:#db0000;stop-opacity:1;"
         offset="0"
         id="stop5317" />
      <stop
         style="stop-color:#ff0000;stop-opacity:1;"
         offset="1"
         id="stop5319" />
    </linearGradient>
    <linearGradient
       id="linearGradient5305">
      <stop
         style="stop-color:#ffffff;stop-opacity:0;"
         offset="0"
         id="stop5307" />
      <stop
         style="stop-color:#363636;stop-opacity:0.51785713;"
         offset="1"
         id="stop5309" />
    </linearGradient>
    <linearGradient
       id="linearGradient5289">
      <stop
         style="stop-color:#000080;stop-opacity:1;"
         offset="0"
         id="stop5291" />
      <stop
         style="stop-color:#0000b9;stop-opacity:1;"
         offset="1"
         id="stop5293" />
    </linearGradient>
    <linearGradient
       id="linearGradient5263">
      <stop
         style="stop-color:#ffba00;stop-opacity:1;"
         offset="0"
         id="stop5265" />
      <stop
         style="stop-color:#7c3100;stop-opacity:1;"
         offset="1"
         id="stop5267" />
    </linearGradient>
    <filter
       inkscape:collect="always"
       id="filter6320">
      <feGaussianBlur
         inkscape:collect="always"
         stdDeviation="1.8675"
         id="feGaussianBlur6322" />
    </filter>
    <filter
       inkscape:collect="always"
       x="-0.58153844"
       width="2.1630769"
       y="-0.10113712"
       height="1.2022742"
       id="filter8342">
      <feGaussianBlur
         inkscape:collect="always"
         stdDeviation="1.0280243"
         id="feGaussianBlur8344" />
    </filter>
    <filter
       inkscape:collect="always"
       x="-0.35158238"
       width="1.7031647"
       y="-0.114118"
       height="1.228236"
       id="filter8356">
      <feGaussianBlur
         inkscape:collect="always"
         stdDeviation="1.1037697"
         id="feGaussianBlur8358" />
    </filter>
    <filter
       inkscape:collect="always"
       x="-0.23287708"
       width="1.4657542"
       y="-0.30490088"
       height="1.6098018"
       id="filter9533">
      <feGaussianBlur
         inkscape:collect="always"
         stdDeviation="2.178433"
         id="feGaussianBlur9535" />
    </filter>
    <filter
       inkscape:collect="always"
       x="-0.29874125"
       width="1.5974824"
       y="-0.3113198"
       height="1.6226397"
       id="filter9537">
      <feGaussianBlur
         inkscape:collect="always"
         stdDeviation="2.178433"
         id="feGaussianBlur9539" />
    </filter>
    <filter
       inkscape:collect="always"
       id="filter10552">
      <feGaussianBlur
         inkscape:collect="always"
         stdDeviation="0.84191547"
         id="feGaussianBlur10554" />
    </filter>
    <filter
       inkscape:collect="always"
       x="-0.058600981"
       width="1.117202"
       y="-0.12601697"
       height="1.2520339"
       id="filter11541">
      <feGaussianBlur
         inkscape:collect="always"
         stdDeviation="1.6206864"
         id="feGaussianBlur11543" />
    </filter>
    <filter
       inkscape:collect="always"
       x="-0.099726819"
       width="1.1994536"
       y="-0.11000793"
       height="1.2200159"
       id="filter12552">
      <feGaussianBlur
         inkscape:collect="always"
         stdDeviation="1.1115385"
         id="feGaussianBlur12554" />
    </filter>
    <filter
       inkscape:collect="always"
       x="-0.079589747"
       width="1.1591794"
       y="-0.15259688"
       height="1.3051937"
       id="filter14592">
      <feGaussianBlur
         inkscape:collect="always"
         stdDeviation="2.9897924"
         id="feGaussianBlur14594" />
    </filter>
    <linearGradient
       inkscape:collect="always"
       xlink:href="#linearGradient3066"
       id="linearGradient2599"
       gradientUnits="userSpaceOnUse"
       gradientTransform="translate(436.34495,523.58932)"
       x1="111.45772"
       y1="217.33266"
       x2="121.26881"
       y2="225.46439" />
    <linearGradient
       inkscape:collect="always"
       xlink:href="#linearGradient3017"
       id="linearGradient2602"
       gradientUnits="userSpaceOnUse"
       gradientTransform="translate(13.061295,2.7460104)"
       x1="544.19891"
       y1="749.31293"
       x2="545.78363"
       y2="746.2193" />
    <linearGradient
       inkscape:collect="always"
       xlink:href="#linearGradient3017"
       id="linearGradient2605"
       gradientUnits="userSpaceOnUse"
       gradientTransform="translate(13.061295,2.7460104)"
       x1="540.56396"
       y1="748.27454"
       x2="544.36572"
       y2="745.88806" />
    <linearGradient
       inkscape:collect="always"
       xlink:href="#linearGradient3017"
       id="linearGradient2608"
       gradientUnits="userSpaceOnUse"
       gradientTransform="translate(13.061295,2.7460104)"
       x1="545.59613"
       y1="746.11108"
       x2="546.93634"
       y2="741.60327" />
    <linearGradient
       inkscape:collect="always"
       xlink:href="#linearGradient3017"
       id="linearGradient2611"
       gradientUnits="userSpaceOnUse"
       gradientTransform="translate(13.061295,2.7460104)"
       x1="542.53363"
       y1="742.99237"
       x2="546.32654"
       y2="739.8988" />
    <linearGradient
       inkscape:collect="always"
       xlink:href="#linearGradient3017"
       id="linearGradient2614"
       gradientUnits="userSpaceOnUse"
       gradientTransform="translate(13.061295,2.7460104)"
       x1="540.04254"
       y1="746.99054"
       x2="539.88824"
       y2="741.34332" />
    <linearGradient
       inkscape:collect="always"
       xlink:href="#linearGradient3017"
       id="linearGradient2617"
       gradientUnits="userSpaceOnUse"
       gradientTransform="translate(13.061295,2.7460104)"
       x1="541.34613"
       y1="743.12567"
       x2="542.16602"
       y2="740.38568" />
    <linearGradient
       inkscape:collect="always"
       xlink:href="#linearGradient2430"
       id="linearGradient2621"
       gradientUnits="userSpaceOnUse"
       gradientTransform="translate(13.061295,2.7460104)"
       x1="539.51434"
       y1="737.64563"
       x2="544.64087"
       y2="752.59332" />
    <linearGradient
       inkscape:collect="always"
       xlink:href="#linearGradient5315"
       id="linearGradient2634"
       gradientUnits="userSpaceOnUse"
       gradientTransform="translate(434.34495,522.58932)"
       x1="124.25"
       y1="182.25"
       x2="122.77142"
       y2="173.40366" />
    <radialGradient
       inkscape:collect="always"
       xlink:href="#linearGradient5305"
       id="radialGradient2637"
       gradientUnits="userSpaceOnUse"
       gradientTransform="matrix(0.391178,0.7686305,-1.1576984,0.5891858,1103.4943,-166.29019)"
       cx="564.45435"
       cy="643.58978"
       fx="564.45435"
       fy="643.58978"
       r="16.351845" />
    <radialGradient
       inkscape:collect="always"
       xlink:href="#linearGradient5305"
       id="radialGradient2640"
       gradientUnits="userSpaceOnUse"
       gradientTransform="matrix(0.1009471,1.3403496,-1.867175,0.1406244,1685.7033,-114.63396)"
       cx="504.04092"
       cy="653.388"
       fx="504.04092"
       fy="653.388"
       r="14.760855" />
    <linearGradient
       inkscape:collect="always"
       xlink:href="#linearGradient5263"
       id="linearGradient2643"
       gradientUnits="userSpaceOnUse"
       gradientTransform="translate(434.59495,526.83932)"
       x1="148.93437"
       y1="94.480667"
       x2="155.43634"
       y2="101.48067" />
    <linearGradient
       inkscape:collect="always"
       xlink:href="#linearGradient5289"
       id="linearGradient2646"
       gradientUnits="userSpaceOnUse"
       gradientTransform="translate(434.34495,522.58932)"
       x1="145.47681"
       y1="121.73828"
       x2="156.58125"
       y2="131.61328" />
    <linearGradient
       inkscape:collect="always"
       xlink:href="#linearGradient5289"
       id="linearGradient2649"
       gradientUnits="userSpaceOnUse"
       gradientTransform="translate(434.34495,522.58932)"
       x1="90.875"
       y1="129.75"
       x2="94"
       y2="139.99286" />
    <linearGradient
       inkscape:collect="always"
       xlink:href="#linearGradient5263"
       id="linearGradient2655"
       gradientUnits="userSpaceOnUse"
       gradientTransform="translate(434.34495,522.58932)"
       x1="69.650017"
       y1="51.958061"
       x2="137.88582"
       y2="93.677361" />
    <linearGradient
       inkscape:collect="always"
       xlink:href="#linearGradient5263"
       id="linearGradient2659"
       gradientUnits="userSpaceOnUse"
       gradientTransform="translate(434.34495,522.58932)"
       x1="151.71877"
       y1="47.296875"
       x2="222.01981"
       y2="144.29688" />
    <linearGradient
       inkscape:collect="always"
       xlink:href="#linearGradient5263"
       id="linearGradient2662"
       gradientUnits="userSpaceOnUse"
       gradientTransform="translate(434.34495,522.58932)"
       x1="-37.5"
       y1="18"
       x2="78.875008"
       y2="181.75" />
    <linearGradient
       inkscape:collect="always"
       xlink:href="#linearGradient5263"
       id="linearGradient2665"
       gradientUnits="userSpaceOnUse"
       gradientTransform="translate(434.34495,522.58932)"
       x1="48.500023"
       y1="2.75"
       x2="167.5"
       y2="190.75" />
    <linearGradient
       inkscape:collect="always"
       xlink:href="#linearGradient5263"
       id="linearGradient2669"
       gradientUnits="userSpaceOnUse"
       gradientTransform="translate(434.34495,522.58932)"
       x1="91.315125"
       y1="114.00668"
       x2="96.22718"
       y2="116.48156" />
    <linearGradient
       inkscape:collect="always"
       xlink:href="#linearGradient5327"
       id="linearGradient2672"
       gradientUnits="userSpaceOnUse"
       gradientTransform="translate(434.34495,522.58932)"
       x1="112.42998"
       y1="115.95123"
       x2="155.91704"
       y2="177.11597" />
    <linearGradient
       inkscape:collect="always"
       xlink:href="#linearGradient5289"
       id="linearGradient2676"
       gradientUnits="userSpaceOnUse"
       gradientTransform="translate(434.34495,522.58932)"
       x1="75.04171"
       y1="218.60893"
       x2="80.048882"
       y2="248.85893" />
    <linearGradient
       inkscape:collect="always"
       xlink:href="#linearGradient5289"
       id="linearGradient2679"
       gradientUnits="userSpaceOnUse"
       gradientTransform="translate(434.34495,522.58932)"
       x1="171.29939"
       y1="221.41559"
       x2="170.53864"
       y2="247.66559" />
    <linearGradient
       inkscape:collect="always"
       xlink:href="#linearGradient5327"
       id="linearGradient2682"
       gradientUnits="userSpaceOnUse"
       gradientTransform="translate(434.34495,522.58932)"
       x1="106.71499"
       y1="208.91563"
       x2="143.40759"
       y2="246.03874" />
    <linearGradient
       inkscape:collect="always"
       xlink:href="#linearGradient5327"
       id="linearGradient2542"
       gradientUnits="userSpaceOnUse"
       gradientTransform="translate(434.34495,522.58932)"
       x1="106.71499"
       y1="208.91563"
       x2="143.40759"
       y2="246.03874" />
    <linearGradient
       inkscape:collect="always"
       xlink:href="#linearGradient5289"
       id="linearGradient2544"
       gradientUnits="userSpaceOnUse"
       gradientTransform="translate(434.34495,522.58932)"
       x1="171.29939"
       y1="221.41559"
       x2="170.53864"
       y2="247.66559" />
    <linearGradient
       inkscape:collect="always"
       xlink:href="#linearGradient5289"
       id="linearGradient2546"
       gradientUnits="userSpaceOnUse"
       gradientTransform="translate(434.34495,522.58932)"
       x1="75.04171"
       y1="218.60893"
       x2="80.048882"
       y2="248.85893" />
    <linearGradient
       inkscape:collect="always"
       xlink:href="#linearGradient5327"
       id="linearGradient2548"
       gradientUnits="userSpaceOnUse"
       gradientTransform="translate(434.34495,522.58932)"
       x1="112.42998"
       y1="115.95123"
       x2="155.91704"
       y2="177.11597" />
    <linearGradient
       inkscape:collect="always"
       xlink:href="#linearGradient5263"
       id="linearGradient2550"
       gradientUnits="userSpaceOnUse"
       gradientTransform="translate(434.34495,522.58932)"
       x1="91.315125"
       y1="114.00668"
       x2="96.22718"
       y2="116.48156" />
    <linearGradient
       inkscape:collect="always"
       xlink:href="#linearGradient5263"
       id="linearGradient2552"
       gradientUnits="userSpaceOnUse"
       gradientTransform="translate(434.34495,522.58932)"
       x1="141.50002"
       y1="143.75"
       x2="191.5"
       y2="223.75" />
    <linearGradient
       inkscape:collect="always"
       xlink:href="#linearGradient5263"
       id="linearGradient2554"
       gradientUnits="userSpaceOnUse"
       gradientTransform="translate(434.34495,522.58932)"
       x1="58"
       y1="147"
       x2="101"
       y2="213" />
    <linearGradient
       inkscape:collect="always"
       xlink:href="#linearGradient5263"
       id="linearGradient2556"
       gradientUnits="userSpaceOnUse"
       gradientTransform="translate(434.34495,522.58932)"
       x1="151.71877"
       y1="47.296875"
       x2="222.01981"
       y2="144.29688" />
    <linearGradient
       inkscape:collect="always"
       xlink:href="#linearGradient5263"
       id="linearGradient2558"
       gradientUnits="userSpaceOnUse"
       gradientTransform="translate(434.34495,522.58932)"
       x1="69.650017"
       y1="51.958061"
       x2="137.88582"
       y2="93.677361" />
    <linearGradient
       inkscape:collect="always"
       xlink:href="#linearGradient5289"
       id="linearGradient2560"
       gradientUnits="userSpaceOnUse"
       gradientTransform="translate(434.34495,522.58932)"
       x1="90.875"
       y1="129.75"
       x2="94"
       y2="139.99286" />
    <linearGradient
       inkscape:collect="always"
       xlink:href="#linearGradient5289"
       id="linearGradient2562"
       gradientUnits="userSpaceOnUse"
       gradientTransform="translate(434.34495,522.58932)"
       x1="145.47681"
       y1="121.73828"
       x2="156.58125"
       y2="131.61328" />
    <linearGradient
       inkscape:collect="always"
       xlink:href="#linearGradient5263"
       id="linearGradient2564"
       gradientUnits="userSpaceOnUse"
       gradientTransform="translate(434.59495,526.83932)"
       x1="148.93437"
       y1="94.480667"
       x2="155.43634"
       y2="101.48067" />
    <radialGradient
       inkscape:collect="always"
       xlink:href="#linearGradient5305"
       id="radialGradient2566"
       gradientUnits="userSpaceOnUse"
       gradientTransform="matrix(0.1009471,1.3403496,-1.867175,0.1406244,1685.7033,-114.63396)"
       cx="504.04092"
       cy="653.388"
       fx="504.04092"
       fy="653.388"
       r="14.760855" />
    <radialGradient
       inkscape:collect="always"
       xlink:href="#linearGradient5305"
       id="radialGradient2568"
       gradientUnits="userSpaceOnUse"
       gradientTransform="matrix(0.391178,0.7686305,-1.1576984,0.5891858,1103.4943,-166.29019)"
       cx="564.45435"
       cy="643.58978"
       fx="564.45435"
       fy="643.58978"
       r="16.351845" />
    <linearGradient
       inkscape:collect="always"
       xlink:href="#linearGradient5315"
       id="linearGradient2570"
       gradientUnits="userSpaceOnUse"
       gradientTransform="translate(434.34495,522.58932)"
       x1="124.25"
       y1="182.25"
       x2="122.77142"
       y2="173.40366" />
    <linearGradient
       inkscape:collect="always"
       xlink:href="#linearGradient2430"
       id="linearGradient2572"
       gradientUnits="userSpaceOnUse"
       gradientTransform="translate(13.061295,2.7460104)"
       x1="539.51434"
       y1="737.64563"
       x2="544.64087"
       y2="752.59332" />
    <linearGradient
       inkscape:collect="always"
       xlink:href="#linearGradient3017"
       id="linearGradient2574"
       gradientUnits="userSpaceOnUse"
       gradientTransform="translate(13.061295,2.7460104)"
       x1="541.34613"
       y1="743.12567"
       x2="542.16602"
       y2="740.38568" />
    <linearGradient
       inkscape:collect="always"
       xlink:href="#linearGradient3017"
       id="linearGradient2576"
       gradientUnits="userSpaceOnUse"
       gradientTransform="translate(13.061295,2.7460104)"
       x1="540.04254"
       y1="746.99054"
       x2="539.88824"
       y2="741.34332" />
    <linearGradient
       inkscape:collect="always"
       xlink:href="#linearGradient3017"
       id="linearGradient2578"
       gradientUnits="userSpaceOnUse"
       gradientTransform="translate(13.061295,2.7460104)"
       x1="542.53363"
       y1="742.99237"
       x2="546.32654"
       y2="739.8988" />
    <linearGradient
       inkscape:collect="always"
       xlink:href="#linearGradient3017"
       id="linearGradient2580"
       gradientUnits="userSpaceOnUse"
       gradientTransform="translate(13.061295,2.7460104)"
       x1="545.59613"
       y1="746.11108"
       x2="546.93634"
       y2="741.60327" />
    <linearGradient
       inkscape:collect="always"
       xlink:href="#linearGradient3017"
       id="linearGradient2582"
       gradientUnits="userSpaceOnUse"
       gradientTransform="translate(13.061295,2.7460104)"
       x1="540.56396"
       y1="748.27454"
       x2="544.36572"
       y2="745.88806" />
    <linearGradient
       inkscape:collect="always"
       xlink:href="#linearGradient3017"
       id="linearGradient2584"
       gradientUnits="userSpaceOnUse"
       gradientTransform="translate(13.061295,2.7460104)"
       x1="544.19891"
       y1="749.31293"
       x2="545.78363"
       y2="746.2193" />
    <linearGradient
       inkscape:collect="always"
       xlink:href="#linearGradient3066"
       id="linearGradient2586"
       gradientUnits="userSpaceOnUse"
       gradientTransform="translate(436.34495,523.58932)"
       x1="111.45772"
       y1="217.33266"
       x2="121.26881"
       y2="225.46439" />
    <linearGradient
       inkscape:collect="always"
       xlink:href="#linearGradient3066"
       id="linearGradient2589"
       gradientUnits="userSpaceOnUse"
       gradientTransform="translate(436.34495,523.58932)"
       x1="111.45772"
       y1="217.33266"
       x2="121.26881"
       y2="225.46439" />
    <linearGradient
       inkscape:collect="always"
       xlink:href="#linearGradient3017"
       id="linearGradient2592"
       gradientUnits="userSpaceOnUse"
       gradientTransform="translate(13.061295,2.7460104)"
       x1="544.19891"
       y1="749.31293"
       x2="545.78363"
       y2="746.2193" />
    <linearGradient
       inkscape:collect="always"
       xlink:href="#linearGradient3017"
       id="linearGradient2595"
       gradientUnits="userSpaceOnUse"
       gradientTransform="translate(13.061295,2.7460104)"
       x1="540.56396"
       y1="748.27454"
       x2="544.36572"
       y2="745.88806" />
    <linearGradient
       inkscape:collect="always"
       xlink:href="#linearGradient3017"
       id="linearGradient2598"
       gradientUnits="userSpaceOnUse"
       gradientTransform="translate(13.061295,2.7460104)"
       x1="545.59613"
       y1="746.11108"
       x2="546.93634"
       y2="741.60327" />
    <linearGradient
       inkscape:collect="always"
       xlink:href="#linearGradient3017"
       id="linearGradient2601"
       gradientUnits="userSpaceOnUse"
       gradientTransform="translate(13.061295,2.7460104)"
       x1="542.53363"
       y1="742.99237"
       x2="546.32654"
       y2="739.8988" />
    <linearGradient
       inkscape:collect="always"
       xlink:href="#linearGradient3017"
       id="linearGradient2604"
       gradientUnits="userSpaceOnUse"
       gradientTransform="translate(13.061295,2.7460104)"
       x1="540.04254"
       y1="746.99054"
       x2="539.88824"
       y2="741.34332" />
    <linearGradient
       inkscape:collect="always"
       xlink:href="#linearGradient3017"
       id="linearGradient2607"
       gradientUnits="userSpaceOnUse"
       gradientTransform="translate(13.061295,2.7460104)"
       x1="541.34613"
       y1="743.12567"
       x2="542.16602"
       y2="740.38568" />
    <linearGradient
       inkscape:collect="always"
       xlink:href="#linearGradient2430"
       id="linearGradient2612"
       gradientUnits="userSpaceOnUse"
       gradientTransform="translate(13.061295,2.7460104)"
       x1="539.51434"
       y1="737.64563"
       x2="544.64087"
       y2="752.59332" />
    <linearGradient
       inkscape:collect="always"
       xlink:href="#linearGradient5315"
       id="linearGradient2625"
       gradientUnits="userSpaceOnUse"
       gradientTransform="translate(434.34495,522.58932)"
       x1="124.25"
       y1="182.25"
       x2="122.77142"
       y2="173.40366" />
    <radialGradient
       inkscape:collect="always"
       xlink:href="#linearGradient5305"
       id="radialGradient2628"
       gradientUnits="userSpaceOnUse"
       gradientTransform="matrix(0.391178,0.7686305,-1.1576984,0.5891858,1103.4943,-166.29019)"
       cx="564.45435"
       cy="643.58978"
       fx="564.45435"
       fy="643.58978"
       r="16.351845" />
    <radialGradient
       inkscape:collect="always"
       xlink:href="#linearGradient5305"
       id="radialGradient2631"
       gradientUnits="userSpaceOnUse"
       gradientTransform="matrix(0.1009471,1.3403496,-1.867175,0.1406244,1685.7033,-114.63396)"
       cx="504.04092"
       cy="653.388"
       fx="504.04092"
       fy="653.388"
       r="14.760855" />
    <linearGradient
       inkscape:collect="always"
       xlink:href="#linearGradient5263"
       id="linearGradient2635"
       gradientUnits="userSpaceOnUse"
       gradientTransform="translate(434.59495,526.83932)"
       x1="148.93437"
       y1="94.480667"
       x2="155.43634"
       y2="101.48067" />
    <linearGradient
       inkscape:collect="always"
       xlink:href="#linearGradient5289"
       id="linearGradient2638"
       gradientUnits="userSpaceOnUse"
       gradientTransform="translate(434.34495,522.58932)"
       x1="145.47681"
       y1="121.73828"
       x2="156.58125"
       y2="131.61328" />
    <linearGradient
       inkscape:collect="always"
       xlink:href="#linearGradient5289"
       id="linearGradient2641"
       gradientUnits="userSpaceOnUse"
       gradientTransform="translate(434.34495,522.58932)"
       x1="90.875"
       y1="129.75"
       x2="94"
       y2="139.99286" />
    <linearGradient
       inkscape:collect="always"
       xlink:href="#linearGradient5263"
       id="linearGradient2647"
       gradientUnits="userSpaceOnUse"
       gradientTransform="translate(434.34495,522.58932)"
       x1="69.650017"
       y1="51.958061"
       x2="137.88582"
       y2="93.677361" />
    <linearGradient
       inkscape:collect="always"
       xlink:href="#linearGradient5263"
       id="linearGradient2651"
       gradientUnits="userSpaceOnUse"
       gradientTransform="translate(434.34495,522.58932)"
       x1="151.71877"
       y1="47.296875"
       x2="222.01981"
       y2="144.29688" />
    <linearGradient
       inkscape:collect="always"
       xlink:href="#linearGradient5263"
       id="linearGradient2654"
       gradientUnits="userSpaceOnUse"
       gradientTransform="translate(434.34495,522.58932)"
       x1="58"
       y1="147"
       x2="101"
       y2="213" />
    <linearGradient
       inkscape:collect="always"
       xlink:href="#linearGradient5263"
       id="linearGradient2657"
       gradientUnits="userSpaceOnUse"
       gradientTransform="translate(434.34495,522.58932)"
       x1="141.50002"
       y1="143.75"
       x2="191.5"
       y2="223.75" />
    <linearGradient
       inkscape:collect="always"
       xlink:href="#linearGradient5263"
       id="linearGradient2661"
       gradientUnits="userSpaceOnUse"
       gradientTransform="translate(434.34495,522.58932)"
       x1="91.315125"
       y1="114.00668"
       x2="96.22718"
       y2="116.48156" />
    <linearGradient
       inkscape:collect="always"
       xlink:href="#linearGradient5327"
       id="linearGradient2664"
       gradientUnits="userSpaceOnUse"
       gradientTransform="translate(434.34495,522.58932)"
       x1="112.42998"
       y1="115.95123"
       x2="155.91704"
       y2="177.11597" />
    <linearGradient
       inkscape:collect="always"
       xlink:href="#linearGradient5289"
       id="linearGradient2668"
       gradientUnits="userSpaceOnUse"
       gradientTransform="translate(434.34495,522.58932)"
       x1="75.04171"
       y1="218.60893"
       x2="80.048882"
       y2="248.85893" />
    <linearGradient
       inkscape:collect="always"
       xlink:href="#linearGradient5289"
       id="linearGradient2671"
       gradientUnits="userSpaceOnUse"
       gradientTransform="translate(434.34495,522.58932)"
       x1="171.29939"
       y1="221.41559"
       x2="170.53864"
       y2="247.66559" />
    <linearGradient
       inkscape:collect="always"
       xlink:href="#linearGradient5327"
       id="linearGradient2674"
       gradientUnits="userSpaceOnUse"
       gradientTransform="translate(11.06129,1.74601)"
       x1="106.71499"
       y1="208.91563"
       x2="143.40759"
       y2="246.03874" />
    <filter
       inkscape:collect="always"
       id="filter3263">
      <feGaussianBlur
         inkscape:collect="always"
         stdDeviation="2.1127599"
         id="feGaussianBlur3265" />
    </filter>
  </defs>
  <sodipodi:namedview
     id="base"
     pagecolor="#ffffff"
     bordercolor="#666666"
     borderopacity="1.0"
     gridtolerance="10000"
     guidetolerance="10"
     objecttolerance="10"
     inkscape:pageopacity="0.0"
     inkscape:pageshadow="2"
     inkscape:zoom="1"
     inkscape:cx="168.38478"
     inkscape:cy="142.9216"
     inkscape:document-units="px"
     inkscape:current-layer="layer1"
     showguides="true"
     inkscape:guide-bbox="true"
     inkscape:window-width="1533"
     inkscape:window-height="975"
     inkscape:window-x="141"
     inkscape:window-y="24"
     width="280px"
     height="280px"
     showgrid="false" />
  <metadata
     id="metadata7">
    <rdf:RDF>
      <cc:Work
         rdf:about="">
        <dc:format>image/svg+xml</dc:format>
        <dc:type
           rdf:resource="http://purl.org/dc/dcmitype/StillImage" />
      </cc:Work>
    </rdf:RDF>
  </metadata>
  <g
     inkscape:label="Layer 1"
     inkscape:groupmode="layer"
     id="layer1"
     transform="translate(-423.28366,-520.84331)">
    <path
       style="fill:#000000;fill-opacity:1;fill-rule:evenodd;stroke:none;stroke-width:1px;stroke-linecap:butt;stroke-linejoin:miter;stroke-opacity:1;filter:url(#filter3263)"
       d="M 555.81461,544.59289 C 554.85462,544.58957 553.89713,544.58981 552.93961,544.62414 C 551.02457,544.6928 549.11265,544.84384 547.22086,545.06164 C 545.32907,545.27944 543.44661,545.57166 541.59586,545.93664 C 539.74511,546.30162 537.91901,546.73895 536.12711,547.24914 C 533.43925,548.01442 530.85124,548.9439 528.34586,550.03039 C 527.51073,550.39255 526.65626,550.78928 525.84586,551.18664 C 521.80355,553.17115 518.07486,555.59416 514.81461,558.43664 C 513.8025,558.78157 512.79495,559.17824 511.78336,559.62414 C 510.77177,560.07004 509.7551,560.55042 508.75211,561.09289 C 507.74912,561.63535 506.73841,562.23951 505.75211,562.87414 C 504.76581,563.50877 503.80738,564.183 502.84586,564.90539 C 502.3651,565.26658 501.88141,565.64808 501.40836,566.03039 C 500.46226,566.79501 499.53631,567.59087 498.62711,568.43664 C 493.62652,573.08838 489.24765,578.95039 486.15836,585.62414 C 485.87751,586.23085 485.60484,586.81653 485.34586,587.43664 C 484.82358,588.68529 484.36709,589.94942 483.93961,591.24914 C 483.51515,592.5397 483.13748,593.85016 482.81461,595.18664 C 482.65317,595.85488 482.51163,596.53899 482.37711,597.21789 C 482.24259,597.89679 482.10871,598.56014 482.00211,599.24914 C 481.67949,601.32582 481.49014,603.43433 481.43961,605.59289 C 481.38925,607.77748 481.29637,610.00981 481.15836,612.28039 C 480.95135,615.68626 480.64495,619.17766 480.25211,622.74914 C 479.85927,626.32062 479.37962,629.95172 478.81461,633.65539 C 478.06031,638.60344 477.16036,643.63462 476.12711,648.74914 C 475.61155,651.3011 475.04979,653.85811 474.47086,656.43664 C 473.88993,659.02507 473.29909,661.61265 472.65836,664.21789 C 472.49166,664.89572 472.33769,665.56901 472.18961,666.24914 C 472.04289,666.92927 471.91082,667.59824 471.78336,668.28039 C 467.87094,688.75392 471.9148,710.06167 475.37711,728.37414 C 476.14584,730.07319 476.76764,731.9051 477.31461,733.81164 C 477.59451,734.96152 477.88909,736.09458 478.18961,737.24914 C 478.20666,737.32359 478.23524,737.39328 478.25211,737.46789 C 478.25783,737.48979 478.27764,737.50849 478.28336,737.53039 C 480.28519,746.41513 481.02839,756.46621 484.28336,764.06164 C 484.29177,764.13478 484.30644,764.20726 484.31461,764.28039 C 484.41786,764.42484 484.92163,765.5426 485.28336,766.12414 C 485.16522,768.7106 485.01944,771.29195 484.78336,773.87414 C 484.6311,774.44217 484.54743,774.81141 484.50211,775.12414 C 484.43983,775.51408 484.46373,775.74033 484.53336,775.84289 C 484.54439,775.86076 484.55059,775.89341 484.56461,775.90539 C 484.57104,775.90926 484.5889,775.90252 484.59586,775.90539 C 484.72549,775.97646 484.92997,775.86681 485.22086,775.68664 L 488.87711,775.90539 C 488.97124,775.91512 489.06412,775.92708 489.15836,775.93664 C 489.78115,775.99983 490.40587,776.06845 491.03336,776.12414 C 492.66267,776.67379 493.75034,777.84051 495.90836,778.65539 C 502.9245,777.59603 509.69734,778.2963 516.81461,778.53039 C 518.61754,780.2252 521.605,777.70487 522.09586,776.68664 C 539.8753,775.58464 572.13356,775.96162 586.62711,776.49914 C 587.29342,776.52354 587.62867,778.48709 588.31461,778.34289 C 596.48536,776.62526 606.67063,777.91715 614.78336,777.81164 C 616.30276,777.39197 616.37258,776.15443 616.28336,775.24914 L 617.47086,775.15539 C 629.18225,775.6622 641.74371,775.39647 653.78336,775.93664 L 657.59586,776.09289 L 658.22086,776.12414 C 655.32083,773.16591 652.07087,768.83511 648.56461,764.71789 C 648.72231,763.4323 648.9048,762.1089 649.06461,760.81164 C 649.43114,757.83488 649.79614,754.8623 650.18961,751.84289 C 650.41417,750.12181 650.63805,748.38297 650.87711,746.65539 C 650.9161,746.37326 650.96267,746.09386 651.00211,745.81164 C 651.5964,741.56439 652.24184,737.32105 652.97086,733.09289 C 653.17611,731.90126 653.40805,730.71657 653.62711,729.53039 C 654.15319,726.68452 654.69557,723.85996 655.31461,721.06164 C 655.66489,719.47675 656.02349,717.90633 656.40836,716.34289 C 656.67083,715.27707 656.94099,714.20973 657.22086,713.15539 C 658.10739,688.9482 638.11738,661.02786 632.43961,626.87414 C 632.38741,626.5496 632.33365,626.23183 632.28336,625.90539 C 632.11131,624.61242 631.94274,623.32234 631.75211,622.03039 C 631.67543,621.40559 631.59952,620.7843 631.53336,620.15539 C 631.41473,619.47781 631.35614,619.19083 631.18961,618.53039 C 630.48445,612.00091 628.90982,604.79971 626.47086,597.68664 C 626.22769,596.97653 625.98132,596.26879 625.72086,595.56164 C 625.19667,594.13845 624.65883,592.74436 624.06461,591.34289 C 623.76957,590.64644 623.47069,589.96909 623.15836,589.28039 C 620.65622,583.76313 617.61466,578.52605 614.00211,573.96789 C 613.55136,573.39867 613.09517,572.85873 612.62711,572.31164 C 612.15408,571.75873 611.68033,571.21531 611.18961,570.68664 C 610.21887,569.6399 609.19836,568.66017 608.15836,567.71789 C 605.03835,564.89106 601.62073,562.56201 597.87711,560.90539 C 598.13196,560.48581 597.65255,559.94146 597.43961,559.49914 C 593.9629,556.35632 590.07201,553.72405 585.90836,551.59289 C 582.56863,549.88345 579.06793,548.51345 575.43961,547.43664 C 572.72598,546.62993 569.96689,545.99106 567.15836,545.53039 C 563.41365,544.91617 559.60951,544.60603 555.81461,544.59289 z M 632.37711,703.24914 C 632.58462,704.92377 632.8354,706.60246 633.09586,708.31164 C 634.0083,714.30345 635.137,720.46793 635.72086,726.59289 C 635.88739,728.33988 636.00471,730.0776 636.06461,731.81164 C 636.21436,736.14673 635.96916,740.42294 635.06461,744.56164 C 634.79672,745.86384 634.51248,747.14435 634.22086,748.40539 C 634.19305,748.30757 634.15439,748.19292 634.12711,748.09289 C 634.24144,748.02253 634.21521,747.67208 633.87711,747.03039 C 631.40449,736.64852 631.3636,716.57006 632.37711,703.24914 z M 624.53336,723.09289 L 629.68961,740.46789 C 627.40682,737.43066 624.72069,734.77902 623.03336,732.87414 L 623.31461,729.65539 C 623.74786,727.48872 624.17051,725.3064 624.53336,723.09289 z M 644.53336,745.37414 C 644.39515,748.04937 644.31038,750.7015 644.31461,753.34289 C 644.31611,753.97928 644.33317,754.61538 644.34586,755.24914 C 644.35975,755.96863 644.37846,756.6898 644.40836,757.40539 C 644.44804,758.34324 644.4945,759.25548 644.56461,760.18664 C 644.56693,760.21759 644.56226,760.24945 644.56461,760.28039 C 643.00728,758.71056 641.39171,757.31333 639.75211,756.15539 C 640.28024,755.06095 640.80103,753.95097 641.31461,752.84289 C 641.40094,752.65675 641.47887,752.46688 641.56461,752.28039 C 642.6121,750.00033 643.62449,747.70472 644.53336,745.37414 z M 633.56461,747.84289 C 633.85699,748.1147 634.09209,748.33539 634.22086,748.43664 C 634.2186,748.44643 634.22313,748.45811 634.22086,748.46789 C 634.12412,748.88195 634.00638,749.27529 633.90836,749.68664 C 633.84548,749.06885 633.72773,748.45551 633.56461,747.84289 z"
       id="path2462" />
    <g
       id="g2699">
      <path
         sodipodi:nodetypes="ccccccssscccccccccccc"
         id="path5255"
         d="M 540.59496,715.58932 L 539.09496,722.58932 L 525.34496,726.33932 L 500.34495,734.08932 L 491.34495,747.58932 L 484.84495,774.58932 C 495.59004,775.91543 507.01018,776.19084 519.43305,774.69283 C 540.66278,772.13285 562.62743,775.84747 584.59807,774.69036 C 586.24168,774.60379 587.88752,775.2269 589.5356,775.14632 C 611.44439,774.07523 633.75284,772.90324 656.59496,775.08932 L 638.84496,756.58932 L 632.84496,749.58932 L 621.34496,733.58932 L 613.34496,729.08932 L 598.59496,730.33932 L 583.09496,727.83932 L 577.09496,723.33932 L 575.84496,716.83932 L 569.59496,719.58932 L 556.59496,722.83932 L 540.59496,715.58932 z"
         style="fill:url(#linearGradient2682);fill-opacity:1;fill-rule:evenodd;stroke:none;stroke-width:1px;stroke-linecap:butt;stroke-linejoin:miter;stroke-opacity:1" />
      <path
         sodipodi:nodetypes="cccccccc"
         id="path5259"
         d="M 622.25858,729.40377 L 603.69702,728.87344 L 601.39893,737.18194 L 586.01936,774.6586 C 596.52064,776.73543 604.52428,776.43441 614.12685,775.36571 L 613.7733,762.28423 L 617.30883,743.72268 L 622.25858,729.40377 z"
         style="fill:url(#linearGradient2679);fill-rule:evenodd;stroke:none;stroke-width:1px;stroke-linecap:butt;stroke-linejoin:miter;stroke-opacity:1" />
      <path
         sodipodi:nodetypes="ccccccccc"
         id="path5257"
         d="M 501.34332,727.98955 L 524.67785,723.92369 L 526.26883,735.59095 L 526.09205,743.89946 C 525.41782,754.38821 522.58069,766.37696 518.13711,776.86571 C 509.5929,776.90608 501.04869,776.82005 492.50448,775.18893 L 498.51489,761.7539 L 501.69687,742.66202 L 501.34332,727.98955 z"
         style="fill:url(#linearGradient2676);fill-rule:evenodd;stroke:none;stroke-width:1px;stroke-linecap:butt;stroke-linejoin:miter;stroke-opacity:1" />
      <path
         sodipodi:nodetypes="ccsssssccc"
         id="path6326"
         d="M 540.34496,715.58932 L 575.59496,716.58932 C 573.49516,719.14586 603.42106,725.06134 603.14324,728.96071 C 603.06392,730.07405 613.51914,728.64243 621.75897,733.9553 C 626.76352,737.18214 631.39711,747.80584 631.07206,748.86596 C 630.52479,750.65083 600.66825,740.42956 599.26941,740.84383 C 593.95416,742.41794 578.96281,731.53967 569.05426,731.68762 C 561.11572,731.80615 559.7663,740.80377 556.73563,746.45538 C 555.07912,741.3662 547.98857,728.37255 536.77004,733.49739 C 543.26173,729.67523 543.05017,719.759 540.34496,715.58932 z"
         style="fill:#000000;fill-opacity:0.175;fill-rule:evenodd;stroke:none;stroke-width:1px;stroke-linecap:butt;stroke-linejoin:miter;stroke-opacity:1;filter:url(#filter11541)" />
      <path
         sodipodi:nodetypes="cccccccccccccccc"
         id="path4260"
         d="M 507.09495,618.08932 L 506.59495,648.33932 L 507.84495,666.58932 L 514.09496,683.83932 L 519.59496,692.83932 L 526.84496,699.33932 L 541.84496,717.58932 L 552.84496,723.58932 L 564.59496,721.83932 L 576.91081,715.83412 L 592.59496,697.33932 L 605.84496,671.08932 L 606.59496,634.08932 L 594.84496,602.33932 L 565.34496,573.33932 L 507.09495,618.08932 z"
         style="fill:url(#linearGradient2672);fill-opacity:1;fill-rule:evenodd;stroke:none;stroke-width:1px;stroke-linecap:butt;stroke-linejoin:miter;stroke-opacity:1" />
      <path
         id="path5245"
         d="M 522.91008,637.47989 L 529.09726,634.12113 L 531.57214,639.07088 L 522.91008,637.47989 z"
         style="fill:url(#linearGradient2669);fill-opacity:1;fill-rule:evenodd;stroke:none;stroke-width:1px;stroke-linecap:butt;stroke-linejoin:miter;stroke-opacity:1" />
      <path
         sodipodi:nodetypes="ccccccccc"
         id="path5231"
         d="M 508.06083,648.97037 L 529.27405,650.38459 L 537.58254,654.804 L 535.99155,662.05185 L 529.80437,667.88548 L 518.84421,668.94614 L 510.88926,660.63763 L 508.06083,652.15236 L 508.06083,648.97037 z"
         style="fill:#ffffff;fill-opacity:1;fill-rule:evenodd;stroke:none;stroke-width:1px;stroke-linecap:butt;stroke-linejoin:miter;stroke-opacity:1" />
      <path
         sodipodi:nodetypes="ccccccccccccc"
         id="path4254"
         d="M 606.09496,673.08932 L 608.09496,681.83932 L 611.59496,693.08932 L 612.09496,705.58932 L 615.84496,729.58932 L 604.59496,729.58932 L 589.84496,729.08932 L 578.34496,725.58932 C 575.18633,722.63233 576.47021,719.87409 575.84496,717.33932 L 583.59496,708.58932 L 596.09496,692.58932 L 604.09496,675.33932 L 606.09496,673.08932 z"
         style="fill:url(#linearGradient2665);fill-opacity:1;fill-rule:evenodd;stroke:none;stroke-width:1px;stroke-linecap:butt;stroke-linejoin:miter;stroke-opacity:1" />
      <path
         sodipodi:nodetypes="ccccccccccccccccccc"
         id="path3283"
         d="M 509.09495,645.83932 L 507.34495,658.33932 L 510.59495,675.58932 L 519.34496,693.08932 L 529.09496,701.58932 L 541.34496,717.08932 L 539.84496,723.33932 L 525.09496,726.33932 L 524.34496,724.58932 L 500.59495,728.58932 L 501.09495,734.08932 L 496.84495,740.08932 L 486.59495,762.83932 L 485.09495,759.33932 L 485.34495,723.33932 L 493.34495,698.08932 L 502.84495,678.33932 L 506.33239,649.45023 L 509.09495,645.83932 z"
         style="fill:url(#linearGradient2662);fill-opacity:1;fill-rule:evenodd;stroke:none;stroke-width:1px;stroke-linecap:butt;stroke-linejoin:miter;stroke-opacity:1" />
      <path
         sodipodi:nodetypes="cccccccccccccccccccccccccccc"
         id="path3278"
         d="M 586.06371,596.21432 C 589.46778,600.95847 599.91911,612.09032 602.09496,623.33932 C 609.5582,642.85054 606.92485,648.6657 604.25121,674.99557 C 606.9847,682.7142 610.32666,690.99383 611.25121,698.93307 C 613.23056,712.76056 613.416,728.69909 616.56371,742.55807 L 617.40746,741.40182 L 618.78246,742.99557 C 620.61781,737.07672 622.42503,727.23265 623.65746,719.71432 L 630.03246,741.27682 C 630.08849,741.70222 631.00372,745.0164 631.06371,745.43307 C 632.19449,745.18948 631.91372,744.86794 632.37621,745.21432 C 629.54372,735.34193 630.31497,716.19387 631.37621,702.24557 C 633.03627,715.64263 636.95826,730.31424 634.06371,743.55807 C 631.8873,754.13751 628.78368,763.16262 627.09496,773.80807 L 627.37621,773.68307 C 627.33722,773.74698 627.29028,773.80675 627.25121,773.87057 L 630.28246,773.15182 C 633.92876,764.07045 639.59551,754.46591 643.53246,744.37057 C 643.23654,750.09836 643.18373,755.75322 643.75121,761.27682 L 644.68871,761.43307 L 647.31371,765.80807 C 649.47232,748.27239 651.64513,729.38655 656.21996,712.15182 C 655.16255,686.74187 636.99516,661.98222 631.28246,624.90182 C 630.95502,622.44111 630.60697,619.98027 630.18871,617.52682 C 627.93611,596.6689 616.84218,568.73715 596.87621,559.90182 L 586.06371,596.21432 z M 632.37621,745.21432 C 632.53125,747.84029 634.11716,747.65242 632.37621,745.21432 z"
         style="fill:url(#linearGradient2659);fill-opacity:1;stroke:none;stroke-width:5;stroke-miterlimit:4;stroke-dasharray:none;stroke-opacity:1" />
      <path
         sodipodi:nodetypes="csccccccc"
         id="path5337"
         d="M 588.09496,593.83932 C 582.75597,606.57499 576.06152,614.66577 568.57786,620.56803 C 551.68405,633.89195 528.76842,635.06321 510.34495,654.33932 C 511.7851,670.79178 518.68024,685.8805 528.09496,700.33932 L 514.84496,685.58932 L 507.84495,663.33932 L 509.09495,644.08932 L 537.34496,628.83932 L 588.09496,593.83932 z"
         style="fill:#000000;fill-opacity:0.45500004;fill-rule:evenodd;stroke:none;stroke-width:1px;stroke-linecap:butt;stroke-linejoin:miter;stroke-opacity:1;filter:url(#filter6320)" />
      <path
         sodipodi:nodetypes="cccscccccccccccccccc"
         style="fill:url(#linearGradient2655);fill-opacity:1;stroke:none;stroke-width:5;stroke-miterlimit:4;stroke-dasharray:none;stroke-opacity:1"
         d="M 554.81371,543.58932 C 539.45386,543.53613 524.2681,548.3183 513.81371,557.43307 C 497.61995,562.95192 480.97504,581.67674 480.4387,604.58932 C 480.03582,622.06608 476.76351,642.45272 471.65745,663.21432 C 466.32292,684.90484 471.40361,707.84676 475.09495,727.37057 C 477.44267,739.14924 481.97152,751.26778 483.3137,763.27682 C 483.41695,763.42128 483.92072,764.53903 484.28245,765.12057 C 484.16431,767.70704 484.01853,770.28838 483.78245,772.87057 C 482.83649,776.39972 484.10792,774.45038 485.6887,773.87057 C 486.0523,757.11728 487.77474,739.7913 486.65745,722.87057 C 492.48503,711.40414 492.64531,697.23591 499.8137,686.12057 C 505.35729,677.18904 505.04041,661.88613 506.3137,651.58932 C 507.02957,648.52576 507.93601,648.55475 508.15745,646.68307 C 509.3463,646.57285 509.11362,647.16361 509.15745,645.58932 C 514.59642,641.76144 521.14021,639.54771 527.06371,635.87057 C 534.66035,631.16809 553.07677,623.77947 566.87621,618.58932 C 575.66324,612.59357 581.70087,604.86524 586.06371,596.21432 L 596.87621,559.90182 C 597.13105,559.48224 596.65164,558.93789 596.43871,558.49557 C 585.31323,548.43856 569.9933,543.64189 554.81371,543.58932 z"
         id="path5261" />
      <path
         id="path5237"
         d="M 601.92926,639.77798 L 586.37291,638.36377 L 574.70565,643.84385 L 569.22557,651.26847 L 572.054,656.04144 L 579.12506,660.1073 L 587.08002,659.57697 L 592.56009,655.51111 L 598.39373,646.84905 L 601.92926,639.77798 z"
         style="fill:#ffffff;fill-rule:evenodd;stroke:none;stroke-width:1px;stroke-linecap:butt;stroke-linejoin:miter;stroke-opacity:1" />
      <path
         sodipodi:nodetypes="ccccc"
         id="path9541"
         d="M 585.31225,595.05348 C 600.92278,629.44867 604.99131,662.9907 587.08002,704.65503 C 594.56502,694.40198 600.80728,684.14894 605.46479,673.89589 C 607.73416,658.33954 607.3031,642.78319 605.81835,627.22684 C 601.10167,611.73534 593.78721,602.08884 585.31225,595.05348 z"
         style="fill:#000000;fill-opacity:0.11499999;fill-rule:evenodd;stroke:none;stroke-width:1px;stroke-linecap:butt;stroke-linejoin:miter;stroke-opacity:1;filter:url(#filter10552)" />
      <path
         sodipodi:nodetypes="cccccc"
         id="path13549"
         d="M 513.06604,562.46591 C 502.58886,568.30704 501.21653,570.05133 493.6206,578.72936 C 508.32665,590.47998 534.78286,599.61512 557.96732,601.00323 C 560.84147,607.79287 563.72891,609.26592 573.17011,609.48851 C 583.41004,604.11972 578.97513,602.72723 583.77671,594.63927 C 559.42063,585.0936 533.88956,577.31041 513.06604,562.46591 z"
         style="fill:#ffffff;fill-opacity:0.47000002;fill-rule:evenodd;stroke:none;stroke-width:1px;stroke-linecap:butt;stroke-linejoin:miter;stroke-opacity:1;filter:url(#filter14592)" />
      <path
         id="path5239"
         d="M 515.48546,648.61682 L 515.66224,654.62723 L 517.96033,661.16796 L 521.84942,662.58218 L 528.03661,660.99119 L 532.80957,652.15235 L 516.36934,648.44004 L 515.48546,648.61682 z"
         style="fill:url(#linearGradient2649);fill-opacity:1;fill-rule:evenodd;stroke:none;stroke-width:1px;stroke-linecap:butt;stroke-linejoin:miter;stroke-opacity:1" />
      <path
         id="path5241"
         d="M 590.79233,638.01022 L 580.53928,640.13154 L 573.82177,644.72773 L 578.0644,652.85946 L 582.30705,656.04144 L 584.60514,656.39499 L 588.49424,654.98078 L 591.67621,649.5007 L 590.79233,638.01022 z"
         style="fill:url(#linearGradient2646);fill-opacity:1;fill-rule:evenodd;stroke:none;stroke-width:1px;stroke-linecap:butt;stroke-linejoin:miter;stroke-opacity:1" />
      <path
         id="path5247"
         d="M 594.22431,616.45082 L 588.92102,617.86503 L 580.43572,622.638 L 571.77368,630.76973 L 569.65235,635.18915 L 576.19308,630.94651 L 587.86036,624.58255 L 597.4063,620.87024 L 594.22431,616.45082 z"
         style="fill:url(#linearGradient2643);fill-opacity:1;fill-rule:evenodd;stroke:none;stroke-width:1px;stroke-linecap:butt;stroke-linejoin:miter;stroke-opacity:1" />
      <path
         style="fill:url(#radialGradient2640);fill-opacity:1;fill-rule:evenodd;stroke:none;stroke-width:1px;stroke-linecap:butt;stroke-linejoin:miter;stroke-opacity:1"
         d="M 508.06083,648.97037 L 529.27405,650.38459 L 537.58254,654.804 L 535.99155,662.05185 L 529.80437,667.88548 L 518.84421,668.94614 L 510.88926,660.63763 L 508.06083,652.15236 L 508.06083,648.97037 z"
         id="path13535"
         sodipodi:nodetypes="ccccccccc" />
      <path
         style="fill:url(#radialGradient2637);fill-rule:evenodd;stroke:none;stroke-width:1px;stroke-linecap:butt;stroke-linejoin:miter;stroke-opacity:1"
         d="M 601.92926,639.77798 L 586.37291,638.36377 L 574.70565,643.84385 L 569.22557,651.26847 L 572.054,656.04144 L 579.12506,660.1073 L 587.08002,659.57697 L 592.56009,655.51111 L 598.39373,646.84905 L 601.92926,639.77798 z"
         id="path13545" />
      <path
         sodipodi:nodetypes="cccscscccc"
         id="path3260"
         d="M 543.06261,697.76074 L 547.48204,696.16975 L 554.19955,697.76074 C 554.19955,697.76074 560.20997,695.99297 561.80095,695.99297 C 563.39194,695.99297 573.29143,699.52851 573.29143,699.52851 C 573.29143,699.52851 569.93268,705.36214 568.34169,705.71569 C 566.75069,706.06924 556.14409,707.83701 556.14409,707.83701 L 546.42138,705.71569 L 540.9413,700.41239 L 543.06261,697.76074 z"
         style="fill:url(#linearGradient2634);fill-opacity:1;fill-rule:evenodd;stroke:none;stroke-width:1px;stroke-linecap:butt;stroke-linejoin:miter;stroke-opacity:1" />
      <path
         sodipodi:type="arc"
         style="fill:#000000;fill-opacity:1;stroke:none;stroke-width:5;stroke-miterlimit:4;stroke-dasharray:none;stroke-opacity:1"
         id="path12556"
         sodipodi:cx="83.173439"
         sodipodi:cy="132.56824"
         sodipodi:rx="4.3310289"
         sodipodi:ry="4.5961943"
         d="M 87.504468,132.56824 A 4.3310289,4.5961943 0 1 1 78.84241,132.56824 A 4.3310289,4.5961943 0 1 1 87.504468,132.56824 z"
         transform="matrix(0.7790117,0,0,0.7373683,458.09662,557.84531)" />
      <path
         transform="matrix(0.6058427,0,0,0.6013862,475.49968,573.49721)"
         d="M 87.504468,132.56824 A 4.3310289,4.5961943 0 1 1 78.84241,132.56824 A 4.3310289,4.5961943 0 1 1 87.504468,132.56824 z"
         sodipodi:ry="4.5961943"
         sodipodi:rx="4.3310289"
         sodipodi:cy="132.56824"
         sodipodi:cx="83.173439"
         id="path5249"
         style="fill:#ffffff;fill-opacity:1;stroke:none;stroke-width:5;stroke-miterlimit:4;stroke-dasharray:none;stroke-opacity:1"
         sodipodi:type="arc" />
      <path
         sodipodi:type="arc"
         style="fill:#ffffff;fill-opacity:1;stroke:none;stroke-width:5;stroke-miterlimit:4;stroke-dasharray:none;stroke-opacity:1"
         id="path5251"
         sodipodi:cx="83.173439"
         sodipodi:cy="132.56824"
         sodipodi:rx="4.3310289"
         sodipodi:ry="4.5961943"
         d="M 87.504468,132.56824 A 4.3310289,4.5961943 0 1 1 78.84241,132.56824 A 4.3310289,4.5961943 0 1 1 87.504468,132.56824 z"
         transform="matrix(0.6058427,0,0,0.6829754,538.64665,551.77789)" />
      <path
         sodipodi:nodetypes="cccc"
         id="path7323"
         d="M 547.60336,650.304 C 548.42399,655.42836 548.56592,660.21337 551.13889,666.2139 C 549.72469,668.29655 548.31047,671.77132 546.89625,674.69918 L 547.60336,650.304 z"
         style="fill:#ffffff;fill-opacity:0.76499999;fill-rule:evenodd;stroke:none;stroke-width:1px;stroke-linecap:butt;stroke-linejoin:miter;stroke-opacity:1;filter:url(#filter8342)" />
      <path
         transform="matrix(-0.9596959,0.2810404,0.2810404,0.9596959,888.73311,-129.45877)"
         style="fill:#000000;fill-opacity:0.275;fill-rule:evenodd;stroke:none;stroke-width:1px;stroke-linecap:butt;stroke-linejoin:miter;stroke-opacity:1;filter:url(#filter8356)"
         d="M 538.54207,653.05799 C 539.3627,658.18235 539.50463,662.96736 542.0776,668.96789 C 540.66339,671.05054 539.24917,674.52531 537.83496,677.45317 L 538.54207,653.05799 z"
         id="path8346"
         sodipodi:nodetypes="cccc" />
      <path
         sodipodi:nodetypes="cccc"
         id="path8360"
         d="M 523.44042,674.24944 C 529.83351,673.71847 535.4832,671.70067 540.9413,669.29969 C 536.9258,673.73848 535.82367,679.2978 537.9361,686.09348 C 533.19912,681.4811 528.61766,675.78001 523.44042,674.24944 z"
         style="fill:#ffffff;fill-opacity:0.38999999;fill-rule:evenodd;stroke:none;stroke-width:1px;stroke-linecap:butt;stroke-linejoin:miter;stroke-opacity:1;filter:url(#filter9537)" />
      <path
         sodipodi:nodetypes="cccc"
         id="path8362"
         d="M 573.11466,663.99639 C 579.08119,667.83836 586.30328,668.45176 595.5653,663.81961 C 589.26729,668.75553 585.13617,674.62012 582.13027,680.96695 C 580.75302,674.33332 576.7514,669.27433 573.11466,663.99639 z"
         style="fill:#ffffff;fill-opacity:0.38999999;fill-rule:evenodd;stroke:none;stroke-width:1px;stroke-linecap:butt;stroke-linejoin:miter;stroke-opacity:1;filter:url(#filter9533)" />
      <path
         sodipodi:nodetypes="cccc"
         id="path11545"
         d="M 530.09496,739.83932 C 531.17296,747.64961 531.15298,755.61674 527.59496,764.08932 C 532.18383,757.29376 543.24539,755.67634 554.34496,754.08932 C 545.61532,751.43979 536.29228,750.71882 530.09496,739.83932 z"
         style="fill:#ffffff;fill-opacity:0.33500001;fill-rule:evenodd;stroke:none;stroke-width:1px;stroke-linecap:butt;stroke-linejoin:miter;stroke-opacity:1;filter:url(#filter12552)" />
      <path
         transform="matrix(0.7790117,0,0,0.7373683,519.34663,549.84531)"
         d="M 87.504468,132.56824 A 4.3310289,4.5961943 0 1 1 78.84241,132.56824 A 4.3310289,4.5961943 0 1 1 87.504468,132.56824 z"
         sodipodi:ry="4.5961943"
         sodipodi:rx="4.3310289"
         sodipodi:cy="132.56824"
         sodipodi:cx="83.173439"
         id="path12558"
         style="fill:#000000;fill-opacity:1;stroke:none;stroke-width:5;stroke-miterlimit:4;stroke-dasharray:none;stroke-opacity:1"
         sodipodi:type="arc" />
      <path
         id="path3165"
         transform="translate(423.28366,520.84331)"
         d="M 131.53125,22.75 C 116.17141,22.69681 100.98565,27.47898 90.53125,36.59375 C 74.3375,42.1126 57.69259,60.83742 57.15625,83.75 C 56.75337,101.22676 53.48106,121.6134 48.375,142.375 C 43.04047,164.06551 47.40241,187.00744 51.09375,206.53125 C 56.09553,217.58623 55.50599,233.89128 61,244.28125 C 60.88186,246.86771 60.73608,249.44906 60.5,252.03125 C 59.89023,254.30616 60.18435,254.28745 60.90625,253.84375 L 64.875,254.09375 C 64.87278,254.05201 64.87713,254.01046 64.875,253.96875 C 67.7568,254.00071 68.74764,255.72599 71.625,256.8125 C 78.64114,255.75314 85.41398,256.45341 92.53125,256.6875 C 94.33418,258.38231 97.32164,255.86198 97.8125,254.84375 C 115.59194,253.74175 147.8502,254.11873 162.34375,254.65625 C 163.01006,254.68065 163.34531,256.6442 164.03125,256.5 C 172.202,254.78237 182.38727,256.07426 190.5,255.96875 C 192.0194,255.54908 192.08922,254.31154 192,253.40625 L 193.1875,253.3125 C 204.89889,253.81931 217.46035,253.55358 229.5,254.09375 L 233.9375,254.28125 C 231.03747,251.32302 227.78751,246.99222 224.28125,242.875 C 226.35984,225.92951 228.54202,207.87155 232.9375,191.3125 C 233.88141,165.53845 211.16662,135.54616 207.25,98.3125 C 207.13137,97.63492 207.07278,97.34794 206.90625,96.6875 C 204.65366,75.82958 193.55973,47.89783 173.59375,39.0625 C 173.8486,38.64292 173.36919,38.09857 173.15625,37.65625 C 162.03078,27.59924 146.71085,22.80257 131.53125,22.75 z M 127.59375,24.59375 C 142.76848,24.45043 158.32393,29.53167 171.90625,37.9375 C 172.23773,38.32418 172.68973,38.44982 172.3125,39.875 C 166.2322,60.2903 160.36286,83.20535 142.375,96.46875 C 126.59641,100.50696 103.63587,113.08636 99.375,115.6875 C 95.05038,117.71109 90.76821,119.86096 86.875,122.5 C 97.96637,102.1532 107.58264,104.4513 129.53125,86.625 C 143.72245,77.41312 149.38069,55.74536 153.53125,40.71875 C 153.07771,40.88101 152.77029,40.9724 152.3125,41.125 C 147.90646,57.32842 140.87081,73.38035 128.03125,84.6875 C 116.05451,95.71918 89.39776,108.2254 84.5625,124.15625 C 80.99241,126.89864 77.85247,130.16961 75.46875,134.3125 C 72.54893,137.34761 69.6114,142.58559 67.75,144.625 C 60.01777,154.84073 59.45077,168.40136 59.78125,180.71875 C 59.43897,199.85004 61.52063,219.16117 61.1875,238.40625 C 61.12729,228.33476 58.12684,218.56542 54.6875,209.125 C 50.94347,187.47407 46.16659,165.12751 49.21875,142.9375 C 56.26378,122.55014 60.10092,103.15494 59.3125,79.71875 C 65.34754,60.88926 78.97243,42.87418 93.25,35.8125 C 103.64519,28.14029 115.50255,24.70794 127.59375,24.59375 z M 173.375,40.3125 C 173.71472,40.46436 174.10327,40.6526 174.59375,40.90625 C 191.01013,50.63977 197.69331,69.21521 203,86.28125 C 207.31903,111.12182 207.89615,136.70208 206.125,161.90625 C 205.44793,176.98222 204.55758,197.52282 205.75,214.3125 C 204.58247,207.767 202.72801,200.81912 201.1875,194.40625 C 201.78825,189.61737 202.21745,184.98791 202.28125,180.96875 L 199.28125,185.09375 C 199.21882,194.64822 199.02922,203.31302 195.90625,212.4375 C 195.58283,213.4168 195.25039,214.39738 194.9375,215.375 C 193.19686,202.36086 189.74885,189.54336 189.53125,176.1875 C 188.7875,167.41238 185.8349,158.62614 183.84375,150 C 183.85968,149.83732 183.8592,149.66344 183.875,149.5 C 185.34463,142.79914 185.67416,133.53076 184.96875,124.5 C 184.74131,116.99973 183.87901,109.3613 181.9375,102.03125 C 179.00659,90.96571 173.61311,80.57037 164.25,72.3125 C 168.75156,62.31127 171.27818,51.25915 173.375,40.3125 z M 162.78125,75.375 C 166.18533,80.11915 176.63666,91.251 178.8125,102.5 C 179.34231,103.88507 179.81836,105.17823 180.25,106.4375 C 180.92743,109.49358 181.51004,113.23373 181.9375,117.3125 C 180.574,117.10989 179.19806,116.92868 177.8125,116.78125 L 179.28125,113.15625 L 178.46875,112.59375 L 175.6875,116.59375 C 174.43223,116.49357 173.19273,116.43538 171.9375,116.40625 L 172.65625,114.03125 L 171.84375,113.46875 L 169.78125,116.375 C 159.81796,116.52471 150.43255,119.58695 145.5,130.0625 C 148.95405,141.38837 162.13646,142.69294 168.40625,136.3125 C 173.5418,132.21899 176.18619,126.6697 178.78125,120.71875 C 179.76729,121.04516 180.69646,121.39506 181.53125,121.78125 L 182.21875,120.34375 C 183.26911,133.18124 182.70342,148.45645 178.59375,156.875 C 173.24829,167.80741 169.62234,175.72432 160.96875,186.25 C 159.02946,188.5494 156.98709,190.90491 154.625,193.0625 C 154.63771,193.0307 154.64331,193.00068 154.65625,192.96875 L 154.46875,193.21875 C 149.65586,197.56826 143.50199,201.0308 134.1875,201.28125 C 128.90481,201.28726 122.68577,200.89225 117.28125,193.875 C 111.24819,188.5905 107.42999,180.96398 101.71875,175.3125 C 92.48102,169.7519 85.67497,150.92621 85.40625,136.5625 C 88.0405,141.64314 91.08819,147.43006 96.53125,149.25 C 105.30526,150.3072 117.38254,143.37937 114.59375,133.375 C 108.02723,129.86066 99.507172,126.34853 91.65625,125.15625 L 89.6875,122.40625 C 92.845657,120.64201 96.194605,119.10687 99.5,117.40625 C 103.84971,118.50851 107.64434,119.56732 110.21875,119.625 C 108.12938,116.97594 109.91433,115.8964 107.53125,113.0625 C 107.47674,113.03352 107.42966,113.01919 107.375,113 C 116.22272,108.37943 131.63768,102.24684 143.59375,97.75 C 152.38079,91.75425 158.41841,84.02592 162.78125,75.375 z M 172.5625,94.65625 L 170.0625,95 C 158.15642,97.61757 150.69689,105.50905 144.6875,115.625 C 154.43481,109.93135 164.15796,103.16335 175.125,100 C 174.07823,98.37589 173.01143,96.90254 172.5625,94.65625 z M 170.78125,95.78125 C 171.22476,97.31203 171.94194,98.6527 173.03125,99.875 C 163.94334,101.38887 155.72184,107.09394 148.1875,111.59375 C 153.60976,103.1148 162.2227,98.5502 170.78125,95.78125 z M 208.9375,112.25 C 212.86243,147.53969 233.21453,168.13078 229.5,192.96875 C 227.21667,203.52079 225.51109,215.63453 223.84375,225.5 C 224.09175,220.62489 224.06451,215.64808 223.96875,210.71875 C 224.64913,206.81059 224.87366,202.82416 224.4375,198.78125 L 223.59375,197.3125 C 223.52829,195.31204 223.47954,193.336 223.4375,191.40625 C 221.25785,174.17654 216.07582,150.56484 210.09375,133.8125 C 209.98205,126.60585 209.62289,119.4241 208.9375,112.25 z M 104.6875,114.5 C 104.97171,114.7348 105.64691,115.31441 106.5,117.4375 C 104.23038,116.75642 103.00916,117.35143 101.71875,116.25 C 102.41114,115.86302 103.10254,115.45257 103.78125,115.03125 C 104.05737,114.86033 104.38353,114.67779 104.6875,114.5 z M 165.40625,118.96875 C 165.82008,118.94558 166.24273,118.97698 166.65625,118.96875 C 168.29455,123.1882 169.43311,133.5211 161.96875,135 C 157.90399,135.22484 152.94244,128.10291 151.46875,123.90625 C 155.27075,120.70476 160.32101,119.25345 165.40625,118.96875 z M 169.0625,119 C 171.83026,119.12832 174.50608,119.51992 176.90625,120.15625 C 174.08669,125.27031 171.9656,130.78692 167.84375,135.09375 C 164.37392,138.74225 151.62969,140.75889 146.71875,130.40625 C 147.41541,128.73106 148.32612,127.2637 149.375,126 C 152.04556,131.17634 156.40519,138.01331 162.375,136.03125 C 170.48564,134.23501 169.729,124.04273 169.0625,119 z M 88.75,122.90625 L 89.375,124.875 C 88.667897,124.80911 87.970817,124.77125 87.28125,124.75 C 87.50204,124.25442 87.73771,123.78417 88,123.34375 C 88.246431,123.19364 88.500366,123.05216 88.75,122.90625 z M 83.53125,126.5625 C 76.45973,137.10611 83.84841,156.36899 73.9375,166.21875 C 68.68425,176.20929 65.31435,186.82607 63,197.78125 C 62.78247,195.51918 62.52979,193.27313 62.1875,191.03125 C 61.77303,176.42668 60.12773,161.95268 67.5,148 C 71.32563,141.81309 77.1602,136.56512 80.25,129.96875 C 81.25358,128.69565 82.35981,127.5744 83.53125,126.5625 z M 83.875,128.34375 C 80.50406,140.63198 87.56906,166.73684 100.3125,176.78125 C 108.09244,184.64423 109.94972,190.37126 115.75,195.21875 C 118.25178,201.48616 111.35486,203.7862 102.65625,204.34375 C 102.5652,203.73843 102.48381,203.12747 102.375,202.53125 L 76.09375,207.21875 C 76.4564,208.91859 76.7008,210.60574 76.90625,212.28125 C 71.72605,220.14198 65.97023,228.81814 62.96875,237.84375 C 63.53091,225.92686 64.15784,213.88687 63.375,202.03125 C 69.20258,190.56481 69.36286,176.39659 76.53125,165.28125 C 82.07484,156.34971 81.75796,141.04681 83.03125,130.75 C 83.2997,129.60115 83.59912,128.88612 83.875,128.34375 z M 86.09375,128.46875 C 87.85125,128.48477 89.65455,128.55854 91.46875,128.6875 C 91.45143,133.56335 91.72614,141.29923 97.6875,142.0625 C 105.6065,143.24558 108.08408,137.4525 111.03125,132.90625 C 111.83308,133.23247 112.63952,133.5692 113.40625,133.9375 C 112.10072,142.59008 104.81283,149.76846 95.65625,146.53125 C 91.91538,144.15415 87.66549,138.41724 85.4375,133.59375 C 85.52753,131.76737 85.74913,130.04782 86.09375,128.46875 z M 94.28125,128.9375 C 99.44726,129.48268 104.63798,130.53006 109.375,132.25 L 107.75,131.84375 C 105.1258,135.5082 104.59745,142.15152 97.21875,140.8125 C 93.06965,138.89483 93.73918,132.81371 94.28125,128.9375 z M 210.0625,145.84375 C 216.60109,161.44207 219.54053,176.58667 222.125,193.21875 C 222.0885,197.95387 221.76967,202.70263 221.40625,207.46875 C 219.26062,221.61128 213.64561,236.23913 206.125,249.375 C 207.72629,239.31726 213.85999,228.75534 214.5,218.75 C 216.08956,205.4603 211.68742,186.443 208.875,171.9375 C 208.93981,171.268 209.03485,170.46193 209.09375,169.875 C 209.576,161.88211 209.92079,153.85089 210.0625,145.84375 z M 181.53125,155.71875 C 184.14612,162.99033 187.10565,170.6821 187.96875,178.09375 C 189.29108,187.33133 189.8296,197.50254 190.96875,207.375 L 178.34375,206.65625 C 178.40525,207.10377 178.43344,207.55553 178.46875,208 C 169.3224,207.55825 150.32275,208.41452 153.9375,195.09375 C 156.98002,192.93433 159.72897,190.51327 161.9375,188 C 169.91804,178.35767 175.92253,166.82098 181.53125,155.71875 z M 135.4375,158.28125 C 134.93713,158.31651 134.47215,158.50476 134.09375,158.875 C 134.40584,159.08406 133.90666,159.04093 134.21875,159.25 C 137.71964,158.13522 137.58566,160.45463 136.78125,162.1875 C 137.83732,163.13195 139.43992,163.02259 140.75,162.8125 C 141.95228,162.28753 142.0866,160.76725 142.28125,159.625 C 142.32503,159.52889 142.34638,159.51155 142.375,159.46875 C 142.32525,159.4818 142.24704,159.44577 142.15625,159.375 C 140.3093,160.84384 140.90664,162.69199 137.1875,161.96875 C 140.21336,160.66778 137.60576,158.12843 135.4375,158.28125 z M 129.71875,158.78125 C 127.65676,158.93907 125.53826,161.2491 128.375,162.46875 C 124.65586,163.19198 125.22195,161.34385 123.375,159.875 C 123.29934,159.93397 123.23463,159.97204 123.1875,159.96875 C 123.21612,160.01154 123.23747,160.0289 123.28125,160.125 C 123.4759,161.26724 123.57897,162.78754 124.78125,163.3125 C 126.09133,163.52258 127.69393,163.63196 128.75,162.6875 C 127.94559,160.95462 127.84286,158.63523 131.34375,159.75 C 131.65584,159.54092 131.15666,159.58407 131.46875,159.375 C 131.09035,159.00475 130.62537,158.81652 130.125,158.78125 C 129.98948,158.77169 129.85622,158.77073 129.71875,158.78125 z M 112.4375,170.75 L 111.46875,171.28125 C 112.33137,173.89357 111.93996,176.782 109.15625,178.6875 C 110.35567,177.99268 109.64698,179.33139 110.5625,178.4375 C 111.96109,178.06128 112.95605,176.9315 113.3125,176.15625 C 114.66322,177.22344 116.05893,178.3225 116.75,178.875 C 120.22595,186.07417 124.92338,188.50589 135.125,187.90625 C 146.93335,187.57937 145.51904,184.63893 150.5,180.09375 C 150.53176,180.12731 150.61125,180.14566 150.6875,180.125 C 152.79456,180.13438 154.87215,179.37367 155.96875,177.8125 C 156.30131,178.27423 156.78636,178.66135 157.4375,179 L 157.75,178.375 C 156.99376,177.30822 156.7157,176.39128 156.59375,175.0625 L 155.71875,175.125 C 155.40207,175.89782 155.38951,176.60491 155.65625,177.25 C 154.1845,178.80965 152.07066,178.07127 150.78125,178.4375 C 147.41649,176.15289 146.01648,173.99955 140.0625,173.875 C 137.27076,173.9582 133.66059,175.59475 131.8125,176.1875 C 130.49833,176.34785 127.59392,174.85226 126.25,174.71875 C 122.38673,174.7388 121.73854,175.94304 118.09375,177.21875 C 116.83323,177.28338 114.8867,176.20769 113.5,175.6875 C 113.86845,174.20632 113.06167,172.33062 112.4375,170.75 z M 140.25,176 C 143.81812,176.3734 145.2438,178.01935 148.6875,179 C 142.67757,182.10326 141.91877,185.45923 134.84375,185.75 C 128.46986,185.97156 121.22203,184.71505 118.375,178.84375 C 122.37874,178.69614 128.7586,181.16449 132.40625,181.09375 C 137.07983,181.38034 140.90293,178.36307 145.25,179.75 C 145.76495,179.53633 144.93358,179.40122 145.34375,178.9375 C 140.14637,178.28608 137.37717,180.55919 132.25,180 C 124.93166,178.92286 121.59978,178.57386 118.5,178.53125 C 118.36488,178.65008 118.34021,178.71895 118.34375,178.75 C 118.31669,178.69568 118.27546,178.64999 118.25,178.59375 C 118.33588,178.57524 118.41505,178.55058 118.5,178.53125 C 121.09363,177.94117 123.28319,176.99648 126.25,177.125 C 127.60214,177.20951 130.19546,177.86254 131.53125,177.75 C 134.83651,177.25528 136.85937,176.20887 140.25,176 z M 208.09375,181.40625 C 209.75382,194.8033 213.67581,209.47492 210.78125,222.71875 C 210.51336,224.02095 210.22912,225.30146 209.9375,226.5625 C 207.12239,216.6626 207.03474,195.32525 208.09375,181.40625 z M 151.75,196.5625 L 151.65625,196.6875 C 150.98896,209.66617 166.14686,209.22831 178.53125,210.375 C 178.23738,225.34431 164.44826,238.65977 162.25,252.09375 C 150.37007,253.03339 140.87802,253.13308 132.21875,253.0625 L 131.3125,247.8125 L 130.3125,246.1875 L 129.1875,253.0625 C 118.31664,252.92592 108.56735,252.58738 96.9375,253.40625 C 101.50519,238.22814 104.62629,221.29132 102.96875,206.625 C 108.61575,206.83451 113.77945,207.0429 117.28125,201.6875 C 117.84489,200.56985 117.74272,198.29483 118.21875,197.09375 C 118.56768,197.54343 118.45898,198.18468 119.1875,198.5 C 124.02541,200.84638 128.26948,203.62353 134.5,203.15625 C 140.224,202.53319 146.34697,200.00235 151.75,196.5625 z M 200.25,201.25 L 205.40625,218.625 C 203.12346,215.58777 200.43733,212.93613 198.75,211.03125 L 199.03125,207.8125 C 199.4645,205.64583 199.88715,203.46351 200.25,201.25 z M 99.9375,204.3125 C 104.98282,220.91461 100.85074,239.12357 92.375,254.65625 C 86.33838,254.15038 77.94596,254.67212 72.0625,254.625 C 72.02907,254.58893 72.00063,254.56399 71.96875,254.53125 C 77.80641,240.03619 80.34187,223.31282 79.25,207.6875 C 86.03647,206.74963 93.27764,204.67256 99.9375,204.3125 z M 191.15625,209.5 C 191.1772,209.49994 191.19782,209.50002 191.21875,209.5 C 191.71892,213.47702 192.32604,217.39238 193.15625,221.15625 C 189.68955,233.02607 187.60775,244.40005 189.75,253.53125 C 183.88297,253.89119 172.43366,254.16073 166.125,253.1875 C 170.73528,238.45083 177.63796,226.36758 181.46875,209.78125 C 184.48847,209.86408 187.90833,209.5081 191.15625,209.5 z M 197.75,213.65625 C 202.87519,217.69093 206.08256,224.58295 208.9375,230.625 C 207.09571,237.98864 205.09906,244.97693 203.84375,252.8125 C 199.73441,252.60593 195.89307,252.27456 192.90625,251.75 C 191.25282,241.59578 192.40412,231.6069 195.15625,221.75 L 195.5,222.15625 C 196.29704,219.58585 197.03502,216.68843 197.75,213.65625 z M 77.1875,214.90625 C 78.19599,228.14152 74.5403,240.70314 68.6875,253.3125 C 67.60121,253.10293 66.23763,253.02223 64.84375,252.96875 C 64.36677,239.20161 68.61776,226.59234 77.1875,214.90625 z M 220.25,223.53125 C 219.98996,228.56457 219.90988,233.55638 220.28125,238.4375 C 218.72392,236.86767 217.10835,235.47044 215.46875,234.3125 C 217.17019,230.78662 218.82418,227.18741 220.25,223.53125 z M 209.28125,226 C 209.57363,226.27181 209.80873,226.4925 209.9375,226.59375 C 209.83914,227.01877 209.72538,227.42249 209.625,227.84375 C 209.56212,227.22596 209.44437,226.61262 209.28125,226 z M 214.09375,237.125 C 220.91186,240.16147 224.00176,247.95041 228.8125,253.375 C 223.79538,253.16882 213.78847,253.25722 204.75,252.84375 L 207,252.3125 C 208.97193,247.40126 211.53316,242.33713 214.09375,237.125 z"
         style="fill:#000000;fill-opacity:1;stroke:none;stroke-width:5;stroke-miterlimit:4;stroke-dasharray:none;stroke-opacity:1" />
      <path
         id="path2397"
         d="M 555.46996,739.21432 L 550.59496,743.33932 L 551.84496,751.83932 L 556.96996,755.33932 L 562.09496,751.58932 L 562.09496,742.33932 L 555.46996,739.21432 z"
         style="fill:url(#linearGradient2621);fill-opacity:1;fill-rule:evenodd;stroke:none;stroke-width:1px;stroke-linecap:butt;stroke-linejoin:miter;stroke-opacity:1" />
      <path
         sodipodi:nodetypes="ccsccccccccccccscccccccc"
         id="path2399"
         d="M 536.09495,723.99557 L 533.40041,725.39018 C 535.80152,728.10581 540.24582,731.45097 543.0012,735.05807 C 545.42205,738.22723 548.03452,741.09005 551.0637,742.30807 L 550.28245,742.96432 L 551.34495,751.90182 L 556.96995,755.96432 L 562.40745,751.99557 L 562.59495,742.02682 L 561.34495,741.43307 C 569.9337,739.11748 574.68732,732.08452 578.65745,724.83932 L 577.4289,723.98577 C 574.7781,732.70511 568.78487,739.29976 558.96107,740.4804 L 555.6887,738.77682 L 552.53153,740.9081 C 549.61316,739.95724 546.35207,737.78733 543.8137,734.46432 C 541.10168,730.91399 538.59421,726.8222 536.09495,723.99557 z M 555.53245,739.77682 L 561.59495,742.65182 L 562.12528,751.5161 L 556.96995,755.2759 L 551.96015,751.55807 L 550.68426,743.43843 L 555.53245,739.77682 z"
         style="fill:#000000;fill-opacity:1;fill-rule:evenodd;stroke:none;stroke-width:1px;stroke-linecap:butt;stroke-linejoin:miter;stroke-opacity:1" />
      <path
         id="path2403"
         d="M 555.59496,741.58932 L 552.34496,743.96432 L 556.46996,748.33932 L 555.59496,741.58932 z"
         style="fill:url(#linearGradient2617);fill-opacity:1;fill-rule:evenodd;stroke:none;stroke-width:1px;stroke-linecap:butt;stroke-linejoin:miter;stroke-opacity:1" />
      <path
         sodipodi:nodetypes="cccc"
         id="path2405"
         d="M 552.39673,743.91254 L 552.95479,751.75982 L 556.21996,747.83932 L 552.39673,743.91254 z"
         style="fill:url(#linearGradient2614);fill-rule:evenodd;stroke:none;stroke-width:1px;stroke-linecap:butt;stroke-linejoin:miter;stroke-opacity:1" />
      <path
         sodipodi:nodetypes="cccc"
         id="path2407"
         d="M 555.59496,741.78754 L 556.09496,747.21432 L 560.27173,743.25093 L 555.59496,741.78754 z"
         style="fill:url(#linearGradient2611);fill-rule:evenodd;stroke:none;stroke-width:1px;stroke-linecap:butt;stroke-linejoin:miter;stroke-opacity:1" />
      <path
         sodipodi:nodetypes="cccc"
         id="path2409"
         d="M 555.9914,747.21432 L 560.10123,743.16254 L 561.14673,751.45804 L 555.9914,747.21432 z"
         style="fill:url(#linearGradient2608);fill-rule:evenodd;stroke:none;stroke-width:1px;stroke-linecap:butt;stroke-linejoin:miter;stroke-opacity:1" />
      <path
         sodipodi:nodetypes="cccc"
         id="path2411"
         d="M 556.46996,747.35449 L 553.00657,751.67771 L 557.42706,753.71432 L 556.46996,747.35449 z"
         style="fill:url(#linearGradient2605);fill-rule:evenodd;stroke:none;stroke-width:1px;stroke-linecap:butt;stroke-linejoin:miter;stroke-opacity:1" />
      <path
         id="path2413"
         d="M 556.46996,747.46432 L 561.21996,751.46432 L 557.09496,753.83932 L 556.46996,747.46432 z"
         style="fill:url(#linearGradient2602);fill-opacity:1;fill-rule:evenodd;stroke:none;stroke-width:1px;stroke-linecap:butt;stroke-linejoin:miter;stroke-opacity:1" />
      <path
         sodipodi:nodetypes="ccccccc"
         id="path3051"
         d="M 552.40745,743.90182 L 552.40745,743.93307 L 552.34495,743.96432 L 552.96995,751.74557 C 556.4359,749.79831 555.27706,745.28904 560.1262,743.40182 L 555.6262,741.77682 L 552.40745,743.90182 z"
         style="fill:url(#linearGradient2599);fill-opacity:1;fill-rule:evenodd;stroke:none;stroke-width:1px;stroke-linecap:butt;stroke-linejoin:miter;stroke-opacity:1" />
    </g>
  </g>
</svg>
