<?xml version="1.0" encoding="UTF-8" standalone="no"?>
<!-- Created with Inkscape (http://www.inkscape.org/) -->
<svg
   xmlns:dc="http://purl.org/dc/elements/1.1/"
   xmlns:cc="http://creativecommons.org/ns#"
   xmlns:rdf="http://www.w3.org/1999/02/22-rdf-syntax-ns#"
   xmlns:svg="http://www.w3.org/2000/svg"
   xmlns="http://www.w3.org/2000/svg"
   xmlns:xlink="http://www.w3.org/1999/xlink"
   xmlns:sodipodi="http://sodipodi.sourceforge.net/DTD/sodipodi-0.dtd"
   xmlns:inkscape="http://www.inkscape.org/namespaces/inkscape"
   width="280"
   height="280"
   id="svg2"
   sodipodi:version="0.32"
   inkscape:version="0.45+devel"
   version="1.0"
   sodipodi:docbase="/home/nicu/Desktop"
   sodipodi:docname="face05_dog.svg"
   inkscape:output_extension="org.inkscape.output.svg.inkscape"
   inkscape:export-filename="/home/nicu/Desktop/faces.png"
   inkscape:export-xdpi="90"
   inkscape:export-ydpi="90">
  <defs
     id="defs4">
    <linearGradient
       id="linearGradient3221">
      <stop
         style="stop-color:#650000;stop-opacity:1;"
         offset="0"
         id="stop3223" />
      <stop
         style="stop-color:#400000;stop-opacity:1;"
         offset="1"
         id="stop3225" />
    </linearGradient>
    <linearGradient
       id="linearGradient3213">
      <stop
         style="stop-color:#ff0000;stop-opacity:1;"
         offset="0"
         id="stop3215" />
      <stop
         style="stop-color:#9d0000;stop-opacity:1;"
         offset="1"
         id="stop3217" />
    </linearGradient>
    <linearGradient
       id="linearGradient3191">
      <stop
         style="stop-color:#ffffff;stop-opacity:1;"
         offset="0"
         id="stop3193" />
      <stop
         style="stop-color:#c4c4c4;stop-opacity:1;"
         offset="1"
         id="stop3195" />
    </linearGradient>
    <linearGradient
       id="linearGradient3181">
      <stop
         style="stop-color:#ab9a0a;stop-opacity:1;"
         offset="0"
         id="stop3183" />
      <stop
         style="stop-color:#6a5f06;stop-opacity:1;"
         offset="1"
         id="stop3185" />
    </linearGradient>
    <linearGradient
       id="linearGradient3173">
      <stop
         style="stop-color:#472008;stop-opacity:1;"
         offset="0"
         id="stop3175" />
      <stop
         style="stop-color:#833c10;stop-opacity:1;"
         offset="1"
         id="stop3177" />
    </linearGradient>
    <linearGradient
       id="linearGradient3164">
      <stop
         style="stop-color:#cd7d48;stop-opacity:1;"
         offset="0"
         id="stop3166" />
      <stop
         style="stop-color:#d89970;stop-opacity:1;"
         offset="1"
         id="stop3168" />
    </linearGradient>
    <linearGradient
       id="linearGradient3154">
      <stop
         style="stop-color:#eac9b3;stop-opacity:1;"
         offset="0"
         id="stop3156" />
      <stop
         style="stop-color:#deaa87;stop-opacity:1;"
         offset="1"
         id="stop3158" />
    </linearGradient>
    <filter
       inkscape:collect="always"
       id="filter3503"
       x="-0.33793397"
       width="1.6758679"
       y="-0.50609671"
       height="2.0121934">
      <feGaussianBlur
         inkscape:collect="always"
         stdDeviation="1.6962843"
         id="feGaussianBlur3505" />
    </filter>
    <filter
       inkscape:collect="always"
       id="filter3549"
       x="-0.12951319"
       width="1.2590264"
       y="-0.31888551"
       height="1.637771">
      <feGaussianBlur
         inkscape:collect="always"
         stdDeviation="2.7950873"
         id="feGaussianBlur3551" />
    </filter>
    <filter
       inkscape:collect="always"
       id="filter3579">
      <feGaussianBlur
         inkscape:collect="always"
         stdDeviation="0.60243618"
         id="feGaussianBlur3581" />
    </filter>
    <filter
       inkscape:collect="always"
       id="filter3657"
       x="-0.23530898"
       width="1.470618"
       y="-0.31237809"
       height="1.6247562">
      <feGaussianBlur
         inkscape:collect="always"
         stdDeviation="2.6920335"
         id="feGaussianBlur3659" />
    </filter>
    <filter
       inkscape:collect="always"
       id="filter3733"
       x="-0.19689324"
       width="1.3937865"
       y="-0.21437628"
       height="1.4287526">
      <feGaussianBlur
         inkscape:collect="always"
         stdDeviation="1.5940288"
         id="feGaussianBlur3735" />
    </filter>
    <filter
       inkscape:collect="always"
       id="filter3787"
       x="-0.068217128"
       width="1.1364343"
       y="-0.15498983"
       height="1.3099797">
      <feGaussianBlur
         inkscape:collect="always"
         stdDeviation="0.50246662"
         id="feGaussianBlur3789" />
    </filter>
    <filter
       inkscape:collect="always"
       id="filter3877">
      <feGaussianBlur
         inkscape:collect="always"
         stdDeviation="1.3288026"
         id="feGaussianBlur3879" />
    </filter>
    <filter
       inkscape:collect="always"
       id="filter3995"
       x="-0.33095316"
       width="1.6619063"
       y="-0.32180658"
       height="1.6436132">
      <feGaussianBlur
         inkscape:collect="always"
         stdDeviation="3.1505746"
         id="feGaussianBlur3997" />
    </filter>
    <filter
       inkscape:collect="always"
       id="filter4057"
       x="-0.21782452"
       width="1.435649"
       y="-0.052194386"
       height="1.1043888">
      <feGaussianBlur
         inkscape:collect="always"
         stdDeviation="0.91340175"
         id="feGaussianBlur4059" />
    </filter>
    <filter
       inkscape:collect="always"
       id="filter4139"
       x="-0.150258"
       width="1.300516"
       y="-0.12562554"
       height="1.2512511">
      <feGaussianBlur
         inkscape:collect="always"
         stdDeviation="0.79824561"
         id="feGaussianBlur4141" />
    </filter>
    <filter
       inkscape:collect="always"
       id="filter4185"
       x="-0.10511774"
       width="1.2102355"
       y="-0.21925344"
       height="1.4385069">
      <feGaussianBlur
         inkscape:collect="always"
         stdDeviation="0.91504543"
         id="feGaussianBlur4187" />
    </filter>
    <filter
       inkscape:collect="always"
       id="filter4217"
       x="-0.14822137"
       width="1.2964427"
       y="-0.34784177"
       height="1.6956835">
      <feGaussianBlur
         inkscape:collect="always"
         stdDeviation="0.93933164"
         id="feGaussianBlur4219" />
    </filter>
    <filter
       inkscape:collect="always"
       id="filter4221"
       x="-0.14822137"
       width="1.2964427"
       y="-0.34784177"
       height="1.6956835">
      <feGaussianBlur
         inkscape:collect="always"
         stdDeviation="0.93933164"
         id="feGaussianBlur4223" />
    </filter>
    <linearGradient
       inkscape:collect="always"
       xlink:href="#linearGradient3164"
       id="linearGradient4259"
       gradientUnits="userSpaceOnUse"
       x1="123.75"
       y1="203.25"
       x2="156.25"
       y2="272.25" />
    <linearGradient
       inkscape:collect="always"
       xlink:href="#linearGradient3164"
       id="linearGradient4261"
       gradientUnits="userSpaceOnUse"
       x1="114"
       y1="69.75"
       x2="140"
       y2="148.75" />
    <linearGradient
       inkscape:collect="always"
       xlink:href="#linearGradient3154"
       id="linearGradient4263"
       gradientUnits="userSpaceOnUse"
       x1="153.34825"
       y1="190.92467"
       x2="136.96301"
       y2="144.42467" />
    <linearGradient
       inkscape:collect="always"
       xlink:href="#linearGradient3221"
       id="linearGradient4265"
       gradientUnits="userSpaceOnUse"
       x1="123.25"
       y1="164.00343"
       x2="123.25"
       y2="169.51581" />
    <linearGradient
       inkscape:collect="always"
       xlink:href="#linearGradient3213"
       id="linearGradient4267"
       gradientUnits="userSpaceOnUse"
       x1="131.5"
       y1="166.5"
       x2="140"
       y2="184.55321" />
    <radialGradient
       inkscape:collect="always"
       xlink:href="#linearGradient3191"
       id="radialGradient4269"
       gradientUnits="userSpaceOnUse"
       gradientTransform="matrix(1.0704013,1.3645117,-1.5958936,1.2519089,160.13151,-164.50976)"
       cx="101"
       cy="104.79523"
       fx="101"
       fy="104.79523"
       r="15.037677" />
    <linearGradient
       inkscape:collect="always"
       xlink:href="#linearGradient3181"
       id="linearGradient4271"
       gradientUnits="userSpaceOnUse"
       x1="113.25"
       y1="105.5"
       x2="119.5"
       y2="122.75" />
    <radialGradient
       inkscape:collect="always"
       xlink:href="#linearGradient3191"
       id="radialGradient4273"
       gradientUnits="userSpaceOnUse"
       gradientTransform="matrix(0.8028163,1.3964497,-1.2078668,0.6944007,152.57953,-179.89339)"
       cx="150.75"
       cy="101.71161"
       fx="150.75"
       fy="101.71161"
       r="15.037677" />
    <linearGradient
       inkscape:collect="always"
       xlink:href="#linearGradient3181"
       id="linearGradient4275"
       gradientUnits="userSpaceOnUse"
       x1="153.15057"
       y1="103.88144"
       x2="161.44783"
       y2="121.88144" />
    <linearGradient
       inkscape:collect="always"
       xlink:href="#linearGradient3154"
       id="linearGradient4277"
       gradientUnits="userSpaceOnUse"
       x1="129.75119"
       y1="224.00085"
       x2="153.44089"
       y2="258.75085" />
    <linearGradient
       inkscape:collect="always"
       xlink:href="#linearGradient3154"
       id="linearGradient4279"
       gradientUnits="userSpaceOnUse"
       x1="129.5"
       y1="29"
       x2="140.25"
       y2="66.340279" />
    <linearGradient
       inkscape:collect="always"
       xlink:href="#linearGradient3173"
       id="linearGradient4281"
       gradientUnits="userSpaceOnUse"
       x1="133.75"
       y1="130.75"
       x2="137"
       y2="151" />
    <filter
       inkscape:collect="always"
       id="filter4442">
      <feGaussianBlur
         inkscape:collect="always"
         stdDeviation="2.0634605"
         id="feGaussianBlur4444" />
    </filter>
  </defs>
  <sodipodi:namedview
     id="base"
     pagecolor="#ffffff"
     bordercolor="#666666"
     borderopacity="1.0"
     gridtolerance="10000"
     guidetolerance="10"
     objecttolerance="10"
     inkscape:pageopacity="0.0"
     inkscape:pageshadow="2"
     inkscape:zoom="1"
     inkscape:cx="324.57256"
     inkscape:cy="144.62598"
     inkscape:document-units="px"
     inkscape:current-layer="layer1"
     width="280px"
     height="280px"
     inkscape:window-width="1518"
     inkscape:window-height="925"
     inkscape:window-x="0"
     inkscape:window-y="24"
     showgrid="false"
     showguides="true"
     inkscape:guide-bbox="true" />
  <metadata
     id="metadata7">
    <rdf:RDF>
      <cc:Work
         rdf:about="">
        <dc:format>image/svg+xml</dc:format>
        <dc:type
           rdf:resource="http://purl.org/dc/dcmitype/StillImage" />
      </cc:Work>
    </rdf:RDF>
  </metadata>
  <g
     inkscape:label="Layer 1"
     inkscape:groupmode="layer"
     id="layer1">
    <path
       style="fill:#000000;fill-opacity:1;fill-rule:evenodd;stroke:none;stroke-width:5;stroke-linecap:butt;stroke-linejoin:miter;stroke-miterlimit:4;stroke-dasharray:none;stroke-opacity:1;filter:url(#filter4442)"
       d="M 123,16.530904 C 123.6449,22.429011 125.53313,28.072501 126.8125,33.843404 C 127.58736,37.939305 127.58388,43.87254 125.8125,47.780904 C 125.63737,47.49083 125.42011,47.128036 125.21875,46.780904 C 125.10169,46.556193 124.97764,46.336192 124.84375,46.124654 C 124.76625,45.992509 124.67414,45.853296 124.59375,45.718404 C 124.52926,45.627234 124.47386,45.525887 124.40625,45.437154 C 123.40604,43.784109 122.22764,42.028797 120.9375,41.280904 C 118.02004,39.94561 116.58517,37.965267 110.9375,37.843404 C 115.80584,41.53178 120.38061,46.569476 122.53125,53.218404 C 122.84804,54.636582 123.09572,56.162279 123.34375,57.812154 C 113.52967,59.35497 103.36334,62.151025 96.5,70.249654 C 89.982204,77.940541 87.296948,88.630122 87.375,104.9684 C 85.335588,104.46052 81.126769,103.54559 79.0625,103.43715 C 68.135162,102.44964 59.575355,109.13667 59.125,120.6559 C 60.550377,125.8638 66.935347,128.69684 71.8125,128.06215 C 74.729846,125.60708 74.32512,118.56168 75.1875,115.0309 C 78.089376,119.98348 82.864082,124.40471 88.25,126.4684 C 91.487338,129.25242 90.139428,135.52169 89.5625,141.06215 C 88.621673,141.6209 86.341105,143.185 85.5625,144.06215 C 84.481091,145.28043 83.65025,146.99673 83,148.7184 L 78.0625,146.5309 L 77.75,147.1559 L 82.375,150.4684 C 81.663891,153.20913 81.350549,156.53081 81.4375,160.49965 L 64.375,158.7184 L 63.875,159.31215 L 81.5,162.5309 C 81.627791,165.72657 82.073185,169.52013 82.6875,172.6559 L 76.875,174.62465 L 77.3125,175.31215 L 83.125,173.9684 C 85.755478,184.52131 90.917721,190.54894 98.4375,194.9684 C 102.28288,197.22838 108.09296,198.5421 112.75,199.62465 C 114.06331,213.10318 103.11092,211.11242 94.125,212.1559 C 86.922468,213.1929 78.574587,213.7415 72.6875,220.43715 C 66.004225,229.70609 65.091454,235.99337 62.25,259.06215 C 85.817127,267.03744 109.79789,262.99057 134.1875,262.7184 C 141.38359,262.25862 148.56686,263.15913 155.75,263.5309 C 173.75899,265.42612 190.29764,268.59425 222.875,257.7809 C 218.5,243.08297 216.99154,222.68612 207.375,213.81215 C 200.65079,207.9845 194.84981,208.47569 189,207.5309 C 182.45006,206.52228 174.19281,203.41099 170.3125,197.4684 C 171.69171,196.97847 175.02677,196.08494 176.3125,195.49965 C 183.32406,192.30784 188.37473,187.93709 191.3125,180.7184 L 203.25,184.12465 L 203.5,183.43715 L 192.4375,178.2184 C 193.48654,175.02835 194.06507,172.30789 194.125,168.2809 L 209.25,167.5934 L 208.9375,166.5934 L 194.125,165.4059 C 194.3781,161.46026 193.94107,157.53231 193.4375,153.62465 L 203.1875,149.74965 L 202.8125,148.9059 L 193,151.68715 C 192.3692,148.70359 189.6268,145.40918 187.6875,143.1559 C 187.43067,137.08308 187.61444,132.98118 188,126.93715 C 188.79067,126.62455 191.06375,125.24874 191.875,124.81215 C 194.1003,123.61457 196.48472,121.06207 198.46875,118.43715 L 198.8125,118.2184 L 199.09375,117.5934 C 199.79164,116.62333 200.45642,115.67538 201,114.7809 C 202.16699,118.28478 200.89018,125.72953 204,128.18715 C 207.87106,129.37211 212.21001,126.31881 215.125,123.87465 C 220.19447,118.13895 215.18143,110.27731 210.9375,106.06215 C 204.18843,101.84706 194.08147,103.28857 186.78125,105.24965 C 186.54496,102.72127 186.23771,100.30719 185.84375,98.030904 C 183.90712,84.912786 180.34061,76.020836 173.875,69.468404 C 166.66421,62.160783 156.39496,59.465096 147.25,57.874654 C 153.10052,53.010071 152.70052,44.770487 154.1875,39.280904 C 150.73741,43.064169 147.78738,48.512696 142.25,48.905904 C 141.20434,46.613968 140.25591,44.242873 139.34375,41.874654 C 138.69262,39.885275 137.92046,37.923077 137.03125,35.968404 C 134.02111,28.538882 130.39089,21.457141 123,16.530904 z M 78.75,104.43715 C 78.855274,104.43896 78.95686,104.43411 79.0625,104.43715 C 79.387171,104.45421 79.729241,104.50267 80.0625,104.5309 C 79.621972,104.49304 79.186445,104.45757 78.75,104.43715 z M 80.375,104.5309 C 80.849007,104.57568 81.328314,104.65141 81.8125,104.7184 C 82.331273,104.79018 82.852261,104.87125 83.375,104.9684 C 84.884259,105.24888 86.399553,105.63479 87.8125,106.12465 C 87.813232,106.15652 87.811738,106.18649 87.8125,106.2184 C 86.407818,105.68176 84.905354,105.26122 83.375,104.9684 C 82.864882,104.87079 82.326995,104.79058 81.8125,104.7184 C 81.329039,104.65058 80.858221,104.57698 80.375,104.5309 z"
       id="path4285" />
    <g
       id="g4225"
       transform="translate(-0.171875,0.9664499)">
      <path
         sodipodi:nodetypes="cccccccccc"
         id="path42734"
         d="M 115.00339,180.86604 C 114.58079,189.55949 114.85349,198.28549 110.75339,206.36604 C 103.95489,213.76628 83.363407,207.65053 72.869507,219.58571 C 62.014707,231.72144 66.58409,244.11738 63.00339,256.11604 C 84.19369,263.24737 109.02939,259.15891 133.25339,259.61604 C 161.58669,261.78741 190.92009,263.77956 219.25339,254.11604 C 216.81579,238.22449 212.97769,225.56359 207.25339,213.61604 C 194.75339,202.78271 183.75339,209.73224 171.50339,199.11604 C 164.98969,193.00908 168.71499,183.85321 168.50339,177.11604 C 151.75339,171.51804 131.75339,174.47265 115.00339,180.86604 z"
         style="fill:url(#linearGradient4259);fill-opacity:1;fill-rule:evenodd;stroke:none;stroke-width:5;stroke-linecap:butt;stroke-linejoin:miter;stroke-miterlimit:4;stroke-dasharray:none;stroke-opacity:1" />
      <path
         id="path42736"
         d="M 133.21875,55.15625 C 110.38401,55.348836 85.985055,63.058904 86.96875,104.25 C 79.477113,101.3879 69.277836,102.15306 66.1875,104.84375 C 62.123102,108.38255 58.8007,113.71413 59.3125,118.59375 C 59.684001,122.13579 67.56825,125.79338 70.40625,124.4375 C 72.751546,123.31699 72.7203,115.08843 74.25,111.96875 C 77.002702,118.56164 84.145795,122.98468 89,123.84375 C 89.326836,125.76199 89.652242,127.72606 90.0625,129.75 C 86.649602,167.68182 110.4705,181.27533 119,192.125 C 130.0007,202.29413 141.78715,199.59427 151.90625,192.21875 C 181.96935,168.78779 186.40925,155.80943 185.53125,131.53125 C 185.80337,128.81515 186.00774,126.21778 186.15625,123.6875 C 190.96837,122.53 197.54275,118.22824 200.15625,111.96875 C 201.68595,115.08843 201.62345,123.31699 203.96875,124.4375 C 206.80675,125.79338 214.72225,122.13579 215.09375,118.59375 C 215.60555,113.71413 212.28316,108.38255 208.21875,104.84375 C 204.94018,101.98916 193.65241,101.2976 186.09375,104.8125 C 182.69872,61.601874 156.07617,54.963475 133.21875,55.15625 z"
         style="fill:url(#linearGradient4261);fill-opacity:1;fill-rule:evenodd;stroke:none;stroke-width:5;stroke-linecap:butt;stroke-linejoin:miter;stroke-miterlimit:4;stroke-dasharray:none;stroke-opacity:1" />
      <path
         sodipodi:nodetypes="ccssc"
         id="path4143"
         d="M 124.5,65.75 L 143.5,58 C 144.60977,58.042542 162.33851,60.391967 167.83597,64.636936 C 168.66279,65.275382 147.6715,62.853883 147.72384,63.884699 C 147.93924,68.126451 143.2805,72.090426 124.5,65.75 z"
         style="fill:#000000;fill-opacity:0.4017857;fill-rule:evenodd;stroke:none;stroke-width:1px;stroke-linecap:butt;stroke-linejoin:miter;stroke-opacity:1;filter:url(#filter4185)" />
      <path
         style="fill:url(#linearGradient4263);fill-opacity:1;fill-rule:evenodd;stroke:none;stroke-width:5;stroke-linecap:butt;stroke-linejoin:miter;stroke-miterlimit:4;stroke-dasharray:none;stroke-opacity:1"
         d="M 190.78739,163.02437 C 192.03549,124.17036 164.13759,148.67975 137.21149,148.90684 C 110.28479,149.13394 78.749076,122.26355 83.32799,162.75661 C 85.89679,192.94674 106.50289,198.45856 133.34469,198.75065 C 165.29689,195.99214 191.93619,193.4425 190.78739,163.02437 z"
         id="path42784"
         sodipodi:nodetypes="czccc" />
      <path
         id="path3737"
         d="M 125.33468,148.30136 L 143.01235,147.77103 C 143.01235,147.77103 137.35549,164.91837 125.33468,148.30136 z"
         style="fill:#000000;fill-opacity:0.3392857;fill-rule:evenodd;stroke:none;stroke-width:1px;stroke-linecap:butt;stroke-linejoin:miter;stroke-opacity:1;filter:url(#filter3787)" />
      <path
         sodipodi:nodetypes="ccsc"
         id="path3663"
         d="M 127.98633,178.53018 C 127.98633,178.53018 132.22998,190.26603 137.88582,185.24769 C 145.37953,189.3288 148.14817,176.68797 147.25498,169.69134 C 146.47888,163.61186 132.22897,186.48513 127.98633,178.53018 z"
         style="fill:#000000;fill-opacity:0.74107139;fill-rule:evenodd;stroke:none;stroke-width:1px;stroke-linecap:butt;stroke-linejoin:miter;stroke-opacity:1;filter:url(#filter3733)" />
      <path
         sodipodi:nodetypes="ccc"
         id="path46692"
         d="M 108.50339,158.49104 C 116.00429,166.17719 163.85869,163.83309 165.00339,162.11604 C 163.94769,168.76402 107.28139,176.25979 108.50339,158.49104 z"
         style="fill:url(#linearGradient4265);fill-opacity:1;fill-rule:evenodd;stroke:none;stroke-width:2;stroke-linecap:butt;stroke-linejoin:miter;stroke-miterlimit:4;stroke-dasharray:none;stroke-opacity:1" />
      <path
         sodipodi:nodetypes="cccc"
         id="path42754"
         d="M 125.25339,164.75516 C 131.18819,162.31882 136.09889,163.04394 145.50339,164.88016 C 149.64809,177.06168 138.40919,188.95883 138.23909,182.20412 C 137.90689,187.51361 127.19289,184.68371 125.25339,164.75516 z"
         style="fill:url(#linearGradient4267);fill-opacity:1;fill-rule:evenodd;stroke:none;stroke-width:2;stroke-linecap:butt;stroke-linejoin:miter;stroke-miterlimit:4;stroke-dasharray:none;stroke-opacity:1" />
      <path
         sodipodi:nodetypes="ccccc"
         id="path43762"
         d="M 102.00339,126.11604 C 107.45659,124.49016 118.91699,121.55695 125.25339,122.86604 C 127.36629,114.54256 126.96049,111.96284 125.25339,102.36604 C 122.49279,93.829087 103.68049,89.990162 97.25339,102.11604 C 94.67999,114.54541 100.62109,117.86898 102.00339,126.11604 z"
         style="fill:url(#radialGradient4269);fill-opacity:1;fill-rule:evenodd;stroke:none;stroke-width:2;stroke-linecap:butt;stroke-linejoin:miter;stroke-miterlimit:4;stroke-dasharray:none;stroke-opacity:1" />
      <path
         id="path44735"
         d="M 111.44089,100.52229 C 111.09739,100.51913 110.75369,100.53183 110.40959,100.58479 C 104.90469,101.43212 101.54789,109.30068 102.90959,118.14729 C 103.31189,120.76041 104.10159,123.16724 105.12839,125.24104 C 110.26819,123.86469 117.55409,122.28963 122.87839,122.58479 C 123.24729,120.27557 123.25439,117.73084 122.84719,115.08479 C 121.57059,106.79109 116.59409,100.56976 111.44089,100.52229 z"
         style="fill:url(#linearGradient4271);fill-opacity:1;fill-rule:evenodd;stroke:none;stroke-width:2;stroke-linecap:butt;stroke-linejoin:miter;stroke-miterlimit:4;stroke-dasharray:none;stroke-opacity:1" />
      <path
         transform="matrix(1.3540075,4.2847784e-2,7.0557489e-2,0.8831028,-1331.4367,-19.641527)"
         d="M 1064.5,103.375 A 3.375,7.125 0 1 1 1057.75,103.375 A 3.375,7.125 0 1 1 1064.5,103.375 z"
         sodipodi:ry="7.125"
         sodipodi:rx="3.375"
         sodipodi:cy="103.375"
         sodipodi:cx="1061.125"
         id="path45707"
         style="fill:#000000;fill-opacity:1;stroke:none;stroke-width:2;stroke-miterlimit:4;stroke-dasharray:none;stroke-opacity:1"
         sodipodi:type="arc" />
      <path
         transform="matrix(-1.5353638,0,0,1.5630325,262.59889,-42.749417)"
         d="M 103.25,98.875 A 2.625,2.875 0 1 1 98,98.875 A 2.625,2.875 0 1 1 103.25,98.875 z"
         sodipodi:ry="2.875"
         sodipodi:rx="2.625"
         sodipodi:cy="98.875"
         sodipodi:cx="100.625"
         id="path42778"
         style="fill:#ffffff;fill-opacity:1;stroke:none;stroke-width:3;stroke-miterlimit:4;stroke-dasharray:none"
         sodipodi:type="arc" />
      <path
         style="fill:url(#radialGradient4273);fill-opacity:1;fill-rule:evenodd;stroke:none;stroke-width:2;stroke-linecap:butt;stroke-linejoin:miter;stroke-miterlimit:4;stroke-dasharray:none;stroke-opacity:1"
         d="M 167.30109,126.11604 C 161.84789,124.49016 150.38749,121.55695 144.05109,122.86604 C 141.93819,114.54256 142.34399,111.96284 144.05109,102.36604 C 146.81169,93.829087 165.62399,89.990162 172.05109,102.11604 C 174.62449,114.54541 168.68339,117.86898 167.30109,126.11604 z"
         id="path45709"
         sodipodi:nodetypes="ccccc" />
      <path
         style="fill:url(#linearGradient4275);fill-opacity:1;fill-rule:evenodd;stroke:none;stroke-width:2;stroke-linecap:butt;stroke-linejoin:miter;stroke-miterlimit:4;stroke-dasharray:none;stroke-opacity:1"
         d="M 157.86359,100.52229 C 158.20709,100.51913 158.55079,100.53183 158.89489,100.58479 C 164.39979,101.43212 167.75659,109.30068 166.39489,118.14729 C 165.99259,120.76041 165.20289,123.16724 164.17609,125.24104 C 159.03629,123.86469 151.75039,122.28963 146.42609,122.58479 C 146.05719,120.27557 146.05009,117.73084 146.45729,115.08479 C 147.73389,106.79109 152.71039,100.56976 157.86359,100.52229 z"
         id="path45711" />
      <path
         sodipodi:type="arc"
         style="fill:#000000;fill-opacity:1;stroke:none;stroke-width:2;stroke-miterlimit:4;stroke-dasharray:none;stroke-opacity:1"
         id="path45713"
         sodipodi:cx="1061.125"
         sodipodi:cy="103.375"
         sodipodi:rx="3.375"
         sodipodi:ry="7.125"
         d="M 1064.5,103.375 A 3.375,7.125 0 1 1 1057.75,103.375 A 3.375,7.125 0 1 1 1064.5,103.375 z"
         transform="matrix(-1.3540075,4.2847784e-2,-7.0557489e-2,0.8831028,1600.7412,-19.641527)" />
      <path
         sodipodi:type="arc"
         style="fill:#ffffff;fill-opacity:1;stroke:none;stroke-width:3;stroke-miterlimit:4;stroke-dasharray:none"
         id="path45715"
         sodipodi:cx="100.625"
         sodipodi:cy="98.875"
         sodipodi:rx="2.625"
         sodipodi:ry="2.875"
         d="M 103.25,98.875 A 2.625,2.875 0 1 1 98,98.875 A 2.625,2.875 0 1 1 103.25,98.875 z"
         transform="matrix(1.5353638,0,0,1.5630325,0.70557,-44.999417)" />
      <path
         id="path49611"
         d="M 142.65959,217.61604 C 141.65429,217.63431 140.61059,217.68016 139.53459,217.74104 C 110.58639,219.37914 109.82989,237.30757 111.09719,259.99104 C 118.46199,259.73254 125.88189,259.47693 133.25339,259.61604 C 146.41689,260.62484 159.79629,261.58548 173.19089,261.36604 C 173.17949,261.13732 173.17359,260.908 173.15959,260.67854 C 171.69909,236.71205 173.82539,217.04981 142.65959,217.61604 z"
         style="fill:url(#linearGradient4277);fill-opacity:1;fill-rule:evenodd;stroke:none;stroke-width:5;stroke-linecap:butt;stroke-linejoin:miter;stroke-miterlimit:4;stroke-dasharray:none;stroke-opacity:1" />
      <path
         sodipodi:nodetypes="cccccccc"
         id="path48640"
         d="M 111.20849,36.573902 C 121.38249,44.438542 121.48549,49.130618 122.88839,58.273888 C 113.80659,71.074496 150.79989,66.687101 143.97529,58.577332 C 147.51659,53.815643 150.91589,48.850074 151.94929,40.487865 C 148.42479,44.617347 144.92929,48.946296 140.65679,47.944825 C 138.27559,37.175697 134.39879,26.624578 123.52719,17.093141 C 124.95999,26.810213 130.85719,36.61834 124.98929,46.186521 C 123.23869,40.757996 117.05549,38.797526 111.20849,36.573902 z"
         style="fill:url(#linearGradient4279);fill-opacity:1;fill-rule:evenodd;stroke:none;stroke-width:2;stroke-linecap:butt;stroke-linejoin:miter;stroke-miterlimit:4;stroke-dasharray:none;stroke-opacity:1" />
      <path
         sodipodi:nodetypes="csssc"
         id="path42786"
         d="M 145.02948,137.17956 C 145.02948,143.41662 140.27744,152.39864 134.42224,152.39864 C 128.56704,152.39864 123.81498,143.41662 123.81498,137.17956 C 123.81498,130.94249 128.56704,125.88053 134.42224,125.88053 C 140.27744,125.88053 145.02948,130.94249 145.02948,137.17956 z"
         style="fill:url(#linearGradient4281);fill-opacity:1;stroke:none;stroke-width:2;stroke-miterlimit:4;stroke-opacity:1" />
      <path
         sodipodi:nodetypes="ccc"
         id="path3583"
         d="M 94.045202,211.23387 C 77.531459,211.22033 70.184172,219.71849 66.821591,231.91674 C 66.821591,231.91674 97.227183,219.01204 94.045202,211.23387 z"
         style="fill:#ffffff;fill-opacity:0.4419643;fill-rule:evenodd;stroke:none;stroke-width:1px;stroke-linecap:butt;stroke-linejoin:miter;stroke-opacity:1;filter:url(#filter3657)" />
      <path
         sodipodi:nodetypes="ccc"
         id="path3881"
         d="M 104.12147,141.58385 C 77.208638,135.85919 83.752877,152.43925 82.024387,163.50416 C 84.291925,166.59626 109.49779,151.374 104.12147,141.58385 z"
         style="fill:#ffffff;fill-opacity:0.52678576;fill-rule:evenodd;stroke:none;stroke-width:1px;stroke-linecap:butt;stroke-linejoin:miter;stroke-opacity:1;filter:url(#filter3995)" />
      <path
         id="path3999"
         d="M 62,121 L 67.75,109.75 L 73,105.25 L 80,113 L 88.5,123.25 L 79,118.25 L 74,110.5 L 71.25,124 L 65.75,124 L 62,121 z"
         style="fill:#ffffff;fill-opacity:0.23214285;fill-rule:evenodd;stroke:none;stroke-width:1px;stroke-linecap:butt;stroke-linejoin:miter;stroke-opacity:1" />
      <path
         id="path4001"
         d="M 184.75,123.75 L 191.75,117.5 L 197.25,110.25 L 201.25,106.25 L 207.5,111.25 L 211.5,116.75 L 212,122 L 203.75,124.75 L 200,112 L 198,116.25 L 191.75,120.5 L 184.75,123.75 z"
         style="fill:#000000;fill-opacity:0.1875;fill-rule:evenodd;stroke:none;stroke-width:1px;stroke-linecap:butt;stroke-linejoin:miter;stroke-opacity:1" />
      <path
         sodipodi:nodetypes="cccc"
         id="path4003"
         d="M 123.25,15.75 C 129.19574,28.932169 135.61544,41.978921 132.5,57.75 L 125.25,47.75 C 129.14364,41.63142 124.49325,22.117757 123.25,15.75 z"
         style="fill:#ffffff;fill-opacity:0.45535715;fill-rule:evenodd;stroke:none;stroke-width:1px;stroke-linecap:butt;stroke-linejoin:miter;stroke-opacity:1;filter:url(#filter4057)" />
      <path
         sodipodi:nodetypes="cccc"
         id="path4061"
         d="M 151.75,41 C 147.97611,43.749402 144.61823,49.410973 140.25,48 L 139,56.25 C 144.02486,52.716386 148.05032,47.183967 151.75,41 z"
         style="fill:#ffffff;fill-opacity:0.42857145;fill-rule:evenodd;stroke:none;stroke-width:1px;stroke-linecap:butt;stroke-linejoin:miter;stroke-opacity:1;filter:url(#filter4139)" />
      <path
         sodipodi:nodetypes="ccccccscccccccsccccccccccccsccccccccccsccccccccccccccscccccsccccccccccccccccccccccccccccccccscssscccccccccccccsccccccccccccccccscccccccccccccccscccccsccccccccccsccccccscccscccccccsccccccccccccsccsccscccccccccccccccccccsccccccccccccccccccccccccccccccccccscccccccccccccccccsccccccccccc"
         id="path47663"
         d="M 122.15625,14.5625 C 122.80115,20.460607 124.72063,26.104097 126,31.875 C 126.77485,35.970901 126.77138,41.904136 125,45.8125 C 123.84424,43.89814 122.08711,40.449933 120.125,39.3125 C 117.20754,37.977206 115.74143,35.996863 110.09375,35.875 C 116.0208,40.365476 121.55738,46.844351 122.75,55.8125 C 112.86839,57.34828 102.60189,60.122386 95.6875,68.28125 C 89.169704,75.972141 86.484448,86.661718 86.5625,103 C 84.523088,102.49212 80.283019,101.57719 78.21875,101.46875 C 67.291412,100.48124 58.762855,107.16827 58.3125,118.6875 C 59.737877,123.8954 66.091597,126.72844 70.96875,126.09375 C 73.886096,123.63868 73.51262,116.59328 74.375,113.0625 C 77.276876,118.01508 82.020332,122.43631 87.40625,124.5 C 90.643588,127.28402 89.295678,133.55329 88.71875,139.09375 C 87.777923,139.6525 85.528605,141.2166 84.75,142.09375 C 83.668591,143.31203 82.8065,145.02833 82.15625,146.75 L 77.21875,144.5625 L 76.90625,145.1875 L 81.53125,148.5 C 80.820141,151.24073 80.538049,154.56241 80.625,158.53125 L 63.5625,156.75 L 63.0625,157.34375 L 80.6875,160.5625 C 80.815291,163.75817 81.260685,167.55173 81.875,170.6875 L 76.03125,172.65625 L 76.46875,173.34375 L 82.3125,172 C 84.942978,182.55291 90.073971,188.58054 97.59375,193 C 101.43914,195.25998 107.24921,196.5737 111.90625,197.65625 C 113.21956,211.13478 102.26718,209.14402 93.28125,210.1875 C 86.078718,211.2245 77.762087,211.7731 71.875,218.46875 C 65.191725,227.73769 64.247704,234.02497 61.40625,257.09375 C 84.973377,265.06905 108.95415,261.02217 133.34375,260.75 C 140.53984,260.29023 147.72312,261.19073 154.90625,261.5625 C 172.91524,263.45773 189.45389,266.62585 222.03125,255.8125 C 217.65625,241.11458 216.1478,220.71772 206.53125,211.84375 C 199.80704,206.0161 194.03731,206.50729 188.1875,205.5625 C 181.63756,204.55388 173.3803,201.44259 169.5,195.5 C 170.87921,195.01007 174.21427,194.11654 175.5,193.53125 C 182.51156,190.33944 187.56223,185.96869 190.5,178.75 L 202.4375,182.15625 L 202.6875,181.46875 L 191.59375,176.25 C 192.64279,173.05995 193.22133,170.33949 193.28125,166.3125 L 208.4375,165.625 L 208.09375,164.625 L 193.28125,163.4375 C 193.53435,159.49186 193.12857,155.56391 192.625,151.65625 L 202.375,147.78125 L 202,146.9375 L 192.15625,149.71875 C 191.52545,146.73519 188.78305,143.44078 186.84375,141.1875 C 186.58692,135.11468 186.77069,131.01278 187.15625,124.96875 C 187.94692,124.65615 190.25125,123.28034 191.0625,122.84375 C 194.34659,121.07637 197.98196,116.39043 200.15625,112.8125 C 201.32324,116.31638 200.07768,123.76113 203.1875,126.21875 C 207.05856,127.40371 211.3975,124.35041 214.3125,121.90625 C 219.38197,116.17055 214.36892,108.30891 210.125,104.09375 C 203.34777,99.861072 193.18203,101.33903 185.875,103.3125 C 184.22483,86.08677 180.62663,75.197372 173.03125,67.5 C 165.82046,60.192383 155.58246,57.496692 146.4375,55.90625 C 152.28802,51.041667 151.85678,42.802083 153.34375,37.3125 C 149.89366,41.095765 146.94364,46.544292 141.40625,46.9375 C 136.17397,35.469041 133.83544,22.347012 122.15625,14.5625 z M 124.0625,18.0625 C 130.69985,23.369289 136.17172,32.819996 139.8125,48.78125 C 145.01824,49.314854 148.32569,45.15516 151.5625,41.65625 C 150.48377,44.933105 153.02431,45.925655 142.6875,58.625 C 144.41506,60.438338 144.7938,62.034343 143.03125,63.25 C 137.64702,65.743398 129.29907,66.917949 123.71875,64.375 C 119.58773,62.307244 122.78345,60.28812 123.9375,58.53125 C 123.44212,54.424779 122.7251,50.400739 121.25,46.53125 C 120.21456,44.212 116.41813,40.913495 113.96875,38.5 C 118.63067,37.829733 121.83597,45.002964 124.71875,48.1875 C 128.43264,43.054255 128.85439,37.594355 127.96875,31.5 C 127.25575,27.731079 124.91421,21.683699 124.0625,18.0625 z M 121.5625,58.59375 C 119.85592,61.423671 120.31067,63.667805 122.78125,65.71875 C 128.986,68.564562 136.76427,67.533246 142.78125,64.625 C 145.31917,63.174892 146.25601,61.369371 145.125,58.6875 C 154.53058,58.954072 163.76364,62.305248 170.96875,68.5 C 177.84221,75.465754 182.23117,87.724293 183.59375,105 C 182.82936,105.48625 182.11701,106.02107 181.46875,106.625 L 181.96875,107.21875 C 188.6569,102.91379 200.18075,101.15266 207.5625,105.59375 C 210.88988,108.84686 216.88924,115.72775 212.9375,120.4375 C 212.53394,111.48007 205.72481,109.91368 201.4375,105.4375 C 195.70833,110.04167 195.3188,114.78444 185,122.25 C 183.86546,122.60391 181.91639,124.36524 180.875,124.0625 L 180.78125,124.15625 C 181.54221,124.7465 184.50347,124.62484 185.5625,124.65625 C 184.99696,129.40719 184.88975,135.66547 184.84375,140.4375 C 182.13098,139.61861 177.08918,140.19973 174,140.59375 C 164.96596,141.74603 153.92387,145.98133 143.25,147.5 C 144.6568,144.64693 146,139.84187 146,137.125 C 146,130.363 140.848,124.875 134.5,124.875 C 128.152,124.875 123,130.363 123,137.125 C 123,139.52536 123.9098,144.04334 125.03125,146.625 C 113.65615,143.531 102.56302,138.36771 90.53125,139.3125 C 90.743431,134.74858 92.591166,129.41513 91.71875,124.9375 C 92.42842,124.81698 93.955516,124.70358 94.5,124.28125 C 93.929961,124.20952 91.528604,123.01771 89.375,122.90625 C 87.654665,121.35622 84.597814,118.81449 81.96875,113.96875 L 72.96875,105.4375 C 66.975092,108.90744 62.97086,114.0412 61.1875,120.65625 C 60.488806,119.95241 60.585876,118.36457 60.53125,117.84375 C 60.751179,106.88656 68.784663,102.19607 78.25,102.46875 C 83.277122,102.73284 89.471585,104.33918 92.5625,107.21875 L 92.9375,106.625 C 91.924773,105.68152 90.746107,104.88077 89.46875,104.21875 C 89.080575,87.806889 91.325117,76.250017 97.125,69.40625 C 102.96892,62.510522 112.66844,60.033396 121.5625,58.59375 z M 108.875,85.75 C 104.84534,85.848815 100.65057,87.36702 96.34375,90.84375 C 95.580653,92.08341 95.1204,91.17928 96.8125,93.59375 C 107.1966,83.642867 116.0233,90.336835 124.875,92.9375 C 125.2559,92.994624 124.90945,93.576999 125.40625,92.9375 C 120.31146,88.52528 114.7645,85.605578 108.875,85.75 z M 158.28125,85.75 C 152.73566,85.914954 147.48289,88.757502 142.65625,92.9375 C 143.15305,93.576999 142.8066,92.994624 143.1875,92.9375 C 152.0392,90.336835 160.86591,83.642867 171.25,93.59375 C 172.9421,91.17928 172.48185,92.08341 171.71875,90.84375 C 167.08064,87.09958 162.59448,85.621702 158.28125,85.75 z M 111.5625,93.46875 C 105.77747,93.621655 99.897915,96.571187 96.375,101.65625 C 94.521205,108.8207 95.61857,116.49358 101.09375,126.65625 C 101.59627,126.52468 99.003885,130.10718 99.46875,129.875 C 105.74877,126.73839 117.04141,123.24745 124.5625,124.34375 L 128.75,124.90625 L 126.21875,123.125 C 128.35129,114.72416 127.95773,111.78782 126.25,102.1875 L 126.21875,102.125 L 126.21875,102.0625 C 123.03802,95.959565 117.34753,93.315845 111.5625,93.46875 z M 157.78125,93.46875 C 151.94778,93.412075 146.19186,96.149653 143.09375,102.0625 L 143.09375,102.125 L 143.0625,102.1875 C 141.35477,111.78782 140.96122,114.72416 143.09375,123.125 L 140.8125,125.53125 C 149.80384,121.94326 159.6465,123.67606 169.96875,128.40625 L 168.28125,126.28125 C 168.93741,122.36648 170.71425,119.58814 172.09375,116.0625 C 173.47325,112.53686 174.35251,108.28787 173.03125,101.90625 L 173,101.78125 L 172.9375,101.65625 C 169.52572,96.376354 163.61472,93.525425 157.78125,93.46875 z M 110.9375,95.375 C 116.27693,95.320694 121.56588,97.64934 124.3125,102.65625 C 124.31515,102.66433 124.30989,102.67942 124.3125,102.6875 C 125.92225,111.73778 126.50425,115.36407 124.6875,122.8125 C 124.54736,122.7927 124.14271,121.79814 124,121.78125 C 124.64824,113.92879 120.80794,99.038069 110.25,99.59375 C 100.35346,103.75849 100.16867,115.86315 103.75,124.625 C 103.39473,124.72621 103.01703,124.84172 102.6875,124.9375 C 99.830102,117.2804 96.071527,110.72838 97.3125,102.375 C 100.20816,97.866563 105.59807,95.429306 110.9375,95.375 z M 156.9375,95.46875 C 162.27745,95.344712 167.83351,97.936699 171.09375,102.5 C 172.2855,108.42498 171.49728,112.04493 170.21875,115.3125 C 169.03933,118.32679 167.46223,121.18993 166.625,124.9375 C 166.28652,124.83912 165.89686,124.72909 165.53125,124.625 C 169.46745,115.43462 168.43073,104.59917 159.0625,99.59375 C 148.30311,100.79271 144.4805,112.23151 145.3125,121.78125 C 145.16979,121.79814 145.01514,121.7927 144.875,121.8125 C 143.05825,114.36406 143.39025,111.73782 145,102.6875 C 145.00261,102.67942 144.99735,102.66433 145,102.65625 C 147.68498,97.801874 152.22578,95.578196 156.9375,95.46875 z M 158.125,100.4375 C 167.62912,104.11089 166.79652,116.48314 163.5625,124.09375 C 161.36401,123.50302 158.86981,122.88407 156.1875,122.40625 C 153.13607,121.86267 150.08241,121.51441 147.34375,121.59375 C 146.31024,112.72854 149.32211,101.4967 158.125,100.4375 z M 110.4375,100.5625 C 120.02946,103.11615 121.11514,112.27406 121.09375,121.21875 C 115.58135,121.10714 111.43289,122.62466 106.125,123.96875 C 102.62185,115.89516 102.28418,105.43348 110.4375,100.5625 z M 72.8125,106.09375 C 76.259945,108.15107 78.373309,112.37604 80.34375,115.125 C 81.953363,117.37057 83.616664,119.77707 86.1875,121.96875 C 80.357379,119.37926 75.885341,115.85095 74.34375,109.53125 C 71.825338,113.88748 72.212634,119.06718 70,123.53125 C 67.327872,124.12595 64.739185,122.80262 62.5625,121.34375 C 65.364005,116.00352 67.536366,109.5995 72.8125,106.09375 z M 201.4375,106.5625 C 205.80774,110.18743 210.38055,113.51976 211.84375,121.34375 C 209.66408,122.9054 207.08894,123.98912 204.40625,123.53125 C 202.95833,118.86458 204.50007,124.20511 200.3125,110.40625 C 198.21535,115.87131 194.44069,119.37076 189.21875,121.71875 C 193.71288,116.92701 196.04372,110.57374 201.4375,106.5625 z M 134.3125,126.375 C 139.87649,126.375 144.375,131.19812 144.375,137.125 C 144.375,138.90606 144.34262,141.29685 143.57943,142.79116 C 141.19282,144.42184 137.62629,146.57953 139.45939,148.73601 C 137.89253,150.61845 137.12773,151.42556 134.3125,151.59375 C 132.41305,151.70723 130.77831,151.06716 129.41115,149.95665 C 131.08588,146.13017 127.51205,145.61164 126.19224,145.65891 C 124.88014,142.93371 124.21875,139.73668 124.21875,137.125 C 124.21875,131.19813 128.7485,126.375 134.3125,126.375 z M 94.1875,141.21875 C 104.43605,140.98311 119.06972,147.68412 126,148.875 C 129.21438,154.86607 137.97867,154.92441 142.15625,148.8125 C 155.47082,148.03838 165.47071,142.79198 174.375,141.65625 C 181.08356,140.5012 187.08154,144.97099 188.8125,151.21875 L 174,154.8125 C 173.33242,156.44989 172.59561,158.09358 175.5,159.40625 L 189.3125,153.34375 C 189.71265,155.83739 189.90318,159.14172 189.78125,162.9375 L 183.09375,162.625 C 179.26713,163.29882 180.23941,165.42624 181.8125,167 L 189.6875,166.4375 C 189.68518,169.91847 188.92518,172.18341 188.1875,174.8125 L 181.4375,171.46875 C 178.10359,171.48548 178.31386,173.4354 178.5625,175.40625 L 186.5625,178.09375 C 184.25423,184.27109 179.73998,186.13098 173.4375,189 C 160.6665,194.22858 146.8386,196.52168 133.25,197.75 C 120.10279,197.58907 106.60692,194.82703 98.5,190.0625 C 92.064826,186.28047 88.566603,180.76564 86.28125,171.375 L 98.46875,168.96875 C 101.2591,165.68676 98.837046,165.38329 97.15625,164.65625 L 85.96875,169.1875 C 85.474956,166.73359 85.026384,164.37283 84.875,161.875 L 93.0625,162.84375 C 94.588696,162.28131 95.58314,161.50617 93.8125,159.625 L 84.40625,159.0625 C 84.29989,155.93622 83.815039,152.41457 84.15625,150.34375 L 96.40625,159.1875 C 99.494492,159.42402 98.962162,157.64912 99.21875,156.3125 L 84.375,148.46875 C 84.890119,146.57677 86.071538,144.21766 86.875,143.3125 C 88.791507,141.88314 91.317907,141.28473 94.1875,141.21875 z M 108.40625,157.46875 C 107.22596,161.2679 109.11213,165.90403 111.5625,166.65625 C 115.60934,169.42319 120.54092,170.13743 125.3125,170.59375 C 126.00382,175.5632 130.65489,189.84501 138.15625,184.65625 C 140.8708,186.17397 143.04209,183.60806 144.625,181.53125 C 146.64307,178.67359 148.26955,174.38163 147.9375,169.625 C 155.17294,168.26893 163.72958,168.30419 167,160.03125 C 164.00667,164.28227 141.93721,162.71319 136.59375,162.625 C 127.23256,161.20704 114.51458,163.11542 108.40625,157.46875 z M 108.75,159.0625 C 112.68101,165.25313 121.46855,163.31077 127.90625,163.46875 L 124.75,164.84375 C 124.81933,165.55607 124.91079,167.8636 125,168.53125 C 119.86505,168.20406 109.7298,167.31902 108.75,159.0625 z M 164.375,162.875 C 159.62542,166.9154 152.1037,167.16596 146.9375,168.03125 C 146.9808,166.48093 146.84844,165.30281 145.9375,164.46875 C 151.58864,164.28128 158.74974,163.47914 164.375,162.875 z M 134.71875,163.6875 C 137.629,163.55855 141.24437,164.21675 145.5625,165.03125 C 147.19034,170.54295 145.22603,177.22288 143,180.375 C 141.84656,182.00831 140.48281,183.01022 139.84375,183.1875 C 138.47547,180.4279 138.40628,175.7504 137.28125,172.40625 L 136.71875,172.1875 C 137.34439,175.17501 139.53691,181.61385 137,183.8125 C 128.26368,184.24011 127.01942,170.54229 126,164.6875 C 128.59291,163.69258 131.92715,163.81119 134.71875,163.6875 z M 166.6875,196.625 C 170.69206,204.81743 180.85217,206.2931 189,208 C 194.69956,208.92052 199.48432,209.77325 205.09375,214.46875 C 210.55454,223.71969 216.87009,239.55123 219.25,253.96875 C 204.80539,258.59656 189.23347,260.25316 173.65625,260.46875 C 172.94097,248.5833 173.10155,237.71183 169.5,229.75 C 164.58191,218.9735 153.34347,217.27674 142.65625,217.125 C 130.65942,216.95033 120.10754,220.46118 113.53125,230.75 C 109.87592,238.28487 109.96019,248.28608 110.5625,259.375 C 94.926395,259.19345 79.346157,257.83082 63.75,255.71875 C 65.407338,243.94941 65.260753,230.72497 72.875,221.03125 C 77.481813,215.79172 85.400631,213.50415 92.375,212.5 C 99.34937,211.49585 108.16829,212.87966 112.59375,208.0625 C 114.20711,205.36368 114.8561,202.16209 115.59375,199.125 C 121.09571,199.98755 127.12564,200.18268 133.3125,200.25 C 144.56435,199.69477 155.67772,198.92766 166.6875,196.625 z M 142.12592,217.77145 C 152.76829,217.43002 163.4191,220.22894 168.59375,230.15625 C 172.04155,237.77816 170.7045,248.56407 171.41881,260.46875 C 158.0971,260.60096 146.02407,259.7146 133.4375,258.75 C 126.15548,259.18422 120.09415,259.52608 112.79994,259.55178 C 112.19826,248.47042 110.93144,238.41465 114.4375,231.1875 C 120.05396,220.60922 131.07394,218.08506 142.12592,217.77145 z"
         style="fill:#000000;fill-opacity:1;fill-rule:evenodd;stroke:none;stroke-width:2;stroke-linecap:butt;stroke-linejoin:miter;stroke-miterlimit:4;stroke-dasharray:none;stroke-opacity:1" />
      <path
         sodipodi:nodetypes="ccc"
         id="path3229"
         d="M 140.18392,131.3308 C 136.88343,129.07442 133.4283,123.79056 127.456,131.3308 C 125.59377,133.19303 137.98745,139.89122 140.18392,131.3308 z"
         style="fill:#ffffff;fill-opacity:0.64732139;fill-rule:evenodd;stroke:none;stroke-width:1px;stroke-linecap:butt;stroke-linejoin:miter;stroke-opacity:1;filter:url(#filter3503)" />
      <path
         sodipodi:nodetypes="cccc"
         id="path3507"
         d="M 115.96551,198.8595 C 129.93469,203.02427 145.40063,206.50304 148.49242,215.65328 L 167.76108,194.61686 C 148.58612,200.16891 132.408,199.2278 115.96551,198.8595 z"
         style="fill:#000000;fill-opacity:0.3705357;fill-rule:evenodd;stroke:none;stroke-width:1px;stroke-linecap:butt;stroke-linejoin:miter;stroke-opacity:1;filter:url(#filter3549)" />
      <path
         sodipodi:nodetypes="cccc"
         id="path3553"
         d="M 172.1805,240.04847 C 171.11984,241.81623 172.53405,262.67588 172.53405,262.67588 L 149.90664,260.55456 C 160.97975,258.3817 171.35962,254.80361 172.1805,240.04847 z"
         style="fill:#000000;fill-opacity:0.16964285;fill-rule:evenodd;stroke:none;stroke-width:1px;stroke-linecap:butt;stroke-linejoin:miter;stroke-opacity:1;filter:url(#filter3579)" />
      <path
         sodipodi:nodetypes="ccccc"
         id="path3791"
         d="M 181.72644,141.58385 C 208.49488,165.26271 159.26051,200.07117 152.38151,195.67752 L 179.7819,190.19744 L 190.91883,172.87333 C 192.66096,157.57654 190.81226,144.64035 181.72644,141.58385 z"
         style="fill:#000000;fill-opacity:0.26339285;fill-rule:evenodd;stroke:none;stroke-width:1px;stroke-linecap:butt;stroke-linejoin:miter;stroke-opacity:1;filter:url(#filter3877)" />
      <path
         transform="matrix(0.9781935,-0.2076956,0.2076956,0.9781935,-22.090328,24.462012)"
         d="M 119.375,133.125 A 7.75,2.875 0 1 1 103.875,133.125 A 7.75,2.875 0 1 1 119.375,133.125 z"
         sodipodi:ry="2.875"
         sodipodi:rx="7.75"
         sodipodi:cy="133.125"
         sodipodi:cx="111.625"
         id="path4189"
         style="opacity:1;fill:#f9f9f9;fill-opacity:0.22767855;stroke:none;stroke-width:1;stroke-miterlimit:4;stroke-dasharray:none;stroke-opacity:1;filter:url(#filter4217)"
         sodipodi:type="arc" />
      <path
         sodipodi:type="arc"
         style="opacity:1;fill:#f9f9f9;fill-opacity:0.22767855;stroke:none;stroke-width:1;stroke-miterlimit:4;stroke-dasharray:none;stroke-opacity:1;filter:url(#filter4221)"
         id="path4191"
         sodipodi:cx="111.625"
         sodipodi:cy="133.125"
         sodipodi:rx="7.75"
         sodipodi:ry="2.875"
         d="M 119.375,133.125 A 7.75,2.875 0 1 1 103.875,133.125 A 7.75,2.875 0 1 1 119.375,133.125 z"
         transform="matrix(-0.9781935,-0.2076956,-0.2076956,0.9781935,290.84032,24.212012)" />
    </g>
  </g>
</svg>
