<?xml version="1.0" encoding="UTF-8" standalone="no"?>
<!-- Created with Inkscape (http://www.inkscape.org/) -->
<svg
   xmlns:dc="http://purl.org/dc/elements/1.1/"
   xmlns:cc="http://creativecommons.org/ns#"
   xmlns:rdf="http://www.w3.org/1999/02/22-rdf-syntax-ns#"
   xmlns:svg="http://www.w3.org/2000/svg"
   xmlns="http://www.w3.org/2000/svg"
   xmlns:xlink="http://www.w3.org/1999/xlink"
   xmlns:sodipodi="http://sodipodi.sourceforge.net/DTD/sodipodi-0.dtd"
   xmlns:inkscape="http://www.inkscape.org/namespaces/inkscape"
   width="280"
   height="280"
   id="svg2"
   sodipodi:version="0.32"
   inkscape:version="0.45+devel"
   version="1.0"
   sodipodi:docbase="/home/nicu/Desktop"
   sodipodi:docname="face01_emo.svg"
   inkscape:output_extension="org.inkscape.output.svg.inkscape"
   inkscape:export-filename="/home/nicu/Desktop/faces.png"
   inkscape:export-xdpi="90"
   inkscape:export-ydpi="90">
  <defs
     id="defs4">
    <linearGradient
       id="linearGradient3558">
      <stop
         style="stop-color:#ffffff;stop-opacity:1;"
         offset="0"
         id="stop3560" />
      <stop
         style="stop-color:#b9b9b9;stop-opacity:1;"
         offset="1"
         id="stop3562" />
    </linearGradient>
    <linearGradient
       id="linearGradient3168">
      <stop
         style="stop-color:#cccccc;stop-opacity:1;"
         offset="0"
         id="stop3170" />
      <stop
         style="stop-color:#ffffff;stop-opacity:1;"
         offset="1"
         id="stop3172" />
    </linearGradient>
    <linearGradient
       id="linearGradient3160">
      <stop
         style="stop-color:#ff0000;stop-opacity:1;"
         offset="0"
         id="stop3162" />
      <stop
         style="stop-color:#900000;stop-opacity:1;"
         offset="1"
         id="stop3164" />
    </linearGradient>
    <linearGradient
       id="linearGradient3150">
      <stop
         style="stop-color:#00c700;stop-opacity:1;"
         offset="0"
         id="stop3152" />
      <stop
         style="stop-color:#009000;stop-opacity:1;"
         offset="1"
         id="stop3154" />
    </linearGradient>
    <linearGradient
       id="linearGradient3128">
      <stop
         style="stop-color:#501616;stop-opacity:1;"
         offset="0"
         id="stop3130" />
      <stop
         style="stop-color:#411212;stop-opacity:1;"
         offset="1"
         id="stop3132" />
    </linearGradient>
    <linearGradient
       id="linearGradient3118">
      <stop
         style="stop-color:#ebb28e;stop-opacity:1;"
         offset="0"
         id="stop3120" />
      <stop
         style="stop-color:#f4d1bb;stop-opacity:1;"
         offset="1"
         id="stop3122" />
    </linearGradient>
    <linearGradient
       id="linearGradient3108">
      <stop
         style="stop-color:#483737;stop-opacity:1;"
         offset="0"
         id="stop3110" />
      <stop
         style="stop-color:#211919;stop-opacity:1;"
         offset="1"
         id="stop3112" />
    </linearGradient>
    <filter
       inkscape:collect="always"
       id="filter3202">
      <feGaussianBlur
         inkscape:collect="always"
         stdDeviation="1.035074"
         id="feGaussianBlur3204" />
    </filter>
    <filter
       inkscape:collect="always"
       id="filter3244">
      <feGaussianBlur
         inkscape:collect="always"
         stdDeviation="0.69528285"
         id="feGaussianBlur3246" />
    </filter>
    <filter
       inkscape:collect="always"
       id="filter3354"
       x="-0.29693637"
       width="1.5938727"
       y="-0.48523749"
       height="1.970475">
      <feGaussianBlur
         inkscape:collect="always"
         stdDeviation="1.4653858"
         id="feGaussianBlur3356" />
    </filter>
    <filter
       inkscape:collect="always"
       id="filter3398"
       x="-0.083909011"
       width="1.167818"
       y="-0.30466174"
       height="1.6093235">
      <feGaussianBlur
         inkscape:collect="always"
         stdDeviation="3.2818362"
         id="feGaussianBlur3400" />
    </filter>
    <filter
       inkscape:collect="always"
       id="filter3492">
      <feGaussianBlur
         inkscape:collect="always"
         stdDeviation="0.91760613"
         id="feGaussianBlur3494" />
    </filter>
    <filter
       inkscape:collect="always"
       id="filter3496"
       x="-0.14387906"
       width="1.2877581"
       y="-0.097832474"
       height="1.1956649">
      <feGaussianBlur
         inkscape:collect="always"
         stdDeviation="0.91760613"
         id="feGaussianBlur3498" />
    </filter>
    <filter
       inkscape:collect="always"
       id="filter3500"
       x="-0.11911705"
       width="1.2382341"
       y="-0.096201183"
       height="1.1924024">
      <feGaussianBlur
         inkscape:collect="always"
         stdDeviation="0.91760613"
         id="feGaussianBlur3502" />
    </filter>
    <filter
       inkscape:collect="always"
       id="filter3554"
       x="-0.16947368"
       width="1.3389474"
       y="-0.082003396"
       height="1.1640068">
      <feGaussianBlur
         inkscape:collect="always"
         stdDeviation="1.5888158"
         id="feGaussianBlur3556" />
    </filter>
    <filter
       inkscape:collect="always"
       id="filter3670"
       x="-0.31817526"
       width="1.6363505"
       y="-0.1756146"
       height="1.3512292">
      <feGaussianBlur
         inkscape:collect="always"
         stdDeviation="0.66318363"
         id="feGaussianBlur3672" />
    </filter>
    <filter
       inkscape:collect="always"
       id="filter3754"
       x="-0.10741661"
       width="1.2148332"
       y="-0.24138272"
       height="1.4827654">
      <feGaussianBlur
         inkscape:collect="always"
         stdDeviation="1.3315183"
         id="feGaussianBlur3756" />
    </filter>
    <filter
       inkscape:collect="always"
       id="filter3758"
       x="-0.10741661"
       width="1.2148332"
       y="-0.24138272"
       height="1.4827654">
      <feGaussianBlur
         inkscape:collect="always"
         stdDeviation="1.3315183"
         id="feGaussianBlur3760" />
    </filter>
    <filter
       inkscape:collect="always"
       id="filter3842"
       x="-0.094009217"
       width="1.1880184"
       y="-0.19245283"
       height="1.3849057">
      <feGaussianBlur
         inkscape:collect="always"
         stdDeviation="1.0625"
         id="feGaussianBlur3844" />
    </filter>
    <filter
       inkscape:collect="always"
       id="filter3916"
       x="-0.37491375"
       width="1.7498275"
       y="-0.087667053"
       height="1.1753341">
      <feGaussianBlur
         inkscape:collect="always"
         stdDeviation="0.74356751"
         id="feGaussianBlur3918" />
    </filter>
    <filter
       inkscape:collect="always"
       id="filter3946"
       x="-0.099747368"
       width="1.1994947"
       y="-0.15393112"
       height="1.3078622">
      <feGaussianBlur
         inkscape:collect="always"
         stdDeviation="0.64939693"
         id="feGaussianBlur3948" />
    </filter>
    <filter
       inkscape:collect="always"
       id="filter4072"
       x="-0.17392076"
       width="1.3478415"
       y="-0.18427318"
       height="1.3685464">
      <feGaussianBlur
         inkscape:collect="always"
         stdDeviation="1.6123904"
         id="feGaussianBlur4074" />
    </filter>
    <filter
       inkscape:collect="always"
       id="filter4138"
       x="-0.14661654"
       width="1.2932331"
       y="-0.12828947"
       height="1.2565789">
      <feGaussianBlur
         inkscape:collect="always"
         stdDeviation="0.74835526"
         id="feGaussianBlur4140" />
    </filter>
    <filter
       inkscape:collect="always"
       id="filter4164"
       x="-0.12917503"
       width="1.2583501"
       y="-0.074796122"
       height="1.1495922">
      <feGaussianBlur
         inkscape:collect="always"
         stdDeviation="1.7841992"
         id="feGaussianBlur4166" />
    </filter>
    <linearGradient
       inkscape:collect="always"
       xlink:href="#linearGradient3150"
       id="linearGradient2441"
       gradientUnits="userSpaceOnUse"
       x1="150.36151"
       y1="96.128059"
       x2="159.61151"
       y2="112.00306" />
    <radialGradient
       inkscape:collect="always"
       xlink:href="#linearGradient3558"
       id="radialGradient2444"
       gradientUnits="userSpaceOnUse"
       gradientTransform="matrix(0.2601731,1.3421556,-1.9359718,0.375284,291.83134,-133.46295)"
       cx="145.375"
       cy="95.186829"
       fx="145.375"
       fy="95.186829"
       r="15.82322" />
    <linearGradient
       inkscape:collect="always"
       xlink:href="#linearGradient3108"
       id="linearGradient2447"
       gradientUnits="userSpaceOnUse"
       x1="126.21856"
       y1="35.341053"
       x2="138.59293"
       y2="61.996494" />
    <linearGradient
       inkscape:collect="always"
       xlink:href="#linearGradient3108"
       id="linearGradient2450"
       gradientUnits="userSpaceOnUse"
       x1="170.05917"
       y1="53.72583"
       x2="184.55487"
       y2="71.813286" />
    <linearGradient
       inkscape:collect="always"
       xlink:href="#linearGradient3168"
       id="linearGradient2454"
       gradientUnits="userSpaceOnUse"
       gradientTransform="translate(-0.5,0)"
       x1="152.5"
       y1="227.5"
       x2="166.25"
       y2="237.625" />
    <linearGradient
       inkscape:collect="always"
       xlink:href="#linearGradient3168"
       id="linearGradient2458"
       gradientUnits="userSpaceOnUse"
       gradientTransform="translate(-0.5,0)"
       x1="103.13851"
       y1="229.25407"
       x2="111.4448"
       y2="232.87907" />
    <linearGradient
       inkscape:collect="always"
       xlink:href="#linearGradient3168"
       id="linearGradient2462"
       gradientUnits="userSpaceOnUse"
       gradientTransform="translate(-0.5,0)"
       x1="127.125"
       y1="232.375"
       x2="140"
       y2="259.25" />
    <linearGradient
       inkscape:collect="always"
       xlink:href="#linearGradient3128"
       id="linearGradient2466"
       gradientUnits="userSpaceOnUse"
       x1="121.26881"
       y1="195.85429"
       x2="126.92566"
       y2="216.71394" />
    <linearGradient
       inkscape:collect="always"
       xlink:href="#linearGradient3128"
       id="linearGradient2470"
       gradientUnits="userSpaceOnUse"
       x1="107.00115"
       y1="202.06488"
       x2="159.21027"
       y2="253.98326" />
    <linearGradient
       inkscape:collect="always"
       xlink:href="#linearGradient3160"
       id="linearGradient2473"
       gradientUnits="userSpaceOnUse"
       x1="126.125"
       y1="145.875"
       x2="128.25"
       y2="152.75" />
    <linearGradient
       inkscape:collect="always"
       xlink:href="#linearGradient3108"
       id="linearGradient2477"
       gradientUnits="userSpaceOnUse"
       x1="148.59062"
       y1="82.041222"
       x2="168.44368"
       y2="87.791222" />
    <linearGradient
       inkscape:collect="always"
       xlink:href="#linearGradient3108"
       id="linearGradient2483"
       gradientUnits="userSpaceOnUse"
       x1="102.25049"
       y1="82.416222"
       x2="124.35355"
       y2="90.900795" />
    <linearGradient
       inkscape:collect="always"
       xlink:href="#linearGradient3150"
       id="linearGradient2486"
       gradientUnits="userSpaceOnUse"
       x1="111.71875"
       y1="93.875"
       x2="118"
       y2="107.625" />
    <radialGradient
       inkscape:collect="always"
       xlink:href="#linearGradient3558"
       id="radialGradient2489"
       gradientUnits="userSpaceOnUse"
       gradientTransform="matrix(4.5042526e-2,1.2903464,-1.6158406,5.6401826e-2,248.31786,-38.92403)"
       cx="101.73254"
       cy="91.376678"
       fx="101.73254"
       fy="91.376678"
       r="15.82322" />
    <linearGradient
       inkscape:collect="always"
       xlink:href="#linearGradient3118"
       id="linearGradient2492"
       gradientUnits="userSpaceOnUse"
       x1="122.68303"
       y1="67.867966"
       x2="163.34166"
       y2="167.57002" />
    <linearGradient
       inkscape:collect="always"
       xlink:href="#linearGradient3118"
       id="linearGradient2497"
       gradientUnits="userSpaceOnUse"
       x1="110.41537"
       y1="175.88278"
       x2="184.28743"
       y2="225.0267" />
    <filter
       inkscape:collect="always"
       id="filter3344">
      <feGaussianBlur
         inkscape:collect="always"
         stdDeviation="1.9689107"
         id="feGaussianBlur3346" />
    </filter>
  </defs>
  <sodipodi:namedview
     id="base"
     pagecolor="#ffffff"
     bordercolor="#666666"
     borderopacity="1.0"
     gridtolerance="10000"
     guidetolerance="10"
     objecttolerance="10"
     inkscape:pageopacity="0.0"
     inkscape:pageshadow="2"
     inkscape:zoom="1"
     inkscape:cx="141.32588"
     inkscape:cy="104.00834"
     inkscape:document-units="px"
     inkscape:current-layer="layer1"
     width="280px"
     height="280px"
     inkscape:window-width="1081"
     inkscape:window-height="925"
     inkscape:window-x="550"
     inkscape:window-y="24"
     showgrid="false"
     showguides="true"
     inkscape:guide-bbox="true" />
  <metadata
     id="metadata7">
    <rdf:RDF>
      <cc:Work
         rdf:about="">
        <dc:format>image/svg+xml</dc:format>
        <dc:type
           rdf:resource="http://purl.org/dc/dcmitype/StillImage" />
      </cc:Work>
    </rdf:RDF>
  </metadata>
  <g
     inkscape:label="Layer 1"
     inkscape:groupmode="layer"
     id="layer1">
    <path
       style="fill:#000000;fill-opacity:1;fill-rule:evenodd;stroke:none;stroke-width:5;stroke-linecap:butt;stroke-linejoin:miter;stroke-miterlimit:4;stroke-dasharray:none;stroke-opacity:1;filter:url(#filter3344)"
       d="M 147.87475,26.312492 C 142.26702,26.255898 136.23175,26.91031 130.12475,28.312492 C 116.10283,31.266172 103.48286,37.936541 92.99975,48.281242 C 85.646551,60.867407 79.263839,66.328234 78.43725,91.499992 C 81.291128,89.804021 83.630358,90.251855 85.62475,91.687492 C 85.615841,92.162979 85.592154,92.633827 85.5935,93.124992 C 83.11421,92.280612 81.251173,92.958958 79.43725,94.718742 C 76.066511,99.859908 77.716702,106.49009 80.74975,111.37499 C 82.403505,113.69721 84.822381,115.41357 87.781,115.81249 C 88.046014,117.36355 88.330269,118.95894 88.656,120.59374 C 77.222363,149.66316 101.29129,166.2425 113.81225,176.81249 C 113.52228,182.51504 112.43462,188.70181 110.81225,193.74999 C 110.70153,193.69062 110.5797,193.65384 110.4685,193.59374 L 106.18725,189.99999 C 102.3067,192.75137 99.555694,190.98455 94.4685,198.56249 C 95.142885,199.26474 96.621404,200.66048 97.3435,201.31249 C 87.546451,202.20373 77.961384,204.18876 70.62475,210.93749 C 64.979161,217.24929 63.310723,223.37006 62.406,229.49999 C 61.439377,235.86665 60.94487,241.83402 58.781,248.49999 C 82.569588,256.25369 108.10483,254.33791 132.74975,254.40624 C 136.50509,254.24688 140.26188,254.23312 143.99975,254.31249 C 148.34447,254.56229 152.77107,254.76438 157.2185,254.87499 C 178.91387,256.06095 200.56753,257.80103 223.06225,248.06249 C 221.19954,233.35112 216.67741,219.37781 210.7185,205.87499 C 203.83856,199.27228 194.45008,197.96504 185.62475,195.74999 L 187.031,192.40624 C 184.47263,187.8886 181.06405,185.07801 175.81225,184.53124 C 174.07389,185.16149 172.41361,186.40751 170.81225,187.40624 C 168.85396,183.49696 167.32803,179.28701 167.656,174.40624 C 167.72612,173.79369 167.80946,173.19298 167.87475,172.59374 C 167.9849,171.90051 168.12215,171.19031 168.31225,170.46874 C 174.36501,164.36004 179.6283,157.36941 184.43725,150.15624 C 190.24483,140.12241 190.59726,131.69988 186.18725,122.31249 C 186.41833,119.97145 186.55054,117.75524 186.68725,115.56249 C 189.48122,114.79712 191.68728,112.86152 193.156,110.40624 C 194.76127,107.72268 196.34056,104.37702 196.406,101.40624 C 196.60744,95.408165 192.43102,91.644185 186.4685,93.562492 C 186.36828,92.550394 186.25033,91.566797 186.12475,90.593742 C 186.21715,90.567753 186.30933,90.52184 186.406,90.499992 L 192.31225,93.562492 C 188.0346,84.6593 190.52047,73.406843 190.74975,63.906242 C 190.6814,51.718036 183.00796,43.545177 171.43725,41.374992 C 172.84161,41.514077 174.49095,41.801141 176.49975,42.312492 L 176.781,39.968742 C 174.34973,30.01554 164.14017,27.329687 154.31225,26.718742 C 152.25326,26.484094 150.09857,26.334935 147.87475,26.312492 z M 169.906,41.281242 C 170.27403,41.28664 170.70934,41.340403 171.12475,41.374992 C 168.10257,41.81299 165.81264,42.622036 164.156,43.749992 C 165.11508,42.330678 166.56749,41.232277 169.906,41.281242 z M 61.156,247.71874 C 61.25902,247.75257 61.365242,247.77907 61.4685,247.81249 C 61.364284,247.79214 61.260164,247.77045 61.156,247.74999 C 61.158418,247.74049 61.153583,247.72824 61.156,247.71874 z"
       id="path2572" />
    <g
       id="g2526">
      <path
         sodipodi:nodetypes="cccccc"
         id="path3450"
         d="M 113.625,170.78736 C 113.20237,179.48081 113.47505,188.20681 109.375,196.28736 C 88.881155,225.37068 62.141504,250.2315 131.875,249.53736 C 216.00005,257.8015 198.29139,233.2647 170.125,189.03736 C 163.61131,182.9304 167.3366,173.77453 167.125,167.03736 C 150.375,161.43936 130.375,164.39397 113.625,170.78736 z"
         style="fill:url(#linearGradient2497);fill-opacity:1;fill-rule:evenodd;stroke:none;stroke-width:5;stroke-linecap:butt;stroke-linejoin:miter;stroke-miterlimit:4;stroke-dasharray:none;stroke-opacity:1" />
      <path
         sodipodi:nodetypes="cccc"
         id="path3206"
         d="M 114.72808,179.41406 L 133.81996,190.72777 L 132.22897,197.62206 C 115.32403,185.36691 118.88066,184.39298 114.72808,179.41406 z"
         style="fill:#ffffff;fill-opacity:0.34375;fill-rule:evenodd;stroke:none;stroke-width:1px;stroke-linecap:butt;stroke-linejoin:miter;stroke-opacity:1;filter:url(#filter3244)" />
      <path
         sodipodi:nodetypes="ccccc"
         id="path3180"
         d="M 132.7593,187.36901 C 133.7014,191.12381 135.77616,194.23138 133.64318,199.74338 C 147.68758,197.14492 150.58428,182.04167 165.28621,177.82307 L 166.17009,170.22167 L 132.7593,187.36901 z"
         style="fill:#000000;fill-opacity:0.2544643;fill-rule:evenodd;stroke:none;stroke-width:1px;stroke-linecap:butt;stroke-linejoin:miter;stroke-opacity:1;filter:url(#filter3202)" />
      <path
         id="path2479"
         d="M 131.71875,40.96875 C 108.9657,41.160646 84.709175,51.751823 85.53125,93.46875 C 73.756501,88.126353 75.590108,113.44356 87.625,113.96875 C 87.942716,115.8262 88.292645,117.73955 88.6875,119.6875 C 75.117713,153.58379 110.50178,169.58783 119.03125,180.4375 C 128.2642,193.61184 142.887,190.76921 150.53125,182.15625 C 180.59433,158.72528 193.0446,139.83916 184.15625,121.4375 C 184.41815,118.82335 184.60306,116.29761 184.75,113.84375 C 196.1019,111.80383 197.19085,86.910891 184.65625,94.0625 C 181.09544,50.317628 154.50236,40.776597 131.71875,40.96875 z"
         style="fill:url(#linearGradient2492);fill-opacity:1;fill-rule:evenodd;stroke:none;stroke-width:5;stroke-linecap:butt;stroke-linejoin:miter;stroke-miterlimit:4;stroke-dasharray:none;stroke-opacity:1" />
      <path
         sodipodi:nodetypes="ccc"
         id="path5394"
         d="M 97.68566,98.135712 C 106.75222,85.725154 117.4268,92.593642 129.3321,94.026955 C 122.62986,121.1534 99.967442,118.48344 97.68566,98.135712 z"
         style="fill:url(#radialGradient2489);fill-opacity:1;fill-rule:evenodd;stroke:none;stroke-width:2;stroke-linecap:butt;stroke-linejoin:miter;stroke-miterlimit:4;stroke-dasharray:none;stroke-opacity:1" />
      <path
         id="path29907"
         d="M 110.46875,90.849863 C 108.73519,90.895171 107.0579,91.188522 105.40625,91.818613 C 103.8945,93.298108 102.90625,95.402479 102.90625,98.006113 C 102.90625,103.39531 105.06218,109.23053 111.78125,109.16236 C 117.61698,109.10316 120.53125,103.39531 120.53125,98.006113 C 120.53125,95.311513 119.31951,93.148223 117.5625,91.662363 C 117.55142,91.652992 117.54237,91.64043 117.53125,91.631113 C 115.11128,91.135747 112.75347,90.79015 110.46875,90.849863 z"
         style="fill:url(#linearGradient2486);fill-opacity:1;fill-rule:evenodd;stroke:none;stroke-width:2;stroke-linecap:butt;stroke-linejoin:miter;stroke-miterlimit:4;stroke-dasharray:none;stroke-opacity:1" />
      <path
         sodipodi:nodetypes="cccsc"
         id="path7336"
         d="M 127.97855,88.019596 C 118.64784,83.088486 110.58003,79.461492 99.978553,81.519596 C 97.62319,85.942557 97.996851,87.157225 100.22855,90.269596 C 106.77417,82.995414 118.24121,88.550536 127.26986,90.868106 C 128.18109,91.10201 127.83531,90.073309 127.97855,88.019596 z"
         style="fill:url(#linearGradient2483);fill-opacity:1;fill-rule:evenodd;stroke:none;stroke-width:2;stroke-linecap:butt;stroke-linejoin:miter;stroke-miterlimit:4;stroke-dasharray:none;stroke-opacity:1" />
      <path
         style="fill:none;fill-opacity:1;fill-rule:evenodd;stroke:none;stroke-width:2;stroke-linecap:butt;stroke-linejoin:miter;stroke-miterlimit:4;stroke-dasharray:none;stroke-opacity:1"
         d="M 89.125,102.28736 C 78.611765,90.32429 79.75,109.10717 89.375,108.03736"
         id="path5392"
         sodipodi:nodetypes="cc" />
      <path
         transform="matrix(1.3333333,0,0,1.2586847,-22.657784,-24.223143)"
         d="M 103.25,98.875 A 2.625,2.875 0 1 1 98,98.875 A 2.625,2.875 0 1 1 103.25,98.875 z"
         sodipodi:ry="2.875"
         sodipodi:rx="2.625"
         sodipodi:cy="98.875"
         sodipodi:cx="100.625"
         id="path8308"
         style="fill:#000000;fill-opacity:1;stroke:none;stroke-width:3;stroke-miterlimit:4;stroke-dasharray:none"
         sodipodi:type="arc" />
      <path
         sodipodi:type="arc"
         style="fill:#ffffff;fill-opacity:1;stroke:none;stroke-width:3;stroke-miterlimit:4;stroke-dasharray:none"
         id="path8310"
         sodipodi:cx="100.625"
         sodipodi:cy="98.875"
         sodipodi:rx="2.625"
         sodipodi:ry="2.875"
         d="M 103.25,98.875 A 2.625,2.875 0 1 1 98,98.875 A 2.625,2.875 0 1 1 103.25,98.875 z"
         transform="matrix(1.0639593,0,0,1.0403884,1.598103,-5.543346)" />
      <path
         style="fill:url(#linearGradient2477);fill-opacity:1;fill-rule:evenodd;stroke:none;stroke-width:2;stroke-linecap:butt;stroke-linejoin:miter;stroke-miterlimit:4;stroke-dasharray:none;stroke-opacity:1"
         d="M 141.46562,88.019596 C 150.79633,83.088486 158.86415,79.461492 169.46562,81.519596 C 171.82098,85.942557 171.44732,87.157225 169.21562,90.269596 C 162.67,82.995414 151.20296,88.550536 142.17431,90.868106 C 141.26308,91.10201 141.60886,90.073309 141.46562,88.019596 z"
         id="path8316"
         sodipodi:nodetypes="cccsc" />
      <path
         sodipodi:nodetypes="cc"
         id="path8324"
         d="M 182.12735,102.28736 C 192.64059,90.32429 191.50235,109.10717 181.87735,108.03736"
         style="fill:none;fill-opacity:1;fill-rule:evenodd;stroke:none;stroke-width:2;stroke-linecap:butt;stroke-linejoin:miter;stroke-miterlimit:4;stroke-dasharray:none;stroke-opacity:1" />
      <path
         sodipodi:nodetypes="ccc"
         id="path8328"
         d="M 107.43306,155.55627 C 125.64815,149.85134 145.22183,149.54046 165.375,155.21788 C 158.53204,145.27583 111.63437,145.52667 107.43306,155.55627 z"
         style="fill:url(#linearGradient2473);fill-opacity:1;fill-rule:evenodd;stroke:none;stroke-width:2;stroke-linecap:butt;stroke-linejoin:miter;stroke-miterlimit:4;stroke-dasharray:none;stroke-opacity:1" />
      <path
         style="fill:url(#linearGradient2470);fill-opacity:1;fill-rule:evenodd;stroke:none;stroke-width:5;stroke-linecap:butt;stroke-linejoin:miter;stroke-miterlimit:4;stroke-dasharray:none;stroke-opacity:1"
         d="M 109.375,196.28736 C 102.57652,203.6876 80.868887,198.60218 70.375,210.53736 C 59.520198,222.67309 63.205661,234.5387 59.625,246.53736 C 80.815303,253.66869 107.15097,252.08023 131.375,252.53736 C 159.70833,254.70873 192.04167,255.70088 220.375,246.03736 C 217.93741,230.14581 214.09926,217.48491 208.375,205.53736 C 195.875,194.70403 182.375,199.65356 170.125,189.03736 C 146.29517,208.59706 121.30032,203.5586 109.375,196.28736 z"
         id="path21934"
         sodipodi:nodetypes="cccccccc" />
      <path
         sodipodi:nodetypes="ccccc"
         id="path3360"
         d="M 104.12147,199.5666 L 93.514872,204.8699 C 123.49042,226.46779 155.05768,220.68812 187.3833,201.8647 L 179.95868,192.84909 C 149.5489,209.99175 124.63453,211.17155 104.12147,199.5666 z"
         style="fill:#000000;fill-opacity:0.53571424;fill-rule:evenodd;stroke:none;stroke-width:1px;stroke-linecap:butt;stroke-linejoin:miter;stroke-opacity:1;filter:url(#filter3398)" />
      <path
         sodipodi:nodetypes="ccccc"
         id="path19994"
         d="M 104.96309,190.03505 C 142.11636,212.16474 154.12332,195.6098 174.77733,184.54241 C 181.10492,184.73823 183.34439,189.23441 185.21971,191.97439 C 149.80953,222.08406 116.65985,218.41644 94.8136,197.4848 C 97.715863,193.84704 101.40007,190.369 104.96309,190.03505 z"
         style="fill:url(#linearGradient2466);fill-opacity:1;fill-rule:evenodd;stroke:none;stroke-width:2;stroke-linecap:butt;stroke-linejoin:miter;stroke-miterlimit:4;stroke-dasharray:none;stroke-opacity:1" />
      <path
         style="fill:#000000;fill-opacity:0.70535715;fill-rule:evenodd;stroke:none;stroke-width:1px;stroke-linecap:butt;stroke-linejoin:miter;stroke-opacity:1;filter:url(#filter3492)"
         d="M 140.65625,228.78736 C 129.21248,228.84939 115.88973,231.18124 113.9375,233.41236 C 106.51287,241.89765 115.34375,252.53736 115.34375,252.53736 L 122.75,252.94361 C 121.84142,251.88936 120.57352,248.71669 120.65625,248.09986 C 121.06441,245.05672 122.95141,240.85354 125.78125,240.85354 C 128.61109,240.85355 130.17681,244.6011 131.61336,247.0392 C 132.06775,247.81039 130.1784,252.03261 128.65625,252.97486 L 144.3125,253.16236 C 142.4287,252.21447 141.64087,248.93127 141.87868,248.44545 C 143.37281,245.39316 146.60234,242.16704 149.47855,242.25979 C 152.30692,242.35099 154.25,246.67627 154.25,249.50611 C 154.25,250.10582 153.15816,252.93993 152.96875,253.47486 L 160.84375,253.81861 C 160.84375,253.81861 160.66088,235.09109 156.375,231.66236 C 153.72335,229.54104 147.52251,228.75014 140.65625,228.78736 z"
         id="path3402"
         sodipodi:nodetypes="csccsssccsssccsc" />
      <path
         sodipodi:nodetypes="csccsssccsssccsc"
         id="path21936"
         d="M 139.65625,228.53736 C 128.21248,228.59939 114.88973,230.93124 112.9375,233.16236 C 105.51287,241.64765 114.34375,252.28736 114.34375,252.28736 L 121.75,252.69361 C 120.84142,251.63936 119.57352,248.46669 119.65625,247.84986 C 120.06441,244.80672 121.95141,240.60354 124.78125,240.60354 C 127.61109,240.60355 129.17681,244.3511 130.61336,246.7892 C 131.06775,247.56039 129.1784,251.78261 127.65625,252.72486 L 143.3125,252.91236 C 141.4287,251.96447 140.64087,248.68127 140.87868,248.19545 C 142.37281,245.14316 145.60234,241.91704 148.47855,242.00979 C 151.30692,242.10099 153.25,246.42627 153.25,249.25611 C 153.25,249.85582 152.15816,252.68993 151.96875,253.22486 L 159.84375,253.56861 C 159.84375,253.56861 159.66088,234.84109 155.375,231.41236 C 152.72335,229.29104 146.52251,228.50014 139.65625,228.53736 z"
         style="fill:url(#linearGradient2462);fill-opacity:1;fill-rule:evenodd;stroke:none;stroke-width:1px;stroke-linecap:butt;stroke-linejoin:miter;stroke-opacity:1" />
      <path
         style="fill:#000000;fill-opacity:0.70535715;fill-rule:evenodd;stroke:none;stroke-width:1px;stroke-linecap:butt;stroke-linejoin:miter;stroke-opacity:1;filter:url(#filter3496)"
         d="M 110.41284,242.2574 C 99.696332,245.15601 96.880436,230.38968 107.23086,230.23658 C 102.19013,215.14949 116.11498,218.77391 116.06969,229.17593 C 107.37744,231.58927 106.51103,239.39906 110.41284,242.2574 z"
         id="path3404"
         sodipodi:nodetypes="cccc" />
      <path
         sodipodi:nodetypes="cccc"
         id="path21944"
         d="M 109.41284,242.0074 C 98.696332,244.90601 95.880436,230.13968 106.23086,229.98658 C 101.19013,214.89949 115.11498,218.52391 115.06969,228.92593 C 106.37744,231.33927 105.51103,239.14906 109.41284,242.0074 z"
         style="fill:url(#linearGradient2458);fill-rule:evenodd;stroke:none;stroke-width:1px;stroke-linecap:butt;stroke-linejoin:miter;stroke-opacity:1" />
      <path
         sodipodi:nodetypes="cccc"
         id="path3406"
         d="M 160.23059,240.84319 C 170.94711,243.7418 173.763,228.97547 163.41257,228.82237 C 168.45331,213.73528 152.76069,216.29904 151.39177,227.76172 C 158.39012,226.97984 164.13241,234.44932 160.23059,240.84319 z"
         style="fill:#000000;fill-opacity:0.70535715;fill-rule:evenodd;stroke:none;stroke-width:1px;stroke-linecap:butt;stroke-linejoin:miter;stroke-opacity:1;filter:url(#filter3500)" />
      <path
         style="fill:url(#linearGradient2454);fill-opacity:1;fill-rule:evenodd;stroke:none;stroke-width:1px;stroke-linecap:butt;stroke-linejoin:miter;stroke-opacity:1"
         d="M 159.23059,240.59319 C 169.94711,243.4918 172.763,228.72547 162.41257,228.57237 C 167.45331,213.48528 151.76069,216.04904 150.39177,227.51172 C 157.39012,226.72984 163.13241,234.19932 159.23059,240.59319 z"
         id="path21946"
         sodipodi:nodetypes="cccc" />
      <path
         sodipodi:nodetypes="cccc"
         id="path4142"
         d="M 143.125,56.75 L 161.375,43.75 C 167.07569,62.585883 176.82607,80.071867 176.25,101 C 173.7931,78.44567 163.15024,54.151299 143.125,56.75 z"
         style="fill:#000000;fill-opacity:0.32142855;fill-rule:evenodd;stroke:none;stroke-width:1px;stroke-linecap:butt;stroke-linejoin:miter;stroke-opacity:1;filter:url(#filter4164)" />
      <path
         sodipodi:nodetypes="cccc"
         id="path25015"
         d="M 170.40854,41.339212 C 142.74163,46.232201 177.5689,67.899451 177.125,102.28736 C 179.89689,90.440006 183.06613,87.973829 189.625,90.037363 C 182.875,75.287363 200.45436,48.732638 170.40854,41.339212 z"
         style="fill:url(#linearGradient2450);fill-opacity:1;fill-rule:evenodd;stroke:none;stroke-width:3;stroke-linecap:butt;stroke-linejoin:miter;stroke-miterlimit:4;stroke-dasharray:none;stroke-opacity:1" />
      <path
         sodipodi:nodetypes="cccccc"
         id="path25986"
         d="M 159.14023,47.436747 C 158.45899,42.380354 167.20217,36.43013 174.78595,39.094519 C 171.59471,14.289451 77.770344,18.582527 78.408539,88.869669 C 86.082483,84.967415 87.483459,94.73405 92.14331,98.668437 C 84.75589,83.262611 94.959352,76.670435 97.875,68.537363 C 116.04973,47.646256 155.73039,67.153906 159.14023,47.436747 z"
         style="fill:url(#linearGradient2447);fill-opacity:1;fill-rule:evenodd;stroke:none;stroke-width:3;stroke-linecap:butt;stroke-linejoin:miter;stroke-miterlimit:4;stroke-dasharray:none;stroke-opacity:1" />
      <path
         style="fill:url(#radialGradient2444);fill-opacity:1;fill-rule:evenodd;stroke:none;stroke-width:2;stroke-linecap:butt;stroke-linejoin:miter;stroke-miterlimit:4;stroke-dasharray:none;stroke-opacity:1"
         d="M 171.2071,99.010712 C 162.14055,86.600154 151.46596,93.468642 139.56066,94.901955 C 146.2629,122.0284 168.92532,119.35844 171.2071,99.010712 z"
         id="path29910"
         sodipodi:nodetypes="ccc" />
      <path
         style="fill:url(#linearGradient2441);fill-opacity:1;fill-rule:evenodd;stroke:none;stroke-width:2;stroke-linecap:butt;stroke-linejoin:miter;stroke-miterlimit:4;stroke-dasharray:none;stroke-opacity:1"
         d="M 158.42401,91.724863 C 160.15757,91.770171 161.83486,92.063522 163.48651,92.693613 C 164.99826,94.173108 165.98651,96.277479 165.98651,98.881113 C 165.98651,104.27031 163.83058,110.10553 157.11151,110.03736 C 151.27578,109.97816 148.36151,104.27031 148.36151,98.881113 C 148.36151,96.186513 149.57325,94.023223 151.33026,92.537363 C 151.34134,92.527992 151.35039,92.51543 151.36151,92.506113 C 153.78148,92.010747 156.13929,91.66515 158.42401,91.724863 z"
         id="path29912" />
      <path
         sodipodi:type="arc"
         style="fill:#000000;fill-opacity:1;stroke:none;stroke-width:3;stroke-miterlimit:4;stroke-dasharray:none"
         id="path29914"
         sodipodi:cx="100.625"
         sodipodi:cy="98.875"
         sodipodi:rx="2.625"
         sodipodi:ry="2.875"
         d="M 103.25,98.875 A 2.625,2.875 0 1 1 98,98.875 A 2.625,2.875 0 1 1 103.25,98.875 z"
         transform="matrix(-1.3333333,0,0,1.2586847,291.55054,-23.598143)" />
      <path
         transform="matrix(-1.0639593,0,0,1.0403884,261.41966,-5.418346)"
         d="M 103.25,98.875 A 2.625,2.875 0 1 1 98,98.875 A 2.625,2.875 0 1 1 103.25,98.875 z"
         sodipodi:ry="2.875"
         sodipodi:rx="2.625"
         sodipodi:cy="98.875"
         sodipodi:cx="100.625"
         id="path29916"
         style="fill:#ffffff;fill-opacity:1;stroke:none;stroke-width:3;stroke-miterlimit:4;stroke-dasharray:none"
         sodipodi:type="arc" />
      <path
         sodipodi:nodetypes="cccccccccccccc"
         id="path2407"
         d="M 170.25,40.34375 C 156.96962,42.207128 157.92197,51.451356 162.65625,61.1875 C 167.88507,71.585728 176.34256,85.427514 176.125,102.28125 C 181.85351,100.6188 179.30658,90.866401 185.40625,89.487883 L 191.31569,92.574617 C 187.03804,83.671423 189.52072,72.406851 189.75,62.90625 C 189.68128,50.652147 181.92554,42.460388 170.25,40.34375 z M 170.34375,41.762755 C 181.44327,44.257578 187.12352,51.887435 187.75,62.9375 C 187.93546,71.462512 186.6518,81.945215 189.16518,89.574617 C 188.15899,89.375335 186.10147,88.314956 185.1875,88.40625 C 179.23399,89.372764 178.69261,96.015408 177.23151,100.81696 C 177.00975,84.849834 169.01568,69.416848 164.4375,60.3125 C 158.28167,49.976632 158.62474,43.092054 170.34375,41.762755 z"
         style="fill:#000000;fill-opacity:1;fill-rule:evenodd;stroke:none;stroke-width:2;stroke-linecap:butt;stroke-linejoin:miter;stroke-miterlimit:4;stroke-dasharray:none;stroke-opacity:1" />
      <path
         sodipodi:nodetypes="cccccccccccccccccccccccccccccscccccccccccccsccccccccccccccccccccccccccscccsssscccsccccccccccccccsccscccscsccsccccccccccccccccccccsccccccccccccccccccccsccccccccccccccccccccccccccsccccccscccsccccscccccccccccccccscccsccsccccscccsccccccccccccsccccccscccc"
         id="path9299"
         d="M 147.25,25.5625 C 145.6415,25.567646 144.09732,25.587615 142.65625,25.625 C 123.17679,26.432075 105.76085,33.702086 92,47.28125 C 84.646801,59.867415 78.264089,65.328242 77.4375,90.5 C 80.291378,88.804029 82.630608,89.251863 84.625,90.6875 C 84.616091,91.162987 84.592404,91.633835 84.59375,92.125 C 82.11446,91.28062 80.251423,91.958966 78.4375,93.71875 C 75.066761,98.859916 76.716952,105.4901 79.75,110.375 C 81.403755,112.69722 83.822631,114.41358 86.78125,114.8125 C 87.046264,116.36356 87.330519,117.95895 87.65625,119.59375 C 76.222613,148.66317 100.29154,165.24251 112.8125,175.8125 C 112.52075,181.55001 111.42014,187.77874 109.78125,192.84375 L 105.1875,189 C 101.30695,191.75138 98.555944,189.98456 93.46875,197.5625 C 94.143135,198.26475 95.621654,199.66049 96.34375,200.3125 C 86.546701,201.20374 76.961634,203.18877 69.625,209.9375 C 63.979411,216.2493 62.310973,222.37007 61.40625,228.5 C 60.439627,234.86666 59.94512,240.83403 57.78125,247.5 C 81.569838,255.2537 107.10508,253.33792 131.75,253.40625 C 161.79273,252.13134 191.1333,260.45254 222.0625,247.0625 C 220.19979,232.35113 215.67766,218.37782 209.71875,204.875 C 202.83881,198.27229 193.45033,196.96505 184.625,194.75 L 186.03125,191.40625 C 183.47288,186.88861 180.0643,184.07802 174.8125,183.53125 C 173.07414,184.1615 171.41386,185.40752 169.8125,186.40625 C 167.34577,181.48199 165.56714,176.09369 167.3125,169.46875 C 173.36526,163.36005 178.62855,156.36942 183.4375,149.15625 C 189.24508,139.12242 189.59751,130.69989 185.1875,121.3125 C 185.41858,118.97146 185.55079,116.75525 185.6875,114.5625 C 188.48147,113.79713 190.68753,111.86153 192.15625,109.40625 C 193.76152,106.72269 195.34081,103.37703 195.40625,100.40625 C 195.60769,94.408173 191.43127,90.644193 185.46875,92.5625 C 185.35059,91.369251 185.21653,90.200555 185.0625,89.0625 L 183.1875,89.9375 C 183.61845,92.354167 183.82198,94.770833 182.28125,97.1875 C 186.00261,92.145235 191.65062,92.412004 192.65625,100.46875 C 192.59858,103.08692 192.58478,106.41414 191.1875,108.75 C 188.65324,111.08608 186.23428,114.11403 183.0625,112.625 C 184.8937,115.53516 185.17408,119.3941 181.65625,121.96875 C 190.3991,125.41471 185.20256,140.00069 181.09375,149.40625 C 175.4476,159.16118 166.01283,171.44845 150.15625,180.25 C 148.67336,187.33913 140.70933,188.26306 135.09375,189.21875 C 129.6436,189.35155 118.79843,184.1063 120.46875,178.875 C 115.83454,178.11711 86.374018,155.89732 86.5,133.375 C 86.52372,129.13471 86.524949,124.80252 90.125,120.3125 C 87.1789,114.76035 89.441513,113.78865 90.5,111.625 L 87.6875,112.96875 C 85.018866,112.86165 82.931681,111.40466 81.375,109.21875 C 78.783816,105.1276 76.557389,100.58592 79.25,96.1875 C 80.773289,94.55819 83.227971,93.705594 85.15625,94.375 L 89.21875,97.15625 C 88.088826,95.290922 86.953129,94.532545 86.5625,92.46875 C 88.456893,94.574284 90.025572,97.347377 91.5,99.4375 L 93.03125,98.25 C 89.439195,90.759082 90.152454,85.683034 92.0625,81.28125 C 99.050563,62.71032 113.38191,58.31538 132.78125,57.65625 C 142.81644,57.567609 156.3263,59.129827 159.6875,47.65625 C 164.06736,44.973398 160.68765,37.541924 175.5,41.3125 L 175.78125,38.96875 C 172.83992,26.92746 158.50948,25.526477 147.25,25.5625 z M 142.78125,26.40625 C 153.57526,26.189228 169.25101,26.995781 174.4375,38.5 C 168.00482,37.58012 159.00555,39.196224 158.34375,46.5625 C 154.07545,56.700864 142.64058,56.450908 133.1875,56.59375 C 110.03986,55.198012 99.146252,62.489025 90.21875,80.46875 C 88.706485,83.953832 87.967908,88.092535 89.125,93.125 C 86.957235,89.092737 83.403994,86.263957 78.84375,88.5625 C 78.995965,71.906645 84.507117,59.14758 92.875,49.6875 C 105.88994,35.282242 123.71985,27.779023 142.78125,26.40625 z M 163.78125,79.9375 C 163.15216,79.932354 162.52292,79.935576 161.90625,79.96875 C 154.50621,80.366831 148.02161,83.414209 141,87.125 L 140.4375,87.4375 L 140.46875,88.09375 C 140.53568,89.053329 140.47029,89.754924 140.53125,90.40625 C 140.56173,90.731913 140.58972,91.130711 141,91.53125 C 141.41028,91.931789 142.05347,91.942328 142.4375,91.84375 C 147.03944,90.662474 152.12098,88.71346 156.78125,87.96875 C 161.44152,87.22404 165.47483,87.610339 168.46875,90.9375 L 169.3125,91.875 L 170.03125,90.84375 C 171.1676,89.258978 171.96511,87.993633 172.0625,86.4375 C 172.15989,84.881367 171.54959,83.326868 170.34375,81.0625 L 170.125,80.625 L 169.65625,80.53125 C 167.61055,80.13411 165.66853,79.952937 163.78125,79.9375 z M 101.5625,80.5 C 100.82571,80.518242 100.08181,80.568325 99.3125,80.625 C 99.583333,84.375 93.11436,84.755096 100.125,91.875 C 103.2806,87.76349 107.85632,86.569843 112.65625,87.09375 C 117.31652,87.83846 122.42931,90.662474 127.03125,91.84375 C 128.31798,91.179697 130.03138,90.98973 128.4375,87.125 C 120.15814,84.122057 112.61434,80.226377 101.5625,80.5 z M 103.59375,81.6875 C 111.822,81.79095 119.59685,84.887978 126.9375,88.625 C 126.92676,89.065734 127.28488,90.336769 127.28125,90.59375 C 122.99057,89.439798 117.71648,86.758687 112.96875,86 C 108.41583,85.272444 103.93241,86.712516 100.46875,89.8125 C 98.922796,87.629872 99.176474,84.244392 100.15625,81.84375 C 100.75012,81.789638 101.34812,81.740405 101.9375,81.71875 C 102.49004,81.698449 103.0452,81.680603 103.59375,81.6875 z M 163.625,81.9375 C 165.29503,81.961988 167.02041,82.148757 168.8125,82.46875 C 169.73681,84.288021 170.11577,85.4614 170.0625,86.3125 C 170.01777,87.027153 169.5996,87.811498 168.96875,88.78125 C 165.50922,85.708936 161.00705,85.27478 156.46875,86 C 151.71181,86.760158 146.82782,88.565261 142.53125,89.71875 C 142.52762,89.461769 142.51074,89.065735 142.5,88.625 C 149.23452,85.086469 155.20452,82.326382 161.96875,81.96875 C 162.51142,81.940058 163.06832,81.929337 163.625,81.9375 z M 110.4375,89.875 C 105.60316,91.164249 99.592469,91.430259 96.6875,98.25 C 97.86871,108.78341 104.50567,115.07023 111.875,114.875 C 115.71053,113.38719 127.353,111.68663 130.4375,93.28125 C 123.67581,92.311619 117.27629,90.301613 110.4375,89.875 z M 156.375,90.78125 L 138.3125,94.03125 C 140.555,104.66449 146.03315,113.54111 157,115.75 C 162.33904,113.9954 169.09458,116.94809 172.25,98.75 C 168.30891,93.113712 162.98415,91.148709 156.375,90.78125 z M 110.53125,91.84375 C 112.75963,91.875188 115.11084,92.052835 117.5,92.3125 C 119.00806,93.701082 120.28125,95.600586 120.28125,98 C 120.21579,103.32051 117.3795,108.062 111.78125,108.65625 C 105.63334,108.58602 103.28754,103.41924 103.0625,98.09375 C 103.0625,96.040188 104.03656,94.246373 105.0625,92.9375 C 106.88981,92.199718 108.73442,91.881885 110.53125,91.84375 z M 119.0625,92.5 C 122.53682,92.926702 126.02244,93.497278 129.1875,94.0625 C 125.79272,106.57909 117.84741,112.71512 111.8125,112.875 C 105.69508,113.03707 99.219646,108.10142 98,98.5625 C 99.685506,96.327484 101.53214,94.772315 103.4375,93.71875 C 102.80313,94.952074 102.40625,96.382908 102.40625,98 C 102.35224,104.24236 105.19326,109.90743 111.6875,110.4375 C 118.03907,110.08774 120.72646,103.65501 121.03125,98 C 121.03125,95.815948 120.25809,93.958734 119.0625,92.5 z M 157.5625,92.65625 C 159.65518,92.565343 161.62886,92.848549 163.46875,93.46875 C 164.68306,94.822624 165.9375,96.80854 165.9375,99.0625 C 165.96756,104.69932 163.0529,109.06895 157.125,109.53125 C 151.35029,109.22975 148.80602,103.86705 148.53125,98.78125 C 148.53125,96.432219 149.85658,94.662203 151.3125,93.28125 C 153.15983,93.054914 154.94184,92.851607 156.5,92.75 C 156.86154,92.712721 157.20747,92.671673 157.5625,92.65625 z M 149.71875,93.46875 C 148.57924,94.912105 147.875,96.741628 147.875,98.875 C 147.9221,104.79181 150.59422,110.63827 156.75,111.3125 C 163.51579,111.20881 166.25739,104.80391 166.5,98.875 C 166.5,97.09475 166.03732,95.529697 165.28125,94.21875 C 167.38736,95.232578 169.27924,96.70163 170.90625,98.5625 C 169.6866,108.10142 163.17992,113.91207 157.0625,113.75 C 151.02759,113.59012 142.98853,107.45409 139.59375,94.9375 C 142.86132,94.452752 146.38161,93.908266 149.71875,93.46875 z M 187.5,97.5625 C 186.32769,97.611238 185.04318,97.971292 183.96875,98.4375 L 184.46875,99.3125 C 186.82154,97.949645 188.38092,98.195931 188.4375,100.96875 C 188.1806,103.31013 186.29995,106.57228 183.625,107.78125 L 184.0625,108.71875 C 187.17766,107.31082 190.63705,103.42571 190.9375,100.6875 C 191.09634,98.24601 189.45385,97.48127 187.5,97.5625 z M 83.125,97.78125 C 81.687954,97.846562 80.724792,98.917039 80.65625,101.3125 C 80.956701,104.05071 82.916098,107.56082 86.03125,108.96875 L 86.46875,108.03125 C 83.7938,106.82228 82.913159,104.81013 82.65625,102.46875 C 82.454769,99.491656 83.468766,98.469598 85.625,99.5625 L 86.125,98.6875 C 85.029551,98.055593 83.987228,97.742063 83.125,97.78125 z M 138.71875,110.53125 L 138.21875,110.78125 C 139.7598,116.89513 141.07254,123.15868 140.28125,129.96875 C 140.75056,131.26526 142.93845,131.95579 144.1875,133.0625 C 147.06096,133.52909 142.17758,137.22116 141.46875,134.84375 C 139.24835,133.30733 137.09768,133.70502 134.75,134.65625 L 134.71875,134.6875 L 134.6875,134.71875 C 133.41263,135.68548 132.40245,136.07337 131.71875,136.03125 C 130.47527,135.95464 130.33172,134.43239 131.78125,132.21875 C 133.16671,131.38961 135.47663,131.11515 135.8125,129.65625 C 133.36598,122.68407 133.88278,117.62746 135.28125,110.75 L 134.78125,110.625 C 133.76098,116.78353 130.47961,120.15551 134.71875,129.375 C 133.26408,129.68095 131.66149,130.27691 130.8125,131.25 C 127.19083,133.89109 128.4539,136.81716 130.5,137.5625 C 131.79038,138.03255 133.67531,137.74318 135.78125,136.375 C 137.41657,134.3301 138.77249,134.04852 140.15625,136.375 C 142.44916,138.10114 144.6585,137.87568 146.28125,135.5625 C 146.73838,134.50495 146.63903,133.18344 145.875,132 C 145.19789,130.95118 143.9367,130.04031 142.21875,129.3125 C 141.84012,122.88926 141.32926,116.47506 138.71875,110.53125 z M 135.4375,143.6875 L 134.5,147.5625 C 132.44579,147.31148 130.39695,147.22564 128.40625,147.28125 C 124.43237,147.39227 120.66801,148.03161 117.4375,148.84375 C 113.5274,150.95664 108.76445,151.03165 107.21875,155.15625 C 106.61802,154.68786 105.79523,154.30612 104.90625,153.96875 L 104.09375,154.53125 C 105.92375,155.81333 107.74263,157.0982 106.96875,159.03125 L 107.78125,158.46875 C 108.33832,157.38469 108.32911,156.5591 107.9375,155.90625 C 126.70536,148.85118 145.15876,150.76234 165.09375,156.1875 L 165.59375,156.3125 C 165.03197,157.266 164.69569,158.47632 164.46875,159.8125 L 165.28125,160.4375 C 165.92201,157.6421 167.25396,156.36788 169.53125,154.9375 L 168.71875,154.3125 C 167.81428,154.39226 167.09739,154.68983 166.53125,155.15625 L 166.1875,154.65625 C 164.17643,151.7344 159.79902,149.9372 154.3125,148.6875 C 148.95277,147.46668 142.83144,147.02463 136.1875,147.6875 L 135.4375,143.6875 z M 138,148.78125 C 143.48152,148.72323 148.66064,149.25237 153.875,150.625 C 156.56875,151.33411 163.22528,153.87097 165.125,155.0625 C 146.41089,149.2026 123.58615,149.84309 108.0625,154.6875 C 109.68006,153.63045 115.01874,151.50716 117.90625,150.78125 C 122.84334,149.54008 129.19184,148.86927 135.625,148.84375 C 136.42109,148.81236 137.21693,148.78954 138,148.78125 z M 165.46875,171.28125 C 163.96065,177.16449 164.56657,182.07245 167.8125,187.96875 C 160.87892,192.2638 153.08548,196.82147 145.8125,198.78125 C 137.3375,201.06493 125.89924,200.57469 111.75,193.5625 C 113.83706,187.6746 113.96918,182.63857 114.15625,176.96875 C 115.85076,178.44733 117.26659,179.81159 118.25,181.0625 C 117.39838,188.46244 129.34334,190.61649 135.40625,190.46875 C 141.42754,190.32203 151.66449,187.99182 151.78125,181.6875 C 156.7948,178.77631 161.31316,175.24114 165.46875,171.28125 z M 135,177.96875 L 134,178.03125 C 132.5855,180.62729 132.81806,183.15125 134.25,185.28125 L 135.25,185.21875 C 136.61204,182.80208 135.96528,180.38542 135,177.96875 z M 175,185.59375 C 179.26848,185.73072 181.66764,188.51103 183.84375,191.78125 C 166.52822,206.29355 149.87009,212.65182 134.90625,212.875 C 120.01329,213.21576 107.36046,206.66587 96.28125,197.375 C 98.931065,194.23445 102.10055,191.51907 104.8125,191.125 C 119.30776,202.43207 135.63269,204.77917 146.0625,201.96875 C 156.47376,199.16333 164.90942,191.04508 175,185.59375 z M 182.9375,196.25 C 191.87834,198.16266 200.00192,200.09808 207.53125,205.59375 C 212.95624,216.98578 217.49849,230.69417 219.90625,245.71875 C 192.22191,254.82149 159.11948,254.04208 131.25,251.90625 C 107.67719,253.22392 83.268163,251.289 60.15625,246.75 C 61.617399,241.00969 62.956506,234.1888 63.75,228.8125 C 64.611412,222.97603 65.540787,216.98018 70.75,211.15625 C 77.900579,204.14018 88.196379,203.78662 97.5625,202.25 C 108.1423,210.99898 121.41572,214.00748 134.8125,214.75 C 149.11279,214.53672 166.79333,208.6769 182.9375,196.25 z"
         style="fill:#000000;fill-opacity:1;fill-rule:evenodd;stroke:none;stroke-width:2;stroke-linecap:butt;stroke-linejoin:miter;stroke-miterlimit:4;stroke-dasharray:none;stroke-opacity:1" />
      <path
         d="M 140.89103,182.68443 A 5.9220195,3.6239223 0 1 1 129.04699,182.68443 A 5.9220195,3.6239223 0 1 1 140.89103,182.68443 z"
         sodipodi:ry="3.6239223"
         sodipodi:rx="5.9220195"
         sodipodi:cy="182.68443"
         sodipodi:cx="134.96901"
         id="path3248"
         style="fill:#ffffff;fill-opacity:0.66517861;stroke:none;stroke-width:1;stroke-miterlimit:4;stroke-dasharray:none;stroke-opacity:1;filter:url(#filter3354)"
         sodipodi:type="arc" />
      <path
         sodipodi:nodetypes="cccc"
         id="path3504"
         d="M 208,205.5 C 210.94103,222.31539 214.69713,241.09251 197.75,252 L 220.75,246.25 C 218.81891,231.55577 213.19054,218.89045 208,205.5 z"
         style="fill:#000000;fill-opacity:0.3482143;fill-rule:evenodd;stroke:none;stroke-width:1px;stroke-linecap:butt;stroke-linejoin:miter;stroke-opacity:1;filter:url(#filter3554)" />
      <path
         sodipodi:nodetypes="ccc"
         id="path3576"
         d="M 85.5,99 C 84.397267,101.67223 84.561218,104.66114 86.125,108 C 83.217814,107.6366 76.833344,98.072918 85.5,99 z"
         style="fill:#000000;fill-opacity:0.3125;fill-rule:evenodd;stroke:none;stroke-width:1px;stroke-linecap:butt;stroke-linejoin:miter;stroke-opacity:1;filter:url(#filter3670)" />
      <path
         transform="matrix(-1,0,0,1,270.6226,-0.875)"
         style="fill:#000000;fill-opacity:0.3125;fill-rule:evenodd;stroke:none;stroke-width:1px;stroke-linecap:butt;stroke-linejoin:miter;stroke-opacity:1;filter:url(#filter3670)"
         d="M 85.5,99 C 84.397267,101.67223 84.436218,105.41114 86,108.75 C 83.092814,108.3866 76.833344,98.072918 85.5,99 z"
         id="path3674"
         sodipodi:nodetypes="ccc" />
      <path
         sodipodi:nodetypes="ccc"
         id="path3678"
         d="M 97.625,109.625 C 101.23437,114.91429 118.02036,122.24444 127.375,105.375 C 123.71208,122.65038 99.834182,121.88356 97.625,109.625 z"
         style="fill:#000000;fill-opacity:0.53571424;fill-rule:evenodd;stroke:none;stroke-width:1px;stroke-linecap:butt;stroke-linejoin:miter;stroke-opacity:1;filter:url(#filter3754)" />
      <path
         style="fill:#000000;fill-opacity:0.53571424;fill-rule:evenodd;stroke:none;stroke-width:1px;stroke-linecap:butt;stroke-linejoin:miter;stroke-opacity:1;filter:url(#filter3758)"
         d="M 171,109.75 C 167.39063,115.03929 150.60464,122.36944 141.25,105.5 C 144.91292,122.77538 168.79082,122.00856 171,109.75 z"
         id="path3680"
         sodipodi:nodetypes="ccc" />
      <path
         sodipodi:nodetypes="cccc"
         id="path3764"
         d="M 141.625,115.125 C 142.48648,119.54167 143.65344,123.95833 143.25,128.375 C 150.54208,123.27186 160.23336,124.16674 168.75,122.125 C 157.94193,122.52156 145.47324,125.48454 141.625,115.125 z"
         style="fill:#000000;fill-opacity:0.3169643;fill-rule:evenodd;stroke:none;stroke-width:1px;stroke-linecap:butt;stroke-linejoin:miter;stroke-opacity:1;filter:url(#filter3842)" />
      <path
         sodipodi:nodetypes="cccsc"
         id="path3846"
         d="M 137.75,112.75 C 139.44421,119.0532 139.92872,125.15479 139.625,131.125 C 139.875,132.85871 134,134.65403 136.625,130.875 C 134.58874,123.88512 134.30255,117.76246 136.35749,113.10154 C 136.59617,112.56019 137.47793,113.27675 137.75,112.75 z"
         style="fill:#ffffff;fill-opacity:0.75892861;fill-rule:evenodd;stroke:none;stroke-width:1px;stroke-linecap:butt;stroke-linejoin:miter;stroke-opacity:1;filter:url(#filter3916)" />
      <path
         sodipodi:nodetypes="cccc"
         id="path3920"
         d="M 128.375,117.375 C 126.70525,120.37449 127.80919,123.83625 130.125,127.5 C 124.91667,123.71958 119.70833,123.43852 114.5,122.125 C 119.41453,120.8312 125.28274,120.49107 128.375,117.375 z"
         style="fill:#ffffff;fill-opacity:0.4732143;fill-rule:evenodd;stroke:none;stroke-width:1px;stroke-linecap:butt;stroke-linejoin:miter;stroke-opacity:1;filter:url(#filter3946)" />
      <path
         sodipodi:nodetypes="ccccc"
         id="path3950"
         d="M 105.75,40.25 C 108.09907,38.031483 110.73456,36.385789 113.75,35.5 C 116.47069,43.771985 122.59005,48.807465 127.75,55.25 C 124.22246,55.046377 122.60023,55.311186 121,55.75 C 115.84172,50.10403 112.09122,42.938609 105.75,40.25 z"
         style="fill:#ffffff;fill-opacity:0.76339285;fill-rule:evenodd;stroke:none;stroke-width:1px;stroke-linecap:butt;stroke-linejoin:miter;stroke-opacity:1;filter:url(#filter4072)" />
      <path
         sodipodi:nodetypes="ccccc"
         id="path4076"
         d="M 175,82.75 C 178.95833,81.158647 182.91667,78.109041 186.875,74.875 L 187.25,81.25 C 181.49604,78.014183 177.7297,82.109282 176.5,88.875 L 175,82.75 z"
         style="fill:#ffffff;fill-opacity:0.71428576;fill-rule:evenodd;stroke:none;stroke-width:1px;stroke-linecap:butt;stroke-linejoin:miter;stroke-opacity:1;filter:url(#filter4138)" />
    </g>
  </g>
</svg>
