<?xml version="1.0" encoding="UTF-8" standalone="no"?>
<!-- Created with Inkscape (http://www.inkscape.org/) -->
<svg
   xmlns:dc="http://purl.org/dc/elements/1.1/"
   xmlns:cc="http://creativecommons.org/ns#"
   xmlns:rdf="http://www.w3.org/1999/02/22-rdf-syntax-ns#"
   xmlns:svg="http://www.w3.org/2000/svg"
   xmlns="http://www.w3.org/2000/svg"
   xmlns:xlink="http://www.w3.org/1999/xlink"
   xmlns:sodipodi="http://sodipodi.sourceforge.net/DTD/sodipodi-0.dtd"
   xmlns:inkscape="http://www.inkscape.org/namespaces/inkscape"
   width="280"
   height="280"
   id="svg2"
   sodipodi:version="0.32"
   inkscape:version="0.45+devel"
   version="1.0"
   sodipodi:docbase="/home/nicu/Desktop"
   sodipodi:docname="face03_seraphim.svg"
   inkscape:output_extension="org.inkscape.output.svg.inkscape"
   inkscape:export-filename="/home/nicu/Desktop/faces.png"
   inkscape:export-xdpi="90"
   inkscape:export-ydpi="90">
  <defs
     id="defs4">
    <linearGradient
       id="linearGradient3140">
      <stop
         style="stop-color:#ffffca;stop-opacity:1;"
         offset="0"
         id="stop3142" />
      <stop
         style="stop-color:#ffffff;stop-opacity:1;"
         offset="1"
         id="stop3144" />
    </linearGradient>
    <linearGradient
       id="linearGradient3232">
      <stop
         style="stop-color:#ffc200;stop-opacity:1;"
         offset="0"
         id="stop3234" />
      <stop
         id="stop3240"
         offset="0.5"
         style="stop-color:#ffff00;stop-opacity:1;" />
      <stop
         style="stop-color:#ffd300;stop-opacity:1;"
         offset="1"
         id="stop3236" />
    </linearGradient>
    <linearGradient
       id="linearGradient3222">
      <stop
         style="stop-color:#ff0000;stop-opacity:1;"
         offset="0"
         id="stop3224" />
      <stop
         style="stop-color:#810000;stop-opacity:1;"
         offset="1"
         id="stop3226" />
    </linearGradient>
    <linearGradient
       id="linearGradient3200">
      <stop
         style="stop-color:#ffffff;stop-opacity:1;"
         offset="0"
         id="stop3202" />
      <stop
         style="stop-color:#b8b8b8;stop-opacity:1;"
         offset="1"
         id="stop3204" />
    </linearGradient>
    <linearGradient
       id="linearGradient3190">
      <stop
         style="stop-color:#aa4400;stop-opacity:1;"
         offset="0"
         id="stop3192" />
      <stop
         style="stop-color:#532100;stop-opacity:1;"
         offset="1"
         id="stop3194" />
    </linearGradient>
    <linearGradient
       id="linearGradient3178">
      <stop
         style="stop-color:#afb9c7;stop-opacity:1;"
         offset="0"
         id="stop3180" />
      <stop
         style="stop-color:#dde1e7;stop-opacity:1;"
         offset="1"
         id="stop3182" />
    </linearGradient>
    <linearGradient
       id="linearGradient3168">
      <stop
         style="stop-color:#eebd9f;stop-opacity:1;"
         offset="0"
         id="stop3170" />
      <stop
         style="stop-color:#f3d1bc;stop-opacity:1;"
         offset="1"
         id="stop3172" />
    </linearGradient>
    <linearGradient
       id="linearGradient3156">
      <stop
         style="stop-color:#1a1a1a;stop-opacity:1;"
         offset="0"
         id="stop3158" />
      <stop
         style="stop-color:#000000;stop-opacity:1;"
         offset="1"
         id="stop3160" />
    </linearGradient>
    <filter
       inkscape:collect="always"
       id="filter3386">
      <feGaussianBlur
         inkscape:collect="always"
         stdDeviation="0.78729962"
         id="feGaussianBlur3388" />
    </filter>
    <filter
       inkscape:collect="always"
       id="filter3436"
       x="-0.18347677"
       width="1.3669535"
       y="-0.030722232"
       height="1.0614445">
      <feGaussianBlur
         inkscape:collect="always"
         stdDeviation="0.65624274"
         id="feGaussianBlur3438" />
    </filter>
    <filter
       inkscape:collect="always"
       id="filter3494"
       x="-0.27057405"
       width="1.5411481"
       y="-0.09157896"
       height="1.1831579">
      <feGaussianBlur
         inkscape:collect="always"
         stdDeviation="1.3153585"
         id="feGaussianBlur3496" />
    </filter>
    <filter
       inkscape:collect="always"
       id="filter3532"
       x="-0.14126646"
       width="1.2825329"
       y="-0.090773617"
       height="1.1815472">
      <feGaussianBlur
         inkscape:collect="always"
         stdDeviation="1.6648411"
         id="feGaussianBlur3534" />
    </filter>
    <filter
       inkscape:collect="always"
       id="filter3566"
       x="-0.072141511"
       width="1.144283"
       y="-0.11776765"
       height="1.2355353">
      <feGaussianBlur
         inkscape:collect="always"
         stdDeviation="1.1347259"
         id="feGaussianBlur3568" />
    </filter>
    <filter
       inkscape:collect="always"
       id="filter3640"
       x="-0.13819698"
       width="1.276394"
       y="-0.11631579"
       height="1.2326316">
      <feGaussianBlur
         inkscape:collect="always"
         stdDeviation="1.4539474"
         id="feGaussianBlur3642" />
    </filter>
    <filter
       inkscape:collect="always"
       id="filter3726">
      <feGaussianBlur
         inkscape:collect="always"
         stdDeviation="0.8558114"
         id="feGaussianBlur3728" />
    </filter>
    <filter
       inkscape:collect="always"
       id="filter3776"
       x="-0.12807045"
       width="1.2561409"
       y="-0.14690366"
       height="1.2938073">
      <feGaussianBlur
         inkscape:collect="always"
         stdDeviation="0.77375899"
         id="feGaussianBlur3778" />
    </filter>
    <filter
       inkscape:collect="always"
       id="filter3840"
       x="-0.13798172"
       width="1.2759634"
       y="-0.15812547"
       height="1.3162509">
      <feGaussianBlur
         inkscape:collect="always"
         stdDeviation="1.5727071"
         id="feGaussianBlur3842" />
    </filter>
    <filter
       inkscape:collect="always"
       id="filter3922"
       x="-0.372"
       width="1.744"
       y="-0.13676471"
       height="1.2735294">
      <feGaussianBlur
         inkscape:collect="always"
         stdDeviation="0.96875"
         id="feGaussianBlur3924" />
    </filter>
    <filter
       inkscape:collect="always"
       id="filter3980"
       x="-0.16545891"
       width="1.3309178"
       y="-0.22164305"
       height="1.4432861">
      <feGaussianBlur
         inkscape:collect="always"
         stdDeviation="2.0100984"
         id="feGaussianBlur3982" />
    </filter>
    <filter
       inkscape:collect="always"
       id="filter4006"
       x="-0.14631246"
       width="1.2926249"
       y="-0.15952118"
       height="1.3190424">
      <feGaussianBlur
         inkscape:collect="always"
         stdDeviation="1.691978"
         id="feGaussianBlur4008" />
    </filter>
    <linearGradient
       inkscape:collect="always"
       xlink:href="#linearGradient3232"
       id="linearGradient2447"
       gradientUnits="userSpaceOnUse"
       x1="196.53656"
       y1="121.93378"
       x2="203.22334"
       y2="121.93378" />
    <linearGradient
       inkscape:collect="always"
       xlink:href="#linearGradient3156"
       id="linearGradient2450"
       gradientUnits="userSpaceOnUse"
       x1="161.70593"
       y1="83.060303"
       x2="178.27812"
       y2="89.560303" />
    <linearGradient
       inkscape:collect="always"
       xlink:href="#linearGradient3232"
       id="linearGradient2453"
       gradientUnits="userSpaceOnUse"
       x1="140.71425"
       y1="22.789907"
       x2="143.48073"
       y2="45.947655" />
    <linearGradient
       inkscape:collect="always"
       xlink:href="#linearGradient3190"
       id="linearGradient2458"
       gradientUnits="userSpaceOnUse"
       x1="162.5625"
       y1="103.5625"
       x2="171"
       y2="117.6875" />
    <radialGradient
       inkscape:collect="always"
       xlink:href="#linearGradient3200"
       id="radialGradient2461"
       gradientUnits="userSpaceOnUse"
       gradientTransform="matrix(0.2908318,1.0510125,-0.9693626,0.2682357,207.8805,-95.626224)"
       cx="160.25"
       cy="97.214722"
       fx="160.25"
       fy="97.214722"
       r="15.558055" />
    <linearGradient
       inkscape:collect="always"
       xlink:href="#linearGradient3156"
       id="linearGradient2464"
       gradientUnits="userSpaceOnUse"
       x1="58.058506"
       y1="154.4536"
       x2="99.169414"
       y2="157.63558" />
    <linearGradient
       inkscape:collect="always"
       xlink:href="#linearGradient3156"
       id="linearGradient2467"
       gradientUnits="userSpaceOnUse"
       x1="156.80093"
       y1="42.058567"
       x2="194.9847"
       y2="88.197289" />
    <linearGradient
       inkscape:collect="always"
       xlink:href="#linearGradient3156"
       id="linearGradient2470"
       gradientUnits="userSpaceOnUse"
       x1="115.08163"
       y1="47.36187"
       x2="125.86501"
       y2="68.485542" />
    <linearGradient
       inkscape:collect="always"
       xlink:href="#linearGradient3178"
       id="linearGradient2473"
       gradientUnits="userSpaceOnUse"
       x1="164.04877"
       y1="256.13516"
       x2="151.14407"
       y2="203.80925" />
    <linearGradient
       inkscape:collect="always"
       xlink:href="#linearGradient3222"
       id="linearGradient2477"
       gradientUnits="userSpaceOnUse"
       x1="148.84598"
       y1="155.11581"
       x2="148.84598"
       y2="160.42365" />
    <linearGradient
       inkscape:collect="always"
       xlink:href="#linearGradient3156"
       id="linearGradient2482"
       gradientUnits="userSpaceOnUse"
       x1="116.96702"
       y1="83.711273"
       x2="133.97672"
       y2="88.898773" />
    <linearGradient
       inkscape:collect="always"
       xlink:href="#linearGradient3190"
       id="linearGradient2485"
       gradientUnits="userSpaceOnUse"
       x1="114.6875"
       y1="103.05205"
       x2="128.75"
       y2="113.98955" />
    <radialGradient
       inkscape:collect="always"
       xlink:href="#linearGradient3200"
       id="radialGradient2488"
       gradientUnits="userSpaceOnUse"
       gradientTransform="matrix(1.0538943e-2,1.2668119,-1.0751952,8.9452918e-3,215.95792,-46.819001)"
       cx="114.9837"
       cy="94.326813"
       fx="114.9837"
       fy="94.326813"
       r="15.558055" />
    <linearGradient
       inkscape:collect="always"
       xlink:href="#linearGradient3168"
       id="linearGradient2491"
       gradientUnits="userSpaceOnUse"
       x1="136.29483"
       y1="74.231926"
       x2="162.98811"
       y2="177.82307" />
    <linearGradient
       inkscape:collect="always"
       xlink:href="#linearGradient3168"
       id="linearGradient2494"
       gradientUnits="userSpaceOnUse"
       x1="146.54788"
       y1="195.32396"
       x2="156.97771"
       y2="234.92194" />
    <linearGradient
       inkscape:collect="always"
       xlink:href="#linearGradient3140"
       id="linearGradient3146"
       x1="212.48558"
       y1="177.82307"
       x2="222.04059"
       y2="199.74338"
       gradientUnits="userSpaceOnUse" />
    <linearGradient
       inkscape:collect="always"
       xlink:href="#linearGradient3140"
       id="linearGradient3148"
       x1="63.891628"
       y1="179.06711"
       x2="95.734398"
       y2="199.92676"
       gradientUnits="userSpaceOnUse" />
    <filter
       inkscape:collect="always"
       id="filter3188"
       x="-0.20275925"
       width="1.4055185"
       y="-0.15796119"
       height="1.3159224">
      <feGaussianBlur
         inkscape:collect="always"
         stdDeviation="1.2093904"
         id="feGaussianBlur3190" />
    </filter>
    <filter
       inkscape:collect="always"
       id="filter3242"
       x="-0.052788528"
       width="1.1055771"
       y="-0.17140111"
       height="1.3428022">
      <feGaussianBlur
         inkscape:collect="always"
         stdDeviation="0.33607375"
         id="feGaussianBlur3244" />
    </filter>
    <filter
       inkscape:collect="always"
       id="filter3324"
       x="-0.067228729"
       width="1.1344575"
       y="-0.21336473"
       height="1.4267295">
      <feGaussianBlur
         inkscape:collect="always"
         stdDeviation="0.34444892"
         id="feGaussianBlur3326" />
    </filter>
    <filter
       inkscape:collect="always"
       id="filter3467"
       x="-0.10016313"
       width="1.2003263"
       y="-0.093769623"
       height="1.1875392">
      <feGaussianBlur
         inkscape:collect="always"
         stdDeviation="0.3246191"
         id="feGaussianBlur3469" />
    </filter>
    <filter
       inkscape:collect="always"
       id="filter3535"
       x="-0.11954195"
       width="1.2390839"
       y="-0.27593949"
       height="1.551879">
      <feGaussianBlur
         inkscape:collect="always"
         stdDeviation="1.0941016"
         id="feGaussianBlur3537" />
    </filter>
    <filter
       inkscape:collect="always"
       id="filter3617"
       x="-0.226318"
       width="1.452636"
       y="-0.20520797"
       height="1.4104159">
      <feGaussianBlur
         inkscape:collect="always"
         stdDeviation="1.30628"
         id="feGaussianBlur3619" />
    </filter>
    <filter
       inkscape:collect="always"
       id="filter3719"
       x="-0.25606927"
       width="1.5121385"
       y="-0.11787316"
       height="1.2357463">
      <feGaussianBlur
         inkscape:collect="always"
         stdDeviation="0.7735426"
         id="feGaussianBlur3721" />
    </filter>
    <linearGradient
       inkscape:collect="always"
       xlink:href="#linearGradient3140"
       id="linearGradient3851"
       gradientUnits="userSpaceOnUse"
       x1="212.48558"
       y1="177.82307"
       x2="222.04059"
       y2="199.74338" />
    <linearGradient
       inkscape:collect="always"
       xlink:href="#linearGradient3140"
       id="linearGradient3853"
       gradientUnits="userSpaceOnUse"
       x1="63.891628"
       y1="179.06711"
       x2="95.734398"
       y2="199.92676" />
    <linearGradient
       inkscape:collect="always"
       xlink:href="#linearGradient3168"
       id="linearGradient3855"
       gradientUnits="userSpaceOnUse"
       x1="146.54788"
       y1="195.32396"
       x2="156.97771"
       y2="234.92194" />
    <linearGradient
       inkscape:collect="always"
       xlink:href="#linearGradient3168"
       id="linearGradient3857"
       gradientUnits="userSpaceOnUse"
       x1="136.29483"
       y1="74.231926"
       x2="162.98811"
       y2="177.82307" />
    <radialGradient
       inkscape:collect="always"
       xlink:href="#linearGradient3200"
       id="radialGradient3859"
       gradientUnits="userSpaceOnUse"
       gradientTransform="matrix(1.0538943e-2,1.2668119,-1.0751952,8.9452918e-3,215.95792,-46.819001)"
       cx="114.9837"
       cy="94.326813"
       fx="114.9837"
       fy="94.326813"
       r="15.558055" />
    <linearGradient
       inkscape:collect="always"
       xlink:href="#linearGradient3190"
       id="linearGradient3861"
       gradientUnits="userSpaceOnUse"
       x1="114.6875"
       y1="103.05205"
       x2="128.75"
       y2="113.98955" />
    <linearGradient
       inkscape:collect="always"
       xlink:href="#linearGradient3156"
       id="linearGradient3863"
       gradientUnits="userSpaceOnUse"
       x1="116.96702"
       y1="83.711273"
       x2="133.97672"
       y2="88.898773" />
    <linearGradient
       inkscape:collect="always"
       xlink:href="#linearGradient3222"
       id="linearGradient3865"
       gradientUnits="userSpaceOnUse"
       x1="148.84598"
       y1="155.11581"
       x2="148.84598"
       y2="160.42365" />
    <linearGradient
       inkscape:collect="always"
       xlink:href="#linearGradient3178"
       id="linearGradient3867"
       gradientUnits="userSpaceOnUse"
       x1="164.04877"
       y1="256.13516"
       x2="151.14407"
       y2="203.80925" />
    <linearGradient
       inkscape:collect="always"
       xlink:href="#linearGradient3156"
       id="linearGradient3869"
       gradientUnits="userSpaceOnUse"
       x1="115.08163"
       y1="47.36187"
       x2="125.86501"
       y2="68.485542" />
    <linearGradient
       inkscape:collect="always"
       xlink:href="#linearGradient3156"
       id="linearGradient3871"
       gradientUnits="userSpaceOnUse"
       x1="156.80093"
       y1="42.058567"
       x2="194.9847"
       y2="88.197289" />
    <linearGradient
       inkscape:collect="always"
       xlink:href="#linearGradient3156"
       id="linearGradient3873"
       gradientUnits="userSpaceOnUse"
       x1="58.058506"
       y1="154.4536"
       x2="99.169414"
       y2="157.63558" />
    <radialGradient
       inkscape:collect="always"
       xlink:href="#linearGradient3200"
       id="radialGradient3875"
       gradientUnits="userSpaceOnUse"
       gradientTransform="matrix(0.2908318,1.0510125,-0.9693626,0.2682357,207.8805,-95.626224)"
       cx="160.25"
       cy="97.214722"
       fx="160.25"
       fy="97.214722"
       r="15.558055" />
    <linearGradient
       inkscape:collect="always"
       xlink:href="#linearGradient3190"
       id="linearGradient3877"
       gradientUnits="userSpaceOnUse"
       x1="162.5625"
       y1="103.5625"
       x2="171"
       y2="117.6875" />
    <linearGradient
       inkscape:collect="always"
       xlink:href="#linearGradient3232"
       id="linearGradient3879"
       gradientUnits="userSpaceOnUse"
       x1="140.71425"
       y1="22.789907"
       x2="143.48073"
       y2="45.947655" />
    <linearGradient
       inkscape:collect="always"
       xlink:href="#linearGradient3156"
       id="linearGradient3881"
       gradientUnits="userSpaceOnUse"
       x1="161.70593"
       y1="83.060303"
       x2="178.27812"
       y2="89.560303" />
    <linearGradient
       inkscape:collect="always"
       xlink:href="#linearGradient3232"
       id="linearGradient3883"
       gradientUnits="userSpaceOnUse"
       x1="196.53656"
       y1="121.93378"
       x2="203.22334"
       y2="121.93378" />
    <linearGradient
       inkscape:collect="always"
       xlink:href="#linearGradient3232"
       id="linearGradient3905"
       gradientUnits="userSpaceOnUse"
       x1="196.53656"
       y1="121.93378"
       x2="203.22334"
       y2="121.93378" />
    <linearGradient
       inkscape:collect="always"
       xlink:href="#linearGradient3156"
       id="linearGradient3908"
       gradientUnits="userSpaceOnUse"
       x1="161.70593"
       y1="83.060303"
       x2="178.27812"
       y2="89.560303" />
    <linearGradient
       inkscape:collect="always"
       xlink:href="#linearGradient3232"
       id="linearGradient3911"
       gradientUnits="userSpaceOnUse"
       x1="140.71425"
       y1="22.789907"
       x2="143.48073"
       y2="45.947655" />
    <linearGradient
       inkscape:collect="always"
       xlink:href="#linearGradient3190"
       id="linearGradient3916"
       gradientUnits="userSpaceOnUse"
       x1="162.5625"
       y1="103.5625"
       x2="171"
       y2="117.6875" />
    <radialGradient
       inkscape:collect="always"
       xlink:href="#linearGradient3200"
       id="radialGradient3919"
       gradientUnits="userSpaceOnUse"
       gradientTransform="matrix(0.2908318,1.0510125,-0.9693626,0.2682357,207.8805,-95.626224)"
       cx="160.25"
       cy="97.214722"
       fx="160.25"
       fy="97.214722"
       r="15.558055" />
    <linearGradient
       inkscape:collect="always"
       xlink:href="#linearGradient3156"
       id="linearGradient3922"
       gradientUnits="userSpaceOnUse"
       x1="58.058506"
       y1="154.4536"
       x2="99.169414"
       y2="157.63558" />
    <linearGradient
       inkscape:collect="always"
       xlink:href="#linearGradient3156"
       id="linearGradient3925"
       gradientUnits="userSpaceOnUse"
       x1="156.80093"
       y1="42.058567"
       x2="194.9847"
       y2="88.197289" />
    <linearGradient
       inkscape:collect="always"
       xlink:href="#linearGradient3156"
       id="linearGradient3928"
       gradientUnits="userSpaceOnUse"
       x1="115.08163"
       y1="47.36187"
       x2="125.86501"
       y2="68.485542" />
    <linearGradient
       inkscape:collect="always"
       xlink:href="#linearGradient3178"
       id="linearGradient3931"
       gradientUnits="userSpaceOnUse"
       x1="164.04877"
       y1="256.13516"
       x2="151.14407"
       y2="203.80925" />
    <linearGradient
       inkscape:collect="always"
       xlink:href="#linearGradient3222"
       id="linearGradient3935"
       gradientUnits="userSpaceOnUse"
       x1="148.84598"
       y1="155.11581"
       x2="148.84598"
       y2="160.42365" />
    <linearGradient
       inkscape:collect="always"
       xlink:href="#linearGradient3156"
       id="linearGradient3940"
       gradientUnits="userSpaceOnUse"
       x1="116.96702"
       y1="83.711273"
       x2="133.97672"
       y2="88.898773" />
    <linearGradient
       inkscape:collect="always"
       xlink:href="#linearGradient3190"
       id="linearGradient3943"
       gradientUnits="userSpaceOnUse"
       x1="114.6875"
       y1="103.05205"
       x2="128.75"
       y2="113.98955" />
    <radialGradient
       inkscape:collect="always"
       xlink:href="#linearGradient3200"
       id="radialGradient3946"
       gradientUnits="userSpaceOnUse"
       gradientTransform="matrix(1.0538943e-2,1.2668119,-1.0751952,8.9452918e-3,215.95792,-46.819001)"
       cx="114.9837"
       cy="94.326813"
       fx="114.9837"
       fy="94.326813"
       r="15.558055" />
    <linearGradient
       inkscape:collect="always"
       xlink:href="#linearGradient3168"
       id="linearGradient3949"
       gradientUnits="userSpaceOnUse"
       x1="136.29483"
       y1="74.231926"
       x2="162.98811"
       y2="177.82307" />
    <linearGradient
       inkscape:collect="always"
       xlink:href="#linearGradient3168"
       id="linearGradient3952"
       gradientUnits="userSpaceOnUse"
       x1="146.54788"
       y1="195.32396"
       x2="156.97771"
       y2="234.92194" />
    <linearGradient
       inkscape:collect="always"
       xlink:href="#linearGradient3140"
       id="linearGradient3955"
       gradientUnits="userSpaceOnUse"
       x1="63.891628"
       y1="179.06711"
       x2="95.734398"
       y2="199.92676" />
    <linearGradient
       inkscape:collect="always"
       xlink:href="#linearGradient3140"
       id="linearGradient3958"
       gradientUnits="userSpaceOnUse"
       x1="212.48558"
       y1="177.82307"
       x2="222.04059"
       y2="199.74338" />
    <filter
       inkscape:collect="always"
       id="filter3973">
      <feGaussianBlur
         inkscape:collect="always"
         stdDeviation="2.2223574"
         id="feGaussianBlur3975" />
    </filter>
  </defs>
  <sodipodi:namedview
     id="base"
     pagecolor="#ffffff"
     bordercolor="#666666"
     borderopacity="1.0"
     gridtolerance="10000"
     guidetolerance="10"
     objecttolerance="10"
     inkscape:pageopacity="0.0"
     inkscape:pageshadow="2"
     inkscape:zoom="1"
     inkscape:cx="245.82589"
     inkscape:cy="91.499782"
     inkscape:document-units="px"
     inkscape:current-layer="layer1"
     width="280px"
     height="280px"
     inkscape:window-width="1081"
     inkscape:window-height="925"
     inkscape:window-x="550"
     inkscape:window-y="24"
     showgrid="false"
     showguides="true"
     inkscape:guide-bbox="true" />
  <metadata
     id="metadata7">
    <rdf:RDF>
      <cc:Work
         rdf:about="">
        <dc:format>image/svg+xml</dc:format>
        <dc:type
           rdf:resource="http://purl.org/dc/dcmitype/StillImage" />
      </cc:Work>
    </rdf:RDF>
  </metadata>
  <g
     inkscape:label="Layer 1"
     inkscape:groupmode="layer"
     id="layer1">
    <path
       style="fill:#000000;fill-opacity:1;fill-rule:evenodd;stroke:none;stroke-width:1px;stroke-linecap:butt;stroke-linejoin:miter;stroke-opacity:1;filter:url(#filter3973)"
       d="M 145.03132,21.812526 C 127.5502,23.293414 94.291188,25.12783 87.343851,45.968776 C 87.324531,46.021829 87.300151,46.071666 87.281351,46.125026 C 87.166249,46.47899 87.06865,46.853834 86.968852,47.218776 C 86.89494,47.487174 86.811086,47.754902 86.750102,48.031276 C 86.644262,48.479486 86.551538,48.941755 86.468852,49.406276 C 86.477654,49.450529 86.491296,49.487268 86.500102,49.531276 C 86.380613,50.670043 86.68588,51.890523 87.312601,53.125026 C 88.549858,57.677672 90.424409,60.709721 95.343846,63.312526 C 90.01667,74.072923 85.523098,86.609441 88.84385,98.187526 C 90.175067,97.778322 91.532581,97.329341 92.937598,97.250026 C 92.938165,97.355003 92.937014,97.457564 92.937598,97.562526 C 86.940037,98.2778 84.953666,105.04333 84.625103,110.18752 C 84.71078,117.72414 88.292054,121.6609 95.593846,122.50002 C 95.738441,123.26533 98.341872,124.02211 98.500094,124.81252 C 97.811596,128.20148 97.420248,131.41841 97.250095,134.46877 C 88.949601,134.54187 81.214057,141.03453 75.718859,146.50002 C 71.573501,151.08856 67.621619,154.21671 63.812616,156.06252 C 63.519913,156.19757 63.235922,156.34081 62.937617,156.46877 C 62.89578,156.48699 62.854418,156.51337 62.812617,156.53127 C 62.51775,156.65638 62.206913,156.75724 61.906367,156.87502 C 58.770984,158.05761 55.745844,158.3725 52.781373,157.87502 C 55.071656,161.55985 57.990257,164.80109 61.687618,165.90627 C 56.253965,171.08437 53.066113,177.98162 48.750126,183.00002 C 49.481801,182.83841 50.180465,182.63275 50.875124,182.40627 C 47.846192,185.59946 47.046409,189.45577 51.406374,193.56252 C 54.152338,195.08151 57.307588,195.26344 60.375118,195.31252 C 58.575739,196.20562 56.809324,197.74484 56.937621,199.65627 C 60.383566,203.42289 67.144182,202.64689 71.718861,201.68752 C 71.092989,203.31451 70.316319,205.03826 70.687612,206.50002 C 74.72512,208.84881 79.654685,208.248 83.937604,206.96877 C 86.367033,205.885 88.53349,204.26727 91.031349,202.87502 C 91.410151,204.3135 91.99544,205.62409 92.906348,207.00002 C 82.529952,210.80419 70.792606,215.88301 67.468864,253.25002 C 91.27972,261.16623 116.64435,259.09737 141.37507,259.09377 C 171.93071,257.00983 190.65933,266.22793 231.96876,252.12502 C 227.93691,237.66281 226.70803,224.46223 219.15627,210.00002 C 216.90522,208.6376 214.78634,207.46665 212.71878,206.34377 C 211.5455,205.5634 210.37116,204.91404 209.21878,204.37502 C 210.59529,202.27622 209.57894,199.15738 210.09378,197.21877 C 216.43587,201.50126 222.36092,204.18352 230.00002,201.59377 C 231.60045,200.5011 231.73107,199.60323 231.34376,198.78127 C 231.39411,197.98462 230.35749,197.43507 229.75002,196.65627 C 229.74153,196.64399 229.72708,196.63731 229.71877,196.62502 C 229.58585,196.42833 229.47469,196.2327 229.40627,196.03127 C 229.99136,196.16021 230.59449,196.2813 231.21876,196.37502 C 231.23973,196.37808 231.26023,196.372 231.28126,196.37502 C 231.8863,196.46443 232.49859,196.54775 233.12501,196.59377 C 233.79967,196.64397 234.49289,196.65935 235.18751,196.65627 C 238.82536,196.64014 242.59009,195.81208 244.87501,193.46877 C 245.34136,191.50664 242.25755,190.58977 240.71876,189.65627 C 247.09896,189.9444 251.87452,187.37914 254.5,181.50002 C 249.60326,170.74949 235.91126,167.44458 223.68752,167.25002 C 211.85694,168.34106 206.35905,172.73689 199.21878,181.53127 C 196.42267,185.90621 195.18445,190.49863 192.00004,195.00002 C 189.10835,193.22181 185.99293,191.18498 182.50005,188.71877 C 181.50894,189.95516 180.63512,191.47008 179.7188,193.06252 C 176.37172,189.07189 176.21995,182.94723 176.81255,176.21877 C 182.35109,170.19856 187.07694,163.66117 190.81254,157.78127 C 196.00543,148.12847 196.4038,138.06784 195.03129,126.28127 C 195.06806,125.56368 195.27796,124.9286 195.50004,124.31252 C 195.68157,124.69807 195.86217,125.07727 196.06254,125.43752 C 196.17816,125.64529 196.31513,125.83299 196.43754,126.03127 C 196.52162,126.16761 196.6001,126.30598 196.68754,126.43752 C 196.88473,126.73378 197.09722,127.01152 197.31254,127.28127 C 197.37716,127.3622 197.4337,127.45291 197.50004,127.53127 C 197.61817,127.67082 197.7513,127.80644 197.87504,127.93752 C 197.97629,128.04472 198.0824,128.14877 198.18754,128.25002 C 198.28321,128.34224 198.3698,128.44418 198.46879,128.53127 C 198.49077,128.55059 198.50915,128.57471 198.53129,128.59377 C 198.63886,128.68644 198.76348,128.75733 198.87504,128.84377 C 199.00088,128.94104 199.11896,129.03599 199.25003,129.12502 C 199.30469,129.16235 199.35069,129.21416 199.40628,129.25002 C 199.49825,129.30893 199.59297,129.35148 199.68753,129.40627 C 199.82205,129.48469 199.95388,129.55523 200.09378,129.62502 C 200.38934,129.77256 200.71064,129.89316 201.03128,130.00002 C 201.24438,130.07097 201.4628,130.13565 201.68753,130.18752 C 201.71003,130.19274 201.72741,130.21375 201.75003,130.21877 C 201.85181,130.24128 201.95831,130.26278 202.06253,130.28127 C 202.20937,130.30735 202.34828,130.32586 202.50003,130.34377 C 202.78303,130.37756 203.07435,130.40208 203.37503,130.40627 C 203.63181,130.40981 203.88613,130.39402 204.15628,130.37502 C 205.66479,129.87887 206.71896,128.37 206.87503,126.15627 C 206.84932,125.71529 206.80711,125.27862 206.75003,124.84377 C 206.70114,124.46678 206.63209,124.09152 206.56253,123.71877 C 206.55265,123.66627 206.54155,123.61494 206.53128,123.56252 C 206.46354,123.21355 206.39601,122.87677 206.31253,122.53127 C 206.29471,122.45805 206.2685,122.38558 206.25003,122.31252 C 206.16881,121.98915 206.09294,121.66431 206.00003,121.34377 C 205.97236,121.24879 205.93488,121.15726 205.90628,121.06252 C 205.46632,119.59791 204.91873,118.16648 204.34378,116.75002 C 205.86558,114.40611 206.699,111.48439 206.90628,108.81252 C 206.82763,102.04453 203.35541,96.109877 196.03129,97.218776 C 196.01584,97.079255 195.94265,96.840465 195.84379,96.593776 C 197.47849,96.244991 199.41573,96.280111 201.84378,96.968776 C 203.02564,86.970319 200.28348,77.695491 195.96879,68.843776 C 195.05093,66.772427 194.0022,64.719814 192.87504,62.687526 C 198.24095,59.258782 202.03135,54.554901 203.21878,48.531276 C 203.21879,43.041439 199.71883,40.222265 196.03129,36.687526 C 181.38638,23.94177 163.62152,22.407415 145.03132,21.812526 z M 144.68757,32.937526 C 159.13644,33.784679 178.05434,35.076861 189.75004,45.062526 C 192.73196,47.657409 189.92395,51.241037 187.53129,53.656276 C 179.96007,44.256692 169.47202,36.831686 156.90631,36.906276 C 152.56256,37.780681 148.21882,36.29193 143.87507,39.531276 C 144.89886,42.421016 145.32258,46.107052 145.00007,49.593776 L 144.59382,49.500026 C 145.1212,46.393911 144.33725,43.596998 143.40632,40.718776 C 134.97091,36.269604 125.39883,36.195703 116.71884,39.812526 C 110.20913,42.834338 104.75789,48.092179 100.40635,54.312526 C 99.335447,53.317634 96.250096,50.54553 96.250096,49.562526 C 96.742364,47.737906 97.740829,46.105391 99.125094,44.656276 C 101.15166,42.713698 104.52001,40.623134 108.90634,38.843776 C 110.26745,38.291629 111.73897,37.772137 113.28134,37.281276 C 124.12217,34.10131 137.35487,33.184447 144.68757,32.937526 z M 92.125098,59.156276 C 93.055133,60.091606 93.880483,60.87199 94.718847,61.656276 C 93.873977,61.080021 92.988322,60.200806 92.125098,59.156276 z M 201.00003,120.06252 C 201.22297,120.55055 201.43596,121.03347 201.62503,121.53127 C 201.63306,121.5527 201.64832,121.57232 201.65628,121.59377 C 201.83586,122.07062 201.97588,122.57658 202.12503,123.06252 C 202.25727,123.50399 202.39182,123.92612 202.50003,124.37502 C 202.51829,124.44878 202.54493,124.5198 202.56253,124.59377 C 202.68186,125.108 202.78456,125.63268 202.87503,126.15627 C 202.51419,126.31311 202.17483,126.37374 201.87503,126.37502 C 201.58266,126.37211 201.30367,126.31146 201.06253,126.18752 C 201.04952,126.18089 201.04415,126.16321 201.03128,126.15627 C 200.92618,126.09944 200.81491,126.04497 200.71878,125.96877 C 200.70218,125.95545 200.67261,125.95138 200.65628,125.93752 C 200.56512,125.86067 200.48968,125.7486 200.40628,125.65627 C 200.38661,125.63422 200.36302,125.61661 200.34378,125.59377 C 200.30077,125.54338 200.25977,125.49163 200.21878,125.43752 C 200.17847,125.38344 200.13216,125.33869 200.09378,125.28127 C 200.00927,125.15675 199.95094,125.01325 199.87503,124.87502 C 199.85797,124.84369 199.82917,124.81321 199.81253,124.78127 C 199.67345,124.51592 199.55048,124.23289 199.43753,123.93752 C 199.31219,123.60717 199.22418,123.27813 199.12503,122.93752 C 198.92048,122.24401 198.76234,121.58708 198.62504,121.03127 C 199.49148,120.82265 200.2745,120.49966 201.00003,120.06252 z M 100.1876,155.21877 C 105.20121,168.82579 115.29607,177.44502 122.46883,183.31252 C 123.25972,188.32072 122.03075,192.54143 120.78133,196.84377 C 119.2604,196.13479 117.66469,195.54374 115.90634,195.18752 C 114.00208,197.4505 111.60149,199.14513 109.00009,200.53127 C 105.83303,196.05835 103.64505,191.2715 100.8751,186.93752 C 95.38951,178.04523 88.830636,175.10216 79.500106,173.93752 C 80.421899,173.51694 81.303714,173.08775 82.343855,172.62502 C 90.665129,167.92308 95.88177,164.89495 100.1876,155.21877 z M 102.71885,159.43752 C 104.55643,162.83264 106.70114,165.88246 109.00009,168.62502 C 106.32497,165.64035 104.26014,162.66796 102.71885,159.43752 z M 232.84376,169.03127 C 235.04616,169.19441 237.17582,169.57892 239.18751,170.18752 C 237.15872,169.65156 235.04238,169.287 232.84376,169.03127 z M 69.875112,170.25002 C 69.080467,171.75253 68.504941,173.04554 68.062614,174.21877 C 66.417272,174.50073 64.479252,174.99058 62.468867,175.68752 C 64.93669,173.80362 67.341639,171.86176 69.875112,170.25002 z M 78.437607,175.84377 C 79.607678,175.92193 80.748694,176.02801 81.843855,176.18752 L 78.437607,175.84377 z M 250.5,186.00002 C 249.71103,186.77842 248.7236,187.30058 247.625,187.68752 C 248.19859,187.4156 248.74052,187.099 249.25,186.75002 C 249.68221,186.52867 250.10175,186.29983 250.5,186.00002 z M 182.5313,192.71877 C 182.02496,193.45975 181.48426,194.19255 180.9063,194.90627 C 180.89505,194.89725 180.8863,194.88406 180.87505,194.87502 C 181.44037,194.16981 182.00004,193.45582 182.5313,192.71877 z M 73.06261,201.37502 C 72.826659,201.99032 72.590218,202.63605 72.406361,203.28127 C 72.529414,202.68919 72.64405,202.09518 72.750111,201.50002 C 72.855589,201.46171 72.957403,201.41538 73.06261,201.37502 z M 83.281354,206.15627 C 82.361114,206.5668 81.409606,206.82909 80.468856,206.93752 C 81.37968,206.72646 82.305581,206.44691 83.281354,206.15627 z"
       id="path3768" />
    <g
       id="g3723">
      <path
         style="fill:url(#linearGradient3146);fill-opacity:1;fill-rule:evenodd;stroke:none;stroke-width:1px;stroke-linecap:butt;stroke-linejoin:miter;stroke-opacity:1"
         d="M 198.96875,181.53125 C 196.12654,185.9783 195.14693,190.39617 191.84375,194.96875 L 206.99632,203.19638 C 208.70891,201.10682 208.5528,198.25566 209.09375,196.21875 C 215.43585,200.50124 221.10998,202.19238 228.74908,199.60263 C 232.22987,197.2262 228.98781,196.74338 228.40625,195.03125 C 233.08696,196.06273 239.27934,196.14248 242.86152,192.46875 C 243.32788,190.50662 240.00754,189.08975 238.46875,188.15625 C 244.84896,188.44438 250.86196,185.88096 252.23744,180.00184 C 247.3407,169.25132 234.91125,167.69456 222.6875,167.5 C 210.85691,168.59104 206.10902,172.73687 198.96875,181.53125 z"
         id="path2558"
         sodipodi:nodetypes="ccccccccccc" />
      <path
         style="fill:url(#linearGradient3148);fill-opacity:1;fill-rule:evenodd;stroke:none;stroke-width:1px;stroke-linecap:butt;stroke-linejoin:miter;stroke-opacity:1"
         d="M 69.21875,174 C 60.863415,174.8326 40.674022,182.20358 51.40625,192.3125 C 54.152216,193.83149 57.807468,194.01342 60.875,194.0625 C 59.075619,194.9556 57.061043,196.7439 57.18934,198.65533 C 60.635287,202.42195 67.644068,200.89687 72.21875,199.9375 C 71.592877,201.56449 70.807324,203.52752 71.178617,204.98928 C 75.21613,207.33806 78.654579,206.24798 82.9375,204.96875 C 85.366931,203.88498 87.533389,203.26725 90.03125,201.875 C 90.56764,203.91191 92.256165,204.67208 93.96875,206.76164 L 107.0481,200.79565 C 100.9804,191.83823 102.5528,186.42542 89,176 L 69.21875,174 z"
         id="path2560"
         sodipodi:nodetypes="cccccccccccc" />
      <path
         style="fill:url(#linearGradient2494);fill-opacity:1;fill-rule:evenodd;stroke:none;stroke-width:5;stroke-linecap:butt;stroke-linejoin:miter;stroke-miterlimit:4;stroke-dasharray:none;stroke-opacity:1"
         d="M 122.5,174.90205 C 122.07737,183.5955 122.35005,192.3215 118.25,200.40205 C 111.45152,207.80229 91.74389,202.21687 81.25,214.15205 C 70.3952,226.28778 74.08066,238.15339 70.5,250.15205 C 91.6903,257.28338 116.52597,253.19492 140.75,253.65205 C 169.08333,255.82342 198.41667,257.81557 226.75,248.15205 C 224.31241,232.2605 220.47426,219.5996 214.75,207.65205 C 202.25,196.81872 191.25,203.76825 179,193.15205 C 172.48631,187.04509 176.2116,177.88922 176,171.15205 C 159.25,165.55405 139.25,168.50866 122.5,174.90205 z"
         id="path30901"
         sodipodi:nodetypes="cccccccccc" />
      <path
         id="path30903"
         d="M 140.71875,49.1875 C 117.94751,49.379549 93.597193,57.046559 94.4375,97.9375 C 81.69994,93.630035 81.681487,126.70513 96.8125,119.6875 C 97.056506,121.03893 97.278234,122.37887 97.5625,123.78125 C 89.649562,161.21307 117.97053,175.30658 126.5,186.15625 C 137.50071,196.32538 149.28713,193.65677 159.40625,186.28125 C 189.46933,162.85028 195.90919,149.09068 193.03125,125.5625 C 193.25349,123.34424 193.45431,121.18768 193.59375,119.09375 C 208.2982,124.4736 207.40412,90.180657 193.46875,97.59375 C 189.66075,55.508217 163.35322,48.996604 140.71875,49.1875 z"
         style="fill:url(#linearGradient2491);fill-opacity:1;fill-rule:evenodd;stroke:none;stroke-width:5;stroke-linecap:butt;stroke-linejoin:miter;stroke-miterlimit:4;stroke-dasharray:none;stroke-opacity:1" />
      <path
         style="fill:url(#radialGradient2488);fill-opacity:1;fill-rule:evenodd;stroke:none;stroke-width:2;stroke-linecap:butt;stroke-linejoin:miter;stroke-miterlimit:4;stroke-dasharray:none;stroke-opacity:1"
         d="M 106.56066,102.2504 C 115.62721,89.839839 130.89799,92.112133 137.67677,103.97527 C 129.73709,127.56619 108.84244,122.59813 106.56066,102.2504 z"
         id="path30905"
         sodipodi:nodetypes="ccc" />
      <path
         id="path31939"
         d="M 121.0625,99.558298 C 115.22676,99.617499 111.25,107.26286 111.25,112.65205 C 111.25,113.42567 111.45183,114.2406 111.78125,115.02705 C 117.09024,120.96677 125.28367,121.54215 131.59375,114.8083 C 131.76738,114.3373 131.875,113.86875 131.875,113.3708 C 131.87502,107.98161 127.78157,99.490128 121.0625,99.558298 z"
         style="fill:url(#linearGradient2485);fill-rule:evenodd;stroke:none;stroke-width:2;stroke-linecap:butt;stroke-linejoin:miter;stroke-miterlimit:4;stroke-dasharray:none;stroke-opacity:1" />
      <path
         style="fill:url(#linearGradient2482);fill-opacity:1;fill-rule:evenodd;stroke:none;stroke-width:2;stroke-linecap:butt;stroke-linejoin:miter;stroke-miterlimit:4;stroke-dasharray:none;stroke-opacity:1"
         d="M 137.56066,86.861311 C 128.22995,81.930201 119.45503,83.576177 108.85355,85.634281 C 108.0905,86.87394 106.88106,87.72717 108.57322,90.14164 C 116.1795,84.635225 127.46977,85.77093 136.49842,88.0885 C 134.22767,87.792074 137.06387,87.50081 137.56066,86.861311 z"
         id="path30909"
         sodipodi:nodetypes="ccccc" />
      <path
         sodipodi:type="arc"
         style="fill:#000000;fill-opacity:1;stroke:none;stroke-width:3;stroke-miterlimit:4;stroke-dasharray:none"
         id="path30915"
         sodipodi:cx="100.625"
         sodipodi:cy="98.875"
         sodipodi:rx="2.625"
         sodipodi:ry="2.875"
         d="M 103.25,98.875 A 2.625,2.875 0 1 1 98,98.875 A 2.625,2.875 0 1 1 103.25,98.875 z"
         transform="matrix(1.8384096,0,0,1.7198413,-62.39637,-55.187106)" />
      <path
         transform="matrix(1.5353638,0,0,1.5630325,-35.01743,-47.713411)"
         d="M 103.25,98.875 A 2.625,2.875 0 1 1 98,98.875 A 2.625,2.875 0 1 1 103.25,98.875 z"
         sodipodi:ry="2.875"
         sodipodi:rx="2.625"
         sodipodi:cy="98.875"
         sodipodi:cx="100.625"
         id="path30917"
         style="fill:#ffffff;fill-opacity:1;stroke:none;stroke-width:3;stroke-miterlimit:4;stroke-dasharray:none"
         sodipodi:type="arc" />
      <path
         style="fill:url(#linearGradient2477);fill-opacity:1;fill-rule:evenodd;stroke:none;stroke-width:2;stroke-linecap:butt;stroke-linejoin:miter;stroke-miterlimit:4;stroke-dasharray:none;stroke-opacity:1"
         d="M 123,157.45757 C 138.81441,161.71789 145.29391,160.9773 163.625,157.83257 C 152.01967,155.65105 150.15579,153.6289 143.4857,156.63361 C 138.15348,154.82412 132.43953,155.52902 123,157.45757 z"
         id="path30925"
         sodipodi:nodetypes="cccc" />
      <path
         sodipodi:nodetypes="cccc"
         id="path3390"
         d="M 141.42136,200.62726 L 144.78011,198.8595 C 140.30167,225.86722 147.72639,233.03633 149.19953,250.12474 C 145.79768,237.09716 138.12238,250.09063 141.42136,200.62726 z"
         style="fill:#000000;fill-opacity:0.52678576;fill-rule:evenodd;stroke:none;stroke-width:1px;stroke-linecap:butt;stroke-linejoin:miter;stroke-opacity:1;filter:url(#filter3436)" />
      <path
         sodipodi:nodetypes="ccccccccccc"
         id="path30929"
         d="M 115,196.15205 C 108.20152,203.55229 89.74389,202.71687 79.25,214.65205 C 68.3952,226.78778 72.08066,238.65339 68.5,250.65205 C 89.6903,257.78338 116.02597,256.19492 140.25,256.65205 C 168.58333,258.82342 200.91667,259.81557 229.25,250.15205 C 226.81241,234.2605 222.97426,221.5996 217.25,209.65205 C 204.75,198.81872 194.5,201.26825 182.25,190.65205 C 175.834,200.94592 161.7549,209.31121 153.25829,206.94794 C 153.74383,212.21941 154.30271,237.23735 148.67558,246.83115 C 140.50999,238.11291 141.08633,204.76872 141.48639,201.15886 C 131.81542,203.92833 119.50691,198.90006 115,196.15205 z"
         style="fill:url(#linearGradient2473);fill-opacity:1;fill-rule:evenodd;stroke:none;stroke-width:5;stroke-linecap:butt;stroke-linejoin:miter;stroke-miterlimit:4;stroke-dasharray:none;stroke-opacity:1" />
      <path
         sodipodi:nodetypes="csccc"
         id="path30953"
         d="M 141.93198,39.866514 C 143.12566,43.464694 142.20415,53.257571 140.96025,55.332719 C 128.89088,75.467501 101.84998,69.37262 99.588388,100.37172 C 95.168888,94.956135 92.67541,94.336097 88.30698,96.984155 C 82.404,82.895732 102.10408,21.952566 141.93198,39.866514 z"
         style="fill:url(#linearGradient2470);fill-opacity:1;fill-rule:evenodd;stroke:none;stroke-width:1px;stroke-linecap:butt;stroke-linejoin:miter;stroke-opacity:1" />
      <path
         style="fill:url(#linearGradient2467);fill-opacity:1;fill-rule:evenodd;stroke:none;stroke-width:1px;stroke-linecap:butt;stroke-linejoin:miter;stroke-opacity:1"
         d="M 143.73275,38.762961 C 145.28907,40.611141 145.57215,51.045837 143.41159,54.064952 C 152.29898,78.088822 184.81735,68.488736 187.4325,99.134281 C 192.83383,93.776871 196.70381,93.520748 200.47236,95.254593 C 203.74335,78.593082 182.84155,24.458561 143.73275,38.762961 z"
         id="path30955"
         sodipodi:nodetypes="ccccc" />
      <path
         sodipodi:nodetypes="cccccccc"
         id="path30959"
         d="M 97.040737,134.00039 C 81.616417,134.82 73.59426,155.19065 53.18934,157.87172 L 61.5,164.90205 L 49.75,181.27077 L 69.707107,168.2985 C 66.415651,173.61089 66.18733,176.86139 66.5,180.90205 C 73.214663,171.26605 90.820424,172.37165 99.169414,153.11912 C 96.816914,146.62117 96.760227,141.53727 97.040737,134.00039 z"
         style="fill:url(#linearGradient2464);fill-opacity:1;fill-rule:evenodd;stroke:none;stroke-width:3;stroke-linecap:butt;stroke-linejoin:miter;stroke-miterlimit:4;stroke-dasharray:none;stroke-opacity:1" />
      <path
         sodipodi:nodetypes="ccc"
         id="path31942"
         d="M 181.51739,102.2504 C 172.45084,89.839839 157.18006,92.112133 150.40128,103.97527 C 158.34096,127.56619 179.23561,122.59813 181.51739,102.2504 z"
         style="fill:url(#radialGradient2461);fill-opacity:1;fill-rule:evenodd;stroke:none;stroke-width:2;stroke-linecap:butt;stroke-linejoin:miter;stroke-miterlimit:4;stroke-dasharray:none;stroke-opacity:1" />
      <path
         style="fill:url(#linearGradient2458);fill-opacity:1;fill-rule:evenodd;stroke:none;stroke-width:2;stroke-linecap:butt;stroke-linejoin:miter;stroke-miterlimit:4;stroke-dasharray:none;stroke-opacity:1"
         d="M 167.01555,99.558298 C 172.85129,99.617499 176.82805,107.26286 176.82805,112.65205 C 176.82805,113.42567 176.62622,114.2406 176.2968,115.02705 C 170.98781,120.96677 162.79438,121.54215 156.4843,114.8083 C 156.31067,114.3373 156.20305,113.86875 156.20305,113.3708 C 156.20303,107.98161 160.29648,99.490128 167.01555,99.558298 z"
         id="path31944" />
      <path
         transform="matrix(-1.8384096,0,0,1.7198413,350.47442,-55.187106)"
         d="M 103.25,98.875 A 2.625,2.875 0 1 1 98,98.875 A 2.625,2.875 0 1 1 103.25,98.875 z"
         sodipodi:ry="2.875"
         sodipodi:rx="2.625"
         sodipodi:cy="98.875"
         sodipodi:cx="100.625"
         id="path31946"
         style="fill:#000000;fill-opacity:1;stroke:none;stroke-width:3;stroke-miterlimit:4;stroke-dasharray:none"
         sodipodi:type="arc" />
      <path
         sodipodi:type="arc"
         style="fill:#ffffff;fill-opacity:1;stroke:none;stroke-width:3;stroke-miterlimit:4;stroke-dasharray:none"
         id="path31948"
         sodipodi:cx="100.625"
         sodipodi:cy="98.875"
         sodipodi:rx="2.625"
         sodipodi:ry="2.875"
         d="M 103.25,98.875 A 2.625,2.875 0 1 1 98,98.875 A 2.625,2.875 0 1 1 103.25,98.875 z"
         transform="matrix(-1.5353638,0,0,1.5630325,318.78298,-47.713411)" />
      <path
         sodipodi:nodetypes="csssccsssssssccsssc"
         id="path31952"
         d="M 143.5,21.902048 C 128.32328,21.902048 114.5696,24.334015 104.15625,28.558298 C 98.94958,30.67044 95.18344,33.857003 91.84375,37.058298 C 88.50406,40.259593 86.125,43.76782 85.5,48.402048 C 84.880608,52.994697 91.884264,58.90694 95.223954,62.108235 L 99.133883,54.812582 C 97.107323,52.870002 94.5,49.57682 94.5,48.277048 C 94.5,46.977276 96.09844,45.594628 98.125,43.652048 C 100.15156,41.709468 103.51992,39.618906 107.90625,37.839548 C 116.6789,34.280831 129.42072,31.902048 143.5,31.902048 C 157.57928,31.902048 170.3211,34.280831 179.09375,37.839548 C 183.48008,39.618906 186.84844,41.709468 188.875,43.652048 C 190.90156,45.594628 191.5,47.102276 191.5,48.402048 C 191.5,49.70182 188.61603,52.214672 186.58947,54.157252 L 192.06894,61.254681 C 195.40863,58.053386 201.5,53.036276 201.5,48.402048 C 201.5,43.76782 199.12094,39.634593 195.78125,36.433298 C 192.44156,33.232003 188.05042,30.67044 182.84375,28.558298 C 172.4304,24.334015 158.67672,21.902048 143.5,21.902048 z"
         style="fill:url(#linearGradient2453);fill-opacity:1;stroke:none;stroke-width:5;stroke-miterlimit:4;stroke-dasharray:none;stroke-opacity:1" />
      <path
         sodipodi:nodetypes="ccccc"
         id="path34868"
         d="M 150.14343,87.714864 C 159.42687,82.724666 167.81394,82.152842 179.20409,85.634281 C 179.96714,86.87394 181.17658,87.72717 179.48442,90.14164 C 171.87814,84.635225 159.95399,85.917377 150.92534,88.234947 C 150.54444,88.292074 150.64022,88.354363 150.14343,87.714864 z"
         style="fill:url(#linearGradient2450);fill-opacity:1;fill-rule:evenodd;stroke:none;stroke-width:2;stroke-linecap:butt;stroke-linejoin:miter;stroke-miterlimit:4;stroke-dasharray:none;stroke-opacity:1" />
      <path
         style="fill:url(#linearGradient2447);fill-opacity:1;fill-rule:evenodd;stroke:none;stroke-width:1;stroke-linecap:butt;stroke-linejoin:miter;stroke-miterlimit:4;stroke-dasharray:none;stroke-opacity:1"
         d="M 202.78125,114.46875 L 202.28125,115.09375 L 199.875,118.03125 L 199.65625,118.28125 C 200.75899,120.46718 201.46156,122.76358 201.875,125.15625 C 198.91424,126.44316 198.10303,121.98013 197.5625,119.84375 C 197.48671,119.11069 197.59879,118.48613 198.0625,117.9375 L 198.09375,117.90625 L 198.125,117.875 C 198.40049,117.42246 198.87885,117.00575 199.15625,116.4375 C 199.61545,115.42665 198.6672,115.11952 198.21875,114.5625 C 193.23705,114.55107 193.33501,118.56053 194.09375,122.40625 C 195.84898,126.59925 198.48861,129.70333 203.15625,129.375 C 204.66476,128.87885 205.71893,127.36998 205.875,125.15625 C 205.67192,121.67234 204.4389,118.38182 203.125,115.1875 L 202.78125,114.46875 z"
         id="path3153"
         sodipodi:nodetypes="cccccccccccccccc" />
      <path
         sodipodi:nodetypes="cccc"
         id="path3498"
         d="M 141.0678,201.51115 C 132.58339,203.21037 124.516,200.32244 116.49584,196.91495 C 135.68035,213.0884 136.5543,226.44485 144.78011,240.93235 C 141.04905,227.51488 140.58692,214.46063 141.0678,201.51115 z"
         style="fill:#ffffff;fill-opacity:0.67857139;fill-rule:evenodd;stroke:none;stroke-width:1px;stroke-linecap:butt;stroke-linejoin:miter;stroke-opacity:1;filter:url(#filter3532)" />
      <path
         sodipodi:nodetypes="cccc"
         id="path3570"
         d="M 200.25,200.75 L 216.75,208.5 L 225.5,230.75 C 219.17822,219.55292 211.22859,209.28605 200.25,200.75 z"
         style="fill:#ffffff;fill-opacity:0.67410715;fill-rule:evenodd;stroke:none;stroke-width:1px;stroke-linecap:butt;stroke-linejoin:miter;stroke-opacity:1;filter:url(#filter3640)" />
      <path
         id="path3644"
         d="M 73.75,223 L 68.25,251.25 L 91.25,255.75 C 91.25,255.75 73.75,244.5 73.75,223 z"
         style="fill:#ffffff;fill-opacity:0.625;fill-rule:evenodd;stroke:none;stroke-width:1px;stroke-linecap:butt;stroke-linejoin:miter;stroke-opacity:1;filter:url(#filter3726)" />
      <path
         id="path2423"
         d="M 144.03125 20.8125 C 125.63402 22.370994 89.755626 24.322968 85.46875 48.40625 C 86.812896 55.164358 88.188103 59.055636 94.34375 62.3125 C 89.01657 73.072897 84.522995 85.609415 87.84375 97.1875 C 89.174967 96.778296 90.532482 96.329315 91.9375 96.25 C 91.938067 96.354977 91.936916 96.457538 91.9375 96.5625 C 85.939935 97.277774 83.953563 104.04331 83.625 109.1875 C 83.710677 116.72412 87.291953 120.66088 94.59375 121.5 C 94.738345 122.26531 97.341778 123.02209 97.5 123.8125 C 96.811501 127.20146 96.420153 130.41839 96.25 133.46875 C 87.949501 133.54185 80.213952 140.03451 74.71875 145.5 C 66.42803 154.67708 58.893491 158.06854 51.78125 156.875 C 54.071534 160.55983 56.990137 163.80107 60.6875 164.90625 C 55.253844 170.08435 52.06599 176.9816 47.75 182 C 48.481676 181.83839 49.18034 181.63273 49.875 181.40625 C 46.846066 184.59944 46.046282 188.45575 50.40625 192.5625 C 53.152216 194.08149 56.307468 194.26342 59.375 194.3125 C 57.575619 195.2056 55.809203 196.74482 55.9375 198.65625 C 59.383448 202.42287 66.144068 201.64687 70.71875 200.6875 C 70.092877 202.31449 69.316207 204.03824 69.6875 205.5 C 73.725011 207.84879 78.654579 207.24798 82.9375 205.96875 C 85.366931 204.88498 87.533389 203.26725 90.03125 201.875 C 90.410052 203.31348 90.995342 204.62407 91.90625 206 C 81.529848 209.80417 69.792494 214.88299 66.46875 252.25 C 90.279621 260.16621 115.64426 258.09735 140.375 258.09375 C 170.93066 256.00981 189.65929 265.22791 230.96875 251.125 C 226.93689 236.66279 225.70801 223.46221 218.15625 209 C 214.61032 206.85386 211.38456 205.10902 208.1875 203.4375 C 209.62161 201.33861 208.57417 198.1752 209.09375 196.21875 C 215.43585 200.50124 221.3609 203.1835 229 200.59375 C 232.48079 198.21732 228.98781 196.74338 228.40625 195.03125 C 233.08696 196.06273 240.29282 196.14248 243.875 192.46875 C 244.34135 190.50662 241.25754 189.58975 239.71875 188.65625 C 246.09896 188.94438 250.87452 186.37912 253.5 180.5 C 248.60326 169.74947 234.91125 166.44456 222.6875 166.25 C 210.85691 167.34104 205.35902 171.73687 198.21875 180.53125 C 195.42263 184.90619 194.18441 189.49861 191 194 C 188.10831 192.22179 184.99289 190.18496 181.5 187.71875 C 180.50889 188.95514 179.63507 190.47006 178.71875 192.0625 C 175.37167 188.07187 175.2199 181.94721 175.8125 175.21875 C 181.35104 169.19854 186.0769 162.66115 189.8125 156.78125 C 195.00539 147.12845 195.40376 137.06782 194.03125 125.28125 C 194.06802 124.56366 194.27792 123.92858 194.5 123.3125 C 196.25235 127.03435 198.83383 129.67905 203.15625 129.375 C 204.66476 128.87885 205.71893 127.36998 205.875 125.15625 C 205.68373 121.87498 204.56934 118.76938 203.34375 115.75 C 204.86555 113.40609 205.69897 110.48437 205.90625 107.8125 C 205.8276 101.04451 202.35538 95.109851 195.03125 96.21875 C 195.0158 96.079229 194.94261 95.840439 194.84375 95.59375 C 196.47845 95.244965 198.4157 95.280085 200.84375 95.96875 C 202.29835 83.662957 197.79157 72.456479 191.75 61.78125 C 197.18648 58.345579 201.02152 53.60459 202.21875 47.53125 C 202.21876 42.041413 198.7188 39.222239 195.03125 35.6875 C 180.38633 22.941744 162.62146 21.407389 144.03125 20.8125 z M 141.71875 22.09375 C 158.93923 22.705231 180.59786 24.293973 194.25 36.125 C 197.24184 38.99285 200.78125 44.096386 200.78125 47.875 C 200.01831 51.637961 194.33307 57.469877 191.5 60.125 C 190.26132 58.008258 189.0183 55.889905 187.53125 53.9375 C 191.69864 50.389288 193.39305 47.218554 189.71875 42.90625 C 176.86349 32.241299 159.47714 29.934839 143.5 29.40625 C 133.08046 29.831802 96.862609 36.165613 93 48.40625 C 92.607429 49.727562 95.256786 52.506658 98.46875 54.75 C 97.046555 56.780749 95.99532 59.044657 94.875 61.25 C 94.872927 61.254103 94.845823 61.245897 94.84375 61.25 C 91.432462 60.095101 86.673505 52.064838 85.875 48.59375 C 91.161172 26.102216 125.34117 22.534373 141.71875 22.09375 z M 143.6875 31.9375 C 158.13638 32.784653 177.05429 34.076835 188.75 44.0625 C 191.73192 46.657383 188.92391 50.241011 186.53125 52.65625 C 178.96002 43.256666 168.47197 35.83166 155.90625 35.90625 C 151.5625 36.780655 147.21875 35.291904 142.875 38.53125 C 143.89879 41.42099 144.32251 45.107026 144 48.59375 L 143.59375 48.5 C 144.12113 45.393885 143.33718 42.596972 142.40625 39.71875 C 133.97083 35.269578 124.39875 35.195677 115.71875 38.8125 C 109.20904 41.834312 103.7578 47.092153 99.40625 53.3125 C 98.335353 52.317608 95.25 49.545504 95.25 48.5625 C 98.929444 34.924465 130.65159 32.376471 143.6875 31.9375 z M 157.46875 37.09375 C 170.62853 37.125989 179.32213 46.709987 186.9375 56.34375 C 194.3842 67.627772 201.00188 80.270841 199.5 94.0625 C 195.34946 92.446009 191.47286 94.299196 188.125 97 C 187.33874 89.772101 184.53922 85.888822 181.0625 82.1875 C 177.43325 78.323794 172.76795 75.880259 167.96875 73.65625 C 158.40794 69.225653 148.64515 65.725984 144.25 54.03125 C 147.10245 49.143614 144.65681 43.679177 144.75 38.71875 C 146.31035 37.506101 153.27691 37.241034 156.1875 37.125 C 156.62141 37.105861 157.04424 37.09271 157.46875 37.09375 z M 129 37.78125 C 133.18172 37.725195 137.34824 38.583934 141.5 40.25 C 142.38061 44.258464 141.54274 48.113434 140.875 52.125 C 134.84435 63.519398 125.10479 67.763581 116.09375 72.75 C 107.68407 77.654939 100.79667 83.652242 99.375 98.46875 C 97.207465 93.604449 93.490189 92.954099 88.875 95.34375 C 85.72178 82.099747 92.290207 68.52608 98.71875 57.21875 C 103.2663 49.896726 109.20339 44.170579 116.4375 40.8125 C 120.60918 38.819597 124.81828 37.837305 129 37.78125 z M 143.125 50.3125 L 143.75 50.40625 C 143.54814 51.548357 143.29706 52.666797 142.90625 53.6875 C 147.22726 65.060134 157.20263 69.788972 167.5625 74.5625 C 172.33071 76.772146 176.86256 79.168917 180.34375 82.875 C 182.71185 88.43511 186.9656 90.852477 187.03125 100.25 C 188.74589 99.058175 190.26776 97.630335 192.125 96.625 C 192.11624 96.909645 192.10574 97.209125 192.125 97.46875 C 191.48641 97.945234 190.20454 100.0915 189.53125 100.71875 L 190.34375 101.125 C 197.47669 94.252936 202.71302 99.748078 203.28125 107.84375 C 203.23256 112.31712 201.91742 117.053 197.8125 118.3125 C 197.88161 118.18621 197.96206 118.05634 198.0625 117.9375 L 198.09375 117.90625 L 198.125 117.875 C 198.40049 117.42246 198.87885 117.00575 199.15625 116.4375 C 199.61545 115.42665 198.6672 115.11952 198.21875 114.5625 C 195.18765 114.55555 194.04665 116.03493 193.78125 118.0625 C 192.52943 117.58547 191.10519 116.81459 189.53125 115.59375 L 188.3125 117.1875 C 189.25265 117.91673 191.8461 119.03917 192.71875 119.53125 C 192.58671 121.57561 192.15625 123.4728 191.9375 125.65625 C 193.8399 135.97263 191.92316 146.48378 188.15625 156.03125 C 178.08266 169.08444 160.91776 190.4796 143.15625 192.84375 C 138.24156 193.12526 132.88057 189.81401 127.8125 185.15625 C 101.75897 164.05029 95.006374 158.26514 99.5 123.71875 C 99.227496 122.27113 97.448136 121.88747 97.1875 120.4375 C 97.781506 120.05907 100.50096 118.67154 101.125 118.1875 L 100.65625 117.40625 C 93.15504 123.65558 87.064387 117.34216 86.15625 108.84375 C 86.294328 104.11716 87.802034 98.429673 93.28125 98.65625 C 94.83501 98.966577 96.773406 99.992439 99.0625 102.125 L 99.65625 102.0625 C 98.674228 101.14764 98.253257 99.468956 97.53125 98.53125 C 98.381079 99.355899 99.230489 100.45031 100.125 101.875 C 100.20476 89.061125 106.64203 81.066778 116.8125 74.46875 C 125.38267 69.121883 140.06777 64.192962 142.0625 52.75 C 142.52759 51.903592 142.86293 51.108335 143.125 50.3125 z M 121.96875 83.03125 C 117.48753 83.068292 113.05318 83.842571 108.65625 84.65625 C 105.32999 89.489982 108.05976 89.565395 108.34375 91.5625 L 109.15625 90.9375 C 116.26083 85.794284 128.05647 86.452505 136.90625 88.6875 C 138.05165 88.510128 138.94098 88.162045 138.375 86.84375 C 133.57097 84.304908 128.80239 83.231 123.90625 83.0625 C 123.26484 83.035664 122.60892 83.025958 121.96875 83.03125 z M 166 83.03125 C 159.1196 83.027526 154.22008 85.664973 148.625 87.375 C 149.1598 88.346179 149.70075 88.667271 150.6875 89 C 160.97505 84.665209 170.35251 88.066156 179.71875 91.5625 C 181.38431 89.603613 180.67718 87.33065 179.75 85.1875 C 175.08636 84.282133 170.31452 83.07177 166 83.03125 z M 167.9375 83.8125 C 172.2591 83.841467 176.31803 84.589574 178.59375 86.5625 C 179.3491 87.400051 179.29527 87.80246 179.09375 88.78125 C 161.55354 82.891055 154.45099 87.526422 151.3125 87.53125 C 152.80643 85.725999 160.73483 83.764221 167.9375 83.8125 z M 121.375 84.53125 C 127.74064 84.425788 134.4156 85.283445 136.25 87.09375 C 132.43835 86.780844 118.36511 83.480626 108.75 89.53125 C 108.31971 88.55012 108.91937 87.394878 109.46875 86.5625 C 111.66359 85.283694 116.42394 84.613276 121.375 84.53125 z M 171.1875 91.03125 C 170.77509 91.025045 170.36476 91.039982 169.9375 91.0625 C 163.90554 91.380394 156.46112 94.66713 149.3125 103.875 C 153.42847 116.66007 165.74664 128.10542 177.75 113.75 C 180.00545 110.46003 181.62046 106.37586 182.5 102.375 L 182.5625 97.0625 C 181.83222 94.33629 177.37362 91.124321 171.1875 91.03125 z M 117.59375 91.84375 C 113.41044 91.823021 109.25831 93.165544 105.875 96.65625 L 105.5625 102.375 C 106.49616 110.67867 111.38411 118.93364 119.875 120.59375 C 127.59636 119.65841 135.8368 118.4913 138.53125 103.46875 C 136.2404 98.546987 126.79704 91.889354 117.59375 91.84375 z M 166.375 94.9375 C 172.19042 94.80028 176.67491 98.331767 180.4375 102.53125 C 180.00436 105.93217 179.03909 108.83807 177.71875 111.21875 C 176.92438 105.1784 173.22956 99.977414 166.84375 99.09375 C 159.84722 99.575754 156.39539 105.44302 155.3125 111.71875 C 153.8992 109.67975 151.63308 107.17945 150.5625 104.125 C 153.81846 98.682938 159.86016 95.459058 165.1875 95 C 165.58714 94.95721 165.98731 94.946648 166.375 94.9375 z M 121.75 94.96875 C 122.14052 94.966933 122.51702 94.975673 122.90625 95 C 128.22146 95.458013 134.33678 98.486849 137.59375 103.90625 C 136.51723 106.98449 134.16932 109.7005 132.75 111.75 C 131.81763 105.24792 127.83184 99.986881 120.96875 99.1875 C 114.46241 99.813093 111.27574 105.3317 110.34375 111.1875 C 109.03384 108.81355 106.83717 105.821 106.40625 102.4375 C 109.94447 97.913425 115.89221 94.996001 121.75 94.96875 z M 120.96875 99.6875 C 127.34028 100.21924 130.454 107.67459 130.875 113.375 C 130.55109 115.15654 128.69962 116.09932 127.25 117.03125 C 125.29065 118.17146 123.27242 118.68121 121.3125 118.65625 C 117.75929 118.61886 115.17579 116.67885 112.65625 114.4375 C 112.41886 113.81813 112.25 113.19106 112.25 112.65625 C 112.54976 107.36954 115.23431 100.49177 120.96875 99.6875 z M 166.8125 99.9375 C 172.64346 100.61278 175.44398 107.44409 175.8125 112.65625 C 171.0015 121.41016 162.98369 118.49007 157.1875 113.375 C 157.51478 107.52384 160.52281 100.66455 166.8125 99.9375 z M 196.53125 101.71875 C 194.68945 101.64386 192.56263 102.71157 190.6875 104.71875 L 191.125 104.90625 C 194.96559 102.02491 198.21677 103.41797 198.65625 108.0625 C 198.85258 113.06251 194.45554 114.07687 190.71875 111.65625 L 190.46875 111.875 C 195.10796 116.68957 200.74069 114.83856 201 108 C 200.78066 103.7917 198.89927 101.81504 196.53125 101.71875 z M 93.40625 102.5 C 90.261828 102.45292 88.494886 105.87858 88.25 108.9375 C 88.203213 116.36495 94.344292 117.03583 98.9375 112.875 L 98.1875 112.21875 C 94.75896 115.7339 91.043215 114.252 90.78125 109.0625 C 91.061928 103.62627 94.141615 103.76185 97.25 107.0625 L 98.75 105.75 C 97.367089 104.17638 96.085057 103.20847 94.84375 102.75 C 94.338997 102.59037 93.855453 102.50673 93.40625 102.5 z M 197.15625 115.46875 C 197.40432 115.47107 197.67373 115.4968 197.9375 115.53125 C 198.57452 116.12363 197.77342 116.70354 197.3125 117.3125 C 196.67592 118.07882 196.66001 118.99079 196.59375 119.9375 C 197.69716 121.85137 196.28827 123.13717 199.9375 125.6875 C 201.33931 126.67544 202.14325 126.83489 202.875 125.21875 C 202.71151 122.8517 201.75283 120.66182 200.84375 118.5 C 201.5029 117.99607 202.06589 117.40803 202.59375 116.75 C 203.92944 119.97616 205.0867 123.42111 205.125 125.03125 C 205.08068 126.70717 204.11694 127.56357 202.84375 128.40625 C 198.95608 128.76263 196.14669 125.30799 194.59375 122.0625 C 193.79122 119.7276 194.22088 116.82548 196.46875 115.53125 C 196.68145 115.48753 196.90818 115.46643 197.15625 115.46875 z M 141.28125 117.3125 C 138.31123 124.88164 135.86239 128.74679 133.34375 133.15625 C 134.5641 135.36436 136.33928 137.02142 138.4375 138.375 C 140.19052 139.39318 141.85673 139.90162 143.21875 139.8125 L 143 139.5 C 142.32159 139.54439 140.92578 137.52066 139.4375 136.65625 C 138.07425 135.86446 136.69813 134.60455 135.65625 133 C 138.54198 127.96282 141.44214 123.21206 142.09375 117.34375 L 141.28125 117.3125 z M 200 119.0625 C 200.89177 121.01461 201.51008 123.04437 201.875 125.15625 C 198.98831 126.41096 198.16636 122.22276 197.625 120.03125 C 198.49145 119.82263 199.27447 119.49964 200 119.0625 z M 96.21875 134.625 C 95.957171 141.80193 96.993437 148.03857 98.90625 153.5 C 94.670592 161.86421 85.580267 167.17597 80.71875 169.40625 C 77.045281 171.09151 70.100365 175.70688 66.59375 178.90625 C 68.738922 174.40519 73.059727 170.02598 71.59375 165.3125 C 64.739255 170.25747 58.504198 175.35808 50.8125 180.09375 L 63.96875 164.46875 C 60.668813 162.60356 58.612437 163.47759 55.3125 158.40625 C 64.087469 156.37428 72.058992 151.83099 76.5625 147.03125 C 81.002732 142.29894 90.121559 135.93354 96.21875 134.625 z M 99.1875 154.21875 C 104.20112 167.82577 114.29598 176.445 121.46875 182.3125 C 122.25964 187.3207 121.03067 191.54141 119.78125 195.84375 C 118.26031 195.13477 116.6646 194.54372 114.90625 194.1875 C 113.00199 196.45048 110.6014 198.14511 108 199.53125 C 104.83294 195.05833 102.64495 190.27148 99.875 185.9375 C 94.389414 177.04521 87.830536 174.10214 78.5 172.9375 C 79.421793 172.51692 80.303609 172.08773 81.34375 171.625 C 89.66503 166.92306 94.881674 163.89493 99.1875 154.21875 z M 148.625 154.53125 C 146.89831 154.60804 145.16051 154.92778 143.4375 155.59375 C 137.93259 153.84413 131.88798 155.01377 122.625 156.90625 L 122.3125 157.65625 C 136.86857 162.50376 146.25005 162.02977 164.09375 158.28125 L 164.25 157.46875 C 158.98959 156.24843 153.80508 154.30087 148.625 154.53125 z M 150.15625 155.6875 C 154.37128 155.65412 159.05233 157.04253 162.09375 157.75 C 150.13047 160.7078 134.21477 159.84019 124.3125 157.34375 C 129.11517 157.25059 136.11431 153.9602 143.53125 157.71875 C 145.27861 156.2385 147.62723 155.70753 150.15625 155.6875 z M 228.96875 167.9375 C 238.92119 167.86711 248.13682 171.77582 251.21875 181.53125 C 250.44691 186.25233 245.97829 187.2379 241.875 187.59375 C 236.99103 187.88932 231.33751 187 227.75 187 L 227.9375 187.28125 C 230.52692 187.28125 234.24586 188.50794 238.1875 188.625 C 239.42356 189.95438 240.8101 190.35577 241.21875 192.03125 C 234.05345 197.31136 225.35038 193.21947 218.1875 190.03125 L 217.8125 190.25 C 220.957 191.8371 224.19544 193.57155 227.375 194.84375 C 227.63199 196.13024 227.87142 197.42511 228 198.71875 C 220.10729 202.98458 214.07995 197.56409 207.28125 194.21875 C 207.65738 194.59564 207.70693 195.4892 208.15625 195.71875 C 207.67526 197.629 206.82987 199.98184 205.3125 201.9375 C 201.6648 200.04679 197.93413 198.08408 193.75 195.625 C 196.69478 191.02181 197.41828 184.94976 200.0625 180.8125 C 205.45931 173.20906 217.68932 168.01728 228.96875 167.9375 z M 68.875 169.25 C 68.080354 170.75251 67.504828 172.04552 67.0625 173.21875 C 65.417157 173.50071 63.479136 173.99056 61.46875 174.6875 C 63.936574 172.8036 66.341525 170.86174 68.875 169.25 z M 75.03125 174.59375 L 74.90625 174.71875 C 85.436793 174.95352 93.002225 177.69519 99.03125 186.46875 C 101.62359 190.52484 102.21854 196.43176 105 201 C 102.77671 201.95146 100.48886 202.71871 98.28125 203.4375 C 97.350034 203.90319 96.365461 204.29725 95.375 204.6875 C 93.67252 203.45015 91.358893 203.06122 90.9375 201.40625 C 91.462982 201.13673 91.997334 200.8623 92.5625 200.625 L 92.34375 200.40625 C 88.490383 202.02417 85.554953 203.71363 82.53125 205.0625 C 78.538749 206.98301 74.095593 205.67223 71.09375 203.8125 C 71.292012 202.70362 71.55257 201.60787 71.75 200.5 C 74.703375 199.42721 77.548012 197.52893 80.4375 196.09375 L 80.90625 195.6875 C 73.180489 199.74792 66.107716 201.20433 57.90625 197.6875 C 58.183783 195.46838 59.769646 195.21176 60.90625 194.28125 C 64.847893 194.16419 68.754341 192.9375 71.34375 192.9375 L 71.34375 192.65625 C 64.477785 193.07856 58.14304 194.62989 52.3125 190.65625 C 47.974813 186.17615 49.452901 182.6995 52.96875 180.15625 C 54.229914 179.55342 55.452858 178.87326 56.625 178.125 C 59.885974 176.65738 63.638531 175.67181 66.40625 175.15625 C 65.653045 177.88051 65.774185 179.79419 65.8125 181.78125 C 69.133629 178.21994 71.882848 176.26185 75.03125 174.59375 z M 174.6875 176.40625 C 174.14 182.98625 174.14501 189.74933 177.65625 193.90625 C 174.02402 199.88529 168.47164 206.30095 150.96875 205.15625 C 151.63265 217.16186 154.2667 235.06213 149.09375 246.9375 C 138.96528 228.56806 144.03195 214.9985 141.90625 199.15625 C 132.53316 203.70856 127.42578 199.7816 121.5 196.6875 C 122.53823 192.58462 123.17804 188.0056 122.59375 183.1875 C 124.12793 184.44067 125.56106 185.61405 126.65625 186.625 C 131.88663 191.92743 136.26146 194.68409 143.4375 195.28125 C 155.43803 193.26108 166.01512 185.5357 174.6875 176.40625 z M 140.5 180.09375 L 139.5 180.15625 C 137.06536 183.33333 138.27923 186.51042 140.03125 189.6875 L 141.03125 189.625 C 140.53362 187.98653 138.85822 192.00139 140.5 180.09375 z M 182.0625 191 C 192.24618 199.10748 206.50721 203.23119 217 210.6875 C 222.21738 221.6961 226.30573 235.00869 228.6875 249.4375 C 201.42909 258.17951 167.81004 257.86212 140.25 255.75 C 116.52484 257.12767 93.150689 254.86192 69.6875 251.1875 C 72.214345 229.1795 74.447024 212.82488 99.28125 206.09375 C 105.24153 204.15148 111.08894 200.29292 115.28125 196.78125 C 120.23498 199.51109 131.90378 203.54046 140.9375 202.21875 C 138.13056 231.68581 142.14809 238.25878 149.125 250.96875 C 157.84323 237.85567 155.28809 222.07988 153.21875 207.4375 C 166.12425 207.76331 175.44309 200.49554 182.0625 191 z "
         style="fill:#000000;fill-opacity:1;fill-rule:evenodd;stroke:none;stroke-width:2;stroke-linecap:butt;stroke-linejoin:miter;stroke-miterlimit:4;stroke-dasharray:none;stroke-opacity:1" />
      <path
         sodipodi:nodetypes="ccccc"
         id="path3244"
         d="M 143.54268,194.79363 C 142.62575,198.80426 143.28127,203.03953 145.664,207.52155 C 157.97619,202.9979 158.37092,189.01247 175.18571,179.06051 L 174.12505,174.28754 C 167.95827,185.15024 155.67608,189.89754 143.54268,194.79363 z"
         style="fill:#000000;fill-opacity:0.2142857;fill-rule:evenodd;stroke:none;stroke-width:1px;stroke-linecap:butt;stroke-linejoin:miter;stroke-opacity:1;filter:url(#filter3386)" />
      <path
         sodipodi:nodetypes="cccc"
         id="path3440"
         d="M 170.05918,202.21825 L 151.85118,206.28412 C 155.00307,215.43673 153.63472,227.46586 151.6744,239.87169 C 156.21893,228.99295 160.33509,210.85545 170.05918,202.21825 z"
         style="fill:#000000;fill-opacity:0.29017855;fill-rule:evenodd;stroke:none;stroke-width:1px;stroke-linecap:butt;stroke-linejoin:miter;stroke-opacity:1;filter:url(#filter3494)" />
      <path
         sodipodi:nodetypes="cccc"
         id="path3536"
         d="M 226.25,234.5 L 229.5,250.25 C 216.91667,254.12462 204.33333,259.45936 191.75,257 C 201.00091,253.6983 207.56807,255.40627 226.25,234.5 z"
         style="fill:#000000;fill-opacity:0.3705357;fill-rule:evenodd;stroke:none;stroke-width:1px;stroke-linecap:butt;stroke-linejoin:miter;stroke-opacity:1;filter:url(#filter3566)" />
      <path
         sodipodi:nodetypes="ccccc"
         id="path3730"
         d="M 124,187.25 L 123.25,196 C 128.24891,198.82567 133.15925,201.03142 137.5,199.25 L 137.75,196.5 C 137.75,196.5 124.25,189.25 124,187.25 z"
         style="fill:#ffffff;fill-opacity:0.45535715;fill-rule:evenodd;stroke:none;stroke-width:1px;stroke-linecap:butt;stroke-linejoin:miter;stroke-opacity:1;filter:url(#filter3776)" />
      <path
         sodipodi:nodetypes="ccccc"
         id="path3782"
         d="M 111,122.75 C 117.62261,125.31315 129.46259,122.92002 136.75,119.5 C 134.4062,123.57287 130.56964,126.15298 130,132 L 135.5,140.75 C 135.5,140.75 101.75,153.5 111,122.75 z"
         style="fill:#ffffff;fill-opacity:0.25892855;fill-rule:evenodd;stroke:none;stroke-width:1px;stroke-linecap:butt;stroke-linejoin:miter;stroke-opacity:1;filter:url(#filter3840)" />
      <path
         sodipodi:nodetypes="cccc"
         id="path3844"
         d="M 142.75,121.25 C 141.49069,125.57402 140.07418,129.74085 137.5,132.75 L 143.75,138.25 C 139.31782,127.60802 143.23439,125.74569 142.75,121.25 z"
         style="fill:#ffffff;fill-opacity:0.69196424;fill-rule:evenodd;stroke:none;stroke-width:1px;stroke-linecap:butt;stroke-linejoin:miter;stroke-opacity:1;filter:url(#filter3922)" />
      <path
         sodipodi:nodetypes="ccc"
         id="path3926"
         d="M 155,119.75 C 162.6829,124.87652 172.16219,124.93619 178.75,119 C 193.73629,138.43523 135.65808,163.53059 155,119.75 z"
         style="fill:#ffffff;fill-opacity:0.25892855;fill-rule:evenodd;stroke:none;stroke-width:1px;stroke-linecap:butt;stroke-linejoin:miter;stroke-opacity:1;filter:url(#filter3980)" />
      <path
         sodipodi:nodetypes="cccc"
         id="path3984"
         d="M 128.33988,165.4487 C 131.93298,173.87496 124.86533,180.79184 141.0678,190.90455 C 158.49126,186.79323 151.08515,174.40539 156.09382,166.15581 C 146.02374,173.68052 134.67587,177.52799 128.33988,165.4487 z"
         style="fill:#ffffff;fill-opacity:0.29910715;fill-rule:evenodd;stroke:none;stroke-width:1px;stroke-linecap:butt;stroke-linejoin:miter;stroke-opacity:1;filter:url(#filter4006)" />
      <path
         sodipodi:nodetypes="ccc"
         id="path3150"
         d="M 252.25,181.125 C 249.21738,190.13095 235.79976,185.55352 240.75,188.125 C 227.88407,178.77568 249.51176,177.1423 252.25,181.125 z"
         style="fill:#000000;fill-rule:evenodd;stroke:none;stroke-width:1px;stroke-linecap:butt;stroke-linejoin:miter;stroke-opacity:1;fill-opacity:0.15981735;filter:url(#filter3188)" />
      <path
         sodipodi:nodetypes="ccc"
         id="path3192"
         d="M 226.45095,193.82136 C 240.05675,196.77938 237.78766,193.52549 241.65374,192.67231 C 242.9406,189.45516 227.60514,189.30072 226.45095,193.82136 z"
         style="fill:#000000;fill-rule:evenodd;stroke:none;stroke-width:1px;stroke-linecap:butt;stroke-linejoin:miter;stroke-opacity:1;filter:url(#filter3242);fill-opacity:0.14611872" />
      <path
         sodipodi:nodetypes="ccc"
         id="path3246"
         d="M 229.19099,198.32917 C 226.39541,202.97387 221.18249,200.02123 216.90501,200.00855 C 216.54203,197.2862 225.67843,195.89403 229.19099,198.32917 z"
         style="fill:#000000;fill-rule:evenodd;stroke:none;stroke-width:1px;stroke-linecap:butt;stroke-linejoin:miter;stroke-opacity:1;filter:url(#filter3324);fill-opacity:0.22374429000000001" />
      <path
         sodipodi:nodetypes="cccc"
         id="path3328"
         d="M 208.5965,195.41235 C 206.67258,198.74542 204.38031,201.18396 200.81833,200.53888 L 207.00551,203.72086 L 208.5965,195.41235 z"
         style="fill:#000000;fill-rule:evenodd;stroke:none;stroke-width:1px;stroke-linecap:butt;stroke-linejoin:miter;stroke-opacity:1;filter:url(#filter3467);fill-opacity:0.29223743000000002" />
      <path
         sodipodi:nodetypes="ccc"
         id="path3473"
         d="M 227.33483,169.51457 C 220.08699,174.27759 212.83914,177.90024 205.5913,178.44179 C 202.91069,176.74877 225.31361,166.37254 227.33483,169.51457 z"
         style="fill:#ffffff;fill-rule:evenodd;stroke:none;stroke-width:1px;stroke-linecap:butt;stroke-linejoin:miter;stroke-opacity:1;filter:url(#filter3535);fill-opacity:0.96803653" />
      <path
         sodipodi:nodetypes="cccc"
         id="path3539"
         d="M 65,176.125 C 60.702073,180.65473 42.73539,179.16093 55.875,191.375 C 64.072131,191.93176 59.908484,183.88817 64.875,181.5 L 65,176.125 z"
         style="fill:#ffffff;fill-rule:evenodd;stroke:none;stroke-width:1px;stroke-linecap:butt;stroke-linejoin:miter;stroke-opacity:1;filter:url(#filter3617);fill-opacity:0.77625573" />
      <path
         sodipodi:nodetypes="cccc"
         id="path3621"
         d="M 99.625,187.25 L 106.875,201.5 L 102.75,203 C 99.344832,197.75177 101.57492,194.30442 99.625,187.25 z"
         style="fill:#000000;fill-rule:evenodd;stroke:none;stroke-width:1px;stroke-linecap:butt;stroke-linejoin:miter;stroke-opacity:1;filter:url(#filter3719);fill-opacity:0.31506848" />
    </g>
  </g>
</svg>
