<?xml version="1.0" encoding="UTF-8" standalone="no"?>
<!-- Created with Inkscape (http://www.inkscape.org/) -->
<svg
   xmlns:dc="http://purl.org/dc/elements/1.1/"
   xmlns:cc="http://web.resource.org/cc/"
   xmlns:rdf="http://www.w3.org/1999/02/22-rdf-syntax-ns#"
   xmlns:svg="http://www.w3.org/2000/svg"
   xmlns="http://www.w3.org/2000/svg"
   xmlns:xlink="http://www.w3.org/1999/xlink"
   xmlns:sodipodi="http://inkscape.sourceforge.net/DTD/sodipodi-0.dtd"
   xmlns:inkscape="http://www.inkscape.org/namespaces/inkscape"
   sodipodi:docname="gface.svg"
   sodipodi:docbase="/home/nicu"
   inkscape:version="0.41+cvs"
   sodipodi:version="0.32"
   id="svg2"
   height="128.00000pt"
   width="128.00000pt">
  <defs
     id="defs3">
    <linearGradient
       id="linearGradient8965">
      <stop
         id="stop8967"
         offset="0.0000000"
         style="stop-color:#ffffff;stop-opacity:0.61855668;" />
      <stop
         id="stop8969"
         offset="1"
         style="stop-color:#ffffff;stop-opacity:0;" />
    </linearGradient>
    <linearGradient
       id="linearGradient8837"
       inkscape:collect="always">
      <stop
         id="stop8839"
         offset="0"
         style="stop-color:#ffffff;stop-opacity:1;" />
      <stop
         id="stop8841"
         offset="1"
         style="stop-color:#ffffff;stop-opacity:0;" />
    </linearGradient>
    <linearGradient
       id="linearGradient8770">
      <stop
         style="stop-color:#050079;stop-opacity:1.0000000;"
         offset="0.0000000"
         id="stop8772" />
      <stop
         style="stop-color:#0000ff;stop-opacity:1.0000000;"
         offset="1.0000000"
         id="stop8774" />
    </linearGradient>
    <linearGradient
       id="linearGradient6261">
      <stop
         id="stop6263"
         offset="0.0000000"
         style="stop-color:#bb0000;stop-opacity:1.0000000;" />
      <stop
         id="stop6265"
         offset="1.0000000"
         style="stop-color:#ff3a32;stop-opacity:1.0000000;" />
    </linearGradient>
    <linearGradient
       id="linearGradient6251">
      <stop
         id="stop6253"
         offset="0"
         style="stop-opacity:1.0000000;stop-color:#0078ff" />
      <stop
         id="stop6255"
         offset="1.0000000"
         style="stop-color:#00c5ff;stop-opacity:1.0000000;" />
    </linearGradient>
    <linearGradient
       id="linearGradient6185">
      <stop
         id="stop6187"
         offset="0"
         style="stop-color:#ffbf00;stop-opacity:1;" />
      <stop
         id="stop6189"
         offset="1.0000000"
         style="stop-color:#ffe000;stop-opacity:1.0000000;" />
    </linearGradient>
    <linearGradient
       id="linearGradient6169">
      <stop
         id="stop6171"
         offset="0"
         style="stop-color:#f6dec3;stop-opacity:1;" />
      <stop
         id="stop6173"
         offset="1.0000000"
         style="stop-color:#ffe5d5;stop-opacity:1.0000000;" />
    </linearGradient>
    <linearGradient
       gradientUnits="userSpaceOnUse"
       y2="90.512825"
       x2="85.384613"
       y1="110.51283"
       x1="61.025639"
       id="linearGradient6183"
       xlink:href="#linearGradient6169"
       inkscape:collect="always" />
    <linearGradient
       gradientUnits="userSpaceOnUse"
       y2="61.025642"
       x2="66.153847"
       y1="75.384613"
       x1="44.615383"
       id="linearGradient6191"
       xlink:href="#linearGradient6185"
       inkscape:collect="always" />
    <linearGradient
       gradientUnits="userSpaceOnUse"
       y2="65.641029"
       x2="105.64103"
       y1="79.230766"
       x1="91.282051"
       id="linearGradient6205"
       xlink:href="#linearGradient6185"
       inkscape:collect="always" />
    <linearGradient
       gradientUnits="userSpaceOnUse"
       y2="68.461540"
       x2="125.38461"
       y1="74.871796"
       x1="118.46154"
       id="linearGradient6219"
       xlink:href="#linearGradient6185"
       inkscape:collect="always" />
    <linearGradient
       gradientUnits="userSpaceOnUse"
       y2="54.358974"
       x2="142.05128"
       y1="68.205132"
       x1="128.20512"
       id="linearGradient6227"
       xlink:href="#linearGradient6185"
       inkscape:collect="always" />
    <linearGradient
       gradientUnits="userSpaceOnUse"
       y2="58.494678"
       x2="26.153847"
       y1="67.692307"
       x1="14.102564"
       id="linearGradient6241"
       xlink:href="#linearGradient6185"
       inkscape:collect="always" />
    <linearGradient
       gradientUnits="userSpaceOnUse"
       y2="65.641029"
       x2="39.487179"
       y1="75.128204"
       x1="30.000000"
       id="linearGradient6249"
       xlink:href="#linearGradient6185"
       inkscape:collect="always" />
    <linearGradient
       gradientUnits="userSpaceOnUse"
       y2="94.871796"
       x2="69.487183"
       y1="100.25641"
       x1="59.487179"
       id="linearGradient6257"
       xlink:href="#linearGradient6251"
       inkscape:collect="always" />
    <linearGradient
       gradientUnits="userSpaceOnUse"
       y2="93.719994"
       x2="92.313187"
       y1="99.617432"
       x1="83.451218"
       id="linearGradient6259"
       xlink:href="#linearGradient6251"
       inkscape:collect="always" />
    <linearGradient
       gradientUnits="userSpaceOnUse"
       y2="113.86533"
       x2="80.769234"
       y1="118.82220"
       x1="73.076920"
       id="linearGradient6267"
       xlink:href="#linearGradient6261"
       inkscape:collect="always" />
    <linearGradient
       y2="90.512825"
       x2="85.384613"
       y1="110.51283"
       x1="61.025639"
       gradientUnits="userSpaceOnUse"
       id="linearGradient7815"
       xlink:href="#linearGradient6169"
       inkscape:collect="always" />
    <linearGradient
       y2="58.494678"
       x2="26.153847"
       y1="67.692307"
       x1="14.102564"
       gradientUnits="userSpaceOnUse"
       id="linearGradient7817"
       xlink:href="#linearGradient6185"
       inkscape:collect="always" />
    <linearGradient
       y2="65.641029"
       x2="39.487179"
       y1="75.128204"
       x1="30.000000"
       gradientUnits="userSpaceOnUse"
       id="linearGradient7819"
       xlink:href="#linearGradient6185"
       inkscape:collect="always" />
    <linearGradient
       y2="61.025642"
       x2="66.153847"
       y1="75.384613"
       x1="44.615383"
       gradientUnits="userSpaceOnUse"
       id="linearGradient7821"
       xlink:href="#linearGradient6185"
       inkscape:collect="always" />
    <linearGradient
       y2="54.358974"
       x2="142.05128"
       y1="68.205132"
       x1="128.20512"
       gradientUnits="userSpaceOnUse"
       id="linearGradient7823"
       xlink:href="#linearGradient6185"
       inkscape:collect="always" />
    <linearGradient
       y2="68.461540"
       x2="125.38461"
       y1="74.871796"
       x1="118.46154"
       gradientUnits="userSpaceOnUse"
       id="linearGradient7825"
       xlink:href="#linearGradient6185"
       inkscape:collect="always" />
    <linearGradient
       y2="65.641029"
       x2="105.64103"
       y1="79.230766"
       x1="91.282051"
       gradientUnits="userSpaceOnUse"
       id="linearGradient7827"
       xlink:href="#linearGradient6185"
       inkscape:collect="always" />
    <linearGradient
       y2="94.871796"
       x2="69.487183"
       y1="100.25641"
       x1="59.487179"
       gradientUnits="userSpaceOnUse"
       id="linearGradient7829"
       xlink:href="#linearGradient6251"
       inkscape:collect="always" />
    <linearGradient
       y2="93.719994"
       x2="92.313187"
       y1="99.617432"
       x1="83.451218"
       gradientUnits="userSpaceOnUse"
       id="linearGradient7831"
       xlink:href="#linearGradient6251"
       inkscape:collect="always" />
    <linearGradient
       y2="113.86533"
       x2="80.769234"
       y1="118.82220"
       x1="73.076920"
       gradientUnits="userSpaceOnUse"
       id="linearGradient7833"
       xlink:href="#linearGradient6261"
       inkscape:collect="always" />
    <linearGradient
       y2="90.512825"
       x2="85.384613"
       y1="110.51283"
       x1="61.025639"
       gradientUnits="userSpaceOnUse"
       id="linearGradient7907"
       xlink:href="#linearGradient6169"
       inkscape:collect="always" />
    <linearGradient
       y2="58.494678"
       x2="26.153847"
       y1="67.692307"
       x1="14.102564"
       gradientUnits="userSpaceOnUse"
       id="linearGradient7909"
       xlink:href="#linearGradient6185"
       inkscape:collect="always" />
    <linearGradient
       y2="65.641029"
       x2="39.487179"
       y1="75.128204"
       x1="30.000000"
       gradientUnits="userSpaceOnUse"
       id="linearGradient7911"
       xlink:href="#linearGradient6185"
       inkscape:collect="always" />
    <linearGradient
       y2="61.025642"
       x2="66.153847"
       y1="75.384613"
       x1="44.615383"
       gradientUnits="userSpaceOnUse"
       id="linearGradient7913"
       xlink:href="#linearGradient6185"
       inkscape:collect="always" />
    <linearGradient
       y2="54.358974"
       x2="142.05128"
       y1="68.205132"
       x1="128.20512"
       gradientUnits="userSpaceOnUse"
       id="linearGradient7915"
       xlink:href="#linearGradient6185"
       inkscape:collect="always" />
    <linearGradient
       y2="68.461540"
       x2="125.38461"
       y1="74.871796"
       x1="118.46154"
       gradientUnits="userSpaceOnUse"
       id="linearGradient7917"
       xlink:href="#linearGradient6185"
       inkscape:collect="always" />
    <linearGradient
       y2="65.641029"
       x2="105.64103"
       y1="79.230766"
       x1="91.282051"
       gradientUnits="userSpaceOnUse"
       id="linearGradient7919"
       xlink:href="#linearGradient6185"
       inkscape:collect="always" />
    <linearGradient
       y2="94.871796"
       x2="69.487183"
       y1="100.25641"
       x1="59.487179"
       gradientUnits="userSpaceOnUse"
       id="linearGradient7921"
       xlink:href="#linearGradient6251"
       inkscape:collect="always" />
    <linearGradient
       y2="93.719994"
       x2="92.313187"
       y1="99.617432"
       x1="83.451218"
       gradientUnits="userSpaceOnUse"
       id="linearGradient7923"
       xlink:href="#linearGradient6251"
       inkscape:collect="always" />
    <linearGradient
       y2="113.86533"
       x2="80.769234"
       y1="118.82220"
       x1="73.076920"
       gradientUnits="userSpaceOnUse"
       id="linearGradient7925"
       xlink:href="#linearGradient6261"
       inkscape:collect="always" />
    <linearGradient
       gradientTransform="translate(2.000000,-2.000000)"
       y2="113.86533"
       x2="80.769234"
       y1="118.82220"
       x1="73.076920"
       gradientUnits="userSpaceOnUse"
       id="linearGradient7932"
       xlink:href="#linearGradient6261"
       inkscape:collect="always" />
    <linearGradient
       gradientTransform="translate(2.000000,-2.000000)"
       y2="93.719994"
       x2="92.313187"
       y1="99.617432"
       x1="83.451218"
       gradientUnits="userSpaceOnUse"
       id="linearGradient7937"
       xlink:href="#linearGradient6251"
       inkscape:collect="always" />
    <linearGradient
       gradientTransform="translate(2.000000,-2.000000)"
       y2="94.871796"
       x2="69.487183"
       y1="100.25641"
       x1="59.487179"
       gradientUnits="userSpaceOnUse"
       id="linearGradient7942"
       xlink:href="#linearGradient6251"
       inkscape:collect="always" />
    <linearGradient
       gradientTransform="translate(2.000000,-2.000000)"
       y2="65.641029"
       x2="105.64103"
       y1="79.230766"
       x1="91.282051"
       gradientUnits="userSpaceOnUse"
       id="linearGradient7946"
       xlink:href="#linearGradient6185"
       inkscape:collect="always" />
    <linearGradient
       gradientTransform="translate(2.000000,-2.000000)"
       y2="68.461540"
       x2="125.38461"
       y1="74.871796"
       x1="118.46154"
       gradientUnits="userSpaceOnUse"
       id="linearGradient7949"
       xlink:href="#linearGradient6185"
       inkscape:collect="always" />
    <linearGradient
       gradientTransform="translate(2.000000,-2.000000)"
       y2="54.358974"
       x2="142.05128"
       y1="68.205132"
       x1="128.20512"
       gradientUnits="userSpaceOnUse"
       id="linearGradient7952"
       xlink:href="#linearGradient6185"
       inkscape:collect="always" />
    <linearGradient
       gradientTransform="translate(2.000000,-2.000000)"
       y2="61.025642"
       x2="66.153847"
       y1="75.384613"
       x1="44.615383"
       gradientUnits="userSpaceOnUse"
       id="linearGradient7955"
       xlink:href="#linearGradient6185"
       inkscape:collect="always" />
    <linearGradient
       gradientTransform="translate(2.000000,-2.000000)"
       y2="65.641029"
       x2="39.487179"
       y1="75.128204"
       x1="30.000000"
       gradientUnits="userSpaceOnUse"
       id="linearGradient7958"
       xlink:href="#linearGradient6185"
       inkscape:collect="always" />
    <linearGradient
       gradientTransform="translate(2.000000,-2.000000)"
       y2="58.494678"
       x2="26.153847"
       y1="67.692307"
       x1="14.102564"
       gradientUnits="userSpaceOnUse"
       id="linearGradient7961"
       xlink:href="#linearGradient6185"
       inkscape:collect="always" />
    <linearGradient
       gradientTransform="translate(2.000000,-2.000000)"
       y2="90.512825"
       x2="85.384613"
       y1="110.51283"
       x1="61.025639"
       gradientUnits="userSpaceOnUse"
       id="linearGradient7964"
       xlink:href="#linearGradient6169"
       inkscape:collect="always" />
    <linearGradient
       y2="90.512825"
       x2="85.384613"
       y1="110.51283"
       x1="61.025639"
       gradientUnits="userSpaceOnUse"
       id="linearGradient8750"
       xlink:href="#linearGradient6169"
       inkscape:collect="always" />
    <linearGradient
       y2="58.494678"
       x2="26.153847"
       y1="67.692307"
       x1="14.102564"
       gradientUnits="userSpaceOnUse"
       id="linearGradient8752"
       xlink:href="#linearGradient6185"
       inkscape:collect="always" />
    <linearGradient
       y2="65.641029"
       x2="39.487179"
       y1="75.128204"
       x1="30.000000"
       gradientUnits="userSpaceOnUse"
       id="linearGradient8754"
       xlink:href="#linearGradient8770"
       inkscape:collect="always" />
    <linearGradient
       y2="61.025642"
       x2="66.153847"
       y1="75.384613"
       x1="44.615383"
       gradientUnits="userSpaceOnUse"
       id="linearGradient8756"
       xlink:href="#linearGradient6185"
       inkscape:collect="always" />
    <linearGradient
       y2="54.358974"
       x2="142.05128"
       y1="68.205132"
       x1="128.20512"
       gradientUnits="userSpaceOnUse"
       id="linearGradient8758"
       xlink:href="#linearGradient6185"
       inkscape:collect="always" />
    <linearGradient
       y2="68.461540"
       x2="125.38461"
       y1="74.871796"
       x1="118.46154"
       gradientUnits="userSpaceOnUse"
       id="linearGradient8760"
       xlink:href="#linearGradient8770"
       inkscape:collect="always" />
    <linearGradient
       y2="65.641029"
       x2="105.64103"
       y1="79.230766"
       x1="91.282051"
       gradientUnits="userSpaceOnUse"
       id="linearGradient8762"
       xlink:href="#linearGradient6185"
       inkscape:collect="always" />
    <linearGradient
       y2="94.871796"
       x2="69.487183"
       y1="100.25641"
       x1="59.487179"
       gradientUnits="userSpaceOnUse"
       id="linearGradient8764"
       xlink:href="#linearGradient6251"
       inkscape:collect="always" />
    <linearGradient
       y2="93.719994"
       x2="92.313187"
       y1="99.617432"
       x1="83.451218"
       gradientUnits="userSpaceOnUse"
       id="linearGradient8766"
       xlink:href="#linearGradient6251"
       inkscape:collect="always" />
    <linearGradient
       y2="113.86533"
       x2="80.769234"
       y1="118.82220"
       x1="73.076920"
       gradientUnits="userSpaceOnUse"
       id="linearGradient8768"
       xlink:href="#linearGradient6261"
       inkscape:collect="always" />
    <linearGradient
       gradientUnits="userSpaceOnUse"
       y2="80.678505"
       x2="73.747498"
       y1="24.487190"
       x1="138.12201"
       id="linearGradient8843"
       xlink:href="#linearGradient8837"
       inkscape:collect="always" />
    <linearGradient
       y2="90.512825"
       x2="85.384613"
       y1="110.51283"
       x1="61.025639"
       gradientUnits="userSpaceOnUse"
       id="linearGradient8905"
       xlink:href="#linearGradient6169"
       inkscape:collect="always" />
    <linearGradient
       y2="58.494678"
       x2="26.153847"
       y1="67.692307"
       x1="14.102564"
       gradientUnits="userSpaceOnUse"
       id="linearGradient8907"
       xlink:href="#linearGradient6185"
       inkscape:collect="always" />
    <linearGradient
       y2="65.641029"
       x2="39.487179"
       y1="75.128204"
       x1="30.000000"
       gradientUnits="userSpaceOnUse"
       id="linearGradient8909"
       xlink:href="#linearGradient8770"
       inkscape:collect="always" />
    <linearGradient
       y2="61.025642"
       x2="66.153847"
       y1="75.384613"
       x1="44.615383"
       gradientUnits="userSpaceOnUse"
       id="linearGradient8911"
       xlink:href="#linearGradient6185"
       inkscape:collect="always" />
    <linearGradient
       y2="54.358974"
       x2="142.05128"
       y1="68.205132"
       x1="128.20512"
       gradientUnits="userSpaceOnUse"
       id="linearGradient8913"
       xlink:href="#linearGradient6185"
       inkscape:collect="always" />
    <linearGradient
       y2="68.461540"
       x2="125.38461"
       y1="74.871796"
       x1="118.46154"
       gradientUnits="userSpaceOnUse"
       id="linearGradient8915"
       xlink:href="#linearGradient8770"
       inkscape:collect="always" />
    <linearGradient
       y2="65.641029"
       x2="105.64103"
       y1="79.230766"
       x1="91.282051"
       gradientUnits="userSpaceOnUse"
       id="linearGradient8917"
       xlink:href="#linearGradient6185"
       inkscape:collect="always" />
    <linearGradient
       y2="94.871796"
       x2="69.487183"
       y1="100.25641"
       x1="59.487179"
       gradientUnits="userSpaceOnUse"
       id="linearGradient8919"
       xlink:href="#linearGradient6251"
       inkscape:collect="always" />
    <linearGradient
       y2="93.719994"
       x2="92.313187"
       y1="99.617432"
       x1="83.451218"
       gradientUnits="userSpaceOnUse"
       id="linearGradient8921"
       xlink:href="#linearGradient6251"
       inkscape:collect="always" />
    <linearGradient
       y2="113.86533"
       x2="80.769234"
       y1="118.82220"
       x1="73.076920"
       gradientUnits="userSpaceOnUse"
       id="linearGradient8923"
       xlink:href="#linearGradient6261"
       inkscape:collect="always" />
    <linearGradient
       gradientTransform="matrix(0.940012,0.000000,0.000000,0.940012,5.804676,3.392003)"
       y2="113.86533"
       x2="80.769234"
       y1="118.82220"
       x1="73.076920"
       gradientUnits="userSpaceOnUse"
       id="linearGradient8930"
       xlink:href="#linearGradient6261"
       inkscape:collect="always" />
    <linearGradient
       gradientTransform="matrix(0.940012,0.000000,0.000000,0.940012,5.804676,3.392003)"
       y2="93.719994"
       x2="92.313187"
       y1="99.617432"
       x1="83.451218"
       gradientUnits="userSpaceOnUse"
       id="linearGradient8935"
       xlink:href="#linearGradient6251"
       inkscape:collect="always" />
    <linearGradient
       gradientTransform="matrix(0.940012,0.000000,0.000000,0.940012,5.804676,3.392003)"
       y2="94.871796"
       x2="69.487183"
       y1="100.25641"
       x1="59.487179"
       gradientUnits="userSpaceOnUse"
       id="linearGradient8940"
       xlink:href="#linearGradient6251"
       inkscape:collect="always" />
    <linearGradient
       gradientTransform="matrix(0.940012,0.000000,0.000000,0.940012,5.804676,3.392003)"
       y2="65.641029"
       x2="105.64103"
       y1="79.230766"
       x1="91.282051"
       gradientUnits="userSpaceOnUse"
       id="linearGradient8944"
       xlink:href="#linearGradient6185"
       inkscape:collect="always" />
    <linearGradient
       gradientTransform="matrix(0.940012,0.000000,0.000000,0.940012,5.804676,3.392003)"
       y2="68.461540"
       x2="125.38461"
       y1="74.871796"
       x1="118.46154"
       gradientUnits="userSpaceOnUse"
       id="linearGradient8947"
       xlink:href="#linearGradient8770"
       inkscape:collect="always" />
    <linearGradient
       gradientTransform="matrix(0.940012,0.000000,0.000000,0.940012,5.804676,3.392003)"
       y2="54.358974"
       x2="142.05128"
       y1="68.205132"
       x1="128.20512"
       gradientUnits="userSpaceOnUse"
       id="linearGradient8950"
       xlink:href="#linearGradient6185"
       inkscape:collect="always" />
    <linearGradient
       gradientTransform="matrix(0.940012,0.000000,0.000000,0.940012,5.804676,3.392003)"
       y2="61.025642"
       x2="66.153847"
       y1="75.384613"
       x1="44.615383"
       gradientUnits="userSpaceOnUse"
       id="linearGradient8953"
       xlink:href="#linearGradient6185"
       inkscape:collect="always" />
    <linearGradient
       gradientTransform="matrix(0.940012,0.000000,0.000000,0.940012,5.804676,3.392003)"
       y2="65.641029"
       x2="39.487179"
       y1="75.128204"
       x1="30.000000"
       gradientUnits="userSpaceOnUse"
       id="linearGradient8956"
       xlink:href="#linearGradient8770"
       inkscape:collect="always" />
    <linearGradient
       gradientTransform="matrix(0.940012,0.000000,0.000000,0.940012,5.804676,3.392003)"
       y2="58.494678"
       x2="26.153847"
       y1="67.692307"
       x1="14.102564"
       gradientUnits="userSpaceOnUse"
       id="linearGradient8959"
       xlink:href="#linearGradient6185"
       inkscape:collect="always" />
    <linearGradient
       gradientTransform="matrix(0.940012,0.000000,0.000000,0.940012,5.804676,3.392003)"
       y2="90.512825"
       x2="85.384613"
       y1="110.51283"
       x1="61.025639"
       gradientUnits="userSpaceOnUse"
       id="linearGradient8962"
       xlink:href="#linearGradient6169"
       inkscape:collect="always" />
    <linearGradient
       gradientUnits="userSpaceOnUse"
       y2="89.933167"
       x2="71.645035"
       y1="31.538462"
       x1="106.41025"
       id="linearGradient8971"
       xlink:href="#linearGradient8965"
       inkscape:collect="always" />
  </defs>
  <sodipodi:namedview
     inkscape:guide-bbox="true"
     showguides="true"
     inkscape:window-y="24"
     inkscape:window-x="0"
     inkscape:window-height="791"
     inkscape:window-width="1152"
     showgrid="false"
     inkscape:current-layer="layer1"
     inkscape:document-units="px"
     inkscape:cy="80.000000"
     inkscape:cx="80.000000"
     inkscape:zoom="1.0000000"
     inkscape:pageshadow="2"
     inkscape:pageopacity="0.0"
     borderopacity="1.0"
     bordercolor="#666666"
     pagecolor="#ffffff"
     id="base" />
  <metadata
     id="metadata4">
    <rdf:RDF
       id="RDF5">
      <cc:Work
         id="Work6"
         rdf:about="">
        <dc:format
           id="format7">image/svg+xml</dc:format>
        <dc:type
           rdf:resource="http://purl.org/dc/dcmitype/StillImage"
           id="type9" />
      </cc:Work>
    </rdf:RDF>
  </metadata>
  <g
     id="layer1"
     inkscape:groupmode="layer"
     inkscape:label="Layer 1">
    <g
       id="g8973">
      <path
         style="fill:#000000;fill-opacity:1.0000000;stroke:none;stroke-opacity:1.0000000"
         d="M 20.022357,46.573804 C 26.918663,57.484570 18.378922,53.462481 14.802672,54.141537 C 22.224017,61.401006 7.0947015,57.040135 3.7211237,58.780071 C -1.8095461,59.915421 18.437745,62.630526 7.3706874,66.292785 C -0.68939624,71.661947 6.9887873,70.551600 12.413444,70.375357 C 18.345147,70.125989 25.279353,69.513209 31.120977,70.672910 C 29.870004,76.121953 33.340854,80.582261 38.000087,79.591726 C 38.422832,83.597530 37.913456,91.441067 41.701384,92.252512 C 45.618764,101.48837 54.385144,109.70733 63.689866,114.60034 C 72.002667,119.85204 81.473748,121.07430 90.227610,115.95128 C 101.05835,111.32955 111.72719,101.94430 114.68714,91.053395 C 120.53456,91.922497 117.35967,81.907723 118.77032,79.085565 C 123.08396,83.043555 127.41400,76.917975 127.30123,72.717888 C 136.78656,70.344104 146.60815,71.557308 156.26535,71.454747 C 152.66579,67.902570 143.85535,63.931862 152.12779,61.867768 C 160.13966,58.592873 144.63287,59.589521 141.83820,58.445156 C 146.29786,54.844974 142.09953,55.334388 136.59383,55.313254 C 137.34871,52.553321 142.52650,37.762548 137.24450,44.473749 C 132.19695,50.249904 128.33501,57.516678 122.54242,62.683562 C 120.23300,57.794260 114.40997,60.099037 113.43605,62.578864 C 112.85619,52.325875 85.876510,40.715981 78.946366,46.959204 C 73.142210,40.149017 46.224250,50.822220 43.528683,62.090782 C 41.686338,54.305021 35.776136,64.262824 33.733342,58.786695 C 28.382853,53.791129 24.894380,45.635792 19.287973,40.874981 C 19.532768,42.774589 19.777562,44.674197 20.022357,46.573804 z "
         id="path7869"
         sodipodi:nodetypes="ccccccccccccccccccccccccc" />
      <g
         id="g7794"
         transform="matrix(0.940012,0.000000,0.000000,0.940012,5.804676,3.392003)">
        <path
           sodipodi:nodetypes="csssc"
           id="path1288"
           d="M 115.47506,85.907218 C 115.47506,107.02123 88.906588,121.79619 76.970038,121.86223 C 66.570845,121.91977 38.975025,107.02123 38.975025,85.907218 C 38.975025,64.793218 56.111038,47.657206 77.225038,47.657206 C 98.339051,47.657206 115.47506,64.793218 115.47506,85.907218 z "
           style="stroke-opacity:1.0000000;stroke:none;fill-opacity:1.0000000;fill:url(#linearGradient8750)" />
        <path
           style="stroke-opacity:1.0000000;stroke-linejoin:miter;stroke-linecap:butt;stroke-width:1.0000000px;stroke:none;fill-rule:evenodd;fill-opacity:1.0000000;fill:url(#linearGradient8752)"
           d="M 33.875000,65.507180 C 27.500000,59.557176 22.400000,53.862184 17.045000,45.362180 L 20.105000,55.817180 L 12.455000,55.307180 L 14.240000,58.877180 L 2.0000000,60.407180 L 7.8650000,63.722180 L 2.0000000,69.332180 C 12.029999,68.822180 22.060001,68.567180 32.090000,71.627180 L 33.875000,65.507180 z "
           id="path3867"
           sodipodi:nodetypes="cccccccccc" />
        <path
           sodipodi:nodetypes="csssc"
           id="path3098"
           d="M 40.575867,71.621124 C 39.209552,76.667395 35.342459,80.016106 31.943954,79.095939 C 28.545446,78.175784 26.576150,73.235733 28.262427,68.287190 C 29.373745,65.025919 34.343198,59.683783 36.894343,60.812375 C 38.943163,61.718734 41.942170,68.359852 40.575867,71.621124 z "
           style="stroke-opacity:1.0000000;stroke:none;fill-opacity:1.0000000;fill:url(#linearGradient8754)" />
        <path
           sodipodi:nodetypes="ccc"
           id="path2336"
           d="M 76.460000,45.872180 C 78.585004,82.592180 61.839996,91.007180 37.955000,92.537180 C 30.220001,67.802180 46.965004,45.617180 76.460000,45.872180 z "
           style="stroke-opacity:1.0000000;stroke-linejoin:miter;stroke-linecap:butt;stroke-width:1.0000000px;stroke:none;fill-rule:evenodd;fill-opacity:1.0000000;fill:url(#linearGradient8756)" />
        <path
           sodipodi:nodetypes="cccccccccc"
           id="path3107"
           d="M 123.12500,66.527180 C 129.50000,60.577176 134.60000,54.882184 139.95500,46.382180 L 136.89500,56.837180 L 144.54500,56.327180 L 142.76000,59.897180 L 155.00000,61.427180 L 149.13500,64.742180 L 155.00000,70.352180 C 144.97000,69.842180 134.94000,69.587180 124.91000,72.647180 L 123.12500,66.527180 z "
           style="stroke-opacity:1.0000000;stroke-linejoin:miter;stroke-linecap:butt;stroke-width:1.0000000px;stroke:none;fill-rule:evenodd;fill-opacity:1.0000000;fill:url(#linearGradient8758)" />
        <path
           style="stroke-opacity:1.0000000;stroke:none;fill-opacity:1.0000000;fill:url(#linearGradient8760)"
           d="M 114.53248,72.644796 C 115.89880,77.691055 119.76590,81.039778 123.16440,80.119611 C 126.56291,79.199443 128.53220,74.259392 126.84592,69.310862 C 125.73461,66.049591 120.76515,60.707455 118.21401,61.836034 C 116.16518,62.742406 113.16618,69.383524 114.53248,72.644796 z "
           id="path3103"
           sodipodi:nodetypes="csssc" />
        <path
           style="stroke-opacity:1.0000000;stroke-linejoin:miter;stroke-linecap:butt;stroke-width:1.0000000px;stroke:none;fill-rule:evenodd;fill-opacity:1.0000000;fill:url(#linearGradient8762)"
           d="M 78.044124,45.617180 C 75.919132,82.337180 92.664128,90.752180 116.54912,92.282180 C 124.28413,67.547180 107.53913,45.362180 78.044124,45.617180 z "
           id="path2338"
           sodipodi:nodetypes="ccc" />
        <path
           sodipodi:nodetypes="ccccc"
           id="path3869"
           d="M 71.616402,100.89639 C 68.544749,105.04675 61.515840,104.95753 58.528005,100.74429 C 57.953247,96.719490 58.202191,92.102670 59.994471,89.081800 C 63.486977,86.352257 69.019508,87.109977 71.640283,90.690010 C 72.022350,93.892630 72.273027,97.736250 71.616402,100.89639 z "
           style="fill:#ffffff;fill-opacity:1.0000000;stroke:none;stroke-opacity:1.0000000" />
        <path
           style="stroke-opacity:1.0000000;stroke:none;fill-opacity:1.0000000;fill:url(#linearGradient8764)"
           d="M 71.616402,101.60511 C 68.544749,104.79452 61.515840,104.72595 58.528005,101.48823 C 57.953247,98.395310 58.431156,96.361580 60.223449,94.040150 C 62.106522,91.609600 69.002053,91.459950 69.957908,94.266580 C 70.728454,96.672180 72.273027,99.898110 71.616402,101.60511 z "
           id="path3879"
           sodipodi:nodetypes="ccccc" />
        <path
           sodipodi:nodetypes="ccccc"
           id="path3881"
           d="M 69.500999,102.84687 C 68.404907,104.40941 62.029754,104.34956 60.282048,102.72999 C 59.873793,100.91352 59.840018,99.285720 61.243818,96.964290 C 62.516421,95.144210 68.121551,94.994550 69.077406,97.412700 C 70.069942,99.762810 69.935621,101.58385 69.500999,102.84687 z "
           style="fill:#000000;fill-opacity:1.0000000;stroke:none;stroke-opacity:1.0000000" />
        <path
           style="fill:#ffffff;fill-opacity:1.0000000;stroke:none;stroke-opacity:1.0000000"
           d="M 81.558597,99.876390 C 84.630251,104.02675 91.659160,103.93753 94.646995,99.724290 C 95.221752,95.699490 94.972809,91.082670 93.180528,88.061800 C 89.688023,85.332257 84.155492,86.089977 81.534717,89.670010 C 81.152650,92.872630 80.901972,96.716250 81.558597,99.876390 z "
           id="path4641"
           sodipodi:nodetypes="ccccc" />
        <path
           sodipodi:nodetypes="ccccc"
           id="path4643"
           d="M 81.558597,100.58511 C 84.630251,103.77452 91.659160,103.70595 94.646995,100.46823 C 95.221752,97.375310 94.743844,95.341580 92.951551,93.020150 C 91.068478,90.589600 84.172947,90.439950 83.217092,93.246580 C 82.446546,95.652180 80.901972,98.878110 81.558597,100.58511 z "
           style="stroke-opacity:1.0000000;stroke:none;fill-opacity:1.0000000;fill:url(#linearGradient8766)" />
        <path
           style="fill:#000000;fill-opacity:1.0000000;stroke:none;stroke-opacity:1.0000000"
           d="M 83.674001,101.82687 C 84.770093,103.38941 91.145246,103.32956 92.892952,101.70999 C 93.301207,99.893520 93.334982,98.265720 91.931181,95.944290 C 90.658579,94.124210 85.053449,93.974550 84.097594,96.392700 C 83.105058,98.742810 83.239379,100.56385 83.674001,101.82687 z "
           id="path4645"
           sodipodi:nodetypes="ccccc" />
        <path
           sodipodi:nodetypes="ccccccc"
           id="path4647"
           d="M 75.057500,101.33794 C 74.455993,105.17942 71.102361,108.15462 71.547438,108.97982 C 71.760465,110.00909 75.908856,109.95096 77.934219,111.29091 L 78.396470,110.98388 C 75.284029,108.49470 73.849909,109.65427 73.037632,108.36638 C 72.842596,107.63296 75.555847,104.25291 75.583654,101.57701 L 75.057500,101.33794 z "
           style="fill:#000000;fill-opacity:1.0000000;fill-rule:evenodd;stroke:none;stroke-width:5.0000000;stroke-linecap:butt;stroke-linejoin:miter;stroke-miterlimit:4.0000000;stroke-dasharray:none;stroke-opacity:1.0000000" />
        <path
           sodipodi:nodetypes="cccc"
           id="path5409"
           d="M 64.730000,114.46718 C 68.387605,114.57725 71.993420,114.58377 75.392124,113.86533 C 79.595862,114.65149 84.006725,115.43767 88.314032,114.98108 C 79.468847,120.09146 71.089687,120.28262 64.730000,114.46718 z "
           style="stroke-opacity:1.0000000;stroke-linejoin:miter;stroke-linecap:butt;stroke-width:1.0000000px;stroke:none;fill-rule:evenodd;fill-opacity:1.0000000;fill:url(#linearGradient8768)" />
        <path
           sodipodi:nodetypes="csssc"
           id="path6269"
           d="M 64.236804,97.337308 C 64.236804,99.313094 63.110510,100.51333 61.722756,100.51333 C 60.335001,100.51333 59.208707,99.313094 59.208707,97.337308 C 59.208707,95.361523 60.335001,94.362941 61.722756,94.362941 C 63.110510,94.362941 64.236804,95.361523 64.236804,97.337308 z "
           style="fill:#ffffff;fill-opacity:0.62500000;stroke:none;stroke-width:5.0000000;stroke-miterlimit:4.0000000;stroke-opacity:1.0000000" />
        <path
           style="fill:#ffffff;fill-opacity:0.62500000;stroke:none;stroke-width:5.0000000;stroke-miterlimit:4.0000000;stroke-opacity:1.0000000"
           d="M 67.635426,102.94267 C 65.960558,102.94267 64.943123,102.14329 64.943123,101.15833 C 64.943123,100.17339 65.960558,99.374009 67.635426,99.374009 C 69.310285,99.374009 70.156778,100.17339 70.156778,101.15833 C 70.156778,102.14329 69.310285,102.94267 67.635426,102.94267 z "
           id="path7030"
           sodipodi:nodetypes="csssc" />
        <path
           style="fill:#ffffff;fill-opacity:0.62500000;stroke:none;stroke-width:5.0000000;stroke-miterlimit:4.0000000;stroke-opacity:1.0000000"
           d="M 87.799847,96.232790 C 87.799847,98.208576 86.673553,99.408812 85.285799,99.408812 C 83.898044,99.408812 82.771750,98.208576 82.771750,96.232790 C 82.771750,94.257005 83.898044,93.258423 85.285799,93.258423 C 86.673553,93.258423 87.799847,94.257005 87.799847,96.232790 z "
           id="path7790"
           sodipodi:nodetypes="csssc" />
        <path
           sodipodi:nodetypes="csssc"
           id="path7792"
           d="M 91.198469,101.83815 C 89.523601,101.83815 88.506166,101.03877 88.506166,100.05381 C 88.506166,99.068872 89.523601,98.269491 91.198469,98.269491 C 92.873328,98.269491 93.719821,99.068872 93.719821,100.05381 C 93.719821,101.03877 92.873328,101.83815 91.198469,101.83815 z "
           style="fill:#ffffff;fill-opacity:0.62500000;stroke:none;stroke-width:5.0000000;stroke-miterlimit:4.0000000;stroke-opacity:1.0000000" />
      </g>
      <path
         style="fill:url(#linearGradient8971);fill-opacity:1.0;stroke:none;stroke-opacity:1.0000000"
         d="M 21.812500 46.031250 L 24.718750 55.875000 L 17.500000 55.375000 L 19.187500 58.750000 L 7.6875000 60.187500 L 13.187500 63.281250 L 7.6875000 68.562500 C 15.791770 68.150417 23.895730 68.043559 32.000000 69.812500 C 31.562623 73.621619 33.168875 77.025771 35.843750 77.750000 C 37.181790 78.112283 38.556255 77.649274 39.843750 76.781250 C 39.528927 81.121627 40.002547 85.686372 41.468750 90.375000 C 42.107636 90.334075 42.684737 90.239370 43.312500 90.187500 C 47.776643 106.76800 69.408499 117.98590 78.156250 117.93750 C 88.243455 117.88169 109.38224 106.62600 113.56250 89.937500 C 114.17993 89.988312 114.74683 90.084761 115.37500 90.125000 C 116.73831 85.765401 117.27575 81.505312 117.09375 77.437500 C 118.50054 78.554041 120.09154 79.125484 121.59375 78.718750 C 124.17791 78.019074 125.78169 74.805160 125.50000 71.156250 C 134.16651 68.957858 142.83350 69.090581 151.50000 69.531250 L 146.00000 64.250000 L 151.50000 61.125000 L 140.00000 59.687500 L 141.68750 56.343750 L 134.50000 56.812500 L 137.37500 47.000000 C 132.67213 54.464874 128.08225 59.604917 122.62500 64.812500 C 120.78397 62.658316 118.45047 60.861940 116.93750 61.531250 C 116.01811 61.937977 114.90790 63.599633 114.12500 65.531250 C 108.72709 54.023737 96.250797 46.133459 79.156250 46.281250 C 79.114303 47.006091 79.182655 47.548438 79.156250 48.250000 C 78.900188 48.244611 78.663596 48.187500 78.406250 48.187500 C 78.160590 48.187500 77.931991 48.245088 77.687500 48.250000 C 77.662537 47.625723 77.724687 47.142590 77.687500 46.500000 C 61.144846 46.356980 49.010959 53.814396 43.343750 64.718750 C 42.558926 62.715871 41.445449 60.980749 40.500000 60.562500 C 39.220318 59.996386 37.302806 61.198534 35.625000 62.875000 C 30.604834 57.980445 26.229901 53.043000 21.812500 46.031250 z "
         id="path8867" />
    </g>
  </g>
</svg>
