<?xml version="1.0" encoding="UTF-8" standalone="no"?>
<!DOCTYPE svg PUBLIC "-//W3C//DTD SVG 20010904//EN"
"http://www.w3.org/TR/2001/REC-SVG-20010904/DTD/svg10.dtd">
<!-- Created with Sodipodi ("http://www.sodipodi.com/") -->
<svg
   id="svg548"
   sodipodi:version="0.32"
   width="400pt"
   height="400pt"
   sodipodi:docbase="/home/nicu/work/svg_draws"
   sodipodi:docname="/home/nicu/work/svg_draws/head14.svg"
   xmlns="http://www.w3.org/2000/svg"
   xmlns:sodipodi="http://sodipodi.sourceforge.net/DTD/sodipodi-0.dtd"
   xmlns:xlink="http://www.w3.org/1999/xlink">
  <defs
     id="defs550" />
  <sodipodi:namedview
     id="base"
     showgrid="true" />
  <path
     style="fill:#1a0b00;fill-rule:evenodd;stroke:black;stroke-opacity:1;stroke-width:1pt;stroke-linejoin:miter;stroke-linecap:butt;fill-opacity:1;"
     d="M 60 142.5 C 224.167 168.75 333.333 247.5 350 363.75 C 427.5 206.25 218.75 73.75 60 142.5 z "
     id="path565"
     sodipodi:nodetypes="ccc"
     transform="translate(22.50000,18.75000)" />
  <path
     style="fill:#ffdddf;fill-rule:evenodd;stroke:black;stroke-opacity:1;stroke-width:1pt;stroke-linejoin:miter;stroke-linecap:butt;fill-opacity:1;"
     d="M 245 52.5 C 88.75 45 22.5 328.75 161.25 402.5 C 375 437.5 451.25 61.25 245 52.5 z "
     id="path563"
     sodipodi:nodetypes="ccc"
     transform="translate(22.50000,18.75000)" />
  <path
     style="fill:#ffdddf;fill-rule:evenodd;stroke:black;stroke-opacity:1;stroke-width:1pt;stroke-linejoin:miter;stroke-linecap:butt;fill-opacity:1;"
     d="M 353.553 265.77 C 353.553 264.002 360.625 248.093 359.741 230.416 C 392.444 220.693 372.998 275.494 353.553 265.77 z "
     id="path571"
     sodipodi:nodetypes="ccc"
     transform="translate(21.61610,25.82108)" />
  <path
     style="fill:#00ff00;fill-rule:evenodd;stroke:#000000;stroke-opacity:1;stroke-width:1pt;stroke-linejoin:miter;stroke-linecap:butt;fill-opacity:1;"
     d="M 296.101 430.173 C 285.494 423.986 277.539 435.477 289.914 443.431 C 300.52 447.85 303.172 431.941 296.101 430.173 z "
     id="path572"
     sodipodi:nodetypes="ccc"
     transform="translate(89.67514,-141.2329)" />
  <path
     style="fill:#2b1c00;fill-rule:evenodd;stroke:#000000;stroke-opacity:1;stroke-width:1pt;stroke-linejoin:miter;stroke-linecap:butt;fill-opacity:1;"
     d="M 60 143.75 C 212.5 113.75 327.5 191.25 352.5 243.75 C 377.5 296.25 350 365 350 365 C 501.25 160 266.25 -132.5 60 143.75 z "
     id="path564"
     sodipodi:nodetypes="cccc"
     transform="translate(23.38387,16.09833)" />
  <path
     style="fill:#ffffff;fill-rule:evenodd;stroke:black;stroke-opacity:1;stroke-width:1pt;stroke-linejoin:miter;stroke-linecap:butt;fill-opacity:1;"
     d="M 235 200 C 235 200 288.75 197.5 295 226.25 C 301.25 255 236.25 217.5 235 200 z "
     id="path566"
     transform="matrix(0.968766,-0.247978,0.247978,0.968766,-150.8624,62.58678)" />
  <path
     style="fill:#ffffff;fill-rule:evenodd;stroke:black;stroke-opacity:1;stroke-width:1pt;stroke-linejoin:miter;stroke-linecap:butt;fill-opacity:1;"
     d="M 235 200 C 235 200 315.304 219.781 287.676 234.698 C 259.176 242.94 236.25 217.5 235 200 z "
     id="path567"
     transform="matrix(-0.996774,8.026025e-2,-8.026025e-2,-0.996774,547.7609,426.0616)"
     sodipodi:nodetypes="ccc" />
  <path
     style="fill:none;fill-rule:evenodd;stroke:black;stroke-opacity:1;stroke-width:1pt;stroke-linejoin:miter;stroke-linecap:butt;fill-opacity:1;"
     d="M 182.5 222.5 C 182.5 222.5 177.5 231.25 170 240 C 165.152 248.75 165.732 244.911 162.5 253.75 C 156.616 257.286 176.25 256.25 175 261.25 "
     id="path568"
     sodipodi:nodetypes="cccc"
     transform="translate(22.50000,18.75000)" />
  <path
     style="fill:#ff0000;fill-rule:evenodd;stroke:black;stroke-opacity:1;stroke-width:1pt;stroke-linejoin:miter;stroke-linecap:butt;fill-opacity:1;"
     d="M 132.348 310 C 132.348 310 174.19 327.563 217.5 333.75 C 182.145 333.75 152.678 335.847 132.348 310 z "
     id="path569"
     sodipodi:nodetypes="ccc"
     transform="translate(21.61612,27.58881)" />
  <path
     style="fill:#ff0000;fill-rule:evenodd;stroke:black;stroke-opacity:1;stroke-width:1pt;stroke-linejoin:miter;stroke-linecap:butt;fill-opacity:1;"
     d="M 130.815 318.804 C 134.115 321.088 200.466 343.798 216.551 341.908 C 217.436 341.908 186.499 321.455 167.937 323.223 C 157.332 313.501 134.35 317.92 130.815 318.804 z "
     id="path570"
     sodipodi:nodetypes="cccc"
     transform="translate(22.50000,18.75000)" />
  <path
     style="fill:#00bf00;fill-rule:evenodd;stroke:black;stroke-opacity:1;stroke-width:1pt;stroke-linejoin:miter;stroke-linecap:butt;fill-opacity:1;"
     d="M 147.983 176.622 C 160.928 180.429 161.182 205.05 145.698 200.481 C 136.56 198.959 134.529 173.322 147.983 176.622 z "
     id="path573"
     sodipodi:nodetypes="ccc"
     transform="translate(13.97409,17.32903)" />
  <path
     style="fill:#00bf00;fill-rule:evenodd;stroke:black;stroke-opacity:1;stroke-width:1pt;stroke-linejoin:miter;stroke-linecap:butt;fill-opacity:1;"
     d="M 147.983 176.622 C 156.575 179.885 159.006 204.542 145.698 199.973 C 131.119 197.907 132.897 170.057 147.983 176.622 z "
     id="path574"
     sodipodi:nodetypes="ccc"
     transform="translate(121.1352,38.15884)" />
  <path
     style="fill:#000000;fill-rule:evenodd;stroke:black;stroke-opacity:1;stroke-width:1pt;stroke-linejoin:miter;stroke-linecap:butt;fill-opacity:1;"
     d="M 147.729 184.745 C 140.848 183.512 141.273 194.601 146.713 195.405 C 153.422 200.447 155.599 185.76 147.729 184.745 z "
     id="path575"
     sodipodi:nodetypes="ccc"
     transform="translate(13.97409,17.32903)" />
  <path
     style="fill:#000000;fill-rule:evenodd;stroke:black;stroke-opacity:1;stroke-width:1pt;stroke-linejoin:miter;stroke-linecap:butt;fill-opacity:1;"
     d="M 146.968 184.237 C 139.968 181.626 141.273 194.934 146.713 195.405 C 154.51 197.726 153.749 184.708 146.968 184.237 z "
     id="path576"
     sodipodi:nodetypes="ccc"
     transform="translate(118.9224,37.86858)" />
  <path
     style="fill:#2b1c00;fill-rule:evenodd;stroke:black;stroke-opacity:1;stroke-width:1pt;stroke-linejoin:miter;stroke-linecap:butt;fill-opacity:1;"
     d="M 98.4811 166.47 C 98.4811 166.47 172.478 151.235 183.904 171.911 C 157.787 164.838 97.3929 167.558 98.4811 166.47 z "
     id="path577"
     sodipodi:nodetypes="ccc"
     transform="translate(22.50000,18.75000)" />
  <path
     style="fill:#2b1c00;fill-rule:evenodd;stroke:black;stroke-opacity:1;stroke-width:1pt;stroke-linejoin:miter;stroke-linecap:butt;fill-opacity:1;"
     d="M 304.149 218.703 C 304.149 218.703 244.298 155.589 219.814 174.632 C 255.725 181.705 305.781 219.247 304.149 218.703 z "
     id="path578"
     sodipodi:nodetypes="ccc"
     transform="translate(22.50000,18.75000)" />
  <path
     style="fill:#ffffff;fill-rule:evenodd;stroke:none;stroke-opacity:1;stroke-width:1pt;stroke-linejoin:miter;stroke-linecap:butt;fill-opacity:0.666667;"
     d="M 243.936 196.857 C 237.304 196.383 235.41 204.908 243.936 206.329 C 249.619 207.75 252.461 197.331 243.936 196.857 z "
     id="path579"
     sodipodi:nodetypes="ccc"
     transform="translate(22.50000,18.75000)" />
  <path
     style="fill:#ffffff;fill-rule:evenodd;stroke:none;stroke-opacity:1;stroke-width:1pt;stroke-linejoin:miter;stroke-linecap:butt;fill-opacity:0.666667;"
     d="M 243.936 196.857 C 237.304 196.383 235.41 204.908 243.936 206.329 C 249.619 207.75 252.461 197.331 243.936 196.857 z "
     id="path580"
     sodipodi:nodetypes="ccc"
     transform="translate(-82.65290,-1.143799)" />

  <rdf:RDF 
   xmlns="http://web.resource.org/cc/"
   xmlns:dc="http://purl.org/dc/elements/1.1/"
   xmlns:rdf="http://www.w3.org/1999/02/22-rdf-syntax-ns#">
  <Work rdf:about="">
    <dc:title>Clipart by Nicu Buculei - head1</dc:title>
    <dc:rights>
       <Agent>
         <dc:title>Nicu Buculei</dc:title>
       </Agent>
    </dc:rights>
    <dc:type rdf:resource="http://purl.org/dc/dcmitype/StillImage" />
    <license rdf:resource="http://web.resource.org/cc/PublicDomain" />
  </Work>
   
  <License rdf:about="http://web.resource.org/cc/PublicDomain">
     <permits rdf:resource="http://web.resource.org/cc/Reproduction" />
     <permits rdf:resource="http://web.resource.org/cc/Distribution" />
     <permits rdf:resource="http://web.resource.org/cc/DerivativeWorks" />
  </License>

</rdf:RDF>
</svg>
