<?xml version="1.0" encoding="UTF-8" standalone="no"?>
<!-- Created with Inkscape (http://www.inkscape.org/) -->
<svg
   xmlns:dc="http://purl.org/dc/elements/1.1/"
   xmlns:cc="http://web.resource.org/cc/"
   xmlns:rdf="http://www.w3.org/1999/02/22-rdf-syntax-ns#"
   xmlns:svg="http://www.w3.org/2000/svg"
   xmlns="http://www.w3.org/2000/svg"
   xmlns:xlink="http://www.w3.org/1999/xlink"
   xmlns:sodipodi="http://sodipodi.sourceforge.net/DTD/sodipodi-0.dtd"
   xmlns:inkscape="http://www.inkscape.org/namespaces/inkscape"
   width="200.00000px"
   height="200.00000px"
   id="svg2"
   sodipodi:version="0.32"
   inkscape:version="0.45pre1"
   sodipodi:docbase="/home/nicu/Desktop/clipart"
   sodipodi:docname="sailor_logo4.svg"
   inkscape:export-filename="/home/nicu/Desktop/sailor/sailor_logo2.png"
   inkscape:export-xdpi="90.000000"
   inkscape:export-ydpi="90.000000"
   inkscape:output_extension="org.inkscape.output.svg.inkscape"
   sodipodi:modified="true">
  <defs
     id="defs4">
    <linearGradient
       id="linearGradient4301">
      <stop
         style="stop-color:#f6f4f6;stop-opacity:1;"
         offset="0"
         id="stop4303" />
      <stop
         style="stop-color:#ffffff;stop-opacity:1.0000000;"
         offset="1.0000000"
         id="stop4305" />
    </linearGradient>
    <linearGradient
       id="linearGradient1022">
      <stop
         id="stop1024"
         offset="0.0000000"
         style="stop-color:#000000;stop-opacity:0.40833300" />
      <stop
         id="stop1023"
         offset="1.0000000"
         style="stop-color:#000000;stop-opacity:0.0000000" />
    </linearGradient>
    <linearGradient
       id="linearGradient1017">
      <stop
         id="stop1019"
         offset="0.0000000"
         style="stop-color:#ffffff;stop-opacity:0.17500000" />
      <stop
         id="stop1018"
         offset="1.0000000"
         style="stop-color:#ffffff;stop-opacity:0.37500000" />
    </linearGradient>
    <defs
       id="defs877">
      <linearGradient
         spreadMethod="pad"
         gradientUnits="objectBoundingBox"
         xlink:href="#linearGradient1017"
         id="linearGradient585"
         y2="0.50000000"
         x2="1.0000000"
         y1="0.50000000"
         x1="0.0000000" />
      <linearGradient
         spreadMethod="pad"
         gradientUnits="objectBoundingBox"
         xlink:href="#linearGradient1022"
         id="linearGradient579"
         y2="0.50000000"
         x2="1.0000000"
         y1="0.50000000"
         x1="0.0000000" />
      <linearGradient
         xlink:href="#linearGradient579"
         id="linearGradient582"
         y2="0.60227275"
         x2="0.41176471"
         y1="0.51136363"
         x1="0.48529410" />
      <linearGradient
         xlink:href="#linearGradient585"
         id="linearGradient584"
         y2="1.0964912"
         x2="0.32720590"
         y1="0.12280702"
         x1="0.50735295" />
      <linearGradient
         xlink:href="#linearGradient585"
         id="linearGradient589" />
    </defs>
    <linearGradient
       id="linearGradient9709">
      <stop
         id="stop9711"
         offset="0.0000000"
         style="stop-color:#eae5ea;stop-opacity:1.0000000;" />
      <stop
         id="stop9713"
         offset="1.0000000"
         style="stop-color:#fbfafb;stop-opacity:1.0000000;" />
    </linearGradient>
    <linearGradient
       id="linearGradient10477">
      <stop
         id="stop10479"
         offset="0"
         style="stop-color:#c59e86;stop-opacity:1;" />
      <stop
         id="stop10481"
         offset="1.0000000"
         style="stop-color:#d5b8a6;stop-opacity:1.0000000;" />
    </linearGradient>
    <linearGradient
       inkscape:collect="always"
       xlink:href="#linearGradient4301"
       id="linearGradient1473"
       gradientUnits="userSpaceOnUse"
       gradientTransform="matrix(0.976929,0,0,0.979247,-6.75779,9.300439)"
       x1="144.72896"
       y1="158.45874"
       x2="100.28791"
       y2="110.72576" />
    <linearGradient
       inkscape:collect="always"
       xlink:href="#linearGradient9709"
       id="linearGradient1476"
       gradientUnits="userSpaceOnUse"
       gradientTransform="matrix(0.806735,3.633236e-2,-3.633236e-2,0.806735,-0.831567,-8.635501)"
       x1="98.397430"
       y1="32.371796"
       x2="106.41026"
       y2="40.814457" />
    <linearGradient
       inkscape:collect="always"
       xlink:href="#linearGradient9709"
       id="linearGradient1478"
       gradientUnits="userSpaceOnUse"
       gradientTransform="matrix(0.806735,3.633236e-2,-3.633236e-2,0.806735,-0.831567,-8.635501)"
       x1="133.33333"
       y1="21.474358"
       x2="130.12820"
       y2="35.897434" />
    <linearGradient
       inkscape:collect="always"
       xlink:href="#linearGradient9709"
       id="linearGradient1480"
       gradientUnits="userSpaceOnUse"
       gradientTransform="matrix(0.806735,3.633236e-2,-3.633236e-2,0.806735,-0.831567,-8.635501)"
       x1="140.38461"
       y1="61.477680"
       x2="127.24359"
       y2="46.474361" />
    <linearGradient
       inkscape:collect="always"
       xlink:href="#linearGradient10477"
       id="linearGradient1482"
       gradientUnits="userSpaceOnUse"
       gradientTransform="matrix(0.951467,0,0,0.951467,-235.36,-31.84043)"
       x1="141.98718"
       y1="110.89744"
       x2="103.20513"
       y2="76.282051" />
    <linearGradient
       inkscape:collect="always"
       xlink:href="#linearGradient4301"
       id="linearGradient1500"
       gradientUnits="userSpaceOnUse"
       gradientTransform="matrix(0.976929,0,0,0.979247,-6.75779,9.300439)"
       x1="80.865517"
       y1="108.75060"
       x2="62.101521"
       y2="95.582878" />
    <linearGradient
       inkscape:collect="always"
       xlink:href="#linearGradient4301"
       id="linearGradient1504"
       gradientUnits="userSpaceOnUse"
       gradientTransform="matrix(0.976929,0,0,0.979247,-6.75779,9.300439)"
       x1="139.46187"
       y1="96.899651"
       x2="121.68545"
       y2="84.390312" />
  </defs>
  <sodipodi:namedview
     id="base"
     pagecolor="#ffffff"
     bordercolor="#666666"
     borderopacity="1.0"
     inkscape:pageopacity="0.0"
     inkscape:pageshadow="2"
     inkscape:zoom="1"
     inkscape:cx="100"
     inkscape:cy="173.2989"
     inkscape:document-units="px"
     inkscape:current-layer="layer1"
     inkscape:window-width="1152"
     inkscape:window-height="791"
     inkscape:window-x="0"
     inkscape:window-y="24" />
  <metadata
     id="metadata7">
    <rdf:RDF>
      <cc:Work
         rdf:about="">
        <dc:format>image/svg+xml</dc:format>
        <dc:type
           rdf:resource="http://purl.org/dc/dcmitype/StillImage" />
      </cc:Work>
    </rdf:RDF>
  </metadata>
  <g
     inkscape:label="Layer 1"
     inkscape:groupmode="layer"
     id="layer1">
    <g
       id="g2127"
       transform="matrix(1.0677037,0,0,1.0677037,-3.8142941,-13.269918)">
      <path
         style="fill:url(#linearGradient1473);fill-opacity:1;fill-rule:nonzero;stroke:none;stroke-width:1px;stroke-linecap:butt;stroke-linejoin:miter;stroke-opacity:1"
         d="M 142.14368,100.16281 L 92.15095,86.006129 L 56.42411,106.50873 C 54.542803,111.51808 50.959011,117.15178 48.102879,121.66903 C 41.172952,129.72352 38.341391,137.66276 36.74608,148.0475 C 36.643738,148.81884 36.540951,149.57582 36.41026,150.34261 L 35.891267,150.61802 C 37.44809,154.93513 37.430856,159.69618 37.417718,164.23568 C 37.540454,166.36564 37.093931,168.40784 36.562905,170.44777 C 36.476003,170.77993 36.405586,171.09486 36.318673,171.42702 L 37.753538,171.45762 L 37.478776,171.64123 C 50.603314,174.65123 64.281068,174.68792 77.68551,174.57897 C 92.79805,174.91359 107.91034,174.97557 123.02112,175.43581 C 131.18706,176.23432 139.16636,175.63702 146.92535,172.9877 C 149.81918,172.25994 152.59743,171.27482 155.19872,169.80514 L 157.45787,168.73409 C 158.13047,167.23555 157.55191,168.64641 157.54946,168.70349 L 157.88528,168.24447 C 157.88142,167.33369 157.87471,167.81664 157.88528,166.8062 C 158.04326,160.96911 159.57424,155.2969 159.68649,149.45517 C 159.84819,144.73398 159.54259,140.03829 159.01485,135.34789 C 158.88387,134.18364 158.74292,132.99362 158.61797,131.82872 C 158.59797,131.64218 158.74216,131.25107 158.55691,131.27789 C 158.43431,131.29564 158.33667,131.38973 158.22109,131.4309 C 158.20946,131.32782 158.17199,131.22798 158.16004,131.12489 C 157.45897,125.08288 156.23806,119.03092 153.58068,113.52904 C 150.70208,108.35349 146.42378,104.12205 142.14368,100.16281 z "
         id="path1755"
         sodipodi:nodetypes="ccccccccsccccccccccccssscscc" />
      <g
         transform="matrix(0.929225,4.184887e-2,-4.184887e-2,0.929225,200.8659,30.89734)"
         id="g1596">
        <path
           sodipodi:nodetypes="csssssccssssscc"
           id="path1544"
           d="M -90.999926,20.137275 C -90.155681,25.094452 -91.26783,36.777768 -92.06166,39.381942 C -92.98064,42.396614 -99.18129,49.714569 -98.91352,57.103955 C -98.85183,58.80624 -95.692354,66.814245 -94.892154,68.699955 C -94.162904,70.418495 -94.776648,69.68226 -94.201978,72.02551 C -92.245858,80.00187 -114.63604,90.30872 -126.56814,85.58823 C -131.56072,83.61309 -132.56943,81.241563 -132.19788,78.477763 C -132.19329,78.114033 -131.18816,73.380809 -131.50111,71.361879 C -136.66529,72.206499 -141.20273,67.96069 -142.42148,65.69872 C -143.83484,63.07555 -144.6139,56.827341 -144.95471,54.66518 C -145.35152,52.147735 -145.07916,49.818399 -144.86757,47.437611 C -144.6774,45.297764 -142.66564,38.608786 -143.30173,34.573319 C -143.63763,32.442346 -144.40019,29.701782 -144.77327,27.334934 C -145.40267,23.341941 -144.0734,17.179587 -142.97403,14.394058 C -132.59928,-7.5648591 -93.729658,-0.16792842 -90.999926,20.137275 z "
           style="fill:url(#linearGradient1482);fill-opacity:1;fill-rule:evenodd;stroke:none;stroke-width:1px;stroke-linecap:butt;stroke-linejoin:miter;stroke-opacity:1" />
        <path
           sodipodi:nodetypes="ccccccccscccsc"
           id="path1542"
           d="M -96.15086,29.998608 C -94.35308,30.277107 -93.06107,32.012955 -92.94279,33.770119 C -92.64729,35.894993 -92.8951,38.103819 -93.67878,40.100788 C -94.25048,41.170104 -94.92006,41.390207 -95.74375,42.274784 C -96.28204,42.76851 -99.09685,43.52287 -98.63814,43.030109 C -98.29801,42.798981 -97.84112,42.860256 -97.46604,42.694653 C -96.83347,42.506801 -96.46861,41.922809 -96.03751,41.470073 C -95.43795,40.692996 -94.47497,40.348582 -94.21476,39.382077 C -93.74184,37.7029 -93.37093,35.436195 -93.71009,33.707495 C -93.88936,32.802813 -94.70246,31.398297 -95.55955,30.949966 C -96.182,30.56486 -97.03796,31.168259 -97.5971,31.617575 C -98.25591,32.094563 -98.77248,32.751225 -99.22946,33.411623 C -99.50932,34.136662 -99.40748,33.525247 -99.32213,32.99055 C -99.20494,32.330307 -97.28848,29.846278 -96.15086,29.998608 z "
           style="fill:#000000;fill-opacity:1;fill-rule:evenodd;stroke:none;stroke-width:1px;stroke-linecap:butt;stroke-linejoin:miter;stroke-opacity:1" />
        <path
           sodipodi:nodetypes="ccsccsc"
           id="path5980"
           d="M -104.90727,59.45889 L -104.75731,59.81181 C -104.75731,59.81181 -107.08162,62.76377 -112.12493,65.72525 C -117.16823,68.68674 -121.09972,70.141627 -132.77382,71.602807 L -134.26531,71.261644 C -122.54759,70.390924 -116.61078,67.80758 -111.72249,64.93712 C -106.8342,62.06666 -104.90727,59.45889 -104.90727,59.45889 z "
           style="fill:#000000;fill-opacity:1;fill-rule:evenodd;stroke:none;stroke-width:1px;stroke-linecap:butt;stroke-linejoin:miter;stroke-opacity:1" />
        <path
           sodipodi:nodetypes="ccccccccccccccccccccccccccccccccccc"
           id="path2354"
           d="M -125.29939,0.90963767 C -133.55351,2.4535603 -139.22661,5.5933608 -142.71913,13.378459 C -144.71678,17.533289 -145.40721,22.33674 -144.97721,26.786571 C -144.23669,30.714616 -142.69833,35.248884 -143.64208,39.285914 C -144.55719,44.932117 -145.93971,52.061982 -144.58076,57.793842 C -143.75126,62.333062 -143.57794,66.05486 -139.6847,69.081831 C -137.92328,71.107343 -133.60991,71.325615 -131.84077,71.986814 C -131.56856,75.261587 -132.48524,77.504473 -132.23393,80.757167 C -130.81269,83.672639 -127.62785,86.364532 -124.91239,87.533623 C -117.22701,89.400571 -103.21362,83.638935 -98.588502,80.110078 C -95.0208,78.292802 -97.160084,79.237797 -96.341172,74.954222 C -96.549736,72.165194 -94.132552,70.362805 -95.38745,67.803841 C -96.586759,64.471202 -97.919259,60.28842 -98.413811,56.760877 C -98.422568,50.588567 -94.697788,45.538646 -92.025523,40.279184 C -90.858578,36.447241 -90.726641,32.253661 -90.266968,28.297627 C -90.615436,25.221356 -89.762054,22.909126 -91.053307,19.72624 C -92.179992,15.289851 -93.931647,9.6295564 -98.801705,6.0974075 C -105.35271,2.1697626 -114.69024,-0.57563801 -125.29939,0.90963767 z M -120.58614,1.2570848 C -103.98453,1.3865598 -97.934696,7.8152436 -95.561283,11.582729 C -92.95377,12.927967 -92.282171,18.746015 -91.473966,21.788554 C -90.40443,26.684043 -91.512769,33.445068 -92.53125,39.25 C -95.007553,44.489061 -98.849074,49.354654 -99.355664,55.333553 C -99.70304,58.986754 -98.696444,62.432379 -97.609359,65.809035 C -96.319261,68.442834 -97.272214,72.670165 -96.875597,75.552526 C -96.626914,79.221508 -97.083436,76.997174 -98.832186,78.831859 C -103.30832,83.095865 -115.46813,87.871105 -123.31218,86.540027 C -126.19722,85.592781 -129.615,82.740254 -131.46908,80.166951 C -131.68272,76.532948 -130.23666,74.795768 -130.80026,71.144391 C -135.98274,72.336185 -141.84209,67.8398 -142.90685,63.029012 C -143.99843,58.522366 -144.98604,52.717863 -144.06536,48.057131 C -143.92833,42.828923 -141.58443,37.509561 -143.33178,31.85993 C -144.38267,26.934252 -145.29889,18.599656 -142.39542,14.000082 C -139.08196,8.4533099 -136.69225,5.4484293 -131.54126,3.9706649 C -128.13244,2.0934153 -124.06979,1.5650675 -120.58614,1.2570848 z "
           style="fill:#000000;fill-opacity:1;fill-rule:evenodd;stroke:none;stroke-width:1px;stroke-linecap:butt;stroke-linejoin:miter;stroke-opacity:1" />
      </g>
      <path
         sodipodi:nodetypes="ccccscccccscccccccccccccccccsccsccccccccsccccccccscccccc"
         style="fill:#00002f;fill-opacity:1;fill-rule:nonzero;stroke:none;stroke-width:1px;stroke-linecap:butt;stroke-linejoin:miter;stroke-opacity:1"
         d="M 119.01713,111.9362 C 114.00857,112.07261 108.37378,121.62485 103.05211,126.46917 C 103.06873,129.17732 102.83729,132.23459 101.55797,134.67863 C 99.99549,136.69861 98.16038,138.55397 96.82658,140.75253 C 95.96821,142.50749 95.14182,144.09915 93.78299,145.49516 C 93.76539,145.51456 93.74519,145.53118 93.72764,145.55062 C 92.66027,144.82746 91.46548,144.31375 90.241346,143.91428 L 88.691881,144.99593 L 87.502112,144.80179 C 86.108762,145.27729 83.878019,145.72995 82.300336,146.68775 C 82.273366,146.62347 82.240633,146.55948 82.217329,146.49361 C 81.517546,144.84921 80.083644,143.62734 79.478096,141.91738 C 78.797748,140.31565 78.522801,138.61506 78.149983,136.92514 L 76.379165,137.89586 C 76.765478,139.5836 69.519903,120.10445 69.351233,117.87142 L 67.552746,118.8144 C 67.927478,120.99558 67.885022,123.20622 67.552746,125.38752 C 66.95336,128.38846 66.659219,131.42374 66.778014,134.48449 C 66.990326,139.02939 67.474087,143.89555 70.29198,147.63073 C 72.562115,150.7046 76.477569,151.32983 79.948469,152.26241 C 81.092559,152.5957 80.808104,152.509 81.580942,152.76164 C 81.746061,153.67745 81.870444,154.5992 81.63628,155.64604 C 81.250348,157.59932 82.498491,158.91917 84.098823,159.86172 L 83.241083,160.30548 C 83.858027,163.04168 82.926152,165.157 81.110568,167.15594 C 78.41959,170.52955 75.826918,174.53031 76.351496,178.99865 C 76.878447,181.19684 77.944134,183.30574 79.007722,185.29441 L 79.146067,185.21121 C 79.348242,185.4889 79.561572,185.76893 79.727117,186.07098 C 80.238458,187.01244 80.535043,188.0714 80.999892,189.03859 C 81.196417,189.57605 81.521557,190.3873 81.857631,190.98003 C 81.821462,191.11171 81.673582,191.39982 81.774625,191.34058 C 81.886868,191.27476 81.842305,191.261 81.940639,191.2019 C 82.39372,191.86895 82.953139,191.94614 83.656119,190.00931 C 84.201096,187.22564 85.695418,184.6121 87.529782,182.49322 C 88.978594,180.96 90.520365,179.70467 91.65247,178.19434 C 94.04019,180.94869 95.31514,184.23619 96.63289,187.62413 C 97.95572,190.8888 100.01886,193.86867 103.10744,195.63945 C 103.33366,195.76483 103.5693,195.88151 103.79916,196 L 105.43164,194.89061 C 105.20133,194.77524 104.97112,194.67156 104.73992,194.55779 C 104.63138,194.49941 104.54191,194.42446 104.43556,194.36366 L 104.73992,194.19725 C 104.81638,193.27593 104.78823,193.75093 104.87826,192.75504 C 105.04829,191.00582 104.9334,189.26918 105.0166,187.51319 C 105.28134,182.87407 105.04788,178.08201 104.02052,173.56265 C 102.14075,168.05826 97.94112,163.86388 95.38779,158.69686 L 94.88974,158.97421 C 95.35867,158.40148 95.78876,157.77224 96.05184,157.06052 C 96.87222,154.92332 96.46854,152.85045 96.07951,150.68155 C 96.05819,150.54135 96.01668,150.40653 95.9965,150.26552 C 96.11039,150.21605 96.21114,150.14195 96.32853,150.09911 C 99.8378,148.68287 104.07319,147.50725 106.67675,144.71859 C 109.46461,140.47259 109.73746,135.3335 110.41207,130.43523 C 111.19219,124.89663 113.75314,120.81627 117.41233,116.67883 C 118.06405,115.67177 120.48413,111.65561 119.01713,111.9362 z "
         id="path1731" />
      <path
         id="path1366"
         d="M 119.79186,111.40924 L 117.99338,112.32449 C 118.59532,111.90366 118.74378,111.98848 119.01713,111.9362 C 119.26916,111.75418 119.47046,111.53439 119.79186,111.40924 z M 119.01713,111.9362 C 117.31888,113.16268 116.94807,115.4823 115.72452,117.39993 C 112.03642,121.52856 109.66838,125.70416 108.83493,131.21179 C 108.14408,136.11287 107.91441,141.29671 104.96127,145.46742 C 104.62495,146.47895 101.5591,147.38402 97.85033,148.90652 C 97.43251,149.0652 97.03724,149.24469 96.63289,149.43348 L 95.96883,149.98817 C 95.75503,148.49774 95.52335,147.00606 94.36403,145.93892 C 94.22987,145.82485 94.06237,145.76365 93.92133,145.66156 L 95.27711,145.07914 C 95.28519,145.07016 95.57875,144.7163 95.58147,144.71859 C 96.93241,143.33524 97.66735,141.70507 98.56972,140.00369 C 99.97602,137.8373 101.74285,135.93964 103.30113,133.90206 C 104.47283,131.3439 104.5773,128.31068 104.85059,125.55392 L 103.05211,126.46917 C 103.06873,129.17732 102.83729,132.23459 101.55797,134.67863 C 99.99549,136.69861 98.16038,138.55397 96.82658,140.75253 C 95.96821,142.50749 95.14182,144.09915 93.78299,145.49516 C 93.76539,145.51456 93.74519,145.53118 93.72764,145.55062 C 92.66027,144.82746 91.46548,144.31375 90.241346,143.91428 L 88.691881,144.99593 C 90.12851,145.44374 91.57243,145.98582 92.75923,146.93736 C 94.04187,148.16001 94.0734,149.94411 94.3917,151.59679 C 94.8252,153.7304 95.12197,155.76912 94.28102,157.86482 C 92.89449,161.20975 93.18753,160.60181 89.300599,160.36094 C 86.664914,159.75636 82.685356,158.16994 83.379428,154.81401 C 83.86418,152.36861 82.977577,150.56115 82.272667,148.24089 C 82.295262,148.1045 82.341047,148.08253 82.383343,147.96355 L 82.826047,147.71393 C 82.768203,147.60558 82.719214,147.48918 82.660033,147.38111 C 82.706748,147.30788 82.739605,147.15204 82.770709,147.10377 C 83.971855,146.66408 86.006011,145.90842 85.924978,146.02211 L 87.502112,144.80179 C 86.108762,145.27729 83.878019,145.72995 82.300336,146.68775 C 82.273366,146.62347 82.240633,146.55948 82.217329,146.49361 C 81.517546,144.84921 80.083644,143.62734 79.478096,141.91738 C 78.797748,140.31565 78.522801,138.61506 78.149983,136.92514 L 76.379165,137.89586 C 76.765478,139.5836 77.175643,141.22677 77.845623,142.83263 C 78.450119,144.53869 79.817703,145.80772 80.501849,147.46432 C 80.61473,147.74454 80.770854,148.00283 80.916885,148.26862 C 80.796682,148.54988 80.542517,148.76055 80.529519,149.10067 C 80.797921,149.84683 81.001131,150.51864 81.221244,151.2085 C 77.840045,150.2665 74.170929,149.58072 71.869115,146.68775 C 68.968922,143.04232 68.548397,138.12155 68.410486,133.62472 C 68.333385,130.56332 68.64133,127.52531 69.268226,124.52774 C 69.574498,122.30666 69.519903,120.10445 69.351233,117.87142 L 67.552746,118.8144 C 67.927478,120.99558 67.885022,123.20622 67.552746,125.38752 C 66.95336,128.38846 66.659219,131.42374 66.778014,134.48449 C 66.990326,139.02939 67.474087,143.89555 70.29198,147.63073 C 72.562115,150.7046 76.477569,151.32983 79.948469,152.26241 C 81.092559,152.5957 80.808104,152.509 81.580942,152.76164 C 81.746061,153.67745 81.870444,154.5992 81.63628,155.64604 C 81.250348,157.59932 82.498491,158.91917 84.098823,159.86172 L 83.241083,160.30548 C 83.858027,163.04168 82.926152,165.157 81.110568,167.15594 C 78.41959,170.52955 75.826918,174.53031 76.351496,178.99865 C 76.878447,181.19684 77.944134,183.30574 79.007722,185.29441 L 79.146067,185.21121 C 79.348242,185.4889 79.561572,185.76893 79.727117,186.07098 C 80.238458,187.01244 80.535043,188.0714 80.999892,189.03859 C 81.196417,189.57605 81.521557,190.3873 81.857631,190.98003 C 81.821462,191.11171 81.673582,191.39982 81.774625,191.34058 C 81.886868,191.27476 81.842305,191.261 81.940639,191.2019 C 82.39372,191.86895 82.953139,191.94614 83.656119,190.00931 C 84.201096,187.22564 85.695418,184.6121 87.529782,182.49322 C 88.978594,180.96 90.520365,179.70467 91.65247,178.19434 C 94.04019,180.94869 95.31514,184.23619 96.63289,187.62413 C 97.95572,190.8888 100.01886,193.86867 103.10744,195.63945 C 103.33366,195.76483 103.5693,195.88151 103.79916,196 L 105.43164,194.89061 C 105.20133,194.77524 104.97112,194.67156 104.73992,194.55779 C 104.63138,194.49941 104.54191,194.42446 104.43556,194.36366 L 104.73992,194.19725 C 104.81638,193.27593 104.78823,193.75093 104.87826,192.75504 C 105.04829,191.00582 104.9334,189.26918 105.0166,187.51319 C 105.28134,182.87407 105.04788,178.08201 104.02052,173.56265 C 102.14075,168.05826 97.94112,163.86388 95.38779,158.69686 L 94.88974,158.97421 C 95.35867,158.40148 95.78876,157.77224 96.05184,157.06052 C 96.87222,154.92332 96.46854,152.85045 96.07951,150.68155 C 96.05819,150.54135 96.01668,150.40653 95.9965,150.26552 C 96.11039,150.21605 96.21114,150.14195 96.32853,150.09911 C 99.8378,148.68287 104.07319,147.50725 106.67675,144.71859 C 109.46461,140.47259 109.73746,135.3335 110.41207,130.43523 C 111.19219,124.89663 113.75314,120.81627 117.41233,116.67883 C 118.06405,115.67177 120.48413,111.65561 119.01713,111.9362 z M 93.81065,159.94492 C 96.75625,164.74883 100.70887,168.95375 102.52639,174.36695 C 103.7286,178.92745 103.5048,183.70434 103.30113,188.37297 C 103.12108,190.09152 103.31229,191.81561 103.21812,193.53161 C 100.89459,191.85252 99.16963,189.56184 98.12702,186.79209 C 96.74426,183.08295 95.35171,179.54052 92.81457,176.44705 L 92.56555,176.58572 C 93.01276,175.56369 93.30492,174.42352 93.17426,172.98022 C 92.97644,168.96676 91.29625,165.25864 89.909318,161.5258 C 91.35085,161.4362 92.6817,160.85223 93.81065,159.94492 z M 84.984231,160.33321 C 85.963626,160.78768 86.96242,161.17448 87.834141,161.38712 C 87.980844,161.42735 88.129115,161.38567 88.276845,161.41486 L 87.86181,161.66448 C 89.636434,165.46516 91.40608,169.56822 91.59713,173.81226 C 91.99288,178.49179 88.508264,180.26246 85.841971,183.21431 C 84.601929,184.73035 83.607084,186.4937 82.826047,188.34523 C 82.777749,188.21835 82.795333,188.21501 82.743041,188.06788 C 82.30339,187.08371 81.950467,186.02139 81.387259,185.10028 C 81.174158,184.71775 80.924385,184.34432 80.667864,183.99089 L 80.474181,184.10183 C 79.466302,182.20965 78.548956,180.19934 77.983968,178.13887 C 77.360853,173.73455 80.132829,169.69865 82.798379,166.43484 C 84.458086,164.57597 85.063741,162.67276 84.984231,160.33321 z "
         style="fill:#000000;fill-opacity:1;fill-rule:nonzero;stroke:none;stroke-width:1px;stroke-linecap:butt;stroke-linejoin:miter;stroke-opacity:1" />
      <path
         sodipodi:nodetypes="ccssccccsccccccccsccccccccccccsccccccccccccssscscc"
         id="path1354"
         d="M 142.14368,100.16281 L 140.43405,101.36586 C 143.16031,103.60501 146.01173,106.1831 148.20757,108.75521 C 148.2197,108.76957 148.24593,108.79504 148.26863,108.81642 C 148.27998,108.82711 148.27882,108.83182 148.29916,108.84702 C 149.71926,110.52155 151.03872,112.30954 152.17635,114.32468 C 155.00585,119.98328 156.35162,126.28078 156.78623,132.56316 L 156.87782,132.50195 C 156.90593,133.0279 157.31826,134.6541 157.33575,134.76646 C 158.12788,139.84951 158.42785,145.05041 158.22109,150.1896 C 157.99003,156.05071 156.55922,161.74723 156.26724,167.60184 C 156.22925,168.44525 156.22401,168.40921 156.20618,168.8259 C 153.74173,170.20327 151.13656,171.17378 148.39075,171.85544 C 140.51831,174.59838 132.48571,175.49291 124.1507,174.64017 C 108.99024,174.27502 93.82164,174.21214 78.662439,173.84454 C 65.553645,173.95924 51.783112,174.35296 39.127344,170.53958 L 38.974699,170.63138 C 38.69147,170.20131 38.296771,169.72318 38.333589,169.59093 C 38.906537,167.56016 39.228396,165.52915 39.005228,163.40944 C 38.90937,158.94697 38.87101,154.43251 37.69248,150.0978 L 38.028299,149.94479 C 38.116609,149.06368 38.161049,148.1643 38.242002,147.28246 C 39.377238,137.16765 42.928142,128.77525 49.568273,121.0264 C 52.481347,116.39867 54.970577,111.53678 57.322647,106.61311 L 55.460376,107.37815 C 53.579068,112.38749 50.959011,117.15178 48.102879,121.66903 C 41.172952,129.72352 38.341391,137.66276 36.74608,148.0475 C 36.643738,148.81884 36.540951,149.57582 36.41026,150.34261 L 35.891267,150.61802 C 37.44809,154.93513 37.430856,159.69618 37.417718,164.23568 C 37.540454,166.36564 37.093931,168.40784 36.562905,170.44777 C 36.476003,170.77993 36.405586,171.09486 36.318673,171.42702 L 37.753538,171.45762 L 37.478776,171.64123 C 50.603314,174.65123 64.281068,174.68792 77.68551,174.57897 C 92.79805,174.91359 107.91034,174.97557 123.02112,175.43581 C 131.18706,176.23432 139.16636,175.63702 146.92535,172.9877 C 149.81918,172.25994 152.59743,171.27482 155.19872,169.80514 L 157.45787,168.73409 C 158.13047,167.23555 157.55191,168.64641 157.54946,168.70349 L 157.88528,168.24447 C 157.88142,167.33369 157.87471,167.81664 157.88528,166.8062 C 158.04326,160.96911 159.57424,155.2969 159.68649,149.45517 C 159.84819,144.73398 159.54259,140.03829 159.01485,135.34789 C 158.88387,134.18364 158.74292,132.99362 158.61797,131.82872 C 158.59797,131.64218 158.74216,131.25107 158.55691,131.27789 C 158.43431,131.29564 158.33667,131.38973 158.22109,131.4309 C 158.20946,131.32782 158.17199,131.22798 158.16004,131.12489 C 157.45897,125.08288 156.23806,119.03092 153.58068,113.52904 C 150.70208,108.35349 146.42378,104.12205 142.14368,100.16281 z "
         style="fill:#000000;fill-opacity:1;fill-rule:nonzero;stroke:none;stroke-width:1px;stroke-linecap:butt;stroke-linejoin:miter;stroke-opacity:1" />
      <path
         sodipodi:nodetypes="cccccccccsscscccccccccccc"
         style="fill:url(#linearGradient1504);fill-opacity:1;fill-rule:nonzero;stroke:none;stroke-width:1px;stroke-linecap:butt;stroke-linejoin:miter;stroke-opacity:1"
         d="M 113.64934,87.55742 L 109.13929,88.306256 C 108.75342,88.532412 108.64441,88.790402 108.97327,88.694542 L 108.00953,89.471113 C 107.82241,92.894903 106.77324,96.28921 105.76367,99.566534 C 104.34732,104.71382 100.25361,108.09435 97.26927,112.26902 C 93.35874,118.38387 91.71902,125.57161 90.601043,132.654 C 90.098591,136.52634 89.450101,140.38455 88.719549,144.21936 C 88.702718,144.47577 88.802804,144.52353 88.913232,144.57992 C 88.808046,144.66756 88.637746,144.80399 88.719549,144.77405 C 88.804806,144.74286 88.884138,144.69651 88.96857,144.66311 C 89.173127,144.68236 89.506209,144.52546 89.909318,144.21936 C 90.073003,144.14025 90.245702,144.08023 90.40736,143.99748 C 90.412283,143.99496 90.430531,143.8517 90.435029,143.72014 C 92.70549,141.75309 96.50724,137.0831 96.82658,136.731 C 102.7832,129.97226 107.48503,122.21724 113.70468,115.68038 C 117.98435,110.48029 124.27246,110.3913 130.33376,107.99787 C 134.85031,105.83117 138.98909,102.93233 142.92317,99.843882 C 144.92526,98.017298 147.52859,96.437496 148.81667,93.96413 C 148.83375,93.918566 149.04062,93.437686 149.06569,93.381702 L 147.62691,94.075069 L 148.01427,93.769988 C 146.04276,94.044858 147.07584,93.90235 144.94301,94.130538 C 136.34578,94.760262 128.09286,93.311811 120.2069,89.74846 C 117.92141,88.853512 115.77391,87.898472 113.64934,87.55742 z "
         id="path1737" />
      <path
         id="path1334"
         d="M 109.35125,87.520187 L 109.13929,88.306256 C 108.75342,88.532412 108.64441,88.790402 108.97327,88.694542 L 107.7305,89.19209 C 107.54338,92.61588 106.77324,96.28921 105.76367,99.566534 C 104.34732,104.71382 100.25361,108.09435 97.26927,112.26902 C 93.35874,118.38387 91.71902,125.57161 90.601043,132.654 C 90.098591,136.52634 89.450101,140.38455 88.719549,144.21936 C 88.702718,144.47577 88.802804,144.52353 88.913232,144.57992 C 88.808046,144.66756 88.637746,144.80399 88.719549,144.77405 C 88.804806,144.74286 88.884138,144.69651 88.96857,144.66311 C 89.173127,144.68236 89.506209,144.52546 89.909318,144.21936 C 90.073003,144.14025 90.245702,144.08023 90.40736,143.99748 C 90.412283,143.99496 90.430531,143.8517 90.435029,143.72014 C 92.70549,141.75309 96.50724,137.0831 96.82658,136.731 C 102.7832,129.97226 107.48503,122.21724 113.70468,115.68038 C 117.98435,110.48029 124.27246,110.3913 130.33376,107.99787 C 134.85031,105.83117 138.98909,102.93233 142.92317,99.843882 C 144.92526,98.017298 147.52859,96.437496 148.81667,93.96413 C 148.83375,93.918566 149.04062,93.437686 149.06569,93.381702 L 147.62691,94.075069 L 148.01427,93.769988 C 146.04276,94.044858 147.07584,93.90235 144.94301,94.130538 C 136.34578,94.760262 128.09286,93.311811 120.2069,89.74846 C 115.15521,87.507791 111.47582,87.861239 109.35125,87.520187 z M 111.49115,88.417195 C 114.05777,88.718655 116.50448,89.741484 118.90645,90.635969 C 126.80511,94.258082 135.04211,95.679376 143.67023,95.101252 C 145.7612,94.906763 144.73872,94.991165 146.65849,94.768436 L 147.23953,94.352416 C 147.1767,94.495677 147.08997,94.629275 147.01818,94.768436 C 145.65181,97.136081 143.2814,98.750301 141.26302,100.50951 C 137.84927,103.17885 134.23595,105.73361 131.68954,106.91622 C 124.94772,109.6536 117.2155,110.19904 112.23822,116.29055 C 106.06449,122.89518 101.31416,130.69686 95.24944,137.39663 C 93.67109,139.11569 92.10594,140.82837 90.601043,142.61075 C 91.19742,139.05378 91.59884,135.46841 92.15051,131.90517 C 93.21726,124.8242 94.82388,117.62645 98.84641,111.57565 C 101.90373,107.39895 105.97322,103.9886 107.39614,98.789964 C 108.44332,95.470643 108.8068,92.048432 109.24997,88.611338 C 109.98557,88.428804 110.7195,88.326572 111.49115,88.417195 z "
         style="fill:#000000;fill-opacity:1;fill-rule:nonzero;stroke:none;stroke-width:1px;stroke-linecap:butt;stroke-linejoin:miter;stroke-opacity:1"
         sodipodi:nodetypes="cccccccccsscscccccccccccccccccccccccccccc" />
      <path
         sodipodi:nodetypes="ccccccccccccccccccccc"
         style="fill:url(#linearGradient1500);fill-opacity:1;fill-rule:nonzero;stroke:none;stroke-width:1px;stroke-linecap:butt;stroke-linejoin:miter;stroke-opacity:1"
         d="M 75.493757,92.438723 L 73.695269,93.326233 C 73.682299,93.483819 73.654195,93.640287 73.639931,93.797723 L 73.197227,93.991865 C 69.141887,98.949165 67.709711,98.3634 61.327216,99.150515 C 57.316297,99.420247 53.973374,100.53934 51.145016,103.42166 L 51.58772,103.80994 L 50.840656,104.28143 C 53.877741,106.39859 57.341823,107.85617 60.690828,109.41235 C 66.567481,111.90561 69.316976,117.74353 70.236642,123.75118 C 71.04255,129.40827 73.040111,134.85416 76.960215,139.08845 C 79.98942,142.20903 83.780279,144.20456 87.640458,146.07759 L 89.106916,145.10687 C 88.574423,144.86899 88.081409,144.55685 87.55745,144.30256 L 88.000154,143.99748 C 87.286462,143.47261 86.6957,142.85903 86.174,142.13926 C 83.893168,139.15996 82.386124,135.82395 81.525603,132.15478 C 80.6784,128.52247 80.050256,124.82131 79.284412,121.17185 C 78.971606,119.51644 78.580699,117.88106 77.873292,116.34601 C 76.172431,113.15686 73.973686,110.36718 74.054967,106.47247 C 73.885969,101.73598 74.875174,97.112198 75.493757,92.438723 z "
         id="path1739" />
      <path
         id="path1344"
         d="M 75.493757,92.438723 L 73.695269,93.326233 C 73.682299,93.483819 73.654195,93.640287 73.639931,93.797723 L 73.197227,93.991865 C 69.141887,98.949165 67.709711,98.3634 61.327216,99.150515 C 57.316297,99.420247 53.973374,100.53934 51.145016,103.42166 L 51.58772,103.80994 L 50.840656,104.28143 C 53.877741,106.39859 57.341823,107.85617 60.690828,109.41235 C 66.567481,111.90561 69.316976,117.74353 70.236642,123.75118 C 71.04255,129.40827 73.040111,134.85416 76.960215,139.08845 C 79.98942,142.20903 83.780279,144.20456 87.640458,146.07759 L 89.106916,145.10687 C 88.574423,144.86899 88.081409,144.55685 87.55745,144.30256 L 88.000154,143.99748 C 87.286462,143.47261 86.6957,142.85903 86.174,142.13926 C 83.893168,139.15996 82.386124,135.82395 81.525603,132.15478 C 80.6784,128.52247 80.050256,124.82131 79.284412,121.17185 C 78.971606,119.51644 78.580699,117.88106 77.873292,116.34601 C 76.172431,113.15686 73.973686,110.36718 74.054967,106.47247 C 73.885969,101.73598 74.875174,97.112198 75.493757,92.438723 z M 73.529256,94.712966 C 73.094272,98.888663 72.363659,103.02847 72.53317,107.24904 C 72.442877,111.16817 74.446176,114.0551 76.185482,117.28899 C 76.923913,118.79976 77.210041,120.48663 77.568933,122.11482 C 78.460415,125.71981 79.087852,129.38082 79.976138,132.98682 C 80.775025,136.43511 82.171607,139.58931 84.126491,142.49981 C 82.08388,141.26668 80.160754,139.88921 78.454342,138.1732 C 74.488331,134.00952 72.590076,128.53419 71.786107,122.91913 C 70.783019,116.92655 67.992998,110.97753 62.129618,108.46937 C 59.076286,107.06511 55.948863,105.63026 53.220192,103.64353 C 54.656104,102.06257 55.573768,100.92231 59.971434,100.14896 C 65.655395,99.374451 69.714011,98.486036 73.529256,94.712966 z "
         style="fill:#000000;fill-opacity:1;fill-rule:nonzero;stroke:none;stroke-width:1px;stroke-linecap:butt;stroke-linejoin:miter;stroke-opacity:1" />
      <path
         sodipodi:nodetypes="ccccccccccccsscccscccccccscc"
         style="fill:#00002f;fill-opacity:1;fill-rule:nonzero;stroke:none;stroke-width:1px;stroke-linecap:butt;stroke-linejoin:miter;stroke-opacity:1"
         d="M 150.06177,131.40594 L 148.3463,132.45986 C 148.47853,132.57235 148.65095,132.63237 148.789,132.73721 L 147.9866,133.15323 C 147.70792,136.12314 150.24226,136.2366 152.60733,136.92514 C 154.06019,137.06829 154.69068,138.47529 155.89994,139.00524 C 158.00623,138.32975 158.03338,137.62501 158.99887,136.09311 C 158.99887,136.09311 158.05587,135.10968 158.5285,134.26261 L 157.61542,134.67863 C 156.61674,134.54174 155.76033,134.24347 154.87619,133.70792 C 153.13857,133.30983 151.29958,132.7573 150.06177,131.40594 z M 148.95501,140.44744 C 147.78237,140.96099 147.4472,141.25655 147.37788,141.6123 C 147.36461,141.62317 147.36364,141.62893 147.35021,141.64004 C 147.28947,142.06138 147.58641,142.58481 147.43322,143.6092 C 147.19564,145.04868 148.56277,144.93326 149.53606,145.38422 C 150.52683,146.06694 151.38982,146.90102 152.21996,147.7694 C 152.95641,148.66716 153.45875,149.57222 154.59949,149.90497 C 155.36101,150.12215 155.9555,150.02535 156.48099,149.79403 C 156.72308,150.69443 157.89954,149.58118 157.3664,149.01746 C 157.79637,148.51657 158.20949,147.97611 158.44549,147.24244 C 158.62704,146.3239 158.9344,145.48444 159.60759,144.82953 C 159.60759,144.82953 159.17677,143.17439 159.57992,142.27793 L 157.78143,143.19318 C 157.51159,143.60087 157.13543,143.92095 156.84068,144.30256 C 156.34246,144.30994 155.70413,144.32953 155.37423,144.16389 C 154.09763,143.52288 153.02973,142.35681 151.9156,141.47363 C 151.04569,140.8145 150.00133,140.62453 148.95501,140.44744 z "
         id="path1733" />
      <path
         id="path1384"
         d="M 150.06177,131.40594 L 148.3463,132.45986 C 148.47853,132.57235 148.65095,132.63237 148.789,132.73721 L 147.9866,133.15323 C 147.70792,136.12314 150.24226,136.2366 152.60733,136.92514 C 154.06019,137.06829 154.69068,138.47529 155.89994,139.00524 C 158.00623,138.32975 158.03338,137.62501 158.99887,136.09311 L 157.20038,136.89741 C 157.093,137.08377 157.02046,137.20703 156.89603,137.39663 C 156.04756,136.79449 155.36918,135.83284 154.15679,135.84349 C 152.29292,135.35827 150.31975,135.09412 149.89576,133.4583 C 150.95759,134.0674 152.08749,134.55755 153.27139,134.84505 C 154.24637,135.32597 155.11308,135.75711 156.20429,135.89896 C 157.21587,135.87337 158.05587,135.10968 158.5285,134.26261 L 157.61542,134.67863 C 156.61674,134.54174 155.76033,134.24347 154.87619,133.70792 C 153.13857,133.30983 151.29958,132.7573 150.06177,131.40594 z M 148.95501,140.44744 C 147.78237,140.96099 147.4472,141.25655 147.37788,141.6123 C 147.36461,141.62317 147.36364,141.62893 147.35021,141.64004 C 147.28947,142.06138 147.58641,142.58481 147.43322,143.6092 C 147.19564,145.04868 148.56277,144.93326 149.53606,145.38422 C 150.52683,146.06694 151.38982,146.90102 152.21996,147.7694 C 152.95641,148.66716 153.45875,149.57222 154.59949,149.90497 C 155.36101,150.12215 155.9555,150.02535 156.48099,149.79403 C 156.72308,150.69443 157.89954,149.58118 157.3664,149.01746 C 157.79637,148.51657 158.20949,147.97611 158.44549,147.24244 C 158.62704,146.3239 158.9344,145.48444 159.60759,144.82953 L 157.75376,145.57836 C 157.14162,146.2966 156.84112,147.14558 156.67467,148.07448 C 156.54291,148.49426 156.64,148.50951 156.59167,148.79558 C 156.45585,148.79458 156.37839,148.7459 156.20429,148.76785 C 155.09733,148.50383 154.60818,147.60731 153.8801,146.77095 C 153.03276,145.88721 152.18967,144.96311 151.16854,144.27483 C 150.27878,143.84702 148.95965,143.9961 149.20403,142.72169 C 149.25014,142.45178 149.16197,142.39134 149.17636,142.16699 C 149.54549,142.30088 149.9472,142.28962 150.28313,142.49981 C 152.89929,144.36914 154.48776,146.82743 157.78143,144.63538 C 158.54757,143.99606 159.17677,143.17439 159.57992,142.27793 L 157.78143,143.19318 C 157.51159,143.60087 157.13543,143.92095 156.84068,144.30256 C 156.34246,144.30994 155.70413,144.32953 155.37423,144.16389 C 154.09763,143.52288 153.02973,142.35681 151.9156,141.47363 C 151.04569,140.8145 150.00133,140.62453 148.95501,140.44744 z "
         style="fill:#000000;fill-opacity:1;fill-rule:nonzero;stroke:none;stroke-width:1px;stroke-linecap:butt;stroke-linejoin:miter;stroke-opacity:1" />
      <path
         sodipodi:nodetypes="cccccccccc"
         id="path1473"
         d="M 74.377586,103.43035 C 75.997358,105.66221 79.294652,108.90665 82.090372,108.98071 C 86.662388,109.44581 91.276207,108.60785 95.583587,107.08333 C 98.239827,106.06396 101.81641,105.86268 103.45191,103.39797 C 103.70258,102.78938 103.36078,103.54104 103.23616,103.83401 C 101.69407,105.71153 99.641317,105.85882 97.486017,106.90001 C 94.334967,108.28822 90.995477,109.07028 87.590552,109.58396 C 84.837652,109.9426 82.38167,109.77759 79.639965,109.33271 C 77.466904,108.7645 75.883989,106.16339 74.416769,104.5216 C 74.823333,104.27804 73.971022,103.67392 74.377586,103.43035 z "
         style="fill:#000000;fill-opacity:1;fill-rule:nonzero;stroke:none;stroke-width:1px;stroke-linecap:butt;stroke-linejoin:miter;stroke-opacity:1" />
      <g
         transform="matrix(1.026078,-0.101831,8.614021e-2,0.983343,-14.34871,11.7315)"
         id="g1436">
        <path
           sodipodi:nodetypes="ccsc"
           id="path1538"
           d="M 125.78366,28.099219 C 116.8915,23.691228 106.05087,14.427998 70.276962,23.607366 C 73.38065,28.517199 111.93873,39.026921 112.79316,38.592789 C 113.91122,38.024702 125.27292,30.359705 125.78366,28.099219 z "
           style="fill:url(#linearGradient1476);fill-opacity:1;fill-rule:evenodd;stroke:none;stroke-width:1px;stroke-linecap:butt;stroke-linejoin:miter;stroke-opacity:1" />
        <path
           style="fill:#060404;fill-opacity:1;fill-rule:evenodd;stroke:none;stroke-width:1px;stroke-linecap:butt;stroke-linejoin:miter;stroke-opacity:1"
           d="M 120.48326,31.362556 C 121.67863,30.755186 116.77991,21.615422 104.86995,18.505008 C 80.453255,12.149768 74.271314,29.723736 74.556675,32.276241 C 74.754606,34.046732 114.95579,34.323919 120.48326,31.362556 z "
           id="path6716"
           sodipodi:nodetypes="cssc" />
        <path
           style="fill:#000000;fill-opacity:1;fill-rule:evenodd;stroke:none;stroke-width:1px;stroke-linecap:butt;stroke-linejoin:miter;stroke-opacity:1"
           d="M 104.9375,18.013364 C 101.24392,17.573362 97.782882,18.438196 94.263593,19.460912 C 86.539059,19.769474 78.646425,21.025943 71.15625,22.888364 C 69.394674,21.787585 68.988003,24.127401 69.704319,25.179803 C 71.0503,29.57682 73.029504,33.879486 73.129006,38.527414 C 74.172485,40.721498 76.537122,41.742627 78.624129,42.589264 C 87.310853,45.409792 97.066462,46.288042 106.17593,46.20524 C 110.91012,45.971709 119.47385,44.459084 121.66487,43.100557 C 121.87578,41.659737 124.00382,38.267266 124.77593,35.42008 C 125.3714,32.92023 126.05854,30.092538 127.18102,27.763364 C 126.02,27.036476 123.99631,26.802195 122.76824,25.942271 C 120.05273,24.478682 117.2861,23.071955 114.375,22.044614 C 111.71351,19.80622 108.41251,18.334735 104.9375,18.013364 z M 104.93651,18.517308 C 108.34867,18.810083 111.83286,20.92738 114.43454,23.106128 C 118.33854,24.491428 122.05123,26.332478 125.71481,28.2331 C 124.23956,31.733546 123.81769,35.660611 122.34635,39.138856 C 121.91944,43.051514 116.85427,43.93985 113.41001,44.577026 C 104.73238,45.928642 95.732338,45.494705 87.152319,43.897069 C 83.188967,42.991406 78.390213,41.827183 74.967376,39.514594 C 73.388224,37.982507 74.577527,35.23899 73.686656,33.278401 C 72.893084,30.065662 71.74485,26.957172 70.78125,23.794614 C 72.807678,23.911974 75.012369,22.799096 77.116005,22.567402 C 82.837041,21.353361 88.541739,20.186208 94.375986,19.922572 C 97.674328,18.783884 101.4565,18.156163 104.93651,18.517308 z "
           id="path3087"
           sodipodi:nodetypes="ccccccccccccccccccccccccc" />
        <path
           sodipodi:nodetypes="cssc"
           id="path1540"
           d="M 119.07608,33.436943 C 120.27145,32.829575 117.09139,20.780499 104.86995,18.505008 C 77.617029,13.455626 76.4872,31.269105 76.772562,33.82161 C 76.970493,35.592101 113.54861,36.398309 119.07608,33.436943 z "
           style="fill:url(#linearGradient1478);fill-opacity:1;fill-rule:evenodd;stroke:none;stroke-width:1px;stroke-linecap:butt;stroke-linejoin:miter;stroke-opacity:1" />
        <path
           style="fill:#060404;fill-opacity:1;fill-rule:evenodd;stroke:none;stroke-width:1px;stroke-linecap:butt;stroke-linejoin:miter;stroke-opacity:1"
           d="M 98.988164,30.885452 C 89.432923,30.076139 72.458407,25.484795 70.077323,22.855768 C 71.486642,27.626424 74.149386,34.514995 73.832463,38.272002 C 74.431964,43.634476 110.70668,49.479296 119.79219,42.587027 C 124.01496,39.573055 123.29519,33.274221 126.0356,27.555095 C 123.86489,30.103318 106.79885,31.547004 98.988164,30.885452 z "
           id="path6714"
           sodipodi:nodetypes="cccccs" />
        <path
           sodipodi:nodetypes="cccccs"
           id="path1536"
           d="M 99.054256,31.476647 C 89.499015,30.667333 72.524499,26.075989 70.143423,23.446963 C 71.552734,28.217618 74.149386,34.514995 73.832463,38.272002 C 74.431964,43.634476 111.8495,49.021452 120.6489,42.90622 C 124.87167,39.892248 123.11158,33.773614 125.85199,28.054489 C 123.68128,30.602709 106.86495,32.1382 99.054256,31.476647 z "
           style="fill:url(#linearGradient1480);fill-opacity:1;fill-rule:evenodd;stroke:none;stroke-width:1px;stroke-linecap:butt;stroke-linejoin:miter;stroke-opacity:1" />
      </g>
    </g>
  </g>
</svg>
