<?xml version="1.0" encoding="UTF-8" standalone="no"?>
<!-- Created with Inkscape (http://www.inkscape.org/) -->
<svg
   xmlns:dc="http://purl.org/dc/elements/1.1/"
   xmlns:cc="http://web.resource.org/cc/"
   xmlns:rdf="http://www.w3.org/1999/02/22-rdf-syntax-ns#"
   xmlns:svg="http://www.w3.org/2000/svg"
   xmlns="http://www.w3.org/2000/svg"
   xmlns:xlink="http://www.w3.org/1999/xlink"
   xmlns:sodipodi="http://sodipodi.sourceforge.net/DTD/sodipodi-0.dtd"
   xmlns:inkscape="http://www.inkscape.org/namespaces/inkscape"
   version="1.0"
   x="0.0000000"
   y="0.0000000"
   width="200.00000px"
   height="200.00000px"
   id="svg2"
   sodipodi:version="0.32"
   inkscape:version="0.45pre1"
   sodipodi:docname="sailor2.svg"
   sodipodi:docbase="/home/nicu/Desktop/clipart"
   inkscape:output_extension="org.inkscape.output.svg.inkscape"
   sodipodi:modified="true">
  <sodipodi:namedview
     inkscape:window-height="791"
     inkscape:window-width="1152"
     inkscape:pageshadow="2"
     inkscape:pageopacity="0.0"
     borderopacity="1.0"
     bordercolor="#666666"
     pagecolor="#ffffff"
     id="base"
     inkscape:zoom="1"
     inkscape:cx="100"
     inkscape:cy="151.03189"
     inkscape:window-x="0"
     inkscape:window-y="24"
     inkscape:current-layer="svg2" />
  <defs
     id="defs3">
    <linearGradient
       id="linearGradient10477">
      <stop
         style="stop-color:#c59e86;stop-opacity:1;"
         offset="0"
         id="stop10479" />
      <stop
         style="stop-color:#d5b8a6;stop-opacity:1.0000000;"
         offset="1.0000000"
         id="stop10481" />
    </linearGradient>
    <linearGradient
       id="linearGradient9709">
      <stop
         style="stop-color:#eae5ea;stop-opacity:1.0000000;"
         offset="0.0000000"
         id="stop9711" />
      <stop
         style="stop-color:#fbfafb;stop-opacity:1.0000000;"
         offset="1.0000000"
         id="stop9713" />
    </linearGradient>
    <defs
       id="defs877">
      <linearGradient
         x1="0.0000000"
         y1="0.50000000"
         x2="1.0000000"
         y2="0.50000000"
         id="linearGradient585"
         xlink:href="#linearGradient1017"
         gradientUnits="objectBoundingBox"
         spreadMethod="pad" />
      <linearGradient
         x1="0.0000000"
         y1="0.50000000"
         x2="1.0000000"
         y2="0.50000000"
         id="linearGradient579"
         xlink:href="#linearGradient1022"
         gradientUnits="objectBoundingBox"
         spreadMethod="pad" />
      <linearGradient
         x1="0.48529410"
         y1="0.51136363"
         x2="0.41176471"
         y2="0.60227275"
         id="linearGradient582"
         xlink:href="#linearGradient579" />
      <linearGradient
         x1="0.50735295"
         y1="0.12280702"
         x2="0.32720590"
         y2="1.0964912"
         id="linearGradient584"
         xlink:href="#linearGradient585" />
      <linearGradient
         id="linearGradient589"
         xlink:href="#linearGradient585" />
    </defs>
    <linearGradient
       id="linearGradient1017">
      <stop
         style="stop-color:#ffffff;stop-opacity:0.17500000"
         offset="0.0000000"
         id="stop1019" />
      <stop
         style="stop-color:#ffffff;stop-opacity:0.37500000"
         offset="1.0000000"
         id="stop1018" />
    </linearGradient>
    <linearGradient
       id="linearGradient1022">
      <stop
         style="stop-color:#000000;stop-opacity:0.40833300"
         offset="0.0000000"
         id="stop1024" />
      <stop
         style="stop-color:#000000;stop-opacity:0.0000000"
         offset="1.0000000"
         id="stop1023" />
    </linearGradient>
    <linearGradient
       inkscape:collect="always"
       xlink:href="#linearGradient9709"
       id="linearGradient1388"
       gradientUnits="userSpaceOnUse"
       gradientTransform="matrix(1.107976,0,0,1.107976,-33.073723,-23.507462)"
       x1="117.05887"
       y1="110.49046"
       x2="156.92096"
       y2="118.82380" />
    <linearGradient
       inkscape:collect="always"
       xlink:href="#linearGradient9709"
       id="linearGradient1393"
       gradientUnits="userSpaceOnUse"
       gradientTransform="matrix(1.107976,0,0,1.107976,-33.073723,-23.507462)"
       x1="140.38461"
       y1="61.477680"
       x2="127.24359"
       y2="46.474361" />
    <linearGradient
       inkscape:collect="always"
       xlink:href="#linearGradient9709"
       id="linearGradient1397"
       gradientUnits="userSpaceOnUse"
       gradientTransform="matrix(1.107976,0,0,1.107976,-33.073723,-23.507462)"
       x1="133.33333"
       y1="21.474358"
       x2="130.12820"
       y2="35.897434" />
    <linearGradient
       inkscape:collect="always"
       xlink:href="#linearGradient9709"
       id="linearGradient1401"
       gradientUnits="userSpaceOnUse"
       gradientTransform="matrix(1.107976,0,0,1.107976,-33.073723,-23.507462)"
       x1="98.397430"
       y1="32.371796"
       x2="106.41026"
       y2="40.814457" />
    <linearGradient
       inkscape:collect="always"
       xlink:href="#linearGradient10477"
       id="linearGradient1404"
       gradientUnits="userSpaceOnUse"
       gradientTransform="matrix(1.107976,0,0,1.107976,-33.073723,-23.507462)"
       x1="141.98718"
       y1="110.89744"
       x2="103.20513"
       y2="76.282051" />
    <linearGradient
       inkscape:collect="always"
       xlink:href="#linearGradient9709"
       id="linearGradient1408"
       gradientUnits="userSpaceOnUse"
       gradientTransform="matrix(1.107976,0,0,1.107976,-33.073723,-23.507462)"
       x1="108.01283"
       y1="101.28205"
       x2="92.948715"
       y2="116.02564" />
    <linearGradient
       inkscape:collect="always"
       xlink:href="#linearGradient9709"
       id="linearGradient1412"
       gradientUnits="userSpaceOnUse"
       gradientTransform="matrix(1.107976,0,0,1.107976,-33.073723,-23.507462)"
       x1="210.25641"
       y1="229.16667"
       x2="149.03847"
       y2="146.15384" />
  </defs>
  <metadata
     id="metadata186">
    <rdf:RDF>
      <cc:Work
         rdf:about="">
        <dc:title>sailor</dc:title>
        <dc:description />
        <dc:subject>
          <rdf:Bag>
            <rdf:li />
          </rdf:Bag>
        </dc:subject>
        <dc:publisher>
          <cc:Agent>
            <dc:title />
          </cc:Agent>
        </dc:publisher>
        <dc:creator>
          <cc:Agent>
            <dc:title>Nicu Buculei</dc:title>
          </cc:Agent>
        </dc:creator>
        <dc:rights>
          <cc:Agent>
            <dc:title>Nicu Buculei</dc:title>
          </cc:Agent>
        </dc:rights>
        <dc:date />
        <dc:format>image/svg+xml</dc:format>
        <dc:type
           rdf:resource="http://purl.org/dc/dcmitype/StillImage" />
        <cc:license
           rdf:resource="" />
        <dc:language>en</dc:language>
      </cc:Work>
    </rdf:RDF>
  </metadata>
  <path
     style="fill:#000000;fill-opacity:1;fill-rule:evenodd;stroke:none;stroke-width:1px;stroke-linecap:butt;stroke-linejoin:miter;stroke-opacity:1"
     d="M 113.07125,5.8070724 C 118.50417,6.1101362 123.19594,8.4797604 126.52881,11.01823 C 133.06982,13.072442 143.97494,18.354661 143.88848,18.560189 C 142.43141,22.023617 141.29778,34.678275 136.92979,38.927616 C 136.95028,39.009668 135.55973,56.654537 134.63531,59.687077 C 133.6271,62.994502 127.77017,69.51381 127.28581,77.596151 C 133.37825,76.150856 142.01467,88.394215 143.7316,90.799253 C 147.15696,95.597415 159.42369,101.42127 164.79551,104.04439 C 163.61945,104.13135 161.53287,105.40898 160.06025,105.60458 C 164.18004,108.85061 166.94632,111.31951 169.76761,115.34599 C 176.84358,125.44468 180.84884,169.77979 182.2677,188.30507 C 120.35468,193.0337 83.331294,203.3143 26.421201,187.67629 C 32.065401,158.71228 26.840286,125.09794 36.083167,109.95421 C 43.501302,97.80018 50.125426,97.28098 54.928289,94.415921 C 52.744114,93.377369 41.902762,97.4329 40.25332,96.887242 C 50.604547,98.055507 64.241821,85.247291 72.123341,83.042701 C 70.992472,78.72019 71.387948,71.820215 71.634337,69.047806 C 71.855789,66.555972 74.297989,58.616249 73.557266,53.916979 C 73.166118,51.435479 72.249814,48.125045 71.815368,45.368867 C 71.232549,41.671367 71.377645,40.159246 71.97907,37.67756 C 71.875785,37.479763 71.380072,33.516584 71.012426,31.875909 C 71.009417,31.862944 64.327462,18.171112 62.671215,13.370946 C 69.596008,10.685092 90.264856,9.3481945 98.925208,8.6629164 C 100.92947,7.8815222 110.31222,5.6531649 113.07125,5.8070724 z "
     id="path6718"
     sodipodi:nodetypes="ccscscsccsccscccssscsccs" />
  <path
     style="fill:url(#linearGradient1412);fill-opacity:1;fill-rule:evenodd;stroke:none;stroke-width:1px;stroke-linecap:butt;stroke-linejoin:miter;stroke-opacity:1"
     d="M 119.14616,73.543841 C 115.45502,73.114171 111.34896,75.994652 103.42552,74.671943 C 95.949686,73.423962 67.731408,91.43708 56.154408,94.468312 C 33.758519,105.44125 32.651642,118.93619 31.663679,133.95188 C 29.613674,148.65451 30.741266,160.81349 27.624347,186.79072 C 35.287279,188.95178 42.472238,190.4847 49.422187,191.70342 C 49.609712,186.43955 50.958416,181.05679 51.241706,175.8736 C 52.090283,160.20609 52.846112,160.38875 51.860342,144.1048 L 52.333417,143.88645 C 53.322994,160.2332 51.969514,159.70916 51.969514,176.01916 C 51.969512,181.44063 50.707103,186.73792 50.550289,191.84898 C 78.616865,196.60283 102.74168,194.40133 132.21031,191.52147 C 132.21746,186.01335 132.30585,180.49821 132.647,175.00023 C 132.81552,167.89076 138.23131,149.62134 139.56117,145.88792 C 140.49893,145.55518 140.38328,146.10978 139.96146,146.94325 C 137.47092,154.87479 135.65217,160.60266 134.21178,168.77748 C 133.13137,175.80426 133.50388,181.29618 133.3748,188.39189 C 133.13146,189.12723 133.41288,190.42478 133.3748,191.41229 C 147.60207,190.01977 162.75555,188.562 180.86425,187.51852 C 179.44541,168.99324 176.36809,126.32846 169.29211,116.22976 C 158.48525,100.80642 134.3603,92.732822 126.09673,79.511864 C 123.43622,75.255308 121.36084,73.801642 119.14616,73.543841 z "
     id="path1554" />
  <path
     sodipodi:nodetypes="cccssccs"
     id="path6712"
     d="M 87.604247,112.54997 C 91.408049,120.06993 86.485997,143.09826 87.775695,146.65071 C 85.922906,146.99602 83.386689,143.95927 82.772955,142.91881 C 81.767986,141.91715 78.823148,128.03537 76.048734,120.52208 C 73.800483,114.43367 66.188716,103.61614 65.788822,103.05596 C 62.952048,99.082298 46.919081,99.81134 39.390769,97.320887 C 57.44979,94.65505 62.421015,81.760731 80.831439,82.501285 C 82.037201,92.076782 82.732186,102.91805 87.604247,112.54997 z "
     style="fill:#000000;fill-opacity:1;fill-rule:evenodd;stroke:none;stroke-width:1px;stroke-linecap:butt;stroke-linejoin:miter;stroke-opacity:1" />
  <path
     style="fill:url(#linearGradient1408);fill-opacity:1;fill-rule:evenodd;stroke:none;stroke-width:1px;stroke-linecap:butt;stroke-linejoin:miter;stroke-opacity:1"
     d="M 86.238041,112.26956 C 90.041832,119.78952 85.682066,143.22769 86.74583,145.73448 C 85.972921,145.56566 84.54176,143.35585 83.928026,142.74413 C 82.923058,141.74246 79.663551,127.07667 76.889125,119.56335 C 74.640874,113.47495 67.716177,103.87113 67.316283,103.31097 C 64.479515,99.337287 49.375128,99.483873 41.846815,96.99342 C 58.067813,95.935863 60.510796,83.598754 84.43529,81.812025 C 80.975618,92.880457 81.365969,102.63764 86.238041,112.26956 z "
     id="path1548"
     sodipodi:nodetypes="cccssccs" />
  <path
     style="fill:url(#linearGradient1404);fill-opacity:1;fill-rule:evenodd;stroke:none;stroke-width:1px;stroke-linecap:butt;stroke-linejoin:miter;stroke-opacity:1"
     d="M 136.12522,38.713484 C 134.73094,43.286257 134.72051,56.397901 133.7961,59.430441 C 132.72596,62.941004 125.50535,71.462706 125.81717,80.067589 C 125.889,82.049887 130.36574,85.495934 131.29757,87.691828 C 132.14678,89.693055 130.97562,96.518645 131.64482,99.247342 C 133.92271,108.53575 107.50841,118.73428 93.613574,113.23731 C 87.799754,110.93727 83.964696,103.85037 84.397363,100.63195 C 84.402708,100.20839 83.978216,99.806601 83.613788,97.455572 C 77.60014,98.439126 76.571707,92.710173 75.152482,90.076126 C 73.506638,87.021465 72.309598,79.616518 71.912725,77.098698 C 71.450637,74.167153 72.05764,71.583615 72.304028,68.811206 C 72.52548,66.31937 74.86816,58.530107 74.127438,53.830837 C 73.736285,51.349335 72.848286,48.15797 72.413841,45.401793 C 71.68091,40.751984 73.13621,38.066552 74.416411,34.822825 C 79.377643,18.659308 133.40111,25.163263 136.12522,38.713484 z "
     id="path1544"
     sodipodi:nodetypes="csssssccssssscc" />
  <path
     style="fill:url(#linearGradient1401);fill-opacity:1;fill-rule:evenodd;stroke:none;stroke-width:1px;stroke-linecap:butt;stroke-linejoin:miter;stroke-opacity:1"
     d="M 142.73626,19.026473 C 118.99713,6.5222651 91.67799,7.7556558 63.788775,13.552546 C 68.345856,20.090518 124.43456,34.85891 125.57886,34.211134 C 127.07625,33.363483 142.17577,22.156286 142.73626,19.026473 z "
     id="path1538"
     sodipodi:nodetypes="ccsc" />
  <path
     sodipodi:nodetypes="cssc"
     id="path6716"
     d="M 135.03504,25.746994 C 136.63596,24.840728 130.01981,6.8124019 113.27799,5.1561247 C 84.367628,2.3159035 70.231019,21.764064 70.779704,25.244985 C 71.160284,27.659453 127.64173,30.147123 135.03504,25.746994 z "
     style="fill:#060404;fill-opacity:1;fill-rule:evenodd;stroke:none;stroke-width:1px;stroke-linecap:butt;stroke-linejoin:miter;stroke-opacity:1" />
  <path
     style="fill:url(#linearGradient1397);fill-opacity:1;fill-rule:evenodd;stroke:none;stroke-width:1px;stroke-linecap:butt;stroke-linejoin:miter;stroke-opacity:1"
     d="M 133.87216,26.756553 C 135.47308,25.850289 129.45375,6.9812323 112.67462,5.7594889 C 82.155294,3.5226308 71.4579,23.468523 72.006585,26.949444 C 72.387165,29.363911 126.47885,31.156685 133.87216,26.756553 z "
     id="path1540"
     sodipodi:nodetypes="cssc" />
  <path
     sodipodi:nodetypes="cccccs"
     id="path6714"
     d="M 106.18159,24.499395 C 93.03495,23.979955 66.894617,17.058098 63.468759,13.601659 C 65.694889,20.053461 72.360909,31.007399 72.158432,36.176423 C 73.311143,43.489376 123.39109,49.261283 135.4185,39.253713 C 141.0203,34.862014 139.64494,26.273085 143.048,18.265129 C 140.23005,21.891789 116.92798,24.924 106.18159,24.499395 z "
     style="fill:#060404;fill-opacity:1;fill-rule:evenodd;stroke:none;stroke-width:1px;stroke-linecap:butt;stroke-linejoin:miter;stroke-opacity:1" />
  <path
     style="fill:url(#linearGradient1393);fill-opacity:1;fill-rule:evenodd;stroke:none;stroke-width:1px;stroke-linecap:butt;stroke-linejoin:miter;stroke-opacity:1"
     d="M 106.30867,25.305625 C 93.162031,24.786183 67.174121,17.711903 63.748262,14.255465 C 65.974393,20.707266 72.360909,31.007399 72.158432,36.176423 C 73.311143,43.489376 123.39109,49.261283 135.4185,39.253713 C 141.0203,34.862014 139.42411,26.968902 142.82716,18.960947 C 140.00922,22.587603 117.05506,25.730229 106.30867,25.305625 z "
     id="path1536"
     sodipodi:nodetypes="cccccs" />
  <path
     style="fill:#000000;fill-opacity:1;fill-rule:evenodd;stroke:none;stroke-width:1px;stroke-linecap:butt;stroke-linejoin:miter;stroke-opacity:1"
     d="M 129.03426,48.503621 C 131.12776,48.827931 132.6323,50.849313 132.77004,52.895517 C 133.11414,55.369916 132.82557,57.942077 131.91298,60.267532 C 131.24724,61.512742 130.46752,61.76905 129.50834,62.799133 C 128.8815,63.374074 125.60368,64.25252 126.13784,63.678704 C 126.53392,63.409557 127.06597,63.480911 127.50275,63.288068 C 128.23937,63.069315 128.66425,62.389261 129.16626,61.862054 C 129.86444,60.957154 130.98582,60.556086 131.28884,59.430598 C 131.83955,57.47521 132.27147,54.835649 131.87652,52.822592 C 131.66776,51.769096 130.72091,50.133548 129.72284,49.61147 C 128.998,49.163017 128.00124,49.865671 127.35013,50.388896 C 126.58295,50.944345 125.98141,51.709022 125.44926,52.478051 C 125.12336,53.322353 125.24195,52.610365 125.34134,51.987715 C 125.47781,51.218867 127.70951,48.326234 129.03426,48.503621 z "
     id="path1542"
     sodipodi:nodetypes="ccccccccscccsc" />
  <path
     sodipodi:nodetypes="cscsccsscc"
     id="path5984"
     d="M 125.8116,78.636005 C 133.2629,76.049191 141.1819,89.51611 142.91542,91.944403 C 146.3408,96.742577 157.91709,102.05352 163.28892,104.67662 C 154.61411,105.31813 136.16745,109.32598 133.09687,110.62896 C 129.27042,112.25271 95.051233,142.39835 90.339127,150.28034 C 91.492114,149.38939 86.942233,146.09871 87.776778,146.23031 C 87.136645,142.16926 95.577526,129.22102 99.56873,125.44545 C 104.95292,120.35215 127.05835,107.07398 129.74498,100.42641 C 130.64572,98.197692 132.52756,86.685311 126.13132,81.908261 C 125.62846,81.627374 125.80277,79.011704 125.8116,78.636005 z "
     style="fill:#000000;fill-opacity:1;fill-rule:evenodd;stroke:none;stroke-width:1px;stroke-linecap:butt;stroke-linejoin:miter;stroke-opacity:1" />
  <path
     style="fill:url(#linearGradient1388);fill-opacity:1;fill-rule:evenodd;stroke:none;stroke-width:1px;stroke-linecap:butt;stroke-linejoin:miter;stroke-opacity:1"
     d="M 125.8116,78.636005 C 133.2629,76.049191 141.1819,89.51611 142.91542,91.944403 C 146.3408,96.742577 156.37122,101.35435 161.74305,103.97745 C 153.06824,104.61896 135.91277,108.50589 132.84219,109.80888 C 129.01575,111.43264 94.173323,138.81756 90.318667,148.62886 C 90.185449,147.7379 88.61937,147.04493 88.489249,146.10471 C 88.063488,142.04366 96.076324,129.05505 100.31537,125.56005 C 105.93707,120.92505 128.18133,106.89697 130.86797,100.2494 C 131.7687,98.020689 132.22256,84.750367 125.82632,79.973309 C 125.88494,79.603917 125.80277,79.011704 125.8116,78.636005 z "
     id="path1546"
     sodipodi:nodetypes="cscsccsscc" />
  <path
     style="fill:#00002f;fill-opacity:1;fill-rule:evenodd;stroke:none;stroke-width:1px;stroke-linecap:butt;stroke-linejoin:miter;stroke-opacity:1"
     d="M 129.12027,117.36755 C 108.98366,133.93494 104.94895,152.02629 91.313795,152.70096 C 91.431048,151.03533 91.309964,150.33893 90.594512,149.15409 C 91.686037,148.3599 98.398986,140.14995 101.02558,137.09697 C 104.42612,133.14442 111.064,128.34091 115.1202,124.47923 C 118.10818,121.63454 128.26485,112.74757 133.68255,109.77619 C 133.36486,112.82144 131.15811,115.46293 129.12027,117.36755 z "
     id="path1558"
     sodipodi:nodetypes="cccsscc" />
  <path
     style="fill:#00002f;fill-opacity:1;fill-rule:evenodd;stroke:none;stroke-width:1px;stroke-linecap:butt;stroke-linejoin:miter;stroke-opacity:1"
     d="M 69.931338,108.04019 C 70.563883,107.74653 68.019379,119.49531 71.533691,129.01231 C 72.733333,132.26104 76.395415,144.8696 79.461255,145.838 C 80.248429,143.13079 81.032353,142.66399 82.512644,141.94262 C 81.384123,137.57039 78.894823,129.0286 77.608012,124.12408 C 76.53074,120.01816 72.812225,112.88079 69.931338,108.04019 z "
     id="path1560"
     sodipodi:nodetypes="csccsc" />
  <path
     style="fill:#00002f;fill-opacity:1;fill-rule:evenodd;stroke:none;stroke-width:1px;stroke-linecap:butt;stroke-linejoin:miter;stroke-opacity:1"
     d="M 82.443462,142.84065 C 84.205234,146.81927 87.930025,146.11102 90.311004,149.44628 C 91.571684,151.21218 90.613307,157.54725 90.128307,159.07542 C 89.199718,162.00144 89.077889,163.29125 85.470967,162.14655 C 82.510443,161.20701 79.559573,160.22712 79.063546,157.08028 C 78.681313,154.65529 80.170978,152.24491 79.737612,149.49558 C 79.27758,146.57712 80.330246,144.60889 82.443462,142.84065 z "
     id="path1562"
     sodipodi:nodetypes="csssssc" />
  <path
     style="fill:#00002f;fill-opacity:1;fill-rule:evenodd;stroke:none;stroke-width:1px;stroke-linecap:butt;stroke-linejoin:miter;stroke-opacity:1"
     d="M 90.933915,158.16255 C 90.430854,168.79965 97.878527,174.36653 95.524646,181.84387 C 95.311928,182.51958 91.849578,192.59113 90.871521,194.43746 C 90.310911,195.49566 84.168378,180.57021 83.954309,179.21214 C 83.489211,176.26141 84.460339,165.05229 86.623255,162.88594 C 88.488632,163.53256 89.946786,162.2032 90.933915,158.16255 z "
     id="path1564"
     sodipodi:nodetypes="cssscc" />
  <path
     style="fill:#00002f;fill-opacity:1;fill-rule:evenodd;stroke:none;stroke-width:1px;stroke-linecap:butt;stroke-linejoin:miter;stroke-opacity:1"
     d="M 78.651595,154.66185 C 75.383692,156.1647 68.582996,163.32202 67.347134,168.74256 C 66.520209,172.36942 67.449899,176.97541 68.30409,180.74421 C 69.651141,186.68757 69.114331,187.79771 71.953975,182.3948 C 74.167974,178.18228 78.560439,175.17537 78.766857,170.15041 C 78.91965,166.43113 78.460619,164.15983 80.124177,159.89219 C 78.892308,159.07822 78.411698,155.81052 78.651595,154.66185 z "
     id="path1566"
     sodipodi:nodetypes="csssscc" />
  <path
     style="fill:#000000;fill-opacity:1;fill-rule:evenodd;stroke:none;stroke-width:1px;stroke-linecap:butt;stroke-linejoin:miter;stroke-opacity:1"
     d="M 118.83749,82.809892 L 119.01212,83.220865 C 119.01212,83.220865 116.30548,86.6584 110.43258,90.10702 C 104.5597,93.555653 97.462478,96.044592 83.868078,97.746125 L 83.483412,97.117625 C 97.128606,96.103678 105.20884,92.531878 110.90122,89.189249 C 116.5936,85.84662 118.83749,82.809892 118.83749,82.809892 z "
     id="path5980"
     sodipodi:nodetypes="ccsccsc" />
  <path
     style="fill:#000000;fill-opacity:1;fill-rule:evenodd;stroke:none;stroke-width:1px;stroke-linecap:butt;stroke-linejoin:miter;stroke-opacity:1"
     d="M 87.834153,109.89977 L 87.741319,109.98474 C 90.449055,113.89592 93.481172,115.8647 97.802009,116.52872 C 102.12285,117.19275 106.39438,116.45683 111.67137,115.32081 L 111.96725,114.92029 C 106.75133,116.04315 101.93591,116.58839 97.840565,115.95902 C 93.74522,115.32964 90.372874,113.56681 87.834153,109.89977 z "
     id="path9686"
     sodipodi:nodetypes="ccsccsc" />
  <path
     style="fill:#00002f;fill-opacity:1;fill-rule:evenodd;stroke:none;stroke-width:1px;stroke-linecap:butt;stroke-linejoin:miter;stroke-opacity:1"
     d="M 159.76397,149.12051 C 163.44988,151.02608 167.13577,151.70787 170.82168,151.77779 L 174.80609,146.41309 L 176.52045,147.95602 L 172.27891,154.52078 C 168.39694,154.85484 165.12687,154.16909 160.02113,152.46353 L 159.76397,149.12051 z "
     id="path10489"
     sodipodi:nodetypes="ccccccc" />
  <path
     sodipodi:nodetypes="ccccccc"
     id="path11217"
     d="M 159.30911,156.39239 C 163.45399,158.53525 167.59887,159.30196 171.74376,159.38057 L 176.22431,153.34784 L 178.15216,155.08291 L 173.38244,162.46514 C 169.01707,162.84079 165.33981,162.06965 159.59828,160.15171 L 159.30911,156.39239 z "
     style="fill:#00002f;fill-opacity:1;fill-rule:evenodd;stroke:none;stroke-width:1px;stroke-linecap:butt;stroke-linejoin:miter;stroke-opacity:1" />
</svg>
