<?xml version="1.0" encoding="UTF-8" standalone="no"?>
<!-- Created with Inkscape (http://www.inkscape.org/) -->
<svg
   xmlns:svg="http://www.w3.org/2000/svg"
   xmlns="http://www.w3.org/2000/svg"
   xmlns:xlink="http://www.w3.org/1999/xlink"
   version="1.0"
   x="0.0000000"
   y="0.0000000"
   width="128.00000"
   height="128.00000"
   id="svg2">
  <defs
     id="defs3">
    <radialGradient
       cx="233.70842"
       cy="485.98422"
       r="94.294106"
       fx="233.70842"
       fy="485.98422"
       id="radialGradient1538"
       xlink:href="#linearGradient2158"
       gradientUnits="userSpaceOnUse"
       gradientTransform="matrix(1.583513,0.000000,0.000000,0.631507,-149.0000,-58.00000)" />
    <radialGradient
       cx="233.70842"
       cy="485.98422"
       r="94.294106"
       fx="233.70842"
       fy="485.98422"
       id="radialGradient1535"
       xlink:href="#linearGradient2158"
       gradientUnits="userSpaceOnUse"
       gradientTransform="scale(1.583513,0.631507)" />
    <radialGradient
       cx="321.62225"
       cy="178.92831"
       r="131.78770"
       fx="321.62225"
       fy="178.92831"
       id="radialGradient1533"
       xlink:href="#linearGradient2158"
       gradientUnits="userSpaceOnUse"
       gradientTransform="scale(1.172604,0.852803)" />
    <radialGradient
       cx="406.82639"
       cy="330.72800"
       r="134.21751"
       fx="406.82639"
       fy="330.72800"
       id="radialGradient1531"
       xlink:href="#linearGradient2216"
       gradientUnits="userSpaceOnUse"
       gradientTransform="scale(1.005698,0.994334)" />
    <linearGradient
       id="linearGradient2341">
      <stop
         style="stop-color:#ffffff;stop-opacity:0.53370786"
         offset="0.0000000"
         id="stop2342" />
      <stop
         style="stop-color:#ffffff;stop-opacity:0.0000000"
         offset="1.0000000"
         id="stop2343" />
    </linearGradient>
    <linearGradient
       id="linearGradient2152">
      <stop
         style="stop-color:#ffffff;stop-opacity:1.0000000"
         offset="0.0000000"
         id="stop2153" />
      <stop
         style="stop-color:#ffffff;stop-opacity:0.49803922"
         offset="0.0099999998"
         id="stop2778" />
      <stop
         style="stop-color:#ffffff;stop-opacity:0.0000000"
         offset="1.0000000"
         id="stop2154" />
    </linearGradient>
    <linearGradient
       id="linearGradient4533">
      <stop
         style="stop-color:#ffffff;stop-opacity:1.0000000"
         offset="0.0000000"
         id="stop4534" />
      <stop
         style="stop-color:#ffffff;stop-opacity:0.0000000"
         offset="1.0000000"
         id="stop4535" />
    </linearGradient>
    <linearGradient
       id="linearGradient980">
      <stop
         style="stop-color:#ffffff;stop-opacity:0.0000000"
         offset="0.0000000"
         id="stop981" />
      <stop
         style="stop-color:#ffffff;stop-opacity:0.10000000"
         offset="0.50000000"
         id="stop983" />
      <stop
         style="stop-color:#ffffff;stop-opacity:0.0000000"
         offset="1.0000000"
         id="stop982" />
    </linearGradient>
    <linearGradient
       id="linearGradient966">
      <stop
         style="stop-color:#ffffff;stop-opacity:0.14166667"
         offset="0.0000000"
         id="stop967" />
      <stop
         style="stop-color:#ffffff;stop-opacity:0.0000000"
         offset="1.0000000"
         id="stop968" />
    </linearGradient>
    <linearGradient
       id="linearGradient961">
      <stop
         style="stop-color:#175fd5;stop-opacity:1.0000000"
         offset="0.0000000"
         id="stop962" />
      <stop
         style="stop-color:#00407f;stop-opacity:1.0000000"
         offset="1.0000000"
         id="stop963" />
    </linearGradient>
    <linearGradient
       id="linearGradient973">
      <stop
         style="stop-color:#cccccc;stop-opacity:1.0000000"
         offset="0.0000000"
         id="stop974" />
      <stop
         style="stop-color:#e6e6e6;stop-opacity:1.0000000"
         offset="1.0000000"
         id="stop975" />
    </linearGradient>
    <linearGradient
       id="linearGradient904">
      <stop
         style="stop-color:#ff0000;stop-opacity:0.49803922"
         offset="0.0000000"
         id="stop905" />
      <stop
         style="stop-color:#ffffff;stop-opacity:0.0000000"
         offset="1.0000000"
         id="stop906" />
    </linearGradient>
    <linearGradient
       id="linearGradient891">
      <stop
         style="stop-color:#ffffff;stop-opacity:0.50000000"
         offset="0.0000000"
         id="stop892" />
      <stop
         style="stop-color:#ffffff;stop-opacity:0.0000000"
         offset="1.0000000"
         id="stop893" />
    </linearGradient>
    <linearGradient
       x1="-0.017605634"
       y1="-0.51219511"
       x2="0.63028169"
       y2="0.58536583"
       id="linearGradient894"
       xlink:href="#linearGradient6797" />
    <linearGradient
       x1="-0.016528925"
       y1="0.17666666"
       x2="0.82644629"
       y2="0.47000000"
       id="linearGradient897"
       xlink:href="#linearGradient891" />
    <linearGradient
       x1="-0.59550560"
       y1="0.29666665"
       x2="1.0000000"
       y2="0.50000000"
       id="linearGradient903"
       xlink:href="#linearGradient6797" />
    <linearGradient
       x1="2.8888888"
       y1="0.22333333"
       x2="0.098765433"
       y2="0.54333335"
       id="linearGradient915"
       xlink:href="#linearGradient6797" />
    <linearGradient
       x1="0.48974943"
       y1="0.10126583"
       x2="0.48747152"
       y2="0.97468352"
       id="linearGradient929"
       xlink:href="#linearGradient2341" />
    <linearGradient
       x1="0.35869566"
       y1="-0.071428575"
       x2="0.88768119"
       y2="0.46428570"
       id="linearGradient935"
       xlink:href="#linearGradient904" />
    <linearGradient
       x1="0.61231881"
       y1="-0.96666664"
       x2="0.95652175"
       y2="1.4666667"
       id="linearGradient939"
       xlink:href="#linearGradient904" />
    <linearGradient
       x1="1.0000000"
       y1="0.92187500"
       x2="-0.10465116"
       y2="0.17968750"
       id="linearGradient972"
       xlink:href="#linearGradient973" />
    <linearGradient
       x1="0.93269229"
       y1="0.67968750"
       x2="0.22115384"
       y2="0.17968750"
       id="linearGradient976"
       xlink:href="#linearGradient973" />
    <linearGradient
       x1="0.75000000"
       y1="0.76562500"
       x2="0.32031250"
       y2="0.32031250"
       id="linearGradient977"
       xlink:href="#linearGradient973" />
    <linearGradient
       x1="0.89189190"
       y1="0.78906250"
       x2="0.033783782"
       y2="0.14062500"
       id="linearGradient978"
       xlink:href="#linearGradient973" />
    <linearGradient
       x1="0.16666667"
       y1="0.11718750"
       x2="1.2586207"
       y2="0.80468750"
       id="linearGradient960"
       xlink:href="#linearGradient961" />
    <linearGradient
       x1="0.063953489"
       y1="0.89843750"
       x2="1.0348837"
       y2="0.25000000"
       id="linearGradient965"
       xlink:href="#linearGradient966" />
    <radialGradient
       cx="0.48255813"
       cy="0.53906250"
       r="0.26562631"
       fx="0.48255813"
       fy="0.53906250"
       id="radialGradient971"
       xlink:href="#linearGradient891" />
    <linearGradient
       x1="0.11046512"
       y1="0.58593750"
       x2="0.30232558"
       y2="0.37500000"
       id="linearGradient974"
       xlink:href="#linearGradient980"
       spreadMethod="repeat" />
    <linearGradient
       id="linearGradient1426"
       xlink:href="#linearGradient585" />
    <linearGradient
       x1="0.50735295"
       y1="0.12280702"
       x2="0.32720590"
       y2="1.0964912"
       id="linearGradient1427"
       xlink:href="#linearGradient585" />
    <linearGradient
       x1="0.48529410"
       y1="0.51136363"
       x2="0.41176471"
       y2="0.60227275"
       id="linearGradient1428"
       xlink:href="#linearGradient579" />
    <linearGradient
       id="linearGradient1429">
      <stop
         style="stop-color:#000000;stop-opacity:0.40833300"
         offset="0.0000000"
         id="stop580" />
      <stop
         style="stop-color:#000000;stop-opacity:0.0000000"
         offset="1.0000000"
         id="stop581" />
    </linearGradient>
    <linearGradient
       id="linearGradient1432">
      <stop
         style="stop-color:#ffffff;stop-opacity:0.17500000"
         offset="0.0000000"
         id="stop586" />
      <stop
         style="stop-color:#ffffff;stop-opacity:0.37500000"
         offset="1.0000000"
         id="stop587" />
    </linearGradient>
    <linearGradient
       id="linearGradient4579">
      <stop
         style="stop-color:#ffb700;stop-opacity:1.0000000"
         offset="0.0000000"
         id="stop4580" />
      <stop
         style="stop-color:#ffb700;stop-opacity:0.0000000"
         offset="1.0000000"
         id="stop4581" />
    </linearGradient>
    <linearGradient
       id="linearGradient4582">
      <stop
         style="stop-color:#ebf1fe;stop-opacity:1.0000000"
         offset="0.0000000"
         id="stop4583" />
      <stop
         style="stop-color:#ffffff;stop-opacity:1.0000000"
         offset="0.065399311"
         id="stop4584" />
      <stop
         style="stop-color:#d9e6fc;stop-opacity:1.0000000"
         offset="0.21078238"
         id="stop4585" />
      <stop
         style="stop-color:#b1ccf9;stop-opacity:1.0000000"
         offset="0.42636806"
         id="stop4586" />
      <stop
         style="stop-color:#b1ccf9;stop-opacity:1.0000000"
         offset="0.68247312"
         id="stop4587" />
      <stop
         style="stop-color:#d9e6fc;stop-opacity:1.0000000"
         offset="0.80313528"
         id="stop4588" />
      <stop
         style="stop-color:#fffffe;stop-opacity:1.0000000"
         offset="0.92785835"
         id="stop4589" />
      <stop
         style="stop-color:#ebf1fe;stop-opacity:1.0000000"
         offset="1.0000000"
         id="stop4590" />
    </linearGradient>
    <linearGradient
       id="linearGradient2302">
      <stop
         style="stop-color:#2c3d78;stop-opacity:1.0000000"
         offset="0.0000000"
         id="stop2303" />
      <stop
         style="stop-color:#ffffff;stop-opacity:1.0000000"
         offset="1.0000000"
         id="stop2304" />
    </linearGradient>
    <linearGradient
       x1="0.36029410"
       y1="0.065789476"
       x2="0.52941179"
       y2="0.78947371"
       id="linearGradient1026"
       xlink:href="#linearGradient1017" />
    <linearGradient
       x1="0.41911766"
       y1="0.19298245"
       x2="0.73897058"
       y2="0.75438595"
       id="linearGradient1025"
       xlink:href="#linearGradient1017" />
    <linearGradient
       x1="0.33088234"
       y1="0.018181818"
       x2="0.72794116"
       y2="0.45454547"
       id="linearGradient1021"
       xlink:href="#linearGradient1022" />
    <defs
       id="defs877">
      <linearGradient
         x1="0.0000000"
         y1="0.50000000"
         x2="1.0000000"
         y2="0.50000000"
         id="linearGradient585"
         xlink:href="#linearGradient1017"
         gradientUnits="objectBoundingBox"
         spreadMethod="pad" />
      <linearGradient
         x1="0.0000000"
         y1="0.50000000"
         x2="1.0000000"
         y2="0.50000000"
         id="linearGradient579"
         xlink:href="#linearGradient1022"
         gradientUnits="objectBoundingBox"
         spreadMethod="pad" />
      <linearGradient
         x1="0.48529410"
         y1="0.51136363"
         x2="0.41176471"
         y2="0.60227275"
         id="linearGradient582"
         xlink:href="#linearGradient579" />
      <linearGradient
         x1="0.50735295"
         y1="0.12280702"
         x2="0.32720590"
         y2="1.0964912"
         id="linearGradient584"
         xlink:href="#linearGradient585" />
      <linearGradient
         id="linearGradient589"
         xlink:href="#linearGradient585" />
    </defs>
    <linearGradient
       id="linearGradient1017">
      <stop
         style="stop-color:#ffffff;stop-opacity:0.17500000"
         offset="0.0000000"
         id="stop1019" />
      <stop
         style="stop-color:#ffffff;stop-opacity:0.37500000"
         offset="1.0000000"
         id="stop1018" />
    </linearGradient>
    <linearGradient
       id="linearGradient1022">
      <stop
         style="stop-color:#000000;stop-opacity:0.40833300"
         offset="0.0000000"
         id="stop1024" />
      <stop
         style="stop-color:#000000;stop-opacity:0.0000000"
         offset="1.0000000"
         id="stop1023" />
    </linearGradient>
    <linearGradient
       x1="0.36029410"
       y1="0.065789476"
       x2="0.52941179"
       y2="0.78947371"
       id="linearGradient2998"
       xlink:href="#linearGradient1017" />
    <linearGradient
       x1="0.41911766"
       y1="0.19298245"
       x2="0.73897058"
       y2="0.75438595"
       id="linearGradient2997"
       xlink:href="#linearGradient1017" />
    <linearGradient
       x1="0.33088234"
       y1="0.018181818"
       x2="0.72794116"
       y2="0.45454547"
       id="linearGradient2996"
       xlink:href="#linearGradient1022" />
    <defs
       id="defs2989">
      <linearGradient
         x1="0.0000000"
         y1="0.50000000"
         x2="1.0000000"
         y2="0.50000000"
         id="linearGradient2990"
         xlink:href="#linearGradient1017"
         gradientUnits="objectBoundingBox"
         spreadMethod="pad" />
      <linearGradient
         x1="0.0000000"
         y1="0.50000000"
         x2="1.0000000"
         y2="0.50000000"
         id="linearGradient2991"
         xlink:href="#linearGradient1022"
         gradientUnits="objectBoundingBox"
         spreadMethod="pad" />
      <linearGradient
         x1="0.48529410"
         y1="0.51136363"
         x2="0.41176471"
         y2="0.60227275"
         id="linearGradient2992"
         xlink:href="#linearGradient579" />
      <linearGradient
         x1="0.50735295"
         y1="0.12280702"
         x2="0.32720590"
         y2="1.0964912"
         id="linearGradient2993"
         xlink:href="#linearGradient585" />
      <linearGradient
         id="linearGradient2994"
         xlink:href="#linearGradient585" />
    </defs>
    <linearGradient
       id="linearGradient2986">
      <stop
         style="stop-color:#ffffff;stop-opacity:0.17500000"
         offset="0.0000000"
         id="stop2987" />
      <stop
         style="stop-color:#ffffff;stop-opacity:0.37500000"
         offset="1.0000000"
         id="stop2988" />
    </linearGradient>
    <linearGradient
       id="linearGradient2983">
      <stop
         style="stop-color:#000000;stop-opacity:0.40833300"
         offset="0.0000000"
         id="stop2984" />
      <stop
         style="stop-color:#000000;stop-opacity:0.0000000"
         offset="1.0000000"
         id="stop2985" />
    </linearGradient>
    <linearGradient
       x1="13.786968"
       y1="699.98694"
       x2="134.36034"
       y2="1382.2166"
       id="linearGradient5268"
       xlink:href="#linearGradient2152"
       gradientUnits="userSpaceOnUse"
       gradientTransform="scale(1.831622,0.545964)" />
    <linearGradient
       id="linearGradient6517">
      <stop
         style="stop-color:#002f8a;stop-opacity:1.0000000"
         offset="0.0000000"
         id="stop6518" />
      <stop
         style="stop-color:#005dcc;stop-opacity:1.0000000"
         offset="1.0000000"
         id="stop6520" />
    </linearGradient>
    <linearGradient
       id="linearGradient8387">
      <stop
         style="stop-color:#ffffff;stop-opacity:0.0000000"
         offset="0.0000000"
         id="stop8388" />
      <stop
         style="stop-color:#ffffff;stop-opacity:0.098039217"
         offset="0.42613181"
         id="stop8392" />
      <stop
         style="stop-color:#ffffff;stop-opacity:0.16853933"
         offset="0.52207208"
         id="stop8389" />
      <stop
         style="stop-color:#ffffff;stop-opacity:0.098039217"
         offset="0.63933450"
         id="stop8391" />
      <stop
         style="stop-color:#ffffff;stop-opacity:0.0000000"
         offset="1.0000000"
         id="stop8390" />
    </linearGradient>
    <linearGradient
       x1="0.51025057"
       y1="-0.47945204"
       x2="0.71526194"
       y2="0.53424656"
       id="linearGradient3566"
       xlink:href="#linearGradient1000" />
    <linearGradient
       x1="0.13870353"
       y1="-0.69288188"
       x2="0.70929706"
       y2="0.69737554"
       id="linearGradient3534"
       xlink:href="#linearGradient1000" />
    <linearGradient
       id="linearGradient2216">
      <stop
         style="stop-color:#3a79ff;stop-opacity:1.0000000"
         offset="0.0000000"
         id="stop2217" />
      <stop
         style="stop-color:#0044d5;stop-opacity:1.0000000"
         offset="1.0000000"
         id="stop2220" />
    </linearGradient>
    <linearGradient
       id="linearGradient1003">
      <stop
         style="stop-color:#091f75;stop-opacity:1.0000000"
         offset="0.0000000"
         id="stop1004" />
      <stop
         style="stop-color:#091f92;stop-opacity:1.0000000"
         offset="1.0000000"
         id="stop1005" />
    </linearGradient>
    <linearGradient
       id="linearGradient1006">
      <stop
         style="stop-color:#ffb700;stop-opacity:1.0000000"
         offset="0.0000000"
         id="stop1007" />
      <stop
         style="stop-color:#ffb700;stop-opacity:0.0000000"
         offset="1.0000000"
         id="stop1008" />
    </linearGradient>
    <linearGradient
       id="linearGradient1009">
      <stop
         style="stop-color:#ebf1fe;stop-opacity:1.0000000"
         offset="0.0000000"
         id="stop1010" />
      <stop
         style="stop-color:#ffffff;stop-opacity:1.0000000"
         offset="0.065399311"
         id="stop1011" />
      <stop
         style="stop-color:#d9e6fc;stop-opacity:1.0000000"
         offset="0.21078238"
         id="stop1012" />
      <stop
         style="stop-color:#b1ccf9;stop-opacity:1.0000000"
         offset="0.42636806"
         id="stop1013" />
      <stop
         style="stop-color:#b1ccf9;stop-opacity:1.0000000"
         offset="0.68247312"
         id="stop1014" />
      <stop
         style="stop-color:#d9e6fc;stop-opacity:1.0000000"
         offset="0.80313528"
         id="stop1015" />
      <stop
         style="stop-color:#fffffe;stop-opacity:1.0000000"
         offset="0.92785835"
         id="stop1016" />
      <stop
         style="stop-color:#ebf1fe;stop-opacity:1.0000000"
         offset="1.0000000"
         id="stop1017" />
    </linearGradient>
    <radialGradient
       cx="0.63455147"
       cy="0.74333334"
       r="0.61008948"
       fx="0.63455147"
       fy="0.74333334"
       id="radialGradient5990"
       xlink:href="#linearGradient2216" />
    <radialGradient
       cx="0.48747152"
       cy="0.14492753"
       r="0.86453021"
       fx="0.48747152"
       fy="0.14492753"
       id="radialGradient7235"
       xlink:href="#linearGradient2158" />
    <radialGradient
       cx="0.51936221"
       cy="0.61016947"
       r="0.59659266"
       fx="0.51936221"
       fy="0.61016947"
       id="radialGradient7861"
       xlink:href="#linearGradient2158" />
    <linearGradient
       x1="0.87927109"
       y1="0.87043190"
       x2="0.28473803"
       y2="0.14617941"
       id="linearGradient12887"
       xlink:href="#linearGradient6797" />
    <linearGradient
       id="linearGradient5595">
      <stop
         style="stop-color:#ebf1fe;stop-opacity:1.0000000"
         offset="0.0000000"
         id="stop5596" />
      <stop
         style="stop-color:#ffffff;stop-opacity:1.0000000"
         offset="0.065399311"
         id="stop6221" />
      <stop
         style="stop-color:#d9e6fc;stop-opacity:1.0000000"
         offset="0.21078238"
         id="stop6223" />
      <stop
         style="stop-color:#b1ccf9;stop-opacity:1.0000000"
         offset="0.42636806"
         id="stop6224" />
      <stop
         style="stop-color:#b1ccf9;stop-opacity:1.0000000"
         offset="0.68247312"
         id="stop6228" />
      <stop
         style="stop-color:#d9e6fc;stop-opacity:1.0000000"
         offset="0.80313528"
         id="stop6225" />
      <stop
         style="stop-color:#fffffe;stop-opacity:1.0000000"
         offset="0.92785835"
         id="stop6222" />
      <stop
         style="stop-color:#ebf1fe;stop-opacity:1.0000000"
         offset="1.0000000"
         id="stop5597" />
    </linearGradient>
    <linearGradient
       id="linearGradient5547">
      <stop
         style="stop-color:#ffb700;stop-opacity:1.0000000"
         offset="0.0000000"
         id="stop5548" />
      <stop
         style="stop-color:#ffb700;stop-opacity:0.0000000"
         offset="1.0000000"
         id="stop5549" />
    </linearGradient>
    <linearGradient
       id="linearGradient6797">
      <stop
         style="stop-color:#091f75;stop-opacity:1.0000000"
         offset="0.0000000"
         id="stop6798" />
      <stop
         style="stop-color:#091f92;stop-opacity:1.0000000"
         offset="1.0000000"
         id="stop6799" />
    </linearGradient>
    <linearGradient
       id="linearGradient2158">
      <stop
         style="stop-color:#ffffff;stop-opacity:0.76404494"
         offset="0.0000000"
         id="stop2159" />
      <stop
         style="stop-color:#ffffff;stop-opacity:0.25098041"
         offset="0.90054053"
         id="stop2784" />
      <stop
         style="stop-color:#ffffff;stop-opacity:0.25098041"
         offset="0.91054052"
         id="stop2162" />
      <stop
         style="stop-color:#ffffff;stop-opacity:0.0000000"
         offset="1.0000000"
         id="stop2160" />
    </linearGradient>
    <linearGradient
       id="linearGradient1000">
      <stop
         style="stop-color:#ffffff;stop-opacity:0.77528089"
         offset="0.0000000"
         id="stop1001" />
      <stop
         style="stop-color:#ffffff;stop-opacity:0.047058824"
         offset="1.0000000"
         id="stop1002" />
    </linearGradient>
    <linearGradient
       x1="13.786968"
       y1="699.98694"
       x2="134.36034"
       y2="1382.2166"
       id="linearGradient11614"
       xlink:href="#linearGradient2152"
       gradientUnits="userSpaceOnUse"
       gradientTransform="matrix(1.831622,0.000000,0.000000,0.545964,-627.9421,266.5748)" />
    <radialGradient
       cx="233.70842"
       cy="485.98422"
       r="94.294106"
       fx="233.70842"
       fy="485.98422"
       id="radialGradient11617"
       xlink:href="#linearGradient2158"
       gradientUnits="userSpaceOnUse"
       gradientTransform="matrix(1.311018,0.000000,0.000000,0.522836,-183.6188,-60.05088)" />
    <radialGradient
       cx="321.62225"
       cy="178.92831"
       r="131.78770"
       fx="321.62225"
       fy="178.92831"
       id="radialGradient11623"
       xlink:href="#linearGradient2158"
       gradientUnits="userSpaceOnUse"
       gradientTransform="scale(1.172604,0.852803)" />
    <radialGradient
       cx="406.82639"
       cy="330.72800"
       r="134.21751"
       fx="406.82639"
       fy="330.72800"
       id="radialGradient11625"
       xlink:href="#linearGradient2216"
       gradientUnits="userSpaceOnUse"
       gradientTransform="matrix(1.001123,0.000000,0.000000,1.001123,-309.6248,-141.8055)" />
    <linearGradient
       x1="33.625000"
       y1="101.04688"
       x2="143.93750"
       y2="155.04688"
       id="linearGradient1816"
       xlink:href="#linearGradient4533"
       gradientUnits="userSpaceOnUse" />
    <radialGradient
       cx="233.70842"
       cy="485.98422"
       r="94.294106"
       fx="233.70842"
       fy="485.98422"
       id="radialGradient1501"
       xlink:href="#linearGradient2158"
       gradientUnits="userSpaceOnUse"
       gradientTransform="matrix(1.311018,0.000000,0.000000,0.522836,-183.6188,-60.05088)" />
    <linearGradient
       x1="33.625000"
       y1="101.04688"
       x2="143.93750"
       y2="155.04688"
       id="linearGradient1503"
       xlink:href="#linearGradient4533"
       gradientUnits="userSpaceOnUse" />
    <linearGradient
       x1="33.625000"
       y1="101.04688"
       x2="143.93750"
       y2="155.04688"
       id="linearGradient1506"
       xlink:href="#linearGradient4533"
       gradientUnits="userSpaceOnUse"
       gradientTransform="translate(-34.00000,-27.00000)" />
    <radialGradient
       cx="233.70842"
       cy="485.98422"
       r="94.294106"
       fx="233.70842"
       fy="485.98422"
       id="radialGradient1519"
       xlink:href="#linearGradient2158"
       gradientUnits="userSpaceOnUse"
       gradientTransform="matrix(1.311018,0.000000,0.000000,0.522836,-160.6188,-108.0509)" />
    <linearGradient
       x1="33.625000"
       y1="101.04688"
       x2="143.93750"
       y2="155.04688"
       id="linearGradient1499"
       xlink:href="#linearGradient4533"
       gradientUnits="userSpaceOnUse"
       gradientTransform="translate(-34.00000,-27.00000)" />
  </defs>
  <g
     id="layer1">
    <g
       transform="matrix(0.650504,0.000000,0.000000,0.650504,-12.51615,-17.07118)"
       id="g1486">
      <g
         transform="translate(-30.00000,-8.000000)"
         id="g10973">
        <path
           d="M 152.21515,41.125000 C 155.67020,48.488367 162.05572,56.507263 160.02765,64.937500 C 156.51194,68.561204 164.41072,71.894933 164.89556,76.434724 C 168.24884,81.701025 167.01278,89.187525 170.40265,93.906250 C 175.11861,100.09644 174.43430,109.37704 171.68390,116.21875 C 166.68407,120.61369 172.68670,128.53200 178.77765,125.93750 C 202.70325,127.79080 221.15450,145.09733 235.41590,150.17231 C 236.19109,152.56071 228.14427,152.88424 225.01657,154.83735 C 235.97995,161.76479 242.98595,199.58251 243.11812,230.78416 C 196.30593,231.23809 141.45604,230.56426 94.643779,231.01351 C 98.221649,216.83883 97.364460,201.31027 101.84015,187.34375 C 98.462730,187.54633 84.859300,194.85813 91.077160,188.37384 C 100.15661,178.71415 102.19842,164.87812 110.15265,154.50000 C 105.91362,147.19406 97.950410,141.84507 95.562600,133.66593 C 94.840960,126.85832 96.739490,119.13249 94.027650,112.93750 C 86.290280,111.71708 83.722840,101.41958 75.371400,100.93750 C 72.648940,98.244366 74.934910,93.583134 77.965150,91.000000 C 83.538280,88.331348 84.990010,83.200598 86.485080,77.767005 C 94.055960,60.678441 112.51892,45.733145 132.02765,49.187500 C 137.91150,51.503536 142.26504,43.744939 147.48241,41.673261 C 149.38968,41.067121 151.40744,37.022202 152.21515,41.125000 z "
           style="fill:#000000;fill-opacity:1.0000000;fill-rule:evenodd;stroke:none;stroke-width:1.0000000px;stroke-linecap:butt;stroke-linejoin:miter;stroke-opacity:1.0000000"
           id="path7037" />
        <path
           d="M 144.37140,60.843750 C 144.37140,60.843751 162.35617,65.280251 165.80890,85.750000 C 166.49967,88.098592 166.87997,90.692772 167.18390,93.312500 C 166.23457,93.213037 165.29024,93.013497 164.34015,93.125000 C 161.33145,93.440422 157.33302,95.666970 157.87140,100.46875 C 158.60863,94.706801 165.08015,93.403685 167.34015,94.156250 C 175.32072,96.434886 172.69084,111.99583 170.24640,114.84375 C 169.29589,116.89121 163.99427,117.95444 161.93380,117.44204 C 161.77031,117.47193 160.17490,117.22046 161.43390,117.71875 C 163.37427,118.65016 165.63050,118.29871 167.68390,117.87500 C 167.68677,119.07165 167.67052,120.40851 167.80890,121.03125 C 168.30215,123.25086 174.99813,134.28398 175.84015,145.34375 C 178.95393,159.94925 178.05367,168.00293 177.18390,172.46875 C 177.51584,180.99156 151.29237,183.94657 149.18390,180.12500 C 147.02898,176.64363 139.89826,173.31901 133.99640,163.93750 C 132.51666,165.41724 128.33850,165.89949 123.65265,165.40625 C 118.96681,164.91299 106.39511,145.16984 98.996400,137.03125 C 95.268340,132.93039 99.483750,122.97981 96.277650,112.37500 C 93.767490,104.07215 108.36438,61.336997 144.37140,60.843750 z "
           style="fill:#f8bb6e;fill-opacity:1.0000000;fill-rule:evenodd;stroke:none;stroke-width:1.0000000px;stroke-linecap:butt;stroke-linejoin:miter;stroke-opacity:1.0000000"
           id="path1312" />
        <path
           d="M 144.04751,176.59560 C 154.93928,179.81711 171.12353,177.28592 178.10347,168.31172 C 181.55509,174.52463 178.56369,177.51603 179.25401,179.58700 C 179.94434,181.65797 150.72064,187.64077 147.03891,186.95045 C 143.35719,186.26013 149.10988,183.95905 144.04751,176.59560 z "
           style="fill:#000027;fill-opacity:1.0000000;fill-rule:evenodd;stroke:none;stroke-width:1.0000000px;stroke-linecap:butt;stroke-linejoin:miter;stroke-opacity:1.0000000"
           id="path10213" />
        <path
           d="M 197.87500,139.56250 C 192.53296,139.27325 184.36574,140.51673 175.31250,142.56250 C 175.46203,143.50005 175.77193,144.40036 175.84375,145.34375 C 178.95753,159.94925 178.05727,168.00293 177.18750,172.46875 C 177.51944,180.99156 151.29597,183.94657 149.18750,180.12500 C 147.03258,176.64363 139.90186,173.31901 134.00000,163.93750 C 132.52026,165.41724 128.34210,165.89949 123.65625,165.40625 C 122.69061,165.30460 121.33363,164.24785 119.81250,162.78125 C 118.13431,163.86485 116.50080,164.95261 115.62500,165.90625 C 96.394230,187.14023 100.80270,216.47312 96.477621,229.43770 L 118.31694,229.07157 C 118.42906,228.27600 122.61218,210.82779 125.75000,203.31250 L 126.34375,203.46875 C 123.26867,210.83377 121.19735,228.55186 121.09375,229.29032 L 194.71875,228.87500 C 194.83664,225.05581 195.27017,220.54831 195.53125,215.78125 C 196.30910,201.57818 199.22746,185.94581 205.28125,174.18750 L 205.46875,174.28125 C 199.55693,185.76383 197.65037,202.71728 196.87500,216.87500 C 196.61609,221.60250 196.52396,225.18891 196.40625,229.00000 L 241.06250,229.28125 C 237.48341,180.19355 236.80925,157.25790 201.21875,140.03125 C 200.27740,139.78755 199.15170,139.63163 197.87500,139.56250 z M 162.28125,190.34375 C 163.61585,190.08799 164.88525,190.78366 166.15625,191.31250 C 167.39242,191.73309 168.39975,192.86052 168.50000,194.18750 C 168.57364,195.60744 168.17913,196.71967 167.06250,197.50000 C 165.02813,198.85188 161.77640,200.14962 159.50000,199.15625 C 157.91660,198.64002 156.89560,196.05714 157.46875,194.46875 C 158.24509,192.58013 160.32936,190.69378 162.28125,190.34375 z M 164.25000,191.81250 C 163.26962,191.85263 162.43750,192.03125 162.43750,192.03125 C 161.24482,192.34995 159.11816,192.80287 158.50000,193.93750 C 158.04100,194.59505 158.64648,197.13556 159.28125,197.56250 C 161.34902,198.75769 164.57789,198.54047 166.28125,196.90625 C 167.03137,196.38032 167.57341,192.98943 166.90625,192.31250 C 166.35126,191.84916 165.23038,191.77237 164.25000,191.81250 z M 160.46875,214.21875 C 162.00204,213.92491 163.41478,214.73617 164.87500,215.34375 C 166.29521,215.82696 167.47857,217.13172 167.59375,218.65625 C 167.67835,220.28759 167.18912,221.54099 165.90625,222.43750 C 163.56901,223.99064 159.83404,225.48501 157.21875,224.34375 C 155.39962,223.75067 154.24779,220.76236 154.90625,218.93750 C 155.79817,216.76771 158.22627,214.62089 160.46875,214.21875 z M 162.71875,215.93750 C 161.59241,215.98360 160.62500,216.15625 160.62500,216.15625 C 159.25476,216.52239 156.80394,217.04020 156.09375,218.34375 C 155.56642,219.09919 156.27072,222.00950 157.00000,222.50000 C 159.37561,223.87312 163.10555,223.62752 165.06250,221.75000 C 165.92429,221.14578 166.51650,217.27772 165.75000,216.50000 C 165.11239,215.96769 163.84509,215.89140 162.71875,215.93750 z "
           style="fill:#00006e;fill-opacity:1.0000000;fill-rule:evenodd;stroke:none;stroke-width:1.0000000px;stroke-linecap:butt;stroke-linejoin:miter;stroke-opacity:1.0000000"
           id="path2475" />
        <path
           d="M 173.78125,127.59375 C 172.78641,127.59257 171.76452,127.68209 170.75000,127.75000 C 172.89953,132.49265 175.32147,138.48366 175.84375,145.34375 C 178.95753,159.94925 178.05727,168.00293 177.18750,172.46875 C 177.22124,173.33510 176.89933,174.12498 176.43750,174.87500 C 176.64366,174.81013 177.52329,174.46267 177.65625,174.43750 C 178.52820,167.11317 213.58143,155.58408 231.18750,150.50000 C 214.95970,140.34923 197.47319,130.50617 178.75000,127.93750 C 177.13143,127.71544 175.47378,127.59576 173.78125,127.59375 z M 112.71875,154.53125 C 112.67196,154.58041 112.41452,154.76817 112.37500,154.81250 C 105.52449,162.49656 102.32290,178.65439 94.156250,187.68750 C 102.00376,184.54850 138.01654,174.43572 149.87500,181.06250 C 150.18684,181.16150 150.59721,181.15369 150.93750,181.21875 C 150.06690,180.95268 149.44246,180.58711 149.18750,180.12500 C 147.03258,176.64363 139.90186,173.31901 134.00000,163.93750 C 132.52026,165.41724 128.34210,165.89949 123.65625,165.40625 C 121.37961,165.16660 117.22068,160.32031 112.71875,154.53125 z "
           style="fill:#000027;fill-opacity:1.0000000;fill-rule:evenodd;stroke:none;stroke-width:1.0000000px;stroke-linecap:butt;stroke-linejoin:miter;stroke-opacity:1.0000000"
           id="path2177" />
        <path
           d="M 150.46515,42.062500 C 150.46516,42.062501 159.80965,55.429677 158.46515,63.687500 C 157.38575,71.789785 102.94499,110.21933 94.371400,110.96875 C 88.762420,111.36940 86.361780,100.54568 76.746400,99.343750 C 75.475410,99.184876 76.799110,95.818178 76.746400,95.343750 C 76.660190,94.567870 80.444060,91.400939 85.777650,87.312500 C 88.485870,66.706387 114.28488,43.962120 135.43390,52.312500 C 140.29902,49.019149 150.46515,42.062500 150.46515,42.062500 z "
           style="fill:#ffffff;fill-opacity:1.0000000;fill-rule:evenodd;stroke:none;stroke-width:1.0000000px;stroke-linecap:butt;stroke-linejoin:miter;stroke-opacity:1.0000000"
           id="path1310" />
        <path
           d="M 225.95742,147.39051 C 207.84088,157.05604 180.16914,160.39688 176.56425,174.94632 C 176.09999,174.42660 176.48732,170.86619 176.48732,170.86619 C 179.57946,154.96383 205.89880,151.85711 219.56211,144.41819 C 220.01755,144.41819 225.19835,147.23870 225.95742,147.39051 z "
           style="fill:#ffffff;fill-opacity:1.0000000;fill-rule:evenodd;stroke:none;stroke-width:1.0000000px;stroke-linecap:butt;stroke-linejoin:miter;stroke-opacity:1.0000000"
           id="path3239" />
        <path
           d="M 100.43646,177.73627 C 116.42759,169.18405 129.61731,173.00710 148.18929,178.72545 C 149.35751,179.51651 149.66973,180.72091 150.12518,180.87272 C 137.06913,176.16646 115.92154,176.36994 98.311050,182.89796 C 97.400160,183.04977 99.981010,179.86167 100.43646,177.73627 z "
           style="fill:#ffffff;fill-opacity:1.0000000;fill-rule:evenodd;stroke:none;stroke-width:1.0000000px;stroke-linecap:butt;stroke-linejoin:miter;stroke-opacity:1.0000000"
           id="path3999" />
        <path
           d="M 149.58454,43.501603 C 148.82672,51.837326 101.94492,96.343588 77.871400,98.218750 C 77.434480,96.842583 87.354380,95.223194 87.004540,93.494666 C 84.581290,92.771671 83.332380,85.633917 85.641360,87.233730 C 83.564370,88.715745 87.519140,92.663994 89.146080,93.095665 C 105.67982,86.878864 137.74647,58.268198 139.62964,54.848999 C 138.19594,54.037530 134.15783,50.968410 136.65872,51.531706 C 139.03482,51.397615 140.35766,55.120179 141.72278,52.029545 C 144.39235,49.003220 147.36329,46.875911 149.58454,43.501603 z "
           style="fill:#000000;fill-opacity:1.0000000;fill-rule:evenodd;stroke:none;stroke-width:1.0000000px;stroke-linecap:butt;stroke-linejoin:miter;stroke-opacity:1.0000000"
           id="path7843" />
      </g>
      <path
         d="M 119.56250,37.093750 C 113.28589,41.455595 106.63325,47.651811 98.375020,45.085203 C 78.507830,43.951745 62.596170,61.102127 57.399770,79.004600 C 55.882680,83.593180 49.639090,84.903090 48.625000,89.593750 C 56.167090,91.491280 59.405190,100.56940 67.281250,101.78125 C 72.133820,112.03660 65.434180,125.58737 75.248370,133.75581 C 78.769720,137.75707 81.895280,142.04513 85.000000,146.37500 C 78.331560,155.40985 74.886080,166.18625 69.281250,175.81250 C 72.736510,173.43263 78.392900,175.73985 75.687500,180.37500 C 72.125230,193.03135 71.931790,206.15540 69.437500,219.00000 C 115.93750,218.92708 162.43750,218.85417 208.93750,218.78125 C 207.98173,196.60628 206.09942,173.55474 196.06250,153.46875 C 193.24305,151.19599 186.62113,145.96027 192.64833,143.50637 C 200.18572,141.57888 186.79136,138.17480 184.31250,135.53125 C 171.82212,128.33267 158.22031,121.50064 143.40625,121.96875 C 135.82820,120.10277 133.85010,109.96117 138.69123,104.45757 C 142.66125,94.649910 134.42579,86.223170 133.56250,76.812500 C 132.40496,70.735517 128.43080,65.657770 125.56250,60.625000 C 126.26914,54.424282 126.51650,48.207482 122.74608,42.824569 C 121.97637,40.865703 121.06994,38.388382 119.56250,37.093750 z "
         style="fill:url(#linearGradient1499);fill-opacity:1.0000000;fill-rule:evenodd;stroke:none;stroke-width:1.0000000px;stroke-linecap:butt;stroke-linejoin:miter;stroke-opacity:1.0000000"
         id="path1497" />
    </g>
  </g>

  <metadata>
    <rdf:RDF 
     xmlns="http://web.resource.org/cc/"
     xmlns:dc="http://purl.org/dc/elements/1.1/"
     xmlns:rdf="http://www.w3.org/1999/02/22-rdf-syntax-ns#">
      <Work rdf:about="">
        <dc:title>sailor</dc:title>
        <dc:description></dc:description>
        <dc:subject>
          <rdf:Bag>
            <rdf:li></rdf:li>
          </rdf:Bag>
        </dc:subject>
        <dc:publisher>
           <Agent>
             <dc:title></dc:title>
           </Agent>
         </dc:publisher>
         <dc:creator>
           <Agent>
             <dc:title>Nicu Buculei</dc:title>
           </Agent>
        </dc:creator>
         <dc:rights>
           <Agent>
             <dc:title>Nicu Buculei</dc:title>
           </Agent>
        </dc:rights>
        <dc:date></dc:date>
        <dc:format>image/svg+xml</dc:format>
        <dc:type rdf:resource="http://purl.org/dc/dcmitype/StillImage" />
        <license rdf:resource="" />
        <dc:language>en</dc:language>
      </Work>

    </rdf:RDF>
  </metadata>
</svg>
