<?xml version="1.0" encoding="UTF-8" standalone="no"?>
<!-- Created with Inkscape (http://www.inkscape.org/) -->
<svg
   xmlns:dc="http://purl.org/dc/elements/1.1/"
   xmlns:cc="http://web.resource.org/cc/"
   xmlns:rdf="http://www.w3.org/1999/02/22-rdf-syntax-ns#"
   xmlns:svg="http://www.w3.org/2000/svg"
   xmlns="http://www.w3.org/2000/svg"
   xmlns:xlink="http://www.w3.org/1999/xlink"
   xmlns:sodipodi="http://sodipodi.sourceforge.net/DTD/sodipodi-0.dtd"
   xmlns:inkscape="http://www.inkscape.org/namespaces/inkscape"
   id="svg2"
   height="200.00000px"
   width="200.00000px"
   y="0.0000000"
   x="0.0000000"
   version="1.0"
   sodipodi:version="0.32"
   inkscape:version="0.45pre1"
   sodipodi:docname="toy_sailor_logo.svg"
   sodipodi:docbase="/home/nicu/Desktop/clipart"
   inkscape:export-filename="/home/nicu/Desktop/seamonkey/toy_sailor/toy_sailor_logo.png"
   inkscape:export-xdpi="90.000000"
   inkscape:export-ydpi="90.000000"
   inkscape:output_extension="org.inkscape.output.svg.inkscape"
   sodipodi:modified="true">
  <sodipodi:namedview
     id="base"
     pagecolor="#ffffff"
     bordercolor="#666666"
     borderopacity="1.0"
     inkscape:pageopacity="0.0"
     inkscape:pageshadow="2"
     inkscape:window-width="1152"
     inkscape:window-height="791"
     inkscape:zoom="1"
     inkscape:cx="100"
     inkscape:cy="99.5"
     inkscape:window-x="0"
     inkscape:window-y="24"
     inkscape:current-layer="svg2" />
  <defs
     id="defs3">
    <linearGradient
       id="linearGradient3721">
      <stop
         style="stop-color:#000072;stop-opacity:1;"
         offset="0"
         id="stop3723" />
      <stop
         style="stop-color:#0000cd;stop-opacity:1.0000000;"
         offset="1.0000000"
         id="stop3725" />
    </linearGradient>
    <linearGradient
       id="linearGradient3476">
      <stop
         style="stop-color:#cdcdcd;stop-opacity:1;"
         offset="0"
         id="stop3478" />
      <stop
         style="stop-color:#ffffff;stop-opacity:1.0000000;"
         offset="1.0000000"
         id="stop3480" />
    </linearGradient>
    <linearGradient
       id="linearGradient3468">
      <stop
         style="stop-color:#f0f0f0;stop-opacity:1;"
         offset="0"
         id="stop3470" />
      <stop
         style="stop-color:#ffffff;stop-opacity:1.0000000;"
         offset="1.0000000"
         id="stop3472" />
    </linearGradient>
    <linearGradient
       id="linearGradient3458">
      <stop
         style="stop-color:#dcdcdc;stop-opacity:1;"
         offset="0"
         id="stop3460" />
      <stop
         style="stop-color:#f0f0f0;stop-opacity:1.0000000;"
         offset="1.0000000"
         id="stop3462" />
    </linearGradient>
    <linearGradient
       id="linearGradient1596">
      <stop
         style="stop-color:#000000;stop-opacity:1;"
         offset="0"
         id="stop1598" />
      <stop
         style="stop-color:#ffffff;stop-opacity:1.0000000;"
         offset="1.0000000"
         id="stop1600" />
    </linearGradient>
    <linearGradient
       id="linearGradient6214">
      <stop
         id="stop6216"
         offset="0.0000000"
         style="stop-color:#c10000;stop-opacity:1.0000000;" />
      <stop
         id="stop6218"
         offset="1.0000000"
         style="stop-color:#ff433e;stop-opacity:1.0000000;" />
    </linearGradient>
    <linearGradient
       id="linearGradient3857">
      <stop
         id="stop3859"
         offset="0.0000000"
         style="stop-color:#ffd8c1;stop-opacity:1.0000000;" />
      <stop
         id="stop3861"
         offset="1.0000000"
         style="stop-color:#ffeded;stop-opacity:1.0000000;" />
    </linearGradient>
    <linearGradient
       id="linearGradient1022">
      <stop
         id="stop1024"
         style="stop-color:#000000;stop-opacity:0.40833300;"
         offset="0.0000000" />
      <stop
         id="stop1023"
         style="stop-color:#000000;stop-opacity:0.0000000;"
         offset="1.0000000" />
    </linearGradient>
    <linearGradient
       id="linearGradient1017">
      <stop
         id="stop1019"
         style="stop-color:#ffffff;stop-opacity:0.17500000;"
         offset="0.0000000" />
      <stop
         id="stop1018"
         style="stop-color:#ffffff;stop-opacity:0.37500000;"
         offset="1.0000000" />
    </linearGradient>
    <defs
       id="defs877">
      <linearGradient
         xlink:href="#linearGradient1017"
         spreadMethod="pad"
         gradientUnits="objectBoundingBox"
         y2="0.50000000"
         x2="1.0000000"
         y1="0.50000000"
         x1="0.0000000"
         id="linearGradient585" />
      <linearGradient
         xlink:href="#linearGradient1022"
         spreadMethod="pad"
         gradientUnits="objectBoundingBox"
         y2="0.50000000"
         x2="1.0000000"
         y1="0.50000000"
         x1="0.0000000"
         id="linearGradient579" />
      <linearGradient
         y2="0.60227275"
         x2="0.41176471"
         y1="0.51136363"
         x1="0.48529410"
         id="linearGradient582"
         xlink:href="#linearGradient579" />
      <linearGradient
         y2="1.09649122"
         x2="0.32720590"
         y1="0.12280702"
         x1="0.50735295"
         id="linearGradient584"
         xlink:href="#linearGradient585" />
      <linearGradient
         id="linearGradient589"
         xlink:href="#linearGradient585" />
    </defs>
    <linearGradient
       id="linearGradient5571"
       inkscape:collect="always">
      <stop
         id="stop5572"
         offset="0"
         style="stop-color:#ffffff;stop-opacity:1;" />
      <stop
         id="stop5573"
         offset="1"
         style="stop-color:#ffffff;stop-opacity:0;" />
    </linearGradient>
    <linearGradient
       inkscape:collect="always"
       xlink:href="#linearGradient3857"
       id="linearGradient1457"
       gradientUnits="userSpaceOnUse"
       gradientTransform="matrix(0.423504,0,0,0.328328,-34.11715,-54.94554)"
       x1="356.44232"
       y1="437.49887"
       x2="477.98477"
       y2="268.87021" />
    <linearGradient
       inkscape:collect="always"
       xlink:href="#linearGradient3458"
       id="linearGradient1459"
       gradientUnits="userSpaceOnUse"
       x1="54.961540"
       y1="184.65384"
       x2="137.01282"
       y2="123.40193"
       gradientTransform="translate(50.55052,-26.12012)" />
    <linearGradient
       inkscape:collect="always"
       xlink:href="#linearGradient6214"
       id="linearGradient1461"
       gradientUnits="userSpaceOnUse"
       gradientTransform="matrix(0.32837,0,0,0.328328,17.55089,-24.72455)"
       x1="294.24606"
       y1="346.32654"
       x2="312.09238"
       y2="322.13895" />
    <linearGradient
       inkscape:collect="always"
       xlink:href="#linearGradient1596"
       id="linearGradient1463"
       gradientUnits="userSpaceOnUse"
       x1="90.858971"
       y1="123.75641"
       x2="139.25641"
       y2="15.423081"
       gradientTransform="translate(50.55052,-26.12012)" />
    <linearGradient
       inkscape:collect="always"
       xlink:href="#linearGradient1596"
       id="linearGradient1465"
       gradientUnits="userSpaceOnUse"
       x1="62.333328"
       y1="105.62666"
       x2="75.153847"
       y2="89.782051"
       gradientTransform="translate(50.55052,-26.12012)" />
    <linearGradient
       inkscape:collect="always"
       xlink:href="#linearGradient1596"
       id="linearGradient1467"
       gradientUnits="userSpaceOnUse"
       x1="67.194771"
       y1="104.28387"
       x2="93.988609"
       y2="73.194122"
       gradientTransform="translate(50.55052,-26.12012)" />
    <linearGradient
       inkscape:collect="always"
       xlink:href="#linearGradient1596"
       id="linearGradient1469"
       gradientUnits="userSpaceOnUse"
       x1="95.346153"
       y1="67.346153"
       x2="146.62820"
       y2="13.820512"
       gradientTransform="translate(50.55052,-26.12012)" />
    <linearGradient
       inkscape:collect="always"
       xlink:href="#linearGradient3476"
       id="linearGradient1471"
       gradientUnits="userSpaceOnUse"
       x1="76.613518"
       y1="57.833324"
       x2="73.741943"
       y2="65.144615" />
    <linearGradient
       inkscape:collect="always"
       xlink:href="#linearGradient3468"
       id="linearGradient1473"
       gradientUnits="userSpaceOnUse"
       x1="76.613518"
       y1="57.601223"
       x2="67.561447"
       y2="63.287781" />
    <linearGradient
       inkscape:collect="always"
       xlink:href="#linearGradient3458"
       id="linearGradient1475"
       gradientUnits="userSpaceOnUse"
       x1="59.321747"
       y1="67.117500"
       x2="88.566895"
       y2="65.144615" />
    <linearGradient
       inkscape:collect="always"
       xlink:href="#linearGradient3476"
       id="linearGradient2978"
       x1="143.56360"
       y1="58.068199"
       x2="181.09689"
       y2="64.157944"
       gradientUnits="userSpaceOnUse"
       gradientTransform="translate(5.128205,41.98718)" />
    <linearGradient
       inkscape:collect="always"
       xlink:href="#linearGradient3476"
       id="linearGradient2982"
       gradientUnits="userSpaceOnUse"
       gradientTransform="matrix(-1,0,0,1,261.84,44.87179)"
       x1="171.45538"
       y1="62.075329"
       x2="137.89122"
       y2="71.153854" />
    <linearGradient
       inkscape:collect="always"
       xlink:href="#linearGradient3721"
       id="linearGradient3727"
       x1="119.55128"
       y1="136.53847"
       x2="132.05128"
       y2="126.28205"
       gradientUnits="userSpaceOnUse" />
    <linearGradient
       inkscape:collect="always"
       xlink:href="#linearGradient3721"
       id="linearGradient3735"
       x1="175.64102"
       y1="143.08029"
       x2="186.16245"
       y2="135.89743"
       gradientUnits="userSpaceOnUse" />
    <linearGradient
       inkscape:collect="always"
       xlink:href="#linearGradient3721"
       id="linearGradient3743"
       x1="173.71794"
       y1="134.57790"
       x2="186.85898"
       y2="126.68285"
       gradientUnits="userSpaceOnUse" />
    <linearGradient
       inkscape:collect="always"
       xlink:href="#linearGradient3721"
       id="linearGradient3745"
       x1="130.07584"
       y1="126.23042"
       x2="144.80293"
       y2="117.89708"
       gradientUnits="userSpaceOnUse" />
    <linearGradient
       inkscape:collect="always"
       xlink:href="#linearGradient3721"
       id="linearGradient3747"
       x1="103.76110"
       y1="121.68875"
       x2="113.68148"
       y2="113.03491"
       gradientUnits="userSpaceOnUse" />
    <linearGradient
       inkscape:collect="always"
       xlink:href="#linearGradient3721"
       id="linearGradient3749"
       x1="98.844566"
       y1="154.16667"
       x2="118.58974"
       y2="137.17949"
       gradientUnits="userSpaceOnUse" />
    <linearGradient
       inkscape:collect="always"
       xlink:href="#linearGradient3721"
       id="linearGradient3751"
       x1="126.53935"
       y1="159.77565"
       x2="135.00336"
       y2="147.91667"
       gradientUnits="userSpaceOnUse" />
    <linearGradient
       inkscape:collect="always"
       xlink:href="#linearGradient5571"
       id="linearGradient4372"
       gradientUnits="userSpaceOnUse"
       gradientTransform="translate(-43,22)"
       x1="32.029205"
       y1="-54.118011"
       x2="149.42517"
       y2="91.881989" />
  </defs>
  <metadata
     id="metadata298">
    <rdf:RDF>
      <cc:Work
         rdf:about="">
        <dc:title>card</dc:title>
        <dc:description />
        <dc:subject>
          <rdf:Bag>
            <rdf:li>bordered</rdf:li>
            <rdf:li>card</rdf:li>
          </rdf:Bag>
        </dc:subject>
        <dc:publisher>
          <cc:Agent>
            <dc:title />
          </cc:Agent>
        </dc:publisher>
        <dc:creator>
          <cc:Agent>
            <dc:title>Nicu Buculei</dc:title>
          </cc:Agent>
        </dc:creator>
        <dc:rights>
          <cc:Agent>
            <dc:title>Nicu Buculei</dc:title>
          </cc:Agent>
        </dc:rights>
        <dc:date />
        <dc:format>image/svg+xml</dc:format>
        <dc:type
           rdf:resource="http://purl.org/dc/dcmitype/StillImage" />
        <cc:license
           rdf:resource="http://web.resource.org/cc/PublicDomain" />
        <dc:language>en</dc:language>
      </cc:Work>
      <cc:License
         rdf:about="http://web.resource.org/cc/PublicDomain">
        <cc:permits
           rdf:resource="http://web.resource.org/cc/Reproduction" />
        <cc:permits
           rdf:resource="http://web.resource.org/cc/Distribution" />
        <cc:permits
           rdf:resource="http://web.resource.org/cc/DerivativeWorks" />
      </cc:License>
    </rdf:RDF>
  </metadata>
  <path
     style="fill:#000000;fill-opacity:1;stroke:none;stroke-width:2;stroke-miterlimit:4;stroke-dashoffset:0;stroke-opacity:1"
     d="M 87.03125,7.96875 C 79.05303,10.048861 71.21048,12.37966 62.876617,11.442237 C 57.686281,11.196167 52.670606,12.530859 47.59375,13.375 C 50.415383,22.101386 52.051466,31.676745 58.34375,38.75 C 51.253469,45.114954 45.472611,53.006895 37,57.75 C 40.846655,61.544973 47.526748,59.506593 51,63.03125 C 47.937509,76.978145 50.639281,91.970833 58.21875,104.03125 C 53.789494,107.47412 55.014266,111.54322 60.5,109.78125 C 62.36684,116.05992 48.906757,112.35039 50.53125,119.53125 C 51.276486,123.41256 57.292406,126.5258 51.8125,129.40625 C 41.966851,143.01106 46.353287,160.71203 45.357695,176.31224 C 44.396894,182.21978 47.457047,185.5697 53.312491,186.19377 C 80.02676,194.77016 109.59275,193.62994 136.2027,185.30597 C 143.02148,184.3623 141.54291,178.13236 141.41402,172.96916 C 140.67911,167.90233 142.21946,163.54947 144.53125,159.65625 C 141.48241,154.96267 144.82291,151.39001 141.5625,147.59375 C 141.15946,136.89179 135.3097,126.35413 125.6875,121.3125 C 129.3405,119.84637 133.15196,113.69433 127.59375,112 C 119.87421,111.78219 126.82173,104.86415 125.48771,100.57804 C 125.48954,95.402943 126.585,89.818033 131.33378,87.086498 C 135.76316,77.875044 132.72174,66.892195 132.36509,57.030445 C 131.8737,52.533612 139.83723,52.413738 141.73677,48.011137 C 146.02906,43.861788 149.01309,38.566093 152.4375,33.71875 C 143.11733,28.293839 131.4692,26.93262 123.17633,20.082074 C 113.96792,10.622283 99.89371,7.1145372 87.03125,7.96875 z "
     id="path3792" />
  <g
     transform="translate(92.29480,-21.84770)"
     id="g6343"
     inkscape:groupmode="layer"
     inkscape:label="Layer 1" />
  <g
     transform="translate(8.294800,-160.2099)"
     id="g9086"
     inkscape:groupmode="layer"
     inkscape:label="Layer 1" />
  <g
     id="g3753"
     transform="translate(-43,22)">
    <path
       sodipodi:nodetypes="csssc"
       style="fill:url(#linearGradient1457);fill-opacity:1;stroke:none;stroke-width:2;stroke-miterlimit:4;stroke-dashoffset:0;stroke-opacity:1"
       d="M 171.19588,52.371096 C 171.19588,78.24023 154.04975,99.23547 132.92325,99.23547 C 111.79675,99.23547 94.650611,78.24023 94.650611,52.371096 C 94.650611,26.501959 109.81484,14.425323 130.94134,14.425323 C 152.06783,14.425323 171.19588,26.501959 171.19588,52.371096 z "
       id="path1418" />
    <path
       style="fill:url(#linearGradient1459);fill-opacity:1;stroke:none;stroke-width:2;stroke-miterlimit:4;stroke-dashoffset:0;stroke-opacity:1"
       d="M 119.26479,97.28181 C 103.28565,97.28181 90.419563,110.14633 90.419563,126.12351 L 90.419563,159.96196 C 111.68236,170.49955 157.35093,171.05416 182.49646,159.96196 L 182.49646,126.12351 C 182.49646,110.14633 169.63038,97.28181 153.65124,97.28181 L 119.26479,97.28181 z "
       id="path1420"
       sodipodi:nodetypes="ccccccc" />
    <path
       sodipodi:nodetypes="cscssc"
       style="fill:url(#linearGradient3747);fill-opacity:1;fill-rule:evenodd;stroke:none;stroke-width:1px;stroke-linecap:butt;stroke-linejoin:miter;stroke-opacity:1"
       d="M 111.09672,126.92308 C 111.09672,126.92308 104.04544,122.11538 100.84031,113.14102 C 97.635179,104.16666 108.2121,99.038459 108.2121,99.038459 C 108.2121,99.038459 108.25037,102.78421 107.57108,110.25641 C 106.93005,117.30769 113.34031,123.07693 113.66083,125 C 113.98134,126.92308 110.4557,127.24359 111.09672,126.92308 z "
       id="path3719" />
    <path
       id="path3717"
       d="M 123.39744,129.16667 C 123.39744,129.16667 139.74359,126.28205 142.94872,117.30769 C 146.15385,108.33333 144.23077,107.05128 144.23077,107.05128 C 144.23077,107.05128 138.78205,104.48718 136.21795,111.53846 C 133.65385,118.58974 123.39744,123.39744 123.07692,125.32051 C 122.75641,127.24359 124.03846,129.48718 123.39744,129.16667 z "
       style="fill:url(#linearGradient3745);fill-opacity:1;fill-rule:evenodd;stroke:none;stroke-width:1px;stroke-linecap:butt;stroke-linejoin:miter;stroke-opacity:1" />
    <path
       style="fill:url(#linearGradient1461);fill-opacity:1;fill-rule:evenodd;stroke:none;stroke-width:1px;stroke-linecap:butt;stroke-linejoin:miter;stroke-opacity:1"
       d="M 109.69954,80.6538 C 110.62781,87.34321 121.47167,85.96763 130.59318,80.88148 C 120.4986,81.08577 117.87407,81.25445 109.69954,80.6538 z "
       id="path1446"
       sodipodi:nodetypes="ccc" />
    <path
       style="fill:#747474;fill-opacity:1;stroke:none;stroke-width:2;stroke-miterlimit:4;stroke-dashoffset:0;stroke-opacity:1"
       d="M 151.22179,133.27295 L 154.08616,133.55233 L 157.19481,166.44654 L 149.33976,167.01408 L 151.22179,133.27295 z "
       id="path1448"
       sodipodi:nodetypes="ccccc" />
    <path
       sodipodi:nodetypes="ccccccc"
       id="path1454"
       d="M 110.50641,55.979571 C 108.71129,58.896257 106.09762,63.691395 106.46997,65.895497 C 106.84235,68.099599 110.21566,67.623692 112.00638,68.894351 L 112.75637,67.811185 C 111.18161,66.693741 108.71475,67.793018 108.40859,65.980775 C 108.10245,64.168521 109.95248,59.37403 111.63137,56.64612 L 110.50641,55.979571 z "
       style="fill:#000000;fill-opacity:1;fill-rule:evenodd;stroke:none;stroke-width:1px;stroke-linecap:butt;stroke-linejoin:miter;stroke-opacity:1" />
    <path
       sodipodi:nodetypes="cssc"
       style="opacity:1;fill:url(#linearGradient2982);fill-opacity:1;fill-rule:evenodd;stroke:none;stroke-width:1px;stroke-linecap:butt;stroke-linejoin:miter;stroke-opacity:1"
       d="M 105.42972,92.628204 C 105.42972,92.628204 94.852794,93.910255 95.173304,96.794871 C 95.493824,99.679493 112.48101,122.11538 119.8528,120.1923 C 127.2246,118.26922 108.31434,93.26923 105.42972,92.628204 z "
       id="path2980" />
    <path
       sodipodi:nodetypes="cssc"
       id="path1506"
       d="M 161.53847,89.743589 C 161.53847,89.743589 172.11539,91.02564 171.79488,93.910256 C 171.47436,96.794874 129.16667,122.11539 121.79488,120.19231 C 114.42308,118.26923 158.65385,90.384615 161.53847,89.743589 z "
       style="opacity:1;fill:url(#linearGradient2978);fill-opacity:1;fill-rule:evenodd;stroke:none;stroke-width:1px;stroke-linecap:butt;stroke-linejoin:miter;stroke-opacity:1" />
    <path
       sodipodi:nodetypes="ccccccccccc"
       id="path1649"
       d="M 112.39243,85.86722 C 114.89503,91.16338 112.92687,89.84663 111.13599,90.69085 C 109.74347,89.64602 105.85128,84.4961 104.92613,82.32975 C 104.63505,94.35781 109.29068,100.01269 112.3362,103.33466 C 115.38171,106.65664 135.88223,109.14812 145.57251,103.33466 C 155.26279,97.52121 170.39591,90.27593 166.14077,72.429367 C 164.62727,73.48266 163.96206,72.991137 162.01269,72.614995 C 162.28955,76.21381 157.65091,87.46176 141.42385,84.68816 C 134.04438,83.91169 127.58322,87.48825 125.25045,90.96202 C 120.69144,91.09684 119.51314,90.63151 121.58036,85.90838 C 117.96296,88.54982 113.61774,85.86156 112.39243,85.86722 z "
       style="fill:url(#linearGradient1463);fill-opacity:1;fill-rule:evenodd;stroke:none;stroke-width:1px;stroke-linecap:butt;stroke-linejoin:miter;stroke-opacity:1" />
    <path
       sodipodi:nodetypes="cccc"
       id="path2411"
       d="M 116.52454,72.344444 C 106.84032,71.064027 105.48943,81.9631 99.971873,86.77242 C 99.971873,86.77242 112.39009,76.79639 116.84258,76.95538 C 116.52454,75.84239 117.00159,74.41142 116.52454,72.344444 z "
       style="fill:url(#linearGradient1465);fill-opacity:1;fill-rule:evenodd;stroke:none;stroke-width:1px;stroke-linecap:butt;stroke-linejoin:miter;stroke-opacity:1" />
    <path
       sodipodi:nodetypes="cccc"
       id="path2413"
       d="M 117.74529,72.391064 C 130.84324,70.248616 129.83862,80.28565 135.88528,84.23295 C 135.88528,84.23295 122.86899,75.20518 118.66802,76.68881 C 118.63846,75.53167 118.59154,74.73373 117.74529,72.391064 z "
       style="fill:url(#linearGradient1467);fill-opacity:1;fill-rule:evenodd;stroke:none;stroke-width:1px;stroke-linecap:butt;stroke-linejoin:miter;stroke-opacity:1" />
    <path
       sodipodi:nodetypes="ccccccccc"
       id="path3831"
       d="M 84.029206,35.383119 C 101.74112,44.025692 127.45417,29.887659 136.02687,36.598427 C 142.78738,41.736982 146.96642,53.228751 147.86331,57.661864 C 149.27971,59.986798 151.2704,41.910995 160.97143,51.868647 C 164.26163,55.769302 163.9036,61.411373 163.37103,66.187572 C 167.2223,66.009215 173.4871,67.116838 173.78615,61.579653 C 175.32542,55.205945 174.4299,48.585407 174.16391,42.120168 C 173.00915,31.756307 172.95295,14.523617 141.73165,7.974415 C 97.383087,7.286859 100.23228,26.669306 84.029206,35.383119 z "
       style="fill:url(#linearGradient1469);fill-opacity:1;fill-rule:evenodd;stroke:none;stroke-width:1px;stroke-linecap:butt;stroke-linejoin:miter;stroke-opacity:1" />
    <g
       transform="matrix(2.761799,0,0,2.761799,-60.88678,-164.3313)"
       id="g3824">
      <path
         sodipodi:nodetypes="csscc"
         id="path3092"
         d="M 55.763982,56.941542 C 55.763982,56.941542 57.486422,64.907824 60.285386,65.984349 C 63.084351,67.060874 81.385271,71.797582 85.045455,70.721058 C 88.705639,69.644533 90.858689,65.12313 91.719909,64.046605 C 85.906675,61.032336 66.313925,54.142577 55.763982,56.941542 z "
         style="fill:url(#linearGradient1471);fill-opacity:1;fill-rule:evenodd;stroke:none;stroke-width:1px;stroke-linecap:butt;stroke-linejoin:miter;stroke-opacity:1" />
      <path
         style="fill:url(#linearGradient1473);fill-opacity:1;fill-rule:evenodd;stroke:none;stroke-width:1px;stroke-linecap:butt;stroke-linejoin:miter;stroke-opacity:1"
         d="M 59.208861,60.81703 C 59.208861,60.81703 66.682654,50.53022 79.385646,57.419979 C 85.676936,60.832205 83.10771,65.769044 82.892406,66.845569 C 82.677101,67.922094 60.715995,64.692519 59.208861,60.81703 z "
         id="path3090"
         sodipodi:nodetypes="cssc" />
      <path
         style="fill:url(#linearGradient1475);fill-opacity:1;fill-rule:evenodd;stroke:none;stroke-width:1px;stroke-linecap:butt;stroke-linejoin:miter;stroke-opacity:1"
         d="M 55.763982,56.941542 C 55.763982,56.941542 57.486422,64.907824 60.285386,65.984349 C 63.084351,67.060874 81.385271,71.797582 85.045455,70.721058 C 88.705639,69.644533 90.858689,65.12313 91.719909,64.046605 C 85.26076,65.98435 61.146606,59.525201 55.763982,56.941542 z "
         id="path2362"
         sodipodi:nodetypes="csscc" />
    </g>
    <path
       id="path3094"
       d="M 172.80156,127.29015 L 170.37231,130.02307 L 180.08931,134.5779 L 184.94782,129.71941 L 182.2149,126.68285 L 179.78565,130.02307 L 172.80156,127.29015 z "
       style="fill:url(#linearGradient3743);fill-opacity:1;fill-rule:evenodd;stroke:none;stroke-width:1px;stroke-linecap:butt;stroke-linejoin:miter;stroke-opacity:1" />
    <path
       style="fill:url(#linearGradient3735);fill-opacity:1;fill-rule:evenodd;stroke:none;stroke-width:1px;stroke-linecap:butt;stroke-linejoin:miter;stroke-opacity:1"
       d="M 171.73876,134.42609 L 168.85403,137.67143 L 180.39297,143.08029 L 186.16245,137.31084 L 182.91711,133.70491 L 180.03237,137.67143 L 171.73876,134.42609 z "
       id="path3822" />
    <path
       style="fill:#000000;fill-opacity:1;fill-rule:evenodd;stroke:none;stroke-width:1px;stroke-linecap:butt;stroke-linejoin:miter;stroke-opacity:1"
       d="M 157.08156,65.689223 C 158.87668,62.772537 162.0484,59.791046 161.118,55.773297 C 160.74562,53.569195 157.2328,51.67341 154.4655,53.053466 L 154.27355,54.276143 C 156.82489,53.858963 158.87322,53.875776 159.17938,55.688019 C 160.4621,59.592943 158.19354,62.434275 156.51464,65.162185 L 157.08156,65.689223 z "
       id="path4561"
       sodipodi:nodetypes="ccccccc" />
    <g
       transform="translate(49.58898,-28.68422)"
       id="g3291">
      <path
         sodipodi:nodetypes="cccc"
         id="path905"
         d="M 50.574196,73.262608 C 56.664136,72.97993 57.031741,79.935712 55.181114,84.071286 C 52.39241,90.394947 45.857115,86.736493 46.099573,81.829563 C 46.303237,78.748964 47.917157,73.56692 50.574196,73.262608 z "
         style="fill:#faffff;fill-rule:evenodd;stroke-width:1pt" />
      <path
         sodipodi:nodetypes="ccccccc"
         id="path878"
         d="M 49.651945,73.647006 C 51.250276,72.326045 54.277487,74.237255 55.008973,74.986112 C 55.522189,76.008793 56.709771,77.942945 56.136333,79.884444 C 55.465325,77.584094 54.82136,76.580467 53.880385,75.672092 C 52.766539,74.703683 50.827221,74.033653 49.441832,74.615659 C 48.404272,75.174977 47.749284,76.516868 46.503704,78.907903 C 46.921487,77.928614 47.604321,74.680946 49.651945,73.647006 z "
         style="fill-opacity:0.19166661;fill-rule:evenodd;stroke-width:1pt" />
      <g
         id="g1802"
         transform="matrix(0.659532,0.101297,-0.101297,0.659532,-201.5486,-47.56653)">
        <path
           style="fill-rule:evenodd;stroke-width:1pt"
           d="M 402.52749,126.27571 C 407.18776,126.99954 408.15876,134.79059 403.85525,137.6796 C 400.36623,139.6114 397.64978,135.14581 397.74082,131.51152 C 397.64119,129.80022 398.06115,126.12589 402.52749,126.27571 z "
           id="path879"
           sodipodi:nodetypes="cccc" />
        <path
           sodipodi:nodetypes="cccc"
           id="path1800"
           d="M 401.17756,127.06654 C 403.75681,127.44129 404.29422,131.47496 401.91242,132.97069 C 399.9814,133.97084 398.47797,131.65886 398.52836,129.77728 C 398.47322,128.89129 398.70565,126.98897 401.17756,127.06654 z "
           style="fill:#cacece;fill-opacity:1;fill-rule:evenodd;stroke-width:1pt" />
      </g>
    </g>
    <g
       transform="translate(53.11462,-31.56884)"
       id="g3298">
      <path
         sodipodi:nodetypes="cccc"
         id="path887"
         d="M 78.411299,86.74688 C 76.136154,91.097234 70.358377,93.894375 67.408136,87.236842 C 65.480252,83.17956 67.645335,77.92176 72.990455,76.046839 C 78.981591,75.256272 80.361409,82.558892 78.411299,86.74688 z "
         style="fill:#fbffff;fill-rule:evenodd;stroke-width:1pt" />
      <path
         sodipodi:nodetypes="ccccccc"
         id="path893"
         d="M 73.660752,75.938726 C 75.736721,75.853045 78.046915,77.616937 78.772805,79.349712 C 79.748561,81.432597 79.285903,84.849472 78.378537,86.424324 C 78.513505,84.212784 78.221138,81.835326 77.175801,79.977503 C 76.050784,78.372835 74.106494,77.794792 72.506362,77.713236 C 71.649318,77.716999 70.25305,77.995079 68.407756,79.112283 C 69.675088,77.676598 72.015229,76.053313 73.660752,75.938726 z "
         style="fill-opacity:0.19166661;fill-rule:evenodd;stroke-width:1pt" />
      <g
         id="g1808"
         transform="matrix(0.667265,0,0,0.667265,-218.4745,-8.062116)">
        <path
           style="fill-rule:evenodd;stroke-width:1pt"
           d="M 436.42472,130.97409 C 440.78372,133.12043 440.36848,138.65442 437.48967,141.40146 C 435.17562,144.34853 429.77691,142.58141 429.37835,137.98203 C 429.2672,134.86919 431.0151,129.81574 436.42472,130.97409 L 436.42472,130.97409 z "
           id="path864"
           sodipodi:nodetypes="ccccc" />
        <path
           sodipodi:nodetypes="ccccc"
           id="path1806"
           d="M 435.24036,131.06356 C 437.8868,132.33361 437.6347,135.60823 435.88692,137.23373 C 434.48201,138.9776 431.20433,137.93194 430.96236,135.21036 C 430.89488,133.3684 431.95607,130.37813 435.24036,131.06356 L 435.24036,131.06356 z "
           style="fill:#cacece;fill-opacity:1;fill-rule:evenodd;stroke-width:1pt" />
      </g>
    </g>
    <path
       sodipodi:nodetypes="csssc"
       id="path2984"
       d="M 128.20513,130.92949 C 128.20513,134.55641 124.7641,139.74359 121.3141,139.74359 C 115.94103,139.74359 115.56198,134.55358 115.70513,130.92949 C 116.02564,122.81539 118.50513,124.35898 121.95513,124.35898 C 125.40513,124.35898 128.20513,127.30257 128.20513,130.92949 z "
       style="fill:url(#linearGradient3727);fill-opacity:1;stroke:none;stroke-width:1;stroke-miterlimit:4;stroke-opacity:1"
       transform="translate(-4.807692,2.564103)" />
    <path
       sodipodi:nodetypes="cscc"
       id="path3713"
       d="M 121.79487,142.94872 C 121.79487,142.94872 132.75423,149.75776 131.73077,156.41026 C 130.44872,164.74359 131.41026,167.62821 131.41026,167.62821 C 131.41026,167.62821 118.58974,163.78205 121.79487,142.94872 z "
       style="fill:url(#linearGradient3751);fill-opacity:1;fill-rule:evenodd;stroke:none;stroke-width:1px;stroke-linecap:butt;stroke-linejoin:miter;stroke-opacity:1" />
    <path
       sodipodi:nodetypes="cscc"
       style="fill:url(#linearGradient3749);fill-opacity:1;fill-rule:evenodd;stroke:none;stroke-width:1px;stroke-linecap:butt;stroke-linejoin:miter;stroke-opacity:1"
       d="M 109.74201,137.17949 C 109.74201,137.17949 98.844569,144.23077 98.844569,150.96154 C 98.844569,157.69231 100.12662,159.61539 100.12662,159.61539 C 100.12662,159.61539 112.94714,158.01282 109.74201,137.17949 z "
       id="path3715" />
  </g>
  <path
     style="fill:url(#linearGradient4372);fill-opacity:1;stroke:none;stroke-width:2;stroke-miterlimit:4;stroke-dashoffset:0;stroke-opacity:1"
     d="M 91.84375,9.6875 C 85.28675,9.675678 79.71356,11.330264 75.0625,13.53125 C 65.88446,12.772528 57.241647,13.049409 50.125,14.9375 C 50.124999,14.9375 54.306618,33.92572 61.15625,38.875 C 53.121624,44.95686 49.763321,52.679 41.03125,57.375 C 44.945153,59.284799 49.263486,59.969193 53.6875,60.125 C 52.453906,64.333242 51.65625,68.984553 51.65625,74.375 C 51.65625,85.753019 55.11136,96.035633 60.625,104.15625 C 59.542733,105.89156 58.39045,107.54204 56.96875,108.78125 C 56.968751,108.78125 59.490477,106.94409 61.5,105.46875 C 61.706231,105.75119 61.882065,106.06753 62.09375,106.34375 C 62.19423,109.97644 62.705144,112.9472 63.53125,115.4375 C 63.127594,115.10974 62.664012,114.67534 62.4375,114.625 C 62.437502,114.625 51.86699,115.89664 52.1875,118.78125 C 52.292847,119.72935 54.476949,122.94937 57.25,126.5625 C 51.262863,131.84001 47.40625,139.48125 47.40625,148.125 L 47.40625,181.96875 C 68.66905,192.50634 114.35447,193.06095 139.5,181.96875 L 139.5,163 L 143.15625,159.3125 L 139.90625,155.71875 L 139.5,156.28125 L 139.5,154.15625 L 141.9375,151.71875 L 139.5,149 L 139.5,148.125 C 139.5,136.1276 132.25491,125.85813 121.875,121.5 C 126.0016,118.7506 128.70112,116.6274 128.78125,115.90625 C 129.05893,113.40706 122.05417,112.30178 119.9375,112 C 122.8487,108.01647 124.38951,103.03232 123.40625,96.625 C 124.63012,93.874614 125.61668,90.985806 126.375,87.9375 C 128.69654,87.573941 130.61975,86.584075 130.78125,83.59375 C 132.32052,77.220044 131.42224,70.590239 131.15625,64.125 C 130.80148,60.940959 130.45798,57.096716 129.375,53.125 C 129.85131,53.057818 130.62868,53.109211 131,53 C 141.1087,50.026856 147.05899,37.535645 149.4375,34.5625 C 144.38299,31.941642 135.31909,28.261128 124.6875,24.6875 C 122.96821,21.760782 120.16554,18.848256 115.375,16.25 C 106.60422,11.492968 98.71242,9.699884 91.84375,9.6875 z "
     id="path4005" />
</svg>
