<?xml version="1.0" encoding="UTF-8" standalone="no"?>
<!DOCTYPE svg PUBLIC "-//W3C//DTD SVG 20010904//EN"
"http://www.w3.org/TR/2001/REC-SVG-20010904/DTD/svg10.dtd">
<!-- Created with Sodipodi ("http://www.sodipodi.com/") -->
<svg
   id="svg548"
   sodipodi:version="0.32"
   width="400pt"
   height="400pt"
   sodipodi:docbase="/home/nicu/svg_gal/people"
   sodipodi:docname="/home/nicu/svg_gal/people/man02.svg"
   xmlns="http://www.w3.org/2000/svg"
   xmlns:sodipodi="http://sodipodi.sourceforge.net/DTD/sodipodi-0.dtd"
   xmlns:xlink="http://www.w3.org/1999/xlink">
  <defs
     id="defs550" />
  <sodipodi:namedview
     id="base"
     showgrid="true" />
  <path
     style="fill:#7f0000;fill-rule:evenodd;stroke:none;stroke-opacity:1;stroke-width:1pt;stroke-linejoin:miter;stroke-linecap:butt;fill-opacity:1;"
     d="M 212.828 128.61 L 127.188 217.642 L 144.994 235.448 L 212.828 163.375 L 213.677 284.627 L 142.239 377.263 L 186.119 377.475 L 159.41 464.387 C 161.953 465.235 194.175 466.083 195.023 464.387 C 195.446 463.539 219.779 376.507 219.506 376.839 C 219.105 376.084 239.114 377.051 239.962 376.203 L 256.921 376.627 L 285.75 464.387 L 323.058 464.387 L 294.653 375.779 L 340.653 376.839 L 262.856 278.692 L 264.552 163.375 L 334.081 233.753 L 354.432 216.794 L 266.248 128.61 L 212.828 128.61 z "
     id="path563"
     sodipodi:nodetypes="cccccccccscccccccccccc" />
  <path
     style="fill:#7f0000;fill-rule:evenodd;stroke:none;stroke-opacity:1;stroke-width:1pt;stroke-linejoin:miter;stroke-linecap:butt;fill-opacity:1;"
     d="M 239.114 12.4448 C 159.409 14.1406 160.257 118.435 236.57 119.283 C 318.819 119.283 321.362 13.2928 239.114 12.4448 z "
     id="path564"
     sodipodi:nodetypes="ccc" />

  <rdf:RDF 
   xmlns="http://web.resource.org/cc/"
   xmlns:dc="http://purl.org/dc/elements/1.1/"
   xmlns:rdf="http://www.w3.org/1999/02/22-rdf-syntax-ns#">
  <Work rdf:about="">
    <dc:title>Clipart by Nicu Buculei - head1</dc:title>
    <dc:rights>
       <Agent>
         <dc:title>Nicu Buculei</dc:title>
       </Agent>
    </dc:rights>
    <dc:type rdf:resource="http://purl.org/dc/dcmitype/StillImage" />
    <license rdf:resource="http://web.resource.org/cc/PublicDomain" />
  </Work>
   
  <License rdf:about="http://web.resource.org/cc/PublicDomain">
     <permits rdf:resource="http://web.resource.org/cc/Reproduction" />
     <permits rdf:resource="http://web.resource.org/cc/Distribution" />
     <permits rdf:resource="http://web.resource.org/cc/DerivativeWorks" />
  </License>

</rdf:RDF>
</svg>
