<?xml version="1.0" encoding="UTF-8" standalone="no"?>
<!DOCTYPE svg PUBLIC "-//W3C//DTD SVG 20010904//EN"
"http://www.w3.org/TR/2001/REC-SVG-20010904/DTD/svg10.dtd">
<!-- Created with Inkscape (http://www.inkscape.org/) -->
<svg
   id="svg1"
   sodipodi:version="0.32"
   inkscape:version="0.38.1"
   width="80.000000pt"
   height="80.000000pt"
   sodipodi:docbase="/home/nicu/Desktop/weather"
   sodipodi:docname="cloudy03.svg"
   xmlns="http://www.w3.org/2000/svg"
   xmlns:inkscape="http://www.inkscape.org/namespaces/inkscape"
   xmlns:sodipodi="http://sodipodi.sourceforge.net/DTD/sodipodi-0.dtd"
   xmlns:xlink="http://www.w3.org/1999/xlink">
  <defs
     id="defs3">
    <linearGradient
       id="linearGradient893">
      <stop
         style="stop-color:#f3f3f3;stop-opacity:1.0000000;"
         offset="0.0000000"
         id="stop894" />
      <stop
         style="stop-color:#ffffff;stop-opacity:1.0000000;"
         offset="0.37650406"
         id="stop895" />
      <stop
         style="stop-color:#e6ffff;stop-opacity:1.0000000;"
         offset="1.0000000"
         id="stop896" />
    </linearGradient>
    <linearGradient
       id="linearGradient912">
      <stop
         style="stop-color:#ffffff;stop-opacity:0.49803922;"
         offset="0.0000000"
         id="stop913" />
      <stop
         style="stop-color:#ffffff;stop-opacity:0.0000000;"
         offset="1.0000000"
         id="stop914" />
    </linearGradient>
    <radialGradient
       xlink:href="#linearGradient912"
       id="radialGradient915"
       cx="0.46268654"
       cy="0.43750003"
       r="0.52990836"
       fx="0.46268654"
       fy="0.43750003" />
    <linearGradient
       xlink:href="#linearGradient893"
       id="linearGradient854"
       x1="0.90873015"
       y1="0.63281250"
       x2="-0.47619048"
       y2="-0.14062500" />
  </defs>
  <sodipodi:namedview
     id="base"
     pagecolor="#ffffff"
     bordercolor="#666666"
     borderopacity="1.0"
     inkscape:pageopacity="0.0"
     inkscape:pageshadow="2"
     inkscape:zoom="1.0000000"
     inkscape:cx="65.297577"
     inkscape:cy="50.205750"
     inkscape:window-width="809"
     inkscape:window-height="630"
     inkscape:window-x="39"
     inkscape:window-y="118" />
  <g
     id="g953">
    <path
       style="fill:#ffff97;fill-rule:evenodd;stroke:#000000;stroke-width:2.2623320;fill-opacity:1.0000000;stroke-dasharray:none;stroke-linejoin:round;"
       d="M 27.214851,9.6961778 C 97.726056,-3.4989015 108.44706,99.175310 32.163005,92.577768 C 48.656854,86.804921 75.871705,38.148067 27.214851,9.6961778 z "
       id="path972"
       sodipodi:nodetypes="ccc"
       transform="matrix(0.554577,0.000000,0.000000,0.550485,52.43953,9.010157)" />
    <path
       style="fill-opacity:0.049999956;fill-rule:evenodd;stroke-width:1.0000000pt;"
       d="M 27.652139,9.5112427 C 78.370729,15.284089 84.555923,78.785408 32.600293,92.392833 C 49.094142,86.619983 76.308993,37.963132 27.652139,9.5112427 z "
       id="path981"
       sodipodi:nodetypes="ccc"
       transform="matrix(0.554577,0.000000,0.000000,0.550485,52.43953,9.010157)" />
    <path
       style="fill-opacity:0.049999956;fill-rule:evenodd;stroke-width:1.0000000pt;"
       d="M 28.111945,9.0776580 C 75.119421,18.561621 80.067572,76.290093 33.060099,91.959244 C 49.553948,86.186394 76.768797,37.529548 28.111945,9.0776580 z "
       id="path982"
       sodipodi:nodetypes="ccc"
       transform="matrix(0.554577,0.000000,0.000000,0.550485,52.43953,9.010157)" />
    <path
       style="fill-opacity:0.049999956;fill-rule:evenodd;stroke-width:1.0000000pt;"
       d="M 27.269196,9.9023553 C 70.153206,23.097434 77.163087,71.341943 32.217348,92.783941 C 48.711198,87.011091 75.926048,38.354245 27.269196,9.9023553 z "
       id="path983"
       sodipodi:nodetypes="ccc"
       transform="matrix(0.554577,0.000000,0.000000,0.550485,52.43953,9.010157)" />
    <path
       style="fill:#ffffff;fill-opacity:0.49999997;fill-rule:evenodd;stroke-width:1.0000000pt;"
       d="M 27.239794,10.335935 C 96.513964,-2.0344516 106.41027,97.753335 32.187948,92.392834 C 84.555915,96.103948 109.29669,12.397665 27.239794,10.335935 z "
       id="path984"
       sodipodi:nodetypes="ccc"
       transform="matrix(0.554577,0.000000,0.000000,0.550485,52.43953,9.010157)" />
  </g>
  <path
     style="fill:url(#linearGradient854);fill-rule:evenodd;stroke:#000000;stroke-width:1.1226674;stroke-linejoin:round;"
     d="M 43.380091,44.420842 C 42.467501,39.737163 34.750718,32.872550 30.128582,34.155878 C 24.340286,35.822324 21.674087,41.210811 25.810968,45.272794 C 22.150838,42.690274 13.018666,40.468234 8.0688521,49.465599 C 4.9962416,56.168153 13.697347,60.361433 16.359204,59.865713 C 11.265781,59.227031 -1.2833202,70.149352 4.3042558,75.712992 C 11.189016,81.368269 26.959547,75.252891 27.652012,70.529312 C 26.115634,77.436652 43.638064,78.762739 44.071540,69.162627 C 42.820943,73.663575 55.323251,78.453991 61.267009,76.621291 C 68.716382,74.726390 67.820688,68.329337 66.939237,66.378761 C 72.669090,67.061529 81.640679,68.754694 85.614774,62.615137 C 88.384838,56.813344 86.737963,50.333165 83.172071,48.294808 C 79.286737,46.367360 75.041432,46.467804 70.089874,49.732613 C 74.018884,47.066365 71.595639,38.468549 67.657913,36.579769 C 63.170152,34.434599 57.778395,34.015936 52.935823,35.058941 C 48.945637,35.725256 42.630940,39.233496 43.380091,44.420842 z "
     id="path853"
     sodipodi:nodetypes="cccccccccccccccc" />

  <rdf:RDF 
   xmlns="http://web.resource.org/cc/"
   xmlns:dc="http://purl.org/dc/elements/1.1/"
   xmlns:rdf="http://www.w3.org/1999/02/22-rdf-syntax-ns#">
  <Work rdf:about="">
    <dc:title>Clipart by Nicu Buculei - w_cloud</dc:title>
    <dc:rights>
       <Agent>
         <dc:title>Nicu Buculei</dc:title>
       </Agent>
    </dc:rights>
    <dc:type rdf:resource="http://purl.org/dc/dcmitype/StillImage" />
    <license rdf:resource="http://web.resource.org/cc/PublicDomain" />
  </Work>
   
  <License rdf:about="http://web.resource.org/cc/PublicDomain">
     <permits rdf:resource="http://web.resource.org/cc/Reproduction" />
     <permits rdf:resource="http://web.resource.org/cc/Distribution" />
     <permits rdf:resource="http://web.resource.org/cc/DerivativeWorks" />
  </License>

</rdf:RDF>
</svg>
