<?xml version="1.0" encoding="UTF-8" standalone="no"?>
<!DOCTYPE svg PUBLIC "-//W3C//DTD SVG 20010904//EN"
"http://www.w3.org/TR/2001/REC-SVG-20010904/DTD/svg10.dtd">
<!-- Created with Sodipodi ("http://www.sodipodi.com/") -->
<svg
   id="svg548"
   sodipodi:version="0.32"
   width="400pt"
   height="400pt"
   sodipodi:docbase="/home/nicu/svg_gal/computers/"
   sodipodi:docname="/home/nicu/svg_gal/computers/cd.svg"
   xmlns="http://www.w3.org/2000/svg"
   xmlns:sodipodi="http://sodipodi.sourceforge.net/DTD/sodipodi-0.dtd"
   xmlns:xlink="http://www.w3.org/1999/xlink">
  <defs
     id="defs550">
    <linearGradient
       id="linearGradient642">
      <stop
         style="stop-color:#00ff00;stop-opacity:0.678431;"
         offset="0.000000"
         id="stop643" />
      <stop
         style="stop-color:#ffff00;stop-opacity:0.968627;"
         offset="1.000000"
         id="stop644" />
    </linearGradient>
    <linearGradient
       id="linearGradient636">
      <stop
         style="stop-color:#00ffff;stop-opacity:1;"
         offset="0.000000"
         id="stop637" />
      <stop
         style="stop-color:#ff8aff;stop-opacity:1;"
         offset="1.000000"
         id="stop638" />
    </linearGradient>
    <linearGradient
       xlink:href="#linearGradient636"
       id="linearGradient639"
       x1="0.37323773"
       y1="0.35937506"
       x2="0.64788717"
       y2="-0.03124995"
       gradientUnits="objectBoundingBox"
       spreadMethod="reflect" />
    <linearGradient
       xlink:href="#linearGradient642"
       id="linearGradient641"
       x1="0.35064930"
       y1="0.45312661"
       x2="0.25974023"
       y2="0.53906250"
       gradientUnits="objectBoundingBox"
       spreadMethod="reflect" />
    <linearGradient
       xlink:href="#linearGradient636"
       id="linearGradient645"
       x1="0.37323788"
       y1="0.35937548"
       x2="0.64788729"
       y2="-0.03124950"
       gradientUnits="objectBoundingBox"
       spreadMethod="reflect" />
  </defs>
  <sodipodi:namedview
     id="base"
     showgrid="true" />
  <path
     sodipodi:type="arc"
     style="fill-rule:evenodd;stroke:#000000;fill:none;fill-opacity:1;stroke-opacity:1;stroke-width:1pt;stroke-linejoin:miter;stroke-linecap:butt;"
     id="path573"
     d="M 486.707397 252.830658 A 224.699402 228.515045 0 1 0 37.308594,252.830658 A 224.699 228.515 0 1 0 486.707 252.831 L 262.007996 252.830658 z"
     sodipodi:cx="262.007996"
     sodipodi:cy="252.830658"
     sodipodi:rx="224.699402"
     sodipodi:ry="228.515045"
     transform="matrix(1.030189,0.000000,0.000000,1.005566,-20.62849,-4.374924)" />
  <path
     sodipodi:type="arc"
     style="fill-rule:evenodd;stroke:none;fill:#9b9f9f;fill-opacity:1;stroke-opacity:1;stroke-width:1pt;stroke-linejoin:miter;stroke-linecap:butt;"
     id="path574"
     d="M 518.080505 299.466400 A 211.132645 206.469070 0 1 0 95.815231,299.466400 A 211.133 206.469 0 1 0 518.081 299.466 L 306.947876 299.466400 z"
     sodipodi:cx="306.947876"
     sodipodi:cy="299.466400"
     sodipodi:rx="211.132645"
     sodipodi:ry="206.469070"
     transform="matrix(1.066265,0.000000,0.000000,1.088295,-78.42259,-76.04500)" />
  <g
     id="g580"
     transform="matrix(-1.000000,1.224606e-16,-1.224606e-16,-1.000000,499.5483,495.8787)">
    <path
       sodipodi:type="arc"
       style="font-size:12;fill:url(#linearGradient645);fill-rule:evenodd;stroke-width:1pt;"
       id="path581"
       d="M 110.183922,258.087219 A 188.662704,182.303299 0 0 1 207.377853,140.813293 L 292.957153,303.282043 z"
       sodipodi:cx="292.957153"
       sodipodi:cy="303.282043"
       sodipodi:rx="188.662704"
       sodipodi:ry="182.303299"
       transform="matrix(-1.158207,1.395124e-16,-1.440302e-16,-1.156878,591.6208,609.2519)"
       sodipodi:start="3.392115"
       sodipodi:end="4.241577" />
    <path
       sodipodi:type="arc"
       style="font-size:12;fill:url(#linearGradient641);fill-rule:evenodd;stroke-width:1pt;"
       id="path582"
       d="M 127.803894,215.153137 A 188.662704,182.303299 0 0 1 167.865601,166.813263 L 292.957153,303.282043 z"
       sodipodi:cx="292.957153"
       sodipodi:cy="303.282043"
       sodipodi:rx="188.662704"
       sodipodi:ry="182.303299"
       transform="matrix(-1.158207,1.395124e-16,-1.440302e-16,-1.156878,591.6208,607.6696)"
       sodipodi:start="3.646149"
       sodipodi:end="3.987512" />
  </g>
  <g
     id="g577">
    <path
       sodipodi:type="arc"
       style="font-size:12;fill:url(#linearGradient645);fill-rule:evenodd;stroke-width:1pt;"
       id="path651"
       d="M 110.183922,258.087219 A 188.662704,182.303299 0 0 1 207.377853,140.813293 L 292.957153,303.282043 z"
       sodipodi:cx="292.957153"
       sodipodi:cy="303.282043"
       sodipodi:rx="188.662704"
       sodipodi:ry="182.303299"
       transform="matrix(-1.158207,1.395124e-16,-1.440302e-16,-1.156878,591.6208,609.2519)"
       sodipodi:start="3.392115"
       sodipodi:end="4.241577" />
    <path
       sodipodi:type="arc"
       style="font-size:12;fill:url(#linearGradient641);fill-rule:evenodd;stroke-width:1pt;"
       id="path652"
       d="M 127.803894,215.153137 A 188.662704,182.303299 0 0 1 167.865601,166.813263 L 292.957153,303.282043 z"
       sodipodi:cx="292.957153"
       sodipodi:cy="303.282043"
       sodipodi:rx="188.662704"
       sodipodi:ry="182.303299"
       transform="matrix(-1.158207,1.395124e-16,-1.440302e-16,-1.156878,591.6208,607.6696)"
       sodipodi:start="3.646149"
       sodipodi:end="3.987512" />
  </g>
  <path
     sodipodi:type="arc"
     style="fill-rule:evenodd;stroke:#000000;fill:#ffffff;fill-opacity:1;stroke-opacity:1;stroke-width:1pt;stroke-linejoin:miter;stroke-linecap:butt;"
     id="path575"
     d="M 278.966431 254.102554 A 30.525208 29.677292 0 1 0 217.916016,254.102554 A 30.5252 29.6773 0 1 0 278.966 254.103 L 248.441223 254.102554 z"
     sodipodi:cx="248.441223"
     sodipodi:cy="254.102554"
     sodipodi:rx="30.525208"
     sodipodi:ry="29.677292"
     transform="matrix(1.194444,0.000000,0.000000,1.185714,-44.06837,-53.54984)" />
  <path
     sodipodi:type="arc"
     style="fill-rule:evenodd;stroke:#000000;fill:none;fill-opacity:1;stroke-opacity:1;stroke-width:1pt;stroke-linejoin:miter;stroke-linecap:butt;"
     id="path579"
     d="M 267.095520 254.526505 A 13.566757 13.990707 0 1 0 239.962006,254.526505 A 13.5668 13.9907 0 1 0 267.096 254.527 L 253.528763 254.526505 z"
     sodipodi:cx="253.528763"
     sodipodi:cy="254.526505"
     sodipodi:rx="13.566757"
     sodipodi:ry="13.990707"
     transform="matrix(1.843750,0.000000,0.000000,1.787879,-214.3388,-207.3196)" />
  <path
     sodipodi:type="arc"
     style="fill-rule:evenodd;stroke:none;fill:#ffffff;fill-opacity:1;stroke-opacity:1;stroke-width:1pt;stroke-linejoin:miter;stroke-linecap:butt;"
     id="path599"
     d="M 267.095520 254.526505 A 13.566757 13.990707 0 1 0 239.962006,254.526505 A 13.5668 13.9907 0 1 0 267.096 254.527 L 253.528763 254.526505 z"
     sodipodi:cx="253.528763"
     sodipodi:cy="254.526505"
     sodipodi:rx="13.566757"
     sodipodi:ry="13.990707"
     transform="matrix(1.843750,0.000000,0.000000,1.787879,-214.3388,-207.3196)" />

  <rdf:RDF 
   xmlns="http://web.resource.org/cc/"
   xmlns:dc="http://purl.org/dc/elements/1.1/"
   xmlns:rdf="http://www.w3.org/1999/02/22-rdf-syntax-ns#">
  <Work rdf:about="">
    <dc:title>Clipart by Nicu Buculei - antenna</dc:title>
    <dc:rights>
       <Agent>
         <dc:title>Nicu Buculei</dc:title>
       </Agent>
    </dc:rights>
    <dc:type rdf:resource="http://purl.org/dc/dcmitype/StillImage" />
    <license rdf:resource="http://web.resource.org/cc/PublicDomain" />
  </Work>
   
  <License rdf:about="http://web.resource.org/cc/PublicDomain">
     <permits rdf:resource="http://web.resource.org/cc/Reproduction" />
     <permits rdf:resource="http://web.resource.org/cc/Distribution" />
     <permits rdf:resource="http://web.resource.org/cc/DerivativeWorks" />
  </License>

</rdf:RDF>
</svg>
