<?xml version="1.0" encoding="UTF-8" standalone="no"?>
<!DOCTYPE svg PUBLIC "-//W3C//DTD SVG 20010904//EN"
"http://www.w3.org/TR/2001/REC-SVG-20010904/DTD/svg10.dtd">
<!-- Created with Inkscape (http://www.inkscape.org/) -->
<svg
   id="svg548"
   sodipodi:version="0.32"
   width="400pt"
   height="400pt"
   sodipodi:docbase="/var/www/html/svg_gallery/svg/computers"
   sodipodi:docname="hub.svg"
   xmlns="http://www.w3.org/2000/svg"
   xmlns:sodipodi="http://sodipodi.sourceforge.net/DTD/sodipodi-0.dtd"
   xmlns:xlink="http://www.w3.org/1999/xlink"
   xmlns:inkscape="http://www.inkscape.org/namespaces/inkscape"
   inkscape:version="0.37">
  <defs
     id="defs550">
    <linearGradient
       id="linearGradient1164">
      <stop
         style="stop-color:#263d42;stop-opacity:1;"
         offset="0.000000"
         id="stop1165" />
      <stop
         style="stop-color:#9acde7;stop-opacity:1;"
         offset="1.000000"
         id="stop1166" />
    </linearGradient>
    <linearGradient
       xlink:href="#linearGradient1164"
       id="linearGradient1167"
       x1="0.47572812"
       y1="0.60155678"
       x2="-0.13106795"
       y2="-0.12500010"
       gradientUnits="objectBoundingBox"
       spreadMethod="reflect" />
  </defs>
  <sodipodi:namedview
     id="base"
     showgrid="true"
     inkscape:zoom="0.77250000"
     inkscape:cx="200.000000"
     inkscape:cy="200.000000"
     inkscape:window-width="400"
     inkscape:window-height="500"
     inkscape:window-x="0"
     inkscape:window-y="24" />
  <path
     style="fill:#000000;fill-rule:evenodd;stroke:none;stroke-opacity:1;stroke-width:1pt;stroke-linejoin:miter;stroke-linecap:butt;fill-opacity:0.251852;"
     d="M 183.544 186.709 C 183.544 186.709 412.975 180.38 417.722 188.291 C 422.468 196.203 450.949 246.835 450.949 246.835 C 450.949 246.835 420.886 193.038 183.544 186.709 z "
     id="path586" />
  <g
     id="g880">
    <path
       style="font-size:12;fill:#4c4b4c;fill-rule:evenodd;stroke:#000000;stroke-width:3.75;stroke-linejoin:bevel;"
       d="M 33.75 181.25 L 477.5 182.5 L 481.25 268.75 L 32.5 270 L 33.75 181.25 z "
       id="path1435"
       transform="translate(-3.750000,70.00000)" />
    <path
       style="font-size:12;fill:#4c4b4c;fill-rule:evenodd;stroke:#000000;stroke-width:3.75;stroke-linejoin:bevel;"
       d="M 32.5 180 C 33.75 178.75 107.5 111.25 107.5 111.25 L 426.25 111.25 L 477.5 183.75 L 32.5 180 z "
       id="path1436"
       transform="translate(-3.750000,70.00000)" />
    <path
       style="font-size:12;fill-rule:evenodd;stroke:#000000;stroke-width:3.75;stroke-linejoin:bevel;"
       d="M 51.25 201.25 L 51.25 218.75 L 70 218.75 L 70 201.25 L 51.25 201.25 z "
       id="path1437"
       sodipodi:nodetypes="ccccc"
       transform="translate(387.5000,65.00000)" />
    <path
       style="font-size:12;fill-rule:evenodd;stroke:#000000;stroke-width:3.75;stroke-linejoin:bevel;"
       d="M 51.25 201.25 L 51.25 218.75 L 70 218.75 L 70 201.25 L 51.25 201.25 z "
       id="path1438"
       sodipodi:nodetypes="ccccc"
       transform="translate(353.7500,65.00000)" />
    <path
       style="font-size:12;fill-rule:evenodd;stroke:#000000;stroke-width:3.75;stroke-linejoin:bevel;"
       d="M 51.25 201.25 L 51.25 218.75 L 70 218.75 L 70 201.25 L 51.25 201.25 z "
       id="path1439"
       sodipodi:nodetypes="ccccc"
       transform="translate(322.5000,65.00000)" />
    <path
       style="font-size:12;fill-rule:evenodd;stroke:#000000;stroke-width:3.75;stroke-linejoin:bevel;"
       d="M 51.25 201.25 L 51.25 218.75 L 70 218.75 L 70 201.25 L 51.25 201.25 z "
       id="path1440"
       sodipodi:nodetypes="ccccc"
       transform="translate(290.0000,65.00000)" />
    <path
       style="font-size:12;fill-rule:evenodd;stroke:#000000;stroke-width:3.75;stroke-linejoin:bevel;"
       d="M 51.25 201.25 L 51.25 218.75 L 70 218.75 L 70 201.25 L 51.25 201.25 z "
       id="path1441"
       sodipodi:nodetypes="ccccc"
       transform="translate(258.7500,65.00000)" />
    <path
       style="font-size:12;fill-rule:evenodd;stroke:#000000;stroke-width:3.75;stroke-linejoin:bevel;"
       d="M 51.25 201.25 L 51.25 218.75 L 70 218.75 L 70 201.25 L 51.25 201.25 z "
       id="path1442"
       sodipodi:nodetypes="ccccc"
       transform="translate(228.7500,65.00000)" />
    <path
       style="font-size:12;fill-rule:evenodd;stroke:#000000;stroke-width:3.75;stroke-linejoin:bevel;"
       d="M 51.25 201.25 L 51.25 218.75 L 70 218.75 L 70 201.25 L 51.25 201.25 z "
       id="path1443"
       sodipodi:nodetypes="ccccc"
       transform="translate(198.7500,65.00000)" />
    <path
       style="font-size:12;fill-rule:evenodd;stroke:#000000;stroke-width:3.75;stroke-linejoin:bevel;"
       d="M 51.25 201.25 L 51.25 218.75 L 70 218.75 L 70 201.25 L 51.25 201.25 z "
       id="path1444"
       sodipodi:nodetypes="ccccc"
       transform="translate(168.7500,65.00000)" />
    <path
       style="font-size:12;fill-rule:evenodd;stroke:#000000;stroke-width:3.75;stroke-linejoin:bevel;"
       d="M 51.25 201.25 L 51.25 218.75 L 70 218.75 L 70 201.25 L 51.25 201.25 z "
       id="path1445"
       sodipodi:nodetypes="ccccc"
       transform="translate(138.7500,65.00000)" />
    <path
       style="font-size:12;fill-rule:evenodd;stroke:#000000;stroke-width:3.75;stroke-linejoin:bevel;"
       d="M 51.25 201.25 L 51.25 218.75 L 70 218.75 L 70 201.25 L 51.25 201.25 z "
       id="path1446"
       sodipodi:nodetypes="ccccc"
       transform="translate(107.5000,65.00000)" />
    <path
       style="font-size:12;fill-rule:evenodd;stroke:#000000;stroke-width:3.75;stroke-linejoin:bevel;"
       d="M 51.25 201.25 L 51.25 218.75 L 70 218.75 L 70 201.25 L 51.25 201.25 z "
       id="path1447"
       sodipodi:nodetypes="ccccc"
       transform="translate(78.75000,65.00000)" />
    <path
       style="font-size:12;fill-rule:evenodd;stroke:#000000;stroke-width:3.75;stroke-linejoin:bevel;"
       d="M 51.25 201.25 L 51.25 218.75 L 70 218.75 L 70 201.25 L 51.25 201.25 z "
       id="path1448"
       sodipodi:nodetypes="ccccc"
       transform="translate(48.75000,65.00000)" />
    <path
       style="font-size:12;fill-rule:evenodd;stroke:#000000;stroke-width:3.75;stroke-linejoin:bevel;"
       d="M 51.25 201.25 L 51.25 218.75 L 70 218.75 L 70 201.25 L 51.25 201.25 z "
       id="path1449"
       sodipodi:nodetypes="ccccc"
       transform="translate(17.50000,65.00000)" />
    <path
       style="font-size:12;fill-rule:evenodd;stroke:#000000;stroke-width:3.75;stroke-linejoin:bevel;"
       d="M 51.25 201.25 L 51.25 218.75 L 70 218.75 L 70 201.25 L 51.25 201.25 z "
       id="path1450"
       sodipodi:nodetypes="ccccc"
       transform="translate(-11.25000,65.00000)" />
    <path
       style="font-size:12;fill-rule:evenodd;stroke:#000000;stroke-width:3.75;stroke-linejoin:bevel;"
       d="M 51.25 201.25 L 51.25 218.75 L 70 218.75 L 70 201.25 L 51.25 201.25 z "
       id="path1451"
       sodipodi:nodetypes="ccccc"
       transform="translate(388.7500,103.7500)" />
    <path
       style="font-size:12;fill-rule:evenodd;stroke:#000000;stroke-width:3.75;stroke-linejoin:bevel;"
       d="M 51.25 201.25 L 51.25 218.75 L 70 218.75 L 70 201.25 L 51.25 201.25 z "
       id="path1452"
       sodipodi:nodetypes="ccccc"
       transform="translate(355.0000,103.7500)" />
    <path
       style="font-size:12;fill-rule:evenodd;stroke:#000000;stroke-width:3.75;stroke-linejoin:bevel;"
       d="M 51.25 201.25 L 51.25 218.75 L 70 218.75 L 70 201.25 L 51.25 201.25 z "
       id="path1453"
       sodipodi:nodetypes="ccccc"
       transform="translate(323.7500,103.7500)" />
    <path
       style="font-size:12;fill-rule:evenodd;stroke:#000000;stroke-width:3.75;stroke-linejoin:bevel;"
       d="M 51.25 201.25 L 51.25 218.75 L 70 218.75 L 70 201.25 L 51.25 201.25 z "
       id="path1454"
       sodipodi:nodetypes="ccccc"
       transform="translate(291.2500,103.7500)" />
    <path
       style="font-size:12;fill-rule:evenodd;stroke:#000000;stroke-width:3.75;stroke-linejoin:bevel;"
       d="M 51.25 201.25 L 51.25 218.75 L 70 218.75 L 70 201.25 L 51.25 201.25 z "
       id="path1455"
       sodipodi:nodetypes="ccccc"
       transform="translate(260.0000,103.7500)" />
    <path
       style="font-size:12;fill-rule:evenodd;stroke:#000000;stroke-width:3.75;stroke-linejoin:bevel;"
       d="M 51.25 201.25 L 51.25 218.75 L 70 218.75 L 70 201.25 L 51.25 201.25 z "
       id="path1456"
       sodipodi:nodetypes="ccccc"
       transform="translate(230.0000,103.7500)" />
    <path
       style="font-size:12;fill-rule:evenodd;stroke:#000000;stroke-width:3.75;stroke-linejoin:bevel;"
       d="M 51.25 201.25 L 51.25 218.75 L 70 218.75 L 70 201.25 L 51.25 201.25 z "
       id="path1457"
       sodipodi:nodetypes="ccccc"
       transform="translate(200.0000,103.7500)" />
    <path
       style="font-size:12;fill-rule:evenodd;stroke:#000000;stroke-width:3.75;stroke-linejoin:bevel;"
       d="M 51.25 201.25 L 51.25 218.75 L 70 218.75 L 70 201.25 L 51.25 201.25 z "
       id="path1458"
       sodipodi:nodetypes="ccccc"
       transform="translate(170.0000,103.7500)" />
    <path
       style="font-size:12;fill-rule:evenodd;stroke:#000000;stroke-width:3.75;stroke-linejoin:bevel;"
       d="M 51.25 201.25 L 51.25 218.75 L 70 218.75 L 70 201.25 L 51.25 201.25 z "
       id="path1459"
       sodipodi:nodetypes="ccccc"
       transform="translate(140.0000,103.7500)" />
    <path
       style="font-size:12;fill-rule:evenodd;stroke:#000000;stroke-width:3.75;stroke-linejoin:bevel;"
       d="M 51.25 201.25 L 51.25 218.75 L 70 218.75 L 70 201.25 L 51.25 201.25 z "
       id="path1460"
       sodipodi:nodetypes="ccccc"
       transform="translate(108.7500,103.7500)" />
    <path
       style="font-size:12;fill-rule:evenodd;stroke:#000000;stroke-width:3.75;stroke-linejoin:bevel;"
       d="M 51.25 201.25 L 51.25 218.75 L 70 218.75 L 70 201.25 L 51.25 201.25 z "
       id="path1461"
       sodipodi:nodetypes="ccccc"
       transform="translate(80.00000,103.7500)" />
    <path
       style="font-size:12;fill-rule:evenodd;stroke:#000000;stroke-width:3.75;stroke-linejoin:bevel;"
       d="M 51.25 201.25 L 51.25 218.75 L 70 218.75 L 70 201.25 L 51.25 201.25 z "
       id="path1462"
       sodipodi:nodetypes="ccccc"
       transform="translate(50.00000,103.7500)" />
    <path
       style="font-size:12;fill-rule:evenodd;stroke:#000000;stroke-width:3.75;stroke-linejoin:bevel;"
       d="M 51.25 201.25 L 51.25 218.75 L 70 218.75 L 70 201.25 L 51.25 201.25 z "
       id="path1463"
       sodipodi:nodetypes="ccccc"
       transform="translate(18.75000,103.7500)" />
    <path
       style="font-size:12;fill-rule:evenodd;stroke:#000000;stroke-width:3.75;stroke-linejoin:bevel;"
       d="M 51.25 201.25 L 51.25 218.75 L 70 218.75 L 70 201.25 L 51.25 201.25 z "
       id="path1464"
       sodipodi:nodetypes="ccccc"
       transform="translate(-10.00000,103.7500)" />
  </g>

  <rdf:RDF 
   xmlns="http://web.resource.org/cc/"
   xmlns:dc="http://purl.org/dc/elements/1.1/"
   xmlns:rdf="http://www.w3.org/1999/02/22-rdf-syntax-ns#">
  <Work rdf:about="">
    <dc:title>Clipart by Nicu Buculei - antenna</dc:title>
    <dc:rights>
       <Agent>
         <dc:title>Nicu Buculei</dc:title>
       </Agent>
    </dc:rights>
    <dc:type rdf:resource="http://purl.org/dc/dcmitype/StillImage" />
    <license rdf:resource="http://web.resource.org/cc/PublicDomain" />
  </Work>
   
  <License rdf:about="http://web.resource.org/cc/PublicDomain">
     <permits rdf:resource="http://web.resource.org/cc/Reproduction" />
     <permits rdf:resource="http://web.resource.org/cc/Distribution" />
     <permits rdf:resource="http://web.resource.org/cc/DerivativeWorks" />
  </License>

</rdf:RDF>
</svg>
