<?xml version="1.0" encoding="UTF-8" standalone="no"?>
<!DOCTYPE svg PUBLIC "-//W3C//DTD SVG 20010904//EN"
"http://www.w3.org/TR/2001/REC-SVG-20010904/DTD/svg10.dtd">
<!-- Created with Sodipodi ("http://www.sodipodi.com/") -->
<svg
   id="svg548"
   sodipodi:version="0.32"
   width="400pt"
   height="400pt"
   sodipodi:docbase="/home/nicu/svg_gal/computers/"
   sodipodi:docname="/home/nicu/svg_gal/computers/monitor.svg"
   xmlns="http://www.w3.org/2000/svg"
   xmlns:sodipodi="http://sodipodi.sourceforge.net/DTD/sodipodi-0.dtd"
   xmlns:xlink="http://www.w3.org/1999/xlink">
  <defs
     id="defs550">
    <linearGradient
       id="linearGradient611">
      <stop
         style="stop-color:#544742;stop-opacity:1;"
         offset="0.000000"
         id="stop612" />
      <stop
         style="stop-color:#f5ffff;stop-opacity:1;"
         offset="1.000000"
         id="stop613" />
    </linearGradient>
    <linearGradient
       xlink:href="#linearGradient611"
       id="linearGradient614"
       x1="0.39726025"
       y1="0.53125000"
       x2="-0.45205477"
       y2="-0.32812500"
       gradientUnits="objectBoundingBox"
       spreadMethod="reflect" />
  </defs>
  <sodipodi:namedview
     id="base"
     showgrid="true" />
  <g
     id="g818">
    <g
       id="g801">
      <path
         style="font-size:12;fill:#b3b3b3;fill-rule:evenodd;stroke:#000000;stroke-width:1pt;"
         d="M 119.557 425.383 L 119.557 438.102 L 435.832 344.83 L 436.68 329.568 L 119.557 425.383 z "
         id="path607"
         transform="translate(-0.847921,19.50222)"
         sodipodi:nodetypes="ccccc" />
      <g
         id="g798">
        <path
           style="font-size:12;fill:#cccccc;fill-rule:evenodd;stroke:#000000;stroke-width:1pt;"
           d="M 166.193 347.374 L 119.557 426.231 L 436.68 329.568 L 345.104 298.194 L 166.193 347.374 z "
           id="path606"
           transform="translate(-0.847921,19.50222)"
           sodipodi:nodetypes="ccccc" />
        <path
           style="fill:#cccccc;fill-rule:evenodd;stroke:black;stroke-opacity:1;stroke-width:1pt;stroke-linejoin:miter;stroke-linecap:butt;fill-opacity:1;"
           d="M 139.059 335.503 C 139.059 335.503 127.188 354.157 132.275 369.42 C 136.515 388.075 150.082 392.314 153.474 392.314 C 156.866 392.314 377.177 334.884 377.177 334.884 C 377.177 334.884 383.26 322.784 386.652 303.282 C 379.869 279.54 367.15 276.996 352.735 276.996 C 328.993 263.43 353.584 276.996 353.584 276.996 L 139.059 335.503 z "
           id="path605"
           sodipodi:nodetypes="cccccccc"
           transform="matrix(0.708121,0.000000,0.000000,0.825311,71.30738,59.20586)" />
      </g>
    </g>
    <g
       id="g811">
      <path
         style="fill:#b3b3b3;fill-rule:evenodd;stroke:black;stroke-opacity:1;stroke-width:1pt;stroke-linejoin:miter;stroke-linecap:butt;fill-opacity:1;"
         d="M 420.57 16.6844 C 420.57 17.5323 399.371 11.5968 377.325 9.90093 C 367.15 10.7489 66.1379 65.8638 63.5942 65.8638 C 67.8338 65.0159 54.267 65.8638 50.8753 73.4951 C 47.4836 81.1264 47.4836 343.134 47.4836 343.134 C 47.4836 343.134 47.4837 350.766 52.5712 356.701 C 60.2025 360.093 80.5526 360.941 72.9213 360.941 L 420.57 16.6844 z "
         id="path602"
         sodipodi:nodetypes="cccccccc" />
      <g
         id="g806">
        <path
           style="fill:#cccccc;fill-rule:evenodd;stroke:black;stroke-opacity:1;stroke-width:1pt;stroke-linejoin:miter;stroke-linecap:butt;fill-opacity:1;"
           d="M 71.2332 108.009 L 418.873 40.4261 C 423.961 43.8178 429.049 41.2741 431.593 51.4492 C 434.137 61.6241 430.745 304.978 430.745 304.978 C 430.745 304.978 432.44 312.609 426.505 316.849 C 420.569 321.088 79.6699 416.904 79.6699 416.904 C 79.6699 416.904 69.4946 421.143 63.5593 412.664 C 55.0803 410.121 60.2025 124.37 60.2025 124.37 C 60.2025 124.37 61.0271 110.72 71.2332 108.009 z "
           id="path600"
           sodipodi:nodetypes="ccccccccc"
           transform="matrix(0.995445,0.000000,0.000000,0.910163,2.817975,-20.11005)" />
        <g
           id="g795">
          <path
             style="fill:url(#linearGradient614);fill-rule:evenodd;stroke:black;stroke-opacity:1;stroke-width:1pt;stroke-linejoin:miter;stroke-linecap:butt;fill-opacity:1;"
             d="M 89.0318 98.0844 L 394.284 38.7303 C 394.284 38.7303 401.915 36.1865 407.851 45.5137 C 413.786 54.8408 412.09 59.0804 412.09 59.0804 L 412.09 234.6 C 411.242 243.927 412.938 240.535 407.851 250.711 C 397.675 254.102 105.142 333.807 105.142 333.807 C 105.142 333.807 105.142 335.503 94.9673 333.807 C 84.7922 332.111 81.4005 316.001 81.4005 315.153 C 81.4005 314.305 78.0088 115.891 78.0088 115.891 C 78.0088 115.891 79.7048 101.476 89.0318 98.0844 z "
             id="path603"
             sodipodi:nodetypes="ccccccccccc" />
          <path
             style="fill:#00feb3;fill-rule:evenodd;stroke:black;stroke-opacity:1;stroke-width:1pt;stroke-linejoin:miter;stroke-linecap:butt;fill-opacity:1;"
             d="M 368.846 266.821 L 398.523 258.342 L 398.523 271.909 C 398.523 271.909 368.846 279.54 368.846 280.388 C 368.846 281.236 368.846 266.821 368.846 266.821 z "
             id="path604"
             sodipodi:nodetypes="ccccc" />
        </g>
      </g>
    </g>
  </g>
  <path
     style="fill:#ffffff;fill-rule:evenodd;stroke:none;stroke-opacity:1;stroke-width:1pt;stroke-linejoin:miter;stroke-linecap:butt;fill-opacity:0.5;"
     d="M 88.6076 300.633 C 88.6076 300.633 79.1139 129.747 87.0253 104.431 C 102.848 96.5189 321.203 61.7089 321.203 61.7089 C 321.203 61.7089 85.4434 79.114 88.6076 300.633 z "
     id="path568"
     sodipodi:nodetypes="cccc" />
  <path
     style="fill:#ffffff;fill-rule:evenodd;stroke:none;stroke-opacity:1;stroke-width:1pt;stroke-linejoin:miter;stroke-linecap:butt;fill-opacity:0.498039;"
     d="M 348.101 327.532 C 348.101 327.532 414.557 340.19 408.228 348.101 C 401.899 356.013 270.57 393.987 270.57 393.987 C 270.57 393.987 431.962 344.937 348.101 327.532 z "
     id="path569" />
  <path
     style="fill:#ffffff;fill-rule:evenodd;stroke:none;stroke-opacity:1;stroke-width:1pt;stroke-linejoin:miter;stroke-linecap:butt;fill-opacity:0.498039;"
     d="M 175.633 338.608 C 170.886 346.519 159.81 352.848 175.633 378.165 C 189.874 376.582 191.455 343.355 175.633 338.608 z "
     id="path570"
     sodipodi:nodetypes="ccc" />

  <rdf:RDF 
   xmlns="http://web.resource.org/cc/"
   xmlns:dc="http://purl.org/dc/elements/1.1/"
   xmlns:rdf="http://www.w3.org/1999/02/22-rdf-syntax-ns#">
  <Work rdf:about="">
    <dc:title>Clipart by Nicu Buculei - antenna</dc:title>
    <dc:rights>
       <Agent>
         <dc:title>Nicu Buculei</dc:title>
       </Agent>
    </dc:rights>
    <dc:type rdf:resource="http://purl.org/dc/dcmitype/StillImage" />
    <license rdf:resource="http://web.resource.org/cc/PublicDomain" />
  </Work>
   
  <License rdf:about="http://web.resource.org/cc/PublicDomain">
     <permits rdf:resource="http://web.resource.org/cc/Reproduction" />
     <permits rdf:resource="http://web.resource.org/cc/Distribution" />
     <permits rdf:resource="http://web.resource.org/cc/DerivativeWorks" />
  </License>

</rdf:RDF>
</svg>
