<?xml version="1.0" encoding="UTF-8" standalone="no"?>
<!DOCTYPE svg PUBLIC "-//W3C//DTD SVG 20010904//EN"
"http://www.w3.org/TR/2001/REC-SVG-20010904/DTD/svg10.dtd">
<!-- Created with Inkscape (http://www.inkscape.org/) -->
<svg
   id="svg548"
   sodipodi:version="0.32"
   width="400pt"
   height="400pt"
   sodipodi:docbase="/var/www/html/svg_gallery/svg/computers"
   sodipodi:docname="network_cloud.svg"
   xmlns="http://www.w3.org/2000/svg"
   xmlns:sodipodi="http://sodipodi.sourceforge.net/DTD/sodipodi-0.dtd"
   xmlns:xlink="http://www.w3.org/1999/xlink"
   xmlns:inkscape="http://www.inkscape.org/namespaces/inkscape"
   inkscape:version="0.37">
  <defs
     id="defs550">
    <linearGradient
       id="linearGradient1164">
      <stop
         style="stop-color:#263d42;stop-opacity:1;"
         offset="0.000000"
         id="stop1165" />
      <stop
         style="stop-color:#9acde7;stop-opacity:1;"
         offset="1.000000"
         id="stop1166" />
    </linearGradient>
    <linearGradient
       xlink:href="#linearGradient1164"
       id="linearGradient1167"
       x1="0.47572812"
       y1="0.60155678"
       x2="-0.13106795"
       y2="-0.12500010"
       gradientUnits="objectBoundingBox"
       spreadMethod="reflect" />
  </defs>
  <sodipodi:namedview
     id="base"
     showgrid="true"
     inkscape:zoom="0.77250000"
     inkscape:cx="200.000000"
     inkscape:cy="200.000000"
     inkscape:window-width="400"
     inkscape:window-height="500"
     inkscape:window-x="410"
     inkscape:window-y="24" />
  <path
     style="fill:#ffffff;fill-rule:evenodd;stroke:black;stroke-opacity:1;stroke-width:3.75;stroke-linejoin:bevel;stroke-linecap:butt;fill-opacity:1;stroke-dasharray:none;"
     d="M 127.5 106.25 C 127.5 106.25 126.25 18.7501 231.25 45 C 336.25 71.25 317.5 115 318.75 115 C 320 115 300 61.25 380 51.25 C 452.5 57.5 486.25 71.25 482.5 117.5 C 478.75 163.75 443.75 175 443.75 175 C 443.75 175 507.5 181.25 490 275 C 462.5 340 462.5 333.75 398.75 341.25 C 370 330 368.75 320 368.75 320 C 368.75 320 421.25 368.75 342.5 400 C 253.75 423.75 242.5 402.5 205 391.25 C 168.75 368.75 176.25 341.25 176.25 341.25 C 176.25 341.25 198.75 387.5 122.5 396.25 C 46.25 405 17.5 387.5 3.75 316.25 C 2.08616e-06 262.5 67.5 257.5 67.5 257.5 C 67.5 257.5 26.25 258.75 15 231.25 C 3.75 203.75 -3.75 167.5 30 118.75 C 92.5 60 135 98.75 127.5 106.25 z "
     id="path1503"
     sodipodi:nodetypes="cccccccccccccccccc" />

  <rdf:RDF 
   xmlns="http://web.resource.org/cc/"
   xmlns:dc="http://purl.org/dc/elements/1.1/"
   xmlns:rdf="http://www.w3.org/1999/02/22-rdf-syntax-ns#">
  <Work rdf:about="">
    <dc:title>Clipart by Nicu Buculei - antenna</dc:title>
    <dc:rights>
       <Agent>
         <dc:title>Nicu Buculei</dc:title>
       </Agent>
    </dc:rights>
    <dc:type rdf:resource="http://purl.org/dc/dcmitype/StillImage" />
    <license rdf:resource="http://web.resource.org/cc/PublicDomain" />
  </Work>
   
  <License rdf:about="http://web.resource.org/cc/PublicDomain">
     <permits rdf:resource="http://web.resource.org/cc/Reproduction" />
     <permits rdf:resource="http://web.resource.org/cc/Distribution" />
     <permits rdf:resource="http://web.resource.org/cc/DerivativeWorks" />
  </License>

</rdf:RDF>
</svg>
