<?xml version="1.0" encoding="UTF-8" standalone="no"?>
<!DOCTYPE svg PUBLIC "-//W3C//DTD SVG 1.0//EN"
"http://www.w3.org/TR/2001/REC-SVG-20010904/DTD/svg10.dtd">
<!-- Created with Inkscape (http://www.inkscape.org/) -->
<svg
   id="svg1"
   sodipodi:version="0.32"
   inkscape:version="0.38.1"
   xmlns="http://www.w3.org/2000/svg"
   xmlns:sodipodi="http://sodipodi.sourceforge.net/DTD/sodipodi-0.dtd"
   xmlns:inkscape="http://www.inkscape.org/namespaces/inkscape"
   xmlns:xlink="http://www.w3.org/1999/xlink"
   width="200.00000pt"
   height="200.00000pt"
   sodipodi:docbase="/var/www/html/svg_gallery/svg/computers"
   sodipodi:docname="open_source.svg">
  <defs
     id="defs3" />
  <sodipodi:namedview
     id="base"
     pagecolor="#ffffff"
     bordercolor="#666666"
     borderopacity="1.0"
     inkscape:pageopacity="0.0"
     inkscape:pageshadow="2"
     inkscape:zoom="1.00000000"
     inkscape:cx="234.36136"
     inkscape:cy="51.466354"
     inkscape:window-width="640"
     inkscape:window-height="500"
     showgrid="true"
     inkscape:window-x="415"
     inkscape:window-y="140" />
  <g
     id="g847">
    <path
       style="fill:#429b3f;fill-rule:evenodd;stroke:#004400;stroke-width:4.4619746;stroke-linejoin:round;"
       d="M 117.96190,17.470784 C 69.282755,17.470784 29.780540,56.845654 29.780545,105.37105 C 29.780545,142.52163 52.967766,174.24705 85.668066,187.11036 L 105.14759,137.46979 C 92.045845,131.92291 82.851567,118.97697 82.851567,103.90065 C 82.851575,83.776925 99.234327,67.449537 119.42177,67.449537 C 139.60919,67.449547 155.99196,83.776934 155.99196,103.90065 C 155.99196,117.41789 148.59024,129.20426 137.61839,135.49946 L 162.08208,181.40521 C 188.39693,166.18855 206.14325,137.85981 206.14327,105.37105 C 206.14327,56.845659 166.64105,17.470784 117.96190,17.470784 z "
       id="path834" />
    <path
       style="font-size:20.000000;stroke-width:1.0000000pt;font-family:Bitstream Vera Sans;fill:#004500;fill-opacity:1.0000000;"
       d="M 214.74118,157.22749 L 218.62530,157.22749 L 223.54174,168.96719 L 228.48398,157.22749 L 232.36809,157.22749 L 235.84161,174.25369 L 232.76314,174.39913 L 229.82599,159.33047 L 224.85794,171.16259 L 222.23844,171.16259 L 217.27037,159.33047 L 215.07389,174.25369 L 212.17437,174.32641 L 214.74118,157.22749 z M 195.92711,157.22749 L 212.22490,157.22749 L 212.22490,159.19182 L 205.38576,159.19182 L 205.38576,174.47884 L 202.76624,174.47884 L 202.76624,159.19182 L 195.92711,159.19182 L 195.92711,157.22749 z "
       id="path838"
       sodipodi:nodetypes="ccccccccccccccccccccccc" />
    <path
       style="font-size:36.000000;font-weight:bold;stroke-width:1.0000000pt;font-family:Bitstream Vera Sans Mono;"
       d="M 98.141146,207.56637 L 98.141146,222.49226 L 92.369201,222.49226 L 92.369201,208.49026 C 92.369201,206.82042 92.137794,205.62963 91.674980,204.91789 C 91.225390,204.19248 90.484889,203.82976 89.453475,203.82976 C 88.408839,203.82976 87.582386,204.31566 86.974118,205.28745 C 86.379071,206.25924 86.081548,207.60743 86.081548,209.33202 L 86.081548,222.49226 L 80.309603,222.49226 L 80.309603,199.49777 L 86.081548,199.49777 L 86.081548,202.94694 C 86.491469,201.67403 87.192301,200.68856 88.184044,199.99050 C 89.175788,199.29246 90.372490,198.94344 91.774155,198.94344 C 93.876650,198.94344 95.463439,199.66886 96.534522,201.11970 C 97.605605,202.55686 98.141146,204.70574 98.141146,207.56637 z M 74.299639,221.36306 C 72.950868,221.93793 71.575650,222.36907 70.173987,222.65650 C 68.772323,222.94394 67.291319,223.08766 65.730977,223.08766 C 62.015246,223.08766 59.172249,222.06111 57.201985,220.00804 C 55.244945,217.94127 54.266426,214.97115 54.266426,211.09767 C 54.266426,207.34737 55.211887,204.38409 57.102810,202.20783 C 58.993735,200.03157 61.572267,198.94344 64.838408,198.94344 C 68.130996,198.94344 70.683082,199.95629 72.494666,201.98199 C 74.319474,203.99401 75.231878,206.83411 75.231878,210.50227 L 75.231878,212.94544 L 60.177215,212.94544 C 60.190439,214.75215 60.706145,216.10033 61.724335,216.99000 C 62.742524,217.87967 64.263198,218.32451 66.286353,218.32451 C 67.621901,218.32451 68.937614,218.12604 70.233491,217.72911 C 71.529370,217.33218 72.884752,216.70258 74.299639,215.84028 L 74.299639,221.36306 z M 69.380592,208.42866 C 69.354145,206.84095 68.957449,205.64332 68.190500,204.83577 C 67.436776,204.01455 66.319411,203.60392 64.838408,203.60392 C 63.502860,203.60392 62.438390,204.02824 61.644995,204.87684 C 60.851600,205.71175 60.382175,206.90254 60.236719,208.44919 L 69.380592,208.42866 z M 36.752240,219.24840 L 36.752240,231.23837 L 30.960459,231.23837 L 30.960459,199.49777 L 36.752240,199.49777 L 36.752240,202.94694 C 37.360509,201.61929 38.160515,200.62012 39.152258,199.94945 C 40.144002,199.27878 41.307647,198.94344 42.643194,198.94344 C 45.182057,198.94344 47.152320,199.99735 48.553985,202.10518 C 49.955648,204.21301 50.656480,207.18313 50.656480,211.01555 C 50.656480,214.90270 49.942424,217.88652 48.514314,219.96697 C 47.099427,222.04742 45.076271,223.08766 42.444846,223.08766 C 41.254754,223.08766 40.183672,222.77284 39.231598,222.14323 C 38.292748,221.49994 37.466295,220.53499 36.752240,219.24840 z M 44.844864,210.97448 C 44.844864,208.75715 44.487837,207.01888 43.773781,205.75966 C 43.059727,204.50044 42.074595,203.87083 40.818387,203.87083 C 39.562179,203.87083 38.570435,204.50044 37.843157,205.75966 C 37.115879,207.01888 36.752240,208.75715 36.752240,210.97448 C 36.752240,213.19181 37.115879,214.93008 37.843157,216.18931 C 38.570435,217.44853 39.562179,218.07813 40.818387,218.07813 C 42.074595,218.07813 43.059727,217.44853 43.773781,216.18931 C 44.487837,214.93008 44.844864,213.19181 44.844864,210.97448 z M 15.747118,203.82976 C 14.358677,203.82976 13.267760,204.46623 12.474365,205.73913 C 11.680970,206.99835 11.284274,208.75715 11.284274,211.01555 C 11.284274,213.27393 11.680970,215.03958 12.474365,216.31248 C 13.267760,217.57171 14.358677,218.20132 15.747118,218.20132 C 17.148782,218.20132 18.246311,217.57171 19.039705,216.31248 C 19.833100,215.03958 20.229797,213.27393 20.229797,211.01555 C 20.229797,208.75715 19.833100,206.99835 19.039705,205.73913 C 18.246311,204.46623 17.148782,203.82976 15.747118,203.82976 z M 5.4726580,211.01555 C 5.4726580,207.30632 6.3982850,204.37041 8.2495390,202.20783 C 10.114016,200.03157 12.613209,198.94344 15.747118,198.94344 C 18.894250,198.94344 21.393443,200.03157 23.244697,202.20783 C 25.109174,204.37041 26.041413,207.30632 26.041413,211.01555 C 26.041413,214.72478 25.109174,217.66752 23.244697,219.84378 C 21.393443,222.00636 18.894250,223.08766 15.747118,223.08766 C 12.613209,223.08766 10.114016,222.00636 8.2495390,219.84378 C 6.3982850,217.66752 5.4726580,214.72478 5.4726580,211.01555 z "
       id="path845" />
    <path
       style="font-size:36.000000;stroke-width:1.0000000pt;font-family:Bitstream Vera Sans;"
       d="M 247.17371,211.51057 L 247.17371,213.35834 L 230.39342,213.35834 C 230.55209,215.95890 231.30582,217.94355 232.65459,219.31226 C 234.01658,220.66730 235.90751,221.34482 238.32736,221.34482 C 239.72902,221.34482 241.08441,221.16688 242.39351,220.81102 C 243.71584,220.45515 245.02493,219.92135 246.32081,219.20961 L 246.32081,222.78197 C 245.01172,223.35683 243.66955,223.79482 242.29433,224.09594 C 240.91911,224.39706 239.52406,224.54762 238.10918,224.54762 C 234.56535,224.54762 231.75541,223.48001 229.67935,221.34482 C 227.61653,219.20961 226.58512,216.32162 226.58512,212.68082 C 226.58512,208.91684 227.56364,205.93304 229.52068,203.72940 C 231.49094,201.51207 234.14220,200.40341 237.47446,200.40341 C 240.46292,200.40341 242.82326,201.40257 244.55551,203.40091 C 246.30097,205.38555 247.17371,208.08877 247.17371,211.51057 z M 243.52410,210.40191 C 243.49765,208.33514 242.93566,206.68583 241.83814,205.45398 C 240.75383,204.22213 239.31249,203.60621 237.51413,203.60621 C 235.47776,203.60621 233.84468,204.20160 232.61492,205.39238 C 231.39838,206.58318 230.69755,208.25985 230.51243,210.42244 L 243.52410,210.40191 z M 221.82476,201.84056 L 221.82476,205.37186 C 220.79334,204.78331 219.75531,204.34532 218.71068,204.05789 C 217.67927,203.75676 216.63463,203.60621 215.57677,203.60621 C 213.20981,203.60621 211.37179,204.38638 210.06268,205.94672 C 208.75357,207.49337 208.09902,209.66963 208.09902,212.47551 C 208.09902,215.28139 208.75357,217.46449 210.06268,219.02484 C 211.37179,220.57149 213.20981,221.34482 215.57677,221.34482 C 216.63463,221.34482 217.67927,221.20110 218.71068,220.91367 C 219.75531,220.61254 220.79334,220.16772 221.82476,219.57917 L 221.82476,223.06940 C 220.80656,223.56215 219.74870,223.93169 218.65118,224.17807 C 217.56687,224.42444 216.40984,224.54762 215.18008,224.54762 C 211.83459,224.54762 209.17672,223.45948 207.20646,221.28322 C 205.23620,219.10696 204.25107,216.17105 204.25107,212.47551 C 204.25107,208.72522 205.24280,205.77563 207.22630,203.62675 C 209.22300,201.47785 211.95360,200.40341 215.41809,200.40341 C 216.54207,200.40341 217.63959,200.52659 218.71068,200.77296 C 219.78176,201.00565 220.81978,201.36151 221.82476,201.84056 z M 202.00972,204.48904 C 201.59980,204.24266 201.15021,204.06474 200.66096,203.95524 C 200.18491,203.83205 199.65598,203.77045 199.07417,203.77045 C 197.01133,203.77045 195.42455,204.46850 194.31380,205.86460 C 193.21627,207.24701 192.66750,209.23849 192.66750,211.83906 L 192.66750,223.95223 L 188.99805,223.95223 L 188.99805,200.95774 L 192.66750,200.95774 L 192.66750,204.53009 C 193.43445,203.13400 194.43281,202.10062 195.66257,201.42995 C 196.89232,200.74559 198.38655,200.40341 200.14525,200.40341 C 200.39648,200.40341 200.67418,200.42394 200.97831,200.46499 C 201.28245,200.49237 201.61964,200.54028 201.98989,200.60871 L 202.00972,204.48904 z M 163.01438,214.87762 L 163.01438,200.95774 L 166.66399,200.95774 L 166.66399,214.73390 C 166.66399,216.91016 167.07391,218.54578 167.89376,219.64075 C 168.71360,220.72204 169.94336,221.26270 171.58305,221.26270 C 173.55330,221.26270 175.10703,220.61254 176.24424,219.31226 C 177.39466,218.01198 177.96986,216.23949 177.96986,213.99479 L 177.96986,200.95774 L 181.61949,200.95774 L 181.61949,223.95223 L 177.96986,223.95223 L 177.96986,220.42093 C 177.08391,221.81702 176.05249,222.85725 174.87563,223.54161 C 173.71199,224.21229 172.35660,224.54762 170.80948,224.54762 C 168.25739,224.54762 166.32019,223.72639 164.99787,222.08392 C 163.67554,220.44146 163.01438,218.03936 163.01438,214.87762 z M 147.14649,203.60621 C 145.18945,203.60621 143.64233,204.40007 142.50513,205.98778 C 141.36793,207.56181 140.79933,209.72439 140.79933,212.47551 C 140.79933,215.22664 141.36132,217.39606 142.48530,218.98377 C 143.62249,220.55780 145.17622,221.34482 147.14649,221.34482 C 149.09030,221.34482 150.63082,220.55096 151.76801,218.96325 C 152.90521,217.37553 153.47381,215.21295 153.47381,212.47551 C 153.47381,209.75176 152.90521,207.59602 151.76801,206.00831 C 150.63082,204.40691 149.09030,203.60621 147.14649,203.60621 z M 147.14649,200.40341 C 150.32007,200.40341 152.81265,201.47100 154.62423,203.60621 C 156.43582,205.74141 157.34161,208.69784 157.34161,212.47551 C 157.34161,216.23949 156.43582,219.19592 154.62423,221.34482 C 152.81265,223.48001 150.32007,224.54762 147.14649,224.54762 C 143.95969,224.54762 141.46049,223.48001 139.64891,221.34482 C 137.85055,219.19592 136.95137,216.23949 136.95137,212.47551 C 136.95137,208.69784 137.85055,205.74141 139.64891,203.60621 C 141.46049,201.47100 143.95969,200.40341 147.14649,200.40341 z M 131.53645,201.63526 L 131.53645,205.20761 C 130.50504,204.66012 129.43395,204.24951 128.32320,203.97576 C 127.21245,203.70202 126.06203,203.56515 124.87193,203.56515 C 123.06035,203.56515 121.69836,203.85258 120.78595,204.42744 C 119.88677,205.00230 119.43718,205.86460 119.43718,207.01433 C 119.43718,207.89031 119.76115,208.58150 120.40909,209.08793 C 121.05703,209.58067 122.35952,210.05288 124.31656,210.50456 L 125.56615,210.79199 C 128.15791,211.36685 129.99594,212.18123 131.08025,213.23515 C 132.17778,214.27537 132.72654,215.73306 132.72654,217.60821 C 132.72654,219.74341 131.90670,221.43378 130.26702,222.67932 C 128.64056,223.92485 126.39922,224.54762 123.54300,224.54762 C 122.35291,224.54762 121.10992,224.42444 119.81404,224.17807 C 118.53139,223.94538 117.17601,223.58951 115.74790,223.11047 L 115.74790,219.20961 C 117.09667,219.93504 118.42560,220.48253 119.73471,220.85207 C 121.04381,221.20794 122.33968,221.38587 123.62234,221.38587 C 125.34136,221.38587 126.66368,221.08476 127.58931,220.48253 C 128.51494,219.86659 128.97775,219.00430 128.97775,217.89564 C 128.97775,216.86911 128.64056,216.08209 127.96617,215.53460 C 127.30501,214.98711 125.84384,214.46016 123.58267,213.95373 L 122.31324,213.64577 C 120.05206,213.15303 118.41899,212.40023 117.41402,211.38738 C 116.40906,210.36084 115.90658,208.95790 115.90658,207.17857 C 115.90658,205.01599 116.64708,203.34615 118.12808,202.16906 C 119.60908,200.99196 121.71158,200.40341 124.43557,200.40341 C 125.78434,200.40341 127.05377,200.50606 128.24386,200.71137 C 129.43395,200.91667 130.53148,201.22464 131.53645,201.63526 z "
       id="path846" />
  </g>

  <rdf:RDF 
   xmlns="http://web.resource.org/cc/"
   xmlns:dc="http://purl.org/dc/elements/1.1/"
   xmlns:rdf="http://www.w3.org/1999/02/22-rdf-syntax-ns#">
  <Work rdf:about="">
    <dc:title>Clipart by Nicu Buculei - antenna</dc:title>
    <dc:rights>
       <Agent>
         <dc:title>Nicu Buculei</dc:title>
       </Agent>
    </dc:rights>
    <dc:type rdf:resource="http://purl.org/dc/dcmitype/StillImage" />
    <license rdf:resource="http://web.resource.org/cc/PublicDomain" />
  </Work>
   
  <License rdf:about="http://web.resource.org/cc/PublicDomain">
     <permits rdf:resource="http://web.resource.org/cc/Reproduction" />
     <permits rdf:resource="http://web.resource.org/cc/Distribution" />
     <permits rdf:resource="http://web.resource.org/cc/DerivativeWorks" />
  </License>

</rdf:RDF>
</svg>
