<?xml version="1.0" encoding="UTF-8" standalone="no"?>
<!DOCTYPE svg PUBLIC "-//W3C//DTD SVG 20010904//EN"
"http://www.w3.org/TR/2001/REC-SVG-20010904/DTD/svg10.dtd">
<!-- Created with Sodipodi ("http://www.sodipodi.com/") -->
<svg
   id="svg548"
   sodipodi:version="0.32"
   width="400pt"
   height="400pt"
   sodipodi:docbase="/home/nicu/svg_gal/computers"
   sodipodi:docname="/home/nicu/svg_gal/computers/racked.svg"
   xmlns="http://www.w3.org/2000/svg"
   xmlns:sodipodi="http://sodipodi.sourceforge.net/DTD/sodipodi-0.dtd"
   xmlns:xlink="http://www.w3.org/1999/xlink">
  <defs
     id="defs550">
    <linearGradient
       id="linearGradient650">
      <stop
         style="stop-color:#000;stop-opacity:1;"
         offset="0"
         id="stop651" />
      <stop
         style="stop-color:#fff;stop-opacity:1;"
         offset="1"
         id="stop652" />
    </linearGradient>
    <linearGradient
       xlink:href="#linearGradient650"
       id="linearGradient653"
       x1="1.00000548"
       y1="0.53125000"
       x2="1.16666901"
       y2="0.53906250"
       gradientUnits="objectBoundingBox"
       spreadMethod="repeat" />
    <linearGradient
       xlink:href="#linearGradient650"
       id="linearGradient654"
       x1="1.22222710"
       y1="0.46093750"
       x2="1.16666818"
       y2="0.46093750"
       gradientUnits="objectBoundingBox"
       spreadMethod="repeat" />
  </defs>
  <sodipodi:namedview
     id="base"
     showgrid="true" />
  <g
     id="g1395"
     transform="translate(-9.593124,7.194862)">
    <g
       id="g715"
       transform="translate(-1.525879e-5,121.1135)"
       style="font-size:12;">
      <path
         style="fill:#cccccc;fill-rule:evenodd;stroke:black;stroke-opacity:1;stroke-width:3.75;stroke-linejoin:bevel;stroke-linecap:butt;fill-opacity:1;stroke-dasharray:none;"
         d="M 93.3545 268.196 L 449.367 253.164 C 449.367 253.164 456.488 273.735 456.488 288.766 C 456.488 306.171 452.532 321.994 451.741 322.785 L 89.3988 340.19 C 94.1457 328.322 94.1455 315.664 93.3545 268.196 z "
         id="path701"
         sodipodi:nodetypes="cccccc"
         transform="matrix(1.004310,0.000000,0.000000,1.000000,25.72227,-0.791130)" />
      <g
         id="g710">
        <path
           style="fill:#b3b3b3;fill-rule:evenodd;stroke:black;stroke-opacity:1;stroke-width:1pt;stroke-linejoin:miter;stroke-linecap:butt;fill-opacity:1;"
           d="M 449.367 298.26 L 463.608 297.468 L 463.608 309.335 L 449.367 310.127 L 449.367 298.26 z "
           id="path706"
           sodipodi:nodetypes="ccccc" />
        <g
           id="g707">
          <path
             style="fill:#cccccc;fill-rule:evenodd;stroke:black;stroke-opacity:1;stroke-width:2.5;stroke-linejoin:miter;stroke-linecap:butt;fill-opacity:1;stroke-dasharray:none;"
             d="M 134.494 281.646 L 265.032 276.108 L 264.241 310.127 L 133.702 317.246 L 134.494 281.646 z "
             id="path704"
             sodipodi:nodetypes="ccccc" />
          <path
             style="fill:#b3b3b3;fill-rule:evenodd;stroke:black;stroke-opacity:1;stroke-width:1pt;stroke-linejoin:miter;stroke-linecap:butt;fill-opacity:1;"
             d="M 443.829 268.196 C 444.62 268.196 465.981 267.405 465.981 267.405 L 465.981 283.228 L 443.829 284.019 L 443.829 268.196 z "
             id="path705"
             sodipodi:nodetypes="ccccc" />
        </g>
      </g>
    </g>
    <path
       style="font-size:12;fill:#cccccc;fill-rule:evenodd;stroke:#000000;stroke-width:3.75;stroke-linejoin:bevel;"
       d="M 7.88652 127.508 C 7.88652 127.508 302.982 121.179 303.365 122.379 C 304.947 123.578 447.76 252.757 447.76 253.956 L 90.981 268.987 C 90.981 268.987 7.88652 125.926 7.88652 127.508 z "
       id="path703"
       transform="translate(28.50586,117.9241)"
       sodipodi:nodetypes="ccccc" />
    <path
       style="font-size:12;fill:#b3b3b3;fill-rule:evenodd;stroke:#000000;stroke-width:3.75;stroke-linejoin:bevel;"
       d="M 90.1899 340.981 L 10.2848 194.62 L 9.49368 125.108 L 90.981 268.196 C 94.1456 270.569 94.9367 337.025 90.1899 340.981 z "
       id="path702"
       sodipodi:nodetypes="ccccc"
       transform="translate(24.90844,119.1232)" />
  </g>
  <g
     id="g1405"
     transform="translate(-7.194843,-63.55457)">
    <g
       id="g1406"
       transform="translate(-1.525879e-5,121.1135)"
       style="font-size:12;">
      <path
         style="fill:#cccccc;fill-rule:evenodd;stroke:black;stroke-opacity:1;stroke-width:3.75;stroke-linejoin:bevel;stroke-linecap:butt;fill-opacity:1;stroke-dasharray:none;"
         d="M 93.3545 268.196 L 449.367 253.164 C 449.367 253.164 456.488 273.735 456.488 288.766 C 456.488 306.171 452.532 321.994 451.741 322.785 L 89.3988 340.19 C 94.1457 328.322 94.1455 315.664 93.3545 268.196 z "
         id="path1407"
         sodipodi:nodetypes="cccccc"
         transform="matrix(1.004310,0.000000,0.000000,1.000000,25.72227,-0.791130)" />
      <g
         id="g1408">
        <path
           style="fill:#b3b3b3;fill-rule:evenodd;stroke:black;stroke-opacity:1;stroke-width:1pt;stroke-linejoin:miter;stroke-linecap:butt;fill-opacity:1;"
           d="M 449.367 298.26 L 463.608 297.468 L 463.608 309.335 L 449.367 310.127 L 449.367 298.26 z "
           id="path1409"
           sodipodi:nodetypes="ccccc" />
        <g
           id="g1410">
          <path
             style="fill:#cccccc;fill-rule:evenodd;stroke:black;stroke-opacity:1;stroke-width:2.5;stroke-linejoin:miter;stroke-linecap:butt;fill-opacity:1;stroke-dasharray:none;"
             d="M 134.494 281.646 L 265.032 276.108 L 264.241 310.127 L 133.702 317.246 L 134.494 281.646 z "
             id="path1411"
             sodipodi:nodetypes="ccccc" />
          <path
             style="fill:#b3b3b3;fill-rule:evenodd;stroke:black;stroke-opacity:1;stroke-width:1pt;stroke-linejoin:miter;stroke-linecap:butt;fill-opacity:1;"
             d="M 443.829 268.196 C 444.62 268.196 465.981 267.405 465.981 267.405 L 465.981 283.228 L 443.829 284.019 L 443.829 268.196 z "
             id="path1412"
             sodipodi:nodetypes="ccccc" />
        </g>
      </g>
    </g>
    <path
       style="font-size:12;fill:#cccccc;fill-rule:evenodd;stroke:#000000;stroke-width:3.75;stroke-linejoin:bevel;"
       d="M 7.88652 127.508 C 7.88652 127.508 302.982 121.179 303.365 122.379 C 304.947 123.578 447.76 252.757 447.76 253.956 L 90.981 268.987 C 90.981 268.987 7.88652 125.926 7.88652 127.508 z "
       id="path1413"
       transform="translate(28.50586,117.9241)"
       sodipodi:nodetypes="ccccc" />
    <path
       style="font-size:12;fill:#b3b3b3;fill-rule:evenodd;stroke:#000000;stroke-width:3.75;stroke-linejoin:bevel;"
       d="M 90.1899 340.981 L 10.2848 194.62 L 9.49368 125.108 L 90.981 268.196 C 94.1456 270.569 94.9367 337.025 90.1899 340.981 z "
       id="path1414"
       sodipodi:nodetypes="ccccc"
       transform="translate(24.90844,119.1232)" />
  </g>
  <g
     id="g1415"
     transform="translate(-5.995693,-134.3040)">
    <g
       id="g1416"
       transform="translate(-1.525879e-5,121.1135)"
       style="font-size:12;">
      <path
         style="fill:#cccccc;fill-rule:evenodd;stroke:black;stroke-opacity:1;stroke-width:3.75;stroke-linejoin:bevel;stroke-linecap:butt;fill-opacity:1;stroke-dasharray:none;"
         d="M 93.3545 268.196 L 449.367 253.164 C 449.367 253.164 456.488 273.735 456.488 288.766 C 456.488 306.171 452.532 321.994 451.741 322.785 L 89.3988 340.19 C 94.1457 328.322 94.1455 315.664 93.3545 268.196 z "
         id="path1417"
         sodipodi:nodetypes="cccccc"
         transform="matrix(1.004310,0.000000,0.000000,1.000000,25.72227,-0.791130)" />
      <g
         id="g1418">
        <path
           style="fill:#b3b3b3;fill-rule:evenodd;stroke:black;stroke-opacity:1;stroke-width:1pt;stroke-linejoin:miter;stroke-linecap:butt;fill-opacity:1;"
           d="M 449.367 298.26 L 463.608 297.468 L 463.608 309.335 L 449.367 310.127 L 449.367 298.26 z "
           id="path1419"
           sodipodi:nodetypes="ccccc" />
        <g
           id="g1420">
          <path
             style="fill:#cccccc;fill-rule:evenodd;stroke:black;stroke-opacity:1;stroke-width:2.5;stroke-linejoin:miter;stroke-linecap:butt;fill-opacity:1;stroke-dasharray:none;"
             d="M 134.494 281.646 L 265.032 276.108 L 264.241 310.127 L 133.702 317.246 L 134.494 281.646 z "
             id="path1421"
             sodipodi:nodetypes="ccccc" />
          <path
             style="fill:#b3b3b3;fill-rule:evenodd;stroke:black;stroke-opacity:1;stroke-width:1pt;stroke-linejoin:miter;stroke-linecap:butt;fill-opacity:1;"
             d="M 443.829 268.196 C 444.62 268.196 465.981 267.405 465.981 267.405 L 465.981 283.228 L 443.829 284.019 L 443.829 268.196 z "
             id="path1422"
             sodipodi:nodetypes="ccccc" />
        </g>
      </g>
    </g>
    <path
       style="font-size:12;fill:#cccccc;fill-rule:evenodd;stroke:#000000;stroke-width:3.75;stroke-linejoin:bevel;"
       d="M 7.88652 127.508 C 7.88652 127.508 302.982 121.179 303.365 122.379 C 304.947 123.578 447.76 252.757 447.76 253.956 L 90.981 268.987 C 90.981 268.987 7.88652 125.926 7.88652 127.508 z "
       id="path1423"
       transform="translate(28.50586,117.9241)"
       sodipodi:nodetypes="ccccc" />
    <path
       style="font-size:12;fill:#b3b3b3;fill-rule:evenodd;stroke:#000000;stroke-width:3.75;stroke-linejoin:bevel;"
       d="M 90.1899 340.981 L 10.2848 194.62 L 9.49368 125.108 L 90.981 268.196 C 94.1456 270.569 94.9367 337.025 90.1899 340.981 z "
       id="path1424"
       sodipodi:nodetypes="ccccc"
       transform="translate(24.90844,119.1232)" />
  </g>
  <g
     id="g1425"
     transform="translate(-4.796562,-203.8542)">
    <g
       id="g1426"
       transform="translate(-1.525879e-5,121.1135)"
       style="font-size:12;">
      <path
         style="fill:#cccccc;fill-rule:evenodd;stroke:black;stroke-opacity:1;stroke-width:3.75;stroke-linejoin:bevel;stroke-linecap:butt;fill-opacity:1;stroke-dasharray:none;"
         d="M 93.3545 268.196 L 449.367 253.164 C 449.367 253.164 456.488 273.735 456.488 288.766 C 456.488 306.171 452.532 321.994 451.741 322.785 L 89.3988 340.19 C 94.1457 328.322 94.1455 315.664 93.3545 268.196 z "
         id="path1427"
         sodipodi:nodetypes="cccccc"
         transform="matrix(1.004310,0.000000,0.000000,1.000000,25.72227,-0.791130)" />
      <g
         id="g1428">
        <path
           style="fill:#b3b3b3;fill-rule:evenodd;stroke:black;stroke-opacity:1;stroke-width:1pt;stroke-linejoin:miter;stroke-linecap:butt;fill-opacity:1;"
           d="M 449.367 298.26 L 463.608 297.468 L 463.608 309.335 L 449.367 310.127 L 449.367 298.26 z "
           id="path1429"
           sodipodi:nodetypes="ccccc" />
        <g
           id="g1430">
          <path
             style="fill:#cccccc;fill-rule:evenodd;stroke:black;stroke-opacity:1;stroke-width:2.5;stroke-linejoin:miter;stroke-linecap:butt;fill-opacity:1;stroke-dasharray:none;"
             d="M 134.494 281.646 L 265.032 276.108 L 264.241 310.127 L 133.702 317.246 L 134.494 281.646 z "
             id="path1431"
             sodipodi:nodetypes="ccccc" />
          <path
             style="fill:#b3b3b3;fill-rule:evenodd;stroke:black;stroke-opacity:1;stroke-width:1pt;stroke-linejoin:miter;stroke-linecap:butt;fill-opacity:1;"
             d="M 443.829 268.196 C 444.62 268.196 465.981 267.405 465.981 267.405 L 465.981 283.228 L 443.829 284.019 L 443.829 268.196 z "
             id="path1432"
             sodipodi:nodetypes="ccccc" />
        </g>
      </g>
    </g>
    <path
       style="font-size:12;fill:#cccccc;fill-rule:evenodd;stroke:#000000;stroke-width:3.75;stroke-linejoin:bevel;"
       d="M 7.88652 127.508 C 7.88652 127.508 302.982 121.179 303.365 122.379 C 304.947 123.578 447.76 252.757 447.76 253.956 L 90.981 268.987 C 90.981 268.987 7.88652 125.926 7.88652 127.508 z "
       id="path1433"
       transform="translate(28.50586,117.9241)"
       sodipodi:nodetypes="ccccc" />
    <path
       style="font-size:12;fill:#b3b3b3;fill-rule:evenodd;stroke:#000000;stroke-width:3.75;stroke-linejoin:bevel;"
       d="M 90.1899 340.981 L 10.2848 194.62 L 9.49368 125.108 L 90.981 268.196 C 94.1456 270.569 94.9367 337.025 90.1899 340.981 z "
       id="path1434"
       sodipodi:nodetypes="ccccc"
       transform="translate(24.90844,119.1232)" />
  </g>

  <rdf:RDF 
   xmlns="http://web.resource.org/cc/"
   xmlns:dc="http://purl.org/dc/elements/1.1/"
   xmlns:rdf="http://www.w3.org/1999/02/22-rdf-syntax-ns#">
  <Work rdf:about="">
    <dc:title>Clipart by Nicu Buculei - antenna</dc:title>
    <dc:rights>
       <Agent>
         <dc:title>Nicu Buculei</dc:title>
       </Agent>
    </dc:rights>
    <dc:type rdf:resource="http://purl.org/dc/dcmitype/StillImage" />
    <license rdf:resource="http://web.resource.org/cc/PublicDomain" />
  </Work>
   
  <License rdf:about="http://web.resource.org/cc/PublicDomain">
     <permits rdf:resource="http://web.resource.org/cc/Reproduction" />
     <permits rdf:resource="http://web.resource.org/cc/Distribution" />
     <permits rdf:resource="http://web.resource.org/cc/DerivativeWorks" />
  </License>

</rdf:RDF>
</svg>
