<?xml version="1.0" encoding="UTF-8" standalone="no"?>
<!DOCTYPE svg PUBLIC "-//W3C//DTD SVG 20010904//EN"
"http://www.w3.org/TR/2001/REC-SVG-20010904/DTD/svg10.dtd">
<!-- Created with Sodipodi ("http://www.sodipodi.com/") -->
<svg
   id="svg548"
   sodipodi:version="0.32"
   width="400pt"
   height="400pt"
   sodipodi:docbase="/home/nicu/svg_gal/computers/"
   sodipodi:docname="/home/nicu/svg_gal/computers/tower.svg"
   xmlns="http://www.w3.org/2000/svg"
   xmlns:sodipodi="http://sodipodi.sourceforge.net/DTD/sodipodi-0.dtd"
   xmlns:xlink="http://www.w3.org/1999/xlink">
  <defs
     id="defs550">
    <linearGradient
       id="linearGradient650">
      <stop
         style="stop-color:#000;stop-opacity:1;"
         offset="0"
         id="stop651" />
      <stop
         style="stop-color:#fff;stop-opacity:1;"
         offset="1"
         id="stop652" />
    </linearGradient>
    <linearGradient
       xlink:href="#linearGradient650"
       id="linearGradient653"
       x1="1.00000548"
       y1="0.53125000"
       x2="1.16666901"
       y2="0.53906250"
       gradientUnits="objectBoundingBox"
       spreadMethod="repeat" />
    <linearGradient
       xlink:href="#linearGradient650"
       id="linearGradient654"
       x1="1.22222710"
       y1="0.46093750"
       x2="1.16666818"
       y2="0.46093750"
       gradientUnits="objectBoundingBox"
       spreadMethod="repeat" />
  </defs>
  <sodipodi:namedview
     id="base"
     showgrid="true" />
  <g
     id="g770"
     transform="translate(-44.30380,9.493675)">
    <path
       style="fill:#b3b2b3;fill-rule:evenodd;stroke:black;stroke-opacity:1;stroke-width:3.75;stroke-linejoin:bevel;stroke-linecap:butt;fill-opacity:1;stroke-dasharray:none;"
       d="M 299.842 180.38 L 177.215 74.367 L 250.791 71.9936 L 385.285 162.183 C 385.285 162.183 353.639 191.456 299.842 180.38 z "
       id="path743"
       sodipodi:nodetypes="ccccc" />
    <g
       id="g761">
      <path
         style="fill:#b3b2b3;fill-rule:evenodd;stroke:black;stroke-opacity:1;stroke-width:3.75;stroke-linejoin:bevel;stroke-linecap:butt;fill-opacity:1;stroke-dasharray:none;"
         d="M 176.424 74.367 L 178.006 238.924 L 300.633 364.715 L 301.424 181.962 L 176.424 74.367 z "
         id="path744"
         sodipodi:nodetypes="ccccc" />
      <g
         id="g754">
        <path
           style="fill:#cccccc;fill-rule:evenodd;stroke:black;stroke-opacity:1;stroke-width:3.75;stroke-linejoin:bevel;stroke-linecap:butt;fill-opacity:1;stroke-dasharray:none;"
           d="M 302.216 181.171 C 302.216 181.171 328.323 184.335 348.102 180.38 C 375 170.095 386.076 163.766 386.076 163.766 L 386.867 342.563 C 386.867 342.563 371.835 353.639 353.64 360.759 C 323.576 367.088 300.633 364.715 300.633 364.715 L 302.216 181.171 z "
           id="path742"
           sodipodi:nodetypes="ccccccc" />
        <g
           id="g749">
          <path
             style="fill:none;fill-rule:evenodd;stroke:black;stroke-opacity:1;stroke-width:1pt;stroke-linejoin:miter;stroke-linecap:butt;fill-opacity:1;"
             d="M 315.665 205.696 C 315.665 205.696 378.956 192.247 378.956 193.038 C 378.956 193.829 378.165 218.354 378.165 218.354 C 378.165 218.354 316.456 231.804 315.665 231.804 C 314.874 231.804 314.874 207.278 315.665 205.696 z "
             id="path745"
             transform="translate(-1.582260,0.000000)" />
          <path
             style="fill:#000100;fill-rule:evenodd;stroke:black;stroke-opacity:1;stroke-width:1pt;stroke-linejoin:miter;stroke-linecap:butt;fill-opacity:1;"
             d="M 323.576 246.835 L 370.253 237.342 L 370.253 241.298 L 323.576 251.582 L 323.576 246.835 z "
             id="path746"
             sodipodi:nodetypes="ccccc" />
          <path
             style="fill:#00b300;fill-rule:evenodd;stroke:black;stroke-opacity:1;stroke-width:1pt;stroke-linejoin:miter;stroke-linecap:butt;fill-opacity:1;"
             d="M 360.76 268.987 L 372.627 267.405 L 372.627 279.272 L 360.76 281.646 L 360.76 268.987 z "
             id="path747"
             sodipodi:nodetypes="ccccc" />
          <path
             style="fill:#b3b3b3;fill-rule:evenodd;stroke:black;stroke-opacity:1;stroke-width:1pt;stroke-linejoin:miter;stroke-linecap:butt;fill-opacity:1;"
             d="M 365.506 298.259 L 373.418 297.468 L 373.418 306.962 L 365.506 308.544 L 365.506 298.259 z "
             id="path748"
             sodipodi:nodetypes="ccccc" />
        </g>
      </g>
    </g>
  </g>
  <path
     style="fill:#ffffff;fill-rule:evenodd;stroke:none;stroke-opacity:1;stroke-width:1pt;stroke-linejoin:miter;stroke-linecap:butt;fill-opacity:0.5;"
     d="M 179.76 288.867 C 240.81 323.632 245.05 272.757 250.137 222.729 C 256.073 246.471 251.833 347.374 249.289 359.245 C 243.354 354.157 193.326 302.434 179.76 288.867 z "
     id="path567"
     sodipodi:nodetypes="cccc" />
  <path
     style="fill:#ffffff;fill-rule:evenodd;stroke:none;stroke-opacity:1;stroke-width:1pt;stroke-linejoin:miter;stroke-linecap:butt;fill-opacity:0.498039;"
     d="M 266.248 368.572 C 303.557 369.42 319.667 362.637 337.473 347.374 C 337.473 334.655 337.473 316.001 336.625 316.001 C 332.385 335.503 319.667 355.005 266.248 368.572 z "
     id="path568"
     sodipodi:nodetypes="cccc" />
  <path
     style="fill:#000000;fill-rule:evenodd;stroke:none;stroke-opacity:1;stroke-width:1pt;stroke-linejoin:miter;stroke-linecap:butt;fill-opacity:0.25;"
     d="M 148.386 88.7577 C 150.93 88.7577 193.327 81.9743 209.437 86.214 C 223.852 98.0849 262.008 123.522 270.488 132.849 C 228.092 106.564 191.63 81.9743 148.386 88.7577 z "
     id="path569"
     sodipodi:nodetypes="cccc" />

  <rdf:RDF 
   xmlns="http://web.resource.org/cc/"
   xmlns:dc="http://purl.org/dc/elements/1.1/"
   xmlns:rdf="http://www.w3.org/1999/02/22-rdf-syntax-ns#">
  <Work rdf:about="">
    <dc:title>Clipart by Nicu Buculei - antenna</dc:title>
    <dc:rights>
       <Agent>
         <dc:title>Nicu Buculei</dc:title>
       </Agent>
    </dc:rights>
    <dc:type rdf:resource="http://purl.org/dc/dcmitype/StillImage" />
    <license rdf:resource="http://web.resource.org/cc/PublicDomain" />
  </Work>
   
  <License rdf:about="http://web.resource.org/cc/PublicDomain">
     <permits rdf:resource="http://web.resource.org/cc/Reproduction" />
     <permits rdf:resource="http://web.resource.org/cc/Distribution" />
     <permits rdf:resource="http://web.resource.org/cc/DerivativeWorks" />
  </License>

</rdf:RDF>
</svg>
