<?xml version="1.0" encoding="UTF-8" standalone="no"?>
<!DOCTYPE svg PUBLIC "-//W3C//DTD SVG 20010904//EN"
"http://www.w3.org/TR/2001/REC-SVG-20010904/DTD/svg10.dtd">
<!-- Created with Inkscape (http://www.inkscape.org/) -->
<svg
   id="svg548"
   sodipodi:version="0.32"
   width="400pt"
   height="400pt"
   sodipodi:docbase="/var/www/html/svg_gallery/svg/computers"
   sodipodi:docname="wall1.svg"
   xmlns="http://www.w3.org/2000/svg"
   xmlns:sodipodi="http://sodipodi.sourceforge.net/DTD/sodipodi-0.dtd"
   xmlns:inkscape="http://www.inkscape.org/namespaces/inkscape"
   xmlns:xlink="http://www.w3.org/1999/xlink"
   inkscape:version="0.37">
  <defs
     id="defs550" />
  <sodipodi:namedview
     id="base"
     showgrid="true"
     inkscape:zoom="0.77250000"
     inkscape:cx="200.000000"
     inkscape:cy="200.000000"
     inkscape:window-width="400"
     inkscape:window-height="500"
     inkscape:window-x="0"
     inkscape:window-y="24" />
  <g
     id="g1655">
    <g
       id="g931"
       style="font-size:12;fill:#0000ff;stroke:#000000;stroke-width:3.75;stroke-linejoin:bevel;"
       transform="translate(63.31043,37.01225)">
      <path
         style="fill:#0000ff;fill-rule:evenodd;stroke:#000000;stroke-opacity:1;stroke-width:3.75;stroke-linejoin:bevel;stroke-linecap:butt;fill-opacity:1;stroke-dasharray:none;"
         d="M 351.617 200.006 L 425.641 208.772 L 425.641 250.654 L 351.617 240.914 L 351.617 200.006 z "
         id="path932"
         transform="translate(-100.3227,65.25848)"
         sodipodi:nodetypes="ccccc" />
      <path
         style="fill:#0000ff;fill-rule:evenodd;stroke:#000000;stroke-opacity:1;stroke-width:3.75;stroke-linejoin:bevel;stroke-linecap:butt;fill-opacity:1;stroke-dasharray:none;"
         d="M 326.292 273.056 C 327.266 274.03 392.525 233.122 392.525 233.122 L 392.525 275.978 C 392.525 275.978 325.318 316.887 325.318 314.939 C 325.318 312.991 325.318 274.03 326.292 273.056 z "
         id="path933"
         sodipodi:nodetypes="ccccc" />
      <path
         style="fill:#0000ff;fill-rule:evenodd;stroke:#000000;stroke-opacity:1;stroke-width:3.75;stroke-linejoin:bevel;stroke-linecap:butt;fill-opacity:1;stroke-dasharray:none;"
         d="M 251.294 266.238 L 324.344 274.03 L 393.499 233.122 L 325.318 226.304 L 251.294 266.238 z "
         id="path934"
         sodipodi:nodetypes="ccccc" />
    </g>
    <g
       id="g935"
       style="font-size:12;fill:#0000ff;stroke:#000000;stroke-width:3.75;stroke-linejoin:bevel;"
       transform="translate(-6.817979,77.92041)">
      <path
         style="fill:#0000ff;fill-rule:evenodd;stroke:#000000;stroke-opacity:1;stroke-width:3.75;stroke-linejoin:bevel;stroke-linecap:butt;fill-opacity:1;stroke-dasharray:none;"
         d="M 351.617 200.006 L 425.641 208.772 L 425.641 250.654 L 351.617 240.914 L 351.617 200.006 z "
         id="path936"
         transform="translate(-100.3227,65.25848)"
         sodipodi:nodetypes="ccccc" />
      <path
         style="fill:#0000ff;fill-rule:evenodd;stroke:#000000;stroke-opacity:1;stroke-width:3.75;stroke-linejoin:bevel;stroke-linecap:butt;fill-opacity:1;stroke-dasharray:none;"
         d="M 326.292 273.056 C 327.266 274.03 392.525 233.122 392.525 233.122 L 392.525 275.978 C 392.525 275.978 325.318 316.887 325.318 314.939 C 325.318 312.991 325.318 274.03 326.292 273.056 z "
         id="path937"
         sodipodi:nodetypes="ccccc" />
      <path
         style="fill:#0000ff;fill-rule:evenodd;stroke:#000000;stroke-opacity:1;stroke-width:3.75;stroke-linejoin:bevel;stroke-linecap:butt;fill-opacity:1;stroke-dasharray:none;"
         d="M 251.294 266.238 L 324.344 274.03 L 393.499 233.122 L 325.318 226.304 L 251.294 266.238 z "
         id="path938"
         sodipodi:nodetypes="ccccc" />
    </g>
    <g
       id="g939"
       style="font-size:12;fill:#0000ff;stroke:#000000;stroke-width:3.75;stroke-linejoin:bevel;"
       transform="translate(-76.94662,118.8288)">
      <path
         style="fill:#0000ff;fill-rule:evenodd;stroke:#000000;stroke-opacity:1;stroke-width:3.75;stroke-linejoin:bevel;stroke-linecap:butt;fill-opacity:1;stroke-dasharray:none;"
         d="M 351.617 200.006 L 425.641 208.772 L 425.641 250.654 L 351.617 240.914 L 351.617 200.006 z "
         id="path940"
         transform="translate(-100.3227,65.25848)"
         sodipodi:nodetypes="ccccc" />
      <path
         style="fill:#0000ff;fill-rule:evenodd;stroke:#000000;stroke-opacity:1;stroke-width:3.75;stroke-linejoin:bevel;stroke-linecap:butt;fill-opacity:1;stroke-dasharray:none;"
         d="M 326.292 273.056 C 327.266 274.03 392.525 233.122 392.525 233.122 L 392.525 275.978 C 392.525 275.978 325.318 316.887 325.318 314.939 C 325.318 312.991 325.318 274.03 326.292 273.056 z "
         id="path941"
         sodipodi:nodetypes="ccccc" />
      <path
         style="fill:#0000ff;fill-rule:evenodd;stroke:#000000;stroke-opacity:1;stroke-width:3.75;stroke-linejoin:bevel;stroke-linecap:butt;fill-opacity:1;stroke-dasharray:none;"
         d="M 251.294 266.238 L 324.344 274.03 L 393.499 233.122 L 325.318 226.304 L 251.294 266.238 z "
         id="path942"
         sodipodi:nodetypes="ccccc" />
    </g>
    <g
       id="g943"
       style="font-size:12;fill:#0000ff;stroke:#000000;stroke-width:3.75;stroke-linejoin:bevel;"
       transform="translate(-145.1271,158.7630)">
      <path
         style="fill:#0000ff;fill-rule:evenodd;stroke:#000000;stroke-opacity:1;stroke-width:3.75;stroke-linejoin:bevel;stroke-linecap:butt;fill-opacity:1;stroke-dasharray:none;"
         d="M 351.617 200.006 L 425.641 208.772 L 425.641 250.654 L 351.617 240.914 L 351.617 200.006 z "
         id="path944"
         transform="translate(-100.3227,65.25848)"
         sodipodi:nodetypes="ccccc" />
      <path
         style="fill:#0000ff;fill-rule:evenodd;stroke:#000000;stroke-opacity:1;stroke-width:3.75;stroke-linejoin:bevel;stroke-linecap:butt;fill-opacity:1;stroke-dasharray:none;"
         d="M 326.292 273.056 C 327.266 274.03 392.525 233.122 392.525 233.122 L 392.525 275.978 C 392.525 275.978 325.318 316.887 325.318 314.939 C 325.318 312.991 325.318 274.03 326.292 273.056 z "
         id="path945"
         sodipodi:nodetypes="ccccc" />
      <path
         style="fill:#0000ff;fill-rule:evenodd;stroke:#000000;stroke-opacity:1;stroke-width:3.75;stroke-linejoin:bevel;stroke-linecap:butt;fill-opacity:1;stroke-dasharray:none;"
         d="M 251.294 266.238 L 324.344 274.03 L 393.499 233.122 L 325.318 226.304 L 251.294 266.238 z "
         id="path946"
         sodipodi:nodetypes="ccccc" />
    </g>
    <g
       id="g947"
       style="font-size:12;fill:#0000ff;stroke:#000000;stroke-width:3.75;stroke-linejoin:bevel;"
       transform="translate(12.66207,20.45414)">
      <path
         style="fill:#0000ff;fill-rule:evenodd;stroke:#000000;stroke-opacity:1;stroke-width:3.75;stroke-linejoin:bevel;stroke-linecap:butt;fill-opacity:1;stroke-dasharray:none;"
         d="M 351.617 200.006 L 425.641 208.772 L 425.641 250.654 L 351.617 240.914 L 351.617 200.006 z "
         id="path948"
         transform="translate(-100.3227,65.25848)"
         sodipodi:nodetypes="ccccc" />
      <path
         style="fill:#0000ff;fill-rule:evenodd;stroke:#000000;stroke-opacity:1;stroke-width:3.75;stroke-linejoin:bevel;stroke-linecap:butt;fill-opacity:1;stroke-dasharray:none;"
         d="M 326.292 273.056 C 327.266 274.03 392.525 233.122 392.525 233.122 L 392.525 275.978 C 392.525 275.978 325.318 316.887 325.318 314.939 C 325.318 312.991 325.318 274.03 326.292 273.056 z "
         id="path949"
         sodipodi:nodetypes="ccccc" />
      <path
         style="fill:#0000ff;fill-rule:evenodd;stroke:#000000;stroke-opacity:1;stroke-width:3.75;stroke-linejoin:bevel;stroke-linecap:butt;fill-opacity:1;stroke-dasharray:none;"
         d="M 251.294 266.238 L 324.344 274.03 L 393.499 233.122 L 325.318 226.304 L 251.294 266.238 z "
         id="path950"
         sodipodi:nodetypes="ccccc" />
    </g>
    <g
       id="g951"
       style="font-size:12;fill:#0000ff;stroke:#000000;stroke-width:3.75;stroke-linejoin:bevel;"
       transform="translate(-57.46635,61.36230)">
      <path
         style="fill:#0000ff;fill-rule:evenodd;stroke:#000000;stroke-opacity:1;stroke-width:3.75;stroke-linejoin:bevel;stroke-linecap:butt;fill-opacity:1;stroke-dasharray:none;"
         d="M 351.617 200.006 L 425.641 208.772 L 425.641 250.654 L 351.617 240.914 L 351.617 200.006 z "
         id="path952"
         transform="translate(-100.3227,65.25848)"
         sodipodi:nodetypes="ccccc" />
      <path
         style="fill:#0000ff;fill-rule:evenodd;stroke:#000000;stroke-opacity:1;stroke-width:3.75;stroke-linejoin:bevel;stroke-linecap:butt;fill-opacity:1;stroke-dasharray:none;"
         d="M 326.292 273.056 C 327.266 274.03 392.525 233.122 392.525 233.122 L 392.525 275.978 C 392.525 275.978 325.318 316.887 325.318 314.939 C 325.318 312.991 325.318 274.03 326.292 273.056 z "
         id="path953"
         sodipodi:nodetypes="ccccc" />
      <path
         style="fill:#0000ff;fill-rule:evenodd;stroke:#000000;stroke-opacity:1;stroke-width:3.75;stroke-linejoin:bevel;stroke-linecap:butt;fill-opacity:1;stroke-dasharray:none;"
         d="M 251.294 266.238 L 324.344 274.03 L 393.499 233.122 L 325.318 226.304 L 251.294 266.238 z "
         id="path954"
         sodipodi:nodetypes="ccccc" />
    </g>
    <g
       id="g955"
       style="font-size:12;fill:#0000ff;stroke:#000000;stroke-width:3.75;stroke-linejoin:bevel;"
       transform="translate(-127.5950,102.2706)">
      <path
         style="fill:#0000ff;fill-rule:evenodd;stroke:#000000;stroke-opacity:1;stroke-width:3.75;stroke-linejoin:bevel;stroke-linecap:butt;fill-opacity:1;stroke-dasharray:none;"
         d="M 351.617 200.006 L 425.641 208.772 L 425.641 250.654 L 351.617 240.914 L 351.617 200.006 z "
         id="path956"
         transform="translate(-100.3227,65.25848)"
         sodipodi:nodetypes="ccccc" />
      <path
         style="fill:#0000ff;fill-rule:evenodd;stroke:#000000;stroke-opacity:1;stroke-width:3.75;stroke-linejoin:bevel;stroke-linecap:butt;fill-opacity:1;stroke-dasharray:none;"
         d="M 326.292 273.056 C 327.266 274.03 392.525 233.122 392.525 233.122 L 392.525 275.978 C 392.525 275.978 325.318 316.887 325.318 314.939 C 325.318 312.991 325.318 274.03 326.292 273.056 z "
         id="path957"
         sodipodi:nodetypes="ccccc" />
      <path
         style="fill:#0000ff;fill-rule:evenodd;stroke:#000000;stroke-opacity:1;stroke-width:3.75;stroke-linejoin:bevel;stroke-linecap:butt;fill-opacity:1;stroke-dasharray:none;"
         d="M 251.294 266.238 L 324.344 274.03 L 393.499 233.122 L 325.318 226.304 L 251.294 266.238 z "
         id="path958"
         sodipodi:nodetypes="ccccc" />
    </g>
    <g
       id="g959"
       style="font-size:12;fill:#0000ff;stroke:#000000;stroke-width:3.75;stroke-linejoin:bevel;"
       transform="translate(-195.7755,142.2049)">
      <path
         style="fill:#0000ff;fill-rule:evenodd;stroke:#000000;stroke-opacity:1;stroke-width:3.75;stroke-linejoin:bevel;stroke-linecap:butt;fill-opacity:1;stroke-dasharray:none;"
         d="M 351.617 200.006 L 425.641 208.772 L 425.641 250.654 L 351.617 240.914 L 351.617 200.006 z "
         id="path960"
         transform="translate(-100.3227,65.25848)"
         sodipodi:nodetypes="ccccc" />
      <path
         style="fill:#0000ff;fill-rule:evenodd;stroke:#000000;stroke-opacity:1;stroke-width:3.75;stroke-linejoin:bevel;stroke-linecap:butt;fill-opacity:1;stroke-dasharray:none;"
         d="M 326.292 273.056 C 327.266 274.03 392.525 233.122 392.525 233.122 L 392.525 275.978 C 392.525 275.978 325.318 316.887 325.318 314.939 C 325.318 312.991 325.318 274.03 326.292 273.056 z "
         id="path961"
         sodipodi:nodetypes="ccccc" />
      <path
         style="fill:#0000ff;fill-rule:evenodd;stroke:#000000;stroke-opacity:1;stroke-width:3.75;stroke-linejoin:bevel;stroke-linecap:butt;fill-opacity:1;stroke-dasharray:none;"
         d="M 251.294 266.238 L 324.344 274.03 L 393.499 233.122 L 325.318 226.304 L 251.294 266.238 z "
         id="path962"
         sodipodi:nodetypes="ccccc" />
    </g>
    <g
       id="g963"
       style="font-size:12;fill:#0000ff;stroke:#000000;stroke-width:3.75;stroke-linejoin:bevel;"
       transform="translate(46.75232,-45.77832)">
      <path
         style="fill:#0000ff;fill-rule:evenodd;stroke:#000000;stroke-opacity:1;stroke-width:3.75;stroke-linejoin:bevel;stroke-linecap:butt;fill-opacity:1;stroke-dasharray:none;"
         d="M 351.617 200.006 L 425.641 208.772 L 425.641 250.654 L 351.617 240.914 L 351.617 200.006 z "
         id="path964"
         transform="translate(-100.3227,65.25848)"
         sodipodi:nodetypes="ccccc" />
      <path
         style="fill:#0000ff;fill-rule:evenodd;stroke:#000000;stroke-opacity:1;stroke-width:3.75;stroke-linejoin:bevel;stroke-linecap:butt;fill-opacity:1;stroke-dasharray:none;"
         d="M 326.292 273.056 C 327.266 274.03 392.525 233.122 392.525 233.122 L 392.525 275.978 C 392.525 275.978 325.318 316.887 325.318 314.939 C 325.318 312.991 325.318 274.03 326.292 273.056 z "
         id="path965"
         sodipodi:nodetypes="ccccc" />
      <path
         style="fill:#0000ff;fill-rule:evenodd;stroke:#000000;stroke-opacity:1;stroke-width:3.75;stroke-linejoin:bevel;stroke-linecap:butt;fill-opacity:1;stroke-dasharray:none;"
         d="M 251.294 266.238 L 324.344 274.03 L 393.499 233.122 L 325.318 226.304 L 251.294 266.238 z "
         id="path966"
         sodipodi:nodetypes="ccccc" />
    </g>
    <g
       id="g967"
       style="font-size:12;fill:#0000ff;stroke:#000000;stroke-width:3.75;stroke-linejoin:bevel;"
       transform="translate(-23.37609,-4.870186)">
      <path
         style="fill:#0000ff;fill-rule:evenodd;stroke:#000000;stroke-opacity:1;stroke-width:3.75;stroke-linejoin:bevel;stroke-linecap:butt;fill-opacity:1;stroke-dasharray:none;"
         d="M 351.617 200.006 L 425.641 208.772 L 425.641 250.654 L 351.617 240.914 L 351.617 200.006 z "
         id="path968"
         transform="translate(-100.3227,65.25848)"
         sodipodi:nodetypes="ccccc" />
      <path
         style="fill:#0000ff;fill-rule:evenodd;stroke:#000000;stroke-opacity:1;stroke-width:3.75;stroke-linejoin:bevel;stroke-linecap:butt;fill-opacity:1;stroke-dasharray:none;"
         d="M 326.292 273.056 C 327.266 274.03 392.525 233.122 392.525 233.122 L 392.525 275.978 C 392.525 275.978 325.318 316.887 325.318 314.939 C 325.318 312.991 325.318 274.03 326.292 273.056 z "
         id="path969"
         sodipodi:nodetypes="ccccc" />
      <path
         style="fill:#0000ff;fill-rule:evenodd;stroke:#000000;stroke-opacity:1;stroke-width:3.75;stroke-linejoin:bevel;stroke-linecap:butt;fill-opacity:1;stroke-dasharray:none;"
         d="M 251.294 266.238 L 324.344 274.03 L 393.499 233.122 L 325.318 226.304 L 251.294 266.238 z "
         id="path970"
         sodipodi:nodetypes="ccccc" />
    </g>
    <g
       id="g971"
       style="font-size:12;fill:#0000ff;stroke:#000000;stroke-width:3.75;stroke-linejoin:bevel;"
       transform="translate(-93.50473,36.03817)">
      <path
         style="fill:#0000ff;fill-rule:evenodd;stroke:#000000;stroke-opacity:1;stroke-width:3.75;stroke-linejoin:bevel;stroke-linecap:butt;fill-opacity:1;stroke-dasharray:none;"
         d="M 351.617 200.006 L 425.641 208.772 L 425.641 250.654 L 351.617 240.914 L 351.617 200.006 z "
         id="path972"
         transform="translate(-100.3227,65.25848)"
         sodipodi:nodetypes="ccccc" />
      <path
         style="fill:#0000ff;fill-rule:evenodd;stroke:#000000;stroke-opacity:1;stroke-width:3.75;stroke-linejoin:bevel;stroke-linecap:butt;fill-opacity:1;stroke-dasharray:none;"
         d="M 326.292 273.056 C 327.266 274.03 392.525 233.122 392.525 233.122 L 392.525 275.978 C 392.525 275.978 325.318 316.887 325.318 314.939 C 325.318 312.991 325.318 274.03 326.292 273.056 z "
         id="path973"
         sodipodi:nodetypes="ccccc" />
      <path
         style="fill:#0000ff;fill-rule:evenodd;stroke:#000000;stroke-opacity:1;stroke-width:3.75;stroke-linejoin:bevel;stroke-linecap:butt;fill-opacity:1;stroke-dasharray:none;"
         d="M 251.294 266.238 L 324.344 274.03 L 393.499 233.122 L 325.318 226.304 L 251.294 266.238 z "
         id="path974"
         sodipodi:nodetypes="ccccc" />
    </g>
    <g
       id="g975"
       style="font-size:12;fill:#0000ff;stroke:#000000;stroke-width:3.75;stroke-linejoin:bevel;"
       transform="translate(-161.6852,75.97240)">
      <path
         style="fill:#0000ff;fill-rule:evenodd;stroke:#000000;stroke-opacity:1;stroke-width:3.75;stroke-linejoin:bevel;stroke-linecap:butt;fill-opacity:1;stroke-dasharray:none;"
         d="M 351.617 200.006 L 425.641 208.772 L 425.641 250.654 L 351.617 240.914 L 351.617 200.006 z "
         id="path976"
         transform="translate(-100.3227,65.25848)"
         sodipodi:nodetypes="ccccc" />
      <path
         style="fill:#0000ff;fill-rule:evenodd;stroke:#000000;stroke-opacity:1;stroke-width:3.75;stroke-linejoin:bevel;stroke-linecap:butt;fill-opacity:1;stroke-dasharray:none;"
         d="M 326.292 273.056 C 327.266 274.03 392.525 233.122 392.525 233.122 L 392.525 275.978 C 392.525 275.978 325.318 316.887 325.318 314.939 C 325.318 312.991 325.318 274.03 326.292 273.056 z "
         id="path977"
         sodipodi:nodetypes="ccccc" />
      <path
         style="fill:#0000ff;fill-rule:evenodd;stroke:#000000;stroke-opacity:1;stroke-width:3.75;stroke-linejoin:bevel;stroke-linecap:butt;fill-opacity:1;stroke-dasharray:none;"
         d="M 251.294 266.238 L 324.344 274.03 L 393.499 233.122 L 325.318 226.304 L 251.294 266.238 z "
         id="path978"
         sodipodi:nodetypes="ccccc" />
    </g>
    <g
       id="g979"
       style="font-size:12;fill:#0000ff;stroke:#000000;stroke-width:3.75;stroke-linejoin:bevel;"
       transform="translate(5.844040,-67.20650)">
      <path
         style="fill:#0000ff;fill-rule:evenodd;stroke:#000000;stroke-opacity:1;stroke-width:3.75;stroke-linejoin:bevel;stroke-linecap:butt;fill-opacity:1;stroke-dasharray:none;"
         d="M 351.617 200.006 L 425.641 208.772 L 425.641 250.654 L 351.617 240.914 L 351.617 200.006 z "
         id="path980"
         transform="translate(-100.3227,65.25848)"
         sodipodi:nodetypes="ccccc" />
      <path
         style="fill:#0000ff;fill-rule:evenodd;stroke:#000000;stroke-opacity:1;stroke-width:3.75;stroke-linejoin:bevel;stroke-linecap:butt;fill-opacity:1;stroke-dasharray:none;"
         d="M 326.292 273.056 C 327.266 274.03 392.525 233.122 392.525 233.122 L 392.525 275.978 C 392.525 275.978 325.318 316.887 325.318 314.939 C 325.318 312.991 325.318 274.03 326.292 273.056 z "
         id="path981"
         sodipodi:nodetypes="ccccc" />
      <path
         style="fill:#0000ff;fill-rule:evenodd;stroke:#000000;stroke-opacity:1;stroke-width:3.75;stroke-linejoin:bevel;stroke-linecap:butt;fill-opacity:1;stroke-dasharray:none;"
         d="M 251.294 266.238 L 324.344 274.03 L 393.499 233.122 L 325.318 226.304 L 251.294 266.238 z "
         id="path982"
         sodipodi:nodetypes="ccccc" />
    </g>
    <g
       id="g983"
       style="font-size:12;fill:#0000ff;stroke:#000000;stroke-width:3.75;stroke-linejoin:bevel;"
       transform="translate(-64.28437,-26.29834)">
      <path
         style="fill:#0000ff;fill-rule:evenodd;stroke:#000000;stroke-opacity:1;stroke-width:3.75;stroke-linejoin:bevel;stroke-linecap:butt;fill-opacity:1;stroke-dasharray:none;"
         d="M 351.617 200.006 L 425.641 208.772 L 425.641 250.654 L 351.617 240.914 L 351.617 200.006 z "
         id="path984"
         transform="translate(-100.3227,65.25848)"
         sodipodi:nodetypes="ccccc" />
      <path
         style="fill:#0000ff;fill-rule:evenodd;stroke:#000000;stroke-opacity:1;stroke-width:3.75;stroke-linejoin:bevel;stroke-linecap:butt;fill-opacity:1;stroke-dasharray:none;"
         d="M 326.292 273.056 C 327.266 274.03 392.525 233.122 392.525 233.122 L 392.525 275.978 C 392.525 275.978 325.318 316.887 325.318 314.939 C 325.318 312.991 325.318 274.03 326.292 273.056 z "
         id="path985"
         sodipodi:nodetypes="ccccc" />
      <path
         style="fill:#0000ff;fill-rule:evenodd;stroke:#000000;stroke-opacity:1;stroke-width:3.75;stroke-linejoin:bevel;stroke-linecap:butt;fill-opacity:1;stroke-dasharray:none;"
         d="M 251.294 266.238 L 324.344 274.03 L 393.499 233.122 L 325.318 226.304 L 251.294 266.238 z "
         id="path986"
         sodipodi:nodetypes="ccccc" />
    </g>
    <g
       id="g987"
       style="font-size:12;fill:#0000ff;stroke:#000000;stroke-width:3.75;stroke-linejoin:bevel;"
       transform="translate(-134.4130,14.61002)">
      <path
         style="fill:#0000ff;fill-rule:evenodd;stroke:#000000;stroke-opacity:1;stroke-width:3.75;stroke-linejoin:bevel;stroke-linecap:butt;fill-opacity:1;stroke-dasharray:none;"
         d="M 351.617 200.006 L 425.641 208.772 L 425.641 250.654 L 351.617 240.914 L 351.617 200.006 z "
         id="path988"
         transform="translate(-100.3227,65.25848)"
         sodipodi:nodetypes="ccccc" />
      <path
         style="fill:#0000ff;fill-rule:evenodd;stroke:#000000;stroke-opacity:1;stroke-width:3.75;stroke-linejoin:bevel;stroke-linecap:butt;fill-opacity:1;stroke-dasharray:none;"
         d="M 326.292 273.056 C 327.266 274.03 392.525 233.122 392.525 233.122 L 392.525 275.978 C 392.525 275.978 325.318 316.887 325.318 314.939 C 325.318 312.991 325.318 274.03 326.292 273.056 z "
         id="path989"
         sodipodi:nodetypes="ccccc" />
      <path
         style="fill:#0000ff;fill-rule:evenodd;stroke:#000000;stroke-opacity:1;stroke-width:3.75;stroke-linejoin:bevel;stroke-linecap:butt;fill-opacity:1;stroke-dasharray:none;"
         d="M 251.294 266.238 L 324.344 274.03 L 393.499 233.122 L 325.318 226.304 L 251.294 266.238 z "
         id="path990"
         sodipodi:nodetypes="ccccc" />
    </g>
    <g
       id="g991"
       style="font-size:12;fill:#0000ff;stroke:#000000;stroke-width:3.75;stroke-linejoin:bevel;"
       transform="translate(-202.5935,54.54425)">
      <path
         style="fill:#0000ff;fill-rule:evenodd;stroke:#000000;stroke-opacity:1;stroke-width:3.75;stroke-linejoin:bevel;stroke-linecap:butt;fill-opacity:1;stroke-dasharray:none;"
         d="M 351.617 200.006 L 425.641 208.772 L 425.641 250.654 L 351.617 240.914 L 351.617 200.006 z "
         id="path992"
         transform="translate(-100.3227,65.25848)"
         sodipodi:nodetypes="ccccc" />
      <path
         style="fill:#0000ff;fill-rule:evenodd;stroke:#000000;stroke-opacity:1;stroke-width:3.75;stroke-linejoin:bevel;stroke-linecap:butt;fill-opacity:1;stroke-dasharray:none;"
         d="M 326.292 273.056 C 327.266 274.03 392.525 233.122 392.525 233.122 L 392.525 275.978 C 392.525 275.978 325.318 316.887 325.318 314.939 C 325.318 312.991 325.318 274.03 326.292 273.056 z "
         id="path993"
         sodipodi:nodetypes="ccccc" />
      <path
         style="fill:#0000ff;fill-rule:evenodd;stroke:#000000;stroke-opacity:1;stroke-width:3.75;stroke-linejoin:bevel;stroke-linecap:butt;fill-opacity:1;stroke-dasharray:none;"
         d="M 251.294 266.238 L 324.344 274.03 L 393.499 233.122 L 325.318 226.304 L 251.294 266.238 z "
         id="path994"
         sodipodi:nodetypes="ccccc" />
    </g>
    <g
       id="g995"
       style="font-size:12;fill:#0000ff;stroke:#000000;stroke-width:3.75;stroke-linejoin:bevel;"
       transform="translate(29.22020,-126.6209)">
      <path
         style="fill:#0000ff;fill-rule:evenodd;stroke:#000000;stroke-opacity:1;stroke-width:3.75;stroke-linejoin:bevel;stroke-linecap:butt;fill-opacity:1;stroke-dasharray:none;"
         d="M 351.617 200.006 L 425.641 208.772 L 425.641 250.654 L 351.617 240.914 L 351.617 200.006 z "
         id="path996"
         transform="translate(-100.3227,65.25848)"
         sodipodi:nodetypes="ccccc" />
      <path
         style="fill:#0000ff;fill-rule:evenodd;stroke:#000000;stroke-opacity:1;stroke-width:3.75;stroke-linejoin:bevel;stroke-linecap:butt;fill-opacity:1;stroke-dasharray:none;"
         d="M 326.292 273.056 C 327.266 274.03 392.525 233.122 392.525 233.122 L 392.525 275.978 C 392.525 275.978 325.318 316.887 325.318 314.939 C 325.318 312.991 325.318 274.03 326.292 273.056 z "
         id="path997"
         sodipodi:nodetypes="ccccc" />
      <path
         style="fill:#0000ff;fill-rule:evenodd;stroke:#000000;stroke-opacity:1;stroke-width:3.75;stroke-linejoin:bevel;stroke-linecap:butt;fill-opacity:1;stroke-dasharray:none;"
         d="M 251.294 266.238 L 324.344 274.03 L 393.499 233.122 L 325.318 226.304 L 251.294 266.238 z "
         id="path998"
         sodipodi:nodetypes="ccccc" />
    </g>
    <g
       id="g999"
       style="font-size:12;fill:#0000ff;stroke:#000000;stroke-width:3.75;stroke-linejoin:bevel;"
       transform="translate(-40.90821,-85.71282)">
      <path
         style="fill:#0000ff;fill-rule:evenodd;stroke:#000000;stroke-opacity:1;stroke-width:3.75;stroke-linejoin:bevel;stroke-linecap:butt;fill-opacity:1;stroke-dasharray:none;"
         d="M 351.617 200.006 L 425.641 208.772 L 425.641 250.654 L 351.617 240.914 L 351.617 200.006 z "
         id="path1000"
         transform="translate(-100.3227,65.25848)"
         sodipodi:nodetypes="ccccc" />
      <path
         style="fill:#0000ff;fill-rule:evenodd;stroke:#000000;stroke-opacity:1;stroke-width:3.75;stroke-linejoin:bevel;stroke-linecap:butt;fill-opacity:1;stroke-dasharray:none;"
         d="M 326.292 273.056 C 327.266 274.03 392.525 233.122 392.525 233.122 L 392.525 275.978 C 392.525 275.978 325.318 316.887 325.318 314.939 C 325.318 312.991 325.318 274.03 326.292 273.056 z "
         id="path1001"
         sodipodi:nodetypes="ccccc" />
      <path
         style="fill:#0000ff;fill-rule:evenodd;stroke:#000000;stroke-opacity:1;stroke-width:3.75;stroke-linejoin:bevel;stroke-linecap:butt;fill-opacity:1;stroke-dasharray:none;"
         d="M 251.294 266.238 L 324.344 274.03 L 393.499 233.122 L 325.318 226.304 L 251.294 266.238 z "
         id="path1002"
         sodipodi:nodetypes="ccccc" />
    </g>
    <g
       id="g1003"
       style="font-size:12;fill:#0000ff;stroke:#000000;stroke-width:3.75;stroke-linejoin:bevel;"
       transform="translate(-111.0369,-44.80442)">
      <path
         style="fill:#0000ff;fill-rule:evenodd;stroke:#000000;stroke-opacity:1;stroke-width:3.75;stroke-linejoin:bevel;stroke-linecap:butt;fill-opacity:1;stroke-dasharray:none;"
         d="M 351.617 200.006 L 425.641 208.772 L 425.641 250.654 L 351.617 240.914 L 351.617 200.006 z "
         id="path1004"
         transform="translate(-100.3227,65.25848)"
         sodipodi:nodetypes="ccccc" />
      <path
         style="fill:#0000ff;fill-rule:evenodd;stroke:#000000;stroke-opacity:1;stroke-width:3.75;stroke-linejoin:bevel;stroke-linecap:butt;fill-opacity:1;stroke-dasharray:none;"
         d="M 326.292 273.056 C 327.266 274.03 392.525 233.122 392.525 233.122 L 392.525 275.978 C 392.525 275.978 325.318 316.887 325.318 314.939 C 325.318 312.991 325.318 274.03 326.292 273.056 z "
         id="path1005"
         sodipodi:nodetypes="ccccc" />
      <path
         style="fill:#0000ff;fill-rule:evenodd;stroke:#000000;stroke-opacity:1;stroke-width:3.75;stroke-linejoin:bevel;stroke-linecap:butt;fill-opacity:1;stroke-dasharray:none;"
         d="M 251.294 266.238 L 324.344 274.03 L 393.499 233.122 L 325.318 226.304 L 251.294 266.238 z "
         id="path1006"
         sodipodi:nodetypes="ccccc" />
    </g>
    <g
       id="g1007"
       style="font-size:12;fill:#0000ff;stroke:#000000;stroke-width:3.75;stroke-linejoin:bevel;"
       transform="translate(-179.2173,-4.870186)">
      <path
         style="fill:#0000ff;fill-rule:evenodd;stroke:#000000;stroke-opacity:1;stroke-width:3.75;stroke-linejoin:bevel;stroke-linecap:butt;fill-opacity:1;stroke-dasharray:none;"
         d="M 351.617 200.006 L 425.641 208.772 L 425.641 250.654 L 351.617 240.914 L 351.617 200.006 z "
         id="path1008"
         transform="translate(-100.3227,65.25848)"
         sodipodi:nodetypes="ccccc" />
      <path
         style="fill:#0000ff;fill-rule:evenodd;stroke:#000000;stroke-opacity:1;stroke-width:3.75;stroke-linejoin:bevel;stroke-linecap:butt;fill-opacity:1;stroke-dasharray:none;"
         d="M 326.292 273.056 C 327.266 274.03 392.525 233.122 392.525 233.122 L 392.525 275.978 C 392.525 275.978 325.318 316.887 325.318 314.939 C 325.318 312.991 325.318 274.03 326.292 273.056 z "
         id="path1009"
         sodipodi:nodetypes="ccccc" />
      <path
         style="fill:#0000ff;fill-rule:evenodd;stroke:#000000;stroke-opacity:1;stroke-width:3.75;stroke-linejoin:bevel;stroke-linecap:butt;fill-opacity:1;stroke-dasharray:none;"
         d="M 251.294 266.238 L 324.344 274.03 L 393.499 233.122 L 325.318 226.304 L 251.294 266.238 z "
         id="path1010"
         sodipodi:nodetypes="ccccc" />
    </g>
    <g
       id="g1011"
       style="font-size:12;fill:#0000ff;stroke:#000000;stroke-width:3.75;stroke-linejoin:bevel;"
       transform="translate(-18.50615,-145.1272)">
      <path
         style="fill:#0000ff;fill-rule:evenodd;stroke:#000000;stroke-opacity:1;stroke-width:3.75;stroke-linejoin:bevel;stroke-linecap:butt;fill-opacity:1;stroke-dasharray:none;"
         d="M 351.617 200.006 L 425.641 208.772 L 425.641 250.654 L 351.617 240.914 L 351.617 200.006 z "
         id="path1012"
         transform="translate(-100.3227,65.25848)"
         sodipodi:nodetypes="ccccc" />
      <path
         style="fill:#0000ff;fill-rule:evenodd;stroke:#000000;stroke-opacity:1;stroke-width:3.75;stroke-linejoin:bevel;stroke-linecap:butt;fill-opacity:1;stroke-dasharray:none;"
         d="M 326.292 273.056 C 327.266 274.03 392.525 233.122 392.525 233.122 L 392.525 275.978 C 392.525 275.978 325.318 316.887 325.318 314.939 C 325.318 312.991 325.318 274.03 326.292 273.056 z "
         id="path1013"
         sodipodi:nodetypes="ccccc" />
      <path
         style="fill:#0000ff;fill-rule:evenodd;stroke:#000000;stroke-opacity:1;stroke-width:3.75;stroke-linejoin:bevel;stroke-linecap:butt;fill-opacity:1;stroke-dasharray:none;"
         d="M 251.294 266.238 L 324.344 274.03 L 393.499 233.122 L 325.318 226.304 L 251.294 266.238 z "
         id="path1014"
         sodipodi:nodetypes="ccccc" />
    </g>
    <g
       id="g1015"
       style="font-size:12;fill:#0000ff;stroke:#000000;stroke-width:3.75;stroke-linejoin:bevel;"
       transform="translate(-88.63456,-104.2189)">
      <path
         style="fill:#0000ff;fill-rule:evenodd;stroke:#000000;stroke-opacity:1;stroke-width:3.75;stroke-linejoin:bevel;stroke-linecap:butt;fill-opacity:1;stroke-dasharray:none;"
         d="M 351.617 200.006 L 425.641 208.772 L 425.641 250.654 L 351.617 240.914 L 351.617 200.006 z "
         id="path1016"
         transform="translate(-100.3227,65.25848)"
         sodipodi:nodetypes="ccccc" />
      <path
         style="fill:#0000ff;fill-rule:evenodd;stroke:#000000;stroke-opacity:1;stroke-width:3.75;stroke-linejoin:bevel;stroke-linecap:butt;fill-opacity:1;stroke-dasharray:none;"
         d="M 326.292 273.056 C 327.266 274.03 392.525 233.122 392.525 233.122 L 392.525 275.978 C 392.525 275.978 325.318 316.887 325.318 314.939 C 325.318 312.991 325.318 274.03 326.292 273.056 z "
         id="path1017"
         sodipodi:nodetypes="ccccc" />
      <path
         style="fill:#0000ff;fill-rule:evenodd;stroke:#000000;stroke-opacity:1;stroke-width:3.75;stroke-linejoin:bevel;stroke-linecap:butt;fill-opacity:1;stroke-dasharray:none;"
         d="M 251.294 266.238 L 324.344 274.03 L 393.499 233.122 L 325.318 226.304 L 251.294 266.238 z "
         id="path1018"
         sodipodi:nodetypes="ccccc" />
    </g>
    <g
       id="g1019"
       style="font-size:12;fill:#0000ff;stroke:#000000;stroke-width:3.75;stroke-linejoin:bevel;"
       transform="translate(-158.7632,-63.31051)">
      <path
         style="fill:#0000ff;fill-rule:evenodd;stroke:#000000;stroke-opacity:1;stroke-width:3.75;stroke-linejoin:bevel;stroke-linecap:butt;fill-opacity:1;stroke-dasharray:none;"
         d="M 351.617 200.006 L 425.641 208.772 L 425.641 250.654 L 351.617 240.914 L 351.617 200.006 z "
         id="path1020"
         transform="translate(-100.3227,65.25848)"
         sodipodi:nodetypes="ccccc" />
      <path
         style="fill:#0000ff;fill-rule:evenodd;stroke:#000000;stroke-opacity:1;stroke-width:3.75;stroke-linejoin:bevel;stroke-linecap:butt;fill-opacity:1;stroke-dasharray:none;"
         d="M 326.292 273.056 C 327.266 274.03 392.525 233.122 392.525 233.122 L 392.525 275.978 C 392.525 275.978 325.318 316.887 325.318 314.939 C 325.318 312.991 325.318 274.03 326.292 273.056 z "
         id="path1021"
         sodipodi:nodetypes="ccccc" />
      <path
         style="fill:#0000ff;fill-rule:evenodd;stroke:#000000;stroke-opacity:1;stroke-width:3.75;stroke-linejoin:bevel;stroke-linecap:butt;fill-opacity:1;stroke-dasharray:none;"
         d="M 251.294 266.238 L 324.344 274.03 L 393.499 233.122 L 325.318 226.304 L 251.294 266.238 z "
         id="path1022"
         sodipodi:nodetypes="ccccc" />
    </g>
    <g
       id="g1023"
       style="font-size:12;fill:#0000ff;stroke:#000000;stroke-width:3.75;stroke-linejoin:bevel;"
       transform="translate(-226.9437,-23.37628)">
      <path
         style="fill:#0000ff;fill-rule:evenodd;stroke:#000000;stroke-opacity:1;stroke-width:3.75;stroke-linejoin:bevel;stroke-linecap:butt;fill-opacity:1;stroke-dasharray:none;"
         d="M 351.617 200.006 L 425.641 208.772 L 425.641 250.654 L 351.617 240.914 L 351.617 200.006 z "
         id="path1024"
         transform="translate(-100.3227,65.25848)"
         sodipodi:nodetypes="ccccc" />
      <path
         style="fill:#0000ff;fill-rule:evenodd;stroke:#000000;stroke-opacity:1;stroke-width:3.75;stroke-linejoin:bevel;stroke-linecap:butt;fill-opacity:1;stroke-dasharray:none;"
         d="M 326.292 273.056 C 327.266 274.03 392.525 233.122 392.525 233.122 L 392.525 275.978 C 392.525 275.978 325.318 316.887 325.318 314.939 C 325.318 312.991 325.318 274.03 326.292 273.056 z "
         id="path1025"
         sodipodi:nodetypes="ccccc" />
      <path
         style="fill:#0000ff;fill-rule:evenodd;stroke:#000000;stroke-opacity:1;stroke-width:3.75;stroke-linejoin:bevel;stroke-linecap:butt;fill-opacity:1;stroke-dasharray:none;"
         d="M 251.294 266.238 L 324.344 274.03 L 393.499 233.122 L 325.318 226.304 L 251.294 266.238 z "
         id="path1026"
         sodipodi:nodetypes="ccccc" />
    </g>
    <g
       id="g1027"
       style="font-size:12;fill:#0000ff;stroke:#000000;stroke-width:3.75;stroke-linejoin:bevel;"
       transform="translate(8.766040,-207.4635)">
      <path
         style="fill:#0000ff;fill-rule:evenodd;stroke:#000000;stroke-opacity:1;stroke-width:3.75;stroke-linejoin:bevel;stroke-linecap:butt;fill-opacity:1;stroke-dasharray:none;"
         d="M 351.617 200.006 L 425.641 208.772 L 425.641 250.654 L 351.617 240.914 L 351.617 200.006 z "
         id="path1028"
         transform="translate(-100.3227,65.25848)"
         sodipodi:nodetypes="ccccc" />
      <path
         style="fill:#0000ff;fill-rule:evenodd;stroke:#000000;stroke-opacity:1;stroke-width:3.75;stroke-linejoin:bevel;stroke-linecap:butt;fill-opacity:1;stroke-dasharray:none;"
         d="M 326.292 273.056 C 327.266 274.03 392.525 233.122 392.525 233.122 L 392.525 275.978 C 392.525 275.978 325.318 316.887 325.318 314.939 C 325.318 312.991 325.318 274.03 326.292 273.056 z "
         id="path1029"
         sodipodi:nodetypes="ccccc" />
      <path
         style="fill:#0000ff;fill-rule:evenodd;stroke:#000000;stroke-opacity:1;stroke-width:3.75;stroke-linejoin:bevel;stroke-linecap:butt;fill-opacity:1;stroke-dasharray:none;"
         d="M 251.294 266.238 L 324.344 274.03 L 393.499 233.122 L 325.318 226.304 L 251.294 266.238 z "
         id="path1030"
         sodipodi:nodetypes="ccccc" />
    </g>
    <g
       id="g1031"
       style="font-size:12;fill:#0000ff;stroke:#000000;stroke-width:3.75;stroke-linejoin:bevel;"
       transform="translate(-61.36237,-166.5553)">
      <path
         style="fill:#0000ff;fill-rule:evenodd;stroke:#000000;stroke-opacity:1;stroke-width:3.75;stroke-linejoin:bevel;stroke-linecap:butt;fill-opacity:1;stroke-dasharray:none;"
         d="M 351.617 200.006 L 425.641 208.772 L 425.641 250.654 L 351.617 240.914 L 351.617 200.006 z "
         id="path1032"
         transform="translate(-100.3227,65.25848)"
         sodipodi:nodetypes="ccccc" />
      <path
         style="fill:#0000ff;fill-rule:evenodd;stroke:#000000;stroke-opacity:1;stroke-width:3.75;stroke-linejoin:bevel;stroke-linecap:butt;fill-opacity:1;stroke-dasharray:none;"
         d="M 326.292 273.056 C 327.266 274.03 392.525 233.122 392.525 233.122 L 392.525 275.978 C 392.525 275.978 325.318 316.887 325.318 314.939 C 325.318 312.991 325.318 274.03 326.292 273.056 z "
         id="path1033"
         sodipodi:nodetypes="ccccc" />
      <path
         style="fill:#0000ff;fill-rule:evenodd;stroke:#000000;stroke-opacity:1;stroke-width:3.75;stroke-linejoin:bevel;stroke-linecap:butt;fill-opacity:1;stroke-dasharray:none;"
         d="M 251.294 266.238 L 324.344 274.03 L 393.499 233.122 L 325.318 226.304 L 251.294 266.238 z "
         id="path1034"
         sodipodi:nodetypes="ccccc" />
    </g>
    <g
       id="g1035"
       style="font-size:12;fill:#0000ff;stroke:#000000;stroke-width:3.75;stroke-linejoin:bevel;"
       transform="translate(-131.4910,-125.6469)">
      <path
         style="fill:#0000ff;fill-rule:evenodd;stroke:#000000;stroke-opacity:1;stroke-width:3.75;stroke-linejoin:bevel;stroke-linecap:butt;fill-opacity:1;stroke-dasharray:none;"
         d="M 351.617 200.006 L 425.641 208.772 L 425.641 250.654 L 351.617 240.914 L 351.617 200.006 z "
         id="path1036"
         transform="translate(-100.3227,65.25848)"
         sodipodi:nodetypes="ccccc" />
      <path
         style="fill:#0000ff;fill-rule:evenodd;stroke:#000000;stroke-opacity:1;stroke-width:3.75;stroke-linejoin:bevel;stroke-linecap:butt;fill-opacity:1;stroke-dasharray:none;"
         d="M 326.292 273.056 C 327.266 274.03 392.525 233.122 392.525 233.122 L 392.525 275.978 C 392.525 275.978 325.318 316.887 325.318 314.939 C 325.318 312.991 325.318 274.03 326.292 273.056 z "
         id="path1037"
         sodipodi:nodetypes="ccccc" />
      <path
         style="fill:#0000ff;fill-rule:evenodd;stroke:#000000;stroke-opacity:1;stroke-width:3.75;stroke-linejoin:bevel;stroke-linecap:butt;fill-opacity:1;stroke-dasharray:none;"
         d="M 251.294 266.238 L 324.344 274.03 L 393.499 233.122 L 325.318 226.304 L 251.294 266.238 z "
         id="path1038"
         sodipodi:nodetypes="ccccc" />
    </g>
    <g
       id="g1039"
       style="font-size:12;fill:#0000ff;stroke:#000000;stroke-width:3.75;stroke-linejoin:bevel;"
       transform="translate(-199.6715,-85.71270)">
      <path
         style="fill:#0000ff;fill-rule:evenodd;stroke:#000000;stroke-opacity:1;stroke-width:3.75;stroke-linejoin:bevel;stroke-linecap:butt;fill-opacity:1;stroke-dasharray:none;"
         d="M 351.617 200.006 L 425.641 208.772 L 425.641 250.654 L 351.617 240.914 L 351.617 200.006 z "
         id="path1040"
         transform="translate(-100.3227,65.25848)"
         sodipodi:nodetypes="ccccc" />
      <path
         style="fill:#0000ff;fill-rule:evenodd;stroke:#000000;stroke-opacity:1;stroke-width:3.75;stroke-linejoin:bevel;stroke-linecap:butt;fill-opacity:1;stroke-dasharray:none;"
         d="M 326.292 273.056 C 327.266 274.03 392.525 233.122 392.525 233.122 L 392.525 275.978 C 392.525 275.978 325.318 316.887 325.318 314.939 C 325.318 312.991 325.318 274.03 326.292 273.056 z "
         id="path1041"
         sodipodi:nodetypes="ccccc" />
      <path
         style="fill:#0000ff;fill-rule:evenodd;stroke:#000000;stroke-opacity:1;stroke-width:3.75;stroke-linejoin:bevel;stroke-linecap:butt;fill-opacity:1;stroke-dasharray:none;"
         d="M 251.294 266.238 L 324.344 274.03 L 393.499 233.122 L 325.318 226.304 L 251.294 266.238 z "
         id="path1042"
         sodipodi:nodetypes="ccccc" />
    </g>
  </g>

  <rdf:RDF 
   xmlns="http://web.resource.org/cc/"
   xmlns:dc="http://purl.org/dc/elements/1.1/"
   xmlns:rdf="http://www.w3.org/1999/02/22-rdf-syntax-ns#">
  <Work rdf:about="">
    <dc:title>Clipart by Nicu Buculei - antenna</dc:title>
    <dc:rights>
       <Agent>
         <dc:title>Nicu Buculei</dc:title>
       </Agent>
    </dc:rights>
    <dc:type rdf:resource="http://purl.org/dc/dcmitype/StillImage" />
    <license rdf:resource="http://web.resource.org/cc/PublicDomain" />
  </Work>
   
  <License rdf:about="http://web.resource.org/cc/PublicDomain">
     <permits rdf:resource="http://web.resource.org/cc/Reproduction" />
     <permits rdf:resource="http://web.resource.org/cc/Distribution" />
     <permits rdf:resource="http://web.resource.org/cc/DerivativeWorks" />
  </License>

</rdf:RDF>
</svg>
