<?xml version="1.0" encoding="UTF-8" standalone="no"?>
<!DOCTYPE svg PUBLIC "-//W3C//DTD SVG 1.0//EN"
"http://www.w3.org/TR/2001/REC-SVG-20010904/DTD/svg10.dtd">
<!-- Created with Inkscape (http://www.inkscape.org/) -->
<svg
   id="svg1"
   sodipodi:version="0.32"
   inkscape:version="0.38.1"
   xmlns="http://www.w3.org/2000/svg"
   xmlns:sodipodi="http://sodipodi.sourceforge.net/DTD/sodipodi-0.dtd"
   xmlns:inkscape="http://www.inkscape.org/namespaces/inkscape"
   xmlns:xlink="http://www.w3.org/1999/xlink"
   width="80.000000pt"
   height="80.000000pt"
   sodipodi:docbase="/home/nicu/Desktop/stick_man"
   sodipodi:docname="sm_019.svg">
  <defs
     id="defs3">
    <linearGradient
       id="linearGradient827">
      <stop
         style="stop-color:#02e2ff;stop-opacity:1.0000000;"
         offset="0.0000000"
         id="stop828" />
      <stop
         style="stop-color:#0079a8;stop-opacity:1.0000000;"
         offset="1.0000000"
         id="stop829" />
    </linearGradient>
    <radialGradient
       xlink:href="#linearGradient827"
       id="radialGradient830"
       cx="0.18840580"
       cy="0.27544910"
       r="0.39135015"
       fx="0.18840580"
       fy="0.27544910" />
    <linearGradient
       xlink:href="#linearGradient827"
       id="linearGradient833"
       x1="-0.11764706"
       y1="0.041420117"
       x2="0.47058824"
       y2="0.76923078" />
    <radialGradient
       xlink:href="#linearGradient827"
       id="radialGradient844"
       cx="0.30000001"
       cy="0.20710059"
       r="0.50003499"
       fx="0.30000001"
       fy="0.20710059" />
    <radialGradient
       xlink:href="#linearGradient827"
       id="radialGradient845"
       cx="0.20588236"
       cy="0.19526628"
       r="0.53611112"
       fx="0.20588236"
       fy="0.19526628" />
    <radialGradient
       xlink:href="#linearGradient827"
       id="radialGradient846"
       cx="0.17647059"
       cy="0.10650887"
       r="0.62578475"
       fx="0.17647059"
       fy="0.10650887" />
    <radialGradient
       xlink:href="#linearGradient827"
       id="radialGradient847"
       cx="0.21014492"
       cy="0.11377245"
       r="0.58443874"
       fx="0.21014492"
       fy="0.11377245" />
  </defs>
  <sodipodi:namedview
     id="base"
     pagecolor="#ffffff"
     bordercolor="#666666"
     borderopacity="1.0"
     inkscape:pageopacity="0.0"
     inkscape:pageshadow="2"
     inkscape:zoom="6.0628663"
     inkscape:cx="43.526925"
     inkscape:cy="43.550778"
     inkscape:window-width="713"
     inkscape:window-height="684"
     inkscape:window-x="488"
     inkscape:window-y="32" />
  <path
     style="fill:url(#radialGradient844);fill-opacity:1;fill-rule:evenodd;stroke:none;stroke-width:1.2500000;stroke-dasharray:none;"
     d="M 71.308002,19.842769 C 71.308002,26.451519 65.945892,31.815141 59.339007,31.815141 C 52.732122,31.815141 47.370012,26.451519 47.370012,19.842769 C 47.370012,13.234020 52.732122,7.8703966 59.339007,7.8703966 C 65.945892,7.8703966 71.308002,13.234020 71.308002,19.842769 z "
     id="path826" />
  <path
     style="fill:none;fill-rule:evenodd;stroke:#00007f;stroke-opacity:1.0000000;stroke-width:2.5000000;stroke-linejoin:miter;stroke-linecap:butt;fill-opacity:1.0000000;stroke-dasharray:none;"
     d="M 13.185562,26.054024 C 23.542376,16.730088 42.706959,21.982241 50.084049,32.037067"
     id="path837"
     sodipodi:nodetypes="cc" />
  <path
     style="fill:none;fill-rule:evenodd;stroke:#00007f;stroke-opacity:1.0000000;stroke-width:2.5000000;stroke-linejoin:miter;stroke-linecap:butt;fill-opacity:0.75;stroke-dasharray:none;"
     d="M 38.982808,64.053622 C 55.989343,65.068938 64.778041,75.047020 65.793357,84.438688"
     id="path842"
     sodipodi:nodetypes="cc" />
  <path
     style="fill:url(#linearGradient833);fill-opacity:1;fill-rule:evenodd;stroke:none;stroke-width:1.2500000;stroke-dasharray:none;"
     d="M 53.504858,50.237452 C 51.230581,61.194984 47.438286,69.684050 37.828048,67.689409 C 29.255767,65.689925 28.117095,56.397693 30.391373,45.440161 C 32.665650,34.482629 36.165581,26.153155 46.068183,27.988204 C 55.722252,29.771669 55.779135,39.279920 53.504858,50.237452 z "
     id="path832"
     sodipodi:nodetypes="ccccc" />
  <path
     style="fill:url(#radialGradient845);fill-opacity:1;fill-rule:evenodd;stroke:none;stroke-width:1.2500000;stroke-dasharray:none;"
     d="M 16.394640,27.342247 C 16.394640,29.412249 14.714640,31.092248 12.644640,31.092248 C 10.574640,31.092248 8.8946403,29.412249 8.8946403,27.342247 C 8.8946403,25.272248 10.574640,23.592248 12.644640,23.592248 C 14.714640,23.592248 16.394640,25.272248 16.394640,27.342247 z "
     id="path835" />
  <path
     style="fill:url(#radialGradient847);fill-opacity:1;fill-rule:evenodd;stroke:none;stroke-width:1.2500000;stroke-dasharray:none;"
     d="M 76.348858,85.155535 C 76.348858,87.225537 73.548858,88.905536 70.098858,88.905536 C 66.648858,88.905536 63.848858,87.225537 63.848858,85.155535 C 63.848858,83.085536 66.648858,81.405536 70.098858,81.405536 C 73.548858,81.405536 76.348858,83.085536 76.348858,85.155535 z "
     id="path848" />
  <path
     style="fill:none;fill-rule:evenodd;stroke:#00007f;stroke-opacity:1.0000000;stroke-width:2.5000000;stroke-linejoin:miter;stroke-linecap:butt;fill-opacity:0.75;stroke-dasharray:none;"
     d="M 34.633060,64.963606 C 50.608730,71.133250 54.243100,85.853314 46.599146,93.183251"
     id="path867"
     sodipodi:nodetypes="cc" />
  <path
     style="fill:url(#radialGradient847);fill-opacity:1;fill-rule:evenodd;stroke:none;stroke-width:1.2500000;stroke-dasharray:none;"
     d="M 57.237547,97.163382 C 56.327535,99.022626 53.074060,99.300642 49.975323,97.783957 C 46.876587,96.267272 45.100230,93.527391 46.010241,91.668147 C 46.920252,89.808906 50.173728,89.530889 53.272464,91.047574 C 56.371201,92.564258 58.147558,95.304141 57.237547,97.163382 z "
     id="path836" />
  <path
     style="fill:none;fill-rule:evenodd;stroke:#00007f;stroke-opacity:1.0000000;stroke-width:2.5000000;stroke-linejoin:miter;stroke-linecap:butt;fill-opacity:1.0000000;stroke-dasharray:none;"
     d="M 11.239686,40.090200 C 17.679211,32.209476 34.163543,25.915934 47.107307,32.465817"
     id="path868"
     sodipodi:nodetypes="cc" />
  <path
     style="fill:url(#radialGradient845);fill-opacity:1;fill-rule:evenodd;stroke:none;stroke-width:1.2500000;stroke-dasharray:none;"
     d="M 12.615446,41.240660 C 12.615446,43.310662 10.935446,44.990661 8.8654463,44.990661 C 6.7954462,44.990661 5.1154462,43.310662 5.1154462,41.240660 C 5.1154462,39.170661 6.7954462,37.490661 8.8654463,37.490661 C 10.935446,37.490661 12.615446,39.170661 12.615446,41.240660 z "
     id="path849" />

  <rdf:RDF 
   xmlns="http://web.resource.org/cc/"
   xmlns:dc="http://purl.org/dc/elements/1.1/"
   xmlns:rdf="http://www.w3.org/1999/02/22-rdf-syntax-ns#">
  <Work rdf:about="">
    <dc:title>stick man</dc:title>
    <dc:rights>
       <Agent>
         <dc:title>Nicu Buculei</dc:title>
       </Agent>
    </dc:rights>
    <dc:type rdf:resource="http://purl.org/dc/dcmitype/StillImage" />
    <license rdf:resource="http://web.resource.org/cc/PublicDomain" />
  </Work>
   
  <License rdf:about="http://web.resource.org/cc/PublicDomain">
     <permits rdf:resource="http://web.resource.org/cc/Reproduction" />
     <permits rdf:resource="http://web.resource.org/cc/Distribution" />
     <permits rdf:resource="http://web.resource.org/cc/DerivativeWorks" />
  </License>

</rdf:RDF>
</svg>
