<?xml version="1.0" encoding="UTF-8" standalone="no"?>
<!DOCTYPE svg PUBLIC "-//W3C//DTD SVG 1.0//EN"
"http://www.w3.org/TR/2001/REC-SVG-20010904/DTD/svg10.dtd">
<!-- Created with Inkscape (http://www.inkscape.org/) -->
<svg
   id="svg1"
   sodipodi:version="0.32"
   inkscape:version="0.38.1"
   xmlns="http://www.w3.org/2000/svg"
   xmlns:sodipodi="http://sodipodi.sourceforge.net/DTD/sodipodi-0.dtd"
   xmlns:inkscape="http://www.inkscape.org/namespaces/inkscape"
   xmlns:xlink="http://www.w3.org/1999/xlink"
   width="80.000000pt"
   height="80.000000pt"
   sodipodi:docbase="/home/nicu/Desktop/stick_man"
   sodipodi:docname="sm_007.svg">
  <defs
     id="defs3">
    <linearGradient
       id="linearGradient827">
      <stop
         style="stop-color:#02e2ff;stop-opacity:1.0000000;"
         offset="0.0000000"
         id="stop828" />
      <stop
         style="stop-color:#0079a8;stop-opacity:1.0000000;"
         offset="1.0000000"
         id="stop829" />
    </linearGradient>
    <radialGradient
       xlink:href="#linearGradient827"
       id="radialGradient830"
       cx="0.18840580"
       cy="0.27544910"
       r="0.39135015"
       fx="0.18840580"
       fy="0.27544910" />
    <linearGradient
       xlink:href="#linearGradient827"
       id="linearGradient833"
       x1="-0.11764706"
       y1="0.041420117"
       x2="0.47058824"
       y2="0.76923078" />
    <radialGradient
       xlink:href="#linearGradient827"
       id="radialGradient844"
       cx="0.30000001"
       cy="0.20710059"
       r="0.50003499"
       fx="0.30000001"
       fy="0.20710059" />
    <radialGradient
       xlink:href="#linearGradient827"
       id="radialGradient845"
       cx="0.20588236"
       cy="0.19526628"
       r="0.53611112"
       fx="0.20588236"
       fy="0.19526628" />
    <radialGradient
       xlink:href="#linearGradient827"
       id="radialGradient846"
       cx="0.17647059"
       cy="0.10650887"
       r="0.62578475"
       fx="0.17647059"
       fy="0.10650887" />
    <radialGradient
       xlink:href="#linearGradient827"
       id="radialGradient847"
       cx="0.21014492"
       cy="0.11377245"
       r="0.58443874"
       fx="0.21014492"
       fy="0.11377245" />
  </defs>
  <sodipodi:namedview
     id="base"
     pagecolor="#ffffff"
     bordercolor="#666666"
     borderopacity="1.0"
     inkscape:pageopacity="0.0"
     inkscape:pageshadow="2"
     inkscape:zoom="6.0628663"
     inkscape:cx="43.526925"
     inkscape:cy="42.216995"
     inkscape:window-width="713"
     inkscape:window-height="684"
     inkscape:window-x="431"
     inkscape:window-y="36" />
  <path
     style="fill:url(#radialGradient844);fill-opacity:1;fill-rule:evenodd;stroke:none;stroke-width:1.2500000;stroke-dasharray:none;"
     d="M 49.865998,18.193383 C 49.865998,24.802133 44.503888,30.165755 37.897003,30.165755 C 31.290118,30.165755 25.928008,24.802133 25.928008,18.193383 C 25.928008,11.584634 31.290118,6.2210116 37.897003,6.2210116 C 44.503888,6.2210116 49.865998,11.584634 49.865998,18.193383 z "
     id="path826" />
  <path
     style="fill:none;fill-rule:evenodd;stroke:#00007f;stroke-opacity:1.0000000;stroke-width:2.5000000;stroke-linejoin:miter;stroke-linecap:butt;fill-opacity:1.0000000;stroke-dasharray:none;"
     d="M 9.6806187,25.023158 C 11.013975,41.012367 28.732330,38.936091 42.867990,32.037067 C 58.620931,24.979525 75.357081,30.754384 74.627700,49.171019"
     id="path837"
     sodipodi:nodetypes="ccc" />
  <path
     style="fill:none;fill-rule:evenodd;stroke:#00007f;stroke-opacity:1.0000000;stroke-width:2.5000000;stroke-linejoin:miter;stroke-linecap:butt;fill-opacity:0.75;stroke-dasharray:none;"
     d="M 30.713294,94.161936 C 22.767854,77.618420 31.143201,63.387447 52.796406,71.063508 C 60.112805,80.738095 69.313849,89.685311 79.194609,89.593016"
     id="path842"
     sodipodi:nodetypes="ccc" />
  <path
     style="fill:url(#linearGradient833);fill-opacity:1;fill-rule:evenodd;stroke:none;stroke-width:1.2500000;stroke-dasharray:none;"
     d="M 61.845134,49.239512 C 63.644799,60.284921 63.143283,69.569005 53.455972,71.147390 C 44.736078,72.349629 40.345950,64.081079 38.546285,53.035670 C 36.746620,41.990262 37.032295,32.959866 46.935447,31.127792 C 56.588074,29.336537 60.045470,38.194103 61.845134,49.239512 z "
     id="path832"
     sodipodi:nodetypes="ccccc" />
  <path
     style="fill:url(#radialGradient845);fill-opacity:1;fill-rule:evenodd;stroke:none;stroke-width:1.2500000;stroke-dasharray:none;"
     d="M 12.889697,23.424957 C 12.889697,25.494959 11.209697,27.174958 9.1396971,27.174958 C 7.0696974,27.174958 5.3896974,25.494959 5.3896974,23.424957 C 5.3896974,21.354958 7.0696974,19.674958 9.1396971,19.674958 C 11.209697,19.674958 12.889697,21.354958 12.889697,23.424957 z "
     id="path835" />
  <path
     style="fill:url(#radialGradient847);fill-opacity:1;fill-rule:evenodd;stroke:none;stroke-width:1.2500000;stroke-dasharray:none;"
     d="M 31.924470,95.541760 C 31.210117,97.484595 28.002366,98.095112 24.764311,96.904524 C 21.526256,95.713936 19.478033,93.170871 20.192387,91.228036 C 20.906739,89.285204 24.114490,88.674686 27.352545,89.865274 C 30.590600,91.055862 32.638822,93.598928 31.924470,95.541760 z "
     id="path836" />
  <path
     style="fill:url(#radialGradient847);fill-opacity:1;fill-rule:evenodd;stroke:none;stroke-width:1.2500000;stroke-dasharray:none;"
     d="M 79.364091,87.689394 C 81.119691,86.592682 84.027997,88.077322 85.855848,91.003319 C 87.683699,93.929317 87.742339,97.194123 85.986739,98.290834 C 84.231141,99.387544 81.322834,97.902905 79.494984,94.976908 C 77.667133,92.050910 77.608493,88.786104 79.364091,87.689394 z "
     id="path848" />
  <path
     style="fill:url(#radialGradient845);fill-opacity:1;fill-rule:evenodd;stroke:none;stroke-width:1.2500000;stroke-dasharray:none;"
     d="M 77.766149,51.755488 C 77.766149,53.825490 76.086149,55.505489 74.016149,55.505489 C 71.946149,55.505489 70.266149,53.825490 70.266149,51.755488 C 70.266149,49.685489 71.946149,48.005489 74.016149,48.005489 C 76.086149,48.005489 77.766149,49.685489 77.766149,51.755488 z "
     id="path849" />

  <rdf:RDF 
   xmlns="http://web.resource.org/cc/"
   xmlns:dc="http://purl.org/dc/elements/1.1/"
   xmlns:rdf="http://www.w3.org/1999/02/22-rdf-syntax-ns#">
  <Work rdf:about="">
    <dc:title>stick man</dc:title>
    <dc:rights>
       <Agent>
         <dc:title>Nicu Buculei</dc:title>
       </Agent>
    </dc:rights>
    <dc:type rdf:resource="http://purl.org/dc/dcmitype/StillImage" />
    <license rdf:resource="http://web.resource.org/cc/PublicDomain" />
  </Work>
   
  <License rdf:about="http://web.resource.org/cc/PublicDomain">
     <permits rdf:resource="http://web.resource.org/cc/Reproduction" />
     <permits rdf:resource="http://web.resource.org/cc/Distribution" />
     <permits rdf:resource="http://web.resource.org/cc/DerivativeWorks" />
  </License>

</rdf:RDF>
</svg>
