<?xml version="1.0" encoding="UTF-8" standalone="no"?>
<!DOCTYPE svg PUBLIC "-//W3C//DTD SVG 1.0//EN"
"http://www.w3.org/TR/2001/REC-SVG-20010904/DTD/svg10.dtd">
<!-- Created with Inkscape (http://www.inkscape.org/) -->
<svg
   id="svg1"
   sodipodi:version="0.32"
   inkscape:version="0.38.1"
   xmlns="http://www.w3.org/2000/svg"
   xmlns:sodipodi="http://sodipodi.sourceforge.net/DTD/sodipodi-0.dtd"
   xmlns:inkscape="http://www.inkscape.org/namespaces/inkscape"
   xmlns:xlink="http://www.w3.org/1999/xlink"
   width="80.000000pt"
   height="80.000000pt"
   sodipodi:docbase="/home/nicu/Desktop/stick_man"
   sodipodi:docname="sm_006.svg">
  <defs
     id="defs3">
    <linearGradient
       id="linearGradient827">
      <stop
         style="stop-color:#02e2ff;stop-opacity:1.0000000;"
         offset="0.0000000"
         id="stop828" />
      <stop
         style="stop-color:#0079a8;stop-opacity:1.0000000;"
         offset="1.0000000"
         id="stop829" />
    </linearGradient>
    <radialGradient
       xlink:href="#linearGradient827"
       id="radialGradient830"
       cx="0.18840580"
       cy="0.27544910"
       r="0.39135015"
       fx="0.18840580"
       fy="0.27544910" />
    <linearGradient
       xlink:href="#linearGradient827"
       id="linearGradient833"
       x1="-0.11764706"
       y1="0.041420117"
       x2="0.47058824"
       y2="0.76923078" />
    <radialGradient
       xlink:href="#linearGradient827"
       id="radialGradient844"
       cx="0.30000001"
       cy="0.20710059"
       r="0.50003499"
       fx="0.30000001"
       fy="0.20710059" />
    <radialGradient
       xlink:href="#linearGradient827"
       id="radialGradient845"
       cx="0.20588236"
       cy="0.19526628"
       r="0.53611112"
       fx="0.20588236"
       fy="0.19526628" />
    <radialGradient
       xlink:href="#linearGradient827"
       id="radialGradient846"
       cx="0.17647059"
       cy="0.10650887"
       r="0.62578475"
       fx="0.17647059"
       fy="0.10650887" />
    <radialGradient
       xlink:href="#linearGradient827"
       id="radialGradient847"
       cx="0.21014492"
       cy="0.11377245"
       r="0.58443874"
       fx="0.21014492"
       fy="0.11377245" />
  </defs>
  <sodipodi:namedview
     id="base"
     pagecolor="#ffffff"
     bordercolor="#666666"
     borderopacity="1.0"
     inkscape:pageopacity="0.0"
     inkscape:pageshadow="2"
     inkscape:zoom="6.0628663"
     inkscape:cx="43.526925"
     inkscape:cy="42.216995"
     inkscape:window-width="713"
     inkscape:window-height="684"
     inkscape:window-x="431"
     inkscape:window-y="36" />
  <path
     style="fill:url(#radialGradient844);fill-opacity:1;fill-rule:evenodd;stroke:none;stroke-width:1.2500000;stroke-dasharray:none;"
     d="M 88.332730,58.587498 C 81.895115,60.081713 75.458030,56.071153 73.964236,49.635353 C 72.470442,43.199554 76.482818,36.763601 82.920434,35.269384 C 89.358048,33.775169 95.795134,37.785730 97.288930,44.221529 C 98.782720,50.657328 94.770346,57.093283 88.332730,58.587498 z "
     id="path826" />
  <path
     style="fill:none;fill-rule:evenodd;stroke:#00007f;stroke-width:2.5000000;"
     d="M 45.885576,47.127362 C 47.635154,45.433963 58.379001,36.179117 60.581700,34.355118 C 63.606846,39.973680 74.503599,55.567403 74.563121,55.613071 C 74.595804,55.648491 80.337225,70.674285 82.376659,76.896870 C 84.005048,74.945730 93.809138,60.895910 93.656257,61.297798"
     id="path837"
     sodipodi:nodetypes="ccccc" />
  <path
     style="fill:none;fill-opacity:0.75000000;fill-rule:evenodd;stroke:#00007f;stroke-width:2.5000000;"
     d="M 9.1348510,61.200664 C 11.171076,58.080902 16.757565,49.786235 20.505949,46.154564 C 24.668499,49.521074 36.885615,63.965356 40.434866,65.683977 C 32.972227,71.138515 13.397808,78.656250 7.1542241,83.264275"
     id="path842"
     sodipodi:nodetypes="cccc" />
  <path
     style="fill:url(#linearGradient833);fill-opacity:1;fill-rule:evenodd;stroke:none;stroke-width:1.2500000;stroke-dasharray:none;"
     d="M 58.080730,72.728152 C 47.179461,75.258413 37.882579,75.375449 35.663429,65.814557 C 33.883931,57.193923 41.842207,52.263611 52.743475,49.733350 C 63.644742,47.203090 72.674143,46.887562 75.160776,56.646946 C 77.590017,66.159075 68.981996,70.197892 58.080730,72.728152 z "
     id="path832"
     sodipodi:nodetypes="ccccc" />
  <path
     style="fill:url(#radialGradient845);fill-opacity:1;fill-rule:evenodd;stroke:none;stroke-width:1.2500000;stroke-dasharray:none;"
     d="M 40.037732,43.566094 C 42.861618,43.352481 45.799731,44.903308 46.596021,47.027761 C 47.392309,49.152212 45.746729,51.049771 42.922842,51.263384 C 40.098962,51.476996 37.160850,49.926171 36.364561,47.801717 C 35.568270,45.677267 37.213853,43.779706 40.037732,43.566094 z "
     id="path835" />
  <path
     style="fill:url(#radialGradient847);fill-opacity:1;fill-rule:evenodd;stroke:none;stroke-width:1.2500000;stroke-dasharray:none;"
     d="M 10.614114,62.568984 C 9.0878714,63.967371 5.9576453,63.037809 3.6270024,60.494072 C 1.2963590,57.950334 0.64351124,54.750931 2.1697551,53.352543 C 3.6959969,51.954157 6.8262231,52.883718 9.1568664,55.427456 C 11.487510,57.971194 12.140357,61.170598 10.614114,62.568984 z "
     id="path836" />
  <path
     style="fill:url(#radialGradient847);fill-opacity:1;fill-rule:evenodd;stroke:none;stroke-width:1.2500000;stroke-dasharray:none;"
     d="M 9.6725337,93.755132 C 7.6561357,94.223150 5.3865667,91.875504 4.6065337,88.514840 C 3.8265027,85.154177 4.8299277,82.046841 6.8463267,81.578821 C 8.8627227,81.110801 11.132290,83.458453 11.912323,86.819114 C 12.692355,90.179777 11.688930,93.287113 9.6725337,93.755132 z "
     id="path848" />
  <path
     style="fill:url(#radialGradient845);fill-opacity:1;fill-rule:evenodd;stroke:none;stroke-width:1.2500000;stroke-dasharray:none;"
     d="M 100.55555,60.730800 C 98.555062,62.735289 95.316683,63.477261 93.327043,62.386983 C 91.337404,61.296707 91.346215,58.785014 93.346712,56.780524 C 95.347200,54.776039 98.585574,54.034068 100.57521,55.124351 C 102.56485,56.214624 102.55605,58.726313 100.55555,60.730800 z "
     id="path853" />

  <rdf:RDF 
   xmlns="http://web.resource.org/cc/"
   xmlns:dc="http://purl.org/dc/elements/1.1/"
   xmlns:rdf="http://www.w3.org/1999/02/22-rdf-syntax-ns#">
  <Work rdf:about="">
    <dc:title>stick man</dc:title>
    <dc:rights>
       <Agent>
         <dc:title>Nicu Buculei</dc:title>
       </Agent>
    </dc:rights>
    <dc:type rdf:resource="http://purl.org/dc/dcmitype/StillImage" />
    <license rdf:resource="http://web.resource.org/cc/PublicDomain" />
  </Work>
   
  <License rdf:about="http://web.resource.org/cc/PublicDomain">
     <permits rdf:resource="http://web.resource.org/cc/Reproduction" />
     <permits rdf:resource="http://web.resource.org/cc/Distribution" />
     <permits rdf:resource="http://web.resource.org/cc/DerivativeWorks" />
  </License>

</rdf:RDF>
</svg>
