<?xml version="1.0" encoding="UTF-8" standalone="no"?>
<!DOCTYPE svg PUBLIC "-//W3C//DTD SVG 1.0//EN"
"http://www.w3.org/TR/2001/REC-SVG-20010904/DTD/svg10.dtd">
<!-- Created with Inkscape (http://www.inkscape.org/) -->
<svg
   id="svg1"
   sodipodi:version="0.32"
   inkscape:version="0.38.1"
   xmlns="http://www.w3.org/2000/svg"
   xmlns:sodipodi="http://sodipodi.sourceforge.net/DTD/sodipodi-0.dtd"
   xmlns:inkscape="http://www.inkscape.org/namespaces/inkscape"
   xmlns:xlink="http://www.w3.org/1999/xlink"
   width="80.000000pt"
   height="80.000000pt"
   sodipodi:docbase="/home/nicu/Desktop/stick_man"
   sodipodi:docname="sm_004.svg">
  <defs
     id="defs3">
    <linearGradient
       id="linearGradient827">
      <stop
         style="stop-color:#02e2ff;stop-opacity:1.0000000;"
         offset="0.0000000"
         id="stop828" />
      <stop
         style="stop-color:#0079a8;stop-opacity:1.0000000;"
         offset="1.0000000"
         id="stop829" />
    </linearGradient>
    <radialGradient
       xlink:href="#linearGradient827"
       id="radialGradient830"
       cx="0.18840580"
       cy="0.27544910"
       r="0.39135015"
       fx="0.18840580"
       fy="0.27544910" />
    <linearGradient
       xlink:href="#linearGradient827"
       id="linearGradient833"
       x1="-0.11764706"
       y1="0.041420117"
       x2="0.47058824"
       y2="0.76923078" />
    <radialGradient
       xlink:href="#linearGradient827"
       id="radialGradient844"
       cx="0.30000001"
       cy="0.20710059"
       r="0.50003499"
       fx="0.30000001"
       fy="0.20710059" />
    <radialGradient
       xlink:href="#linearGradient827"
       id="radialGradient845"
       cx="0.20588236"
       cy="0.19526628"
       r="0.53611112"
       fx="0.20588236"
       fy="0.19526628" />
    <radialGradient
       xlink:href="#linearGradient827"
       id="radialGradient846"
       cx="0.17647059"
       cy="0.10650887"
       r="0.62578475"
       fx="0.17647059"
       fy="0.10650887" />
    <radialGradient
       xlink:href="#linearGradient827"
       id="radialGradient847"
       cx="0.21014492"
       cy="0.11377245"
       r="0.58443874"
       fx="0.21014492"
       fy="0.11377245" />
  </defs>
  <sodipodi:namedview
     id="base"
     pagecolor="#ffffff"
     bordercolor="#666666"
     borderopacity="1.0"
     inkscape:pageopacity="0.0"
     inkscape:pageshadow="2"
     inkscape:zoom="6.0628663"
     inkscape:cx="45.709787"
     inkscape:cy="42.216995"
     inkscape:window-width="713"
     inkscape:window-height="684"
     inkscape:window-x="431"
     inkscape:window-y="36" />
  <path
     style="fill:url(#radialGradient844);fill-opacity:1;fill-rule:evenodd;stroke:none;stroke-width:1.2500000;stroke-dasharray:none;"
     d="M 64.710462,16.750172 C 64.710462,23.358922 59.348352,28.722544 52.741467,28.722544 C 46.134582,28.722544 40.772472,23.358922 40.772472,16.750172 C 40.772472,10.141423 46.134582,4.7777999 52.741467,4.7777999 C 59.348352,4.7777999 64.710462,10.141423 64.710462,16.750172 z "
     id="path826" />
  <path
     style="fill:none;fill-rule:evenodd;stroke:#00007f;stroke-opacity:1.0000000;stroke-width:2.5000000;stroke-linejoin:miter;stroke-linecap:butt;fill-opacity:1.0000000;stroke-dasharray:none;"
     d="M 21.226313,26.054024 C 22.099164,28.481955 24.388015,34.279635 27.658634,40.025396 C 33.815677,38.348924 51.469317,31.260031 51.527261,31.212375"
     id="path837"
     sodipodi:nodetypes="ccc" />
  <path
     style="fill:none;fill-rule:evenodd;stroke:#00007f;stroke-opacity:1.0000000;stroke-width:2.5000000;stroke-linejoin:miter;stroke-linecap:butt;fill-opacity:0.75;stroke-dasharray:none;"
     d="M 39.784911,93.749590 C 41.735781,88.751768 48.667916,72.871410 53.621098,66.733873 C 61.762190,73.109690 67.252118,84.530983 70.329165,91.654747"
     id="path842"
     sodipodi:nodetypes="ccc" />
  <path
     style="fill:none;fill-rule:evenodd;stroke:#00007f;stroke-opacity:1.0000000;stroke-width:2.5000000;stroke-linejoin:miter;stroke-linecap:butt;fill-opacity:1.0000000;stroke-dasharray:none;"
     d="M 50.491934,31.338814 C 53.632689,31.705014 71.384524,39.358252 70.737852,42.836109"
     id="path851"
     sodipodi:nodetypes="cc" />
  <path
     style="fill:url(#linearGradient833);fill-opacity:1;fill-rule:evenodd;stroke:none;stroke-width:1.2500000;stroke-dasharray:none;"
     d="M 64.472533,51.137615 C 64.472533,62.328676 62.484545,71.411277 52.669491,71.411277 C 43.869752,71.195599 40.866449,62.328676 40.866449,51.137615 C 40.866449,39.946554 42.600608,31.079630 52.669491,30.863953 C 62.484545,30.648276 64.472533,39.946554 64.472533,51.137615 z "
     id="path832"
     sodipodi:nodetypes="ccccc" />
  <path
     style="fill:url(#radialGradient845);fill-opacity:1;fill-rule:evenodd;stroke:none;stroke-width:1.2500000;stroke-dasharray:none;"
     d="M 21.326556,19.876487 C 23.488770,21.705364 24.494538,24.871749 23.571577,26.944312 C 22.648615,29.016874 20.144708,29.214651 17.982493,27.385773 C 15.820283,25.556900 14.814514,22.390515 15.737476,20.317952 C 16.660437,18.245390 19.164346,18.047614 21.326556,19.876487 z "
     id="path835" />
  <path
     style="fill:url(#radialGradient847);fill-opacity:1;fill-rule:evenodd;stroke:none;stroke-width:1.2500000;stroke-dasharray:none;"
     d="M 41.380045,94.003418 C 41.380045,96.073420 38.580045,97.753419 35.130045,97.753419 C 31.680045,97.753419 28.880045,96.073420 28.880045,94.003418 C 28.880045,91.933419 31.680045,90.253419 35.130045,90.253419 C 38.580045,90.253419 41.380045,91.933419 41.380045,94.003418 z "
     id="path836" />
  <path
     style="fill:url(#radialGradient847);fill-opacity:1;fill-rule:evenodd;stroke:none;stroke-width:1.2500000;stroke-dasharray:none;"
     d="M 80.884666,92.577767 C 80.884666,94.647769 78.084666,96.327768 74.634666,96.327768 C 71.184666,96.327768 68.384666,94.647769 68.384666,92.577767 C 68.384666,90.507768 71.184666,88.827768 74.634666,88.827768 C 78.084666,88.827768 80.884666,90.507768 80.884666,92.577767 z "
     id="path848" />
  <path
     style="fill:none;fill-rule:evenodd;stroke:#00007f;stroke-opacity:1.0000000;stroke-width:2.5000000;stroke-linejoin:miter;stroke-linecap:butt;fill-opacity:1.0000000;stroke-dasharray:none;"
     d="M 34.949592,49.099441 C 38.090347,49.465641 66.357010,43.511453 71.895533,42.865848"
     id="path850"
     sodipodi:nodetypes="cc" />
  <path
     style="fill:url(#radialGradient845);fill-opacity:1;fill-rule:evenodd;stroke:none;stroke-width:1.2500000;stroke-dasharray:none;"
     d="M 29.695395,45.437023 C 32.401277,44.601463 35.610476,45.460886 36.858787,47.355376 C 38.107097,49.249867 36.924145,51.465559 34.218261,52.301119 C 31.512385,53.136678 28.303185,52.277256 27.054875,50.382765 C 25.806564,48.488275 26.989518,46.272582 29.695395,45.437023 z "
     id="path852" />

  <rdf:RDF 
   xmlns="http://web.resource.org/cc/"
   xmlns:dc="http://purl.org/dc/elements/1.1/"
   xmlns:rdf="http://www.w3.org/1999/02/22-rdf-syntax-ns#">
  <Work rdf:about="">
    <dc:title>stick man</dc:title>
    <dc:rights>
       <Agent>
         <dc:title>Nicu Buculei</dc:title>
       </Agent>
    </dc:rights>
    <dc:type rdf:resource="http://purl.org/dc/dcmitype/StillImage" />
    <license rdf:resource="http://web.resource.org/cc/PublicDomain" />
  </Work>
   
  <License rdf:about="http://web.resource.org/cc/PublicDomain">
     <permits rdf:resource="http://web.resource.org/cc/Reproduction" />
     <permits rdf:resource="http://web.resource.org/cc/Distribution" />
     <permits rdf:resource="http://web.resource.org/cc/DerivativeWorks" />
  </License>

</rdf:RDF>
</svg>
