<?xml version="1.0" encoding="UTF-8" standalone="no"?>
<!DOCTYPE svg PUBLIC "-//W3C//DTD SVG 1.0//EN"
"http://www.w3.org/TR/2001/REC-SVG-20010904/DTD/svg10.dtd">
<!-- Created with Inkscape (http://www.inkscape.org/) -->
<svg
   id="svg1"
   sodipodi:version="0.32"
   inkscape:version="0.38.1"
   xmlns="http://www.w3.org/2000/svg"
   xmlns:sodipodi="http://sodipodi.sourceforge.net/DTD/sodipodi-0.dtd"
   xmlns:inkscape="http://www.inkscape.org/namespaces/inkscape"
   xmlns:xlink="http://www.w3.org/1999/xlink"
   width="80.000000pt"
   height="80.000000pt"
   sodipodi:docbase="/home/nicu/Desktop/stick_man"
   sodipodi:docname="sm_010.svg">
  <defs
     id="defs3">
    <linearGradient
       id="linearGradient827">
      <stop
         style="stop-color:#02e2ff;stop-opacity:1.0000000;"
         offset="0.0000000"
         id="stop828" />
      <stop
         style="stop-color:#0079a8;stop-opacity:1.0000000;"
         offset="1.0000000"
         id="stop829" />
    </linearGradient>
    <radialGradient
       xlink:href="#linearGradient827"
       id="radialGradient830"
       cx="0.18840580"
       cy="0.27544910"
       r="0.39135015"
       fx="0.18840580"
       fy="0.27544910" />
    <linearGradient
       xlink:href="#linearGradient827"
       id="linearGradient833"
       x1="-0.11764706"
       y1="0.041420117"
       x2="0.47058824"
       y2="0.76923078" />
    <radialGradient
       xlink:href="#linearGradient827"
       id="radialGradient844"
       cx="0.30000001"
       cy="0.20710059"
       r="0.50003499"
       fx="0.30000001"
       fy="0.20710059" />
    <radialGradient
       xlink:href="#linearGradient827"
       id="radialGradient845"
       cx="0.20588236"
       cy="0.19526628"
       r="0.53611112"
       fx="0.20588236"
       fy="0.19526628" />
    <radialGradient
       xlink:href="#linearGradient827"
       id="radialGradient846"
       cx="0.17647059"
       cy="0.10650887"
       r="0.62578475"
       fx="0.17647059"
       fy="0.10650887" />
    <radialGradient
       xlink:href="#linearGradient827"
       id="radialGradient847"
       cx="0.21014492"
       cy="0.11377245"
       r="0.58443874"
       fx="0.21014492"
       fy="0.11377245" />
  </defs>
  <sodipodi:namedview
     id="base"
     pagecolor="#ffffff"
     bordercolor="#666666"
     borderopacity="1.0"
     inkscape:pageopacity="0.0"
     inkscape:pageshadow="2"
     inkscape:zoom="6.0628663"
     inkscape:cx="43.526925"
     inkscape:cy="42.216995"
     inkscape:window-width="713"
     inkscape:window-height="684"
     inkscape:window-x="431"
     inkscape:window-y="36" />
  <path
     style="fill:url(#radialGradient844);fill-opacity:1;fill-rule:evenodd;stroke:none;stroke-width:1.2500000;stroke-dasharray:none;"
     d="M 64.710462,16.750172 C 64.710462,23.358922 59.348352,28.722544 52.741467,28.722544 C 46.134582,28.722544 40.772472,23.358922 40.772472,16.750172 C 40.772472,10.141423 46.134582,4.7777999 52.741467,4.7777999 C 59.348352,4.7777999 64.710462,10.141423 64.710462,16.750172 z "
     id="path826" />
  <path
     style="fill:none;fill-rule:evenodd;stroke:#00007f;stroke-opacity:1.0000000;stroke-width:2.5000000;stroke-linejoin:miter;stroke-linecap:butt;fill-opacity:1.0000000;stroke-dasharray:none;"
     d="M 20.607794,23.992293 C 23.336203,31.574551 28.047588,39.124704 32.117128,43.375709 C 37.629879,44.740291 43.531652,31.466204 51.527261,31.212375 C 66.249336,30.958546 80.717582,37.558097 81.225240,49.995712"
     id="path837"
     sodipodi:nodetypes="cccc" />
  <path
     style="fill:none;fill-rule:evenodd;stroke:#00007f;stroke-opacity:1.0000000;stroke-width:2.5000000;stroke-linejoin:miter;stroke-linecap:butt;fill-opacity:0.75;stroke-dasharray:none;"
     d="M 39.991084,94.780455 C 44.209858,87.927075 46.400011,73.696103 52.590233,68.795604 C 57.226381,73.728209 63.541002,87.623580 64.350145,93.716478"
     id="path842"
     sodipodi:nodetypes="ccc" />
  <path
     style="fill:url(#linearGradient833);fill-opacity:1;fill-rule:evenodd;stroke:none;stroke-width:1.2500000;stroke-dasharray:none;"
     d="M 64.472533,51.137615 C 64.472533,62.328676 62.484545,71.411277 52.669491,71.411277 C 43.869752,71.195599 40.866449,62.328676 40.866449,51.137615 C 40.866449,39.946554 42.600608,31.079630 52.669491,30.863953 C 62.484545,30.648276 64.472533,39.946554 64.472533,51.137615 z "
     id="path832"
     sodipodi:nodetypes="ccccc" />
  <path
     style="fill:url(#radialGradient847);fill-opacity:1;fill-rule:evenodd;stroke:none;stroke-width:1.2500000;stroke-dasharray:none;"
     d="M 41.998564,95.034283 C 41.998564,97.104285 39.198564,98.784284 35.748564,98.784284 C 32.298564,98.784284 29.498564,97.104285 29.498564,95.034283 C 29.498564,92.964284 32.298564,91.284284 35.748564,91.284284 C 39.198564,91.284284 41.998564,92.964284 41.998564,95.034283 z "
     id="path836" />
  <path
     style="fill:url(#radialGradient847);fill-opacity:1;fill-rule:evenodd;stroke:none;stroke-width:1.2500000;stroke-dasharray:none;"
     d="M 74.080954,94.020979 C 74.080954,96.090981 71.280954,97.770980 67.830954,97.770980 C 64.380954,97.770980 61.580954,96.090981 61.580954,94.020979 C 61.580954,91.950980 64.380954,90.270980 67.830954,90.270980 C 71.280954,90.270980 74.080954,91.950980 74.080954,94.020979 z "
     id="path848" />
  <path
     style="fill:url(#radialGradient845);fill-opacity:1;fill-rule:evenodd;stroke:none;stroke-width:1.2500000;stroke-dasharray:none;"
     d="M 86.425420,50.930796 C 86.425420,53.000798 84.745420,54.680797 82.675420,54.680797 C 80.605420,54.680797 78.925420,53.000798 78.925420,50.930796 C 78.925420,48.860797 80.605420,47.180797 82.675420,47.180797 C 84.745420,47.180797 86.425420,48.860797 86.425420,50.930796 z "
     id="path849" />
  <path
     style="fill:url(#radialGradient845);fill-opacity:1;fill-rule:evenodd;stroke:none;stroke-width:1.2500000;stroke-dasharray:none;"
     d="M 20.937500,12.593750 C 20.311558,12.593750 19.781251,14.763022 19.781250,17.437500 C 19.781250,17.976763 19.868140,18.327872 19.906250,18.812500 C 18.221834,19.180572 16.937500,20.611949 16.937500,22.406250 C 16.937500,24.476252 18.617500,26.156250 20.687500,26.156250 C 22.757500,26.156250 24.437500,24.476251 24.437500,22.406250 C 24.437500,20.766748 24.403948,19.621685 22.937116,19.112423 C 22.980479,18.599125 22.062500,18.014422 22.062500,17.437500 C 22.268673,14.350676 22.594308,12.593750 20.937500,12.593750 z "
     id="path856"
     sodipodi:nodetypes="ccccccccc" />

  <rdf:RDF 
   xmlns="http://web.resource.org/cc/"
   xmlns:dc="http://purl.org/dc/elements/1.1/"
   xmlns:rdf="http://www.w3.org/1999/02/22-rdf-syntax-ns#">
  <Work rdf:about="">
    <dc:title>stick man</dc:title>
    <dc:rights>
       <Agent>
         <dc:title>Nicu Buculei</dc:title>
       </Agent>
    </dc:rights>
    <dc:type rdf:resource="http://purl.org/dc/dcmitype/StillImage" />
    <license rdf:resource="http://web.resource.org/cc/PublicDomain" />
  </Work>
   
  <License rdf:about="http://web.resource.org/cc/PublicDomain">
     <permits rdf:resource="http://web.resource.org/cc/Reproduction" />
     <permits rdf:resource="http://web.resource.org/cc/Distribution" />
     <permits rdf:resource="http://web.resource.org/cc/DerivativeWorks" />
  </License>

</rdf:RDF>
</svg>
