<?xml version="1.0" encoding="UTF-8" standalone="no"?>
<!DOCTYPE svg PUBLIC "-//W3C//DTD SVG 1.0//EN"
"http://www.w3.org/TR/2001/REC-SVG-20010904/DTD/svg10.dtd">
<!-- Created with Inkscape (http://www.inkscape.org/) -->
<svg
   id="svg1"
   sodipodi:version="0.32"
   inkscape:version="0.38.1"
   xmlns="http://www.w3.org/2000/svg"
   xmlns:sodipodi="http://sodipodi.sourceforge.net/DTD/sodipodi-0.dtd"
   xmlns:inkscape="http://www.inkscape.org/namespaces/inkscape"
   xmlns:xlink="http://www.w3.org/1999/xlink"
   width="80.000000pt"
   height="80.000000pt"
   sodipodi:docbase="/home/nicu/Desktop/stick_man"
   sodipodi:docname="sm_014.svg">
  <defs
     id="defs3">
    <linearGradient
       id="linearGradient827">
      <stop
         style="stop-color:#02e2ff;stop-opacity:1.0000000;"
         offset="0.0000000"
         id="stop828" />
      <stop
         style="stop-color:#0079a8;stop-opacity:1.0000000;"
         offset="1.0000000"
         id="stop829" />
    </linearGradient>
    <radialGradient
       xlink:href="#linearGradient827"
       id="radialGradient830"
       cx="0.18840580"
       cy="0.27544910"
       r="0.39135015"
       fx="0.18840580"
       fy="0.27544910" />
    <linearGradient
       xlink:href="#linearGradient827"
       id="linearGradient833"
       x1="-0.11764706"
       y1="0.041420117"
       x2="0.47058824"
       y2="0.76923078" />
    <radialGradient
       xlink:href="#linearGradient827"
       id="radialGradient844"
       cx="0.30000001"
       cy="0.20710059"
       r="0.50003499"
       fx="0.30000001"
       fy="0.20710059" />
    <radialGradient
       xlink:href="#linearGradient827"
       id="radialGradient845"
       cx="0.20588236"
       cy="0.19526628"
       r="0.53611112"
       fx="0.20588236"
       fy="0.19526628" />
    <radialGradient
       xlink:href="#linearGradient827"
       id="radialGradient846"
       cx="0.17647059"
       cy="0.10650887"
       r="0.62578475"
       fx="0.17647059"
       fy="0.10650887" />
    <radialGradient
       xlink:href="#linearGradient827"
       id="radialGradient847"
       cx="0.21014492"
       cy="0.11377245"
       r="0.58443874"
       fx="0.21014492"
       fy="0.11377245" />
  </defs>
  <sodipodi:namedview
     id="base"
     pagecolor="#ffffff"
     bordercolor="#666666"
     borderopacity="1.0"
     inkscape:pageopacity="0.0"
     inkscape:pageshadow="2"
     inkscape:zoom="6.0628663"
     inkscape:cx="43.526925"
     inkscape:cy="44.479996"
     inkscape:window-width="713"
     inkscape:window-height="684"
     inkscape:window-x="488"
     inkscape:window-y="32" />
  <path
     style="fill:url(#radialGradient844);fill-opacity:1;fill-rule:evenodd;stroke:none;stroke-width:1.2500000;stroke-dasharray:none;"
     d="M 49.792687,11.786470 C 51.605051,18.141854 47.919416,24.770335 41.565825,26.582188 C 35.212234,28.394040 28.584792,24.706536 26.772428,18.351152 C 24.960065,11.995768 28.645700,5.3672860 34.999291,3.5554339 C 41.352882,1.7435818 47.980324,5.4310863 49.792687,11.786470 z "
     id="path826" />
  <path
     style="fill:none;fill-rule:evenodd;stroke:#00007f;stroke-width:2.5000000;"
     d="M 7.9254789,25.039188 C 27.612321,31.390478 35.326005,32.739911 42.730358,32.402141 C 47.952967,28.120706 55.841794,23.695803 63.245786,9.3333824"
     id="path837"
     sodipodi:nodetypes="ccc" />
  <path
     style="fill:none;fill-opacity:0.75000000;fill-rule:evenodd;stroke:#00007f;stroke-width:2.5000000;"
     d="M 38.328065,92.873463 C 36.936811,86.143608 37.294161,71.565328 53.230115,67.284824 C 61.546604,65.441109 67.863182,65.073064 72.544629,63.786017 C 77.432248,69.302682 81.921777,73.487999 83.697744,77.864587"
     id="path842"
     sodipodi:nodetypes="cccc" />
  <path
     style="fill:url(#linearGradient833);fill-opacity:1;fill-rule:evenodd;stroke:none;stroke-width:1.2500000;stroke-dasharray:none;"
     d="M 58.994188,44.920821 C 62.063191,55.682841 62.642203,64.962414 53.203437,67.654065 C 44.681914,69.859869 39.362113,62.156502 36.293111,51.394482 C 33.224108,40.632462 32.460145,31.629906 42.083862,28.661238 C 51.463481,25.762179 55.925185,34.158801 58.994188,44.920821 z "
     id="path832"
     sodipodi:nodetypes="ccccc" />
  <path
     style="fill:url(#radialGradient845);fill-opacity:1;fill-rule:evenodd;stroke:none;stroke-width:1.2500000;stroke-dasharray:none;"
     d="M 10.261892,22.282213 C 10.829563,24.272856 9.6746889,26.349166 7.6840479,26.916836 C 5.6934079,27.484507 3.6170976,26.329633 3.0494266,24.338991 C 2.4817563,22.348351 3.6366306,20.272040 5.6272709,19.704370 C 7.6179119,19.136699 9.6942219,20.291574 10.261892,22.282213 z "
     id="path835" />
  <path
     style="fill:url(#radialGradient847);fill-opacity:1;fill-rule:evenodd;stroke:none;stroke-width:1.2500000;stroke-dasharray:none;"
     d="M 39.764039,93.812544 C 39.702236,95.881627 36.853327,97.477276 33.404864,97.374275 C 29.956402,97.271275 27.207809,95.508426 27.269613,93.439340 C 27.331412,91.370268 30.180322,89.774613 33.628785,89.877616 C 37.077246,89.980619 39.825840,91.743467 39.764039,93.812544 z "
     id="path836" />
  <path
     style="fill:url(#radialGradient847);fill-opacity:1;fill-rule:evenodd;stroke:none;stroke-width:1.2500000;stroke-dasharray:none;"
     d="M 94.045156,75.659243 C 94.612823,77.649885 92.380891,80.033340 89.063156,80.979458 C 85.745422,81.925575 82.592050,81.077848 82.024379,79.087205 C 81.456709,77.096565 83.688644,74.713109 87.006379,73.766992 C 90.324113,72.820874 93.477485,73.668603 94.045156,75.659243 z "
     id="path848" />
  <path
     style="fill:url(#radialGradient845);fill-opacity:1;fill-rule:evenodd;stroke:none;stroke-width:1.2500000;stroke-dasharray:none;"
     d="M 67.472171,6.1262865 C 68.039842,8.1169285 66.884968,10.193238 64.894327,10.760908 C 62.903686,11.328579 60.827376,10.173706 60.259705,8.1830635 C 59.692035,6.1924235 60.846909,4.1161135 62.837550,3.5484425 C 64.828190,2.9807725 66.904501,4.1356465 67.472171,6.1262865 z "
     id="path849" />

  <rdf:RDF 
   xmlns="http://web.resource.org/cc/"
   xmlns:dc="http://purl.org/dc/elements/1.1/"
   xmlns:rdf="http://www.w3.org/1999/02/22-rdf-syntax-ns#">
  <Work rdf:about="">
    <dc:title>stick man</dc:title>
    <dc:rights>
       <Agent>
         <dc:title>Nicu Buculei</dc:title>
       </Agent>
    </dc:rights>
    <dc:type rdf:resource="http://purl.org/dc/dcmitype/StillImage" />
    <license rdf:resource="http://web.resource.org/cc/PublicDomain" />
  </Work>
   
  <License rdf:about="http://web.resource.org/cc/PublicDomain">
     <permits rdf:resource="http://web.resource.org/cc/Reproduction" />
     <permits rdf:resource="http://web.resource.org/cc/Distribution" />
     <permits rdf:resource="http://web.resource.org/cc/DerivativeWorks" />
  </License>

</rdf:RDF>
</svg>
