<?xml version="1.0" encoding="UTF-8" standalone="no"?>
<!DOCTYPE svg PUBLIC "-//W3C//DTD SVG 1.0//EN"
"http://www.w3.org/TR/2001/REC-SVG-20010904/DTD/svg10.dtd">
<!-- Created with Inkscape (http://www.inkscape.org/) -->
<svg
   id="svg1"
   sodipodi:version="0.32"
   inkscape:version="0.38.1"
   xmlns="http://www.w3.org/2000/svg"
   xmlns:sodipodi="http://sodipodi.sourceforge.net/DTD/sodipodi-0.dtd"
   xmlns:inkscape="http://www.inkscape.org/namespaces/inkscape"
   xmlns:xlink="http://www.w3.org/1999/xlink"
   width="80.000000pt"
   height="80.000000pt"
   sodipodi:docbase="/home/nicu/Desktop/stick_man"
   sodipodi:docname="sm_018.svg">
  <defs
     id="defs3">
    <linearGradient
       id="linearGradient827">
      <stop
         style="stop-color:#02e2ff;stop-opacity:1.0000000;"
         offset="0.0000000"
         id="stop828" />
      <stop
         style="stop-color:#0079a8;stop-opacity:1.0000000;"
         offset="1.0000000"
         id="stop829" />
    </linearGradient>
    <radialGradient
       xlink:href="#linearGradient827"
       id="radialGradient830"
       cx="0.18840580"
       cy="0.27544910"
       r="0.39135015"
       fx="0.18840580"
       fy="0.27544910" />
    <linearGradient
       xlink:href="#linearGradient827"
       id="linearGradient833"
       x1="-0.11764706"
       y1="0.041420117"
       x2="0.47058824"
       y2="0.76923078" />
    <radialGradient
       xlink:href="#linearGradient827"
       id="radialGradient844"
       cx="0.30000001"
       cy="0.20710059"
       r="0.50003499"
       fx="0.30000001"
       fy="0.20710059" />
    <radialGradient
       xlink:href="#linearGradient827"
       id="radialGradient845"
       cx="0.20588236"
       cy="0.19526628"
       r="0.53611112"
       fx="0.20588236"
       fy="0.19526628" />
    <radialGradient
       xlink:href="#linearGradient827"
       id="radialGradient846"
       cx="0.17647059"
       cy="0.10650887"
       r="0.62578475"
       fx="0.17647059"
       fy="0.10650887" />
    <radialGradient
       xlink:href="#linearGradient827"
       id="radialGradient847"
       cx="0.21014492"
       cy="0.11377245"
       r="0.58443874"
       fx="0.21014492"
       fy="0.11377245" />
  </defs>
  <sodipodi:namedview
     id="base"
     pagecolor="#ffffff"
     bordercolor="#666666"
     borderopacity="1.0"
     inkscape:pageopacity="0.0"
     inkscape:pageshadow="2"
     inkscape:zoom="6.0628663"
     inkscape:cx="43.526925"
     inkscape:cy="43.550778"
     inkscape:window-width="713"
     inkscape:window-height="684"
     inkscape:window-x="488"
     inkscape:window-y="32" />
  <path
     style="fill:url(#radialGradient844);fill-opacity:1;fill-rule:evenodd;stroke:none;stroke-width:1.2500000;stroke-dasharray:none;"
     d="M 62.442558,15.306960 C 62.442558,21.915710 57.080448,27.279332 50.473563,27.279332 C 43.866678,27.279332 38.504568,21.915710 38.504568,15.306960 C 38.504568,8.6982112 43.866678,3.3345881 50.473563,3.3345881 C 57.080448,3.3345881 62.442558,8.6982112 62.442558,15.306960 z "
     id="path826" />
  <path
     style="fill:none;fill-rule:evenodd;stroke:#00007f;stroke-opacity:1.0000000;stroke-width:2.5000000;stroke-linejoin:miter;stroke-linecap:butt;fill-opacity:1.0000000;stroke-dasharray:none;"
     d="M 26.999161,22.549081 C 25.191762,27.451089 23.567560,38.580106 25.210329,40.695458 C 29.176782,39.792136 46.418076,29.610646 49.259357,29.769163 C 56.620395,29.642248 73.401939,31.022506 77.273332,32.339809 C 76.815090,35.925016 72.724487,41.715173 69.061027,45.459903"
     id="path837"
     sodipodi:nodetypes="ccccc" />
  <path
     style="fill:none;fill-rule:evenodd;stroke:#00007f;stroke-opacity:1.0000000;stroke-width:2.5000000;stroke-linejoin:miter;stroke-linecap:butt;fill-opacity:0.75;stroke-dasharray:none;"
     d="M 40.197257,90.038474 C 41.117262,83.803613 44.956800,69.984986 50.734675,67.352392 C 59.906632,72.697343 64.984214,84.530983 71.153858,93.097959"
     id="path842"
     sodipodi:nodetypes="ccc" />
  <path
     style="fill:url(#linearGradient833);fill-opacity:1;fill-rule:evenodd;stroke:none;stroke-width:1.2500000;stroke-dasharray:none;"
     d="M 62.204629,49.694403 C 62.204629,60.885464 60.216641,69.968065 50.401587,69.968065 C 41.601848,69.752387 38.598545,60.885464 38.598545,49.694403 C 38.598545,38.503342 40.332704,29.636418 50.401587,29.420741 C 60.216641,29.205064 62.204629,38.503342 62.204629,49.694403 z "
     id="path832"
     sodipodi:nodetypes="ccccc" />
  <path
     style="fill:url(#radialGradient845);fill-opacity:1;fill-rule:evenodd;stroke:none;stroke-width:1.2500000;stroke-dasharray:none;"
     d="M 31.032931,19.920015 C 31.032931,21.990017 29.352931,23.670016 27.282931,23.670016 C 25.212931,23.670016 23.532931,21.990017 23.532931,19.920015 C 23.532931,17.850016 25.212931,16.170016 27.282931,16.170016 C 29.352931,16.170016 31.032931,17.850016 31.032931,19.920015 z "
     id="path835" />
  <path
     style="fill:url(#radialGradient847);fill-opacity:1;fill-rule:evenodd;stroke:none;stroke-width:1.2500000;stroke-dasharray:none;"
     d="M 41.586218,90.498475 C 41.586218,92.568477 38.786218,94.248476 35.336218,94.248476 C 31.886218,94.248476 29.086218,92.568477 29.086218,90.498475 C 29.086218,88.428476 31.886218,86.748476 35.336218,86.748476 C 38.786218,86.748476 41.586218,88.428476 41.586218,90.498475 z "
     id="path836" />
  <path
     style="fill:url(#radialGradient847);fill-opacity:1;fill-rule:evenodd;stroke:none;stroke-width:1.2500000;stroke-dasharray:none;"
     d="M 80.059974,90.928382 C 80.059974,92.998384 77.259974,94.678383 73.809974,94.678383 C 70.359974,94.678383 67.559974,92.998384 67.559974,90.928382 C 67.559974,88.858383 70.359974,87.178383 73.809974,87.178383 C 77.259974,87.178383 80.059974,88.858383 80.059974,90.928382 z "
     id="path848" />
  <path
     style="fill:url(#radialGradient845);fill-opacity:1;fill-rule:evenodd;stroke:none;stroke-width:1.2500000;stroke-dasharray:none;"
     d="M 71.374783,47.013506 C 71.374783,49.083508 69.694783,50.763507 67.624783,50.763507 C 65.554783,50.763507 63.874783,49.083508 63.874783,47.013506 C 63.874783,44.943507 65.554783,43.263507 67.624783,43.263507 C 69.694783,43.263507 71.374783,44.943507 71.374783,47.013506 z "
     id="path849" />

  <rdf:RDF 
   xmlns="http://web.resource.org/cc/"
   xmlns:dc="http://purl.org/dc/elements/1.1/"
   xmlns:rdf="http://www.w3.org/1999/02/22-rdf-syntax-ns#">
  <Work rdf:about="">
    <dc:title>stick man</dc:title>
    <dc:rights>
       <Agent>
         <dc:title>Nicu Buculei</dc:title>
       </Agent>
    </dc:rights>
    <dc:type rdf:resource="http://purl.org/dc/dcmitype/StillImage" />
    <license rdf:resource="http://web.resource.org/cc/PublicDomain" />
  </Work>
   
  <License rdf:about="http://web.resource.org/cc/PublicDomain">
     <permits rdf:resource="http://web.resource.org/cc/Reproduction" />
     <permits rdf:resource="http://web.resource.org/cc/Distribution" />
     <permits rdf:resource="http://web.resource.org/cc/DerivativeWorks" />
  </License>

</rdf:RDF>
</svg>
