<?xml version="1.0" encoding="UTF-8" standalone="no"?>
<!DOCTYPE svg PUBLIC "-//W3C//DTD SVG 1.0//EN"
"http://www.w3.org/TR/2001/REC-SVG-20010904/DTD/svg10.dtd">
<!-- Created with Inkscape (http://www.inkscape.org/) -->
<svg
   id="svg1"
   sodipodi:version="0.32"
   inkscape:version="0.38.1"
   xmlns="http://www.w3.org/2000/svg"
   xmlns:sodipodi="http://sodipodi.sourceforge.net/DTD/sodipodi-0.dtd"
   xmlns:inkscape="http://www.inkscape.org/namespaces/inkscape"
   xmlns:xlink="http://www.w3.org/1999/xlink"
   width="80.000000pt"
   height="80.000000pt"
   sodipodi:docbase="/home/nicu/Desktop/stick_man"
   sodipodi:docname="sm_009.svg">
  <defs
     id="defs3">
    <linearGradient
       id="linearGradient827">
      <stop
         style="stop-color:#02e2ff;stop-opacity:1.0000000;"
         offset="0.0000000"
         id="stop828" />
      <stop
         style="stop-color:#0079a8;stop-opacity:1.0000000;"
         offset="1.0000000"
         id="stop829" />
    </linearGradient>
    <radialGradient
       xlink:href="#linearGradient827"
       id="radialGradient830"
       cx="0.18840580"
       cy="0.27544910"
       r="0.39135015"
       fx="0.18840580"
       fy="0.27544910" />
    <linearGradient
       xlink:href="#linearGradient827"
       id="linearGradient833"
       x1="-0.11764706"
       y1="0.041420117"
       x2="0.47058824"
       y2="0.76923078" />
    <radialGradient
       xlink:href="#linearGradient827"
       id="radialGradient844"
       cx="0.30000001"
       cy="0.20710059"
       r="0.50003499"
       fx="0.30000001"
       fy="0.20710059" />
    <radialGradient
       xlink:href="#linearGradient827"
       id="radialGradient845"
       cx="0.20588236"
       cy="0.19526628"
       r="0.53611112"
       fx="0.20588236"
       fy="0.19526628" />
    <radialGradient
       xlink:href="#linearGradient827"
       id="radialGradient846"
       cx="0.17647059"
       cy="0.10650887"
       r="0.62578475"
       fx="0.17647059"
       fy="0.10650887" />
    <radialGradient
       xlink:href="#linearGradient827"
       id="radialGradient847"
       cx="0.21014492"
       cy="0.11377245"
       r="0.58443874"
       fx="0.21014492"
       fy="0.11377245" />
  </defs>
  <sodipodi:namedview
     id="base"
     pagecolor="#ffffff"
     bordercolor="#666666"
     borderopacity="1.0"
     inkscape:pageopacity="0.0"
     inkscape:pageshadow="2"
     inkscape:zoom="6.0628663"
     inkscape:cx="43.526925"
     inkscape:cy="42.216995"
     inkscape:window-width="713"
     inkscape:window-height="684"
     inkscape:window-x="431"
     inkscape:window-y="36" />
  <path
     style="fill:url(#radialGradient844);fill-opacity:1;fill-rule:evenodd;stroke:none;stroke-width:1.2500000;stroke-dasharray:none;"
     d="M 43.202071,16.956345 C 43.202071,23.565095 48.564181,28.928717 55.171066,28.928717 C 61.777951,28.928717 67.140061,23.565095 67.140061,16.956345 C 67.140061,10.347595 61.777951,4.9839730 55.171066,4.9839730 C 48.564181,4.9839730 43.202071,10.347595 43.202071,16.956345 z "
     id="path826" />
  <path
     style="fill:none;fill-rule:evenodd;stroke:#00007f;stroke-opacity:1.0000000;stroke-width:2.5000000;stroke-linejoin:miter;stroke-linecap:butt;fill-opacity:1.0000000;stroke-dasharray:none;"
     d="M 67.099775,58.010856 C 64.529379,44.311137 60.418450,31.307686 46.695136,28.738297 C 30.942195,21.680755 24.514701,39.826001 25.244082,58.242636"
     id="path837"
     sodipodi:nodetypes="ccc" />
  <path
     style="fill:none;fill-rule:evenodd;stroke:#00007f;stroke-opacity:1.0000000;stroke-width:2.5000000;stroke-linejoin:miter;stroke-linecap:butt;fill-opacity:0.75;stroke-dasharray:none;"
     d="M 53.695505,91.894032 C 59.523783,81.560542 51.304438,61.864977 40.477836,65.703007 C 45.531824,74.346729 40.866588,81.644560 33.047560,90.623882"
     id="path842"
     sodipodi:nodetypes="ccc" />
  <path
     style="fill:url(#linearGradient833);fill-opacity:1;fill-rule:evenodd;stroke:none;stroke-width:1.2500000;stroke-dasharray:none;"
     d="M 31.429109,45.528396 C 29.629444,56.573805 30.130960,65.857889 39.818271,67.436274 C 48.538165,68.638513 52.928293,60.369963 54.727958,49.324554 C 56.527623,38.279146 56.241948,29.248750 46.338796,27.416676 C 36.686169,25.625421 33.228773,34.482987 31.429109,45.528396 z "
     id="path832"
     sodipodi:nodetypes="ccccc" />
  <path
     style="fill:url(#radialGradient845);fill-opacity:1;fill-rule:evenodd;stroke:none;stroke-width:1.2500000;stroke-dasharray:none;"
     d="M 63.890696,58.268213 C 63.890696,60.338215 65.570696,62.018214 67.640696,62.018214 C 69.710696,62.018214 71.390696,60.338215 71.390696,58.268213 C 71.390696,56.198214 69.710696,54.518214 67.640696,54.518214 C 65.570696,54.518214 63.890696,56.198214 63.890696,58.268213 z "
     id="path835" />
  <path
     style="fill:url(#radialGradient847);fill-opacity:1;fill-rule:evenodd;stroke:none;stroke-width:1.2500000;stroke-dasharray:none;"
     d="M 51.289525,92.556741 C 51.151808,94.622157 53.833835,96.484716 57.276191,96.714245 C 60.718547,96.943772 63.624114,95.453779 63.761830,93.388363 C 63.899547,91.322950 61.217521,89.460389 57.775165,89.230861 C 54.332809,89.001334 51.427243,90.491328 51.289525,92.556741 z "
     id="path836" />
  <path
     style="fill:url(#radialGradient847);fill-opacity:1;fill-rule:evenodd;stroke:none;stroke-width:1.2500000;stroke-dasharray:none;"
     d="M 43.201730,93.465333 C 43.427408,91.407670 40.827255,89.432422 37.397820,89.056293 C 33.968384,88.680165 31.001916,90.044887 30.776239,92.102550 C 30.550562,94.160210 33.150714,96.135460 36.580149,96.511588 C 40.009586,96.887716 42.976053,95.522994 43.201730,93.465333 z "
     id="path848" />
  <path
     style="fill:url(#radialGradient845);fill-opacity:1;fill-rule:evenodd;stroke:none;stroke-width:1.2500000;stroke-dasharray:none;"
     d="M 21.074767,58.971547 C 21.074767,61.041549 22.754767,62.721548 24.824767,62.721548 C 26.894767,62.721548 28.574767,61.041549 28.574767,58.971547 C 28.574767,56.901548 26.894767,55.221548 24.824767,55.221548 C 22.754767,55.221548 21.074767,56.901548 21.074767,58.971547 z "
     id="path849" />

  <rdf:RDF 
   xmlns="http://web.resource.org/cc/"
   xmlns:dc="http://purl.org/dc/elements/1.1/"
   xmlns:rdf="http://www.w3.org/1999/02/22-rdf-syntax-ns#">
  <Work rdf:about="">
    <dc:title>stick man</dc:title>
    <dc:rights>
       <Agent>
         <dc:title>Nicu Buculei</dc:title>
       </Agent>
    </dc:rights>
    <dc:type rdf:resource="http://purl.org/dc/dcmitype/StillImage" />
    <license rdf:resource="http://web.resource.org/cc/PublicDomain" />
  </Work>
   
  <License rdf:about="http://web.resource.org/cc/PublicDomain">
     <permits rdf:resource="http://web.resource.org/cc/Reproduction" />
     <permits rdf:resource="http://web.resource.org/cc/Distribution" />
     <permits rdf:resource="http://web.resource.org/cc/DerivativeWorks" />
  </License>

</rdf:RDF>
</svg>
