<?xml version="1.0" encoding="UTF-8" standalone="no"?>
<!DOCTYPE svg PUBLIC "-//W3C//DTD SVG 1.0//EN"
"http://www.w3.org/TR/2001/REC-SVG-20010904/DTD/svg10.dtd">
<!-- Created with Inkscape (http://www.inkscape.org/) -->
<svg
   id="svg1"
   sodipodi:version="0.32"
   inkscape:version="0.38.1"
   xmlns="http://www.w3.org/2000/svg"
   xmlns:sodipodi="http://sodipodi.sourceforge.net/DTD/sodipodi-0.dtd"
   xmlns:inkscape="http://www.inkscape.org/namespaces/inkscape"
   xmlns:xlink="http://www.w3.org/1999/xlink"
   width="80.000000pt"
   height="80.000000pt"
   sodipodi:docbase="/home/nicu/Desktop/stick_man"
   sodipodi:docname="sm_021.svg">
  <defs
     id="defs3">
    <linearGradient
       id="linearGradient827">
      <stop
         style="stop-color:#02e2ff;stop-opacity:1.0000000;"
         offset="0.0000000"
         id="stop828" />
      <stop
         style="stop-color:#0079a8;stop-opacity:1.0000000;"
         offset="1.0000000"
         id="stop829" />
    </linearGradient>
    <radialGradient
       xlink:href="#linearGradient827"
       id="radialGradient830"
       cx="0.18840580"
       cy="0.27544910"
       r="0.39135015"
       fx="0.18840580"
       fy="0.27544910" />
    <linearGradient
       xlink:href="#linearGradient827"
       id="linearGradient833"
       x1="-0.11764706"
       y1="0.041420117"
       x2="0.47058824"
       y2="0.76923078" />
    <radialGradient
       xlink:href="#linearGradient827"
       id="radialGradient844"
       cx="0.30000001"
       cy="0.20710059"
       r="0.50003499"
       fx="0.30000001"
       fy="0.20710059" />
    <radialGradient
       xlink:href="#linearGradient827"
       id="radialGradient845"
       cx="0.20588236"
       cy="0.19526628"
       r="0.53611112"
       fx="0.20588236"
       fy="0.19526628" />
    <radialGradient
       xlink:href="#linearGradient827"
       id="radialGradient846"
       cx="0.17647059"
       cy="0.10650887"
       r="0.62578475"
       fx="0.17647059"
       fy="0.10650887" />
    <radialGradient
       xlink:href="#linearGradient827"
       id="radialGradient847"
       cx="0.21014492"
       cy="0.11377245"
       r="0.58443874"
       fx="0.21014492"
       fy="0.11377245" />
  </defs>
  <sodipodi:namedview
     id="base"
     pagecolor="#ffffff"
     bordercolor="#666666"
     borderopacity="1.0"
     inkscape:pageopacity="0.0"
     inkscape:pageshadow="2"
     inkscape:zoom="6.0628663"
     inkscape:cx="43.526925"
     inkscape:cy="43.550778"
     inkscape:window-width="713"
     inkscape:window-height="684"
     inkscape:window-x="488"
     inkscape:window-y="32" />
  <path
     style="fill:url(#radialGradient844);fill-opacity:1;fill-rule:evenodd;stroke:none;stroke-width:1.2500000;stroke-dasharray:none;"
     d="M 66.359847,15.925480 C 66.359847,22.534230 60.997737,27.897852 54.390852,27.897852 C 47.783967,27.897852 42.421857,22.534230 42.421857,15.925480 C 42.421857,9.3167309 47.783967,3.9531075 54.390852,3.9531075 C 60.997737,3.9531075 66.359847,9.3167309 66.359847,15.925480 z "
     id="path826" />
  <path
     style="fill:none;fill-rule:evenodd;stroke:#00007f;stroke-opacity:1.0000000;stroke-width:2.5000000;stroke-linejoin:miter;stroke-linecap:butt;fill-opacity:1.0000000;stroke-dasharray:none;"
     d="M 79.367131,34.507122 C 65.189344,33.430110 61.468712,33.940281 50.084049,32.037067"
     id="path837"
     sodipodi:nodetypes="cc" />
  <path
     style="fill:none;fill-rule:evenodd;stroke:#00007f;stroke-opacity:1.0000000;stroke-width:2.5000000;stroke-linejoin:miter;stroke-linecap:butt;fill-opacity:0.75;stroke-dasharray:none;"
     d="M 38.982808,64.053622 C 55.989343,65.068938 64.778041,75.047020 65.793357,84.438688"
     id="path842"
     sodipodi:nodetypes="cc" />
  <path
     style="fill:url(#linearGradient833);fill-opacity:1;fill-rule:evenodd;stroke:none;stroke-width:1.2500000;stroke-dasharray:none;"
     d="M 53.504858,50.237452 C 51.230581,61.194984 47.438286,69.684050 37.828048,67.689409 C 29.255767,65.689925 28.117095,56.397693 30.391373,45.440161 C 32.665650,34.482629 36.165581,26.153155 46.068183,27.988204 C 55.722252,29.771669 55.779135,39.279920 53.504858,50.237452 z "
     id="path832"
     sodipodi:nodetypes="ccccc" />
  <path
     style="fill:url(#radialGradient845);fill-opacity:1;fill-rule:evenodd;stroke:none;stroke-width:1.2500000;stroke-dasharray:none;"
     d="M 85.668805,33.939787 C 85.668805,36.009789 83.988805,37.689788 81.918805,37.689788 C 79.848805,37.689788 78.168806,36.009789 78.168806,33.939787 C 78.168806,31.869788 79.848805,30.189788 81.918805,30.189788 C 83.988805,30.189788 85.668805,31.869788 85.668805,33.939787 z "
     id="path835" />
  <path
     style="fill:url(#radialGradient847);fill-opacity:1;fill-rule:evenodd;stroke:none;stroke-width:1.2500000;stroke-dasharray:none;"
     d="M 76.348858,85.155535 C 76.348858,87.225537 73.548858,88.905536 70.098858,88.905536 C 66.648858,88.905536 63.848858,87.225537 63.848858,85.155535 C 63.848858,83.085536 66.648858,81.405536 70.098858,81.405536 C 73.548858,81.405536 76.348858,83.085536 76.348858,85.155535 z "
     id="path848" />
  <path
     style="fill:none;fill-rule:evenodd;stroke:#00007f;stroke-opacity:1.0000000;stroke-width:2.5000000;stroke-linejoin:miter;stroke-linecap:butt;fill-opacity:0.75;stroke-dasharray:none;"
     d="M 35.457752,64.138914 C 51.433422,70.308558 54.243100,85.853314 46.599146,93.183251"
     id="path867"
     sodipodi:nodetypes="cc" />
  <path
     style="fill:url(#radialGradient847);fill-opacity:1;fill-rule:evenodd;stroke:none;stroke-width:1.2500000;stroke-dasharray:none;"
     d="M 57.237547,97.163382 C 56.327535,99.022626 53.074060,99.300642 49.975323,97.783957 C 46.876587,96.267272 45.100230,93.527391 46.010241,91.668147 C 46.920252,89.808906 50.173728,89.530889 53.272464,91.047574 C 56.371201,92.564258 58.147558,95.304141 57.237547,97.163382 z "
     id="path836" />
  <path
     style="fill:none;fill-rule:evenodd;stroke:#00007f;stroke-opacity:1.0000000;stroke-width:2.5000000;stroke-linejoin:miter;stroke-linecap:butt;fill-opacity:1.0000000;stroke-dasharray:none;"
     d="M 74.534831,50.192682 C 68.810143,46.847767 50.657392,34.987551 47.107307,32.465817"
     id="path868"
     sodipodi:nodetypes="cc" />
  <path
     style="fill:url(#radialGradient845);fill-opacity:1;fill-rule:evenodd;stroke:none;stroke-width:1.2500000;stroke-dasharray:none;"
     d="M 80.034053,51.343142 C 80.034053,53.413144 78.354053,55.093143 76.284054,55.093143 C 74.214054,55.093143 72.534054,53.413144 72.534054,51.343142 C 72.534054,49.273143 74.214054,47.593143 76.284054,47.593143 C 78.354053,47.593143 80.034053,49.273143 80.034053,51.343142 z "
     id="path849" />

  <rdf:RDF 
   xmlns="http://web.resource.org/cc/"
   xmlns:dc="http://purl.org/dc/elements/1.1/"
   xmlns:rdf="http://www.w3.org/1999/02/22-rdf-syntax-ns#">
  <Work rdf:about="">
    <dc:title>stick man</dc:title>
    <dc:rights>
       <Agent>
         <dc:title>Nicu Buculei</dc:title>
       </Agent>
    </dc:rights>
    <dc:type rdf:resource="http://purl.org/dc/dcmitype/StillImage" />
    <license rdf:resource="http://web.resource.org/cc/PublicDomain" />
  </Work>
   
  <License rdf:about="http://web.resource.org/cc/PublicDomain">
     <permits rdf:resource="http://web.resource.org/cc/Reproduction" />
     <permits rdf:resource="http://web.resource.org/cc/Distribution" />
     <permits rdf:resource="http://web.resource.org/cc/DerivativeWorks" />
  </License>

</rdf:RDF>
</svg>
