<?xml version="1.0" encoding="UTF-8" standalone="no"?>
<!DOCTYPE svg PUBLIC "-//W3C//DTD SVG 1.0//EN"
"http://www.w3.org/TR/2001/REC-SVG-20010904/DTD/svg10.dtd">
<!-- Created with Inkscape (http://www.inkscape.org/) -->
<svg
   id="svg1"
   sodipodi:version="0.32"
   inkscape:version="0.38.1"
   xmlns="http://www.w3.org/2000/svg"
   xmlns:sodipodi="http://sodipodi.sourceforge.net/DTD/sodipodi-0.dtd"
   xmlns:inkscape="http://www.inkscape.org/namespaces/inkscape"
   xmlns:xlink="http://www.w3.org/1999/xlink"
   width="80.000000pt"
   height="80.000000pt"
   sodipodi:docbase="/home/nicu/Desktop/stick_man"
   sodipodi:docname="sm_016.svg">
  <defs
     id="defs3">
    <linearGradient
       id="linearGradient827">
      <stop
         style="stop-color:#02e2ff;stop-opacity:1.0000000;"
         offset="0.0000000"
         id="stop828" />
      <stop
         style="stop-color:#0079a8;stop-opacity:1.0000000;"
         offset="1.0000000"
         id="stop829" />
    </linearGradient>
    <radialGradient
       xlink:href="#linearGradient827"
       id="radialGradient830"
       cx="0.18840580"
       cy="0.27544910"
       r="0.39135015"
       fx="0.18840580"
       fy="0.27544910" />
    <linearGradient
       xlink:href="#linearGradient827"
       id="linearGradient833"
       x1="-0.11764706"
       y1="0.041420117"
       x2="0.47058824"
       y2="0.76923078" />
    <radialGradient
       xlink:href="#linearGradient827"
       id="radialGradient844"
       cx="0.30000001"
       cy="0.20710059"
       r="0.50003499"
       fx="0.30000001"
       fy="0.20710059" />
    <radialGradient
       xlink:href="#linearGradient827"
       id="radialGradient845"
       cx="0.20588236"
       cy="0.19526628"
       r="0.53611112"
       fx="0.20588236"
       fy="0.19526628" />
    <radialGradient
       xlink:href="#linearGradient827"
       id="radialGradient846"
       cx="0.17647059"
       cy="0.10650887"
       r="0.62578475"
       fx="0.17647059"
       fy="0.10650887" />
    <radialGradient
       xlink:href="#linearGradient827"
       id="radialGradient847"
       cx="0.21014492"
       cy="0.11377245"
       r="0.58443874"
       fx="0.21014492"
       fy="0.11377245" />
  </defs>
  <sodipodi:namedview
     id="base"
     pagecolor="#ffffff"
     bordercolor="#666666"
     borderopacity="1.0"
     inkscape:pageopacity="0.0"
     inkscape:pageshadow="2"
     inkscape:zoom="6.0628663"
     inkscape:cx="43.526925"
     inkscape:cy="43.550778"
     inkscape:window-width="713"
     inkscape:window-height="684"
     inkscape:window-x="488"
     inkscape:window-y="32" />
  <path
     style="fill:url(#radialGradient844);fill-opacity:1;fill-rule:evenodd;stroke:none;stroke-width:1.2500000;stroke-dasharray:none;"
     d="M 70.522219,17.950014 C 68.081673,24.091619 61.117856,27.095935 54.977984,24.656078 C 48.838112,22.216220 45.835760,15.251556 48.276306,9.1099514 C 50.716851,2.9683474 57.680669,-0.035969395 63.820541,2.4038878 C 69.960413,4.8437450 72.962765,11.808410 70.522219,17.950014 z "
     id="path826" />
  <path
     style="fill:none;fill-rule:evenodd;stroke:#00007f;stroke-width:2.5000000;"
     d="M 28.437442,31.159007 C 31.400297,18.470858 46.747241,23.768145 61.795579,29.201770 C 71.034940,41.824831 68.848258,52.888522 86.168948,49.996154"
     id="path837"
     sodipodi:nodetypes="ccc" />
  <path
     style="fill:none;fill-opacity:0.75000000;fill-rule:evenodd;stroke:#00007f;stroke-width:2.5000000;"
     d="M 62.859796,88.870052 C 64.726754,85.985420 65.579606,75.243313 68.484891,70.793768 C 66.442176,66.928678 50.189184,64.890219 42.712374,62.483858 C 37.778290,71.446980 29.985519,79.669879 19.751200,82.296727"
     id="path842"
     sodipodi:nodetypes="cccc" />
  <path
     style="fill:url(#linearGradient833);fill-opacity:1;fill-rule:evenodd;stroke:none;stroke-width:1.2500000;stroke-dasharray:none;"
     d="M 63.168840,50.849753 C 59.036092,61.249765 53.834512,68.956210 44.713243,65.331608 C 36.615169,61.881519 37.098624,52.532272 41.231372,42.132260 C 45.364120,31.732249 50.250166,24.132498 59.686969,27.650405 C 68.887885,31.074576 67.301588,40.449742 63.168840,50.849753 z "
     id="path832"
     sodipodi:nodetypes="ccccc" />
  <path
     style="fill:url(#radialGradient845);fill-opacity:1;fill-rule:evenodd;stroke:none;stroke-width:1.2500000;stroke-dasharray:none;"
     d="M 30.733520,34.110636 C 29.969089,36.034318 27.787434,36.975158 25.863754,36.210727 C 23.940073,35.446297 22.999233,33.264643 23.763664,31.340961 C 24.528094,29.417281 26.709749,28.476441 28.633429,29.240871 C 30.557110,30.005302 31.497950,32.186957 30.733520,34.110636 z "
     id="path835" />
  <path
     style="fill:url(#radialGradient847);fill-opacity:1;fill-rule:evenodd;stroke:none;stroke-width:1.2500000;stroke-dasharray:none;"
     d="M 22.265413,92.864139 C 20.293118,93.492597 17.842329,91.334814 16.794898,88.047658 C 15.747469,84.760503 16.498081,81.582616 18.470376,80.954156 C 20.442668,80.325698 22.893457,82.483481 23.940888,85.770637 C 24.988318,89.057792 24.237705,92.235681 22.265413,92.864139 z "
     id="path836" />
  <path
     style="fill:url(#radialGradient847);fill-opacity:1;fill-rule:evenodd;stroke:none;stroke-width:1.2500000;stroke-dasharray:none;"
     d="M 61.137686,88.949053 C 62.015523,87.074404 65.263724,86.740367 68.388138,88.203426 C 71.512551,89.666486 73.335859,92.375348 72.458023,94.249998 C 71.580188,96.124644 68.331986,96.458687 65.207573,94.995628 C 62.083160,93.532567 60.259852,90.823704 61.137686,88.949053 z "
     id="path848" />
  <path
     style="fill:url(#radialGradient845);fill-opacity:1;fill-rule:evenodd;stroke:none;stroke-width:1.2500000;stroke-dasharray:none;"
     d="M 91.480923,50.929959 C 90.716492,52.853641 88.534837,53.794481 86.611157,53.030050 C 84.687477,52.265620 83.746636,50.083966 84.511067,48.160284 C 85.275497,46.236604 87.457152,45.295764 89.380833,46.060194 C 91.304513,46.824625 92.245352,49.006280 91.480923,50.929959 z "
     id="path849" />

  <rdf:RDF 
   xmlns="http://web.resource.org/cc/"
   xmlns:dc="http://purl.org/dc/elements/1.1/"
   xmlns:rdf="http://www.w3.org/1999/02/22-rdf-syntax-ns#">
  <Work rdf:about="">
    <dc:title>stick man</dc:title>
    <dc:rights>
       <Agent>
         <dc:title>Nicu Buculei</dc:title>
       </Agent>
    </dc:rights>
    <dc:type rdf:resource="http://purl.org/dc/dcmitype/StillImage" />
    <license rdf:resource="http://web.resource.org/cc/PublicDomain" />
  </Work>
   
  <License rdf:about="http://web.resource.org/cc/PublicDomain">
     <permits rdf:resource="http://web.resource.org/cc/Reproduction" />
     <permits rdf:resource="http://web.resource.org/cc/Distribution" />
     <permits rdf:resource="http://web.resource.org/cc/DerivativeWorks" />
  </License>

</rdf:RDF>
</svg>
