<?xml version="1.0" encoding="UTF-8" standalone="no"?>
<!-- Created with Inkscape (http://www.inkscape.org/) -->

<svg
   xmlns:dc="http://purl.org/dc/elements/1.1/"
   xmlns:cc="http://creativecommons.org/ns#"
   xmlns:rdf="http://www.w3.org/1999/02/22-rdf-syntax-ns#"
   xmlns:svg="http://www.w3.org/2000/svg"
   xmlns="http://www.w3.org/2000/svg"
   xmlns:sodipodi="http://sodipodi.sourceforge.net/DTD/sodipodi-0.dtd"
   xmlns:inkscape="http://www.inkscape.org/namespaces/inkscape"
   width="372.04724"
   height="524.40942"
   id="svg2"
   sodipodi:version="0.32"
   inkscape:version="0.48.0 r9654"
   version="1.0"
   sodipodi:docname="label-side-up.svg"
   inkscape:output_extension="org.inkscape.output.svg.inkscape">
  <defs
     id="defs4" />
  <sodipodi:namedview
     id="base"
     pagecolor="#ffffff"
     bordercolor="#666666"
     borderopacity="1.0"
     gridtolerance="10000"
     guidetolerance="10"
     objecttolerance="10"
     inkscape:pageopacity="1"
     inkscape:pageshadow="2"
     inkscape:zoom="1"
     inkscape:cx="93.601594"
     inkscape:cy="230.98458"
     inkscape:document-units="px"
     inkscape:current-layer="layer1"
     showgrid="false"
     inkscape:window-width="1137"
     inkscape:window-height="858"
     inkscape:window-x="191"
     inkscape:window-y="121"
     inkscape:window-maximized="0">
    <inkscape:grid
       type="xygrid"
       id="grid3252"
       visible="true"
       enabled="true"
       empspacing="5"
       snapvisiblegridlinesonly="true" />
  </sodipodi:namedview>
  <metadata
     id="metadata7">
    <rdf:RDF>
      <cc:Work
         rdf:about="">
        <dc:format>image/svg+xml</dc:format>
        <dc:type
           rdf:resource="http://purl.org/dc/dcmitype/StillImage" />
      </cc:Work>
    </rdf:RDF>
  </metadata>
  <g
     inkscape:label="Layer 1"
     inkscape:groupmode="layer"
     id="layer1">
    <rect
       style="opacity:1;fill:#800000;fill-opacity:1;stroke:none;stroke-width:7;stroke-miterlimit:4;stroke-dasharray:none;stroke-opacity:1"
       id="rect2428"
       width="273.52017"
       height="6.661942"
       x="49.763535"
       y="396.89093" />
    <path
       transform="scale(0.8461034,1.1818886)"
       style="font-size:62.41962433px;font-style:normal;font-variant:normal;font-weight:normal;font-stretch:normal;text-align:start;text-anchor:start;fill:#800000;fill-opacity:1;stroke:none;stroke-width:1px;stroke-linecap:butt;stroke-linejoin:miter;stroke-opacity:1;font-family:DejaVu Sans;-inkscape-font-specification:DejaVu Sans"
       d="M 67.828106,353.49082 L 67.828106,363.18293 L 79.379394,363.18293 L 79.379394,367.54133 L 67.828106,367.54133 L 67.828106,386.07216 C 67.828094,388.85586 68.203993,390.64392 68.955804,391.43635 C 69.727909,392.22879 71.282302,392.62501 73.618989,392.625 L 79.379394,392.625 L 79.379394,397.31866 L 73.618989,397.31866 C 69.291053,397.31866 66.304179,396.51607 64.658359,394.91088 C 63.012523,393.28537 62.189609,390.33913 62.189614,386.07216 L 62.189614,367.54133 L 58.07504,367.54133 L 58.07504,363.18293 L 62.189614,363.18293 L 62.189614,353.49082 L 67.828106,353.49082 M 112.24429,376.71531 L 112.24429,397.31866 L 106.63628,397.31866 L 106.63628,376.89818 C 106.63625,373.6675 106.00636,371.24956 104.74662,369.64434 C 103.48682,368.03918 101.59717,367.23658 99.077651,367.23655 C 96.050118,367.23658 93.662651,368.20173 91.915243,370.13199 C 90.167806,372.06231 89.294095,374.69361 89.294106,378.02588 L 89.294106,397.31866 L 83.655615,397.31866 L 83.655615,349.89438 L 89.294106,349.89438 L 89.294106,368.48616 C 90.63514,366.43399 92.209852,364.89991 94.018247,363.88393 C 95.84693,362.86802 97.949932,362.36005 100.32726,362.36002 C 104.24878,362.36005 107.21534,363.57918 109.22694,366.01742 C 111.23847,368.43539 112.24426,372.00136 112.24429,376.71531 M 120.57412,363.18293 L 126.18214,363.18293 L 126.18214,397.31866 L 120.57412,397.31866 L 120.57412,363.18293 M 120.57412,349.89438 L 126.18214,349.89438 L 126.18214,356.99583 L 120.57412,356.99583 L 120.57412,349.89438 M 156.73068,364.18872 L 156.73068,369.49195 C 155.14578,368.67922 153.49995,368.06965 151.79319,367.66325 C 150.08638,367.2569 148.31864,367.05371 146.48996,367.05368 C 143.70626,367.05371 141.61342,367.48041 140.21143,368.33377 C 138.82973,369.18719 138.13889,370.46728 138.1389,372.17404 C 138.13889,373.47447 138.6367,374.50058 139.63234,375.25235 C 140.62795,375.98385 142.62936,376.68485 145.63657,377.35536 L 147.5567,377.78205 C 151.53918,378.63547 154.36351,379.84444 156.02968,381.40898 C 157.71612,382.95323 158.55935,385.11718 158.55938,387.90086 C 158.55935,391.07061 157.29958,393.57999 154.78007,395.42901 C 152.28082,397.27803 148.83677,398.20254 144.44791,398.20254 C 142.6192,398.20254 140.70923,398.01967 138.71799,397.65393 C 136.74705,397.30851 134.66436,396.78021 132.46993,396.06905 L 132.46993,390.27817 C 134.54245,391.35508 136.5845,392.16783 138.59607,392.71644 C 140.60763,393.24473 142.59888,393.50888 144.56983,393.50887 C 147.21126,393.50888 149.24315,393.06186 150.66549,392.16783 C 152.08779,391.25348 152.79895,389.97339 152.79898,388.32756 C 152.79895,386.80365 152.28082,385.63532 151.24458,384.82255 C 150.22862,384.00981 147.98338,383.22753 144.50887,382.47572 L 142.55826,382.01854 C 139.08372,381.28708 136.57434,380.16954 135.03011,378.66593 C 133.48587,377.14203 132.71375,375.05934 132.71376,372.41787 C 132.71375,369.20751 133.85161,366.72861 136.12733,364.98115 C 138.40303,363.23376 141.63373,362.36005 145.81944,362.36002 C 147.89195,362.36005 149.84256,362.51244 151.67128,362.81719 C 153.49995,363.12201 155.18642,363.57918 156.73068,364.18872 M 203.32008,364.18872 L 203.32008,369.49195 C 201.73518,368.67922 200.08935,368.06965 198.38259,367.66325 C 196.67579,367.2569 194.90804,367.05371 193.07936,367.05368 C 190.29566,367.05371 188.20282,367.48041 186.80083,368.33377 C 185.41913,369.18719 184.72829,370.46728 184.7283,372.17404 C 184.72829,373.47447 185.2261,374.50058 186.22174,375.25235 C 187.21735,375.98385 189.21876,376.68485 192.22597,377.35536 L 194.1461,377.78205 C 198.12858,378.63547 200.95291,379.84444 202.61908,381.40898 C 204.30552,382.95323 205.14875,385.11718 205.14878,387.90086 C 205.14875,391.07061 203.88898,393.57999 201.36947,395.42901 C 198.87022,397.27803 195.42617,398.20254 191.03731,398.20254 C 189.2086,398.20254 187.29863,398.01967 185.30739,397.65393 C 183.33645,397.30851 181.25376,396.78021 179.05933,396.06905 L 179.05933,390.27817 C 181.13185,391.35508 183.1739,392.16783 185.18547,392.71644 C 187.19703,393.24473 189.18828,393.50888 191.15923,393.50887 C 193.80067,393.50888 195.83255,393.06186 197.25489,392.16783 C 198.67719,391.25348 199.38835,389.97339 199.38838,388.32756 C 199.38835,386.80365 198.87022,385.63532 197.83398,384.82255 C 196.81802,384.00981 194.57278,383.22753 191.09827,382.47572 L 189.14766,382.01854 C 185.67312,381.28708 183.16374,380.16954 181.61951,378.66593 C 180.07527,377.14203 179.30315,375.05934 179.30316,372.41787 C 179.30315,369.20751 180.44101,366.72861 182.71673,364.98115 C 184.99244,363.23376 188.22314,362.36005 192.40884,362.36002 C 194.48135,362.36005 196.43196,362.51244 198.26068,362.81719 C 200.08935,363.12201 201.77582,363.57918 203.32008,364.18872 M 211.19275,363.18293 L 216.80076,363.18293 L 216.80076,397.31866 L 211.19275,397.31866 L 211.19275,363.18293 M 211.19275,349.89438 L 216.80076,349.89438 L 216.80076,356.99583 L 211.19275,356.99583 L 211.19275,349.89438 M 248.0503,368.36425 L 248.0503,349.89438 L 253.65831,349.89438 L 253.65831,397.31866 L 248.0503,397.31866 L 248.0503,392.1983 C 246.87177,394.2302 245.37834,395.74395 243.56998,396.73958 C 241.7819,397.71488 239.6281,398.20254 237.10858,398.20254 C 232.98383,398.20254 229.62106,396.55671 227.02025,393.26505 C 224.43974,389.97339 223.1495,385.64547 223.1495,380.28128 C 223.1495,374.91711 224.43974,370.58919 227.02025,367.29751 C 229.62106,364.00588 232.98383,362.36005 237.10858,362.36002 C 239.6281,362.36005 241.7819,362.85786 243.56998,363.85346 C 245.37834,364.82879 246.87177,366.33239 248.0503,368.36425 M 228.94038,380.28128 C 228.94037,384.40602 229.78361,387.64688 231.47008,390.00386 C 233.17686,392.34054 235.51353,393.50888 238.4801,393.50887 C 241.44664,393.50888 243.78331,392.34054 245.49012,390.00386 C 247.19688,387.64688 248.05027,384.40602 248.0503,380.28128 C 248.05027,376.15656 247.19688,372.92586 245.49012,370.58917 C 243.78331,368.23221 241.44664,367.05371 238.4801,367.05368 C 235.51353,367.05371 233.17686,368.23221 231.47008,370.58917 C 229.78361,372.92586 228.94037,376.15656 228.94038,380.28128 M 291.49118,378.8488 L 291.49118,381.59185 L 265.70651,381.59185 C 265.95033,385.45245 267.1085,388.39868 269.18104,390.43056 C 271.27387,392.44214 274.17947,393.44792 277.89784,393.44792 C 280.05162,393.44792 282.1343,393.18377 284.1459,392.65548 C 286.17776,392.12719 288.18933,391.33476 290.18061,390.27817 L 290.18061,395.5814 C 288.16901,396.43479 286.10664,397.085 283.99351,397.53201 C 281.88032,397.97903 279.73668,398.20254 277.56258,398.20254 C 272.1171,398.20254 267.79934,396.61766 264.60929,393.44792 C 261.43954,390.27818 259.85467,385.9909 259.85467,380.58606 C 259.85467,374.99839 261.35826,370.56888 264.36546,367.29751 C 267.39297,364.00588 271.4669,362.36005 276.58727,362.36002 C 281.17932,362.36005 284.80624,363.84333 287.46804,366.80985 C 290.1501,369.75612 291.49114,373.7691 291.49118,378.8488 M 285.88317,377.20297 C 285.8425,374.13484 284.97895,371.68641 283.29251,369.85769 C 281.62633,368.02902 279.41158,367.11467 276.64823,367.11464 C 273.5191,367.11467 271.00972,367.99854 269.12008,369.76625 C 267.25073,371.53402 266.17383,374.02308 265.88938,377.23344 L 285.88317,377.20297 M 314.03317,383.84724 L 314.03317,363.18293 L 319.64118,363.18293 L 319.64118,383.63389 C 319.64117,386.86461 320.27106,389.29271 321.53084,390.91821 C 322.7906,392.52341 324.68025,393.32601 327.19981,393.326 C 330.2273,393.32601 332.61477,392.36086 334.36222,390.43056 C 336.12993,388.50028 337.0138,385.86898 337.01383,382.53667 L 337.01383,363.18293 L 342.62184,363.18293 L 342.62184,397.31866 L 337.01383,397.31866 L 337.01383,392.07639 C 335.65244,394.14892 334.06757,395.69316 332.25921,396.7091 C 330.47113,397.70472 328.38844,398.20254 326.01115,398.20254 C 322.08959,398.20254 319.11288,396.9834 317.081,394.54514 C 315.04911,392.10687 314.03316,388.54091 314.03317,383.84724 M 328.14464,362.36002 L 328.14464,362.36002 M 356.74257,392.1983 L 356.74257,410.30243 L 351.10408,410.30243 L 351.10408,363.18293 L 356.74257,363.18293 L 356.74257,368.36425 C 357.92105,366.33239 359.40433,364.82879 361.19241,363.85346 C 363.00077,362.85786 365.15457,362.36005 367.65381,362.36002 C 371.79884,362.36005 375.16161,364.00588 377.74214,367.29751 C 380.34292,370.58919 381.64333,374.91711 381.64337,380.28128 C 381.64333,385.64547 380.34292,389.97339 377.74214,393.26505 C 375.16161,396.55671 371.79884,398.20254 367.65381,398.20254 C 365.15457,398.20254 363.00077,397.71488 361.19241,396.73958 C 359.40433,395.74395 357.92105,394.2302 356.74257,392.1983 M 375.82201,380.28128 C 375.82197,376.15656 374.96858,372.92586 373.26183,370.58917 C 371.57533,368.23221 369.24882,367.05371 366.28229,367.05368 C 363.31571,367.05371 360.97904,368.23221 359.27227,370.58917 C 357.58579,372.92586 356.74256,376.15656 356.74257,380.28128 C 356.74256,384.40602 357.58579,387.64688 359.27227,390.00386 C 360.97904,392.34054 363.31571,393.50888 366.28229,393.50887 C 369.24882,393.50888 371.57533,392.34054 373.26183,390.00386 C 374.96858,387.64688 375.82197,384.40602 375.82201,380.28128"
       id="text2430" />
    <rect
       style="opacity:1;fill:none;fill-opacity:1;stroke:#800000;stroke-width:2;stroke-miterlimit:4;stroke-dasharray:none;stroke-opacity:1"
       id="rect2434"
       width="339.71176"
       height="496.37497"
       x="16.16774"
       y="14.017227" />
    <path
       style="fill:#800000;fill-opacity:1;fill-rule:evenodd;stroke:none;stroke-width:1px;stroke-linecap:butt;stroke-linejoin:miter;stroke-opacity:1"
       d="M 110.52362,65.40625 L 60.523621,108.21875 L 90.523621,108.21875 L 90.523621,379.40625 L 110.52362,365.125 L 130.52362,379.40625 L 130.52362,108.21875 L 160.52362,108.21875 L 110.52362,65.40625 z M 261.52362,65.40625 L 211.52362,108.21875 L 241.52362,108.21875 L 241.52362,379.40625 L 261.52362,365.125 L 281.52362,379.40625 L 281.52362,108.21875 L 311.52362,108.21875 L 261.52362,65.40625 z"
       id="path3259" />
  </g>
</svg>
