<?xml version="1.0" encoding="UTF-8" standalone="no"?>
<!-- Created with Inkscape (http://www.inkscape.org/) -->

<svg
   xmlns:dc="http://purl.org/dc/elements/1.1/"
   xmlns:cc="http://creativecommons.org/ns#"
   xmlns:rdf="http://www.w3.org/1999/02/22-rdf-syntax-ns#"
   xmlns:svg="http://www.w3.org/2000/svg"
   xmlns="http://www.w3.org/2000/svg"
   xmlns:sodipodi="http://sodipodi.sourceforge.net/DTD/sodipodi-0.dtd"
   xmlns:inkscape="http://www.inkscape.org/namespaces/inkscape"
   width="372.04724"
   height="524.40942"
   id="svg2"
   sodipodi:version="0.32"
   inkscape:version="0.48.0 r9654"
   version="1.0"
   sodipodi:docname="label-fragile.svg"
   inkscape:output_extension="org.inkscape.output.svg.inkscape">
  <defs
     id="defs4" />
  <sodipodi:namedview
     id="base"
     pagecolor="#ffffff"
     bordercolor="#666666"
     borderopacity="1.0"
     gridtolerance="10000"
     guidetolerance="10"
     objecttolerance="10"
     inkscape:pageopacity="1"
     inkscape:pageshadow="2"
     inkscape:zoom="1"
     inkscape:cx="186.02362"
     inkscape:cy="295.43873"
     inkscape:document-units="px"
     inkscape:current-layer="layer1"
     showgrid="false"
     inkscape:window-width="1137"
     inkscape:window-height="858"
     inkscape:window-x="191"
     inkscape:window-y="121"
     inkscape:window-maximized="0" />
  <metadata
     id="metadata7">
    <rdf:RDF>
      <cc:Work
         rdf:about="">
        <dc:format>image/svg+xml</dc:format>
        <dc:type
           rdf:resource="http://purl.org/dc/dcmitype/StillImage" />
      </cc:Work>
    </rdf:RDF>
  </metadata>
  <g
     inkscape:label="Layer 1"
     inkscape:groupmode="layer"
     id="layer1">
    <path
       style="fill:#800000;fill-opacity:1;stroke:none;stroke-width:7;stroke-miterlimit:4;stroke-opacity:1"
       d="M 111.82696,73.561944 C 111.82696,75.403584 111.86714,159.47797 111.95277,161.29302 C 114.23644,209.70012 146.54726,248.12541 186.02362,248.12541 C 225.35167,248.12541 257.55901,209.98232 260.05852,161.83225 C 260.16202,159.83843 260.22029,75.588114 260.22029,73.561944 L 164.52672,73.561944 L 157.26522,102.60792 L 174.52026,121.58847 C 174.52026,121.58847 154.38938,175.65425 152.08871,178.53009 C 149.78803,181.40593 166.46791,124.4643 166.46791,124.4643 L 150.93837,102.60792 L 156.40247,73.561944 L 111.82696,73.561944 z M 176.82093,250.60582 C 183.68339,290.88869 182.19012,328.03816 176.82093,363.73417 L 195.22631,363.73417 C 190.00166,324.31313 191.28662,287.06195 195.22631,250.69569 C 190.21135,252.68233 183.26951,251.89311 176.82093,250.60582 z M 170.2784,366.61001 L 137.70951,379.2637 L 138.06899,385.01538 L 232.34261,385.01538 L 234.33773,379.2637 L 198.40771,366.61001 L 170.2784,366.61001 z"
       id="path2383" />
    <rect
       style="opacity:1;fill:#800000;fill-opacity:1;stroke:none;stroke-width:7;stroke-miterlimit:4;stroke-dasharray:none;stroke-opacity:1"
       id="rect2428"
       width="206.52017"
       height="6.661942"
       x="82.763535"
       y="396.89093" />
    <path
       transform="scale(0.8461034,1.1818886)"
       style="font-size:62.41962433px;font-style:normal;font-variant:normal;font-weight:normal;font-stretch:normal;text-align:start;text-anchor:start;fill:#800000;fill-opacity:1;stroke:none;stroke-width:1px;stroke-linecap:butt;stroke-linejoin:miter;stroke-opacity:1;font-family:DejaVu Sans;-inkscape-font-specification:DejaVu Sans"
       d="M 144.54725,349.89438 L 144.54725,354.55756 L 139.18306,354.55756 C 137.17147,354.55761 135.76947,354.96398 134.97705,355.7767 C 134.20492,356.58949 133.81886,358.05245 133.81887,360.16558 L 133.81887,363.18293 L 143.05381,363.18293 L 143.05381,367.54133 L 133.81887,367.54133 L 133.81887,397.31866 L 128.18038,397.31866 L 128.18038,367.54133 L 122.81619,367.54133 L 122.81619,363.18293 L 128.18038,363.18293 L 128.18038,360.80562 C 128.18037,357.00603 129.06424,354.24266 130.832,352.51552 C 132.59973,350.76814 135.40373,349.89443 139.24402,349.89438 L 144.54725,349.89438 M 169.11278,368.42521 C 168.48287,368.05949 167.79203,367.79535 167.04025,367.63277 C 166.30875,367.44993 165.496,367.35849 164.60199,367.35846 C 161.43222,367.35849 158.99396,368.39476 157.28719,370.46725 C 155.60071,372.51949 154.75748,375.47588 154.75749,379.33645 L 154.75749,397.31866 L 149.119,397.31866 L 149.119,363.18293 L 154.75749,363.18293 L 154.75749,368.48616 C 155.93597,366.41367 157.47004,364.87959 159.35971,363.88393 C 161.24935,362.86802 163.54539,362.36005 166.24782,362.36002 C 166.63385,362.36005 167.06055,362.39053 167.52791,362.45145 C 167.99522,362.49213 168.51335,362.56324 169.0823,362.6648 L 169.11278,368.42521 M 190.56953,380.15936 C 186.0384,380.15938 182.89913,380.67751 181.15172,381.71376 C 179.40429,382.75004 178.53058,384.51778 178.53058,387.01699 C 178.53058,389.00825 179.18078,390.59312 180.4812,391.77161 C 181.80191,392.92979 183.58997,393.50888 185.84538,393.50887 C 188.95415,393.50888 191.44322,392.41166 193.31258,390.21721 C 195.20221,388.00246 196.14703,385.06639 196.14706,381.40898 L 196.14706,380.15936 L 190.56953,380.15936 M 201.75507,377.84301 L 201.75507,397.31866 L 196.14706,397.31866 L 196.14706,392.13735 C 194.86694,394.20988 193.27191,395.74395 191.36196,396.73958 C 189.45197,397.71488 187.1153,398.20254 184.35195,398.20254 C 180.85709,398.20254 178.0734,397.22723 176.00088,395.27662 C 173.94867,393.30569 172.92257,390.67439 172.92257,387.38273 C 172.92257,383.54247 174.20266,380.64703 176.76284,378.6964 C 179.34333,376.74581 183.1836,375.77051 188.28365,375.77048 L 196.14706,375.77048 L 196.14706,375.22187 C 196.14703,372.6414 195.29364,370.65015 193.58688,369.24812 C 191.90039,367.82583 189.52308,367.11467 186.45495,367.11464 C 184.50432,367.11467 182.60451,367.34833 180.7555,367.81564 C 178.90647,368.283 177.12857,368.984 175.42179,369.91864 L 175.42179,364.73733 C 177.47399,363.94492 179.46524,363.35568 181.39555,362.96958 C 183.32583,362.56324 185.20532,362.36005 187.03404,362.36002 C 191.97151,362.36005 195.65938,363.64014 198.09767,366.20029 C 200.53591,368.7605 201.75504,372.6414 201.75507,377.84301 M 235.92129,379.85458 C 235.92126,375.79082 235.07803,372.6414 233.39159,370.4063 C 231.72541,368.17125 229.37858,367.05371 226.35109,367.05368 C 223.34388,367.05371 220.99705,368.17125 219.3106,370.4063 C 217.64444,372.6414 216.81136,375.79082 216.81137,379.85458 C 216.81136,383.89805 217.64444,387.03732 219.3106,389.27238 C 220.99705,391.50747 223.34388,392.62501 226.35109,392.625 C 229.37858,392.62501 231.72541,391.50747 233.39159,389.27238 C 235.07803,387.03732 235.92126,383.89805 235.92129,379.85458 M 241.5293,393.08218 C 241.52927,398.89338 240.23902,403.21114 237.65855,406.03547 C 235.07803,408.8801 231.12601,410.30242 225.80248,410.30243 C 223.83153,410.30242 221.97236,410.15003 220.22495,409.84526 C 218.47751,409.56078 216.78089,409.11377 215.13507,408.50421 L 215.13507,403.04859 C 216.78089,403.94262 218.4064,404.60298 220.0116,405.02968 C 221.61678,405.45637 223.25245,405.66972 224.91861,405.66973 C 228.59631,405.66972 231.34951,404.70457 233.17824,402.77429 C 235.00691,400.86431 235.92126,397.96887 235.92129,394.08796 L 235.92129,391.31443 C 234.76308,393.32601 233.27981,394.8296 231.47145,395.82523 C 229.66305,396.82085 227.49909,397.31866 224.97957,397.31866 C 220.79386,397.31866 217.42093,395.72363 214.86076,392.53357 C 212.30058,389.34351 211.02049,385.11718 211.02049,379.85458 C 211.02049,374.57169 212.30058,370.33521 214.86076,367.14512 C 217.42093,363.95508 220.79386,362.36005 224.97957,362.36002 C 227.49909,362.36005 229.66305,362.85786 231.47145,363.85346 C 233.27981,364.84911 234.76308,366.35271 235.92129,368.36425 L 235.92129,363.18293 L 241.5293,363.18293 L 241.5293,393.08218 M 253.08058,363.18293 L 258.6886,363.18293 L 258.6886,397.31866 L 253.08058,397.31866 L 253.08058,363.18293 M 253.08058,349.89438 L 258.6886,349.89438 L 258.6886,356.99583 L 253.08058,356.99583 L 253.08058,349.89438 M 270.39228,349.89438 L 276.0003,349.89438 L 276.0003,397.31866 L 270.39228,397.31866 L 270.39228,349.89438 M 316.90222,378.8488 L 316.90222,381.59185 L 291.11755,381.59185 C 291.36136,385.45245 292.51954,388.39868 294.59208,390.43056 C 296.68491,392.44214 299.59051,393.44792 303.30888,393.44792 C 305.46266,393.44792 307.54534,393.18377 309.55694,392.65548 C 311.5888,392.12719 313.60036,391.33476 315.59165,390.27817 L 315.59165,395.5814 C 313.58005,396.43479 311.51768,397.085 309.40455,397.53201 C 307.29136,397.97903 305.14772,398.20254 302.97362,398.20254 C 297.52814,398.20254 293.21038,396.61766 290.02033,393.44792 C 286.85058,390.27818 285.2657,385.9909 285.26571,380.58606 C 285.2657,374.99839 286.7693,370.56888 289.7765,367.29751 C 292.804,364.00588 296.87794,362.36005 301.99831,362.36002 C 306.59036,362.36005 310.21727,363.84333 312.87908,366.80985 C 315.56114,369.75612 316.90218,373.7691 316.90222,378.8488 M 311.2942,377.20297 C 311.25354,374.13484 310.38998,371.68641 308.70354,369.85769 C 307.03737,368.02902 304.82261,367.11467 302.05927,367.11464 C 298.93014,367.11467 296.42076,367.99854 294.53112,369.76625 C 292.66177,371.53402 291.58487,374.02308 291.30042,377.23344 L 311.2942,377.20297"
       id="text2430" />
    <rect
       style="opacity:1;fill:none;fill-opacity:1;stroke:#800000;stroke-width:2;stroke-miterlimit:4;stroke-dasharray:none;stroke-opacity:1"
       id="rect2434"
       width="339.71176"
       height="496.37497"
       x="16.16774"
       y="14.017227" />
  </g>
</svg>
