<?xml version="1.0" encoding="UTF-8" standalone="no"?>
<!-- Created with Inkscape (http://www.inkscape.org/) -->

<svg
   xmlns:dc="http://purl.org/dc/elements/1.1/"
   xmlns:cc="http://creativecommons.org/ns#"
   xmlns:rdf="http://www.w3.org/1999/02/22-rdf-syntax-ns#"
   xmlns:svg="http://www.w3.org/2000/svg"
   xmlns="http://www.w3.org/2000/svg"
   xmlns:sodipodi="http://sodipodi.sourceforge.net/DTD/sodipodi-0.dtd"
   xmlns:inkscape="http://www.inkscape.org/namespaces/inkscape"
   width="256"
   height="256"
   id="svg2"
   version="1.1"
   inkscape:version="0.48.0 r9654"
   sodipodi:docname="nu-fumati.svg"
   inkscape:export-filename="nu-fumati.png"
   inkscape:export-xdpi="45"
   inkscape:export-ydpi="45">
  <defs
     id="defs4" />
  <sodipodi:namedview
     id="base"
     pagecolor="#ffffff"
     bordercolor="#666666"
     borderopacity="1.0"
     inkscape:pageopacity="0.0"
     inkscape:pageshadow="2"
     inkscape:zoom="1"
     inkscape:cx="128"
     inkscape:cy="128"
     inkscape:document-units="px"
     inkscape:current-layer="layer1"
     showgrid="false"
     showguides="true"
     inkscape:guide-bbox="true"
     inkscape:window-width="1680"
     inkscape:window-height="977"
     inkscape:window-x="0"
     inkscape:window-y="24"
     inkscape:window-maximized="1"
     units="cm"
     width="10.5cm">
    <inkscape:grid
       type="xygrid"
       id="grid3646"
       empspacing="5"
       visible="true"
       enabled="true"
       snapvisiblegridlinesonly="true" />
  </sodipodi:namedview>
  <metadata
     id="metadata7">
    <rdf:RDF>
      <cc:Work
         rdf:about="">
        <dc:format>image/svg+xml</dc:format>
        <dc:type
           rdf:resource="http://purl.org/dc/dcmitype/StillImage" />
        <dc:title></dc:title>
      </cc:Work>
    </rdf:RDF>
  </metadata>
  <g
     inkscape:label="Layer 1"
     inkscape:groupmode="layer"
     id="layer1"
     transform="translate(-310.44093,-296.79233)">
    <g
       id="g2829">
      <path
         transform="matrix(1.1060606,0,0,1.1587301,286.72881,258.85582)"
         d="M 233,144.5 C 233,196.69091 188.67619,239 134,239 79.32381,239 35,196.69091 35,144.5 35,92.309091 79.32381,50 134,50 c 54.67619,0 99,42.309091 99,94.5 z"
         sodipodi:ry="94.5"
         sodipodi:rx="99"
         sodipodi:cy="144.5"
         sodipodi:cx="134"
         id="path2821"
         style="fill:#ffffff;fill-rule:evenodd;stroke:none;stroke-width:0.88332272000000001px;stroke-linecap:butt;stroke-linejoin:miter;stroke-opacity:1"
         sodipodi:type="arc" />
      <g
         transform="matrix(0.77358663,-0.30828662,0.30828662,0.77358663,-159.59855,124.50524)"
         id="g3706">
        <path
           style="fill:#000000;fill-opacity:1;stroke:none"
           d="m 441,606.19805 0,28.17695 3.8077,0 0,-28.17695 -3.8077,0 z m 8.37694,0 0,28.17695 4.56923,0 0,-28.17695 -4.56923,0 z m 9.13847,0 0,28.17695 167.53864,0 0,-28.17695 -38.07696,0 0,22.08464 -4.56924,0 0,-22.08464 -124.89244,0 z"
           id="rect3640" />
        <path
           style="fill:#000000;fill-opacity:1;stroke:none"
           d="m 502.79265,489.04116 c 0,0 -0.55365,31.58994 -24.15585,50.54983 -23.60218,18.95988 -31.69951,46.19448 -31.69951,46.19448 0,0 3.20531,-36.18273 24.15584,-50.54982 20.95055,-14.36709 31.69952,-46.19449 31.69952,-46.19449 z"
           id="rect3676"
           sodipodi:nodetypes="czczc" />
        <path
           sodipodi:nodetypes="czczc"
           id="path3681"
           d="m 490.78111,494.34575 c 0,0 -0.20374,11.62552 -8.88967,18.60301 -8.68592,6.97749 -11.66584,17.00019 -11.66584,17.00019 0,0 1.1796,-13.31573 8.88967,-18.60301 7.71008,-5.28728 11.66584,-17.00019 11.66584,-17.00019 z"
           style="fill:#000000;fill-opacity:1;stroke:none" />
        <path
           style="fill:#000000;fill-opacity:1;stroke:none"
           d="m 487.35269,536.78396 c 0,0 -0.32038,18.28033 -13.9784,29.25195 -13.658,10.97162 -18.34373,26.73161 -18.34373,26.73161 0,0 1.85483,-20.93806 13.97839,-29.25194 12.12357,-8.31388 18.34374,-26.73162 18.34374,-26.73162 z"
           id="path3683"
           sodipodi:nodetypes="czczc" />
      </g>
      <path
         sodipodi:nodetypes="cssscccssscsccsscsssc"
         id="path2818"
         d="m 316.44093,426.29233 c 0,65.89939 53.60061,119.5 119.5,119.5 65.8994,0 119.5,-53.60061 119.5,-119.5 0,-65.8994 -53.6006,-119.5 -119.5,-119.5 -65.89939,0 -119.5,53.6006 -119.5,119.5 z m 16.65506,0 c 0,-23.66549 7.96025,-45.43642 21.33928,-62.79475 9.73447,9.77112 37.79496,37.94949 70.88807,70.94011 19.69579,19.63479 39.38449,39.18316 54.18096,53.71254 7.39825,7.2647 13.56029,13.27541 17.93021,17.43576 0.69831,0.66483 1.26804,1.20072 1.87369,1.7696 -17.4502,13.64483 -39.44324,21.78169 -63.36727,21.78169 -56.89833,0 -102.84494,-45.94662 -102.84494,-102.84495 z m 32.52939,-75.1299 c 18.37597,-17.20162 43.09369,-27.71505 70.31555,-27.71505 56.89833,0 102.84495,45.94662 102.84495,102.84495 0,26.94307 -10.30505,51.42714 -27.19458,69.74303 -0.77635,-0.72748 -1.64913,-1.56722 -2.6544,-2.52428 -4.24375,-4.04023 -10.40598,-10.01852 -17.77406,-17.2536 -14.73616,-14.47015 -34.39582,-34.01438 -54.07687,-53.63447 -33.5326,-33.42874 -62.25882,-62.22929 -71.46059,-71.46058 z"
         style="font-size:medium;font-style:normal;font-variant:normal;font-weight:normal;font-stretch:normal;text-indent:0;text-align:start;text-decoration:none;line-height:normal;letter-spacing:normal;word-spacing:normal;text-transform:none;direction:ltr;block-progression:tb;writing-mode:lr-tb;text-anchor:start;color:#000000;fill:#ff0000;fill-opacity:1;stroke:none;stroke-width:20;marker:none;visibility:visible;display:inline;overflow:visible;enable-background:accumulate;font-family:Bitstream Vera Sans;-inkscape-font-specification:Bitstream Vera Sans" />
    </g>
  </g>
</svg>
