<?xml version="1.0" encoding="UTF-8" standalone="no"?>
<!DOCTYPE svg PUBLIC "-//W3C//DTD SVG 20010904//EN"
"http://www.w3.org/TR/2001/REC-SVG-20010904/DTD/svg10.dtd">
<!-- Created with Inkscape (http://www.inkscape.org/) -->
<svg
   id="svg1"
   sodipodi:version="0.32"
   inkscape:version="0.39"
   width="80.000000pt"
   height="80.000000pt"
   sodipodi:docbase="/home/nicu/Desktop"
   sodipodi:docname="card_figures_spade.svg"
   xmlns="http://www.w3.org/2000/svg"
   xmlns:cc="http://web.resource.org/cc/"
   xmlns:inkscape="http://www.inkscape.org/namespaces/inkscape"
   xmlns:sodipodi="http://sodipodi.sourceforge.net/DTD/sodipodi-0.dtd"
   xmlns:rdf="http://www.w3.org/1999/02/22-rdf-syntax-ns#"
   xmlns:dc="http://purl.org/dc/elements/1.1/"
   xmlns:xlink="http://www.w3.org/1999/xlink">
  <defs
     id="defs3">
    <linearGradient
       id="linearGradient1575">
      <stop
         style="stop-color:#ffffff;stop-opacity:0.50000000;"
         offset="0.0000000"
         id="stop1576" />
      <stop
         style="stop-color:#ffffff;stop-opacity:0.0000000;"
         offset="1.0000000"
         id="stop1577" />
    </linearGradient>
    <linearGradient
       inkscape:collect="always"
       xlink:href="#linearGradient1575"
       id="linearGradient1555"
       x1="-0.093750000"
       y1="0.066666670"
       x2="0.48124999"
       y2="0.57435900" />
  </defs>
  <sodipodi:namedview
     id="base"
     pagecolor="#ffffff"
     bordercolor="#666666"
     borderopacity="1.0"
     inkscape:pageopacity="0.0"
     inkscape:pageshadow="2"
     inkscape:zoom="1.0000000"
     inkscape:cx="205.02029"
     inkscape:cy="21.136749"
     inkscape:window-width="1016"
     inkscape:window-height="725"
     showgrid="false"
     inkscape:window-x="70"
     inkscape:window-y="32"
     showguides="true"
     inkscape:guide-bbox="true" />
  <metadata
     id="metadata4">
    <rdf:RDF
       id="RDF5">
      <cc:Work
         rdf:about=""
         id="Work6">
        <dc:format
           id="format7">image/svg+xml</dc:format>
        <dc:type
           id="type9"
           rdf:resource="http://purl.org/dc/dcmitype/StillImage" />
        <dc:title
           id="title2218">card figures - spade</dc:title>
        <dc:creator
           id="creator2220">
          <cc:Agent
             id="Agent2221">
            <dc:title
               id="title2222">Nicu Buculei</dc:title>
          </cc:Agent>
        </dc:creator>
        <cc:license
           id="license2224"
           rdf:resource="http://web.resource.org/cc/PublicDomain" />
      </cc:Work>
      <cc:License
         rdf:about="http://web.resource.org/cc/PublicDomain"
         id="License2225">
        <cc:permits
           rdf:resource="http://web.resource.org/cc/Reproduction"
           id="permits2226" />
        <cc:permits
           rdf:resource="http://web.resource.org/cc/Distribution"
           id="permits2227" />
        <cc:permits
           rdf:resource="http://web.resource.org/cc/DerivativeWorks"
           id="permits2228" />
      </cc:License>
    </rdf:RDF>
  </metadata>
  <g
     id="g1556"
     transform="translate(-296.2500,7.500000)">
    <g
       id="g1600"
       transform="translate(62.59589,-152.9284)">
      <path
         style="fill:#000000;fill-opacity:1.0000000;fill-rule:evenodd;stroke:#000000;stroke-width:1.2500000;stroke-linecap:butt;stroke-linejoin:round;stroke-miterlimit:4.0000000;stroke-opacity:1.0000000;"
         d="M 283.40625,149.59375 C 272.46300,168.21374 230.02737,201.60234 255.53125,211.71875 C 271.01241,216.37572 278.37966,206.84268 281.50000,200.53125 L 282.12500,200.53125 C 282.10152,201.71802 281.54634,229.90764 279.90625,231.28125 C 276.30793,234.29485 271.75000,234.06250 271.75000,234.06250 L 271.84375,237.34375 L 295.65625,237.25000 L 295.75000,234.00000 C 295.75000,234.00000 291.22331,234.20110 287.62500,231.18750 C 285.98467,229.81369 285.39832,201.67094 285.37500,200.50000 L 285.62500,200.50000 C 288.14530,205.65727 297.70886,216.33357 308.22908,212.26764 C 338.99100,200.86985 292.76042,170.30208 283.40625,149.59375 z "
         id="path1561"
         sodipodi:nodetypes="cccccccccccccc" />
    </g>
    <path
       style="fill:url(#linearGradient1555);fill-opacity:1.0000000;fill-rule:evenodd;stroke:none;stroke-width:1.2500000;stroke-linecap:butt;stroke-linejoin:round;stroke-miterlimit:4.0000000;stroke-opacity:1.0000000;"
       d="M 345.97753,-3.1574695 C 335.03428,15.462520 292.59865,48.851122 318.10253,58.967532 C 333.58369,63.624502 340.95094,54.091462 344.07128,47.780032 L 344.69628,47.780032 C 344.67280,48.966802 344.11762,77.156422 342.47753,78.530032 C 338.87921,81.543632 334.32128,81.311282 334.32128,81.311282 L 334.41503,84.592532 L 358.22753,84.498782 L 358.32128,81.248782 C 358.32128,81.248782 353.79459,81.449882 350.19628,78.436282 C 348.55595,77.062472 347.96960,48.919722 347.94628,47.748782 L 348.19628,47.748782 C 350.71658,52.906052 360.28014,63.582352 370.80036,59.516422 C 401.56228,48.118632 355.33170,17.550860 345.97753,-3.1574695 z "
       id="path1554"
       sodipodi:nodetypes="cccccccccccccc" />
  </g>
</svg>
