<?xml version="1.0" encoding="UTF-8" standalone="no"?>
<!DOCTYPE svg PUBLIC "-//W3C//DTD SVG 20010904//EN"
"http://www.w3.org/TR/2001/REC-SVG-20010904/DTD/svg10.dtd">
<!-- Created with Inkscape (http://www.inkscape.org/) -->
<svg
   id="svg1"
   sodipodi:version="0.32"
   inkscape:version="0.38.1"
   width="200.00000pt"
   height="200.00000pt"
   sodipodi:docname="honey.svg"
   xmlns="http://www.w3.org/2000/svg"
   xmlns:inkscape="http://www.inkscape.org/namespaces/inkscape"
   xmlns:sodipodi="http://sodipodi.sourceforge.net/DTD/sodipodi-0.dtd"
   xmlns:xlink="http://www.w3.org/1999/xlink"
   sodipodi:docbase="/var/www/html/svg_gallery/svg/misc">
  <defs
     id="defs3">
    <linearGradient
       id="linearGradient856">
      <stop
         style="stop-color:#ffffff;stop-opacity:0.50000000;"
         offset="0.0000000"
         id="stop857" />
      <stop
         style="stop-color:#ffffff;stop-opacity:0.25000000;"
         offset="1.0000000"
         id="stop858" />
    </linearGradient>
    <linearGradient
       xlink:href="#linearGradient856"
       id="linearGradient859"
       x1="-1.0121951"
       y1="0.50781250"
       x2="0.20731707"
       y2="0.70312500" />
  </defs>
  <sodipodi:namedview
     id="base"
     pagecolor="#ffffff"
     bordercolor="#666666"
     borderopacity="1.0"
     inkscape:pageopacity="0.0"
     inkscape:pageshadow="2"
     inkscape:zoom="1.0000000"
     inkscape:cx="137.88931"
     inkscape:cy="84.812012"
     inkscape:window-width="885"
     inkscape:window-height="719"
     inkscape:window-x="196"
     inkscape:window-y="39" />
  <g
     id="g842"
     transform="translate(-3.750000,0.000000)">
    <path
       style="fill:#ffc62a;fill-opacity:1.0000000;fill-rule:evenodd;stroke:#ff9500;stroke-width:2.5000000;"
       d="M 153.91391,222.46025 L 91.602189,241.09124 L 43.532681,198.92778 L 57.774892,138.13332 L 120.08661,119.50233 L 168.15612,161.66578 L 153.91391,222.46025 z "
       id="path854"
       sodipodi:nodetypes="ccccccc" />
    <path
       style="fill:#ffc62a;fill-opacity:1.0000000;fill-rule:evenodd;stroke:#ff9500;stroke-width:2.5000000;"
       d="M 233.78921,140.35318 L 171.47749,158.98416 L 123.40798,116.82070 L 137.65020,56.026243 L 199.96191,37.395251 L 248.03142,79.558708 L 233.78921,140.35318 z "
       id="path853"
       sodipodi:nodetypes="ccccccc" />
    <path
       style="fill:#ffc62a;fill-opacity:1.0000000;fill-rule:evenodd;stroke:#ff9500;stroke-width:2.5000000;"
       d="M 120.07027,115.99896 L 57.758558,134.62995 L 9.6890451,92.466485 L 23.931260,31.672032 L 86.242981,13.041042 L 134.31249,55.204501 L 120.07027,115.99896 z "
       id="path852"
       sodipodi:nodetypes="ccccccc" />
    <path
       style="fill:url(#linearGradient859);fill-opacity:1;fill-rule:evenodd;stroke-width:1.0000000pt;"
       d="M 84.334586,16.583630 C 84.334586,16.583630 25.572423,31.818265 25.572423,34.538735 C 25.572423,37.259206 11.970071,86.771769 12.514165,91.668616 C 12.514165,93.844992 52.233034,130.84339 57.129881,130.84339 C 38.086588,86.227678 27.748799,31.818265 84.334586,16.583630 z "
       id="path855"
       sodipodi:nodetypes="ccccc" />
    <path
       style="fill:url(#linearGradient859);fill-opacity:1;fill-rule:evenodd;stroke-width:1.0000000pt;"
       d="M 197.51411,40.523759 C 197.51411,40.523759 138.75195,55.758399 138.75195,58.478869 C 138.75195,61.199339 125.14960,110.71190 125.69370,115.60875 C 125.69370,117.78513 165.41256,154.78353 170.30941,154.78353 C 151.26612,110.16781 140.92833,55.758399 197.51411,40.523759 z "
       id="path860"
       sodipodi:nodetypes="ccccc" />
    <path
       style="fill:url(#linearGradient859);fill-opacity:1;fill-rule:evenodd;stroke-width:1.0000000pt;"
       d="M 118.07638,122.13787 C 118.07638,122.13787 59.314204,137.37251 59.314204,140.09298 C 59.314204,142.81345 45.711854,192.32601 46.255954,197.22286 C 46.255954,199.39924 85.974824,236.39764 90.871664,236.39764 C 71.828374,191.78192 61.490584,137.37251 118.07638,122.13787 z "
       id="path861"
       sodipodi:nodetypes="ccccc" />
  </g>

  <rdf:RDF 
   xmlns="http://web.resource.org/cc/"
   xmlns:dc="http://purl.org/dc/elements/1.1/"
   xmlns:rdf="http://www.w3.org/1999/02/22-rdf-syntax-ns#">
  <Work rdf:about="">
    <dc:title>Clipart by Nicu Buculei - bee</dc:title>
    <dc:rights>
       <Agent>
         <dc:title>Nicu Buculei</dc:title>
       </Agent>
    </dc:rights>
    <dc:type rdf:resource="http://purl.org/dc/dcmitype/StillImage" />
    <license rdf:resource="http://web.resource.org/cc/PublicDomain" />
  </Work>
   
  <License rdf:about="http://web.resource.org/cc/PublicDomain">
     <permits rdf:resource="http://web.resource.org/cc/Reproduction" />
     <permits rdf:resource="http://web.resource.org/cc/Distribution" />
     <permits rdf:resource="http://web.resource.org/cc/DerivativeWorks" />
  </License>

</rdf:RDF>
</svg>
