<?xml version="1.0" encoding="UTF-8" standalone="no"?>
<!-- Created with Inkscape (http://www.inkscape.org/) -->
<svg
   xmlns:dc="http://purl.org/dc/elements/1.1/"
   xmlns:cc="http://web.resource.org/cc/"
   xmlns:rdf="http://www.w3.org/1999/02/22-rdf-syntax-ns#"
   xmlns:svg="http://www.w3.org/2000/svg"
   xmlns="http://www.w3.org/2000/svg"
   xmlns:xlink="http://www.w3.org/1999/xlink"
   xmlns:sodipodi="http://sodipodi.sourceforge.net/DTD/sodipodi-0.dtd"
   xmlns:inkscape="http://www.inkscape.org/namespaces/inkscape"
   width="640"
   height="640"
   id="svg2"
   sodipodi:version="0.32"
   inkscape:version="0.45.1"
   version="1.0"
   sodipodi:docbase="/home/nicu/Desktop"
   sodipodi:docname="hourglass.svg"
   inkscape:output_extension="org.inkscape.output.svg.inkscape">
  <defs
     id="defs4">
    <linearGradient
       id="linearGradient9521">
      <stop
         style="stop-color:#7f5808;stop-opacity:1;"
         offset="0"
         id="stop9523" />
      <stop
         style="stop-color:#966909;stop-opacity:1;"
         offset="1"
         id="stop9525" />
    </linearGradient>
    <linearGradient
       inkscape:collect="always"
       id="linearGradient3453">
      <stop
         style="stop-color:#ffffff;stop-opacity:1;"
         offset="0"
         id="stop3455" />
      <stop
         style="stop-color:#ffffff;stop-opacity:0;"
         offset="1"
         id="stop3457" />
    </linearGradient>
    <filter
       inkscape:collect="always"
       x="-0.20983607"
       width="1.4196721"
       y="-0.20983607"
       height="1.4196721"
       id="filter4498">
      <feGaussianBlur
         inkscape:collect="always"
         stdDeviation="2.8852459"
         id="feGaussianBlur4500" />
    </filter>
    <radialGradient
       inkscape:collect="always"
       xlink:href="#linearGradient3453"
       id="radialGradient4506"
       gradientUnits="userSpaceOnUse"
       gradientTransform="matrix(1.513355,3.0304491e-2,-2.8564651e-2,1.42647,-40.317014,-255.63738)"
       cx="113"
       cy="584.36218"
       fx="113"
       fy="584.36218"
       r="16.5" />
    <radialGradient
       inkscape:collect="always"
       xlink:href="#linearGradient3453"
       id="radialGradient4514"
       gradientUnits="userSpaceOnUse"
       gradientTransform="matrix(1.513355,3.0304491e-2,-2.8564651e-2,1.42647,-40.317014,-255.63738)"
       cx="113"
       cy="584.36218"
       fx="113"
       fy="584.36218"
       r="16.5" />
    <radialGradient
       inkscape:collect="always"
       xlink:href="#linearGradient3453"
       id="radialGradient4522"
       gradientUnits="userSpaceOnUse"
       gradientTransform="matrix(1.513355,3.0304491e-2,-2.8564651e-2,1.42647,-40.317014,-255.63738)"
       cx="113"
       cy="584.36218"
       fx="113"
       fy="584.36218"
       r="16.5" />
    <radialGradient
       inkscape:collect="always"
       xlink:href="#linearGradient3453"
       id="radialGradient4530"
       gradientUnits="userSpaceOnUse"
       gradientTransform="matrix(1.513355,3.0304491e-2,-2.8564651e-2,1.42647,-40.317014,-255.63738)"
       cx="113"
       cy="584.36218"
       fx="113"
       fy="584.36218"
       r="16.5" />
    <radialGradient
       inkscape:collect="always"
       xlink:href="#linearGradient3453"
       id="radialGradient4538"
       gradientUnits="userSpaceOnUse"
       gradientTransform="matrix(1.513355,3.0304491e-2,-2.8564651e-2,1.42647,-40.317014,-255.63738)"
       cx="113"
       cy="584.36218"
       fx="113"
       fy="584.36218"
       r="16.5" />
    <radialGradient
       inkscape:collect="always"
       xlink:href="#linearGradient3453"
       id="radialGradient4546"
       gradientUnits="userSpaceOnUse"
       gradientTransform="matrix(1.513355,3.0304491e-2,-2.8564651e-2,1.42647,-40.317014,-255.63738)"
       cx="113"
       cy="584.36218"
       fx="113"
       fy="584.36218"
       r="16.5" />
    <radialGradient
       inkscape:collect="always"
       xlink:href="#linearGradient3453"
       id="radialGradient4554"
       gradientUnits="userSpaceOnUse"
       gradientTransform="matrix(1.513355,3.0304491e-2,-2.8564651e-2,1.42647,-40.317014,-255.63738)"
       cx="113"
       cy="584.36218"
       fx="113"
       fy="584.36218"
       r="16.5" />
    <radialGradient
       inkscape:collect="always"
       xlink:href="#linearGradient3453"
       id="radialGradient4562"
       gradientUnits="userSpaceOnUse"
       gradientTransform="matrix(1.513355,3.0304491e-2,-2.8564651e-2,1.42647,-40.317014,-255.63738)"
       cx="113"
       cy="584.36218"
       fx="113"
       fy="584.36218"
       r="16.5" />
    <radialGradient
       inkscape:collect="always"
       xlink:href="#linearGradient3453"
       id="radialGradient4570"
       gradientUnits="userSpaceOnUse"
       gradientTransform="matrix(1.513355,3.0304491e-2,-2.8564651e-2,1.42647,-40.317014,-255.63738)"
       cx="113"
       cy="584.36218"
       fx="113"
       fy="584.36218"
       r="16.5" />
    <radialGradient
       inkscape:collect="always"
       xlink:href="#linearGradient3453"
       id="radialGradient4579"
       gradientUnits="userSpaceOnUse"
       gradientTransform="matrix(1.513355,3.0304491e-2,-2.8564651e-2,1.42647,-40.317014,-255.63738)"
       cx="113"
       cy="584.36218"
       fx="113"
       fy="584.36218"
       r="16.5" />
    <radialGradient
       inkscape:collect="always"
       xlink:href="#linearGradient3453"
       id="radialGradient4595"
       gradientUnits="userSpaceOnUse"
       gradientTransform="matrix(1.513355,3.0304491e-2,-2.8564651e-2,1.42647,-40.317014,-255.63738)"
       cx="113"
       cy="584.36218"
       fx="113"
       fy="584.36218"
       r="16.5" />
    <radialGradient
       inkscape:collect="always"
       xlink:href="#linearGradient3453"
       id="radialGradient4612"
       gradientUnits="userSpaceOnUse"
       gradientTransform="matrix(1.513355,3.0304491e-2,-2.8564651e-2,1.42647,-40.317014,-255.63738)"
       cx="113"
       cy="584.36218"
       fx="113"
       fy="584.36218"
       r="16.5" />
    <radialGradient
       inkscape:collect="always"
       xlink:href="#linearGradient3453"
       id="radialGradient4620"
       gradientUnits="userSpaceOnUse"
       gradientTransform="matrix(1.513355,3.0304491e-2,-2.8564651e-2,1.42647,-40.317014,-255.63738)"
       cx="113"
       cy="584.36218"
       fx="113"
       fy="584.36218"
       r="16.5" />
    <radialGradient
       inkscape:collect="always"
       xlink:href="#linearGradient3453"
       id="radialGradient4628"
       gradientUnits="userSpaceOnUse"
       gradientTransform="matrix(1.513355,3.0304491e-2,-2.8564651e-2,1.42647,-40.317014,-255.63738)"
       cx="113"
       cy="584.36218"
       fx="113"
       fy="584.36218"
       r="16.5" />
    <radialGradient
       inkscape:collect="always"
       xlink:href="#linearGradient3453"
       id="radialGradient4636"
       gradientUnits="userSpaceOnUse"
       gradientTransform="matrix(1.513355,3.0304491e-2,-2.8564651e-2,1.42647,-40.317014,-255.63738)"
       cx="113"
       cy="584.36218"
       fx="113"
       fy="584.36218"
       r="16.5" />
    <filter
       inkscape:collect="always"
       id="filter6596">
      <feGaussianBlur
         inkscape:collect="always"
         stdDeviation="2.9539"
         id="feGaussianBlur6598" />
    </filter>
    <linearGradient
       inkscape:collect="always"
       xlink:href="#linearGradient9521"
       id="linearGradient9546"
       x1="239"
       y1="701.36218"
       x2="448"
       y2="824.36218"
       gradientUnits="userSpaceOnUse" />
    <linearGradient
       inkscape:collect="always"
       xlink:href="#linearGradient9521"
       id="linearGradient9566"
       gradientUnits="userSpaceOnUse"
       x1="239"
       y1="701.36218"
       x2="160.60794"
       y2="824.36218" />
    <linearGradient
       inkscape:collect="always"
       xlink:href="#linearGradient9521"
       id="linearGradient9568"
       x1="226"
       y1="763.375"
       x2="549"
       y2="763.375"
       gradientUnits="userSpaceOnUse" />
  </defs>
  <sodipodi:namedview
     id="base"
     pagecolor="#ffffff"
     bordercolor="#666666"
     borderopacity="1.0"
     gridtolerance="10000"
     guidetolerance="10"
     objecttolerance="10"
     inkscape:pageopacity="0.0"
     inkscape:pageshadow="2"
     inkscape:zoom="0.8984375"
     inkscape:cx="320"
     inkscape:cy="320"
     inkscape:document-units="px"
     inkscape:current-layer="layer1"
     width="640px"
     height="640px"
     inkscape:window-width="1142"
     inkscape:window-height="787"
     inkscape:window-x="0"
     inkscape:window-y="24" />
  <metadata
     id="metadata7">
    <rdf:RDF>
      <cc:Work
         rdf:about="">
        <dc:format>image/svg+xml</dc:format>
        <dc:type
           rdf:resource="http://purl.org/dc/dcmitype/StillImage" />
      </cc:Work>
    </rdf:RDF>
  </metadata>
  <g
     inkscape:label="Layer 1"
     inkscape:groupmode="layer"
     id="layer1">
    <g
       transform="matrix(0.9692877,0,0,-0.9692877,-65.476003,832.72789)"
       id="g9560">
      <path
         style="opacity:1;fill:url(#linearGradient9568);fill-opacity:1;stroke:none;stroke-width:1;stroke-linecap:round;stroke-linejoin:bevel;stroke-miterlimit:4;stroke-dasharray:none;stroke-dashoffset:0;stroke-opacity:1"
         d="M 387.5,687.375 C 298.352,687.375 226,713.359 226,745.375 L 226,781.375 C 226,813.391 298.352,839.375 387.5,839.375 C 476.648,839.375 549,813.391 549,781.375 L 549,745.375 C 549,713.359 476.648,687.375 387.5,687.375 z "
         id="path9562"
         sodipodi:nodetypes="cccsccc" />
      <path
         sodipodi:type="arc"
         style="opacity:1;fill:url(#linearGradient9566);fill-opacity:1;stroke:none;stroke-width:1;stroke-linecap:round;stroke-linejoin:bevel;stroke-miterlimit:4;stroke-dasharray:none;stroke-dashoffset:0;stroke-opacity:1"
         id="path9564"
         sodipodi:cx="387.5"
         sodipodi:cy="766.36218"
         sodipodi:rx="161.5"
         sodipodi:ry="58"
         d="M 549 766.36218 A 161.5 58 0 1 1  226,766.36218 A 161.5 58 0 1 1  549 766.36218 z"
         transform="translate(0,-21)" />
    </g>
    <path
       style="fill:#375e6f;fill-opacity:0.79005528;fill-rule:evenodd;stroke:none;stroke-width:1px;stroke-linecap:butt;stroke-linejoin:miter;stroke-opacity:1"
       d="M 211.41359,135.53125 L 211.03859,136.46875 C 273.84845,165.51826 336.65433,162.41508 399.35109,137.5 L 399.10109,136.5 C 336.46451,151.38903 273.93707,160.12501 211.41359,135.53125 z "
       id="path2239"
       sodipodi:nodetypes="ccccc" />
    <g
       id="g9548"
       transform="matrix(0.9692877,0,0,0.9692877,-61.190373,-201.41477)">
      <path
         sodipodi:nodetypes="cccsccc"
         id="path9516"
         d="M 387.5,687.375 C 298.352,687.375 226,713.359 226,745.375 L 226,781.375 C 226,813.391 298.352,839.375 387.5,839.375 C 476.648,839.375 549,813.391 549,781.375 L 549,745.375 C 549,713.359 476.648,687.375 387.5,687.375 z "
         style="opacity:1;fill:#7f5808;fill-opacity:1;stroke:none;stroke-width:1;stroke-linecap:round;stroke-linejoin:bevel;stroke-miterlimit:4;stroke-dasharray:none;stroke-dashoffset:0;stroke-opacity:1" />
      <path
         transform="translate(0,-21)"
         d="M 549 766.36218 A 161.5 58 0 1 1  226,766.36218 A 161.5 58 0 1 1  549 766.36218 z"
         sodipodi:ry="58"
         sodipodi:rx="161.5"
         sodipodi:cy="766.36218"
         sodipodi:cx="387.5"
         id="path7574"
         style="opacity:1;fill:url(#linearGradient9546);fill-opacity:1;stroke:none;stroke-width:1;stroke-linecap:round;stroke-linejoin:bevel;stroke-miterlimit:4;stroke-dasharray:none;stroke-dashoffset:0;stroke-opacity:1"
         sodipodi:type="arc" />
    </g>
    <g
       id="g4630"
       transform="matrix(0.9692877,0,0,0.9692877,162.71508,-347.77721)">
      <path
         id="path4632"
         d="M 152,484.86218 C 152,501.69818 138.336,515.36218 121.5,515.36218 C 104.664,515.36218 91,501.69818 91,484.86218 C 91,468.02618 104.664,454.36218 121.5,454.36218 C 138.336,454.36218 152,468.02618 152,484.86218 z "
         style="fill:#000000;fill-opacity:1;stroke:none;stroke-width:1;stroke-linecap:round;stroke-linejoin:bevel;stroke-miterlimit:4;stroke-dashoffset:0;stroke-opacity:1"
         transform="translate(-12,105)" />
      <path
         style="fill:url(#radialGradient4636);fill-opacity:1;stroke:none;stroke-width:1;stroke-linecap:round;stroke-linejoin:bevel;stroke-miterlimit:4;stroke-dashoffset:0;stroke-opacity:1;filter:url(#filter4498)"
         d="M 132,581.86218 C 132,590.97018 124.608,598.36218 115.5,598.36218 C 106.392,598.36218 99,590.97018 99,581.86218 C 99,572.75418 106.392,565.36218 115.5,565.36218 C 124.608,565.36218 132,572.75418 132,581.86218 z "
         id="path4634" />
    </g>
    <g
       transform="matrix(0.9692877,0,0,0.9692877,172.40796,-178.15186)"
       id="g4589">
      <path
         transform="translate(-12,105)"
         style="fill:#000000;fill-opacity:1;stroke:none;stroke-width:1;stroke-linecap:round;stroke-linejoin:bevel;stroke-miterlimit:4;stroke-dashoffset:0;stroke-opacity:1"
         d="M 152,484.86218 C 152,501.69818 138.336,515.36218 121.5,515.36218 C 104.664,515.36218 91,501.69818 91,484.86218 C 91,468.02618 104.664,454.36218 121.5,454.36218 C 138.336,454.36218 152,468.02618 152,484.86218 z "
         id="path4591" />
      <path
         id="path4593"
         d="M 132,581.86218 C 132,590.97018 124.608,598.36218 115.5,598.36218 C 106.392,598.36218 99,590.97018 99,581.86218 C 99,572.75418 106.392,565.36218 115.5,565.36218 C 124.608,565.36218 132,572.75418 132,581.86218 z "
         style="fill:url(#radialGradient4595);fill-opacity:1;stroke:none;stroke-width:1;stroke-linecap:round;stroke-linejoin:bevel;stroke-miterlimit:4;stroke-dashoffset:0;stroke-opacity:1;filter:url(#filter4498)" />
    </g>
    <g
       id="g4532"
       transform="matrix(0.9692877,0,0,0.9692877,122.97429,-76.376655)">
      <path
         id="path4534"
         d="M 152,484.86218 C 152,501.69818 138.336,515.36218 121.5,515.36218 C 104.664,515.36218 91,501.69818 91,484.86218 C 91,468.02618 104.664,454.36218 121.5,454.36218 C 138.336,454.36218 152,468.02618 152,484.86218 z "
         style="fill:#000000;fill-opacity:1;stroke:none;stroke-width:1;stroke-linecap:round;stroke-linejoin:bevel;stroke-miterlimit:4;stroke-dashoffset:0;stroke-opacity:1"
         transform="translate(-12,105)" />
      <path
         style="fill:url(#radialGradient4538);fill-opacity:1;stroke:none;stroke-width:1;stroke-linecap:round;stroke-linejoin:bevel;stroke-miterlimit:4;stroke-dashoffset:0;stroke-opacity:1;filter:url(#filter4498)"
         d="M 132,581.86218 C 132,590.97018 124.608,598.36218 115.5,598.36218 C 106.392,598.36218 99,590.97018 99,581.86218 C 99,572.75418 106.392,565.36218 115.5,565.36218 C 124.608,565.36218 132,572.75418 132,581.86218 z "
         id="path4536" />
    </g>
    <g
       transform="matrix(0.9692877,0,0,0.9692877,157.86865,-57.960188)"
       id="g4524">
      <path
         transform="translate(-12,105)"
         style="fill:#000000;fill-opacity:1;stroke:none;stroke-width:1;stroke-linecap:round;stroke-linejoin:bevel;stroke-miterlimit:4;stroke-dashoffset:0;stroke-opacity:1"
         d="M 152,484.86218 C 152,501.69818 138.336,515.36218 121.5,515.36218 C 104.664,515.36218 91,501.69818 91,484.86218 C 91,468.02618 104.664,454.36218 121.5,454.36218 C 138.336,454.36218 152,468.02618 152,484.86218 z "
         id="path4526" />
      <path
         id="path4528"
         d="M 132,581.86218 C 132,590.97018 124.608,598.36218 115.5,598.36218 C 106.392,598.36218 99,590.97018 99,581.86218 C 99,572.75418 106.392,565.36218 115.5,565.36218 C 124.608,565.36218 132,572.75418 132,581.86218 z "
         style="fill:url(#radialGradient4530);fill-opacity:1;stroke:none;stroke-width:1;stroke-linecap:round;stroke-linejoin:bevel;stroke-miterlimit:4;stroke-dashoffset:0;stroke-opacity:1;filter:url(#filter4498)" />
    </g>
    <g
       id="g4516"
       transform="matrix(0.9692877,0,0,0.9692877,287.7532,-71.530216)">
      <path
         id="path4518"
         d="M 152,484.86218 C 152,501.69818 138.336,515.36218 121.5,515.36218 C 104.664,515.36218 91,501.69818 91,484.86218 C 91,468.02618 104.664,454.36218 121.5,454.36218 C 138.336,454.36218 152,468.02618 152,484.86218 z "
         style="fill:#000000;fill-opacity:1;stroke:none;stroke-width:1;stroke-linecap:round;stroke-linejoin:bevel;stroke-miterlimit:4;stroke-dashoffset:0;stroke-opacity:1"
         transform="translate(-12,105)" />
      <path
         style="fill:url(#radialGradient4522);fill-opacity:1;stroke:none;stroke-width:1;stroke-linecap:round;stroke-linejoin:bevel;stroke-miterlimit:4;stroke-dashoffset:0;stroke-opacity:1;filter:url(#filter4498)"
         d="M 132,581.86218 C 132,590.97018 124.608,598.36218 115.5,598.36218 C 106.392,598.36218 99,590.97018 99,581.86218 C 99,572.75418 106.392,565.36218 115.5,565.36218 C 124.608,565.36218 132,572.75418 132,581.86218 z "
         id="path4520" />
    </g>
    <g
       transform="matrix(0.9692877,0,0,0.9692877,249.95098,-57.960188)"
       id="g4508">
      <path
         transform="translate(-12,105)"
         style="fill:#000000;fill-opacity:1;stroke:none;stroke-width:1;stroke-linecap:round;stroke-linejoin:bevel;stroke-miterlimit:4;stroke-dashoffset:0;stroke-opacity:1"
         d="M 152,484.86218 C 152,501.69818 138.336,515.36218 121.5,515.36218 C 104.664,515.36218 91,501.69818 91,484.86218 C 91,468.02618 104.664,454.36218 121.5,454.36218 C 138.336,454.36218 152,468.02618 152,484.86218 z "
         id="path4510" />
      <path
         id="path4512"
         d="M 132,581.86218 C 132,590.97018 124.608,598.36218 115.5,598.36218 C 106.392,598.36218 99,590.97018 99,581.86218 C 99,572.75418 106.392,565.36218 115.5,565.36218 C 124.608,565.36218 132,572.75418 132,581.86218 z "
         style="fill:url(#radialGradient4514);fill-opacity:1;stroke:none;stroke-width:1;stroke-linecap:round;stroke-linejoin:bevel;stroke-miterlimit:4;stroke-dashoffset:0;stroke-opacity:1;filter:url(#filter4498)" />
    </g>
    <g
       id="g4502"
       transform="matrix(0.9692877,0,0,0.9692877,205.36375,-50.205887)">
      <path
         id="path2209"
         d="M 152,484.86218 C 152,501.69818 138.336,515.36218 121.5,515.36218 C 104.664,515.36218 91,501.69818 91,484.86218 C 91,468.02618 104.664,454.36218 121.5,454.36218 C 138.336,454.36218 152,468.02618 152,484.86218 z "
         style="fill:#000000;fill-opacity:1;stroke:none;stroke-width:1;stroke-linecap:round;stroke-linejoin:bevel;stroke-miterlimit:4;stroke-dashoffset:0;stroke-opacity:1"
         transform="translate(-12,105)" />
      <path
         style="fill:url(#radialGradient4506);fill-opacity:1;stroke:none;stroke-width:1;stroke-linecap:round;stroke-linejoin:bevel;stroke-miterlimit:4;stroke-dashoffset:0;stroke-opacity:1;filter:url(#filter4498)"
         d="M 132,581.86218 C 132,590.97018 124.608,598.36218 115.5,598.36218 C 106.392,598.36218 99,590.97018 99,581.86218 C 99,572.75418 106.392,565.36218 115.5,565.36218 C 124.608,565.36218 132,572.75418 132,581.86218 z "
         id="path2212" />
    </g>
    <g
       transform="matrix(0.9692877,0,0,0.9692877,233.47309,-105.45529)"
       id="g4556">
      <path
         transform="translate(-12,105)"
         style="fill:#000000;fill-opacity:1;stroke:none;stroke-width:1;stroke-linecap:round;stroke-linejoin:bevel;stroke-miterlimit:4;stroke-dashoffset:0;stroke-opacity:1"
         d="M 152,484.86218 C 152,501.69818 138.336,515.36218 121.5,515.36218 C 104.664,515.36218 91,501.69818 91,484.86218 C 91,468.02618 104.664,454.36218 121.5,454.36218 C 138.336,454.36218 152,468.02618 152,484.86218 z "
         id="path4558" />
      <path
         id="path4560"
         d="M 132,581.86218 C 132,590.97018 124.608,598.36218 115.5,598.36218 C 106.392,598.36218 99,590.97018 99,581.86218 C 99,572.75418 106.392,565.36218 115.5,565.36218 C 124.608,565.36218 132,572.75418 132,581.86218 z "
         style="fill:url(#radialGradient4562);fill-opacity:1;stroke:none;stroke-width:1;stroke-linecap:round;stroke-linejoin:bevel;stroke-miterlimit:4;stroke-dashoffset:0;stroke-opacity:1;filter:url(#filter4498)" />
    </g>
    <g
       transform="matrix(0.9692877,0,0,0.9692877,188.88585,-102.54742)"
       id="g4540">
      <path
         transform="translate(-12,105)"
         style="fill:#000000;fill-opacity:1;stroke:none;stroke-width:1;stroke-linecap:round;stroke-linejoin:bevel;stroke-miterlimit:4;stroke-dashoffset:0;stroke-opacity:1"
         d="M 152,484.86218 C 152,501.69818 138.336,515.36218 121.5,515.36218 C 104.664,515.36218 91,501.69818 91,484.86218 C 91,468.02618 104.664,454.36218 121.5,454.36218 C 138.336,454.36218 152,468.02618 152,484.86218 z "
         id="path4542" />
      <path
         id="path4544"
         d="M 132,581.86218 C 132,590.97018 124.608,598.36218 115.5,598.36218 C 106.392,598.36218 99,590.97018 99,581.86218 C 99,572.75418 106.392,565.36218 115.5,565.36218 C 124.608,565.36218 132,572.75418 132,581.86218 z "
         style="fill:url(#radialGradient4546);fill-opacity:1;stroke:none;stroke-width:1;stroke-linecap:round;stroke-linejoin:bevel;stroke-miterlimit:4;stroke-dashoffset:0;stroke-opacity:1;filter:url(#filter4498)" />
    </g>
    <g
       id="g4548"
       transform="matrix(0.9692877,0,0,0.9692877,279.02961,-119.02532)">
      <path
         id="path4550"
         d="M 152,484.86218 C 152,501.69818 138.336,515.36218 121.5,515.36218 C 104.664,515.36218 91,501.69818 91,484.86218 C 91,468.02618 104.664,454.36218 121.5,454.36218 C 138.336,454.36218 152,468.02618 152,484.86218 z "
         style="fill:#000000;fill-opacity:1;stroke:none;stroke-width:1;stroke-linecap:round;stroke-linejoin:bevel;stroke-miterlimit:4;stroke-dashoffset:0;stroke-opacity:1"
         transform="translate(-12,105)" />
      <path
         style="fill:url(#radialGradient4554);fill-opacity:1;stroke:none;stroke-width:1;stroke-linecap:round;stroke-linejoin:bevel;stroke-miterlimit:4;stroke-dashoffset:0;stroke-opacity:1;filter:url(#filter4498)"
         d="M 132,581.86218 C 132,590.97018 124.608,598.36218 115.5,598.36218 C 106.392,598.36218 99,590.97018 99,581.86218 C 99,572.75418 106.392,565.36218 115.5,565.36218 C 124.608,565.36218 132,572.75418 132,581.86218 z "
         id="path4552" />
    </g>
    <g
       id="g4564"
       transform="matrix(0.9692877,0,0,0.9692877,144.29862,-124.84104)">
      <path
         id="path4566"
         d="M 152,484.86218 C 152,501.69818 138.336,515.36218 121.5,515.36218 C 104.664,515.36218 91,501.69818 91,484.86218 C 91,468.02618 104.664,454.36218 121.5,454.36218 C 138.336,454.36218 152,468.02618 152,484.86218 z "
         style="fill:#000000;fill-opacity:1;stroke:none;stroke-width:1;stroke-linecap:round;stroke-linejoin:bevel;stroke-miterlimit:4;stroke-dashoffset:0;stroke-opacity:1"
         transform="translate(-12,105)" />
      <path
         style="fill:url(#radialGradient4570);fill-opacity:1;stroke:none;stroke-width:1;stroke-linecap:round;stroke-linejoin:bevel;stroke-miterlimit:4;stroke-dashoffset:0;stroke-opacity:1;filter:url(#filter4498)"
         d="M 132,581.86218 C 132,590.97018 124.608,598.36218 115.5,598.36218 C 106.392,598.36218 99,590.97018 99,581.86218 C 99,572.75418 106.392,565.36218 115.5,565.36218 C 124.608,565.36218 132,572.75418 132,581.86218 z "
         id="path4568" />
    </g>
    <g
       transform="matrix(0.9692877,0,0,0.9692877,201.48659,-153.91967)"
       id="g4573">
      <path
         transform="translate(-12,105)"
         style="fill:#000000;fill-opacity:1;stroke:none;stroke-width:1;stroke-linecap:round;stroke-linejoin:bevel;stroke-miterlimit:4;stroke-dashoffset:0;stroke-opacity:1"
         d="M 152,484.86218 C 152,501.69818 138.336,515.36218 121.5,515.36218 C 104.664,515.36218 91,501.69818 91,484.86218 C 91,468.02618 104.664,454.36218 121.5,454.36218 C 138.336,454.36218 152,468.02618 152,484.86218 z "
         id="path4575" />
      <path
         id="path4577"
         d="M 132,581.86218 C 132,590.97018 124.608,598.36218 115.5,598.36218 C 106.392,598.36218 99,590.97018 99,581.86218 C 99,572.75418 106.392,565.36218 115.5,565.36218 C 124.608,565.36218 132,572.75418 132,581.86218 z "
         style="fill:url(#radialGradient4579);fill-opacity:1;stroke:none;stroke-width:1;stroke-linecap:round;stroke-linejoin:bevel;stroke-miterlimit:4;stroke-dashoffset:0;stroke-opacity:1;filter:url(#filter4498)" />
    </g>
    <g
       id="g4614"
       transform="matrix(0.9692877,0,0,0.9692877,188.88585,-305.12855)">
      <path
         id="path4616"
         d="M 152,484.86218 C 152,501.69818 138.336,515.36218 121.5,515.36218 C 104.664,515.36218 91,501.69818 91,484.86218 C 91,468.02618 104.664,454.36218 121.5,454.36218 C 138.336,454.36218 152,468.02618 152,484.86218 z "
         style="fill:#000000;fill-opacity:1;stroke:none;stroke-width:1;stroke-linecap:round;stroke-linejoin:bevel;stroke-miterlimit:4;stroke-dashoffset:0;stroke-opacity:1"
         transform="translate(-12,105)" />
      <path
         style="fill:url(#radialGradient4620);fill-opacity:1;stroke:none;stroke-width:1;stroke-linecap:round;stroke-linejoin:bevel;stroke-miterlimit:4;stroke-dashoffset:0;stroke-opacity:1;filter:url(#filter4498)"
         d="M 132,581.86218 C 132,590.97018 124.608,598.36218 115.5,598.36218 C 106.392,598.36218 99,590.97018 99,581.86218 C 99,572.75418 106.392,565.36218 115.5,565.36218 C 124.608,565.36218 132,572.75418 132,581.86218 z "
         id="path4618" />
    </g>
    <g
       transform="matrix(0.9692877,0,0,0.9692877,209.2409,-256.66417)"
       id="g4606">
      <path
         transform="translate(-12,105)"
         style="fill:#000000;fill-opacity:1;stroke:none;stroke-width:1;stroke-linecap:round;stroke-linejoin:bevel;stroke-miterlimit:4;stroke-dashoffset:0;stroke-opacity:1"
         d="M 152,484.86218 C 152,501.69818 138.336,515.36218 121.5,515.36218 C 104.664,515.36218 91,501.69818 91,484.86218 C 91,468.02618 104.664,454.36218 121.5,454.36218 C 138.336,454.36218 152,468.02618 152,484.86218 z "
         id="path4608" />
      <path
         id="path4610"
         d="M 132,581.86218 C 132,590.97018 124.608,598.36218 115.5,598.36218 C 106.392,598.36218 99,590.97018 99,581.86218 C 99,572.75418 106.392,565.36218 115.5,565.36218 C 124.608,565.36218 132,572.75418 132,581.86218 z "
         style="fill:url(#radialGradient4612);fill-opacity:1;stroke:none;stroke-width:1;stroke-linecap:round;stroke-linejoin:bevel;stroke-miterlimit:4;stroke-dashoffset:0;stroke-opacity:1;filter:url(#filter4498)" />
    </g>
    <g
       transform="matrix(0.9692877,0,0,0.9692877,236.38095,-322.57573)"
       id="g4622">
      <path
         transform="translate(-12,105)"
         style="fill:#000000;fill-opacity:1;stroke:none;stroke-width:1;stroke-linecap:round;stroke-linejoin:bevel;stroke-miterlimit:4;stroke-dashoffset:0;stroke-opacity:1"
         d="M 152,484.86218 C 152,501.69818 138.336,515.36218 121.5,515.36218 C 104.664,515.36218 91,501.69818 91,484.86218 C 91,468.02618 104.664,454.36218 121.5,454.36218 C 138.336,454.36218 152,468.02618 152,484.86218 z "
         id="path4624" />
      <path
         id="path4626"
         d="M 132,581.86218 C 132,590.97018 124.608,598.36218 115.5,598.36218 C 106.392,598.36218 99,590.97018 99,581.86218 C 99,572.75418 106.392,565.36218 115.5,565.36218 C 124.608,565.36218 132,572.75418 132,581.86218 z "
         style="fill:url(#radialGradient4628);fill-opacity:1;stroke:none;stroke-width:1;stroke-linecap:round;stroke-linejoin:bevel;stroke-miterlimit:4;stroke-dashoffset:0;stroke-opacity:1;filter:url(#filter4498)" />
    </g>
    <path
       style="fill:#005780;fill-opacity:0.10497239;fill-rule:evenodd;stroke:none;stroke-width:1px;stroke-linecap:butt;stroke-linejoin:miter;stroke-opacity:1"
       d="M 310.16798,76.346738 C 258.43225,76.346738 207.30232,90.825473 193.73229,119.78294 C 174.51138,160.79899 284.60228,291.82679 284.60301,316.12428 C 284.60375,341.39106 174.50923,467.62842 193.73229,508.64905 C 220.87235,566.56399 398.252,566.56399 430.23849,508.64905 C 452.89493,467.62715 343.03228,337.51299 343.03289,315.15499 C 343.0335,291.82771 452.89219,160.79986 430.23849,119.78294 C 414.24524,90.825473 361.90371,76.346738 310.16798,76.346738 z "
       id="path2204"
       sodipodi:nodetypes="cszsszsc" />
    <path
       style="fill:#375e6f;fill-opacity:0.79005528;fill-rule:evenodd;stroke:none;stroke-width:1px;stroke-linecap:butt;stroke-linejoin:miter;stroke-opacity:1"
       d="M 310.16798,75.862094 C 273.68693,76.549212 234.17336,81.076445 204.76037,104.65346 C 188.76219,116.23137 185.74135,138.28025 192.8339,154.95549 C 213.15981,210.1282 251.02022,252.25558 277.6554,304.12494 C 285.63784,323.85002 269.19002,343.61337 261.33707,360.18627 C 236.49941,400.09132 206.61605,438.2522 192.7953,483.79051 C 186.02187,502.08062 189.93386,522.09757 205.94046,531.14654 C 245.06639,554.10025 299.23277,558.40865 343.34199,553.75106 C 374.24475,549.24119 413.35703,538.17033 432.84238,511.59338 C 444.45826,491.93967 430.45992,468.0902 422.67419,449.3604 C 401.92603,405.06409 372.26676,365.93448 349.4428,322.84234 C 341.6784,303.50562 368.58571,276.42561 375.93548,259.92515 C 400.11822,220.21813 421.45834,193.17964 434.6121,148.02011 C 441.43933,129.44417 430.98363,109.27853 414.46361,99.826579 C 384.42844,80.631794 345.13022,76.297614 310.16798,75.862094 z M 310.99119,80.124236 C 349.04809,80.866769 389.52119,82.599535 419.88348,107.63371 C 435.85015,119.3457 434.77144,140.89167 428.16461,157.39939 C 408.74758,211.10776 371.27291,255.42251 345.28165,305.71427 C 337.15074,325.29541 357.74261,342.10539 365.31702,358.68079 C 389.49217,397.91224 417.85775,435.93524 430.93126,480.70267 C 437.6656,498.88364 427.90123,518.03071 411.72017,527.24249 C 373.09204,550.90363 325.55578,553.9846 281.42861,550.07209 C 251.05563,546.12882 216.72586,539.32377 197.09891,513.63405 C 185.02072,494.9904 200.01809,473.05891 207.69936,455.20608 C 229.49459,409.95498 259.35341,370.45271 282.3346,325.93104 C 290.58431,305.76156 270.06552,288.23401 262.17876,271.15938 C 237.26808,230.33231 207.62948,191.09065 193.76346,144.74247 C 186.5335,125.38008 200.02934,108.14388 217.12896,99.475648 C 245.37756,83.571091 279.04204,80.458272 310.99119,80.124236 z "
       id="path5607"
       sodipodi:nodetypes="cccccccccccccccccccccccccccccc" />
    <path
       sodipodi:nodetypes="czsszcc"
       id="path5609"
       d="M 133.77835,106.18109 C 113.94842,148.49675 218.52759,281.67622 218.52835,306.74359 C 218.52911,332.81096 126.01496,458.13639 137.77835,503.36859 C 145.07055,531.40831 158.33606,525.54587 172.77835,527.36859 C 220.74538,533.42236 237.80897,329.81001 237.8096,306.74359 C 237.81023,282.67717 190.14984,128.49765 166.77835,86.181092 C 152.52515,86.341362 142.76127,95.480272 133.77835,106.18109 z "
       style="fill:#ffffff;fill-opacity:0.5690608;fill-rule:evenodd;stroke:none;stroke-width:1px;stroke-linecap:butt;stroke-linejoin:miter;stroke-opacity:1;filter:url(#filter6596)"
       transform="matrix(0.9692877,0,0,0.9692877,81.50976,18.801492)" />
  </g>
</svg>
