<?xml version="1.0" encoding="UTF-8" standalone="no"?>
<!DOCTYPE svg PUBLIC "-//W3C//DTD SVG 20010904//EN"
"http://www.w3.org/TR/2001/REC-SVG-20010904/DTD/svg10.dtd">
<!-- Created with Inkscape (http://www.inkscape.org/) -->
<svg
   id="svg1135"
   sodipodi:version="0.32"
   inkscape:version="0.38.1"
   width="80.000000pt"
   height="80.000000pt"
   sodipodi:docbase="/home/nicu/Desktop"
   sodipodi:docname="pentagram.svg"
   xmlns="http://www.w3.org/2000/svg"
   xmlns:inkscape="http://www.inkscape.org/namespaces/inkscape"
   xmlns:sodipodi="http://sodipodi.sourceforge.net/DTD/sodipodi-0.dtd"
   xmlns:xlink="http://www.w3.org/1999/xlink">
  <defs
     id="defs1137">
    <linearGradient
       id="linearGradient832">
      <stop
         style="stop-color:#ffffff;stop-opacity:0.50000000;"
         offset="0.0000000"
         id="stop833" />
      <stop
         style="stop-color:#ffffff;stop-opacity:0.0000000;"
         offset="1.0000000"
         id="stop834" />
    </linearGradient>
    <linearGradient
       id="linearGradient1053">
      <stop
         style="stop-color:#ffbb00;stop-opacity:1.0000000;"
         offset="0.0000000"
         id="stop1054" />
      <stop
         style="stop-color:#ffe600;stop-opacity:1.0000000;"
         offset="1.0000000"
         id="stop1056" />
    </linearGradient>
    <linearGradient
       xlink:href="#linearGradient1053"
       id="linearGradient971"
       x1="0.88059700"
       y1="0.91406250"
       x2="-0.022388060"
       y2="-0.062500000" />
    <linearGradient
       xlink:href="#linearGradient832"
       id="linearGradient831"
       x1="0.071428575"
       y1="0.44531250"
       x2="1.3750000"
       y2="0.59375000" />
    <linearGradient
       xlink:href="#linearGradient1053"
       id="linearGradient838"
       x1="0.83962262"
       y1="0.71875000"
       x2="0.075471699"
       y2="-1.9258141e-17" />
  </defs>
  <sodipodi:namedview
     id="base"
     pagecolor="#ffffff"
     bordercolor="#666666"
     borderopacity="1.0"
     inkscape:pageopacity="0.0"
     inkscape:pageshadow="2"
     inkscape:zoom="1.0000000"
     inkscape:cx="79.993134"
     inkscape:cy="69.283203"
     inkscape:window-width="987"
     inkscape:window-height="708"
     inkscape:window-x="2"
     inkscape:window-y="54" />
  <path
     style="fill:url(#linearGradient971);fill-rule:evenodd;stroke:#000000;stroke-width:1.2500000;stroke-linejoin:round;"
     d="M 47.930540,18.792391 C 43.719659,18.792401 40.305539,22.206521 40.305539,26.417391 C 40.305539,28.482351 41.128409,30.356801 42.461789,31.729891 L 16.399289,51.886141 C 15.539169,52.542361 15.198679,53.677331 15.555539,54.698641 L 28.399289,90.479890 C 28.765519,91.503020 29.750689,92.172440 30.836789,92.136140 L 68.836790,90.979890 C 69.918750,90.940150 70.852200,90.208530 71.149290,89.167390 L 81.774290,52.698641 C 82.089590,51.659551 81.698150,50.535741 80.805540,49.917391 L 53.586790,31.417391 C 54.768040,30.074431 55.555540,28.346341 55.555540,26.417391 C 55.555540,22.206521 52.141420,18.792391 47.930540,18.792391 z M 48.149290,22.573641 C 50.159390,22.573651 51.774290,24.380411 51.774290,26.604891 C 51.774290,27.707361 51.356630,28.720471 50.711790,29.448641 L 49.368040,28.542391 C 48.884700,28.206071 48.298170,28.051141 47.711790,28.104891 C 47.243150,28.157601 46.798970,28.341771 46.430540,28.636141 L 45.493040,29.354891 C 44.882679,28.634561 44.493039,27.666381 44.493039,26.604891 C 44.493039,24.380421 46.139190,22.573641 48.149290,22.573641 z M 51.836790,36.261141 L 71.493040,49.604891 L 56.711790,50.042391 L 51.836790,36.261141 z M 44.055539,36.792391 L 40.024289,50.511141 L 25.805539,50.917391 L 44.055539,36.792391 z M 48.086790,40.698641 L 51.461790,50.167391 L 45.274290,50.354891 L 48.086790,40.698641 z M 71.086790,54.636141 L 61.118040,62.511141 L 58.461790,55.011141 L 71.086790,54.636141 z M 53.211790,55.136141 L 56.993040,65.761141 L 48.805540,72.229891 L 40.586789,66.386141 L 43.805539,55.417391 L 53.211790,55.136141 z M 38.555539,55.573641 L 36.274289,63.323641 L 25.868039,55.917391 L 38.555539,55.573641 z M 75.086790,57.823641 L 68.024290,81.979890 L 62.868040,67.479891 L 75.086790,57.823641 z M 22.743039,59.854891 L 34.774289,68.417391 L 30.743039,82.167390 L 22.743039,59.854891 z M 58.743040,70.729891 L 62.805540,82.198640 L 53.024290,75.261141 L 58.743040,70.729891 z M 39.086789,71.479891 L 44.680539,75.479891 L 35.868039,82.448640 L 39.086789,71.479891 z M 48.930540,78.479890 L 59.836790,86.261140 L 38.274289,86.886140 L 48.930540,78.479890 z "
     id="path1134" />
  <path
     style="fill:url(#linearGradient831);fill-opacity:1;fill-rule:evenodd;stroke-width:1.0000000pt;"
     d="M 16.333784,53.074004 C 16.891999,52.013395 34.699068,38.560405 43.630514,31.638535 C 40.448686,29.796424 39.108969,21.758123 46.142483,19.748548 C 41.955868,23.265304 42.290797,29.126566 44.970231,30.298818 C 48.152058,31.805999 46.644877,34.150504 43.965443,35.322756 C 42.123332,37.499796 38.104182,40.346694 24.707013,51.399358 C 26.884053,52.236681 38.439111,49.892177 38.439111,53.074004 C 38.774040,55.920902 24.707014,54.748650 24.707013,55.920902 C 24.707014,56.758225 36.262071,61.949628 33.582638,65.131455 C 31.740527,66.638637 22.195045,57.260619 21.692651,59.102730 C 29.396022,77.188906 27.218983,80.203270 33.080243,85.897066 C 36.931930,88.241571 36.764465,92.763114 29.563487,90.586075 C 28.558699,89.413822 15.831389,55.083579 16.333784,53.074004 z "
     id="path830"
     sodipodi:nodetypes="ccccccccccccc" />
  <path
     style="fill:url(#linearGradient838);fill-opacity:1;fill-rule:evenodd;stroke:#000000;stroke-width:1.0000000pt;stroke-linejoin:round;"
     d="M 48.140172,5.1930208 C 43.194605,5.1930207 39.171419,10.149477 39.171422,16.255521 C 39.171420,22.361564 43.194610,27.318020 48.140172,27.318020 C 49.569855,27.318020 50.569602,26.970196 51.770208,26.233748 C 51.669545,25.081596 51.182183,23.653230 49.810937,23.053505 C 49.281234,23.377743 48.837141,23.474270 48.233922,23.474270 C 45.645584,23.474270 43.546422,20.195223 43.546422,16.161771 C 43.546419,12.128318 45.645589,8.8492708 48.233922,8.8492708 C 50.822250,8.8492706 52.921422,12.128318 52.921422,16.161771 C 52.921423,17.735205 52.748201,18.792603 52.204893,19.986564 C 53.325795,21.013716 54.336212,22.206596 54.959929,23.399476 C 56.186071,21.507598 57.108922,18.863352 57.108922,16.255521 C 57.108920,10.149477 53.085739,5.1930208 48.140172,5.1930208 z "
     id="path841"
     sodipodi:nodetypes="ccccccccccccc" />

  <rdf:RDF 
   xmlns="http://web.resource.org/cc/"
   xmlns:dc="http://purl.org/dc/elements/1.1/"
   xmlns:rdf="http://www.w3.org/1999/02/22-rdf-syntax-ns#">
  <Work rdf:about="">
    <dc:title>Clipart by Nicu Buculei - necklace</dc:title>
    <dc:rights>
       <Agent>
         <dc:title>Nicu Buculei</dc:title>
       </Agent>
    </dc:rights>
    <dc:type rdf:resource="http://purl.org/dc/dcmitype/StillImage" />
    <license rdf:resource="http://web.resource.org/cc/PublicDomain" />
  </Work>
   
  <License rdf:about="http://web.resource.org/cc/PublicDomain">
     <permits rdf:resource="http://web.resource.org/cc/Reproduction" />
     <permits rdf:resource="http://web.resource.org/cc/Distribution" />
     <permits rdf:resource="http://web.resource.org/cc/DerivativeWorks" />
  </License>

</rdf:RDF>
</svg>
