<?xml version="1.0" encoding="UTF-8" standalone="no"?>
<!-- Created with Inkscape (http://www.inkscape.org/) -->
<svg
   xmlns:dc="http://purl.org/dc/elements/1.1/"
   xmlns:cc="http://web.resource.org/cc/"
   xmlns:rdf="http://www.w3.org/1999/02/22-rdf-syntax-ns#"
   xmlns:svg="http://www.w3.org/2000/svg"
   xmlns="http://www.w3.org/2000/svg"
   xmlns:xlink="http://www.w3.org/1999/xlink"
   xmlns:sodipodi="http://inkscape.sourceforge.net/DTD/sodipodi-0.dtd"
   xmlns:inkscape="http://www.inkscape.org/namespaces/inkscape"
   width="128.00000px"
   height="128.00000px"
   id="svg2"
   sodipodi:version="0.32"
   inkscape:version="0.42"
   sodipodi:docbase="/home/nicu/Desktop/hats"
   sodipodi:docname="smoke3.svg"
   inkscape:export-filename="/home/nicu/Desktop/potato_guy.png"
   inkscape:export-xdpi="90.000000"
   inkscape:export-ydpi="90.000000">
  
  <defs
     id="defs3">
    <linearGradient
       inkscape:collect="always"
       id="linearGradient14422">
      <stop
         style="stop-color:#000000;stop-opacity:1;"
         offset="0"
         id="stop14424" />
      <stop
         style="stop-color:#000000;stop-opacity:0;"
         offset="1"
         id="stop14426" />
    </linearGradient>
    <linearGradient
       inkscape:collect="always"
       id="linearGradient14414">
      <stop
         style="stop-color:#000000;stop-opacity:1;"
         offset="0"
         id="stop14416" />
      <stop
         style="stop-color:#000000;stop-opacity:0;"
         offset="1"
         id="stop14418" />
    </linearGradient>
    <linearGradient
       id="linearGradient2424">
      <stop
         style="stop-color:#dec164;stop-opacity:1;"
         offset="0"
         id="stop2426" />
      <stop
         style="stop-color:#d5a864;stop-opacity:1.0000000;"
         offset="1.0000000"
         id="stop2428" />
    </linearGradient>
    <linearGradient
       inkscape:collect="always"
       xlink:href="#linearGradient2424"
       id="linearGradient7610"
       gradientUnits="userSpaceOnUse"
       gradientTransform="translate(84.00000,5.000000)"
       x1="114.00000"
       y1="112.36218"
       x2="197.00000"
       y2="288.36218" />
    <linearGradient
       inkscape:collect="always"
       xlink:href="#linearGradient14414"
       id="linearGradient14441"
       gradientUnits="userSpaceOnUse"
       x1="359.40097"
       y1="501.27704"
       x2="392.05878"
       y2="543.17145" />
    <linearGradient
       inkscape:collect="always"
       xlink:href="#linearGradient14422"
       id="linearGradient14443"
       gradientUnits="userSpaceOnUse"
       x1="408.05783"
       y1="499.79263"
       x2="448.46774"
       y2="546.30530" />
    <linearGradient
       id="linearGradient912">
      <stop
         id="stop913"
         offset="0.0000000"
         style="stop-color:#ffffff;stop-opacity:1.0000000;" />
      <stop
         id="stop914"
         offset="1.0000000"
         style="stop-color:#ffffff;stop-opacity:0.0000000;" />
    </linearGradient>
    <radialGradient
       inkscape:collect="always"
       xlink:href="#linearGradient912"
       id="radialGradient17463"
       gradientUnits="userSpaceOnUse"
       gradientTransform="scale(1.022475,0.978019)"
       cx="44.699298"
       cy="42.720970"
       fx="44.699298"
       fy="42.720970"
       r="12.239094" />
  </defs>
  <sodipodi:namedview
     id="base"
     pagecolor="#ffffff"
     bordercolor="#666666"
     borderopacity="1.0"
     inkscape:pageopacity="0.0"
     inkscape:pageshadow="2"
     inkscape:zoom="1.0000000"
     inkscape:cx="252.66113"
     inkscape:cy="-56.187325"
     inkscape:document-units="px"
     inkscape:current-layer="layer1"
     inkscape:window-width="1152"
     inkscape:window-height="791"
     inkscape:window-x="0"
     inkscape:window-y="26"
     showguides="true"
     inkscape:guide-bbox="true" />
  <g
     inkscape:label="Layer 1"
     inkscape:groupmode="layer"
     id="layer1">
    <g
       id="g11716"
       transform="matrix(2.228034,0.000000,0.000000,2.228034,-466.1407,-1152.087)">
      <g
         id="g11688">
        <path
           style="fill:#ad8423;fill-opacity:1.0000000;fill-rule:evenodd;stroke:none;stroke-width:1.0000000px;stroke-linecap:butt;stroke-linejoin:miter;stroke-opacity:1.0000000"
           d="M 234.26964,547.83398 C 230.43294,549.42224 226.95569,553.28379 227.31034,557.61375 C 227.64115,561.89713 229.71958,565.32518 233.19046,567.85237 C 236.60071,568.98920 240.40897,567.49609 243.89981,567.58744 C 249.30384,567.24621 253.63236,566.95547 258.63317,564.62753 C 261.54982,563.01359 263.01969,561.44332 263.48751,558.00623 C 263.32264,554.99215 262.20832,554.58663 260.17741,552.70802 C 258.25472,551.01270 255.90969,549.46859 253.35496,549.54372 C 246.65352,548.84010 240.99876,548.06160 234.26964,547.83398 z "
           id="path11674"
           sodipodi:nodetypes="ccccccccc" />
        <path
           style="fill:#000000;fill-opacity:0.082352944;fill-rule:evenodd;stroke:none;stroke-width:1.0000000px;stroke-linecap:butt;stroke-linejoin:miter;stroke-opacity:1.0000000"
           d="M 232.00173,567.70797 C 232.00173,567.70797 236.13684,559.22010 236.13684,557.69664 C 250.06565,558.78482 241.79542,566.18450 259.64171,563.57285 C 254.85368,566.83742 239.40141,568.14324 232.00173,567.70797 z "
           id="path11676"
           sodipodi:nodetypes="cccc" />
        <path
           style="fill:#000000;fill-opacity:1.0000000;fill-rule:evenodd;stroke:none;stroke-width:1.0000000px;stroke-linecap:butt;stroke-linejoin:miter;stroke-opacity:1.0000000"
           d="M 232.50530,547.37155 C 228.66860,548.95981 225.19135,552.82136 225.54600,557.15132 C 225.87681,561.43470 228.17288,566.38621 231.64376,568.91340 C 235.05401,570.05023 238.86227,568.12185 242.35311,568.21320 C 247.75714,567.87197 253.39148,567.79887 258.39229,565.47093 C 261.30894,563.85699 264.08464,561.19853 264.55246,557.76144 C 264.38759,554.74736 261.74981,552.81837 259.71890,550.93976 C 257.79621,549.24444 255.23354,548.35325 252.67881,548.42838 C 245.97737,547.72476 239.23442,547.59917 232.50530,547.37155 z M 233.26295,548.87862 C 241.14928,549.20183 248.21378,548.09134 256.24267,550.66975 C 259.28476,551.90465 260.30999,553.30723 262.26736,555.85865 C 263.25735,557.61105 262.79114,559.64320 261.46977,561.08853 C 258.69421,565.04885 254.43794,566.09978 249.72723,566.24664 C 243.98307,566.95692 239.93140,567.51734 234.14327,567.41335 C 236.35579,563.60993 237.88627,560.62053 236.81736,556.95652 C 235.96916,553.17962 235.90348,554.54229 235.19155,551.53233 C 234.30243,549.36674 232.57645,549.21163 233.26295,548.87862 z "
           id="path11660"
           sodipodi:nodetypes="cccccccccccccccccc" />
        <path
           style="fill:#000000;fill-opacity:0.082352944;fill-rule:evenodd;stroke:none;stroke-width:1.0000000px;stroke-linecap:butt;stroke-linejoin:miter;stroke-opacity:1.0000000"
           d="M 231.89291,567.66737 C 231.89291,567.66737 235.59274,560.92060 235.59274,559.39714 C 247.12754,560.05005 240.16314,567.66736 258.00943,565.05571 C 253.22140,568.32028 239.29259,568.10264 231.89291,567.66737 z "
           id="path11678"
           sodipodi:nodetypes="cccc" />
        <path
           style="fill:#fa0c08;fill-opacity:1.0000000;fill-rule:evenodd;stroke:none;stroke-width:1.0000000px;stroke-linecap:butt;stroke-linejoin:miter;stroke-opacity:1.0000000"
           d="M 231.13117,550.07932 L 227.64897,553.56152 L 231.13117,554.86735 L 227.43133,557.69664 L 231.78409,558.13191 L 232.00173,560.09065 L 228.51952,559.00246 L 228.73716,562.04939 L 230.91354,566.18451 L 230.69590,562.91994 L 233.96046,560.96120 L 232.21936,565.53159 L 235.04865,562.26703 C 235.04865,562.26703 236.35448,558.13191 235.48393,557.91428 C 234.61338,557.69664 232.87228,559.00246 232.87228,559.00246 L 233.74283,553.77916 L 233.30755,551.16751 L 232.00173,553.77916 L 231.13117,550.07932 z "
           id="path11682" />
      </g>
      <path
         sodipodi:nodetypes="ccccc"
         id="path11695"
         d="M 217.09095,519.60034 C 214.67325,521.52012 208.06716,531.71246 214.72192,538.55709 C 227.42918,549.01409 219.21537,547.75245 224.72041,559.32020 C 232.14321,556.97993 234.15694,551.11402 232.06718,542.39783 C 230.36415,529.42568 221.95644,535.45005 217.09095,519.60034 z "
         style="fill:#000000;fill-opacity:0.082352944;fill-rule:evenodd;stroke:none;stroke-width:1.0000000px;stroke-linecap:butt;stroke-linejoin:miter;stroke-opacity:1.0000000" />
      <path
         sodipodi:nodetypes="ccccc"
         id="path11710"
         d="M 216.66675,523.28399 C 214.54082,524.97208 211.26740,532.30449 217.11907,538.32311 C 228.29283,547.51816 220.70805,547.31430 225.54874,557.48606 C 230.98914,554.52269 230.76770,549.54578 229.47344,541.51925 C 227.97594,530.11256 220.94508,537.22096 216.66675,523.28399 z "
         style="fill:#000000;fill-opacity:0.082352944;fill-rule:evenodd;stroke:none;stroke-width:1.0000000px;stroke-linecap:butt;stroke-linejoin:miter;stroke-opacity:1.0000000" />
      <path
         sodipodi:nodetypes="ccccc"
         id="path11712"
         d="M 242.09293,531.14007 C 243.71933,532.43152 248.16330,539.28799 243.68659,543.89242 C 235.13832,550.92693 240.66381,550.07821 236.96053,557.85993 C 231.96715,556.28561 230.61250,552.33957 232.01830,546.47612 C 233.16394,537.74965 238.81987,541.80229 242.09293,531.14007 z "
         style="fill:#000000;fill-opacity:0.082352944;fill-rule:evenodd;stroke:none;stroke-width:1.0000000px;stroke-linecap:butt;stroke-linejoin:miter;stroke-opacity:1.0000000" />
      <path
         sodipodi:nodetypes="ccccc"
         id="path11714"
         d="M 242.37829,533.61809 C 243.80842,534.75368 246.01047,539.68625 242.07401,543.73502 C 234.55733,549.92061 239.65968,549.78347 236.40331,556.62609 C 232.74351,554.63261 232.89247,551.28460 233.76313,545.88509 C 234.77051,538.21172 239.50022,542.99360 242.37829,533.61809 z "
         style="fill:#000000;fill-opacity:0.082352944;fill-rule:evenodd;stroke:none;stroke-width:1.0000000px;stroke-linecap:butt;stroke-linejoin:miter;stroke-opacity:1.0000000" />
    </g>
  </g>

  <metadata>
    <rdf:RDF 
     xmlns="http://web.resource.org/cc/"
     xmlns:dc="http://purl.org/dc/elements/1.1/"
     xmlns:rdf="http://www.w3.org/1999/02/22-rdf-syntax-ns#">
      <Work rdf:about="">
        <dc:title>smoke</dc:title>
        <dc:description></dc:description>
        <dc:subject>
          <rdf:Bag>
            <rdf:li>smoke</rdf:li>
          </rdf:Bag>
        </dc:subject>
        <dc:publisher>
           <Agent>
             <dc:title></dc:title>
           </Agent>
         </dc:publisher>
         <dc:creator>
           <Agent>
             <dc:title>Nicu Buculei</dc:title>
           </Agent>
        </dc:creator>
         <dc:rights>
           <Agent>
             <dc:title>Nicu Buculei</dc:title>
           </Agent>
        </dc:rights>
        <dc:date></dc:date>
        <dc:format>image/svg+xml</dc:format>
        <dc:type rdf:resource="http://purl.org/dc/dcmitype/StillImage" />
        <license rdf:resource="http://web.resource.org/cc/PublicDomain" />
        <dc:language>en</dc:language>
      </Work>

      <License rdf:about="http://web.resource.org/cc/PublicDomain">
         <permits rdf:resource="http://web.resource.org/cc/Reproduction" />
         <permits rdf:resource="http://web.resource.org/cc/Distribution" />
         <permits rdf:resource="http://web.resource.org/cc/DerivativeWorks" />
      </License>

    </rdf:RDF>
  </metadata>
</svg>
