<?xml version="1.0" encoding="UTF-8" standalone="no"?>
<!-- Created with Inkscape (http://www.inkscape.org/) -->

<svg
   xmlns:dc="http://purl.org/dc/elements/1.1/"
   xmlns:cc="http://creativecommons.org/ns#"
   xmlns:rdf="http://www.w3.org/1999/02/22-rdf-syntax-ns#"
   xmlns:svg="http://www.w3.org/2000/svg"
   xmlns="http://www.w3.org/2000/svg"
   xmlns:xlink="http://www.w3.org/1999/xlink"
   xmlns:sodipodi="http://sodipodi.sourceforge.net/DTD/sodipodi-0.dtd"
   xmlns:inkscape="http://www.inkscape.org/namespaces/inkscape"
   width="256"
   height="256"
   id="svg2"
   version="1.1"
   inkscape:version="0.48.4 r9939"
   sodipodi:docname="pumpkin-18.svg"
   inkscape:export-filename="pumpkins.png"
   inkscape:export-xdpi="299.96191"
   inkscape:export-ydpi="299.96191">
  <defs
     id="defs4">
    <linearGradient
       id="linearGradient3931">
      <stop
         style="stop-color:#5f6b21;stop-opacity:1;"
         offset="0"
         id="stop3933" />
      <stop
         style="stop-color:#39a905;stop-opacity:1;"
         offset="1"
         id="stop3935" />
    </linearGradient>
    <linearGradient
       id="linearGradient3701">
      <stop
         style="stop-color:#704608;stop-opacity:1;"
         offset="0"
         id="stop3703" />
      <stop
         style="stop-color:#ab8855;stop-opacity:1;"
         offset="1"
         id="stop3705" />
    </linearGradient>
    <linearGradient
       id="linearGradient3689">
      <stop
         style="stop-color:#fff690;stop-opacity:1;"
         offset="0"
         id="stop3691" />
      <stop
         style="stop-color:#f2ff00;stop-opacity:1;"
         offset="1"
         id="stop3693" />
    </linearGradient>
    <linearGradient
       id="linearGradient3669">
      <stop
         style="stop-color:#ffd73b;stop-opacity:1;"
         offset="0"
         id="stop3671" />
      <stop
         style="stop-color:#ee8400;stop-opacity:1;"
         offset="1"
         id="stop3673" />
    </linearGradient>
    <filter
       inkscape:collect="always"
       id="filter3641"
       x="-0.047149919"
       width="1.0942998"
       y="-0.29882854"
       height="1.5976571"
       color-interpolation-filters="sRGB">
      <feGaussianBlur
         inkscape:collect="always"
         stdDeviation="0.67728367"
         id="feGaussianBlur3643" />
    </filter>
    <filter
       inkscape:collect="always"
       id="filter3866"
       x="-0.29160413"
       width="1.5832083"
       y="-0.29436955"
       height="1.5887392"
       color-interpolation-filters="sRGB">
      <feGaussianBlur
         inkscape:collect="always"
         stdDeviation="3.7554505"
         id="feGaussianBlur3868" />
    </filter>
    <filter
       inkscape:collect="always"
       id="filter3900"
       x="-0.12988681"
       width="1.2597736"
       y="-0.16756999"
       height="1.33514"
       color-interpolation-filters="sRGB">
      <feGaussianBlur
         inkscape:collect="always"
         stdDeviation="3.9990335"
         id="feGaussianBlur3902" />
    </filter>
    <filter
       inkscape:collect="always"
       id="filter3912"
       x="-0.079064548"
       width="1.1581291"
       y="-0.14543517"
       height="1.2908703"
       color-interpolation-filters="sRGB">
      <feGaussianBlur
         inkscape:collect="always"
         stdDeviation="0.39212011"
         id="feGaussianBlur3914" />
    </filter>
    <filter
       inkscape:collect="always"
       id="filter3927"
       x="-0.12636624"
       width="1.2527325"
       y="-0.28773808"
       height="1.5754762"
       color-interpolation-filters="sRGB">
      <feGaussianBlur
         inkscape:collect="always"
         stdDeviation="1.1537473"
         id="feGaussianBlur3929" />
    </filter>
    <linearGradient
       inkscape:collect="always"
       xlink:href="#linearGradient3669"
       id="linearGradient3332"
       gradientUnits="userSpaceOnUse"
       gradientTransform="translate(647.92892,749.82993)"
       x1="183.125"
       y1="72.875"
       x2="192.25"
       y2="55.5" />
    <linearGradient
       inkscape:collect="always"
       xlink:href="#linearGradient3669"
       id="linearGradient3338"
       gradientUnits="userSpaceOnUse"
       gradientTransform="matrix(6.400115,0,0,6.400115,611.12409,714.30199)"
       x1="29.022875"
       y1="24.614502"
       x2="37.24147"
       y2="21.310812" />
    <linearGradient
       inkscape:collect="always"
       xlink:href="#linearGradient3669"
       id="linearGradient3341"
       gradientUnits="userSpaceOnUse"
       gradientTransform="matrix(6.400115,0,0,6.400115,604.37409,-5719.4817)"
       x1="22.383869"
       y1="1023.8843"
       x2="15.64438"
       y2="1017.5189" />
    <linearGradient
       inkscape:collect="always"
       xlink:href="#linearGradient3931"
       id="linearGradient3344"
       gradientUnits="userSpaceOnUse"
       gradientTransform="translate(647.92892,-46.53227)"
       x1="147.5"
       y1="843.86218"
       x2="119"
       y2="814.86218" />
    <linearGradient
       inkscape:collect="always"
       xlink:href="#linearGradient3669"
       id="linearGradient3347"
       gradientUnits="userSpaceOnUse"
       gradientTransform="matrix(6.400115,0,0,6.400115,611.12409,714.30199)"
       x1="24.367268"
       y1="29.051037"
       x2="31.867142"
       y2="29.106279" />
    <linearGradient
       inkscape:collect="always"
       xlink:href="#linearGradient3669"
       id="linearGradient3350"
       gradientUnits="userSpaceOnUse"
       gradientTransform="matrix(6.400115,0,0,6.400115,611.12409,714.30199)"
       x1="8.9686985"
       y1="25.84791"
       x2="17.828442"
       y2="29.798435" />
    <linearGradient
       inkscape:collect="always"
       xlink:href="#linearGradient3669"
       id="linearGradient3353"
       gradientUnits="userSpaceOnUse"
       gradientTransform="matrix(6.400115,0,0,6.400115,611.12409,714.30199)"
       x1="14.269864"
       y1="26.721092"
       x2="25.219465"
       y2="26.058191" />
    <radialGradient
       inkscape:collect="always"
       xlink:href="#linearGradient3689"
       id="radialGradient3359"
       gradientUnits="userSpaceOnUse"
       gradientTransform="matrix(2.7450413,4.3867121,-6.8694951,4.2987412,7697.6454,-3607.6783)"
       cx="27.844063"
       cy="1021.0861"
       fx="27.844063"
       fy="1021.0861"
       r="17.592218" />
    <radialGradient
       inkscape:collect="always"
       xlink:href="#linearGradient3669"
       id="radialGradient3389"
       gradientUnits="userSpaceOnUse"
       gradientTransform="matrix(2.5638659,5.7920643,-4.9198331,2.1778048,5715.2134,-1478.5887)"
       cx="17.360392"
       cy="1023.9149"
       fx="17.360392"
       fy="1023.9149"
       r="17.592218" />
    <linearGradient
       inkscape:collect="always"
       xlink:href="#linearGradient3701"
       id="linearGradient3396"
       gradientUnits="userSpaceOnUse"
       x1="453.88791"
       y1="614.11292"
       x2="546.17651"
       y2="564.36292"
       gradientTransform="translate(228.75,337.01769)" />
    <linearGradient
       inkscape:collect="always"
       xlink:href="#linearGradient3669"
       id="linearGradient3175"
       gradientUnits="userSpaceOnUse"
       gradientTransform="translate(736.1271,721.82993)"
       x1="183.125"
       y1="72.875"
       x2="192.25"
       y2="55.5" />
    <linearGradient
       inkscape:collect="always"
       xlink:href="#linearGradient3669"
       id="linearGradient3181"
       gradientUnits="userSpaceOnUse"
       gradientTransform="matrix(6.400115,0,0,6.400115,699.32227,686.30199)"
       x1="29.022875"
       y1="24.614502"
       x2="37.24147"
       y2="21.310812" />
    <linearGradient
       inkscape:collect="always"
       xlink:href="#linearGradient3669"
       id="linearGradient3184"
       gradientUnits="userSpaceOnUse"
       gradientTransform="matrix(6.400115,0,0,6.400115,692.57227,-5747.4817)"
       x1="22.383869"
       y1="1023.8843"
       x2="15.64438"
       y2="1017.5189" />
    <linearGradient
       inkscape:collect="always"
       xlink:href="#linearGradient3931"
       id="linearGradient3187"
       gradientUnits="userSpaceOnUse"
       gradientTransform="translate(736.1271,-74.53227)"
       x1="147.5"
       y1="843.86218"
       x2="119"
       y2="814.86218" />
    <linearGradient
       inkscape:collect="always"
       xlink:href="#linearGradient3669"
       id="linearGradient3190"
       gradientUnits="userSpaceOnUse"
       gradientTransform="matrix(6.400115,0,0,6.400115,699.32227,686.30199)"
       x1="24.367268"
       y1="29.051037"
       x2="31.867142"
       y2="29.106279" />
    <linearGradient
       inkscape:collect="always"
       xlink:href="#linearGradient3669"
       id="linearGradient3193"
       gradientUnits="userSpaceOnUse"
       gradientTransform="matrix(6.400115,0,0,6.400115,699.32227,686.30199)"
       x1="8.9686985"
       y1="25.84791"
       x2="17.828442"
       y2="29.798435" />
    <radialGradient
       inkscape:collect="always"
       xlink:href="#linearGradient3689"
       id="radialGradient3202"
       gradientUnits="userSpaceOnUse"
       gradientTransform="matrix(2.7450413,4.3867121,-6.8694951,4.2987412,7785.8436,-3635.6783)"
       cx="27.844063"
       cy="1021.0861"
       fx="27.844063"
       fy="1021.0861"
       r="17.592218" />
    <linearGradient
       inkscape:collect="always"
       xlink:href="#linearGradient3669"
       id="linearGradient3240"
       gradientUnits="userSpaceOnUse"
       gradientTransform="matrix(6.400115,0,0,6.400115,699.32227,378.0343)"
       x1="14.269864"
       y1="26.721092"
       x2="25.219465"
       y2="26.058191" />
    <radialGradient
       inkscape:collect="always"
       xlink:href="#linearGradient3669"
       id="radialGradient3243"
       gradientUnits="userSpaceOnUse"
       gradientTransform="matrix(2.5638659,5.7920643,-4.9198331,2.1778048,5803.4116,-1814.8564)"
       cx="17.360392"
       cy="1023.9149"
       fx="17.360392"
       fy="1023.9149"
       r="17.592218" />
    <linearGradient
       inkscape:collect="always"
       xlink:href="#linearGradient3701"
       id="linearGradient3250"
       gradientUnits="userSpaceOnUse"
       x1="777.33038"
       y1="633.50214"
       x2="860.79395"
       y2="559.96307"
       gradientTransform="translate(-1,308.26769)" />
  </defs>
  <sodipodi:namedview
     id="base"
     pagecolor="#ffffff"
     bordercolor="#666666"
     borderopacity="1.0"
     inkscape:pageopacity="0.0"
     inkscape:pageshadow="2"
     inkscape:zoom="0.5"
     inkscape:cx="308.80287"
     inkscape:cy="152.94431"
     inkscape:document-units="px"
     inkscape:current-layer="layer1"
     showgrid="false"
     inkscape:window-width="1393"
     inkscape:window-height="826"
     inkscape:window-x="22"
     inkscape:window-y="24"
     inkscape:window-maximized="0"
     showguides="true"
     inkscape:guide-bbox="true">
    <inkscape:grid
       type="xygrid"
       id="grid2837"
       empspacing="5"
       visible="true"
       enabled="true"
       snapvisiblegridlinesonly="true" />
  </sodipodi:namedview>
  <metadata
     id="metadata7">
    <rdf:RDF>
      <cc:Work
         rdf:about="">
        <dc:format>image/svg+xml</dc:format>
        <dc:type
           rdf:resource="http://purl.org/dc/dcmitype/StillImage" />
        <dc:title></dc:title>
      </cc:Work>
    </rdf:RDF>
  </metadata>
  <g
     inkscape:label="Layer 1"
     inkscape:groupmode="layer"
     id="layer1"
     transform="translate(0,-796.3622)">
    <g
       id="g3252"
       transform="translate(-731.5749,68.731322)">
      <path
         transform="matrix(5.7450926,0,0,7.0920193,715.79112,665.72946)"
         d="m 40.943338,39.252682 c 0,1.502079 -7.717431,2.719755 -17.237365,2.719755 -9.519935,0 -17.2373661,-1.217676 -17.2373661,-2.719755 0,-1.502079 7.7174311,-2.719755 17.2373661,-2.719755 9.519934,0 17.237365,1.217676 17.237365,2.719755 z"
         sodipodi:ry="2.7197549"
         sodipodi:rx="17.237366"
         sodipodi:cy="39.252682"
         sodipodi:cx="23.705973"
         id="path3377"
         style="fill:#000000;fill-opacity:0.76862745;fill-rule:evenodd;stroke:none;filter:url(#filter3641)"
         sodipodi:type="arc" />
      <path
         style="color:#000000;fill:url(#radialGradient3202);fill-opacity:1;stroke:none;stroke-width:1px;marker:none;visibility:visible;display:inline;overflow:visible;enable-background:accumulate"
         d="m 754.9233,830.50464 c -7.99112,18.16867 -12.56366,50.95749 -6.30023,75.30139 11.27654,43.8282 68.20092,52.4007 86.90127,47.8008 39.71639,5.0451 82.80195,6.5 107.5023,-15.2004 20.39909,-17.9215 26.94109,-38.9852 26.60046,-67.101 -0.85637,-70.68638 -45.60046,-103.6016 -103.90184,-89.00171 -45.20092,-15.90012 -88.63602,-2.19571 -110.80196,48.20092 z"
         id="path3379"
         sodipodi:nodetypes="sscsscs"
         inkscape:connector-curvature="0" />
      <path
         inkscape:connector-curvature="0"
         id="path3218"
         d="m 804.65625,817.39269 c -21.20963,16.19624 -26.797,46.06873 -22.09375,71.21875 1.18421,4.0246 1.52088,9.93805 4.28125,12.4375 9.79004,-0.96223 19.69473,-3.13894 29.03125,-5.71875 2.65716,-2.41508 -1.11802,-6.00504 -3.90625,-3.3125 -6.76151,1.33104 -14.38958,3.89369 -20.8125,3.34375 -8.19705,-25.0347 -5.1563,-55.87603 13.75,-75.46875 1.70564,-1.23295 3.0895,-4.49793 -0.25,-2.5 z m 39.78125,3.65625 c 7.18995,8.66962 10.83386,22.15098 3.59375,31.875 -2.47615,3.45774 -1.30732,7.70927 -2.1875,11.5625 4.47667,0.10998 7.53713,-4.16222 6.21875,-8.375 0.72006,-6.73997 7.10847,-12.02173 5.75,-19.28125 -1.38894,-6.83457 -7.01708,-12.33109 -11.875,-17.125 -2.63186,-1.13397 -2.81022,-2.05407 -1.5,1.34375 z m -32.75,17.21875 c -6.73203,2.99555 -2.24036,13.26499 4.15625,13.25 3.87424,1.54059 7.83312,-1.59055 9,-5.25 -5.01157,1.8801 -12.23173,-2.11444 -10.34375,-8.03125 -0.89771,0.0814 -1.96095,-0.31888 -2.8125,0.0312 z m 22.84375,5.28125 c -3.25781,0.32061 -5.97736,3.9441 -2.40625,6.125 2.19035,2.36576 0.88866,6.91285 4.90625,6.71875 3.95433,0.81773 8.26083,-1.69307 9,-5.78125 -4.57198,2.67293 -13.0099,-1.72096 -9.8125,-7.40625 l -0.97988,0.1996 -0.70762,0.14415 z m -8.78125,4.84375 c -2.75964,2.24658 -6.52185,7.93798 -2.75,10.8125 1.84781,0.95018 3.98533,-0.39605 3.9375,-0.78125 0.9203,3.45474 5.65663,2.28889 5.03125,-1.21875 -0.0756,-1.99702 -2.18262,-8.41998 -3.15625,-3.625 -1.18964,2.29327 -2.28354,-1.59235 -0.96875,-2.6875 1.35397,-0.81125 -1.38288,-3.71351 -2.09375,-2.5 z m -12.78125,14.84375 c -1.03828,4.15606 1.62933,7.50109 1.15625,11.53125 1.25146,-3.10601 3.86233,-3.60765 5.65625,-0.75 1.14094,1.46421 2.82131,1.48441 4,0.78125 1.14025,2.92789 3.88266,0.94804 5.5625,0.65625 1.69055,0.26937 4.64633,3.14086 5.125,-0.40625 2.71092,-1.4264 2.71397,-4.63804 -0.625,-4.71875 -2.12008,-1.16255 -4.11716,2.91064 -5.15301,-0.74453 -0.7614,1.61429 -2.14493,0.25595 -4.34699,0.18203 -2.79006,-0.74154 -4.53711,-2.50197 -5.6875,-4.6875 -2.92857,3.18635 -4.09237,-4.37513 -5.4375,-5.5625 -0.0833,1.23958 -0.16667,2.47917 -0.25,3.71875 z m 23.8125,2.15625 c -2.92846,1.03309 -5.95686,4.55766 -0.8125,3.0625 2.20134,-1.20382 6.38668,-5.7071 1.36941,-3.22451 l -0.55691,0.16201 z m 5.78125,0.0937 c -5.10053,0.56972 -4.95936,7.41454 -5.71875,11.40625 -1.16138,3.14682 -3.17217,6.03635 1.34375,3.625 5.39512,-2.77347 5.03109,-9.91198 5.5625,-15.15625 l -0.99451,0.10468 -0.19299,0.0203 z m -43.4375,0.0312 c -2.00353,1.31434 -4.91669,5.42371 -1.0625,5.625 4.17965,3.80893 6.28691,9.74521 11.96875,12.09375 4.44468,3.14557 8.4558,7.10827 12.75,9.8125 6.9413,-2.09163 15.05207,-2.6427 21.1875,-6.09375 0.2591,-3.93192 5.94455,-4.90455 6.40625,-0.65625 3.31219,1.30225 3.56868,7.3852 7.96875,5.125 4.13287,-2.84048 -0.10571,-7.99573 -2.65625,-10.28125 -1.85651,-4.94919 -8.73649,-2.74224 -9.78125,1.6875 -6.5143,1.68447 -13.72281,4.6609 -20.0706,4.35481 -7.42101,-6.0956 -16.33127,-10.98966 -21.08565,-19.54231 -1.44508,-1.53017 -3.47494,-2.49328 -5.625,-2.125 z m 35.6875,28.375 c -3.98043,-0.58082 -6.58498,4.85176 -2.4921,6.75929 5.96315,4.19552 11.63389,9.24144 18.6796,10.99071 2.32478,3.17025 6.35513,0.6511 6.875,-2.5 -0.85061,-3.7703 -7.11811,-3.22694 -10.21875,-5.71875 -3.86322,-2.84122 -8.1826,-5.53444 -11.5,-8.8125 -0.0875,-1.27705 -0.29205,-1.36573 -1.34375,-0.71875 z m -36.875,9 c -4.40207,1.80268 -9.83926,8.86681 -4.46875,12.75 8.67525,12.79759 25.54588,21.97529 40.875,15.8125 5.12892,-2.20689 10.85901,-4.85045 13.625,-9.9375 -7.31601,3.36392 -15.0976,8.01866 -23.6875,6.46875 -11.59842,-1.41636 -21.09946,-10.03624 -27.1875,-19.3125 -0.27994,-2.81227 2.66938,-4.66335 4.09375,-6.6875 -1.08333,0.30208 -2.16667,0.60417 -3.25,0.90625 z"
         style="fill:url(#linearGradient3250);fill-opacity:1;stroke:none" />
      <path
         id="path3381"
         transform="translate(0,308.26769)"
         d="m 829.4375,467.78125 c -31.08166,0.59588 -58.42631,17.85245 -74.53125,54.46875 -7.99112,18.16867 -12.54468,50.93725 -6.28125,75.28125 11.27653,43.8282 68.20591,52.4124 86.90625,47.8125 39.71639,5.0451 82.79965,6.48165 107.5,-15.21875 20.39909,-17.9215 26.93438,-38.97795 26.59375,-67.09375 -0.85637,-70.68644 -45.60487,-103.59989 -103.90625,-89 -11.30023,-3.97503 -22.47524,-6.08628 -33.25,-6.25 -1.01013,-0.0154 -2.02862,-0.0192 -3.03125,0 z m -20,40.03125 0.0625,0.65625 -0.28125,0.65625 c -5.72183,4.96379 -7.34642,13.26567 -5.90625,20.5 0.72483,5.44677 4.29821,10.29808 3,15.96875 -1.17321,5.71686 5.35412,3.60489 7.46875,6.3125 0.89931,2.87479 3.85279,10.48954 6.59375,4.9375 -1.19104,3.95673 4.16855,6.13315 6.71875,5.71875 2.51921,2.90197 1.64059,-0.43147 3.75,-1.28125 2.12708,4.2856 4.57123,-3.79299 8.46875,-3.34375 4.27215,0.94714 9.87202,0.25376 8.90625,-5.625 -0.76631,-6.98549 6.61937,-11.9734 5.65625,-19.0625 0.61109,-7.75687 -3.09363,-15.01579 -7.625,-21.0625 4.11466,3.59647 7.54235,7.92441 10.3125,12.625 12.66565,22.60533 13.3657,51.57476 1.75,74.75 -1.2387,3.31838 -2.96236,6.47225 -6.125,2.46875 -6.57562,-0.78392 -11.7349,-5.29486 -16.59375,-9.40625 -4.21268,-1.55461 -4.98829,-5.6339 0.4375,-6 5.40722,-1.90677 11.25137,-3.38547 16.8125,-0.9375 6.09459,0.49554 2.59028,-6.74413 -0.65625,-8.375 -1.54872,-5.2002 -6.99234,-3.38137 -8.1875,1.09375 -6.63164,2.46879 -13.64015,3.63486 -20.46875,5.40625 -5.69371,-4.43061 -11.48877,-8.71488 -17,-13.375 -3.25328,-2.75887 -4.87671,-9.85879 -10.15625,-9 -3.30594,3.15064 -5.59446,12.15916 1.0625,12.71875 6.69933,-0.8075 11.81575,4.27877 16.5,8.25 3.86859,1.54183 3.94249,4.78429 -0.6875,4.53125 -8.39078,2.05537 -16.84421,4.16209 -25.5,4.84375 -4.38314,-12.16218 -5.66671,-25.37209 -4.15625,-38.1875 2.1187,-17.72964 9.9815,-36.25001 25.84375,-45.78125 z m 3.71875,23.0625 c 2.61876,-0.0245 5.24512,0.51743 7.59375,1.6875 7.44434,1.99325 2.58729,12.36659 -3.90625,9.59375 -5.34917,-0.0582 -9.63178,-8.6272 -3.6875,-11.28125 z m 22.75,5.34375 c 0.62991,-0.0593 1.31002,-0.006 2.03125,0.1875 2.893,0.58824 7.15916,1.26019 7.75,4.78125 0.82393,6.10523 -7.84559,7.9575 -11.40625,4.03125 -4.66555,-2.6039 -2.78435,-8.58465 1.625,-9 z m -8.5625,4.71875 c 2.19856,2.02788 5.28706,5.91323 4.5,9.25 -2.3447,4.77326 -4.13982,-6.31372 -5.34375,-0.0312 -6.0754,1.04425 -1.86678,-7.51679 0.84375,-9.21875 z M 811.375,553.875 811.25,555 c -0.27905,5.6967 -1.23945,12.83677 4.5625,16.34375 3.87387,4.70944 10.99214,6.77908 16.53125,3.84375 7.02752,-0.50231 6.97194,-8.76448 7.4375,-14 -1.87528,-1.02136 -3.06058,4.33903 -5.15625,4.84375 -0.79472,3.74008 -1.32332,-0.0541 -3.53125,0.46875 -2.4937,-1.78011 -2.93326,2.43717 -5.25,-0.0937 -1.22011,-2.78904 -2.77294,0.79679 -3.125,-0.59375 -2.50002,-1.18978 -4.36366,-5.00544 -6.59375,-1.96875 0.19553,-1.27205 -1.8011,-5.08407 -1.875,-1.25 -1.95241,0.19416 0.0184,-7.07773 -2.875,-8.71875 z m 12.09375,36.21875 c 4.98224,3.76081 10.33331,7.00845 15.09375,11.0625 6.33742,1.38315 4.80533,9.93262 10.34375,11.8125 -5.37193,5.62278 -12.48075,9.79879 -20.25,10.875 -13.24635,1.95369 -25.82213,-6.33003 -33.09375,-16.875 -5.40488,-3.88831 -0.51804,-8.29402 3,-11.1875 8.14971,-2.4948 16.54723,-4.08077 24.90625,-5.6875 z"
         style="color:#000000;fill:url(#radialGradient3243);fill-opacity:1;stroke:none;stroke-width:1px;marker:none;visibility:visible;display:inline;overflow:visible;enable-background:accumulate"
         inkscape:connector-curvature="0" />
      <path
         id="path3383"
         transform="translate(0,308.26769)"
         d="m 846.34375,497.625 c -4.51646,14.36246 -8.13615,27.07715 -11.1875,38.71875 0.17167,-0.0436 0.35018,-0.0685 0.53125,-0.0937 0.0101,-10e-4 0.0211,10e-4 0.0312,0 0.68312,-0.091 1.42298,-0.0575 2.21875,0.15625 0.52168,0.10608 1.10539,0.24759 1.6875,0.375 4.6637,-20.54434 7.84635,-36.90103 6.71875,-39.15625 z m -13.25,46.71875 c -0.38342,1.51644 -0.76848,3.06005 -1.125,4.53125 0.0163,0.44033 -0.0242,0.88508 -0.125,1.3125 -0.0952,0.19381 -0.18786,0.32501 -0.28125,0.46875 -1.07656,4.49704 -2.05202,8.83105 -2.96875,13.03125 0.19806,0.007 0.33458,-0.10486 0.46875,-0.28125 0.0918,-0.12074 0.19172,-0.29736 0.28125,-0.46875 0.0373,-0.0734 0.0847,-0.14116 0.125,-0.21875 0.27951,-0.53873 0.62999,-1.13737 1.375,-1.4375 0.89795,1.80917 1.87358,1.36714 2.96875,0.34375 1.19327,-4.94646 2.34532,-9.8621 3.46875,-14.65625 -0.25276,-0.0699 -0.50803,-0.15339 -0.75,-0.25 -0.24101,-0.0932 -0.46264,-0.19169 -0.6875,-0.3125 -0.58648,-0.31511 -1.11103,-0.68967 -1.5625,-1.1875 -0.45925,-0.25631 -0.85134,-0.56185 -1.1875,-0.875 z M 829.875,566.0625 c -0.21106,0.002 -0.37975,0.0482 -0.5625,0.125 -0.15758,0.064 -0.32474,0.15623 -0.46875,0.25 -0.0189,0.0123 -0.0437,0.0186 -0.0625,0.0312 -0.12338,0.0848 -0.25526,0.19413 -0.375,0.28125 -0.0303,0.0219 -0.0635,0.0411 -0.0937,0.0625 -0.0121,0.009 -0.0192,0.0227 -0.0312,0.0312 -0.14421,0.10093 -0.28753,0.17713 -0.4375,0.25 -0.68442,3.21489 -1.32628,6.32801 -1.9375,9.40625 1.47992,0.0991 2.94345,-0.0354 4.375,-0.46875 0.75671,-3.04831 1.51322,-6.07056 2.28125,-9.21875 -0.0323,-0.0215 -0.0602,-0.0423 -0.0937,-0.0625 -0.0932,-0.0562 -0.1783,-0.11356 -0.28125,-0.15625 -0.0855,-0.0355 -0.18837,-0.0713 -0.28125,-0.0937 -0.0197,-0.005 -0.0425,0.004 -0.0625,0 -0.22737,-0.0467 -0.47401,-0.0653 -0.75,0 -0.15115,-0.1079 -0.29961,-0.18549 -0.4375,-0.25 -0.0769,-0.0369 -0.14595,-0.0685 -0.21875,-0.0937 -0.0214,-0.007 -0.0414,0.006 -0.0625,0 -0.0786,-0.0234 -0.14458,-0.0509 -0.21875,-0.0625 -0.0941,-0.0148 -0.19399,-0.0322 -0.28125,-0.0312 z m -1.21875,16.5 c -1.37673,0.31767 -2.75605,0.65658 -4.125,1 -0.41977,2.21485 -0.82208,4.39132 -1.21875,6.5625 0.052,-0.01 0.10421,-0.0213 0.15625,-0.0312 0.91749,0.69256 1.84426,1.36465 2.78125,2.03125 0.81229,-3.21833 1.48131,-5.8529 2.40625,-9.5625 z M 817.5,623.15625 c -0.57678,3.26451 -1.12878,6.49672 -1.75,9.84375 0,0 1.65403,-6.41376 2.5,-9.65625 -0.25093,-0.059 -0.50064,-0.12211 -0.75,-0.1875 z"
         style="color:#000000;fill:url(#linearGradient3240);stroke:none;stroke-width:1px;marker:none;visibility:visible;display:inline;overflow:visible;enable-background:accumulate"
         inkscape:connector-curvature="0" />
      <path
         inkscape:connector-curvature="0"
         sodipodi:nodetypes="ccc"
         id="path3385"
         d="m 834.04965,798.56864 c -70.24534,28.45826 -77.24764,111.47419 -71.52195,131.06809 0.3734,-34.7736 16.09971,-106.42957 71.52195,-131.06809 z"
         style="color:#000000;fill:url(#linearGradient3193);stroke:none;stroke-width:1px;marker:none;visibility:visible;display:inline;overflow:visible;enable-background:accumulate" />
      <path
         inkscape:connector-curvature="0"
         sodipodi:nodetypes="ccc"
         id="path3387"
         d="m 872.5997,806.75978 c 1.96021,12.37195 19.7756,106.05995 13.01228,129.53015 10.91644,-33.0765 0.49777,-106.19496 -13.01228,-129.53015 z"
         style="color:#000000;fill:url(#linearGradient3190);stroke:none;stroke-width:1px;marker:none;visibility:visible;display:inline;overflow:visible;enable-background:accumulate" />
      <path
         inkscape:connector-curvature="0"
         sodipodi:nodetypes="ccccc"
         id="path3389"
         d="m 859.96998,783.85867 c 7.5448,-25.60621 12.22058,-33.50115 24.4705,-44.62379 13.03995,-3.42731 25.49405,-1.2867 23.917,10.94052 -22.55759,17.61773 -16.34636,15.16693 -34.57313,37.42098 -6.27329,1.26779 -12.54658,2.53558 -13.81437,-3.73771 z"
         style="color:#000000;fill:url(#linearGradient3187);fill-opacity:1;stroke:none;stroke-width:1px;marker:none;visibility:visible;display:inline;overflow:visible;enable-background:accumulate" />
      <path
         inkscape:connector-curvature="0"
         sodipodi:nodetypes="cccc"
         id="path3391"
         d="m 830.95891,785.83261 c -10.53996,-3.54375 -24.15912,-1.49699 -36.25996,-0.66562 l -6.32054,3.65959 c 11.86797,-1.28322 32.48143,-6.13323 42.5805,-2.99397 z"
         style="color:#000000;fill:url(#linearGradient3184);stroke:none;stroke-width:1px;marker:none;visibility:visible;display:inline;overflow:visible;enable-background:accumulate" />
      <path
         inkscape:connector-curvature="0"
         sodipodi:nodetypes="ccc"
         id="path3393"
         d="m 905.57812,802.72771 c 21.98074,17.71163 39.52098,90.72082 37.74632,118.12672 11.10824,-41.2711 -13.07365,-104.9165 -37.74632,-118.12672 z"
         style="color:#000000;fill:url(#linearGradient3181);stroke:none;stroke-width:1px;marker:none;visibility:visible;display:inline;overflow:visible;enable-background:accumulate" />
      <path
         inkscape:connector-curvature="0"
         sodipodi:nodetypes="ccc"
         transform="matrix(6.400115,0,0,6.400115,695.32227,684.80199)"
         id="path3395"
         d="M 10.967193,21.127777 C 13.51717,19.18096 18.053408,15.04991 22.869977,14.994464 22.410859,14.138013 13.05043,14.491453 10.967193,21.127777 z"
         style="color:#000000;fill:#ffffff;fill-opacity:0.3482143;stroke:none;stroke-width:1px;marker:none;visibility:visible;display:inline;overflow:visible;filter:url(#filter3912);enable-background:accumulate" />
      <path
         transform="matrix(0.8027229,-0.59635219,0.65912613,0.88722009,624.63272,775.60742)"
         d="m 47.729707,182.63766 c 0,9.27496 -6.015068,16.79379 -13.435029,16.79379 -7.419962,0 -13.435029,-7.51883 -13.435029,-16.79379 0,-9.27495 6.015067,-16.79378 13.435029,-16.79378 7.419961,0 13.435029,7.51883 13.435029,16.79378 z"
         sodipodi:ry="16.793787"
         sodipodi:rx="13.435029"
         sodipodi:cy="182.63766"
         sodipodi:cx="34.294678"
         id="path3397"
         style="fill:#ffffff;fill-opacity:0.3169643;stroke:none;filter:url(#filter3866)"
         sodipodi:type="arc" />
      <path
         sodipodi:nodetypes="ccc"
         inkscape:connector-curvature="0"
         id="path3399"
         d="m 892.04415,954.84893 c 28.24198,-13.9481 54.14694,-28.0486 73.89265,-57.2756 0,0 -6.18718,58.6898 -73.89265,57.2756 z"
         style="fill:#000000;fill-opacity:0.19642855;stroke:none;filter:url(#filter3900)" />
      <path
         id="path3401"
         d="m 924.8146,785.79868 -7.8125,0.15625 10.65625,1.25 c -0.93725,-0.48914 -1.88166,-0.95974 -2.84375,-1.40625 z"
         style="fill:url(#linearGradient3175);fill-opacity:1;stroke:none"
         inkscape:connector-curvature="0" />
      <path
         sodipodi:nodetypes="ccc"
         inkscape:connector-curvature="0"
         id="path3403"
         d="m 885.50341,739.53494 c 8.78365,1.18703 17.13839,2.8983 21.74353,9.19239 0,0 3.53554,-12.02081 -21.74353,-9.19239 z"
         style="fill:#ffffff;fill-opacity:0.35714291;stroke:none;filter:url(#filter3927)" />
    </g>
  </g>
</svg>
