<?xml version="1.0" encoding="UTF-8" standalone="no"?>
<!-- Created with Inkscape (http://www.inkscape.org/) -->

<svg
   xmlns:dc="http://purl.org/dc/elements/1.1/"
   xmlns:cc="http://creativecommons.org/ns#"
   xmlns:rdf="http://www.w3.org/1999/02/22-rdf-syntax-ns#"
   xmlns:svg="http://www.w3.org/2000/svg"
   xmlns="http://www.w3.org/2000/svg"
   xmlns:xlink="http://www.w3.org/1999/xlink"
   xmlns:sodipodi="http://sodipodi.sourceforge.net/DTD/sodipodi-0.dtd"
   xmlns:inkscape="http://www.inkscape.org/namespaces/inkscape"
   width="256"
   height="256"
   id="svg2"
   version="1.1"
   inkscape:version="0.48.4 r9939"
   sodipodi:docname="pumpkin-01.svg"
   inkscape:export-filename="pumpkins.png"
   inkscape:export-xdpi="299.96191"
   inkscape:export-ydpi="299.96191">
  <defs
     id="defs4">
    <linearGradient
       id="linearGradient3931">
      <stop
         style="stop-color:#5f6b21;stop-opacity:1;"
         offset="0"
         id="stop3933" />
      <stop
         style="stop-color:#39a905;stop-opacity:1;"
         offset="1"
         id="stop3935" />
    </linearGradient>
    <linearGradient
       id="linearGradient3701">
      <stop
         style="stop-color:#704608;stop-opacity:1;"
         offset="0"
         id="stop3703" />
      <stop
         style="stop-color:#ab8855;stop-opacity:1;"
         offset="1"
         id="stop3705" />
    </linearGradient>
    <linearGradient
       id="linearGradient3689">
      <stop
         style="stop-color:#fff690;stop-opacity:1;"
         offset="0"
         id="stop3691" />
      <stop
         style="stop-color:#f2ff00;stop-opacity:1;"
         offset="1"
         id="stop3693" />
    </linearGradient>
    <linearGradient
       id="linearGradient3669">
      <stop
         style="stop-color:#ffd73b;stop-opacity:1;"
         offset="0"
         id="stop3671" />
      <stop
         style="stop-color:#ee8400;stop-opacity:1;"
         offset="1"
         id="stop3673" />
    </linearGradient>
    <linearGradient
       inkscape:collect="always"
       xlink:href="#linearGradient3669"
       id="linearGradient3778"
       x1="29.022875"
       y1="24.614502"
       x2="37.24147"
       y2="21.310812"
       gradientUnits="userSpaceOnUse"
       gradientTransform="matrix(6.400115,0,0,6.400115,-36.804832,-35.52794)" />
    <linearGradient
       inkscape:collect="always"
       xlink:href="#linearGradient3669"
       id="linearGradient3784"
       x1="8.9686985"
       y1="25.84791"
       x2="17.828442"
       y2="29.798435"
       gradientUnits="userSpaceOnUse"
       gradientTransform="matrix(6.400115,0,0,6.400115,-36.804832,-35.52794)" />
    <linearGradient
       inkscape:collect="always"
       xlink:href="#linearGradient3669"
       id="linearGradient3786"
       x1="22.383869"
       y1="1023.8843"
       x2="15.64438"
       y2="1017.5189"
       gradientUnits="userSpaceOnUse"
       gradientTransform="matrix(6.400115,0,0,6.400115,-43.554832,-5672.9494)" />
    <filter
       inkscape:collect="always"
       id="filter3641"
       x="-0.047149919"
       width="1.0942998"
       y="-0.29882854"
       height="1.5976571"
       color-interpolation-filters="sRGB">
      <feGaussianBlur
         inkscape:collect="always"
         stdDeviation="0.67728367"
         id="feGaussianBlur3643" />
    </filter>
    <filter
       inkscape:collect="always"
       id="filter3866"
       x="-0.29160413"
       width="1.5832083"
       y="-0.29436955"
       height="1.5887392"
       color-interpolation-filters="sRGB">
      <feGaussianBlur
         inkscape:collect="always"
         stdDeviation="3.7554505"
         id="feGaussianBlur3868" />
    </filter>
    <filter
       inkscape:collect="always"
       id="filter3900"
       x="-0.12988681"
       width="1.2597736"
       y="-0.16756999"
       height="1.33514"
       color-interpolation-filters="sRGB">
      <feGaussianBlur
         inkscape:collect="always"
         stdDeviation="3.9990335"
         id="feGaussianBlur3902" />
    </filter>
    <filter
       inkscape:collect="always"
       id="filter3912"
       x="-0.079064548"
       width="1.1581291"
       y="-0.14543517"
       height="1.2908703"
       color-interpolation-filters="sRGB">
      <feGaussianBlur
         inkscape:collect="always"
         stdDeviation="0.39212011"
         id="feGaussianBlur3914" />
    </filter>
    <linearGradient
       inkscape:collect="always"
       xlink:href="#linearGradient3669"
       id="linearGradient3923"
       x1="183.125"
       y1="72.875"
       x2="192.25"
       y2="55.5"
       gradientUnits="userSpaceOnUse" />
    <filter
       inkscape:collect="always"
       id="filter3927"
       x="-0.12636624"
       width="1.2527325"
       y="-0.28773808"
       height="1.5754762"
       color-interpolation-filters="sRGB">
      <feGaussianBlur
         inkscape:collect="always"
         stdDeviation="1.1537473"
         id="feGaussianBlur3929" />
    </filter>
    <linearGradient
       inkscape:collect="always"
       xlink:href="#linearGradient3931"
       id="linearGradient3937"
       x1="147.5"
       y1="843.86218"
       x2="119"
       y2="814.86218"
       gradientUnits="userSpaceOnUse" />
    <radialGradient
       inkscape:collect="always"
       xlink:href="#linearGradient3689"
       id="radialGradient4012"
       gradientUnits="userSpaceOnUse"
       gradientTransform="matrix(2.7450413,4.3867121,-6.8694951,4.2987412,6680.7165,-3485.146)"
       cx="27.844063"
       cy="1021.0861"
       fx="27.844063"
       fy="1021.0861"
       r="17.592218" />
    <radialGradient
       inkscape:collect="always"
       xlink:href="#linearGradient3669"
       id="radialGradient4014"
       gradientUnits="userSpaceOnUse"
       gradientTransform="matrix(2.5638659,5.7920643,-4.9198331,2.1778048,4698.2845,-1356.0564)"
       cx="17.360392"
       cy="1023.9149"
       fx="17.360392"
       fy="1023.9149"
       r="17.592218" />
    <linearGradient
       inkscape:collect="always"
       xlink:href="#linearGradient3669"
       id="linearGradient4016"
       gradientUnits="userSpaceOnUse"
       gradientTransform="matrix(6.400115,0,0,6.400115,-405.80483,836.83426)"
       x1="14.269864"
       y1="26.721092"
       x2="25.219465"
       y2="26.058191" />
    <linearGradient
       inkscape:collect="always"
       xlink:href="#linearGradient3669"
       id="linearGradient4018"
       gradientUnits="userSpaceOnUse"
       gradientTransform="matrix(6.400115,0,0,6.400115,-405.80483,836.83426)"
       x1="8.9686985"
       y1="25.84791"
       x2="17.828442"
       y2="29.798435" />
    <linearGradient
       inkscape:collect="always"
       xlink:href="#linearGradient3669"
       id="linearGradient4020"
       gradientUnits="userSpaceOnUse"
       gradientTransform="matrix(6.400115,0,0,6.400115,-405.80483,836.83426)"
       x1="24.367268"
       y1="29.051037"
       x2="31.867142"
       y2="29.106279" />
    <linearGradient
       inkscape:collect="always"
       xlink:href="#linearGradient3931"
       id="linearGradient4022"
       gradientUnits="userSpaceOnUse"
       x1="147.5"
       y1="843.86218"
       x2="119"
       y2="814.86218"
       gradientTransform="translate(-369,76)" />
    <linearGradient
       inkscape:collect="always"
       xlink:href="#linearGradient3669"
       id="linearGradient4024"
       gradientUnits="userSpaceOnUse"
       gradientTransform="matrix(6.400115,0,0,6.400115,-412.55483,-5596.9494)"
       x1="22.383869"
       y1="1023.8843"
       x2="15.64438"
       y2="1017.5189" />
    <linearGradient
       inkscape:collect="always"
       xlink:href="#linearGradient3669"
       id="linearGradient4026"
       gradientUnits="userSpaceOnUse"
       gradientTransform="matrix(6.400115,0,0,6.400115,-405.80483,836.83426)"
       x1="29.022875"
       y1="24.614502"
       x2="37.24147"
       y2="21.310812" />
    <linearGradient
       inkscape:collect="always"
       xlink:href="#linearGradient3669"
       id="linearGradient4028"
       gradientUnits="userSpaceOnUse"
       x1="183.125"
       y1="72.875"
       x2="192.25"
       y2="55.5"
       gradientTransform="translate(-369,872.3622)" />
    <radialGradient
       inkscape:collect="always"
       xlink:href="#linearGradient3669"
       id="radialGradient4048"
       gradientUnits="userSpaceOnUse"
       gradientTransform="matrix(2.5638659,5.7920643,-4.9198331,2.1778048,5067.2845,-2228.4186)"
       cx="17.360392"
       cy="1023.9149"
       fx="17.360392"
       fy="1023.9149"
       r="17.592218" />
    <linearGradient
       inkscape:collect="always"
       xlink:href="#linearGradient3669"
       id="linearGradient4062"
       gradientUnits="userSpaceOnUse"
       gradientTransform="matrix(6.400115,0,0,6.400115,-36.804832,-35.52794)"
       x1="14.269864"
       y1="26.721092"
       x2="25.219465"
       y2="26.058191" />
    <linearGradient
       inkscape:collect="always"
       xlink:href="#linearGradient3669"
       id="linearGradient4067"
       gradientUnits="userSpaceOnUse"
       gradientTransform="matrix(6.400115,0,0,6.400115,-36.804832,-35.52794)"
       x1="24.367268"
       y1="29.051037"
       x2="31.867142"
       y2="29.106279" />
    <linearGradient
       inkscape:collect="always"
       xlink:href="#linearGradient3701"
       id="linearGradient4077"
       x1="61.875"
       y1="115.5"
       x2="68.625"
       y2="89.125"
       gradientUnits="userSpaceOnUse" />
    <linearGradient
       inkscape:collect="always"
       xlink:href="#linearGradient3701"
       id="linearGradient4085"
       x1="137"
       y1="134.77208"
       x2="204.75"
       y2="96.772079"
       gradientUnits="userSpaceOnUse" />
    <linearGradient
       inkscape:collect="always"
       xlink:href="#linearGradient3701"
       id="linearGradient4089"
       x1="38.360542"
       y1="183.60994"
       x2="178.36769"
       y2="183.60994"
       gradientUnits="userSpaceOnUse" />
    <linearGradient
       inkscape:collect="always"
       xlink:href="#linearGradient3701"
       id="linearGradient4096"
       x1="60.46875"
       y1="175.5625"
       x2="150.51297"
       y2="175.5625"
       gradientUnits="userSpaceOnUse" />
    <linearGradient
       inkscape:collect="always"
       xlink:href="#linearGradient3701"
       id="linearGradient3152"
       gradientUnits="userSpaceOnUse"
       x1="404.80295"
       y1="124.65556"
       x2="448.3125"
       y2="109.62955" />
    <linearGradient
       inkscape:collect="always"
       xlink:href="#linearGradient3701"
       id="linearGradient3154"
       gradientUnits="userSpaceOnUse"
       x1="381.5459"
       y1="186.79193"
       x2="388.55518"
       y2="147.90106" />
    <linearGradient
       inkscape:collect="always"
       xlink:href="#linearGradient3701"
       id="linearGradient3156"
       gradientUnits="userSpaceOnUse"
       x1="414.18781"
       y1="184.32687"
       x2="411.0058"
       y2="139.4256" />
    <linearGradient
       inkscape:collect="always"
       xlink:href="#linearGradient3701"
       id="linearGradient3158"
       gradientUnits="userSpaceOnUse"
       x1="338.86237"
       y1="116.39144"
       x2="371.74725"
       y2="104.72418" />
    <radialGradient
       inkscape:collect="always"
       xlink:href="#linearGradient3669"
       id="radialGradient3160"
       gradientUnits="userSpaceOnUse"
       gradientTransform="matrix(2.5638659,5.7920643,-4.9198331,2.1778048,5349.2845,-2237.4186)"
       cx="17.360392"
       cy="1023.9149"
       fx="17.360392"
       fy="1023.9149"
       r="17.592218" />
    <linearGradient
       inkscape:collect="always"
       xlink:href="#linearGradient3669"
       id="linearGradient3162"
       gradientUnits="userSpaceOnUse"
       gradientTransform="matrix(6.400115,0,0,6.400115,245.19517,-44.52794)"
       x1="14.269864"
       y1="26.721092"
       x2="25.219465"
       y2="26.058191" />
    <linearGradient
       inkscape:collect="always"
       xlink:href="#linearGradient3669"
       id="linearGradient3164"
       gradientUnits="userSpaceOnUse"
       gradientTransform="matrix(6.400115,0,0,6.400115,245.19517,751.83426)"
       x1="8.9686985"
       y1="25.84791"
       x2="17.828442"
       y2="29.798435" />
    <linearGradient
       inkscape:collect="always"
       xlink:href="#linearGradient3669"
       id="linearGradient3166"
       gradientUnits="userSpaceOnUse"
       gradientTransform="matrix(6.400115,0,0,6.400115,245.19517,-44.52794)"
       x1="24.367268"
       y1="29.051037"
       x2="31.867142"
       y2="29.106279" />
    <linearGradient
       inkscape:collect="always"
       xlink:href="#linearGradient3931"
       id="linearGradient3168"
       gradientUnits="userSpaceOnUse"
       gradientTransform="translate(282,-9)"
       x1="147.5"
       y1="843.86218"
       x2="119"
       y2="814.86218" />
    <linearGradient
       inkscape:collect="always"
       xlink:href="#linearGradient3669"
       id="linearGradient3170"
       gradientUnits="userSpaceOnUse"
       gradientTransform="matrix(6.400115,0,0,6.400115,238.44517,-5681.9494)"
       x1="22.383869"
       y1="1023.8843"
       x2="15.64438"
       y2="1017.5189" />
    <linearGradient
       inkscape:collect="always"
       xlink:href="#linearGradient3669"
       id="linearGradient3172"
       gradientUnits="userSpaceOnUse"
       gradientTransform="matrix(6.400115,0,0,6.400115,245.19517,751.83426)"
       x1="29.022875"
       y1="24.614502"
       x2="37.24147"
       y2="21.310812" />
    <linearGradient
       inkscape:collect="always"
       xlink:href="#linearGradient3669"
       id="linearGradient3174"
       gradientUnits="userSpaceOnUse"
       gradientTransform="translate(282,787.3622)"
       x1="183.125"
       y1="72.875"
       x2="192.25"
       y2="55.5" />
    <linearGradient
       inkscape:collect="always"
       xlink:href="#linearGradient3701"
       id="linearGradient3485"
       gradientUnits="userSpaceOnUse"
       x1="771.19598"
       y1="238.11057"
       x2="804.63794"
       y2="175.37566" />
    <linearGradient
       inkscape:collect="always"
       xlink:href="#linearGradient3701"
       id="linearGradient3487"
       gradientUnits="userSpaceOnUse"
       x1="810.07922"
       y1="212.61536"
       x2="812.64252"
       y2="195.11446" />
    <linearGradient
       inkscape:collect="always"
       xlink:href="#linearGradient3701"
       id="linearGradient3489"
       gradientUnits="userSpaceOnUse"
       x1="746.79315"
       y1="147.34056"
       x2="768.00635"
       y2="127.01124" />
    <linearGradient
       inkscape:collect="always"
       xlink:href="#linearGradient3701"
       id="linearGradient3491"
       gradientUnits="userSpaceOnUse"
       x1="837.63214"
       y1="467.50885"
       x2="851.00769"
       y2="435.2471" />
    <radialGradient
       inkscape:collect="always"
       xlink:href="#linearGradient3669"
       id="radialGradient3493"
       gradientUnits="userSpaceOnUse"
       gradientTransform="matrix(2.5638659,5.7920643,-4.9198331,2.1778048,5759.301,-2204.1943)"
       cx="17.360392"
       cy="1023.9149"
       fx="17.360392"
       fy="1023.9149"
       r="17.592218" />
    <linearGradient
       inkscape:collect="always"
       xlink:href="#linearGradient3669"
       id="linearGradient3495"
       gradientUnits="userSpaceOnUse"
       gradientTransform="matrix(6.400115,0,0,6.400115,655.21167,-11.3036)"
       x1="14.269864"
       y1="26.721092"
       x2="25.219465"
       y2="26.058191" />
    <linearGradient
       inkscape:collect="always"
       xlink:href="#linearGradient3669"
       id="linearGradient3497"
       gradientUnits="userSpaceOnUse"
       gradientTransform="matrix(6.400115,0,0,6.400115,655.21167,-11.3036)"
       x1="8.9686985"
       y1="25.84791"
       x2="17.828442"
       y2="29.798435" />
    <linearGradient
       inkscape:collect="always"
       xlink:href="#linearGradient3669"
       id="linearGradient3499"
       gradientUnits="userSpaceOnUse"
       gradientTransform="matrix(6.400115,0,0,6.400115,655.21167,-11.3036)"
       x1="24.367268"
       y1="29.051037"
       x2="31.867142"
       y2="29.106279" />
    <linearGradient
       inkscape:collect="always"
       xlink:href="#linearGradient3931"
       id="linearGradient3501"
       gradientUnits="userSpaceOnUse"
       gradientTransform="translate(692.0165,-463.87017)"
       x1="147.5"
       y1="843.86218"
       x2="119"
       y2="814.86218" />
    <linearGradient
       inkscape:collect="always"
       xlink:href="#linearGradient3669"
       id="linearGradient3503"
       gradientUnits="userSpaceOnUse"
       gradientTransform="matrix(6.400115,0,0,6.400115,648.46167,-6136.8196)"
       x1="22.383869"
       y1="1023.8843"
       x2="15.64438"
       y2="1017.5189" />
    <linearGradient
       inkscape:collect="always"
       xlink:href="#linearGradient3669"
       id="linearGradient3505"
       gradientUnits="userSpaceOnUse"
       gradientTransform="matrix(6.400115,0,0,6.400115,655.21167,296.96409)"
       x1="29.022875"
       y1="24.614502"
       x2="37.24147"
       y2="21.310812" />
    <linearGradient
       inkscape:collect="always"
       xlink:href="#linearGradient3669"
       id="linearGradient3507"
       gradientUnits="userSpaceOnUse"
       gradientTransform="translate(692.0165,332.49203)"
       x1="183.125"
       y1="72.875"
       x2="192.25"
       y2="55.5" />
    <linearGradient
       inkscape:collect="always"
       xlink:href="#linearGradient3669"
       id="linearGradient3511"
       gradientUnits="userSpaceOnUse"
       gradientTransform="translate(99.20093,711.26994)"
       x1="183.125"
       y1="72.875"
       x2="192.25"
       y2="55.5" />
    <linearGradient
       inkscape:collect="always"
       xlink:href="#linearGradient3669"
       id="linearGradient3517"
       gradientUnits="userSpaceOnUse"
       gradientTransform="matrix(6.400115,0,0,6.400115,62.3961,675.742)"
       x1="29.022875"
       y1="24.614502"
       x2="37.24147"
       y2="21.310812" />
    <linearGradient
       inkscape:collect="always"
       xlink:href="#linearGradient3669"
       id="linearGradient3520"
       gradientUnits="userSpaceOnUse"
       gradientTransform="matrix(6.400115,0,0,6.400115,55.6461,-5758.0417)"
       x1="22.383869"
       y1="1023.8843"
       x2="15.64438"
       y2="1017.5189" />
    <linearGradient
       inkscape:collect="always"
       xlink:href="#linearGradient3931"
       id="linearGradient3523"
       gradientUnits="userSpaceOnUse"
       gradientTransform="translate(99.20093,-85.09226)"
       x1="147.5"
       y1="843.86218"
       x2="119"
       y2="814.86218" />
    <linearGradient
       inkscape:collect="always"
       xlink:href="#linearGradient3669"
       id="linearGradient3526"
       gradientUnits="userSpaceOnUse"
       gradientTransform="matrix(6.400115,0,0,6.400115,62.3961,367.47431)"
       x1="24.367268"
       y1="29.051037"
       x2="31.867142"
       y2="29.106279" />
    <linearGradient
       inkscape:collect="always"
       xlink:href="#linearGradient3669"
       id="linearGradient3529"
       gradientUnits="userSpaceOnUse"
       gradientTransform="matrix(6.400115,0,0,6.400115,62.3961,367.47431)"
       x1="8.9686985"
       y1="25.84791"
       x2="17.828442"
       y2="29.798435" />
    <linearGradient
       inkscape:collect="always"
       xlink:href="#linearGradient3669"
       id="linearGradient3532"
       gradientUnits="userSpaceOnUse"
       gradientTransform="matrix(6.400115,0,0,6.400115,62.3961,367.47431)"
       x1="14.269864"
       y1="26.721092"
       x2="25.219465"
       y2="26.058191" />
    <radialGradient
       inkscape:collect="always"
       xlink:href="#linearGradient3669"
       id="radialGradient3568"
       gradientUnits="userSpaceOnUse"
       gradientTransform="matrix(2.5638659,5.7920643,-4.9198331,2.1778048,5166.4854,-1825.4164)"
       cx="17.360392"
       cy="1023.9149"
       fx="17.360392"
       fy="1023.9149"
       r="17.592218" />
    <linearGradient
       inkscape:collect="always"
       xlink:href="#linearGradient3701"
       id="linearGradient3573"
       x1="168.11462"
       y1="612.61652"
       x2="221.67798"
       y2="567.18488"
       gradientUnits="userSpaceOnUse" />
    <linearGradient
       inkscape:collect="always"
       xlink:href="#linearGradient3701"
       id="linearGradient3579"
       x1="232.75"
       y1="528.35632"
       x2="258.75"
       y2="499.48132"
       gradientUnits="userSpaceOnUse" />
    <linearGradient
       inkscape:collect="always"
       xlink:href="#linearGradient3701"
       id="linearGradient3583"
       x1="164.24326"
       y1="527.21948"
       x2="192"
       y2="493.96948"
       gradientUnits="userSpaceOnUse" />
    <radialGradient
       inkscape:collect="always"
       xlink:href="#linearGradient3689"
       id="radialGradient3616"
       gradientUnits="userSpaceOnUse"
       gradientTransform="matrix(2.7450413,4.3867121,-6.8694951,4.2987412,7148.9174,-3646.2383)"
       cx="27.844063"
       cy="1021.0861"
       fx="27.844063"
       fy="1021.0861"
       r="17.592218" />
    <radialGradient
       inkscape:collect="always"
       xlink:href="#linearGradient3689"
       id="radialGradient3620"
       gradientUnits="userSpaceOnUse"
       gradientTransform="matrix(2.7450413,4.3867121,-6.8694951,4.2987412,7049.7165,-3561.146)"
       cx="27.844063"
       cy="1021.0861"
       fx="27.844063"
       fy="1021.0861"
       r="17.592218" />
    <radialGradient
       inkscape:collect="always"
       xlink:href="#linearGradient3689"
       id="radialGradient3624"
       gradientUnits="userSpaceOnUse"
       gradientTransform="matrix(2.7450413,4.3867121,-6.8694951,4.2987412,7331.7165,-3570.146)"
       cx="27.844063"
       cy="1021.0861"
       fx="27.844063"
       fy="1021.0861"
       r="17.592218" />
    <radialGradient
       inkscape:collect="always"
       xlink:href="#linearGradient3689"
       id="radialGradient3628"
       gradientUnits="userSpaceOnUse"
       gradientTransform="matrix(2.7450413,4.3867121,-6.8694951,4.2987412,7741.733,-4025.0162)"
       cx="27.844063"
       cy="1021.0861"
       fx="27.844063"
       fy="1021.0861"
       r="17.592218" />
    <linearGradient
       inkscape:collect="always"
       xlink:href="#linearGradient3669"
       id="linearGradient3632"
       gradientUnits="userSpaceOnUse"
       gradientTransform="translate(405.39943,711.26994)"
       x1="183.125"
       y1="72.875"
       x2="192.25"
       y2="55.5" />
    <linearGradient
       inkscape:collect="always"
       xlink:href="#linearGradient3669"
       id="linearGradient3638"
       gradientUnits="userSpaceOnUse"
       gradientTransform="matrix(6.400115,0,0,6.400115,368.5946,675.742)"
       x1="29.022875"
       y1="24.614502"
       x2="37.24147"
       y2="21.310812" />
    <linearGradient
       inkscape:collect="always"
       xlink:href="#linearGradient3669"
       id="linearGradient3641"
       gradientUnits="userSpaceOnUse"
       gradientTransform="matrix(6.400115,0,0,6.400115,361.8446,-5758.0417)"
       x1="22.383869"
       y1="1023.8843"
       x2="15.64438"
       y2="1017.5189" />
    <linearGradient
       inkscape:collect="always"
       xlink:href="#linearGradient3931"
       id="linearGradient3644"
       gradientUnits="userSpaceOnUse"
       gradientTransform="translate(405.39943,-85.09226)"
       x1="147.5"
       y1="843.86218"
       x2="119"
       y2="814.86218" />
    <linearGradient
       inkscape:collect="always"
       xlink:href="#linearGradient3669"
       id="linearGradient3650"
       gradientUnits="userSpaceOnUse"
       gradientTransform="matrix(6.400115,0,0,6.400115,368.5946,675.742)"
       x1="8.9686985"
       y1="25.84791"
       x2="17.828442"
       y2="29.798435" />
    <radialGradient
       inkscape:collect="always"
       xlink:href="#linearGradient3689"
       id="radialGradient3659"
       gradientUnits="userSpaceOnUse"
       gradientTransform="matrix(2.7450413,4.3867121,-6.8694951,4.2987412,7455.1159,-3646.2383)"
       cx="27.844063"
       cy="1021.0861"
       fx="27.844063"
       fy="1021.0861"
       r="17.592218" />
    <linearGradient
       inkscape:collect="always"
       xlink:href="#linearGradient3669"
       id="linearGradient3703"
       gradientUnits="userSpaceOnUse"
       gradientTransform="matrix(6.400115,0,0,6.400115,368.5946,367.47431)"
       x1="14.269864"
       y1="26.721092"
       x2="25.219465"
       y2="26.058191" />
    <linearGradient
       inkscape:collect="always"
       xlink:href="#linearGradient3669"
       id="linearGradient3723"
       gradientUnits="userSpaceOnUse"
       gradientTransform="matrix(6.400115,0,0,6.400115,368.5946,367.47431)"
       x1="24.367268"
       y1="29.051037"
       x2="31.867142"
       y2="29.106279" />
    <radialGradient
       inkscape:collect="always"
       xlink:href="#linearGradient3669"
       id="radialGradient3726"
       gradientUnits="userSpaceOnUse"
       gradientTransform="matrix(2.5638659,5.7920643,-4.9198331,2.1778048,5472.6839,-1825.4164)"
       cx="17.360392"
       cy="1023.9149"
       fx="17.360392"
       fy="1023.9149"
       r="17.592218" />
    <linearGradient
       inkscape:collect="always"
       xlink:href="#linearGradient3701"
       id="linearGradient3732"
       x1="461.56396"
       y1="536.12317"
       x2="493.91409"
       y2="514.20282"
       gradientUnits="userSpaceOnUse" />
    <linearGradient
       inkscape:collect="always"
       xlink:href="#linearGradient3701"
       id="linearGradient3736"
       x1="552.07361"
       y1="544.86719"
       x2="582.47919"
       y2="518.52747"
       gradientUnits="userSpaceOnUse" />
    <linearGradient
       inkscape:collect="always"
       xlink:href="#linearGradient3701"
       id="linearGradient3740"
       x1="490.625"
       y1="599.34448"
       x2="495"
       y2="566.71948"
       gradientUnits="userSpaceOnUse" />
    <linearGradient
       inkscape:collect="always"
       xlink:href="#linearGradient3701"
       id="linearGradient3744"
       x1="525.55713"
       y1="616.28491"
       x2="537.31281"
       y2="559.71637"
       gradientUnits="userSpaceOnUse" />
    <linearGradient
       inkscape:collect="always"
       xlink:href="#linearGradient3669"
       id="linearGradient3776"
       gradientUnits="userSpaceOnUse"
       gradientTransform="translate(711.5979,711.26994)"
       x1="183.125"
       y1="72.875"
       x2="192.25"
       y2="55.5" />
    <linearGradient
       inkscape:collect="always"
       xlink:href="#linearGradient3669"
       id="linearGradient3785"
       gradientUnits="userSpaceOnUse"
       gradientTransform="matrix(6.400115,0,0,6.400115,668.04307,-5758.0417)"
       x1="22.383869"
       y1="1023.8843"
       x2="15.64438"
       y2="1017.5189" />
    <linearGradient
       inkscape:collect="always"
       xlink:href="#linearGradient3931"
       id="linearGradient3788"
       gradientUnits="userSpaceOnUse"
       gradientTransform="translate(711.5979,-85.09226)"
       x1="147.5"
       y1="843.86218"
       x2="119"
       y2="814.86218" />
    <linearGradient
       inkscape:collect="always"
       xlink:href="#linearGradient3669"
       id="linearGradient3791"
       gradientUnits="userSpaceOnUse"
       gradientTransform="matrix(6.400115,0,0,6.400115,674.79307,367.47431)"
       x1="24.367268"
       y1="29.051037"
       x2="31.867142"
       y2="29.106279" />
    <linearGradient
       inkscape:collect="always"
       xlink:href="#linearGradient3669"
       id="linearGradient3794"
       gradientUnits="userSpaceOnUse"
       gradientTransform="matrix(6.400115,0,0,6.400115,674.79307,367.47431)"
       x1="8.9686985"
       y1="25.84791"
       x2="17.828442"
       y2="29.798435" />
    <linearGradient
       inkscape:collect="always"
       xlink:href="#linearGradient3669"
       id="linearGradient3797"
       gradientUnits="userSpaceOnUse"
       gradientTransform="matrix(6.400115,0,0,6.400115,674.79307,367.47431)"
       x1="14.269864"
       y1="26.721092"
       x2="25.219465"
       y2="26.058191" />
    <radialGradient
       inkscape:collect="always"
       xlink:href="#linearGradient3689"
       id="radialGradient3803"
       gradientUnits="userSpaceOnUse"
       gradientTransform="matrix(2.7450413,4.3867121,-6.8694951,4.2987412,7761.3144,-3646.2383)"
       cx="27.844063"
       cy="1021.0861"
       fx="27.844063"
       fy="1021.0861"
       r="17.592218" />
    <linearGradient
       inkscape:collect="always"
       xlink:href="#linearGradient3669"
       id="linearGradient3822"
       gradientUnits="userSpaceOnUse"
       gradientTransform="matrix(6.400115,0,0,6.400115,674.79307,367.47431)"
       x1="29.022875"
       y1="24.614502"
       x2="37.24147"
       y2="21.310812" />
    <radialGradient
       inkscape:collect="always"
       xlink:href="#linearGradient3669"
       id="radialGradient3825"
       gradientUnits="userSpaceOnUse"
       gradientTransform="matrix(2.5638659,5.7920643,-4.9198331,2.1778048,5778.8824,-1825.4164)"
       cx="17.360392"
       cy="1023.9149"
       fx="17.360392"
       fy="1023.9149"
       r="17.592218" />
    <linearGradient
       inkscape:collect="always"
       xlink:href="#linearGradient3701"
       id="linearGradient3830"
       x1="779.75"
       y1="526.34448"
       x2="796.625"
       y2="501.09448"
       gradientUnits="userSpaceOnUse" />
    <linearGradient
       inkscape:collect="always"
       xlink:href="#linearGradient3701"
       id="linearGradient3834"
       x1="870.36761"
       y1="529.09424"
       x2="901.5"
       y2="502.21924"
       gradientUnits="userSpaceOnUse" />
    <linearGradient
       inkscape:collect="always"
       xlink:href="#linearGradient3701"
       id="linearGradient3838"
       x1="808.5"
       y1="604.53198"
       x2="815.75"
       y2="552.53198"
       gradientUnits="userSpaceOnUse" />
    <linearGradient
       inkscape:collect="always"
       xlink:href="#linearGradient3701"
       id="linearGradient3842"
       x1="826.5"
       y1="594.09448"
       x2="830.5"
       y2="539.59448"
       gradientUnits="userSpaceOnUse" />
  </defs>
  <sodipodi:namedview
     id="base"
     pagecolor="#ffffff"
     bordercolor="#666666"
     borderopacity="1.0"
     inkscape:pageopacity="0.0"
     inkscape:pageshadow="2"
     inkscape:zoom="0.57777733"
     inkscape:cx="372.58922"
     inkscape:cy="372.04724"
     inkscape:document-units="px"
     inkscape:current-layer="layer1"
     showgrid="false"
     inkscape:window-width="1393"
     inkscape:window-height="826"
     inkscape:window-x="199"
     inkscape:window-y="24"
     inkscape:window-maximized="0"
     showguides="true"
     inkscape:guide-bbox="true">
    <inkscape:grid
       type="xygrid"
       id="grid2837"
       empspacing="5"
       visible="true"
       enabled="true"
       snapvisiblegridlinesonly="true" />
  </sodipodi:namedview>
  <metadata
     id="metadata7">
    <rdf:RDF>
      <cc:Work
         rdf:about="">
        <dc:format>image/svg+xml</dc:format>
        <dc:type
           rdf:resource="http://purl.org/dc/dcmitype/StillImage" />
        <dc:title></dc:title>
      </cc:Work>
    </rdf:RDF>
  </metadata>
  <g
     inkscape:label="Layer 1"
     inkscape:groupmode="layer"
     id="layer1"
     transform="translate(0,-796.36217)">
    <g
       id="g4098"
       transform="translate(4.5521966,-5.8009792)">
      <path
         transform="matrix(5.7450926,0,0,7.0920193,-20.335982,740.26173)"
         d="m 40.943338,39.252682 c 0,1.502079 -7.717431,2.719755 -17.237365,2.719755 -9.519935,0 -17.2373661,-1.217676 -17.2373661,-2.719755 0,-1.502079 7.7174311,-2.719755 17.2373661,-2.719755 9.519934,0 17.237365,1.217676 17.237365,2.719755 z"
         sodipodi:ry="2.7197549"
         sodipodi:rx="17.237366"
         sodipodi:cy="39.252682"
         sodipodi:cx="23.705973"
         id="path3816"
         style="fill:#000000;fill-opacity:0.76862745;fill-rule:evenodd;stroke:none;filter:url(#filter3641)"
         sodipodi:type="arc" />
      <path
         style="color:#000000;fill:url(#radialGradient3620);fill-opacity:1;stroke:none;stroke-width:1px;marker:none;visibility:visible;display:inline;overflow:visible;enable-background:accumulate"
         d="M 92.34375,851.59375 C 64.120843,851.78181 38.512484,869.6722 25.428238,894.08831 11.477371,918.45203 7.998414,948.07599 12.40625,975.5 c 3.526529,22.3876 21.98368,39.5281 42.78125,46.5938 14.318652,5.2775 30.231046,7.5444 45.3359,5.1563 30.86577,3.4388 64.18264,6.8398 93.1016,-6.6563 23.12135,-11.7249 37.469,-36.55015 38.5,-62.18755 2.00913,-30.48424 -3.74524,-64.62419 -27.15625,-86.125 -20.0704,-18.57329 -49.81599,-21.26768 -75.40625,-14.40625 -11.88785,-4.2048 -24.50757,-6.63875 -37.21875,-6.28125 z"
         id="path3939"
         inkscape:connector-curvature="0" />
      <path
         sodipodi:nodetypes="sccccscccc"
         inkscape:connector-curvature="0"
         id="path4070"
         transform="translate(0,796.3622)"
         d="m 61.4375,94.8125 c -5.176656,0.156474 -10.183982,1.990483 -12.5625,6.9375 10.951833,36.92778 47.8186,25.69798 60.5,24.25 -6.45658,-1.38088 -42.423291,5.4342 -53.62868,-23.18934 7.156582,-1.1411 8.40967,-6.404621 21.87868,-2.43566 -0.685921,-2.438464 -8.621618,-5.791193 -16.1875,-5.5625 z M 85.194544,100.95711 82.75,100.75 73.5,117 c 5.840105,1.82403 15.979752,0.41946 11.694544,-16.04289 z"
         style="fill:url(#linearGradient4077);fill-opacity:1;stroke:none" />
      <path
         id="path4079"
         transform="translate(0,796.3622)"
         d="m 166.5,99.5 -3.75,2 -0.25,17.75 1,2.75 c 6.12419,0.0409 11.00206,-15.1646 3,-22.5 z m 30,0.5 c -14.90454,17.59942 -20.75425,39.09826 -54,20.75 2.36337,-3.5478 4.68522,-7.40126 9,-12.25 l -24,15.75 c 23.68505,6.35578 51.26589,20.67533 69,-24.25 z"
         style="fill:url(#linearGradient4085);stroke:none"
         inkscape:connector-curvature="0" />
      <path
         sodipodi:nodetypes="ccccccccccccsscc"
         transform="translate(0,796.3622)"
         inkscape:connector-curvature="0"
         id="path4087"
         d="m 42.603184,157.35861 c 4.224725,10.80483 13.090736,19.86917 20.85965,29.34493 4.734769,-4.41586 5.900899,-4.37093 8.838835,-6.54075 l 1.237436,-0.7071 c 2.611524,3.51247 2.662182,8.56146 3.005204,13.43503 13.341645,7.45032 28.060581,6.04475 42.249631,7.42462 l 9.89949,-7.6014 1.59099,-4.59619 1.94455,-0.7071 c 1.98136,2.80449 1.96112,6.10938 2.12132,9.36916 13.51639,-0.95118 29.24609,-8.54231 44.0174,-13.25826 l -58.15954,26.33973 c 0,0 -49.674248,-9.72272 -50.558132,-10.6066 -0.883883,-0.88388 -29.875262,-25.98617 -30.052038,-27.22361 -0.176777,-1.23744 -1.237437,-14.49569 -1.237437,-14.49569 z"
         style="fill:url(#linearGradient4089);stroke:none" />
      <path
         sodipodi:nodetypes="ccccccccsc"
         inkscape:connector-curvature="0"
         id="path4091"
         transform="translate(0,796.3622)"
         d="m 62.9375,163.90625 -2.46875,10.78125 0,1.75 c 6.289714,-2.74117 6.678104,-7.10802 8.825983,-10.76961 z m 81.5,9.90625 -3.03125,13.40625 1.59743,-0.33487 c 2.44915,0.89061 10.17853,-10.32754 6.56158,-11.85171 -0.94988,-0.40028 -5.12776,-1.21967 -5.12776,-1.21967 z"
         style="fill:url(#linearGradient4096);stroke:none" />
      <path
         sodipodi:nodetypes="ssscsscssscccccscccccccccccccccccccccc"
         inkscape:connector-curvature="0"
         id="path2867"
         transform="translate(0,796.3622)"
         d="M 93.3125,54.21875 C 62.230839,54.814633 34.886188,72.071198 18.78125,108.6875 10.79013,126.85617 6.2365682,159.62482 12.5,183.96875 c 11.276532,43.82821 68.205905,52.4124 86.90625,47.8125 39.71639,5.0451 82.79965,6.48165 107.5,-15.21875 20.39909,-17.92154 26.93438,-38.97793 26.59375,-67.09375 -0.85637,-70.68639 -45.60487,-103.59989 -103.90625,-89 -11.30023,-3.97503 -22.47524,-6.086281 -33.25,-6.25 -1.010134,-0.01535 -2.028616,-0.01922 -3.03125,0 z m -27.875,43.75 c 3.274899,0.0221 6.370107,0.61105 9.3125,1.5625 -3.520011,2.48852 -6.177888,5.93964 -1.40625,17.5625 0,0 13.079494,2.34462 9.34375,-13.90625 13.44595,8.09955 21.59375,22.78125 21.59375,22.78125 -17.39577,2.00983 -43.961871,1.79242 -52.65625,-24.90625 4.842101,-2.22222 9.471632,-3.12305 13.8125,-3.09375 z m 105.96875,4.25 c 5.70798,-0.12919 11.77215,1.33102 18.125,5.1875 -11.70366,38.90655 -52.63991,16.18807 -52.90625,14.71875 4.62666,-5.02532 10.61143,-10.6934 17.625,-14.71875 -3.50179,17.33024 10.875,14.78125 10.875,14.78125 4.92761,-11.91266 2.92668,-16.28118 -0.46875,-19.09375 2.18702,-0.53322 4.43367,-0.8226 6.75,-0.875 z M 40,159 c 6.180256,2.23081 12.174379,4.21408 18.09375,5.96875 -0.386791,4.7927 1.293277,8.03525 2.71875,11.46875 1.793239,-3.13542 4.193266,-6.27083 4.6875,-9.40625 23.819267,6.38581 46.76388,9.26384 74.46875,10.375 -0.95458,3.60135 0.29703,6.77237 1.09375,10.34375 3.61261,-3.3351 6.37551,-6.30894 6.25,-10.09375 10.44876,0.30135 21.55708,0.37755 33.6875,0.34375 -15.33816,10.92275 -32.1532,18.37383 -48.78125,22.0625 0.0914,-4.11246 0.50877,-8.27924 -2.125,-11.9375 -6.12889,2.85808 -8.00659,8.26688 -9.5,13.90625 -17.31324,2.00574 -33.973675,-0.26497 -48,-7.15625 1.374482,-6.09236 1.446198,-11.49908 -0.46875,-15.25 -4.648629,2.20793 -6.88292,5.90098 -8,10.28125 C 53.746243,182.74445 45.352558,172.51891 40,159 z"
         style="color:#000000;fill:url(#radialGradient4048);fill-opacity:1;stroke:none;stroke-width:1px;marker:none;visibility:visible;display:inline;overflow:visible;enable-background:accumulate" />
      <path
         id="path3725"
         transform="translate(0,796.3622)"
         d="m 62.625,60.96875 c -0.77719,0.351516 -1.54554,0.714241 -2.3125,1.09375 0.770551,-0.381545 1.53161,-0.740477 2.3125,-1.09375 z M 47.90625,69.8125 c -0.727255,0.557545 -1.442319,1.130408 -2.15625,1.71875 0.713821,-0.588458 1.429101,-1.161103 2.15625,-1.71875 z m -4.8125,4 c -0.621788,0.559667 -1.233225,1.134321 -1.84375,1.71875 0.609312,-0.583597 1.223213,-1.159842 1.84375,-1.71875 z m 67.125,10.25 c -4.08333,12.985095 -7.41445,24.61792 -10.28125,35.34375 0.38247,0.51155 0.73758,1.00739 1.0625,1.46875 0.005,0.006 -0.005,0.0248 0,0.0312 0.64494,0.91662 1.14565,1.6124 1.59375,2.3125 0.27589,0.421 0.44715,0.7284 0.65625,1.0625 4.79151,-21.03259 8.11543,-37.925382 6.96875,-40.21875 z m -7.375,42.0625 c -0.64067,0.0672 -1.27635,0.12881 -1.9375,0.1875 -0.1372,0.011 -0.26823,0.0207 -0.40625,0.0312 -0.12318,0.0105 -0.25119,0.0211 -0.375,0.0312 -0.678101,0.0496 -1.366525,0.0814 -2.0625,0.125 -4.402083,17.16848 -7.4519,31.81829 -10.03125,45.59375 1.197564,0.2181 2.390881,0.42161 3.59375,0.625 3.783738,-15.12274 7.82731,-31.80303 11.21875,-46.59375 z M 83.25,199.09375 c -1.153878,6.6893 -2.336509,13.40157 -3.625,20.34375 0,0 2.26091,-8.65131 5.15625,-19.90625 -0.507833,-0.14459 -1.028069,-0.28296 -1.53125,-0.4375 z m 127.3125,14.0625 c -0.58926,0.57807 -1.16508,1.1473 -1.78125,1.71875 0.61061,-0.56629 1.19708,-1.14598 1.78125,-1.71875 z"
         style="color:#000000;fill:url(#linearGradient4062);stroke:none;stroke-width:1px;marker:none;visibility:visible;display:inline;overflow:visible;enable-background:accumulate"
         inkscape:connector-curvature="0" />
      <path
         id="path3713"
         transform="translate(0,796.3622)"
         d="M 97.9375,76.75 C 84.624432,82.143479 73.582472,89.490369 64.46875,98 c 0.320517,-0.0081 0.651295,-0.03339 0.96875,-0.03125 0.765195,0.0052 1.504044,0.05981 2.25,0.125 C 76.126308,89.389058 86.13132,81.998557 97.9375,76.75 z M 54.75,108.3125 c -29.872766,36.11483 -32.565778,85.05181 -28.34375,99.5 0.255963,-23.83746 7.723306,-64.99468 30.25,-96.46875 -0.667728,-0.9584 -1.310002,-1.95725 -1.90625,-3.03125 z"
         style="color:#000000;fill:url(#linearGradient3784);stroke:none;stroke-width:1px;marker:none;visibility:visible;display:inline;overflow:visible;enable-background:accumulate"
         inkscape:connector-curvature="0" />
      <path
         id="path3727"
         transform="translate(0,796.3622)"
         d="m 62.625,60.96875 c -0.77719,0.351516 -1.54554,0.714241 -2.3125,1.09375 0.770551,-0.381545 1.53161,-0.740477 2.3125,-1.09375 z M 47.90625,69.8125 c -0.727255,0.557545 -1.442319,1.130408 -2.15625,1.71875 0.713821,-0.588458 1.429101,-1.161103 2.15625,-1.71875 z m -4.8125,4 c -0.621788,0.559667 -1.233225,1.134321 -1.84375,1.71875 0.609312,-0.583597 1.223213,-1.159842 1.84375,-1.71875 z m 93.375,11.125 c 0.62635,3.953253 2.8926,16.22923 5.4375,31.84375 0.64025,-0.60205 1.29561,-1.18671 1.96875,-1.78125 0.14293,-0.12856 0.2931,-0.24698 0.4375,-0.375 0.27032,-0.2353 0.53713,-0.48567 0.8125,-0.71875 0.40407,-0.34732 0.80293,-0.6932 1.21875,-1.03125 -2.83311,-11.74645 -6.23774,-21.655046 -9.875,-27.9375 z m 6.90625,41 c 2.57669,16.48718 5.18787,35.32251 6.59375,51.78125 1.34602,0.0337 2.69332,0.0668 4.0625,0.0937 0.0269,-16.11994 -1.67848,-33.75062 -4.5,-49.6875 -0.11657,-0.0341 -0.22809,-0.0591 -0.34375,-0.0937 -0.30227,-0.0907 -0.61119,-0.18718 -0.90625,-0.28125 -0.55568,-0.17624 -1.09625,-0.37749 -1.625,-0.5625 -0.12733,-0.045 -0.24941,-0.0797 -0.375,-0.125 -0.16711,-0.0597 -0.30479,-0.12716 -0.46875,-0.1875 -0.58206,-0.21609 -1.14813,-0.43599 -1.6875,-0.65625 -0.24031,-0.0978 -0.51938,-0.18329 -0.75,-0.28125 z m 10,67.40625 c -0.80103,0.33201 -1.60296,0.65395 -2.40625,0.96875 0.22375,8.58748 -0.17278,15.65894 -1.46875,20.15625 1.95437,-5.92169 3.18484,-13.15048 3.875,-21.125 z m 57.1875,19.8125 c -0.58926,0.57807 -1.16508,1.1473 -1.78125,1.71875 0.61061,-0.56629 1.19708,-1.14598 1.78125,-1.71875 z"
         style="color:#000000;fill:url(#linearGradient4067);stroke:none;stroke-width:1px;marker:none;visibility:visible;display:inline;overflow:visible;enable-background:accumulate"
         inkscape:connector-curvature="0" />
      <path
         inkscape:connector-curvature="0"
         sodipodi:nodetypes="ccccc"
         id="path3650"
         d="m 123.84288,858.39094 c 7.5448,-25.60621 12.22058,-33.50115 24.4705,-44.62379 13.03995,-3.42731 25.49405,-1.2867 23.917,10.94052 -22.55759,17.61773 -16.34636,15.16693 -34.57313,37.42098 -6.27329,1.26779 -12.54658,2.53558 -13.81437,-3.73771 z"
         style="color:#000000;fill:url(#linearGradient3937);fill-opacity:1;stroke:none;stroke-width:1px;marker:none;visibility:visible;display:inline;overflow:visible;enable-background:accumulate" />
      <path
         inkscape:connector-curvature="0"
         sodipodi:nodetypes="cccc"
         id="path3746"
         d="m 94.83181,860.36488 c -10.53996,-3.54375 -24.159116,-1.49699 -36.259961,-0.66562 l -6.320543,3.65959 c 11.867971,-1.28322 32.481429,-6.13323 42.580504,-2.99397 z"
         style="color:#000000;fill:url(#linearGradient3786);stroke:none;stroke-width:1px;marker:none;visibility:visible;display:inline;overflow:visible;enable-background:accumulate" />
      <path
         id="path3729"
         transform="translate(0,796.3622)"
         d="m 169.4375,80.90625 c 5.96398,4.805653 11.61194,13.692956 16.625,24.625 1.14594,0.55107 2.30323,1.16748 3.46875,1.875 -0.3557,1.18246 -0.74849,2.30402 -1.15625,3.375 12.1685,29.15111 20.03043,69.44163 18.8125,88.25 11.10824,-41.27105 -13.07733,-104.91478 -37.75,-118.125 z"
         style="color:#000000;fill:url(#linearGradient3778);stroke:none;stroke-width:1px;marker:none;visibility:visible;display:inline;overflow:visible;enable-background:accumulate"
         inkscape:connector-curvature="0" />
      <path
         inkscape:connector-curvature="0"
         sodipodi:nodetypes="ccc"
         transform="matrix(6.400115,0,0,6.400115,-40.804832,759.33426)"
         id="path3802"
         d="M 10.967193,21.127777 C 13.51717,19.18096 18.053408,15.04991 22.869977,14.994464 22.410859,14.138013 13.05043,14.491453 10.967193,21.127777 z"
         style="color:#000000;fill:#ffffff;fill-opacity:0.3482143;stroke:none;stroke-width:1px;marker:none;visibility:visible;display:inline;overflow:visible;filter:url(#filter3912);enable-background:accumulate" />
      <path
         transform="matrix(0.8027229,-0.59635219,0.65912613,0.88722009,-111.49438,850.13969)"
         d="m 47.729707,182.63766 c 0,9.27496 -6.015068,16.79379 -13.435029,16.79379 -7.419962,0 -13.435029,-7.51883 -13.435029,-16.79379 0,-9.27495 6.015067,-16.79378 13.435029,-16.79378 7.419961,0 13.435029,7.51883 13.435029,16.79378 z"
         sodipodi:ry="16.793787"
         sodipodi:rx="13.435029"
         sodipodi:cy="182.63766"
         sodipodi:cx="34.294678"
         id="path3088"
         style="fill:#ffffff;fill-opacity:0.3169643;stroke:none;filter:url(#filter3866)"
         sodipodi:type="arc" />
      <path
         sodipodi:nodetypes="ccc"
         transform="translate(0,796.3622)"
         inkscape:connector-curvature="0"
         id="path3870"
         d="m 155.91705,233.01903 c 28.24198,-13.9481 54.14694,-28.04864 73.89265,-57.27565 0,0 -6.18718,58.68986 -73.89265,57.27565 z"
         style="fill:#000000;fill-opacity:0.19642855;stroke:none;filter:url(#filter3900)" />
      <path
         id="path3916"
         transform="translate(0,796.3622)"
         d="m 188.6875,63.96875 -7.8125,0.15625 10.65625,1.25 c -0.93725,-0.489145 -1.88166,-0.959742 -2.84375,-1.40625 z"
         style="fill:url(#linearGradient3923);fill-opacity:1;stroke:none"
         inkscape:connector-curvature="0" />
      <path
         sodipodi:nodetypes="ccc"
         transform="translate(0,796.3622)"
         inkscape:connector-curvature="0"
         id="path3925"
         d="m 149.37631,17.705014 c 8.78365,1.187029 17.13839,2.898294 21.74353,9.192389 0,0 3.53554,-12.020816 -21.74353,-9.192389 z"
         style="fill:#ffffff;fill-opacity:0.35714291;stroke:none;filter:url(#filter3927)" />
    </g>
  </g>
</svg>
