<?xml version="1.0" encoding="UTF-8" standalone="no"?>
<!-- Created with Inkscape (http://www.inkscape.org/) -->

<svg
   xmlns:dc="http://purl.org/dc/elements/1.1/"
   xmlns:cc="http://creativecommons.org/ns#"
   xmlns:rdf="http://www.w3.org/1999/02/22-rdf-syntax-ns#"
   xmlns:svg="http://www.w3.org/2000/svg"
   xmlns="http://www.w3.org/2000/svg"
   xmlns:xlink="http://www.w3.org/1999/xlink"
   xmlns:sodipodi="http://sodipodi.sourceforge.net/DTD/sodipodi-0.dtd"
   xmlns:inkscape="http://www.inkscape.org/namespaces/inkscape"
   width="256"
   height="256"
   id="svg2"
   version="1.1"
   inkscape:version="0.48.4 r9939"
   sodipodi:docname="pumpkin-16.svg"
   inkscape:export-filename="pumpkins.png"
   inkscape:export-xdpi="299.96191"
   inkscape:export-ydpi="299.96191">
  <defs
     id="defs4">
    <linearGradient
       id="linearGradient3931">
      <stop
         style="stop-color:#5f6b21;stop-opacity:1;"
         offset="0"
         id="stop3933" />
      <stop
         style="stop-color:#39a905;stop-opacity:1;"
         offset="1"
         id="stop3935" />
    </linearGradient>
    <linearGradient
       id="linearGradient3701">
      <stop
         style="stop-color:#704608;stop-opacity:1;"
         offset="0"
         id="stop3703" />
      <stop
         style="stop-color:#ab8855;stop-opacity:1;"
         offset="1"
         id="stop3705" />
    </linearGradient>
    <linearGradient
       id="linearGradient3689">
      <stop
         style="stop-color:#fff690;stop-opacity:1;"
         offset="0"
         id="stop3691" />
      <stop
         style="stop-color:#f2ff00;stop-opacity:1;"
         offset="1"
         id="stop3693" />
    </linearGradient>
    <linearGradient
       id="linearGradient3669">
      <stop
         style="stop-color:#ffd73b;stop-opacity:1;"
         offset="0"
         id="stop3671" />
      <stop
         style="stop-color:#ee8400;stop-opacity:1;"
         offset="1"
         id="stop3673" />
    </linearGradient>
    <filter
       inkscape:collect="always"
       id="filter3641"
       x="-0.047149919"
       width="1.0942998"
       y="-0.29882854"
       height="1.5976571"
       color-interpolation-filters="sRGB">
      <feGaussianBlur
         inkscape:collect="always"
         stdDeviation="0.67728367"
         id="feGaussianBlur3643" />
    </filter>
    <filter
       inkscape:collect="always"
       id="filter3866"
       x="-0.29160413"
       width="1.5832083"
       y="-0.29436955"
       height="1.5887392"
       color-interpolation-filters="sRGB">
      <feGaussianBlur
         inkscape:collect="always"
         stdDeviation="3.7554505"
         id="feGaussianBlur3868" />
    </filter>
    <filter
       inkscape:collect="always"
       id="filter3900"
       x="-0.12988681"
       width="1.2597736"
       y="-0.16756999"
       height="1.33514"
       color-interpolation-filters="sRGB">
      <feGaussianBlur
         inkscape:collect="always"
         stdDeviation="3.9990335"
         id="feGaussianBlur3902" />
    </filter>
    <filter
       inkscape:collect="always"
       id="filter3912"
       x="-0.079064548"
       width="1.1581291"
       y="-0.14543517"
       height="1.2908703"
       color-interpolation-filters="sRGB">
      <feGaussianBlur
         inkscape:collect="always"
         stdDeviation="0.39212011"
         id="feGaussianBlur3914" />
    </filter>
    <filter
       inkscape:collect="always"
       id="filter3927"
       x="-0.12636624"
       width="1.2527325"
       y="-0.28773808"
       height="1.5754762"
       color-interpolation-filters="sRGB">
      <feGaussianBlur
         inkscape:collect="always"
         stdDeviation="1.1537473"
         id="feGaussianBlur3929" />
    </filter>
    <linearGradient
       inkscape:collect="always"
       xlink:href="#linearGradient3669"
       id="linearGradient3162"
       gradientUnits="userSpaceOnUse"
       gradientTransform="translate(736.1271,381.60252)"
       x1="183.125"
       y1="72.875"
       x2="192.25"
       y2="55.5" />
    <linearGradient
       inkscape:collect="always"
       xlink:href="#linearGradient3669"
       id="linearGradient3168"
       gradientUnits="userSpaceOnUse"
       gradientTransform="matrix(6.400115,0,0,6.400115,699.32227,346.07458)"
       x1="29.022875"
       y1="24.614502"
       x2="37.24147"
       y2="21.310812" />
    <linearGradient
       inkscape:collect="always"
       xlink:href="#linearGradient3669"
       id="linearGradient3171"
       gradientUnits="userSpaceOnUse"
       gradientTransform="matrix(6.400115,0,0,6.400115,692.57227,-6087.7091)"
       x1="22.383869"
       y1="1023.8843"
       x2="15.64438"
       y2="1017.5189" />
    <linearGradient
       inkscape:collect="always"
       xlink:href="#linearGradient3931"
       id="linearGradient3174"
       gradientUnits="userSpaceOnUse"
       gradientTransform="translate(736.1271,-414.75968)"
       x1="147.5"
       y1="843.86218"
       x2="119"
       y2="814.86218" />
    <linearGradient
       inkscape:collect="always"
       xlink:href="#linearGradient3669"
       id="linearGradient3177"
       gradientUnits="userSpaceOnUse"
       gradientTransform="matrix(6.400115,0,0,6.400115,699.32227,346.07458)"
       x1="24.367268"
       y1="29.051037"
       x2="31.867142"
       y2="29.106279" />
    <linearGradient
       inkscape:collect="always"
       xlink:href="#linearGradient3669"
       id="linearGradient3180"
       gradientUnits="userSpaceOnUse"
       gradientTransform="matrix(6.400115,0,0,6.400115,699.32227,346.07458)"
       x1="8.9686985"
       y1="25.84791"
       x2="17.828442"
       y2="29.798435" />
    <linearGradient
       inkscape:collect="always"
       xlink:href="#linearGradient3669"
       id="linearGradient3183"
       gradientUnits="userSpaceOnUse"
       gradientTransform="matrix(6.400115,0,0,6.400115,699.32227,37.80689)"
       x1="14.269864"
       y1="26.721092"
       x2="25.219465"
       y2="26.058191" />
    <radialGradient
       inkscape:collect="always"
       xlink:href="#linearGradient3689"
       id="radialGradient3189"
       gradientUnits="userSpaceOnUse"
       gradientTransform="matrix(2.7450413,4.3867121,-6.8694951,4.2987412,7785.8436,-3975.9057)"
       cx="27.844063"
       cy="1021.0861"
       fx="27.844063"
       fy="1021.0861"
       r="17.592218" />
    <radialGradient
       inkscape:collect="always"
       xlink:href="#linearGradient3669"
       id="radialGradient3205"
       gradientUnits="userSpaceOnUse"
       gradientTransform="matrix(2.5638659,5.7920643,-4.9198331,2.1778048,5803.4116,-2155.0838)"
       cx="17.360392"
       cy="1023.9149"
       fx="17.360392"
       fy="1023.9149"
       r="17.592218" />
    <linearGradient
       inkscape:collect="always"
       xlink:href="#linearGradient3701"
       id="linearGradient3212"
       gradientUnits="userSpaceOnUse"
       x1="788.22821"
       y1="271.68747"
       x2="869.25073"
       y2="216.61469"
       gradientTransform="translate(-3,308.26769)" />
    <linearGradient
       inkscape:collect="always"
       xlink:href="#linearGradient3669"
       id="linearGradient3252"
       gradientUnits="userSpaceOnUse"
       gradientTransform="translate(99.73057,721.82993)"
       x1="183.125"
       y1="72.875"
       x2="192.25"
       y2="55.5" />
    <linearGradient
       inkscape:collect="always"
       xlink:href="#linearGradient3669"
       id="linearGradient3258"
       gradientUnits="userSpaceOnUse"
       gradientTransform="matrix(6.400115,0,0,6.400115,62.92574,686.30199)"
       x1="29.022875"
       y1="24.614502"
       x2="37.24147"
       y2="21.310812" />
    <linearGradient
       inkscape:collect="always"
       xlink:href="#linearGradient3669"
       id="linearGradient3261"
       gradientUnits="userSpaceOnUse"
       gradientTransform="matrix(6.400115,0,0,6.400115,56.17574,-5747.4817)"
       x1="22.383869"
       y1="1023.8843"
       x2="15.64438"
       y2="1017.5189" />
    <linearGradient
       inkscape:collect="always"
       xlink:href="#linearGradient3931"
       id="linearGradient3264"
       gradientUnits="userSpaceOnUse"
       gradientTransform="translate(99.73057,-74.53227)"
       x1="147.5"
       y1="843.86218"
       x2="119"
       y2="814.86218" />
    <linearGradient
       inkscape:collect="always"
       xlink:href="#linearGradient3669"
       id="linearGradient3267"
       gradientUnits="userSpaceOnUse"
       gradientTransform="matrix(6.400115,0,0,6.400115,62.92574,686.30199)"
       x1="24.367268"
       y1="29.051037"
       x2="31.867142"
       y2="29.106279" />
    <linearGradient
       inkscape:collect="always"
       xlink:href="#linearGradient3669"
       id="linearGradient3270"
       gradientUnits="userSpaceOnUse"
       gradientTransform="matrix(6.400115,0,0,6.400115,62.92574,686.30199)"
       x1="8.9686985"
       y1="25.84791"
       x2="17.828442"
       y2="29.798435" />
    <linearGradient
       inkscape:collect="always"
       xlink:href="#linearGradient3669"
       id="linearGradient3273"
       gradientUnits="userSpaceOnUse"
       gradientTransform="matrix(6.400115,0,0,6.400115,62.92574,378.0343)"
       x1="14.269864"
       y1="26.721092"
       x2="25.219465"
       y2="26.058191" />
    <radialGradient
       inkscape:collect="always"
       xlink:href="#linearGradient3689"
       id="radialGradient3279"
       gradientUnits="userSpaceOnUse"
       gradientTransform="matrix(2.7450413,4.3867121,-6.8694951,4.2987412,7149.4471,-3635.6783)"
       cx="27.844063"
       cy="1021.0861"
       fx="27.844063"
       fy="1021.0861"
       r="17.592218" />
    <radialGradient
       inkscape:collect="always"
       xlink:href="#linearGradient3669"
       id="radialGradient3291"
       gradientUnits="userSpaceOnUse"
       gradientTransform="matrix(2.5638659,5.7920643,-4.9198331,2.1778048,5167.0151,-1814.8564)"
       cx="17.360392"
       cy="1023.9149"
       fx="17.360392"
       fy="1023.9149"
       r="17.592218" />
    <linearGradient
       inkscape:collect="always"
       xlink:href="#linearGradient3701"
       id="linearGradient3298"
       x1="161.88681"
       y1="913.05573"
       x2="225.043"
       y2="839.87018"
       gradientUnits="userSpaceOnUse" />
    <linearGradient
       inkscape:collect="always"
       xlink:href="#linearGradient3669"
       id="linearGradient3332"
       gradientUnits="userSpaceOnUse"
       gradientTransform="translate(647.92892,749.82993)"
       x1="183.125"
       y1="72.875"
       x2="192.25"
       y2="55.5" />
    <linearGradient
       inkscape:collect="always"
       xlink:href="#linearGradient3669"
       id="linearGradient3338"
       gradientUnits="userSpaceOnUse"
       gradientTransform="matrix(6.400115,0,0,6.400115,611.12409,714.30199)"
       x1="29.022875"
       y1="24.614502"
       x2="37.24147"
       y2="21.310812" />
    <linearGradient
       inkscape:collect="always"
       xlink:href="#linearGradient3669"
       id="linearGradient3341"
       gradientUnits="userSpaceOnUse"
       gradientTransform="matrix(6.400115,0,0,6.400115,604.37409,-5719.4817)"
       x1="22.383869"
       y1="1023.8843"
       x2="15.64438"
       y2="1017.5189" />
    <linearGradient
       inkscape:collect="always"
       xlink:href="#linearGradient3931"
       id="linearGradient3344"
       gradientUnits="userSpaceOnUse"
       gradientTransform="translate(647.92892,-46.53227)"
       x1="147.5"
       y1="843.86218"
       x2="119"
       y2="814.86218" />
    <linearGradient
       inkscape:collect="always"
       xlink:href="#linearGradient3669"
       id="linearGradient3347"
       gradientUnits="userSpaceOnUse"
       gradientTransform="matrix(6.400115,0,0,6.400115,611.12409,714.30199)"
       x1="24.367268"
       y1="29.051037"
       x2="31.867142"
       y2="29.106279" />
    <linearGradient
       inkscape:collect="always"
       xlink:href="#linearGradient3669"
       id="linearGradient3350"
       gradientUnits="userSpaceOnUse"
       gradientTransform="matrix(6.400115,0,0,6.400115,611.12409,714.30199)"
       x1="8.9686985"
       y1="25.84791"
       x2="17.828442"
       y2="29.798435" />
    <linearGradient
       inkscape:collect="always"
       xlink:href="#linearGradient3669"
       id="linearGradient3353"
       gradientUnits="userSpaceOnUse"
       gradientTransform="matrix(6.400115,0,0,6.400115,611.12409,714.30199)"
       x1="14.269864"
       y1="26.721092"
       x2="25.219465"
       y2="26.058191" />
    <radialGradient
       inkscape:collect="always"
       xlink:href="#linearGradient3689"
       id="radialGradient3359"
       gradientUnits="userSpaceOnUse"
       gradientTransform="matrix(2.7450413,4.3867121,-6.8694951,4.2987412,7697.6454,-3607.6783)"
       cx="27.844063"
       cy="1021.0861"
       fx="27.844063"
       fy="1021.0861"
       r="17.592218" />
    <radialGradient
       inkscape:collect="always"
       xlink:href="#linearGradient3669"
       id="radialGradient3389"
       gradientUnits="userSpaceOnUse"
       gradientTransform="matrix(2.5638659,5.7920643,-4.9198331,2.1778048,5715.2134,-1478.5887)"
       cx="17.360392"
       cy="1023.9149"
       fx="17.360392"
       fy="1023.9149"
       r="17.592218" />
    <linearGradient
       inkscape:collect="always"
       xlink:href="#linearGradient3701"
       id="linearGradient3396"
       gradientUnits="userSpaceOnUse"
       x1="453.88791"
       y1="614.11292"
       x2="546.17651"
       y2="564.36292"
       gradientTransform="translate(228.75,337.01769)" />
    <linearGradient
       inkscape:collect="always"
       xlink:href="#linearGradient3669"
       id="linearGradient3175"
       gradientUnits="userSpaceOnUse"
       gradientTransform="translate(736.1271,721.82993)"
       x1="183.125"
       y1="72.875"
       x2="192.25"
       y2="55.5" />
    <linearGradient
       inkscape:collect="always"
       xlink:href="#linearGradient3669"
       id="linearGradient3181"
       gradientUnits="userSpaceOnUse"
       gradientTransform="matrix(6.400115,0,0,6.400115,699.32227,686.30199)"
       x1="29.022875"
       y1="24.614502"
       x2="37.24147"
       y2="21.310812" />
    <linearGradient
       inkscape:collect="always"
       xlink:href="#linearGradient3669"
       id="linearGradient3184"
       gradientUnits="userSpaceOnUse"
       gradientTransform="matrix(6.400115,0,0,6.400115,692.57227,-5747.4817)"
       x1="22.383869"
       y1="1023.8843"
       x2="15.64438"
       y2="1017.5189" />
    <linearGradient
       inkscape:collect="always"
       xlink:href="#linearGradient3931"
       id="linearGradient3187"
       gradientUnits="userSpaceOnUse"
       gradientTransform="translate(736.1271,-74.53227)"
       x1="147.5"
       y1="843.86218"
       x2="119"
       y2="814.86218" />
    <linearGradient
       inkscape:collect="always"
       xlink:href="#linearGradient3669"
       id="linearGradient3190"
       gradientUnits="userSpaceOnUse"
       gradientTransform="matrix(6.400115,0,0,6.400115,699.32227,686.30199)"
       x1="24.367268"
       y1="29.051037"
       x2="31.867142"
       y2="29.106279" />
    <linearGradient
       inkscape:collect="always"
       xlink:href="#linearGradient3669"
       id="linearGradient3193"
       gradientUnits="userSpaceOnUse"
       gradientTransform="matrix(6.400115,0,0,6.400115,699.32227,686.30199)"
       x1="8.9686985"
       y1="25.84791"
       x2="17.828442"
       y2="29.798435" />
    <radialGradient
       inkscape:collect="always"
       xlink:href="#linearGradient3689"
       id="radialGradient3202"
       gradientUnits="userSpaceOnUse"
       gradientTransform="matrix(2.7450413,4.3867121,-6.8694951,4.2987412,7785.8436,-3635.6783)"
       cx="27.844063"
       cy="1021.0861"
       fx="27.844063"
       fy="1021.0861"
       r="17.592218" />
    <linearGradient
       inkscape:collect="always"
       xlink:href="#linearGradient3669"
       id="linearGradient3240"
       gradientUnits="userSpaceOnUse"
       gradientTransform="matrix(6.400115,0,0,6.400115,699.32227,378.0343)"
       x1="14.269864"
       y1="26.721092"
       x2="25.219465"
       y2="26.058191" />
    <radialGradient
       inkscape:collect="always"
       xlink:href="#linearGradient3669"
       id="radialGradient3243"
       gradientUnits="userSpaceOnUse"
       gradientTransform="matrix(2.5638659,5.7920643,-4.9198331,2.1778048,5803.4116,-1814.8564)"
       cx="17.360392"
       cy="1023.9149"
       fx="17.360392"
       fy="1023.9149"
       r="17.592218" />
    <linearGradient
       inkscape:collect="always"
       xlink:href="#linearGradient3701"
       id="linearGradient3250"
       gradientUnits="userSpaceOnUse"
       x1="777.33038"
       y1="633.50214"
       x2="860.79395"
       y2="559.96307"
       gradientTransform="translate(-1,308.26769)" />
  </defs>
  <sodipodi:namedview
     id="base"
     pagecolor="#ffffff"
     bordercolor="#666666"
     borderopacity="1.0"
     inkscape:pageopacity="0.0"
     inkscape:pageshadow="2"
     inkscape:zoom="0.5"
     inkscape:cx="308.80287"
     inkscape:cy="152.94431"
     inkscape:document-units="px"
     inkscape:current-layer="layer1"
     showgrid="false"
     inkscape:window-width="1393"
     inkscape:window-height="826"
     inkscape:window-x="22"
     inkscape:window-y="24"
     inkscape:window-maximized="0"
     showguides="true"
     inkscape:guide-bbox="true">
    <inkscape:grid
       type="xygrid"
       id="grid2837"
       empspacing="5"
       visible="true"
       enabled="true"
       snapvisiblegridlinesonly="true" />
  </sodipodi:namedview>
  <metadata
     id="metadata7">
    <rdf:RDF>
      <cc:Work
         rdf:about="">
        <dc:format>image/svg+xml</dc:format>
        <dc:type
           rdf:resource="http://purl.org/dc/dcmitype/StillImage" />
        <dc:title></dc:title>
      </cc:Work>
    </rdf:RDF>
  </metadata>
  <g
     inkscape:label="Layer 1"
     inkscape:groupmode="layer"
     id="layer1"
     transform="translate(0,-796.3622)">
    <g
       id="g3300"
       transform="translate(-95.178374,68.731322)">
      <path
         transform="matrix(5.7450926,0,0,7.0920193,79.39459,665.72946)"
         d="m 40.943338,39.252682 c 0,1.502079 -7.717431,2.719755 -17.237365,2.719755 -9.519935,0 -17.2373661,-1.217676 -17.2373661,-2.719755 0,-1.502079 7.7174311,-2.719755 17.2373661,-2.719755 9.519934,0 17.237365,1.217676 17.237365,2.719755 z"
         sodipodi:ry="2.7197549"
         sodipodi:rx="17.237366"
         sodipodi:cy="39.252682"
         sodipodi:cx="23.705973"
         id="path3317"
         style="fill:#000000;fill-opacity:0.76862745;fill-rule:evenodd;stroke:none;filter:url(#filter3641)"
         sodipodi:type="arc" />
      <path
         style="color:#000000;fill:url(#radialGradient3279);fill-opacity:1;stroke:none;stroke-width:1px;marker:none;visibility:visible;display:inline;overflow:visible;enable-background:accumulate"
         d="m 118.52677,830.50464 c -7.99112,18.16867 -12.56366,50.95749 -6.30023,75.30139 11.27654,43.8282 68.20092,52.4007 86.90127,47.8008 39.71639,5.0451 82.80195,6.5 107.5023,-15.2004 20.39909,-17.9215 26.94109,-38.9852 26.60046,-67.101 -0.85637,-70.68638 -45.60046,-103.6016 -103.90184,-89.00171 -45.20092,-15.90012 -88.63602,-2.19571 -110.80196,48.20092 z"
         id="path3319"
         sodipodi:nodetypes="sscsscs"
         inkscape:connector-curvature="0" />
      <path
         inkscape:connector-curvature="0"
         id="path3286"
         d="m 176.75,821.45519 c -6.36123,1.4496 -1.79108,7.23856 -0.96875,11.53125 2.43355,3.41656 0.90647,12.84797 6.5625,11.09375 11.40177,-1.10832 22.71391,3.80273 31.28125,10.78125 6.71476,-6.43078 13.41439,-12.87737 20.125,-19.3125 -4.04586,-2.5926 -8.19917,6.72431 -12.29189,8.90902 -2.95389,3.81625 -5.76963,6.213 -9.33311,1.99723 -8.39251,-5.31499 -18.5421,-8.4597 -28.53125,-7.03125 -1.81015,-6.26761 -3.83423,-12.3566 -5.78125,-18.53125 l -0.88379,0.46789 -0.17871,0.0946 z m -10.46875,7.4375 c -12.59099,11.64168 -18.60235,29.55767 -16.8125,46.59375 1.60666,-1.07746 -0.29875,4.6255 1,6.1875 4.20253,22.32066 24.16031,41.71154 47.6875,40.78125 12.4537,-0.34694 25.04929,-6.23617 32.59014,-16.08473 -0.0911,-2.99024 -5.03977,2.8203 -7.27764,3.86598 -17.20324,12.52679 -42.96351,8.4522 -56.28125,-7.84375 -5.17017,-5.40923 -7.36651,-12.5772 -12.625,-17.84375 -3.89784,-4.504 -2.51952,-9.89963 -0.46875,-14.90625 -1.02721,-14.6986 4.66987,-29.18832 13.94899,-40.32106 1.35171,-2.19734 -0.71918,-0.76822 -1.76149,-0.42894 z M 173,842.95519 c -3.7638,2.38176 -8.00278,4.90247 -9.625,9.25 4.26653,-1.57297 7.33691,-5.30146 11.875,-6.53125 -0.85518,-0.64299 -0.45973,-4.74496 -2.25,-2.71875 z m 46.625,10.375 c -5.72648,2.48331 -2.41888,5.05586 0.65079,7.97801 10.54371,11.53974 14.8671,27.70033 12.75546,43.05324 3.90415,-4.55641 6.40875,-10.00007 5.09375,-16.09375 -1.05004,-13.58625 -7.88952,-26.37793 -17.8125,-35.53125 l -0.6875,0.59375 z m -52.15625,10.65625 c -8.46507,4.17627 -3.38028,20.42259 6.125,17.6875 2.54114,-0.96586 3.72777,-3.54367 4.875,-5.8125 -5.83088,4.50305 -11.9496,-3.12844 -10.21875,-8.875 0.67873,-2.58024 3.68195,-6.2209 -0.78125,-3 z m 37,11 c -8.46507,4.17627 -3.38028,20.42259 6.125,17.6875 2.54114,-0.96586 3.72777,-3.54367 4.875,-5.8125 -5.83088,4.50305 -11.9496,-3.12844 -10.21875,-8.875 0.67873,-2.58024 3.68195,-6.2209 -0.78125,-3 z m 28.34375,29.65625 c 0.23017,-0.11186 -0.0853,-0.14156 0,0 z"
         style="fill:url(#linearGradient3298);fill-opacity:1;stroke:none" />
      <path
         id="path3321"
         transform="translate(0,308.26769)"
         d="M 193.0625,467.78125 C 161.98084,468.37713 134.60494,485.6337 118.5,522.25 c -7.99112,18.16867 -12.54468,50.93725 -6.28125,75.28125 11.27653,43.8282 68.20591,52.4124 86.90625,47.8125 39.71639,5.0451 82.79965,6.48165 107.5,-15.21875 20.39909,-17.9215 26.93438,-38.97795 26.59375,-67.09375 -0.85637,-70.68644 -45.60487,-103.59989 -103.90625,-89 -11.30023,-3.97503 -22.47524,-6.08628 -33.25,-6.25 -1.01013,-0.0154 -1.99737,-0.0192 -3,0 z m 3.875,41.4375 c 14.15028,0 26.80212,7.01433 35.375,18.0625 l -18.75,18 c -8.30715,-6.58015 -18.13258,-10.533 -27.59375,-10.625 -2.0005,-0.0195 -3.98653,0.13218 -5.9375,0.46875 -1.84172,-6.38686 -4.8868,-15.80831 -6,-19.25 6.76832,-4.23849 14.58562,-6.65625 22.90625,-6.65625 z M 168,520.375 l 5.96875,16.46875 c -10.35951,4.11811 -19.12154,14.30603 -23.21875,32.5625 -0.38042,-2.67115 -0.5625,-5.39733 -0.5625,-8.1875 0,-16.56875 6.95956,-31.32131 17.8125,-40.84375 z m 67.9375,12.1875 c 4.89415,8.22009 7.75,18.05869 7.75,28.65625 0,11.84272 -3.56899,22.75782 -9.5625,31.5 2.10821,-17.46902 -5.46866,-33.51048 -16.90625,-44.28125 l 18.71875,-15.875 z m -65.90625,23.59375 c 0.21851,0.005 0.43188,0.028 0.65625,0.0625 3.58985,0.55228 6.5,4.69365 6.5,9.25 0,4.55635 -2.91015,7.80228 -6.5,7.25 -3.58985,-0.55228 -6.5,-4.69365 -6.5,-9.25 0,-4.27158 2.56609,-7.3943 5.84375,-7.3125 z m 37,11 c 0.21851,0.005 0.43188,0.028 0.65625,0.0625 3.58985,0.55228 6.5,4.69365 6.5,9.25 0,4.55635 -2.91015,7.80228 -6.5,7.25 -3.58985,-0.55228 -6.5,-4.69365 -6.5,-9.25 0,-4.27158 2.56609,-7.3943 5.84375,-7.3125 z M 151,570.96875 c 7.05194,24.23864 57.17033,31.44843 80.34375,25.4375 -8.54436,10.33567 -20.78771,16.8125 -34.40625,16.8125 -22.81875,0 -41.82947,-18.19868 -45.9375,-42.25 z"
         style="color:#000000;fill:url(#radialGradient3291);fill-opacity:1;stroke:none;stroke-width:1px;marker:none;visibility:visible;display:inline;overflow:visible;enable-background:accumulate"
         inkscape:connector-curvature="0" />
      <path
         id="path3323"
         transform="translate(0,308.26769)"
         d="m 209.96875,497.625 c -1.36961,4.35539 -2.65566,8.51743 -3.875,12.59375 0.87272,0.19336 1.73942,0.4095 2.59375,0.65625 1.2962,-7.20332 1.85884,-12.09481 1.28125,-13.25 z M 198.625,536.9375 c -5.90598,22.60979 -9.53468,40.9318 -12.625,58.3125 0.95731,0.23072 1.93798,0.41997 2.90625,0.625 4.50861,-17.81887 9.71021,-38.85356 13.90625,-57.21875 -1.37798,-0.6328 -2.78224,-1.22951 -4.1875,-1.71875 z m -15.375,74 c -1.25028,7.26315 -2.50675,14.52223 -3.90625,22.0625 0,0 2.30151,-8.70956 5.59375,-21.53125 -0.56279,-0.16611 -1.13325,-0.3426 -1.6875,-0.53125 z"
         style="color:#000000;fill:url(#linearGradient3273);stroke:none;stroke-width:1px;marker:none;visibility:visible;display:inline;overflow:visible;enable-background:accumulate"
         inkscape:connector-curvature="0" />
      <path
         inkscape:connector-curvature="0"
         sodipodi:nodetypes="ccc"
         id="path3325"
         d="m 197.65312,798.56864 c -70.24534,28.45826 -77.24764,111.47419 -71.52195,131.06809 0.3734,-34.7736 16.09971,-106.42957 71.52195,-131.06809 z"
         style="color:#000000;fill:url(#linearGradient3270);stroke:none;stroke-width:1px;marker:none;visibility:visible;display:inline;overflow:visible;enable-background:accumulate" />
      <path
         inkscape:connector-curvature="0"
         sodipodi:nodetypes="ccc"
         id="path3327"
         d="m 236.20317,806.75978 c 1.96021,12.37195 19.7756,106.05995 13.01228,129.53015 10.91644,-33.0765 0.49777,-106.19496 -13.01228,-129.53015 z"
         style="color:#000000;fill:url(#linearGradient3267);stroke:none;stroke-width:1px;marker:none;visibility:visible;display:inline;overflow:visible;enable-background:accumulate" />
      <path
         inkscape:connector-curvature="0"
         sodipodi:nodetypes="ccccc"
         id="path3329"
         d="m 223.57345,783.85867 c 7.5448,-25.60621 12.22058,-33.50115 24.4705,-44.62379 13.03995,-3.42731 25.49405,-1.2867 23.917,10.94052 -22.55759,17.61773 -16.34636,15.16693 -34.57313,37.42098 -6.27329,1.26779 -12.54658,2.53558 -13.81437,-3.73771 z"
         style="color:#000000;fill:url(#linearGradient3264);fill-opacity:1;stroke:none;stroke-width:1px;marker:none;visibility:visible;display:inline;overflow:visible;enable-background:accumulate" />
      <path
         inkscape:connector-curvature="0"
         sodipodi:nodetypes="cccc"
         id="path3331"
         d="m 194.56238,785.83261 c -10.53996,-3.54375 -24.15912,-1.49699 -36.25996,-0.66562 l -6.32054,3.65959 c 11.86797,-1.28322 32.48143,-6.13323 42.5805,-2.99397 z"
         style="color:#000000;fill:url(#linearGradient3261);stroke:none;stroke-width:1px;marker:none;visibility:visible;display:inline;overflow:visible;enable-background:accumulate" />
      <path
         inkscape:connector-curvature="0"
         sodipodi:nodetypes="ccc"
         id="path3333"
         d="m 269.18159,802.72771 c 21.98074,17.71163 39.52098,90.72082 37.74632,118.12672 11.10824,-41.2711 -13.07365,-104.9165 -37.74632,-118.12672 z"
         style="color:#000000;fill:url(#linearGradient3258);stroke:none;stroke-width:1px;marker:none;visibility:visible;display:inline;overflow:visible;enable-background:accumulate" />
      <path
         inkscape:connector-curvature="0"
         sodipodi:nodetypes="ccc"
         transform="matrix(6.400115,0,0,6.400115,58.92574,684.80199)"
         id="path3335"
         d="M 10.967193,21.127777 C 13.51717,19.18096 18.053408,15.04991 22.869977,14.994464 22.410859,14.138013 13.05043,14.491453 10.967193,21.127777 z"
         style="color:#000000;fill:#ffffff;fill-opacity:0.3482143;stroke:none;stroke-width:1px;marker:none;visibility:visible;display:inline;overflow:visible;filter:url(#filter3912);enable-background:accumulate" />
      <path
         transform="matrix(0.8027229,-0.59635219,0.65912613,0.88722009,-11.76381,775.60742)"
         d="m 47.729707,182.63766 c 0,9.27496 -6.015068,16.79379 -13.435029,16.79379 -7.419962,0 -13.435029,-7.51883 -13.435029,-16.79379 0,-9.27495 6.015067,-16.79378 13.435029,-16.79378 7.419961,0 13.435029,7.51883 13.435029,16.79378 z"
         sodipodi:ry="16.793787"
         sodipodi:rx="13.435029"
         sodipodi:cy="182.63766"
         sodipodi:cx="34.294678"
         id="path3337"
         style="fill:#ffffff;fill-opacity:0.3169643;stroke:none;filter:url(#filter3866)"
         sodipodi:type="arc" />
      <path
         sodipodi:nodetypes="ccc"
         inkscape:connector-curvature="0"
         id="path3339"
         d="m 255.64762,954.84893 c 28.24198,-13.9481 54.14694,-28.0486 73.89265,-57.2756 0,0 -6.18718,58.6898 -73.89265,57.2756 z"
         style="fill:#000000;fill-opacity:0.19642855;stroke:none;filter:url(#filter3900)" />
      <path
         id="path3341"
         d="m 288.41807,785.79868 -7.8125,0.15625 10.65625,1.25 c -0.93725,-0.48914 -1.88166,-0.95974 -2.84375,-1.40625 z"
         style="fill:url(#linearGradient3252);fill-opacity:1;stroke:none"
         inkscape:connector-curvature="0" />
      <path
         sodipodi:nodetypes="ccc"
         inkscape:connector-curvature="0"
         id="path3343"
         d="m 249.10688,739.53494 c 8.78365,1.18703 17.13839,2.8983 21.74353,9.19239 0,0 3.53554,-12.02081 -21.74353,-9.19239 z"
         style="fill:#ffffff;fill-opacity:0.35714291;stroke:none;filter:url(#filter3927)" />
    </g>
  </g>
</svg>
