<?xml version="1.0" encoding="UTF-8" standalone="no"?>
<!-- Created with Inkscape (http://www.inkscape.org/) -->

<svg
   xmlns:dc="http://purl.org/dc/elements/1.1/"
   xmlns:cc="http://creativecommons.org/ns#"
   xmlns:rdf="http://www.w3.org/1999/02/22-rdf-syntax-ns#"
   xmlns:svg="http://www.w3.org/2000/svg"
   xmlns="http://www.w3.org/2000/svg"
   xmlns:xlink="http://www.w3.org/1999/xlink"
   xmlns:sodipodi="http://sodipodi.sourceforge.net/DTD/sodipodi-0.dtd"
   xmlns:inkscape="http://www.inkscape.org/namespaces/inkscape"
   width="256"
   height="256"
   id="svg2"
   version="1.1"
   inkscape:version="0.48.4 r9939"
   sodipodi:docname="pumpkin-05.svg"
   inkscape:export-filename="pumpkins.png"
   inkscape:export-xdpi="299.96191"
   inkscape:export-ydpi="299.96191">
  <defs
     id="defs4">
    <linearGradient
       id="linearGradient3931">
      <stop
         style="stop-color:#5f6b21;stop-opacity:1;"
         offset="0"
         id="stop3933" />
      <stop
         style="stop-color:#39a905;stop-opacity:1;"
         offset="1"
         id="stop3935" />
    </linearGradient>
    <linearGradient
       id="linearGradient3701">
      <stop
         style="stop-color:#704608;stop-opacity:1;"
         offset="0"
         id="stop3703" />
      <stop
         style="stop-color:#ab8855;stop-opacity:1;"
         offset="1"
         id="stop3705" />
    </linearGradient>
    <linearGradient
       id="linearGradient3689">
      <stop
         style="stop-color:#fff690;stop-opacity:1;"
         offset="0"
         id="stop3691" />
      <stop
         style="stop-color:#f2ff00;stop-opacity:1;"
         offset="1"
         id="stop3693" />
    </linearGradient>
    <linearGradient
       id="linearGradient3669">
      <stop
         style="stop-color:#ffd73b;stop-opacity:1;"
         offset="0"
         id="stop3671" />
      <stop
         style="stop-color:#ee8400;stop-opacity:1;"
         offset="1"
         id="stop3673" />
    </linearGradient>
    <linearGradient
       inkscape:collect="always"
       xlink:href="#linearGradient3669"
       id="linearGradient3778"
       x1="29.022875"
       y1="24.614502"
       x2="37.24147"
       y2="21.310812"
       gradientUnits="userSpaceOnUse"
       gradientTransform="matrix(6.400115,0,0,6.400115,-36.804832,-35.52794)" />
    <linearGradient
       inkscape:collect="always"
       xlink:href="#linearGradient3669"
       id="linearGradient3784"
       x1="8.9686985"
       y1="25.84791"
       x2="17.828442"
       y2="29.798435"
       gradientUnits="userSpaceOnUse"
       gradientTransform="matrix(6.400115,0,0,6.400115,-36.804832,-35.52794)" />
    <linearGradient
       inkscape:collect="always"
       xlink:href="#linearGradient3669"
       id="linearGradient3786"
       x1="22.383869"
       y1="1023.8843"
       x2="15.64438"
       y2="1017.5189"
       gradientUnits="userSpaceOnUse"
       gradientTransform="matrix(6.400115,0,0,6.400115,-43.554832,-5672.9494)" />
    <filter
       inkscape:collect="always"
       id="filter3641"
       x="-0.047149919"
       width="1.0942998"
       y="-0.29882854"
       height="1.5976571"
       color-interpolation-filters="sRGB">
      <feGaussianBlur
         inkscape:collect="always"
         stdDeviation="0.67728367"
         id="feGaussianBlur3643" />
    </filter>
    <filter
       inkscape:collect="always"
       id="filter3866"
       x="-0.29160413"
       width="1.5832083"
       y="-0.29436955"
       height="1.5887392"
       color-interpolation-filters="sRGB">
      <feGaussianBlur
         inkscape:collect="always"
         stdDeviation="3.7554505"
         id="feGaussianBlur3868" />
    </filter>
    <filter
       inkscape:collect="always"
       id="filter3900"
       x="-0.12988681"
       width="1.2597736"
       y="-0.16756999"
       height="1.33514"
       color-interpolation-filters="sRGB">
      <feGaussianBlur
         inkscape:collect="always"
         stdDeviation="3.9990335"
         id="feGaussianBlur3902" />
    </filter>
    <filter
       inkscape:collect="always"
       id="filter3912"
       x="-0.079064548"
       width="1.1581291"
       y="-0.14543517"
       height="1.2908703"
       color-interpolation-filters="sRGB">
      <feGaussianBlur
         inkscape:collect="always"
         stdDeviation="0.39212011"
         id="feGaussianBlur3914" />
    </filter>
    <linearGradient
       inkscape:collect="always"
       xlink:href="#linearGradient3669"
       id="linearGradient3923"
       x1="183.125"
       y1="72.875"
       x2="192.25"
       y2="55.5"
       gradientUnits="userSpaceOnUse" />
    <filter
       inkscape:collect="always"
       id="filter3927"
       x="-0.12636624"
       width="1.2527325"
       y="-0.28773808"
       height="1.5754762"
       color-interpolation-filters="sRGB">
      <feGaussianBlur
         inkscape:collect="always"
         stdDeviation="1.1537473"
         id="feGaussianBlur3929" />
    </filter>
    <linearGradient
       inkscape:collect="always"
       xlink:href="#linearGradient3931"
       id="linearGradient3937"
       x1="147.5"
       y1="843.86218"
       x2="119"
       y2="814.86218"
       gradientUnits="userSpaceOnUse" />
    <radialGradient
       inkscape:collect="always"
       xlink:href="#linearGradient3669"
       id="radialGradient4048"
       gradientUnits="userSpaceOnUse"
       gradientTransform="matrix(2.5638659,5.7920643,-4.9198331,2.1778048,5067.2845,-2228.4186)"
       cx="17.360392"
       cy="1023.9149"
       fx="17.360392"
       fy="1023.9149"
       r="17.592218" />
    <linearGradient
       inkscape:collect="always"
       xlink:href="#linearGradient3669"
       id="linearGradient4062"
       gradientUnits="userSpaceOnUse"
       gradientTransform="matrix(6.400115,0,0,6.400115,-36.804832,-35.52794)"
       x1="14.269864"
       y1="26.721092"
       x2="25.219465"
       y2="26.058191" />
    <linearGradient
       inkscape:collect="always"
       xlink:href="#linearGradient3669"
       id="linearGradient4067"
       gradientUnits="userSpaceOnUse"
       gradientTransform="matrix(6.400115,0,0,6.400115,-36.804832,-35.52794)"
       x1="24.367268"
       y1="29.051037"
       x2="31.867142"
       y2="29.106279" />
    <linearGradient
       inkscape:collect="always"
       xlink:href="#linearGradient3701"
       id="linearGradient4077"
       x1="61.875"
       y1="115.5"
       x2="68.625"
       y2="89.125"
       gradientUnits="userSpaceOnUse" />
    <linearGradient
       inkscape:collect="always"
       xlink:href="#linearGradient3701"
       id="linearGradient4085"
       x1="137"
       y1="134.77208"
       x2="204.75"
       y2="96.772079"
       gradientUnits="userSpaceOnUse" />
    <linearGradient
       inkscape:collect="always"
       xlink:href="#linearGradient3701"
       id="linearGradient4089"
       x1="38.360542"
       y1="183.60994"
       x2="178.36769"
       y2="183.60994"
       gradientUnits="userSpaceOnUse" />
    <linearGradient
       inkscape:collect="always"
       xlink:href="#linearGradient3701"
       id="linearGradient4096"
       x1="60.46875"
       y1="175.5625"
       x2="150.51297"
       y2="175.5625"
       gradientUnits="userSpaceOnUse" />
    <linearGradient
       inkscape:collect="always"
       xlink:href="#linearGradient3669"
       id="linearGradient3511"
       gradientUnits="userSpaceOnUse"
       gradientTransform="translate(99.20093,711.26994)"
       x1="183.125"
       y1="72.875"
       x2="192.25"
       y2="55.5" />
    <linearGradient
       inkscape:collect="always"
       xlink:href="#linearGradient3669"
       id="linearGradient3517"
       gradientUnits="userSpaceOnUse"
       gradientTransform="matrix(6.400115,0,0,6.400115,62.3961,675.742)"
       x1="29.022875"
       y1="24.614502"
       x2="37.24147"
       y2="21.310812" />
    <linearGradient
       inkscape:collect="always"
       xlink:href="#linearGradient3669"
       id="linearGradient3520"
       gradientUnits="userSpaceOnUse"
       gradientTransform="matrix(6.400115,0,0,6.400115,55.6461,-5758.0417)"
       x1="22.383869"
       y1="1023.8843"
       x2="15.64438"
       y2="1017.5189" />
    <linearGradient
       inkscape:collect="always"
       xlink:href="#linearGradient3931"
       id="linearGradient3523"
       gradientUnits="userSpaceOnUse"
       gradientTransform="translate(99.20093,-85.09226)"
       x1="147.5"
       y1="843.86218"
       x2="119"
       y2="814.86218" />
    <linearGradient
       inkscape:collect="always"
       xlink:href="#linearGradient3669"
       id="linearGradient3526"
       gradientUnits="userSpaceOnUse"
       gradientTransform="matrix(6.400115,0,0,6.400115,62.3961,367.47431)"
       x1="24.367268"
       y1="29.051037"
       x2="31.867142"
       y2="29.106279" />
    <linearGradient
       inkscape:collect="always"
       xlink:href="#linearGradient3669"
       id="linearGradient3529"
       gradientUnits="userSpaceOnUse"
       gradientTransform="matrix(6.400115,0,0,6.400115,62.3961,367.47431)"
       x1="8.9686985"
       y1="25.84791"
       x2="17.828442"
       y2="29.798435" />
    <linearGradient
       inkscape:collect="always"
       xlink:href="#linearGradient3669"
       id="linearGradient3532"
       gradientUnits="userSpaceOnUse"
       gradientTransform="matrix(6.400115,0,0,6.400115,62.3961,367.47431)"
       x1="14.269864"
       y1="26.721092"
       x2="25.219465"
       y2="26.058191" />
    <radialGradient
       inkscape:collect="always"
       xlink:href="#linearGradient3669"
       id="radialGradient3568"
       gradientUnits="userSpaceOnUse"
       gradientTransform="matrix(2.5638659,5.7920643,-4.9198331,2.1778048,5166.4854,-1825.4164)"
       cx="17.360392"
       cy="1023.9149"
       fx="17.360392"
       fy="1023.9149"
       r="17.592218" />
    <linearGradient
       inkscape:collect="always"
       xlink:href="#linearGradient3701"
       id="linearGradient3573"
       x1="168.11462"
       y1="612.61652"
       x2="221.67798"
       y2="567.18488"
       gradientUnits="userSpaceOnUse" />
    <linearGradient
       inkscape:collect="always"
       xlink:href="#linearGradient3701"
       id="linearGradient3579"
       x1="232.75"
       y1="528.35632"
       x2="258.75"
       y2="499.48132"
       gradientUnits="userSpaceOnUse" />
    <linearGradient
       inkscape:collect="always"
       xlink:href="#linearGradient3701"
       id="linearGradient3583"
       x1="164.24326"
       y1="527.21948"
       x2="192"
       y2="493.96948"
       gradientUnits="userSpaceOnUse" />
    <radialGradient
       inkscape:collect="always"
       xlink:href="#linearGradient3689"
       id="radialGradient3616"
       gradientUnits="userSpaceOnUse"
       gradientTransform="matrix(2.7450413,4.3867121,-6.8694951,4.2987412,7148.9174,-3646.2383)"
       cx="27.844063"
       cy="1021.0861"
       fx="27.844063"
       fy="1021.0861"
       r="17.592218" />
    <radialGradient
       inkscape:collect="always"
       xlink:href="#linearGradient3689"
       id="radialGradient3620"
       gradientUnits="userSpaceOnUse"
       gradientTransform="matrix(2.7450413,4.3867121,-6.8694951,4.2987412,7049.7165,-3561.146)"
       cx="27.844063"
       cy="1021.0861"
       fx="27.844063"
       fy="1021.0861"
       r="17.592218" />
    <linearGradient
       inkscape:collect="always"
       xlink:href="#linearGradient3669"
       id="linearGradient3632"
       gradientUnits="userSpaceOnUse"
       gradientTransform="translate(405.39943,711.26994)"
       x1="183.125"
       y1="72.875"
       x2="192.25"
       y2="55.5" />
    <linearGradient
       inkscape:collect="always"
       xlink:href="#linearGradient3669"
       id="linearGradient3638"
       gradientUnits="userSpaceOnUse"
       gradientTransform="matrix(6.400115,0,0,6.400115,368.5946,675.742)"
       x1="29.022875"
       y1="24.614502"
       x2="37.24147"
       y2="21.310812" />
    <linearGradient
       inkscape:collect="always"
       xlink:href="#linearGradient3669"
       id="linearGradient3641"
       gradientUnits="userSpaceOnUse"
       gradientTransform="matrix(6.400115,0,0,6.400115,361.8446,-5758.0417)"
       x1="22.383869"
       y1="1023.8843"
       x2="15.64438"
       y2="1017.5189" />
    <linearGradient
       inkscape:collect="always"
       xlink:href="#linearGradient3931"
       id="linearGradient3644"
       gradientUnits="userSpaceOnUse"
       gradientTransform="translate(405.39943,-85.09226)"
       x1="147.5"
       y1="843.86218"
       x2="119"
       y2="814.86218" />
    <linearGradient
       inkscape:collect="always"
       xlink:href="#linearGradient3669"
       id="linearGradient3650"
       gradientUnits="userSpaceOnUse"
       gradientTransform="matrix(6.400115,0,0,6.400115,368.5946,675.742)"
       x1="8.9686985"
       y1="25.84791"
       x2="17.828442"
       y2="29.798435" />
    <radialGradient
       inkscape:collect="always"
       xlink:href="#linearGradient3689"
       id="radialGradient3659"
       gradientUnits="userSpaceOnUse"
       gradientTransform="matrix(2.7450413,4.3867121,-6.8694951,4.2987412,7455.1159,-3646.2383)"
       cx="27.844063"
       cy="1021.0861"
       fx="27.844063"
       fy="1021.0861"
       r="17.592218" />
    <linearGradient
       inkscape:collect="always"
       xlink:href="#linearGradient3669"
       id="linearGradient3703"
       gradientUnits="userSpaceOnUse"
       gradientTransform="matrix(6.400115,0,0,6.400115,368.5946,367.47431)"
       x1="14.269864"
       y1="26.721092"
       x2="25.219465"
       y2="26.058191" />
    <linearGradient
       inkscape:collect="always"
       xlink:href="#linearGradient3669"
       id="linearGradient3723"
       gradientUnits="userSpaceOnUse"
       gradientTransform="matrix(6.400115,0,0,6.400115,368.5946,367.47431)"
       x1="24.367268"
       y1="29.051037"
       x2="31.867142"
       y2="29.106279" />
    <radialGradient
       inkscape:collect="always"
       xlink:href="#linearGradient3669"
       id="radialGradient3726"
       gradientUnits="userSpaceOnUse"
       gradientTransform="matrix(2.5638659,5.7920643,-4.9198331,2.1778048,5472.6839,-1825.4164)"
       cx="17.360392"
       cy="1023.9149"
       fx="17.360392"
       fy="1023.9149"
       r="17.592218" />
    <linearGradient
       inkscape:collect="always"
       xlink:href="#linearGradient3701"
       id="linearGradient3732"
       x1="461.56396"
       y1="536.12317"
       x2="493.91409"
       y2="514.20282"
       gradientUnits="userSpaceOnUse" />
    <linearGradient
       inkscape:collect="always"
       xlink:href="#linearGradient3701"
       id="linearGradient3736"
       x1="552.07361"
       y1="544.86719"
       x2="582.47919"
       y2="518.52747"
       gradientUnits="userSpaceOnUse" />
    <linearGradient
       inkscape:collect="always"
       xlink:href="#linearGradient3701"
       id="linearGradient3740"
       x1="490.625"
       y1="599.34448"
       x2="495"
       y2="566.71948"
       gradientUnits="userSpaceOnUse" />
    <linearGradient
       inkscape:collect="always"
       xlink:href="#linearGradient3701"
       id="linearGradient3744"
       x1="525.55713"
       y1="616.28491"
       x2="537.31281"
       y2="559.71637"
       gradientUnits="userSpaceOnUse" />
    <linearGradient
       inkscape:collect="always"
       xlink:href="#linearGradient3669"
       id="linearGradient3776"
       gradientUnits="userSpaceOnUse"
       gradientTransform="translate(711.5979,711.26994)"
       x1="183.125"
       y1="72.875"
       x2="192.25"
       y2="55.5" />
    <linearGradient
       inkscape:collect="always"
       xlink:href="#linearGradient3669"
       id="linearGradient3785"
       gradientUnits="userSpaceOnUse"
       gradientTransform="matrix(6.400115,0,0,6.400115,668.04307,-5758.0417)"
       x1="22.383869"
       y1="1023.8843"
       x2="15.64438"
       y2="1017.5189" />
    <linearGradient
       inkscape:collect="always"
       xlink:href="#linearGradient3931"
       id="linearGradient3788"
       gradientUnits="userSpaceOnUse"
       gradientTransform="translate(711.5979,-85.09226)"
       x1="147.5"
       y1="843.86218"
       x2="119"
       y2="814.86218" />
    <linearGradient
       inkscape:collect="always"
       xlink:href="#linearGradient3669"
       id="linearGradient3791"
       gradientUnits="userSpaceOnUse"
       gradientTransform="matrix(6.400115,0,0,6.400115,674.79307,367.47431)"
       x1="24.367268"
       y1="29.051037"
       x2="31.867142"
       y2="29.106279" />
    <linearGradient
       inkscape:collect="always"
       xlink:href="#linearGradient3669"
       id="linearGradient3794"
       gradientUnits="userSpaceOnUse"
       gradientTransform="matrix(6.400115,0,0,6.400115,674.79307,367.47431)"
       x1="8.9686985"
       y1="25.84791"
       x2="17.828442"
       y2="29.798435" />
    <linearGradient
       inkscape:collect="always"
       xlink:href="#linearGradient3669"
       id="linearGradient3797"
       gradientUnits="userSpaceOnUse"
       gradientTransform="matrix(6.400115,0,0,6.400115,674.79307,367.47431)"
       x1="14.269864"
       y1="26.721092"
       x2="25.219465"
       y2="26.058191" />
    <radialGradient
       inkscape:collect="always"
       xlink:href="#linearGradient3689"
       id="radialGradient3803"
       gradientUnits="userSpaceOnUse"
       gradientTransform="matrix(2.7450413,4.3867121,-6.8694951,4.2987412,7761.3144,-3646.2383)"
       cx="27.844063"
       cy="1021.0861"
       fx="27.844063"
       fy="1021.0861"
       r="17.592218" />
    <linearGradient
       inkscape:collect="always"
       xlink:href="#linearGradient3669"
       id="linearGradient3822"
       gradientUnits="userSpaceOnUse"
       gradientTransform="matrix(6.400115,0,0,6.400115,674.79307,367.47431)"
       x1="29.022875"
       y1="24.614502"
       x2="37.24147"
       y2="21.310812" />
    <radialGradient
       inkscape:collect="always"
       xlink:href="#linearGradient3669"
       id="radialGradient3825"
       gradientUnits="userSpaceOnUse"
       gradientTransform="matrix(2.5638659,5.7920643,-4.9198331,2.1778048,5778.8824,-1825.4164)"
       cx="17.360392"
       cy="1023.9149"
       fx="17.360392"
       fy="1023.9149"
       r="17.592218" />
    <linearGradient
       inkscape:collect="always"
       xlink:href="#linearGradient3701"
       id="linearGradient3830"
       x1="779.75"
       y1="526.34448"
       x2="796.625"
       y2="501.09448"
       gradientUnits="userSpaceOnUse" />
    <linearGradient
       inkscape:collect="always"
       xlink:href="#linearGradient3701"
       id="linearGradient3834"
       x1="870.36761"
       y1="529.09424"
       x2="901.5"
       y2="502.21924"
       gradientUnits="userSpaceOnUse" />
    <linearGradient
       inkscape:collect="always"
       xlink:href="#linearGradient3701"
       id="linearGradient3838"
       x1="808.5"
       y1="604.53198"
       x2="815.75"
       y2="552.53198"
       gradientUnits="userSpaceOnUse" />
    <linearGradient
       inkscape:collect="always"
       xlink:href="#linearGradient3701"
       id="linearGradient3842"
       x1="826.5"
       y1="594.09448"
       x2="830.5"
       y2="539.59448"
       gradientUnits="userSpaceOnUse" />
  </defs>
  <sodipodi:namedview
     id="base"
     pagecolor="#ffffff"
     bordercolor="#666666"
     borderopacity="1.0"
     inkscape:pageopacity="0.0"
     inkscape:pageshadow="2"
     inkscape:zoom="0.57777733"
     inkscape:cx="383.30352"
     inkscape:cy="372.04724"
     inkscape:document-units="px"
     inkscape:current-layer="layer1"
     showgrid="false"
     inkscape:window-width="1393"
     inkscape:window-height="826"
     inkscape:window-x="199"
     inkscape:window-y="24"
     inkscape:window-maximized="0"
     showguides="true"
     inkscape:guide-bbox="true">
    <inkscape:grid
       type="xygrid"
       id="grid2837"
       empspacing="5"
       visible="true"
       enabled="true"
       snapvisiblegridlinesonly="true" />
  </sodipodi:namedview>
  <metadata
     id="metadata7">
    <rdf:RDF>
      <cc:Work
         rdf:about="">
        <dc:format>image/svg+xml</dc:format>
        <dc:type
           rdf:resource="http://purl.org/dc/dcmitype/StillImage" />
        <dc:title></dc:title>
      </cc:Work>
    </rdf:RDF>
  </metadata>
  <g
     inkscape:label="Layer 1"
     inkscape:groupmode="layer"
     id="layer1"
     transform="translate(0,-796.36217)">
    <g
       id="g3746"
       transform="translate(-400.84723,79.291282)">
      <path
         sodipodi:type="arc"
         style="fill:#000000;fill-opacity:0.76862745;fill-rule:evenodd;stroke:none;filter:url(#filter3641)"
         id="path3274"
         sodipodi:cx="23.705973"
         sodipodi:cy="39.252682"
         sodipodi:rx="17.237366"
         sodipodi:ry="2.7197549"
         d="m 40.943338,39.252682 c 0,1.502079 -7.717431,2.719755 -17.237365,2.719755 -9.519935,0 -17.2373661,-1.217676 -17.2373661,-2.719755 0,-1.502079 7.7174311,-2.719755 17.2373661,-2.719755 9.519934,0 17.237365,1.217676 17.237365,2.719755 z"
         transform="matrix(5.7450926,0,0,7.0920193,385.06345,655.16947)" />
      <path
         style="color:#000000;fill:url(#radialGradient3659);fill-opacity:1;stroke:none;stroke-width:1px;marker:none;visibility:visible;display:inline;overflow:visible;enable-background:accumulate"
         d="m 497.74318,766.50149 c -28.22291,0.18806 -53.83127,18.07845 -66.91551,42.49456 -13.95087,24.36372 -17.42983,53.98769 -13.02199,81.41169 3.52653,22.3876 21.98368,39.5281 42.78125,46.5938 14.31865,5.2775 30.23105,7.5444 45.3359,5.1563 30.86577,3.4388 64.18264,6.8398 93.1016,-6.6563 23.12135,-11.7249 37.469,-36.5501 38.5,-62.1876 2.00913,-30.4842 -3.74524,-64.62414 -27.15625,-86.12495 -20.0704,-18.57329 -49.81599,-21.26768 -75.40625,-14.40625 -11.88785,-4.2048 -24.50757,-6.63875 -37.21875,-6.28125 z"
         id="path3276"
         inkscape:connector-curvature="0" />
      <path
         transform="translate(0,308.26769)"
         inkscape:connector-curvature="0"
         id="path3730"
         d="m 487.19657,502.26396 -14.84924,25.8094 31.81981,8.30851 c 0,0 -4.5962,7.07106 -5.48008,6.71751 -0.88389,-0.35355 -39.06765,-9.8995 -39.06765,-9.8995 l 14.31891,-20.68287 z"
         style="fill:url(#linearGradient3732);stroke:none" />
      <path
         transform="translate(0,308.26769)"
         inkscape:connector-curvature="0"
         id="path3734"
         d="m 557.37692,506.86016 -2.47487,30.40559 31.46625,-5.65686 4.41942,6.71752 -23.86486,12.72792 -22.45064,-3.53553 4.41942,-28.99138 z"
         style="fill:url(#linearGradient3736);stroke:none" />
      <path
         sodipodi:nodetypes="cccccccccccccccccccccccccccccccc"
         transform="translate(0,308.26769)"
         inkscape:connector-curvature="0"
         id="path3738"
         d="m 464.875,574.21948 2.625,17.5 9.375,0.5 -2,-5 1.125,-2.125 12.625,0.5 0.125,7.625 10,1.25 -1.5,-5.75 1.125,-2.125 11.625,0.75 -0.375,8.125 9.375,0.875 -0.625,-6.125 1.625,-1.875 11.625,0.375 -1.125,7.75 9.375,1.375 -1.5,-6.25 1.125,-1.875 11.75,0.75 -0.625,6.875 8.25,0.875 -0.875,-4.25 1.625,-2.375 10.875,1.625 -1.5,5.375 9.75,1.875 -0.375,6.125 -114.25,-8 -4.125,-25.5 z"
         style="fill:url(#linearGradient3740);stroke:none" />
      <path
         sodipodi:nodetypes="ccccccccccscccccccccccccccc"
         transform="translate(0,308.26769)"
         inkscape:connector-curvature="0"
         id="path3742"
         d="m 477.1203,581.01798 1.5026,1.59099 2.56327,-2.56326 1.41421,-4.77297 10.78338,1.06066 7.07107,8.13173 c 0,0 2.2097,-1.50261 2.29809,-1.85616 0.0884,-0.35355 0.61872,-6.89429 0.61872,-6.89429 l 10.16466,1.06066 6.87821,9.01025 c 0,0 2.66773,-1.26961 2.66773,-1.40885 0,-0.7955 0.7955,-8.3969 0.7955,-8.3969 l 14.05374,4.68459 3.44715,6.71751 3.0052,-1.67938 0.61872,-7.33623 10.69499,1.85616 5.12653,9.6861 2.20971,-1.99632 0.0884,-7.51301 7.15946,0.70711 6.55146,9.64505 2.55254,-2.22043 1.41421,-8.22012 -58.86664,-8.3085 -45.69677,1.14905 z"
         style="fill:url(#linearGradient3744);stroke:none" />
      <path
         sodipodi:nodetypes="ssscsscssccccccccccccccccccccccccccccccccccccccccccccccccccccccccc"
         inkscape:connector-curvature="0"
         id="path3278"
         transform="translate(0,308.26769)"
         d="m 498.71875,457.21875 c -31.08166,0.59588 -58.42631,17.85245 -74.53125,54.46875 -7.99112,18.16867 -12.54468,50.93725 -6.28125,75.28125 11.27653,43.8282 68.20591,52.4124 86.90625,47.8125 39.71639,5.0451 82.79965,6.48165 107.5,-15.21875 20.39909,-17.9215 26.93438,-38.97795 26.59375,-67.09375 -0.85637,-70.68644 -45.60487,-103.59989 -103.90625,-89 -11.30023,-3.97503 -22.47524,-6.08628 -33.25,-6.25 -1.01013,-0.0154 -2.02862,-0.0192 -3.03125,0 z m -12.8606,47.72243 12.01685,32.37132 -33.68994,-6.84467 z m 70.0481,4.59007 28.375,23.28125 -35.96875,11.4375 z m -93.65625,65.9375 6.09375,0.4375 0.84375,6.78125 9.40625,0 0.90625,-6.03125 9.96875,0.71875 -0.90625,6.53125 11.875,0.53125 0.21875,-6.3125 9.75,0.6875 -0.28125,7.21875 10.40625,-0.1875 0.28125,-7.34375 9.46875,1.6875 0.0625,6.875 11.125,0.34375 -0.0625,-6.4375 9.3125,0.1875 -0.9375,7.15625 10.96875,1.59375 -0.125,-7.59375 6.96875,0.46875 L 567,590.25 l 9.875,0.53125 1.84375,-7.21875 4.90625,0.3125 -7.59375,18.40625 -10.4375,-1.46875 2.59375,-5.8125 -10.3125,-0.875 0.1875,6.4375 -10.03125,-0.21875 1.4375,-7.84375 -11.21875,-0.84375 0.34375,7.71875 -10.40625,-0.46875 0.71875,-8.34375 -10.6875,-0.3125 0.90625,7.875 -11.875,-0.71875 1.15625,-8.0625 -11.1875,-0.5 0.5,7.9375 -11.5625,-0.90625 0.5625,-8.28125 -11.75,-0.34375 0.21875,7.84375 -9.5625,-0.5 z"
         style="color:#000000;fill:url(#radialGradient3726);fill-opacity:1;stroke:none;stroke-width:1px;marker:none;visibility:visible;display:inline;overflow:visible;enable-background:accumulate" />
      <path
         id="path3280"
         transform="translate(0,308.26769)"
         d="m 515.625,487.0625 c -13.28612,42.25024 -19.15917,70.72406 -23.84375,97 l 3.09375,0.125 c 9.73918,-38.53835 22.88524,-92.85451 20.75,-97.125 z m -25.96875,109.09375 c -1.49516,8.67249 -2.95514,17.28432 -4.625,26.28125 0,0 2.87703,-10.98237 6.75,-26.125 l -2.125,-0.15625 z"
         style="color:#000000;fill:url(#linearGradient3703);stroke:none;stroke-width:1px;marker:none;visibility:visible;display:inline;overflow:visible;enable-background:accumulate"
         inkscape:connector-curvature="0" />
      <path
         style="color:#000000;fill:url(#linearGradient3650);stroke:none;stroke-width:1px;marker:none;visibility:visible;display:inline;overflow:visible;enable-background:accumulate"
         d="m 503.32198,788.00865 c -70.24534,28.45826 -77.24764,111.47419 -71.52195,131.06809 0.3734,-34.7736 16.09971,-106.42957 71.52195,-131.06809 z"
         id="path3282"
         sodipodi:nodetypes="ccc"
         inkscape:connector-curvature="0" />
      <path
         id="path3284"
         transform="translate(0,308.26769)"
         d="m 541.875,487.9375 c 0.84119,5.30921 4.58377,25.59362 8.0625,48.875 l 3.21875,-14.6875 c -3.07051,-14.46034 -7.01601,-26.82038 -11.28125,-34.1875 z m 14.6875,53.6875 -5.65625,1.8125 c 2.23096,15.5809 4.22667,31.96939 5.0625,45.78125 l 3.25,0.46875 c 0.69021,-14.99686 -0.40618,-32.00487 -2.65625,-48.0625 z m 1.3125,52.5 0.1875,6.4375 -1.65625,-0.0312 c 0.0521,7.12035 -0.40295,13.02205 -1.53125,16.9375 2.1265,-6.44323 3.45157,-14.43187 4.09375,-23.25 L 557.875,594.125 z"
         style="color:#000000;fill:url(#linearGradient3723);stroke:none;stroke-width:1px;marker:none;visibility:visible;display:inline;overflow:visible;enable-background:accumulate"
         inkscape:connector-curvature="0" />
      <path
         style="color:#000000;fill:url(#linearGradient3644);fill-opacity:1;stroke:none;stroke-width:1px;marker:none;visibility:visible;display:inline;overflow:visible;enable-background:accumulate"
         d="m 529.24231,773.29868 c 7.5448,-25.60621 12.22058,-33.50115 24.4705,-44.62379 13.03995,-3.42731 25.49405,-1.2867 23.917,10.94052 -22.55759,17.61773 -16.34636,15.16693 -34.57313,37.42098 -6.27329,1.26779 -12.54658,2.53558 -13.81437,-3.73771 z"
         id="path3286"
         sodipodi:nodetypes="ccccc"
         inkscape:connector-curvature="0" />
      <path
         style="color:#000000;fill:url(#linearGradient3641);stroke:none;stroke-width:1px;marker:none;visibility:visible;display:inline;overflow:visible;enable-background:accumulate"
         d="m 500.23124,775.27262 c -10.53996,-3.54375 -24.15912,-1.49699 -36.25996,-0.66562 l -6.32054,3.65959 c 11.86797,-1.28322 32.48143,-6.13323 42.5805,-2.99397 z"
         id="path3288"
         sodipodi:nodetypes="cccc"
         inkscape:connector-curvature="0" />
      <path
         style="color:#000000;fill:url(#linearGradient3638);stroke:none;stroke-width:1px;marker:none;visibility:visible;display:inline;overflow:visible;enable-background:accumulate"
         d="m 574.85045,792.16772 c 21.98074,17.71163 39.52098,90.72082 37.74632,118.12672 11.10824,-41.2711 -13.07365,-104.9165 -37.74632,-118.12672 z"
         id="path3290"
         sodipodi:nodetypes="ccc"
         inkscape:connector-curvature="0" />
      <path
         style="color:#000000;fill:#ffffff;fill-opacity:0.3482143;stroke:none;stroke-width:1px;marker:none;visibility:visible;display:inline;overflow:visible;filter:url(#filter3912);enable-background:accumulate"
         d="M 10.967193,21.127777 C 13.51717,19.18096 18.053408,15.04991 22.869977,14.994464 22.410859,14.138013 13.05043,14.491453 10.967193,21.127777 z"
         id="path3292"
         transform="matrix(6.400115,0,0,6.400115,364.5946,674.242)"
         sodipodi:nodetypes="ccc"
         inkscape:connector-curvature="0" />
      <path
         sodipodi:type="arc"
         style="fill:#ffffff;fill-opacity:0.3169643;stroke:none;filter:url(#filter3866)"
         id="path3294"
         sodipodi:cx="34.294678"
         sodipodi:cy="182.63766"
         sodipodi:rx="13.435029"
         sodipodi:ry="16.793787"
         d="m 47.729707,182.63766 c 0,9.27496 -6.015068,16.79379 -13.435029,16.79379 -7.419962,0 -13.435029,-7.51883 -13.435029,-16.79379 0,-9.27495 6.015067,-16.79378 13.435029,-16.79378 7.419961,0 13.435029,7.51883 13.435029,16.79378 z"
         transform="matrix(0.8027229,-0.59635219,0.65912613,0.88722009,293.90505,765.04743)" />
      <path
         style="fill:#000000;fill-opacity:0.19642855;stroke:none;filter:url(#filter3900)"
         d="m 561.31648,944.28894 c 28.24198,-13.9481 54.14694,-28.0486 73.89265,-57.2756 0,0 -6.18718,58.6898 -73.89265,57.2756 z"
         id="path3296"
         inkscape:connector-curvature="0"
         sodipodi:nodetypes="ccc" />
      <path
         inkscape:connector-curvature="0"
         style="fill:url(#linearGradient3632);fill-opacity:1;stroke:none"
         d="m 594.08693,775.23869 -7.8125,0.15625 10.65625,1.25 c -0.93725,-0.48914 -1.88166,-0.95974 -2.84375,-1.40625 z"
         id="path3298" />
      <path
         style="fill:#ffffff;fill-opacity:0.35714291;stroke:none;filter:url(#filter3927)"
         d="m 554.77574,728.97495 c 8.78365,1.18703 17.13839,2.8983 21.74353,9.19239 0,0 3.53554,-12.02081 -21.74353,-9.19239 z"
         id="path3300"
         inkscape:connector-curvature="0"
         sodipodi:nodetypes="ccc" />
    </g>
  </g>
</svg>
