<?xml version="1.0" encoding="UTF-8" standalone="no"?>
<!-- Created with Inkscape (http://www.inkscape.org/) -->

<svg
   xmlns:dc="http://purl.org/dc/elements/1.1/"
   xmlns:cc="http://creativecommons.org/ns#"
   xmlns:rdf="http://www.w3.org/1999/02/22-rdf-syntax-ns#"
   xmlns:svg="http://www.w3.org/2000/svg"
   xmlns="http://www.w3.org/2000/svg"
   xmlns:xlink="http://www.w3.org/1999/xlink"
   xmlns:sodipodi="http://sodipodi.sourceforge.net/DTD/sodipodi-0.dtd"
   xmlns:inkscape="http://www.inkscape.org/namespaces/inkscape"
   width="290"
   height="290"
   id="svg2"
   version="1.1"
   inkscape:version="0.48.4 r9939"
   sodipodi:docname="pumpkin-11.svg"
   inkscape:export-filename="pumpkins.png"
   inkscape:export-xdpi="299.96191"
   inkscape:export-ydpi="299.96191">
  <defs
     id="defs4">
    <linearGradient
       id="linearGradient4807">
      <stop
         style="stop-color:#2a1704;stop-opacity:1;"
         offset="0"
         id="stop4809" />
      <stop
         style="stop-color:#3d332a;stop-opacity:1;"
         offset="1"
         id="stop4811" />
    </linearGradient>
    <linearGradient
       id="linearGradient4744">
      <stop
         style="stop-color:#999999;stop-opacity:1;"
         offset="0"
         id="stop4746" />
      <stop
         style="stop-color:#dbdbdb;stop-opacity:1;"
         offset="1"
         id="stop4748" />
    </linearGradient>
    <linearGradient
       id="linearGradient4429">
      <stop
         style="stop-color:#000080;stop-opacity:1;"
         offset="0"
         id="stop4431" />
      <stop
         style="stop-color:#0000f9;stop-opacity:1;"
         offset="1"
         id="stop4433" />
    </linearGradient>
    <linearGradient
       id="linearGradient4173">
      <stop
         style="stop-color:#ff0000;stop-opacity:1;"
         offset="0"
         id="stop4175" />
      <stop
         style="stop-color:#b00000;stop-opacity:1;"
         offset="1"
         id="stop4177" />
    </linearGradient>
    <linearGradient
       id="linearGradient3290">
      <stop
         style="stop-color:#630000;stop-opacity:1;"
         offset="0"
         id="stop3292" />
      <stop
         style="stop-color:#ff1818;stop-opacity:1;"
         offset="1"
         id="stop3294" />
    </linearGradient>
    <linearGradient
       id="linearGradient3480">
      <stop
         style="stop-color:#1a1a1a;stop-opacity:1;"
         offset="0"
         id="stop3482" />
      <stop
         style="stop-color:#494949;stop-opacity:1;"
         offset="1"
         id="stop3484" />
    </linearGradient>
    <linearGradient
       id="linearGradient3931">
      <stop
         style="stop-color:#5f6b21;stop-opacity:1;"
         offset="0"
         id="stop3933" />
      <stop
         style="stop-color:#39a905;stop-opacity:1;"
         offset="1"
         id="stop3935" />
    </linearGradient>
    <linearGradient
       id="linearGradient3689">
      <stop
         style="stop-color:#fff690;stop-opacity:1;"
         offset="0"
         id="stop3691" />
      <stop
         style="stop-color:#f2ff00;stop-opacity:1;"
         offset="1"
         id="stop3693" />
    </linearGradient>
    <linearGradient
       id="linearGradient3669">
      <stop
         style="stop-color:#ffd73b;stop-opacity:1;"
         offset="0"
         id="stop3671" />
      <stop
         style="stop-color:#ee8400;stop-opacity:1;"
         offset="1"
         id="stop3673" />
    </linearGradient>
    <filter
       inkscape:collect="always"
       id="filter3641"
       x="-0.047149919"
       width="1.0942998"
       y="-0.29882854"
       height="1.5976571"
       color-interpolation-filters="sRGB">
      <feGaussianBlur
         inkscape:collect="always"
         stdDeviation="0.67728367"
         id="feGaussianBlur3643" />
    </filter>
    <filter
       inkscape:collect="always"
       id="filter3866"
       x="-0.29160413"
       width="1.5832083"
       y="-0.29436955"
       height="1.5887392"
       color-interpolation-filters="sRGB">
      <feGaussianBlur
         inkscape:collect="always"
         stdDeviation="3.7554505"
         id="feGaussianBlur3868" />
    </filter>
    <filter
       inkscape:collect="always"
       id="filter3900"
       x="-0.12988681"
       width="1.2597736"
       y="-0.16756999"
       height="1.33514"
       color-interpolation-filters="sRGB">
      <feGaussianBlur
         inkscape:collect="always"
         stdDeviation="3.9990335"
         id="feGaussianBlur3902" />
    </filter>
    <filter
       inkscape:collect="always"
       id="filter3912"
       x="-0.079064548"
       width="1.1581291"
       y="-0.14543517"
       height="1.2908703"
       color-interpolation-filters="sRGB">
      <feGaussianBlur
         inkscape:collect="always"
         stdDeviation="0.39212011"
         id="feGaussianBlur3914" />
    </filter>
    <filter
       inkscape:collect="always"
       id="filter3927"
       x="-0.12636624"
       width="1.2527325"
       y="-0.28773808"
       height="1.5754762"
       color-interpolation-filters="sRGB">
      <feGaussianBlur
         inkscape:collect="always"
         stdDeviation="1.1537473"
         id="feGaussianBlur3929" />
    </filter>
    <linearGradient
       id="linearGradient3701">
      <stop
         id="stop3703"
         offset="0"
         style="stop-color:#704608;stop-opacity:1;" />
      <stop
         id="stop3705"
         offset="1"
         style="stop-color:#ab8855;stop-opacity:1;" />
    </linearGradient>
    <radialGradient
       inkscape:collect="always"
       xlink:href="#linearGradient4173"
       id="radialGradient4421"
       cx="273.46396"
       cy="377.33414"
       fx="273.46396"
       fy="377.33414"
       r="18.051634"
       gradientUnits="userSpaceOnUse"
       gradientTransform="matrix(0.91939596,0.89520858,-0.72098645,0.74046748,292.18989,-150.7503)" />
    <linearGradient
       inkscape:collect="always"
       xlink:href="#linearGradient4429"
       id="linearGradient4437"
       x1="191.5"
       y1="793.61218"
       x2="154.5"
       y2="749.11218"
       gradientUnits="userSpaceOnUse" />
    <linearGradient
       inkscape:collect="always"
       xlink:href="#linearGradient4173"
       id="linearGradient4445"
       x1="228.25"
       y1="766.86218"
       x2="268.5"
       y2="807.61218"
       gradientUnits="userSpaceOnUse" />
    <linearGradient
       inkscape:collect="always"
       xlink:href="#linearGradient4429"
       id="linearGradient4449"
       x1="171.25"
       y1="756.36218"
       x2="184"
       y2="794.86218"
       gradientUnits="userSpaceOnUse" />
    <linearGradient
       inkscape:collect="always"
       xlink:href="#linearGradient4173"
       id="linearGradient4451"
       x1="278.71167"
       y1="784.69769"
       x2="278.41714"
       y2="773.44769"
       gradientUnits="userSpaceOnUse" />
    <linearGradient
       inkscape:collect="always"
       xlink:href="#linearGradient4173"
       id="linearGradient4455"
       x1="195.46165"
       y1="738.0257"
       x2="223.21445"
       y2="776.0257"
       gradientUnits="userSpaceOnUse" />
    <linearGradient
       inkscape:collect="always"
       xlink:href="#linearGradient4429"
       id="linearGradient4457"
       x1="268.71167"
       y1="789.24646"
       x2="234.4707"
       y2="718.49646"
       gradientUnits="userSpaceOnUse" />
    <radialGradient
       inkscape:collect="always"
       xlink:href="#linearGradient3689"
       id="radialGradient4463"
       cx="239.4086"
       cy="431.88187"
       fx="239.4086"
       fy="431.88187"
       r="9.25"
       gradientTransform="matrix(-0.26506149,0.6746995,-0.9055956,-0.35577101,682.61351,421.59919)"
       gradientUnits="userSpaceOnUse" />
    <linearGradient
       inkscape:collect="always"
       xlink:href="#linearGradient3669"
       id="linearGradient4471"
       gradientUnits="userSpaceOnUse"
       gradientTransform="translate(81.37298,729.17297)"
       x1="183.125"
       y1="72.875"
       x2="192.25"
       y2="55.5" />
    <linearGradient
       inkscape:collect="always"
       xlink:href="#linearGradient3669"
       id="linearGradient4477"
       gradientUnits="userSpaceOnUse"
       gradientTransform="matrix(6.400115,0,0,6.400115,44.56815,693.64503)"
       x1="29.022875"
       y1="24.614502"
       x2="37.24147"
       y2="21.310812" />
    <linearGradient
       inkscape:collect="always"
       xlink:href="#linearGradient3669"
       id="linearGradient4480"
       gradientUnits="userSpaceOnUse"
       gradientTransform="matrix(6.400115,0,0,6.400115,37.81815,-5740.1386)"
       x1="22.383869"
       y1="1023.8843"
       x2="15.64438"
       y2="1017.5189" />
    <linearGradient
       inkscape:collect="always"
       xlink:href="#linearGradient3931"
       id="linearGradient4483"
       gradientUnits="userSpaceOnUse"
       gradientTransform="translate(81.37298,-67.18923)"
       x1="147.5"
       y1="843.86218"
       x2="119"
       y2="814.86218" />
    <linearGradient
       inkscape:collect="always"
       xlink:href="#linearGradient3669"
       id="linearGradient4489"
       gradientUnits="userSpaceOnUse"
       gradientTransform="matrix(6.400115,0,0,6.400115,44.56815,385.37734)"
       x1="8.9686985"
       y1="25.84791"
       x2="17.828442"
       y2="29.798435" />
    <linearGradient
       inkscape:collect="always"
       xlink:href="#linearGradient3669"
       id="linearGradient4492"
       gradientUnits="userSpaceOnUse"
       gradientTransform="matrix(6.400115,0,0,6.400115,44.56815,385.37734)"
       x1="14.269864"
       y1="26.721092"
       x2="25.219465"
       y2="26.058191" />
    <linearGradient
       inkscape:collect="always"
       xlink:href="#linearGradient3669"
       id="linearGradient4524"
       gradientUnits="userSpaceOnUse"
       gradientTransform="matrix(6.400115,0,0,6.400115,44.56815,385.37734)"
       x1="24.367268"
       y1="29.051037"
       x2="31.867142"
       y2="29.106279" />
    <radialGradient
       inkscape:collect="always"
       xlink:href="#linearGradient3669"
       id="radialGradient4527"
       gradientUnits="userSpaceOnUse"
       gradientTransform="matrix(2.5638659,5.7920643,-4.9198331,2.1778048,5148.6575,-1807.5133)"
       cx="17.360392"
       cy="1023.9149"
       fx="17.360392"
       fy="1023.9149"
       r="17.592218" />
    <linearGradient
       inkscape:collect="always"
       xlink:href="#linearGradient4173"
       id="linearGradient4575"
       x1="181.5"
       y1="585.59448"
       x2="187.75"
       y2="640.09448"
       gradientUnits="userSpaceOnUse" />
    <filter
       inkscape:collect="always"
       id="filter4591"
       x="-0.34245893"
       width="1.6849179"
       y="-0.45352671"
       height="1.9070534"
       color-interpolation-filters="sRGB">
      <feGaussianBlur
         inkscape:collect="always"
         stdDeviation="1.7479675"
         id="feGaussianBlur4593" />
    </filter>
    <linearGradient
       inkscape:collect="always"
       xlink:href="#linearGradient3701"
       id="linearGradient4597"
       x1="122.875"
       y1="555.59448"
       x2="137.25"
       y2="541.71948"
       gradientUnits="userSpaceOnUse" />
    <linearGradient
       inkscape:collect="always"
       xlink:href="#linearGradient3701"
       id="linearGradient4605"
       x1="211.75"
       y1="578.17609"
       x2="236.75"
       y2="551.17609"
       gradientUnits="userSpaceOnUse" />
    <linearGradient
       inkscape:collect="always"
       xlink:href="#linearGradient3701"
       id="linearGradient4609"
       x1="142.125"
       y1="627.71948"
       x2="162.875"
       y2="604.84448"
       gradientUnits="userSpaceOnUse" />
    <filter
       inkscape:collect="always"
       id="filter4617"
       x="-0.16974287"
       width="1.3394856"
       y="-0.095158927"
       height="1.1903177"
       color-interpolation-filters="sRGB">
      <feGaussianBlur
         inkscape:collect="always"
         stdDeviation="0.92520325"
         id="feGaussianBlur4619" />
    </filter>
    <filter
       inkscape:collect="always"
       id="filter4631"
       x="-0.0758885"
       width="1.151777"
       y="-0.10416069"
       height="1.2083215"
       color-interpolation-filters="sRGB">
      <feGaussianBlur
         inkscape:collect="always"
         stdDeviation="1.5651203"
         id="feGaussianBlur4633" />
    </filter>
    <linearGradient
       inkscape:collect="always"
       xlink:href="#linearGradient3669"
       id="linearGradient4677"
       gradientUnits="userSpaceOnUse"
       gradientTransform="translate(395.89972,729.17297)"
       x1="183.125"
       y1="72.875"
       x2="192.25"
       y2="55.5" />
    <linearGradient
       inkscape:collect="always"
       xlink:href="#linearGradient3669"
       id="linearGradient4683"
       gradientUnits="userSpaceOnUse"
       gradientTransform="matrix(6.400115,0,0,6.400115,359.09489,693.64503)"
       x1="29.022875"
       y1="24.614502"
       x2="37.24147"
       y2="21.310812" />
    <linearGradient
       inkscape:collect="always"
       xlink:href="#linearGradient3669"
       id="linearGradient4686"
       gradientUnits="userSpaceOnUse"
       gradientTransform="matrix(6.400115,0,0,6.400115,352.34489,-5740.1386)"
       x1="22.383869"
       y1="1023.8843"
       x2="15.64438"
       y2="1017.5189" />
    <linearGradient
       inkscape:collect="always"
       xlink:href="#linearGradient3931"
       id="linearGradient4689"
       gradientUnits="userSpaceOnUse"
       gradientTransform="translate(395.89972,-67.18923)"
       x1="147.5"
       y1="843.86218"
       x2="119"
       y2="814.86218" />
    <linearGradient
       inkscape:collect="always"
       xlink:href="#linearGradient3669"
       id="linearGradient4692"
       gradientUnits="userSpaceOnUse"
       gradientTransform="matrix(6.400115,0,0,6.400115,359.09489,385.37734)"
       x1="24.367268"
       y1="29.051037"
       x2="31.867142"
       y2="29.106279" />
    <linearGradient
       inkscape:collect="always"
       xlink:href="#linearGradient3669"
       id="linearGradient4695"
       gradientUnits="userSpaceOnUse"
       gradientTransform="matrix(6.400115,0,0,6.400115,359.09489,693.64503)"
       x1="8.9686985"
       y1="25.84791"
       x2="17.828442"
       y2="29.798435" />
    <linearGradient
       inkscape:collect="always"
       xlink:href="#linearGradient3669"
       id="linearGradient4698"
       gradientUnits="userSpaceOnUse"
       gradientTransform="matrix(6.400115,0,0,6.400115,359.09489,385.37734)"
       x1="14.269864"
       y1="26.721092"
       x2="25.219465"
       y2="26.058191" />
    <linearGradient
       inkscape:collect="always"
       xlink:href="#linearGradient3701"
       id="linearGradient4726"
       x1="452.5"
       y1="567.73181"
       x2="481.5"
       y2="533.35681"
       gradientUnits="userSpaceOnUse" />
    <linearGradient
       inkscape:collect="always"
       xlink:href="#linearGradient3701"
       id="linearGradient4730"
       x1="525.75"
       y1="564.96948"
       x2="559.75"
       y2="542.09448"
       gradientUnits="userSpaceOnUse" />
    <linearGradient
       inkscape:collect="always"
       xlink:href="#linearGradient4744"
       id="linearGradient4750"
       x1="646.49329"
       y1="519.21393"
       x2="588.05493"
       y2="471.79016"
       gradientUnits="userSpaceOnUse" />
    <linearGradient
       inkscape:collect="always"
       xlink:href="#linearGradient4744"
       id="linearGradient4756"
       x1="618.07501"
       y1="806.53271"
       x2="663.61554"
       y2="805.45099"
       gradientUnits="userSpaceOnUse" />
    <radialGradient
       inkscape:collect="always"
       xlink:href="#linearGradient4173"
       id="radialGradient4762"
       cx="612.94501"
       cy="538.02209"
       fx="612.94501"
       fy="538.02209"
       r="3.4460347"
       gradientTransform="matrix(2.1416512,1.0144728,-1.7383602,3.6698482,238.8285,-1739.3804)"
       gradientUnits="userSpaceOnUse" />
    <filter
       inkscape:collect="always"
       id="filter4766"
       color-interpolation-filters="sRGB">
      <feGaussianBlur
         inkscape:collect="always"
         stdDeviation="0.73497233"
         id="feGaussianBlur4768" />
    </filter>
    <filter
       inkscape:collect="always"
       id="filter4780"
       x="-0.13797902"
       width="1.2759579"
       y="-0.22387357"
       height="1.4477471"
       color-interpolation-filters="sRGB">
      <feGaussianBlur
         inkscape:collect="always"
         stdDeviation="2.0768716"
         id="feGaussianBlur4782" />
    </filter>
    <radialGradient
       inkscape:collect="always"
       xlink:href="#linearGradient3669"
       id="radialGradient4793"
       gradientUnits="userSpaceOnUse"
       gradientTransform="matrix(2.5638659,5.7920643,-4.9198331,2.1778048,5466.1842,-1499.2456)"
       cx="17.360392"
       cy="1023.9149"
       fx="17.360392"
       fy="1023.9149"
       r="17.592218" />
    <linearGradient
       inkscape:collect="always"
       xlink:href="#linearGradient3701"
       id="linearGradient4799"
       x1="457.5"
       y1="592.96948"
       x2="465.125"
       y2="588.34448"
       gradientUnits="userSpaceOnUse" />
    <linearGradient
       inkscape:collect="always"
       xlink:href="#linearGradient4807"
       id="linearGradient4813"
       x1="574.5"
       y1="633.09448"
       x2="439.5"
       y2="472.09448"
       gradientUnits="userSpaceOnUse" />
    <radialGradient
       inkscape:collect="always"
       xlink:href="#linearGradient3689"
       id="radialGradient4846"
       gradientUnits="userSpaceOnUse"
       gradientTransform="matrix(-0.26506149,0.6746995,-0.9055956,-0.35577101,682.61351,421.59919)"
       cx="239.4086"
       cy="431.88187"
       fx="239.4086"
       fy="431.88187"
       r="9.25" />
    <radialGradient
       inkscape:collect="always"
       xlink:href="#linearGradient3689"
       id="radialGradient5160"
       gradientUnits="userSpaceOnUse"
       gradientTransform="matrix(2.7450413,4.3867121,-6.8694951,4.2987412,7447.6162,-3628.3352)"
       cx="27.844063"
       cy="1021.0861"
       fx="27.844063"
       fy="1021.0861"
       r="17.592218" />
    <radialGradient
       inkscape:collect="always"
       xlink:href="#linearGradient3689"
       id="radialGradient5164"
       gradientUnits="userSpaceOnUse"
       gradientTransform="matrix(2.7450413,4.3867121,-6.8694951,4.2987412,7131.0895,-3628.3352)"
       cx="27.844063"
       cy="1021.0861"
       fx="27.844063"
       fy="1021.0861"
       r="17.592218" />
    <filter
       inkscape:collect="always"
       id="filter3641-5"
       x="-0.047149919"
       width="1.0942998"
       y="-0.29882854"
       height="1.5976571"
       color-interpolation-filters="sRGB">
      <feGaussianBlur
         inkscape:collect="always"
         stdDeviation="0.67728367"
         id="feGaussianBlur3643-0" />
    </filter>
    <linearGradient
       id="linearGradient3689-9">
      <stop
         style="stop-color:#fff690;stop-opacity:1;"
         offset="0"
         id="stop3691-2" />
      <stop
         style="stop-color:#f2ff00;stop-opacity:1;"
         offset="1"
         id="stop3693-0" />
    </linearGradient>
    <linearGradient
       id="linearGradient3669-4">
      <stop
         style="stop-color:#ffd73b;stop-opacity:1;"
         offset="0"
         id="stop3671-7" />
      <stop
         style="stop-color:#ee8400;stop-opacity:1;"
         offset="1"
         id="stop3673-0" />
    </linearGradient>
    <linearGradient
       inkscape:collect="always"
       xlink:href="#linearGradient3669-4"
       id="linearGradient4016"
       gradientUnits="userSpaceOnUse"
       gradientTransform="matrix(6.400115,0,0,6.400115,678.07747,380.17509)"
       x1="14.269864"
       y1="26.721092"
       x2="25.219465"
       y2="26.058191" />
    <linearGradient
       inkscape:collect="always"
       xlink:href="#linearGradient3669-4"
       id="linearGradient4018"
       gradientUnits="userSpaceOnUse"
       gradientTransform="matrix(6.400115,0,0,6.400115,-405.80483,836.83426)"
       x1="8.9686985"
       y1="25.84791"
       x2="17.828442"
       y2="29.798435" />
    <linearGradient
       inkscape:collect="always"
       xlink:href="#linearGradient3669-4"
       id="linearGradient4020"
       gradientUnits="userSpaceOnUse"
       gradientTransform="matrix(6.400115,0,0,6.400115,678.07747,380.17509)"
       x1="24.367268"
       y1="29.051037"
       x2="31.867142"
       y2="29.106279" />
    <linearGradient
       inkscape:collect="always"
       xlink:href="#linearGradient3931-9"
       id="linearGradient4022"
       gradientUnits="userSpaceOnUse"
       x1="147.5"
       y1="843.86218"
       x2="119"
       y2="814.86218"
       gradientTransform="translate(-369,76)" />
    <linearGradient
       id="linearGradient3931-9">
      <stop
         style="stop-color:#5f6b21;stop-opacity:1;"
         offset="0"
         id="stop3933-0" />
      <stop
         style="stop-color:#39a905;stop-opacity:1;"
         offset="1"
         id="stop3935-3" />
    </linearGradient>
    <linearGradient
       inkscape:collect="always"
       xlink:href="#linearGradient3669-4"
       id="linearGradient4024"
       gradientUnits="userSpaceOnUse"
       gradientTransform="matrix(6.400115,0,0,6.400115,-412.55483,-5596.9494)"
       x1="22.383869"
       y1="1023.8843"
       x2="15.64438"
       y2="1017.5189" />
    <linearGradient
       inkscape:collect="always"
       xlink:href="#linearGradient3669-4"
       id="linearGradient4026"
       gradientUnits="userSpaceOnUse"
       gradientTransform="matrix(6.400115,0,0,6.400115,-405.80483,836.83426)"
       x1="29.022875"
       y1="24.614502"
       x2="37.24147"
       y2="21.310812" />
    <filter
       inkscape:collect="always"
       id="filter3912-3"
       x="-0.079064548"
       width="1.1581291"
       y="-0.14543517"
       height="1.2908703"
       color-interpolation-filters="sRGB">
      <feGaussianBlur
         inkscape:collect="always"
         stdDeviation="0.39212011"
         id="feGaussianBlur3914-6" />
    </filter>
    <filter
       inkscape:collect="always"
       id="filter3866-9"
       x="-0.29160413"
       width="1.5832083"
       y="-0.29436955"
       height="1.5887392"
       color-interpolation-filters="sRGB">
      <feGaussianBlur
         inkscape:collect="always"
         stdDeviation="3.7554505"
         id="feGaussianBlur3868-7" />
    </filter>
    <filter
       inkscape:collect="always"
       id="filter3900-4"
       x="-0.12988681"
       width="1.2597736"
       y="-0.16756999"
       height="1.33514"
       color-interpolation-filters="sRGB">
      <feGaussianBlur
         inkscape:collect="always"
         stdDeviation="3.9990335"
         id="feGaussianBlur3902-7" />
    </filter>
    <linearGradient
       inkscape:collect="always"
       xlink:href="#linearGradient3669-4"
       id="linearGradient4028"
       gradientUnits="userSpaceOnUse"
       x1="183.125"
       y1="72.875"
       x2="192.25"
       y2="55.5"
       gradientTransform="translate(-369,872.3622)" />
    <filter
       inkscape:collect="always"
       id="filter3927-1"
       x="-0.12636624"
       width="1.2527325"
       y="-0.28773808"
       height="1.5754762"
       color-interpolation-filters="sRGB">
      <feGaussianBlur
         inkscape:collect="always"
         stdDeviation="1.1537473"
         id="feGaussianBlur3929-8" />
    </filter>
    <radialGradient
       inkscape:collect="always"
       xlink:href="#linearGradient3689-9"
       id="radialGradient5311"
       gradientUnits="userSpaceOnUse"
       gradientTransform="matrix(2.7450413,4.3867121,-6.8694951,4.2987412,6680.7165,-3485.146)"
       cx="27.844063"
       cy="1021.0861"
       fx="27.844063"
       fy="1021.0861"
       r="17.592218" />
    <linearGradient
       inkscape:collect="always"
       xlink:href="#linearGradient4744"
       id="linearGradient5317"
       x1="937.64502"
       y1="555.33234"
       x2="914.71222"
       y2="534.99579"
       gradientUnits="userSpaceOnUse" />
    <linearGradient
       inkscape:collect="always"
       xlink:href="#linearGradient4744"
       id="linearGradient5320"
       x1="926.93585"
       y1="542.35156"
       x2="913.95502"
       y2="541.48615"
       gradientUnits="userSpaceOnUse"
       gradientTransform="translate(-1058.9785,459.4236)" />
    <linearGradient
       inkscape:collect="always"
       xlink:href="#linearGradient4744"
       id="linearGradient5324"
       x1="882.81049"
       y1="563.93207"
       x2="882.36847"
       y2="551.81665"
       gradientUnits="userSpaceOnUse"
       gradientTransform="translate(-1033.8823,446.65917)" />
    <linearGradient
       inkscape:collect="always"
       xlink:href="#linearGradient5341"
       id="linearGradient5317-0"
       x1="937.64502"
       y1="555.33234"
       x2="914.71222"
       y2="534.99579"
       gradientUnits="userSpaceOnUse" />
    <linearGradient
       id="linearGradient5341">
      <stop
         style="stop-color:#999999;stop-opacity:1;"
         offset="0"
         id="stop5343" />
      <stop
         style="stop-color:#dbdbdb;stop-opacity:1;"
         offset="1"
         id="stop5345" />
    </linearGradient>
    <linearGradient
       y2="541.48615"
       x2="913.95502"
       y1="542.35156"
       x1="926.93585"
       gradientTransform="matrix(0.90391538,0.11783864,-0.11783864,0.90391538,-1137.9407,360.06264)"
       gradientUnits="userSpaceOnUse"
       id="linearGradient5349"
       xlink:href="#linearGradient5341"
       inkscape:collect="always" />
    <linearGradient
       y2="551.81665"
       x2="882.36847"
       y1="563.93207"
       x1="882.81049"
       gradientTransform="matrix(0.99180559,0.12775627,-0.12775627,0.99180559,-1153.0539,301.28356)"
       gradientUnits="userSpaceOnUse"
       id="linearGradient5393"
       xlink:href="#linearGradient5341"
       inkscape:collect="always" />
    <linearGradient
       inkscape:collect="always"
       xlink:href="#linearGradient5341"
       id="linearGradient5414"
       x1="874.54968"
       y1="568.21344"
       x2="841.67841"
       y2="530.77509"
       gradientUnits="userSpaceOnUse"
       gradientTransform="matrix(1.2625453,0,0,1.3274954,-1308.9023,282.32053)" />
    <linearGradient
       inkscape:collect="always"
       xlink:href="#linearGradient5341"
       id="linearGradient5422"
       gradientUnits="userSpaceOnUse"
       x1="874.54968"
       y1="568.21344"
       x2="841.67841"
       y2="530.77509"
       gradientTransform="matrix(0.78642931,0,0,0.82688615,-974.0919,542.02019)" />
    <radialGradient
       inkscape:collect="always"
       xlink:href="#linearGradient3669-4"
       id="radialGradient5434"
       gradientUnits="userSpaceOnUse"
       gradientTransform="matrix(2.5638659,5.7920643,-4.9198331,2.1778048,5782.1668,-1812.7156)"
       cx="17.360392"
       cy="1023.9149"
       fx="17.360392"
       fy="1023.9149"
       r="17.592218" />
    <linearGradient
       inkscape:collect="always"
       xlink:href="#linearGradient5341"
       id="linearGradient5456"
       gradientUnits="userSpaceOnUse"
       x1="839.91968"
       y1="520.94165"
       x2="834.55206"
       y2="516.76154" />
    <linearGradient
       inkscape:collect="always"
       xlink:href="#linearGradient5341"
       id="linearGradient5458"
       gradientUnits="userSpaceOnUse"
       gradientTransform="matrix(0.81862499,0.57432841,-0.57432841,0.81862499,-633.90192,69.191503)"
       x1="837.29468"
       y1="519.19165"
       x2="839.11609"
       y2="519.17389" />
    <linearGradient
       inkscape:collect="always"
       xlink:href="#linearGradient5341"
       id="linearGradient5466"
       gradientUnits="userSpaceOnUse"
       x1="839.91968"
       y1="520.94165"
       x2="834.55206"
       y2="516.76154" />
    <linearGradient
       inkscape:collect="always"
       xlink:href="#linearGradient5341"
       id="linearGradient5468"
       gradientUnits="userSpaceOnUse"
       gradientTransform="matrix(0.81862499,0.57432841,-0.57432841,0.81862499,-633.90192,69.191503)"
       x1="837.29468"
       y1="519.19165"
       x2="839.11609"
       y2="519.17389" />
    <linearGradient
       inkscape:collect="always"
       xlink:href="#linearGradient5341"
       id="linearGradient5476"
       gradientUnits="userSpaceOnUse"
       x1="839.91968"
       y1="520.94165"
       x2="834.55206"
       y2="516.76154" />
    <linearGradient
       inkscape:collect="always"
       xlink:href="#linearGradient5341"
       id="linearGradient5478"
       gradientUnits="userSpaceOnUse"
       gradientTransform="matrix(0.81862499,0.57432841,-0.57432841,0.81862499,-633.90192,69.191503)"
       x1="837.29468"
       y1="519.19165"
       x2="839.11609"
       y2="519.17389" />
    <linearGradient
       inkscape:collect="always"
       xlink:href="#linearGradient5341"
       id="linearGradient5486"
       gradientUnits="userSpaceOnUse"
       x1="839.91968"
       y1="520.94165"
       x2="834.55206"
       y2="516.76154" />
    <linearGradient
       inkscape:collect="always"
       xlink:href="#linearGradient5341"
       id="linearGradient5488"
       gradientUnits="userSpaceOnUse"
       gradientTransform="matrix(0.81862499,0.57432841,-0.57432841,0.81862499,-633.90192,69.191503)"
       x1="837.29468"
       y1="519.19165"
       x2="839.11609"
       y2="519.17389" />
    <linearGradient
       inkscape:collect="always"
       xlink:href="#linearGradient5341"
       id="linearGradient5496"
       gradientUnits="userSpaceOnUse"
       x1="839.91968"
       y1="520.94165"
       x2="834.55206"
       y2="516.76154" />
    <linearGradient
       inkscape:collect="always"
       xlink:href="#linearGradient5341"
       id="linearGradient5498"
       gradientUnits="userSpaceOnUse"
       gradientTransform="matrix(0.81862499,0.57432841,-0.57432841,0.81862499,-633.90192,69.191503)"
       x1="837.29468"
       y1="519.19165"
       x2="839.11609"
       y2="519.17389" />
    <linearGradient
       inkscape:collect="always"
       xlink:href="#linearGradient5341"
       id="linearGradient5506"
       gradientUnits="userSpaceOnUse"
       x1="839.91968"
       y1="520.94165"
       x2="834.55206"
       y2="516.76154" />
    <linearGradient
       inkscape:collect="always"
       xlink:href="#linearGradient5341"
       id="linearGradient5508"
       gradientUnits="userSpaceOnUse"
       gradientTransform="matrix(0.81862499,0.57432841,-0.57432841,0.81862499,-633.90192,69.191503)"
       x1="837.29468"
       y1="519.19165"
       x2="839.11609"
       y2="519.17389" />
    <linearGradient
       inkscape:collect="always"
       xlink:href="#linearGradient5341"
       id="linearGradient5516"
       gradientUnits="userSpaceOnUse"
       x1="839.91968"
       y1="520.94165"
       x2="834.55206"
       y2="516.76154" />
    <linearGradient
       inkscape:collect="always"
       xlink:href="#linearGradient5341"
       id="linearGradient5518"
       gradientUnits="userSpaceOnUse"
       gradientTransform="matrix(0.81862499,0.57432841,-0.57432841,0.81862499,-633.90192,69.191503)"
       x1="837.29468"
       y1="519.19165"
       x2="839.11609"
       y2="519.17389" />
    <linearGradient
       inkscape:collect="always"
       xlink:href="#linearGradient5341"
       id="linearGradient5526"
       gradientUnits="userSpaceOnUse"
       x1="839.91968"
       y1="520.94165"
       x2="834.55206"
       y2="516.76154" />
    <linearGradient
       inkscape:collect="always"
       xlink:href="#linearGradient5341"
       id="linearGradient5528"
       gradientUnits="userSpaceOnUse"
       gradientTransform="matrix(0.81862499,0.57432841,-0.57432841,0.81862499,-633.90192,69.191503)"
       x1="837.29468"
       y1="519.19165"
       x2="839.11609"
       y2="519.17389" />
    <linearGradient
       inkscape:collect="always"
       xlink:href="#linearGradient3701"
       id="linearGradient5553"
       x1="771.125"
       y1="599.53198"
       x2="785.875"
       y2="590.15698"
       gradientUnits="userSpaceOnUse" />
    <linearGradient
       inkscape:collect="always"
       xlink:href="#linearGradient3701"
       id="linearGradient5557"
       gradientUnits="userSpaceOnUse"
       x1="771.125"
       y1="599.53198"
       x2="785.875"
       y2="590.15698"
       gradientTransform="translate(-1065.1323,458.65917)" />
    <linearGradient
       inkscape:collect="always"
       xlink:href="#linearGradient3701"
       id="linearGradient5561"
       gradientUnits="userSpaceOnUse"
       gradientTransform="translate(-1048.1323,460.65917)"
       x1="771.125"
       y1="599.53198"
       x2="785.875"
       y2="590.15698" />
    <linearGradient
       inkscape:collect="always"
       xlink:href="#linearGradient3701"
       id="linearGradient5565"
       gradientUnits="userSpaceOnUse"
       gradientTransform="translate(-1032.2573,462.78417)"
       x1="771.125"
       y1="599.53198"
       x2="785.875"
       y2="590.15698" />
    <linearGradient
       inkscape:collect="always"
       xlink:href="#linearGradient3701"
       id="linearGradient5569"
       gradientUnits="userSpaceOnUse"
       gradientTransform="translate(-1032.2573,478.03417)"
       x1="771.125"
       y1="599.53198"
       x2="785.875"
       y2="590.15698" />
    <linearGradient
       inkscape:collect="always"
       xlink:href="#linearGradient3701"
       id="linearGradient5573"
       gradientUnits="userSpaceOnUse"
       gradientTransform="translate(-1047.5073,477.15917)"
       x1="771.125"
       y1="599.53198"
       x2="785.875"
       y2="590.15698" />
    <linearGradient
       inkscape:collect="always"
       xlink:href="#linearGradient3701"
       id="linearGradient5577"
       gradientUnits="userSpaceOnUse"
       gradientTransform="translate(-1064.5073,474.40917)"
       x1="771.125"
       y1="599.53198"
       x2="785.875"
       y2="590.15698" />
    <linearGradient
       inkscape:collect="always"
       xlink:href="#linearGradient3701"
       id="linearGradient5581"
       gradientUnits="userSpaceOnUse"
       gradientTransform="translate(-1082.8823,471.90917)"
       x1="771.125"
       y1="599.53198"
       x2="785.875"
       y2="590.15698" />
    <linearGradient
       inkscape:collect="always"
       xlink:href="#linearGradient3701"
       id="linearGradient5587"
       x1="773.625"
       y1="550.84448"
       x2="795.75"
       y2="532.09448"
       gradientUnits="userSpaceOnUse" />
    <linearGradient
       inkscape:collect="always"
       xlink:href="#linearGradient3701"
       id="linearGradient5591"
       gradientUnits="userSpaceOnUse"
       x1="773.625"
       y1="550.84448"
       x2="795.75"
       y2="532.09448"
       gradientTransform="matrix(2.1326508,0,0,2.1326508,-1899.554,-137.99509)" />
  </defs>
  <sodipodi:namedview
     id="base"
     pagecolor="#ffffff"
     bordercolor="#666666"
     borderopacity="1.0"
     inkscape:pageopacity="0.0"
     inkscape:pageshadow="2"
     inkscape:zoom="0.5"
     inkscape:cx="585.03864"
     inkscape:cy="179.23607"
     inkscape:document-units="px"
     inkscape:current-layer="layer1"
     showgrid="false"
     inkscape:window-width="1393"
     inkscape:window-height="826"
     inkscape:window-x="199"
     inkscape:window-y="24"
     inkscape:window-maximized="0"
     showguides="true"
     inkscape:guide-bbox="true">
    <inkscape:grid
       type="xygrid"
       id="grid2837"
       empspacing="5"
       visible="true"
       enabled="true"
       snapvisiblegridlinesonly="true" />
  </sodipodi:namedview>
  <metadata
     id="metadata7">
    <rdf:RDF>
      <cc:Work
         rdf:about="">
        <dc:format>image/svg+xml</dc:format>
        <dc:type
           rdf:resource="http://purl.org/dc/dcmitype/StillImage" />
        <dc:title></dc:title>
      </cc:Work>
    </rdf:RDF>
  </metadata>
  <g
     inkscape:label="Layer 1"
     inkscape:groupmode="layer"
     id="layer1"
     transform="translate(0,-762.3622)">
    <g
       id="g4815"
       transform="translate(-387.52745,44.388282)">
      <path
         sodipodi:type="arc"
         style="fill:#000000;fill-opacity:0.76862745;fill-rule:evenodd;stroke:none;filter:url(#filter3641)"
         id="path3347"
         sodipodi:cx="23.705973"
         sodipodi:cy="39.252682"
         sodipodi:rx="17.237366"
         sodipodi:ry="2.7197549"
         d="m 40.943338,39.252682 c 0,1.502079 -7.717431,2.719755 -17.237365,2.719755 -9.519935,0 -17.2373661,-1.217676 -17.2373661,-2.719755 0,-1.502079 7.7174311,-2.719755 17.2373661,-2.719755 9.519934,0 17.237365,1.217676 17.237365,2.719755 z"
         transform="matrix(5.7450926,0,0,7.0920193,375.56374,673.0725)" />
      <path
         style="color:#000000;fill:url(#radialGradient5160);fill-opacity:1;stroke:none;stroke-width:1px;marker:none;visibility:visible;display:inline;overflow:visible;enable-background:accumulate"
         d="m 490.25,784.40625 c -27.42576,0.15473 -52.71938,17.26338 -65.9375,40.75 -14.75099,24.69538 -18.51757,55.04321 -14,83.15625 3.68451,23.73713 24.03338,41.13436 46.125,47.75 13.42879,4.46978 28.05989,6.18353 41.99215,4.00006 30.86549,3.44133 64.18076,6.83627 93.1016,-6.65631 23.12335,-11.73102 37.45919,-36.57315 38.5,-62.1875 2.0323,-30.52318 -3.82284,-64.70037 -27.15625,-86.125 -19.97863,-18.53283 -49.85635,-21.28428 -75.40625,-14.40625 -11.88817,-4.21035 -24.50426,-6.65094 -37.21875,-6.28125 z"
         id="path3349"
         inkscape:connector-curvature="0" />
      <path
         sodipodi:nodetypes="cccccccccccsc"
         transform="translate(0,308.26769)"
         inkscape:connector-curvature="0"
         id="path4724"
         d="m 455.625,536.09448 -2.75,10.625 13.375,3.125 -8.875,6.625 4.25,1.125 9.25,-5.25 4.375,-1.875 15.25,3.5 -2.25,5.5 -31.375,5.375 -12.5,-12.125 c 0,0 2.375,-11.25 3.875,-10.25 1.5,1 -2,-9.125 7.375,-6.375 z"
         style="fill:url(#linearGradient4726);stroke:none" />
      <path
         sodipodi:nodetypes="ccccccccccccccccc"
         transform="translate(0,308.26769)"
         inkscape:connector-curvature="0"
         id="path4728"
         d="m 525.625,542.09448 -2.375,6.75 7.375,3.125 -9.625,4.125 0.125,4.375 19.125,-5.25 3.5,0 9.875,5.625 7,-2.5 -10.875,-3.75 4.5,-4 13.75,-1.875 -2.75,16.25 -24.75,2.625 -25.5,-1.375 -1.25,-17.625 z"
         style="fill:url(#linearGradient4730);stroke:none" />
      <path
         transform="translate(0,308.26769)"
         inkscape:connector-curvature="0"
         id="path4795"
         d="m 459.75,583.59448 -2.625,5.125 8.625,15.125 -12,-11.5 -1,-6.125 z"
         style="fill:url(#linearGradient4799);fill-opacity:1;stroke:none" />
      <path
         inkscape:connector-curvature="0"
         id="path3351"
         d="m 492.21875,783.39269 c -31.08166,0.59588 -58.42631,17.85245 -74.53125,54.46875 -7.99112,18.16867 -12.54468,50.93725 -6.28125,75.28125 11.27653,43.8282 68.20591,52.4124 86.90625,47.8125 39.71639,5.0451 82.79965,6.48165 107.5,-15.21875 20.39909,-17.9215 26.93438,-38.97795 26.59375,-67.09375 -0.85637,-70.68644 -45.60487,-103.59989 -103.90625,-89 -11.30023,-3.97503 -22.47524,-6.08628 -33.25,-6.25 -1.01013,-0.0154 -2.02862,-0.0192 -3.03125,0 z m -36.96875,63.0625 19.5625,6.78125 8.1875,-5.03125 7.78125,3.53125 -7.5625,4.40625 7.71875,2.6875 0,6.71875 -17.28125,-3.8125 -11.6875,6.8125 -8.125,-2.46875 10.46875,-6.4375 -13.3125,-2.9375 4.25,-10.25 z m 106.375,0.28125 6.3125,11.125 -15.4375,5.09375 13.25,5.96875 -9.34375,3.875 -14.71875,-6.25 -20.03125,6.59375 -0.84375,-7.65625 8.8125,-4.0625 -9.53125,-4.0625 8.8125,-5.03125 10.34375,4.6875 22.375,-10.28125 z m -97.40625,45.65625 c 28.71863,33.94287 89.04811,15.91832 98.28125,4.75 l 13.25,1.4375 c -28.95458,41.35092 -108.89616,31.09738 -121.09375,-2.84375 l 9.5625,-3.34375 z"
         style="color:#000000;fill:url(#radialGradient4793);fill-opacity:1;stroke:none;stroke-width:1px;marker:none;visibility:visible;display:inline;overflow:visible;enable-background:accumulate" />
      <path
         id="path3353"
         transform="translate(0,308.26769)"
         d="m 506.125,504.96875 c -12.81027,40.73702 -18.73554,68.68289 -23.34375,94.1875 1.01004,0.38648 2.03428,0.7923 3.0625,1.125 9.68461,-38.40064 22.3803,-91.11439 20.28125,-95.3125 z M 480.53125,611.9375 c -1.62398,9.39274 -3.1939,18.67529 -5,28.40625 0,0 3.08629,-11.72145 7.15625,-27.65625 -0.72434,-0.23999 -1.44709,-0.49252 -2.15625,-0.75 z"
         style="color:#000000;fill:url(#linearGradient4698);stroke:none;stroke-width:1px;marker:none;visibility:visible;display:inline;overflow:visible;enable-background:accumulate"
         inkscape:connector-curvature="0" />
      <path
         style="color:#000000;fill:url(#linearGradient4695);stroke:none;stroke-width:1px;marker:none;visibility:visible;display:inline;overflow:visible;enable-background:accumulate"
         d="m 493.82227,805.91168 c -70.24534,28.45826 -77.24764,111.47419 -71.52195,131.06809 0.3734,-34.7736 16.09971,-106.42957 71.52195,-131.06809 z"
         id="path3355"
         sodipodi:nodetypes="ccc"
         inkscape:connector-curvature="0" />
      <path
         id="path3357"
         transform="translate(0,308.26769)"
         d="m 532.375,505.84375 c 0.75076,4.73845 3.80683,21.41868 6.9375,41.5 l 5.34375,-2.46875 C 541.4659,528.32744 537.11131,514.02452 532.375,505.84375 z m 8.75,53.46875 c 1.82767,12.56565 3.52027,25.7321 4.59375,37.75 1.47955,-0.57782 2.89003,-1.17472 4.1875,-1.78125 C 549.76656,584.44533 548.89485,573.03299 547.4375,562 l -6.3125,-2.6875 z m 8.5,50.09375 c -0.98492,0.47102 -1.95928,0.91674 -2.96875,1.34375 0.49541,10.58494 0.23222,19.37292 -1.28125,24.625 2.34281,-7.09865 3.68791,-16.06858 4.25,-25.96875 z"
         style="color:#000000;fill:url(#linearGradient4692);stroke:none;stroke-width:1px;marker:none;visibility:visible;display:inline;overflow:visible;enable-background:accumulate"
         inkscape:connector-curvature="0" />
      <path
         style="color:#000000;fill:url(#linearGradient4689);fill-opacity:1;stroke:none;stroke-width:1px;marker:none;visibility:visible;display:inline;overflow:visible;enable-background:accumulate"
         d="m 519.7426,791.20171 c 7.5448,-25.60621 12.22058,-33.50115 24.4705,-44.62379 13.03995,-3.42731 25.49405,-1.2867 23.917,10.94052 -22.55759,17.61773 -16.34636,15.16693 -34.57313,37.42098 -6.27329,1.26779 -12.54658,2.53558 -13.81437,-3.73771 z"
         id="path3359"
         sodipodi:nodetypes="ccccc"
         inkscape:connector-curvature="0" />
      <path
         style="color:#000000;fill:url(#linearGradient4683);stroke:none;stroke-width:1px;marker:none;visibility:visible;display:inline;overflow:visible;enable-background:accumulate"
         d="m 565.35074,810.07075 c 21.98074,17.71163 39.52098,90.72082 37.74632,118.12672 11.10824,-41.2711 -13.07365,-104.9165 -37.74632,-118.12672 z"
         id="path3363"
         sodipodi:nodetypes="ccc"
         inkscape:connector-curvature="0" />
      <path
         style="fill:#000000;fill-opacity:0.19642855;stroke:none;filter:url(#filter3900)"
         d="m 551.81677,962.19197 c 28.24198,-13.9481 54.14694,-28.0486 73.89265,-57.2756 0,0 -6.18718,58.6898 -73.89265,57.2756 z"
         id="path3369"
         inkscape:connector-curvature="0"
         sodipodi:nodetypes="ccc" />
      <path
         inkscape:connector-curvature="0"
         style="fill:url(#linearGradient4677);fill-opacity:1;stroke:none"
         d="m 584.58722,793.14172 -7.8125,0.15625 10.65625,1.25 c -0.93725,-0.48914 -1.88166,-0.95974 -2.84375,-1.40625 z"
         id="path3371" />
      <path
         style="fill:#ffffff;fill-opacity:0.35714291;stroke:none;filter:url(#filter3927)"
         d="m 545.27603,746.87798 c 8.78365,1.18703 17.13839,2.8983 21.74353,9.19239 0,0 3.53554,-12.02081 -21.74353,-9.19239 z"
         id="path3373"
         inkscape:connector-curvature="0"
         sodipodi:nodetypes="ccc" />
      <path
         style="color:#000000;fill:url(#linearGradient4686);stroke:none;stroke-width:1px;marker:none;visibility:visible;display:inline;overflow:visible;enable-background:accumulate"
         d="m 490.73153,793.17565 c -10.53996,-3.54375 -24.15912,-1.49699 -36.25996,-0.66562 l -6.32054,3.65959 c 11.86797,-1.28322 32.48143,-6.13323 42.5805,-2.99397 z"
         id="path3361"
         sodipodi:nodetypes="cccc"
         inkscape:connector-curvature="0" />
      <path
         sodipodi:nodetypes="ssscccccccccccsccssssssssss"
         inkscape:connector-curvature="0"
         id="path4668"
         d="m 495.875,472.21875 c -14.299,-0.0624 -31.77366,1.4924 -44.5625,8.03125 -27.94182,14.28645 -46.72348,46.77247 -49.78125,84.71875 -1.2517,15.53337 10.80999,63.68462 4.06685,79.41862 l 18.87065,-7.60612 c 6.06674,2.86945 11.32223,7.56568 16.15989,13.20277 -1.01301,-2.70136 21.52955,-1.73381 24.93386,-4.98402 0.83851,0.29426 22.56956,6.40302 24.93315,9.74855 9.96607,-7.69132 18.1732,-8.34691 26.56685,-9.74855 5.80943,3.46576 8.59444,9.07273 17.57558,10.2144 7.28753,-4.42719 14.83741,-10.69088 21.36192,-9.7769 7.21963,7.44936 12.39208,8.75718 18.08502,11.62648 8.4764,-5.88127 16.10123,-11.8477 16.53998,-18.53273 0,0 33.2618,10.16382 39.75219,4.10612 -15.6782,-20.31481 32.50988,-109.25993 -36.72094,-162.48112 -10.76628,-8.27658 -51.5,-4.34375 -51.5,-4.34375 13.8155,15.39116 -44.97078,18.13181 -20.875,-1.84375 0,0 -11.10725,-1.68764 -25.40625,-1.75 z M 463.28125,524.625 c 13.84616,-0.33536 19.37482,11.84209 41.84375,11.125 28.76023,-0.91788 45.89459,-13.48257 59.96875,-8.28125 9.98292,3.68934 24.5,15.31612 24.5,25.71875 0,10.40264 1.51314,43.73183 -24.1875,44.34375 -17.43745,0.41518 -25.70126,-15.9077 -46.8125,-17.4375 -21.11123,-1.52979 -41.3812,3.29151 -51.09375,10.71875 -20.80528,15.90992 -65.10587,-41.0904 -18.34375,-62.40625 5.73406,-2.61379 10.24808,-3.68735 14.125,-3.78125 z"
         style="fill:url(#linearGradient4813);fill-opacity:1;stroke:none"
         transform="translate(0,308.26769)" />
      <path
         sodipodi:nodetypes="ccccccccccccccsssss"
         inkscape:connector-curvature="0"
         style="fill:url(#linearGradient4756);fill-opacity:1;stroke:none"
         d="m 658.92806,770.29894 -3.55935,-0.10167 -26.87815,18.50792 -30.34375,-16.0625 -3.00456,-0.004 20.28581,36.0036 -7.5625,20.6875 c 3.06856,1.12445 3.65589,2.39496 6.72571,4.59021 0.31425,0.22472 3.11642,-0.29014 3.43054,-0.0277 l 15.28125,-9.25 26.81716,16.03076 3.49534,0.0317 -17.28125,-36 z m -29.03125,27 c 3.82351,0 6.9375,3.91087 6.9375,8.75 0,4.83913 -3.11399,8.75 -6.9375,8.75 -3.82351,0 -6.90625,-3.91087 -6.90625,-8.75 0,-4.83913 3.08274,-8.75 6.90625,-8.75 z"
         id="path4752" />
      <path
         sodipodi:type="arc"
         style="fill:#ffffff;fill-opacity:0.3169643;stroke:none;filter:url(#filter3866)"
         id="path3367"
         sodipodi:cx="34.294678"
         sodipodi:cy="182.63766"
         sodipodi:rx="13.435029"
         sodipodi:ry="16.793787"
         d="m 47.729707,182.63766 c 0,9.27496 -6.015068,16.79379 -13.435029,16.79379 -7.419962,0 -13.435029,-7.51883 -13.435029,-16.79379 0,-9.27495 6.015067,-16.79378 13.435029,-16.79378 7.419961,0 13.435029,7.51883 13.435029,16.79378 z"
         transform="matrix(0.8027229,-0.59635219,0.65912613,0.88722009,284.40534,782.95046)" />
      <path
         style="color:#000000;fill:#ffffff;fill-opacity:0.3482143;stroke:none;stroke-width:1px;marker:none;visibility:visible;display:inline;overflow:visible;filter:url(#filter3912);enable-background:accumulate"
         d="M 10.967193,21.127777 C 13.51717,19.18096 18.053408,15.04991 22.869977,14.994464 22.410859,14.138013 13.05043,14.491453 10.967193,21.127777 z"
         id="path3365"
         transform="matrix(6.400115,0,0,6.400115,355.09489,692.14503)"
         sodipodi:nodetypes="ccc"
         inkscape:connector-curvature="0" />
      <path
         id="path4734"
         transform="translate(0,308.26769)"
         d="m 655.5625,462.03125 -30.4375,18.40625 -30.34375,-16.0625 17.28125,36 -7.5625,20.6875 c 3.38268,1.23956 6.77357,1.73644 10.15625,4.5625 l 15.28125,-9.25 30.3125,16.0625 -17.28125,-36 12.59375,-34.40625 z m -29.03125,27 c 3.82351,0 6.9375,3.91087 6.9375,8.75 0,4.83913 -3.11399,8.75 -6.9375,8.75 -3.82351,0 -6.90625,-3.91087 -6.90625,-8.75 0,-4.83913 3.08274,-8.75 6.90625,-8.75 z"
         style="fill:url(#linearGradient4750);fill-opacity:1;stroke:none"
         inkscape:connector-curvature="0" />
      <path
         inkscape:connector-curvature="0"
         id="path4758"
         d="m 620.151,842.52303 c 0,0 -7.76862,11.26454 -6.21491,21.7522 1.55373,10.48766 28.35553,10.48766 6.21491,-21.7522 z"
         style="fill:url(#radialGradient4762);fill-opacity:1;stroke:none" />
      <path
         transform="translate(0,308.26769)"
         inkscape:connector-curvature="0"
         id="path4764"
         d="m 613.5,475.71948 c 0,0 -18.25,-10.75 -17.625,-10.125 0.625,0.625 13,24.875 13,24.875 0,0 -13.25,-24 4.625,-14.75 z"
         style="fill:#ffffff;fill-opacity:0.85201793;stroke:none;filter:url(#filter4766)" />
      <path
         sodipodi:nodetypes="cccc"
         transform="translate(0,308.26769)"
         inkscape:connector-curvature="0"
         id="path4770"
         d="m 625.625,620.46948 c -0.49798,8.32636 -1.97036,17.50532 2.625,21.375 -12.81897,3.03884 -24.21018,-2.48892 -36.125,-4.875 0,0 33.625,-0.375 33.5,-16.5 z"
         style="fill:#000000;fill-opacity:0.40358743;stroke:none;filter:url(#filter4780)" />
    </g>
  </g>
</svg>
