<?xml version="1.0" encoding="UTF-8" standalone="no"?>
<!-- Created with Inkscape (http://www.inkscape.org/) -->

<svg
   xmlns:dc="http://purl.org/dc/elements/1.1/"
   xmlns:cc="http://creativecommons.org/ns#"
   xmlns:rdf="http://www.w3.org/1999/02/22-rdf-syntax-ns#"
   xmlns:svg="http://www.w3.org/2000/svg"
   xmlns="http://www.w3.org/2000/svg"
   xmlns:xlink="http://www.w3.org/1999/xlink"
   xmlns:sodipodi="http://sodipodi.sourceforge.net/DTD/sodipodi-0.dtd"
   xmlns:inkscape="http://www.inkscape.org/namespaces/inkscape"
   width="256"
   height="256"
   id="svg2"
   version="1.1"
   inkscape:version="0.48.4 r9939"
   sodipodi:docname="pumpkin-14.svg"
   inkscape:export-filename="pumpkins.png"
   inkscape:export-xdpi="299.96191"
   inkscape:export-ydpi="299.96191">
  <defs
     id="defs4">
    <linearGradient
       id="linearGradient3931">
      <stop
         style="stop-color:#5f6b21;stop-opacity:1;"
         offset="0"
         id="stop3933" />
      <stop
         style="stop-color:#39a905;stop-opacity:1;"
         offset="1"
         id="stop3935" />
    </linearGradient>
    <linearGradient
       id="linearGradient3701">
      <stop
         style="stop-color:#704608;stop-opacity:1;"
         offset="0"
         id="stop3703" />
      <stop
         style="stop-color:#ab8855;stop-opacity:1;"
         offset="1"
         id="stop3705" />
    </linearGradient>
    <linearGradient
       id="linearGradient3689">
      <stop
         style="stop-color:#fff690;stop-opacity:1;"
         offset="0"
         id="stop3691" />
      <stop
         style="stop-color:#f2ff00;stop-opacity:1;"
         offset="1"
         id="stop3693" />
    </linearGradient>
    <linearGradient
       id="linearGradient3669">
      <stop
         style="stop-color:#ffd73b;stop-opacity:1;"
         offset="0"
         id="stop3671" />
      <stop
         style="stop-color:#ee8400;stop-opacity:1;"
         offset="1"
         id="stop3673" />
    </linearGradient>
    <filter
       inkscape:collect="always"
       id="filter3641"
       x="-0.047149919"
       width="1.0942998"
       y="-0.29882854"
       height="1.5976571"
       color-interpolation-filters="sRGB">
      <feGaussianBlur
         inkscape:collect="always"
         stdDeviation="0.67728367"
         id="feGaussianBlur3643" />
    </filter>
    <filter
       inkscape:collect="always"
       id="filter3866"
       x="-0.29160413"
       width="1.5832083"
       y="-0.29436955"
       height="1.5887392"
       color-interpolation-filters="sRGB">
      <feGaussianBlur
         inkscape:collect="always"
         stdDeviation="3.7554505"
         id="feGaussianBlur3868" />
    </filter>
    <filter
       inkscape:collect="always"
       id="filter3900"
       x="-0.12988681"
       width="1.2597736"
       y="-0.16756999"
       height="1.33514"
       color-interpolation-filters="sRGB">
      <feGaussianBlur
         inkscape:collect="always"
         stdDeviation="3.9990335"
         id="feGaussianBlur3902" />
    </filter>
    <filter
       inkscape:collect="always"
       id="filter3912"
       x="-0.079064548"
       width="1.1581291"
       y="-0.14543517"
       height="1.2908703"
       color-interpolation-filters="sRGB">
      <feGaussianBlur
         inkscape:collect="always"
         stdDeviation="0.39212011"
         id="feGaussianBlur3914" />
    </filter>
    <filter
       inkscape:collect="always"
       id="filter3927"
       x="-0.12636624"
       width="1.2527325"
       y="-0.28773808"
       height="1.5754762"
       color-interpolation-filters="sRGB">
      <feGaussianBlur
         inkscape:collect="always"
         stdDeviation="1.1537473"
         id="feGaussianBlur3929" />
    </filter>
    <linearGradient
       inkscape:collect="always"
       xlink:href="#linearGradient3669"
       id="linearGradient3164"
       gradientUnits="userSpaceOnUse"
       gradientTransform="translate(99.73057,381.60252)"
       x1="183.125"
       y1="72.875"
       x2="192.25"
       y2="55.5" />
    <linearGradient
       inkscape:collect="always"
       xlink:href="#linearGradient3669"
       id="linearGradient3170"
       gradientUnits="userSpaceOnUse"
       gradientTransform="matrix(6.400115,0,0,6.400115,62.92574,346.07458)"
       x1="29.022875"
       y1="24.614502"
       x2="37.24147"
       y2="21.310812" />
    <linearGradient
       inkscape:collect="always"
       xlink:href="#linearGradient3669"
       id="linearGradient3173"
       gradientUnits="userSpaceOnUse"
       gradientTransform="matrix(6.400115,0,0,6.400115,56.17574,-6087.7091)"
       x1="22.383869"
       y1="1023.8843"
       x2="15.64438"
       y2="1017.5189" />
    <linearGradient
       inkscape:collect="always"
       xlink:href="#linearGradient3931"
       id="linearGradient3176"
       gradientUnits="userSpaceOnUse"
       gradientTransform="translate(99.73057,-414.75968)"
       x1="147.5"
       y1="843.86218"
       x2="119"
       y2="814.86218" />
    <linearGradient
       inkscape:collect="always"
       xlink:href="#linearGradient3669"
       id="linearGradient3179"
       gradientUnits="userSpaceOnUse"
       gradientTransform="matrix(6.400115,0,0,6.400115,62.92574,346.07458)"
       x1="24.367268"
       y1="29.051037"
       x2="31.867142"
       y2="29.106279" />
    <linearGradient
       inkscape:collect="always"
       xlink:href="#linearGradient3669"
       id="linearGradient3182"
       gradientUnits="userSpaceOnUse"
       gradientTransform="matrix(6.400115,0,0,6.400115,62.92574,346.07458)"
       x1="8.9686985"
       y1="25.84791"
       x2="17.828442"
       y2="29.798435" />
    <linearGradient
       inkscape:collect="always"
       xlink:href="#linearGradient3669"
       id="linearGradient3185"
       gradientUnits="userSpaceOnUse"
       gradientTransform="matrix(6.400115,0,0,6.400115,62.92574,37.80689)"
       x1="14.269864"
       y1="26.721092"
       x2="25.219465"
       y2="26.058191" />
    <radialGradient
       inkscape:collect="always"
       xlink:href="#linearGradient3689"
       id="radialGradient3191"
       gradientUnits="userSpaceOnUse"
       gradientTransform="matrix(2.7450413,4.3867121,-6.8694951,4.2987412,7149.4471,-3975.9057)"
       cx="27.844063"
       cy="1021.0861"
       fx="27.844063"
       fy="1021.0861"
       r="17.592218" />
    <radialGradient
       inkscape:collect="always"
       xlink:href="#linearGradient3669"
       id="radialGradient3203"
       gradientUnits="userSpaceOnUse"
       gradientTransform="matrix(2.5638659,5.7920643,-4.9198331,2.1778048,5167.0151,-2155.0838)"
       cx="17.360392"
       cy="1023.9149"
       fx="17.360392"
       fy="1023.9149"
       r="17.592218" />
    <linearGradient
       inkscape:collect="always"
       xlink:href="#linearGradient3669"
       id="linearGradient3260"
       gradientUnits="userSpaceOnUse"
       gradientTransform="translate(417.92892,381.60252)"
       x1="183.125"
       y1="72.875"
       x2="192.25"
       y2="55.5" />
    <linearGradient
       inkscape:collect="always"
       xlink:href="#linearGradient3669"
       id="linearGradient3266"
       gradientUnits="userSpaceOnUse"
       gradientTransform="matrix(6.400115,0,0,6.400115,381.12409,346.07458)"
       x1="29.022875"
       y1="24.614502"
       x2="37.24147"
       y2="21.310812" />
    <linearGradient
       inkscape:collect="always"
       xlink:href="#linearGradient3669"
       id="linearGradient3269"
       gradientUnits="userSpaceOnUse"
       gradientTransform="matrix(6.400115,0,0,6.400115,374.37409,-6087.7091)"
       x1="22.383869"
       y1="1023.8843"
       x2="15.64438"
       y2="1017.5189" />
    <linearGradient
       inkscape:collect="always"
       xlink:href="#linearGradient3931"
       id="linearGradient3272"
       gradientUnits="userSpaceOnUse"
       gradientTransform="translate(417.92892,-414.75968)"
       x1="147.5"
       y1="843.86218"
       x2="119"
       y2="814.86218" />
    <linearGradient
       inkscape:collect="always"
       xlink:href="#linearGradient3669"
       id="linearGradient3275"
       gradientUnits="userSpaceOnUse"
       gradientTransform="matrix(6.400115,0,0,6.400115,381.12409,37.80689)"
       x1="24.367268"
       y1="29.051037"
       x2="31.867142"
       y2="29.106279" />
    <linearGradient
       inkscape:collect="always"
       xlink:href="#linearGradient3669"
       id="linearGradient3278"
       gradientUnits="userSpaceOnUse"
       gradientTransform="matrix(6.400115,0,0,6.400115,381.12409,346.07458)"
       x1="8.9686985"
       y1="25.84791"
       x2="17.828442"
       y2="29.798435" />
    <linearGradient
       inkscape:collect="always"
       xlink:href="#linearGradient3669"
       id="linearGradient3281"
       gradientUnits="userSpaceOnUse"
       gradientTransform="matrix(6.400115,0,0,6.400115,381.12409,37.80689)"
       x1="14.269864"
       y1="26.721092"
       x2="25.219465"
       y2="26.058191" />
    <radialGradient
       inkscape:collect="always"
       xlink:href="#linearGradient3689"
       id="radialGradient3287"
       gradientUnits="userSpaceOnUse"
       gradientTransform="matrix(2.7450413,4.3867121,-6.8694951,4.2987412,7467.6454,-3975.9057)"
       cx="27.844063"
       cy="1021.0861"
       fx="27.844063"
       fy="1021.0861"
       r="17.592218" />
    <radialGradient
       inkscape:collect="always"
       xlink:href="#linearGradient3669"
       id="radialGradient3303"
       gradientUnits="userSpaceOnUse"
       gradientTransform="matrix(2.5638659,5.7920643,-4.9198331,2.1778048,5485.2134,-2155.0838)"
       cx="17.360392"
       cy="1023.9149"
       fx="17.360392"
       fy="1023.9149"
       r="17.592218" />
    <linearGradient
       inkscape:collect="always"
       xlink:href="#linearGradient3701"
       id="linearGradient3310"
       gradientUnits="userSpaceOnUse"
       x1="467.29291"
       y1="262.80151"
       x2="554.62439"
       y2="215.07179"
       gradientTransform="translate(0,308.26769)" />
    <linearGradient
       inkscape:collect="always"
       xlink:href="#linearGradient3701"
       id="linearGradient3316"
       gradientUnits="userSpaceOnUse"
       gradientTransform="translate(0,308.26769)"
       x1="168"
       y1="254.09448"
       x2="243.5"
       y2="184.59448" />
    <linearGradient
       inkscape:collect="always"
       xlink:href="#linearGradient3669"
       id="linearGradient3162"
       gradientUnits="userSpaceOnUse"
       gradientTransform="translate(736.1271,381.60252)"
       x1="183.125"
       y1="72.875"
       x2="192.25"
       y2="55.5" />
    <linearGradient
       inkscape:collect="always"
       xlink:href="#linearGradient3669"
       id="linearGradient3168"
       gradientUnits="userSpaceOnUse"
       gradientTransform="matrix(6.400115,0,0,6.400115,699.32227,346.07458)"
       x1="29.022875"
       y1="24.614502"
       x2="37.24147"
       y2="21.310812" />
    <linearGradient
       inkscape:collect="always"
       xlink:href="#linearGradient3669"
       id="linearGradient3171"
       gradientUnits="userSpaceOnUse"
       gradientTransform="matrix(6.400115,0,0,6.400115,692.57227,-6087.7091)"
       x1="22.383869"
       y1="1023.8843"
       x2="15.64438"
       y2="1017.5189" />
    <linearGradient
       inkscape:collect="always"
       xlink:href="#linearGradient3931"
       id="linearGradient3174"
       gradientUnits="userSpaceOnUse"
       gradientTransform="translate(736.1271,-414.75968)"
       x1="147.5"
       y1="843.86218"
       x2="119"
       y2="814.86218" />
    <linearGradient
       inkscape:collect="always"
       xlink:href="#linearGradient3669"
       id="linearGradient3177"
       gradientUnits="userSpaceOnUse"
       gradientTransform="matrix(6.400115,0,0,6.400115,699.32227,346.07458)"
       x1="24.367268"
       y1="29.051037"
       x2="31.867142"
       y2="29.106279" />
    <linearGradient
       inkscape:collect="always"
       xlink:href="#linearGradient3669"
       id="linearGradient3180"
       gradientUnits="userSpaceOnUse"
       gradientTransform="matrix(6.400115,0,0,6.400115,699.32227,346.07458)"
       x1="8.9686985"
       y1="25.84791"
       x2="17.828442"
       y2="29.798435" />
    <linearGradient
       inkscape:collect="always"
       xlink:href="#linearGradient3669"
       id="linearGradient3183"
       gradientUnits="userSpaceOnUse"
       gradientTransform="matrix(6.400115,0,0,6.400115,699.32227,37.80689)"
       x1="14.269864"
       y1="26.721092"
       x2="25.219465"
       y2="26.058191" />
    <radialGradient
       inkscape:collect="always"
       xlink:href="#linearGradient3689"
       id="radialGradient3189"
       gradientUnits="userSpaceOnUse"
       gradientTransform="matrix(2.7450413,4.3867121,-6.8694951,4.2987412,7785.8436,-3975.9057)"
       cx="27.844063"
       cy="1021.0861"
       fx="27.844063"
       fy="1021.0861"
       r="17.592218" />
    <radialGradient
       inkscape:collect="always"
       xlink:href="#linearGradient3669"
       id="radialGradient3205"
       gradientUnits="userSpaceOnUse"
       gradientTransform="matrix(2.5638659,5.7920643,-4.9198331,2.1778048,5803.4116,-2155.0838)"
       cx="17.360392"
       cy="1023.9149"
       fx="17.360392"
       fy="1023.9149"
       r="17.592218" />
    <linearGradient
       inkscape:collect="always"
       xlink:href="#linearGradient3701"
       id="linearGradient3212"
       gradientUnits="userSpaceOnUse"
       x1="788.22821"
       y1="271.68747"
       x2="869.25073"
       y2="216.61469"
       gradientTransform="translate(-3,308.26769)" />
    <linearGradient
       inkscape:collect="always"
       xlink:href="#linearGradient3669"
       id="linearGradient3252"
       gradientUnits="userSpaceOnUse"
       gradientTransform="translate(99.73057,721.82993)"
       x1="183.125"
       y1="72.875"
       x2="192.25"
       y2="55.5" />
    <linearGradient
       inkscape:collect="always"
       xlink:href="#linearGradient3669"
       id="linearGradient3258"
       gradientUnits="userSpaceOnUse"
       gradientTransform="matrix(6.400115,0,0,6.400115,62.92574,686.30199)"
       x1="29.022875"
       y1="24.614502"
       x2="37.24147"
       y2="21.310812" />
    <linearGradient
       inkscape:collect="always"
       xlink:href="#linearGradient3669"
       id="linearGradient3261"
       gradientUnits="userSpaceOnUse"
       gradientTransform="matrix(6.400115,0,0,6.400115,56.17574,-5747.4817)"
       x1="22.383869"
       y1="1023.8843"
       x2="15.64438"
       y2="1017.5189" />
    <linearGradient
       inkscape:collect="always"
       xlink:href="#linearGradient3931"
       id="linearGradient3264"
       gradientUnits="userSpaceOnUse"
       gradientTransform="translate(99.73057,-74.53227)"
       x1="147.5"
       y1="843.86218"
       x2="119"
       y2="814.86218" />
    <linearGradient
       inkscape:collect="always"
       xlink:href="#linearGradient3669"
       id="linearGradient3267"
       gradientUnits="userSpaceOnUse"
       gradientTransform="matrix(6.400115,0,0,6.400115,62.92574,686.30199)"
       x1="24.367268"
       y1="29.051037"
       x2="31.867142"
       y2="29.106279" />
    <linearGradient
       inkscape:collect="always"
       xlink:href="#linearGradient3669"
       id="linearGradient3270"
       gradientUnits="userSpaceOnUse"
       gradientTransform="matrix(6.400115,0,0,6.400115,62.92574,686.30199)"
       x1="8.9686985"
       y1="25.84791"
       x2="17.828442"
       y2="29.798435" />
    <linearGradient
       inkscape:collect="always"
       xlink:href="#linearGradient3669"
       id="linearGradient3273"
       gradientUnits="userSpaceOnUse"
       gradientTransform="matrix(6.400115,0,0,6.400115,62.92574,378.0343)"
       x1="14.269864"
       y1="26.721092"
       x2="25.219465"
       y2="26.058191" />
    <radialGradient
       inkscape:collect="always"
       xlink:href="#linearGradient3689"
       id="radialGradient3279"
       gradientUnits="userSpaceOnUse"
       gradientTransform="matrix(2.7450413,4.3867121,-6.8694951,4.2987412,7149.4471,-3635.6783)"
       cx="27.844063"
       cy="1021.0861"
       fx="27.844063"
       fy="1021.0861"
       r="17.592218" />
    <radialGradient
       inkscape:collect="always"
       xlink:href="#linearGradient3669"
       id="radialGradient3291"
       gradientUnits="userSpaceOnUse"
       gradientTransform="matrix(2.5638659,5.7920643,-4.9198331,2.1778048,5167.0151,-1814.8564)"
       cx="17.360392"
       cy="1023.9149"
       fx="17.360392"
       fy="1023.9149"
       r="17.592218" />
    <linearGradient
       inkscape:collect="always"
       xlink:href="#linearGradient3701"
       id="linearGradient3298"
       x1="161.88681"
       y1="913.05573"
       x2="225.043"
       y2="839.87018"
       gradientUnits="userSpaceOnUse" />
    <linearGradient
       inkscape:collect="always"
       xlink:href="#linearGradient3669"
       id="linearGradient3332"
       gradientUnits="userSpaceOnUse"
       gradientTransform="translate(647.92892,749.82993)"
       x1="183.125"
       y1="72.875"
       x2="192.25"
       y2="55.5" />
    <linearGradient
       inkscape:collect="always"
       xlink:href="#linearGradient3669"
       id="linearGradient3338"
       gradientUnits="userSpaceOnUse"
       gradientTransform="matrix(6.400115,0,0,6.400115,611.12409,714.30199)"
       x1="29.022875"
       y1="24.614502"
       x2="37.24147"
       y2="21.310812" />
    <linearGradient
       inkscape:collect="always"
       xlink:href="#linearGradient3669"
       id="linearGradient3341"
       gradientUnits="userSpaceOnUse"
       gradientTransform="matrix(6.400115,0,0,6.400115,604.37409,-5719.4817)"
       x1="22.383869"
       y1="1023.8843"
       x2="15.64438"
       y2="1017.5189" />
    <linearGradient
       inkscape:collect="always"
       xlink:href="#linearGradient3931"
       id="linearGradient3344"
       gradientUnits="userSpaceOnUse"
       gradientTransform="translate(647.92892,-46.53227)"
       x1="147.5"
       y1="843.86218"
       x2="119"
       y2="814.86218" />
    <linearGradient
       inkscape:collect="always"
       xlink:href="#linearGradient3669"
       id="linearGradient3347"
       gradientUnits="userSpaceOnUse"
       gradientTransform="matrix(6.400115,0,0,6.400115,611.12409,714.30199)"
       x1="24.367268"
       y1="29.051037"
       x2="31.867142"
       y2="29.106279" />
    <linearGradient
       inkscape:collect="always"
       xlink:href="#linearGradient3669"
       id="linearGradient3350"
       gradientUnits="userSpaceOnUse"
       gradientTransform="matrix(6.400115,0,0,6.400115,611.12409,714.30199)"
       x1="8.9686985"
       y1="25.84791"
       x2="17.828442"
       y2="29.798435" />
    <linearGradient
       inkscape:collect="always"
       xlink:href="#linearGradient3669"
       id="linearGradient3353"
       gradientUnits="userSpaceOnUse"
       gradientTransform="matrix(6.400115,0,0,6.400115,611.12409,714.30199)"
       x1="14.269864"
       y1="26.721092"
       x2="25.219465"
       y2="26.058191" />
    <radialGradient
       inkscape:collect="always"
       xlink:href="#linearGradient3689"
       id="radialGradient3359"
       gradientUnits="userSpaceOnUse"
       gradientTransform="matrix(2.7450413,4.3867121,-6.8694951,4.2987412,7697.6454,-3607.6783)"
       cx="27.844063"
       cy="1021.0861"
       fx="27.844063"
       fy="1021.0861"
       r="17.592218" />
    <radialGradient
       inkscape:collect="always"
       xlink:href="#linearGradient3669"
       id="radialGradient3389"
       gradientUnits="userSpaceOnUse"
       gradientTransform="matrix(2.5638659,5.7920643,-4.9198331,2.1778048,5715.2134,-1478.5887)"
       cx="17.360392"
       cy="1023.9149"
       fx="17.360392"
       fy="1023.9149"
       r="17.592218" />
    <linearGradient
       inkscape:collect="always"
       xlink:href="#linearGradient3701"
       id="linearGradient3396"
       gradientUnits="userSpaceOnUse"
       x1="453.88791"
       y1="614.11292"
       x2="546.17651"
       y2="564.36292"
       gradientTransform="translate(228.75,337.01769)" />
    <linearGradient
       inkscape:collect="always"
       xlink:href="#linearGradient3669"
       id="linearGradient3175"
       gradientUnits="userSpaceOnUse"
       gradientTransform="translate(736.1271,721.82993)"
       x1="183.125"
       y1="72.875"
       x2="192.25"
       y2="55.5" />
    <linearGradient
       inkscape:collect="always"
       xlink:href="#linearGradient3669"
       id="linearGradient3181"
       gradientUnits="userSpaceOnUse"
       gradientTransform="matrix(6.400115,0,0,6.400115,699.32227,686.30199)"
       x1="29.022875"
       y1="24.614502"
       x2="37.24147"
       y2="21.310812" />
    <linearGradient
       inkscape:collect="always"
       xlink:href="#linearGradient3669"
       id="linearGradient3184"
       gradientUnits="userSpaceOnUse"
       gradientTransform="matrix(6.400115,0,0,6.400115,692.57227,-5747.4817)"
       x1="22.383869"
       y1="1023.8843"
       x2="15.64438"
       y2="1017.5189" />
    <linearGradient
       inkscape:collect="always"
       xlink:href="#linearGradient3931"
       id="linearGradient3187"
       gradientUnits="userSpaceOnUse"
       gradientTransform="translate(736.1271,-74.53227)"
       x1="147.5"
       y1="843.86218"
       x2="119"
       y2="814.86218" />
    <linearGradient
       inkscape:collect="always"
       xlink:href="#linearGradient3669"
       id="linearGradient3190"
       gradientUnits="userSpaceOnUse"
       gradientTransform="matrix(6.400115,0,0,6.400115,699.32227,686.30199)"
       x1="24.367268"
       y1="29.051037"
       x2="31.867142"
       y2="29.106279" />
    <linearGradient
       inkscape:collect="always"
       xlink:href="#linearGradient3669"
       id="linearGradient3193"
       gradientUnits="userSpaceOnUse"
       gradientTransform="matrix(6.400115,0,0,6.400115,699.32227,686.30199)"
       x1="8.9686985"
       y1="25.84791"
       x2="17.828442"
       y2="29.798435" />
    <radialGradient
       inkscape:collect="always"
       xlink:href="#linearGradient3689"
       id="radialGradient3202"
       gradientUnits="userSpaceOnUse"
       gradientTransform="matrix(2.7450413,4.3867121,-6.8694951,4.2987412,7785.8436,-3635.6783)"
       cx="27.844063"
       cy="1021.0861"
       fx="27.844063"
       fy="1021.0861"
       r="17.592218" />
    <linearGradient
       inkscape:collect="always"
       xlink:href="#linearGradient3669"
       id="linearGradient3240"
       gradientUnits="userSpaceOnUse"
       gradientTransform="matrix(6.400115,0,0,6.400115,699.32227,378.0343)"
       x1="14.269864"
       y1="26.721092"
       x2="25.219465"
       y2="26.058191" />
    <radialGradient
       inkscape:collect="always"
       xlink:href="#linearGradient3669"
       id="radialGradient3243"
       gradientUnits="userSpaceOnUse"
       gradientTransform="matrix(2.5638659,5.7920643,-4.9198331,2.1778048,5803.4116,-1814.8564)"
       cx="17.360392"
       cy="1023.9149"
       fx="17.360392"
       fy="1023.9149"
       r="17.592218" />
    <linearGradient
       inkscape:collect="always"
       xlink:href="#linearGradient3701"
       id="linearGradient3250"
       gradientUnits="userSpaceOnUse"
       x1="777.33038"
       y1="633.50214"
       x2="860.79395"
       y2="559.96307"
       gradientTransform="translate(-1,308.26769)" />
  </defs>
  <sodipodi:namedview
     id="base"
     pagecolor="#ffffff"
     bordercolor="#666666"
     borderopacity="1.0"
     inkscape:pageopacity="0.0"
     inkscape:pageshadow="2"
     inkscape:zoom="0.5"
     inkscape:cx="308.80287"
     inkscape:cy="152.94431"
     inkscape:document-units="px"
     inkscape:current-layer="layer1"
     showgrid="false"
     inkscape:window-width="1393"
     inkscape:window-height="826"
     inkscape:window-x="22"
     inkscape:window-y="24"
     inkscape:window-maximized="0"
     showguides="true"
     inkscape:guide-bbox="true">
    <inkscape:grid
       type="xygrid"
       id="grid2837"
       empspacing="5"
       visible="true"
       enabled="true"
       snapvisiblegridlinesonly="true" />
  </sodipodi:namedview>
  <metadata
     id="metadata7">
    <rdf:RDF>
      <cc:Work
         rdf:about="">
        <dc:format>image/svg+xml</dc:format>
        <dc:type
           rdf:resource="http://purl.org/dc/dcmitype/StillImage" />
        <dc:title></dc:title>
      </cc:Work>
    </rdf:RDF>
  </metadata>
  <g
     inkscape:label="Layer 1"
     inkscape:groupmode="layer"
     id="layer1"
     transform="translate(0,-796.3622)">
    <g
       id="g3318"
       transform="translate(-413.37672,408.95873)">
      <path
         transform="matrix(5.7450926,0,0,7.0920193,397.59294,325.50205)"
         d="m 40.943338,39.252682 c 0,1.502079 -7.717431,2.719755 -17.237365,2.719755 -9.519935,0 -17.2373661,-1.217676 -17.2373661,-2.719755 0,-1.502079 7.7174311,-2.719755 17.2373661,-2.719755 9.519934,0 17.237365,1.217676 17.237365,2.719755 z"
         sodipodi:ry="2.7197549"
         sodipodi:rx="17.237366"
         sodipodi:cy="39.252682"
         sodipodi:cx="23.705973"
         id="path3221"
         style="fill:#000000;fill-opacity:0.76862745;fill-rule:evenodd;stroke:none;filter:url(#filter3641)"
         sodipodi:type="arc" />
      <path
         style="color:#000000;fill:url(#radialGradient3287);fill-opacity:1;stroke:none;stroke-width:1px;marker:none;visibility:visible;display:inline;overflow:visible;enable-background:accumulate"
         d="m 436.72512,490.27723 c -7.99112,18.16867 -12.56366,50.95749 -6.30023,75.30139 11.27654,43.8282 68.20092,52.4007 86.90127,47.8008 39.71639,5.0451 82.80195,6.5 107.5023,-15.2004 20.39909,-17.9215 26.94109,-38.9852 26.60046,-67.101 -0.85637,-70.68638 -45.60046,-103.6016 -103.90184,-89.00171 -45.20092,-15.90012 -88.63602,-2.19571 -110.80196,48.20092 z"
         id="path3223"
         sodipodi:nodetypes="sscsscs"
         inkscape:connector-curvature="0" />
      <path
         inkscape:connector-curvature="0"
         id="path3298"
         d="m 479.5,492.45519 c -16.42726,19.71642 -17.25465,52.14653 1.59375,70.5625 16.24029,16.88148 44.80166,17.53102 63.21875,3.71875 7.00865,-4.94131 13.73165,-11.94505 17.15625,-19.3125 -0.95195,0.49561 -3.01762,-2.24693 -4.65625,-3.40625 -2.29442,-2.4951 -9.20792,-1.38711 -7.75,-6.25 0.12084,-3.29743 -1.56733,-2.26674 -2.875,-0.71875 -3.85589,1.0986 -3.0663,7.04909 -2.03125,9.71875 3.74173,1.7476 8.31515,0.91742 11.65625,3.28125 3.04645,-0.0237 -0.40407,2.65793 -1.125,3.3125 -15.67294,17.03334 -44.38128,22.23289 -63.46875,7.6875 -7.90526,-5.36205 -13.05767,-14.30359 -16.6875,-22.65625 -1.41645,-1.71313 -5.03279,-0.15995 -4.875,-3.1875 -0.91624,-4.29502 2.79781,-6.58168 5.84375,-8.34375 2.05083,-3.5577 7.51172,-10.39063 0.40625,-5.25 -1.44619,-0.26229 -3.9738,4.63534 -3.375,1.3125 -0.23638,-10.78153 3.71784,-21.0547 8.78496,-30.29405 1.03848,-2.39786 -0.79818,-0.70374 -1.81621,-0.1747 z m 67.21875,2.25 c -5.44673,0.42709 -8.09571,5.85474 -9.84375,10.34375 2.53769,-2.52237 8.73562,-5.72317 10.375,-0.5625 2.48883,5.06634 1.09253,11.22442 1.34375,16.75 -1.31842,3.79998 -0.80266,8.16905 -1.1875,11.5625 0.60271,3.61665 4.09456,0.49012 6.1875,-0.8125 0.49633,-4.3774 -1.45888,-10.06355 0.4375,-14.8125 0.0816,-5.78524 0.95691,-12.05983 -0.96875,-17.59375 -1.19165,-2.60823 -3.03402,-5.37771 -6.34375,-4.875 z m -55.6875,2.09375 c -3.50238,1.291 -4.75238,3.80559 -3.84375,7.40625 0.73974,2.56079 2.56989,-1.26981 4.71875,1.625 2.68594,-0.0233 4.41838,2.28771 5.625,4.1875 8.98959,0.45209 17.99541,5.32163 27.28125,2.75 2.87612,-0.81632 6.75958,-1.25867 8.625,1.5 2.78324,-0.53924 1.51769,-5.71573 3.71875,-7.6875 -5.63207,-3.603 -12.46882,1.45071 -18.65625,-0.21875 -5.42628,-1.43594 -11.23178,-2.37148 -16.5625,-3.3125 -1.37019,-4.07092 -6.01362,-3.12751 -8.46875,-5.9375 -0.74798,-0.36604 -1.61002,-0.47486 -2.4375,-0.3125 z m 9.4375,12.5 c 1.17895,0.28192 -1.97793,1.74976 0,0 z m -3.875,2.96875 c -2.97046,0.55841 -3.64185,6.52632 0,4.625 -1.13677,2.65565 -2.47581,2.42572 -3.5,4.28125 -3.17196,-0.34452 -6.7061,1.80082 -6.59375,5.3125 5.46959,-0.771 10.16054,-5.34823 16.0625,-4.84375 6.24643,-0.77386 11.29058,3.12953 16.625,5.09375 3.80872,-1.25186 6.29435,-5.62113 6.65625,-9.5 -1.65512,2.1773 -3.85612,3.53736 -6.03125,1.21875 -6.4759,-0.29595 -12.91999,-4.4005 -19.34375,-2.9375 0.0399,-1.74746 0.16409,-1.32065 -1.625,-2.65625 -0.74614,-0.2001 -1.40583,-0.81589 -2.25,-0.59375 z"
         style="fill:url(#linearGradient3310);fill-opacity:1;stroke:none" />
      <path
         id="path3225"
         transform="translate(0,308.26769)"
         d="m 511.25,127.5625 c -31.08166,0.59588 -58.42631,17.85245 -74.53125,54.46875 -7.99112,18.16867 -12.54468,50.93725 -6.28125,75.28125 11.27653,43.8282 68.20591,52.4124 86.90625,47.8125 39.71639,5.0451 82.79965,6.48165 107.5,-15.21875 20.39909,-17.9215 26.93438,-38.97795 26.59375,-67.09375 -0.85637,-70.68644 -45.60487,-103.59989 -103.90625,-89 -11.30023,-3.97503 -22.47524,-6.08628 -33.25,-6.25 -1.01013,-0.0153 -2.02862,-0.0192 -3.03125,0 z m 9.34375,36.375 c 0.85541,-0.027 1.69083,-0.0206 2.53125,0 25.2128,0.62029 44.875,20.99125 44.875,47.65625 0,12.21768 -4.13003,23.77453 -11.03125,33.15625 -1.2696,-0.44731 -2.33191,-1.33977 -3.25,-2.34375 -1.30406,-1.30499 -2.92194,-2.25826 -4.75,-2.59375 -1.56716,-0.59379 -3.45362,-1.15807 -4.5,-2.46875 -0.13174,-2.19012 0.20382,-4.37957 0.375,-6.5625 0.77425,-1.09295 2.79723,-0.95508 3.09375,-2.4375 0.52109,0.36224 0.63947,0.30504 1.0625,-0.125 1.10319,-0.66362 -1.2058,-0.25157 -0.1875,-1.28125 1.01169,-1.71939 -0.1703,-3.5277 -0.25,-5.25 0.57292,-1.94955 -0.21182,-3.95371 0.28125,-5.90625 1.22024,-2.74089 0.95969,-5.80766 0.84375,-8.71875 -0.34658,-3.44884 0.60325,-7.1639 -1.0625,-10.375 -0.45095,-1.04155 -1.89066,-3.31257 -2.25,-3.4375 -1.55436,-1.37134 -3.84989,-0.94195 -5.59375,-0.15625 -1.67503,0.61725 -2.75143,2.01041 -3.78125,3.375 -1.4374,2.64268 -2.82854,5.46124 -3.125,8.5 -0.30437,0.56516 -1.19437,-1.7068 -2.125,-1.6875 -2.17068,-0.5298 -4.47746,-0.37438 -6.65625,0.0625 -3.08459,0.99887 -6.36757,0.97858 -9.5625,0.71875 -3.43471,-0.10706 -6.53868,-1.79871 -9.9375,-2.125 -2.62658,-0.36358 -5.24995,-0.57742 -7.84375,-1.15625 -0.54576,-1.75267 -2.00536,-3.13735 -3.65625,-3.875 -1.72661,0.3134 -3.02007,-1.01366 -4.375,-2.09375 -1.33323,-0.85577 -3.33255,-0.23717 -4.03125,1.09375 -2.15076,0.73248 -0.82634,3.6003 -1.0625,5.3125 -1.12942,2.11213 -2.21624,4.27883 -3.34375,6.40625 -0.66466,1.49838 -1.89627,3.0068 -2.65625,4.21875 -1.42121,2.00407 -2.69168,4.12182 -3.96875,6.21875 -1.42076,1.15984 -3.38861,1.65293 -4.5625,3.15625 -1.39374,1.64415 -2.26004,6.51644 -0.46875,8.21875 1.17513,1.11858 2.63746,-0.15235 3.5,1.1875 0.69739,0.41501 1.5209,0.5304 2.3125,0.625 5.25278,0.11989 10.40488,1.37536 15.5625,2.25 6.03784,0.99278 12.03359,2.07632 18.0625,3.125 1.60753,0.3368 3.34813,0.12039 4.75,-0.65625 4.14277,-0.92179 8.47539,-0.57853 12.5625,-1.84375 2.26296,-0.57981 4.20487,-1.92892 6.3125,-2.84375 1.34902,-0.0928 2.04878,2.01832 3.9375,1.65625 2.08283,-0.90051 1.7926,1.11875 1.75,2.5625 0.10774,2.34792 -0.36122,5.26701 1.6875,6.9375 2.2844,0.45964 4.545,1.19624 6.875,1.53125 1.6855,0.31015 3.34096,-0.0231 4.53125,1.4375 1.32795,0.62002 2.8558,0.53096 4.28125,0.90625 -9.16733,11.60654 -22.67092,19.57492 -37.75,20.78125 -27.61424,2.20914 -50,-19.05734 -50,-47.5 0,-28.44266 22.38576,-53.29086 50,-55.5 0.86294,-0.069 1.73834,-0.12928 2.59375,-0.15625 z M 487.25,194.8125 c 0.48954,-0.0454 1.1426,0.29495 1.0625,1.09375 l -1.125,0.15625 c -0.73031,-0.76238 -0.42704,-1.2046 0.0625,-1.25 z m 9.71875,10.15625 c 0.28429,0.0101 0.60254,0.12515 0.9375,0.40625 2.5389,0.43993 -0.83437,1.79822 -1.78125,2.375 -0.37364,0.15225 -0.78435,0.28417 -1.1875,0.15625 0.0621,-0.87364 0.79933,-2.9812 2.03125,-2.9375 z m 3.375,1.28125 c 4.10175,1.89236 8.53965,2.78394 12.9375,3.6875 3.57205,0.60327 7.18671,1.93802 10.84375,1.28125 0.74531,0.3326 -0.89273,2.43979 -1.375,3.125 -1.20259,1.16015 -2.17588,3.27155 -4.09375,3.15625 -2.40329,-1.12431 -4.57002,-2.73873 -7.0625,-3.6875 -5.16897,-1.73653 -10.97964,-2.04795 -16.125,-0.0625 -2.28848,0.58727 -4.32679,1.76901 -6.40625,2.84375 -0.22486,0.0271 -1.6367,0.82445 -1.5625,0.59375 0.88332,-1.06784 1.34794,-2.75634 2.875,-3 1.17907,-0.0344 3.4149,0.24975 3.71875,-1.0625 0.69107,1.06109 1.39922,-1.14017 2.125,-2.15625 1.21247,-1.64766 2.37626,-3.79218 4.125,-4.71875 z m 47.9375,17.09375 c 0.0423,0.035 0.10559,0.23512 0.21875,0.6875 l 0.0625,0.375 c -0.25885,0.14037 -0.40816,-1.16762 -0.28125,-1.0625 z"
         style="color:#000000;fill:url(#radialGradient3303);fill-opacity:1;stroke:none;stroke-width:1px;marker:none;visibility:visible;display:inline;overflow:visible;enable-background:accumulate"
         inkscape:connector-curvature="0" />
      <path
         id="path3227"
         transform="translate(0,308.26769)"
         d="m 528.15625,157.40625 c -0.72636,2.30985 -1.3793,4.48905 -2.0625,6.71875 0.60729,0.0532 1.21278,0.11138 1.8125,0.1875 0.50654,-3.66995 0.63614,-6.13396 0.25,-6.90625 z m -13.21875,46.625 c -0.49967,2.00153 -1.00351,3.9999 -1.46875,5.9375 1.53749,0.27009 3.07175,0.66215 4.625,0.96875 0.53426,-2.2565 1.08115,-4.51629 1.59375,-6.71875 -1.38642,0.0394 -2.77961,-0.0443 -4.15625,-0.15625 -0.19866,-0.006 -0.39718,-0.015 -0.59375,-0.0312 z m -2.46875,10.15625 c -1.82207,7.81293 -3.38699,15.16907 -4.78125,22.1875 0.45902,0.0803 0.91563,0.1701 1.375,0.25 0.9139,0.19147 1.86803,0.19866 2.78125,0.0312 1.6601,-6.70558 3.3193,-13.37249 4.9375,-20.125 -1.42423,-0.80049 -2.82426,-1.67189 -4.3125,-2.34375 z M 502.3125,265.75 c -1.5398,8.92388 -3.03242,17.77722 -4.75,27.03125 0,0 2.92018,-11.1854 6.84375,-26.53125 -0.70587,-0.14844 -1.40092,-0.31978 -2.09375,-0.5 z"
         style="color:#000000;fill:url(#linearGradient3281);stroke:none;stroke-width:1px;marker:none;visibility:visible;display:inline;overflow:visible;enable-background:accumulate"
         inkscape:connector-curvature="0" />
      <path
         inkscape:connector-curvature="0"
         sodipodi:nodetypes="ccc"
         id="path3229"
         d="m 515.85147,458.34123 c -70.24534,28.45826 -77.24764,111.47419 -71.52195,131.06809 0.3734,-34.7736 16.09971,-106.42957 71.52195,-131.06809 z"
         style="color:#000000;fill:url(#linearGradient3278);stroke:none;stroke-width:1px;marker:none;visibility:visible;display:inline;overflow:visible;enable-background:accumulate" />
      <path
         id="path3231"
         transform="translate(0,308.26769)"
         d="m 554.40625,158.25 c 0.51445,3.247 2.12604,12.19659 4.09375,23.90625 5.97559,8.01095 9.5,18.15055 9.5,29.4375 0,5.72704 -0.91875,11.31308 -2.59375,16.59375 3.15394,24.86595 5.00566,49.16344 2,59.59375 10.91644,-33.0765 0.51005,-106.19606 -13,-129.53125 z"
         style="color:#000000;fill:url(#linearGradient3275);stroke:none;stroke-width:1px;marker:none;visibility:visible;display:inline;overflow:visible;enable-background:accumulate"
         inkscape:connector-curvature="0" />
      <path
         inkscape:connector-curvature="0"
         sodipodi:nodetypes="ccccc"
         id="path3233"
         d="m 541.7718,443.63126 c 7.5448,-25.60621 12.22058,-33.50115 24.4705,-44.62379 13.03995,-3.42731 25.49405,-1.2867 23.917,10.94052 -22.55759,17.61773 -16.34636,15.16693 -34.57313,37.42098 -6.27329,1.26779 -12.54658,2.53558 -13.81437,-3.73771 z"
         style="color:#000000;fill:url(#linearGradient3272);fill-opacity:1;stroke:none;stroke-width:1px;marker:none;visibility:visible;display:inline;overflow:visible;enable-background:accumulate" />
      <path
         inkscape:connector-curvature="0"
         sodipodi:nodetypes="cccc"
         id="path3235"
         d="m 512.76073,445.6052 c -10.53996,-3.54375 -24.15912,-1.49699 -36.25996,-0.66562 l -6.32054,3.65959 c 11.86797,-1.28322 32.48143,-6.13323 42.5805,-2.99397 z"
         style="color:#000000;fill:url(#linearGradient3269);stroke:none;stroke-width:1px;marker:none;visibility:visible;display:inline;overflow:visible;enable-background:accumulate" />
      <path
         inkscape:connector-curvature="0"
         sodipodi:nodetypes="ccc"
         id="path3237"
         d="m 587.37994,462.5003 c 21.98074,17.71163 39.52098,90.72082 37.74632,118.12672 11.10824,-41.2711 -13.07365,-104.9165 -37.74632,-118.12672 z"
         style="color:#000000;fill:url(#linearGradient3266);stroke:none;stroke-width:1px;marker:none;visibility:visible;display:inline;overflow:visible;enable-background:accumulate" />
      <path
         inkscape:connector-curvature="0"
         sodipodi:nodetypes="ccc"
         transform="matrix(6.400115,0,0,6.400115,377.12409,344.57458)"
         id="path3239"
         d="M 10.967193,21.127777 C 13.51717,19.18096 18.053408,15.04991 22.869977,14.994464 22.410859,14.138013 13.05043,14.491453 10.967193,21.127777 z"
         style="color:#000000;fill:#ffffff;fill-opacity:0.3482143;stroke:none;stroke-width:1px;marker:none;visibility:visible;display:inline;overflow:visible;filter:url(#filter3912);enable-background:accumulate" />
      <path
         transform="matrix(0.8027229,-0.59635219,0.65912613,0.88722009,306.43454,435.38001)"
         d="m 47.729707,182.63766 c 0,9.27496 -6.015068,16.79379 -13.435029,16.79379 -7.419962,0 -13.435029,-7.51883 -13.435029,-16.79379 0,-9.27495 6.015067,-16.79378 13.435029,-16.79378 7.419961,0 13.435029,7.51883 13.435029,16.79378 z"
         sodipodi:ry="16.793787"
         sodipodi:rx="13.435029"
         sodipodi:cy="182.63766"
         sodipodi:cx="34.294678"
         id="path3241"
         style="fill:#ffffff;fill-opacity:0.3169643;stroke:none;filter:url(#filter3866)"
         sodipodi:type="arc" />
      <path
         sodipodi:nodetypes="ccc"
         inkscape:connector-curvature="0"
         id="path3243"
         d="m 573.84597,614.62152 c 28.24198,-13.9481 54.14694,-28.0486 73.89265,-57.2756 0,0 -6.18718,58.6898 -73.89265,57.2756 z"
         style="fill:#000000;fill-opacity:0.19642855;stroke:none;filter:url(#filter3900)" />
      <path
         id="path3245"
         d="m 606.61642,445.57127 -7.8125,0.15625 10.65625,1.25 c -0.93725,-0.48914 -1.88166,-0.95974 -2.84375,-1.40625 z"
         style="fill:url(#linearGradient3260);fill-opacity:1;stroke:none"
         inkscape:connector-curvature="0" />
      <path
         sodipodi:nodetypes="ccc"
         inkscape:connector-curvature="0"
         id="path3247"
         d="m 567.30523,399.30753 c 8.78365,1.18703 17.13839,2.8983 21.74353,9.19239 0,0 3.53554,-12.02081 -21.74353,-9.19239 z"
         style="fill:#ffffff;fill-opacity:0.35714291;stroke:none;filter:url(#filter3927)" />
    </g>
  </g>
</svg>
