<?xml version="1.0" encoding="UTF-8" standalone="no"?>
<!-- Created with Inkscape (http://www.inkscape.org/) -->

<svg
   xmlns:dc="http://purl.org/dc/elements/1.1/"
   xmlns:cc="http://creativecommons.org/ns#"
   xmlns:rdf="http://www.w3.org/1999/02/22-rdf-syntax-ns#"
   xmlns:svg="http://www.w3.org/2000/svg"
   xmlns="http://www.w3.org/2000/svg"
   xmlns:xlink="http://www.w3.org/1999/xlink"
   xmlns:sodipodi="http://sodipodi.sourceforge.net/DTD/sodipodi-0.dtd"
   xmlns:inkscape="http://www.inkscape.org/namespaces/inkscape"
   width="256"
   height="256"
   id="svg2"
   version="1.1"
   inkscape:version="0.48.4 r9939"
   sodipodi:docname="pumpkin-17.svg"
   inkscape:export-filename="pumpkins.png"
   inkscape:export-xdpi="299.96191"
   inkscape:export-ydpi="299.96191">
  <defs
     id="defs4">
    <linearGradient
       id="linearGradient3931">
      <stop
         style="stop-color:#5f6b21;stop-opacity:1;"
         offset="0"
         id="stop3933" />
      <stop
         style="stop-color:#39a905;stop-opacity:1;"
         offset="1"
         id="stop3935" />
    </linearGradient>
    <linearGradient
       id="linearGradient3701">
      <stop
         style="stop-color:#704608;stop-opacity:1;"
         offset="0"
         id="stop3703" />
      <stop
         style="stop-color:#ab8855;stop-opacity:1;"
         offset="1"
         id="stop3705" />
    </linearGradient>
    <linearGradient
       id="linearGradient3689">
      <stop
         style="stop-color:#fff690;stop-opacity:1;"
         offset="0"
         id="stop3691" />
      <stop
         style="stop-color:#f2ff00;stop-opacity:1;"
         offset="1"
         id="stop3693" />
    </linearGradient>
    <linearGradient
       id="linearGradient3669">
      <stop
         style="stop-color:#ffd73b;stop-opacity:1;"
         offset="0"
         id="stop3671" />
      <stop
         style="stop-color:#ee8400;stop-opacity:1;"
         offset="1"
         id="stop3673" />
    </linearGradient>
    <filter
       inkscape:collect="always"
       id="filter3641"
       x="-0.047149919"
       width="1.0942998"
       y="-0.29882854"
       height="1.5976571"
       color-interpolation-filters="sRGB">
      <feGaussianBlur
         inkscape:collect="always"
         stdDeviation="0.67728367"
         id="feGaussianBlur3643" />
    </filter>
    <filter
       inkscape:collect="always"
       id="filter3866"
       x="-0.29160413"
       width="1.5832083"
       y="-0.29436955"
       height="1.5887392"
       color-interpolation-filters="sRGB">
      <feGaussianBlur
         inkscape:collect="always"
         stdDeviation="3.7554505"
         id="feGaussianBlur3868" />
    </filter>
    <filter
       inkscape:collect="always"
       id="filter3900"
       x="-0.12988681"
       width="1.2597736"
       y="-0.16756999"
       height="1.33514"
       color-interpolation-filters="sRGB">
      <feGaussianBlur
         inkscape:collect="always"
         stdDeviation="3.9990335"
         id="feGaussianBlur3902" />
    </filter>
    <filter
       inkscape:collect="always"
       id="filter3912"
       x="-0.079064548"
       width="1.1581291"
       y="-0.14543517"
       height="1.2908703"
       color-interpolation-filters="sRGB">
      <feGaussianBlur
         inkscape:collect="always"
         stdDeviation="0.39212011"
         id="feGaussianBlur3914" />
    </filter>
    <filter
       inkscape:collect="always"
       id="filter3927"
       x="-0.12636624"
       width="1.2527325"
       y="-0.28773808"
       height="1.5754762"
       color-interpolation-filters="sRGB">
      <feGaussianBlur
         inkscape:collect="always"
         stdDeviation="1.1537473"
         id="feGaussianBlur3929" />
    </filter>
    <linearGradient
       inkscape:collect="always"
       xlink:href="#linearGradient3669"
       id="linearGradient3252"
       gradientUnits="userSpaceOnUse"
       gradientTransform="translate(99.73057,721.82993)"
       x1="183.125"
       y1="72.875"
       x2="192.25"
       y2="55.5" />
    <linearGradient
       inkscape:collect="always"
       xlink:href="#linearGradient3669"
       id="linearGradient3258"
       gradientUnits="userSpaceOnUse"
       gradientTransform="matrix(6.400115,0,0,6.400115,62.92574,686.30199)"
       x1="29.022875"
       y1="24.614502"
       x2="37.24147"
       y2="21.310812" />
    <linearGradient
       inkscape:collect="always"
       xlink:href="#linearGradient3669"
       id="linearGradient3261"
       gradientUnits="userSpaceOnUse"
       gradientTransform="matrix(6.400115,0,0,6.400115,56.17574,-5747.4817)"
       x1="22.383869"
       y1="1023.8843"
       x2="15.64438"
       y2="1017.5189" />
    <linearGradient
       inkscape:collect="always"
       xlink:href="#linearGradient3931"
       id="linearGradient3264"
       gradientUnits="userSpaceOnUse"
       gradientTransform="translate(99.73057,-74.53227)"
       x1="147.5"
       y1="843.86218"
       x2="119"
       y2="814.86218" />
    <linearGradient
       inkscape:collect="always"
       xlink:href="#linearGradient3669"
       id="linearGradient3267"
       gradientUnits="userSpaceOnUse"
       gradientTransform="matrix(6.400115,0,0,6.400115,62.92574,686.30199)"
       x1="24.367268"
       y1="29.051037"
       x2="31.867142"
       y2="29.106279" />
    <linearGradient
       inkscape:collect="always"
       xlink:href="#linearGradient3669"
       id="linearGradient3270"
       gradientUnits="userSpaceOnUse"
       gradientTransform="matrix(6.400115,0,0,6.400115,62.92574,686.30199)"
       x1="8.9686985"
       y1="25.84791"
       x2="17.828442"
       y2="29.798435" />
    <linearGradient
       inkscape:collect="always"
       xlink:href="#linearGradient3669"
       id="linearGradient3273"
       gradientUnits="userSpaceOnUse"
       gradientTransform="matrix(6.400115,0,0,6.400115,62.92574,378.0343)"
       x1="14.269864"
       y1="26.721092"
       x2="25.219465"
       y2="26.058191" />
    <radialGradient
       inkscape:collect="always"
       xlink:href="#linearGradient3689"
       id="radialGradient3279"
       gradientUnits="userSpaceOnUse"
       gradientTransform="matrix(2.7450413,4.3867121,-6.8694951,4.2987412,7149.4471,-3635.6783)"
       cx="27.844063"
       cy="1021.0861"
       fx="27.844063"
       fy="1021.0861"
       r="17.592218" />
    <radialGradient
       inkscape:collect="always"
       xlink:href="#linearGradient3669"
       id="radialGradient3291"
       gradientUnits="userSpaceOnUse"
       gradientTransform="matrix(2.5638659,5.7920643,-4.9198331,2.1778048,5167.0151,-1814.8564)"
       cx="17.360392"
       cy="1023.9149"
       fx="17.360392"
       fy="1023.9149"
       r="17.592218" />
    <linearGradient
       inkscape:collect="always"
       xlink:href="#linearGradient3701"
       id="linearGradient3298"
       x1="161.88681"
       y1="913.05573"
       x2="225.043"
       y2="839.87018"
       gradientUnits="userSpaceOnUse" />
    <linearGradient
       inkscape:collect="always"
       xlink:href="#linearGradient3669"
       id="linearGradient3332"
       gradientUnits="userSpaceOnUse"
       gradientTransform="translate(647.92892,749.82993)"
       x1="183.125"
       y1="72.875"
       x2="192.25"
       y2="55.5" />
    <linearGradient
       inkscape:collect="always"
       xlink:href="#linearGradient3669"
       id="linearGradient3338"
       gradientUnits="userSpaceOnUse"
       gradientTransform="matrix(6.400115,0,0,6.400115,611.12409,714.30199)"
       x1="29.022875"
       y1="24.614502"
       x2="37.24147"
       y2="21.310812" />
    <linearGradient
       inkscape:collect="always"
       xlink:href="#linearGradient3669"
       id="linearGradient3341"
       gradientUnits="userSpaceOnUse"
       gradientTransform="matrix(6.400115,0,0,6.400115,604.37409,-5719.4817)"
       x1="22.383869"
       y1="1023.8843"
       x2="15.64438"
       y2="1017.5189" />
    <linearGradient
       inkscape:collect="always"
       xlink:href="#linearGradient3931"
       id="linearGradient3344"
       gradientUnits="userSpaceOnUse"
       gradientTransform="translate(647.92892,-46.53227)"
       x1="147.5"
       y1="843.86218"
       x2="119"
       y2="814.86218" />
    <linearGradient
       inkscape:collect="always"
       xlink:href="#linearGradient3669"
       id="linearGradient3347"
       gradientUnits="userSpaceOnUse"
       gradientTransform="matrix(6.400115,0,0,6.400115,611.12409,714.30199)"
       x1="24.367268"
       y1="29.051037"
       x2="31.867142"
       y2="29.106279" />
    <linearGradient
       inkscape:collect="always"
       xlink:href="#linearGradient3669"
       id="linearGradient3350"
       gradientUnits="userSpaceOnUse"
       gradientTransform="matrix(6.400115,0,0,6.400115,611.12409,714.30199)"
       x1="8.9686985"
       y1="25.84791"
       x2="17.828442"
       y2="29.798435" />
    <linearGradient
       inkscape:collect="always"
       xlink:href="#linearGradient3669"
       id="linearGradient3353"
       gradientUnits="userSpaceOnUse"
       gradientTransform="matrix(6.400115,0,0,6.400115,611.12409,714.30199)"
       x1="14.269864"
       y1="26.721092"
       x2="25.219465"
       y2="26.058191" />
    <radialGradient
       inkscape:collect="always"
       xlink:href="#linearGradient3689"
       id="radialGradient3359"
       gradientUnits="userSpaceOnUse"
       gradientTransform="matrix(2.7450413,4.3867121,-6.8694951,4.2987412,7697.6454,-3607.6783)"
       cx="27.844063"
       cy="1021.0861"
       fx="27.844063"
       fy="1021.0861"
       r="17.592218" />
    <radialGradient
       inkscape:collect="always"
       xlink:href="#linearGradient3669"
       id="radialGradient3389"
       gradientUnits="userSpaceOnUse"
       gradientTransform="matrix(2.5638659,5.7920643,-4.9198331,2.1778048,5715.2134,-1478.5887)"
       cx="17.360392"
       cy="1023.9149"
       fx="17.360392"
       fy="1023.9149"
       r="17.592218" />
    <linearGradient
       inkscape:collect="always"
       xlink:href="#linearGradient3701"
       id="linearGradient3396"
       gradientUnits="userSpaceOnUse"
       x1="453.88791"
       y1="614.11292"
       x2="546.17651"
       y2="564.36292"
       gradientTransform="translate(228.75,337.01769)" />
    <linearGradient
       inkscape:collect="always"
       xlink:href="#linearGradient3669"
       id="linearGradient3175"
       gradientUnits="userSpaceOnUse"
       gradientTransform="translate(736.1271,721.82993)"
       x1="183.125"
       y1="72.875"
       x2="192.25"
       y2="55.5" />
    <linearGradient
       inkscape:collect="always"
       xlink:href="#linearGradient3669"
       id="linearGradient3181"
       gradientUnits="userSpaceOnUse"
       gradientTransform="matrix(6.400115,0,0,6.400115,699.32227,686.30199)"
       x1="29.022875"
       y1="24.614502"
       x2="37.24147"
       y2="21.310812" />
    <linearGradient
       inkscape:collect="always"
       xlink:href="#linearGradient3669"
       id="linearGradient3184"
       gradientUnits="userSpaceOnUse"
       gradientTransform="matrix(6.400115,0,0,6.400115,692.57227,-5747.4817)"
       x1="22.383869"
       y1="1023.8843"
       x2="15.64438"
       y2="1017.5189" />
    <linearGradient
       inkscape:collect="always"
       xlink:href="#linearGradient3931"
       id="linearGradient3187"
       gradientUnits="userSpaceOnUse"
       gradientTransform="translate(736.1271,-74.53227)"
       x1="147.5"
       y1="843.86218"
       x2="119"
       y2="814.86218" />
    <linearGradient
       inkscape:collect="always"
       xlink:href="#linearGradient3669"
       id="linearGradient3190"
       gradientUnits="userSpaceOnUse"
       gradientTransform="matrix(6.400115,0,0,6.400115,699.32227,686.30199)"
       x1="24.367268"
       y1="29.051037"
       x2="31.867142"
       y2="29.106279" />
    <linearGradient
       inkscape:collect="always"
       xlink:href="#linearGradient3669"
       id="linearGradient3193"
       gradientUnits="userSpaceOnUse"
       gradientTransform="matrix(6.400115,0,0,6.400115,699.32227,686.30199)"
       x1="8.9686985"
       y1="25.84791"
       x2="17.828442"
       y2="29.798435" />
    <radialGradient
       inkscape:collect="always"
       xlink:href="#linearGradient3689"
       id="radialGradient3202"
       gradientUnits="userSpaceOnUse"
       gradientTransform="matrix(2.7450413,4.3867121,-6.8694951,4.2987412,7785.8436,-3635.6783)"
       cx="27.844063"
       cy="1021.0861"
       fx="27.844063"
       fy="1021.0861"
       r="17.592218" />
    <linearGradient
       inkscape:collect="always"
       xlink:href="#linearGradient3669"
       id="linearGradient3240"
       gradientUnits="userSpaceOnUse"
       gradientTransform="matrix(6.400115,0,0,6.400115,699.32227,378.0343)"
       x1="14.269864"
       y1="26.721092"
       x2="25.219465"
       y2="26.058191" />
    <radialGradient
       inkscape:collect="always"
       xlink:href="#linearGradient3669"
       id="radialGradient3243"
       gradientUnits="userSpaceOnUse"
       gradientTransform="matrix(2.5638659,5.7920643,-4.9198331,2.1778048,5803.4116,-1814.8564)"
       cx="17.360392"
       cy="1023.9149"
       fx="17.360392"
       fy="1023.9149"
       r="17.592218" />
    <linearGradient
       inkscape:collect="always"
       xlink:href="#linearGradient3701"
       id="linearGradient3250"
       gradientUnits="userSpaceOnUse"
       x1="777.33038"
       y1="633.50214"
       x2="860.79395"
       y2="559.96307"
       gradientTransform="translate(-1,308.26769)" />
  </defs>
  <sodipodi:namedview
     id="base"
     pagecolor="#ffffff"
     bordercolor="#666666"
     borderopacity="1.0"
     inkscape:pageopacity="0.0"
     inkscape:pageshadow="2"
     inkscape:zoom="0.5"
     inkscape:cx="308.80287"
     inkscape:cy="152.94431"
     inkscape:document-units="px"
     inkscape:current-layer="layer1"
     showgrid="false"
     inkscape:window-width="1393"
     inkscape:window-height="826"
     inkscape:window-x="22"
     inkscape:window-y="24"
     inkscape:window-maximized="0"
     showguides="true"
     inkscape:guide-bbox="true">
    <inkscape:grid
       type="xygrid"
       id="grid2837"
       empspacing="5"
       visible="true"
       enabled="true"
       snapvisiblegridlinesonly="true" />
  </sodipodi:namedview>
  <metadata
     id="metadata7">
    <rdf:RDF>
      <cc:Work
         rdf:about="">
        <dc:format>image/svg+xml</dc:format>
        <dc:type
           rdf:resource="http://purl.org/dc/dcmitype/StillImage" />
        <dc:title></dc:title>
      </cc:Work>
    </rdf:RDF>
  </metadata>
  <g
     inkscape:label="Layer 1"
     inkscape:groupmode="layer"
     id="layer1"
     transform="translate(0,-796.3622)">
    <g
       id="g3398"
       transform="translate(-643.37672,40.731322)">
      <path
         sodipodi:type="arc"
         style="fill:#000000;fill-opacity:0.76862745;fill-rule:evenodd;stroke:none;filter:url(#filter3641)"
         id="path3347"
         sodipodi:cx="23.705973"
         sodipodi:cy="39.252682"
         sodipodi:rx="17.237366"
         sodipodi:ry="2.7197549"
         d="m 40.943338,39.252682 c 0,1.502079 -7.717431,2.719755 -17.237365,2.719755 -9.519935,0 -17.2373661,-1.217676 -17.2373661,-2.719755 0,-1.502079 7.7174311,-2.719755 17.2373661,-2.719755 9.519934,0 17.237365,1.217676 17.237365,2.719755 z"
         transform="matrix(5.7450926,0,0,7.0920193,627.59294,693.72946)" />
      <path
         inkscape:connector-curvature="0"
         sodipodi:nodetypes="sscsscs"
         id="path3349"
         d="m 666.72512,858.50464 c -7.99112,18.16867 -12.56366,50.95749 -6.30023,75.30139 11.27654,43.8282 68.20092,52.4007 86.90127,47.8008 39.71639,5.0451 82.80195,6.5 107.5023,-15.2004 20.39909,-17.9215 26.94109,-38.9852 26.60046,-67.101 -0.85637,-70.68638 -45.60046,-103.6016 -103.90184,-89.00171 -45.20092,-15.90012 -88.63602,-2.19571 -110.80196,48.20092 z"
         style="color:#000000;fill:url(#radialGradient3359);fill-opacity:1;stroke:none;stroke-width:1px;marker:none;visibility:visible;display:inline;overflow:visible;enable-background:accumulate" />
      <path
         style="fill:url(#linearGradient3396);fill-opacity:1;stroke:none"
         d="m 709.09375,880.01769 c -2.65007,0.10833 -5.50621,1.7075 -1.96875,3.84375 3.18705,1.82465 8.35774,-1.2584 12.5,-0.65625 -6.55714,7.04025 -5.47463,21.66751 4.75,24.40625 2.99661,0.55769 5.6053,-1.56697 7.1875,-3.90625 -8.83428,2.13413 -13.17962,-9.83712 -9.75,-16.40625 0.097,-2.72092 8.25611,-7.53895 2.03125,-7 -3.82974,0.1305 -8.15735,-0.29268 -11.875,0.59375 -0.49918,-0.65651 -1.67042,-0.92424 -2.875,-0.875 z m 26.71875,2.15625 c -0.23284,-0.0166 -0.49021,0.0441 -0.75,0.1875 -1.49478,3.31356 -1.2427,9.37478 4.125,8.71875 3.40965,3.76586 8.56025,-3.33487 8.25,0.78125 1.04457,7.42737 -0.0218,19.17825 8.84375,22 3.64025,1.12286 6.83534,-1.81454 9.1875,-4.1875 -6.3122,3.1037 -11.84149,-3.33585 -11.65625,-9.25 -0.78139,-5.62109 -1.85469,-11.18999 -2.84375,-16.78125 -2.5275,4.94801 -7.3208,6.24051 -11.4375,3.125 -1.08741,-0.89064 -2.08884,-4.47755 -3.71875,-4.59375 z m -34.78125,1.09375 c -0.82292,0.0729 -1.64583,0.14583 -2.46875,0.21875 -10.35679,4.07609 -17.70919,15.96273 -13.5625,26.9375 1.0701,3.01069 4.02983,7.3762 7.875,6.40625 -4.12981,1.5015 -0.25186,6.16428 1.4375,8.46875 19.46266,19.03939 48.65511,28.13284 75.59375,24 5.81939,-1.3889 12.60684,-2.47531 16.5625,-7.3125 -8.16081,2.03821 -15.3213,3.26583 -24,2.875 -16.93104,0.8347 -34.4325,-2.90219 -49.1875,-11.5 l -1.4375,-1.46875 c 1.3193,1.01985 1.41841,-0.34316 -0.0625,-2.4375 -2.29518,-2.89768 -5.14133,-6.03983 -0.0937,-10.21875 -5.18846,-1.39084 -8.40227,4.92114 -5.75,8.90625 1.03275,0.84596 3.71746,2.8093 5.84375,4.34375 -2.15102,-1.3184 -4.23485,-2.74905 -6.25,-4.28125 2.57667,4.56545 -3.07145,-4.00852 -4.59375,-5.34375 -2.68806,-1.73335 -4.24931,-5.80158 -6.8125,-6.34375 -0.28752,0.0468 -0.53932,0.091 -0.78125,0.15625 0.41418,-0.1492 0.84974,-0.34197 1.28125,-0.625 -3.05124,-5.26119 -7.52134,-12.14077 -4.65625,-18.53125 1.35624,-6.26656 6.99352,-10.04467 11.0625,-14.25 z m 3.53125,2.625 c -5.49829,3.19472 -4.73544,2.95166 0.875,0.9375 0.64997,-1.33058 1.66208,-0.3592 -0.875,-0.9375 z m 55.65625,1.8125 c 0.5625,0.96875 1,1.6875 1.5625,2.65625 2.53002,6.02154 10.94938,6.23168 15.3125,10.84375 3.36177,1.938 6.02259,6.79051 9,7.59375 5.44606,-1.57692 -0.91606,-4.72723 -2.8125,-7 -6.64515,-6.3061 -14.83421,-10.18762 -23.0625,-14.09375 z m 28.34375,20.65625 c -5.334,1.42713 1.176,5.2369 1.5625,8.53125 2.56794,5.7032 2.19986,12.46892 -1.625,17.9375 1.73862,2.2786 1.65508,2.25224 1.90625,0.6875 l 2.59375,2.09375 4.625,-4.25 -6.59375,-0.53125 c 0.008,-0.024 0.0229,-0.0383 0.0312,-0.0625 0.0822,-2.2827 2.39392,-1.18459 4.09375,-8.4375 -0.29673,-6.17931 -2.9391,-11.14088 -6.59375,-15.96875 z m -57.6875,17.25 c -0.72917,0.0521 -1.45833,0.10417 -2.1875,0.15625 -3.58605,-0.0892 -7.18674,-0.38634 -3.90625,1.6875 1.84438,-1.57882 4.26163,-0.19291 6.09375,-1.84375 z m 20.21875,3.59375 c -1.50008,8.4e-4 -3.90232,0.41729 -4.3125,1.5625 0.92528,-0.12709 1.87433,-0.27769 2.8125,-0.5625 3.64569,-0.55877 3.0551,-1.00087 1.5,-1 z m -4.3125,1.5625 c -4.2349,0.58166 -7.69304,0.15165 -4.34375,4.28125 3.15706,-0.89036 1.91915,-1.86775 4.3125,-4.15625 0.01,-0.044 0.0162,-0.083 0.0312,-0.125 z m 21.0625,-1.0625 c -0.76562,0.14844 -1.54687,0.85156 -2.3125,1.28125 0.78194,-0.14094 1.5611,-0.44988 2.3125,-1.28125 z m -2.4375,1.3125 c -1.1518,0.17982 -2.30883,0.0117 -3.28125,0.46875 0.82514,0.0881 1.75899,0.0935 2.65625,-0.1875 0.21712,-0.0421 0.40788,-0.16793 0.625,-0.28125 z m -3.28125,0.46875 c -2.38785,-0.25499 -3.92195,-1.25335 -1.46875,1.59375 0.42504,-0.8731 0.91308,-1.33255 1.46875,-1.59375 z m 25.65625,2.9375 c 0.0504,0.14643 0.10055,0.56278 -0.28125,1.5 -1.26714,2.09452 -12.10485,5.69466 -6.5625,5.1875 2.06515,-1.37172 7.79401,-4.21945 7.09375,-6.53125 -0.12929,-0.0676 -0.21264,-0.11421 -0.25,-0.15625 z"
         id="path3384"
         inkscape:connector-curvature="0" />
      <path
         id="path3351"
         d="m 741.25,804.04894 c -31.08166,0.59588 -58.42631,17.85245 -74.53125,54.46875 -7.99112,18.16867 -12.54468,50.93725 -6.28125,75.28125 11.27653,43.8282 68.20591,52.4124 86.90625,47.8125 39.71639,5.0451 82.79965,6.48165 107.5,-15.21875 20.39909,-17.9215 26.93438,-38.97795 26.59375,-67.09375 -0.85637,-70.68644 -45.60487,-103.59989 -103.90625,-89 -11.30023,-3.97503 -22.47524,-6.08628 -33.25,-6.25 -1.01013,-0.0154 -2.02862,-0.0192 -3.03125,0 z m -17.0625,74.9375 c 15.92858,-0.0252 33.64572,4.9231 47.6875,13.28125 7.00985,4.1725 12.65733,8.86708 16.78125,13.75 l -1.84375,1.1875 c -4.40415,-5.19671 -10.5667,-10.14298 -17.78125,-14.125 -2.07593,-1.1458 -7.60407,-3.89045 -8,-3.96875 -0.10818,-0.0214 0.20931,0.64859 0.71875,1.5 2.21344,3.69929 3.83347,8.24061 4.15625,11.59375 0.19461,2.02172 -0.29636,4.84983 -1.125,6.4375 -2.24848,4.30809 -7.1707,4.96418 -10.5,1.375 -2.61296,-2.81695 -3.19365,-4.81185 -4.125,-14.28125 -0.39937,-4.06063 -0.77415,-7.74229 -0.84375,-8.1875 l -0.125,-0.8125 -1.65625,1.8125 -1.65625,1.84375 -4.09375,-0.8125 -4.0625,-0.84375 -1.5625,-2.3125 c -0.84503,-1.27261 -1.61733,-2.32365 -1.71875,-2.34375 -0.1014,-0.0201 -0.1845,0.20695 -0.1875,0.5 -0.003,0.29307 -0.36795,3.87926 -0.8125,7.96875 -0.57157,5.25793 -0.93318,7.82535 -1.28125,8.75 -2.05916,5.47018 -7.0116,6.22593 -11.09375,1.6875 -4.74592,-5.27641 -4.40929,-13.72022 0.78125,-20.15625 0.57182,-0.70903 1.03125,-1.3289 1.03125,-1.375 0,-0.0379 -0.19317,-0.0595 -0.53125,-0.0625 -1.01424,-0.009 -3.31255,0.13408 -5.34375,0.34375 -2.62115,0.27057 -5.10115,0.70514 -7.4375,1.28125 L 708,880.92394 c 4.82325,-1.24041 10.26932,-1.92813 16.1875,-1.9375 z m -20.03125,3.0625 1.3125,2.15625 c -7.93356,2.77477 -13.57434,7.4683 -15.8125,13.40625 -0.82185,2.18035 -0.83875,2.35661 -0.84375,5.6875 -0.004,2.95304 0.0852,3.72145 0.5625,5.34375 0.60644,2.06118 1.54322,4.11989 2.78125,6.1875 l -2.3125,0.59375 c -0.39126,-0.69266 -0.76397,-1.39439 -1.09375,-2.09375 -3.38315,-7.17458 -3.48318,-13.62641 -0.28125,-19.4375 2.88719,-5.23989 8.37275,-9.29563 15.6875,-11.84375 z m 86.375,26.375 c 7.05996,9.60507 8.25591,19.67474 2.40625,27.5625 l -1.90625,-2 c 0.51171,-0.70638 0.99689,-1.423 1.375,-2.15625 2.34547,-4.5483 2.32064,-10.4888 -0.0937,-16.0625 -0.90557,-2.09055 -2.15458,-4.19988 -3.6875,-6.28125 l 1.90625,-1.0625 z m -96.46875,9.25 c 2.39999,3.25292 5.58844,6.57644 9.65625,10.03125 1.69138,1.4365 6.21715,4.69425 6.65625,4.78125 0.0593,0.0117 -0.31662,-0.7781 -0.84375,-1.75 -2.72279,-5.0205 -2.96399,-8.86235 -0.6875,-10.46875 1.24706,-0.8799 2.30866,-0.9953 4.4375,-0.4375 2.66693,0.6987 5.30775,2.5868 7.8125,5.625 1.04435,1.2667 2.26184,3.0402 2.71875,3.9375 0.45691,0.8973 0.90345,1.63925 0.96875,1.65625 0.0653,0.0167 0.48318,-0.7033 0.9375,-1.625 2.25454,-4.57395 5.98866,-4.54415 9.875,0.0937 2.33967,2.7921 4.33249,7.12365 5.5625,12.03125 0.53851,2.1486 0.55796,2.1853 0.75,1.4375 0.55747,-2.1709 1.79806,-5.2168 2.875,-7.125 0.97294,-1.7239 1.57897,-2.4427 3.125,-3.6875 1.98486,-1.5981 3.3048,-2.05975 4.96875,-1.71875 1.98466,0.4069 4.16841,2.8417 5.25,5.8125 l 0.65625,1.75 0.84375,-1.28125 c 1.13693,-1.708 3.85131,-4.05975 5.59375,-4.84375 4.24111,-1.9082 9.1392,-0.52205 10.59375,2.96875 0.95979,2.3034 0.36258,5.60185 -1.53125,8.40625 -0.46018,0.6815 -0.78105,1.238 -0.71875,1.25 0.29423,0.0582 4.67682,-1.37645 6.375,-2.09375 3.80014,-1.60516 7.09389,-3.90862 9.53125,-6.53125 l 1.84375,2.03125 c -2.08376,2.11717 -5.70769,4.65678 -8.65625,6.03125 -9.34668,4.3568 -21.61019,5.692 -35.5625,3.875 -22.80642,-2.97008 -45.07388,-14.99012 -55.15625,-29.15625 l 2.125,-1 z"
         style="color:#000000;fill:url(#radialGradient3389);fill-opacity:1;stroke:none;stroke-width:1px;marker:none;visibility:visible;display:inline;overflow:visible;enable-background:accumulate"
         inkscape:connector-curvature="0" />
      <path
         id="path3353"
         d="m 758.15625,833.89269 c -5.68777,18.08728 -10.00466,33.60491 -13.46875,47.5625 1.51256,0.35439 3.03127,0.76144 4.53125,1.1875 5.82605,-24.90071 10.23673,-46.15154 8.9375,-48.75 z m -10.21875,54.21875 -0.40625,0.4375 -1.65625,1.84375 -3.1875,-0.625 c -3.33181,14.19409 -5.76847,26.77786 -7.9375,38.8125 0.28298,0.29067 0.55861,0.59722 0.84375,0.9375 0.56282,0.67165 1.10812,1.44485 1.625,2.28125 3.43595,-13.58459 7.21384,-28.90766 10.71875,-43.6875 z m -16,56.40625 c -1.40499,8.15918 -2.80309,16.28084 -4.375,24.75 0,0 2.62413,-10.03497 6.25,-24.1875 -0.62991,-0.17803 -1.24993,-0.37218 -1.875,-0.5625 z"
         style="color:#000000;fill:url(#linearGradient3353);stroke:none;stroke-width:1px;marker:none;visibility:visible;display:inline;overflow:visible;enable-background:accumulate"
         inkscape:connector-curvature="0" />
      <path
         style="color:#000000;fill:url(#linearGradient3350);stroke:none;stroke-width:1px;marker:none;visibility:visible;display:inline;overflow:visible;enable-background:accumulate"
         d="m 745.85147,826.56864 c -70.24534,28.45826 -77.24764,111.47419 -71.52195,131.06809 0.3734,-34.7736 16.09971,-106.42957 71.52195,-131.06809 z"
         id="path3355"
         sodipodi:nodetypes="ccc"
         inkscape:connector-curvature="0" />
      <path
         style="color:#000000;fill:url(#linearGradient3347);stroke:none;stroke-width:1px;marker:none;visibility:visible;display:inline;overflow:visible;enable-background:accumulate"
         d="m 784.40152,834.75978 c 1.96021,12.37195 19.7756,106.05995 13.01228,129.53015 10.91644,-33.0765 0.49777,-106.19496 -13.01228,-129.53015 z"
         id="path3357"
         sodipodi:nodetypes="ccc"
         inkscape:connector-curvature="0" />
      <path
         style="color:#000000;fill:url(#linearGradient3344);fill-opacity:1;stroke:none;stroke-width:1px;marker:none;visibility:visible;display:inline;overflow:visible;enable-background:accumulate"
         d="m 771.7718,811.85867 c 7.5448,-25.60621 12.22058,-33.50115 24.4705,-44.62379 13.03995,-3.42731 25.49405,-1.2867 23.917,10.94052 -22.55759,17.61773 -16.34636,15.16693 -34.57313,37.42098 -6.27329,1.26779 -12.54658,2.53558 -13.81437,-3.73771 z"
         id="path3359"
         sodipodi:nodetypes="ccccc"
         inkscape:connector-curvature="0" />
      <path
         style="color:#000000;fill:url(#linearGradient3341);stroke:none;stroke-width:1px;marker:none;visibility:visible;display:inline;overflow:visible;enable-background:accumulate"
         d="m 742.76073,813.83261 c -10.53996,-3.54375 -24.15912,-1.49699 -36.25996,-0.66562 l -6.32054,3.65959 c 11.86797,-1.28322 32.48143,-6.13323 42.5805,-2.99397 z"
         id="path3361"
         sodipodi:nodetypes="cccc"
         inkscape:connector-curvature="0" />
      <path
         style="color:#000000;fill:url(#linearGradient3338);stroke:none;stroke-width:1px;marker:none;visibility:visible;display:inline;overflow:visible;enable-background:accumulate"
         d="m 817.37994,830.72771 c 21.98074,17.71163 39.52098,90.72082 37.74632,118.12672 11.10824,-41.2711 -13.07365,-104.9165 -37.74632,-118.12672 z"
         id="path3363"
         sodipodi:nodetypes="ccc"
         inkscape:connector-curvature="0" />
      <path
         style="color:#000000;fill:#ffffff;fill-opacity:0.3482143;stroke:none;stroke-width:1px;marker:none;visibility:visible;display:inline;overflow:visible;filter:url(#filter3912);enable-background:accumulate"
         d="M 10.967193,21.127777 C 13.51717,19.18096 18.053408,15.04991 22.869977,14.994464 22.410859,14.138013 13.05043,14.491453 10.967193,21.127777 z"
         id="path3365"
         transform="matrix(6.400115,0,0,6.400115,607.12409,712.80199)"
         sodipodi:nodetypes="ccc"
         inkscape:connector-curvature="0" />
      <path
         sodipodi:type="arc"
         style="fill:#ffffff;fill-opacity:0.3169643;stroke:none;filter:url(#filter3866)"
         id="path3367"
         sodipodi:cx="34.294678"
         sodipodi:cy="182.63766"
         sodipodi:rx="13.435029"
         sodipodi:ry="16.793787"
         d="m 47.729707,182.63766 c 0,9.27496 -6.015068,16.79379 -13.435029,16.79379 -7.419962,0 -13.435029,-7.51883 -13.435029,-16.79379 0,-9.27495 6.015067,-16.79378 13.435029,-16.79378 7.419961,0 13.435029,7.51883 13.435029,16.79378 z"
         transform="matrix(0.8027229,-0.59635219,0.65912613,0.88722009,536.43454,803.60742)" />
      <path
         style="fill:#000000;fill-opacity:0.19642855;stroke:none;filter:url(#filter3900)"
         d="m 803.84597,982.84893 c 28.24198,-13.9481 54.14694,-28.0486 73.89265,-57.2756 0,0 -6.18718,58.6898 -73.89265,57.2756 z"
         id="path3369"
         inkscape:connector-curvature="0"
         sodipodi:nodetypes="ccc" />
      <path
         inkscape:connector-curvature="0"
         style="fill:url(#linearGradient3332);fill-opacity:1;stroke:none"
         d="m 836.61642,813.79868 -7.8125,0.15625 10.65625,1.25 c -0.93725,-0.48914 -1.88166,-0.95974 -2.84375,-1.40625 z"
         id="path3371" />
      <path
         style="fill:#ffffff;fill-opacity:0.35714291;stroke:none;filter:url(#filter3927)"
         d="m 797.30523,767.53494 c 8.78365,1.18703 17.13839,2.8983 21.74353,9.19239 0,0 3.53554,-12.02081 -21.74353,-9.19239 z"
         id="path3373"
         inkscape:connector-curvature="0"
         sodipodi:nodetypes="ccc" />
    </g>
  </g>
</svg>
