<?xml version="1.0" encoding="UTF-8" standalone="no"?>
<!-- Created with Inkscape (http://www.inkscape.org/) -->

<svg
   xmlns:dc="http://purl.org/dc/elements/1.1/"
   xmlns:cc="http://creativecommons.org/ns#"
   xmlns:rdf="http://www.w3.org/1999/02/22-rdf-syntax-ns#"
   xmlns:svg="http://www.w3.org/2000/svg"
   xmlns="http://www.w3.org/2000/svg"
   xmlns:xlink="http://www.w3.org/1999/xlink"
   xmlns:sodipodi="http://sodipodi.sourceforge.net/DTD/sodipodi-0.dtd"
   xmlns:inkscape="http://www.inkscape.org/namespaces/inkscape"
   width="256"
   height="256"
   id="svg2"
   version="1.1"
   inkscape:version="0.48.4 r9939"
   sodipodi:docname="pumpkin-15.svg"
   inkscape:export-filename="pumpkins.png"
   inkscape:export-xdpi="299.96191"
   inkscape:export-ydpi="299.96191">
  <defs
     id="defs4">
    <linearGradient
       id="linearGradient3931">
      <stop
         style="stop-color:#5f6b21;stop-opacity:1;"
         offset="0"
         id="stop3933" />
      <stop
         style="stop-color:#39a905;stop-opacity:1;"
         offset="1"
         id="stop3935" />
    </linearGradient>
    <linearGradient
       id="linearGradient3701">
      <stop
         style="stop-color:#704608;stop-opacity:1;"
         offset="0"
         id="stop3703" />
      <stop
         style="stop-color:#ab8855;stop-opacity:1;"
         offset="1"
         id="stop3705" />
    </linearGradient>
    <linearGradient
       id="linearGradient3689">
      <stop
         style="stop-color:#fff690;stop-opacity:1;"
         offset="0"
         id="stop3691" />
      <stop
         style="stop-color:#f2ff00;stop-opacity:1;"
         offset="1"
         id="stop3693" />
    </linearGradient>
    <linearGradient
       id="linearGradient3669">
      <stop
         style="stop-color:#ffd73b;stop-opacity:1;"
         offset="0"
         id="stop3671" />
      <stop
         style="stop-color:#ee8400;stop-opacity:1;"
         offset="1"
         id="stop3673" />
    </linearGradient>
    <filter
       inkscape:collect="always"
       id="filter3641"
       x="-0.047149919"
       width="1.0942998"
       y="-0.29882854"
       height="1.5976571"
       color-interpolation-filters="sRGB">
      <feGaussianBlur
         inkscape:collect="always"
         stdDeviation="0.67728367"
         id="feGaussianBlur3643" />
    </filter>
    <filter
       inkscape:collect="always"
       id="filter3866"
       x="-0.29160413"
       width="1.5832083"
       y="-0.29436955"
       height="1.5887392"
       color-interpolation-filters="sRGB">
      <feGaussianBlur
         inkscape:collect="always"
         stdDeviation="3.7554505"
         id="feGaussianBlur3868" />
    </filter>
    <filter
       inkscape:collect="always"
       id="filter3900"
       x="-0.12988681"
       width="1.2597736"
       y="-0.16756999"
       height="1.33514"
       color-interpolation-filters="sRGB">
      <feGaussianBlur
         inkscape:collect="always"
         stdDeviation="3.9990335"
         id="feGaussianBlur3902" />
    </filter>
    <filter
       inkscape:collect="always"
       id="filter3912"
       x="-0.079064548"
       width="1.1581291"
       y="-0.14543517"
       height="1.2908703"
       color-interpolation-filters="sRGB">
      <feGaussianBlur
         inkscape:collect="always"
         stdDeviation="0.39212011"
         id="feGaussianBlur3914" />
    </filter>
    <filter
       inkscape:collect="always"
       id="filter3927"
       x="-0.12636624"
       width="1.2527325"
       y="-0.28773808"
       height="1.5754762"
       color-interpolation-filters="sRGB">
      <feGaussianBlur
         inkscape:collect="always"
         stdDeviation="1.1537473"
         id="feGaussianBlur3929" />
    </filter>
    <linearGradient
       inkscape:collect="always"
       xlink:href="#linearGradient3669"
       id="linearGradient3260"
       gradientUnits="userSpaceOnUse"
       gradientTransform="translate(417.92892,381.60252)"
       x1="183.125"
       y1="72.875"
       x2="192.25"
       y2="55.5" />
    <linearGradient
       inkscape:collect="always"
       xlink:href="#linearGradient3669"
       id="linearGradient3266"
       gradientUnits="userSpaceOnUse"
       gradientTransform="matrix(6.400115,0,0,6.400115,381.12409,346.07458)"
       x1="29.022875"
       y1="24.614502"
       x2="37.24147"
       y2="21.310812" />
    <linearGradient
       inkscape:collect="always"
       xlink:href="#linearGradient3669"
       id="linearGradient3269"
       gradientUnits="userSpaceOnUse"
       gradientTransform="matrix(6.400115,0,0,6.400115,374.37409,-6087.7091)"
       x1="22.383869"
       y1="1023.8843"
       x2="15.64438"
       y2="1017.5189" />
    <linearGradient
       inkscape:collect="always"
       xlink:href="#linearGradient3931"
       id="linearGradient3272"
       gradientUnits="userSpaceOnUse"
       gradientTransform="translate(417.92892,-414.75968)"
       x1="147.5"
       y1="843.86218"
       x2="119"
       y2="814.86218" />
    <linearGradient
       inkscape:collect="always"
       xlink:href="#linearGradient3669"
       id="linearGradient3275"
       gradientUnits="userSpaceOnUse"
       gradientTransform="matrix(6.400115,0,0,6.400115,381.12409,37.80689)"
       x1="24.367268"
       y1="29.051037"
       x2="31.867142"
       y2="29.106279" />
    <linearGradient
       inkscape:collect="always"
       xlink:href="#linearGradient3669"
       id="linearGradient3278"
       gradientUnits="userSpaceOnUse"
       gradientTransform="matrix(6.400115,0,0,6.400115,381.12409,346.07458)"
       x1="8.9686985"
       y1="25.84791"
       x2="17.828442"
       y2="29.798435" />
    <linearGradient
       inkscape:collect="always"
       xlink:href="#linearGradient3669"
       id="linearGradient3281"
       gradientUnits="userSpaceOnUse"
       gradientTransform="matrix(6.400115,0,0,6.400115,381.12409,37.80689)"
       x1="14.269864"
       y1="26.721092"
       x2="25.219465"
       y2="26.058191" />
    <radialGradient
       inkscape:collect="always"
       xlink:href="#linearGradient3689"
       id="radialGradient3287"
       gradientUnits="userSpaceOnUse"
       gradientTransform="matrix(2.7450413,4.3867121,-6.8694951,4.2987412,7467.6454,-3975.9057)"
       cx="27.844063"
       cy="1021.0861"
       fx="27.844063"
       fy="1021.0861"
       r="17.592218" />
    <radialGradient
       inkscape:collect="always"
       xlink:href="#linearGradient3669"
       id="radialGradient3303"
       gradientUnits="userSpaceOnUse"
       gradientTransform="matrix(2.5638659,5.7920643,-4.9198331,2.1778048,5485.2134,-2155.0838)"
       cx="17.360392"
       cy="1023.9149"
       fx="17.360392"
       fy="1023.9149"
       r="17.592218" />
    <linearGradient
       inkscape:collect="always"
       xlink:href="#linearGradient3701"
       id="linearGradient3310"
       gradientUnits="userSpaceOnUse"
       x1="467.29291"
       y1="262.80151"
       x2="554.62439"
       y2="215.07179"
       gradientTransform="translate(0,308.26769)" />
    <linearGradient
       inkscape:collect="always"
       xlink:href="#linearGradient3669"
       id="linearGradient3162"
       gradientUnits="userSpaceOnUse"
       gradientTransform="translate(736.1271,381.60252)"
       x1="183.125"
       y1="72.875"
       x2="192.25"
       y2="55.5" />
    <linearGradient
       inkscape:collect="always"
       xlink:href="#linearGradient3669"
       id="linearGradient3168"
       gradientUnits="userSpaceOnUse"
       gradientTransform="matrix(6.400115,0,0,6.400115,699.32227,346.07458)"
       x1="29.022875"
       y1="24.614502"
       x2="37.24147"
       y2="21.310812" />
    <linearGradient
       inkscape:collect="always"
       xlink:href="#linearGradient3669"
       id="linearGradient3171"
       gradientUnits="userSpaceOnUse"
       gradientTransform="matrix(6.400115,0,0,6.400115,692.57227,-6087.7091)"
       x1="22.383869"
       y1="1023.8843"
       x2="15.64438"
       y2="1017.5189" />
    <linearGradient
       inkscape:collect="always"
       xlink:href="#linearGradient3931"
       id="linearGradient3174"
       gradientUnits="userSpaceOnUse"
       gradientTransform="translate(736.1271,-414.75968)"
       x1="147.5"
       y1="843.86218"
       x2="119"
       y2="814.86218" />
    <linearGradient
       inkscape:collect="always"
       xlink:href="#linearGradient3669"
       id="linearGradient3177"
       gradientUnits="userSpaceOnUse"
       gradientTransform="matrix(6.400115,0,0,6.400115,699.32227,346.07458)"
       x1="24.367268"
       y1="29.051037"
       x2="31.867142"
       y2="29.106279" />
    <linearGradient
       inkscape:collect="always"
       xlink:href="#linearGradient3669"
       id="linearGradient3180"
       gradientUnits="userSpaceOnUse"
       gradientTransform="matrix(6.400115,0,0,6.400115,699.32227,346.07458)"
       x1="8.9686985"
       y1="25.84791"
       x2="17.828442"
       y2="29.798435" />
    <linearGradient
       inkscape:collect="always"
       xlink:href="#linearGradient3669"
       id="linearGradient3183"
       gradientUnits="userSpaceOnUse"
       gradientTransform="matrix(6.400115,0,0,6.400115,699.32227,37.80689)"
       x1="14.269864"
       y1="26.721092"
       x2="25.219465"
       y2="26.058191" />
    <radialGradient
       inkscape:collect="always"
       xlink:href="#linearGradient3689"
       id="radialGradient3189"
       gradientUnits="userSpaceOnUse"
       gradientTransform="matrix(2.7450413,4.3867121,-6.8694951,4.2987412,7785.8436,-3975.9057)"
       cx="27.844063"
       cy="1021.0861"
       fx="27.844063"
       fy="1021.0861"
       r="17.592218" />
    <radialGradient
       inkscape:collect="always"
       xlink:href="#linearGradient3669"
       id="radialGradient3205"
       gradientUnits="userSpaceOnUse"
       gradientTransform="matrix(2.5638659,5.7920643,-4.9198331,2.1778048,5803.4116,-2155.0838)"
       cx="17.360392"
       cy="1023.9149"
       fx="17.360392"
       fy="1023.9149"
       r="17.592218" />
    <linearGradient
       inkscape:collect="always"
       xlink:href="#linearGradient3701"
       id="linearGradient3212"
       gradientUnits="userSpaceOnUse"
       x1="788.22821"
       y1="271.68747"
       x2="869.25073"
       y2="216.61469"
       gradientTransform="translate(-3,308.26769)" />
    <linearGradient
       inkscape:collect="always"
       xlink:href="#linearGradient3669"
       id="linearGradient3252"
       gradientUnits="userSpaceOnUse"
       gradientTransform="translate(99.73057,721.82993)"
       x1="183.125"
       y1="72.875"
       x2="192.25"
       y2="55.5" />
    <linearGradient
       inkscape:collect="always"
       xlink:href="#linearGradient3669"
       id="linearGradient3258"
       gradientUnits="userSpaceOnUse"
       gradientTransform="matrix(6.400115,0,0,6.400115,62.92574,686.30199)"
       x1="29.022875"
       y1="24.614502"
       x2="37.24147"
       y2="21.310812" />
    <linearGradient
       inkscape:collect="always"
       xlink:href="#linearGradient3669"
       id="linearGradient3261"
       gradientUnits="userSpaceOnUse"
       gradientTransform="matrix(6.400115,0,0,6.400115,56.17574,-5747.4817)"
       x1="22.383869"
       y1="1023.8843"
       x2="15.64438"
       y2="1017.5189" />
    <linearGradient
       inkscape:collect="always"
       xlink:href="#linearGradient3931"
       id="linearGradient3264"
       gradientUnits="userSpaceOnUse"
       gradientTransform="translate(99.73057,-74.53227)"
       x1="147.5"
       y1="843.86218"
       x2="119"
       y2="814.86218" />
    <linearGradient
       inkscape:collect="always"
       xlink:href="#linearGradient3669"
       id="linearGradient3267"
       gradientUnits="userSpaceOnUse"
       gradientTransform="matrix(6.400115,0,0,6.400115,62.92574,686.30199)"
       x1="24.367268"
       y1="29.051037"
       x2="31.867142"
       y2="29.106279" />
    <linearGradient
       inkscape:collect="always"
       xlink:href="#linearGradient3669"
       id="linearGradient3270"
       gradientUnits="userSpaceOnUse"
       gradientTransform="matrix(6.400115,0,0,6.400115,62.92574,686.30199)"
       x1="8.9686985"
       y1="25.84791"
       x2="17.828442"
       y2="29.798435" />
    <linearGradient
       inkscape:collect="always"
       xlink:href="#linearGradient3669"
       id="linearGradient3273"
       gradientUnits="userSpaceOnUse"
       gradientTransform="matrix(6.400115,0,0,6.400115,62.92574,378.0343)"
       x1="14.269864"
       y1="26.721092"
       x2="25.219465"
       y2="26.058191" />
    <radialGradient
       inkscape:collect="always"
       xlink:href="#linearGradient3689"
       id="radialGradient3279"
       gradientUnits="userSpaceOnUse"
       gradientTransform="matrix(2.7450413,4.3867121,-6.8694951,4.2987412,7149.4471,-3635.6783)"
       cx="27.844063"
       cy="1021.0861"
       fx="27.844063"
       fy="1021.0861"
       r="17.592218" />
    <radialGradient
       inkscape:collect="always"
       xlink:href="#linearGradient3669"
       id="radialGradient3291"
       gradientUnits="userSpaceOnUse"
       gradientTransform="matrix(2.5638659,5.7920643,-4.9198331,2.1778048,5167.0151,-1814.8564)"
       cx="17.360392"
       cy="1023.9149"
       fx="17.360392"
       fy="1023.9149"
       r="17.592218" />
    <linearGradient
       inkscape:collect="always"
       xlink:href="#linearGradient3701"
       id="linearGradient3298"
       x1="161.88681"
       y1="913.05573"
       x2="225.043"
       y2="839.87018"
       gradientUnits="userSpaceOnUse" />
    <linearGradient
       inkscape:collect="always"
       xlink:href="#linearGradient3669"
       id="linearGradient3332"
       gradientUnits="userSpaceOnUse"
       gradientTransform="translate(647.92892,749.82993)"
       x1="183.125"
       y1="72.875"
       x2="192.25"
       y2="55.5" />
    <linearGradient
       inkscape:collect="always"
       xlink:href="#linearGradient3669"
       id="linearGradient3338"
       gradientUnits="userSpaceOnUse"
       gradientTransform="matrix(6.400115,0,0,6.400115,611.12409,714.30199)"
       x1="29.022875"
       y1="24.614502"
       x2="37.24147"
       y2="21.310812" />
    <linearGradient
       inkscape:collect="always"
       xlink:href="#linearGradient3669"
       id="linearGradient3341"
       gradientUnits="userSpaceOnUse"
       gradientTransform="matrix(6.400115,0,0,6.400115,604.37409,-5719.4817)"
       x1="22.383869"
       y1="1023.8843"
       x2="15.64438"
       y2="1017.5189" />
    <linearGradient
       inkscape:collect="always"
       xlink:href="#linearGradient3931"
       id="linearGradient3344"
       gradientUnits="userSpaceOnUse"
       gradientTransform="translate(647.92892,-46.53227)"
       x1="147.5"
       y1="843.86218"
       x2="119"
       y2="814.86218" />
    <linearGradient
       inkscape:collect="always"
       xlink:href="#linearGradient3669"
       id="linearGradient3347"
       gradientUnits="userSpaceOnUse"
       gradientTransform="matrix(6.400115,0,0,6.400115,611.12409,714.30199)"
       x1="24.367268"
       y1="29.051037"
       x2="31.867142"
       y2="29.106279" />
    <linearGradient
       inkscape:collect="always"
       xlink:href="#linearGradient3669"
       id="linearGradient3350"
       gradientUnits="userSpaceOnUse"
       gradientTransform="matrix(6.400115,0,0,6.400115,611.12409,714.30199)"
       x1="8.9686985"
       y1="25.84791"
       x2="17.828442"
       y2="29.798435" />
    <linearGradient
       inkscape:collect="always"
       xlink:href="#linearGradient3669"
       id="linearGradient3353"
       gradientUnits="userSpaceOnUse"
       gradientTransform="matrix(6.400115,0,0,6.400115,611.12409,714.30199)"
       x1="14.269864"
       y1="26.721092"
       x2="25.219465"
       y2="26.058191" />
    <radialGradient
       inkscape:collect="always"
       xlink:href="#linearGradient3689"
       id="radialGradient3359"
       gradientUnits="userSpaceOnUse"
       gradientTransform="matrix(2.7450413,4.3867121,-6.8694951,4.2987412,7697.6454,-3607.6783)"
       cx="27.844063"
       cy="1021.0861"
       fx="27.844063"
       fy="1021.0861"
       r="17.592218" />
    <radialGradient
       inkscape:collect="always"
       xlink:href="#linearGradient3669"
       id="radialGradient3389"
       gradientUnits="userSpaceOnUse"
       gradientTransform="matrix(2.5638659,5.7920643,-4.9198331,2.1778048,5715.2134,-1478.5887)"
       cx="17.360392"
       cy="1023.9149"
       fx="17.360392"
       fy="1023.9149"
       r="17.592218" />
    <linearGradient
       inkscape:collect="always"
       xlink:href="#linearGradient3701"
       id="linearGradient3396"
       gradientUnits="userSpaceOnUse"
       x1="453.88791"
       y1="614.11292"
       x2="546.17651"
       y2="564.36292"
       gradientTransform="translate(228.75,337.01769)" />
    <linearGradient
       inkscape:collect="always"
       xlink:href="#linearGradient3669"
       id="linearGradient3175"
       gradientUnits="userSpaceOnUse"
       gradientTransform="translate(736.1271,721.82993)"
       x1="183.125"
       y1="72.875"
       x2="192.25"
       y2="55.5" />
    <linearGradient
       inkscape:collect="always"
       xlink:href="#linearGradient3669"
       id="linearGradient3181"
       gradientUnits="userSpaceOnUse"
       gradientTransform="matrix(6.400115,0,0,6.400115,699.32227,686.30199)"
       x1="29.022875"
       y1="24.614502"
       x2="37.24147"
       y2="21.310812" />
    <linearGradient
       inkscape:collect="always"
       xlink:href="#linearGradient3669"
       id="linearGradient3184"
       gradientUnits="userSpaceOnUse"
       gradientTransform="matrix(6.400115,0,0,6.400115,692.57227,-5747.4817)"
       x1="22.383869"
       y1="1023.8843"
       x2="15.64438"
       y2="1017.5189" />
    <linearGradient
       inkscape:collect="always"
       xlink:href="#linearGradient3931"
       id="linearGradient3187"
       gradientUnits="userSpaceOnUse"
       gradientTransform="translate(736.1271,-74.53227)"
       x1="147.5"
       y1="843.86218"
       x2="119"
       y2="814.86218" />
    <linearGradient
       inkscape:collect="always"
       xlink:href="#linearGradient3669"
       id="linearGradient3190"
       gradientUnits="userSpaceOnUse"
       gradientTransform="matrix(6.400115,0,0,6.400115,699.32227,686.30199)"
       x1="24.367268"
       y1="29.051037"
       x2="31.867142"
       y2="29.106279" />
    <linearGradient
       inkscape:collect="always"
       xlink:href="#linearGradient3669"
       id="linearGradient3193"
       gradientUnits="userSpaceOnUse"
       gradientTransform="matrix(6.400115,0,0,6.400115,699.32227,686.30199)"
       x1="8.9686985"
       y1="25.84791"
       x2="17.828442"
       y2="29.798435" />
    <radialGradient
       inkscape:collect="always"
       xlink:href="#linearGradient3689"
       id="radialGradient3202"
       gradientUnits="userSpaceOnUse"
       gradientTransform="matrix(2.7450413,4.3867121,-6.8694951,4.2987412,7785.8436,-3635.6783)"
       cx="27.844063"
       cy="1021.0861"
       fx="27.844063"
       fy="1021.0861"
       r="17.592218" />
    <linearGradient
       inkscape:collect="always"
       xlink:href="#linearGradient3669"
       id="linearGradient3240"
       gradientUnits="userSpaceOnUse"
       gradientTransform="matrix(6.400115,0,0,6.400115,699.32227,378.0343)"
       x1="14.269864"
       y1="26.721092"
       x2="25.219465"
       y2="26.058191" />
    <radialGradient
       inkscape:collect="always"
       xlink:href="#linearGradient3669"
       id="radialGradient3243"
       gradientUnits="userSpaceOnUse"
       gradientTransform="matrix(2.5638659,5.7920643,-4.9198331,2.1778048,5803.4116,-1814.8564)"
       cx="17.360392"
       cy="1023.9149"
       fx="17.360392"
       fy="1023.9149"
       r="17.592218" />
    <linearGradient
       inkscape:collect="always"
       xlink:href="#linearGradient3701"
       id="linearGradient3250"
       gradientUnits="userSpaceOnUse"
       x1="777.33038"
       y1="633.50214"
       x2="860.79395"
       y2="559.96307"
       gradientTransform="translate(-1,308.26769)" />
  </defs>
  <sodipodi:namedview
     id="base"
     pagecolor="#ffffff"
     bordercolor="#666666"
     borderopacity="1.0"
     inkscape:pageopacity="0.0"
     inkscape:pageshadow="2"
     inkscape:zoom="0.5"
     inkscape:cx="308.80287"
     inkscape:cy="152.94431"
     inkscape:document-units="px"
     inkscape:current-layer="layer1"
     showgrid="false"
     inkscape:window-width="1393"
     inkscape:window-height="826"
     inkscape:window-x="22"
     inkscape:window-y="24"
     inkscape:window-maximized="0"
     showguides="true"
     inkscape:guide-bbox="true">
    <inkscape:grid
       type="xygrid"
       id="grid2837"
       empspacing="5"
       visible="true"
       enabled="true"
       snapvisiblegridlinesonly="true" />
  </sodipodi:namedview>
  <metadata
     id="metadata7">
    <rdf:RDF>
      <cc:Work
         rdf:about="">
        <dc:format>image/svg+xml</dc:format>
        <dc:type
           rdf:resource="http://purl.org/dc/dcmitype/StillImage" />
        <dc:title></dc:title>
      </cc:Work>
    </rdf:RDF>
  </metadata>
  <g
     inkscape:label="Layer 1"
     inkscape:groupmode="layer"
     id="layer1"
     transform="translate(0,-796.3622)">
    <g
       id="g3214"
       transform="translate(-731.5749,408.95873)">
      <path
         sodipodi:type="arc"
         style="fill:#000000;fill-opacity:0.76862745;fill-rule:evenodd;stroke:none;filter:url(#filter3641)"
         id="path3269"
         sodipodi:cx="23.705973"
         sodipodi:cy="39.252682"
         sodipodi:rx="17.237366"
         sodipodi:ry="2.7197549"
         d="m 40.943338,39.252682 c 0,1.502079 -7.717431,2.719755 -17.237365,2.719755 -9.519935,0 -17.2373661,-1.217676 -17.2373661,-2.719755 0,-1.502079 7.7174311,-2.719755 17.2373661,-2.719755 9.519934,0 17.237365,1.217676 17.237365,2.719755 z"
         transform="matrix(5.7450926,0,0,7.0920193,715.79112,325.50205)" />
      <path
         inkscape:connector-curvature="0"
         sodipodi:nodetypes="sscsscs"
         id="path3271"
         d="m 754.9233,490.27723 c -7.99112,18.16867 -12.56366,50.95749 -6.30023,75.30139 11.27654,43.8282 68.20092,52.4007 86.90127,47.8008 39.71639,5.0451 82.80195,6.5 107.5023,-15.2004 20.39909,-17.9215 26.94109,-38.9852 26.60046,-67.101 -0.85637,-70.68638 -45.60046,-103.6016 -103.90184,-89.00171 -45.20092,-15.90012 -88.63602,-2.19571 -110.80196,48.20092 z"
         style="color:#000000;fill:url(#radialGradient3189);fill-opacity:1;stroke:none;stroke-width:1px;marker:none;visibility:visible;display:inline;overflow:visible;enable-background:accumulate" />
      <path
         sodipodi:nodetypes="ccccccccccccccccccccccccccccccccccccccccccccccccccccccccccccccccccccccccccccccccccccccccccccccccccccccc"
         inkscape:connector-curvature="0"
         id="path3199"
         d="m 838.46875,491.08019 c -3.48063,2.40008 3.31154,4.71492 3.0625,7.6875 2.77566,6.41526 -1.41735,15.53925 1.25,22.09375 4.68636,12.4364 17.70145,20.23547 17.83523,34.24854 0.84814,2.77237 -3.06954,8.47381 1.38352,6.15771 1.63281,-1.42448 -0.13075,-1.76889 0.0312,1.59375 0.47731,3.25534 6.33942,11.96323 9.8125,12.9375 2.19558,1.04014 7.99985,-1.6719 -0.625,-7.5625 -2.09344,-2.54427 -1.7737,-9.37303 -4.625,-11.125 3.57713,-8.56878 -1.70109,-17.43973 -5.92337,-25.01217 -5.83282,-8.88256 -12.42936,-19.29878 -11.73288,-30.45658 0.24951,-3.99621 -1.02171,-8.77264 -5.21875,-9.84375 -2.43458,-1.18612 -2.49618,-0.79354 -5.25,-0.71875 z m -4.5625,2.78125 c -2.43075,1.65126 -0.96966,5.68254 2.0625,4.25 5.55169,2.08522 2.5509,-6.35715 -2.0625,-4.25 z m -37.96875,0.75 c -20.60144,13.20998 -26.05169,42.17342 -15.96875,63.75 2.48517,4.29092 4.07508,10.43213 8.6875,12.75 8.19148,-9.11862 -3.62417,-0.36546 2.25,4.21875 5.73989,3.65554 12.88513,4.90326 19.15625,7.59375 4.41035,1.75893 11.43045,0.11445 10.46875,-4.65625 -11.18265,-1.27245 -18.26514,-5.27625 -21.40625,-9.75 -2.40403,-2.07026 1.36314,-4.94777 -0.4375,-7.65625 0.008,-4.03897 -1.88422,1.26997 -4.15625,0.1875 0.60362,4.0235 -3.1125,-3.584 -4.03125,-4.96875 -10.34091,-18.83229 -9.1491,-44.52288 6.71875,-59.96875 1.26495,-2.6026 2.22089,-2.76813 -1.28125,-1.5 z m 24.75,7.875 c -1.5779,1.99882 -1.25321,6.8844 0.1875,7.75 -2.46608,-0.0543 0.95413,4.18794 -1.125,6 -3.16292,2.42556 3.14981,2.04033 0.0937,3.59375 0.72119,3.20137 -0.32718,-3.00363 -1.28125,1.5625 -1.66026,3.8854 -7.96093,9.04686 -8.0625,13.25 -3.10049,4.71333 -5.15613,9.73059 -5.21875,15.4375 3.66791,4.32343 5.43616,6.80978 7.90625,9.6875 2.2796,5.47433 7.23915,16.0243 8.5625,15.625 -3.74966,-0.4582 -3.17774,1.86503 -2.53125,4.625 2.15967,2.65191 4.58008,3.42231 3.1875,1.65625 9.43163,-3.39609 14.5132,-0.5671 19.0625,-5.625 0.24389,2.39744 -4.03844,2.95369 0.375,2.09375 0.8993,4.0612 3.75867,4.18184 5.125,7 2.95448,2.5393 9.97538,2.59402 12.75,-0.2813 3.44848,-1.34184 11.3971,-2.18646 10.46875,-7.28125 -1.6932,-2.06519 -7.9383,-0.50723 -10.15625,0.46875 -3.37984,3.41411 -10.77136,2.2089 -10.25,-2.34375 -0.46866,-3.67852 0.42926,-11.5862 -4.125,-13.1875 1.13616,-1.24692 0.62082,1.75984 0.6875,2.71875 -3.61788,3.33029 -8.2941,9.10999 -13.5625,7.90625 -2.84104,0.016 -7.15165,-4.52041 -9,-2.28125 -1.40422,-2.14534 2.22291,-6.41091 0.0937,-9.15625 -3.37813,-4.77516 -9.0166,-7.3928 -11.5625,-11.75 3.03855,-2.47593 3.02413,-9.79446 5,-13.03125 1.2332,-5.29946 7.92814,-12.44695 3,-17.25 2.55384,3.6113 6.32434,5.8071 7.1875,3.46875 1.63302,1.51326 10.35777,-2.68508 14.34375,-4.53125 3.13037,-0.62682 -1.70053,-2.4539 -4.40625,-4.15625 -4.70085,-0.50172 6.32125,-1.08254 0.5189,-0.0237 -9.51554,4.34773 -13.59008,1.83902 -11.2689,-3.8201 -1.32783,-1.62874 -1.71332,-1.80593 -0.9375,-4.09375 -0.2617,-2.64988 -4.30007,-0.45476 -5.1875,-6.625 0.0417,0.86458 0.0833,1.72917 0.125,2.59375 z m 9.96875,-1.0625 c -3.19124,0.41345 -5.02461,6.02263 -0.71875,4.875 1.04352,-1.0147 0.0245,1.96952 0.8125,4.1875 3.84855,-0.0643 7.95922,2.36627 10.10584,3.50316 -0.0911,-1.36252 -3.08605,-9.69673 -7.25412,-8.67724 1.1106,-3.42326 -1.51073,-4.24823 -2.94547,-3.88842 z M 836.5,515.14269 c -1.13904,2.31987 -0.61382,1.4357 0.96875,1.875 1.17233,0.90523 1.34424,-3.58327 -0.96875,-1.875 z m 0.75,2.0625 c -2.96539,0.10184 0.87383,-1.22545 0,0 z M 852,544.98644 c -0.62538,2.84693 2.38433,6.96098 2.125,1.625 0.039,-2.28601 -1.49971,-6.07962 -2.125,-1.625 z m -47.9375,3.125 c -1.02901,2.51697 0.4464,3.22484 2.03125,5.125 2.22447,-3.61038 -0.22034,-5.12842 -1.3125,-8.625 -0.23958,1.16667 -0.47917,2.33333 -0.71875,3.5 z m 56.125,-1.59375 c -1.70674,1.29427 -0.45159,-2.87089 0,0 z m -10.25,-14.84375 c -2.00689,0.14462 3.26176,23.22356 1.71875,23.875 -0.89682,3.03029 0.49076,0.86558 1,1.28125 1.02639,3.13636 10.36893,-1.0502 7.15625,-2.625 -1.66674,-0.56089 -7.27663,-24.19994 -9.875,-22.53125 z M 802.5,552.58019 c -1.32182,-0.24909 -3.95454,2.60508 -3.03125,0.71875 -2.96816,-0.23159 -6.51315,1.17761 -5.28125,4.8125 -0.9391,4.30945 5.3362,3.93529 5.09375,1.4375 2.53763,0.0799 3.0976,-5.5004 5.75,-6.84375 -1.04939,-0.85315 -0.92737,-0.54459 -2.53125,-0.125 z m 40.96875,18.6875 c 0.0427,4.63662 -0.74127,5.68742 -0.21875,0.21875 0.0602,-1.95644 -0.0593,-2.28418 0.21875,-0.21875 z m -25.78125,11.75 c -1.98063,2.62063 -7.86291,2.05295 -7.90625,5.65625 4.23164,3.32106 10.48063,3.89856 15.71875,5.0625 8.08498,0.92645 19.16245,0.31076 26.40625,-3.40625 0.43356,-3.00146 -3.25627,-2.38206 -5.09375,-3.8125 -3.85893,4.08225 -28.30234,0.77866 -29.125,-3.5 z"
         style="fill:url(#linearGradient3212);fill-opacity:1;stroke:none" />
      <path
         id="path3273"
         transform="translate(0,308.26769)"
         d="m 829.4375,127.5625 c -31.08166,0.59588 -58.42631,17.85245 -74.53125,54.46875 -7.99112,18.16867 -12.54468,50.93725 -6.28125,75.28125 11.27653,43.8282 68.20591,52.4124 86.90625,47.8125 39.71639,5.0451 82.79965,6.48165 107.5,-15.21875 20.39909,-17.9215 26.93438,-38.97795 26.59375,-67.09375 -0.85637,-70.68644 -45.60487,-103.59989 -103.90625,-89 -11.30023,-3.97503 -22.47524,-6.08628 -33.25,-6.25 -1.01013,-0.0153 -2.02862,-0.0192 -3.03125,0 z m -14.5,53.6875 c 2.53058,-0.0272 5.12876,0.23628 7.625,0.0937 -1.37619,1.19646 -2.71371,2.44192 -3.375,4.25 -2.44406,6.16235 -0.9662,13.39145 -1,20.09375 1.54405,5.72698 -2.08853,9.55375 -5.03125,13.4375 -3.72012,3.76999 -5.59751,8.87808 -7.53125,13.84375 -2.87914,4.08925 -3.45429,9.05112 -4.5625,13.78125 0.27889,6.1423 -6.11949,3.97203 -9.3125,5.625 -1.48039,1.69033 2.40776,12.91221 -1.5,8.40625 -9.06051,-12.30102 -12.81477,-28.01944 -10.5625,-42.1875 2.53946,-16.27599 13.30097,-30.00288 28.0625,-35.6875 2.20787,-1.28924 4.65692,-1.62907 7.1875,-1.65625 z m 26.875,2.53125 c 0.31187,-0.0247 0.8006,0.0128 1.5,0.15625 4.53246,0.30823 8.49759,3.25893 12.40625,5.65625 6.96745,4.79111 13.02701,11.18808 17.3125,18.59375 9.44028,15.34187 11.07564,34.7411 4.21875,49.8125 -1.94769,2.49244 -3.38414,11.13364 -7.34375,6.59375 -5.17352,-1.71924 -2.47468,-9.07986 -7.28125,-9.9375 3.07159,-3.69048 2.15092,-10.49179 0.5625,-15.8125 -1.95771,-9.13641 -9.16699,-15.9699 -12.875,-24.40625 -4.64639,-7.55673 -2.39099,-16.2354 -4.8125,-24.21875 0.37369,-2.36701 -5.87056,-6.26492 -3.6875,-6.4375 z m -4.125,2.40625 c 0.96702,0.23838 2.1004,1.12685 2.375,2.15625 -2.76108,1.34031 -4.76453,0.81564 -2.375,-2.15625 z m -15.09375,7.40625 c 0.24682,-0.0168 0.51995,-0.0136 0.8125,0.0625 2.35721,-0.31346 4.75433,6.70905 1.96875,6.34375 0.0809,-5.44572 -7.00293,-3.31668 -3.5,1.125 -1.67886,2.67185 -2.98361,-7.27945 0.71875,-7.53125 z m 11.4375,0.53125 c 0.21783,-0.004 0.41981,0.0242 0.65625,0.0937 4.52608,-1.36734 8.24123,11.20643 3.1875,9.78125 2.52692,-4.03285 -4.48789,-9.48303 -5.25,-3.40625 -2.9734,1.3853 -1.86127,-6.40773 1.40625,-6.46875 z m -10.75,3.40625 0.5,0.375 c 1.96589,3.76497 -1.23861,1.61551 -0.5,-0.375 z m 12.09375,1.0625 0.59375,0.15625 0.5625,0.3125 c 2.33391,4.05165 -1.41301,0.65339 -1.15625,-0.46875 z m -8.625,2.4375 c 2.939,0.0832 2.14824,0.26066 3.5625,2 1.35197,-1.64037 3.84721,0.87358 6.09375,1.90625 6.29265,2.51007 -3.68351,4.00153 -5.9375,4.625 -3.37568,2.73405 -13.23138,-1.76849 -8.625,-5.84375 1.7636,-3.33539 4.2511,1.01116 4.90625,-2.6875 z m 13.34375,6.65625 c -0.004,0.34906 0.0444,0.70052 -0.0625,1.03125 -2.85217,3.55304 -9.33482,6.09692 -14.40625,5.03125 -4.3224,-2.4751 -0.31543,-2.31005 2.25,-1.84375 4.14658,-0.84115 8.9081,-1.53526 12.21875,-4.21875 z m 3.375,3 c 0.78818,0.52981 1.37045,1.30979 2.21875,1.75 3.57966,4.1039 -3.74258,1.51419 -2.21875,-1.75 z m -22.6875,1.65625 c 1.3493,-0.13242 3.3484,5.90669 6.3125,5.5 4.35777,-0.60011 7.20323,-5.65788 12.15625,-4.75 2.53318,4.10956 4.65367,8.23778 5.59375,12.9375 2.47958,4.91258 5.13913,10.04956 4.65625,15.5 -1.42165,3.59918 2.42392,8.0299 4.8125,4 2.59636,-6.76718 -1.43987,-14.44799 -5.28125,-20.53125 0.98956,-0.94056 4.92326,5.79527 5.78125,8.46875 2.80195,4.43679 0.0416,9.87503 1.21875,13.71875 5.67278,4.48937 -3.64289,-1.46573 -5.53125,1.09375 -0.43394,3.21635 -4.00621,1.24751 -4.90625,4.03125 -0.6028,6.74195 0.16908,13.77863 -1.25,20.375 -2.19702,2.36963 -0.94451,-5.45124 -0.1875,-6.71875 0.76707,-5.82999 -3.52981,-0.50428 -5.28125,0.71875 -4.21116,1.66745 -9.76923,2.15458 -14.0625,-0.65625 -4.30295,-3.47336 -0.43505,1.40398 -0.53125,3.53125 -1.83255,5.53916 -0.56436,-1.7255 -2.8125,-3.59375 -4.46089,-3.77872 3.54979,-4.34759 0.4375,-8.28125 -3.88782,-4.38153 -8.64878,-7.92105 -12.34375,-12.53125 -3.22338,-2.29688 -2.89312,-10.16832 -1.25,-10.4375 -2.68672,2.4091 2.52848,13.86952 3.28125,7.3125 -0.31728,-6.48296 2.1922,-12.38666 5.53125,-17.3125 -0.43027,-3.63202 0.86163,-6.79919 2.5,-9.71875 0.31588,-1.88319 0.70648,-2.61211 1.15625,-2.65625 z M 812,224.53125 c 0.55219,0.009 0.33,1.18935 0.25,1.375 -2.61195,3.29192 -2.02316,0.41393 -0.25,-1.375 z m -6.71875,20.6875 c 0.15445,-0.007 0.32831,0.0176 0.5,0.0312 l 0.625,0.125 c 4.58999,4.1092 7.32447,9.88205 10.625,15 2.6177,3.80638 5.09472,9.68138 1.46875,13.03125 -4.92773,2.13143 -10.34282,-2.27995 -15.4375,-3.40625 -3.23069,-1.39971 -9.93675,-2.32933 -9.71875,-6.5625 3.35304,-3.19493 -3.82782,-11.58138 3.75,-9.96875 6.62668,1.80472 3.39962,-8.03203 8.1875,-8.25 z m 43.875,7.0625 c 2.01764,4.66145 6.2623,7.81942 10.59375,4.09375 6.17434,-2.45929 3.39977,6.4079 7.34375,8.875 5.83181,1.74207 1.22853,5.86484 -1.9375,6.78125 -4.88924,0.4236 -7.70544,4.87678 -12.25,5.8125 -6.74074,0.225 -6.54193,-7.81193 -5.4375,-12.25 0.57533,-4.08076 -2.67927,-11.79999 1.6875,-13.3125 z m -22.1875,21 c 2.74947,0.0181 5.64371,0.55571 8.3125,0.71875 3.18736,0.94728 8.47474,-0.50905 9.9375,3.65625 0.511,2.74971 8.10273,3.48321 6.5,4.4375 -10.92774,4.1258 -23.75984,3.71777 -35.375,-0.84375 -6.84915,-1.61712 1.47943,-3.27185 3.1875,-5.59375 2.10304,-1.89545 4.68803,-2.39308 7.4375,-2.375 z"
         style="color:#000000;fill:url(#radialGradient3205);fill-opacity:1;stroke:none;stroke-width:1px;marker:none;visibility:visible;display:inline;overflow:visible;enable-background:accumulate"
         inkscape:connector-curvature="0" />
      <path
         id="path3275"
         transform="translate(0,308.26769)"
         d="m 846.34375,157.40625 c -3.27505,10.41477 -6.06161,19.92475 -8.53125,28.84375 0.93661,0.28259 1.98778,1.11076 2.25,2.09375 -1.27938,0.62105 -2.40524,0.83139 -3,0.59375 -0.48646,1.78178 -0.91631,3.48855 -1.375,5.21875 1.49596,0.19062 2.81347,1.77263 3.65625,3.625 1.00367,-4.4032 1.93583,-8.59013 2.78125,-12.53125 -0.86641,-0.96854 -1.20668,-1.60813 0.3125,-1.4375 3.0228,-14.22771 4.78721,-24.64432 3.90625,-26.40625 z M 834.6875,197.875 c -0.46801,1.80422 -0.90415,3.56104 -1.34375,5.3125 0.98723,0.54901 2.04832,1.28381 3.0625,1.75 0.48405,0.19308 0.85363,0.38129 1.15625,0.5625 0.1158,-0.49579 0.26041,-1.00736 0.375,-1.5 -0.0213,-0.006 -0.0409,0.006 -0.0625,0 0.0312,-0.0497 0.0655,-0.10613 0.0937,-0.15625 0.15269,-0.65675 0.28712,-1.2869 0.4375,-1.9375 -0.12003,-2.15544 -2.08886,-4.10176 -3.71875,-4.03125 z m 0.6875,0.71875 0.59375,0.15625 0.5625,0.3125 c 2.33391,4.05165 -1.41301,0.65339 -1.15625,-0.46875 z m 1.65625,9.21875 c -1.50842,0.65931 -3.66409,1.09176 -5.21875,1.4375 -0.16119,0.66803 -0.28019,1.30793 -0.4375,1.96875 1.78577,-0.37862 3.55996,-0.82359 5.21875,-1.5 0.15033,-0.63677 0.28882,-1.27351 0.4375,-1.90625 z m -0.96875,4.0625 c -1.61045,0.87419 -3.42389,1.54263 -5.28125,1.875 -0.23325,0.99712 -0.4939,2.01847 -0.71875,3 1.88904,-1.06572 3.63891,-2.59721 5.65625,-3.34375 0.12288,-0.51611 0.22176,-1.01711 0.34375,-1.53125 z m -14.15625,45.84375 c -0.24239,1.37771 -0.48075,2.7867 -0.71875,4.15625 1.0462,-1.102 2.24629,-2.20414 0.71875,-4.15625 z m 1,7.09375 c -0.16378,5.1e-4 -0.13279,0.20479 -0.0625,0.46875 0.0388,-0.15194 0.086,-0.31595 0.125,-0.46875 -0.0166,-0.002 -0.0482,-4e-5 -0.0625,0 z m -2.28125,0.28125 c -0.14415,0.83465 -0.29392,1.6664 -0.4375,2.5 0.27622,1.73931 0.0993,3.41571 -0.84375,4.8125 -0.23322,1.35353 -0.45223,2.70517 -0.6875,4.0625 0.36033,-0.26211 0.66878,-0.53216 0.875,-0.8125 0.26288,-0.23693 0.53455,-0.43006 0.8125,-0.625 10e-4,-0.004 0.0302,0.004 0.0312,0 0.71008,-2.75166 1.13519,-4.46158 1.96875,-7.71875 -0.21137,-0.54395 -0.49017,-1.02395 -0.875,-1.34375 -0.37704,-0.31938 -0.63036,-0.5975 -0.84375,-0.875 z M 817.71875,281.75 c -0.641,3.6436 -1.27394,7.28772 -1.96875,11.03125 0,0 1.75503,-6.78027 2.78125,-10.71875 -0.27401,-0.0942 -0.53962,-0.21376 -0.8125,-0.3125 z"
         style="color:#000000;fill:url(#linearGradient3183);stroke:none;stroke-width:1px;marker:none;visibility:visible;display:inline;overflow:visible;enable-background:accumulate"
         inkscape:connector-curvature="0" />
      <path
         style="color:#000000;fill:url(#linearGradient3180);stroke:none;stroke-width:1px;marker:none;visibility:visible;display:inline;overflow:visible;enable-background:accumulate"
         d="m 834.04965,458.34123 c -70.24534,28.45826 -77.24764,111.47419 -71.52195,131.06809 0.3734,-34.7736 16.09971,-106.42957 71.52195,-131.06809 z"
         id="path3277"
         sodipodi:nodetypes="ccc"
         inkscape:connector-curvature="0" />
      <path
         style="color:#000000;fill:url(#linearGradient3177);stroke:none;stroke-width:1px;marker:none;visibility:visible;display:inline;overflow:visible;enable-background:accumulate"
         d="m 872.5997,466.53237 c 1.96021,12.37195 19.7756,106.05995 13.01228,129.53015 10.91644,-33.0765 0.49777,-106.19496 -13.01228,-129.53015 z"
         id="path3279"
         sodipodi:nodetypes="ccc"
         inkscape:connector-curvature="0" />
      <path
         style="color:#000000;fill:url(#linearGradient3174);fill-opacity:1;stroke:none;stroke-width:1px;marker:none;visibility:visible;display:inline;overflow:visible;enable-background:accumulate"
         d="m 859.96998,443.63126 c 7.5448,-25.60621 12.22058,-33.50115 24.4705,-44.62379 13.03995,-3.42731 25.49405,-1.2867 23.917,10.94052 -22.55759,17.61773 -16.34636,15.16693 -34.57313,37.42098 -6.27329,1.26779 -12.54658,2.53558 -13.81437,-3.73771 z"
         id="path3281"
         sodipodi:nodetypes="ccccc"
         inkscape:connector-curvature="0" />
      <path
         style="color:#000000;fill:url(#linearGradient3171);stroke:none;stroke-width:1px;marker:none;visibility:visible;display:inline;overflow:visible;enable-background:accumulate"
         d="m 830.95891,445.6052 c -10.53996,-3.54375 -24.15912,-1.49699 -36.25996,-0.66562 l -6.32054,3.65959 c 11.86797,-1.28322 32.48143,-6.13323 42.5805,-2.99397 z"
         id="path3283"
         sodipodi:nodetypes="cccc"
         inkscape:connector-curvature="0" />
      <path
         style="color:#000000;fill:url(#linearGradient3168);stroke:none;stroke-width:1px;marker:none;visibility:visible;display:inline;overflow:visible;enable-background:accumulate"
         d="m 905.57812,462.5003 c 21.98074,17.71163 39.52098,90.72082 37.74632,118.12672 11.10824,-41.2711 -13.07365,-104.9165 -37.74632,-118.12672 z"
         id="path3285"
         sodipodi:nodetypes="ccc"
         inkscape:connector-curvature="0" />
      <path
         style="color:#000000;fill:#ffffff;fill-opacity:0.3482143;stroke:none;stroke-width:1px;marker:none;visibility:visible;display:inline;overflow:visible;filter:url(#filter3912);enable-background:accumulate"
         d="M 10.967193,21.127777 C 13.51717,19.18096 18.053408,15.04991 22.869977,14.994464 22.410859,14.138013 13.05043,14.491453 10.967193,21.127777 z"
         id="path3287"
         transform="matrix(6.400115,0,0,6.400115,695.32227,344.57458)"
         sodipodi:nodetypes="ccc"
         inkscape:connector-curvature="0" />
      <path
         sodipodi:type="arc"
         style="fill:#ffffff;fill-opacity:0.3169643;stroke:none;filter:url(#filter3866)"
         id="path3289"
         sodipodi:cx="34.294678"
         sodipodi:cy="182.63766"
         sodipodi:rx="13.435029"
         sodipodi:ry="16.793787"
         d="m 47.729707,182.63766 c 0,9.27496 -6.015068,16.79379 -13.435029,16.79379 -7.419962,0 -13.435029,-7.51883 -13.435029,-16.79379 0,-9.27495 6.015067,-16.79378 13.435029,-16.79378 7.419961,0 13.435029,7.51883 13.435029,16.79378 z"
         transform="matrix(0.8027229,-0.59635219,0.65912613,0.88722009,624.63272,435.38001)" />
      <path
         style="fill:#000000;fill-opacity:0.19642855;stroke:none;filter:url(#filter3900)"
         d="m 892.04415,614.62152 c 28.24198,-13.9481 54.14694,-28.0486 73.89265,-57.2756 0,0 -6.18718,58.6898 -73.89265,57.2756 z"
         id="path3291"
         inkscape:connector-curvature="0"
         sodipodi:nodetypes="ccc" />
      <path
         inkscape:connector-curvature="0"
         style="fill:url(#linearGradient3162);fill-opacity:1;stroke:none"
         d="m 924.8146,445.57127 -7.8125,0.15625 10.65625,1.25 c -0.93725,-0.48914 -1.88166,-0.95974 -2.84375,-1.40625 z"
         id="path3293" />
      <path
         style="fill:#ffffff;fill-opacity:0.35714291;stroke:none;filter:url(#filter3927)"
         d="m 885.50341,399.30753 c 8.78365,1.18703 17.13839,2.8983 21.74353,9.19239 0,0 3.53554,-12.02081 -21.74353,-9.19239 z"
         id="path3295"
         inkscape:connector-curvature="0"
         sodipodi:nodetypes="ccc" />
    </g>
  </g>
</svg>
