<?xml version="1.0" encoding="UTF-8" standalone="no"?>
<!DOCTYPE svg PUBLIC "-//W3C//DTD SVG 20010904//EN"
"http://www.w3.org/TR/2001/REC-SVG-20010904/DTD/svg10.dtd">
<!-- Created with Sodipodi ("http://www.sodipodi.com/") -->
<svg
   id="svg548"
   sodipodi:version="0.32"
   width="400pt"
   height="400pt"
   sodipodi:docbase="/var/www/html/svg_gallery/svg/office"
   sodipodi:docname="book_02.svg"
   inkscape:version="0.38.1"
   xmlns="http://www.w3.org/2000/svg"
   xmlns:inkscape="http://www.inkscape.org/namespaces/inkscape"
   xmlns:sodipodi="http://sodipodi.sourceforge.net/DTD/sodipodi-0.dtd"
   xmlns:xlink="http://www.w3.org/1999/xlink">
  <defs
     id="defs550">
    <linearGradient
       id="linearGradient650">
      <stop
         style="stop-color:#000;stop-opacity:1;"
         offset="0"
         id="stop651" />
      <stop
         style="stop-color:#fff;stop-opacity:1;"
         offset="1"
         id="stop652" />
    </linearGradient>
    <linearGradient
       xlink:href="#linearGradient650"
       id="linearGradient653"
       x1="1.00000548"
       y1="0.53125000"
       x2="1.16666901"
       y2="0.53906250"
       gradientUnits="objectBoundingBox"
       spreadMethod="repeat" />
    <linearGradient
       xlink:href="#linearGradient650"
       id="linearGradient654"
       x1="1.22222710"
       y1="0.46093750"
       x2="1.16666818"
       y2="0.46093750"
       gradientUnits="objectBoundingBox"
       spreadMethod="repeat" />
  </defs>
  <sodipodi:namedview
     id="base"
     showgrid="true"
     inkscape:zoom="0.90750000"
     inkscape:cx="200.00000"
     inkscape:cy="200.00000"
     inkscape:window-width="640"
     inkscape:window-height="500"
     inkscape:window-x="0"
     inkscape:window-y="24" />
  <g
     id="g845"
     style="stroke:#000000;stroke-opacity:1.0000000;stroke-width:10.000000;stroke-dasharray:none;stroke-linejoin:round;">
    <path
       style="fill:#00005b;fill-rule:evenodd;stroke:#000000;stroke-opacity:1.0000000;stroke-width:10.000000;stroke-linejoin:round;stroke-linecap:butt;fill-opacity:1;stroke-dasharray:none;"
       d="M 254.747 53.0062 C 254.747 53.0062 260.285 49.0505 265.032 49.0505 C 268.987 49.8416 273.734 51.4239 274.525 53.7973 C 275.317 56.1707 276.108 394.778 276.108 395.57 C 276.108 396.361 272.151 389.24 265.032 389.24 C 259.493 390.031 258.703 390.823 252.374 394.779 C 246.044 398.735 255.538 54.5885 254.747 53.0062 z "
       id="path681"
       sodipodi:nodetypes="ccccccc"
       transform="" />
    <g
       id="g667"
       style="stroke:#000000;stroke-opacity:1.0000000;stroke-width:10.000000;stroke-dasharray:none;stroke-linejoin:round;">
      <path
         style="fill:#122466;fill-rule:evenodd;stroke:#000000;stroke-opacity:1.0000000;stroke-width:10.000000;stroke-linejoin:round;stroke-linecap:butt;fill-opacity:1;stroke-dasharray:none;"
         d="M 275.317 54.5885 C 274.526 54.5885 276.108 392.405 276.899 393.987 C 277.69 393.196 481.804 372.627 481.804 372.627 L 480.222 38.7657 L 275.317 54.5885 z "
         id="path655"
         sodipodi:nodetypes="ccccc" />
      <g
         id="g662"
         style="stroke:#000000;stroke-opacity:1.0000000;stroke-width:10.000000;stroke-dasharray:none;stroke-linejoin:round;">
        <path
           style="fill:#d0d6d8;fill-rule:evenodd;stroke:#000000;stroke-opacity:1.0000000;stroke-width:10.000000;stroke-linejoin:round;stroke-linecap:butt;fill-opacity:1;stroke-dasharray:none;"
           d="M 475.475 41.1391 C 475.475 41.1391 414.557 48.2594 394.778 59.3354 C 359.969 73.5759 343.354 71.9936 304.589 64.0822 C 268.196 53.7974 268.196 56.9619 268.196 56.9619 L 264.241 69.6201 L 352.848 100.475 L 469.937 56.1708 L 475.475 41.1391 z "
           id="path658"
           sodipodi:nodetypes="cccccccc" />
        <g
           id="g659"
           style="stroke:#000000;stroke-opacity:1.0000000;stroke-width:10.000000;stroke-dasharray:none;stroke-linejoin:round;">
          <path
             style="fill:#f2f2f2;fill-rule:evenodd;stroke:#000000;stroke-opacity:1.0000000;stroke-width:10.000000;stroke-linejoin:round;stroke-linecap:butt;fill-opacity:1;stroke-dasharray:none;"
             d="M 265.032 57.753 C 264.241 57.753 321.203 75.1581 353.639 75.1581 C 386.076 75.1581 393.847 61.8991 427.103 50.6056 C 455.443 38.4937 473.129 39.2848 473.129 39.2848 L 471.519 363.296 C 471.519 363.296 433.094 347.91 398.284 369.57 C 363.473 381.411 314.559 386.104 289.386 383.129 C 273.225 380.974 265.032 369.517 265.032 369.517 L 265.032 57.753 z "
             id="path656"
             transform="matrix(0.965650,0.000000,0.000000,0.966758,9.103529,12.65221)"
             sodipodi:nodetypes="ccccccccc" />
          <path
             style="fill:url(#linearGradient653);fill-rule:evenodd;stroke:#000000;stroke-opacity:1.0000000;stroke-width:10.000000;stroke-linejoin:round;stroke-linecap:butt;fill-opacity:1;stroke-dasharray:none;"
             d="M 464.399 361.551 L 475.475 350.475 L 474.684 41.9302 L 466.772 51.4239 L 464.399 361.551 z "
             id="path657"
             sodipodi:nodetypes="ccccc" />
        </g>
      </g>
    </g>
    <g
       id="g674"
       transform="matrix(-1.000000,0.000000,0.000000,1.000000,529.2728,0.000000)"
       style="stroke:#000000;stroke-opacity:1.0000000;stroke-width:10.000000;stroke-dasharray:none;stroke-linejoin:round;">
      <path
         style="fill:#122466;fill-rule:evenodd;stroke:#000000;stroke-opacity:1.0000000;stroke-width:10.000000;stroke-linejoin:round;stroke-linecap:butt;fill-opacity:1;stroke-dasharray:none;"
         d="M 275.317 54.5885 C 274.526 54.5885 276.108 392.405 276.899 393.987 C 277.69 393.196 481.804 372.627 481.804 372.627 L 480.222 38.7657 L 275.317 54.5885 z "
         id="path675"
         sodipodi:nodetypes="ccccc" />
      <g
         id="g676"
         style="stroke:#000000;stroke-opacity:1.0000000;stroke-width:10.000000;stroke-dasharray:none;stroke-linejoin:round;">
        <path
           style="fill:#d0d6d8;fill-rule:evenodd;stroke:#000000;stroke-opacity:1.0000000;stroke-width:10.000000;stroke-linejoin:round;stroke-linecap:butt;fill-opacity:1;stroke-dasharray:none;"
           d="M 475.475 41.1391 C 475.475 41.1391 414.557 48.2594 394.778 59.3354 C 359.969 73.5759 343.354 71.9936 304.589 64.0822 C 268.196 53.7974 268.196 56.9619 268.196 56.9619 L 264.241 69.6201 L 352.848 100.475 L 469.937 56.1708 L 475.475 41.1391 z "
           id="path677"
           sodipodi:nodetypes="cccccccc" />
        <g
           id="g678"
           style="stroke:#000000;stroke-opacity:1.0000000;stroke-width:10.000000;stroke-dasharray:none;stroke-linejoin:round;">
          <path
             style="fill:#f2f2f2;fill-rule:evenodd;stroke:#000000;stroke-opacity:1.0000000;stroke-width:10.000000;stroke-linejoin:round;stroke-linecap:butt;fill-opacity:1;stroke-dasharray:none;"
             d="M 265.032 57.753 C 264.241 57.753 321.203 75.1581 353.639 75.1581 C 386.076 75.1581 393.847 61.8991 427.103 50.6056 C 455.443 38.4937 473.129 39.2848 473.129 39.2848 L 471.519 363.296 C 471.519 363.296 433.094 347.91 398.284 369.57 C 363.473 381.411 314.559 386.104 289.386 383.129 C 273.225 380.974 265.032 369.517 265.032 369.517 L 265.032 57.753 z "
             id="path679"
             transform="matrix(0.965650,0.000000,0.000000,0.966758,9.103529,12.65221)"
             sodipodi:nodetypes="ccccccccc" />
          <path
             style="fill:url(#linearGradient653);fill-rule:evenodd;stroke:#000000;stroke-opacity:1.0000000;stroke-width:10.000000;stroke-linejoin:round;stroke-linecap:butt;fill-opacity:1;stroke-dasharray:none;"
             d="M 464.399 361.551 L 475.475 350.475 L 474.684 41.9302 L 466.772 51.4239 L 464.399 361.551 z "
             id="path680"
             sodipodi:nodetypes="ccccc" />
        </g>
      </g>
    </g>
  </g>

  <rdf:RDF 
   xmlns="http://web.resource.org/cc/"
   xmlns:dc="http://purl.org/dc/elements/1.1/"
   xmlns:rdf="http://www.w3.org/1999/02/22-rdf-syntax-ns#">
  <Work rdf:about="">
    <dc:title>Clipart by Nicu Buculei - book_01</dc:title>
    <dc:rights>
       <Agent>
         <dc:title>Nicu Buculei</dc:title>
       </Agent>
    </dc:rights>
    <dc:type rdf:resource="http://purl.org/dc/dcmitype/StillImage" />
    <license rdf:resource="http://web.resource.org/cc/PublicDomain" />
  </Work>
   
  <License rdf:about="http://web.resource.org/cc/PublicDomain">
     <permits rdf:resource="http://web.resource.org/cc/Reproduction" />
     <permits rdf:resource="http://web.resource.org/cc/Distribution" />
     <permits rdf:resource="http://web.resource.org/cc/DerivativeWorks" />
  </License>

</rdf:RDF>
</svg>
