<?xml version="1.0" encoding="UTF-8" standalone="no"?>
<!DOCTYPE svg PUBLIC "-//W3C//DTD SVG 20010904//EN"
"http://www.w3.org/TR/2001/REC-SVG-20010904/DTD/svg10.dtd">
<!-- Created with Inkscape (http://www.inkscape.org/) -->
<svg
   id="svg548"
   sodipodi:version="0.32"
   width="400pt"
   height="400pt"
   sodipodi:docbase="/var/www/html/svg_gallery/svg/misc"
   sodipodi:docname="mug.svg"
   inkscape:version="0.38.1"
   xmlns="http://www.w3.org/2000/svg"
   xmlns:inkscape="http://www.inkscape.org/namespaces/inkscape"
   xmlns:sodipodi="http://sodipodi.sourceforge.net/DTD/sodipodi-0.dtd"
   xmlns:xlink="http://www.w3.org/1999/xlink">
  <defs
     id="defs550">
    <linearGradient
       id="linearGradient1177">
      <stop
         style="stop-color:#000000;stop-opacity:0.075;"
         offset="0.00000000"
         id="stop1178" />
      <stop
         style="stop-color:#000000;stop-opacity:0.2;"
         offset="1.00000000"
         id="stop1179" />
    </linearGradient>
    <linearGradient
       id="linearGradient1172">
      <stop
         style="stop-color:#ffffff;stop-opacity:0.683333;"
         offset="0.00000000"
         id="stop1173" />
      <stop
         style="stop-color:#ffffff;stop-opacity:0.141667;"
         offset="1.00000000"
         id="stop1174" />
    </linearGradient>
    <linearGradient
       xlink:href="#linearGradient1172"
       id="linearGradient1175" />
    <linearGradient
       xlink:href="#linearGradient1177"
       id="linearGradient1176"
       x1="-0.00000000"
       y1="0.00000000"
       x2="1.00000000"
       y2="0.00000000" />
  </defs>
  <sodipodi:namedview
     id="base"
     showgrid="true"
     inkscape:zoom="0.77250000"
     inkscape:cx="217.81634"
     inkscape:cy="200.00000"
     inkscape:window-width="400"
     inkscape:window-height="500"
     inkscape:window-x="0"
     inkscape:window-y="24" />
  <g
     id="g841">
    <path
       style="fill:#a3a47f;fill-rule:evenodd;stroke:black;stroke-opacity:1;stroke-width:10.000000;stroke-linejoin:round;stroke-linecap:butt;fill-opacity:1;stroke-dasharray:none;"
       d="M 47.7069 91.4137 C 70.0214 119.115 330.87 139.12 386.272 92.1831 C 360.11 48.3236 49.2458 56.7878 47.7069 91.4137 z "
       id="path1090"
       sodipodi:nodetypes="ccc"
       transform="translate(8.750000,-15.00000)" />
    <path
       style="fill:#000000;fill-rule:evenodd;stroke:none;stroke-opacity:1;stroke-width:1pt;stroke-linejoin:miter;stroke-linecap:butt;fill-opacity:0.3;"
       d="M 54.3653 106.527 C 52.8419 130.455 358.811 120.28 360.105 111.508 C 412.975 140.263 14.3902 151.474 54.3653 106.527 z "
       id="path1097"
       sodipodi:nodetypes="ccc"
       transform="matrix(-1.000000,1.224606e-16,-1.224606e-16,-1.000000,433.1506,191.2741)" />
    <path
       style="fill:#cccc7f;fill-rule:evenodd;stroke:black;stroke-opacity:1;stroke-width:10.000000;stroke-linejoin:round;stroke-linecap:butt;fill-opacity:1;stroke-dasharray:none;"
       d="M 47.7297 90.7618 C 76.014 126.117 355.321 131.42 388.025 91.6457 C 383.959 105.634 371.821 105.115 372.872 121.98 C 372.872 132.587 374.767 414.263 372.999 431.057 C 342.063 475.251 80.4335 483.206 53.0331 429.289 C 52.1492 393.05 52.0223 125.104 52.0223 118.917 C 53.8535 100.351 46.3087 97.5495 47.7297 90.7618 z "
       id="path1089"
       sodipodi:nodetypes="ccccccc"
       transform="translate(8.750000,-15.00000)" />
    <path
       style="fill:#cccc7f;fill-rule:evenodd;stroke:black;stroke-opacity:1;stroke-width:10.000000;stroke-linejoin:round;stroke-linecap:butt;fill-opacity:1;stroke-dasharray:none;"
       d="M 373.96 155.279 C 373.96 155.279 403.97 127.579 430.131 128.348 C 468.605 132.965 475.53 228.378 462.449 277.624 C 454.754 323.022 408.585 347.646 374.729 353.032 L 373.191 317.637 C 373.191 317.637 424.745 306.095 430.9 276.085 C 437.057 262.235 446.291 175.285 425.515 173.746 C 404.739 172.207 373.96 199.139 373.96 199.139 L 373.96 155.279 z "
       id="path1092"
       sodipodi:nodetypes="ccccccccc"
       transform="translate(8.750000,-15.00000)" />
    <path
       style="fill:#000000;fill-rule:evenodd;stroke:none;stroke-opacity:1;stroke-width:1pt;stroke-linejoin:miter;stroke-linecap:butt;fill-opacity:0.3;"
       d="M 56.8394 110.65 C 127.889 136.228 338.194 127.702 360.93 117.281 C 355.246 141.912 72.9434 145.701 56.8394 110.65 z "
       id="path1093"
       sodipodi:nodetypes="ccc"
       transform="translate(8.750000,-15.00000)" />
    <path
       style="fill:url(#linearGradient1176);fill-rule:evenodd;stroke:none;stroke-opacity:1;stroke-width:1pt;stroke-linejoin:miter;stroke-linecap:butt;fill-opacity:1;"
       d="M 219.779 463.054 C 297.459 459.265 332.51 456.423 369.456 429.898 C 369.456 420.425 370.403 251.801 370.403 251.801 C 370.403 251.801 355.246 406.215 219.779 463.054 z "
       id="path1094"
       sodipodi:nodetypes="cccc"
       transform="translate(8.750000,-15.00000)" />
    <path
       style="fill:url(#linearGradient1175);fill-rule:evenodd;stroke:none;stroke-opacity:1;stroke-width:1pt;stroke-linejoin:miter;stroke-linecap:butt;fill-opacity:1;"
       d="M 202.727 144.754 C 165.782 147.596 81.4698 144.754 58.734 126.754 C 57.7867 147.595 59.6814 394.847 59.6814 394.847 C 79.5752 300.115 89.0483 168.437 202.727 144.754 z "
       id="path1095"
       sodipodi:nodetypes="cccc"
       transform="translate(8.750000,-15.00000)" />
    <path
       style="fill:#ffffff;fill-rule:evenodd;stroke:none;stroke-opacity:1;stroke-width:1pt;stroke-linejoin:miter;stroke-linecap:butt;fill-opacity:0.51;"
       d="M 463.241 110.65 C 483.134 116.334 475.556 143.807 471.767 158.016 C 462.293 175.068 433.874 196.857 419.664 200.646 C 438.611 183.594 467.977 144.753 463.241 110.65 z "
       id="path1096"
       sodipodi:nodetypes="cccc"
       transform="translate(-13.03844,126.1511)" />
  </g>

  <rdf:RDF 
   xmlns="http://web.resource.org/cc/"
   xmlns:dc="http://purl.org/dc/elements/1.1/"
   xmlns:rdf="http://www.w3.org/1999/02/22-rdf-syntax-ns#">
  <Work rdf:about="">
    <dc:title>Clipart by Nicu Buculei - book_01</dc:title>
    <dc:rights>
       <Agent>
         <dc:title>Nicu Buculei</dc:title>
       </Agent>
    </dc:rights>
    <dc:type rdf:resource="http://purl.org/dc/dcmitype/StillImage" />
    <license rdf:resource="http://web.resource.org/cc/PublicDomain" />
  </Work>
   
  <License rdf:about="http://web.resource.org/cc/PublicDomain">
     <permits rdf:resource="http://web.resource.org/cc/Reproduction" />
     <permits rdf:resource="http://web.resource.org/cc/Distribution" />
     <permits rdf:resource="http://web.resource.org/cc/DerivativeWorks" />
  </License>

</rdf:RDF>
</svg>
