<?xml version="1.0" encoding="UTF-8" standalone="no"?>
<!-- Created with Inkscape (http://www.inkscape.org/) -->
<svg
   xmlns:dc="http://purl.org/dc/elements/1.1/"
   xmlns:cc="http://web.resource.org/cc/"
   xmlns:rdf="http://www.w3.org/1999/02/22-rdf-syntax-ns#"
   xmlns:svg="http://www.w3.org/2000/svg"
   xmlns="http://www.w3.org/2000/svg"
   xmlns:xlink="http://www.w3.org/1999/xlink"
   xmlns:sodipodi="http://sodipodi.sourceforge.net/DTD/sodipodi-0.dtd"
   xmlns:inkscape="http://www.inkscape.org/namespaces/inkscape"
   width="400"
   height="400"
   id="svg1"
   sodipodi:version="0.32"
   inkscape:version="0.45"
   sodipodi:docbase="/var/www/html/svg_gallery/svg/office"
   sodipodi:docname="package.svg"
   inkscape:output_extension="org.inkscape.output.svg.inkscape"
   sodipodi:modified="true"
   version="1.0">
  <defs
     id="defs3">
    <linearGradient
       id="linearGradient2446">
      <stop
         style="stop-color:#e0e0e0;stop-opacity:1.0000000;"
         offset="0.0000000"
         id="stop2447" />
      <stop
         style="stop-color:#ffffff;stop-opacity:1.0000000;"
         offset="1.0000000"
         id="stop2448" />
    </linearGradient>
    <linearGradient
       id="linearGradient2414">
      <stop
         style="stop-color:#e3b681;stop-opacity:1.0000000;"
         offset="0.0000000"
         id="stop2415" />
      <stop
         style="stop-color:#fde8b0;stop-opacity:1.0000000;"
         offset="1.0000000"
         id="stop2416" />
    </linearGradient>
    <linearGradient
       inkscape:collect="always"
       xlink:href="#linearGradient2414"
       id="linearGradient2417"
       gradientTransform="matrix(1.074789,0,0,0.930415,1,53)"
       x1="278.57925"
       y1="292.6955"
       x2="185.43509"
       y2="206.95964"
       gradientUnits="userSpaceOnUse" />
    <linearGradient
       inkscape:collect="always"
       xlink:href="#linearGradient2414"
       id="linearGradient2421"
       gradientTransform="matrix(0.923936,0,0,1.082326,1,53)"
       x1="105.50127"
       y1="249.09824"
       x2="181.91243"
       y2="184.14174"
       gradientUnits="userSpaceOnUse" />
    <linearGradient
       inkscape:collect="always"
       xlink:href="#linearGradient2414"
       id="linearGradient2425"
       gradientTransform="matrix(1.464905,0,0,0.682638,1,53)"
       x1="242.88925"
       y1="281.30658"
       x2="155.25755"
       y2="210.24693"
       gradientUnits="userSpaceOnUse" />
    <linearGradient
       inkscape:collect="always"
       xlink:href="#linearGradient2414"
       id="linearGradient2429"
       gradientTransform="matrix(1.126112,0,0,0.888011,1,53)"
       x1="59.088074"
       y1="219.26735"
       x2="154.06703"
       y2="158.9174"
       gradientUnits="userSpaceOnUse" />
    <linearGradient
       inkscape:collect="always"
       xlink:href="#linearGradient2414"
       id="linearGradient2433"
       gradientTransform="matrix(1.183216,0,0,0.845154,1,53)"
       x1="293.39136"
       y1="44.553894"
       x2="201.4973"
       y2="119.48067"
       gradientUnits="userSpaceOnUse" />
    <linearGradient
       inkscape:collect="always"
       xlink:href="#linearGradient2414"
       id="linearGradient2437"
       gradientTransform="matrix(1.367131,0,0,0.731459,1,53)"
       x1="77.193398"
       y1="33.315296"
       x2="146.54892"
       y2="114.86623"
       gradientUnits="userSpaceOnUse" />
    <linearGradient
       inkscape:collect="always"
       xlink:href="#linearGradient2414"
       id="linearGradient2441"
       gradientTransform="matrix(1.080123,0,0,0.92582,1,53)"
       x1="286.47586"
       y1="118.48305"
       x2="272.26962"
       y2="142.41504"
       gradientUnits="userSpaceOnUse" />
    <linearGradient
       inkscape:collect="always"
       xlink:href="#linearGradient2414"
       id="linearGradient2445"
       gradientTransform="matrix(0.88075,0,0,1.135396,1,53)"
       x1="118.92645"
       y1="96.167511"
       x2="137.29349"
       y2="112.79904"
       gradientUnits="userSpaceOnUse" />
    <linearGradient
       inkscape:collect="always"
       xlink:href="#linearGradient2446"
       id="linearGradient2449"
       gradientTransform="matrix(1.140232,0,0,0.877015,1,53)"
       x1="211.84027"
       y1="162.05029"
       x2="164.58022"
       y2="115.26358"
       gradientUnits="userSpaceOnUse" />
    <linearGradient
       inkscape:collect="always"
       xlink:href="#linearGradient2446"
       id="linearGradient2453"
       gradientTransform="matrix(0.673357,0,0,1.485096,1,53)"
       x1="212.28732"
       y1="86.987061"
       x2="179.59641"
       y2="60.985897"
       gradientUnits="userSpaceOnUse" />
  </defs>
  <sodipodi:namedview
     id="base"
     pagecolor="#ffffff"
     bordercolor="#666666"
     borderopacity="1.0"
     inkscape:pageopacity="0.0"
     inkscape:pageshadow="2"
     inkscape:zoom="1"
     inkscape:cx="272.5258"
     inkscape:cy="239.50003"
     inkscape:current-layer="svg1"
     inkscape:window-width="1095"
     inkscape:window-height="724"
     inkscape:window-x="0"
     inkscape:window-y="38"
     height="400px"
     width="400px" />
  <metadata
     id="metadata4">
    <rdf:RDF>
      <cc:Work
         rdf:about="">
        <dc:format>image/svg+xml</dc:format>
        <dc:type
           rdf:resource="http://purl.org/dc/dcmitype/StillImage" />
      </cc:Work>
    </rdf:RDF>
  </metadata>
  <g
     inkscape:label="Layer 1"
     inkscape:groupmode="layer"
     id="layer1" />
  <path
     style="fill:url(#linearGradient2453);fill-opacity:1;fill-rule:evenodd;stroke:none;stroke-width:1pt;stroke-linecap:butt;stroke-linejoin:miter;stroke-opacity:1"
     d="M 150.46429,116.21429 C 150.46429,116.21429 111.89286,109.78571 112.42857,113.53571 C 112.96429,117.28571 118.85714,129.60714 119.92857,142.46429 C 121,155.32143 123.67857,179.96429 125.82143,186.39286 C 127.96429,192.82143 130.10714,191.21429 130.10714,191.21429 C 130.10714,191.21429 146.70873,196.8971 149.39286,196.57143 C 152.60714,199.25 148.32143,125.32143 150.46429,116.21429 z "
     id="path2405"
     sodipodi:nodetypes="ccccccc" />
  <path
     style="fill:url(#linearGradient2449);fill-opacity:1;fill-rule:evenodd;stroke:none;stroke-width:1pt;stroke-linecap:butt;stroke-linejoin:miter;stroke-opacity:1"
     d="M 150.46429,100.14286 C 150.46429,100.14286 219.57143,106.03571 224.39286,105.5 C 229.21429,104.96429 277.42857,101.75 280.64286,101.75 C 283.85714,101.75 276.35714,130.14286 277.42857,133.35714 C 278.5,136.57143 277.42857,182.10714 277.96429,183.71429 C 278.5,185.32143 211.18123,197.34612 203.43677,198.94779 C 197.99997,200.08792 185.82143,203 185.28571,205.67857 C 184.75,208.35714 156.35714,201.92857 154.21429,197.64286 C 152.07143,193.35714 142.42857,170.85714 143.5,167.10714 C 144.57143,163.35714 145.10714,123.17857 146.17857,118.35714 C 147.25,113.53571 151,104.96429 150.46429,100.14286 z "
     id="path1782"
     sodipodi:nodetypes="ccccccccccc" />
  <path
     style="fill:url(#linearGradient2429);fill-opacity:1;fill-rule:evenodd;stroke:none;stroke-width:1pt;stroke-linecap:butt;stroke-linejoin:miter;stroke-opacity:1"
     d="M 180.51768,207.58594 C 181.465,213.26988 172.9391,273.89854 172.9391,273.89854 L 130.30957,254.95208 L 108.99481,246.89984 L 68.733584,218.00649 L 47.41882,205.6913 L 34.629961,197.16539 L 43.629528,187.69216 L 66.838938,173.48232 L 87.20638,158.79881 L 106.6265,176.32429 L 123.20465,188.63948 C 123.20465,188.63948 146.41406,198.11271 148.3087,196.69173 C 150.20335,195.27074 180.51768,207.58594 180.51768,207.58594 z "
     id="path2406" />
  <path
     style="fill:url(#linearGradient2425);fill-opacity:1;fill-rule:evenodd;stroke:none;stroke-width:1pt;stroke-linecap:butt;stroke-linejoin:miter;stroke-opacity:1"
     d="M 185.72796,203.79665 L 205.14808,198.58637 L 247.30394,191.00779 L 286.61784,183.42921 L 313.14288,177.74527 L 325.45808,181.53456 L 333.98398,192.90244 L 344.8782,202.37567 L 364.29831,214.2172 L 373.29788,218.00649 L 362.40367,221.32212 L 342.03623,224.63775 L 315.98485,232.21634 L 273.35532,245.47886 L 244.93563,255.42575 L 215.56863,262.05701 L 201.83245,265.37264 L 185.2543,216.11185 L 185.72796,203.79665 z "
     id="path2407" />
  <path
     style="fill:url(#linearGradient2433);fill-opacity:1;fill-rule:evenodd;stroke:none;stroke-width:1pt;stroke-linecap:butt;stroke-linejoin:miter;stroke-opacity:1"
     d="M 316.45851,175.37696 L 291.82812,156.90417 L 276.67095,153.58854 L 278.5656,101.48578 L 232.14678,104.80141 L 236.40973,97.696491 L 244.93563,85.854955 L 260.0928,75.908065 L 284.24953,85.854955 L 316.93217,96.275507 L 342.98355,104.32775 L 371.40324,117.59027 L 367.61394,130.85279 L 353.87776,142.69433 C 353.87776,142.69433 334.88024,158.12354 327.35272,166.3774 C 323.08977,174.9033 316.45851,175.37696 316.45851,175.37696 z "
     id="path2408"
     sodipodi:nodetypes="cccccccccccccccc" />
  <path
     style="fill:url(#linearGradient2437);fill-opacity:1;fill-rule:evenodd;stroke:none;stroke-width:1pt;stroke-linecap:butt;stroke-linejoin:miter;stroke-opacity:1"
     d="M 211.53571,103.35714 L 191.17857,65.857143 L 166.53571,76.035714 L 145.10714,84.071429 L 118.85714,90.5 L 100.64286,94.25 L 79.75,99.071429 L 43.321429,103.89286 L 54.571429,113.53571 L 70.642857,130.14286 L 85.642857,147.82143 L 90.464286,155.85714 L 102.94955,151.03571 L 118.85714,144.60714 L 112.42857,113 L 145.64286,115.67857 L 146.17857,100.14286 L 155.82143,99.071429 L 185.82143,102.82143 L 211.53571,103.35714 z "
     id="path2409"
     sodipodi:nodetypes="cccccccccccccccccccc" />
  <path
     style="fill:url(#linearGradient2421);fill-opacity:1;fill-rule:evenodd;stroke:none;stroke-width:1pt;stroke-linecap:butt;stroke-linejoin:miter;stroke-opacity:1"
     d="M 84.035714,229.78571 L 85.642857,257.10714 L 84.035714,294.60714 L 113.5,319.25 L 158.5,338 L 174.57143,339.60714 L 177.78571,279.07143 L 176.17857,266.75 L 167.60714,273.71429 L 130.64286,254.42857 L 104.92857,245.32143 L 84.035714,229.78571 z "
     id="path2410" />
  <path
     style="fill:url(#linearGradient2417);fill-opacity:1;fill-rule:evenodd;stroke:none;stroke-width:1pt;stroke-linecap:butt;stroke-linejoin:miter;stroke-opacity:1"
     d="M 184.75,214.78571 L 202.42857,264.60714 L 221.17857,262.46429 L 257.60714,252.28571 L 304.21429,236.75 L 316,233.53571 L 314.39286,257.10714 L 315.46429,303.17857 L 313.85714,308 L 295.10714,312.82143 L 251.71429,328.35714 L 215.28571,332.10714 L 180.46429,339.07143 L 172.42857,339.07143 L 177.25,275.32143 L 178.85714,225.5 L 184.75,214.78571 z "
     id="path2411" />
  <path
     style="fill:url(#linearGradient2445);fill-opacity:1;fill-rule:evenodd;stroke:none;stroke-width:1pt;stroke-linecap:butt;stroke-linejoin:miter;stroke-opacity:1"
     d="M 119.39286,144.60714 L 103.05357,150.5 C 97.696429,152.10714 94.75,153.98215 93.678571,154.78571 C 92.339286,161.21428 97.964286,169.25 97.964286,169.25 L 115.10714,183.71429 L 127.96429,189.07143 L 123.14286,161.75 C 123.14286,161.75 119.39286,145.67857 119.39286,144.60714 z "
     id="path2412"
     sodipodi:nodetypes="cccccccc" />
  <path
     style="fill:url(#linearGradient2441);fill-opacity:1;fill-rule:evenodd;stroke:none;stroke-width:1pt;stroke-linecap:butt;stroke-linejoin:miter;stroke-opacity:1"
     d="M 279.03571,151.30357 L 280.64286,183.44643 L 316.53571,177.55357 L 295.375,159.33929 L 279.03571,151.30357 z "
     id="path2413" />
  <path
     style="fill:#000000;fill-opacity:1;fill-rule:nonzero;stroke:none;stroke-width:1pt;stroke-linecap:butt;stroke-linejoin:miter;stroke-opacity:1"
     d="M 201.4349,62.564663 C 198.46765,64.550566 194.68386,63.81755 191.38941,64.821428 C 185.84158,65.842484 180.79244,68.424219 175.85036,71.021802 C 156.79862,80.280884 136.64026,87.639024 115.62509,90.796285 C 96.977825,94.528161 78.52482,100.20296 59.371026,100.54205 C 55.681848,100.46766 51.871916,100.4682 48.321096,99.434966 C 47.155876,96.754956 44.316675,100.40369 42.413043,100.89698 C 40.653925,102.15812 36.999158,103.22801 36.444603,104.61067 C 38.428713,106.67286 40.831132,108.15967 43.263827,109.60295 C 49.059863,113.20533 55.117947,116.57896 59.872417,121.57022 C 66.862919,128.00763 74.547919,134.19158 78.989295,142.78828 C 81.175166,147.80065 82.217764,153.22608 82.790056,158.6395 C 81.698494,160.46909 81.916059,160.21857 81.541209,160.41415 C 81.806192,162.82379 77.529047,163.29563 76.075054,165.49556 C 65.310351,174.82242 52.48467,181.26416 40.692286,189.11862 C 36.952992,192.04542 33.765249,195.75696 29.449219,197.88615 C 29.060039,199.77009 32.870168,199.43008 34.084321,200.61995 C 48.823638,207.13555 62.157669,216.3282 75.336741,225.49517 C 77.821143,228.05409 82.692791,229.489 82.026115,233.72575 C 83.020911,245.92001 84.966414,258.27447 82.675011,270.44787 C 82.122072,274.90854 80.75503,279.19758 79.347402,283.44051 C 78.20229,287.98792 77.816071,292.72023 76.232709,297.15631 C 77.174151,296.48221 79.197473,296.01282 77.004679,296.96995 C 74.995342,299.01691 80.092582,298.69049 81.138567,299.80369 C 98.286054,306.90226 111.53154,320.46741 127.60564,329.41621 C 139.33434,336.12145 153.62223,336.30022 165.15005,343.45609 C 167.12399,346.01551 169.91679,343.31087 171.70051,342.05522 C 174.14143,341.30563 167.25102,344.65331 171.10088,343.30964 C 179.54727,340.68083 188.26486,339.06262 196.79624,336.75518 C 213.82717,333.31693 231.70185,336.16637 248.3966,330.71815 C 266.16085,325.45591 283.7639,319.60564 300.96826,312.71949 C 303.54311,312.20013 307.43911,310.28936 309.34787,311.38066 C 312.18801,310.94513 315.33197,308.44912 318.30816,307.27557 C 320.30154,306.62241 321.57279,305.71166 320.49573,303.57817 C 319.79271,299.18403 319.72157,294.65869 318.31419,290.40592 C 315.82846,272.00562 316.50861,253.38267 316.46114,234.87736 C 317.79514,232.56111 321.14324,232.82165 323.29993,231.53718 C 331.46602,228.60111 339.84085,226.15565 348.42521,224.80666 C 354.25684,222.71423 360.32322,225.34254 366.25491,225.12014 C 369.3393,224.34768 371.08914,220.71439 374.59774,221.2795 C 376.11801,220.19826 380.41982,217.80362 376.0827,217.39442 C 370.8162,215.92876 365.82947,213.59538 360.90551,211.24625 C 350.76105,206.13966 341.16991,199.54974 333.70807,190.91476 C 329.71052,186.09659 326.56122,180.25562 326.1679,173.90417 C 327.16477,171.652 328.58102,169.60316 329.21678,167.20695 C 333.45351,158.68518 341.54465,154.72785 349.109,147.7605 C 356.10229,142.87816 363.56662,138.24598 368.85031,131.41339 C 371.93056,127.05699 373.66107,121.95359 376.26978,117.33128 C 378.6268,116.33731 375.75031,115.3156 374.52475,115.40915 C 358.25928,110.22284 343.89792,99.801423 326.87589,96.882927 C 321.15788,96.137363 315.60797,94.592302 310.09377,92.952908 C 301.05454,90.263429 292.04096,87.385851 283.30803,83.826022 C 278.49062,81.547071 272.68357,79.970791 269.73116,75.155513 C 269.0151,73.341728 268.82128,69.959044 266.39053,72.316853 C 264.17513,73.698654 264.38092,72.328834 266.26493,71.421501 C 267.04898,70.913253 269.15546,69.312692 267.18296,70.732731 C 264.48783,72.903227 261.30326,74.213028 258.10434,75.41589 C 251.23155,78.514659 245.53393,83.699804 240.84905,89.524499 C 237.48746,93.133796 234.20494,96.928587 232.00777,101.37019 C 229.82582,103.54489 226.52961,102.21487 223.82651,102.44022 C 221.06328,102.39947 218.29958,102.45756 215.53639,102.4098 C 210.8568,98.666523 207.34773,93.525463 205.62065,87.784116 C 204.06859,84.573484 202.64802,81.152879 203.06698,77.503636 C 203.25927,72.887577 204.28515,67.859972 201.80471,63.639875 L 201.58996,63.113007 L 201.4349,62.564663 z M 191.03645,69.512548 C 193.05909,76.422506 198.31444,82.052915 199.37311,89.295841 C 201.05847,93.894912 204.26578,97.674552 207.02257,101.64987 C 205.26736,103.1628 202.14961,101.83759 199.76774,102.20937 C 186.44404,101.89532 172.93932,101.60133 159.96816,98.238591 C 156.91851,97.926952 154.70979,94.883659 151.94571,94.72296 C 149.63631,96.136695 147.58735,97.979708 145.17276,99.263011 C 143.03814,100.51928 140.83097,101.64531 138.6358,102.79048 C 138.74578,105.19974 141.51626,106.54064 141.82975,109.0542 C 143.58685,112.24551 139.56702,111.51031 137.70525,111.68218 C 131.62664,111.97378 125.30383,111.95342 119.59744,109.56088 C 117.79487,106.64904 115.06178,109.05966 113.03692,110.21104 C 110.46596,111.60044 107.895,112.98984 105.32405,114.37924 C 106.76229,116.10984 108.38717,117.71968 109.66869,119.5514 C 113.78365,126.51822 114.75671,134.69349 116.69876,142.39925 C 117.02047,145.70449 112.54569,145.00454 110.5845,146.43061 C 105.73626,148.44686 101.02867,150.79323 96.431136,153.32667 C 84.447811,140.76328 71.307902,129.38533 58.796277,117.366 C 55.252232,113.74758 51.723553,109.95183 49.535252,105.32735 C 74.875552,100.10532 100.48146,96.211247 125.72019,90.496205 C 142.77862,86.423259 159.75516,81.388063 175.39656,73.321071 C 180.33469,71.135876 185.69358,70.093171 191.03645,69.512548 z M 257.70997,78.517681 C 266.8698,80.691888 275.22848,85.285495 284.35013,87.598999 C 299.03564,91.945907 314.14434,95.037218 328.30312,101.01458 C 341.37297,105.83043 355.44379,109.57344 366.13499,118.97889 C 368.48105,120.3243 369.01205,122.31081 367.47688,124.52038 C 364.72552,131.04153 359.77454,136.25929 354.59863,140.94135 C 342.98714,151.87808 329.82647,161.127 318.99724,172.89857 C 315.37328,172.81937 311.48721,171.77141 309.29912,168.66997 C 302.88682,162.13769 294.88453,157.3042 286.27042,154.27231 C 284.15561,153.20548 280.55218,153.21226 281.5945,149.94349 C 281.27434,135.87869 279.75974,121.32866 284.32282,107.73828 C 285.18115,105.06279 286.50792,102.28689 286.17959,99.437926 C 284.94624,96.902751 281.68582,97.737677 279.50895,98.259732 C 265.45691,101.03937 251.15382,102.68728 236.81955,102.69969 C 236.23319,97.854187 238.76498,92.958863 242.82771,90.34136 C 245.77398,88.035063 248.62542,85.590575 251.26442,82.950724 C 253.35859,81.398273 255.39762,79.743313 257.70997,78.517681 z M 152.45371,101.67106 C 178.06926,101.96442 203.44565,106.96621 229.09779,106.15175 C 243.05115,107.36257 256.88386,103.61293 270.83822,104.61837 C 274.4658,104.00818 275.3373,108.40038 274.67256,111.07122 C 274.88156,117.64095 275.53461,124.19782 275.2459,130.77866 C 275.01473,143.09114 274.34391,155.39545 274.43576,167.71273 C 274.29068,173.26397 273.97737,178.81372 273.3731,184.335 C 252.49205,188.50924 231.55048,192.38798 210.74647,196.93915 C 204.50753,198.24543 198.1828,199.18432 191.96184,200.53143 C 189.19987,201.09055 185.75173,203.51649 183.80307,203.85575 C 184.85417,203.35146 183.52332,205.02137 181.3271,203.15064 C 176.40681,200.17309 170.57708,199.20397 165.01331,198.10174 C 162.25654,197.18065 158.05632,197.92221 156.16356,196.19133 C 154.31484,187.39447 150.72527,179.10252 148.16515,170.51712 C 146.51815,163.22694 146.48339,155.66879 146.76086,148.23168 C 147.23469,136.62234 149.35944,125.15807 149.97159,113.56161 C 151.05735,111.35655 149.72051,108.86953 150.34924,106.54365 C 150.89172,104.67672 149.1597,100.70037 152.45371,101.67106 z M 117.99482,117.08172 C 125.86603,117.49588 133.78492,117.64142 141.56816,119.00295 C 144.67253,119.01971 143.15932,123.17573 143.48806,125.14174 C 143.37368,131.68718 144.95418,138.12336 144.66062,144.67009 C 144.4739,153.98953 142.74477,163.17531 141.7116,172.41708 C 142.36976,179.69908 144.79273,186.66177 146.24195,193.79202 C 147.05597,197.00875 142.46072,194.19321 140.78331,194.36821 C 137.99228,193.75584 135.22985,192.99266 132.55451,191.98422 C 130.1671,182.87366 129.0219,173.42169 125.56424,164.60926 C 122.85666,155.47228 123.86742,145.69611 121.07857,136.56959 C 119.53129,130.17218 118.31688,123.66696 117.99482,117.08172 z M 117.4618,146.09825 C 119.429,155.20926 121.93222,164.42971 121.11756,173.8377 C 121.31587,178.07924 122.65756,182.17346 122.85307,186.4153 C 120.52929,185.50308 118.89603,183.45637 116.73281,182.24713 C 108.10429,175.75723 100.09226,168.08148 94.615561,158.70126 C 93.642442,156.24592 95.511502,154.17065 97.927503,153.67045 C 100.69255,153.179 111.14879,149.76098 117.4618,146.09825 z M 281.76106,156.01979 C 287.42976,157.36686 292.52769,160.52134 296.58937,164.6544 C 301.05337,168.73029 305.31178,173.33679 311.08969,175.54635 C 312.61441,176.13659 313.82856,176.69712 311.48394,176.81931 C 303.09345,178.42469 294.71039,180.06865 286.33375,181.74473 C 284.18193,177.09756 282.3421,172.20291 282.18288,167.02432 C 281.87918,163.36384 281.9103,159.68746 281.76106,156.01979 z M 84.293378,162.00452 C 90.800112,166.16352 95.857511,172.15095 102.19445,176.54179 C 111.43838,183.49552 121.70355,189.12142 132.538,193.16926 C 145.0548,197.65161 158.55241,199.78699 170.07709,206.74172 C 173.43939,208.36468 174.26122,212.45655 174.98397,215.78168 C 176.16067,223.26535 174.72322,230.85058 173.24115,238.18296 C 171.69017,244.32529 170.70272,250.59468 170.45875,256.92859 C 170.21631,260.75712 170.04356,264.59126 169.67848,268.41095 C 165.83052,266.78888 161.89091,265.3202 158.37626,263.02634 C 147.60503,257.21725 135.73211,253.92549 123.91928,251.00307 C 107.76277,245.65918 94.42746,234.62699 81.415318,224.05849 C 74.0317,217.62278 64.748257,214.13522 56.633945,208.80045 C 50.310302,204.68479 44.087313,199.4571 41.54004,192.10578 C 50.822998,183.36377 62.412041,177.73264 72.711675,170.35607 C 76.646986,167.67807 80.525118,164.91371 84.293378,162.00452 z M 314.15334,178.83654 C 326.90187,184.94828 335.52013,196.65801 346.78782,204.81467 C 353.86634,210.00916 362.35192,212.88457 369.30629,218.27024 C 357.4362,219.95283 345.97973,223.62192 334.3756,226.51433 C 312.52013,232.51951 290.84997,239.17868 269.14007,245.67951 C 252.81024,251.16336 236.9444,258.95307 219.58136,260.56713 C 216.87582,260.77365 214.1506,260.77897 211.44995,260.49991 C 209.82103,262.4981 206.6651,263.60176 206.0706,260.18273 C 201.91962,253.49075 197.1726,246.65773 196.49716,238.56791 C 194.86928,228.97807 190.62221,220.12238 188.14695,210.76128 C 189.6071,208.33189 188.62435,203.80794 191.44676,202.85351 C 211.41864,196.88839 232.28251,195.07468 252.6269,190.81835 C 273.15263,186.91133 293.61322,182.66878 314.15334,178.83654 z M 184.06051,225.47995 C 186.52088,232.44844 187.89335,239.7962 191.03816,246.51901 C 193.75802,254.34383 193.79811,263.02494 197.92273,270.36508 C 200.42053,271.35858 201.94553,267.92172 204.44842,267.92123 C 231.59161,259.70281 259.36397,253.74846 286.51425,245.55433 C 295.61016,242.55568 304.44558,238.84406 313.3398,235.30797 C 312.37503,254.73832 315.64154,274.30802 312.55619,293.63521 C 311.66647,297.52803 310.4645,301.40852 310.49906,305.43912 C 309.77831,308.24641 306.31867,307.61012 304.21123,308.4674 C 298.41659,310.40486 292.86564,313.00202 287.10421,315.04136 C 272.04673,320.75449 256.56332,325.49801 240.64155,328.08059 C 227.43401,330.47841 213.88017,330.43188 200.77642,333.49261 C 193.86455,334.83367 186.98883,336.35881 180.15174,338.03945 C 179.67781,328.87202 181.79855,319.72303 180.62885,310.56743 C 179.89039,296.9033 177.72944,282.97479 181.01474,269.46695 C 181.96916,262.6785 181.86254,255.79611 182.28403,248.96308 C 182.62098,241.11982 183.0214,233.26704 184.06051,225.47995 z M 86.182303,234.41962 C 93.834439,241.06278 102.39986,247.03046 112.27369,249.7772 C 121.39746,252.83677 130.42214,256.43603 138.49735,261.7432 C 144.26388,265.26152 150.12874,268.65182 156.28626,271.43691 C 160.50181,273.8754 164.95,275.97199 169.13184,278.41816 C 171.52412,278.49692 172.87495,275.51673 175.11625,275.419 C 174.15746,293.20787 169.29332,310.82105 170.58239,328.7569 C 170.34923,331.23042 171.27349,335.36573 169.92325,336.7787 C 158.03832,334.23439 145.24565,333.61359 134.69487,326.96481 C 128.70557,323.14707 123.21479,318.4571 116.57625,315.7459 C 107.35153,311.34714 97.29811,307.20711 90.910712,298.8358 C 88.743173,295.81954 87.117471,292.22577 86.928028,288.48512 C 87.68354,284.01133 88.604058,279.37985 87.66007,274.8468 C 88.238869,263.68897 86.490519,252.60172 86.124276,241.47331 C 86.081956,239.1221 86.102671,236.76983 86.182303,234.41962 z "
     id="path1088"
     sodipodi:nodetypes="cccccccccccccccccccccccccccccccccccccccccccccccccccccccccccccccccccccccccccccccccccccccccccccccccccccccccccccccccccccccccccccccccccccccccccccccccccccccccccccccccccccccccccccccccccccccccccccccccccccccccccccccc" />
</svg>
