<?xml version="1.0" encoding="UTF-8" standalone="no"?>
<!DOCTYPE svg PUBLIC "-//W3C//DTD SVG 20010904//EN"
"http://www.w3.org/TR/2001/REC-SVG-20010904/DTD/svg10.dtd">
<!-- Created with Sodipodi ("http://www.sodipodi.com/") -->
<svg
   id="svg548"
   sodipodi:version="0.32"
   width="400pt"
   height="400pt"
   sodipodi:docbase="/home/nicu/svg_gal/happy"
   sodipodi:docname="/home/nicu/svg_gal/happy/baloon2_01.svg"
   xmlns="http://www.w3.org/2000/svg"
   xmlns:sodipodi="http://sodipodi.sourceforge.net/DTD/sodipodi-0.dtd"
   xmlns:xlink="http://www.w3.org/1999/xlink">
  <defs
     id="defs550">
    <linearGradient
       id="linearGradient608">
      <stop
         style="stop-color:#ffffff;stop-opacity:1;"
         offset="0.000000"
         id="stop609" />
      <stop
         style="stop-color:#000000;stop-opacity:1;"
         offset="1.000000"
         id="stop610" />
    </linearGradient>
    <linearGradient
       id="linearGradient601">
      <stop
         style="stop-color:#e6cd00;stop-opacity:1;"
         offset="0.000000"
         id="stop602" />
      <stop
         style="stop-color:#ff9f2d;stop-opacity:1;"
         offset="1.000000"
         id="stop603" />
    </linearGradient>
    <radialGradient
       xlink:href="#linearGradient601"
       id="radialGradient604"
       cx="0.30468768"
       cy="0.32812488"
       fx="0.30468768"
       fy="0.32812488"
       r="0.32960984"
       gradientUnits="objectBoundingBox"
       spreadMethod="pad" />
    <radialGradient
       xlink:href="#linearGradient608"
       id="radialGradient607"
       cx="0.44804481"
       cy="0.97655141"
       fx="0.44804481"
       fy="0.97655141"
       r="0.77106810"
       gradientUnits="objectBoundingBox"
       spreadMethod="pad" />
    <radialGradient
       xlink:href="#linearGradient608"
       id="radialGradient904" />
  </defs>
  <sodipodi:namedview
     id="base" />
  <path
     sodipodi:type="arc"
     style="font-size:12;fill:#ff0000;fill-rule:evenodd;stroke:none;stroke-width:1pt;"
     id="path1044"
     d="M 383.750000 228.125000 A 146.875000 169.375000 0 1 0 90.000000,228.125000 A 146.875 169.375 0 1 0 383.75 228.125 L 236.875000 228.125000 z"
     sodipodi:cx="236.875000"
     sodipodi:cy="228.125000"
     sodipodi:rx="146.875000"
     sodipodi:ry="169.375000"
     transform="matrix(0.779154,0.000000,0.000000,1.041039,60.09764,-52.41104)" />
  <path
     style="font-size:12;fill:#ff0000;fill-rule:evenodd;stroke:none;stroke-width:1pt;"
     d="M 227.5 361.875 C 227.5 362.5 227.5 368.75 227.5 370 C 227.5 371.25 230.625 366.875 224.375 375 C 218.125 383.125 212.5 381.875 217.5 385 C 222.5 388.125 223.75 385.625 227.5 385 C 231.25 384.375 229.375 387.5 233.75 388.125 C 238.125 388.75 239.375 388.75 242.5 386.875 C 245.625 385 241.25 383.125 248.125 385 C 255 386.875 256.25 390.625 258.75 388.75 C 261.25 386.875 256.875 388.75 256.875 384.375 C 256.875 380 254.375 375.625 253.125 375 C 251.875 374.375 246.875 373.75 246.875 368.125 C 246.875 362.5 245.625 361.25 245.625 361.25 C 245.625 361.25 230.625 363.125 227.5 361.875 z "
     id="path1046"
     transform="matrix(1.000000,0.000000,0.000000,1.041039,0.000000,-15.97466)" />
  <path
     style="fill:none;fill-rule:evenodd;stroke:black;stroke-opacity:1;stroke-width:3.125;stroke-linejoin:miter;stroke-linecap:butt;fill-opacity:1;stroke-dasharray:none;"
     d="M 246.25 365 L 227.5 365 L 247.5 371.25 L 226.25 368.75 C 226.25 368.75 215 391.25 227.5 413.75 C 240 436.25 243.75 430 240 451.25 C 236.25 472.5 226.25 483.75 228.75 488.75 "
     id="path1047"
     sodipodi:nodetypes="ccccccc" />
  <g
     id="g1147"
     transform="matrix(1.000000,0.000000,0.000000,1.368488,-9.493675,2.613144)">
    <path
       style="fill:#ffffff;fill-rule:evenodd;stroke:none;stroke-opacity:1;stroke-width:1pt;stroke-linejoin:miter;stroke-linecap:butt;fill-opacity:1;"
       d="M 408.75 121.25 C 408.75 121.25 395 152.5 395 168.75 C 395 185 393.75 187.5 395 187.5 C 396.25 187.5 421.25 187.5 421.25 187.5 C 421.25 187.5 421.25 152.5 426.25 141.25 C 431.25 130 436.25 121.25 436.25 121.25 C 436.25 121.25 408.75 120 408.75 121.25 z "
       id="path1053"
       transform="translate(-239.6044,-59.08230)" />
    <path
       style="fill:#ffffff;fill-rule:evenodd;stroke:none;stroke-opacity:1;stroke-width:1pt;stroke-linejoin:miter;stroke-linecap:butt;fill-opacity:1;"
       d="M 408.75 121.25 C 408.75 121.25 395 152.5 395 168.75 C 395 185 393.75 187.5 395 187.5 C 396.25 187.5 421.25 187.5 421.25 187.5 C 421.25 187.5 421.25 152.5 426.25 141.25 C 431.25 130 436.25 121.25 436.25 121.25 C 436.25 121.25 408.75 120 408.75 121.25 z "
       id="path1054"
       transform="translate(-202.1044,-59.08230)" />
    <path
       style="fill:#ffffff;fill-rule:evenodd;stroke:none;stroke-opacity:1;stroke-width:1pt;stroke-linejoin:miter;stroke-linecap:butt;fill-opacity:1;"
       d="M 408.75 118.4 C 405.911 118.4 407.068 139.677 407.068 155.927 C 407.778 172.177 407.948 184.65 409.198 184.65 C 410.448 184.65 434.738 178.951 431.898 183.225 C 429.769 161.854 429.059 163.898 429.8 149.799 C 430.54 134.274 431.281 118.4 431.281 118.4 C 431.281 118.4 408.041 117.15 408.75 118.4 z "
       id="path1055"
       transform="matrix(1.003946,0.000000,0.000000,0.438670,-252.6914,83.66714)"
       sodipodi:nodetypes="ccccccc" />
    <path
       style="fill:#ffffff;fill-rule:evenodd;stroke:none;stroke-opacity:1;stroke-width:1pt;stroke-linejoin:miter;stroke-linecap:butt;fill-opacity:1;"
       d="M 408.75 118.4 C 405.911 118.4 407.068 139.677 407.068 155.927 C 407.778 172.177 407.948 184.65 409.198 184.65 C 410.448 184.65 434.738 178.951 431.898 183.225 C 429.769 161.854 429.059 163.898 429.8 149.799 C 430.54 134.274 431.281 118.4 431.281 118.4 C 431.281 118.4 408.041 117.15 408.75 118.4 z "
       id="path1056"
       transform="matrix(1.003946,0.000000,0.000000,0.438670,-215.8164,81.16714)"
       sodipodi:nodetypes="ccccccc" />
  </g>

  <rdf:RDF 
   xmlns="http://web.resource.org/cc/"
   xmlns:dc="http://purl.org/dc/elements/1.1/"
   xmlns:rdf="http://www.w3.org/1999/02/22-rdf-syntax-ns#">
  <Work rdf:about="">
    <dc:title>Clipart by Nicu Buculei - baloon1_04</dc:title>
    <dc:rights>
       <Agent>
         <dc:title>Nicu Buculei</dc:title>
       </Agent>
    </dc:rights>
    <dc:type rdf:resource="http://purl.org/dc/dcmitype/StillImage" />
    <license rdf:resource="http://web.resource.org/cc/PublicDomain" />
  </Work>
   
  <License rdf:about="http://web.resource.org/cc/PublicDomain">
     <permits rdf:resource="http://web.resource.org/cc/Reproduction" />
     <permits rdf:resource="http://web.resource.org/cc/Distribution" />
     <permits rdf:resource="http://web.resource.org/cc/DerivativeWorks" />
  </License>

</rdf:RDF>
</svg>
