<?xml version="1.0" encoding="UTF-8" standalone="no"?>
<!DOCTYPE svg PUBLIC "-//W3C//DTD SVG 1.0//EN"
"http://www.w3.org/TR/2001/REC-SVG-20010904/DTD/svg10.dtd">
<!-- Created with Inkscape (http://www.inkscape.org/) -->
<svg
   id="svg1"
   sodipodi:version="0.32"
   inkscape:version="0.38.1"
   xmlns="http://www.w3.org/2000/svg"
   xmlns:sodipodi="http://sodipodi.sourceforge.net/DTD/sodipodi-0.dtd"
   xmlns:inkscape="http://www.inkscape.org/namespaces/inkscape"
   xmlns:xlink="http://www.w3.org/1999/xlink"
   width="80.000000pt"
   height="80.000000pt"
   sodipodi:docbase="/home/nicu/Desktop/candy"
   sodipodi:docname="candy_01.svg">
  <defs
     id="defs3" />
  <sodipodi:namedview
     id="base"
     pagecolor="#ffffff"
     bordercolor="#666666"
     borderopacity="1.0"
     inkscape:pageopacity="0.0"
     inkscape:pageshadow="2"
     inkscape:zoom="6.4980192"
     inkscape:cx="42.214835"
     inkscape:cy="42.709727"
     inkscape:window-width="682"
     inkscape:window-height="712"
     inkscape:window-x="451"
     inkscape:window-y="60" />
  <path
     style="fill:#0086ff;fill-opacity:1.0000000;fill-rule:evenodd;stroke:#000000;stroke-width:1.0000000pt;stroke-linejoin:round;"
     d="M 6.9518317,67.212306 C 6.9518317,67.212306 11.325010,69.294700 13.696839,69.484848 C 16.068669,69.674996 17.649889,69.801762 17.649889,69.801762 C 19.599629,68.834742 13.904959,63.483077 15.012482,59.593409 C 16.120005,55.703742 64.089560,25.996199 65.427062,26.243842 C 68.495861,25.914385 69.317737,27.345222 70.893069,29.296925 C 72.468401,31.248629 73.195628,32.102620 74.352796,31.680531 C 75.509963,31.258441 79.094494,32.669139 77.958915,26.399791 C 76.823337,20.130443 77.130437,19.218955 77.130437,19.218955 C 77.130437,19.218955 84.784969,22.406909 84.475905,23.926710 C 84.166843,25.446510 82.825415,26.415493 85.131900,28.004563 C 87.438385,29.593633 84.097572,28.062057 86.643849,30.746876 C 89.190127,33.431694 93.993244,34.238005 92.774656,34.842392 C 91.556068,35.446780 84.014563,34.935793 81.218681,34.196791 C 78.422798,33.457787 78.123549,31.936025 77.202248,34.670486 C 76.280948,37.404949 79.491821,42.210677 78.205925,44.822300 C 76.920029,47.433921 30.954944,78.283683 29.007166,78.642391 C 27.059389,79.001097 23.594473,75.052484 22.136093,74.561123 C 20.677713,74.069763 19.643386,74.127257 17.808635,77.162932 C 15.728203,80.927798 13.346562,83.779209 13.346562,83.779209 C 13.346562,83.779209 12.807518,81.161704 13.237460,79.885617 C 13.667400,78.609536 13.734708,76.602301 11.729436,75.926680 C 9.7241637,75.251060 6.3970897,69.461297 6.9518317,67.212306 z "
     id="path825"
     sodipodi:nodetypes="ccccccccccccccccccccccc" />
  <path
     style="fill:none;fill-rule:evenodd;stroke:black;stroke-opacity:1;stroke-width:1pt;stroke-linejoin:miter;stroke-linecap:butt;fill-opacity:0.75;"
     d="M 75.022863,31.517592 C 75.022863,31.517592 77.331258,34.210720 77.331258,34.210720"
     id="path826"
     sodipodi:nodetypes="cc" />
  <path
     style="fill:none;fill-rule:evenodd;stroke:black;stroke-opacity:1;stroke-width:1pt;stroke-linejoin:miter;stroke-linecap:butt;fill-opacity:0.75;"
     d="M 77.331258,30.171028 C 77.331258,30.171028 79.832021,32.287057 79.447288,33.056523"
     id="path827"
     sodipodi:nodetypes="cc" />
  <path
     style="fill:none;fill-rule:evenodd;stroke:black;stroke-opacity:1;stroke-width:1pt;stroke-linejoin:miter;stroke-linecap:butt;fill-opacity:0.75;"
     d="M 15.774038,69.221390 C 15.774038,69.221390 17.312968,74.992379 17.890067,76.146577 C 18.467166,77.300775 18.467166,77.108409 18.467166,77.108409"
     id="path828" />
  <path
     style="fill:none;fill-rule:evenodd;stroke:black;stroke-opacity:1;stroke-width:1pt;stroke-linejoin:miter;stroke-linecap:butt;fill-opacity:0.75;"
     d="M 17.697701,69.606122 C 17.697701,69.606122 18.274800,74.222914 19.236631,74.607646"
     id="path829"
     sodipodi:nodetypes="cc" />
  <path
     style="fill:none;fill-rule:evenodd;stroke:black;stroke-opacity:1;stroke-width:1pt;stroke-linejoin:miter;stroke-linecap:butt;fill-opacity:0.75;"
     d="M 19.236631,64.412232 C 19.236631,64.412232 16.351137,61.911470 19.044265,59.218341 C 21.737394,56.525213 41.935857,42.674838 41.935857,42.674838"
     id="path830" />
  <path
     style="fill:none;fill-rule:evenodd;stroke:black;stroke-opacity:1;stroke-width:1pt;stroke-linejoin:miter;stroke-linecap:butt;fill-opacity:0.75;"
     d="M 52.516004,37.288581 C 52.516004,37.288581 64.057983,27.093167 65.789280,27.862632 C 67.520576,28.632097 69.444240,30.171028 69.444240,30.171028"
     id="path831" />
  <path
     style="fill:none;fill-rule:evenodd;stroke:black;stroke-opacity:1;stroke-width:1pt;stroke-linejoin:miter;stroke-linecap:butt;fill-opacity:0.75;"
     d="M 36.741966,68.259558 C 36.741966,68.259558 61.749587,50.754223 65.019814,49.600026 C 68.290042,48.445828 68.097675,48.445828 68.097675,48.445828"
     id="path832" />
  <path
     style="fill:none;fill-rule:evenodd;stroke:black;stroke-opacity:1;stroke-width:1pt;stroke-linejoin:miter;stroke-linecap:butt;fill-opacity:0.75;"
     d="M 84.064079,23.438207 C 84.064079,23.438207 83.102248,27.670266 79.832020,28.824464"
     id="path834"
     sodipodi:nodetypes="cc" />
  <path
     style="fill:none;fill-rule:evenodd;stroke:black;stroke-opacity:1;stroke-width:1pt;stroke-linejoin:miter;stroke-linecap:butt;fill-opacity:0.75;"
     d="M 85.795376,29.016830 C 85.795376,29.016830 81.755683,32.287057 80.409119,31.132859"
     id="path835"
     sodipodi:nodetypes="cc" />
  <path
     style="fill:none;fill-rule:evenodd;stroke:black;stroke-opacity:1;stroke-width:1pt;stroke-linejoin:miter;stroke-linecap:butt;fill-opacity:0.75;"
     d="M 10.195414,74.607646 C 12.119077,76.338943 15.581671,73.261082 15.581671,73.261082"
     id="path836"
     sodipodi:nodetypes="cc" />
  <path
     style="fill:none;fill-rule:evenodd;stroke:black;stroke-opacity:1;stroke-width:1pt;stroke-linejoin:miter;stroke-linecap:butt;fill-opacity:0.75;"
     d="M 13.658008,78.647339 C 16.351137,78.454973 15.581671,77.300775 16.351137,75.184745"
     id="path837"
     sodipodi:nodetypes="cc" />

  <rdf:RDF 
   xmlns="http://web.resource.org/cc/"
   xmlns:dc="http://purl.org/dc/elements/1.1/"
   xmlns:rdf="http://www.w3.org/1999/02/22-rdf-syntax-ns#">
  <Work rdf:about="">
    <dc:title>Candy</dc:title>
    <dc:rights>
       <Agent>
         <dc:title>Nicu Buculei</dc:title>
       </Agent>
    </dc:rights>
    <dc:type rdf:resource="http://purl.org/dc/dcmitype/StillImage" />
    <license rdf:resource="http://web.resource.org/cc/PublicDomain" />
  </Work>
   
  <License rdf:about="http://web.resource.org/cc/PublicDomain">
     <permits rdf:resource="http://web.resource.org/cc/Reproduction" />
     <permits rdf:resource="http://web.resource.org/cc/Distribution" />
     <permits rdf:resource="http://web.resource.org/cc/DerivativeWorks" />
  </License>

</rdf:RDF>
</svg>
