<?xml version="1.0" encoding="UTF-8" standalone="no"?>
<!-- Created with Inkscape (http://www.inkscape.org/) -->
<svg
   xmlns:dc="http://purl.org/dc/elements/1.1/"
   xmlns:cc="http://web.resource.org/cc/"
   xmlns:rdf="http://www.w3.org/1999/02/22-rdf-syntax-ns#"
   xmlns:svg="http://www.w3.org/2000/svg"
   xmlns="http://www.w3.org/2000/svg"
   xmlns:xlink="http://www.w3.org/1999/xlink"
   xmlns:sodipodi="http://sodipodi.sourceforge.net/DTD/sodipodi-0.dtd"
   xmlns:inkscape="http://www.inkscape.org/namespaces/inkscape"
   width="80"
   height="120"
   id="svg2"
   sodipodi:version="0.32"
   inkscape:version="0.45.1"
   version="1.0"
   sodipodi:docbase="/home/nicu/Desktop"
   sodipodi:docname="tuica_bottle.svg"
   inkscape:output_extension="org.inkscape.output.svg.inkscape"
   inkscape:export-filename="/home/nicu/Desktop/svg/tuica_bottle.png"
   inkscape:export-xdpi="150"
   inkscape:export-ydpi="150">
  <defs
     id="defs4">
    <linearGradient
       inkscape:collect="always"
       id="linearGradient3311">
      <stop
         style="stop-color:#ffffff;stop-opacity:1;"
         offset="0"
         id="stop3313" />
      <stop
         style="stop-color:#ffffff;stop-opacity:0;"
         offset="1"
         id="stop3315" />
    </linearGradient>
    <linearGradient
       id="linearGradient2165">
      <stop
         style="stop-color:#b5c5cd;stop-opacity:0.57894737;"
         offset="0"
         id="stop2167" />
      <stop
         style="stop-color:#b5c5cd;stop-opacity:0.08978328;"
         offset="1"
         id="stop2169" />
    </linearGradient>
    <linearGradient
       inkscape:collect="always"
       xlink:href="#linearGradient2165"
       id="linearGradient2177"
       x1="65.455116"
       y1="109.78773"
       x2="23.159464"
       y2="122.82739"
       gradientUnits="userSpaceOnUse" />
    <radialGradient
       fy="5.249711"
       fx="9.422576"
       r="8.0633326"
       cy="5.249711"
       cx="9.422576"
       id="radialGradient869"
       xlink:href="#linearGradient870" />
    <radialGradient
       fy="4.4804802"
       fx="-1.8273672"
       r="8.0633326"
       cy="4.4804802"
       cx="-1.8273672"
       id="radialGradient868"
       xlink:href="#linearGradient870" />
    <radialGradient
       fy="8.018939"
       fx="2.589277"
       r="8.0633326"
       cy="8.018939"
       cx="2.589277"
       id="radialGradient867"
       xlink:href="#linearGradient870" />
    <radialGradient
       fy="-8.1348953"
       fx="3.9226053"
       r="8.0633326"
       cy="-8.1348953"
       cx="3.9226053"
       id="radialGradient866"
       xlink:href="#linearGradient870" />
    <radialGradient
       fy="-10.288741"
       fx="14.589211"
       r="8.0633326"
       cy="-10.288741"
       cx="14.589211"
       id="radialGradient865"
       xlink:href="#linearGradient870" />
    <radialGradient
       fy="145.01534"
       fx="428.0509"
       r="53.756435"
       cy="145.01534"
       cx="428.0509"
       id="radialGradient864"
       xlink:href="#linearGradient855"
       gradientTransform="scale(0.7401517,1.3510743)"
       gradientUnits="userSpaceOnUse" />
    <radialGradient
       fy="408.99615"
       fx="196.71761"
       r="229.34283"
       cy="408.99615"
       cx="196.71761"
       id="radialGradient863"
       xlink:href="#linearGradient870"
       gradientTransform="scale(0.9459672,1.0571191)"
       gradientUnits="userSpaceOnUse" />
    <radialGradient
       fy="294.79742"
       fx="192.34637"
       r="28.648153"
       cy="294.79742"
       cx="192.34637"
       id="radialGradient862"
       xlink:href="#linearGradient829"
       gradientTransform="scale(1.0629908,0.9407419)"
       gradientUnits="userSpaceOnUse" />
    <radialGradient
       fy="191.15054"
       fx="200.21089"
       r="9.217802"
       cy="191.15054"
       cx="200.21089"
       id="radialGradient861"
       xlink:href="#linearGradient829"
       gradientTransform="scale(1.0997943,0.909261)"
       gradientUnits="userSpaceOnUse" />
    <radialGradient
       fy="0.61081082"
       fx="0.66911763"
       r="1.1099921"
       cy="0.61081082"
       cx="0.66911763"
       id="radialGradient850"
       xlink:href="#linearGradient829" />
    <linearGradient
       y2="0.5"
       x2="1"
       y1="0.5"
       x1="2.2527011e-16"
       id="linearGradient875"
       xlink:href="#linearGradient829" />
    <radialGradient
       fy="293.90604"
       fx="191.82085"
       r="23.600906"
       cy="293.90604"
       cx="191.82085"
       id="radialGradient874"
       xlink:href="#linearGradient829"
       gradientTransform="scale(1.0629908,0.9407419)"
       gradientUnits="userSpaceOnUse" />
    <linearGradient
       y2="1.546875"
       x2="0.5147059"
       y1="-0.1484375"
       x1="0.55147058"
       id="linearGradient854"
       xlink:href="#linearGradient855" />
    <linearGradient
       y2="0.49253732"
       x2="0.25471699"
       y1="0.53233832"
       x1="0.47169811"
       id="linearGradient850"
       xlink:href="#linearGradient855" />
    <radialGradient
       fy="220.70163"
       fx="552.89282"
       r="95.50354"
       cy="220.70163"
       cx="552.89282"
       id="radialGradient832"
       xlink:href="#linearGradient855"
       gradientTransform="scale(0.7198096,1.3892562)"
       gradientUnits="userSpaceOnUse" />
    <linearGradient
       id="linearGradient829">
      <stop
         id="stop830"
         offset="0.0000000"
         style="stop-color:#ffffff;stop-opacity:0.54166669;" />
      <stop
         id="stop831"
         offset="1.0000000"
         style="stop-color:#ffffff;stop-opacity:0.0000000;" />
    </linearGradient>
    <linearGradient
       id="linearGradient855">
      <stop
         id="stop856"
         offset="0.0000000"
         style="stop-color:#dd6204;stop-opacity:1.0000000;" />
      <stop
         id="stop857"
         offset="1.0000000"
         style="stop-color:#e48e17;stop-opacity:0.0000000;" />
    </linearGradient>
    <linearGradient
       id="linearGradient870">
      <stop
         id="stop871"
         offset="0.0000000"
         style="stop-color:#d9b72e;stop-opacity:1.0000000;" />
      <stop
         id="stop872"
         offset="1.0000000"
         style="stop-color:#e4e417;stop-opacity:1.0000000;" />
    </linearGradient>
    <radialGradient
       inkscape:collect="always"
       xlink:href="#linearGradient855"
       id="radialGradient2858"
       cx="475.06512"
       cy="172.50287"
       fx="475.06512"
       fy="172.50287"
       r="44.298962"
       gradientTransform="scale(0.7767523,1.2874117)"
       gradientUnits="userSpaceOnUse" />
    <radialGradient
       inkscape:collect="always"
       xlink:href="#linearGradient855"
       id="radialGradient2860"
       cx="485.47156"
       cy="289.80753"
       fx="485.47156"
       fy="289.80753"
       r="53.756435"
       gradientTransform="scale(0.7401517,1.3510743)"
       gradientUnits="userSpaceOnUse" />
    <radialGradient
       inkscape:collect="always"
       xlink:href="#linearGradient855"
       id="radialGradient2862"
       cx="463.5166"
       cy="231.98317"
       fx="463.5166"
       fy="231.98317"
       r="53.756435"
       gradientTransform="scale(0.7401517,1.3510743)"
       gradientUnits="userSpaceOnUse" />
    <radialGradient
       inkscape:collect="always"
       xlink:href="#linearGradient855"
       id="radialGradient2864"
       cx="451.6947"
       cy="171.84584"
       fx="451.6947"
       fy="171.84584"
       r="53.756435"
       gradientTransform="scale(0.7401517,1.3510743)"
       gradientUnits="userSpaceOnUse" />
    <radialGradient
       inkscape:collect="always"
       xlink:href="#linearGradient855"
       id="radialGradient2866"
       cx="424.67319"
       cy="299.52203"
       fx="424.67319"
       fy="299.52203"
       r="53.756435"
       gradientTransform="scale(0.7401517,1.3510743)"
       gradientUnits="userSpaceOnUse" />
    <linearGradient
       y2="72.055557"
       x2="75.032516"
       y1="-41.722214"
       x1="73.130081"
       gradientTransform="matrix(1.033613,0,0,1.014085,-2.168067,-2.070423)"
       gradientUnits="userSpaceOnUse"
       id="linearGradient3682"
       xlink:href="#linearGradient3673"
       inkscape:collect="always" />
    <linearGradient
       gradientTransform="matrix(1.033613,0,0,1.014085,-2.168067,-2.070423)"
       gradientUnits="userSpaceOnUse"
       y2="76"
       x2="76"
       y1="-22"
       x1="77"
       id="linearGradient3679"
       xlink:href="#linearGradient3673"
       inkscape:collect="always" />
    <linearGradient
       id="linearGradient3673"
       inkscape:collect="always">
      <stop
         id="stop3675"
         offset="0"
         style="stop-color:white;stop-opacity:1;" />
      <stop
         id="stop3677"
         offset="1"
         style="stop-color:white;stop-opacity:0;" />
    </linearGradient>
    <linearGradient
       inkscape:collect="always"
       xlink:href="#linearGradient2165"
       id="linearGradient2298"
       gradientUnits="userSpaceOnUse"
       x1="65.455116"
       y1="109.78773"
       x2="23.159464"
       y2="122.82739"
       gradientTransform="translate(4.5733445,1.2333031)" />
    <radialGradient
       inkscape:collect="always"
       xlink:href="#linearGradient870"
       id="radialGradient2301"
       gradientUnits="userSpaceOnUse"
       gradientTransform="scale(0.9459672,1.0571191)"
       cx="196.71761"
       cy="408.99615"
       fx="196.71761"
       fy="408.99615"
       r="229.34283" />
    <radialGradient
       inkscape:collect="always"
       xlink:href="#linearGradient855"
       id="radialGradient2303"
       gradientUnits="userSpaceOnUse"
       gradientTransform="scale(0.7198096,1.3892562)"
       cx="552.89282"
       cy="220.70163"
       fx="552.89282"
       fy="220.70163"
       r="95.50354" />
    <radialGradient
       inkscape:collect="always"
       xlink:href="#linearGradient829"
       id="radialGradient2305"
       gradientUnits="userSpaceOnUse"
       gradientTransform="scale(1.0629908,0.9407419)"
       cx="192.34637"
       cy="294.79742"
       fx="192.34637"
       fy="294.79742"
       r="28.648153" />
    <radialGradient
       inkscape:collect="always"
       xlink:href="#linearGradient829"
       id="radialGradient2307"
       gradientUnits="userSpaceOnUse"
       gradientTransform="scale(1.0629908,0.9407419)"
       cx="191.82085"
       cy="293.90604"
       fx="191.82085"
       fy="293.90604"
       r="23.600906" />
    <radialGradient
       inkscape:collect="always"
       xlink:href="#linearGradient829"
       id="radialGradient2309"
       gradientUnits="userSpaceOnUse"
       gradientTransform="scale(1.0997943,0.909261)"
       cx="200.21089"
       cy="191.15054"
       fx="200.21089"
       fy="191.15054"
       r="9.217802" />
    <radialGradient
       inkscape:collect="always"
       xlink:href="#linearGradient855"
       id="radialGradient2311"
       gradientUnits="userSpaceOnUse"
       gradientTransform="scale(0.7767523,1.2874117)"
       cx="475.06512"
       cy="172.50287"
       fx="475.06512"
       fy="172.50287"
       r="44.298962" />
    <radialGradient
       inkscape:collect="always"
       xlink:href="#linearGradient855"
       id="radialGradient2313"
       gradientUnits="userSpaceOnUse"
       gradientTransform="scale(0.7401517,1.3510743)"
       cx="485.47156"
       cy="289.80753"
       fx="485.47156"
       fy="289.80753"
       r="53.756435" />
    <radialGradient
       inkscape:collect="always"
       xlink:href="#linearGradient855"
       id="radialGradient2315"
       gradientUnits="userSpaceOnUse"
       gradientTransform="scale(0.7401517,1.3510743)"
       cx="463.5166"
       cy="231.98317"
       fx="463.5166"
       fy="231.98317"
       r="53.756435" />
    <radialGradient
       inkscape:collect="always"
       xlink:href="#linearGradient855"
       id="radialGradient2317"
       gradientUnits="userSpaceOnUse"
       gradientTransform="scale(0.7401517,1.3510743)"
       cx="451.6947"
       cy="171.84584"
       fx="451.6947"
       fy="171.84584"
       r="53.756435" />
    <radialGradient
       inkscape:collect="always"
       xlink:href="#linearGradient855"
       id="radialGradient2319"
       gradientUnits="userSpaceOnUse"
       gradientTransform="scale(0.7401517,1.3510743)"
       cx="424.67319"
       cy="299.52203"
       fx="424.67319"
       fy="299.52203"
       r="53.756435" />
    <radialGradient
       inkscape:collect="always"
       xlink:href="#linearGradient855"
       id="radialGradient2321"
       gradientUnits="userSpaceOnUse"
       gradientTransform="scale(0.7401517,1.3510743)"
       cx="428.0509"
       cy="145.01534"
       fx="428.0509"
       fy="145.01534"
       r="53.756435" />
    <linearGradient
       inkscape:collect="always"
       xlink:href="#linearGradient3311"
       id="linearGradient3317"
       x1="15.026455"
       y1="81.481483"
       x2="24.761906"
       y2="85.714287"
       gradientUnits="userSpaceOnUse" />
    <filter
       inkscape:collect="always"
       x="-0.10376243"
       width="1.2075249"
       y="-0.041234581"
       height="1.0824692"
       id="filter3363">
      <feGaussianBlur
         inkscape:collect="always"
         stdDeviation="1.1163154"
         id="feGaussianBlur3365" />
    </filter>
    <linearGradient
       inkscape:collect="always"
       xlink:href="#linearGradient3311"
       id="linearGradient3369"
       x1="55.873016"
       y1="15.978836"
       x2="64.973541"
       y2="19.788361"
       gradientUnits="userSpaceOnUse" />
    <filter
       inkscape:collect="always"
       x="-0.21607818"
       width="1.4321564"
       y="-0.11583573"
       height="1.2316715"
       id="filter3451">
      <feGaussianBlur
         inkscape:collect="always"
         stdDeviation="0.9908347"
         id="feGaussianBlur3453" />
    </filter>
    <linearGradient
       inkscape:collect="always"
       xlink:href="#linearGradient3673"
       id="linearGradient3457"
       x1="59.682541"
       y1="77.251823"
       x2="66.243385"
       y2="80.003151"
       gradientUnits="userSpaceOnUse" />
    <filter
       inkscape:collect="always"
       x="-0.23273813"
       width="1.4654763"
       y="-0.20219382"
       height="1.4043876"
       id="filter3880">
      <feGaussianBlur
         inkscape:collect="always"
         stdDeviation="1.3545605"
         id="feGaussianBlur3882" />
    </filter>
  </defs>
  <sodipodi:namedview
     id="base"
     pagecolor="#ffffff"
     bordercolor="#666666"
     borderopacity="1.0"
     gridtolerance="10"
     guidetolerance="10"
     objecttolerance="10"
     inkscape:pageopacity="0.0"
     inkscape:pageshadow="2"
     inkscape:zoom="1"
     inkscape:cx="40"
     inkscape:cy="60"
     inkscape:document-units="px"
     inkscape:current-layer="layer1"
     width="80px"
     height="120px"
     inkscape:window-width="1152"
     inkscape:window-height="791"
     inkscape:window-x="0"
     inkscape:window-y="24"
     inkscape:object-paths="false"
     inkscape:object-nodes="false" />
  <metadata
     id="metadata7">
    <rdf:RDF>
      <cc:Work
         rdf:about="">
        <dc:format>image/svg+xml</dc:format>
        <dc:type
           rdf:resource="http://purl.org/dc/dcmitype/StillImage" />
      </cc:Work>
    </rdf:RDF>
  </metadata>
  <g
     inkscape:label="Layer 1"
     inkscape:groupmode="layer"
     id="layer1"
     transform="translate(-21.03125,-5.7357872)">
    <path
       style="fill:#000000;fill-opacity:1;fill-rule:evenodd;stroke:none;stroke-width:1px;stroke-linecap:butt;stroke-linejoin:miter;stroke-opacity:1"
       d="M 89.28125,79.517037 L 88.40625,80.017037 C 90.485693,83.667666 94.460848,86.570401 96.473271,90.433158 C 98.485694,94.295915 98.858776,99.252365 97.136924,103.35832 L 97.71875,103.54829 C 99.584198,99.099913 100.07431,93.086349 97.997118,89.099278 C 95.91993,85.112207 91.300686,83.062319 89.28125,79.517037 z"
       id="path2916"
       sodipodi:nodetypes="ccsccsc" />
    <path
       style="fill:#000000;fill-opacity:1;fill-rule:evenodd;stroke:none;stroke-width:1px;stroke-linecap:butt;stroke-linejoin:miter;stroke-opacity:1"
       d="M 64.34375,40.392037 L 64.543132,40.945032 C 66.813921,41.667322 68.390204,42.883085 70.25,43.767037 C 85.481501,51.006494 87.624768,70.122953 88.347498,78.047791 L 88.599236,77.818037 C 87.867066,69.789695 86.244088,50.269609 70.65625,42.860787 C 68.752944,41.956155 66.654754,41.127118 64.34375,40.392037 z"
       id="path2323"
       sodipodi:nodetypes="ccsccsc" />
    <path
       sodipodi:nodetypes="ccccccccccc"
       id="path2771"
       d="M 39.654435,70.068766 C 44.621728,67.574866 47.991632,65.591128 57.031569,64.085885 C 64.550922,63.579397 71.267856,63.265684 77.710419,63.501772 C 81.526474,62.102908 86.69259,66.074692 89.770279,67.562974 L 70.002362,120.18461 C 66.473539,122.73142 62.523658,122.83348 58.308665,123.66487 L 53.018659,123.80408 C 47.115792,124.56577 41.984279,123.78475 37.566274,121.57671 L 28.517581,114.05934 C 26.977829,111.55355 26.614367,109.04775 26.151,106.54196 L 39.654435,70.068766 z"
       style="fill:#fff0af;fill-opacity:0.37016572;fill-rule:evenodd;stroke:none;stroke-width:1px;stroke-linecap:butt;stroke-linejoin:miter;stroke-opacity:1" />
    <path
       sodipodi:nodetypes="ccccccccc"
       d="M 26.236959,107.11024 C 31.471034,104.89579 36.487276,104.27202 41.882045,104.87902 C 47.345294,105.25603 52.5781,106.78899 57.604225,108.9631 C 62.342194,111.67826 66.553618,116.09464 70.028463,120.31027 L 69.669425,120.25256 C 65.77893,122.10289 63.525017,123.44799 56.680073,123.64315 C 50.035462,124.82984 39.231065,123.54171 33.845901,119.07591 C 29.296698,116.77836 27.372568,110.89143 26.248254,107.14413 L 26.236959,107.11024 z"
       id="path2175"
       style="fill:url(#linearGradient2298);fill-opacity:1;stroke:none;stroke-width:2;stroke-linecap:round;stroke-linejoin:bevel;stroke-miterlimit:4;stroke-dasharray:none;stroke-dashoffset:0;stroke-opacity:1" />
    <path
       style="fill:#000000;fill-opacity:1;stroke:none;stroke-width:2;stroke-linecap:round;stroke-linejoin:bevel;stroke-miterlimit:4;stroke-dasharray:none;stroke-dashoffset:0;stroke-opacity:1"
       id="path2172"
       d="M 26.236959,107.11024 C 31.471034,104.89579 36.487276,104.27202 41.882045,104.87902 C 47.345294,105.25603 52.5781,106.78899 57.604225,108.9631 C 62.342194,111.67826 66.553618,116.09464 70.028463,120.31027 L 69.669425,120.25256 C 66.403334,116.02536 61.901568,112.62499 57.26285,109.98953 C 52.366569,107.47142 46.973669,106.9742 41.630132,106.25482 C 36.206764,105.03957 31.535258,105.68807 26.248254,107.14413 L 26.236959,107.11024 z"
       sodipodi:nodetypes="ccccccccc" />
    <path
       sodipodi:nodetypes="czcccczzcccz"
       id="path3281"
       d="M 79.433906,16.60019 C 77.272018,19.85943 75.491207,24.017937 74.367435,26.261246 C 73.243665,28.504555 73.211432,28.909547 72.661179,30.015539 C 73.991194,31.539203 76.055357,33.429659 77.971708,34.127035 C 79.582306,34.395586 82.720437,34.317062 84.217077,34.86619 C 84.221508,34.863537 84.212664,34.837619 84.217077,34.83494 C 85.183501,33.814128 85.446097,33.067275 86.282536,30.798761 C 87.126319,28.510328 89.853852,25.980829 91.782921,22.58529 C 93.723292,19.169857 94.284512,17.523021 96.447805,15.300445 C 96.652304,12.683339 93.707288,10.630921 91.640775,9.2898876 C 89.704029,8.2397363 86.0004,7.0834664 84.173575,6.9690903 C 82.282897,9.9818345 81.624951,13.296993 79.433906,16.60019 z"
       style="fill:#a05a2c;fill-opacity:1;stroke:none;stroke-width:2;stroke-linecap:round;stroke-linejoin:bevel;stroke-miterlimit:4;stroke-dasharray:none;stroke-dashoffset:0;stroke-opacity:1" />
    <path
       style="fill:url(#linearGradient3369);fill-rule:evenodd;stroke:none;stroke-width:1px;stroke-linecap:butt;stroke-linejoin:miter;stroke-opacity:1;filter:url(#filter3451)"
       d="M 63.492063,5.7142857 L 53.968254,23.915344 L 56.507937,26.243386 L 64.973545,8.6772487 L 63.492063,5.7142857 z"
       id="path3367"
       transform="translate(21.03125,5.7357872)" />
    <path
       style="fill:#dfd6a7;fill-opacity:0.37016572;fill-rule:evenodd;stroke:none;stroke-width:1px;stroke-linecap:butt;stroke-linejoin:miter;stroke-opacity:1"
       d="M 39.654435,70.068766 C 42.125044,74.465714 48.890438,76.476671 58.030243,77.16851 C 65.549595,76.662022 73.165335,76.348309 79.607899,73.688243 C 83.423954,72.289379 86.69259,70.069387 89.770279,67.562974 L 70.002362,120.18461 C 66.473539,122.73142 62.523658,122.83348 58.308665,123.66487 L 53.018659,123.80408 C 47.115792,124.56577 41.984279,123.78475 37.566274,121.57671 L 28.517581,114.05934 C 26.977829,111.55355 26.614367,109.04775 26.151,106.54196 L 39.654435,70.068766 z"
       id="path2187"
       sodipodi:nodetypes="ccccccccccc" />
    <path
       sodipodi:nodetypes="ccczszzzczzcsszzzccsccccccc"
       id="path3283"
       d="M 78.445386,14.606331 C 75.804378,17.43548 73.642873,21.079184 71.792095,24.545803 C 72.441024,24.641463 72.644574,25.250345 72.979595,25.733303 C 71.989322,28.273352 71.473073,27.844694 69.010845,32.858303 C 66.515179,37.939997 66.276492,38.664813 63.288722,40.715301 C 59.994037,42.976424 55.463417,43.822903 51.948344,45.514553 C 45.245647,48.740268 43.694429,54.457434 41.104594,62.702053 C 38.514759,70.946672 34.271369,84.03342 31.479595,91.327053 C 28.687821,98.620686 27.646826,101.71818 25.604595,106.8583 C 25.695464,111.42976 28.642668,115.89851 32.354594,118.82705 C 36.066522,121.75559 40.332987,124.30606 46.563961,124.46772 C 52.794935,124.62938 64.224091,124.36523 70.877908,120.62649 C 72.457671,113.3683 76.175367,106.89723 78.515971,99.938991 C 80.580579,93.801236 83.034354,87.965499 85.345253,81.351772 C 87.915922,73.994592 91.94194,65.826091 91.698345,59.358303 C 91.45475,52.890515 86.942851,47.955194 84.885845,44.920803 C 82.828839,41.886412 84.38409,41.433613 85.252908,38.764553 C 86.109676,36.132512 86.945103,33.888405 87.728189,31.320522 C 89.028288,31.338821 89.788365,31.405409 91.073345,31.733303 C 92.251123,28.452079 93.80817,25.629679 94.323345,22.202053 C 94.327658,22.189572 94.350277,22.183282 94.354595,22.170803 C 93.480041,21.335405 92.892221,20.607157 91.955246,19.767511 L 90.901936,22.635323 C 88.215786,22.124465 86.459217,21.026554 84.024348,19.835926 C 81.816963,19.727952 77.686731,13.720817 80.101174,17.530845 L 80.854595,15.233303 C 80.18967,14.756705 79.205056,14.664128 78.445386,14.606331 z"
       style="fill:#b3b3b3;fill-opacity:0.18784533;stroke:none;stroke-width:2;stroke-linecap:round;stroke-linejoin:bevel;stroke-miterlimit:4;stroke-dasharray:none;stroke-dashoffset:0;stroke-opacity:1" />
    <path
       style="fill:#000000;fill-opacity:1;stroke:none;stroke-width:2;stroke-linecap:round;stroke-linejoin:bevel;stroke-miterlimit:4;stroke-dasharray:none;stroke-dashoffset:0;stroke-opacity:1"
       d="M 78.445386,14.606331 C 75.804378,17.43548 73.642873,21.079184 71.792095,24.545803 C 72.441024,24.641463 72.644574,25.250345 72.979595,25.733303 C 71.989322,28.273352 71.473073,27.844694 69.010845,32.858303 C 66.515179,37.939997 66.276492,38.664813 63.288722,40.715301 C 59.994037,42.976424 55.463417,43.822903 51.948344,45.514553 C 45.245647,48.740268 43.694429,54.457434 41.104594,62.702053 C 38.514759,70.946672 34.271369,84.03342 31.479595,91.327053 C 28.687821,98.620686 27.646826,101.71818 25.604595,106.8583 C 25.695464,111.42976 28.642668,115.89851 32.354594,118.82705 C 36.066522,121.75559 40.332987,124.30606 46.563961,124.46772 C 52.794935,124.62938 64.224091,124.36523 70.877908,120.62649 C 72.457671,113.3683 76.175367,106.89723 78.515971,99.938991 C 80.580579,93.801236 83.034354,87.965499 85.345253,81.351772 C 87.915922,73.994592 91.94194,65.826091 91.698345,59.358303 C 91.45475,52.890515 86.942851,47.955194 84.885845,44.920803 C 82.828839,41.886412 84.38409,41.433613 85.252908,38.764553 C 86.109676,36.132512 86.945103,33.888405 87.728189,31.320522 C 89.028288,31.338821 89.788365,31.405409 91.073345,31.733303 C 92.251123,28.452079 93.80817,25.629679 94.323345,22.202053 C 94.327658,22.189572 94.350277,22.183282 94.354595,22.170803 C 93.480041,21.335405 92.892221,20.607157 91.955246,19.767511 L 91.453275,20.27244 C 92.41579,20.99614 92.377739,21.364788 93.270668,22.170803 C 93.471579,22.319978 93.759413,22.597014 93.729595,22.795803 C 90.406411,22.686095 87.131208,21.460007 84.024348,19.835926 C 80.818204,18.159945 80.829777,17.406796 79.014789,15.426719 C 79.746298,15.356163 80.24733,15.365622 80.888803,15.640539 L 80.854595,15.233303 C 80.18967,14.756705 79.205056,14.664128 78.445386,14.606331 z M 78.131901,16.33987 C 79.956935,18.169554 80.244208,19.304475 83.520404,20.911243 C 86.847682,22.543063 89.878056,22.815612 93.065458,23.330011 C 92.179332,26.113079 92.289699,27.980092 90.255915,30.66193 C 86.403562,30.445994 83.010212,29.893066 79.419066,28.478373 C 77.061497,27.02273 74.706404,26.211087 73.116426,23.916859 C 74.729399,20.77148 75.946915,19.095174 78.131901,16.33987 z M 73.595926,26.065763 C 75.701694,26.560981 77.192557,28.105315 79.135845,29.108303 C 81.565194,30.101921 84.092646,30.941114 86.729595,31.045803 C 85.963061,33.662222 85.001992,36.346168 84.198345,38.702053 C 83.407863,41.019347 82.408682,42.908206 83.836407,45.99868 C 85.285672,49.135777 90.896651,53.247049 90.525312,59.539272 C 90.153974,65.831494 87.054414,73.062255 84.440408,80.279021 C 82.230289,86.380732 79.537456,93.659908 77.255719,99.726772 C 74.626991,106.71624 71.662601,113.2478 69.417095,120.38955 C 62.300067,122.53444 52.929905,124.3095 46.729594,123.6083 C 40.529283,122.9071 36.798551,120.80452 32.882745,117.927 C 28.966938,115.04949 27.852975,111.66264 26.953587,107.11959 C 28.925957,101.96799 29.925946,98.910422 32.880097,91.680072 C 35.834247,84.449722 39.362085,71.476813 42.109536,63.184414 C 44.856987,54.892015 45.824912,49.827507 52.470925,46.832295 C 59.30119,43.754045 59.590714,43.829117 63.372875,41.78587 C 67.155036,39.742623 68.701773,36.671238 69.993505,33.684714 C 71.285239,30.69819 72.388989,28.393634 73.595926,26.065763 z"
       id="path2162"
       sodipodi:nodetypes="ccczszzzczzcsszzzccsccccczccccczcccccccczzzssczzczzzzzc" />
    <path
       style="fill:#a05a2c;fill-opacity:1;stroke:none;stroke-width:2;stroke-linejoin:miter;stroke-miterlimit:4;stroke-opacity:1"
       d="M 98.931383,87.633936 C 98.931383,94.059333 93.949901,99.087484 87.812004,98.857484 C 81.674107,98.627484 76.692626,93.225999 76.692626,86.800602 C 76.692626,80.375205 81.674107,75.347058 87.812004,75.577058 C 93.949901,75.807058 98.931383,81.208539 98.931383,87.633936 z "
       id="path2260" />
    <path
       style="fill:#000000;fill-opacity:1;stroke:none;stroke-width:1;stroke-linejoin:miter;stroke-miterlimit:4;stroke-dasharray:none;stroke-opacity:1"
       d="M 87.84375,75.0625 C 81.423246,74.82191 76.187499,80.384419 76.1875,87.068246 C 76.1875,93.75207 81.360745,99.103161 87.78125,99.34375 C 94.201755,99.58434 99.437502,94.308826 99.4375,87.625 C 99.4375,80.941176 94.264254,75.303091 87.84375,75.0625 z M 87.909123,75.806754 C 93.764412,76.026165 98.693246,81.841649 98.693246,88.008619 C 98.693248,94.175591 93.059674,98.307414 87.204385,98.088004 C 81.349096,97.868595 77.1875,92.97947 77.1875,86.8125 C 77.187499,80.645526 82.053833,75.587344 87.909123,75.806754 z "
       id="path2263"
       sodipodi:nodetypes="csssccsssc" />
    <path
       style="fill:#000000;fill-opacity:1;stroke:none;stroke-width:2;stroke-linecap:round;stroke-linejoin:bevel;stroke-miterlimit:4;stroke-dasharray:none;stroke-dashoffset:0;stroke-opacity:1"
       d="M 79.433906,16.60019 C 77.272018,19.85943 75.491207,24.017937 74.367435,26.261246 C 73.243665,28.504555 73.211432,28.909547 72.661179,30.015539 C 73.991194,31.539203 76.055357,33.429659 77.971708,34.127035 C 79.582306,34.395586 82.720437,34.317062 84.217077,34.86619 C 84.221508,34.863537 84.212664,34.837619 84.217077,34.83494 C 85.183501,33.814128 85.446097,33.067275 86.282536,30.798761 C 87.126319,28.510328 89.853852,25.980829 91.782921,22.58529 C 93.723292,19.169857 94.284512,17.523021 96.447805,15.300445 C 96.652304,12.683339 93.707288,10.630921 91.640775,9.2898876 C 89.704029,8.2397363 86.0004,7.0834664 84.173575,6.9690903 C 82.282897,9.9818345 81.624951,13.296993 79.433906,16.60019 z M 91.135845,9.9833031 C 93.124897,10.648484 95.419553,12.542763 95.584949,14.610624 C 94.553151,14.757234 90.339886,14.037477 88.635845,12.952053 C 86.959962,11.884565 86.007559,9.9967566 85.551918,8.3079469 C 87.35733,8.1106203 89.146793,9.3181225 91.135845,9.9833031 z M 88.256901,13.867176 C 90.103397,14.585767 92.129205,15.445758 94.083927,15.731018 C 92.900103,18.532916 91.568976,19.359233 90.252271,22.240205 C 88.946314,25.097658 86.116706,28.35769 85.163414,30.357954 C 84.210121,32.358219 84.2286,32.950076 83.675967,34.018497 C 82.176451,33.583923 79.90384,33.607938 78.382886,33.243162 C 76.520048,32.643153 75.323127,31.160729 73.828275,29.905352 C 74.096238,28.588706 74.400033,28.895025 75.346046,26.861261 C 76.303659,24.802557 79.075877,19.804714 80.633933,16.961363 C 82.167174,14.163302 82.934372,11.732299 84.386446,8.7930723 C 85.271822,10.334784 86.689453,12.94451 88.256901,13.867176 z"
       id="path2208"
       sodipodi:nodetypes="czcccczzccczcczczcczzccczzcc" />
    <path
       style="fill:#000000;fill-opacity:1;fill-rule:evenodd;stroke:none;stroke-width:1px;stroke-linecap:butt;stroke-linejoin:miter;stroke-opacity:1"
       d="M 69.354595,62.596271 C 59.0269,62.47874 46.624652,64.969995 39.31104,70.018851 C 43.492875,77.976036 56.001661,77.747018 63.792094,77.327053 C 72.794052,76.306774 82.9942,74.596964 89.417095,67.608303 C 84.343812,62.538663 76.416708,62.68061 69.354595,62.596271 z M 69.323345,63.733303 C 75.193875,64.463464 83.991577,63.577881 88.840221,67.706898 C 82.508931,74.131252 72.346888,75.411292 63.729594,76.327053 C 55.919396,76.557163 44.901989,76.900453 39.421777,70.163616 C 46.437964,65.548419 59.295404,63.619183 69.323345,63.733303 z"
       id="path2179"
       sodipodi:nodetypes="cccccccccc" />
    <path
       sodipodi:nodetypes="ccccc"
       id="path2876"
       d="M 40.285431,67.791204 L 30.854595,96.233303 C 36.494673,104.32469 49.872912,102.74337 59.419158,105.95205 L 69.729595,78.545803 C 59.880668,75.046449 49.210821,73.599399 40.285431,67.791204 z"
       style="fill:#fffbca;fill-opacity:1;fill-rule:evenodd;stroke:none;stroke-width:1px;stroke-linecap:butt;stroke-linejoin:miter;stroke-opacity:1" />
    <path
       style="fill:#000000;fill-opacity:1;fill-rule:evenodd;stroke:none;stroke-width:1px;stroke-linecap:butt;stroke-linejoin:miter;stroke-opacity:1"
       d="M 40.21801,67.723782 L 39.688201,68.44281 C 46.531854,74.919639 58.740457,75.654262 68.410432,78.833716 L 58.937082,104.8583 C 49.812607,101.61807 39.631664,102.94196 30.979873,94.974899 L 30.517485,96.098459 C 36.157564,104.18985 49.872912,102.74337 59.419158,105.95205 L 69.729595,78.545803 C 59.880668,75.046449 49.1434,73.531977 40.21801,67.723782 z"
       id="path2870"
       sodipodi:nodetypes="ccccccccc" />
    <g
       id="g878"
       transform="matrix(4.6450555e-2,2.5601063e-2,-2.5601063e-2,4.6450555e-2,39.646011,68.909071)">
      <path
         sodipodi:nodetypes="ccccczcc"
         id="path946"
         d="M 226.25,85 C 226.25,85 258.75,63.75 300,85 C 335,125 426.25,258.75 433.75,313.75 C 425,387.5 373.75,478.75 306.25,478.75 C 273.75,470 243.75,470 193.75,478.75 C 141.25,477.5 52.5,370 78.75,303.75 C 105,238.75 131.25,212.5 167.5,120 C 167.5,112.5 202.5,88.75 226.25,85 z"
         style="fill:url(#radialGradient2301);fill-rule:evenodd;stroke:#000000;stroke-width:10;stroke-linejoin:round;stroke-dasharray:none" />
      <path
         sodipodi:nodetypes="cccccc"
         id="path947"
         d="M 210,88.75 L 187.5,50 C 187.5,50 165,16.25 197.5,15 C 221.25,15 215,30 216.25,38.75 C 217.5,47.5 233.75,82.5 233.75,82.5 C 233.75,82.5 215,87.5 210,88.75 z"
         style="fill:#643300;fill-rule:evenodd;stroke:#000000;stroke-width:10;stroke-linejoin:round;stroke-dasharray:none" />
      <path
         sodipodi:nodetypes="ccccccc"
         id="path948"
         d="M 301.25,96.25 C 301.25,96.25 360,213.75 327.5,222.5 C 295,231.25 242.5,265 270,293.75 C 297.5,322.5 331.25,311.25 336.25,348.75 C 341.25,386.25 375,422.5 392.5,418.75 C 412.5,385.625 425.76282,364.26657 429.53125,306.40625 C 415.9375,262.8125 324.375,112.5 301.25,96.25 z"
         style="fill:url(#radialGradient2303);fill-opacity:1;fill-rule:evenodd;stroke-width:1pt" />
      <path
         sodipodi:nodetypes="ccc"
         id="path949"
         d="M 210,247.5 C 166.25,233.75 161.25,286.25 202.5,301.25 C 241.25,306.25 255,266.25 210,247.5 z"
         style="fill:url(#radialGradient2305);fill-opacity:1;fill-rule:evenodd;stroke:url(#radialGradient2307);stroke-width:1pt" />
      <path
         sodipodi:nodetypes="ccc"
         id="path950"
         d="M 228.75,148.75 C 211.25,142.5 170,168.75 213.75,193.75 C 243.75,206.25 276.25,167.5 228.75,148.75 z"
         style="fill:url(#radialGradient2309);fill-opacity:1;fill-rule:evenodd;stroke-width:1pt" />
      <path
         sodipodi:nodetypes="ccc"
         id="path952"
         d="M 187.47408,24.600615 C 179.97408,27.100615 212.89938,90.477153 217.89938,79.227153 C 211.64938,59.227153 194.97408,30.850615 187.47408,24.600615 z"
         style="fill:#ffffff;fill-opacity:0.15;fill-rule:evenodd;stroke-width:1pt" />
      <path
         sodipodi:nodetypes="cccc"
         id="path953"
         d="M 401.12547,231.10448 C 401.12547,231.10448 382.21515,183.46688 344.3945,146.25 C 303.66457,149.22735 322.5749,281.71943 369.12339,278.74208 C 415.67187,275.76473 398.21619,243.01388 401.12547,231.10448 z"
         style="fill:url(#radialGradient2311);fill-opacity:1;fill-rule:evenodd;stroke-width:1pt" />
      <path
         sodipodi:nodetypes="cccc"
         id="path954"
         d="M 396.46052,403.04135 C 396.46052,403.04135 400.84429,318.62491 330.86181,294.97924 C 283.76529,298.77089 305.63154,467.49945 359.45613,463.7078 C 413.2807,459.91615 393.09649,418.20796 396.46052,403.04135 z"
         style="fill:url(#radialGradient2313);fill-opacity:1;fill-rule:evenodd;stroke-width:1pt" />
      <path
         sodipodi:nodetypes="cccc"
         id="path955"
         d="M 380.21051,324.91635 C 380.21051,324.91635 384.59428,240.49991 314.6118,216.85424 C 267.51528,220.64589 289.38153,389.37445 343.20612,385.5828 C 397.03069,381.79115 376.84648,340.08296 380.21051,324.91635 z"
         style="fill:url(#radialGradient2315);fill-opacity:1;fill-rule:evenodd;stroke-width:1pt" />
      <path
         sodipodi:nodetypes="cccc"
         id="path956"
         d="M 371.46051,243.66635 C 371.46051,243.66635 375.84428,159.24991 305.8618,135.60424 C 258.76528,139.39589 280.63153,308.12445 334.45612,304.3328 C 388.28069,300.54115 368.09648,258.83296 371.46051,243.66635 z"
         style="fill:url(#radialGradient2317);fill-opacity:1;fill-rule:evenodd;stroke-width:1pt" />
      <path
         sodipodi:nodetypes="cccc"
         id="path957"
         d="M 351.46051,416.16635 C 351.46051,416.16635 355.84428,331.74991 285.8618,308.10424 C 238.76528,311.89589 260.63153,480.62445 314.45612,476.8328 C 368.28069,473.04115 348.09648,431.33296 351.46051,416.16635 z"
         style="fill:url(#radialGradient2319);fill-opacity:1;fill-rule:evenodd;stroke-width:1pt" />
      <path
         sodipodi:nodetypes="cccc"
         id="path958"
         d="M 353.96051,207.41635 C 353.96051,207.41635 358.34428,122.99991 288.3618,99.35424 C 241.26528,103.14589 263.13153,271.87445 316.95612,268.0828 C 370.78069,264.29115 350.59648,222.58296 353.96051,207.41635 z"
         style="fill:url(#radialGradient2321);fill-opacity:1;fill-rule:evenodd;stroke-width:1pt" />
      <path
         sodipodi:nodetypes="ccc"
         id="path959"
         d="M 345,156.25 C 481.25,405 312.5,461.25 350,471.25 C 418.75,408.75 473.75,320 345,156.25 z"
         style="fill:#ac4200;fill-opacity:0.17499994;fill-rule:evenodd;stroke-width:1pt" />
      <path
         sodipodi:nodetypes="cccc"
         id="path960"
         d="M 171.25,128.75 C 97.5,278.75 72.5,307.5 78.75,326.25 C 81.25,396.25 130,433.75 153.75,451.25 C 203.75,430 43.75,385 171.25,128.75 z"
         style="fill:#ffffff;fill-opacity:0.225;fill-rule:evenodd;stroke-width:1pt" />
    </g>
    <path
       style="fill:#000000;fill-opacity:1;fill-rule:evenodd;stroke:none;stroke-width:1px;stroke-linecap:butt;stroke-linejoin:miter;stroke-opacity:1"
       d="M 62.971126,40.622669 C 58.358103,39.939322 61.596851,53.759744 65.931085,60.259551 C 70.265319,66.759358 80.048356,76.312477 86.788139,79.374621 L 86.435308,78.416479 C 79.926735,75.459382 71.275653,66.253325 67.031964,59.889303 C 62.788275,53.525281 59.257376,40.668037 63.747624,40.906295 L 62.971126,40.622669 z"
       id="path2325"
       sodipodi:nodetypes="csccscc" />
    <path
       style="fill:url(#linearGradient3457);fill-rule:evenodd;stroke:none;stroke-width:1px;stroke-linecap:butt;stroke-linejoin:miter;stroke-opacity:1;filter:url(#filter3880)"
       d="M 56.084656,86.984127 C 58.130511,82.610229 57.63948,78.236332 62.222222,73.862434 C 64.832451,70.774504 67.442681,72.382899 70.05291,72.380952 C 64.589626,76.524499 61.74261,82.237806 59.047619,88.042328 L 56.084656,86.984127 z"
       id="path3455"
       transform="translate(21.03125,5.7357872)"
       sodipodi:nodetypes="ccccc" />
    <path
       sodipodi:type="arc"
       style="opacity:1;fill:#000000;fill-opacity:1;stroke:none;stroke-width:1;stroke-linecap:round;stroke-linejoin:bevel;stroke-miterlimit:4;stroke-dasharray:none;stroke-dashoffset:0;stroke-opacity:1"
       id="path2327"
       sodipodi:cx="65.396828"
       sodipodi:cy="68.465607"
       sodipodi:rx="1.6931217"
       sodipodi:ry="1.1640211"
       d="M 67.089949,68.465607 A 1.6931217,1.1640211 0 1 1 63.703706,68.465607 A 1.6931217,1.1640211 0 1 1 67.089949,68.465607 z"
       transform="matrix(1.5961337,0,0,2.1974288,-16.13608,-70.754353)" />
    <path
       style="fill:#000000;fill-opacity:1;fill-rule:evenodd;stroke:none;stroke-width:1px;stroke-linecap:butt;stroke-linejoin:miter;stroke-opacity:1"
       d="M 86.71875,79.142037 C 81.569117,82.669041 78.439891,87.360704 77.711762,92.019505 C 76.983633,96.678306 80.979241,101.42688 82.316606,104.12518 L 83.114715,103.98085 C 81.895441,101.52081 78.774709,96.83273 79.46875,92.392037 C 80.162791,87.951344 82.261563,82.700877 87.173109,79.33694 L 86.71875,79.142037 z"
       id="path2914"
       sodipodi:nodetypes="csccscc" />
    <path
       style="fill:url(#linearGradient3317);fill-rule:evenodd;stroke:none;stroke-width:1px;stroke-linecap:butt;stroke-linejoin:miter;stroke-opacity:1;fill-opacity:1;filter:url(#filter3363)"
       d="M 27.089948,44.867725 L 7.1957672,101.79894 L 9.1005291,107.51323 L 33.015873,42.539683 C 30.2222,42.835913 29.320387,42.881794 27.089948,44.867725 z"
       id="path2928"
       transform="translate(21.03125,5.7357872)"
       sodipodi:nodetypes="ccccc" />
  </g>
</svg>
