<?xml version="1.0" encoding="UTF-8" standalone="no"?>
<!-- Created with Inkscape (http://www.inkscape.org/) -->
<svg
   xmlns:dc="http://purl.org/dc/elements/1.1/"
   xmlns:cc="http://web.resource.org/cc/"
   xmlns:rdf="http://www.w3.org/1999/02/22-rdf-syntax-ns#"
   xmlns:svg="http://www.w3.org/2000/svg"
   xmlns="http://www.w3.org/2000/svg"
   xmlns:xlink="http://www.w3.org/1999/xlink"
   xmlns:sodipodi="http://sodipodi.sourceforge.net/DTD/sodipodi-0.dtd"
   xmlns:inkscape="http://www.inkscape.org/namespaces/inkscape"
   id="svg18001"
   sodipodi:version="0.32"
   inkscape:version="0.45pre1"
   width="360"
   height="360"
   sodipodi:docname="round_flower.svg"
   sodipodi:docbase="/home/nicu/Desktop/clipart"
   inkscape:output_extension="org.inkscape.output.svg.inkscape"
   version="1.0"
   sodipodi:modified="true">
  <defs
     id="defs18003">
    <linearGradient
       id="linearGradient6580">
      <stop
         offset="0.0000000"
         style="stop-color:#ffffff;stop-opacity:0.50196081;"
         id="stop6583" />
      <stop
         offset="1.0000000"
         style="stop-color:#ffffff;stop-opacity:0.0000000;"
         id="stop6581" />
    </linearGradient>
    <linearGradient
       id="linearGradient4066">
      <stop
         offset="0.0000000"
         style="stop-color:#4d5cf1;stop-opacity:0.0000000;"
         id="stop4068" />
      <stop
         offset="1.0000000"
         style="stop-color:#3038c7;stop-opacity:0.80337077;"
         id="stop4067" />
    </linearGradient>
    <linearGradient
       id="linearGradient2806">
      <stop
         offset="0.0000000"
         style="stop-color:#ebf1fe;stop-opacity:1.0000000;"
         id="stop2814" />
      <stop
         offset="0.21078238"
         style="stop-color:#d9e6fc;stop-opacity:1.0000000;"
         id="stop2812" />
      <stop
         offset="0.42636806"
         style="stop-color:#b1ccf9;stop-opacity:1.0000000;"
         id="stop2811" />
      <stop
         offset="0.68247312"
         style="stop-color:#b1ccf9;stop-opacity:1.0000000;"
         id="stop2810" />
      <stop
         offset="0.80313528"
         style="stop-color:#d9e6fc;stop-opacity:1.0000000;"
         id="stop2809" />
      <stop
         offset="0.92785835"
         style="stop-color:#fffffe;stop-opacity:1.0000000;"
         id="stop2808" />
      <stop
         offset="1.0000000"
         style="stop-color:#ebf1fe;stop-opacity:1.0000000;"
         id="stop2807" />
    </linearGradient>
    <radialGradient
       inkscape:collect="always"
       xlink:href="#linearGradient2806"
       id="radialGradient2815"
       cx="294.14956"
       cy="564.00562"
       r="26.495791"
       fx="294.24577"
       fy="564.10408"
       gradientTransform="scale(1.1338934,0.8819171)"
       gradientUnits="userSpaceOnUse" />
    <radialGradient
       inkscape:collect="always"
       xlink:href="#linearGradient4066"
       id="radialGradient4069"
       cx="294.14956"
       cy="564.00562"
       r="26.495791"
       fx="294.24577"
       fy="564.10408"
       gradientTransform="scale(1.1338934,0.8819171)"
       gradientUnits="userSpaceOnUse" />
    <linearGradient
       inkscape:collect="always"
       xlink:href="#linearGradient6580"
       id="linearGradient6579"
       x1="115.15195"
       y1="25.187739"
       x2="186.50384"
       y2="70.250306"
       gradientTransform="scale(0.8605032,1.1621108)"
       gradientUnits="userSpaceOnUse" />
    <linearGradient
       inkscape:collect="always"
       xlink:href="#linearGradient6580"
       id="linearGradient6585"
       x1="53.370112"
       y1="135.99259"
       x2="114.87819"
       y2="115.60446"
       gradientTransform="scale(1.0700224,0.9345599)"
       gradientUnits="userSpaceOnUse" />
    <linearGradient
       inkscape:collect="always"
       xlink:href="#linearGradient6580"
       id="linearGradient6587"
       x1="211.69645"
       y1="17.838134"
       x2="276.22804"
       y2="50.601524"
       gradientTransform="scale(0.6991981,1.4302098)"
       gradientUnits="userSpaceOnUse" />
    <linearGradient
       inkscape:collect="always"
       xlink:href="#linearGradient6580"
       id="linearGradient6589"
       x1="239.08745"
       y1="24.890314"
       x2="277.27943"
       y2="72.37985"
       gradientTransform="scale(0.7839194,1.2756414)"
       gradientUnits="userSpaceOnUse" />
    <linearGradient
       inkscape:collect="always"
       xlink:href="#linearGradient6580"
       id="linearGradient6591"
       x1="227.44279"
       y1="68.192697"
       x2="247.30723"
       y2="106.72754"
       gradientTransform="scale(1.0854658,0.9212635)"
       gradientUnits="userSpaceOnUse" />
    <linearGradient
       inkscape:collect="always"
       xlink:href="#linearGradient6580"
       id="linearGradient6593"
       x1="229.80992"
       y1="139.88567"
       x2="231.62884"
       y2="172.8895"
       gradientTransform="scale(1.1999087,0.8333967)"
       gradientUnits="userSpaceOnUse" />
    <linearGradient
       inkscape:collect="always"
       xlink:href="#linearGradient6580"
       id="linearGradient6596"
       x1="228.27518"
       y1="281.93947"
       x2="215.24072"
       y2="249.08065"
       gradientTransform="scale(1.3824436,0.7233568)"
       gradientUnits="userSpaceOnUse" />
    <linearGradient
       inkscape:collect="always"
       xlink:href="#linearGradient6580"
       id="linearGradient6598"
       x1="229.85109"
       y1="291.46614"
       x2="267.46044"
       y2="241.04315"
       gradientTransform="scale(1.1443565,0.8738535)"
       gradientUnits="userSpaceOnUse" />
    <linearGradient
       inkscape:collect="always"
       xlink:href="#linearGradient6580"
       id="linearGradient6600"
       x1="205.40919"
       y1="216.12632"
       x2="232.55337"
       y2="196.00482"
       gradientTransform="scale(0.9888065,1.0113202)"
       gradientUnits="userSpaceOnUse" />
    <linearGradient
       inkscape:collect="always"
       xlink:href="#linearGradient6580"
       id="linearGradient6602"
       x1="255.54504"
       y1="265.68811"
       x2="259.36712"
       y2="221.84892"
       gradientTransform="scale(0.8469944,1.1806453)"
       gradientUnits="userSpaceOnUse" />
    <linearGradient
       inkscape:collect="always"
       xlink:href="#linearGradient6580"
       id="linearGradient6604"
       gradientTransform="scale(0.7104793,1.4075006)"
       x1="236.16866"
       y1="182.56154"
       x2="349.54401"
       y2="182.56154"
       gradientUnits="userSpaceOnUse" />
    <linearGradient
       inkscape:collect="always"
       xlink:href="#linearGradient6580"
       id="linearGradient6606"
       x1="155.72248"
       y1="238.46274"
       x2="200.79339"
       y2="215.10504"
       gradientTransform="scale(0.764511,1.3080256)"
       gradientUnits="userSpaceOnUse" />
    <linearGradient
       inkscape:collect="always"
       xlink:href="#linearGradient6580"
       id="linearGradient6608"
       x1="83.268719"
       y1="257.05513"
       x2="106.96398"
       y2="268.2857"
       gradientTransform="scale(1.0407578,0.9608384)"
       gradientUnits="userSpaceOnUse" />
    <linearGradient
       inkscape:collect="always"
       xlink:href="#linearGradient6580"
       id="linearGradient6610"
       x1="64.538894"
       y1="224.91505"
       x2="44.597968"
       y2="240.25337"
       gradientTransform="scale(1.2074795,0.8281714)"
       gradientUnits="userSpaceOnUse" />
    <linearGradient
       inkscape:collect="always"
       xlink:href="#linearGradient6580"
       id="linearGradient6612"
       x1="55.913691"
       y1="201.3039"
       x2="75.858706"
       y2="215.51237"
       gradientTransform="scale(1.3345279,0.7493287)"
       gradientUnits="userSpaceOnUse" />
    <linearGradient
       inkscape:collect="always"
       xlink:href="#linearGradient6580"
       id="linearGradient6614"
       x1="27.51757"
       y1="140.11368"
       x2="48.464278"
       y2="148.05704"
       gradientTransform="scale(1.3548884,0.7380681)"
       gradientUnits="userSpaceOnUse" />
    <defs
       id="defs877">
      <linearGradient
         id="linearGradient585"
         x1="0"
         y1="0.5"
         x2="1"
         y2="0.5"
         gradientUnits="objectBoundingBox"
         spreadMethod="pad"
         xlink:href="#linearGradient1017" />
      <linearGradient
         id="linearGradient579"
         x1="0"
         y1="0.5"
         x2="1"
         y2="0.5"
         gradientUnits="objectBoundingBox"
         spreadMethod="pad"
         xlink:href="#linearGradient1022" />
      <linearGradient
         xlink:href="#linearGradient579"
         id="linearGradient582"
         x1="0.4852941"
         y1="0.51136363"
         x2="0.41176471"
         y2="0.60227275" />
      <linearGradient
         xlink:href="#linearGradient585"
         id="linearGradient584"
         x1="0.50735295"
         y1="0.12280702"
         x2="0.3272059"
         y2="1.0964912" />
      <linearGradient
         xlink:href="#linearGradient585"
         id="linearGradient589" />
    </defs>
    <linearGradient
       id="linearGradient1017">
      <stop
         offset="0.0000000"
         style="stop-color:#ffffff;stop-opacity:0.17500000;"
         id="stop1019" />
      <stop
         offset="1.0000000"
         style="stop-color:#ffffff;stop-opacity:0.37500000;"
         id="stop1018" />
    </linearGradient>
    <linearGradient
       id="linearGradient1022">
      <stop
         offset="0.0000000"
         style="stop-color:#000000;stop-opacity:0.40833300;"
         id="stop1024" />
      <stop
         offset="1.0000000"
         style="stop-color:#000000;stop-opacity:0.0000000;"
         id="stop1023" />
    </linearGradient>
    <linearGradient
       inkscape:collect="always"
       xlink:href="#linearGradient2152"
       id="linearGradient5268"
       x1="0.1574074"
       y1="-0.10769231"
       x2="0.3287037"
       y2="0.86153847" />
    <linearGradient
       id="linearGradient2152">
      <stop
         style="stop-color:#ffffff;stop-opacity:1.0000000;"
         offset="0.0000000"
         id="stop2153" />
      <stop
         style="stop-color:#ffffff;stop-opacity:0.49803922;"
         offset="0.0099999998"
         id="stop2778" />
      <stop
         style="stop-color:#ffffff;stop-opacity:0.0000000;"
         offset="1.0000000"
         id="stop2154" />
    </linearGradient>
  </defs>
  <sodipodi:namedview
     id="base"
     pagecolor="#ffffff"
     bordercolor="#666666"
     borderopacity="1.0"
     inkscape:pageopacity="0.0"
     inkscape:pageshadow="2"
     inkscape:zoom="1"
     inkscape:cx="219.99997"
     inkscape:cy="135.06067"
     inkscape:window-width="1152"
     inkscape:window-height="791"
     inkscape:window-x="0"
     inkscape:window-y="24"
     showguides="true"
     inkscape:guide-bbox="true"
     height="360px"
     width="360px"
     inkscape:current-layer="svg18001" />
  <metadata
     id="metadata46">
    <rdf:RDF>
      <cc:Work
         rdf:about="">
        <dc:title>flower</dc:title>
        <dc:description />
        <dc:subject>
          <rdf:Bag>
            <rdf:li>flower</rdf:li>
          </rdf:Bag>
        </dc:subject>
        <dc:publisher>
          <cc:Agent
             rdf:about="http://www.openclipart.org">
            <dc:title>Maja Kocoń</dc:title>
          </cc:Agent>
        </dc:publisher>
        <dc:creator>
          <cc:Agent
             rdf:about="">
            <dc:title>Maja Kocoń</dc:title>
          </cc:Agent>
        </dc:creator>
        <dc:rights>
          <cc:Agent
             rdf:about="">
            <dc:title>Maja Kocoń</dc:title>
          </cc:Agent>
        </dc:rights>
        <dc:date />
        <dc:format>image/svg+xml</dc:format>
        <dc:type
           rdf:resource="http://purl.org/dc/dcmitype/StillImage" />
        <cc:license
           rdf:resource="http://web.resource.org/cc/PublicDomain">
          <dc:date>32</dc:date>
        </cc:license>
        <dc:language>en</dc:language>
      </cc:Work>
      <cc:License
         rdf:about="Public Domain">
        <cc:permits
           rdf:resource="http://web.resource.org/cc/Reproduction" />
        <cc:permits
           rdf:resource="http://web.resource.org/cc/Distribution" />
        <cc:permits
           rdf:resource="http://web.resource.org/cc/DerivativeWorks" />
      </cc:License>
    </rdf:RDF>
  </metadata>
  <g
     id="g6615"
     transform="translate(-14.75,6)">
    <path
       style="fill:#000000;fill-opacity:0.25098039;fill-rule:evenodd;stroke:none;stroke-width:1pt;stroke-linecap:butt;stroke-linejoin:miter;stroke-opacity:1"
       d="M 193.07692,26.733173 C 181.30586,27.374243 170.06787,33.856813 162.70192,43.108173 C 154.74093,36.080733 145.07021,31.609693 133.23317,32.639423 C 117.87499,32.272143 108.81006,41.753143 104.54567,54.108173 C 104.20657,54.077743 103.88697,53.975033 103.54567,53.951923 C 94.917273,54.256113 85.482173,54.062303 77.889423,58.795673 C 67.950913,67.881063 64.149203,82.280513 66.201923,95.483173 C 62.507423,95.641253 58.784203,96.021043 55.045673,96.858173 C 42.511803,98.068303 33.925473,107.21631 30.576923,118.92067 C 24.793343,132.08086 28.085723,148.13118 38.670673,157.85817 C 43.288493,162.03202 48.463713,165.35536 53.951923,168.07692 C 53.252713,168.48927 52.516543,168.83833 51.826923,169.26442 C 41.721433,175.99251 31.264103,186.60779 32.983173,199.79567 C 34.934003,211.29197 43.855523,218.90398 53.514423,224.67067 C 52.780543,226.86466 52.148333,229.15003 51.733173,231.54567 C 45.925503,252.32606 62.135193,268.19517 80.889423,271.48317 C 82.431113,283.23065 90.069713,293.9049 100.79567,299.32692 C 107.02818,303.86328 114.11846,304.99325 121.04567,303.95192 C 121.31846,305.22295 121.4731,306.50179 121.82692,307.76442 C 126.62038,322.42182 141.46393,331.90145 156.67067,331.73317 C 166.03698,333.14943 174.20097,329.46335 180.48317,323.42067 C 181.14032,325.02512 181.69811,326.64996 182.45192,328.23317 C 200.74712,352.6396 226.42102,342.97471 241.45192,323.23317 C 253.29004,329.41348 268.77393,329.04125 279.57692,320.04567 C 286.04223,315.57277 291.38802,309.57917 294.07692,302.63942 C 313.43742,304.35047 331.34432,295.4055 332.32692,270.54567 C 332.25305,270.08609 332.09483,269.65889 332.01442,269.20192 C 333.54592,269.18713 335.06659,269.26672 336.60817,269.13942 C 351.90872,267.21303 364.04537,254.41454 366.76442,239.45192 C 371.99398,224.71025 363.00752,210.59135 351.10817,202.38942 C 363.29608,193.57998 368.04385,177.12734 363.76442,162.85817 C 362.84561,155.84304 359.31588,150.34184 354.48317,146.13942 C 355.78763,142.97267 356.8255,139.59731 357.42067,135.98317 C 363.46097,113.64998 344.2716,96.993353 323.85817,95.670673 C 325.63318,87.169423 325.16321,78.252853 319.32692,71.389423 C 309.13497,60.298003 292.67132,60.915543 278.92067,62.389423 C 278.01478,62.483143 277.15452,62.721393 276.29567,62.920673 C 276.28821,62.613093 276.33897,62.323103 276.32692,62.014423 C 277.39614,49.467743 269.95464,39.355603 259.04567,33.951923 C 247.14372,25.890673 230.77145,26.231403 219.29567,34.889423 C 217.78903,36.045733 216.45935,37.366233 215.07692,38.639423 C 210.45482,33.718383 205.54201,28.942763 199.04567,26.920673 C 197.04678,26.682423 195.06205,26.625063 193.07692,26.733173 z "
       id="path4693" />
    <path
       style="fill:#bbd5fe;fill-opacity:1;fill-rule:evenodd;stroke:none;stroke-width:1pt;stroke-linecap:butt;stroke-linejoin:miter;stroke-opacity:1"
       d="M 174.48446,138.18809 C 157.90598,163.04752 125.87373,170.87248 97.646317,171.16513 C 75.120394,171.06146 50.653938,166.45046 33.458657,150.90841 C 22.873706,141.18143 19.588078,125.13479 25.371655,111.9746 C 28.720198,100.27023 37.301438,91.135575 49.835304,89.925452 C 77.618583,83.704217 104.35199,97.602037 127.57069,111.29489 C 143.06876,120.49267 158.11665,130.55126 174.48446,138.18809 z "
       id="path2821" />
    <path
       style="fill:url(#linearGradient6614);fill-opacity:1;fill-rule:evenodd;stroke:none;stroke-width:1pt;stroke-linecap:butt;stroke-linejoin:miter;stroke-opacity:1"
       d="M 174.34006,138.37521 C 157.76158,163.23464 125.72933,171.0596 97.501911,171.35225 C 74.975988,171.24858 50.509532,166.63758 33.314251,151.09553 C 22.7293,141.36855 19.443672,125.32191 25.227249,112.16172 C 28.575792,100.45735 37.157032,91.32269 49.690898,90.11257 C 77.474177,83.89133 104.20759,97.78915 127.42629,111.48201 C 142.92436,120.67979 157.97225,130.73838 174.34006,138.37521 z "
       id="path6613" />
    <path
       style="fill:#c3dafe;fill-opacity:1;fill-rule:evenodd;stroke:none;stroke-width:1pt;stroke-linecap:butt;stroke-linejoin:miter;stroke-opacity:1"
       d="M 170.08526,193.94564 C 168.8038,171.65092 151.10721,151.67864 129.15766,147.60612 C 101.17137,140.77839 70.861455,147.33366 46.606171,162.32011 C 36.500682,169.0482 26.053742,179.67852 27.772819,192.8664 C 30.292858,207.71716 44.457023,216.15533 56.797556,222.39745 C 66.375455,227.28659 77.298718,223.76076 87.325368,222.59506 C 116.14835,216.91648 142.05752,202.17752 170.08526,193.94564 z "
       id="path2820" />
    <path
       style="fill:url(#linearGradient6612);fill-opacity:1;fill-rule:evenodd;stroke:none;stroke-width:1pt;stroke-linecap:butt;stroke-linejoin:miter;stroke-opacity:1"
       d="M 168.42771,195.044 C 167.14625,172.74928 149.44966,152.777 127.50011,148.70448 C 99.513817,141.87675 69.203902,148.43202 44.948618,163.41847 C 34.843129,170.14656 24.396189,180.77688 26.115266,193.96476 C 28.635305,208.81552 42.79947,217.25369 55.140003,223.49581 C 64.717902,228.38495 75.641165,224.85912 85.667817,223.69342 C 114.4908,218.01484 140.39997,203.27588 168.42771,195.044 z "
       id="path6611" />
    <path
       style="fill:#eaf4fe;fill-opacity:1;fill-rule:evenodd;stroke:none;stroke-width:1pt;stroke-linecap:butt;stroke-linejoin:miter;stroke-opacity:1"
       d="M 180.8277,172.43168 C 171.77816,216.98945 135.46713,258.7717 89.094146,264.83879 C 65.735327,268.82457 39.330907,250.27668 46.510687,224.58673 C 51.928167,193.326 85.801001,179.5551 113.67388,174.88145 C 135.91221,170.59813 158.50412,174.20797 180.8277,172.43168 z "
       id="path2819" />
    <path
       style="fill:url(#linearGradient6610);fill-opacity:1;fill-rule:evenodd;stroke:none;stroke-width:1pt;stroke-linecap:butt;stroke-linejoin:miter;stroke-opacity:1"
       d="M 181.03373,172.32617 C 171.98419,216.88394 135.67316,258.66619 89.300183,264.73328 C 65.941363,268.71906 39.53694,250.17117 46.71672,224.48122 C 52.1342,193.22049 86.007033,179.44959 113.87991,174.77594 C 136.11824,170.49262 158.71015,174.10246 181.03373,172.32617 z "
       id="path6609" />
    <path
       style="fill:#c3dafe;fill-opacity:1;fill-rule:evenodd;stroke:none;stroke-width:1pt;stroke-linecap:butt;stroke-linejoin:miter;stroke-opacity:1"
       d="M 200.52252,188.3439 C 174.44926,174.78839 143.10305,184.26908 119.82466,199.24926 C 99.530933,212.03255 80.758126,230.90708 75.71577,255.05034 C 73.212617,270.26713 82.013909,285.5305 95.586053,292.39128 C 108.51773,301.80368 125.10904,296.83027 136.37884,287.34544 C 164.76428,266.32789 176.44955,231.67511 192.7312,201.78805 C 195.19038,197.2287 197.76365,192.72913 200.52252,188.3439 z "
       id="path2818" />
    <path
       style="fill:url(#linearGradient6608);fill-opacity:1;fill-rule:evenodd;stroke:none;stroke-width:1pt;stroke-linecap:butt;stroke-linejoin:miter;stroke-opacity:1"
       d="M 200.33448,188.38572 C 174.26122,174.83021 142.91501,184.3109 119.63662,199.29108 C 99.342911,212.07437 80.570095,230.9489 75.527739,255.09216 C 73.024586,270.30895 81.825878,285.57232 95.398026,292.4331 C 108.32969,301.8455 124.921,296.87209 136.1908,287.38726 C 164.57624,266.36971 176.26151,231.71693 192.54316,201.82987 C 195.00234,197.27052 197.57561,192.77095 200.33448,188.38572 z "
       id="path6607" />
    <path
       style="fill:#bbd5fe;fill-opacity:1;fill-rule:evenodd;stroke:none;stroke-width:1pt;stroke-linecap:butt;stroke-linejoin:miter;stroke-opacity:1"
       d="M 196.62723,184.09415 C 167.24073,184.08444 143.79445,206.94791 130.04277,230.97259 C 117.92698,251.67172 109.96888,277.07515 116.62409,300.82445 C 121.41755,315.48187 136.26413,324.96934 151.47087,324.80106 C 167.28551,327.19233 179.71608,315.13038 185.34453,301.51823 C 200.84505,269.78175 195.24,233.64395 195.91077,199.61634 C 195.99126,194.43668 196.20054,189.25741 196.62723,184.09415 z "
       id="path2817" />
    <path
       style="fill:url(#linearGradient6606);fill-opacity:1;fill-rule:evenodd;stroke:none;stroke-width:1pt;stroke-linecap:butt;stroke-linejoin:miter;stroke-opacity:1"
       d="M 196.81309,184.06506 C 167.42659,184.05535 143.98031,206.91882 130.22863,230.9435 C 118.11284,251.64263 110.15474,277.04606 116.80995,300.79536 C 121.60341,315.45278 136.44999,324.94025 151.65673,324.77197 C 167.47137,327.16324 179.90194,315.10129 185.53039,301.48914 C 201.03091,269.75266 195.42586,233.61486 196.09663,199.58725 C 196.17712,194.40759 196.3864,189.22832 196.81309,184.06506 z "
       id="path6605" />
    <path
       style="fill:#aac9fe;fill-opacity:1;fill-rule:evenodd;stroke:none;stroke-width:1pt;stroke-linecap:butt;stroke-linejoin:miter;stroke-opacity:1"
       d="M 225.18109,176.21907 C 179.84398,206.39425 152.74032,269.80273 177.25243,321.28523 C 206.4094,360.18162 254.36299,312.61095 247.98791,275.47682 C 249.8123,240.66841 229.78996,209.91086 225.18109,176.21907 z "
       id="path2816" />
    <path
       style="fill:url(#linearGradient6604);fill-opacity:1;fill-rule:evenodd;stroke:none;stroke-width:1pt;stroke-linecap:butt;stroke-linejoin:miter;stroke-opacity:1"
       d="M 224.96018,177.16754 C 179.62307,207.34272 152.51941,270.7512 177.03152,322.2337 C 206.18849,361.13009 254.14208,313.55942 247.767,276.42529 C 249.59139,241.61688 229.56905,210.85933 224.96018,177.16754 z "
       id="path6603" />
    <path
       style="fill:#98bbfd;fill-opacity:1;fill-rule:evenodd;stroke:none;stroke-width:1pt;stroke-linecap:butt;stroke-linejoin:miter;stroke-opacity:1"
       d="M 209.95333,180.62449 C 189.96565,196.72172 187.80615,224.64206 192.46134,247.27506 C 197.7246,273.01745 210.22933,299.00726 232.68548,314.24846 C 244.80708,322.54046 262.46062,323.03317 274.37392,313.11304 C 284.64501,306.00719 292.10469,295.0517 290.54443,282.58733 C 290.14959,255.45457 270.18796,234.59972 251.18869,217.36662 C 237.50442,205.05576 222.82411,193.77288 209.95333,180.62449 z "
       id="path2888" />
    <path
       style="fill:url(#linearGradient6602);fill-opacity:1;fill-rule:evenodd;stroke:none;stroke-width:1pt;stroke-linecap:butt;stroke-linejoin:miter;stroke-opacity:1"
       d="M 209.64236,179.85731 C 189.65468,195.95454 187.49518,223.87488 192.15037,246.50788 C 197.41363,272.25027 209.91836,298.24008 232.37451,313.48128 C 244.49611,321.77328 262.14965,322.26599 274.06295,312.34586 C 284.33404,305.24001 291.79372,294.28452 290.23346,281.82015 C 289.83862,254.68739 269.87699,233.83254 250.87772,216.59944 C 237.19345,204.28858 222.51314,193.0057 209.64236,179.85731 z "
       id="path6601" />
    <path
       style="fill:#aac9fe;fill-opacity:1;fill-rule:evenodd;stroke:none;stroke-width:1pt;stroke-linecap:butt;stroke-linejoin:miter;stroke-opacity:1"
       d="M 205.28616,171.39867 C 259.73969,170.50016 318.05068,207.31148 327.10002,263.60891 C 325.18015,312.18228 258.69677,300.246 242.86272,266.05728 C 221.59911,238.43822 220.61987,201.75086 205.28616,171.39867 z "
       id="path2887" />
    <path
       style="fill:url(#linearGradient6600);fill-opacity:1;fill-rule:evenodd;stroke:none;stroke-width:1pt;stroke-linecap:butt;stroke-linejoin:miter;stroke-opacity:1"
       d="M 205.58751,170.8305 C 260.04104,169.93199 318.35203,206.74331 327.40137,263.04074 C 325.4815,311.61411 258.99812,299.67783 243.16407,265.48911 C 221.90046,237.87005 220.92122,201.18269 205.58751,170.8305 z "
       id="path6599" />
    <path
       style="fill:#bbd5fe;fill-opacity:1;fill-rule:evenodd;stroke:none;stroke-width:1pt;stroke-linecap:butt;stroke-linejoin:miter;stroke-opacity:1"
       d="M 231.96276,161.49324 C 226.37945,190.34445 244.3808,217.70168 265.36107,235.76053 C 283.38644,251.58242 306.81931,264.21437 331.39981,262.18455 C 346.70034,260.25819 358.83157,247.48062 361.55062,232.518 C 366.89808,217.44398 357.4128,202.95126 345.11531,194.84313 C 316.89493,173.60448 280.35,172.25347 247.0673,165.14081 C 241.99693,164.07935 236.95137,162.89151 231.96276,161.49324 z "
       id="path6906" />
    <path
       style="fill:url(#linearGradient6598);fill-opacity:1;fill-rule:evenodd;stroke:none;stroke-width:1pt;stroke-linecap:butt;stroke-linejoin:miter;stroke-opacity:1"
       d="M 232.45364,161.19245 C 226.87033,190.04366 244.87168,217.40089 265.85195,235.45974 C 283.87732,251.28163 307.31019,263.91358 331.89069,261.88376 C 347.19122,259.9574 359.32245,247.17983 362.0415,232.21721 C 367.38896,217.14319 357.90368,202.65047 345.60619,194.54234 C 317.38581,173.30369 280.84088,171.95268 247.55818,164.84002 C 242.48781,163.77856 237.44225,162.59072 232.45364,161.19245 z "
       id="path6597" />
    <path
       style="fill:#c3dafe;fill-opacity:1;fill-rule:evenodd;stroke:none;stroke-width:1pt;stroke-linecap:butt;stroke-linejoin:miter;stroke-opacity:1"
       d="M 210.85547,151.45336 C 218.97582,179.69564 247.43334,195.90174 274.32464,202.47036 C 297.56775,208.38693 324.18132,209.00668 345.16262,196.04105 C 357.92186,187.37973 362.9318,170.48791 358.56314,155.92123 C 356.48598,140.06226 341.456,131.45375 326.81801,129.81071 C 292.03197,123.69497 258.85514,139.07865 225.96999,147.84768 C 220.97024,149.20329 215.93528,150.43499 210.85547,151.45336 z "
       id="path2890" />
    <path
       style="fill:url(#linearGradient6596);fill-opacity:1;fill-rule:evenodd;stroke:none;stroke-width:1pt;stroke-linecap:butt;stroke-linejoin:miter;stroke-opacity:1"
       d="M 211.54096,150.92543 C 219.66131,179.16771 248.11883,195.37381 275.01013,201.94243 C 298.25324,207.859 324.86681,208.47875 345.84811,195.51312 C 358.60735,186.8518 363.61729,169.95998 359.24863,155.3933 C 357.17147,139.53433 342.14149,130.92582 327.5035,129.28278 C 292.71746,123.16704 259.54063,138.55072 226.65548,147.31975 C 221.65573,148.67536 216.62077,149.90706 211.54096,150.92543 z "
       id="path6595" />
    <path
       style="fill:#eaf4fe;fill-opacity:1;fill-rule:evenodd;stroke:none;stroke-width:1pt;stroke-linecap:butt;stroke-linejoin:miter;stroke-opacity:1"
       d="M 218.33095,182.33381 C 227.00672,137.70175 262.96628,95.61664 309.28679,89.161096 C 332.61138,84.979686 359.17033,103.30561 352.20612,129.05483 C 347.05084,160.35987 313.29461,174.41419 285.46188,179.32128 C 263.26023,183.79084 240.63886,180.37048 218.33095,182.33381 z "
       id="path2884" />
    <path
       style="fill:url(#linearGradient6593);fill-opacity:1;fill-rule:evenodd;stroke:none;stroke-width:1pt;stroke-linecap:butt;stroke-linejoin:miter;stroke-opacity:1"
       d="M 218.06963,182.21788 C 226.7454,137.58582 262.70496,95.500709 309.02547,89.045159 C 332.35006,84.863749 358.90901,103.18968 351.9448,128.9389 C 346.78952,160.24394 313.03329,174.29826 285.20056,179.20535 C 262.99891,183.67491 240.37754,180.25455 218.06963,182.21788 z "
       id="path6592" />
    <path
       style="fill:#c3dafe;fill-opacity:1;fill-rule:evenodd;stroke:none;stroke-width:1pt;stroke-linecap:butt;stroke-linejoin:miter;stroke-opacity:1"
       d="M 194.11572,140.9469 C 207.31707,158.95859 233.03005,166.09329 253.6641,157.57248 C 280.86245,148.08036 302.73172,126.09405 314.93454,100.32579 C 319.7552,89.183559 322.73999,74.581049 314.12459,64.449404 C 303.93263,53.357986 287.45724,53.980904 273.70659,55.454783 C 263.01008,56.56141 255.76149,65.461248 247.98161,71.892909 C 226.88328,92.334799 213.15799,118.79492 194.11572,140.9469 z "
       id="path2885" />
    <path
       style="fill:url(#linearGradient6591);fill-opacity:1;fill-rule:evenodd;stroke:none;stroke-width:1pt;stroke-linecap:butt;stroke-linejoin:miter;stroke-opacity:1"
       d="M 194.21312,140.95385 C 207.41447,158.96554 233.12745,166.10024 253.7615,157.57943 C 280.95985,148.08731 302.82912,126.101 315.03194,100.33274 C 319.8526,89.190506 322.83739,74.587991 314.22199,64.456351 C 304.03003,53.364931 287.55464,53.987851 273.80399,55.461731 C 263.10748,56.568351 255.85889,65.468191 248.07901,71.899851 C 226.98068,92.341746 213.25539,118.80187 194.21312,140.95385 z "
       id="path6590" />
    <path
       style="fill:#bbd5fe;fill-opacity:1;fill-rule:evenodd;stroke:none;stroke-width:1pt;stroke-linecap:butt;stroke-linejoin:miter;stroke-opacity:1"
       d="M 201.1829,168.96646 C 179.71942,148.1781 177.79721,115.26002 182.598,87.442307 C 186.7608,65.304136 195.7069,42.069764 214.09418,27.958012 C 225.56997,19.299996 241.94603,18.960986 253.84798,27.022236 C 264.75694,32.4259 272.19497,42.513281 271.12575,55.059955 C 272.23647,83.509576 253.74702,107.29958 236.0928,127.66943 C 224.25182,141.25547 211.6453,154.24353 201.1829,168.96646 z "
       id="path2886" />
    <path
       style="fill:url(#linearGradient6589);fill-opacity:1;fill-rule:evenodd;stroke:none;stroke-width:1pt;stroke-linecap:butt;stroke-linejoin:miter;stroke-opacity:1"
       d="M 201.30893,168.67091 C 179.84545,147.88255 177.92324,114.96447 182.72403,87.146761 C 186.88683,65.008581 195.83293,41.774213 214.22021,27.662461 C 225.696,19.004445 242.07206,18.665435 253.97401,26.726685 C 264.88297,32.130349 272.321,42.21773 271.25178,54.764404 C 272.3625,83.214021 253.87305,107.00403 236.21883,127.37388 C 224.37785,140.95992 211.77133,153.94798 201.30893,168.67091 z "
       id="path6588" />
    <path
       style="fill:#aac9fe;fill-opacity:1;fill-rule:evenodd;stroke:none;stroke-width:1pt;stroke-linecap:butt;stroke-linejoin:miter;stroke-opacity:1"
       d="M 190.28662,183.2044 C 167.76445,167.62787 155.73167,141.29122 149.12372,115.50952 C 143.19808,91.244837 141.93473,64.12829 153.88367,41.425608 C 161.78402,27.724862 177.84969,18.078721 193.84082,19.984692 C 202.38386,22.643848 208.41242,29.930939 214.27742,36.266823 C 226.79684,52.942874 226.28424,75.480919 221.57923,94.854841 C 214.63143,125.46227 199.36065,153.28498 190.28662,183.2044 z "
       id="path2891" />
    <path
       style="fill:#aac9fe;fill-opacity:1;fill-rule:evenodd;stroke:none;stroke-width:1pt;stroke-linecap:butt;stroke-linejoin:miter;stroke-opacity:1"
       d="M 193.95512,161.13717 C 167.45083,168.02187 139.64751,159.93593 115.80707,148.104 C 93.561072,136.74601 72.199913,119.99476 62.809574,96.119863 C 57.5928,81.18966 60.77892,62.72341 72.665111,51.857526 C 80.257854,47.124148 89.713431,47.317259 98.341827,47.013073 C 119.14668,48.421775 135.88065,63.528078 147.48056,79.743144 C 166.12331,104.9926 177.22192,134.72676 193.95512,161.13717 z "
       id="path2822" />
    <path
       style="fill:url(#linearGradient6585);fill-opacity:1;fill-rule:evenodd;stroke:none;stroke-width:1pt;stroke-linecap:butt;stroke-linejoin:miter;stroke-opacity:1"
       d="M 193.77017,160.72423 C 167.26588,167.60893 139.46256,159.52299 115.62212,147.69106 C 93.376128,136.33307 72.014965,119.58182 62.624626,95.706922 C 57.407852,80.776723 60.593972,62.310473 72.480163,51.444593 C 80.072906,46.711213 89.528478,46.904323 98.156878,46.600133 C 118.96173,48.008843 135.6957,63.115143 147.29561,79.330203 C 165.93836,104.57966 177.03697,134.31382 193.77017,160.72423 z "
       id="path6584" />
    <path
       style="fill:url(#linearGradient6587);fill-opacity:1;fill-rule:evenodd;stroke:none;stroke-width:1pt;stroke-linecap:butt;stroke-linejoin:miter;stroke-opacity:1"
       d="M 189.21986,181.88896 C 166.69769,166.31243 154.66491,139.97578 148.05696,114.19408 C 142.13132,89.929396 140.86797,62.812846 152.81691,40.110162 C 160.71726,26.409416 176.78293,16.763275 192.77406,18.669246 C 201.3171,21.328402 207.34566,28.615493 213.21066,34.951377 C 225.73008,51.627428 225.21748,74.165476 220.51247,93.539396 C 213.56467,124.14683 198.29389,151.96954 189.21986,181.88896 z "
       id="path6586" />
    <path
       style="fill:#98bbfd;fill-opacity:1;fill-rule:evenodd;stroke:none;stroke-width:1pt;stroke-linecap:butt;stroke-linejoin:miter;stroke-opacity:1"
       d="M 199.28273,164.55996 C 155.59401,157.2866 114.40314,126.81509 99.294463,84.576253 C 91.675294,61.971453 97.925554,24.962276 128.0213,25.682002 C 154.85298,23.34788 171.18313,48.460408 179.47611,70.431563 C 191.33965,100.42335 194.54902,132.90952 199.28273,164.55996 z "
       id="path2892" />
    <path
       style="fill:url(#linearGradient6579);fill-opacity:1;fill-rule:evenodd;stroke:none;stroke-width:1pt;stroke-linecap:butt;stroke-linejoin:miter;stroke-opacity:1"
       d="M 199.26517,164.12934 C 155.57645,156.85598 114.38558,126.38447 99.276911,84.145637 C 91.657742,61.540837 97.907999,24.531657 128.00374,25.251377 C 154.83542,22.917257 171.16557,48.029787 179.45855,70.000947 C 191.32209,99.992731 194.53146,132.4789 199.26517,164.12934 z "
       id="path5336" />
    <path
       sodipodi:type="arc"
       style="fill:none;fill-opacity:1;fill-rule:evenodd;stroke:none;stroke-width:1pt;stroke-linecap:butt;stroke-linejoin:miter;stroke-opacity:1"
       id="path18050"
       sodipodi:cx="329.33417"
       sodipodi:cy="499.75061"
       sodipodi:rx="16.745806"
       sodipodi:ry="13.024515"
       d="M 346.07997 499.75061 A 16.745806 13.024515 0 1 1  312.58836,499.75061 A 16.745806 13.024515 0 1 1  346.07997 499.75061 z"
       transform="matrix(-3.37866,0,0,4.256488,1332.845,-1960.332)" />
    <path
       sodipodi:type="arc"
       style="fill:#000000;fill-opacity:0.25098039;fill-rule:evenodd;stroke:none;stroke-width:1pt;stroke-linecap:butt;stroke-linejoin:miter;stroke-opacity:1"
       id="path5334"
       sodipodi:cx="329.33417"
       sodipodi:cy="499.75061"
       sodipodi:rx="16.745806"
       sodipodi:ry="13.024515"
       d="M 346.07997 499.75061 A 16.745806 13.024515 0 1 1  312.58836,499.75061 A 16.745806 13.024515 0 1 1  346.07997 499.75061 z"
       transform="matrix(-3.37866,0,0,4.256488,1307.636,-1944.016)" />
    <path
       sodipodi:type="arc"
       style="fill:url(#radialGradient2815);fill-opacity:1;fill-rule:evenodd;stroke:none;stroke-width:1pt;stroke-linecap:butt;stroke-linejoin:miter;stroke-opacity:1"
       id="path2893"
       sodipodi:cx="329.33417"
       sodipodi:cy="499.75061"
       sodipodi:rx="16.745806"
       sodipodi:ry="13.024515"
       d="M 346.07997 499.75061 A 16.745806 13.024515 0 1 1  312.58836,499.75061 A 16.745806 13.024515 0 1 1  346.07997 499.75061 z"
       transform="matrix(-3.378831,0,0,4.256704,1304.346,-1948.982)" />
    <path
       sodipodi:type="arc"
       style="fill:url(#radialGradient4069);fill-opacity:1;fill-rule:evenodd;stroke:none;stroke-width:1pt;stroke-linecap:butt;stroke-linejoin:miter;stroke-opacity:1"
       id="path3444"
       sodipodi:cx="329.33417"
       sodipodi:cy="499.75061"
       sodipodi:rx="16.745806"
       sodipodi:ry="13.024515"
       d="M 346.07997 499.75061 A 16.745806 13.024515 0 1 1  312.58836,499.75061 A 16.745806 13.024515 0 1 1  346.07997 499.75061 z"
       transform="matrix(-3.378831,0,0,4.256704,1304.346,-1948.982)" />
  </g>
  <path
     style="fill:url(#linearGradient5268);fill-opacity:0.75;fill-rule:evenodd;stroke:none;stroke-width:1pt;stroke-linecap:butt;stroke-linejoin:miter;stroke-opacity:1"
     d="M -57.85124,423.55372 C -57.85124,423.55372 66.115703,696.28099 380.16529,700.41322 C 785.12397,700.41322 1037.19,613.63637 1095.0413,535.12397 C 1088.843,638.42975 1111.5702,797.52066 1111.5702,797.52066 L -177.68595,807.85124 L -57.85124,423.55372 z "
     id="path4646"
     sodipodi:nodetypes="cccccc"
     transform="translate(-610.6921,0.78263)" />
</svg>
