<?xml version="1.0" encoding="UTF-8" standalone="no"?>
<!-- Created with Inkscape (http://www.inkscape.org/) -->
<svg
   xmlns:dc="http://purl.org/dc/elements/1.1/"
   xmlns:cc="http://web.resource.org/cc/"
   xmlns:rdf="http://www.w3.org/1999/02/22-rdf-syntax-ns#"
   xmlns:svg="http://www.w3.org/2000/svg"
   xmlns="http://www.w3.org/2000/svg"
   xmlns:xlink="http://www.w3.org/1999/xlink"
   xmlns:sodipodi="http://sodipodi.sourceforge.net/DTD/sodipodi-0.dtd"
   xmlns:inkscape="http://www.inkscape.org/namespaces/inkscape"
   width="128"
   height="128"
   id="svg2"
   sodipodi:version="0.32"
   inkscape:version="0.45pre1"
   version="1.0"
   sodipodi:docbase="/home/nicu/Desktop/clipart"
   sodipodi:docname="pacman.svg"
   inkscape:output_extension="org.inkscape.output.svg.inkscape"
   sodipodi:modified="true">
  <defs
     id="defs4">
    <linearGradient
       id="linearGradient9219">
      <stop
         style="stop-color:#000000;stop-opacity:1;"
         offset="0"
         id="stop9221" />
      <stop
         style="stop-color:#000000;stop-opacity:0;"
         offset="1"
         id="stop9223" />
    </linearGradient>
    <linearGradient
       id="linearGradient7451">
      <stop
         style="stop-color:#ffffff;stop-opacity:1;"
         offset="0"
         id="stop7453" />
      <stop
         style="stop-color:#d4d4d4;stop-opacity:1;"
         offset="1"
         id="stop7455" />
    </linearGradient>
    <linearGradient
       inkscape:collect="always"
       id="linearGradient5693">
      <stop
         style="stop-color:#ffffff;stop-opacity:1;"
         offset="0"
         id="stop5695" />
      <stop
         style="stop-color:#ffffff;stop-opacity:0;"
         offset="1"
         id="stop5697" />
    </linearGradient>
    <linearGradient
       id="linearGradient3055">
      <stop
         style="stop-color:#ffea00;stop-opacity:1;"
         offset="0"
         id="stop3057" />
      <stop
         style="stop-color:#ffc900;stop-opacity:1;"
         offset="1"
         id="stop3059" />
    </linearGradient>
    <radialGradient
       inkscape:collect="always"
       xlink:href="#linearGradient9219"
       id="radialGradient9237"
       gradientUnits="userSpaceOnUse"
       gradientTransform="matrix(0.939911,-3.398544e-6,1.28333e-2,0.868376,6.32719,78.09896)"
       cx="234.54051"
       cy="602.0022"
       fx="234.54051"
       fy="602.0022"
       r="69.5" />
    <radialGradient
       inkscape:collect="always"
       xlink:href="#linearGradient3055"
       id="radialGradient9239"
       gradientUnits="userSpaceOnUse"
       gradientTransform="matrix(1.079123,-0.517663,0.535389,0.639162,-263.2933,306.979)"
       cx="277.42722"
       cy="460.66507"
       fx="277.42722"
       fy="460.66507"
       r="92.5" />
    <radialGradient
       inkscape:collect="always"
       xlink:href="#linearGradient7451"
       id="radialGradient9241"
       gradientUnits="userSpaceOnUse"
       gradientTransform="matrix(1.101101,0.562316,-0.62879,0.824238,225.1219,-187.3075)"
       cx="462.96375"
       cy="437.17682"
       fx="462.96375"
       fy="437.17682"
       r="23.658312" />
    <linearGradient
       inkscape:collect="always"
       xlink:href="#linearGradient5693"
       id="linearGradient9243"
       gradientUnits="userSpaceOnUse"
       x1="176"
       y1="389.36218"
       x2="334"
       y2="450.36218" />
    <linearGradient
       inkscape:collect="always"
       xlink:href="#linearGradient5693"
       id="linearGradient9245"
       gradientUnits="userSpaceOnUse"
       gradientTransform="matrix(0.151337,0,0,0.146103,280.4945,305.2324)"
       x1="176"
       y1="389.36218"
       x2="334"
       y2="450.36218" />
  </defs>
  <sodipodi:namedview
     id="base"
     pagecolor="#ffffff"
     bordercolor="#666666"
     borderopacity="1.0"
     inkscape:pageopacity="0.0"
     inkscape:pageshadow="2"
     inkscape:zoom="1"
     inkscape:cx="64"
     inkscape:cy="63.5"
     inkscape:document-units="px"
     inkscape:current-layer="layer1"
     inkscape:window-width="1152"
     inkscape:window-height="791"
     inkscape:window-x="0"
     inkscape:window-y="24" />
  <metadata
     id="metadata7">
    <rdf:RDF>
      <cc:Work
         rdf:about="">
        <dc:format>image/svg+xml</dc:format>
        <dc:type
           rdf:resource="http://purl.org/dc/dcmitype/StillImage" />
      </cc:Work>
    </rdf:RDF>
  </metadata>
  <g
     inkscape:label="Layer 1"
     inkscape:groupmode="layer"
     id="layer1">
    <g
       id="g9227"
       transform="matrix(0.494978,0,0,0.494978,-81.13027,-149.094)">
      <path
         transform="matrix(1.676259,0,0,0.633094,-99.58269,133.9602)"
         d="M 304 600.86218 A 69.5 69.5 0 1 1  165,600.86218 A 69.5 69.5 0 1 1  304 600.86218 z"
         sodipodi:ry="69.5"
         sodipodi:rx="69.5"
         sodipodi:cy="600.86218"
         sodipodi:cx="234.5"
         id="path8344"
         style="opacity:0.50588235;fill:url(#radialGradient9237);fill-opacity:1;stroke:none;stroke-width:3;stroke-linecap:square;stroke-linejoin:round;stroke-miterlimit:4;stroke-dasharray:none;stroke-dashoffset:0;stroke-opacity:1"
         sodipodi:type="arc" />
      <path
         sodipodi:nodetypes="ccccczzz"
         id="path3065"
         d="M 385,404.36218 C 389.97855,397.17094 374,376.36218 374,376.36218 L 278,411.36218 L 277,434.36218 L 366,468.36218 C 366,468.36218 387.90709,448.38559 384,443.36218 C 380.5,438.86218 313.75,424.11218 314,419.36218 C 314.3025,413.6147 380.5,410.86218 385,404.36218 z "
         style="fill:#dae5ed;fill-opacity:1;fill-rule:evenodd;stroke:#72708a;stroke-width:3;stroke-linecap:butt;stroke-linejoin:miter;stroke-miterlimit:4;stroke-dasharray:none;stroke-opacity:1" />
      <path
         sodipodi:nodetypes="ccscccsc"
         id="path7466"
         d="M 367.1875,373.09375 C 365.69437,387.37659 369.40242,402.85969 334.65625,409.46875 C 353.50112,406.98807 375.47291,404.52524 378,400.875 C 382.66739,394.13321 368.92472,375.4062 367.1875,373.09375 z M 344.96875,432.34375 C 357.52162,439.3382 372.04441,441.23977 363.0625,465.96875 C 369.25327,459.78828 379.24281,448.90148 376.5,445.375 C 374.85323,443.25773 361.63894,438.41383 344.96875,432.34375 z "
         style="fill:#ffffff;fill-opacity:1;fill-rule:evenodd;stroke:none;stroke-width:3;stroke-linecap:butt;stroke-linejoin:miter;stroke-miterlimit:4;stroke-dasharray:none;stroke-opacity:1" />
      <path
         sodipodi:nodetypes="csssczc"
         id="path1307"
         d="M 374.42874,422.44946 C 393.33022,458.34445 370.17447,499.08552 322.74181,513.38934 C 275.30914,527.69316 221.47274,510.16989 202.57126,474.2749 C 183.66978,438.37991 206.82553,397.63885 254.25819,383.33503 C 278.16226,376.1265 302.00112,376.42605 325.57577,384.23118 C 325.57577,384.23118 284.92158,444.27781 288.5,448.36218 C 292.1491,452.52722 374.42874,422.44946 374.42874,422.44946 z "
         style="fill:url(#radialGradient9239);fill-opacity:1;stroke:#9b8e19;stroke-width:2.41402221;stroke-linecap:square;stroke-linejoin:round;stroke-miterlimit:4;stroke-dashoffset:0;stroke-opacity:1"
         transform="matrix(0.757878,0.770945,-1.018749,1.001482,534.1205,-253.0823)" />
      <path
         transform="matrix(1.027972,0,0,1.25641,-164.1748,-179.1185)"
         d="M 493 433.36218 A 22 18 0 1 1  449,433.36218 A 22 18 0 1 1  493 433.36218 z"
         sodipodi:ry="18"
         sodipodi:rx="22"
         sodipodi:cy="433.36218"
         sodipodi:cx="471"
         id="path5703"
         style="opacity:1;fill:url(#radialGradient9241);fill-opacity:1;stroke:#484848;stroke-width:3.3166244;stroke-linecap:square;stroke-linejoin:round;stroke-miterlimit:4;stroke-dasharray:none;stroke-dashoffset:0;stroke-opacity:1"
         sodipodi:type="arc" />
      <path
         sodipodi:type="arc"
         style="opacity:1;fill:#000000;fill-opacity:1;stroke:none;stroke-width:3.3166244;stroke-linecap:square;stroke-linejoin:round;stroke-miterlimit:4;stroke-dasharray:none;stroke-dashoffset:0;stroke-opacity:1"
         id="path7459"
         sodipodi:cx="471"
         sodipodi:cy="433.36218"
         sodipodi:rx="22"
         sodipodi:ry="18"
         d="M 493 433.36218 A 22 18 0 1 1  449,433.36218 A 22 18 0 1 1  493 433.36218 z"
         transform="matrix(0.71387,0,0,0.872507,-11.83511,-10.8648)" />
      <path
         sodipodi:nodetypes="csccccc"
         id="path4813"
         d="M 298.34375,328.34375 C 263.22601,328.88275 229.94691,348.43051 214.875,380.90625 C 196.92669,419.5798 210.67111,463.94571 245.40625,487.71875 C 261.41178,480.68058 273,475.375 273,475.375 C 243.54832,417.66237 268.56905,376.45653 327,345.375 L 314.71875,329.5 C 309.25617,328.65097 303.77966,328.26032 298.34375,328.34375 z "
         style="opacity:1;fill:url(#linearGradient9243);fill-opacity:1;stroke:none;stroke-width:2.41402221;stroke-linecap:square;stroke-linejoin:round;stroke-miterlimit:4;stroke-dasharray:none;stroke-dashoffset:0;stroke-opacity:1" />
      <path
         style="opacity:1;fill:url(#linearGradient9245);fill-opacity:1;stroke:none;stroke-width:2.41402221;stroke-linecap:square;stroke-linejoin:round;stroke-miterlimit:4;stroke-dasharray:none;stroke-dashoffset:0;stroke-opacity:1"
         d="M 325.64526,353.20451 C 320.33062,353.28326 315.29425,356.13925 313.01328,360.88404 C 310.29704,366.53436 312.37709,373.01636 317.63383,376.48966 C 320.05605,375.46137 321.80979,374.68621 321.80979,374.68621 C 317.35265,366.25422 321.13923,360.23393 329.98201,355.69282 L 328.1234,353.37344 C 327.29671,353.24938 326.4679,353.19231 325.64526,353.20451 z "
         id="path7461"
         sodipodi:nodetypes="csccccc" />
    </g>
  </g>
</svg>
