<?xml version="1.0" encoding="UTF-8" standalone="no"?>
<!DOCTYPE svg PUBLIC "-//W3C//DTD SVG 20010904//EN"
"http://www.w3.org/TR/2001/REC-SVG-20010904/DTD/svg10.dtd">
<!-- Created with Inkscape (http://www.inkscape.org/) -->
<svg
   id="svg1"
   sodipodi:version="0.32"
   inkscape:version="0.38.1"
   width="120.00000pt"
   height="120.00000pt"
   sodipodi:docbase="/home/nicu/Desktop/new_smileys"
   sodipodi:docname="smiley113.svg"
   xmlns="http://www.w3.org/2000/svg"
   xmlns:inkscape="http://www.inkscape.org/namespaces/inkscape"
   xmlns:sodipodi="http://sodipodi.sourceforge.net/DTD/sodipodi-0.dtd"
   xmlns:xlink="http://www.w3.org/1999/xlink">
  <defs
     id="defs3">
    <linearGradient
       id="linearGradient838">
      <stop
         style="stop-color:#ffffff;stop-opacity:0.50000000;"
         offset="0.0000000"
         id="stop839" />
      <stop
         style="stop-color:#ffffff;stop-opacity:0.0000000;"
         offset="1.0000000"
         id="stop840" />
    </linearGradient>
    <linearGradient
       id="linearGradient827">
      <stop
         style="stop-color:#ffffff;stop-opacity:1.0000000;"
         offset="0.0000000"
         id="stop828" />
      <stop
         style="stop-color:#ffc613;stop-opacity:1.0000000;"
         offset="1.0000000"
         id="stop829" />
    </linearGradient>
    <radialGradient
       xlink:href="#linearGradient827"
       id="radialGradient830"
       cx="0.43843809"
       cy="0.24228731"
       r="0.39870128"
       fx="0.44613335"
       fy="0.25009677" />
    <linearGradient
       xlink:href="#linearGradient838"
       id="linearGradient837"
       x1="0.13281250"
       y1="0.11718750"
       x2="0.93750000"
       y2="0.94531250" />
    <linearGradient
       xlink:href="#linearGradient838"
       id="linearGradient876" />
    <linearGradient
       xlink:href="#linearGradient838"
       id="linearGradient877" />
  </defs>
  <sodipodi:namedview
     id="base"
     pagecolor="#ffffff"
     bordercolor="#666666"
     borderopacity="1.0"
     inkscape:pageopacity="0.0"
     inkscape:pageshadow="2"
     inkscape:zoom="1.0000000"
     inkscape:cx="87.362091"
     inkscape:cy="49.962799"
     inkscape:window-width="684"
     inkscape:window-height="663"
     inkscape:window-x="437"
     inkscape:window-y="32" />
  <path
     transform="matrix(1.019945,0.000000,0.000000,1.052160,-6.697623,-9.933914)"
     style="fill:url(#radialGradient830);fill-opacity:1;fill-rule:evenodd;stroke:#000000;stroke-width:2.4132968;stroke-dasharray:none;stroke-linejoin:round;"
     d="M 130.95732,72.296425 C 130.95732,98.179753 109.27534,119.18651 82.560051,119.18651 C 55.844758,119.18651 34.162781,98.179753 34.162781,72.296425 C 34.162781,46.413097 55.844758,25.406338 82.560051,25.406338 C 109.27534,25.406338 130.95732,46.413097 130.95732,72.296425 z "
     id="path826" />
  <g
     id="g841"
     transform="translate(-74.48908,36.10290)">
    <path
       transform="matrix(0.998802,0.000000,0.000000,1.070454,0.142038,-2.329516)"
       style="fill:#ffffff;fill-opacity:1.0000000;fill-rule:evenodd;stroke:#000000;stroke-width:2.4177773;stroke-dasharray:none;stroke-linejoin:round;"
       d="M 143.01477,21.387184 C 143.01477,27.488255 137.68806,32.439848 131.12479,32.439848 C 124.56151,32.439848 119.23480,27.488255 119.23480,21.387184 C 119.23480,15.286114 124.56151,10.334520 131.12479,10.334520 C 137.68806,10.334520 143.01477,15.286114 143.01477,21.387184 z "
       id="path832" />
    <path
       transform="matrix(0.666452,0.000000,0.000000,0.731790,43.86252,2.256431)"
       style="fill:#0000ff;fill-rule:evenodd;stroke-width:1.0000000pt;"
       d="M 140.33534,24.903942 C 140.33534,29.618406 136.13399,33.444637 130.95732,33.444637 C 125.78066,33.444637 121.57930,29.618406 121.57930,24.903942 C 121.57930,20.189478 125.78066,16.363247 130.95732,16.363247 C 136.13399,16.363247 140.33534,20.189478 140.33534,24.903942 z "
       id="path834" />
    <path
       style="fill:#000000;fill-rule:evenodd;stroke-width:1.0000000pt;fill-opacity:1.0000000;"
       d="M 134.88675,20.537890 C 134.88675,22.607890 133.20675,24.287890 131.13675,24.287890 C 129.06675,24.287890 127.38675,22.607890 127.38675,20.537890 C 127.38675,18.467890 129.06675,16.787890 131.13675,16.787890 C 133.20675,16.787890 134.88675,18.467890 134.88675,20.537890 z "
       id="path835" />
    <path
       style="fill:url(#linearGradient837);fill-rule:evenodd;stroke-width:1.0000000pt;"
       d="M 135.37718,19.287889 C 135.37718,22.047889 133.13718,24.287889 130.37718,24.287889 C 127.61718,24.287889 125.37718,22.047889 125.37718,19.287889 C 125.37718,16.527888 127.61718,14.287889 130.37718,14.287889 C 133.13718,14.287889 135.37718,16.527888 135.37718,19.287889 z "
       id="path836" />
  </g>
  <g
     id="g846"
     transform="translate(-34.44999,34.91603)">
    <path
       transform="matrix(0.998802,0.000000,0.000000,1.070454,0.142038,-2.329516)"
       style="fill:#ffffff;fill-opacity:1.0000000;fill-rule:evenodd;stroke:#000000;stroke-width:2.4177773;stroke-dasharray:none;stroke-linejoin:round;"
       d="M 143.01477,21.387184 C 143.01477,27.488255 137.68806,32.439848 131.12479,32.439848 C 124.56151,32.439848 119.23480,27.488255 119.23480,21.387184 C 119.23480,15.286114 124.56151,10.334520 131.12479,10.334520 C 137.68806,10.334520 143.01477,15.286114 143.01477,21.387184 z "
       id="path847" />
    <path
       transform="matrix(0.666452,0.000000,0.000000,0.731790,43.86252,2.256431)"
       style="fill:#0000ff;fill-rule:evenodd;stroke-width:1.0000000pt;"
       d="M 140.33534,24.903942 C 140.33534,29.618406 136.13399,33.444637 130.95732,33.444637 C 125.78066,33.444637 121.57930,29.618406 121.57930,24.903942 C 121.57930,20.189478 125.78066,16.363247 130.95732,16.363247 C 136.13399,16.363247 140.33534,20.189478 140.33534,24.903942 z "
       id="path848" />
    <path
       style="fill:#000000;fill-rule:evenodd;stroke-width:1.0000000pt;fill-opacity:1.0000000;"
       d="M 134.88675,20.537890 C 134.88675,22.607890 133.20675,24.287890 131.13675,24.287890 C 129.06675,24.287890 127.38675,22.607890 127.38675,20.537890 C 127.38675,18.467890 129.06675,16.787890 131.13675,16.787890 C 133.20675,16.787890 134.88675,18.467890 134.88675,20.537890 z "
       id="path849" />
    <path
       style="fill:url(#linearGradient837);fill-rule:evenodd;stroke-width:1.0000000pt;"
       d="M 135.37718,19.287889 C 135.37718,22.047889 133.13718,24.287889 130.37718,24.287889 C 127.61718,24.287889 125.37718,22.047889 125.37718,19.287889 C 125.37718,16.527888 127.61718,14.287889 130.37718,14.287889 C 133.13718,14.287889 135.37718,16.527888 135.37718,19.287889 z "
       id="path850" />
  </g>
  <path
     style="fill:none;fill-rule:evenodd;stroke:black;stroke-opacity:1;stroke-width:2.5000000;stroke-linejoin:round;stroke-linecap:butt;fill-opacity:0.75;stroke-dasharray:none;"
     d="M 49.939417,87.244273 C 58.336310,99.618645 99.436891,99.176700 107.39184,83.708739"
     id="path851"
     sodipodi:nodetypes="cc" />
  <g
     id="g833"
     transform="matrix(0.104169,0.000000,0.000000,9.073519e-2,90.00571,74.14043)">
    <path
       style="fill:#ff0000;fill-rule:evenodd;stroke:#000000;stroke-opacity:1.0000000;stroke-width:20.464275;stroke-linejoin:miter;stroke-linecap:butt;fill-opacity:1;stroke-dasharray:none;"
       d="M 248.75 477.5 C 20 276.25 -36.25 110 88.75 37.5 C 191.25 7.5 232.5 107.5 247.5 162.5 C 260 110 321.25 5 407.5 37.5 C 530.833 83.75 484.167 263.75 248.75 477.5 z "
       id="path737"
       sodipodi:nodetypes="ccccc" />
    <path
       style="fill:url(#linearGradient876);fill-rule:evenodd;stroke:none;stroke-opacity:1;stroke-width:1pt;stroke-linejoin:miter;stroke-linecap:butt;fill-opacity:1;"
       d="M 100.00000,45.000000 C 100.00000,45.000000 32.717192,84.766457 35.217192,128.51646 C 12.717192,236.01646 186.25000,415.00000 201.25000,422.50000 C 151.25000,310.00000 63.750000,85.000000 100.00000,45.000000 z "
       id="path738"
       sodipodi:nodetypes="cccc" />
    <path
       style="fill:url(#linearGradient877);fill-rule:evenodd;stroke:none;stroke-opacity:1;stroke-width:1pt;stroke-linejoin:miter;stroke-linecap:butt;fill-opacity:1;"
       d="M 262.60860,151.92764 C 278.85860,104.42764 321.35860,47.605276 361.35860,45.105276 C 440.10860,51.355276 311.35860,84.427638 262.60860,151.92764 z "
       id="path739"
       sodipodi:nodetypes="ccc" />
  </g>

  <rdf:RDF 
   xmlns="http://web.resource.org/cc/"
   xmlns:dc="http://purl.org/dc/elements/1.1/"
   xmlns:rdf="http://www.w3.org/1999/02/22-rdf-syntax-ns#">
  <Work rdf:about="">
    <dc:title>Clipart by Nicu Buculei - smiley111</dc:title>
    <dc:rights>
       <Agent>
         <dc:title>Nicu Buculei</dc:title>
       </Agent>
    </dc:rights>
    <dc:type rdf:resource="http://purl.org/dc/dcmitype/StillImage" />
    <license rdf:resource="http://web.resource.org/cc/PublicDomain" />
  </Work>
   
  <License rdf:about="http://web.resource.org/cc/PublicDomain">
     <permits rdf:resource="http://web.resource.org/cc/Reproduction" />
     <permits rdf:resource="http://web.resource.org/cc/Distribution" />
     <permits rdf:resource="http://web.resource.org/cc/DerivativeWorks" />
  </License>

</rdf:RDF>
</svg>
