<?xml version="1.0" encoding="UTF-8" standalone="no"?>
<!DOCTYPE svg PUBLIC "-//W3C//DTD SVG 20010904//EN"
"http://www.w3.org/TR/2001/REC-SVG-20010904/DTD/svg10.dtd">
<!-- Created with Sodipodi ("http://www.sodipodi.com/") -->
<svg
   id="svg548"
   sodipodi:version="0.32"
   width="400pt"
   height="400pt"
   sodipodi:docbase="/home/nicu/svg_gal/smileys"
   sodipodi:docname="/home/nicu/svg_gal/smileys/smiley008.svg"
   xmlns="http://www.w3.org/2000/svg"
   xmlns:sodipodi="http://sodipodi.sourceforge.net/DTD/sodipodi-0.dtd"
   xmlns:xlink="http://www.w3.org/1999/xlink">
  <defs
     id="defs550">
    <linearGradient
       id="linearGradient608">
      <stop
         style="stop-color:#ffffff;stop-opacity:1;"
         offset="0.000000"
         id="stop609" />
      <stop
         style="stop-color:#000000;stop-opacity:1;"
         offset="1.000000"
         id="stop610" />
    </linearGradient>
    <linearGradient
       id="linearGradient601">
      <stop
         style="stop-color:#e6cd00;stop-opacity:1;"
         offset="0.000000"
         id="stop602" />
      <stop
         style="stop-color:#ff9f2d;stop-opacity:1;"
         offset="1.000000"
         id="stop603" />
    </linearGradient>
    <radialGradient
       xlink:href="#linearGradient601"
       id="radialGradient604"
       cx="0.30468768"
       cy="0.32812488"
       fx="0.30468768"
       fy="0.32812488"
       r="0.32960984"
       gradientUnits="objectBoundingBox"
       spreadMethod="pad" />
    <radialGradient
       xlink:href="#linearGradient608"
       id="radialGradient607"
       cx="0.44804481"
       cy="0.97655141"
       fx="0.44804481"
       fy="0.97655141"
       r="0.77106810"
       gradientUnits="objectBoundingBox"
       spreadMethod="pad" />
    <radialGradient
       xlink:href="#linearGradient601"
       id="radialGradient880"
       cx="-0.08571844"
       cy="0.96875000"
       fx="-0.08571844"
       fy="0.96875000"
       r="0.01562500"
       gradientUnits="objectBoundingBox"
       spreadMethod="pad" />
    <radialGradient
       xlink:href="#linearGradient601"
       id="radialGradient882"
       cx="0.31428808"
       cy="0.84375000"
       fx="0.31428808"
       fy="0.84375000"
       r="0.54508036"
       gradientUnits="objectBoundingBox"
       spreadMethod="pad" />
    <linearGradient
       xlink:href="#linearGradient601"
       id="linearGradient883"
       x1="0.14286037"
       y1="0.91406250"
       x2="0.32857189"
       y2="0.45312500"
       gradientUnits="objectBoundingBox"
       spreadMethod="pad" />
  </defs>
  <sodipodi:namedview
     id="base" />
  <path
     style="fill:url(#linearGradient883);fill-rule:evenodd;stroke:none;stroke-opacity:1;stroke-width:1pt;stroke-linejoin:miter;stroke-linecap:butt;fill-opacity:1;"
     d="M 395.012 57.1072 L 439.628 19.0207 L 436.364 101.723 L 395.012 57.1072 z "
     id="path881"
     transform="matrix(-1.000000,0.000000,0.000000,1.000000,492.9487,6.529121)" />
  <path
     style="fill:url(#radialGradient880);fill-rule:evenodd;stroke:none;stroke-opacity:1;stroke-width:1pt;stroke-linejoin:miter;stroke-linecap:butt;fill-opacity:1;"
     d="M 395.012 57.1072 L 439.628 19.0207 L 436.364 101.723 L 395.012 57.1072 z "
     id="path879" />
  <path
     sodipodi:type="arc"
     style="fill-rule:evenodd;stroke:none;fill:url(#radialGradient604);fill-opacity:1;stroke-opacity:1;stroke-width:0;stroke-linejoin:miter;stroke-linecap:butt;stroke-dasharray:none;"
     id="path600"
     d="M 491.648560 259.571869 A 229.036285 224.839264 0 1 0 33.575989,259.571869 A 229.036 224.839 0 1 0 491.649 259.572 L 262.612274 259.571869 z"
     sodipodi:cx="262.612274"
     sodipodi:cy="259.571869"
     sodipodi:rx="229.036285"
     sodipodi:ry="224.839264"
     transform="matrix(1.060209,0.000000,0.000000,1.085333,-27.20359,-30.54409)" />
  <g
     id="g611"
     transform="translate(-12.44173,20.21950)">
    <path
       sodipodi:type="arc"
       style="fill-rule:evenodd;stroke:#000000;fill:#ffffff;fill-opacity:1;stroke-opacity:1;stroke-width:2.5;stroke-linejoin:miter;stroke-linecap:butt;stroke-dasharray:none;"
       id="path605"
       d="M 171.477417 149.250732 A 17.987137 17.387566 0 1 0 135.503143,149.250732 A 17.9871 17.3876 0 1 0 171.477 149.251 L 153.490280 149.250732 z"
       sodipodi:cx="153.490280"
       sodipodi:cy="149.250732"
       sodipodi:rx="17.987137"
       sodipodi:ry="17.387566" />
    <path
       sodipodi:type="arc"
       style="fill-rule:evenodd;stroke:none;fill:url(#radialGradient607);fill-opacity:1;stroke-opacity:1;stroke-width:1pt;stroke-linejoin:miter;stroke-linecap:butt;"
       id="path606"
       d="M 166.680847 161.242157 A 12.590996 12.591003 0 1 0 141.498840,161.242157 A 12.591 12.591 0 1 0 166.681 161.242 L 154.089844 161.242157 z"
       sodipodi:cx="154.089844"
       sodipodi:cy="161.242157"
       sodipodi:rx="12.590996"
       sodipodi:ry="12.591003"
       transform="matrix(1.238095,0.000000,0.000000,1.000000,-37.28761,-8.394012)" />
  </g>
  <g
     id="g614"
     transform="translate(203.4041,17.82120)">
    <path
       sodipodi:type="arc"
       style="fill-rule:evenodd;stroke:#000000;fill:#ffffff;fill-opacity:1;stroke-opacity:1;stroke-width:2.5;stroke-linejoin:miter;stroke-linecap:butt;stroke-dasharray:none;"
       id="path615"
       d="M 171.477417 149.250732 A 17.987137 17.387566 0 1 0 135.503143,149.250732 A 17.9871 17.3876 0 1 0 171.477 149.251 L 153.490280 149.250732 z"
       sodipodi:cx="153.490280"
       sodipodi:cy="149.250732"
       sodipodi:rx="17.987137"
       sodipodi:ry="17.387566" />
    <path
       sodipodi:type="arc"
       style="fill-rule:evenodd;stroke:none;fill:url(#radialGradient607);fill-opacity:1;stroke-opacity:1;stroke-width:1pt;stroke-linejoin:miter;stroke-linecap:butt;"
       id="path616"
       d="M 166.680847 161.242157 A 12.590996 12.591003 0 1 0 141.498840,161.242157 A 12.591 12.591 0 1 0 166.681 161.242 L 154.089844 161.242157 z"
       sodipodi:cx="154.089844"
       sodipodi:cy="161.242157"
       sodipodi:rx="12.590996"
       sodipodi:ry="12.591003"
       transform="matrix(1.238095,0.000000,0.000000,1.000000,-37.28761,-8.394012)" />
  </g>
  <path
     style="fill:none;fill-rule:evenodd;stroke:black;stroke-opacity:1;stroke-width:3.75;stroke-linejoin:miter;stroke-linecap:butt;fill-opacity:1;stroke-dasharray:none;"
     d="M 117.877 324.477 C 128.646 334.202 138.562 338.465 138.562 338.465 L 154.424 384.39 L 172.305 356.918 C 181.011 359.095 192.082 375.54 256.606 372.97 C 304.573 373.082 326.291 354.696 332.057 352.543 L 350.521 380.587 L 365.754 329.895 C 364.666 329.895 374.369 324.128 383.681 316.209 C 388.014 312.524 393.201 309.861 392.483 308.426 "
     id="path876"
     sodipodi:nodetypes="cccccccccc" />

  <rdf:RDF 
   xmlns="http://web.resource.org/cc/"
   xmlns:dc="http://purl.org/dc/elements/1.1/"
   xmlns:rdf="http://www.w3.org/1999/02/22-rdf-syntax-ns#">
  <Work rdf:about="">
    <dc:title>Clipart by Nicu Buculei - smiley111</dc:title>
    <dc:rights>
       <Agent>
         <dc:title>Nicu Buculei</dc:title>
       </Agent>
    </dc:rights>
    <dc:type rdf:resource="http://purl.org/dc/dcmitype/StillImage" />
    <license rdf:resource="http://web.resource.org/cc/PublicDomain" />
  </Work>
   
  <License rdf:about="http://web.resource.org/cc/PublicDomain">
     <permits rdf:resource="http://web.resource.org/cc/Reproduction" />
     <permits rdf:resource="http://web.resource.org/cc/Distribution" />
     <permits rdf:resource="http://web.resource.org/cc/DerivativeWorks" />
  </License>

</rdf:RDF>
</svg>
