<?xml version="1.0" encoding="UTF-8" standalone="no"?>
<!DOCTYPE svg PUBLIC "-//W3C//DTD SVG 20010904//EN"
"http://www.w3.org/TR/2001/REC-SVG-20010904/DTD/svg10.dtd">
<!-- Created with Sodipodi ("http://www.sodipodi.com/") -->
<svg
   id="svg548"
   sodipodi:version="0.32"
   width="400pt"
   height="400pt"
   sodipodi:docbase="/home/nicu/svg_gal/smileys"
   sodipodi:docname="/home/nicu/svg_gal/smileys/smiley006.svg"
   xmlns="http://www.w3.org/2000/svg"
   xmlns:sodipodi="http://sodipodi.sourceforge.net/DTD/sodipodi-0.dtd"
   xmlns:xlink="http://www.w3.org/1999/xlink">
  <defs
     id="defs550">
    <linearGradient
       id="linearGradient836">
      <stop
         style="stop-color:#a3ffff;stop-opacity:1;"
         offset="0.000000"
         id="stop837" />
      <stop
         style="stop-color:#ffffff;stop-opacity:1;"
         offset="1.000000"
         id="stop838" />
    </linearGradient>
    <linearGradient
       id="linearGradient608">
      <stop
         style="stop-color:#ffffff;stop-opacity:1;"
         offset="0.000000"
         id="stop609" />
      <stop
         style="stop-color:#000000;stop-opacity:1;"
         offset="1.000000"
         id="stop610" />
    </linearGradient>
    <linearGradient
       id="linearGradient601">
      <stop
         style="stop-color:#e6cd00;stop-opacity:1;"
         offset="0.000000"
         id="stop602" />
      <stop
         style="stop-color:#ff9f2d;stop-opacity:1;"
         offset="1.000000"
         id="stop603" />
    </linearGradient>
    <radialGradient
       xlink:href="#linearGradient601"
       id="radialGradient604"
       cx="0.30468768"
       cy="0.32812488"
       fx="0.30468768"
       fy="0.32812488"
       r="0.32960984"
       gradientUnits="objectBoundingBox"
       spreadMethod="pad" />
    <radialGradient
       xlink:href="#linearGradient608"
       id="radialGradient607"
       cx="0.44804481"
       cy="0.97655141"
       fx="0.44804481"
       fy="0.97655141"
       r="0.77106810"
       gradientUnits="objectBoundingBox"
       spreadMethod="pad" />
    <radialGradient
       xlink:href="#linearGradient836"
       id="radialGradient835"
       cx="0.81251198"
       cy="0.83592218"
       fx="0.81251198"
       fy="0.83592218"
       r="0.96144485"
       gradientUnits="objectBoundingBox"
       spreadMethod="pad" />
  </defs>
  <sodipodi:namedview
     id="base" />
  <path
     sodipodi:type="arc"
     style="fill-rule:evenodd;stroke:none;fill:url(#radialGradient604);fill-opacity:1;stroke-opacity:1;stroke-width:0;stroke-linejoin:miter;stroke-linecap:butt;stroke-dasharray:none;"
     id="path600"
     d="M 491.648560 259.571869 A 229.036285 224.839264 0 1 0 33.575989,259.571869 A 229.036 224.839 0 1 0 491.649 259.572 L 262.612274 259.571869 z"
     sodipodi:cx="262.612274"
     sodipodi:cy="259.571869"
     sodipodi:rx="229.036285"
     sodipodi:ry="224.839264"
     transform="matrix(1.060209,0.000000,0.000000,1.085333,-27.20359,-30.54409)" />
  <g
     id="g611"
     transform="translate(-12.44173,20.21950)">
    <path
       sodipodi:type="arc"
       style="fill-rule:evenodd;stroke:#000000;fill:#ffffff;fill-opacity:1;stroke-opacity:1;stroke-width:2.5;stroke-linejoin:miter;stroke-linecap:butt;stroke-dasharray:none;"
       id="path605"
       d="M 171.477417 149.250732 A 17.987137 17.387566 0 1 0 135.503143,149.250732 A 17.9871 17.3876 0 1 0 171.477 149.251 L 153.490280 149.250732 z"
       sodipodi:cx="153.490280"
       sodipodi:cy="149.250732"
       sodipodi:rx="17.987137"
       sodipodi:ry="17.387566" />
    <path
       sodipodi:type="arc"
       style="fill-rule:evenodd;stroke:none;fill:url(#radialGradient607);fill-opacity:1;stroke-opacity:1;stroke-width:1pt;stroke-linejoin:miter;stroke-linecap:butt;"
       id="path606"
       d="M 166.680847 161.242157 A 12.590996 12.591003 0 1 0 141.498840,161.242157 A 12.591 12.591 0 1 0 166.681 161.242 L 154.089844 161.242157 z"
       sodipodi:cx="154.089844"
       sodipodi:cy="161.242157"
       sodipodi:rx="12.590996"
       sodipodi:ry="12.591003"
       transform="matrix(1.238095,0.000000,0.000000,1.000000,-37.28761,-8.394012)" />
  </g>
  <g
     id="g614"
     transform="translate(203.4041,17.82120)">
    <path
       sodipodi:type="arc"
       style="fill-rule:evenodd;stroke:#000000;fill:#ffffff;fill-opacity:1;stroke-opacity:1;stroke-width:2.5;stroke-linejoin:miter;stroke-linecap:butt;stroke-dasharray:none;"
       id="path615"
       d="M 171.477417 149.250732 A 17.987137 17.387566 0 1 0 135.503143,149.250732 A 17.9871 17.3876 0 1 0 171.477 149.251 L 153.490280 149.250732 z"
       sodipodi:cx="153.490280"
       sodipodi:cy="149.250732"
       sodipodi:rx="17.987137"
       sodipodi:ry="17.387566" />
    <path
       sodipodi:type="arc"
       style="fill-rule:evenodd;stroke:none;fill:url(#radialGradient607);fill-opacity:1;stroke-opacity:1;stroke-width:1pt;stroke-linejoin:miter;stroke-linecap:butt;"
       id="path616"
       d="M 166.680847 161.242157 A 12.590996 12.591003 0 1 0 141.498840,161.242157 A 12.591 12.591 0 1 0 166.681 161.242 L 154.089844 161.242157 z"
       sodipodi:cx="154.089844"
       sodipodi:cy="161.242157"
       sodipodi:rx="12.590996"
       sodipodi:ry="12.591003"
       transform="matrix(1.238095,0.000000,0.000000,1.000000,-37.28761,-8.394012)" />
  </g>
  <path
     style="fill:#ff0000;fill-rule:evenodd;stroke:black;stroke-opacity:1;stroke-width:1pt;stroke-linejoin:miter;stroke-linecap:butt;fill-opacity:1;"
     d="M 177.5 338.75 L 202.5 327.5 L 228.75 320 L 267.5 317.5 L 291.25 318.75 L 317.5 326.25 L 320 331.25 L 288.75 327.5 C 288.75 327.5 260 327.5 258.75 327.5 C 257.5 327.5 228.75 328.75 228.75 328.75 L 201.25 333.75 C 201.25 333.75 181.25 336.25 177.5 338.75 z "
     id="path622" />
  <path
     style="fill:none;fill-rule:evenodd;stroke:black;stroke-opacity:1;stroke-width:3.75;stroke-linejoin:miter;stroke-linecap:butt;fill-opacity:1;stroke-dasharray:none;"
     d="M 141.25 362.5 C 143.75 362.5 195 315 261.25 317.5 C 317.5 312.5 383.75 360 383.75 360 "
     id="path613"
     sodipodi:nodetypes="ccc" />
  <path
     style="fill:none;fill-rule:evenodd;stroke:black;stroke-opacity:1;stroke-width:3.75;stroke-linejoin:miter;stroke-linecap:butt;fill-opacity:1;stroke-dasharray:none;"
     d="M 160 342.5 C 162.5 342.5 195 318.75 261.25 321.25 C 317.5 316.25 345 332.5 345 332.5 "
     id="path621"
     sodipodi:nodetypes="ccc"
     transform="translate(1.250000,6.250000)" />
  <path
     style="fill:url(#radialGradient835);fill-rule:evenodd;stroke:black;stroke-opacity:1;stroke-width:1pt;stroke-linejoin:miter;stroke-linecap:butt;fill-opacity:1;"
     d="M 341.246 200.151 C 342.365 200.151 336.771 212.457 328.939 231.478 C 325.582 241.548 331.177 253.855 346.841 253.855 C 359.148 252.736 362.222 245.425 360.266 233.976 C 353.836 213.915 342.365 200.151 341.246 200.151 z "
     id="path834"
     sodipodi:nodetypes="ccccc"
     transform="matrix(0.798666,0.000000,0.000000,0.895833,60.44403,16.37383)" />

  <rdf:RDF 
   xmlns="http://web.resource.org/cc/"
   xmlns:dc="http://purl.org/dc/elements/1.1/"
   xmlns:rdf="http://www.w3.org/1999/02/22-rdf-syntax-ns#">
  <Work rdf:about="">
    <dc:title>Clipart by Nicu Buculei - smiley111</dc:title>
    <dc:rights>
       <Agent>
         <dc:title>Nicu Buculei</dc:title>
       </Agent>
    </dc:rights>
    <dc:type rdf:resource="http://purl.org/dc/dcmitype/StillImage" />
    <license rdf:resource="http://web.resource.org/cc/PublicDomain" />
  </Work>
   
  <License rdf:about="http://web.resource.org/cc/PublicDomain">
     <permits rdf:resource="http://web.resource.org/cc/Reproduction" />
     <permits rdf:resource="http://web.resource.org/cc/Distribution" />
     <permits rdf:resource="http://web.resource.org/cc/DerivativeWorks" />
  </License>

</rdf:RDF>
</svg>
