<?xml version="1.0" encoding="UTF-8" standalone="no"?>
<!DOCTYPE svg PUBLIC "-//W3C//DTD SVG 20010904//EN"
"http://www.w3.org/TR/2001/REC-SVG-20010904/DTD/svg10.dtd">
<!-- Created with Sodipodi ("http://www.sodipodi.com/") -->
<svg
   id="svg548"
   sodipodi:version="0.32"
   width="400pt"
   height="400pt"
   sodipodi:docbase="/home/nicu/svg_gal/smileys/"
   sodipodi:docname="/home/nicu/svg_gal/smileys/smiley009.svg"
   xmlns="http://www.w3.org/2000/svg"
   xmlns:sodipodi="http://sodipodi.sourceforge.net/DTD/sodipodi-0.dtd"
   xmlns:xlink="http://www.w3.org/1999/xlink">
  <defs
     id="defs550">
    <linearGradient
       id="linearGradient608">
      <stop
         style="stop-color:#ffffff;stop-opacity:1;"
         offset="0.000000"
         id="stop609" />
      <stop
         style="stop-color:#000000;stop-opacity:1;"
         offset="1.000000"
         id="stop610" />
    </linearGradient>
    <linearGradient
       id="linearGradient601">
      <stop
         style="stop-color:#e6cd00;stop-opacity:1;"
         offset="0.000000"
         id="stop602" />
      <stop
         style="stop-color:#ff9f2d;stop-opacity:1;"
         offset="1.000000"
         id="stop603" />
    </linearGradient>
    <radialGradient
       xlink:href="#linearGradient601"
       id="radialGradient604"
       cx="0.30468768"
       cy="0.32812488"
       fx="0.30468768"
       fy="0.32812488"
       r="0.32960984"
       gradientUnits="objectBoundingBox"
       spreadMethod="pad" />
    <radialGradient
       xlink:href="#linearGradient608"
       id="radialGradient607"
       cx="0.44804481"
       cy="0.97655141"
       fx="0.44804481"
       fy="0.97655141"
       r="0.77106810"
       gradientUnits="objectBoundingBox"
       spreadMethod="pad" />
    <radialGradient
       xlink:href="#linearGradient608"
       id="radialGradient904" />
  </defs>
  <sodipodi:namedview
     id="base" />
  <path
     sodipodi:type="arc"
     style="fill-rule:evenodd;stroke:none;fill:url(#radialGradient604);fill-opacity:1;stroke-opacity:1;stroke-width:0;stroke-linejoin:miter;stroke-linecap:butt;stroke-dasharray:none;"
     id="path600"
     d="M 491.648560 259.571869 A 229.036285 224.839264 0 1 0 33.575989,259.571869 A 229.036 224.839 0 1 0 491.649 259.572 L 262.612274 259.571869 z"
     sodipodi:cx="262.612274"
     sodipodi:cy="259.571869"
     sodipodi:rx="229.036285"
     sodipodi:ry="224.839264"
     transform="matrix(1.060209,0.000000,0.000000,1.085333,-27.20359,-30.54409)" />
  <path
     sodipodi:type="arc"
     style="font-size:12;fill:#ffffff;fill-rule:evenodd;stroke:#000000;stroke-width:2.5;"
     id="path605"
     d="M 171.477417 149.250732 A 17.987137 17.387566 0 1 0 135.503143,149.250732 A 17.9871 17.3876 0 1 0 171.477 149.251 L 153.490280 149.250732 z"
     sodipodi:cx="153.490280"
     sodipodi:cy="149.250732"
     sodipodi:rx="17.987137"
     sodipodi:ry="17.387566"
     transform="translate(-12.44173,20.21950)" />
  <path
     sodipodi:type="arc"
     style="font-size:12;fill:url(#radialGradient607);fill-rule:evenodd;stroke-width:1pt;"
     id="path606"
     d="M 166.680847 161.242157 A 12.590996 12.591003 0 1 0 141.498840,161.242157 A 12.591 12.591 0 1 0 166.681 161.242 L 154.089844 161.242157 z"
     sodipodi:cx="154.089844"
     sodipodi:cy="161.242157"
     sodipodi:rx="12.590996"
     sodipodi:ry="12.591003"
     transform="matrix(0.714285,0.000000,0.000000,1.000000,41.17718,7.028923)" />
  <path
     sodipodi:type="arc"
     style="font-size:12;fill:#ffffff;fill-rule:evenodd;stroke:#000000;stroke-width:2.5;"
     id="path615"
     d="M 171.477417 149.250732 A 17.987137 17.387566 0 1 0 135.503143,149.250732 A 17.9871 17.3876 0 1 0 171.477 149.251 L 153.490280 149.250732 z"
     sodipodi:cx="153.490280"
     sodipodi:cy="149.250732"
     sodipodi:rx="17.987137"
     sodipodi:ry="17.387566"
     transform="translate(203.4041,17.82120)" />
  <path
     sodipodi:type="arc"
     style="font-size:12;fill:url(#radialGradient607);fill-rule:evenodd;stroke-width:1pt;"
     id="path616"
     d="M 166.680847 161.242157 A 12.590996 12.591003 0 1 0 141.498840,161.242157 A 12.591 12.591 0 1 0 166.681 161.242 L 154.089844 161.242157 z"
     sodipodi:cx="154.089844"
     sodipodi:cy="161.242157"
     sodipodi:rx="12.590996"
     sodipodi:ry="12.591003"
     transform="matrix(0.809526,0.000000,0.000000,1.000000,225.5594,4.630623)" />
  <path
     sodipodi:type="arc"
     style="fill-rule:evenodd;stroke:#000000;fill:#000000;fill-opacity:1;stroke-opacity:1;stroke-width:6.10896;stroke-linejoin:miter;stroke-linecap:butt;stroke-dasharray:none;"
     id="path903"
     d="M 350.149719 357.901550 A 87.537430 40.171280 0 1 0 175.074875,357.901550 A 87.5374 40.1713 0 1 0 350.15 357.902 L 262.612305 357.901550 z"
     sodipodi:cx="262.612305"
     sodipodi:cy="357.901550"
     sodipodi:rx="87.537430"
     sodipodi:ry="40.171280"
     transform="matrix(0.664384,0.000000,0.000000,0.567164,76.74514,142.3217)" />
  <path
     sodipodi:type="arc"
     style="fill-rule:evenodd;stroke:#000000;fill:#ff0000;fill-opacity:1;stroke-opacity:1;stroke-width:0;stroke-linejoin:miter;stroke-linecap:butt;stroke-dasharray:none;"
     id="path988"
     d="M 350.149719 357.901550 A 87.537430 40.171280 0 1 0 175.074875,357.901550 A 87.5374 40.1713 0 1 0 350.15 357.902 L 262.612305 357.901550 z"
     sodipodi:cx="262.612305"
     sodipodi:cy="357.901550"
     sodipodi:rx="87.537430"
     sodipodi:ry="40.171280"
     transform="matrix(0.628233,0.000000,0.000000,0.488388,86.23883,170.5160)" />

  <rdf:RDF 
   xmlns="http://web.resource.org/cc/"
   xmlns:dc="http://purl.org/dc/elements/1.1/"
   xmlns:rdf="http://www.w3.org/1999/02/22-rdf-syntax-ns#">
  <Work rdf:about="">
    <dc:title>Clipart by Nicu Buculei - smiley111</dc:title>
    <dc:rights>
       <Agent>
         <dc:title>Nicu Buculei</dc:title>
       </Agent>
    </dc:rights>
    <dc:type rdf:resource="http://purl.org/dc/dcmitype/StillImage" />
    <license rdf:resource="http://web.resource.org/cc/PublicDomain" />
  </Work>
   
  <License rdf:about="http://web.resource.org/cc/PublicDomain">
     <permits rdf:resource="http://web.resource.org/cc/Reproduction" />
     <permits rdf:resource="http://web.resource.org/cc/Distribution" />
     <permits rdf:resource="http://web.resource.org/cc/DerivativeWorks" />
  </License>

</rdf:RDF>
</svg>
