<?xml version="1.0" encoding="UTF-8" standalone="no"?>
<!DOCTYPE svg PUBLIC "-//W3C//DTD SVG 20010904//EN"
"http://www.w3.org/TR/2001/REC-SVG-20010904/DTD/svg10.dtd">
<!-- Created with Sodipodi ("http://www.sodipodi.com/") -->
<svg
   id="svg548"
   sodipodi:version="0.32"
   width="400pt"
   height="400pt"
   sodipodi:docbase="/home/nicu/svg_gal/smileys"
   sodipodi:docname="/home/nicu/svg_gal/smileys/smiley007.svg"
   xmlns="http://www.w3.org/2000/svg"
   xmlns:sodipodi="http://sodipodi.sourceforge.net/DTD/sodipodi-0.dtd"
   xmlns:xlink="http://www.w3.org/1999/xlink">
  <defs
     id="defs550">
    <linearGradient
       id="linearGradient608">
      <stop
         style="stop-color:#ffffff;stop-opacity:1;"
         offset="0.000000"
         id="stop609" />
      <stop
         style="stop-color:#000000;stop-opacity:1;"
         offset="1.000000"
         id="stop610" />
    </linearGradient>
    <linearGradient
       id="linearGradient601">
      <stop
         style="stop-color:#e6cd00;stop-opacity:1;"
         offset="0.000000"
         id="stop602" />
      <stop
         style="stop-color:#ff9f2d;stop-opacity:1;"
         offset="1.000000"
         id="stop603" />
    </linearGradient>
    <radialGradient
       xlink:href="#linearGradient601"
       id="radialGradient604"
       cx="0.30468768"
       cy="0.32812488"
       fx="0.30468768"
       fy="0.32812488"
       r="0.32960984"
       gradientUnits="objectBoundingBox"
       spreadMethod="pad" />
    <radialGradient
       xlink:href="#linearGradient608"
       id="radialGradient607"
       cx="0.44804481"
       cy="0.97655141"
       fx="0.44804481"
       fy="0.97655141"
       r="0.77106810"
       gradientUnits="objectBoundingBox"
       spreadMethod="pad" />
  </defs>
  <sodipodi:namedview
     id="base" />
  <path
     sodipodi:type="arc"
     style="fill-rule:evenodd;stroke:none;fill:url(#radialGradient604);fill-opacity:1;stroke-opacity:1;stroke-width:0;stroke-linejoin:miter;stroke-linecap:butt;stroke-dasharray:none;"
     id="path600"
     d="M 491.648560 259.571869 A 229.036285 224.839264 0 1 0 33.575989,259.571869 A 229.036 224.839 0 1 0 491.649 259.572 L 262.612274 259.571869 z"
     sodipodi:cx="262.612274"
     sodipodi:cy="259.571869"
     sodipodi:rx="229.036285"
     sodipodi:ry="224.839264"
     transform="matrix(1.060209,0.000000,0.000000,1.085333,-27.20359,-30.54409)" />
  <path
     style="fill:#fa0000;fill-rule:evenodd;stroke:black;stroke-opacity:1;stroke-width:3.75;stroke-linejoin:miter;stroke-linecap:butt;fill-opacity:1;stroke-dasharray:none;"
     d="M 128.308 321.328 L 380.128 316.531 C 380.128 316.531 344.154 411.263 259.015 407.666 C 159.486 413.662 125.91 322.527 128.308 321.328 z "
     id="path858"
     sodipodi:nodetypes="cccc" />
  <path
     style="fill:#ffffff;fill-rule:evenodd;stroke:black;stroke-opacity:1;stroke-width:1pt;stroke-linejoin:miter;stroke-linecap:butt;fill-opacity:1;"
     d="M 158.561 317.668 L 158.589 327.145 L 345.924 326.026 L 345.925 315.357 L 158.561 317.668 z "
     id="path859"
     transform="matrix(0.968610,0.000000,0.000000,1.875850,13.42988,-273.0174)"
     sodipodi:nodetypes="ccccc" />
  <g
     id="g611"
     transform="translate(-12.44173,20.21950)">
    <path
       sodipodi:type="arc"
       style="fill-rule:evenodd;stroke:#000000;fill:#ffffff;fill-opacity:1;stroke-opacity:1;stroke-width:2.5;stroke-linejoin:miter;stroke-linecap:butt;stroke-dasharray:none;"
       id="path605"
       d="M 171.477417 149.250732 A 17.987137 17.387566 0 1 0 135.503143,149.250732 A 17.9871 17.3876 0 1 0 171.477 149.251 L 153.490280 149.250732 z"
       sodipodi:cx="153.490280"
       sodipodi:cy="149.250732"
       sodipodi:rx="17.987137"
       sodipodi:ry="17.387566" />
    <path
       sodipodi:type="arc"
       style="fill-rule:evenodd;stroke:none;fill:url(#radialGradient607);fill-opacity:1;stroke-opacity:1;stroke-width:1pt;stroke-linejoin:miter;stroke-linecap:butt;"
       id="path606"
       d="M 166.680847 161.242157 A 12.590996 12.591003 0 1 0 141.498840,161.242157 A 12.591 12.591 0 1 0 166.681 161.242 L 154.089844 161.242157 z"
       sodipodi:cx="154.089844"
       sodipodi:cy="161.242157"
       sodipodi:rx="12.590996"
       sodipodi:ry="12.591003"
       transform="matrix(1.238095,0.000000,0.000000,1.000000,-37.28761,-8.394012)" />
  </g>
  <g
     id="g614"
     transform="translate(203.4041,17.82120)">
    <path
       sodipodi:type="arc"
       style="fill-rule:evenodd;stroke:#000000;fill:#ffffff;fill-opacity:1;stroke-opacity:1;stroke-width:2.5;stroke-linejoin:miter;stroke-linecap:butt;stroke-dasharray:none;"
       id="path615"
       d="M 171.477417 149.250732 A 17.987137 17.387566 0 1 0 135.503143,149.250732 A 17.9871 17.3876 0 1 0 171.477 149.251 L 153.490280 149.250732 z"
       sodipodi:cx="153.490280"
       sodipodi:cy="149.250732"
       sodipodi:rx="17.987137"
       sodipodi:ry="17.387566" />
    <path
       sodipodi:type="arc"
       style="fill-rule:evenodd;stroke:none;fill:url(#radialGradient607);fill-opacity:1;stroke-opacity:1;stroke-width:1pt;stroke-linejoin:miter;stroke-linecap:butt;"
       id="path616"
       d="M 166.680847 161.242157 A 12.590996 12.591003 0 1 0 141.498840,161.242157 A 12.591 12.591 0 1 0 166.681 161.242 L 154.089844 161.242157 z"
       sodipodi:cx="154.089844"
       sodipodi:cy="161.242157"
       sodipodi:rx="12.590996"
       sodipodi:ry="12.591003"
       transform="matrix(1.238095,0.000000,0.000000,1.000000,-37.28761,-8.394012)" />
  </g>
  <path
     style="fill:none;fill-rule:evenodd;stroke:black;stroke-opacity:1;stroke-width:1.25;stroke-linejoin:miter;stroke-linecap:butt;fill-opacity:1;stroke-dasharray:none;"
     d="M 194.044 339.591 L 193.326 321.088 L 225.547 320.24 L 225.547 339.811 L 257.768 339.811 L 257.769 319.393 L 288.294 318.544 L 288.294 339.093 L 319.667 339.093 L 319.667 318.545 L 317.971 319.393 "
     id="path860"
     sodipodi:nodetypes="ccccccccccc" />
  <path
     style="fill:#ffffff;fill-rule:evenodd;stroke:#000000;stroke-opacity:1;stroke-width:1pt;stroke-linejoin:miter;stroke-linecap:butt;fill-opacity:1;"
     d="M 173.824 382.987 C 174.424 379.39 204.349 409.975 261.16 406.729 C 323.76 404.287 348.496 363.484 347.648 366.028 C 347.648 363.485 345.952 353.309 345.952 353.309 C 345.952 353.309 313.38 378.105 262.504 382.345 C 210.782 383.192 175.005 364.829 173.309 364.829 C 173.412 364.229 172.976 386.378 173.824 382.987 z "
     id="path868"
     sodipodi:nodetypes="ccccccc" />
  <path
     style="fill:none;fill-rule:evenodd;stroke:black;stroke-opacity:1;stroke-width:1pt;stroke-linejoin:miter;stroke-linecap:butt;fill-opacity:1;"
     d="M 194.261 372.891 C 194.261 393.876 194.261 393.876 194.261 393.876 L 194.261 393.876 "
     id="path869" />
  <path
     style="fill:none;fill-rule:evenodd;stroke:black;stroke-opacity:1;stroke-width:1pt;stroke-linejoin:miter;stroke-linecap:butt;fill-opacity:1;"
     d="M 323.769 366.296 C 324.968 386.681 324.968 386.681 324.968 386.681 "
     id="path870" />
  <path
     style="fill:none;fill-rule:evenodd;stroke:black;stroke-opacity:1;stroke-width:1pt;stroke-linejoin:miter;stroke-linecap:butt;fill-opacity:1;"
     d="M 227.837 380.086 C 227.837 403.469 227.837 403.469 227.837 403.469 "
     id="path871"
     transform="matrix(1.000000,0.000000,0.000000,1.076924,0.000000,-29.23775)" />
  <path
     style="fill:none;fill-rule:evenodd;stroke:black;stroke-opacity:1;stroke-width:1pt;stroke-linejoin:miter;stroke-linecap:butt;fill-opacity:1;"
     d="M 261.413 382.484 C 262.013 407.066 262.013 407.066 262.013 407.066 "
     id="path872" />
  <path
     style="fill:none;fill-rule:evenodd;stroke:black;stroke-opacity:1;stroke-width:1pt;stroke-linejoin:miter;stroke-linecap:butt;fill-opacity:1;"
     d="M 261.413 407.066 L 262.013 406.467 "
     id="path873" />
  <path
     style="fill:none;fill-rule:evenodd;stroke:black;stroke-opacity:1;stroke-width:1pt;stroke-linejoin:miter;stroke-linecap:butt;fill-opacity:1;"
     d="M 291.991 377.088 C 292.591 402.27 292.591 402.27 292.591 402.27 "
     id="path874" />

  <rdf:RDF 
   xmlns="http://web.resource.org/cc/"
   xmlns:dc="http://purl.org/dc/elements/1.1/"
   xmlns:rdf="http://www.w3.org/1999/02/22-rdf-syntax-ns#">
  <Work rdf:about="">
    <dc:title>Clipart by Nicu Buculei - smiley111</dc:title>
    <dc:rights>
       <Agent>
         <dc:title>Nicu Buculei</dc:title>
       </Agent>
    </dc:rights>
    <dc:type rdf:resource="http://purl.org/dc/dcmitype/StillImage" />
    <license rdf:resource="http://web.resource.org/cc/PublicDomain" />
  </Work>
   
  <License rdf:about="http://web.resource.org/cc/PublicDomain">
     <permits rdf:resource="http://web.resource.org/cc/Reproduction" />
     <permits rdf:resource="http://web.resource.org/cc/Distribution" />
     <permits rdf:resource="http://web.resource.org/cc/DerivativeWorks" />
  </License>

</rdf:RDF>
</svg>
