<?xml version="1.0" encoding="UTF-8" standalone="no"?>
<!-- Created with Inkscape (http://www.inkscape.org/) -->
<svg
   xmlns:dc="http://purl.org/dc/elements/1.1/"
   xmlns:cc="http://web.resource.org/cc/"
   xmlns:rdf="http://www.w3.org/1999/02/22-rdf-syntax-ns#"
   xmlns:svg="http://www.w3.org/2000/svg"
   xmlns="http://www.w3.org/2000/svg"
   xmlns:xlink="http://www.w3.org/1999/xlink"
   xmlns:sodipodi="http://inkscape.sourceforge.net/DTD/sodipodi-0.dtd"
   xmlns:inkscape="http://www.inkscape.org/namespaces/inkscape"
   sodipodi:docname="enter.svg"
   sodipodi:docbase="/home/nicu/Desktop"
   inkscape:version="0.41"
   sodipodi:version="0.32"
   id="svg2"
   height="160.00000px"
   width="420.00000px">
  <defs
     id="defs3">
    <linearGradient
       id="linearGradient2866">
      <stop
         id="stop2868"
         offset="0.0000000"
         style="stop-color:#fff000;stop-opacity:1.0000000;" />
      <stop
         id="stop2870"
         offset="1.0000000"
         style="stop-color:#ffd300;stop-opacity:1.0000000;" />
    </linearGradient>
    <linearGradient
       gradientUnits="userSpaceOnUse"
       y2="158.97795"
       x2="164.87044"
       y1="96.298203"
       x1="108.10552"
       gradientTransform="scale(1.578144,0.633656)"
       id="linearGradient2872"
       xlink:href="#linearGradient2866"
       inkscape:collect="always" />
    <linearGradient
       gradientUnits="userSpaceOnUse"
       y2="119.94154"
       x2="67.274940"
       y1="42.536980"
       x1="26.300564"
       gradientTransform="scale(2.372615,0.421476)"
       id="linearGradient2880"
       xlink:href="#linearGradient2866"
       inkscape:collect="always" />
    <linearGradient
       gradientUnits="userSpaceOnUse"
       y2="115.78676"
       x2="147.21973"
       y1="36.662086"
       x1="116.71999"
       gradientTransform="scale(2.372615,0.421476)"
       id="linearGradient2888"
       xlink:href="#linearGradient2866"
       inkscape:collect="always" />
    <linearGradient
       gradientUnits="userSpaceOnUse"
       y2="344.41132"
       x2="62.575638"
       y1="267.00674"
       x1="27.454742"
       gradientTransform="scale(2.372615,0.421476)"
       id="linearGradient2896"
       xlink:href="#linearGradient2866"
       inkscape:collect="always" />
    <linearGradient
       gradientUnits="userSpaceOnUse"
       y2="350.28622"
       x2="149.91429"
       y1="269.44144"
       x1="109.55607"
       gradientTransform="scale(2.372615,0.421476)"
       id="linearGradient2904"
       xlink:href="#linearGradient2866"
       inkscape:collect="always" />
  </defs>
  <sodipodi:namedview
     inkscape:window-y="24"
     inkscape:window-x="152"
     inkscape:window-height="695"
     inkscape:window-width="982"
     showgrid="false"
     inkscape:current-layer="layer1"
     inkscape:document-units="px"
     inkscape:cy="160.85962"
     inkscape:cx="425.04647"
     inkscape:zoom="1.0000000"
     inkscape:pageshadow="2"
     inkscape:pageopacity="0.0"
     borderopacity="1.0"
     bordercolor="#666666"
     pagecolor="#ffffff"
     id="base" />
  <metadata
     id="metadata4">
    <rdf:RDF
       id="RDF5">
      <cc:Work
         id="Work6"
         rdf:about="">
        <dc:format
           id="format7">image/svg+xml</dc:format>
        <dc:type
           rdf:resource="http://purl.org/dc/dcmitype/StillImage"
           id="type9" />
      </cc:Work>
    </rdf:RDF>
  </metadata>
  <g
     id="layer1"
     inkscape:groupmode="layer"
     inkscape:label="Layer 1">
    <path
       sodipodi:nodetypes="ccccccccccccccccccccccccc"
       id="path1291"
       d="M 204.18975,34.020550 C 204.65543,24.213630 194.71249,15.655660 185.07878,17.440550 C 178.39047,18.312100 172.12953,25.136150 174.24099,32.081090 C 175.59067,36.835400 181.55052,40.766100 186.22702,38.057410 C 190.30198,36.843770 190.71205,28.751430 185.95828,29.310770 C 184.71780,30.350060 185.69215,33.025760 183.50247,33.206120 C 179.10901,33.414620 178.42086,27.314130 181.55855,25.158450 C 186.62302,20.606450 195.21034,23.563880 197.57152,29.608730 C 200.04701,35.164610 196.80172,41.682590 191.71312,44.454280 C 188.46275,47.170290 184.47227,45.474730 180.79026,44.929720 C 128.86949,35.726310 30.908729,17.947590 24.008360,17.825230 C 19.392292,17.819450 16.781460,20.576230 14.018313,22.788990 C 8.6260670,27.804040 6.4773780,36.358840 10.112874,42.987980 C 14.084763,50.855700 24.970889,54.690080 32.655423,49.888010 C 37.810048,46.974200 40.699421,39.642100 36.977542,34.511900 C 34.533769,30.757150 28.648101,28.573080 25.067904,32.067400 C 21.454774,33.667820 23.096583,41.937890 26.920541,39.446160 C 27.544625,38.154580 26.884955,36.160780 28.999268,36.048520 C 33.390591,35.841180 34.079359,41.941810 30.938335,44.093790 C 25.873491,48.653660 17.283930,45.691150 14.927152,39.641550 C 12.446023,34.066670 15.719210,27.535800 20.829490,24.770430 C 24.088234,22.062270 28.080010,23.748550 31.766298,24.297490 C 83.663336,33.496560 182.75609,51.047070 188.40712,51.411520 C 193.04551,51.618320 194.75716,49.135250 197.33744,47.456750 C 201.28950,44.153940 204.16269,39.265300 204.18975,34.020550 z "
       style="stroke-opacity:1.0000000;stroke-miterlimit:4.0000000;stroke-linejoin:miter;stroke-linecap:butt;stroke-width:12.000000;stroke:none;fill-rule:evenodd;fill-opacity:1.0;fill:url(#linearGradient2880)" />
    <path
       sodipodi:nodetypes="ccccccccccccccccccccccccc"
       id="path2067"
       d="M 211.16177,32.269400 C 210.69610,22.462480 220.63903,13.904510 230.27274,15.689410 C 236.96105,16.560960 243.22200,23.385010 241.11053,30.329940 C 239.76085,35.084260 233.80100,39.014950 229.12451,36.306270 C 225.04954,35.092620 224.63946,27.000290 229.39324,27.559630 C 230.63372,28.598910 229.65938,31.274620 231.84904,31.454980 C 236.24251,31.663480 236.93065,25.562980 233.79296,23.407300 C 228.72849,18.855300 220.14117,21.812740 217.78000,27.857590 C 215.30450,33.413460 218.54980,39.931450 223.63840,42.703140 C 226.88876,45.419140 230.87925,43.723590 234.56126,43.178570 C 286.48203,33.975160 384.44279,16.196440 391.34316,16.074080 C 395.95922,16.068310 398.57006,18.825080 401.33320,21.037860 C 406.72545,26.052900 408.87415,34.607700 405.23865,41.236840 C 401.26675,49.104550 390.38062,52.938940 382.69610,48.136870 C 377.54146,45.223060 374.65210,37.890950 378.37398,32.760750 C 380.81775,29.006020 386.70341,26.821940 390.28361,30.316260 C 393.89674,31.916680 392.25493,40.186740 388.43097,37.695010 C 387.80689,36.403440 388.46656,34.409630 386.35225,34.297380 C 381.96093,34.090040 381.27216,40.190660 384.41319,42.342650 C 389.47803,46.902520 398.06759,43.940010 400.42437,37.890410 C 402.90550,32.315520 399.63230,25.784650 394.52203,23.019290 C 391.26328,20.311130 387.27150,21.997410 383.58522,22.546340 C 331.68819,31.745420 232.59543,49.295930 226.94440,49.660380 C 222.30602,49.867190 220.59437,47.384120 218.01408,45.705600 C 214.06202,42.402800 211.18883,37.514160 211.16177,32.269400 z "
       style="stroke-opacity:1.0000000;stroke-miterlimit:4.0000000;stroke-linejoin:miter;stroke-linecap:butt;stroke-width:12.000000;stroke:none;fill-rule:evenodd;fill-opacity:1.0;fill:url(#linearGradient2888)" />
    <path
       id="rect2073"
       d="M 160.49275,56.749230 C 156.83869,56.749230 153.88957,61.383150 153.88957,67.139760 L 153.88957,92.482120 C 153.88957,98.238720 156.83869,102.87266 160.49275,102.87266 L 262.15861,102.87266 C 265.81266,102.87266 268.76178,98.238720 268.76178,92.482120 L 268.76178,67.139760 C 268.76178,61.383150 265.81267,56.749230 262.15861,56.749230 L 160.49275,56.749230 z M 167.72166,67.485560 L 180.59868,67.485560 L 180.59868,71.980990 L 172.49702,71.980990 L 172.49702,76.262350 L 180.12114,76.262350 L 180.12114,80.757780 L 172.49702,80.757780 L 172.49702,86.043610 L 180.87861,86.043610 L 180.87861,90.522580 L 167.72166,90.522580 L 167.72166,67.485560 z M 185.07764,67.485560 L 190.41288,67.485560 L 197.14779,83.293660 L 197.14779,67.485560 L 201.67615,67.485560 L 201.67615,90.522580 L 196.34091,90.522580 L 189.60600,74.730940 L 189.60600,90.522580 L 185.07764,90.522580 L 185.07764,67.485560 z M 204.09677,67.485560 L 221.15634,67.485560 L 221.15634,71.980990 L 215.03070,71.980990 L 215.03070,90.522580 L 210.25534,90.522580 L 210.25534,71.980990 L 204.09677,71.980990 L 204.09677,67.485560 z M 223.62636,67.485560 L 236.50338,67.485560 L 236.50338,71.980990 L 228.38526,71.980990 L 228.38526,76.262350 L 236.02584,76.262350 L 236.02584,80.757780 L 228.38526,80.757780 L 228.38526,86.043610 L 236.78331,86.043610 L 236.78331,90.522580 L 223.62636,90.522580 L 223.62636,67.485560 z M 240.98234,67.485560 L 248.27712,67.485560 C 250.71591,67.485580 252.49621,67.998600 253.62882,69.016970 C 254.76966,70.035380 255.34134,71.640370 255.34136,73.841740 C 255.34134,75.364200 255.04738,76.618920 254.45216,77.596160 C 253.86516,78.573410 252.97500,79.290400 251.78454,79.753300 C 252.43763,79.938480 253.01745,80.362890 253.53001,81.021240 C 254.05083,81.669320 254.58171,82.658270 255.11083,83.985270 L 257.69611,90.522580 L 252.60788,90.522580 L 250.35193,84.808600 C 249.89723,83.656480 249.43994,82.859150 248.96872,82.437390 C 248.50575,82.015640 247.88508,81.811670 247.10798,81.811660 L 245.75770,81.811660 L 245.75770,90.522580 L 240.98234,90.522580 L 240.98234,67.485560 z M 245.75770,71.799850 L 245.75770,77.711430 L 247.76665,77.711430 C 248.76697,77.711440 249.47743,77.466280 249.90733,77.003360 C 250.34548,76.540460 250.56599,75.790500 250.56600,74.730940 C 250.56598,73.681700 250.34547,72.927630 249.90733,72.474990 C 249.47743,72.022390 248.76697,71.799870 247.76665,71.799850 L 245.75770,71.799850 z "
       style="fill:url(#linearGradient2872);fill-opacity:1.0;fill-rule:evenodd;stroke:none;stroke-width:12.000000;stroke-miterlimit:4.0000000;stroke-opacity:1.0000000" />
    <path
       sodipodi:nodetypes="ccccccccccccccccccccccccc"
       id="path2078"
       d="M 205.46627,129.79384 C 205.93195,139.60076 195.98902,148.15872 186.35531,146.37383 C 179.66699,145.50227 173.40605,138.67822 175.51751,131.73330 C 176.86720,126.97897 182.82704,123.04829 187.50354,125.75696 C 191.57851,126.97061 191.98858,135.06294 187.23480,134.50360 C 185.99432,133.46433 186.96867,130.78861 184.77900,130.60826 C 180.38553,130.39976 179.69739,136.50026 182.83508,138.65593 C 187.89955,143.20793 196.48687,140.25050 198.84804,134.20565 C 201.32354,128.64978 198.07824,122.13178 192.98965,119.36010 C 189.73929,116.64409 185.74879,118.33965 182.06678,118.88467 C 130.14601,128.08808 32.185252,145.86680 25.284883,145.98915 C 20.668814,145.99492 18.057983,143.23816 15.294836,141.02538 C 9.9025900,136.01034 7.7539010,127.45554 11.389397,120.82639 C 15.361286,112.95867 26.247412,109.12430 33.931945,113.92637 C 39.086570,116.84018 41.975943,124.17229 38.254065,129.30249 C 35.810291,133.05722 29.924624,135.24130 26.344427,131.74698 C 22.731297,130.14655 24.373106,121.87650 28.197064,124.36823 C 28.821148,125.65979 28.161477,127.65360 30.275791,127.76585 C 34.667113,127.97320 35.355882,121.87258 32.214857,119.72058 C 27.150014,115.16072 18.560453,118.12323 16.203675,124.17283 C 13.722546,129.74772 16.995732,136.27858 22.106013,139.04395 C 25.364757,141.75210 29.356533,140.06582 33.042821,139.51690 C 84.939860,130.31782 184.03261,112.76730 189.68364,112.40285 C 194.32203,112.19605 196.03368,114.67912 198.61397,116.35764 C 202.56602,119.66043 205.43921,124.54907 205.46627,129.79384 z "
       style="stroke-opacity:1.0000000;stroke-miterlimit:4.0000000;stroke-linejoin:miter;stroke-linecap:butt;stroke-width:12.000000;stroke:none;fill-rule:evenodd;fill-opacity:1.0;fill:url(#linearGradient2896)" />
    <path
       sodipodi:nodetypes="ccccccccccccccccccccccccc"
       id="path2080"
       d="M 212.43830,131.54498 C 211.97262,141.35190 221.91556,149.90987 231.54927,148.12497 C 238.23758,147.25341 244.49852,140.42937 242.38705,133.48444 C 241.03737,128.73012 235.07752,124.79943 230.40103,127.50810 C 226.32606,128.72175 225.91599,136.81408 230.66976,136.25475 C 231.91024,135.21547 230.93590,132.53976 233.12556,132.35940 C 237.51903,132.15091 238.20719,138.25140 235.06948,140.40707 C 230.00502,144.95907 221.41770,142.00164 219.05652,135.95680 C 216.58103,130.40092 219.82633,123.88292 224.91492,121.11124 C 228.16529,118.39523 232.15578,120.09079 235.83779,120.63581 C 287.75855,129.83922 385.71931,147.61794 392.61968,147.74029 C 397.23575,147.74607 399.84658,144.98930 402.60973,142.77652 C 408.00198,137.76149 410.15067,129.20669 406.51517,122.57754 C 402.54328,114.70982 391.65715,110.87544 383.97262,115.67752 C 378.81800,118.59132 375.92862,125.92342 379.65050,131.05363 C 382.09427,134.80837 387.97994,136.99244 391.56013,133.49813 C 395.17326,131.89770 393.53146,123.62764 389.70750,126.11937 C 389.08341,127.41094 389.74308,129.40474 387.62877,129.51700 C 383.23745,129.72434 382.54869,123.62372 385.68971,121.47172 C 390.75455,116.91187 399.34411,119.87437 401.70089,125.92396 C 404.18202,131.49886 400.90884,138.02972 395.79855,140.79510 C 392.53981,143.50325 388.54803,141.81697 384.86174,141.26803 C 332.96471,132.06896 233.87195,114.51845 228.22092,114.15400 C 223.58254,113.94720 221.87089,116.43026 219.29061,118.10878 C 215.33854,121.41157 212.46536,126.30022 212.43830,131.54498 z "
       style="stroke-opacity:1.0000000;stroke-miterlimit:4.0000000;stroke-linejoin:miter;stroke-linecap:butt;stroke-width:12.000000;stroke:none;fill-rule:evenodd;fill-opacity:1.0;fill:url(#linearGradient2904)" />
  </g>
</svg>
