<?xml version="1.0" encoding="UTF-8" standalone="no"?>
<!-- Created with Inkscape (http://www.inkscape.org/) -->
<svg
   xmlns:dc="http://purl.org/dc/elements/1.1/"
   xmlns:cc="http://web.resource.org/cc/"
   xmlns:rdf="http://www.w3.org/1999/02/22-rdf-syntax-ns#"
   xmlns:svg="http://www.w3.org/2000/svg"
   xmlns="http://www.w3.org/2000/svg"
   xmlns:sodipodi="http://inkscape.sourceforge.net/DTD/sodipodi-0.dtd"
   xmlns:inkscape="http://www.inkscape.org/namespaces/inkscape"
   width="128.00000px"
   height="128.00000px"
   id="svg2"
   sodipodi:version="0.32"
   inkscape:version="0.42"
   sodipodi:docbase="/home/nicu/Desktop"
   sodipodi:docname="eye.svg">
  <defs
     id="defs3" />
  <sodipodi:namedview
     id="base"
     pagecolor="#ffffff"
     bordercolor="#666666"
     borderopacity="1.0"
     inkscape:pageopacity="0.0"
     inkscape:pageshadow="2"
     inkscape:zoom="1.0000000"
     inkscape:cx="120.00000"
     inkscape:cy="80.000000"
     inkscape:document-units="px"
     inkscape:current-layer="layer1"
     inkscape:window-width="1152"
     inkscape:window-height="791"
     inkscape:window-x="0"
     inkscape:window-y="24" />
  <metadata
     id="metadata4">
    <rdf:RDF>
      <cc:Work
         rdf:about="">
        <dc:format>image/svg+xml</dc:format>
        <dc:type
           rdf:resource="http://purl.org/dc/dcmitype/StillImage" />
      </cc:Work>
    </rdf:RDF>
  </metadata>
  <g
     inkscape:label="Layer 1"
     inkscape:groupmode="layer"
     id="layer1">
    <path
       style="fill:#000000;fill-opacity:1.0000000;fill-rule:nonzero;stroke:none;stroke-width:1.0000000px;stroke-linecap:butt;stroke-linejoin:miter;stroke-opacity:1.0000000"
       d="M 69.435046,29.484697 C 65.281772,33.008474 67.666962,37.588428 66.236566,41.348186 C 64.410229,44.663435 59.118643,43.058998 55.796903,44.051363 C 53.650505,42.422039 53.787717,37.745113 51.939077,35.799278 C 50.027691,39.306761 55.387153,45.952001 48.639334,46.535661 C 42.151613,47.639054 47.816747,38.846109 45.641004,35.280399 C 45.143213,36.205747 44.731997,36.550040 44.247499,36.473479 C 45.926149,41.487778 41.922552,49.926916 36.632588,51.019949 C 31.904171,55.104180 32.994793,45.262326 30.391562,42.950131 C 30.845574,42.657494 29.323326,43.653827 29.743719,44.093334 C 32.358007,47.283216 30.907260,51.326088 30.260089,55.454310 C 30.007841,57.416610 23.680786,58.308040 25.492426,59.022740 C 27.522580,58.058680 22.422582,62.416840 20.011287,61.952480 C 20.567969,58.837950 17.365214,56.698190 15.942320,56.013130 C 17.274895,59.679030 19.962413,69.712510 12.778954,68.785630 C 11.405773,66.914540 10.607149,65.121910 7.2745976,63.390540 C 11.750698,69.583610 10.014355,77.689250 5.6626240,80.072560 C 11.871275,77.245190 19.488171,64.862280 25.840598,62.201200 C 36.235520,57.090580 47.003844,52.359681 58.378967,49.939298 C 62.122028,49.936468 69.590433,46.459552 69.401416,52.367438 C 71.641276,57.932830 70.556894,64.204970 66.821499,68.868920 C 63.298879,74.263480 57.035381,79.035980 50.295912,76.560140 C 43.830471,74.944030 39.223345,69.264790 38.044024,62.828610 C 38.445951,60.081490 35.407856,56.589440 33.376691,59.363830 C 33.794057,65.007990 36.748403,71.735720 41.141983,75.526240 C 46.629488,80.161640 54.929142,80.394850 60.728838,76.190860 C 67.286559,71.973400 73.468724,65.276570 73.837752,57.124510 C 74.021158,54.251480 70.244266,47.218004 74.682780,49.379994 C 83.745701,50.551497 89.065247,56.150960 92.644092,55.902060 C 95.833922,56.119060 98.939120,55.446990 94.520455,59.130050 C 98.167880,59.193200 90.658064,62.997490 89.871280,65.287170 C 82.312017,74.578200 70.493491,79.179310 59.110833,81.726930 C 50.409933,83.314830 41.422202,83.583250 32.635680,82.651250 C 28.078298,81.038130 23.336987,82.120240 18.851599,83.383840 C 15.282661,84.231480 10.770247,84.831150 8.1369150,81.719970 C 3.3990670,78.093720 2.4021456,85.355480 7.5465714,85.589220 C 14.200256,87.772200 20.547410,82.859170 27.262653,84.232890 C 30.687350,84.026250 33.830528,85.649740 30.404272,88.787520 C 30.135652,92.591850 30.064000,95.921530 29.537748,101.64484 C 32.467320,98.193070 31.178779,92.838910 33.148980,88.704680 C 33.629414,82.902520 42.860288,84.464810 41.835361,90.060810 C 42.783834,94.913230 44.806215,100.10058 42.667228,104.86474 C 49.017771,102.75489 44.291107,94.287000 44.061343,89.446920 C 43.215350,86.359060 43.648639,84.083860 47.705873,85.041500 C 50.777510,85.166710 55.635295,82.724280 53.715432,87.404320 C 55.286971,91.576450 56.192606,95.882920 56.092599,100.36315 C 57.639599,97.746910 59.162022,94.230570 57.285298,91.985820 C 55.770329,88.651000 55.740115,80.699700 61.608425,83.536160 C 64.944275,85.988300 63.540008,91.001940 64.671286,94.291910 C 68.519454,91.272620 65.197273,86.812780 65.591855,82.916240 C 67.512425,77.130310 76.531192,79.479470 74.917364,85.704330 C 75.020224,88.364040 76.194917,90.845040 76.734436,91.570180 C 78.925440,86.413490 73.259371,78.884460 78.063677,75.306650 C 83.388701,74.370210 86.828209,79.246830 90.430945,82.215170 C 89.497099,79.285120 88.290858,75.777840 85.658690,74.398180 C 79.197203,71.644630 90.964455,69.715390 93.479084,73.254980 C 94.265449,74.291280 93.987253,71.990450 93.645925,71.885520 C 90.368015,71.106930 88.136167,65.727940 93.163099,66.380650 C 98.826120,65.993260 101.76842,72.809360 106.03167,73.756290 C 104.83540,70.772280 100.70547,66.606640 97.625961,64.880430 C 95.924945,64.239910 91.154916,63.872980 95.202249,62.615780 C 99.626620,63.695930 103.51833,64.967070 107.28692,67.444200 C 107.58167,67.437660 106.88416,66.684770 106.87892,66.734370 C 104.53090,65.131550 98.875530,61.030110 99.340590,60.388820 C 103.69348,59.213460 107.85129,61.786320 111.26778,63.013740 C 109.56645,60.322910 106.39171,58.277700 105.27278,58.066710 C 112.11466,57.885530 121.21767,55.614900 126.52372,51.269366 C 121.64883,53.664450 116.70829,56.212880 111.06833,56.219280 C 108.51576,56.363300 102.91656,56.900180 102.46599,56.265030 C 107.91141,53.581590 114.45614,52.447759 118.95750,48.275422 C 109.91543,52.675552 103.86517,53.663980 105.43025,52.523563 C 110.14669,52.218712 116.70145,43.328300 117.76395,41.957954 C 109.91357,47.738455 115.82900,40.302624 117.50730,37.909112 C 114.60264,39.796288 112.12382,44.631948 107.50310,44.517450 C 106.27649,42.358462 99.472900,45.735106 96.771833,42.854532 C 97.033931,38.304402 96.898584,38.731470 92.311802,43.381957 C 87.642327,44.365701 89.230739,39.234798 87.844195,37.323798 C 85.337179,39.811857 87.409539,44.723946 81.576256,42.817770 C 76.956965,43.794621 77.863106,37.650020 77.503338,35.249833 C 75.121846,37.412262 78.791251,44.335577 73.072782,42.756497 C 65.858985,44.506384 69.723623,36.053622 68.824341,32.104779 C 68.830148,30.995359 69.508946,30.591777 69.435046,29.484697 z M 53.462015,51.690981 C 48.772721,52.761646 42.060452,58.155870 44.687345,63.258530 C 49.416886,67.751830 59.705945,64.185660 58.831027,57.081450 C 58.194657,54.494400 55.419205,53.178310 53.462015,51.690981 z M 50.490647,53.892750 C 53.223898,57.250800 43.954208,63.273450 48.113270,56.763640 C 48.771086,55.703270 49.616864,54.776820 50.490647,53.892750 z M 54.048136,57.404370 C 53.680974,60.544530 47.143870,63.244510 52.179743,59.547320 C 52.895454,58.923190 53.560082,58.224470 54.048136,57.404370 z M 55.566952,58.729510 C 55.639821,60.899860 52.416707,59.968200 55.397486,58.886110 L 55.566952,58.729510 z M 55.730042,59.820200 C 57.251711,62.719070 50.090120,63.619640 54.387068,61.044790 C 54.856033,60.660840 55.305911,60.253280 55.730042,59.820200 z M 52.447776,61.767130 L 51.666271,62.201230 L 52.447776,61.767130 z "
       id="path1311"
       sodipodi:nodetypes="ccccccccccccccccccccccccccccccccccccccccccccccccccccccccccccccccccccccccccccccccccccccccccccccccccccc" />
  </g>
</svg>
