<?xml version="1.0" encoding="UTF-8" standalone="no"?>
<!-- Created with Inkscape (http://www.inkscape.org/) -->
<svg
   xmlns:dc="http://purl.org/dc/elements/1.1/"
   xmlns:cc="http://web.resource.org/cc/"
   xmlns:rdf="http://www.w3.org/1999/02/22-rdf-syntax-ns#"
   xmlns:svg="http://www.w3.org/2000/svg"
   xmlns="http://www.w3.org/2000/svg"
   xmlns:sodipodi="http://inkscape.sourceforge.net/DTD/sodipodi-0.dtd"
   xmlns:inkscape="http://www.inkscape.org/namespaces/inkscape"
   width="480"
   height="320"
   id="svg2"
   sodipodi:version="0.32"
   inkscape:version="0.43"
   version="1.0"
   sodipodi:docbase="/home/nicu/Desktop/svg"
   sodipodi:docname="shadow.svg">
  <defs
     id="defs4" />
  <sodipodi:namedview
     id="base"
     pagecolor="#ffffff"
     bordercolor="#666666"
     borderopacity="1.0"
     inkscape:pageopacity="0.0"
     inkscape:pageshadow="2"
     inkscape:zoom="1"
     inkscape:cx="240"
     inkscape:cy="160"
     inkscape:document-units="px"
     inkscape:current-layer="layer1"
     inkscape:window-width="1152"
     inkscape:window-height="791"
     inkscape:window-x="0"
     inkscape:window-y="24" />
  <metadata
     id="metadata7">
    <rdf:RDF>
      <cc:Work
         rdf:about="">
        <dc:format>image/svg+xml</dc:format>
        <dc:type
           rdf:resource="http://purl.org/dc/dcmitype/StillImage" />
      </cc:Work>
    </rdf:RDF>
  </metadata>
  <g
     inkscape:label="Layer 1"
     inkscape:groupmode="layer"
     id="layer1">
    <g
       id="g1477"
       transform="translate(-88,-91)">
      <path
         id="path1307"
         d="M 95.096016,207.78407 C 115.16061,197.68002 138.10703,207.81082 159.4527,204.53805 C 293.51833,205.77626 427.59357,206.53051 561.65189,204.67121 C 540.78608,213.10643 517.8968,205.07209 496.16598,208.09196 C 362.54314,207.48003 228.39321,205.81609 95.096016,207.78407 z "
         style="fill:#000000;fill-opacity:1;fill-rule:nonzero;stroke:none;stroke-width:1px;stroke-linecap:butt;stroke-linejoin:miter;stroke-opacity:1" />
      <path
         id="path1337"
         d="M 234.40625,125.25 C 216.89403,127.52198 197.39931,127.34973 183.29115,139.65374 C 168.25634,149.48356 153.08099,162.27589 149.63926,180.89213 C 149.02229,186.92954 143.41479,199.5285 146.03127,201.43779 C 154.39573,192.93895 149.87084,178.64485 157.19286,169.0561 C 165.01206,154.76661 179.56391,145.92314 192.80398,137.28722 C 212.25485,127.7227 234.9716,128.55899 255.93467,131.08162 C 286.11606,137.05776 312.61332,159.06969 325.10759,187.00516 C 326.60725,190.77926 330.41384,211.89765 333.22581,202.36852 C 328.7775,182.17817 317.57811,163.94786 301.59637,150.83949 C 284.83789,135.34403 262.57001,126.73605 239.8289,125.99005 L 237.11172,125.66552 L 234.40625,125.25 z "
         style="fill:#000000;fill-opacity:1;fill-rule:nonzero;stroke:none;stroke-width:1px;stroke-linecap:butt;stroke-linejoin:miter;stroke-opacity:1" />
      <path
         sodipodi:nodetypes="cccccccccccccccccccccccc"
         id="path1363"
         d="M 186.69081,225.70032 C 276.8174,231.48224 367.11992,233.60864 457.32936,237.66032 C 456.27087,253.16331 425.64469,245.65366 413.37155,250.82325 C 342.80279,258.73469 272.5621,270.08362 201.82774,276.15704 C 193.23488,275.07583 154.76731,280.54298 178.24027,282.02725 C 286.75393,292.52376 396.0975,284.0349 504.62008,294.37967 C 516.62716,308.88263 480.61134,306.50645 471.57952,308.30296 C 391.91071,311.26843 312.02686,311.14909 232.60451,318.72541 C 223.87273,320.16317 202.47202,325.18993 222.23237,329.99902 C 278.89133,344.43328 337.67719,346.49596 395.65571,351.65634 C 406.11646,354.84896 435.22204,349.01797 434.2389,362.06344 C 426.54558,369.77809 397.72318,363.23125 421.50793,362.51231 C 448.6634,355.83467 404.00532,353.66151 394.50258,352.52376 C 339.0948,346.99948 283.32486,344.06273 228.43825,334.21699 C 213.2831,339.56277 202.50957,313.4318 224.44457,319.66273 C 265.00532,312.03029 306.56795,313.93049 347.62374,311.62068 C 400.85468,309.93506 454.18627,308.25657 507.09278,301.75216 C 498.21013,287.56476 467.86038,298.65412 452.35708,293.76746 C 363.98268,287.43814 280.26634,289.92919 191.82559,285.9039 C 181.34157,288.60213 156.95853,277.41604 180.44539,275.90665 C 271.48407,269.09341 362.29937,257.79147 452.16879,241.87023 C 457.29474,236.3887 429.69594,239.94901 423.38369,237.9052 C 344.5364,233.73467 265.60098,229.64907 186.69081,227.08219 C 186.69081,225.9549 186.69081,226.82761 186.69081,225.70032 z "
         style="fill:#000000;fill-opacity:1;fill-rule:nonzero;stroke:none;stroke-width:1px;stroke-linecap:butt;stroke-linejoin:miter;stroke-opacity:1" />
      <path
         id="path1418"
         d="M 312.78125,181.75 C 311.39565,183.78763 308.4737,181.41854 306.98986,183.28136 C 303.94566,185.84976 303.4618,190.14689 303.7196,193.87953 C 303.53872,198.00744 301.81208,202.00305 302.38157,206.17362 C 302.45252,209.28691 301.69471,212.35979 300.53994,215.22402 C 299.99133,218.2661 300.13514,221.47861 298.82335,224.34388 C 298.19574,226.57935 297.67853,228.92875 298.05083,231.25613 C 301.62473,234.50801 301.65786,240.02248 305.23363,243.27295 C 307.34867,244.29494 307.34074,246.96409 307.29858,248.98333 C 307.36366,256.11792 307.49637,263.26132 307.0573,270.38771 C 306.38485,271.87219 305.43518,274.01601 306.83209,275.37045 C 308.28627,276.40771 309.77651,274.52694 309.96174,273.14675 C 311.31816,266.84347 310.69686,260.37361 310.4885,253.9928 C 310.45676,251.84518 310.41688,249.67513 310.66724,247.54539 C 311.25014,246.88312 310.85652,249.42387 311.00282,249.97432 C 311.09525,256.57281 311.50693,263.16101 311.76831,269.75222 C 311.79326,271.53307 311.77453,273.31502 311.68565,275.09401 C 309.9368,276.7589 312.846,279.95647 314.65428,278.33597 C 315.90976,276.42392 314.67611,274.13955 315.07016,272.06828 C 313.65231,270.20404 317.16799,269.67088 317.83575,270.83607 C 319.70692,270.05156 319.39958,267.53659 318.44875,266.13552 C 316.805,264.15516 317.17728,261.32174 317.71428,258.99042 C 318.19657,253.63087 316.20286,248.06747 318.24205,242.87225 C 319.74502,237.71919 321.06163,232.49656 321.82909,227.18195 C 322.53665,224.25139 323.58853,221.29834 323.16626,218.23639 C 322.90765,214.3156 321.70841,210.28749 323.0407,206.42614 C 324.03574,202.79575 325.72197,198.83013 324.23777,195.09661 C 322.6081,191.70319 318.47073,190.81075 316.3115,187.86971 C 314.78801,186.05576 313.66212,183.93982 312.78125,181.75 z M 310.78125,184.78125 C 312.82653,185.96953 311.82897,189.02281 310.09122,190.00578 C 308.2281,191.68376 305.85716,188.18015 308.20445,187.1415 C 309.09966,186.39726 310.05197,185.69983 310.78125,184.78125 z M 310.71875,192.71875 C 309.3732,193.95278 309.73118,196.43604 307.84145,197.17459 C 307.06492,195.10169 309.34148,193.74471 310.71875,192.71875 z M 317.71875,193.34375 C 319.97972,193.58993 321.43415,195.998 321.27138,198.14238 C 323.32653,199.06417 319.39103,201.40784 319.91895,199.06757 C 319.2368,197.14157 317.68335,195.48713 317.71875,193.34375 z M 314.09375,193.53125 C 315.66439,194.23223 312.21678,195.33204 313.81811,193.90406 C 313.91007,193.77985 314.0019,193.65554 314.09375,193.53125 z M 314.5625,199.59375 C 314.54425,204.47844 312.25668,208.93352 311.34375,213.65625 C 311.81147,208.87342 312.04239,203.83621 314.5625,199.59375 z M 308.5,208.15625 C 308.94489,208.66893 307.8606,208.32667 308.5,208.15625 z M 319.40625,215.21875 C 320.83251,219.17159 319.14945,223.26147 318.28674,227.13439 C 316.98791,224.9908 318.35075,222.54105 318.18893,220.25579 C 318.44773,218.54588 318.84401,216.85494 319.40625,215.21875 z M 311.0625,216.46875 C 311.60493,216.66615 310.68309,216.89764 311.0625,216.46875 z M 302.09375,226.65625 C 304.13681,227.39246 300.89285,231.12907 300.89061,228.44378 C 301.14252,227.76093 301.61694,227.19353 302.09375,226.65625 z M 307.5625,227.4375 C 307.89332,227.74411 307.25711,228.15551 307.5625,227.4375 z M 317.84375,229.90625 C 317.81011,230.17515 317.7964,230.28475 317.84375,229.90625 z M 317.8125,230.3125 C 317.78502,230.6146 317.76577,230.82614 317.8125,230.3125 z M 317.78125,230.6875 C 318.08421,231.66637 317.28344,231.93528 317.78125,230.6875 z M 309.53125,236.1875 C 310.66975,235.43782 309.1785,237.31494 309.53125,236.1875 z M 306.1875,238.71875 C 307.48879,239.50309 305.21936,239.7921 306.1875,238.71875 z M 314.5,239 C 314.36675,239.49017 314.93449,239.06163 314.5,239 z M 311.09375,239.9375 C 311.55971,241.5983 309.63468,239.23931 311.09375,239.9375 z "
         style="fill:#000000;fill-opacity:1;fill-rule:nonzero;stroke:none;stroke-width:1px;stroke-linecap:butt;stroke-linejoin:miter;stroke-opacity:1" />
      <path
         id="path1430"
         d="M 312.82642,280.23117 C 315.50108,278.51082 323.95938,276.05656 322.71972,281.4292 C 320.12813,283.58669 320.47632,282.67098 323.24341,282.69702 C 326.20366,284.55134 320.36692,289.15831 325.27083,287.86109 C 330.49358,286.78395 330.52335,295.03315 327.5139,293.28259 C 332.0808,290.46043 335.3536,297.05689 330.7019,299.11339 C 332.43269,302.74678 338.78083,300.79876 342.37227,302.12813 C 346.0682,302.67026 353.21191,301.9895 352.90979,307.42953 C 351.66076,312.02308 346.10536,312.83965 342.70469,315.38466 C 337.62514,319.4314 347.38743,319.2378 350.10068,318.78283 C 353.61238,320.00966 360.45319,315.78968 361.38247,320.96199 C 357.13252,324.96251 351.57678,328.09806 345.97284,329.40518 C 343.43484,324.15932 351.94094,324.16053 355.26475,323.31712 C 358.18455,323.00413 367.40157,319.48554 364.9691,325.36643 C 360.78748,330.12313 355.38395,333.65489 350.05806,337.01404 C 349.04026,332.6879 356.92336,334.40497 357.74336,334.83994 C 357.65072,338.12534 348.09608,340.35737 353.75859,341.14429 C 357.45095,341.74323 365.20454,339.5933 364.75716,345.4298 C 362.68285,346.5508 367.42321,343.51912 367.17521,346.63848 C 368.13119,351.38598 359.15761,347.87388 361.69501,344.59347 C 357.49236,343.52003 350.94936,344.90184 348.89042,340.17725 C 347.58739,336.51499 354.55328,333.17855 354.09203,337.61222 C 350.9972,339.56645 345.19135,335.35996 350.33484,333.20687 C 353.50587,330.4711 360.46855,327.54674 361.59692,325.42123 C 357.10464,325.51268 353.00775,327.83612 348.54332,328.25741 C 342.34628,328.73988 350.20704,324.84072 352.27415,324.1572 C 353.90458,323.55991 360.56012,320.21241 355.29775,321.42947 C 349.87199,322.40903 344.00835,322.1373 338.60997,321.00823 C 332.49744,318.09182 340.38343,313.65147 343.38982,311.89505 C 346.90358,311.22434 351.51734,304.5589 344.88893,305.39282 C 339.13008,304.40838 333.10371,303.74332 327.82661,301.0778 C 322.78866,299.80722 331.87405,295.4255 326.37203,296.26294 C 322.20312,295.56817 326.12584,290.40001 326.36883,291.31774 C 323.03401,291.60479 316.68996,289.03086 319.2943,284.9991 C 321.2602,283.19674 325.45391,285.98612 321.06204,286.15954 C 316.39221,286.93828 315.74364,278.62856 320.70312,280.42463 C 320.71634,282.62305 310.21499,285.2137 312.82642,280.23117 z "
         style="fill:#000000;fill-opacity:1;fill-rule:nonzero;stroke:none;stroke-width:1px;stroke-linecap:butt;stroke-linejoin:miter;stroke-opacity:1" />
    </g>
  </g>
</svg>
