<?xml version="1.0" encoding="UTF-8" standalone="no"?>
<!DOCTYPE svg PUBLIC "-//W3C//DTD SVG 20010904//EN"
"http://www.w3.org/TR/2001/REC-SVG-20010904/DTD/svg10.dtd">
<!-- Created with Sodipodi ("http://www.sodipodi.com/") -->
<svg
   id="svg548"
   sodipodi:version="0.32"
   width="400pt"
   height="400pt"
   sodipodi:docbase="/var/www/html/svg_gallery/svg/arrows"
   sodipodi:docname="arrow09_2.svg"
   inkscape:version="0.38.1"
   xmlns="http://www.w3.org/2000/svg"
   xmlns:inkscape="http://www.inkscape.org/namespaces/inkscape"
   xmlns:sodipodi="http://sodipodi.sourceforge.net/DTD/sodipodi-0.dtd"
   xmlns:xlink="http://www.w3.org/1999/xlink">
  <defs
     id="defs550">
    <linearGradient
       id="linearGradient834">
      <stop
         style="stop-color:#ffffff;stop-opacity:0.40000001;"
         offset="0.0000000"
         id="stop835" />
      <stop
         style="stop-color:#ffffff;stop-opacity:0.10000000;"
         offset="1.0000000"
         id="stop836" />
    </linearGradient>
    <linearGradient
       xlink:href="#linearGradient834"
       id="linearGradient837" />
  </defs>
  <sodipodi:namedview
     id="base"
     showgrid="true"
     inkscape:zoom="0.90750000"
     inkscape:cx="200.00000"
     inkscape:cy="190.14610"
     inkscape:window-width="640"
     inkscape:window-height="500"
     inkscape:window-x="387"
     inkscape:window-y="61" />
  <g
     id="g3665">
    <path
       style="fill-opacity:0.25000000;fill-rule:evenodd;stroke-width:3.7500000;fill:#000000;"
       d="M 461.06948,333.10111 C 461.03829,332.31547 460.89024,331.66068 460.63198,331.10111 C 452.36751,313.19478 361.47573,340.72610 361.47573,340.72611 C 361.47573,340.72611 366.98778,61.122799 360.10073,48.726104 C 353.21368,36.329410 193.64403,36.266910 186.75698,48.663604 C 179.86994,61.060301 185.38198,340.69486 185.38198,340.69486 C 185.38199,340.69487 94.458955,313.13228 86.194485,331.03861 C 78.107705,348.55999 183.44675,480.73119 270.56948,482.53861 L 270.56948,482.60111 C 272.46473,482.68995 274.37401,482.60957 276.28823,482.56986 C 360.62856,480.82017 462.01491,356.91540 461.06948,333.10111 z "
       id="path833"
       sodipodi:nodetypes="ccccccccccc" />
    <path
       style="fill:#0000ff;fill-rule:evenodd;stroke:#000000;stroke-width:10.000000;stroke-linejoin:round;stroke-dasharray:none;"
       d="M 448.16544,326.80247 C 448.13425,326.01683 447.98620,325.36204 447.72794,324.80247 C 439.46347,306.89614 348.57168,334.42746 348.57168,334.42747 C 348.57168,334.42747 354.08373,54.824166 347.19668,42.427471 C 340.30963,30.030777 180.73998,29.968277 173.85293,42.364971 C 166.96589,54.761668 172.47793,334.39622 172.47793,334.39622 C 172.47794,334.39623 81.554903,306.83364 73.290433,324.73997 C 65.203653,342.26135 170.54270,474.43255 257.66543,476.23997 L 257.66543,476.30247 C 259.56068,476.39131 261.46996,476.31093 263.38418,476.27122 C 347.72451,474.52153 449.11087,350.61676 448.16544,326.80247 z "
       id="path831"
       sodipodi:nodetypes="ccccccccccc" />
    <path
       style="fill:url(#linearGradient837);fill-opacity:1;fill-rule:evenodd;stroke-width:1.0000000pt;"
       d="M 179.74847,55.806981 C 170.79530,51.674751 184.02228,328.70232 177.33800,340.07007 C 169.27631,351.43782 104.67960,312.69404 79.197507,328.53425 C 77.820087,335.42131 178.37107,481.42682 285.80908,471.78494 C 221.07079,391.89513 194.89999,123.30009 179.74847,55.806981 z "
       id="path832"
       sodipodi:nodetypes="czccc" />
  </g>

  <rdf:RDF 
   xmlns="http://web.resource.org/cc/"
   xmlns:dc="http://purl.org/dc/elements/1.1/"
   xmlns:rdf="http://www.w3.org/1999/02/22-rdf-syntax-ns#">
  <Work rdf:about="">
    <dc:title>Clipart by Nicu Buculei - arrow08_4</dc:title>
    <dc:rights>
       <Agent>
         <dc:title>Nicu Buculei</dc:title>
       </Agent>
    </dc:rights>
    <dc:type rdf:resource="http://purl.org/dc/dcmitype/StillImage" />
    <license rdf:resource="http://web.resource.org/cc/PublicDomain" />
  </Work>
   
  <License rdf:about="http://web.resource.org/cc/PublicDomain">
     <permits rdf:resource="http://web.resource.org/cc/Reproduction" />
     <permits rdf:resource="http://web.resource.org/cc/Distribution" />
     <permits rdf:resource="http://web.resource.org/cc/DerivativeWorks" />
  </License>

</rdf:RDF>
</svg>
