<?xml version="1.0" encoding="UTF-8" standalone="no"?>
<!-- Created with Inkscape (http://www.inkscape.org/) -->

<svg
   xmlns:dc="http://purl.org/dc/elements/1.1/"
   xmlns:cc="http://creativecommons.org/ns#"
   xmlns:rdf="http://www.w3.org/1999/02/22-rdf-syntax-ns#"
   xmlns:svg="http://www.w3.org/2000/svg"
   xmlns="http://www.w3.org/2000/svg"
   xmlns:xlink="http://www.w3.org/1999/xlink"
   xmlns:sodipodi="http://sodipodi.sourceforge.net/DTD/sodipodi-0.dtd"
   xmlns:inkscape="http://www.inkscape.org/namespaces/inkscape"
   id="svg1"
   sodipodi:version="0.32"
   inkscape:version="0.47 r22583"
   width="48"
   height="48"
   sodipodi:docname="anniversary03.svg"
   version="1.1"
   inkscape:export-filename="anniversary03.png"
   inkscape:export-xdpi="89.949997"
   inkscape:export-ydpi="89.949997">
  <defs
     id="defs3">
    <filter
       height="1.0772263"
       y="-0.03861317"
       width="1.2625702"
       x="-0.13128512"
       id="filter4712"
       inkscape:collect="always">
      <feGaussianBlur
         id="feGaussianBlur4714"
         stdDeviation="0.27351066"
         inkscape:collect="always" />
    </filter>
    <linearGradient
       id="linearGradient3689">
      <stop
         style="stop-color:#ffea00;stop-opacity:1;"
         offset="0"
         id="stop3691" />
      <stop
         style="stop-color:#ffffa4;stop-opacity:1;"
         offset="1"
         id="stop3693" />
    </linearGradient>
    <linearGradient
       id="linearGradient3637">
      <stop
         style="stop-color:#f9f9f9;stop-opacity:0.98518521;"
         offset="0"
         id="stop3639-0" />
      <stop
         style="stop-color:#d5d5d5;stop-opacity:1;"
         offset="1"
         id="stop3641" />
    </linearGradient>
    <linearGradient
       inkscape:collect="always"
       xlink:href="#linearGradient3637"
       id="linearGradient3218"
       gradientUnits="userSpaceOnUse"
       gradientTransform="matrix(0.91976707,-0.03328377,0.03328377,0.91976707,-16.427813,13.285839)"
       x1="54.321594"
       y1="32.857597"
       x2="54"
       y2="29" />
    <radialGradient
       inkscape:collect="always"
       xlink:href="#linearGradient3637"
       id="radialGradient3220"
       gradientUnits="userSpaceOnUse"
       gradientTransform="matrix(1.6842944,0.05971494,-0.01803651,0.50876305,-33.578685,12.795259)"
       cx="49.837673"
       cy="29.105099"
       fx="49.837673"
       fy="29.105099"
       r="9" />
    <linearGradient
       inkscape:collect="always"
       xlink:href="#linearGradient3637"
       id="linearGradient3222"
       gradientUnits="userSpaceOnUse"
       gradientTransform="translate(-18.84588,8.656013)"
       x1="51.969372"
       y1="26.756508"
       x2="48.588055"
       y2="26.756508" />
    <linearGradient
       inkscape:collect="always"
       xlink:href="#linearGradient3637"
       id="linearGradient3224"
       gradientUnits="userSpaceOnUse"
       gradientTransform="translate(-23.72088,-8.3439021)"
       x1="58.618683"
       y1="22.430367"
       x2="49"
       y2="26.000044" />
    <linearGradient
       inkscape:collect="always"
       xlink:href="#linearGradient3637"
       id="linearGradient3226"
       gradientUnits="userSpaceOnUse"
       gradientTransform="translate(-23.72088,-8.3439021)"
       x1="62"
       y1="35.000046"
       x2="49"
       y2="26.000044" />
    <linearGradient
       inkscape:collect="always"
       xlink:href="#linearGradient3689"
       id="linearGradient3228"
       gradientUnits="userSpaceOnUse"
       gradientTransform="translate(-23.72088,-8.3440021)"
       x1="50.34375"
       y1="25.453335"
       x2="56.96875"
       y2="32.877533" />
    <linearGradient
       inkscape:collect="always"
       xlink:href="#linearGradient3689"
       id="linearGradient3230"
       gradientUnits="userSpaceOnUse"
       gradientTransform="translate(-23.72088,-8.3440021)"
       x1="37.291538"
       y1="17.441082"
       x2="63.59375"
       y2="41" />
    <linearGradient
       inkscape:collect="always"
       xlink:href="#linearGradient3637"
       id="linearGradient3286"
       gradientUnits="userSpaceOnUse"
       gradientTransform="matrix(0.91976707,-0.03328377,0.03328377,0.91976707,-16.427813,13.285839)"
       x1="54.321594"
       y1="32.857597"
       x2="54"
       y2="29" />
    <radialGradient
       inkscape:collect="always"
       xlink:href="#linearGradient3637"
       id="radialGradient3288"
       gradientUnits="userSpaceOnUse"
       gradientTransform="matrix(1.6842944,0.05971494,-0.01803651,0.50876305,-33.578685,12.795259)"
       cx="49.837673"
       cy="29.105099"
       fx="49.837673"
       fy="29.105099"
       r="9" />
    <linearGradient
       inkscape:collect="always"
       xlink:href="#linearGradient3637"
       id="linearGradient3290"
       gradientUnits="userSpaceOnUse"
       gradientTransform="translate(-18.84588,8.656013)"
       x1="51.969372"
       y1="26.756508"
       x2="48.588055"
       y2="26.756508" />
    <linearGradient
       inkscape:collect="always"
       xlink:href="#linearGradient3637"
       id="linearGradient3292"
       gradientUnits="userSpaceOnUse"
       gradientTransform="translate(-23.72088,-8.3439021)"
       x1="58.618683"
       y1="22.430367"
       x2="49"
       y2="26.000044" />
    <linearGradient
       inkscape:collect="always"
       xlink:href="#linearGradient3637"
       id="linearGradient3294"
       gradientUnits="userSpaceOnUse"
       gradientTransform="translate(-23.72088,-8.3439021)"
       x1="62"
       y1="35.000046"
       x2="49"
       y2="26.000044" />
    <linearGradient
       inkscape:collect="always"
       xlink:href="#linearGradient3689"
       id="linearGradient3296"
       gradientUnits="userSpaceOnUse"
       gradientTransform="translate(-23.72088,-8.3440021)"
       x1="50.34375"
       y1="25.453335"
       x2="56.96875"
       y2="32.877533" />
    <linearGradient
       inkscape:collect="always"
       xlink:href="#linearGradient3689"
       id="linearGradient3298"
       gradientUnits="userSpaceOnUse"
       gradientTransform="translate(-23.72088,-8.3440021)"
       x1="37.291538"
       y1="17.441082"
       x2="63.59375"
       y2="41" />
    <linearGradient
       id="linearGradient3801">
      <stop
         id="stop3803"
         offset="0"
         style="stop-color:#a20000;stop-opacity:1;" />
      <stop
         id="stop3805"
         offset="1"
         style="stop-color:#d40000;stop-opacity:1;" />
    </linearGradient>
    <linearGradient
       inkscape:collect="always"
       xlink:href="#linearGradient3801"
       id="linearGradient3452"
       x1="3.0000005"
       y1="29.999848"
       x2="31.527346"
       y2="37.157742"
       gradientUnits="userSpaceOnUse" />
    <linearGradient
       inkscape:collect="always"
       xlink:href="#linearGradient3801"
       id="linearGradient3454"
       x1="27.03158"
       y1="32.084209"
       x2="38.231579"
       y2="35.918556"
       gradientUnits="userSpaceOnUse" />
    <linearGradient
       inkscape:collect="always"
       xlink:href="#linearGradient3801"
       id="linearGradient3456"
       x1="24.166521"
       y1="29.642105"
       x2="26.778948"
       y2="31.936842"
       gradientUnits="userSpaceOnUse" />
    <filter
       inkscape:collect="always"
       id="filter4252"
       x="-0.10873248"
       width="1.217465"
       y="-0.14416597"
       height="1.2883319">
      <feGaussianBlur
         inkscape:collect="always"
         stdDeviation="0.22536651"
         id="feGaussianBlur4254" />
    </filter>
    <filter
       inkscape:collect="always"
       id="filter4260"
       x="-0.08700839"
       width="1.1740168"
       y="-0.14619479"
       height="1.2923896">
      <feGaussianBlur
         inkscape:collect="always"
         stdDeviation="0.1963979"
         id="feGaussianBlur4262" />
    </filter>
    <filter
       inkscape:collect="always"
       id="filter4296"
       x="-0.14156624"
       width="1.2831325"
       y="-0.16314874"
       height="1.3262975">
      <feGaussianBlur
         inkscape:collect="always"
         stdDeviation="0.22263147"
         id="feGaussianBlur4298" />
    </filter>
    <filter
       inkscape:collect="always"
       id="filter4300"
       x="-0.16608963"
       width="1.3321793"
       y="-0.17576839"
       height="1.3515368">
      <feGaussianBlur
         inkscape:collect="always"
         stdDeviation="0.22263147"
         id="feGaussianBlur4302" />
    </filter>
    <filter
       inkscape:collect="always"
       id="filter3665"
       x="-0.058763984"
       width="1.117528"
       y="-0.37317002"
       height="1.74634">
      <feGaussianBlur
         inkscape:collect="always"
         stdDeviation="0.76286058"
         id="feGaussianBlur3667" />
    </filter>
  </defs>
  <sodipodi:namedview
     id="base"
     pagecolor="#ffffff"
     bordercolor="#666666"
     borderopacity="1.0"
     inkscape:pageopacity="0.0"
     inkscape:pageshadow="2"
     inkscape:zoom="1"
     inkscape:cx="23.767302"
     inkscape:cy="24"
     inkscape:window-width="1152"
     inkscape:window-height="793"
     inkscape:window-x="520"
     inkscape:window-y="24"
     showgrid="false"
     inkscape:window-maximized="0"
     inkscape:current-layer="g3126">
    <inkscape:grid
       type="xygrid"
       id="grid2861" />
  </sodipodi:namedview>
  <metadata
     id="metadata4">
    <rdf:RDF>
      <cc:Work
         rdf:about="">
        <dc:format>image/svg+xml</dc:format>
        <dc:type
           rdf:resource="http://purl.org/dc/dcmitype/StillImage" />
        <dc:title />
      </cc:Work>
    </rdf:RDF>
  </metadata>
  <g
     id="g3126"
     transform="matrix(0.98267901,0.18531583,-0.18531583,0.98267901,-9.9279177,-9.860766)">
    <path
       style="fill:#000000;fill-opacity:0.76862746000000004;fill-rule:evenodd;stroke:none;filter:url(#filter3665)"
       d="M 31.90625 36.03125 C 27.627497 36.03125 24.15625 37.056779 24.15625 38.3125 C 24.15625 39.568221 27.627497 40.59375 31.90625 40.59375 C 36.185003 40.59375 39.65625 39.568221 39.65625 38.3125 C 39.65625 37.056779 36.185003 36.03125 31.90625 36.03125 z M 16.09375 36.375 C 11.908013 36.375 8.5 37.400529 8.5 38.65625 C 8.5 39.911971 11.908013 40.9375 16.09375 40.9375 C 20.279487 40.9375 23.65625 39.911971 23.65625 38.65625 C 23.65625 37.400529 20.279487 36.375 16.09375 36.375 z "
       transform="matrix(0.98267902,-0.18531583,0.18531583,0.98267902,11.583312,7.8501675)"
       id="path3650" />
    <path
       style="color:#000000;fill:url(#linearGradient3456);stroke:none;stroke-width:1px;stroke-linecap:butt;stroke-linejoin:miter;stroke-miterlimit:4;stroke-opacity:1;stroke-dasharray:none;stroke-dashoffset:0;marker:none;visibility:visible;display:inline;overflow:visible;enable-background:accumulate;fill-opacity:1"
       d="m 25.010526,29.642105 c 0.222863,1.529825 -0.325214,3.059649 -0.505263,4.589474 0,0 -1.389474,-0.336842 -1.221052,-0.631579 0.168421,-0.294737 0.631578,-3.747368 0.631578,-3.747368 l 1.094737,-0.210527 z"
       id="path3304"
       transform="matrix(0.98267902,-0.18531583,0.18531583,0.98267902,11.583312,7.8501675)"
       sodipodi:nodetypes="ccscc" />
    <path
       style="color:#000000;fill:url(#linearGradient3452);stroke:none;stroke-width:1px;stroke-linecap:butt;stroke-linejoin:miter;stroke-miterlimit:4;stroke-opacity:1;stroke-dasharray:none;stroke-dashoffset:0;marker:none;visibility:visible;display:inline;overflow:visible;enable-background:accumulate"
       d="m 4,26 c 3.3634637,2.17177 5.3143853,3.201244 9.761817,3.761817 2.575175,0.324586 15.295891,-2.558728 9.859236,1.406604 L 23,34 C 27.027289,32.601142 16.137001,33.910424 12.791426,33.500461 9.4284657,33.088368 6.1439677,32.342812 3.0000005,31 c 0,0 2.5831796,-0.595459 3.2381833,-1.059546 C 5.2381843,28.940454 3.9300251,25.968041 4,26 z"
       id="path3300"
       transform="matrix(0.98267902,-0.18531583,0.18531583,0.98267902,11.583312,7.8501675)"
       sodipodi:nodetypes="csccsccc" />
    <g
       id="g2953"
       transform="translate(-0.11433366,1.7592694)">
      <path
         sodipodi:nodetypes="csscscc"
         id="path4234"
         d="m 42.549307,39.701676 c 0.03677,1.015957 -3.639575,1.973663 -8.211336,2.139117 -4.571758,0.165455 -8.307705,-0.524008 -8.34447,-1.539965 -0.0041,-0.113901 0.153816,-0.620048 0.239114,-0.731476 0.675324,-0.882241 3.913173,-1.260736 7.97222,-1.407641 3.753776,-0.135895 6.670046,-0.106497 7.711849,0.617863 0.227018,0.157828 0.626046,0.740335 0.632623,0.922102 z"
         style="fill:url(#linearGradient3218);fill-opacity:1;fill-rule:evenodd;stroke:none" />
      <path
         transform="matrix(0.87850974,-0.06351337,0.06351337,0.87850974,-15.213389,15.502443)"
         d="m 63,31 c 0,1.104569 -4.029437,2 -9,2 -4.970563,0 -9,-0.895431 -9,-2 0,-1.104569 4.029437,-2 9,-2 4.970563,0 9,0.895431 9,2 z"
         sodipodi:ry="2"
         sodipodi:rx="9"
         sodipodi:cy="31"
         sodipodi:cx="54"
         id="path4222"
         style="fill:url(#radialGradient3220);fill-opacity:1;fill-rule:evenodd;stroke:none"
         sodipodi:type="arc" />
      <path
         sodipodi:nodetypes="ccccc"
         id="path4228"
         d="m 31.800368,31.222609 0.95559,8.232811 c 0.205643,0.543256 1.370954,0.594874 1.653904,-0.03676 l 0.03675,-8.122532 -2.646248,-0.07352 z"
         style="color:#000000;fill:url(#linearGradient3222);fill-opacity:1;stroke:none;stroke-width:1px;marker:none;visibility:visible;display:inline;overflow:visible;enable-background:accumulate" />
      <path
         style="fill:url(#linearGradient3224);fill-rule:evenodd;stroke:none"
         d="m 26.40412,13.656064 c -0.08111,0.974429 -0.125,1.971571 -0.125,2.999971 0,8.8366 3.134007,15.999977 7,16.000002 3.865993,2.4e-5 7,-7.163399 7,-15.999999 0,-1.0284 -0.04389,-2.025558 -0.125,-2.999929 -6.058115,-2.393492 -10.222252,-1.079736 -13.75,-4.5e-5 z"
         id="path4240"
         sodipodi:nodetypes="cssscc" />
      <path
         sodipodi:nodetypes="cssscc"
         id="path4215"
         d="m 26.40412,13.656064 c -0.08111,0.974429 -0.125,1.971571 -0.125,2.999971 0,8.8366 3.134007,15.999977 7,16.000002 3.865993,2.4e-5 7,-7.163399 7,-15.999999 0,-1.0284 -0.04389,-2.025558 -0.125,-2.999929 -4.778536,1.561564 -9.363499,1.574582 -13.75,-4.5e-5 z"
         style="fill:url(#linearGradient3226);fill-rule:evenodd;stroke:none" />
      <path
         style="fill:url(#linearGradient3228);fill-opacity:1;fill-rule:evenodd;stroke:none"
         d="m 26.825479,21.55533 c 0.911892,6.414212 3.343349,11.100702 6.453641,11.100707 3.048637,-10e-7 4.563471,-6.12499 5.523823,-12.341818 -4.281778,-1.335032 -9.67924,0.743192 -11.977464,1.241111 z"
         id="path4598"
         sodipodi:nodetypes="cscc" />
      <path
         sodipodi:nodetypes="cscc"
         id="path4247"
         d="m 26.825479,21.55533 c 0.911892,6.414212 3.343349,11.100702 6.453641,11.100707 3.048637,-10e-7 5.838355,-5.277749 6.691818,-11.544454 -2.989535,2.152123 -8.824872,3.385163 -13.145459,0.443747 z"
         style="fill:url(#linearGradient3230);fill-opacity:1;fill-rule:evenodd;stroke:none" />
      <path
         sodipodi:nodetypes="ccc"
         id="path4684"
         d="m 26.62287,14.5935 c 0.975832,7.739184 2.4605,13.951863 5,17.000044 0,0 -5,-3 -5,-17.000044 z"
         style="color:#000000;fill:#ffffff;stroke:none;stroke-width:1px;marker:none;visibility:visible;display:inline;overflow:visible;filter:url(#filter4712);enable-background:accumulate" />
      <path
         transform="matrix(0.87850974,-0.06351337,0.06351337,0.87850974,1.6585671,6.5952303)"
         sodipodi:nodetypes="ccc"
         id="path4686"
         d="m 30.803574,37.788021 c -3.843072,0.735971 -5.746387,1.727172 -2.180704,3.437979 -0.94006,0.0235 -7.620386,-2.869751 2.180704,-3.437979 z"
         style="color:#000000;fill:#ffffff;stroke:none;stroke-width:1px;marker:none;visibility:visible;display:inline;overflow:visible;enable-background:accumulate;filter:url(#filter4260)" />
    </g>
    <g
       transform="matrix(0.96283088,-0.27010499,0.27010499,0.96283088,6.2600962,8.741101)"
       id="g3266">
      <path
         style="fill:url(#linearGradient3286);fill-opacity:1;fill-rule:evenodd;stroke:none"
         d="m 42.549307,39.701676 c 0.03677,1.015957 -3.639575,1.973663 -8.211336,2.139117 -4.571758,0.165455 -8.307705,-0.524008 -8.34447,-1.539965 -0.0041,-0.113901 0.153816,-0.620048 0.239114,-0.731476 0.675324,-0.882241 3.913173,-1.260736 7.97222,-1.407641 3.753776,-0.135895 6.670046,-0.106497 7.711849,0.617863 0.227018,0.157828 0.626046,0.740335 0.632623,0.922102 z"
         id="path3268"
         sodipodi:nodetypes="csscscc" />
      <path
         sodipodi:type="arc"
         style="fill:url(#radialGradient3288);fill-opacity:1;fill-rule:evenodd;stroke:none"
         id="path3270"
         sodipodi:cx="54"
         sodipodi:cy="31"
         sodipodi:rx="9"
         sodipodi:ry="2"
         d="m 63,31 c 0,1.104569 -4.029437,2 -9,2 -4.970563,0 -9,-0.895431 -9,-2 0,-1.104569 4.029437,-2 9,-2 4.970563,0 9,0.895431 9,2 z"
         transform="matrix(0.87850974,-0.06351337,0.06351337,0.87850974,-15.213389,15.502443)" />
      <path
         style="color:#000000;fill:url(#linearGradient3290);fill-opacity:1;stroke:none;stroke-width:1px;marker:none;visibility:visible;display:inline;overflow:visible;enable-background:accumulate"
         d="m 31.800368,31.222609 0.95559,8.232811 c 0.205643,0.543256 1.370954,0.594874 1.653904,-0.03676 l 0.03675,-8.122532 -2.646248,-0.07352 z"
         id="path3272"
         sodipodi:nodetypes="ccccc" />
      <path
         sodipodi:nodetypes="cssscc"
         id="path3274"
         d="m 26.40412,13.656064 c -0.08111,0.974429 -0.125,1.971571 -0.125,2.999971 0,8.8366 3.134007,15.999977 7,16.000002 3.865993,2.4e-5 7,-7.163399 7,-15.999999 0,-1.0284 -0.04389,-2.025558 -0.125,-2.999929 -6.058115,-2.393492 -10.222252,-1.079736 -13.75,-4.5e-5 z"
         style="fill:url(#linearGradient3292);fill-rule:evenodd;stroke:none" />
      <path
         style="fill:url(#linearGradient3294);fill-rule:evenodd;stroke:none"
         d="m 26.40412,13.656064 c -0.08111,0.974429 -0.125,1.971571 -0.125,2.999971 0,8.8366 3.134007,15.999977 7,16.000002 3.865993,2.4e-5 7,-7.163399 7,-15.999999 0,-1.0284 -0.04389,-2.025558 -0.125,-2.999929 -4.778536,1.561564 -9.363499,1.574582 -13.75,-4.5e-5 z"
         id="path3276"
         sodipodi:nodetypes="cssscc" />
      <path
         sodipodi:nodetypes="cscc"
         id="path3278"
         d="m 26.62287,21.593539 c 0.911892,6.414212 3.545958,11.062493 6.65625,11.062498 3.048637,-10e-7 5.337058,-3.799287 6.29741,-10.016115 -6.284764,-2.418689 -11.404949,-1.949804 -12.95366,-1.046383 z"
         style="fill:url(#linearGradient3296);fill-opacity:1;fill-rule:evenodd;stroke:none" />
      <path
         style="fill:url(#linearGradient3298);fill-opacity:1;fill-rule:evenodd;stroke:none"
         d="m 26.62287,21.593539 c 0.911892,6.414212 3.545958,11.062493 6.65625,11.062498 3.048637,-10e-7 5.337058,-3.799287 6.29741,-10.016115 -2.989535,2.152123 -8.633073,1.895033 -12.95366,-1.046383 z"
         id="path3280"
         sodipodi:nodetypes="cscc" />
      <path
         style="color:#000000;fill:#ffffff;stroke:none;stroke-width:1px;marker:none;visibility:visible;display:inline;overflow:visible;filter:url(#filter4712);enable-background:accumulate"
         d="m 26.62287,14.5935 c 0.975832,7.739184 2.4605,13.951863 5,17.000044 0,0 -5,-3 -5,-17.000044 z"
         id="path3282"
         sodipodi:nodetypes="ccc" />
      <path
         style="color:#000000;fill:#ffffff;stroke:none;stroke-width:1px;marker:none;visibility:visible;display:inline;overflow:visible;enable-background:accumulate;filter:url(#filter4252)"
         d="m 30.803574,37.788021 c -3.843072,0.735971 -5.746387,1.727172 -2.180704,3.437979 -0.94006,0.0235 -7.620386,-2.869751 2.180704,-3.437979 z"
         id="path3284"
         sodipodi:nodetypes="ccc"
         transform="matrix(0.87850974,-0.06351337,0.06351337,0.87850974,1.7215067,6.9567764)" />
    </g>
    <path
       style="color:#000000;fill:url(#linearGradient3454);stroke:none;stroke-width:1px;stroke-linecap:butt;stroke-linejoin:miter;stroke-miterlimit:4;stroke-opacity:1;stroke-dasharray:none;stroke-dashoffset:0;marker:none;visibility:visible;display:inline;overflow:visible;enable-background:accumulate;fill-opacity:1"
       d="M 23.705264,31.08421 C 29.880884,31.413305 36.966731,31.638341 43,28.326316 L 40.084211,31.663158 43,33 c -7.634661,2.580745 -10.081815,3.913496 -19.873684,2.042105 -0.428807,-0.205502 -0.263337,-3.50611 0.578948,-3.957895 z"
       id="path3302"
       transform="matrix(0.98267902,-0.18531583,0.18531583,0.98267902,11.583312,7.8501675)"
       sodipodi:nodetypes="cccccc" />
    <path
       style="color:#000000;fill:#ffffff;stroke:none;stroke-width:1px;stroke-linecap:butt;stroke-linejoin:miter;stroke-miterlimit:4;stroke-opacity:1;stroke-dasharray:none;stroke-dashoffset:0;marker:none;visibility:visible;display:inline;overflow:visible;enable-background:accumulate;filter:url(#filter4296);fill-opacity:0.4107143"
       d="m 23.103784,34.780825 c -0.19041,-1.165483 -0.06683,-2.268167 0.535912,-3.275021 l 3.155929,0.178637 c -3.92672,0.390198 -2.731036,2.000016 -3.691841,3.096384 z"
       id="path4268"
       transform="matrix(0.98267902,-0.18531583,0.18531583,0.98267902,11.583312,7.8501675)"
       sodipodi:nodetypes="cccc" />
    <path
       style="color:#000000;fill:#ffffff;stroke:none;stroke-width:1px;stroke-linecap:butt;stroke-linejoin:miter;stroke-miterlimit:4;stroke-opacity:1;stroke-dasharray:none;stroke-dashoffset:0;marker:none;visibility:visible;display:inline;overflow:visible;enable-background:accumulate;filter:url(#filter4300);fill-opacity:0.4107143"
       d="M 6.4904959,29.4217 C 6.1374129,29.534503 4.3446723,26.477441 4.4063917,26.384862 l 3.2154751,2.203196 C 5.8707837,28.064462 6.4479143,28.898991 6.4904959,29.4217 z"
       id="path4270"
       transform="matrix(0.98267902,-0.18531583,0.18531583,0.98267902,11.583312,7.8501675)"
       sodipodi:nodetypes="cccc" />
  </g>
</svg>
