<?xml version="1.0" encoding="UTF-8" standalone="no"?>
<!-- Created with Inkscape (http://www.inkscape.org/) -->

<svg
   xmlns:dc="http://purl.org/dc/elements/1.1/"
   xmlns:cc="http://creativecommons.org/ns#"
   xmlns:rdf="http://www.w3.org/1999/02/22-rdf-syntax-ns#"
   xmlns:svg="http://www.w3.org/2000/svg"
   xmlns="http://www.w3.org/2000/svg"
   xmlns:xlink="http://www.w3.org/1999/xlink"
   xmlns:sodipodi="http://sodipodi.sourceforge.net/DTD/sodipodi-0.dtd"
   xmlns:inkscape="http://www.inkscape.org/namespaces/inkscape"
   id="svg1"
   sodipodi:version="0.32"
   inkscape:version="0.47 r22583"
   width="48"
   height="48"
   sodipodi:docname="anniversary02.svg"
   version="1.1"
   inkscape:export-filename="anniversary02.png"
   inkscape:export-xdpi="89.949997"
   inkscape:export-ydpi="89.949997">
  <defs
     id="defs3">
    <filter
       height="1.0772263"
       y="-0.03861317"
       width="1.2625702"
       x="-0.13128512"
       id="filter4712"
       inkscape:collect="always">
      <feGaussianBlur
         id="feGaussianBlur4714"
         stdDeviation="0.27351066"
         inkscape:collect="always" />
    </filter>
    <linearGradient
       id="linearGradient3689">
      <stop
         style="stop-color:#ffea00;stop-opacity:1;"
         offset="0"
         id="stop3691" />
      <stop
         style="stop-color:#ffffa4;stop-opacity:1;"
         offset="1"
         id="stop3693" />
    </linearGradient>
    <linearGradient
       id="linearGradient3637">
      <stop
         style="stop-color:#f9f9f9;stop-opacity:0.98518521;"
         offset="0"
         id="stop3639-0" />
      <stop
         style="stop-color:#d5d5d5;stop-opacity:1;"
         offset="1"
         id="stop3641" />
    </linearGradient>
    <linearGradient
       inkscape:collect="always"
       xlink:href="#linearGradient3637"
       id="linearGradient3286"
       gradientUnits="userSpaceOnUse"
       gradientTransform="matrix(0.91976707,-0.03328377,0.03328377,0.91976707,-16.427813,13.285839)"
       x1="54.321594"
       y1="32.857597"
       x2="54"
       y2="29" />
    <radialGradient
       inkscape:collect="always"
       xlink:href="#linearGradient3637"
       id="radialGradient3288"
       gradientUnits="userSpaceOnUse"
       gradientTransform="matrix(1.6842944,0.05971494,-0.01803651,0.50876305,-33.578685,12.795259)"
       cx="49.837673"
       cy="29.105099"
       fx="49.837673"
       fy="29.105099"
       r="9" />
    <linearGradient
       inkscape:collect="always"
       xlink:href="#linearGradient3637"
       id="linearGradient3290"
       gradientUnits="userSpaceOnUse"
       gradientTransform="translate(-18.84588,8.656013)"
       x1="51.969372"
       y1="26.756508"
       x2="48.588055"
       y2="26.756508" />
    <linearGradient
       inkscape:collect="always"
       xlink:href="#linearGradient3637"
       id="linearGradient3292"
       gradientUnits="userSpaceOnUse"
       gradientTransform="translate(-23.72088,-8.3439021)"
       x1="58.618683"
       y1="22.430367"
       x2="49"
       y2="26.000044" />
    <linearGradient
       inkscape:collect="always"
       xlink:href="#linearGradient3637"
       id="linearGradient3294"
       gradientUnits="userSpaceOnUse"
       gradientTransform="translate(-23.72088,-8.3439021)"
       x1="62"
       y1="35.000046"
       x2="49"
       y2="26.000044" />
    <linearGradient
       inkscape:collect="always"
       xlink:href="#linearGradient3689"
       id="linearGradient3296"
       gradientUnits="userSpaceOnUse"
       gradientTransform="translate(-23.72088,-8.3440021)"
       x1="50.34375"
       y1="25.453335"
       x2="56.96875"
       y2="32.877533" />
    <linearGradient
       inkscape:collect="always"
       xlink:href="#linearGradient3689"
       id="linearGradient3298"
       gradientUnits="userSpaceOnUse"
       gradientTransform="translate(-23.72088,-8.3440021)"
       x1="37.291538"
       y1="17.441082"
       x2="63.59375"
       y2="41" />
    <filter
       inkscape:collect="always"
       id="filter4252"
       x="-0.10873248"
       width="1.217465"
       y="-0.14416597"
       height="1.2883319">
      <feGaussianBlur
         inkscape:collect="always"
         stdDeviation="0.22536651"
         id="feGaussianBlur4254" />
    </filter>
    <linearGradient
       id="linearGradient3115">
      <stop
         style="stop-color:#4d4d4d;stop-opacity:1;"
         offset="0"
         id="stop3117" />
      <stop
         style="stop-color:#2b2b2b;stop-opacity:1;"
         offset="1"
         id="stop3119" />
    </linearGradient>
    <linearGradient
       id="linearGradient2911">
      <stop
         style="stop-color:#9a5723;stop-opacity:1;"
         offset="0"
         id="stop2913" />
      <stop
         style="stop-color:#db9762;stop-opacity:1;"
         offset="1"
         id="stop2915" />
    </linearGradient>
    <linearGradient
       id="linearGradient3669">
      <stop
         style="stop-color:#ffd73b;stop-opacity:1;"
         offset="0"
         id="stop3671" />
      <stop
         style="stop-color:#ee8400;stop-opacity:1;"
         offset="1"
         id="stop3673" />
    </linearGradient>
    <linearGradient
       id="linearGradient3764">
      <stop
         id="stop3766"
         offset="0"
         style="stop-color:#7ed249;stop-opacity:1;" />
      <stop
         id="stop3768"
         offset="1"
         style="stop-color:#286325;stop-opacity:1;" />
    </linearGradient>
    <filter
       inkscape:collect="always"
       id="filter4152"
       x="-0.43281944"
       width="1.8656389"
       y="-0.031948189"
       height="1.0638964">
      <feGaussianBlur
         inkscape:collect="always"
         stdDeviation="0.24385754"
         id="feGaussianBlur4154" />
    </filter>
    <filter
       inkscape:collect="always"
       id="filter4184"
       x="-0.34198862"
       width="1.6839772"
       y="-0.051325919"
       height="1.1026518">
      <feGaussianBlur
         inkscape:collect="always"
         stdDeviation="0.13930611"
         id="feGaussianBlur4186" />
    </filter>
    <filter
       inkscape:collect="always"
       id="filter4198"
       x="-0.14672526"
       width="1.2934505"
       y="-0.22788155"
       height="1.4557631">
      <feGaussianBlur
         inkscape:collect="always"
         stdDeviation="0.11626016"
         id="feGaussianBlur4200" />
    </filter>
    <linearGradient
       inkscape:collect="always"
       xlink:href="#linearGradient3764"
       id="linearGradient4217"
       gradientUnits="userSpaceOnUse"
       x1="39.693256"
       y1="28.033783"
       x2="28.38134"
       y2="30.167011" />
    <linearGradient
       inkscape:collect="always"
       xlink:href="#linearGradient3669"
       id="linearGradient4219"
       gradientUnits="userSpaceOnUse"
       x1="20"
       y1="31.750092"
       x2="10.227814"
       y2="26.372612" />
    <linearGradient
       inkscape:collect="always"
       xlink:href="#linearGradient3669"
       id="linearGradient4221"
       gradientUnits="userSpaceOnUse"
       x1="18.15625"
       y1="15.990525"
       x2="12.580087"
       y2="15.990525" />
    <linearGradient
       inkscape:collect="always"
       xlink:href="#linearGradient3637"
       id="linearGradient4223"
       gradientUnits="userSpaceOnUse"
       x1="12.744589"
       y1="29.367966"
       x2="19.48485"
       y2="34.839828" />
    <linearGradient
       inkscape:collect="always"
       xlink:href="#linearGradient3637"
       id="linearGradient4225"
       gradientUnits="userSpaceOnUse"
       x1="15.500719"
       y1="20.867924"
       x2="13.302226"
       y2="17.875" />
    <linearGradient
       inkscape:collect="always"
       xlink:href="#linearGradient2911"
       id="linearGradient4227"
       gradientUnits="userSpaceOnUse"
       x1="22.534035"
       y1="11.201054"
       x2="29.199835"
       y2="12.497208" />
    <linearGradient
       inkscape:collect="always"
       xlink:href="#linearGradient3669"
       id="linearGradient4229"
       gradientUnits="userSpaceOnUse"
       x1="15.44276"
       y1="20.800318"
       x2="11.705628"
       y2="18.290585" />
    <linearGradient
       inkscape:collect="always"
       xlink:href="#linearGradient3115"
       id="linearGradient4231"
       gradientUnits="userSpaceOnUse"
       x1="16.28125"
       y1="31.3125"
       x2="12.4375"
       y2="28.3125" />
    <linearGradient
       inkscape:collect="always"
       xlink:href="#linearGradient3115"
       id="linearGradient4233"
       gradientUnits="userSpaceOnUse"
       x1="18.21875"
       y1="35.082619"
       x2="12.84375"
       y2="35.082619" />
    <filter
       inkscape:collect="always"
       id="filter3680"
       x="-0.053992983"
       width="1.107986"
       y="-0.23331274"
       height="1.4666255">
      <feGaussianBlur
         inkscape:collect="always"
         stdDeviation="0.41619591"
         id="feGaussianBlur3682" />
    </filter>
  </defs>
  <sodipodi:namedview
     id="base"
     pagecolor="#ffffff"
     bordercolor="#666666"
     borderopacity="1.0"
     inkscape:pageopacity="0.0"
     inkscape:pageshadow="2"
     inkscape:zoom="1"
     inkscape:cx="24"
     inkscape:cy="24"
     inkscape:window-width="1152"
     inkscape:window-height="916"
     inkscape:window-x="520"
     inkscape:window-y="24"
     showgrid="false"
     inkscape:window-maximized="0"
     inkscape:current-layer="g3126">
    <inkscape:grid
       type="xygrid"
       id="grid2861" />
  </sodipodi:namedview>
  <metadata
     id="metadata4">
    <rdf:RDF>
      <cc:Work
         rdf:about="">
        <dc:format>image/svg+xml</dc:format>
        <dc:type
           rdf:resource="http://purl.org/dc/dcmitype/StillImage" />
        <dc:title />
      </cc:Work>
    </rdf:RDF>
  </metadata>
  <g
     id="g3126"
     transform="matrix(0.98267901,0.18531583,-0.18531583,0.98267901,-9.9279177,-9.860766)">
    <path
       style="fill:#000000;fill-opacity:0.76862746000000004;fill-rule:evenodd;stroke:none;filter:url(#filter3680)"
       d="M 21.09375 38.15625 C 18.470397 38.15625 16.34375 39.074732 16.34375 40.21875 C 16.34375 41.362768 18.470397 42.28125 21.09375 42.28125 C 22.375565 42.28125 23.55175 42.078663 24.40625 41.71875 C 25.416524 42.153206 27.181823 42.4375 29.1875 42.4375 C 32.323689 42.4375 34.84375 41.711626 34.84375 40.84375 C 34.84375 39.975874 32.323689 39.28125 29.1875 39.28125 C 27.850008 39.28125 26.626601 39.442155 25.65625 39.65625 C 25.103245 38.779524 23.279877 38.15625 21.09375 38.15625 z "
       transform="matrix(0.98267902,-0.18531583,0.18531583,0.98267902,11.583312,7.8501675)"
       id="path3657" />
    <g
       id="g4202"
       transform="translate(2.8495884,-1.0779958)">
      <path
         sodipodi:nodetypes="ccccccccccccc"
         id="path2878"
         d="m 32.816097,45.725277 c 2.906894,0.585887 5.777218,0.689857 8.466158,-1.596568 -0.159035,-7.484787 -1.045078,-18.8247 -3.920142,-20.78744 l -2.875065,-1.96274 -2.19436,-6.239893 0.98137,-1.437532 -0.228081,-1.209451 c -1.380512,-0.679007 -3.648233,-0.251351 -4.38426,0.826794 l 0.228081,1.209451 1.437532,0.98137 0.531365,6.553504 -1.96274,2.875064 c -2.141124,4.00461 1.948239,14.896991 3.920142,20.787441 z"
         style="color:#000000;fill:url(#linearGradient4217);stroke:none;stroke-width:1px;marker:none;visibility:visible;display:inline;overflow:visible;enable-background:accumulate" />
      <path
         id="path2880"
         transform="matrix(0.98267902,-0.18531583,0.18531583,0.98267902,11.583312,7.8501675)"
         d="m 14.3125,26.375 c -0.608198,0.02805 -1.237286,0.319573 -1.9375,0.96875 0.03709,2.952352 0.408872,6.189667 0.8125,9.15625 2.270463,0.790815 4.542037,0.675223 6.8125,0.5 l 0,-7 c -1.836013,-0.656975 -3.520258,-3.724972 -5.6875,-3.625 z"
         style="color:#000000;fill:url(#linearGradient4219);stroke:none;stroke-width:1px;marker:none;visibility:visible;display:inline;overflow:visible;enable-background:accumulate" />
      <path
         sodipodi:nodetypes="cccccccccccc"
         id="path2888"
         transform="matrix(0.98267902,-0.18531583,0.18531583,0.98267902,11.583312,7.8501675)"
         d="m 16.84375,12.59375 -0.53125,4.9375 -2,2 c 2.511618,0.859638 5.082935,0.627513 7.6875,0 l -2,-2 -0.75,-4.9375 -0.480115,0.298154 -0.483633,-0.647768 -0.448611,0.692597 -0.313099,-1.04797 -0.374488,1.618121 -0.306304,-0.913134 z"
         style="color:#000000;fill:url(#linearGradient4221);stroke:none;stroke-width:1px;marker:none;visibility:visible;display:inline;overflow:visible;enable-background:accumulate" />
      <path
         sodipodi:nodetypes="cccccc"
         style="color:#000000;fill:url(#linearGradient4223);fill-opacity:1;stroke:none;stroke-width:1px;marker:none;visibility:visible;display:inline;overflow:visible;enable-background:accumulate"
         d="m 14,27 c -0.608198,0.02805 -0.884201,0.385455 -1.584415,1.034632 0.03709,2.952352 0.229759,4.91004 0.633387,7.876623 2.270463,0.790815 4.165414,0.679552 6.435877,0.504329 L 19.380953,30.82684 C 17.54494,30.169865 16.167242,26.900028 14,27 z"
         transform="matrix(0.98267902,-0.18531583,0.18531583,0.98267902,11.583312,7.8501675)"
         id="path2893" />
      <path
         id="path2895"
         transform="matrix(0.98267902,-0.18531583,0.18531583,0.98267902,11.583312,7.8501675)"
         d="M 15.96875,17.875 13.84375,20 c -0.207532,0.258013 -0.372924,0.569115 -0.53125,0.90625 -7.81e-4,0.01021 7.05e-4,0.02105 0,0.03125 -0.08125,1.175503 0.321772,2.268649 1.125,2.71875 1.070971,0.600135 2.421994,-0.163767 3,-1.71875 0.578006,-1.554983 0.164721,-3.306115 -0.90625,-3.90625 -0.185057,-0.1037 -0.366857,-0.13155 -0.5625,-0.15625 z"
         style="fill:url(#linearGradient4225);fill-opacity:1;fill-rule:evenodd;stroke:none" />
      <path
         sodipodi:nodetypes="ccc"
         transform="matrix(0.98267902,-0.18531583,0.18531583,0.98267902,11.583312,7.8501675)"
         id="path2900"
         d="m 16.761904,8.5194805 c 1.070496,-0.6197227 1.540937,-0.3135798 2.7013,-0.034632 -0.212857,0.4257133 -1.701569,0.9096292 -2.7013,0.034632 z"
         style="color:#000000;fill:#666666;stroke:none;stroke-width:1px;marker:none;visibility:visible;display:inline;overflow:visible;enable-background:accumulate" />
      <path
         sodipodi:nodetypes="ccccccccc"
         id="path2902"
         d="m 27.234476,12.867839 -1.353311,-1.780042 -0.982679,0.185316 c -0.441248,0.0091 -0.834061,-0.441163 -1.1742,-1.3909101 0.132827,-0.6193991 1.104867,-1.8156036 2.583611,-1.927759 0.738617,0.3747595 0.985292,0.7733248 1.233903,1.5206205 l -0.411903,0.7825276 1.884621,1.256936 c -0.523223,1.181357 -1.164921,1.128951 -1.780042,1.353311 z"
         style="color:#000000;fill:url(#linearGradient4227);stroke:none;stroke-width:1px;marker:none;visibility:visible;display:inline;overflow:visible;enable-background:accumulate" />
      <path
         sodipodi:nodetypes="ccsssssc"
         style="fill:url(#linearGradient4229);fill-opacity:1;fill-rule:evenodd;stroke:none"
         d="m 15.553166,18.290584 -1.501624,1.363096 c -0.207532,0.258013 -0.320976,0.292058 -0.479302,0.629193 -7.81e-4,0.01021 7.05e-4,0.02105 0,0.03125 -0.08125,1.175503 0.269824,2.303281 1.073052,2.753382 1.070971,0.600135 1.763986,0.07866 2.341992,-1.476325 0.578006,-1.554983 0.441777,-2.544211 -0.629194,-3.144346 -0.185057,-0.1037 -0.609281,-0.13155 -0.804924,-0.15625 z"
         transform="matrix(0.98267902,-0.18531583,0.18531583,0.98267902,11.583312,7.8501675)"
         id="path3332" />
      <path
         id="path3338"
         transform="matrix(0.98267902,-0.18531583,0.18531583,0.98267902,11.583312,7.8501675)"
         d="m 14,28.3125 c -0.620064,-1e-6 -1.168496,0.312933 -1.5625,0.78125 0.04851,1.695538 0.156385,3.142693 0.34375,4.75 0.349212,0.280956 0.759537,0.468749 1.21875,0.46875 0.684371,0 1.25968,-0.388404 1.65625,-0.9375 0.39657,-0.549096 0.625,-1.276358 0.625,-2.0625 1e-6,-0.786142 -0.22843,-1.513404 -0.625,-2.0625 C 15.25968,28.700903 14.684372,28.3125 14,28.3125 z m 0,1 c 0.310221,-1e-6 0.588533,0.177876 0.84375,0.53125 0.255216,0.353375 0.437501,0.877767 0.4375,1.46875 10e-7,0.590983 -0.182284,1.115374 -0.4375,1.46875 C 14.588534,33.134626 14.310219,33.3125 14,33.3125 c -0.310221,10e-7 -0.619783,-0.177876 -0.875,-0.53125 -0.255215,-0.353376 -0.4375,-0.877768 -0.4375,-1.46875 0,-0.590983 0.182284,-1.115374 0.4375,-1.46875 0.255216,-0.353376 0.564781,-0.531251 0.875,-0.53125 z"
         style="font-size:medium;font-style:normal;font-variant:normal;font-weight:normal;font-stretch:normal;text-indent:0;text-align:start;text-decoration:none;line-height:normal;letter-spacing:normal;word-spacing:normal;text-transform:none;direction:ltr;block-progression:tb;writing-mode:lr-tb;text-anchor:start;color:#000000;fill:url(#linearGradient4231);fill-opacity:1;stroke:none;stroke-width:1px;marker:none;visibility:visible;display:inline;overflow:visible;enable-background:accumulate;font-family:Bitstream Vera Sans;-inkscape-font-specification:Bitstream Vera Sans" />
      <path
         id="rect3350"
         transform="matrix(0.98267902,-0.18531583,0.18531583,0.98267902,11.583312,7.8501675)"
         d="m 18.21875,34.34375 c -1.568418,0.555317 -3.481406,0.347266 -5.375,0.03125 0.04844,0.394005 0.130077,0.79032 0.1875,1.21875 1.677611,0.210073 3.432681,0.384888 5.1875,0 l 0,-1.25 z"
         style="fill:url(#linearGradient4233);fill-opacity:1;stroke:none" />
      <path
         sodipodi:nodetypes="csc"
         transform="matrix(0.98267902,-0.18531583,0.18531583,0.98267902,11.583312,7.8501675)"
         id="path3358"
         d="m 13.223815,22.433958 c 0,0 0.832611,18.513341 0.783634,18.317432 -0.04898,-0.195908 -2.399878,-14.056425 -0.783634,-18.317432 z"
         style="color:#000000;fill:#ffffff;fill-opacity:0.4642857;stroke:none;stroke-width:1px;marker:none;visibility:visible;display:inline;overflow:visible;filter:url(#filter4152);enable-background:accumulate" />
      <path
         sodipodi:nodetypes="ccc"
         transform="matrix(0.98267902,-0.18531583,0.18531583,0.98267902,11.487054,7.86832)"
         id="path4158"
         d="m 17.19096,11.218203 -0.685679,6.513954 c 0.610279,-1.830839 1.419926,-5.435229 0.685679,-6.513954 z"
         style="color:#000000;fill:#ffffff;fill-opacity:0.76785715;stroke:none;stroke-width:1px;marker:none;visibility:visible;display:inline;overflow:visible;filter:url(#filter4184);enable-background:accumulate" />
      <path
         sodipodi:nodetypes="ccc"
         transform="matrix(0.98267902,-0.18531583,0.18531583,0.98267902,11.583312,7.8501675)"
         id="path4188"
         d="M 17.827662,7.8387837 C 16.6685,8.2469261 15.952749,8.6550686 16.995051,9.063211 c 0,0 -2.889648,-0.1469313 0.832611,-1.2244273 z"
         style="color:#000000;fill:#ffffff;fill-opacity:0.63839285;stroke:none;stroke-width:1px;marker:none;visibility:visible;display:inline;overflow:visible;filter:url(#filter4198);enable-background:accumulate" />
    </g>
    <g
       transform="matrix(0.65566546,-0.10562044,0.10562044,0.65566546,21.071916,19.70745)"
       id="g3266">
      <path
         style="fill:url(#linearGradient3286);fill-opacity:1;fill-rule:evenodd;stroke:none"
         d="m 42.549307,39.701676 c 0.03677,1.015957 -3.639575,1.973663 -8.211336,2.139117 -4.571758,0.165455 -8.307705,-0.524008 -8.34447,-1.539965 -0.0041,-0.113901 0.153816,-0.620048 0.239114,-0.731476 0.675324,-0.882241 3.913173,-1.260736 7.97222,-1.407641 3.753776,-0.135895 6.670046,-0.106497 7.711849,0.617863 0.227018,0.157828 0.626046,0.740335 0.632623,0.922102 z"
         id="path3268"
         sodipodi:nodetypes="csscscc" />
      <path
         sodipodi:type="arc"
         style="fill:url(#radialGradient3288);fill-opacity:1;fill-rule:evenodd;stroke:none"
         id="path3270"
         sodipodi:cx="54"
         sodipodi:cy="31"
         sodipodi:rx="9"
         sodipodi:ry="2"
         d="m 63,31 c 0,1.104569 -4.029437,2 -9,2 -4.970563,0 -9,-0.895431 -9,-2 0,-1.104569 4.029437,-2 9,-2 4.970563,0 9,0.895431 9,2 z"
         transform="matrix(0.87850974,-0.06351337,0.06351337,0.87850974,-15.213389,15.502443)" />
      <path
         style="color:#000000;fill:url(#linearGradient3290);fill-opacity:1;stroke:none;stroke-width:1px;marker:none;visibility:visible;display:inline;overflow:visible;enable-background:accumulate"
         d="m 31.800368,31.222609 0.95559,8.232811 c 0.205643,0.543256 1.370954,0.594874 1.653904,-0.03676 l 0.03675,-8.122532 -2.646248,-0.07352 z"
         id="path3272"
         sodipodi:nodetypes="ccccc" />
      <path
         sodipodi:nodetypes="cssscc"
         id="path3274"
         d="m 26.40412,13.656064 c -0.08111,0.974429 -0.125,1.971571 -0.125,2.999971 0,8.8366 3.134007,15.999977 7,16.000002 3.865993,2.4e-5 7,-7.163399 7,-15.999999 0,-1.0284 -0.04389,-2.025558 -0.125,-2.999929 -6.058115,-2.393492 -10.222252,-1.079736 -13.75,-4.5e-5 z"
         style="fill:url(#linearGradient3292);fill-rule:evenodd;stroke:none" />
      <path
         style="fill:url(#linearGradient3294);fill-rule:evenodd;stroke:none"
         d="m 26.40412,13.656064 c -0.08111,0.974429 -0.125,1.971571 -0.125,2.999971 0,8.8366 3.134007,15.999977 7,16.000002 3.865993,2.4e-5 7,-7.163399 7,-15.999999 0,-1.0284 -0.04389,-2.025558 -0.125,-2.999929 -4.778536,1.561564 -9.363499,1.574582 -13.75,-4.5e-5 z"
         id="path3276"
         sodipodi:nodetypes="cssscc" />
      <path
         sodipodi:nodetypes="cscc"
         id="path3278"
         d="m 26.911603,22.822841 c 0.911892,6.414212 3.257225,9.833191 6.367517,9.833196 3.048637,-10e-7 5.331371,-4.012412 6.291723,-10.22924 -6.18814,-1.994714 -11.110529,-0.507377 -12.65924,0.396044 z"
         style="fill:url(#linearGradient3296);fill-opacity:1;fill-rule:evenodd;stroke:none" />
      <path
         style="fill:url(#linearGradient3298);fill-opacity:1;fill-rule:evenodd;stroke:none"
         d="m 26.868979,22.823978 c 0.911892,6.414212 3.299849,9.832054 6.410141,9.832059 3.048637,-10e-7 5.417759,-3.972062 6.378111,-10.18889 -2.989535,2.152123 -8.467665,3.298247 -12.788252,0.356831 z"
         id="path3280"
         sodipodi:nodetypes="cscc" />
      <path
         style="color:#000000;fill:#ffffff;stroke:none;stroke-width:1px;marker:none;visibility:visible;display:inline;overflow:visible;filter:url(#filter4712);enable-background:accumulate"
         d="m 26.62287,14.5935 c 0.975832,7.739184 2.4605,13.951863 5,17.000044 0,0 -5,-3 -5,-17.000044 z"
         id="path3282"
         sodipodi:nodetypes="ccc" />
      <path
         style="color:#000000;fill:#ffffff;stroke:none;stroke-width:1px;marker:none;visibility:visible;display:inline;overflow:visible;filter:url(#filter4252);enable-background:accumulate"
         d="m 30.803574,37.788021 c -3.843072,0.735971 -5.746387,1.727172 -2.180704,3.437979 -0.94006,0.0235 -7.620386,-2.869751 2.180704,-3.437979 z"
         id="path3284"
         sodipodi:nodetypes="ccc"
         transform="matrix(0.87850974,-0.06351337,0.06351337,0.87850974,1.7215067,6.9567764)" />
    </g>
  </g>
</svg>
