<?xml version="1.0" encoding="UTF-8" standalone="no"?>
<!-- Created with Inkscape (http://www.inkscape.org/) -->

<svg
   xmlns:dc="http://purl.org/dc/elements/1.1/"
   xmlns:cc="http://creativecommons.org/ns#"
   xmlns:rdf="http://www.w3.org/1999/02/22-rdf-syntax-ns#"
   xmlns:svg="http://www.w3.org/2000/svg"
   xmlns="http://www.w3.org/2000/svg"
   xmlns:xlink="http://www.w3.org/1999/xlink"
   xmlns:sodipodi="http://sodipodi.sourceforge.net/DTD/sodipodi-0.dtd"
   xmlns:inkscape="http://www.inkscape.org/namespaces/inkscape"
   id="svg1"
   sodipodi:version="0.32"
   inkscape:version="0.47 r22583"
   width="48"
   height="48"
   sodipodi:docname="birthday02.svg"
   version="1.1"
   inkscape:export-filename="birthday02.png"
   inkscape:export-xdpi="89.949997"
   inkscape:export-ydpi="89.949997">
  <defs
     id="defs3">
    <linearGradient
       id="linearGradient3770">
      <stop
         style="stop-color:#d1f6f6;stop-opacity:1;"
         offset="0"
         id="stop3772" />
      <stop
         style="stop-color:#2adbdb;stop-opacity:1;"
         offset="1"
         id="stop3774" />
    </linearGradient>
    <linearGradient
       id="linearGradient3764">
      <stop
         style="stop-color:#7ed249;stop-opacity:1;"
         offset="0"
         id="stop3766" />
      <stop
         style="stop-color:#286325;stop-opacity:1;"
         offset="1"
         id="stop3768" />
    </linearGradient>
    <linearGradient
       id="linearGradient3613">
      <stop
         id="stop3615"
         offset="0"
         style="stop-color:#ff5959;stop-opacity:1;" />
      <stop
         id="stop3617"
         offset="1"
         style="stop-color:#d90000;stop-opacity:1;" />
    </linearGradient>
    <radialGradient
       inkscape:collect="always"
       xlink:href="#linearGradient3613"
       id="radialGradient2872"
       cx="7.3137412"
       cy="19.123831"
       fx="7.3137412"
       fy="19.123831"
       r="8.57901"
       gradientTransform="matrix(1.707963,0.92023867,-0.69883148,1.2970384,6.872736,-15.534731)"
       gradientUnits="userSpaceOnUse" />
    <radialGradient
       inkscape:collect="always"
       xlink:href="#linearGradient3764"
       id="radialGradient2990"
       cx="33.554672"
       cy="20.686935"
       fx="33.554672"
       fy="20.686935"
       r="9.3946486"
       gradientTransform="matrix(1.3837665,1.7684399e-7,-2.027633e-7,1.4940067,-13.431825,-10.906426)"
       gradientUnits="userSpaceOnUse" />
    <radialGradient
       inkscape:collect="always"
       xlink:href="#linearGradient3770"
       id="radialGradient3776"
       cx="20.84594"
       cy="8.8179665"
       fx="20.84594"
       fy="8.8179665"
       r="7.8125"
       gradientTransform="matrix(0.76799997,1.408,-1.4416911,0.78637387,17.703103,-29.2853)"
       gradientUnits="userSpaceOnUse" />
    <filter
       inkscape:collect="always"
       id="filter3796"
       x="-0.17480529"
       width="1.3496106"
       y="-0.18776883"
       height="1.3755377">
      <feGaussianBlur
         inkscape:collect="always"
         stdDeviation="0.74235189"
         id="feGaussianBlur3798" />
    </filter>
    <filter
       inkscape:collect="always"
       id="filter3800"
       x="-0.40063442"
       width="1.8012688"
       y="-0.16196768"
       height="1.3239354">
      <feGaussianBlur
         inkscape:collect="always"
         stdDeviation="0.74235189"
         id="feGaussianBlur3802" />
    </filter>
    <filter
       inkscape:collect="always"
       id="filter3804"
       x="-0.2756634"
       width="1.5513268"
       y="-0.19411332"
       height="1.3882266">
      <feGaussianBlur
         inkscape:collect="always"
         stdDeviation="0.74235189"
         id="feGaussianBlur3806" />
    </filter>
    <filter
       inkscape:collect="always"
       id="filter3634"
       x="-0.20602783"
       width="1.4120557"
       y="-0.59935369"
       height="2.1987074">
      <feGaussianBlur
         inkscape:collect="always"
         stdDeviation="1.2140306"
         id="feGaussianBlur3636" />
    </filter>
  </defs>
  <sodipodi:namedview
     id="base"
     pagecolor="#ffffff"
     bordercolor="#666666"
     borderopacity="1.0"
     inkscape:pageopacity="0.0"
     inkscape:pageshadow="2"
     inkscape:zoom="1"
     inkscape:cx="8.2105263"
     inkscape:cy="24"
     inkscape:window-width="1152"
     inkscape:window-height="793"
     inkscape:window-x="484"
     inkscape:window-y="24"
     showgrid="false"
     inkscape:window-maximized="0"
     inkscape:current-layer="svg1">
    <inkscape:grid
       type="xygrid"
       id="grid2861" />
  </sodipodi:namedview>
  <metadata
     id="metadata4">
    <rdf:RDF>
      <cc:Work
         rdf:about="">
        <dc:format>image/svg+xml</dc:format>
        <dc:type
           rdf:resource="http://purl.org/dc/dcmitype/StillImage" />
        <dc:title />
      </cc:Work>
    </rdf:RDF>
  </metadata>
  <path
     sodipodi:type="arc"
     style="fill:#000000;fill-opacity:0.76859502000000002;fill-rule:evenodd;stroke:none;filter:url(#filter3634)"
     id="path3832"
     sodipodi:cx="25.721008"
     sodipodi:cy="43.713165"
     sodipodi:rx="7.0710678"
     sodipodi:ry="2.4306796"
     d="m 32.792076,43.713165 a 7.0710678,2.4306796 0 1 1 -14.142136,0 7.0710678,2.4306796 0 1 1 14.142136,0 z"
     transform="matrix(0.39263249,0,0,0.38220059,13.656672,27.275311)" />
  <path
     style="font-size:medium;font-style:normal;font-variant:normal;font-weight:normal;font-stretch:normal;text-indent:0;text-align:start;text-decoration:none;line-height:normal;letter-spacing:normal;word-spacing:normal;text-transform:none;direction:ltr;block-progression:tb;writing-mode:lr-tb;text-anchor:start;color:#000000;fill:#1a1a1a;fill-opacity:1;stroke:none;stroke-width:1px;marker:none;visibility:visible;display:inline;overflow:visible;enable-background:accumulate;font-family:Bitstream Vera Sans;-inkscape-font-specification:Bitstream Vera Sans"
     d="m 28.53125,34.46875 c -0.975962,3.068303 -1.983941,5.374895 -3.3125,6.875 -1.328559,1.500105 -2.561839,2.42335 -3.224342,4.585526 L 22.5,46 c 0.586477,-1.914057 2.052909,-2.690663 3.40625,-4.21875 1.353341,-1.528087 2.062078,-4.056977 3.088487,-7.283882 L 28.53125,34.46875 z"
     id="path3818"
     sodipodi:nodetypes="csccscc" />
  <path
     style="font-size:medium;font-style:normal;font-variant:normal;font-weight:normal;font-stretch:normal;text-indent:0;text-align:start;text-decoration:none;line-height:normal;letter-spacing:normal;word-spacing:normal;text-transform:none;direction:ltr;block-progression:tb;writing-mode:lr-tb;text-anchor:start;color:#000000;fill:#1a1a1a;fill-opacity:1;stroke:none;stroke-width:1px;marker:none;visibility:visible;display:inline;overflow:visible;enable-background:accumulate;font-family:Bitstream Vera Sans;-inkscape-font-specification:Bitstream Vera Sans"
     d="m 16.75,32.8125 -0.621053,0.198355 c 0.596705,3.485515 1.590555,6.262885 3.433553,8.051645 1.842998,1.78876 4.600338,2.577177 5.275658,4.53125 L 25.3125,45.28125 C 24.513565,42.969493 21.95269,42.087322 20.15625,40.34375 18.35981,38.600178 17.300234,36.026562 16.75,32.8125 z"
     id="path3816"
     sodipodi:nodetypes="ccsccsc" />
  <path
     style="font-size:medium;font-style:normal;font-variant:normal;font-weight:normal;font-stretch:normal;text-indent:0;text-align:start;text-decoration:none;line-height:normal;letter-spacing:normal;word-spacing:normal;text-transform:none;direction:ltr;block-progression:tb;writing-mode:lr-tb;text-anchor:start;color:#000000;fill:#1a1a1a;fill-opacity:1;stroke:none;stroke-width:1px;marker:none;visibility:visible;display:inline;overflow:visible;enable-background:accumulate;font-family:Bitstream Vera Sans;-inkscape-font-specification:Bitstream Vera Sans"
     d="m 23.75,26.1875 -0.621053,0.198355 c -0.602087,3.613235 1.400532,5.596826 1.300024,8.116298 -0.161578,4.050348 -1.589681,7.719401 -1.070418,12.319886 L 23.9375,46.90625 C 23.235032,41.296276 25.147109,38.919537 25.179301,34.563363 25.199396,31.844128 23.220819,29.559846 23.75,26.1875 z"
     id="path3814"
     sodipodi:nodetypes="ccsccsc" />
  <path
     style="fill:url(#radialGradient3776);fill-rule:evenodd;stroke:none;fill-opacity:1"
     d="m 23,1 c -7.014363,0.1154757 -7.65625,3.8994856 -7.65625,10.21875 0,5.704426 2.787981,11.228178 6.5,12.25 0.0027,0.916667 -0.05854,1.833333 -0.875,2.75 1.092289,0.402065 2.272823,0.742357 5,0 -0.763426,-0.888981 -2.047544,-1.673825 -1.25,-2.875 3.540603,-1.296314 6.25,-6.629076 6.25,-12.125 C 30.96875,4.8994856 30.173426,0.8819057 23,1 z"
     id="path2858"
     sodipodi:nodetypes="csccccsc" />
  <path
     sodipodi:nodetypes="csccccsc"
     id="path2866"
     d="m 8,10 c -6.5826081,2.425674 -5.9387064,6.209342 -3.8516034,12.173996 1.8840367,5.384318 6.3399324,9.677297 10.1811324,9.415786 0.305302,0.864336 0.550252,1.749789 0.08236,2.884674 1.163787,0.01875 2.390465,-0.04996 4.719422,-1.651381 -1.014195,-0.586954 -2.485469,-0.903642 -2.1294,-2.300822 2.913779,-2.392948 3.709852,-8.321308 1.894678,-13.508824 C 16.809486,11.048775 14.731881,7.5193206 8,10 z"
     style="fill:url(#radialGradient2872);fill-rule:evenodd;stroke:none;fill-opacity:1" />
  <path
     style="fill:url(#radialGradient2990);fill-rule:evenodd;stroke:none;fill-opacity:1"
     d="m 41,13 c -6.135519,-3.401475 -8.580666,-0.443095 -11.73521,5.032482 -2.84762,4.942826 -3.189292,11.120847 -0.482953,13.859265 -0.455256,0.795631 -0.965915,1.559342 -2.130966,1.946051 0.745746,0.893653 1.598797,1.777827 4.332449,2.495975 -0.217726,-1.151391 -0.938611,-2.472475 0.352073,-3.115152 3.715011,0.644209 8.724763,-2.624057 11.468299,-7.386219 C 45.958237,20.356824 47.274652,16.478611 41,13 z"
     id="path2868"
     sodipodi:nodetypes="csccccsc" />
  <path
     style="color:#000000;fill:#ffffff;stroke:none;stroke-width:1px;stroke-linecap:butt;stroke-linejoin:miter;stroke-miterlimit:4;stroke-opacity:1;stroke-dasharray:none;stroke-dashoffset:0;marker:none;visibility:visible;display:inline;overflow:visible;enable-background:accumulate;filter:url(#filter3800);fill-opacity:0.86222219"
     d="m 8,11 c 0,0 -2.4693379,0.210793 -4,3 -1.4210526,2.589474 1,8 1,8 -0.069955,-3.595336 -0.2107362,-7.185951 3,-11 z"
     id="path3778"
     sodipodi:nodetypes="cscc" />
  <path
     sodipodi:nodetypes="cscc"
     id="path3780"
     d="m 22.168266,1.9395459 c 0,0 -1.398612,-1.11098464 -3.969323,0.7635954 C 15.812319,4.4434838 15.70515,10.79107 15.70515,10.79107 17.169406,7.5066696 17.641235,4.0280331 22.168266,1.9395459 z"
     style="color:#000000;fill:#ffffff;stroke:none;stroke-width:1px;marker:none;visibility:visible;display:inline;overflow:visible;enable-background:accumulate;filter:url(#filter3804);fill-opacity:0.86222219" />
  <path
     style="color:#000000;fill:#ffffff;stroke:none;stroke-width:1px;marker:none;visibility:visible;display:inline;overflow:visible;enable-background:accumulate;filter:url(#filter3796);fill-opacity:0.86222219"
     d="m 38.442302,13.008792 c 0,0 -0.475888,-1.413865 -3.523503,-0.500276 -2.829378,0.848168 -6.668663,9.181105 -6.668663,9.181105 2.472641,-2.611011 5.228352,-8.215711 10.192166,-8.680829 z"
     id="path3782"
     sodipodi:nodetypes="cscc" />
  <path
     style="color:#000000;fill:#1a1a1a;stroke:none;stroke-width:1px;stroke-linecap:butt;stroke-linejoin:miter;stroke-miterlimit:4;stroke-opacity:1;stroke-dasharray:none;stroke-dashoffset:0;marker:none;visibility:visible;display:inline;overflow:visible;enable-background:accumulate"
     d="m 14.357894,32.378948 c 0.985657,0.588738 2.066576,-0.185146 3.157895,-0.547369 0.293359,-0.450931 0.155593,-0.840272 -0.336842,-1.178947 -0.884108,0.488503 -1.69215,1.037858 -3.115789,1.094736 -0.02318,0.316499 -0.01026,0.424474 0.294736,0.63158 z"
     id="path3808"
     sodipodi:nodetypes="ccccc" />
  <path
     sodipodi:nodetypes="ccccc"
     id="path3810"
     d="m 21.599833,24.1918 c 0.721647,0.892948 2.00334,0.540038 3.152607,0.577046 0.431055,-0.321854 0.436245,-0.734817 0.09109,-1.222735 -0.998424,0.153071 -1.946482,0.389521 -3.302151,-0.04882 -0.131072,0.289014 -0.156241,0.394806 0.05845,0.694511 z"
     style="color:#000000;fill:#1a1a1a;stroke:none;stroke-width:1px;marker:none;visibility:visible;display:inline;overflow:visible;enable-background:accumulate" />
  <path
     style="color:#000000;fill:#1a1a1a;stroke:none;stroke-width:1px;marker:none;visibility:visible;display:inline;overflow:visible;enable-background:accumulate"
     d="m 28.190466,32.303895 c 0.19689,1.131091 1.488599,1.445367 2.475116,2.036103 0.533134,-0.07188 0.738315,-0.430297 0.673701,-1.024453 -0.947027,-0.351312 -1.890545,-0.605276 -2.862469,-1.647074 -0.254983,0.188924 -0.328383,0.269161 -0.286352,0.635424 z"
     id="path3812"
     sodipodi:nodetypes="ccccc" />
</svg>
