<?xml version="1.0" encoding="UTF-8" standalone="no"?>
<!-- Created with Inkscape (http://www.inkscape.org/) -->

<svg
   xmlns:dc="http://purl.org/dc/elements/1.1/"
   xmlns:cc="http://creativecommons.org/ns#"
   xmlns:rdf="http://www.w3.org/1999/02/22-rdf-syntax-ns#"
   xmlns:svg="http://www.w3.org/2000/svg"
   xmlns="http://www.w3.org/2000/svg"
   xmlns:xlink="http://www.w3.org/1999/xlink"
   xmlns:sodipodi="http://sodipodi.sourceforge.net/DTD/sodipodi-0.dtd"
   xmlns:inkscape="http://www.inkscape.org/namespaces/inkscape"
   width="48"
   height="48"
   id="svg2"
   version="1.1"
   inkscape:version="0.47 r22583"
   sodipodi:docname="birthday01.svg"
   inkscape:export-filename="birthday01-alt5.png"
   inkscape:export-xdpi="90"
   inkscape:export-ydpi="90">
  <defs
     id="defs4">
    <linearGradient
       id="linearGradient3799">
      <stop
         style="stop-color:#ffad77;stop-opacity:1;"
         offset="0"
         id="stop3801" />
      <stop
         style="stop-color:#ffccaa;stop-opacity:1;"
         offset="1"
         id="stop3803" />
    </linearGradient>
    <linearGradient
       id="linearGradient3791">
      <stop
         style="stop-color:#e6e6e6;stop-opacity:1;"
         offset="0"
         id="stop3793" />
      <stop
         style="stop-color:#d5d5d5;stop-opacity:1;"
         offset="1"
         id="stop3795" />
    </linearGradient>
    <linearGradient
       id="linearGradient3673">
      <stop
         style="stop-color:#ffbf00;stop-opacity:1;"
         offset="0"
         id="stop3675" />
      <stop
         style="stop-color:#ffde00;stop-opacity:1;"
         offset="1"
         id="stop3677" />
    </linearGradient>
    <linearGradient
       id="linearGradient3613">
      <stop
         style="stop-color:#ff5959;stop-opacity:1;"
         offset="0"
         id="stop3615" />
      <stop
         style="stop-color:#d90000;stop-opacity:1;"
         offset="1"
         id="stop3617" />
    </linearGradient>
    <filter
       inkscape:collect="always"
       id="filter3827">
      <feGaussianBlur
         inkscape:collect="always"
         stdDeviation="0.245"
         id="feGaussianBlur3829" />
    </filter>
    <filter
       inkscape:collect="always"
       id="filter3945">
      <feGaussianBlur
         inkscape:collect="always"
         stdDeviation="0.074450526"
         id="feGaussianBlur3947" />
    </filter>
    <filter
       inkscape:collect="always"
       id="filter4055">
      <feGaussianBlur
         inkscape:collect="always"
         stdDeviation="0.18043487"
         id="feGaussianBlur4057" />
    </filter>
    <linearGradient
       id="linearGradient3599-5">
      <stop
         id="stop3601-0"
         offset="0"
         style="stop-color:#642e00;stop-opacity:1;" />
      <stop
         id="stop3603-9"
         offset="1"
         style="stop-color:#664532;stop-opacity:1;" />
    </linearGradient>
    <linearGradient
       inkscape:collect="always"
       xlink:href="#linearGradient3673"
       id="linearGradient3140"
       gradientUnits="userSpaceOnUse"
       gradientTransform="matrix(1.3333333,0,0,1.01287,-8.6666667,-11.054793)"
       x1="23"
       y1="1019.3961"
       x2="26"
       y2="1019.3961" />
    <linearGradient
       inkscape:collect="always"
       xlink:href="#linearGradient3791"
       id="linearGradient3178"
       gradientUnits="userSpaceOnUse"
       x1="6"
       y1="1040.3622"
       x2="48"
       y2="1042.3622" />
    <radialGradient
       inkscape:collect="always"
       xlink:href="#linearGradient3599-5"
       id="radialGradient3182"
       gradientUnits="userSpaceOnUse"
       gradientTransform="matrix(1.0445333,0.38299248,-0.1555174,0.42414145,2.1262567,4.5390514)"
       cx="19.813728"
       cy="18.170418"
       fx="19.813728"
       fy="18.170418"
       r="14" />
    <linearGradient
       inkscape:collect="always"
       xlink:href="#linearGradient3799"
       id="linearGradient3249"
       gradientUnits="userSpaceOnUse"
       gradientTransform="translate(0,-1000.2335)"
       x1="22.981474"
       y1="2030.5995"
       x2="23.319437"
       y2="2034.8845" />
    <linearGradient
       inkscape:collect="always"
       xlink:href="#linearGradient3799"
       id="linearGradient3251"
       gradientUnits="userSpaceOnUse"
       gradientTransform="translate(0,-1000.2335)"
       x1="25"
       y1="2041.1532"
       x2="25"
       y2="2043.1039" />
    <linearGradient
       inkscape:collect="always"
       xlink:href="#linearGradient3599-5"
       id="linearGradient3253"
       gradientUnits="userSpaceOnUse"
       x1="23.947081"
       y1="31.488102"
       x2="24.875"
       y2="35.86961" />
    <linearGradient
       inkscape:collect="always"
       xlink:href="#linearGradient3599-5"
       id="linearGradient3257"
       x1="21.434174"
       y1="24.444506"
       x2="22.318058"
       y2="31.648155"
       gradientUnits="userSpaceOnUse" />
    <filter
       inkscape:collect="always"
       id="filter4391"
       x="-0.18537629"
       width="1.3707526"
       y="-0.17213865"
       height="1.3442773">
      <feGaussianBlur
         inkscape:collect="always"
         stdDeviation="0.57320351"
         id="feGaussianBlur4393" />
    </filter>
    <filter
       inkscape:collect="always"
       id="filter4471"
       x="-0.65297362"
       width="2.3059472"
       y="-0.35800451"
       height="1.716009">
      <feGaussianBlur
         inkscape:collect="always"
         stdDeviation="0.20436622"
         id="feGaussianBlur4473" />
    </filter>
    <filter
       inkscape:collect="always"
       id="filter4475"
       x="-0.46724282"
       width="1.9344856"
       y="-0.25797926"
       height="1.5159585">
      <feGaussianBlur
         inkscape:collect="always"
         stdDeviation="0.20436622"
         id="feGaussianBlur4477" />
    </filter>
    <filter
       inkscape:collect="always"
       id="filter4479"
       x="-0.15169512"
       width="1.3033902"
       y="-0.37243783"
       height="1.7448757">
      <feGaussianBlur
         inkscape:collect="always"
         stdDeviation="0.20436622"
         id="feGaussianBlur4481" />
    </filter>
    <filter
       inkscape:collect="always"
       id="filter4483"
       x="-0.13822626"
       width="1.2764525"
       y="-0.32320137"
       height="1.6464027">
      <feGaussianBlur
         inkscape:collect="always"
         stdDeviation="0.20436622"
         id="feGaussianBlur4485" />
    </filter>
    <filter
       inkscape:collect="always"
       id="filter4487"
       x="-0.2901132"
       width="1.5802264"
       y="-0.34013483"
       height="1.6802697">
      <feGaussianBlur
         inkscape:collect="always"
         stdDeviation="0.20436622"
         id="feGaussianBlur4489" />
    </filter>
    <filter
       inkscape:collect="always"
       id="filter4507"
       x="-0.14008511"
       width="1.2801702"
       y="-0.12735398"
       height="1.254708">
      <feGaussianBlur
         inkscape:collect="always"
         stdDeviation="0.31659138"
         id="feGaussianBlur4509" />
    </filter>
    <filter
       inkscape:collect="always"
       id="filter4511"
       x="-0.35261927"
       width="1.7052385"
       y="-0.15081029"
       height="1.3016206">
      <feGaussianBlur
         inkscape:collect="always"
         stdDeviation="0.31659138"
         id="feGaussianBlur4513" />
    </filter>
    <radialGradient
       inkscape:collect="always"
       xlink:href="#linearGradient3613"
       id="radialGradient4519"
       cx="5.2349505"
       cy="23.220398"
       fx="5.2349505"
       fy="23.220398"
       r="2.5347214"
       gradientUnits="userSpaceOnUse"
       gradientTransform="matrix(0.91471389,1.3809524,-0.83369666,0.55222267,20.532917,3.3203344)" />
    <radialGradient
       inkscape:collect="always"
       xlink:href="#linearGradient3613"
       id="radialGradient4523"
       gradientUnits="userSpaceOnUse"
       gradientTransform="matrix(0.91471389,1.3809524,-0.83369666,0.55222267,20.532917,3.3203344)"
       cx="5.2349505"
       cy="23.220398"
       fx="5.2349505"
       fy="23.220398"
       r="2.5347214" />
    <radialGradient
       inkscape:collect="always"
       xlink:href="#linearGradient3613"
       id="radialGradient4527"
       gradientUnits="userSpaceOnUse"
       gradientTransform="matrix(0.91471389,1.3809524,-0.83369666,0.55222267,20.532917,3.3203344)"
       cx="5.2349505"
       cy="23.220398"
       fx="5.2349505"
       fy="23.220398"
       r="2.5347214" />
    <filter
       inkscape:collect="always"
       id="filter3668"
       x="-0.02042812"
       width="1.0408562"
       y="-0.10373932"
       height="1.2074786">
      <feGaussianBlur
         inkscape:collect="always"
         stdDeviation="0.35191804"
         id="feGaussianBlur3670" />
    </filter>
    <linearGradient
       y2="23"
       x2="36"
       y1="13"
       x1="27"
       gradientTransform="translate(-5.494737,-43.663158)"
       gradientUnits="userSpaceOnUse"
       id="linearGradient4755-7"
       xlink:href="#linearGradient3669-5"
       inkscape:collect="always" />
    <linearGradient
       id="linearGradient3669-5">
      <stop
         style="stop-color:#ffd73b;stop-opacity:1;"
         offset="0"
         id="stop3671-2" />
      <stop
         style="stop-color:#ee8400;stop-opacity:1;"
         offset="1"
         id="stop3673-4" />
    </linearGradient>
    <linearGradient
       y2="15"
       x2="28"
       y1="10"
       x1="23"
       gradientTransform="translate(-4.494737,-43.663158)"
       gradientUnits="userSpaceOnUse"
       id="linearGradient4757-5"
       xlink:href="#linearGradient3669-5"
       inkscape:collect="always" />
    <filter
       color-interpolation-filters="sRGB"
       height="1.1150671"
       y="-0.057533532"
       width="1.3979118"
       x="-0.19895591"
       id="filter3855-0"
       inkscape:collect="always">
      <feGaussianBlur
         id="feGaussianBlur3857-5"
         stdDeviation="0.18128627"
         inkscape:collect="always" />
    </filter>
    <filter
       inkscape:collect="always"
       id="filter4166"
       x="-0.26390923"
       width="1.5278185"
       y="-0.22795041"
       height="1.4559008">
      <feGaussianBlur
         inkscape:collect="always"
         stdDeviation="0.27927162"
         id="feGaussianBlur4168" />
    </filter>
    <filter
       inkscape:collect="always"
       id="filter4190"
       x="-0.88771435"
       width="2.7754287"
       y="-0.053848901"
       height="1.1076978">
      <feGaussianBlur
         inkscape:collect="always"
         stdDeviation="0.17007329"
         id="feGaussianBlur4192" />
    </filter>
  </defs>
  <sodipodi:namedview
     id="base"
     pagecolor="#ffffff"
     bordercolor="#666666"
     borderopacity="1.0"
     inkscape:pageopacity="0.0"
     inkscape:pageshadow="2"
     inkscape:zoom="1"
     inkscape:cx="24"
     inkscape:cy="24"
     inkscape:document-units="px"
     inkscape:current-layer="layer1"
     showgrid="false"
     inkscape:window-width="1206"
     inkscape:window-height="926"
     inkscape:window-x="466"
     inkscape:window-y="24"
     inkscape:window-maximized="0">
    <inkscape:grid
       type="xygrid"
       id="grid2816"
       empspacing="5"
       visible="true"
       enabled="true"
       snapvisiblegridlinesonly="true" />
  </sodipodi:namedview>
  <metadata
     id="metadata7">
    <rdf:RDF>
      <cc:Work
         rdf:about="">
        <dc:format>image/svg+xml</dc:format>
        <dc:type
           rdf:resource="http://purl.org/dc/dcmitype/StillImage" />
        <dc:title />
      </cc:Work>
    </rdf:RDF>
  </metadata>
  <g
     inkscape:label="Layer 1"
     inkscape:groupmode="layer"
     id="layer1"
     transform="translate(0,-1004.3622)">
    <path
       sodipodi:type="arc"
       style="fill:#000000;fill-opacity:0.76862746000000004;fill-rule:evenodd;stroke:none;filter:url(#filter3668)"
       id="path3752"
       sodipodi:cx="24.778761"
       sodipodi:cy="40.460178"
       sodipodi:rx="20.672565"
       sodipodi:ry="4.0707965"
       d="m 45.451326,40.460178 c 0,2.248239 -9.255422,4.070797 -20.672565,4.070797 -11.417143,0 -20.6725656,-1.822558 -20.6725656,-4.070797 0,-2.248238 9.2554226,-4.070796 20.6725656,-4.070796 11.417143,0 20.672565,1.822558 20.672565,4.070796 z"
       transform="matrix(0.859628,0,0,1.0131754,3.1432952,1003.6746)" />
    <path
       style="color:#000000;fill:#999999;stroke:none;stroke-width:1px;marker:none;visibility:visible;display:inline;overflow:visible;enable-background:accumulate"
       d="m 4,1041.4909 4,3.8713 c 8.884956,3.77 22.858407,4.5576 33,0 l 4,-3.8713 -41,0 z"
       id="path3750"
       sodipodi:nodetypes="ccccc" />
    <path
       style="fill:url(#linearGradient3178);fill-opacity:1;fill-rule:evenodd;stroke:none"
       d="m 47.401887,1039.0674 c 0,3.4659 -10.512353,7.5302 -22.727383,7.5302 -12.215031,0 -22.7491901,-4.0643 -22.7491901,-7.5302 0,-3.4655 9.9022381,-6.275 22.1172681,-6.275 12.215028,0 23.359305,2.8095 23.359305,6.275 z"
       id="path3594"
       sodipodi:nodetypes="csssc" />
    <path
       id="path3821"
       d="m 9,1035.8449 -4,3 4,1 0,4 5,-1 2,2 4,-1 2,2 3,-2 5,2 1,-2 5,1 0,-3 6,1 c 0,0 -1,-4 -1,-4 l 3,0 -5,-3 -26,1 -4,-1 z"
       style="color:#000000;fill:#000000;fill-opacity:0.29910715;stroke:none;stroke-width:1px;marker:none;visibility:visible;display:inline;overflow:visible;filter:url(#filter3827);enable-background:accumulate" />
    <path
       style="color:#000000;fill:#ffffff;stroke:none;stroke-width:1px;marker:none;visibility:visible;display:inline;overflow:visible;enable-background:accumulate"
       d="m 9,1035.4909 -4,3 4,1 0,4 5,-1 2,2 4,-1 2,2 3,-2 5,2 1,-2 5,1 0,-3 6,1 c 0,0 -1,-4 -1,-4 l 3,0 -5,-3 -27.024182,-0.5704 L 9,1035.4909 z"
       id="path3748"
       sodipodi:nodetypes="ccccccccccccccccccc" />
    <path
       style="color:#000000;fill:url(#linearGradient3249);fill-opacity:1;stroke:none;stroke-width:1px;marker:none;visibility:visible;display:inline;overflow:visible;enable-background:accumulate"
       d="m 38,1026.081 -27,1 c -0.282055,1.4418 -0.359695,2.8427 0,4.1562 5.163812,4.209 18.166286,4.9268 27.375,-0.125 0.249268,-1.6771 -0.141346,-3.3541 -0.375,-5.0312 z"
       id="path3247"
       sodipodi:nodetypes="ccccc" />
    <path
       style="color:#000000;fill:url(#linearGradient3251);fill-opacity:1;stroke:none;stroke-width:1px;marker:none;visibility:visible;display:inline;overflow:visible;enable-background:accumulate"
       d="m 10.8125,1039.3935 c 6.24926,4.4125 18.33999,5.342 28.1875,-0.3125 0.141076,-1.2805 0.115996,-2.9738 -0.375,-3.875 -6.883104,6.2117 -19.341085,5.5385 -27.40625,0.9375 -0.769582,0.9081 -0.79153,2.5484 -0.40625,3.25 z"
       id="path3592"
       sodipodi:nodetypes="ccccc" />
    <path
       style="color:#000000;fill:url(#linearGradient3257);stroke:none;stroke-width:1px;stroke-linecap:butt;stroke-linejoin:miter;stroke-miterlimit:4;stroke-opacity:1;stroke-dasharray:none;stroke-dashoffset:0;marker:none;visibility:visible;display:inline;overflow:visible;enable-background:accumulate;fill-opacity:1"
       d="m 11.490486,21.041554 c 0,0 -1.060661,1.723572 -0.883885,3.005204 0.176777,1.281631 1.060661,1.414213 1.414214,1.414213 0.353554,0 0.972272,-0.486136 1.590991,1.281631 0.618718,1.767767 1.193242,2.386486 1.679378,1.458408 0.486136,-0.928078 2.695845,-2.12132 4.02167,-0.707107 1.325825,1.414214 2.872621,2.298097 3.712311,1.414214 0.839689,-0.883884 1.486009,-2.506007 3.977476,-0.928078 2.65165,1.679379 3.049397,0.883884 4.375222,-0.53033 1.325826,-1.414213 2.121321,-2.165514 4.154253,-2.032932 2.032932,0.132583 3.314563,-0.08839 3.093592,-1.104854 -0.220971,-1.016466 0.220971,-1.767767 -0.883883,-2.916816 C 36.63697,20.246059 12.683728,20.201865 11.490486,21.041554 z"
       id="path3255"
       transform="translate(0,1004.3622)"
       sodipodi:nodetypes="csssssssssssc" />
    <path
       sodipodi:type="arc"
       style="fill:url(#radialGradient3182);fill-opacity:1;fill-rule:evenodd;stroke:none"
       id="path2818"
       sodipodi:cx="25.5"
       sodipodi:cy="20"
       sodipodi:rx="13.5"
       sodipodi:ry="5"
       d="m 39,20 c 0,2.761424 -6.044156,5 -13.5,5 C 18.044156,25 12,22.761424 12,20 c 0,-2.761424 6.044156,-5 13.5,-5 7.455844,0 13.5,2.238576 13.5,5 z"
       transform="matrix(0.99955923,-0.02968741,0.02968741,0.99955923,-1.5765582,1007.2589)" />
    <path
       sodipodi:nodetypes="ccccc"
       id="path3931"
       d="m 22.353982,1026.8449 0,-10.1287 c 1.068709,-0.3367 1.017215,-0.5721 4,0 l 0,10.1287 c -1.729057,0.222 -2.044276,0.8111 -4,0 z"
       style="color:#000000;fill:#000000;fill-opacity:0.4419643;stroke:none;stroke-width:1px;marker:none;visibility:visible;display:inline;overflow:visible;filter:url(#filter3945);enable-background:accumulate" />
    <path
       style="color:#000000;fill:url(#linearGradient3140);fill-opacity:1;stroke:none;stroke-width:1px;marker:none;visibility:visible;display:inline;overflow:visible;enable-background:accumulate"
       d="m 22,1026.4909 0,-10.1287 c 1.068709,-0.3367 1.017215,-0.5721 4,0 l 0,10.1287 c -1.729057,0.222 -2.044276,0.8111 -4,0 z"
       id="path3659"
       sodipodi:nodetypes="ccccc" />
    <path
       sodipodi:nodetypes="csssccsc"
       id="path3953"
       d="m 22.283186,1024.9865 c 0.637583,-0.9564 -2.185532,-2.2217 -3,1 -0.490192,1.939 0,0 1,2 1,2 1.763932,2 4,2 2,0 5,-1 5,-2 1.118705,-2.0432 -1.654355,-4.4017 -3,-3 0,2 -1,3 -2,2 -1,-1 -0.940256,-2.0455 -2,-2 z"
       style="color:#000000;fill:#000000;fill-opacity:0.45535715;stroke:none;stroke-width:1px;marker:none;visibility:visible;display:inline;overflow:visible;filter:url(#filter4055);enable-background:accumulate" />
    <path
       style="color:#000000;fill:#ffffff;stroke:none;stroke-width:1px;marker:none;visibility:visible;display:inline;overflow:visible;enable-background:accumulate"
       d="m 22,1024.4909 c 0.637583,-0.9564 -2.185532,-2.2217 -3,1 -0.490192,1.939 0,0 1,2 1,2 1.763932,2 4,2 2,0 5,-1 5,-2 1.118705,-2.0432 -1.654355,-4.4017 -3,-3 0,2 -1,3 -2,2 -1,-1 -0.940256,-2.0455 -2,-2 z"
       id="path3663"
       sodipodi:nodetypes="csssccsc" />
    <path
       style="color:#000000;fill:url(#linearGradient3253);stroke:none;stroke-width:1px;stroke-linecap:butt;stroke-linejoin:miter;stroke-miterlimit:4;stroke-opacity:1;stroke-dasharray:none;stroke-dashoffset:0;marker:none;visibility:visible;display:inline;overflow:visible;enable-background:accumulate;fill-opacity:1"
       d="M 38.375,26.75 C 29.166286,31.80177 16.163812,31.084024 11,26.875 c -0.500096,1.737831 -0.219645,3.230754 0.03125,5.09375 8.065165,4.601063 20.898146,5.086774 27.78125,-1.125 C 39.449986,29.238023 38.69417,28.236146 38.375,26.75 z"
       id="path3184"
       transform="translate(0,1004.3622)"
       sodipodi:nodetypes="ccccc" />
    <path
       style="color:#000000;fill:#ffffff;stroke:none;stroke-width:1px;marker:none;visibility:visible;display:inline;overflow:visible;enable-background:accumulate;filter:url(#filter4507);fill-opacity:0.625"
       d="m 11.269514,1032.519 c -0.32462,1.3646 -0.307192,2.6864 0.309359,3.9333 l 4.905553,2.0329 c -1.986944,-1.8022 -4.534237,-3.1842 -5.214912,-5.9662 z"
       id="path4409"
       sodipodi:nodetypes="cccc" />
    <path
       style="color:#000000;fill:#ffffff;fill-opacity:0.45535715;stroke:none;stroke-width:1px;marker:none;visibility:visible;display:inline;overflow:visible;filter:url(#filter4391);enable-background:accumulate"
       d="m 19.312854,1022.3102 c -5.502046,1.1677 -8.693118,5.6306 -2.12132,7.9549 -4.368897,0.5924 -10.266689,-6.1381 2.12132,-7.9549 z"
       id="path3593"
       sodipodi:nodetypes="ccc" />
    <path
       sodipodi:nodetypes="ccc"
       id="path4395"
       d="m 34.869203,1022.3102 c -5.502046,1.1677 -8.693118,5.6306 -2.12132,7.9549 -4.368897,0.5924 -10.266689,-6.1381 2.12132,-7.9549 z"
       style="color:#000000;fill:#ffffff;fill-opacity:0.45535715;stroke:none;stroke-width:1px;marker:none;visibility:visible;display:inline;overflow:visible;filter:url(#filter4391);enable-background:accumulate"
       transform="matrix(-0.99983086,-0.01839179,0.01839179,-0.99983086,44.89488,2053.1884)" />
    <path
       style="color:#000000;fill:#ffffff;stroke:none;stroke-width:1px;stroke-linecap:butt;stroke-linejoin:miter;stroke-miterlimit:4;stroke-opacity:1;stroke-dasharray:none;stroke-dashoffset:0;marker:none;visibility:visible;display:inline;overflow:visible;enable-background:accumulate;filter:url(#filter4471);fill-opacity:0.51785713"
       d="m 10.871767,23.781593 c -0.08572,0.456673 -0.131158,0.913346 0.707107,1.370019 -0.0041,8.18e-4 -0.06249,-0.02286 -0.707107,-1.370019 z"
       id="path4397"
       transform="translate(0,1004.3622)"
       sodipodi:nodetypes="ccc" />
    <path
       style="color:#000000;fill:#ffffff;stroke:none;stroke-width:1px;stroke-linecap:butt;stroke-linejoin:miter;stroke-miterlimit:4;stroke-opacity:1;stroke-dasharray:none;stroke-dashoffset:0;marker:none;visibility:visible;display:inline;overflow:visible;enable-background:accumulate;filter:url(#filter4475);fill-opacity:0.51785713"
       d="m 13.832776,26.433243 c 0,0 0.397748,2.386486 0.928078,1.811961 0.53033,-0.574524 -0.839689,-0.839689 -0.928078,-1.811961 z"
       id="path4399"
       transform="translate(0,1004.3622)" />
    <path
       style="color:#000000;fill:#ffffff;stroke:none;stroke-width:1px;stroke-linecap:butt;stroke-linejoin:miter;stroke-miterlimit:4;stroke-opacity:1;stroke-dasharray:none;stroke-dashoffset:0;marker:none;visibility:visible;display:inline;overflow:visible;enable-background:accumulate;filter:url(#filter4479);fill-opacity:0.51785713"
       d="m 20.108349,27.67068 c 0.962699,0.806157 2.027865,0.946282 3.226175,0.220971 0.1514,0.857931 -2.141605,2.065297 -3.226175,-0.220971 z"
       id="path4401"
       transform="translate(0,1004.3622)"
       sodipodi:nodetypes="ccc" />
    <path
       style="color:#000000;fill:#ffffff;stroke:none;stroke-width:1px;stroke-linecap:butt;stroke-linejoin:miter;stroke-miterlimit:4;stroke-opacity:1;stroke-dasharray:none;stroke-dashoffset:0;marker:none;visibility:visible;display:inline;overflow:visible;enable-background:accumulate;filter:url(#filter4483);fill-opacity:0.51785713"
       d="m 27.179417,27.626486 c 1.139142,0.07256 2.078727,1.408988 3.535534,-0.530331 0.125902,0.503606 -0.646414,2.806034 -3.535534,0.530331 z"
       id="path4403"
       transform="translate(0,1004.3622)"
       sodipodi:nodetypes="ccc" />
    <path
       style="color:#000000;fill:#ffffff;stroke:none;stroke-width:1px;stroke-linecap:butt;stroke-linejoin:miter;stroke-miterlimit:4;stroke-opacity:1;stroke-dasharray:none;stroke-dashoffset:0;marker:none;visibility:visible;display:inline;overflow:visible;enable-background:accumulate;filter:url(#filter4487);fill-opacity:0.51785713"
       d="m 38.22796,23.604816 c -0.223162,1.289789 -0.961453,1.03419 -1.502601,1.370019 0.05512,0.01378 2.351324,0.52154 1.502601,-1.370019 z"
       id="path4405"
       transform="translate(0,1004.3622)"
       sodipodi:nodetypes="ccc" />
    <path
       style="color:#000000;fill:#ffffff;fill-opacity:0.625;stroke:none;stroke-width:1px;marker:none;visibility:visible;display:inline;overflow:visible;filter:url(#filter4511);enable-background:accumulate"
       d="m 38.298043,1031.5954 c 0.315781,0.6947 -0.787841,3.6496 -1.856155,5.0381 0.617263,-0.59 2.058708,-1.329 2.12132,-1.6352 0.137634,-0.673 -0.188814,-3.423 -0.265165,-3.4029 z"
       id="path4407"
       sodipodi:nodetypes="ccsc" />
    <path
       sodipodi:type="arc"
       style="fill:url(#radialGradient4519);fill-opacity:1;fill-rule:evenodd;stroke:none"
       id="path4515"
       sodipodi:cx="5.9626303"
       sodipodi:cy="24.511583"
       sodipodi:rx="2.5347214"
       sodipodi:ry="2.5347214"
       d="m 8.4973516,24.511583 c 0,1.399888 -1.1348334,2.534722 -2.5347213,2.534722 -1.399888,0 -2.5347214,-1.134834 -2.5347214,-2.534722 0,-1.399888 1.1348334,-2.534721 2.5347214,-2.534721 1.3998879,0 2.5347213,1.134833 2.5347213,2.534721 z"
       transform="matrix(0.74983846,0,0,0.74983846,8.3433396,1018.6897)" />
    <path
       style="color:#000000;fill:#ffffff;fill-opacity:0.69008268;stroke:none;stroke-width:1px;marker:none;visibility:visible;display:inline;overflow:visible;filter:url(#filter4166);enable-background:accumulate"
       d="m 11.394176,1038.3126 c -0.192906,-1.4945 0.984049,-2.1571 2.269179,-2.7037 -1.20701,-0.8176 -3.283068,0.5805 -2.269179,2.7037 z"
       id="path4148"
       sodipodi:nodetypes="ccc" />
    <path
       transform="matrix(0.78682477,0,0,0.78682477,5.7803467,1018.8823)"
       d="m 8.4973516,24.511583 c 0,1.399888 -1.1348334,2.534722 -2.5347213,2.534722 -1.399888,0 -2.5347214,-1.134834 -2.5347214,-2.534722 0,-1.399888 1.1348334,-2.534721 2.5347214,-2.534721 1.3998879,0 2.5347213,1.134833 2.5347213,2.534721 z"
       sodipodi:ry="2.5347214"
       sodipodi:rx="2.5347214"
       sodipodi:cy="24.511583"
       sodipodi:cx="5.9626303"
       id="path4521"
       style="fill:url(#radialGradient4523);fill-opacity:1;fill-rule:evenodd;stroke:none"
       sodipodi:type="arc" />
    <path
       sodipodi:type="arc"
       style="fill:url(#radialGradient4527);fill-opacity:1;fill-rule:evenodd;stroke:none"
       id="path4525"
       sodipodi:cx="5.9626303"
       sodipodi:cy="24.511583"
       sodipodi:rx="2.5347214"
       sodipodi:ry="2.5347214"
       d="m 8.4973516,24.511583 c 0,1.399888 -1.1348334,2.534722 -2.5347213,2.534722 -1.399888,0 -2.5347214,-1.134834 -2.5347214,-2.534722 0,-1.399888 1.1348334,-2.534721 2.5347214,-2.534721 1.3998879,0 2.5347213,1.134833 2.5347213,2.534721 z"
       transform="matrix(0.83613986,0,0,0.83613986,8.2882085,1019.4075)" />
    <g
       transform="matrix(0.88027969,0,0,0.88027969,3.9036351,1040.7277)"
       id="g4739">
      <path
         sodipodi:nodetypes="cssc"
         id="path4741"
         d="m 22.505263,-37.663158 c 0,0 -3,5 -3,7 0,2 3.971008,4.714986 5,3 3,-5 -2.265099,-7.267785 -2,-10 z"
         style="color:#000000;fill:url(#linearGradient4755-7);stroke:none;stroke-width:1px;marker:none;visibility:visible;display:inline;overflow:visible;enable-background:accumulate" />
      <path
         style="color:#000000;fill:url(#linearGradient4757-5);stroke:none;stroke-width:1px;marker:none;visibility:visible;display:inline;overflow:visible;enable-background:accumulate"
         d="m 22.505263,-34.663158 c 0,0 -1.854682,3.091138 -1.854682,4.327593 0,1.236455 2.454987,2.914934 3.091137,1.854683 1.854683,-3.091138 -1.400346,-4.493145 -1.236455,-6.182276 z"
         id="path4743"
         sodipodi:nodetypes="cssc" />
      <path
         sodipodi:nodetypes="ccc"
         id="path4745"
         d="m 22.122251,-36.154325 c -0.83168,3.141425 -2.587492,6.017267 -0.535913,7.562321 -1.584612,-0.924357 -2.962499,-0.715846 0.535913,-7.562321 z"
         style="color:#000000;fill:#ffffff;stroke:none;stroke-width:1px;marker:none;visibility:visible;display:inline;overflow:visible;filter:url(#filter3855-0);enable-background:accumulate" />
    </g>
    <path
       sodipodi:nodetypes="ccc"
       id="path4170"
       d="m 8.9801555,1039.2782 c -0.1929055,-1.4945 0.9840489,-2.1571 2.2691795,-2.7037 -1.20701,-0.8176 -3.283068,0.5805 -2.2691795,2.7037 z"
       style="color:#000000;fill:#ffffff;fill-opacity:0.69008268;stroke:none;stroke-width:1px;marker:none;visibility:visible;display:inline;overflow:visible;filter:url(#filter4166);enable-background:accumulate" />
    <path
       sodipodi:nodetypes="ccc"
       id="path4172"
       d="m 11.732139,1041.1128 c -0.192906,-1.4945 0.984049,-2.157 2.269179,-2.7037 -1.20701,-0.8176 -3.283068,0.5805 -2.269179,2.7037 z"
       style="color:#000000;fill:#ffffff;fill-opacity:0.69008268;stroke:none;stroke-width:1px;marker:none;visibility:visible;display:inline;overflow:visible;filter:url(#filter4166);enable-background:accumulate" />
    <path
       style="color:#000000;fill:#ffffff;stroke:none;stroke-width:1px;stroke-linecap:butt;stroke-linejoin:miter;stroke-miterlimit:4;stroke-opacity:1;stroke-dasharray:none;stroke-dashoffset:0;marker:none;visibility:visible;display:inline;overflow:visible;enable-background:accumulate;filter:url(#filter4190);fill-opacity:0.85537189"
       d="m 22.353828,12.417341 -0.04828,7.580023 c 0.525477,-0.262738 0.676087,-5.89029 0.04828,-7.580023 z"
       id="path4176"
       transform="translate(0,1004.3622)"
       sodipodi:nodetypes="ccc" />
  </g>
</svg>
