<?xml version="1.0" encoding="UTF-8" standalone="no"?>
<!-- Created with Inkscape (http://www.inkscape.org/) -->

<svg
   xmlns:dc="http://purl.org/dc/elements/1.1/"
   xmlns:cc="http://creativecommons.org/ns#"
   xmlns:rdf="http://www.w3.org/1999/02/22-rdf-syntax-ns#"
   xmlns:svg="http://www.w3.org/2000/svg"
   xmlns="http://www.w3.org/2000/svg"
   xmlns:xlink="http://www.w3.org/1999/xlink"
   xmlns:sodipodi="http://sodipodi.sourceforge.net/DTD/sodipodi-0.dtd"
   xmlns:inkscape="http://www.inkscape.org/namespaces/inkscape"
   width="48"
   height="48"
   id="svg2"
   version="1.1"
   inkscape:version="0.47 r22583"
   sodipodi:docname="chinese-new-year02.svg"
   inkscape:export-filename="chinese-new-year02.png"
   inkscape:export-xdpi="89.949997"
   inkscape:export-ydpi="89.949997">
  <defs
     id="defs4">
    <linearGradient
       id="linearGradient3669-4">
      <stop
         style="stop-color:#ffd73b;stop-opacity:1;"
         offset="0"
         id="stop3671-3" />
      <stop
         style="stop-color:#ee8400;stop-opacity:1;"
         offset="1"
         id="stop3673-7" />
    </linearGradient>
    <linearGradient
       id="linearGradient3801">
      <stop
         style="stop-color:#a20000;stop-opacity:1;"
         offset="0"
         id="stop3803" />
      <stop
         style="stop-color:#d40000;stop-opacity:1;"
         offset="1"
         id="stop3805" />
    </linearGradient>
    <linearGradient
       id="linearGradient3689">
      <stop
         id="stop3691"
         offset="0"
         style="stop-color:#ffea00;stop-opacity:1;" />
      <stop
         id="stop3693"
         offset="1"
         style="stop-color:#ffffa4;stop-opacity:1;" />
    </linearGradient>
    <linearGradient
       id="linearGradient3651">
      <stop
         id="stop3653"
         offset="0"
         style="stop-color:#555555;stop-opacity:1;" />
      <stop
         id="stop3655"
         offset="1"
         style="stop-color:#000000;stop-opacity:1;" />
    </linearGradient>
    <linearGradient
       inkscape:collect="always"
       xlink:href="#linearGradient3801"
       id="linearGradient3853"
       gradientUnits="userSpaceOnUse"
       gradientTransform="translate(-25.06585,-4.6309342)"
       x1="40.686062"
       y1="1026.3407"
       x2="31.313936"
       y2="1023.8416" />
    <linearGradient
       inkscape:collect="always"
       xlink:href="#linearGradient3801"
       id="linearGradient3855"
       gradientUnits="userSpaceOnUse"
       gradientTransform="translate(-25.06585,-4.6309342)"
       x1="29.917305"
       y1="1035.7818"
       x2="41.16386"
       y2="1035.6716" />
    <linearGradient
       inkscape:collect="always"
       xlink:href="#linearGradient3689"
       id="linearGradient3857"
       gradientUnits="userSpaceOnUse"
       gradientTransform="translate(-25.06585,-4.6309342)"
       x1="32.931087"
       y1="1030.1118"
       x2="42.707503"
       y2="1030.0016" />
    <linearGradient
       inkscape:collect="always"
       xlink:href="#linearGradient3689"
       id="linearGradient3859"
       gradientUnits="userSpaceOnUse"
       gradientTransform="translate(-25.06585,1.3966309)"
       x1="31.534456"
       y1="1041.0712"
       x2="40.722816"
       y2="1041.1447" />
    <linearGradient
       inkscape:collect="always"
       xlink:href="#linearGradient3801"
       id="linearGradient3861"
       gradientUnits="userSpaceOnUse"
       gradientTransform="translate(-19.387503,16.060962)"
       x1="761.68561"
       y1="706.03314"
       x2="755.89435"
       y2="707.28058" />
    <linearGradient
       inkscape:collect="always"
       xlink:href="#linearGradient3689"
       id="linearGradient3863"
       gradientUnits="userSpaceOnUse"
       x1="9.0910749"
       y1="1031.9427"
       x2="13.460156"
       y2="1035.5446" />
    <linearGradient
       inkscape:collect="always"
       xlink:href="#linearGradient3651"
       id="linearGradient3865"
       gradientUnits="userSpaceOnUse"
       x1="10.379609"
       y1="1017.3053"
       x2="11.805609"
       y2="1017.3053" />
    <linearGradient
       inkscape:collect="always"
       xlink:href="#linearGradient3801"
       id="linearGradient3876"
       gradientUnits="userSpaceOnUse"
       x1="40.686062"
       y1="1026.3407"
       x2="31.313936"
       y2="1023.8416" />
    <linearGradient
       inkscape:collect="always"
       xlink:href="#linearGradient3801"
       id="linearGradient3878"
       gradientUnits="userSpaceOnUse"
       x1="29.917305"
       y1="1035.7818"
       x2="41.16386"
       y2="1035.6716" />
    <linearGradient
       inkscape:collect="always"
       xlink:href="#linearGradient3689"
       id="linearGradient3880"
       gradientUnits="userSpaceOnUse"
       x1="32.931087"
       y1="1030.1118"
       x2="42.707503"
       y2="1030.0016" />
    <linearGradient
       inkscape:collect="always"
       xlink:href="#linearGradient3689"
       id="linearGradient3882"
       gradientUnits="userSpaceOnUse"
       x1="31.534456"
       y1="1041.0712"
       x2="40.722816"
       y2="1041.1447" />
    <linearGradient
       inkscape:collect="always"
       xlink:href="#linearGradient3801"
       id="linearGradient3884"
       gradientUnits="userSpaceOnUse"
       x1="761.68561"
       y1="706.03314"
       x2="755.89435"
       y2="707.28058" />
    <linearGradient
       inkscape:collect="always"
       xlink:href="#linearGradient3689"
       id="linearGradient3886"
       gradientUnits="userSpaceOnUse"
       x1="34.377445"
       y1="1034.4419"
       x2="38.305485"
       y2="1037.5292" />
    <linearGradient
       inkscape:collect="always"
       xlink:href="#linearGradient3651"
       id="linearGradient3888"
       gradientUnits="userSpaceOnUse"
       x1="35.445459"
       y1="1021.9362"
       x2="36.871459"
       y2="1021.9362" />
    <radialGradient
       inkscape:collect="always"
       xlink:href="#linearGradient3669-4"
       id="radialGradient3896"
       cx="6.8633146"
       cy="5.4103293"
       fx="6.8633146"
       fy="5.4103293"
       r="7.4937552"
       gradientTransform="matrix(2.9712838,0.76565528,-0.43391859,1.6838991,-11.181898,-8.9489789)"
       gradientUnits="userSpaceOnUse" />
    <radialGradient
       inkscape:collect="always"
       xlink:href="#linearGradient3669-4"
       id="radialGradient3898"
       cx="7.5751581"
       cy="6.6217785"
       fx="7.5751581"
       fy="6.6217785"
       r="7.4937552"
       gradientTransform="matrix(2.187126,0.21446511,-0.17613457,1.7962291,-7.8263431,-6.8970599)"
       gradientUnits="userSpaceOnUse" />
    <filter
       inkscape:collect="always"
       id="filter3922">
      <feGaussianBlur
         inkscape:collect="always"
         stdDeviation="0.1874122"
         id="feGaussianBlur3924" />
    </filter>
    <filter
       inkscape:collect="always"
       id="filter3926"
       x="-0.15689764"
       width="1.3137953"
       y="-0.02984882"
       height="1.0596976">
      <feGaussianBlur
         inkscape:collect="always"
         stdDeviation="0.1874122"
         id="feGaussianBlur3928" />
    </filter>
    <filter
       inkscape:collect="always"
       id="filter3936"
       x="-0.10473627"
       width="1.2094725"
       y="-0.22992897"
       height="1.4598579">
      <feGaussianBlur
         inkscape:collect="always"
         stdDeviation="0.18425117"
         id="feGaussianBlur3938" />
    </filter>
    <filter
       inkscape:collect="always"
       id="filter3940"
       x="-0.12285217"
       width="1.2457043"
       y="-0.19391193"
       height="1.3878239">
      <feGaussianBlur
         inkscape:collect="always"
         stdDeviation="0.18425117"
         id="feGaussianBlur3942" />
    </filter>
    <filter
       inkscape:collect="always"
       id="filter3974"
       x="-0.2476184"
       width="1.4952368"
       y="-0.11829569"
       height="1.2365914">
      <feGaussianBlur
         inkscape:collect="always"
         stdDeviation="0.25207033"
         id="feGaussianBlur3976" />
    </filter>
    <filter
       inkscape:collect="always"
       id="filter3978"
       x="-0.15394227"
       width="1.3078845"
       y="-0.09229427"
       height="1.1845885">
      <feGaussianBlur
         inkscape:collect="always"
         stdDeviation="0.25207033"
         id="feGaussianBlur3980" />
    </filter>
    <filter
       inkscape:collect="always"
       id="filter3986"
       x="-0.36236423"
       width="1.7247285"
       y="-0.18118249"
       height="1.362365">
      <feGaussianBlur
         inkscape:collect="always"
         stdDeviation="0.28856014"
         id="feGaussianBlur3988" />
    </filter>
    <filter
       inkscape:collect="always"
       id="filter3990"
       x="-0.29442146"
       width="1.5888429"
       y="-0.18842975"
       height="1.3768595">
      <feGaussianBlur
         inkscape:collect="always"
         stdDeviation="0.28856014"
         id="feGaussianBlur3992" />
    </filter>
    <filter
       inkscape:collect="always"
       id="filter3674"
       x="-0.044907016"
       width="1.089814"
       y="-0.31037001"
       height="1.62074">
      <feGaussianBlur
         inkscape:collect="always"
         stdDeviation="0.63852163"
         id="feGaussianBlur3676" />
    </filter>
  </defs>
  <sodipodi:namedview
     id="base"
     pagecolor="#ffffff"
     bordercolor="#666666"
     borderopacity="1.0"
     inkscape:pageopacity="0.0"
     inkscape:pageshadow="2"
     inkscape:zoom="1"
     inkscape:cx="10.217458"
     inkscape:cy="24"
     inkscape:document-units="px"
     inkscape:current-layer="layer1"
     showgrid="false"
     inkscape:window-width="1306"
     inkscape:window-height="876"
     inkscape:window-x="307"
     inkscape:window-y="103"
     inkscape:window-maximized="0"
     inkscape:snap-global="false">
    <inkscape:grid
       type="xygrid"
       id="grid2837"
       empspacing="5"
       visible="true"
       enabled="true"
       snapvisiblegridlinesonly="true" />
  </sodipodi:namedview>
  <metadata
     id="metadata7">
    <rdf:RDF>
      <cc:Work
         rdf:about="">
        <dc:format>image/svg+xml</dc:format>
        <dc:type
           rdf:resource="http://purl.org/dc/dcmitype/StillImage" />
        <dc:title />
      </cc:Work>
    </rdf:RDF>
  </metadata>
  <g
     inkscape:label="Layer 1"
     inkscape:groupmode="layer"
     id="layer1"
     transform="translate(0,-1004.3622)">
    <path
       style="fill:#000000;fill-opacity:0.76862744999999999;fill-rule:evenodd;stroke:none;filter:url(#filter3674)"
       d="M 11.90625 38 C 8.4555278 38 5.65625 38.91484 5.65625 40.03125 C 5.65625 41.14766 8.4555278 42.03125 11.90625 42.03125 C 15.356972 42.03125 18.15625 41.14766 18.15625 40.03125 C 18.15625 38.91484 15.356972 38 11.90625 38 z M 33.53125 38.875 C 30.080528 38.875 27.28125 39.78984 27.28125 40.90625 C 27.28125 42.02266 30.080528 42.9375 33.53125 42.9375 C 36.981972 42.9375 39.78125 42.02266 39.78125 40.90625 C 39.78125 39.78984 36.981972 38.875 33.53125 38.875 z "
       transform="translate(0,1004.3622)"
       id="path3900" />
    <g
       id="g3867"
       transform="matrix(0.98425013,-0.17678146,0.17678146,0.98425013,-186.50941,23.188837)">
      <path
         style="fill:url(#linearGradient3876);fill-opacity:1;stroke:none"
         d="m 29.917305,1025.7528 c 2.219621,-2.3727 8.948242,-2.5884 12.790198,0 l 0,18.2297 c -4.635333,-0.054 -8.732535,0.073 -12.790198,0 l 0,-18.2297 z"
         id="path3788"
         sodipodi:nodetypes="ccccc" />
      <path
         sodipodi:nodetypes="ccccc"
         id="rect3013"
         d="m 29.917305,1025.7528 c 3.681802,1.7448 7.742672,2.3524 12.790198,0 l 0,18.2297 c -4.62323,2.7464 -10.844672,2.1081 -12.790198,0 l 0,-18.2297 z"
         style="fill:url(#linearGradient3878);fill-opacity:1;stroke:none" />
      <path
         style="fill:url(#linearGradient3880);fill-opacity:1;stroke:none"
         d="m 29.917305,1028.399 c 3.681802,1.7448 7.742672,2.3524 12.790198,0 l 0,1.3967 c -4.302477,2.9151 -11.359181,1.8495 -12.790198,0 l 0,-1.3967 z"
         id="path3790"
         sodipodi:nodetypes="ccccc" />
      <path
         sodipodi:nodetypes="ccccc"
         id="path3792"
         d="m 29.917305,1039.4985 c 3.681802,1.7448 7.742672,2.3524 12.790198,0 l 0,1.3967 c -4.302477,2.9151 -10.550605,1.6657 -12.790198,0 l 0,-1.3967 z"
         style="fill:url(#linearGradient3882);fill-opacity:1;stroke:none" />
      <rect
         transform="matrix(0.70710678,0.70710678,-0.70710678,0.70710678,0,0)"
         y="704.12085"
         x="755.63025"
         height="5.851634"
         width="5.851634"
         id="rect3794"
         style="fill:url(#linearGradient3884);fill-opacity:1;stroke:none" />
      <path
         id="path3002"
         d="m 37.437213,1034.1937 c -0.111466,0 -0.258381,0.026 -0.4375,0.094 -0.294164,0.1118 -0.738894,0.131 -1,0.063 -0.261108,-0.068 -0.654753,-0.054 -0.875,0.031 -0.376877,0.1461 -0.374126,0.1704 0.03125,0.4687 0.369993,0.2724 0.390775,0.3672 0.125,0.6875 -0.17017,0.205 -0.513029,0.4748 -0.75,0.5625 -0.403297,0.1492 -0.387623,0.1749 -0.03125,0.5313 0.209397,0.2094 0.297118,0.4669 0.21875,0.5937 -0.07837,0.1268 0.08621,0.3293 0.375,0.4375 0.437251,0.1638 0.559663,0.1203 0.625,-0.2812 0.04315,-0.2653 0.185529,-0.6267 0.3125,-0.7813 0.126972,-0.1546 0.301862,-0.2207 0.40625,-0.1562 0.261192,0.1614 0.719857,-0.7574 0.53125,-1.0625 -0.09449,-0.1529 -0.358685,0 -0.6875,0.4062 l -0.53125,0.6563 0.28125,-0.75 c 0.230644,-0.6328 0.455391,-0.8444 0.6875,-0.6875 0.0312,0.021 0.278227,-0.098 0.5625,-0.25 0.501376,-0.2683 0.490649,-0.5477 0.15625,-0.5625 z m 0.09375,1 c -0.164666,10e-5 -0.325372,0.2757 -0.34375,0.5937 -0.04063,0.703 0.45761,0.6193 0.5625,-0.094 0.04318,-0.2935 -0.04044,-0.5001 -0.21875,-0.5 z m 0.0625,1.3437 c -0.594211,0.06 -1.468892,0.4067 -1.5625,0.6875 -0.184453,0.5534 0.143515,0.8808 0.875,0.8438 0.556644,-0.028 0.832789,-0.185 1.09375,-0.6563 0.285866,-0.5164 0.309218,-0.6891 0.0625,-0.8437 -0.08927,-0.056 -0.27068,-0.051 -0.46875,-0.031 z m -0.03125,0.25 c 0.132155,0 0.21875,0.094 0.21875,0.2188 0,0.1248 -0.03872,0.2187 -0.09375,0.2187 -0.05503,0 -0.172875,-0.094 -0.25,-0.2187 -0.07713,-0.1248 -0.0072,-0.2188 0.125,-0.2188 z m -0.90625,0.2188 c 0.12479,0 0.21875,0.1565 0.21875,0.3437 0,0.1872 -0.09396,0.3438 -0.21875,0.3438 -0.12479,0 -0.21875,-0.1566 -0.21875,-0.3438 0,-0.1872 0.09396,-0.3437 0.21875,-0.3437 z"
         style="fill:url(#linearGradient3886)" />
      <path
         sodipodi:nodetypes="ccccccc"
         id="path3796"
         d="m 36.597483,1018.3442 c 0.233051,0.9512 -0.184505,2.2498 -0.599253,2.9502 -0.705981,1.468 -0.646522,2.4533 -0.316042,3.9744 0.6051,0.3974 1.172032,0.4004 1.189271,-0.182 -0.459693,-1.2664 -0.491389,-2.3558 -0.354757,-3.4927 0.51677,-1.9847 0.317386,-2.2127 0.314462,-3.27 l -0.233681,0.02 z"
         style="font-size:medium;font-style:normal;font-variant:normal;font-weight:normal;font-stretch:normal;text-indent:0;text-align:start;text-decoration:none;line-height:normal;letter-spacing:normal;word-spacing:normal;text-transform:none;direction:ltr;block-progression:tb;writing-mode:lr-tb;text-anchor:start;color:#000000;fill:url(#linearGradient3888);fill-opacity:1;stroke:none;stroke-width:1px;marker:none;visibility:visible;display:inline;overflow:visible;enable-background:accumulate;font-family:Bitstream Vera Sans;-inkscape-font-specification:Bitstream Vera Sans" />
    </g>
    <g
       id="g3844"
       transform="matrix(0.9682391,0.2500261,-0.2500261,0.9682391,261.97523,28.943002)">
      <path
         sodipodi:nodetypes="ccccc"
         id="path3812"
         d="m 4.8514551,1021.1219 c 2.219621,-2.3727 8.9482419,-2.5884 12.7901979,0 l 0,18.2297 c -4.635333,-0.054 -8.7325349,0.073 -12.7901979,0 l 0,-18.2297 z"
         style="fill:url(#linearGradient3853);fill-opacity:1;stroke:none" />
      <path
         style="fill:url(#linearGradient3855);fill-opacity:1;stroke:none"
         d="m 4.8514551,1021.1219 c 3.681802,1.7448 7.7426719,2.3524 12.7901979,0 l 0,23.1547 c -4.62323,2.7464 -10.8446719,2.1081 -12.7901979,0 l 0,-23.1547 z"
         id="path3814"
         sodipodi:nodetypes="ccccc" />
      <path
         sodipodi:nodetypes="ccccc"
         id="path3816"
         d="m 4.8514551,1023.7681 c 3.681802,1.7448 7.7426719,2.3524 12.7901979,0 l 0,1.3967 c -4.302477,2.9151 -11.3591809,1.8495 -12.7901979,0 l 0,-1.3967 z"
         style="fill:url(#linearGradient3857);fill-opacity:1;stroke:none" />
      <path
         style="fill:url(#linearGradient3859);fill-opacity:1;stroke:none"
         d="m 4.8514551,1040.8952 c 3.681802,1.7448 7.7426719,2.3524 12.7901979,0 l 0,1.3967 c -4.302477,2.9151 -10.5506049,1.6657 -12.7901979,0 l 0,-1.3967 z"
         id="path3818"
         sodipodi:nodetypes="ccccc" />
      <rect
         style="fill:url(#linearGradient3861);fill-opacity:1;stroke:none"
         id="rect3820"
         width="5.851634"
         height="5.851634"
         x="736.24274"
         y="720.18176"
         transform="matrix(0.70710678,0.70710678,-0.70710678,0.70710678,0,0)" />
      <path
         style="fill:url(#linearGradient3863)"
         d="m 12.371363,1031.8415 c -0.111466,0 -0.258381,0.026 -0.4375,0.094 -0.294164,0.1118 -0.738894,0.131 -1,0.063 -0.261108,-0.068 -0.654753,-0.054 -0.875,0.031 -0.3768769,0.1461 -0.3741259,0.1704 0.03125,0.4687 0.369993,0.2724 0.390775,0.3672 0.125,0.6875 -0.17017,0.205 -0.5130289,0.4748 -0.7499999,0.5625 -0.403297,0.1492 -0.387623,0.1749 -0.03125,0.5313 0.209397,0.2094 0.297118,0.4669 0.21875,0.5937 -0.07837,0.1268 0.08621,0.3293 0.3749999,0.4375 0.437251,0.1638 0.559663,0.1203 0.625,-0.2812 0.04315,-0.2653 0.185529,-0.6267 0.3125,-0.7813 0.126972,-0.1546 0.301862,-0.2207 0.40625,-0.1562 0.261192,0.1614 0.719857,-0.7574 0.53125,-1.0625 -0.09449,-0.1529 -0.358685,0 -0.6875,0.4062 l -0.53125,0.6563 0.28125,-0.75 c 0.230644,-0.6328 0.455391,-0.8444 0.6875,-0.6875 0.0312,0.021 0.278227,-0.098 0.5625,-0.25 0.501376,-0.2683 0.490649,-0.5477 0.15625,-0.5625 z m 0.09375,1 c -0.164666,10e-5 -0.325372,0.2757 -0.34375,0.5937 -0.04063,0.703 0.45761,0.6193 0.5625,-0.094 0.04318,-0.2935 -0.04044,-0.5001 -0.21875,-0.5 z m 0.0625,1.3437 c -0.594211,0.06 -1.468892,0.4067 -1.5625,0.6875 -0.184453,0.5534 0.143515,0.8808 0.875,0.8438 0.556644,-0.028 0.832789,-0.185 1.09375,-0.6563 0.285866,-0.5164 0.309218,-0.6891 0.0625,-0.8437 -0.08927,-0.056 -0.27068,-0.051 -0.46875,-0.031 z m -0.03125,0.25 c 0.132155,0 0.21875,0.094 0.21875,0.2188 0,0.1248 -0.03872,0.2187 -0.09375,0.2187 -0.05503,0 -0.172875,-0.094 -0.25,-0.2187 -0.07713,-0.1248 -0.0072,-0.2188 0.125,-0.2188 z m -0.90625,0.2188 c 0.12479,0 0.21875,0.1565 0.21875,0.3437 0,0.1872 -0.09396,0.3438 -0.21875,0.3438 -0.12479,0 -0.21875,-0.1566 -0.21875,-0.3438 0,-0.1872 0.09396,-0.3437 0.21875,-0.3437 z"
         id="path3822" />
      <path
         style="font-size:medium;font-style:normal;font-variant:normal;font-weight:normal;font-stretch:normal;text-indent:0;text-align:start;text-decoration:none;line-height:normal;letter-spacing:normal;word-spacing:normal;text-transform:none;direction:ltr;block-progression:tb;writing-mode:lr-tb;text-anchor:start;color:#000000;fill:url(#linearGradient3865);fill-opacity:1;stroke:none;stroke-width:1px;marker:none;visibility:visible;display:inline;overflow:visible;enable-background:accumulate;font-family:Bitstream Vera Sans;-inkscape-font-specification:Bitstream Vera Sans"
         d="m 11.531633,1013.7133 c 0.233051,0.9512 -0.184505,2.2498 -0.599253,2.9502 -0.705981,1.468 -0.646522,2.4533 -0.316042,3.9744 0.6051,0.3974 1.172032,0.4004 1.189271,-0.182 -0.459693,-1.2664 -0.491389,-2.3558 -0.354757,-3.4927 0.51677,-1.9847 0.317386,-2.2127 0.314462,-3.27 l -0.233681,0.02 z"
         id="path3824"
         sodipodi:nodetypes="ccccccc" />
    </g>
    <path
       sodipodi:type="star"
       style="fill:url(#radialGradient3898);fill-rule:evenodd;stroke:none"
       id="path3890"
       sodipodi:sides="9"
       sodipodi:cx="7.4977031"
       sodipodi:cy="6.4686065"
       sodipodi:r1="7.6224203"
       sodipodi:r2="2.7115705"
       sodipodi:arg1="0.11598198"
       sodipodi:arg2="0.53873717"
       inkscape:flatsided="false"
       inkscape:rounded="0"
       inkscape:randomized="0"
       d="M 15.068913,7.3506892 9.8251993,7.8597843 12.730595,12.011001 8.3864367,9.0303963 7.943748,14.077965 6.5318258,9.0023183 2.948192,12.584425 5.1291596,7.7886884 0.08140282,8.2292262 4.8347612,5.9573775 0.68478291,3.0502135 5.7863829,4.3652763 4.4760041,-0.52929511 7.5387503,3.7573467 9.6811118,-0.83440783 9.2719113,4.4180456 13.864578,2.277641 10.174901,6.0382248 15.068913,7.3506892 z"
       transform="matrix(0.88071826,0.19205253,-0.19205253,0.88071826,23.856137,1010.0188)" />
    <path
       transform="matrix(0.66943959,0.04936878,-0.04936878,0.66943959,15.923406,1007.3329)"
       d="M 15.068913,7.3506892 9.8251993,7.8597843 12.730595,12.011001 8.3864367,9.0303963 7.943748,14.077965 6.5318258,9.0023183 2.948192,12.584425 5.1291596,7.7886884 0.08140282,8.2292262 4.8347612,5.9573775 0.68478291,3.0502135 5.7863829,4.3652763 4.4760041,-0.52929511 7.5387503,3.7573467 9.6811118,-0.83440783 9.2719113,4.4180456 13.864578,2.277641 10.174901,6.0382248 15.068913,7.3506892 z"
       inkscape:randomized="0"
       inkscape:rounded="0"
       inkscape:flatsided="false"
       sodipodi:arg2="0.53873717"
       sodipodi:arg1="0.11598198"
       sodipodi:r2="2.7115705"
       sodipodi:r1="7.6224203"
       sodipodi:cy="6.4686065"
       sodipodi:cx="7.4977031"
       sodipodi:sides="9"
       id="path3892"
       style="fill:url(#radialGradient3896);fill-opacity:1;fill-rule:evenodd;stroke:none"
       sodipodi:type="star" />
    <path
       style="color:#000000;fill:#ffffff;stroke:none;stroke-width:1px;stroke-linecap:butt;stroke-linejoin:miter;stroke-miterlimit:4;stroke-opacity:1;stroke-dasharray:none;stroke-dashoffset:0;marker:none;visibility:visible;display:inline;overflow:visible;enable-background:accumulate;filter:url(#filter3922);fill-opacity:0.4955357"
       d="M 6.2480858,34.842266 C 6.6156202,33.960184 11.467075,15.36294 11.467075,15.36294 c 0,0 -2.8667687,19.552833 -5.2189892,19.479326 z"
       id="path3910"
       transform="translate(0,1004.3622)" />
    <path
       style="color:#000000;fill:#ffffff;stroke:none;stroke-width:1px;stroke-linecap:butt;stroke-linejoin:miter;stroke-miterlimit:4;stroke-opacity:1;stroke-dasharray:none;stroke-dashoffset:0;marker:none;visibility:visible;display:inline;overflow:visible;enable-background:accumulate;filter:url(#filter3926);fill-opacity:0.4955357"
       d="m 24.698315,24.330781 2.866769,15.068913 c 0,0 -1.17611,-12.863706 -2.866769,-15.068913 z"
       id="path3912"
       transform="translate(0,1004.3622)" />
    <path
       style="color:#000000;fill:#ffffff;stroke:none;stroke-width:1px;stroke-linecap:butt;stroke-linejoin:miter;stroke-miterlimit:4;stroke-opacity:1;stroke-dasharray:none;stroke-dashoffset:0;marker:none;visibility:visible;display:inline;overflow:visible;enable-background:accumulate;filter:url(#filter3936);fill-opacity:0.71428573"
       d="m 16.31853,14.333844 c -2.928786,-0.09923 -4.520813,0.229297 -2.572741,1.690658 0,0 -5.0719758,-2.719755 2.572741,-1.690658 z"
       id="path3932"
       transform="translate(0,1004.3622)"
       sodipodi:nodetypes="ccc" />
    <path
       style="color:#000000;fill:#ffffff;stroke:none;stroke-width:1px;stroke-linecap:butt;stroke-linejoin:miter;stroke-miterlimit:4;stroke-opacity:1;stroke-dasharray:none;stroke-dashoffset:0;marker:none;visibility:visible;display:inline;overflow:visible;enable-background:accumulate;filter:url(#filter3940);fill-opacity:0.71428573"
       d="m 28.300153,21.096478 c -3.581137,1.434593 -3.030459,2.014328 -0.955589,2.278713 0,0 -6.542114,0.147014 0.955589,-2.278713 z"
       id="path3934"
       transform="translate(0,1004.3622)"
       sodipodi:nodetypes="ccc" />
    <path
       style="fill:#ffffff;fill-rule:evenodd;stroke:none;filter:url(#filter3978);fill-opacity:0.45535713"
       d="M 28.46875 9.0625 C 28.411266 9.1843712 28.430667 9.8220625 28.59375 11.375 C 23.377905 8.4784 29.551547 12.11375 26.21875 12.46875 C 23.9517 12.810623 27.874773 12.886201 27.375 14.25 C 27.74885 14.177803 27.971625 14.481309 28.125 14.875 C 28.529004 13.517843 28.887279 12.344054 29.4375 10.4375 C 28.90273 9.9337971 28.560724 8.8675061 28.46875 9.0625 z M 27.375 14.25 C 27.026232 14.317353 26.556636 14.69881 25.90625 15.59375 C 26.824481 15.033892 27.245001 14.604745 27.375 14.25 z "
       transform="translate(0,1004.3622)"
       id="path3944" />
    <path
       style="fill:#ffffff;fill-opacity:0.6785714;fill-rule:evenodd;stroke:none;filter:url(#filter3974)"
       d="M 19.6875 5 C 19.659788 5.0896984 19.75758 5.5878797 20 6.5625 L 20.3125 5.71875 C 19.971763 5.3669265 19.726621 4.8733718 19.6875 5 z M 18.28125 6.09375 C 18.221805 6.22245 20.038753 7.3301437 18.375 7.75 C 16.98628 8.1655878 18.848714 7.9552518 19.3125 8.53125 L 19.96875 6.65625 C 18.765146 6.1961736 18.307433 6.0370637 18.28125 6.09375 z M 19.09375 9.15625 C 18.908235 9.3377039 18.709872 9.6388 18.46875 10.09375 C 18.643078 9.9502708 18.784121 9.8100978 18.90625 9.6875 L 19.09375 9.15625 z "
       transform="translate(0,1004.3622)"
       id="path3946" />
    <path
       style="color:#000000;fill:#ffffff;stroke:none;stroke-width:1px;stroke-linecap:butt;stroke-linejoin:miter;stroke-miterlimit:4;stroke-opacity:1;stroke-dasharray:none;stroke-dashoffset:0;marker:none;visibility:visible;display:inline;overflow:visible;enable-background:accumulate;filter:url(#filter3990);fill-opacity:0.375"
       d="m 13.01072,26.388974 -2.352221,1.029097 1.984686,2.646248 c -0.724866,-1.225115 -1.399598,-2.45023 0.367535,-3.675345 z"
       id="path3982"
       transform="translate(0,1004.3622)"
       sodipodi:nodetypes="cccc" />
    <path
       style="color:#000000;fill:#ffffff;stroke:none;stroke-width:1px;stroke-linecap:butt;stroke-linejoin:miter;stroke-miterlimit:4;stroke-opacity:1;stroke-dasharray:none;stroke-dashoffset:0;marker:none;visibility:visible;display:inline;overflow:visible;enable-background:accumulate;filter:url(#filter3986);fill-opacity:0.375"
       d="M 30.725884,34.254211 C 30.35835,33.960184 28.814701,33.004594 28.814701,33.004594 l 1.91118,-2.572741 c -0.838072,2.351642 -0.517566,3.213684 3e-6,3.822358 z"
       id="path3984"
       transform="translate(0,1004.3622)"
       sodipodi:nodetypes="cccc" />
  </g>
</svg>
