<?xml version="1.0" encoding="UTF-8" standalone="no"?>
<!-- Created with Inkscape (http://www.inkscape.org/) -->

<svg
   xmlns:dc="http://purl.org/dc/elements/1.1/"
   xmlns:cc="http://creativecommons.org/ns#"
   xmlns:rdf="http://www.w3.org/1999/02/22-rdf-syntax-ns#"
   xmlns:svg="http://www.w3.org/2000/svg"
   xmlns="http://www.w3.org/2000/svg"
   xmlns:xlink="http://www.w3.org/1999/xlink"
   xmlns:sodipodi="http://sodipodi.sourceforge.net/DTD/sodipodi-0.dtd"
   xmlns:inkscape="http://www.inkscape.org/namespaces/inkscape"
   width="48"
   height="48"
   id="svg2"
   version="1.1"
   inkscape:version="0.47 r22583"
   sodipodi:docname="chinese-new-year03.svg"
   inkscape:export-filename="chinese-new-year03.png"
   inkscape:export-xdpi="89.949997"
   inkscape:export-ydpi="89.949997">
  <defs
     id="defs4">
    <linearGradient
       id="linearGradient3673">
      <stop
         id="stop3675"
         offset="0"
         style="stop-color:#ffbf00;stop-opacity:1;" />
      <stop
         id="stop3677"
         offset="1"
         style="stop-color:#ffde00;stop-opacity:1;" />
    </linearGradient>
    <linearGradient
       id="linearGradient3791">
      <stop
         id="stop3793"
         offset="0"
         style="stop-color:#e6e6e6;stop-opacity:1;" />
      <stop
         id="stop3795"
         offset="1"
         style="stop-color:#d5d5d5;stop-opacity:1;" />
    </linearGradient>
    <linearGradient
       inkscape:collect="always"
       xlink:href="#linearGradient3791"
       id="linearGradient3088"
       x1="25"
       y1="1018.7997"
       x2="26.375"
       y2="1021.8622"
       gradientUnits="userSpaceOnUse"
       gradientTransform="translate(-0.5,0.125)" />
    <linearGradient
       inkscape:collect="always"
       xlink:href="#linearGradient3791"
       id="linearGradient3090"
       x1="24.130484"
       y1="24.245859"
       x2="20.258482"
       y2="17.85038"
       gradientUnits="userSpaceOnUse" />
    <linearGradient
       inkscape:collect="always"
       xlink:href="#linearGradient3791"
       id="linearGradient3096"
       gradientUnits="userSpaceOnUse"
       x1="25"
       y1="1018.7997"
       x2="26.375"
       y2="1021.8622"
       gradientTransform="translate(9.75,20.25)" />
    <radialGradient
       inkscape:collect="always"
       xlink:href="#linearGradient3613-3"
       id="radialGradient3269"
       cx="21.311495"
       cy="25.888063"
       fx="21.311495"
       fy="25.888063"
       r="12.630465"
       gradientUnits="userSpaceOnUse"
       gradientTransform="matrix(1.1338383,0.65511452,-0.54156906,0.93731105,9.5451582,-13.768139)" />
    <linearGradient
       inkscape:collect="always"
       xlink:href="#linearGradient3673"
       id="linearGradient3273"
       x1="19.75"
       y1="22.8125"
       x2="37.0625"
       y2="10.8125"
       gradientUnits="userSpaceOnUse" />
    <linearGradient
       inkscape:collect="always"
       xlink:href="#linearGradient3673"
       id="linearGradient3275"
       x1="22"
       y1="28.125"
       x2="35.3125"
       y2="19.375"
       gradientUnits="userSpaceOnUse" />
    <linearGradient
       inkscape:collect="always"
       xlink:href="#linearGradient3673"
       id="linearGradient3277"
       x1="25.1875"
       y1="32.875"
       x2="38.375"
       y2="22.8125"
       gradientUnits="userSpaceOnUse" />
    <linearGradient
       inkscape:collect="always"
       xlink:href="#linearGradient3673"
       id="linearGradient3279"
       x1="28.125"
       y1="37"
       x2="39.5"
       y2="29.4375"
       gradientUnits="userSpaceOnUse" />
    <linearGradient
       inkscape:collect="always"
       xlink:href="#linearGradient3673"
       id="linearGradient3281"
       x1="17.061539"
       y1="28.484953"
       x2="22.78125"
       y2="26.234953"
       gradientUnits="userSpaceOnUse" />
    <linearGradient
       inkscape:collect="always"
       xlink:href="#linearGradient3673"
       id="linearGradient3283"
       x1="25.40625"
       y1="24.578125"
       x2="29.4375"
       y2="21.828125"
       gradientUnits="userSpaceOnUse" />
    <linearGradient
       inkscape:collect="always"
       xlink:href="#linearGradient3673"
       id="linearGradient3285"
       x1="34.4375"
       y1="23.078125"
       x2="37.0625"
       y2="20.453125"
       gradientUnits="userSpaceOnUse" />
    <linearGradient
       inkscape:collect="always"
       xlink:href="#linearGradient3791"
       id="linearGradient3289"
       x1="18.633493"
       y1="1018.3657"
       x2="15.289534"
       y2="1007.273"
       gradientUnits="userSpaceOnUse" />
    <filter
       inkscape:collect="always"
       id="filter4083">
      <feGaussianBlur
         inkscape:collect="always"
         stdDeviation="0.15576857"
         id="feGaussianBlur4085" />
    </filter>
    <filter
       inkscape:collect="always"
       id="filter4087"
       x="-0.1504795"
       width="1.300959"
       y="-0.081337856"
       height="1.1626757">
      <feGaussianBlur
         inkscape:collect="always"
         stdDeviation="0.15576857"
         id="feGaussianBlur4089" />
    </filter>
    <filter
       inkscape:collect="always"
       id="filter4097"
       x="-0.11534305"
       width="1.2306861"
       y="-0.094907639"
       height="1.1898153">
      <feGaussianBlur
         inkscape:collect="always"
         stdDeviation="0.13277555"
         id="feGaussianBlur4099" />
    </filter>
    <filter
       inkscape:collect="always"
       id="filter4123"
       x="-0.1643343"
       width="1.3286686"
       y="-0.099520547"
       height="1.1990411">
      <feGaussianBlur
         inkscape:collect="always"
         stdDeviation="0.47647473"
         id="feGaussianBlur4125" />
    </filter>
    <linearGradient
       id="linearGradient3613-3">
      <stop
         id="stop3615-32"
         offset="0"
         style="stop-color:#ff5959;stop-opacity:1;" />
      <stop
         id="stop3617-3"
         offset="1"
         style="stop-color:#d90000;stop-opacity:1;" />
    </linearGradient>
    <filter
       inkscape:collect="always"
       id="filter3654"
       x="-0.12173428"
       width="1.2434686"
       y="-0.52458686"
       height="2.0491737">
      <feGaussianBlur
         inkscape:collect="always"
         stdDeviation="1.558497"
         id="feGaussianBlur3656" />
    </filter>
  </defs>
  <sodipodi:namedview
     id="base"
     pagecolor="#ffffff"
     bordercolor="#666666"
     borderopacity="1.0"
     inkscape:pageopacity="0.0"
     inkscape:pageshadow="2"
     inkscape:zoom="1"
     inkscape:cx="24"
     inkscape:cy="24"
     inkscape:document-units="px"
     inkscape:current-layer="layer1"
     showgrid="false"
     inkscape:window-width="1306"
     inkscape:window-height="876"
     inkscape:window-x="354"
     inkscape:window-y="35"
     inkscape:window-maximized="0"
     inkscape:snap-global="false">
    <inkscape:grid
       type="xygrid"
       id="grid2837"
       empspacing="5"
       visible="true"
       enabled="true"
       snapvisiblegridlinesonly="true" />
  </sodipodi:namedview>
  <metadata
     id="metadata7">
    <rdf:RDF>
      <cc:Work
         rdf:about="">
        <dc:format>image/svg+xml</dc:format>
        <dc:type
           rdf:resource="http://purl.org/dc/dcmitype/StillImage" />
        <dc:title />
      </cc:Work>
    </rdf:RDF>
  </metadata>
  <g
     inkscape:label="Layer 1"
     inkscape:groupmode="layer"
     id="layer1"
     transform="translate(0,-1004.3622)">
    <path
       sodipodi:type="arc"
       style="fill:#000000;fill-opacity:0.76862744999999999;fill-rule:evenodd;stroke:none;filter:url(#filter3654)"
       id="path4267"
       sodipodi:cx="24.624809"
       sodipodi:cy="38.554363"
       sodipodi:rx="15.36294"
       sodipodi:ry="3.5650842"
       d="m 39.987749,38.554363 a 15.36294,3.5650842 0 1 1 -30.7258796,0 15.36294,3.5650842 0 1 1 30.7258796,0 z"
       transform="matrix(0.43540663,0,0,0.55670103,21.106677,1023.6952)" />
    <path
       sodipodi:nodetypes="csscssc"
       id="path3092"
       d="m 39.170611,1038.622 c 0.661552,1.5591 -2.036925,4.1956 -6.027218,5.8887 -3.990292,1.6931 -7.761357,1.8017 -8.422909,0.2426 -0.09241,-0.2178 -1.846299,-2.704 -1.81323,-3.3333 0.203684,-1.5664 4.40752,-1.0988 7.840448,-2.5554 3.322137,-1.4096 5.08766,-4.4783 6.437947,-3.6433 0.271572,0.168 1.874188,3.1396 1.984962,3.4007 z"
       style="fill:url(#linearGradient3096);fill-opacity:1;fill-rule:evenodd;stroke:none" />
    <path
       sodipodi:type="arc"
       style="fill:url(#radialGradient3269);fill-rule:evenodd;stroke:none;fill-opacity:1"
       id="path2901"
       sodipodi:cx="25.520815"
       sodipodi:cy="25.493864"
       sodipodi:rx="12.630465"
       sodipodi:ry="12.630465"
       d="m 38.151279,25.493864 c 0,6.975613 -5.654851,12.630465 -12.630464,12.630465 -6.975613,0 -12.630465,-5.654852 -12.630465,-12.630465 0,-6.975613 5.654852,-12.630464 12.630465,-12.630464 6.975613,0 12.630464,5.654851 12.630464,12.630464 z"
       transform="translate(0.62372669,1004.4662)" />
    <path
       style="font-size:medium;font-style:normal;font-variant:normal;font-weight:normal;font-stretch:normal;text-indent:0;text-align:start;text-decoration:none;line-height:normal;letter-spacing:normal;word-spacing:normal;text-transform:none;direction:ltr;block-progression:tb;writing-mode:lr-tb;text-anchor:start;color:#000000;fill:url(#linearGradient3281);fill-opacity:1;stroke:none;stroke-width:1px;marker:none;visibility:visible;display:inline;overflow:visible;enable-background:accumulate;font-family:Bitstream Vera Sans;-inkscape-font-specification:Bitstream Vera Sans"
       d="M 17.0625 18.75 C 16.997065 27.282956 20.27795 33.337322 25 38.15625 C 25.375454 38.189833 25.772059 38.21875 26.15625 38.21875 C 26.262333 38.21875 26.363293 38.22135 26.46875 38.21875 L 26.46875 38.1875 C 21.455339 33.3681 17.995547 27.4812 18.0625 18.75 L 17.0625 18.75 z "
       transform="translate(0,1004.3622)"
       id="path3100" />
    <path
       style="font-size:medium;font-style:normal;font-variant:normal;font-weight:normal;font-stretch:normal;text-indent:0;text-align:start;text-decoration:none;line-height:normal;letter-spacing:normal;word-spacing:normal;text-transform:none;direction:ltr;block-progression:tb;writing-mode:lr-tb;text-anchor:start;color:#000000;fill:url(#linearGradient3283);fill-opacity:1;stroke:none;stroke-width:1px;marker:none;visibility:visible;display:inline;overflow:visible;enable-background:accumulate;font-family:Bitstream Vera Sans;-inkscape-font-specification:Bitstream Vera Sans"
       d="M 23.03125 17.375 L 22.34375 18.125 C 27.632126 23.128079 31.183982 29.125397 33.4375 35.90625 C 33.719055 35.707131 33.986114 35.502182 34.25 35.28125 C 31.948697 28.497519 28.365953 22.421857 23.03125 17.375 z "
       transform="translate(0,1004.3622)"
       id="path3102" />
    <path
       style="font-size:medium;font-style:normal;font-variant:normal;font-weight:normal;font-stretch:normal;text-indent:0;text-align:start;text-decoration:none;line-height:normal;letter-spacing:normal;word-spacing:normal;text-transform:none;direction:ltr;block-progression:tb;writing-mode:lr-tb;text-anchor:start;color:#000000;fill:url(#linearGradient3285);fill-opacity:1;stroke:none;stroke-width:1px;marker:none;visibility:visible;display:inline;overflow:visible;enable-background:accumulate;font-family:Bitstream Vera Sans;-inkscape-font-specification:Bitstream Vera Sans"
       d="M 27.375 14 L 26.875 14.875 C 33.34742 18.869884 37.164797 24.084657 37.40625 31.28125 C 37.737981 30.625205 38.03557 29.934349 38.25 29.21875 C 37.378406 22.693952 33.419757 17.730954 27.375 14 z "
       transform="translate(0,1004.3622)"
       id="path3104" />
    <path
       style="fill:url(#linearGradient3088);fill-opacity:1;fill-rule:evenodd;stroke:none"
       d="m 28.920611,1018.497 c 0.661552,1.5591 -2.036925,4.1956 -6.027218,5.8887 -3.990292,1.6931 -7.761357,1.8017 -8.422909,0.2426 -0.09241,-0.2178 -1.846299,-2.704 -1.81323,-3.3333 0.203684,-1.5664 4.40752,-1.0988 7.840448,-2.5554 3.322137,-1.4096 5.08766,-4.4783 6.437947,-3.6433 0.271572,0.168 1.874188,3.1396 1.984962,3.4007 z"
       id="path2905"
       sodipodi:nodetypes="csscssc" />
    <path
       sodipodi:type="arc"
       style="fill:url(#linearGradient3090);fill-opacity:1;fill-rule:evenodd;stroke:none"
       id="path2903"
       sodipodi:cx="22.610092"
       sodipodi:cy="16.76169"
       sodipodi:rx="7.8485603"
       sodipodi:ry="3.0666561"
       d="m 30.458652,16.76169 c 0,1.693668 -3.51392,3.066656 -7.84856,3.066656 -4.33464,0 -7.84856,-1.372988 -7.84856,-3.066656 0,-1.693667 3.51392,-3.066656 7.84856,-3.066656 4.33464,0 7.84856,1.372989 7.84856,3.066656 z"
       transform="matrix(0.92055911,-0.39060328,0.39060328,0.92055911,-7.4340487,1011.8429)" />
    <path
       style="font-size:medium;font-style:normal;font-variant:normal;font-weight:normal;font-stretch:normal;text-indent:0;text-align:start;text-decoration:none;line-height:normal;letter-spacing:normal;word-spacing:normal;text-transform:none;direction:ltr;block-progression:tb;writing-mode:lr-tb;text-anchor:start;color:#000000;fill:url(#linearGradient3273);fill-opacity:1;stroke:none;stroke-width:1px;marker:none;visibility:visible;display:inline;overflow:visible;enable-background:accumulate;font-family:Bitstream Vera Sans;-inkscape-font-specification:Bitstream Vera Sans"
       d="M 30.34375 13.6875 C 28.512512 17.465334 26.047589 19.603785 23.15625 20.96875 C 20.297575 22.318204 17.032687 22.93648 13.71875 23.53125 C 13.663695 23.863336 13.591108 24.190949 13.5625 24.53125 C 16.990649 23.919151 20.466612 23.351213 23.59375 21.875 C 26.662818 20.4262 29.380428 18.089695 31.3125 14.09375 C 30.993567 13.950309 30.676082 13.804582 30.34375 13.6875 z "
       transform="translate(0,1004.3622)"
       id="path3127" />
    <path
       style="font-size:medium;font-style:normal;font-variant:normal;font-weight:normal;font-stretch:normal;text-indent:0;text-align:start;text-decoration:none;line-height:normal;letter-spacing:normal;word-spacing:normal;text-transform:none;direction:ltr;block-progression:tb;writing-mode:lr-tb;text-anchor:start;color:#000000;fill:url(#linearGradient3275);fill-opacity:1;stroke:none;stroke-width:1px;marker:none;visibility:visible;display:inline;overflow:visible;enable-background:accumulate;font-family:Bitstream Vera Sans;-inkscape-font-specification:Bitstream Vera Sans"
       d="M 34.96875 16.5625 C 30.972894 24.486484 22.895864 27.738173 14.375 30.15625 C 14.494792 30.464334 14.638525 30.766693 14.78125 31.0625 C 23.202841 28.660909 31.500378 25.348731 35.71875 17.34375 C 35.486682 17.074938 35.222382 16.81082 34.96875 16.5625 z "
       transform="translate(0,1004.3622)"
       id="path3129" />
    <path
       style="font-size:medium;font-style:normal;font-variant:normal;font-weight:normal;font-stretch:normal;text-indent:0;text-align:start;text-decoration:none;line-height:normal;letter-spacing:normal;word-spacing:normal;text-transform:none;direction:ltr;block-progression:tb;writing-mode:lr-tb;text-anchor:start;color:#000000;fill:url(#linearGradient3277);fill-opacity:1;stroke:none;stroke-width:1px;marker:none;visibility:visible;display:inline;overflow:visible;enable-background:accumulate;font-family:Bitstream Vera Sans;-inkscape-font-specification:Bitstream Vera Sans"
       d="M 38.125 21.625 C 33.196943 29.351877 24.260254 33.064099 17.53125 34.8125 C 17.828288 35.090584 18.145906 35.345115 18.46875 35.59375 C 25.024805 33.801723 33.458387 30.205168 38.5 22.90625 C 38.404968 22.470045 38.263828 22.043089 38.125 21.625 z "
       transform="translate(0,1004.3622)"
       id="path3131" />
    <path
       style="font-size:medium;font-style:normal;font-variant:normal;font-weight:normal;font-stretch:normal;text-indent:0;text-align:start;text-decoration:none;line-height:normal;letter-spacing:normal;word-spacing:normal;text-transform:none;direction:ltr;block-progression:tb;writing-mode:lr-tb;text-anchor:start;color:#000000;fill:url(#linearGradient3279);fill-opacity:1;stroke:none;stroke-width:1px;marker:none;visibility:visible;display:inline;overflow:visible;enable-background:accumulate;font-family:Bitstream Vera Sans;-inkscape-font-specification:Bitstream Vera Sans"
       d="M 38.65625 27.375 C 37.275891 30.09549 35.271893 32.190888 32.875 33.84375 C 30.216572 35.67688 27.036727 36.958586 23.65625 37.96875 C 24.459743 38.129069 25.305617 38.21875 26.15625 38.21875 C 28.785635 37.303954 31.253486 36.162214 33.4375 34.65625 C 35.043503 33.548799 36.473678 32.234216 37.6875 30.6875 C 38.148242 29.646397 38.491363 28.541241 38.65625 27.375 z "
       transform="translate(0,1004.3622)"
       id="path3133" />
    <path
       style="color:#000000;fill:url(#linearGradient3289);stroke:none;stroke-width:1px;marker:none;visibility:visible;display:inline;overflow:visible;enable-background:accumulate"
       d="m 16.240981,1018.2621 c 0.09855,-0.2616 -2.311031,-4.0083 -2.335993,-6.167 -0.04118,-3.5615 4.623191,-2.2038 5.832189,-0.6379 0.461473,0.5978 4.002412,6.0487 4.002412,6.0487 0.08925,0.5511 0.113357,1.1068 -1.266783,0.8637 0,0 -2.282294,-3.7555 -3.020904,-4.9501 -1.75473,-2.8381 -4.147427,-2.4224 -3.956821,-1.1219 0.220516,1.5045 2.446487,5.1605 2.298792,5.7175 -0.119082,0.449 -0.706655,1.0754 -1.552943,0.2465 l 5.1e-5,5e-4 z"
       id="path3287"
       sodipodi:nodetypes="cssccssscc" />
    <path
       style="color:#000000;fill:#ffffff;stroke:none;stroke-width:1px;stroke-linecap:butt;stroke-linejoin:miter;stroke-miterlimit:4;stroke-opacity:1;stroke-dasharray:none;stroke-dashoffset:0;marker:none;visibility:visible;display:inline;overflow:visible;enable-background:accumulate;filter:url(#filter4087);fill-opacity:0.62946427"
       d="m 15.556349,13.395962 c -2.637477,2.586757 -2.224492,3.889109 -0.397747,4.596194 0,0 -4.949748,-0.751301 0.397747,-4.596194 z"
       id="path3291"
       transform="translate(0,1004.3622)"
       sodipodi:nodetypes="ccc" />
    <path
       style="color:#000000;fill:#ffffff;stroke:none;stroke-width:1px;stroke-linecap:butt;stroke-linejoin:miter;stroke-miterlimit:4;stroke-opacity:1;stroke-dasharray:none;stroke-dashoffset:0;marker:none;visibility:visible;display:inline;overflow:visible;enable-background:accumulate;filter:url(#filter4083);fill-opacity:0.62946427"
       d="m 25.455844,10.30237 c 2.620673,1.129826 -2.213899,5.651672 -2.474874,5.480077 0.389694,-0.333683 6.738754,-4.292573 2.474874,-5.480077 z"
       id="path3293"
       transform="translate(0,1004.3622)"
       sodipodi:nodetypes="ccc" />
    <path
       style="color:#000000;fill:#ffffff;stroke:none;stroke-width:1px;stroke-linecap:butt;stroke-linejoin:miter;stroke-miterlimit:4;stroke-opacity:1;stroke-dasharray:none;stroke-dashoffset:0;marker:none;visibility:visible;display:inline;overflow:visible;enable-background:accumulate;filter:url(#filter4097);fill-opacity:0.77678573"
       d="m 14.318912,9.0207386 c -1.7e-5,-2.5610242 1.08171,-3.2914059 2.607457,-3.2703689 0,0 -3.535534,-0.9280776 -2.607457,3.2703689 z"
       id="path4091"
       transform="translate(0,1004.3622)"
       sodipodi:nodetypes="ccc" />
    <path
       style="color:#000000;fill:#ffffff;stroke:none;stroke-width:1px;stroke-linecap:butt;stroke-linejoin:miter;stroke-miterlimit:4;stroke-opacity:1;stroke-dasharray:none;stroke-dashoffset:0;marker:none;visibility:visible;display:inline;overflow:visible;enable-background:accumulate;filter:url(#filter4123);fill-opacity:0.8035714"
       d="m 14.584077,21.129946 c 1.465857,0.899537 3.892805,0.288787 6.142991,-0.04419 -2.66867,2.396025 -8.908592,-0.02631 -4.817165,11.490485 -1.366635,-2.95451 -3.238464,-5.438666 -1.325826,-11.446291 z"
       id="path4101"
       transform="translate(0,1004.3622)"
       sodipodi:nodetypes="cccc" />
  </g>
</svg>
