<?xml version="1.0" encoding="UTF-8" standalone="no"?>
<!-- Created with Inkscape (http://www.inkscape.org/) -->

<svg
   xmlns:dc="http://purl.org/dc/elements/1.1/"
   xmlns:cc="http://creativecommons.org/ns#"
   xmlns:rdf="http://www.w3.org/1999/02/22-rdf-syntax-ns#"
   xmlns:svg="http://www.w3.org/2000/svg"
   xmlns="http://www.w3.org/2000/svg"
   xmlns:xlink="http://www.w3.org/1999/xlink"
   xmlns:sodipodi="http://sodipodi.sourceforge.net/DTD/sodipodi-0.dtd"
   xmlns:inkscape="http://www.inkscape.org/namespaces/inkscape"
   id="svg1"
   sodipodi:version="0.32"
   inkscape:version="0.47 r22583"
   width="48"
   height="48"
   sodipodi:docname="cinco-mayo03.svg"
   version="1.1"
   inkscape:export-filename="cinco-mayo03.png"
   inkscape:export-xdpi="89.949997"
   inkscape:export-ydpi="89.949997">
  <defs
     id="defs3">
    <linearGradient
       id="linearGradient3764">
      <stop
         style="stop-color:#7ed249;stop-opacity:1;"
         offset="0"
         id="stop3766" />
      <stop
         style="stop-color:#286325;stop-opacity:1;"
         offset="1"
         id="stop3768" />
    </linearGradient>
    <linearGradient
       id="linearGradient2911">
      <stop
         id="stop2913"
         offset="0"
         style="stop-color:#9a5723;stop-opacity:1;" />
      <stop
         id="stop2915"
         offset="1"
         style="stop-color:#db9762;stop-opacity:1;" />
    </linearGradient>
    <linearGradient
       id="linearGradient3801">
      <stop
         id="stop3803"
         offset="0"
         style="stop-color:#a20000;stop-opacity:1;" />
      <stop
         id="stop3805"
         offset="1"
         style="stop-color:#d40000;stop-opacity:1;" />
    </linearGradient>
    <linearGradient
       inkscape:collect="always"
       xlink:href="#linearGradient2911"
       id="linearGradient3658"
       x1="6.2475448"
       y1="27.810928"
       x2="30.304617"
       y2="30.842506"
       gradientUnits="userSpaceOnUse"
       gradientTransform="matrix(0.98677366,-0.1621041,0.1621041,0.98677366,-4.7149206,2.5540785)" />
    <linearGradient
       inkscape:collect="always"
       xlink:href="#linearGradient2911"
       id="linearGradient3660"
       x1="23.4"
       y1="30.18421"
       x2="17.965038"
       y2="34.597874"
       gradientUnits="userSpaceOnUse" />
    <linearGradient
       inkscape:collect="always"
       xlink:href="#linearGradient2911"
       id="linearGradient3662"
       x1="35.976322"
       y1="25.778677"
       x2="22.58736"
       y2="19.493666"
       gradientUnits="userSpaceOnUse"
       gradientTransform="matrix(0.98677366,-0.1621041,0.1621041,0.98677366,-4.7149206,2.5540785)" />
    <linearGradient
       inkscape:collect="always"
       xlink:href="#linearGradient2911"
       id="linearGradient3664"
       x1="38.484211"
       y1="22.484211"
       x2="29.978947"
       y2="17.263159"
       gradientUnits="userSpaceOnUse"
       gradientTransform="matrix(0.98677366,-0.1621041,0.1621041,0.98677366,-4.7149206,2.5540785)" />
    <linearGradient
       inkscape:collect="always"
       xlink:href="#linearGradient2911"
       id="linearGradient3666"
       x1="41.4058"
       y1="28.314114"
       x2="29.741955"
       y2="18.885769"
       gradientUnits="userSpaceOnUse"
       gradientTransform="matrix(0.98677366,-0.1621041,0.1621041,0.98677366,-4.7149206,2.5540785)" />
    <linearGradient
       inkscape:collect="always"
       xlink:href="#linearGradient2911"
       id="linearGradient3668"
       x1="23.675182"
       y1="19.115028"
       x2="34.081432"
       y2="26.567659"
       gradientUnits="userSpaceOnUse"
       gradientTransform="matrix(0.98677366,-0.1621041,0.1621041,0.98677366,-4.7149206,2.5540785)" />
    <linearGradient
       inkscape:collect="always"
       xlink:href="#linearGradient2911"
       id="linearGradient3670"
       x1="34.46228"
       y1="13.509992"
       x2="44.927536"
       y2="16.753509"
       gradientUnits="userSpaceOnUse"
       gradientTransform="matrix(0.98677366,-0.1621041,0.1621041,0.98677366,-4.7149206,2.5540785)" />
    <linearGradient
       inkscape:collect="always"
       xlink:href="#linearGradient2911"
       id="linearGradient3672"
       x1="17.429041"
       y1="8.6759396"
       x2="20.692176"
       y2="7.6576972"
       gradientUnits="userSpaceOnUse" />
    <linearGradient
       inkscape:collect="always"
       xlink:href="#linearGradient2911"
       id="linearGradient3674"
       x1="18.31979"
       y1="9.2007475"
       x2="20.692176"
       y2="7.6576972"
       gradientUnits="userSpaceOnUse" />
    <linearGradient
       inkscape:collect="always"
       xlink:href="#linearGradient2911"
       id="linearGradient3676"
       x1="17.325064"
       y1="9.4931622"
       x2="20.692176"
       y2="7.6576972"
       gradientUnits="userSpaceOnUse" />
    <linearGradient
       inkscape:collect="always"
       xlink:href="#linearGradient2911"
       id="linearGradient3678"
       x1="21.170801"
       y1="9.317852"
       x2="18.399544"
       y2="7.5255737"
       gradientUnits="userSpaceOnUse" />
    <linearGradient
       inkscape:collect="always"
       xlink:href="#linearGradient2911"
       id="linearGradient3686"
       gradientUnits="userSpaceOnUse"
       x1="21.170801"
       y1="9.317852"
       x2="18.399544"
       y2="7.5255737" />
    <linearGradient
       inkscape:collect="always"
       xlink:href="#linearGradient2911"
       id="linearGradient3690"
       gradientUnits="userSpaceOnUse"
       x1="21.170801"
       y1="9.317852"
       x2="18.399544"
       y2="7.5255737" />
    <linearGradient
       inkscape:collect="always"
       xlink:href="#linearGradient2911"
       id="linearGradient3700"
       x1="40.389286"
       y1="2.8639686"
       x2="31.94278"
       y2="3.7310781"
       gradientUnits="userSpaceOnUse"
       gradientTransform="translate(-1.0418514,5.2600703)" />
    <linearGradient
       inkscape:collect="always"
       xlink:href="#linearGradient3764"
       id="linearGradient3736"
       x1="24.029934"
       y1="20"
       x2="37.40625"
       y2="27.90625"
       gradientUnits="userSpaceOnUse"
       gradientTransform="matrix(0.98677366,-0.1621041,0.1621041,0.98677366,-4.7149206,2.5540785)" />
    <linearGradient
       inkscape:collect="always"
       xlink:href="#linearGradient3764"
       id="linearGradient3738"
       x1="33.346516"
       y1="38.137276"
       x2="32.326408"
       y2="27.307823"
       gradientUnits="userSpaceOnUse"
       gradientTransform="matrix(0.98677366,-0.1621041,0.1621041,0.98677366,-4.7149206,2.5540785)" />
    <linearGradient
       inkscape:collect="always"
       xlink:href="#linearGradient3801"
       id="linearGradient3740"
       x1="41.543423"
       y1="29.707073"
       x2="32.477959"
       y2="18.59375"
       gradientUnits="userSpaceOnUse"
       gradientTransform="matrix(0.98677366,-0.1621041,0.1621041,0.98677366,-4.7149206,2.5540785)" />
    <linearGradient
       id="linearGradient3637">
      <stop
         id="stop3639"
         offset="0"
         style="stop-color:#f9f9f9;stop-opacity:0.98518521;" />
      <stop
         id="stop3641"
         offset="1"
         style="stop-color:#d5d5d5;stop-opacity:1;" />
    </linearGradient>
    <linearGradient
       inkscape:collect="always"
       xlink:href="#linearGradient3637"
       id="linearGradient3855"
       x1="33.322285"
       y1="22.180197"
       x2="38.932659"
       y2="29.80125"
       gradientUnits="userSpaceOnUse"
       gradientTransform="matrix(0.98677366,-0.1621041,0.1621041,0.98677366,-4.7149206,2.5540785)" />
    <filter
       inkscape:collect="always"
       id="filter3877"
       x="-0.11890065"
       width="1.2378013"
       y="-0.089266633"
       height="1.1785333">
      <feGaussianBlur
         inkscape:collect="always"
         stdDeviation="0.29896546"
         id="feGaussianBlur3879" />
    </filter>
    <filter
       inkscape:collect="always"
       id="filter3881"
       x="-0.13968056"
       width="1.2793611"
       y="-0.20048274"
       height="1.4009655">
      <feGaussianBlur
         inkscape:collect="always"
         stdDeviation="0.29896546"
         id="feGaussianBlur3883" />
    </filter>
    <filter
       inkscape:collect="always"
       id="filter3903"
       x="-0.18857295"
       width="1.3771459"
       y="-0.12282814"
       height="1.2456563">
      <feGaussianBlur
         inkscape:collect="always"
         stdDeviation="0.064646394"
         id="feGaussianBlur3905" />
    </filter>
    <filter
       inkscape:collect="always"
       id="filter3925"
       x="-0.13140501"
       width="1.26281"
       y="-0.11732581"
       height="1.2346516">
      <feGaussianBlur
         inkscape:collect="always"
         stdDeviation="0.086450646"
         id="feGaussianBlur3927" />
    </filter>
    <filter
       inkscape:collect="always"
       id="filter3939"
       x="-0.18081881"
       width="1.3616376"
       y="-0.11268413"
       height="1.2253683">
      <feGaussianBlur
         inkscape:collect="always"
         stdDeviation="0.13640715"
         id="feGaussianBlur3941" />
    </filter>
    <filter
       inkscape:collect="always"
       id="filter3664"
       x="-0.10199919"
       width="1.2039984"
       y="-0.58390839"
       height="2.1678168">
      <feGaussianBlur
         inkscape:collect="always"
         stdDeviation="1.413673"
         id="feGaussianBlur3666" />
    </filter>
  </defs>
  <sodipodi:namedview
     id="base"
     pagecolor="#ffffff"
     bordercolor="#666666"
     borderopacity="1.0"
     inkscape:pageopacity="0.0"
     inkscape:pageshadow="2"
     inkscape:zoom="1"
     inkscape:cx="11.82138"
     inkscape:cy="24"
     inkscape:window-width="1476"
     inkscape:window-height="962"
     inkscape:window-x="155"
     inkscape:window-y="26"
     showgrid="false"
     inkscape:window-maximized="0"
     inkscape:current-layer="svg1"
     showguides="true"
     inkscape:guide-bbox="true">
    <inkscape:grid
       type="xygrid"
       id="grid2861" />
  </sodipodi:namedview>
  <metadata
     id="metadata4">
    <rdf:RDF>
      <cc:Work
         rdf:about="">
        <dc:format>image/svg+xml</dc:format>
        <dc:type
           rdf:resource="http://purl.org/dc/dcmitype/StillImage" />
        <dc:title />
      </cc:Work>
    </rdf:RDF>
  </metadata>
  <path
     style="color:#000000;fill:url(#linearGradient3738);stroke:none;stroke-width:1px;marker:none;visibility:visible;display:inline;overflow:visible;enable-background:accumulate"
     d="m 28.259722,22.185991 c 1.865246,1.488053 3.07694,4.118898 3.318506,8.446096 0,0 5.78267,-3.001653 5.607237,-3.334897 -0.175432,-0.333245 -4.470995,-9.584337 -4.470995,-9.584337 l -4.454748,4.473138 z"
     id="path3724"
     sodipodi:nodetypes="ccscc" />
  <path
     sodipodi:type="arc"
     style="fill:#000000;fill-opacity:0.76859502;fill-rule:evenodd;stroke:none;filter:url(#filter3664)"
     id="path3692"
     sodipodi:cx="24.042105"
     sodipodi:cy="39.115791"
     sodipodi:rx="16.631578"
     sodipodi:ry="2.9052632"
     d="m 40.673683,39.115791 a 16.631578,2.9052632 0 1 1 -33.2631567,0 16.631578,2.9052632 0 1 1 33.2631567,0 z"
     transform="matrix(0.50011132,0,0,0.55494106,4.1591067,17.987366)" />
  <path
     style="fill:url(#linearGradient3658);fill-rule:evenodd;stroke:none"
     d="m 27.854019,21.633686 c -2.570286,-2.74967 -6.671387,-3.279023 -9.157929,-1.184145 -1.087864,0.916509 -1.737871,2.140863 -2.453737,2.779207 -1.808057,1.612259 -5.243767,0.146005 -7.4149688,1.975214 -3.3817003,2.849037 -3.2893738,8.190142 0.2062145,11.929693 3.4955883,3.739549 9.0707303,4.461456 12.4524303,1.612419 2.073698,-1.747062 1.911048,-5.222691 2.947212,-6.754783 0.83941,-1.241166 2.41154,-0.607758 3.570676,-1.584315 2.486543,-2.094878 2.420388,-6.02362 -0.149898,-8.77329 z"
     id="path2853"
     sodipodi:nodetypes="csssssssc" />
  <path
     style="fill:url(#linearGradient3668);fill-opacity:1;stroke:none"
     d="m 36.668082,12.738653 1.564898,1.526556 -12.303121,11.329379 c -1.878517,-0.07185 -1.886666,-1.323574 -2.347346,-2.289833 L 36.668082,12.738653 z"
     id="rect2858"
     sodipodi:nodetypes="ccccc" />
  <path
     style="fill:url(#linearGradient3670);fill-opacity:1;stroke:none"
     d="m 39.41787,8.9951559 2.978505,3.1863791 c -1.990823,0.796448 -3.308286,2.072842 -4.273462,3.600335 l -2.978505,-3.186379 c 2.366839,-1.28188 3.083828,-2.420602 4.273462,-3.6003351 z"
     id="rect3633"
     sodipodi:nodetypes="ccccc" />
  <path
     sodipodi:type="arc"
     style="fill:url(#linearGradient3660);fill-rule:evenodd;stroke:none"
     id="path3636"
     sodipodi:cx="23.4"
     sodipodi:cy="30.18421"
     sodipodi:rx="2.5999999"
     sodipodi:ry="2.8157895"
     d="m 26,30.18421 a 2.5999999,2.8157895 0 1 1 -5.2,0 2.5999999,2.8157895 0 1 1 5.2,0 z"
     transform="matrix(0.85918404,0.91914781,-0.85469252,0.72006697,25.759137,-14.828168)" />
  <path
     style="color:#000000;fill:url(#linearGradient3662);stroke:none;stroke-width:1px;marker:none;visibility:visible;display:inline;overflow:visible;enable-background:accumulate"
     d="m 35.78259,13.89529 -11.681824,9.4078 0.370011,0.580657 11.595104,-9.82727 -0.283296,-0.161184 z"
     id="path3638"
     sodipodi:nodetypes="ccccc" />
  <path
     sodipodi:nodetypes="ccccc"
     id="path3640"
     d="m 36.787116,14.875165 -11.435205,9.823156 0.465461,0.506283 11.184085,-10.108001 -0.214332,-0.221445 z"
     style="color:#000000;fill:url(#linearGradient3666);stroke:none;stroke-width:1px;marker:none;visibility:visible;display:inline;overflow:visible;enable-background:accumulate" />
  <path
     style="color:#000000;fill:url(#linearGradient3664);fill-opacity:1;stroke:none;stroke-width:1px;marker:none;visibility:visible;display:inline;overflow:visible;enable-background:accumulate"
     d="M 36.325095,14.373664 24.190513,24.323579 24.693971,24.83728 36.484824,14.640055 36.325095,14.373664 z"
     id="path3642"
     sodipodi:nodetypes="ccccc" />
  <path
     sodipodi:type="arc"
     style="fill:url(#linearGradient3676);fill-rule:evenodd;stroke:none"
     id="path3646"
     sodipodi:cx="19.679897"
     sodipodi:cy="7.6576972"
     sodipodi:rx="1.0122792"
     sodipodi:ry="1.0122792"
     d="m 20.692176,7.6576972 a 1.0122792,1.0122792 0 1 1 -2.024558,0 1.0122792,1.0122792 0 1 1 2.024558,0 z"
     transform="matrix(0.63512239,0.67944852,-0.72900243,0.61417475,31.318716,-9.3869498)" />
  <path
     transform="matrix(0.63512239,0.67944852,-0.72900243,0.61417475,29.800976,-7.8963014)"
     d="m 20.692176,7.6576972 a 1.0122792,1.0122792 0 1 1 -2.024558,0 1.0122792,1.0122792 0 1 1 2.024558,0 z"
     sodipodi:ry="1.0122792"
     sodipodi:rx="1.0122792"
     sodipodi:cy="7.6576972"
     sodipodi:cx="19.679897"
     id="path3648"
     style="fill:url(#linearGradient3674);fill-rule:evenodd;stroke:none"
     sodipodi:type="arc" />
  <path
     sodipodi:type="arc"
     style="fill:url(#linearGradient3672);fill-rule:evenodd;stroke:none"
     id="path3650"
     sodipodi:cx="19.679897"
     sodipodi:cy="7.6576972"
     sodipodi:rx="1.0122792"
     sodipodi:ry="1.0122792"
     d="m 20.692176,7.6576972 a 1.0122792,1.0122792 0 1 1 -2.024558,0 1.0122792,1.0122792 0 1 1 2.024558,0 z"
     transform="matrix(0.63512239,0.67944852,-0.72900243,0.61417475,28.013923,-6.6451011)" />
  <path
     sodipodi:type="arc"
     style="fill:url(#linearGradient3686);fill-rule:evenodd;stroke:none"
     id="path3684"
     sodipodi:cx="19.679897"
     sodipodi:cy="7.6576972"
     sodipodi:rx="1.0122792"
     sodipodi:ry="1.0122792"
     d="m 20.692176,7.6576972 a 1.0122792,1.0122792 0 1 1 -2.024558,0 1.0122792,1.0122792 0 1 1 2.024558,0 z"
     transform="matrix(-0.63512239,-0.67944852,-0.72900243,0.61417475,57.439595,24.931555)" />
  <path
     sodipodi:type="arc"
     style="fill:url(#linearGradient3690);fill-rule:evenodd;stroke:none"
     id="path3688"
     sodipodi:cx="19.679897"
     sodipodi:cy="7.6576972"
     sodipodi:rx="1.0122792"
     sodipodi:ry="1.0122792"
     d="m 20.692176,7.6576972 a 1.0122792,1.0122792 0 1 1 -2.024558,0 1.0122792,1.0122792 0 1 1 2.024558,0 z"
     transform="matrix(-0.63512239,-0.67944852,-0.72900243,0.61417475,58.821091,23.21117)" />
  <path
     transform="matrix(-0.63512239,-0.67944852,-0.72900243,0.61417475,60.644181,22.100956)"
     d="m 20.692176,7.6576972 a 1.0122792,1.0122792 0 1 1 -2.024558,0 1.0122792,1.0122792 0 1 1 2.024558,0 z"
     sodipodi:ry="1.0122792"
     sodipodi:rx="1.0122792"
     sodipodi:cy="7.6576972"
     sodipodi:cx="19.679897"
     id="path3656"
     style="fill:url(#linearGradient3678);fill-rule:evenodd;stroke:none"
     sodipodi:type="arc" />
  <rect
     style="fill:url(#linearGradient3700);fill-opacity:1;stroke:none"
     id="rect3698"
     width="6.9052629"
     height="1.7684211"
     x="31.671551"
     y="7.6733832"
     transform="matrix(0.63806812,0.76997992,-0.76997992,0.63806812,0,0)" />
  <path
     style="color:#000000;fill:url(#linearGradient3855);stroke:none;stroke-width:1px;marker:none;visibility:visible;display:inline;overflow:visible;enable-background:accumulate"
     d="m 26.775202,20.630636 c 7.269603,0.510029 3.894066,6.526283 8.83,11.578156 1.378872,-6.190425 7.035151,-2.813084 7.51949,-7.44351 -5.518661,-0.425124 -4.886681,-9.976901 -11.015305,-9.428607 -1.592098,3.374972 -5.127604,0.201092 -5.334185,5.293961 z"
     id="path3722"
     sodipodi:nodetypes="ccccc" />
  <path
     style="color:#000000;fill:url(#linearGradient3736);stroke:none;stroke-width:1px;marker:none;visibility:visible;display:inline;overflow:visible;enable-background:accumulate"
     d="m 28.767914,17.492373 c -1.094386,0.239776 -1.737215,0.222969 -1.980726,3.131583 7.269603,0.510029 3.873552,6.548503 8.809486,11.600376 0.379189,-1.702367 1.099449,-2.673017 1.92908,-3.293776 -5.985861,-5.825925 -3.012873,-9.505036 -8.75784,-11.438183 z"
     id="path3726"
     sodipodi:nodetypes="ccccc" />
  <path
     style="color:#000000;fill:url(#linearGradient3740);stroke:none;stroke-width:1px;marker:none;visibility:visible;display:inline;overflow:visible;enable-background:accumulate"
     d="m 32.0962,15.349836 c -0.21279,0.451078 -0.451952,0.752787 -0.721586,1.005268 5.14062,0.499265 1.825852,6.607236 9.318954,11.231663 1.230693,-0.413769 2.22893,-0.966977 2.421141,-2.804571 -5.518661,-0.425124 -4.889885,-9.980654 -11.018509,-9.43236 z"
     id="path3731"
     sodipodi:nodetypes="ccccc" />
  <path
     style="color:#000000;fill:#ffffff;stroke:none;stroke-width:1px;stroke-linecap:butt;stroke-linejoin:miter;stroke-miterlimit:4;stroke-opacity:1;stroke-dasharray:none;stroke-dashoffset:0;marker:none;visibility:visible;display:inline;overflow:visible;enable-background:accumulate;filter:url(#filter3877);fill-opacity:0.54910713"
     d="M 6.7368421,32.378947 C 6.4792715,28.818339 9.9140335,24.318736 12.631579,24.463158 11.872736,23.803295 5.5879379,25.730472 6.7368421,32.378947 z"
     id="path3857"
     sodipodi:nodetypes="ccc" />
  <path
     style="color:#000000;fill:#ffffff;stroke:none;stroke-width:1px;stroke-linecap:butt;stroke-linejoin:miter;stroke-miterlimit:4;stroke-opacity:1;stroke-dasharray:none;stroke-dashoffset:0;marker:none;visibility:visible;display:inline;overflow:visible;enable-background:accumulate;filter:url(#filter3881);fill-opacity:0.54910713"
     d="m 17.347368,22.905263 c 1.447259,-1.98805 3.243901,-2.927947 5.136843,-3.578947 0,0 -4.168421,0.04211 -5.136843,3.578947 z"
     id="path3859"
     sodipodi:nodetypes="ccc" />
  <path
     style="color:#000000;fill:#ffffff;stroke:none;stroke-width:1px;stroke-linecap:butt;stroke-linejoin:miter;stroke-miterlimit:4;stroke-opacity:1;stroke-dasharray:none;stroke-dashoffset:0;marker:none;visibility:visible;display:inline;overflow:visible;enable-background:accumulate;filter:url(#filter3903);fill-opacity:0.91071427"
     d="m 34.147368,11.873684 c 0.08726,-0.366134 0.172411,-0.953158 0.800001,-1.263158 -0.603509,0.210527 -0.912281,0.378948 -0.800001,1.263158 z"
     id="path3885"
     sodipodi:nodetypes="ccc" />
  <path
     style="color:#000000;fill:#ffffff;fill-opacity:0.91071424;stroke:none;stroke-width:1px;marker:none;visibility:visible;display:inline;overflow:visible;filter:url(#filter3903);enable-background:accumulate"
     d="m 35.873684,10.694737 c 0.08726,-0.366134 0.172411,-0.9531584 0.800001,-1.2631584 -0.603509,0.210527 -0.912281,0.378948 -0.800001,1.2631584 z"
     id="path3909"
     sodipodi:nodetypes="ccc" />
  <path
     style="color:#000000;fill:#ffffff;fill-opacity:0.91071424;stroke:none;stroke-width:1px;marker:none;visibility:visible;display:inline;overflow:visible;filter:url(#filter3903);enable-background:accumulate"
     d="M 37.473684,9.073684 C 37.560944,8.70755 37.646095,8.120526 38.273685,7.810526 37.670176,8.021053 37.361404,8.189474 37.473684,9.073684 z"
     id="path3911"
     sodipodi:nodetypes="ccc" />
  <path
     style="color:#000000;fill:#ffffff;fill-opacity:0.91071424;stroke:none;stroke-width:1px;marker:none;visibility:visible;display:inline;overflow:visible;filter:url(#filter3903);enable-background:accumulate"
     d="m 38.589473,16.673684 c 0.08726,-0.366134 0.172411,-0.953158 0.800001,-1.263158 -0.603509,0.210527 -0.912281,0.378948 -0.800001,1.263158 z"
     id="path3913"
     sodipodi:nodetypes="ccc" />
  <path
     style="color:#000000;fill:#ffffff;fill-opacity:0.91071424;stroke:none;stroke-width:1px;marker:none;visibility:visible;display:inline;overflow:visible;filter:url(#filter3903);enable-background:accumulate"
     d="M 40,14.947368 C 40.08726,14.581234 40.172411,13.99421 40.800001,13.68421 40.196492,13.894737 39.88772,14.063158 40,14.947368 z"
     id="path3915"
     sodipodi:nodetypes="ccc" />
  <path
     style="color:#000000;fill:#ffffff;fill-opacity:0.91071424;stroke:none;stroke-width:1px;marker:none;visibility:visible;display:inline;overflow:visible;filter:url(#filter3903);enable-background:accumulate"
     d="m 41.831579,13.810526 c 0.08726,-0.366134 0.172411,-0.953158 0.800001,-1.263158 -0.603509,0.210527 -0.912281,0.378948 -0.800001,1.263158 z"
     id="path3917"
     sodipodi:nodetypes="ccc" />
  <path
     style="color:#000000;fill:#ffffff;stroke:none;stroke-width:1px;stroke-linecap:butt;stroke-linejoin:miter;stroke-miterlimit:4;stroke-opacity:1;stroke-dasharray:none;stroke-dashoffset:0;marker:none;visibility:visible;display:inline;overflow:visible;enable-background:accumulate;filter:url(#filter3925);fill-opacity:0.82589287"
     d="m 36.905263,11.68421 -1.578947,0.905264 0.778947,0.863158 c -1.07033,-1.124273 0.362774,-1.247172 0.8,-1.768422 z"
     id="path3919"
     sodipodi:nodetypes="cccc" />
  <path
     style="color:#000000;fill:#ffffff;stroke:none;stroke-width:1px;stroke-linecap:butt;stroke-linejoin:miter;stroke-miterlimit:4;stroke-opacity:1;stroke-dasharray:none;stroke-dashoffset:0;marker:none;visibility:visible;display:inline;overflow:visible;enable-background:accumulate;filter:url(#filter3939);fill-opacity:0.84821427"
     d="m 26.926316,20.547369 c 0.434701,-1.83775 1.378687,-2.587937 1.810526,-2.905264 -1.347875,0.04348 -1.553236,0.960177 -1.810526,2.905264 z"
     id="path3929"
     sodipodi:nodetypes="ccc" />
</svg>
