<?xml version="1.0" encoding="UTF-8" standalone="no"?>
<!-- Created with Inkscape (http://www.inkscape.org/) -->

<svg
   xmlns:dc="http://purl.org/dc/elements/1.1/"
   xmlns:cc="http://creativecommons.org/ns#"
   xmlns:rdf="http://www.w3.org/1999/02/22-rdf-syntax-ns#"
   xmlns:svg="http://www.w3.org/2000/svg"
   xmlns="http://www.w3.org/2000/svg"
   xmlns:xlink="http://www.w3.org/1999/xlink"
   xmlns:sodipodi="http://sodipodi.sourceforge.net/DTD/sodipodi-0.dtd"
   xmlns:inkscape="http://www.inkscape.org/namespaces/inkscape"
   id="svg1"
   sodipodi:version="0.32"
   inkscape:version="0.47 r22583"
   width="48"
   height="48"
   sodipodi:docname="cinco-mayo02.svg"
   version="1.1"
   inkscape:export-filename="cinco-mayo02.png"
   inkscape:export-xdpi="89.949997"
   inkscape:export-ydpi="89.949997">
  <defs
     id="defs3">
    <linearGradient
       id="linearGradient3764">
      <stop
         style="stop-color:#7ed249;stop-opacity:1;"
         offset="0"
         id="stop3766" />
      <stop
         style="stop-color:#286325;stop-opacity:1;"
         offset="1"
         id="stop3768" />
    </linearGradient>
    <linearGradient
       id="linearGradient2911">
      <stop
         id="stop2913"
         offset="0"
         style="stop-color:#9a5723;stop-opacity:1;" />
      <stop
         id="stop2915"
         offset="1"
         style="stop-color:#db9762;stop-opacity:1;" />
    </linearGradient>
    <linearGradient
       id="linearGradient3801">
      <stop
         id="stop3803"
         offset="0"
         style="stop-color:#a20000;stop-opacity:1;" />
      <stop
         id="stop3805"
         offset="1"
         style="stop-color:#d40000;stop-opacity:1;" />
    </linearGradient>
    <filter
       inkscape:collect="always"
       id="filter4086"
       x="-0.23939391"
       width="1.4787878"
       y="-0.16078698"
       height="1.321574">
      <feGaussianBlur
         inkscape:collect="always"
         stdDeviation="0.26727961"
         id="feGaussianBlur4088" />
    </filter>
    <filter
       inkscape:collect="always"
       id="filter4090"
       x="-0.092868352"
       width="1.1857367"
       y="-0.17099566"
       height="1.3419913">
      <feGaussianBlur
         inkscape:collect="always"
         stdDeviation="0.26727961"
         id="feGaussianBlur4092" />
    </filter>
    <linearGradient
       inkscape:collect="always"
       xlink:href="#linearGradient2911"
       id="linearGradient2893"
       gradientUnits="userSpaceOnUse"
       x1="34.008068"
       y1="13.107218"
       x2="28.644444"
       y2="0.47563884" />
    <radialGradient
       inkscape:collect="always"
       xlink:href="#linearGradient2911"
       id="radialGradient2895"
       gradientUnits="userSpaceOnUse"
       gradientTransform="matrix(1.8855063,0.41055036,-0.13845006,0.63579056,-13.460654,0.59603089)"
       cx="16.589474"
       cy="8.8799467"
       fx="16.589474"
       fy="8.8799467"
       r="16" />
    <linearGradient
       inkscape:collect="always"
       xlink:href="#linearGradient2911"
       id="linearGradient2897"
       gradientUnits="userSpaceOnUse"
       x1="20"
       y1="4.7825403"
       x2="28"
       y2="12.40783" />
    <linearGradient
       inkscape:collect="always"
       xlink:href="#linearGradient2911"
       id="linearGradient2899"
       gradientUnits="userSpaceOnUse"
       x1="10.610526"
       y1="16.084211"
       x2="41.444443"
       y2="19.097109" />
    <linearGradient
       inkscape:collect="always"
       xlink:href="#linearGradient3764"
       id="linearGradient2901"
       gradientUnits="userSpaceOnUse"
       x1="39.966789"
       y1="13.133328"
       x2="13.73169"
       y2="22.720209" />
    <linearGradient
       inkscape:collect="always"
       xlink:href="#linearGradient3801"
       id="linearGradient2903"
       gradientUnits="userSpaceOnUse"
       x1="20.0625"
       y1="12.842363"
       x2="28"
       y2="15.486656" />
    <linearGradient
       inkscape:collect="always"
       xlink:href="#linearGradient3801"
       id="linearGradient2907"
       x1="10"
       y1="19"
       x2="28"
       y2="33"
       gradientUnits="userSpaceOnUse"
       gradientTransform="matrix(0.90974989,0,0,0.90974989,1.390537,0.24175501)" />
    <linearGradient
       inkscape:collect="always"
       xlink:href="#linearGradient3764"
       id="linearGradient3689"
       x1="31"
       y1="10"
       x2="21"
       y2="16"
       gradientUnits="userSpaceOnUse"
       gradientTransform="matrix(0.90974989,0,0,0.90974989,0.48078714,3.8807546)" />
    <filter
       inkscape:collect="always"
       id="filter3701">
      <feGaussianBlur
         inkscape:collect="always"
         stdDeviation="0.29776516"
         id="feGaussianBlur3703" />
    </filter>
    <linearGradient
       inkscape:collect="always"
       xlink:href="#linearGradient3764"
       id="linearGradient3707"
       x1="28"
       y1="9"
       x2="23"
       y2="5"
       gradientUnits="userSpaceOnUse"
       gradientTransform="matrix(0.90974989,0,0,0.90974989,0.48078714,3.8807546)" />
    <filter
       inkscape:collect="always"
       id="filter3645"
       x="-0.23379192"
       width="1.4675838"
       y="-0.84165092"
       height="2.6833018">
      <feGaussianBlur
         inkscape:collect="always"
         stdDeviation="1.7534394"
         id="feGaussianBlur3647" />
    </filter>
  </defs>
  <sodipodi:namedview
     id="base"
     pagecolor="#ffffff"
     bordercolor="#666666"
     borderopacity="1.0"
     inkscape:pageopacity="0.0"
     inkscape:pageshadow="2"
     inkscape:zoom="1"
     inkscape:cx="8.2105263"
     inkscape:cy="24"
     inkscape:window-width="1153"
     inkscape:window-height="793"
     inkscape:window-x="478"
     inkscape:window-y="26"
     showgrid="false"
     inkscape:window-maximized="0"
     inkscape:current-layer="svg1"
     showguides="true"
     inkscape:guide-bbox="true">
    <inkscape:grid
       type="xygrid"
       id="grid2861" />
  </sodipodi:namedview>
  <metadata
     id="metadata4">
    <rdf:RDF>
      <cc:Work
         rdf:about="">
        <dc:format>image/svg+xml</dc:format>
        <dc:type
           rdf:resource="http://purl.org/dc/dcmitype/StillImage" />
        <dc:title />
      </cc:Work>
    </rdf:RDF>
  </metadata>
  <path
     sodipodi:type="arc"
     style="fill:#000000;fill-opacity:0.76862744999999999;fill-rule:evenodd;stroke:none;filter:url(#filter3645)"
     id="path2909"
     sodipodi:cx="29"
     sodipodi:cy="43.5"
     sodipodi:rx="9"
     sodipodi:ry="2.5"
     d="m 38,43.5 a 9,2.5 0 1 1 -18,0 9,2.5 0 1 1 18,0 z"
     transform="matrix(0.39005851,0,0,0.51052632,15.198831,20.331579)" />
  <path
     style="color:#000000;fill:url(#linearGradient2907);stroke:none;stroke-width:1px;marker:none;visibility:visible;display:inline;overflow:visible;enable-background:accumulate"
     d="m 15.946535,22.075752 c 0,-0.775963 -2.4168,-4.836828 -1.685713,-7.786389 0.775963,-3.130609 5.324713,-1.311109 8.053963,-1.311109 3.46693,0 5.458499,-2.72925 9.017227,1.311109 2.114673,2.40087 -2.290665,13.504745 -2.261748,15.958385 0.06614,5.612099 -0.252631,7.122083 -0.252631,8.67401 0,1.551926 -0.589474,4.078242 -0.589474,4.078242 0,0 -3.879816,-0.775963 -4.655779,-3.879816 -0.775963,-3.103853 -4.896595,-11.585932 -7.625845,-17.044432 z"
     id="path2905"
     sodipodi:nodetypes="cssssscsc" />
  <path
     style="color:#000000;fill:url(#linearGradient3689);stroke:none;stroke-width:1px;marker:none;visibility:visible;display:inline;overflow:visible;enable-background:accumulate"
     d="m 21.405035,14.797753 1.819499,2.72925 0.90975,-2.72925 3.639,0 -2.72925,-1.819499 -6.368249,0 -2.72925,1.819499 2.72925,0.90975 0,2.72925 2.72925,-3.639 z"
     id="path3687"
     sodipodi:nodetypes="cccccccccc" />
  <path
     style="color:#000000;fill:#ffffff;fill-opacity:0.76339285;stroke:none;stroke-width:1px;marker:none;visibility:visible;display:inline;overflow:visible;filter:url(#filter3701);enable-background:accumulate"
     d="m 18,21 7,15 c 0,0 -7.7e-4,2.000771 1,3 1.001542,1 -3.113535,-12.705263 -8,-18 z"
     id="path3691"
     sodipodi:nodetypes="ccsc"
     transform="matrix(0.90974989,0,0,0.90974989,0.48078714,3.8807546)" />
  <path
     style="color:#000000;fill:url(#linearGradient3707);stroke:none;stroke-width:1px;marker:none;visibility:visible;display:inline;overflow:visible;enable-background:accumulate"
     d="m 20.476132,13.227238 c 0.223136,-2.737959 1.018907,-5.3941122 5.477652,-7.5269836 l 1.8195,0.9097499 c -2.122562,2.4242192 -3.83161,0.920046 -6.368249,7.2779987 l -0.928903,-0.660765 z"
     id="path3705"
     sodipodi:nodetypes="ccccc" />
  <g
     id="g2883"
     transform="matrix(0.71275241,-0.46930497,0.46930497,0.71275241,-7.3959434,15.376627)">
    <path
       sodipodi:nodetypes="csscccc"
       id="path2868"
       d="m 41,16.442105 c 0,2.209139 -11,1 -17,1 -6,0 -15,1.209139 -15,-1 0,-0.688097 -0.7634233,-2.167345 0,-3 1,-2 6.73773,-4.9999997 15,-4.9999997 7.102229,0 17,2.9999997 17,5.9999997 -0.372165,0.148866 -0.131037,1.452415 0,2 z"
       style="fill:url(#linearGradient2893);fill-rule:evenodd;stroke:none" />
    <path
       sodipodi:nodetypes="csssc"
       id="path2859"
       d="m 41,16.442105 c 0,2.209139 -11,2 -17,2 -6,0 -15,0.209139 -15,-2 0,-2.209139 3,-6 15,-6 10,0 17,3.790861 17,6 z"
       style="fill:url(#radialGradient2895);fill-opacity:1;fill-rule:evenodd;stroke:none" />
    <path
       id="path2862"
       d="m 20,13.442105 c 0,0 0,-5.9999997 2,-7.9999997 2,-2 5,1 5,3 0,1.9999997 1,5.9999997 1,5.9999997 0,0 -1.747368,2.915789 -8,-1 z"
       style="color:#000000;fill:url(#linearGradient2897);stroke:none;stroke-width:1px;marker:none;visibility:visible;display:inline;overflow:visible;enable-background:accumulate" />
    <path
       style="fill:url(#linearGradient2899);fill-opacity:1;fill-rule:evenodd;stroke:none"
       d="M 40.940454,16.79938 C 40.940454,19.008519 30,19.097109 24,19.097109 18,19.097109 9,18.651244 9,16.442105 9,15.754008 8.1770309,14.632035 8.9404542,13.79938 9.2259042,15.871205 15.73773,16.442105 24,16.442105 c 7.102229,0 15.535913,0.679563 17,-2 0,0 0.464087,0.344996 -0.05955,2.357275 z"
       id="path2864"
       sodipodi:nodetypes="csscccc" />
    <path
       sodipodi:nodetypes="cccccccccccscccccccscsscccccccssscscccccccccssccccccccc"
       id="path3042"
       d="m 41,14.4375 c -0.134261,0.245724 -0.180248,0.337592 -0.425329,0.529934 L 39.875,17.125 l -1,-1.3125 c -0.324013,0.09887 -0.654088,0.207879 -1.03125,0.28125 L 36.8125,18.28125 35.40625,16.375 c -0.392106,0.02933 -0.771241,0.07591 -1.1875,0.09375 l -1.59375,2.125 c -0.382375,-0.566824 -0.870379,-1.543489 -1.3125,-2.0625 -0.502605,6.7e-5 -1.016752,-0.02585 -1.53125,-0.03125 -0.04007,0.04449 -0.0847,0.07278 -0.125,0.125 -0.437689,0.554408 -0.679685,1.533044 -1.0625,2.125 l -1.625,-2.28125 c -0.546276,-0.0082 -1.084402,-0.02613 -1.625,-0.03125 l -2.15625,2.375 -1.5,-2.40625 c -0.346108,-0.0052 -0.693931,0.0078 -1.03125,0 -0.743239,0.672479 -1.491079,1.640857 -2.25,2.21875 -0.261996,-0.272365 -0.511768,-1.082624 -0.75,-1.375 -0.387961,-0.505525 -0.619564,-0.846138 -0.75,-1.03125 -0.409276,-0.02743 -0.833893,-0.02846 -1.21875,-0.0625 -0.01099,-9.72e-4 -0.02028,9.77e-4 -0.03125,0 -0.705906,0.616379 -1.411044,1.41734 -2.09375,1.96875 -0.66196,-0.691316 -1.215779,-1.723759 -1.78125,-2.5625 -0.418242,-0.100365 -0.791904,-0.190707 -1.125,-0.3125 L 9.0625,16.71875 c 0.079567,0.222386 0.2692656,0.409412 0.53125,0.59375 l 1.4375,-1.46875 c 0.432965,0.951788 1.094124,1.730441 1.78125,2.5 0.444173,0.08025 0.882881,0.185521 1.375,0.25 0.01218,-0.01756 -0.0037,0.0033 0.03125,-0.03125 0.06979,-0.06911 0.159747,-0.145854 0.28125,-0.25 0.543394,-0.485394 1.227964,-1.379511 1.8125,-1.8125 0.410218,0.63082 0.805022,1.670244 1.28125,2.25 0.05878,0.06514 0.126375,0.102762 0.1875,0.15625 0.377126,0.0234 0.7449,0.0756 1.125,0.09375 0.76671,-0.654482 1.507531,-1.656025 2.25,-2.25 l 1.5,2.3125 c 0.418773,0.0046 0.853273,0.03096 1.25,0.03125 l 2.375,-2.3125 1.53125,2.28125 c 0.48235,-0.0067 0.87951,0.01135 1.375,0 0.445097,-0.777791 0.947379,-1.796068 1.375,-2.4375 0.380449,0.804524 0.865337,1.571002 1.40625,2.3125 0.0035,0.0049 0.02771,-0.0048 0.03125,0 0.418546,-0.01973 0.809364,-0.03708 1.21875,-0.0625 l 1.65625,-2.1875 1.40625,1.90625 c 0.368048,-0.04534 0.757118,-0.07086 1.09375,-0.125 l 1.09375,-2.09375 1.28125,1.5 c 0.405739,-0.156865 0.704376,-0.331283 0.90625,-0.53125 L 41.125,15.90625 C 41.30616,14.700352 41,14.4375 41,14.4375 z"
       style="font-size:medium;font-style:normal;font-variant:normal;font-weight:normal;font-stretch:normal;text-indent:0;text-align:start;text-decoration:none;line-height:normal;letter-spacing:normal;word-spacing:normal;text-transform:none;direction:ltr;block-progression:tb;writing-mode:lr-tb;text-anchor:start;color:#000000;fill:url(#linearGradient2901);fill-opacity:1;stroke:none;stroke-width:1px;marker:none;visibility:visible;display:inline;overflow:visible;enable-background:accumulate;font-family:Bitstream Vera Sans;-inkscape-font-specification:Bitstream Vera Sans" />
    <path
       sodipodi:nodetypes="ccccccccccccccccccccccccccc"
       id="path3055"
       d="M 20.543067,10.198071 20.3125,10.34989 c -0.140218,0.880455 -0.209979,1.192779 -0.25,1.83761 l 0.15625,1.375 c 0.381726,0.23311 0.745885,0.441383 1.09375,0.625 l 0.59375,-1.46875 0.3125,1.90625 c 0.400688,0.179466 0.773761,0.352664 1.125,0.46875 l 0.8125,-2.25 0.65625,2.59375 c 0.423981,0.05513 0.797458,0.06137 1.125,0.03125 l 0.46875,-2.9375 1.46875,2 0.03125,0.03125 C 27.966242,14.490419 28,14.4375 28,14.4375 c 0,0 -0.21432,-0.955386 -0.4375,-2.03125 L 26.5,11 l -0.875,0.21875 -0.34375,2.0625 -0.5625,-2.25 -0.9375,-0.0625 -0.78125,2.125 -0.375,-2.28125 -0.96875,-0.09375 -0.59375,1.4375 -0.21875,-1.875 -0.300683,-0.08318 z"
       style="font-size:medium;font-style:normal;font-variant:normal;font-weight:normal;font-stretch:normal;text-indent:0;text-align:start;text-decoration:none;line-height:normal;letter-spacing:normal;word-spacing:normal;text-transform:none;direction:ltr;block-progression:tb;writing-mode:lr-tb;text-anchor:start;color:#000000;fill:url(#linearGradient2903);fill-opacity:1;stroke:none;stroke-width:1px;marker:none;visibility:visible;display:inline;overflow:visible;enable-background:accumulate;font-family:Bitstream Vera Sans;-inkscape-font-specification:Bitstream Vera Sans" />
    <path
       sodipodi:nodetypes="ccc"
       id="path4054"
       d="m 20.900588,9.0570244 c 0.74113,-1.2864119 0.929182,-2.4148017 2.679563,-3.9895708 -0.90367,0 -2.525039,0.8336416 -2.679563,3.9895708 z"
       style="color:#000000;fill:#ffffff;fill-opacity:0.78125;stroke:none;stroke-width:1px;marker:none;visibility:visible;display:inline;overflow:visible;filter:url(#filter4086);enable-background:accumulate" />
    <path
       sodipodi:nodetypes="ccc"
       id="path4056"
       d="m 10.241884,15.249792 c 1.372341,-1.366725 3.03055,-2.697716 6.907316,-3.751388 0,0 -6.550041,0.774096 -6.907316,3.751388 z"
       style="color:#000000;fill:#ffffff;fill-opacity:0.78125;stroke:none;stroke-width:1px;marker:none;visibility:visible;display:inline;overflow:visible;filter:url(#filter4090);enable-background:accumulate" />
  </g>
</svg>
