<?xml version="1.0" encoding="UTF-8" standalone="no"?>
<!-- Created with Inkscape (http://www.inkscape.org/) -->

<svg
   xmlns:dc="http://purl.org/dc/elements/1.1/"
   xmlns:cc="http://creativecommons.org/ns#"
   xmlns:rdf="http://www.w3.org/1999/02/22-rdf-syntax-ns#"
   xmlns:svg="http://www.w3.org/2000/svg"
   xmlns="http://www.w3.org/2000/svg"
   xmlns:xlink="http://www.w3.org/1999/xlink"
   xmlns:sodipodi="http://sodipodi.sourceforge.net/DTD/sodipodi-0.dtd"
   xmlns:inkscape="http://www.inkscape.org/namespaces/inkscape"
   id="svg1"
   sodipodi:version="0.32"
   inkscape:version="0.47 r22583"
   width="48"
   height="48"
   sodipodi:docname="easter03.svg"
   version="1.1"
   inkscape:export-filename="easter03.png"
   inkscape:export-xdpi="89.949997"
   inkscape:export-ydpi="89.949997">
  <defs
     id="defs3">
    <linearGradient
       id="linearGradient3599-5">
      <stop
         id="stop3601-0"
         offset="0"
         style="stop-color:#642e00;stop-opacity:1;" />
      <stop
         id="stop3603-9"
         offset="1"
         style="stop-color:#664532;stop-opacity:1;" />
    </linearGradient>
    <linearGradient
       inkscape:collect="always"
       xlink:href="#linearGradient3599-5"
       id="linearGradient3067"
       x1="30.91309"
       y1="24.137264"
       x2="20"
       y2="8"
       gradientUnits="userSpaceOnUse"
       gradientTransform="matrix(0.84987572,0,0,0.84987572,-4.4467943,4.1113759)" />
    <linearGradient
       inkscape:collect="always"
       xlink:href="#linearGradient3599-5"
       id="linearGradient3075"
       x1="30"
       y1="9"
       x2="23"
       y2="7"
       gradientUnits="userSpaceOnUse"
       gradientTransform="matrix(0.93246286,-0.09252883,0.11913023,1.2005394,-8.0308652,3.0046708)" />
    <linearGradient
       inkscape:collect="always"
       xlink:href="#linearGradient3599-5"
       id="linearGradient3077"
       x1="32.720871"
       y1="10.217336"
       x2="29"
       y2="8"
       gradientUnits="userSpaceOnUse"
       gradientTransform="matrix(0.91884663,0.18376464,-0.2365957,1.1830086,-4.0450893,-5.2464866)" />
    <linearGradient
       inkscape:collect="always"
       xlink:href="#linearGradient3599-5"
       id="linearGradient3085"
       x1="32"
       y1="42"
       x2="23"
       y2="24"
       gradientUnits="userSpaceOnUse"
       gradientTransform="matrix(0.84987572,0,0,0.84987572,-4.4467943,4.1113759)" />
    <linearGradient
       inkscape:collect="always"
       xlink:href="#linearGradient3599-5"
       id="linearGradient3093"
       x1="39"
       y1="45"
       x2="28"
       y2="35"
       gradientUnits="userSpaceOnUse"
       gradientTransform="matrix(0.84987572,0,0,0.84987572,-4.4467943,4.1113759)" />
    <linearGradient
       inkscape:collect="always"
       xlink:href="#linearGradient3599-5"
       id="linearGradient3095"
       x1="21.30043"
       y1="42.077351"
       x2="16"
       y2="35"
       gradientUnits="userSpaceOnUse"
       gradientTransform="matrix(0.84987572,0,0,0.84987572,-4.4467943,4.1113759)" />
    <linearGradient
       inkscape:collect="always"
       xlink:href="#linearGradient3599-5"
       id="linearGradient3103"
       x1="27.897436"
       y1="35.076923"
       x2="38.923077"
       y2="49.410255"
       gradientUnits="userSpaceOnUse"
       gradientTransform="matrix(0.84987572,0,0,0.84987572,-4.6264668,4.1113759)" />
    <linearGradient
       inkscape:collect="always"
       xlink:href="#linearGradient3599-5"
       id="linearGradient3105"
       x1="24.224293"
       y1="32.814625"
       x2="17"
       y2="22"
       gradientUnits="userSpaceOnUse"
       gradientTransform="matrix(0.84987572,0,0,0.84987572,-4.4467943,4.1113759)" />
    <linearGradient
       inkscape:collect="always"
       xlink:href="#linearGradient3599-5"
       id="linearGradient3107"
       x1="34.528656"
       y1="32.633846"
       x2="30"
       y2="27"
       gradientUnits="userSpaceOnUse"
       gradientTransform="matrix(0.84987572,0,0,0.84987572,-4.4467943,4.1113759)" />
    <linearGradient
       inkscape:collect="always"
       xlink:href="#linearGradient3599-5"
       id="linearGradient3125"
       x1="23"
       y1="16"
       x2="28"
       y2="18.528261"
       gradientUnits="userSpaceOnUse"
       gradientTransform="translate(-4.0479361,0)" />
    <linearGradient
       inkscape:collect="always"
       xlink:href="#linearGradient3599-5"
       id="linearGradient3127"
       x1="16"
       y1="14"
       x2="22"
       y2="19"
       gradientUnits="userSpaceOnUse"
       gradientTransform="translate(-4.0479361,0)" />
    <linearGradient
       id="linearGradient3764">
      <stop
         id="stop3766"
         offset="0"
         style="stop-color:#7ed249;stop-opacity:1;" />
      <stop
         id="stop3768"
         offset="1"
         style="stop-color:#286325;stop-opacity:1;" />
    </linearGradient>
    <linearGradient
       inkscape:collect="always"
       xlink:href="#linearGradient3764"
       id="linearGradient3231"
       x1="21.975689"
       y1="30.7917"
       x2="25.986465"
       y2="35.585308"
       gradientUnits="userSpaceOnUse"
       gradientTransform="translate(-4.0479361,0)" />
    <radialGradient
       inkscape:collect="always"
       xlink:href="#linearGradient3764"
       id="radialGradient3235"
       cx="24.616512"
       cy="27.906038"
       fx="24.616512"
       fy="27.906038"
       r="1.0479361"
       gradientTransform="matrix(0.32020257,2.2426932,-1.5509804,0.22144271,60.01596,-33.737073)"
       gradientUnits="userSpaceOnUse" />
    <linearGradient
       id="linearGradient2868">
      <stop
         style="stop-color:#d700d7;stop-opacity:1;"
         offset="0"
         id="stop2870" />
      <stop
         style="stop-color:#6e006e;stop-opacity:1;"
         offset="1"
         id="stop2872" />
    </linearGradient>
    <radialGradient
       inkscape:collect="always"
       xlink:href="#linearGradient2868"
       id="radialGradient3341"
       cx="22.951151"
       cy="21.830271"
       fx="22.951151"
       fy="21.830271"
       r="1.4055635"
       gradientTransform="matrix(1.9999997,5.8486365e-7,-7.5718618e-7,2.5892738,-26.999064,-34.694292)"
       gradientUnits="userSpaceOnUse" />
    <linearGradient
       id="linearGradient3637">
      <stop
         id="stop3639"
         offset="0"
         style="stop-color:#f9f9f9;stop-opacity:0.98518521;" />
      <stop
         id="stop3641"
         offset="1"
         style="stop-color:#d5d5d5;stop-opacity:1;" />
    </linearGradient>
    <linearGradient
       inkscape:collect="always"
       xlink:href="#linearGradient3637"
       id="linearGradient4240"
       x1="19.963368"
       y1="9.29315"
       x2="21.071337"
       y2="13.712215"
       gradientUnits="userSpaceOnUse"
       gradientTransform="translate(-4.0479361,0)" />
    <linearGradient
       inkscape:collect="always"
       xlink:href="#linearGradient3637"
       id="linearGradient4242"
       x1="27.483356"
       y1="9.267643"
       x2="28.932751"
       y2="11.952064"
       gradientUnits="userSpaceOnUse"
       gradientTransform="translate(-4.0479361,0)" />
    <linearGradient
       inkscape:collect="always"
       xlink:href="#linearGradient3637"
       id="linearGradient4244"
       x1="19.941412"
       y1="26.013315"
       x2="21.245834"
       y2="28.51725"
       gradientUnits="userSpaceOnUse"
       gradientTransform="translate(-4.0479361,0)" />
    <linearGradient
       inkscape:collect="always"
       xlink:href="#linearGradient3637"
       id="linearGradient4246"
       x1="26.141146"
       y1="26.524633"
       x2="26.935469"
       y2="28.696922"
       gradientUnits="userSpaceOnUse"
       gradientTransform="translate(-4.0479361,0)" />
    <filter
       inkscape:collect="always"
       id="filter4250"
       x="-0.19636104"
       width="1.3927221"
       y="-0.20037376"
       height="1.4007475">
      <feGaussianBlur
         inkscape:collect="always"
         stdDeviation="0.36977876"
         id="feGaussianBlur4252" />
    </filter>
    <filter
       inkscape:collect="always"
       id="filter4260"
       x="-0.3113882"
       width="1.6227764"
       y="-0.12030243"
       height="1.2406049">
      <feGaussianBlur
         inkscape:collect="always"
         stdDeviation="0.22434333"
         id="feGaussianBlur4262" />
    </filter>
    <filter
       inkscape:collect="always"
       id="filter4270"
       x="-0.18411863"
       width="1.3682373"
       y="-0.087917694"
       height="1.1758354">
      <feGaussianBlur
         inkscape:collect="always"
         stdDeviation="0.18873661"
         id="feGaussianBlur4272" />
    </filter>
    <filter
       inkscape:collect="always"
       id="filter4280"
       x="-0.18357822"
       width="1.3671564"
       y="-0.11819246"
       height="1.2363849">
      <feGaussianBlur
         inkscape:collect="always"
         stdDeviation="0.16939176"
         id="feGaussianBlur4282" />
    </filter>
    <filter
       inkscape:collect="always"
       id="filter4298"
       x="-0.11714875"
       width="1.2342975"
       y="-0.093719015"
       height="1.187438">
      <feGaussianBlur
         inkscape:collect="always"
         stdDeviation="0.11471391"
         id="feGaussianBlur4300" />
    </filter>
    <filter
       inkscape:collect="always"
       id="filter4312"
       x="-0.18164418"
       width="1.3632884"
       y="-0.14086694"
       height="1.2817339">
      <feGaussianBlur
         inkscape:collect="always"
         stdDeviation="0.12998109"
         id="feGaussianBlur4314" />
    </filter>
    <filter
       inkscape:collect="always"
       id="filter4336"
       x="-0.29602647"
       width="1.5920529"
       y="-0.11520821"
       height="1.2304164">
      <feGaussianBlur
         inkscape:collect="always"
         stdDeviation="0.11932407"
         id="feGaussianBlur4338" />
    </filter>
    <filter
       inkscape:collect="always"
       id="filter4340"
       x="-0.29516497"
       width="1.5903299"
       y="-0.04837062"
       height="1.0967412">
      <feGaussianBlur
         inkscape:collect="always"
         stdDeviation="0.11932407"
         id="feGaussianBlur4342" />
    </filter>
    <filter
       inkscape:collect="always"
       id="filter4346"
       x="-0.25013036"
       width="1.5002607"
       y="-0.20140794"
       height="1.4028159">
      <feGaussianBlur
         inkscape:collect="always"
         stdDeviation="0.1365964"
         id="feGaussianBlur4348" />
    </filter>
    <filter
       inkscape:collect="always"
       id="filter4378"
       x="-0.17979798"
       width="1.359596"
       y="-0.07958271"
       height="1.1591654">
      <feGaussianBlur
         inkscape:collect="always"
         stdDeviation="0.18283259"
         id="feGaussianBlur4380" />
    </filter>
    <filter
       inkscape:collect="always"
       id="filter4382"
       x="-0.12775122"
       width="1.2555024"
       y="-0.13120392"
       height="1.2624078">
      <feGaussianBlur
         inkscape:collect="always"
         stdDeviation="0.18283259"
         id="feGaussianBlur4384" />
    </filter>
    <linearGradient
       id="linearGradient3613">
      <stop
         style="stop-color:#ff5959;stop-opacity:1;"
         offset="0"
         id="stop3615" />
      <stop
         style="stop-color:#d90000;stop-opacity:1;"
         offset="1"
         id="stop3617" />
    </linearGradient>
    <radialGradient
       r="5.678896"
       fy="26.688269"
       fx="22.572855"
       cy="26.688269"
       cx="22.572855"
       gradientTransform="matrix(1.6441906,1.8829216,-1.7040286,1.4879784,34.099048,-60.559868)"
       gradientUnits="userSpaceOnUse"
       id="radialGradient4553"
       xlink:href="#linearGradient3613"
       inkscape:collect="always" />
    <filter
       inkscape:collect="always"
       id="filter4580">
      <feGaussianBlur
         inkscape:collect="always"
         stdDeviation="0.27892562"
         id="feGaussianBlur4582" />
    </filter>
    <filter
       inkscape:collect="always"
       id="filter4586"
       x="-0.63381998"
       width="2.26764"
       y="-0.60645329"
       height="2.2129066">
      <feGaussianBlur
         inkscape:collect="always"
         stdDeviation="1.2978999"
         id="feGaussianBlur4588" />
    </filter>
    <filter
       inkscape:collect="always"
       id="filter3701"
       x="-0.052700756"
       width="1.1054015"
       y="-0.15348873"
       height="1.3069775">
      <feGaussianBlur
         inkscape:collect="always"
         stdDeviation="0.59356971"
         id="feGaussianBlur3703" />
    </filter>
  </defs>
  <sodipodi:namedview
     id="base"
     pagecolor="#ffffff"
     bordercolor="#666666"
     borderopacity="1.0"
     inkscape:pageopacity="0.0"
     inkscape:pageshadow="2"
     inkscape:zoom="1"
     inkscape:cx="24"
     inkscape:cy="24"
     inkscape:window-width="1604"
     inkscape:window-height="974"
     inkscape:window-x="68"
     inkscape:window-y="24"
     showgrid="false"
     inkscape:window-maximized="0"
     inkscape:current-layer="svg1">
    <inkscape:grid
       type="xygrid"
       id="grid2861" />
  </sodipodi:namedview>
  <metadata
     id="metadata4">
    <rdf:RDF>
      <cc:Work
         rdf:about="">
        <dc:format>image/svg+xml</dc:format>
        <dc:type
           rdf:resource="http://purl.org/dc/dcmitype/StillImage" />
        <dc:title />
      </cc:Work>
    </rdf:RDF>
  </metadata>
  <path
     style="fill:#000000;fill-opacity:0.76862745;fill-rule:evenodd;stroke:none;filter:url(#filter3701)"
     d="m 31.15342,34.94033 c -2.950502,0 -5.34375,1.653986 -5.34375,3.6875 0,0.322839 0.07427,0.639126 0.1875,0.9375 -0.770326,0.0022 -1.480351,0.07831 -2.125,0.21875 -0.86291,-0.568097 -2.339278,-0.9375 -4.03125,-0.9375 -2.001082,0 -3.704108,0.533224 -4.4375,1.28125 -0.364508,-0.03792 -0.733501,-0.0625 -1.125,-0.0625 -2.668109,0 -4.8124996,0.942715 -4.8124996,2.09375 0,1.151035 2.1443906,2.0625 4.8124996,2.0625 2.001082,0 3.735358,-0.501974 4.46875,-1.25 0.353568,0.03554 0.715093,0.03125 1.09375,0.03125 0.782258,0 1.502621,-0.07636 2.15625,-0.21875 0.862657,0.568717 2.274263,1.161202 3.967335,1.161202 2.143381,0 4.025735,-0.827622 4.657665,-1.661202 0.179594,0.01257 0.346844,0.03125 0.53125,0.03125 2.950502,0 5.34375,-1.653986 5.34375,-3.6875 0,-2.033514 -2.393248,-3.6875 -5.34375,-3.6875 z"
     id="path3343"
     sodipodi:nodetypes="csccscssscscscssc" />
  <path
     sodipodi:nodetypes="csssc"
     id="path3115-9"
     d="m 29,15.022636 c 5.128328,-0.197507 9.612324,6.632554 9.878462,13.54308 C 39.144599,35.476237 37.803173,41.138293 30.07468,41.43593 20.674265,41.79796 20.573262,36.191458 20.307123,29.280934 20.040983,22.370408 23.871661,15.220138 29,15.022636 z"
     style="fill:url(#radialGradient4553);fill-opacity:1;fill-rule:evenodd;stroke:none" />
  <path
     style="color:#000000;fill:#ffffff;stroke:none;stroke-width:1px;stroke-linecap:butt;stroke-linejoin:miter;stroke-miterlimit:4;stroke-opacity:1;stroke-dasharray:none;stroke-dashoffset:0;marker:none;visibility:visible;display:inline;overflow:visible;enable-background:accumulate;filter:url(#filter4580)"
     d="m 29,14 c -5,2 -7,5 -7,11 1,-4 2,-8 7,-11 z"
     id="path4574"
     sodipodi:nodetypes="ccc" />
  <path
     style="color:#000000;fill:url(#linearGradient3085);fill-opacity:1;stroke:none;stroke-width:1px;marker:none;visibility:visible;display:inline;overflow:visible;enable-background:accumulate"
     d="m 14.577347,23.614934 c -0.963676,4.36318 -4.060079,6.749677 -3.726378,11.091968 0.849876,3.399502 5.846926,7.779104 9.348633,7.648881 4.097016,-0.152361 8.498756,-3.862209 8.498756,-6.799005 0,-4.249379 -3.813544,-10.242092 -3.813544,-11.941844 0,-0.849876 -10.153828,0.153639 -10.307467,0 z"
     id="path2913"
     sodipodi:nodetypes="ccsssc" />
  <path
     style="color:#000000;fill:url(#linearGradient3103);fill-opacity:1;stroke:none;stroke-width:1px;marker:none;visibility:visible;display:inline;overflow:visible;enable-background:accumulate"
     d="m 20.019929,25.358269 c 0,0 -4.249378,7.648882 -4.249378,10.198509 0,3.168597 -6.0580891,6.799005 4.249378,6.799005 7.49634,0 4.249379,-2.549627 4.249379,-5.94913 0,-3.399502 -4.249379,-11.048384 -4.249379,-11.048384 z"
     id="path2915"
     sodipodi:nodetypes="csssc" />
  <path
     style="color:#000000;fill:url(#linearGradient4244);fill-opacity:1;stroke:none;stroke-width:1px;marker:none;visibility:visible;display:inline;overflow:visible;enable-background:accumulate"
     d="m 14.959151,24.145219 c 0,0 -0.411253,2.420085 3.174216,4.372032 0.597229,-0.835152 1.317599,-2.75498 1.317599,-2.75498 l -4.491815,-1.617052 z"
     id="path3117"
     sodipodi:nodetypes="cccc" />
  <path
     sodipodi:nodetypes="cccc"
     id="path3119"
     d="m 25.12628,24.324891 c 0,0 0.411253,2.420085 -3.174216,4.372032 -0.59723,-0.835152 -1.317599,-2.75498 -1.317599,-2.75498 l 4.491815,-1.617052 z"
     style="color:#000000;fill:url(#linearGradient4246);fill-opacity:1;stroke:none;stroke-width:1px;marker:none;visibility:visible;display:inline;overflow:visible;enable-background:accumulate" />
  <path
     style="color:#000000;fill:url(#linearGradient3067);fill-opacity:1;stroke:none;stroke-width:1px;marker:none;visibility:visible;display:inline;overflow:visible;enable-background:accumulate"
     d="m 16.371302,14.79215 c 0,0 -0.856913,1.326444 -2.12083,4.616989 -1.253578,5.246243 1.115396,6.692371 5.94913,6.799006 4.074727,0.490514 7.235096,-2.694859 5.94913,-6.799006 -0.849876,-1.699752 -2.549627,-4.249379 -2.549627,-4.249379 0,0 -2.792665,-3.284848 -7.227803,-0.36761 z"
     id="path2893"
     sodipodi:nodetypes="cccccc" />
  <path
     style="color:#000000;fill:url(#linearGradient3075);fill-opacity:1;stroke:none;stroke-width:1px;marker:none;visibility:visible;display:inline;overflow:visible;enable-background:accumulate"
     d="m 16.451432,3 c 0,0 3.568219,3.4518697 3.834602,6.1363574 0.238261,2.4010786 1.528114,5.9101696 -1.269274,6.1877566 -2.797389,0.277585 -2.797389,0.277585 -4.087243,-3.231505 C 13.639664,8.58352 14.677269,4.7073727 16.451432,3 z"
     id="path2897"
     sodipodi:nodetypes="csssc" />
  <path
     sodipodi:nodetypes="csssc"
     id="path2899"
     d="m 24.884814,3 c 0,0 -3.890333,3.0842991 -4.419377,5.7295866 -0.473192,2.3660184 -2.101826,5.7312794 0.654714,6.2825734 2.75654,0.551294 2.75654,0.551294 4.385173,-2.813968 C 27.13396,8.8329308 26.482502,4.8735435 24.884814,3 z"
     style="color:#000000;fill:url(#linearGradient3077);fill-opacity:1;stroke:none;stroke-width:1px;marker:none;visibility:visible;display:inline;overflow:visible;enable-background:accumulate" />
  <path
     style="color:#000000;fill:url(#linearGradient3095);fill-opacity:1;stroke:none;stroke-width:1px;marker:none;visibility:visible;display:inline;overflow:visible;enable-background:accumulate"
     d="m 12.55072,36.406653 c -2.341882,0.586551 -3.5633501,4.559955 -2.549627,5.94913 1.699752,0.849876 6.799006,1.699751 7.648882,0 0.380075,-0.760151 -4.823046,-2.298773 -5.099255,-5.94913 z"
     id="path2905"
     sodipodi:nodetypes="ccsc" />
  <path
     style="color:#000000;fill:url(#linearGradient4242);fill-opacity:1;stroke:none;stroke-width:1px;marker:none;visibility:visible;display:inline;overflow:visible;enable-background:accumulate"
     d="m 24.884814,4.8740849 c -0.937042,3.7481699 -4.685212,7.4963401 -2.811127,8.4333821 1.874085,0 2.811127,-4.6852122 2.811127,-8.4333821 z"
     id="path3111"
     sodipodi:nodetypes="ccc" />
  <path
     sodipodi:nodetypes="ccc"
     id="path3113"
     d="m 16.451432,4.8740849 c 0.119184,3.8616863 2.985297,8.3207161 0.954897,8.8381301 -1.831286,-0.39823 -1.751355,-5.1755584 -0.954897,-8.8381301 z"
     style="color:#000000;fill:url(#linearGradient4240);stroke:none;stroke-width:1px;marker:none;visibility:visible;display:inline;overflow:visible;enable-background:accumulate" />
  <path
     sodipodi:nodetypes="ccsc"
     id="path2907"
     d="m 27.848483,36.406653 c 2.341882,0.586551 3.56335,4.559955 2.549627,5.94913 -1.699752,0.849876 -6.799005,1.699751 -7.648881,0 -0.380076,-0.760151 4.823045,-2.298773 5.099254,-5.94913 z"
     style="color:#000000;fill:url(#linearGradient3093);stroke:none;stroke-width:1px;marker:none;visibility:visible;display:inline;overflow:visible;enable-background:accumulate" />
  <path
     style="color:#000000;fill:url(#linearGradient3105);fill-opacity:1;stroke:none;stroke-width:1px;marker:none;visibility:visible;display:inline;overflow:visible;enable-background:accumulate"
     d="m 14.250472,24.508393 c -2.710878,-0.07789 -2.3299,3.156299 -1.699752,5.099255 0.849876,2.549627 2.549628,5.099254 4.249379,4.249379 1.699752,-0.849876 2.549627,-1.699752 1.699752,-3.399503 -1.370385,-2.740767 -4.155974,-2.469952 -4.249379,-5.949131 z"
     id="path2901"
     sodipodi:nodetypes="ccssc" />
  <path
     style="color:#000000;fill:url(#radialGradient3341);stroke:none;stroke-width:1px;marker:none;visibility:visible;display:inline;overflow:visible;enable-background:accumulate"
     d="m 18.903214,21.103261 c 1.038496,-0.811627 1.929349,-0.442111 2.811127,0 -0.345058,0.684659 -0.625861,1.401446 -1.275176,1.933976 -1.132306,-0.556041 -1.518615,-1.218654 -1.535951,-1.933976 z"
     id="path3115"
     sodipodi:nodetypes="cccc" />
  <path
     style="color:#000000;fill:url(#linearGradient3127);stroke:none;stroke-width:1px;marker:none;visibility:visible;display:inline;overflow:visible;enable-background:accumulate"
     d="m 16.952064,17 c 0,0 -1,1 -1,2 0,1.414214 3,1 3,1 0,0 0,-2 -2,-3 z"
     id="path3121"
     sodipodi:nodetypes="cscc" />
  <path
     sodipodi:nodetypes="cscc"
     id="path3123"
     d="m 22.952064,17 c 0,0 1,1 1,2 0,1.414214 -3,1 -3,1 0,0 0,-2 2,-3 z"
     style="color:#000000;fill:url(#linearGradient3125);stroke:none;stroke-width:1px;marker:none;visibility:visible;display:inline;overflow:visible;enable-background:accumulate" />
  <path
     sodipodi:type="arc"
     style="fill:#000000;fill-rule:evenodd;stroke:none"
     id="path3129"
     sodipodi:cx="0.42476699"
     sodipodi:cy="16.083889"
     sodipodi:rx="1.575233"
     sodipodi:ry="1.575233"
     d="m 2,16.083889 a 1.575233,1.575233 0 1 1 -3.150466,0 1.575233,1.575233 0 1 1 3.150466,0 z"
     transform="matrix(0.55367708,0,0,0.55367708,17.100369,9.9442535)" />
  <path
     transform="matrix(0.55367708,0,0,0.55367708,22.277466,9.9442535)"
     d="m 2,16.083889 a 1.575233,1.575233 0 1 1 -3.150466,0 1.575233,1.575233 0 1 1 3.150466,0 z"
     sodipodi:ry="1.575233"
     sodipodi:rx="1.575233"
     sodipodi:cy="16.083889"
     sodipodi:cx="0.42476699"
     id="path3131"
     style="fill:#000000;fill-rule:evenodd;stroke:none"
     sodipodi:type="arc" />
  <path
     style="color:#000000;fill:url(#linearGradient3231);stroke:none;stroke-width:1px;marker:none;visibility:visible;display:inline;overflow:visible;enable-background:accumulate"
     d="m 19.207723,28 c 0.282755,5.437258 -1.507207,6.890478 -1.255659,10 0.94228,1.372058 2.08017,2.174288 3.958722,-0.06392 C 22.159256,34.187436 20.648907,32.246124 20.952064,28 l -1.744341,0 z"
     id="path3135"
     sodipodi:nodetypes="ccccc" />
  <path
     sodipodi:type="arc"
     style="fill:url(#radialGradient3235);fill-opacity:1;fill-rule:evenodd;stroke:none"
     id="path3133"
     sodipodi:cx="24.952065"
     sodipodi:cy="28.358189"
     sodipodi:rx="1.0479361"
     sodipodi:ry="1.6418109"
     d="m 26.000001,28.358189 a 1.0479361,1.6418109 0 1 1 -2.095873,0 1.0479361,1.6418109 0 1 1 2.095873,0 z"
     transform="translate(-4.9520645,-0.35818863)" />
  <path
     style="color:#000000;fill:#ffffff;fill-opacity:0.61160715;stroke:none;stroke-width:1px;marker:none;visibility:visible;display:inline;overflow:visible;filter:url(#filter4250);enable-background:accumulate"
     d="m 14.39145,19.798585 c -0.0143,-0.363653 1.252482,-3.995027 2.033756,-4.429068 0.47119,0.700734 1.567096,0.308217 2.485702,0.225973 -2.981636,0.62007 -3.467783,2.561281 -4.519458,4.203095 z"
     id="path4248"
     sodipodi:nodetypes="cccc" />
  <path
     style="color:#000000;fill:#ffffff;fill-opacity:0.39732145;stroke:none;stroke-width:1px;marker:none;visibility:visible;display:inline;overflow:visible;filter:url(#filter4260);enable-background:accumulate"
     d="m 14.029894,24.6796 c -2.530896,-0.09039 -1.08467,5.513737 -1.08467,5.513737 0,0 -0.406751,-4.474262 1.08467,-5.513737 z"
     id="path4254"
     sodipodi:nodetypes="ccc" />
  <path
     sodipodi:nodetypes="ccssc"
     id="path2903"
     d="m 25.298856,25.358269 c 2.710877,-0.07789 2.329899,3.156299 1.699751,5.099255 -0.849875,2.549627 -2.549626,5.099254 -4.249378,4.249378 -1.699751,-0.849875 -2.549627,-1.699751 -1.699751,-3.399503 1.370383,-2.740767 4.155972,-2.469951 4.249378,-5.94913 z"
     style="color:#000000;fill:url(#linearGradient3107);fill-opacity:1;stroke:none;stroke-width:1px;marker:none;visibility:visible;display:inline;overflow:visible;enable-background:accumulate" />
  <path
     style="color:#000000;fill:#ffffff;fill-opacity:0.4642857;stroke:none;stroke-width:1px;marker:none;visibility:visible;display:inline;overflow:visible;filter:url(#filter4270);enable-background:accumulate"
     d="m 21.893749,33.944487 c -1.754494,-1.490723 0.107309,-3.388272 1.536616,-5.152181 0,0 -4.293484,3.344398 -1.536616,5.152181 z"
     id="path4264"
     sodipodi:nodetypes="ccc" />
  <path
     style="color:#000000;fill:#ffffff;fill-opacity:0.24107145;stroke:none;stroke-width:1px;marker:none;visibility:visible;display:inline;overflow:visible;filter:url(#filter4280);enable-background:accumulate"
     d="m 11.047052,32.950207 c 0.129379,-1.500537 1.080802,-3.55266 1.355837,-3.434788 0.04081,0.85513 0.674783,1.353369 0.858697,2.07895 -1.113068,-1.342243 -1.796674,0.264853 -2.214534,1.355838 z"
     id="path4274"
     sodipodi:nodetypes="cccc" />
  <path
     style="color:#000000;fill:#ffffff;fill-opacity:0.2455357;stroke:none;stroke-width:1px;marker:none;visibility:visible;display:inline;overflow:visible;filter:url(#filter4298);enable-background:accumulate"
     d="m 10.052771,39.684198 c 0.03511,-0.518493 0.634262,-2.3535 2.16934,-2.937647 l 0.180778,1.175059 c -1.865234,-0.121827 -1.611422,1.135967 -2.350118,1.762588 z"
     id="path4284"
     sodipodi:nodetypes="cccc" />
  <path
     style="color:#000000;fill:#ffffff;fill-opacity:0.21875;stroke:none;stroke-width:1px;marker:none;visibility:visible;display:inline;overflow:visible;filter:url(#filter4312);enable-background:accumulate"
     d="m 27.045931,38.825501 c 0.354949,-0.715026 1.12844,-1.178927 0.949087,-2.214534 l 0.768307,0.497141 -1.717394,1.717393 z"
     id="path4302"
     sodipodi:nodetypes="cccc" />
  <path
     style="color:#000000;fill:#ffffff;fill-opacity:0.375;stroke:none;stroke-width:1px;marker:none;visibility:visible;display:inline;overflow:visible;filter:url(#filter4340);enable-background:accumulate"
     d="m 19.001302,33.08579 c -0.336544,1.5784 -1.163789,2.829666 -0.858702,4.83582 l 0.903892,1.08467 c -1.235258,-0.927615 -0.395956,-3.633426 -0.04519,-5.92049 z"
     id="path4316"
     sodipodi:nodetypes="cccc" />
  <path
     style="color:#000000;fill:#ffffff;fill-opacity:0.54464285;stroke:none;stroke-width:1px;marker:none;visibility:visible;display:inline;overflow:visible;filter:url(#filter4336);enable-background:accumulate"
     d="m 19.995578,26.487383 c -0.789468,0.683927 -0.798134,1.563054 -0.632724,2.485701 0.0019,0.0094 -1.07839,-1.63703 0.632724,-2.485701 z"
     id="path4318"
     sodipodi:nodetypes="ccc" />
  <path
     style="color:#000000;fill:#ffffff;fill-opacity:0.50892861;stroke:none;stroke-width:1px;marker:none;visibility:visible;display:inline;overflow:visible;filter:url(#filter4346);enable-background:accumulate"
     d="m 20.357134,20.838061 c -0.412983,0.02493 -0.785249,-0.113014 -1.310642,0.361556 0.175904,1.08866 0.52952,0.933333 0.813502,1.265448 -0.444254,-0.725325 -0.263757,-1.263225 0.49714,-1.627004 z"
     id="path4344"
     sodipodi:nodetypes="cccc" />
  <path
     style="color:#000000;fill:#ffffff;fill-opacity:0.40625;stroke:none;stroke-width:1px;marker:none;visibility:visible;display:inline;overflow:visible;filter:url(#filter4378);enable-background:accumulate"
     d="M 14.572229,8.7711093 C 14.711957,7.4086636 14.74833,5.3923785 16.470401,3.2573712 l 0.542335,0.7683077 C 15.025188,4.6682527 15.02167,7.322879 14.572229,8.7711093 z"
     id="path4350"
     sodipodi:nodetypes="cccc" />
  <path
     style="color:#000000;fill:#ffffff;fill-opacity:0.40625;stroke:none;stroke-width:1px;marker:none;visibility:visible;display:inline;overflow:visible;filter:url(#filter4382);enable-background:accumulate"
     d="m 21.712972,6.6469643 c 1.000674,-1.218195 1.975651,-2.4749372 3.208814,-3.3443986 l 0.225973,0.5875295 C 24.093124,4.0867 22.878816,5.5606911 21.712972,6.6469643 z"
     id="path4352"
     sodipodi:nodetypes="cccc" />
  <path
     sodipodi:type="arc"
     style="fill:#ffffff;fill-opacity:0.59375;fill-rule:evenodd;stroke:none;filter:url(#filter4586)"
     id="path4584"
     sodipodi:cx="35.565247"
     sodipodi:cy="25.749001"
     sodipodi:rx="1.4347537"
     sodipodi:ry="3.2509987"
     d="m 37,25.749001 a 1.4347537,3.2509987 0 1 1 -2.869507,0 1.4347537,3.2509987 0 1 1 2.869507,0 z"
     transform="matrix(0.72986579,0.68359047,-0.68359047,0.72986579,26.421563,-7.7325855)" />
</svg>
