<?xml version="1.0" encoding="UTF-8" standalone="no"?>
<!-- Created with Inkscape (http://www.inkscape.org/) -->

<svg
   xmlns:dc="http://purl.org/dc/elements/1.1/"
   xmlns:cc="http://creativecommons.org/ns#"
   xmlns:rdf="http://www.w3.org/1999/02/22-rdf-syntax-ns#"
   xmlns:svg="http://www.w3.org/2000/svg"
   xmlns="http://www.w3.org/2000/svg"
   xmlns:xlink="http://www.w3.org/1999/xlink"
   xmlns:sodipodi="http://sodipodi.sourceforge.net/DTD/sodipodi-0.dtd"
   xmlns:inkscape="http://www.inkscape.org/namespaces/inkscape"
   id="svg1"
   sodipodi:version="0.32"
   inkscape:version="0.47 r22583"
   width="48"
   height="48"
   sodipodi:docname="easter01.svg"
   version="1.1"
   inkscape:export-filename="easter01.png"
   inkscape:export-xdpi="89.949997"
   inkscape:export-ydpi="89.949997">
  <defs
     id="defs3">
    <linearGradient
       id="linearGradient3770">
      <stop
         style="stop-color:#d1f6f6;stop-opacity:1;"
         offset="0"
         id="stop3772" />
      <stop
         style="stop-color:#2adbdb;stop-opacity:1;"
         offset="1"
         id="stop3774" />
    </linearGradient>
    <linearGradient
       id="linearGradient3764">
      <stop
         style="stop-color:#7ed249;stop-opacity:1;"
         offset="0"
         id="stop3766" />
      <stop
         style="stop-color:#286325;stop-opacity:1;"
         offset="1"
         id="stop3768" />
    </linearGradient>
    <linearGradient
       id="linearGradient3613">
      <stop
         id="stop3615"
         offset="0"
         style="stop-color:#ff5959;stop-opacity:1;" />
      <stop
         id="stop3617"
         offset="1"
         style="stop-color:#d90000;stop-opacity:1;" />
    </linearGradient>
    <radialGradient
       inkscape:collect="always"
       xlink:href="#linearGradient3613"
       id="radialGradient2897"
       cx="17"
       cy="32.427021"
       fx="17"
       fy="32.427021"
       r="6.1781771"
       gradientTransform="matrix(1,0,0,1.2948807,2.40625,-10.895374)"
       gradientUnits="userSpaceOnUse" />
    <radialGradient
       inkscape:collect="always"
       xlink:href="#linearGradient3764"
       id="radialGradient2899"
       cx="25"
       cy="27.325857"
       fx="25"
       fy="27.325857"
       r="6.1854519"
       gradientTransform="matrix(-0.79157347,-1.0228318,1.2785397,-0.98946682,14.406811,84.862099)"
       gradientUnits="userSpaceOnUse" />
    <radialGradient
       inkscape:collect="always"
       xlink:href="#linearGradient3770"
       id="radialGradient2903"
       cx="12"
       cy="28.307987"
       fx="12"
       fy="28.307987"
       r="5.3856452"
       gradientTransform="matrix(1,0,0,1.2505716,0,-9.4011657)"
       gradientUnits="userSpaceOnUse" />
    <linearGradient
       id="linearGradient3679">
      <stop
         id="stop3681"
         offset="0"
         style="stop-color:#552200;stop-opacity:1;" />
      <stop
         id="stop3683"
         offset="1"
         style="stop-color:#b6632c;stop-opacity:1;" />
    </linearGradient>
    <linearGradient
       id="linearGradient2868">
      <stop
         id="stop2870"
         offset="0"
         style="stop-color:#d700d7;stop-opacity:1;" />
      <stop
         id="stop2872"
         offset="1"
         style="stop-color:#6e006e;stop-opacity:1;" />
    </linearGradient>
    <linearGradient
       inkscape:collect="always"
       xlink:href="#linearGradient3679"
       id="linearGradient3109"
       x1="27.665552"
       y1="40.840546"
       x2="18"
       y2="16"
       gradientUnits="userSpaceOnUse"
       gradientTransform="translate(0,-2)" />
    <linearGradient
       inkscape:collect="always"
       xlink:href="#linearGradient3679"
       id="linearGradient3111"
       x1="9"
       y1="30"
       x2="45"
       y2="35"
       gradientUnits="userSpaceOnUse"
       gradientTransform="translate(0,-2)" />
    <linearGradient
       inkscape:collect="always"
       xlink:href="#linearGradient3679"
       id="linearGradient3113"
       x1="25"
       y1="16"
       x2="37"
       y2="19.46875"
       gradientUnits="userSpaceOnUse"
       gradientTransform="translate(0,-2)" />
    <linearGradient
       id="linearGradient3669">
      <stop
         style="stop-color:#ffd73b;stop-opacity:1;"
         offset="0"
         id="stop3671" />
      <stop
         style="stop-color:#ee8400;stop-opacity:1;"
         offset="1"
         id="stop3673" />
    </linearGradient>
    <radialGradient
       inkscape:collect="always"
       xlink:href="#linearGradient2868"
       id="radialGradient4001"
       cx="23"
       cy="25.620546"
       fx="23"
       fy="25.620546"
       r="5.678896"
       gradientTransform="matrix(0.99372764,-0.90053492,0.81497642,0.89931538,-21.591996,23.01194)"
       gradientUnits="userSpaceOnUse" />
    <radialGradient
       inkscape:collect="always"
       xlink:href="#linearGradient3669"
       id="radialGradient4005"
       cx="26"
       cy="11.666667"
       fx="26"
       fy="11.666667"
       r="4"
       gradientTransform="matrix(1,0,0,0.75,0,3.25)"
       gradientUnits="userSpaceOnUse" />
    <radialGradient
       inkscape:collect="always"
       xlink:href="#linearGradient3669"
       id="radialGradient4009"
       cx="14.318913"
       cy="10.317088"
       fx="14.318913"
       fy="10.317088"
       r="7.5"
       gradientTransform="matrix(1.8241449,1.0595106,-0.40180127,0.69177724,-7.6554401,-13.254497)"
       gradientUnits="userSpaceOnUse" />
    <radialGradient
       inkscape:collect="always"
       xlink:href="#linearGradient3669"
       id="radialGradient4013"
       gradientUnits="userSpaceOnUse"
       gradientTransform="matrix(3.699958,0.61044552,0.10237226,-0.6204782,-19.785246,4.0822704)"
       cx="13.488825"
       cy="8.5683317"
       fx="13.488825"
       fy="8.5683317"
       r="7.5" />
    <radialGradient
       inkscape:collect="always"
       xlink:href="#linearGradient3613"
       id="radialGradient4021"
       gradientUnits="userSpaceOnUse"
       gradientTransform="matrix(0.57762209,1.1572062,-1.4465077,0.72202761,61.459444,-22.048018)"
       cx="25.176691"
       cy="29.410728"
       fx="25.176691"
       fy="29.410728"
       r="6.1854519" />
    <filter
       inkscape:collect="always"
       id="filter4206"
       x="-0.13984074"
       width="1.2796815"
       y="-0.27048627"
       height="1.5409725">
      <feGaussianBlur
         inkscape:collect="always"
         stdDeviation="0.38237703"
         id="feGaussianBlur4208" />
    </filter>
    <filter
       inkscape:collect="always"
       id="filter4210"
       x="-0.19320103"
       width="1.3864021"
       y="-0.1372269"
       height="1.2744538">
      <feGaussianBlur
         inkscape:collect="always"
         stdDeviation="0.38237703"
         id="feGaussianBlur4212" />
    </filter>
    <filter
       inkscape:collect="always"
       id="filter4214"
       x="-0.12994051"
       width="1.259881"
       y="-0.2293245"
       height="1.458649">
      <feGaussianBlur
         inkscape:collect="always"
         stdDeviation="0.38237703"
         id="feGaussianBlur4216" />
    </filter>
    <filter
       inkscape:collect="always"
       id="filter4218"
       x="-0.18005831"
       width="1.3601166"
       y="-0.11471311"
       height="1.2294262">
      <feGaussianBlur
         inkscape:collect="always"
         stdDeviation="0.38237703"
         id="feGaussianBlur4220" />
    </filter>
    <filter
       inkscape:collect="always"
       id="filter4222"
       x="-0.17480093"
       width="1.3496019"
       y="-0.15788471"
       height="1.3157694">
      <feGaussianBlur
         inkscape:collect="always"
         stdDeviation="0.38237703"
         id="feGaussianBlur4224" />
    </filter>
    <filter
       inkscape:collect="always"
       id="filter4238"
       x="-0.10972611"
       width="1.2194522"
       y="-0.12644628"
       height="1.2528926">
      <feGaussianBlur
         inkscape:collect="always"
         stdDeviation="0.34575155"
         id="feGaussianBlur4240" />
    </filter>
    <filter
       inkscape:collect="always"
       id="filter4242"
       x="-0.55320248"
       width="2.106405"
       y="-0.096911383"
       height="1.1938228">
      <feGaussianBlur
         inkscape:collect="always"
         stdDeviation="0.34575155"
         id="feGaussianBlur4244" />
    </filter>
    <filter
       inkscape:collect="always"
       id="filter4268"
       x="-0.17315703"
       width="1.3463141"
       y="-0.28621143"
       height="1.5724229">
      <feGaussianBlur
         inkscape:collect="always"
         stdDeviation="0.56366219"
         id="feGaussianBlur4270" />
    </filter>
    <filter
       inkscape:collect="always"
       id="filter4272"
       x="-0.19857457"
       width="1.3971491"
       y="-0.460524"
       height="1.921048">
      <feGaussianBlur
         inkscape:collect="always"
         stdDeviation="0.56366219"
         id="feGaussianBlur4274" />
    </filter>
    <filter
       inkscape:collect="always"
       id="filter3679"
       x="-0.070441238"
       width="1.1408825"
       y="-0.29182799"
       height="1.583656">
      <feGaussianBlur
         inkscape:collect="always"
         stdDeviation="0.85116496"
         id="feGaussianBlur3681" />
    </filter>
  </defs>
  <sodipodi:namedview
     id="base"
     pagecolor="#ffffff"
     bordercolor="#666666"
     borderopacity="1.0"
     inkscape:pageopacity="0.0"
     inkscape:pageshadow="2"
     inkscape:zoom="1"
     inkscape:cx="24"
     inkscape:cy="24"
     inkscape:window-width="1604"
     inkscape:window-height="974"
     inkscape:window-x="68"
     inkscape:window-y="24"
     showgrid="false"
     inkscape:window-maximized="0"
     inkscape:current-layer="svg1">
    <inkscape:grid
       type="xygrid"
       id="grid2861" />
  </sodipodi:namedview>
  <metadata
     id="metadata4">
    <rdf:RDF>
      <cc:Work
         rdf:about="">
        <dc:format>image/svg+xml</dc:format>
        <dc:type
           rdf:resource="http://purl.org/dc/dcmitype/StillImage" />
        <dc:title />
      </cc:Work>
    </rdf:RDF>
  </metadata>
  <path
     sodipodi:type="arc"
     style="fill:#000000;fill-opacity:0.76859502;fill-rule:evenodd;stroke:none;filter:url(#filter3679)"
     id="path4026"
     sodipodi:cx="23.5"
     sodipodi:cy="41.5"
     sodipodi:rx="14.5"
     sodipodi:ry="3.5"
     d="m 38,41.5 a 14.5,3.5 0 1 1 -29,0 14.5,3.5 0 1 1 29,0 z"
     transform="matrix(0.85141647,0,0,0.89956249,5.2360543,3.1361994)" />
  <path
     style="color:#000000;fill:url(#linearGradient3113);fill-opacity:1;stroke:none;stroke-width:1px;marker:none;visibility:visible;display:inline;overflow:visible;enable-background:accumulate"
     d="M 29.625,9.9375 C 35.470784,14.456489 35.295648,19.867466 37,25 l -4,0 C 32.704547,19.563311 30.947017,14.439925 26,10 l 3.625,-0.0625 z"
     id="path2895"
     sodipodi:nodetypes="ccccc" />
  <path
     style="fill:url(#linearGradient3111);fill-rule:evenodd;stroke:none"
     d="m 43,29 c 0,3.267553 -4.941465,7.124244 -17.541944,7.26107 -11.684929,0.126886 -17.9102782,-4.172803 -17.9102782,-7.440356 0,-3.267552 10.1881382,-4.371867 17.9102782,-4.392498 C 32.168535,24.410286 43,25.732447 43,29 z"
     id="path2869"
     sodipodi:nodetypes="csssc" />
  <path
     sodipodi:nodetypes="csssc"
     id="path2884"
     d="m 17,21 c 2.492553,0.955306 3.23851,5.138966 1.951217,8.497728 -1.287294,3.358761 -3.087692,5.791505 -6.844019,4.351839 C 7.5382624,32.098457 8.6375882,29.397017 9.924881,26.038256 11.212175,22.679494 14.507447,20.044693 17,21 z"
     style="fill:url(#radialGradient2903);fill-rule:evenodd;stroke:none" />
  <path
     style="fill:url(#radialGradient4001);fill-opacity:1;fill-rule:evenodd;stroke:none"
     d="m 19,25 c -0.156625,-2.748825 3.462625,-5.221494 7.166723,-5.432547 3.704095,-0.211053 6.754415,0.452513 6.990448,4.595048 0.287097,5.038698 -2.719169,5.148286 -6.423266,5.359339 C 23.029808,29.732894 19.156624,27.748831 19,25 z"
     id="path3115"
     sodipodi:nodetypes="csssc" />
  <path
     sodipodi:nodetypes="csssc"
     id="path2880"
     d="m 33,22 c 2.72276,1.342537 3.129927,6.158328 1.320829,9.827299 -1.809096,3.668969 -4.102401,6.235606 -8.205653,4.212372 C 21.124262,33.57875 22.651744,30.634502 24.460841,26.96553 26.269937,23.296559 30.277237,20.657459 33,22 z"
     style="fill:url(#radialGradient2899);fill-rule:evenodd;stroke:none" />
  <path
     style="fill:url(#radialGradient2897);fill-rule:evenodd;stroke:none"
     d="m 20,24 c -0.201575,0.01524 -0.395379,0.04455 -0.59375,0.09375 -3.173939,0.787216 -4.623288,5.754308 -3.5625,10.03125 0.124474,0.501861 0.218198,0.995386 0.34375,1.46875 2.833197,1.057473 6.604991,1.758893 11.28125,1.75 C 28.111149,35.679228 27.881218,33.542988 27.3125,31.25 26.31801,27.240367 23.023629,23.771382 20,24 z"
     id="path2882" />
  <path
     style="color:#000000;fill:#ffffff;stroke:none;stroke-width:1px;marker:none;visibility:visible;display:inline;overflow:visible;filter:url(#filter4222);enable-background:accumulate"
     d="m 10,27 c 1.396692,-2.502577 3.773897,-4.696691 5.25,-5.8125 C 11.5,22.375 10.5625,25.375 10,27 z"
     id="path4044"
     sodipodi:nodetypes="ccc" />
  <path
     style="fill:url(#linearGradient3109);fill-opacity:1;fill-rule:evenodd;stroke:none"
     d="M 29.0625,9.78125 C 27.066419,9.444327 26,10 24,10 12.094157,13.968614 12.752909,24.539507 11.84375,33.65625 9.0232128,32.21182 7.5625,30.391633 7.5625,28.8125 7.5625,34.321124 13.783821,43.126886 25.46875,43 38.069229,42.863174 43.184168,34.06041 43,29 43,32.267553 38.069229,36.113174 25.46875,36.25 21.256649,36.295739 17.756719,35.754735 15,34.90625 15.581068,24.350163 16.165422,13.279653 30,10 29.741122,9.864753 29.42354,9.806609 29.0625,9.78125 z"
     id="path2872"
     sodipodi:nodetypes="cccsscsccc" />
  <path
     style="color:#000000;fill:url(#radialGradient4009);fill-opacity:1;stroke:none;stroke-width:1px;marker:none;visibility:visible;display:inline;overflow:visible;enable-background:accumulate"
     d="M 23.688077,7.9046221 C 19,10 14.121146,4.2063698 10,6 c -1.7721999,3.743277 -0.6983571,7.786138 2,12 5.872266,2.836645 6,-5 13,-6 L 23.688077,7.9046221 z"
     id="path4007"
     sodipodi:nodetypes="ccccc" />
  <path
     id="path4011"
     d="m 27,8 c 6,-2 6.030812,-4.6457212 9.662749,-4.964855 4.082353,2.9548147 1.563575,6.664049 1.629522,9.423262 C 35,14 33,10 27.089123,11.379282 L 27,8 z"
     style="color:#000000;fill:url(#radialGradient4013);fill-opacity:1;stroke:none;stroke-width:1px;marker:none;visibility:visible;display:inline;overflow:visible;enable-background:accumulate"
     sodipodi:nodetypes="ccccc" />
  <path
     sodipodi:type="arc"
     style="fill:url(#radialGradient4005);fill-rule:evenodd;stroke:none"
     id="path4003"
     sodipodi:cx="27"
     sodipodi:cy="13"
     sodipodi:rx="4"
     sodipodi:ry="3"
     d="m 31,13 a 4,3 0 1 1 -8,0 4,3 0 1 1 8,0 z"
     transform="translate(-1,-3)" />
  <path
     style="fill:url(#radialGradient4021);fill-rule:evenodd;stroke:none"
     d="m 36.75,22.28125 c -1.910521,0.213101 -3.570086,1.782963 -5.125,3.8125 -2.450607,3.198633 -3.005751,7.907657 -0.71875,9.8125 4.123414,-0.487726 7.080259,-1.465646 9.03125,-2.65625 0.01292,-0.0079 0.01841,-0.02334 0.03125,-0.03125 0.123443,-0.144243 0.259578,-0.286847 0.375,-0.4375 2.487864,-3.247263 4.542261,-5.8345 0.125,-9.21875 C 39.106889,22.519121 37.896312,22.15339 36.75,22.28125 z"
     id="path4019" />
  <path
     style="color:#000000;fill:#ffffff;stroke:none;stroke-width:1px;marker:none;visibility:visible;display:inline;overflow:visible;filter:url(#filter4218);enable-background:accumulate"
     d="m 21,24 c -3.479167,0.479167 -5.583333,4.083333 -5,8 0.668719,-3.379487 2.00778,-6.280157 5,-8 z"
     id="path4036"
     sodipodi:nodetypes="ccc" />
  <path
     style="color:#000000;fill:#ffffff;stroke:none;stroke-width:1px;marker:none;visibility:visible;display:inline;overflow:visible;filter:url(#filter4214);enable-background:accumulate"
     d="M 19.9375,23.875 C 21.960645,22.086801 24.310195,20.788209 27,20 c -0.751537,-0.5625 -6.190012,0.75 -7.0625,3.875 z"
     id="path4038"
     sodipodi:nodetypes="ccc" />
  <path
     style="color:#000000;fill:#ffffff;stroke:none;stroke-width:1px;marker:none;visibility:visible;display:inline;overflow:visible;filter:url(#filter4210);enable-background:accumulate"
     d="m 25.25,26.5 1.375,2.1875 C 25.825683,25.496175 28.730829,24.157081 30,22 c -1.851055,1.000474 -3.444416,2.027877 -4.75,4.5 z"
     id="path4040"
     sodipodi:nodetypes="cccc" />
  <path
     style="color:#000000;fill:#ffffff;stroke:none;stroke-width:1px;marker:none;visibility:visible;display:inline;overflow:visible;filter:url(#filter4206);enable-background:accumulate"
     d="M 32.4375,26.0625 C 34.423021,24.7185 36.223132,23.077844 39,23 c -2.3125,-0.895833 -5,0 -6.5625,3.0625 z"
     id="path4042"
     sodipodi:nodetypes="ccc" />
  <path
     style="color:#000000;fill:#ffffff;fill-opacity:0.32589285;stroke:none;stroke-width:1px;marker:none;visibility:visible;display:inline;overflow:visible;filter:url(#filter4238);enable-background:accumulate"
     d="m 8.1875,31.25 c 3.430691,3.49634 5.184849,3.160606 7.5625,4.25 C 13.040976,35.4293 13.270211,37.760676 14,39 11.871102,37.460887 9.8465325,35.608305 8.1875,31.25 z"
     id="path4226"
     sodipodi:nodetypes="cccc" />
  <path
     style="color:#000000;fill:#ffffff;fill-opacity:0.32589285;stroke:none;stroke-width:1px;marker:none;visibility:visible;display:inline;overflow:visible;filter:url(#filter4242);enable-background:accumulate"
     d="m 12.125,33.75 0.8125,-8.0625 c 0.229108,2.854184 -0.762785,6.057224 0.6875,8.5625 l -1.5,-0.5 z"
     id="path4228"
     sodipodi:nodetypes="cccc" />
  <path
     style="color:#000000;fill:#ffffff;fill-opacity:0.78571424;stroke:none;stroke-width:1px;marker:none;visibility:visible;display:inline;overflow:visible;filter:url(#filter4268);enable-background:accumulate"
     d="m 9.5625,10.75 c 0.085621,-1.603023 0.2106535,-3.18634 0.625,-4.6250001 2.846434,-0.4513512 4.984904,0.6902153 7.1875,1.6875 C 13.270545,7.1662046 10.846701,8.099793 9.5625,10.75 z"
     id="path4248"
     sodipodi:nodetypes="cccc" />
  <path
     style="color:#000000;fill:#ffffff;fill-opacity:0.78571424;stroke:none;stroke-width:1px;marker:none;visibility:visible;display:inline;overflow:visible;filter:url(#filter4272);enable-background:accumulate"
     d="m 31.6875,6.2499999 c 1.496706,-1.0508075 2.41864,-2.4847953 4.8125,-2.9375 1.083334,0.9166667 1.75,1.8333333 2,2.75 -2.391993,-1.8760527 -4.576773,-0.4366959 -6.8125,0.1875 z"
     id="path4250"
     sodipodi:nodetypes="cccc" />
</svg>
