<?xml version="1.0" encoding="UTF-8" standalone="no"?>
<!-- Created with Inkscape (http://www.inkscape.org/) -->

<svg
   xmlns:dc="http://purl.org/dc/elements/1.1/"
   xmlns:cc="http://creativecommons.org/ns#"
   xmlns:rdf="http://www.w3.org/1999/02/22-rdf-syntax-ns#"
   xmlns:svg="http://www.w3.org/2000/svg"
   xmlns="http://www.w3.org/2000/svg"
   xmlns:xlink="http://www.w3.org/1999/xlink"
   xmlns:sodipodi="http://sodipodi.sourceforge.net/DTD/sodipodi-0.dtd"
   xmlns:inkscape="http://www.inkscape.org/namespaces/inkscape"
   id="svg1"
   sodipodi:version="0.32"
   inkscape:version="0.47 r22583"
   width="48"
   height="48"
   sodipodi:docname="father-day01.svg"
   version="1.1"
   inkscape:export-filename="father-day01.png"
   inkscape:export-xdpi="89.949997"
   inkscape:export-ydpi="89.949997">
  <defs
     id="defs3">
    <linearGradient
       id="linearGradient3635">
      <stop
         style="stop-color:#003e8c;stop-opacity:1;"
         offset="0"
         id="stop3637" />
      <stop
         style="stop-color:#0062db;stop-opacity:1;"
         offset="1"
         id="stop3639" />
    </linearGradient>
    <linearGradient
       inkscape:collect="always"
       xlink:href="#linearGradient3635"
       id="linearGradient2862"
       x1="13.87696"
       y1="23.165312"
       x2="21"
       y2="27.5"
       gradientUnits="userSpaceOnUse"
       gradientTransform="matrix(1.1882549,0,0,1.1882549,-2.0241583,-6.4473142)" />
    <linearGradient
       inkscape:collect="always"
       xlink:href="#linearGradient3635"
       id="linearGradient2864"
       x1="18"
       y1="31.463158"
       x2="30.357895"
       y2="31.210526"
       gradientUnits="userSpaceOnUse"
       gradientTransform="matrix(1.1882549,0,0,1.1882549,-2.0241583,-6.4473142)" />
    <linearGradient
       inkscape:collect="always"
       xlink:href="#linearGradient3635"
       id="linearGradient2866"
       x1="17.223265"
       y1="13.010729"
       x2="21.100533"
       y2="17.653696"
       gradientUnits="userSpaceOnUse"
       gradientTransform="matrix(1.1882549,0,0,1.1882549,-2.0241583,-6.4473142)" />
    <linearGradient
       inkscape:collect="always"
       xlink:href="#linearGradient3635"
       id="linearGradient2868"
       x1="26.694736"
       y1="12.463158"
       x2="28.884211"
       y2="15.392304"
       gradientUnits="userSpaceOnUse"
       gradientTransform="matrix(1.1882549,0,0,1.1882549,-2.0241583,-6.4473142)" />
    <linearGradient
       inkscape:collect="always"
       xlink:href="#linearGradient3635"
       id="linearGradient2870"
       x1="12.463158"
       y1="11.031579"
       x2="15.442114"
       y2="15"
       gradientUnits="userSpaceOnUse"
       gradientTransform="matrix(1.1882549,0,0,1.1882549,-2.0241583,-6.4473142)" />
    <linearGradient
       inkscape:collect="always"
       xlink:href="#linearGradient3635"
       id="linearGradient2872"
       x1="26.526316"
       y1="16.168421"
       x2="22.352631"
       y2="4.0421052"
       gradientUnits="userSpaceOnUse"
       gradientTransform="matrix(1.1882549,0,0,1.1882549,-2.0241583,-6.4473142)" />
    <linearGradient
       id="linearGradient3689">
      <stop
         id="stop3691"
         offset="0"
         style="stop-color:#ffea00;stop-opacity:1;" />
      <stop
         id="stop3693"
         offset="1"
         style="stop-color:#ffffa4;stop-opacity:1;" />
    </linearGradient>
    <linearGradient
       id="linearGradient3651">
      <stop
         id="stop3653"
         offset="0"
         style="stop-color:#555555;stop-opacity:1;" />
      <stop
         id="stop3655"
         offset="1"
         style="stop-color:#000000;stop-opacity:1;" />
    </linearGradient>
    <linearGradient
       inkscape:collect="always"
       xlink:href="#linearGradient3689"
       id="linearGradient3100"
       x1="12.0085"
       y1="21.550978"
       x2="15.504782"
       y2="23.066755"
       gradientUnits="userSpaceOnUse" />
    <linearGradient
       inkscape:collect="always"
       xlink:href="#linearGradient3651"
       id="linearGradient3102"
       x1="12.385533"
       y1="22.603703"
       x2="15.680312"
       y2="23.656427"
       gradientUnits="userSpaceOnUse" />
    <linearGradient
       inkscape:collect="always"
       xlink:href="#linearGradient3651"
       id="linearGradient3104"
       x1="12.385533"
       y1="22.603703"
       x2="15.303279"
       y2="22.603703"
       gradientUnits="userSpaceOnUse" />
    <linearGradient
       inkscape:collect="always"
       xlink:href="#linearGradient3651"
       id="linearGradient3106"
       x1="17.997046"
       y1="32.875"
       x2="20.267492"
       y2="34.321892"
       gradientUnits="userSpaceOnUse"
       gradientTransform="matrix(1.1882549,0,0,1.1882549,-5.5889231,-6.4473142)" />
    <filter
       inkscape:collect="always"
       id="filter3936"
       x="-0.23017831"
       width="1.4603566"
       y="-0.12333904"
       height="1.2466781">
      <feGaussianBlur
         inkscape:collect="always"
         stdDeviation="0.2342165"
         id="feGaussianBlur3938" />
    </filter>
    <filter
       inkscape:collect="always"
       id="filter3940"
       x="-0.27335593"
       width="1.5467119"
       y="-0.23017828"
       height="1.4603566">
      <feGaussianBlur
         inkscape:collect="always"
         stdDeviation="0.2342165"
         id="feGaussianBlur3942" />
    </filter>
    <filter
       inkscape:collect="always"
       id="filter3944"
       x="-0.15884588"
       width="1.3176918"
       y="-0.041190506"
       height="1.082381">
      <feGaussianBlur
         inkscape:collect="always"
         stdDeviation="0.2342165"
         id="feGaussianBlur3946" />
    </filter>
    <filter
       inkscape:collect="always"
       id="filter3978"
       x="-0.15422618"
       width="1.3084524"
       y="-0.13469715"
       height="1.2693943">
      <feGaussianBlur
         inkscape:collect="always"
         stdDeviation="0.25697288"
         id="feGaussianBlur3980" />
    </filter>
    <filter
       inkscape:collect="always"
       id="filter3637"
       x="-0.18354601"
       width="1.367092"
       y="-0.99823261"
       height="2.9964652">
      <feGaussianBlur
         inkscape:collect="always"
         stdDeviation="1.9964653"
         id="feGaussianBlur3639" />
    </filter>
  </defs>
  <sodipodi:namedview
     id="base"
     pagecolor="#ffffff"
     bordercolor="#666666"
     borderopacity="1.0"
     inkscape:pageopacity="0.0"
     inkscape:pageshadow="2"
     inkscape:zoom="1"
     inkscape:cx="24"
     inkscape:cy="24"
     inkscape:window-width="1153"
     inkscape:window-height="793"
     inkscape:window-x="497"
     inkscape:window-y="24"
     showgrid="false"
     inkscape:window-maximized="0"
     inkscape:current-layer="svg1"
     showguides="true"
     inkscape:guide-bbox="true"
     inkscape:snap-global="true">
    <inkscape:grid
       type="xygrid"
       id="grid2861" />
  </sodipodi:namedview>
  <metadata
     id="metadata4">
    <rdf:RDF>
      <cc:Work
         rdf:about="">
        <dc:format>image/svg+xml</dc:format>
        <dc:type
           rdf:resource="http://purl.org/dc/dcmitype/StillImage" />
        <dc:title />
      </cc:Work>
    </rdf:RDF>
  </metadata>
  <path
     sodipodi:type="arc"
     style="fill:#000000;fill-opacity:0.76785715;fill-rule:evenodd;stroke:none;filter:url(#filter3637)"
     id="path3108"
     sodipodi:cx="27.705263"
     sodipodi:cy="40.71579"
     sodipodi:rx="13.052631"
     sodipodi:ry="2.4000001"
     d="m 40.757895,40.71579 a 13.052631,2.4000001 0 1 1 -26.105263,0 13.052631,2.4000001 0 1 1 26.105263,0 z"
     transform="matrix(0.43107201,0,0,0.50877195,6.8359838,21.263896)" />
  <path
     style="color:#000000;fill:url(#linearGradient2872);fill-opacity:1;stroke:none;stroke-width:1px;marker:none;visibility:visible;display:inline;overflow:visible;enable-background:accumulate"
     d="M 11.128785,5.3826074 C 22.856898,1.9368113 28.642338,4.0507337 36,4.2469803 l 0.950072,3.2670356 C 27.444032,6.3257609 16.987921,6.6830359 11.877626,9.2950675 L 11.128785,5.3826074 z"
     id="path2858"
     sodipodi:nodetypes="ccccc" />
  <path
     style="color:#000000;fill:url(#linearGradient2864);stroke:none;stroke-width:1px;marker:none;visibility:visible;display:inline;overflow:visible;enable-background:accumulate"
     d="m 20.552686,16.129529 c 1.229411,5.930986 3.687647,11.554765 3.564764,17.823824 0.243924,1.279703 -1.260509,1.685228 -2.022732,2.461857 l -2.730287,-19.097426 1.188255,-1.188255 z"
     id="path2860"
     sodipodi:nodetypes="ccccc" />
  <path
     style="color:#000000;fill:url(#linearGradient2862);stroke:none;stroke-width:1px;marker:none;visibility:visible;display:inline;overflow:visible;enable-background:accumulate"
     d="m 16.987921,10.188255 c -1.299922,8.975954 -3.114853,17.333898 -3.564765,27.329863 1.327788,2.097444 2.860189,3.785662 4.75302,4.75302 2.376368,-1.320259 3.456542,-2.424487 4.753019,-3.564765 C 22.560538,29.455248 21.444051,20.453399 20.552686,11.37651 l -3.564765,-1.188255 z"
     id="path2850"
     sodipodi:nodetypes="cccccc" />
  <path
     style="color:#000000;fill:url(#linearGradient2868);fill-opacity:1;stroke:none;stroke-width:1px;marker:none;visibility:visible;display:inline;overflow:visible;enable-background:accumulate"
     d="M 21.74094,11.37651 C 28.87047,12.564765 32.435235,11.37651 36,9 38.37651,7.8117451 38.646531,7.0483661 36,4.2469803 30.45481,8.6039107 28.87047,7.8117451 22.929195,7.8117451 L 21.74094,11.37651 z"
     id="path2852"
     sodipodi:nodetypes="ccccc" />
  <path
     style="color:#000000;fill:url(#linearGradient2870);fill-opacity:1;stroke:none;stroke-width:1px;marker:none;visibility:visible;display:inline;overflow:visible;enable-background:accumulate"
     d="M 16.011937,5.9305248 C 14.738335,6.340468 11.046646,5.4352352 11.046646,5.4352352 c -0.491888,0.8341221 -0.644717,2.4591525 0.05955,3.8598323 0,0 2.11241,1.6274955 4.834985,1.4446415 1.185584,-0.07963 0.05825,-4.5840408 0.07076,-4.8091842 z"
     id="path2856"
     sodipodi:nodetypes="cccsc" />
  <path
     style="color:#000000;fill:url(#linearGradient2866);fill-opacity:1;stroke:none;stroke-width:1px;marker:none;visibility:visible;display:inline;overflow:visible;enable-background:accumulate"
     d="m 14.611411,5.4352352 c 0.106313,1.9804253 0.165913,3.9608494 1.188255,5.9412748 3.433629,2.575892 4.947819,1.305005 5.941274,1.188255 1.38961,-1.781279 2.118249,-3.7828799 2.37651,-5.9412749 C 20.996849,5.698537 17.91203,4.3799925 14.611411,5.4352352 z"
     id="path2848"
     sodipodi:nodetypes="ccccc" />
  <path
     transform="matrix(2.187966,0.57489031,-0.65130267,2.3474688,2.5272399,-29.048323)"
     d="m 15.303279,22.603703 a 1.4588729,1.4588729 0 1 1 -2.917746,0 1.4588729,1.4588729 0 1 1 2.917746,0 z"
     sodipodi:ry="1.4588729"
     sodipodi:rx="1.4588729"
     sodipodi:cy="22.603703"
     sodipodi:cx="13.844406"
     id="path2884"
     style="fill:url(#linearGradient3100);fill-rule:evenodd;stroke:none"
     sodipodi:type="arc" />
  <path
     transform="matrix(0.47598092,0.12506447,-0.1416876,0.51067995,13.164245,17.7069)"
     d="m 15.303279,22.603703 a 1.4588729,1.4588729 0 1 1 -2.917746,0 1.4588729,1.4588729 0 1 1 2.917746,0 z"
     sodipodi:ry="1.4588729"
     sodipodi:rx="1.4588729"
     sodipodi:cy="22.603703"
     sodipodi:cx="13.844406"
     id="path2888"
     style="fill:url(#linearGradient3102);fill-rule:evenodd;stroke:none"
     sodipodi:type="arc" />
  <path
     transform="matrix(0.47598092,0.12506447,-0.1416876,0.51067995,15.711447,17.848411)"
     d="m 15.303279,22.603703 a 1.4588729,1.4588729 0 1 1 -2.917746,0 1.4588729,1.4588729 0 1 1 2.917746,0 z"
     sodipodi:ry="1.4588729"
     sodipodi:rx="1.4588729"
     sodipodi:cy="22.603703"
     sodipodi:cx="13.844406"
     id="path2890"
     style="fill:url(#linearGradient3104);fill-rule:evenodd;stroke:none"
     sodipodi:type="arc" />
  <path
     style="font-size:medium;font-style:normal;font-variant:normal;font-weight:normal;font-stretch:normal;text-indent:0;text-align:start;text-decoration:none;line-height:normal;letter-spacing:normal;word-spacing:normal;text-transform:none;direction:ltr;block-progression:tb;writing-mode:lr-tb;text-anchor:start;color:#000000;fill:url(#linearGradient3106);fill-opacity:1;stroke:none;stroke-width:1px;marker:none;visibility:visible;display:inline;overflow:visible;enable-background:accumulate;font-family:Bitstream Vera Sans;-inkscape-font-specification:Bitstream Vera Sans"
     d="m 16.096454,32.683811 -0.300298,0.127196 c 0.414963,1.010816 1.11498,1.590244 1.941444,1.518941 0.826465,-0.07131 1.543641,-0.657769 1.782383,-1.522451 l -0.194166,-0.19093 c -0.104899,0.379931 -1.033448,0.998647 -1.699616,0.985038 -0.660555,-0.0135 -1.269379,-0.283563 -1.529747,-0.917794 z"
     id="path2892"
     sodipodi:nodetypes="ccsccsc" />
  <path
     style="color:#000000;fill:#ffffff;stroke:none;stroke-width:1px;stroke-linecap:butt;stroke-linejoin:miter;stroke-miterlimit:4;stroke-opacity:1;stroke-dasharray:none;stroke-dashoffset:0;marker:none;visibility:visible;display:inline;overflow:visible;enable-background:accumulate;filter:url(#filter3936);fill-opacity:0.4017857"
     d="M 17.305263,5.3894737 C 16.523567,5.3766679 15.753225,5.3297977 14.863158,5.6421052 14.912313,7.2350554 15.10886,8.680614 15.494737,9.9368421 15.333521,7.8384049 15.165702,5.7349377 17.305263,5.3894737 z"
     id="path3906"
     sodipodi:nodetypes="cccc" />
  <path
     style="color:#000000;fill:#ffffff;stroke:none;stroke-width:1px;stroke-linecap:butt;stroke-linejoin:miter;stroke-miterlimit:4;stroke-opacity:1;stroke-dasharray:none;stroke-dashoffset:0;marker:none;visibility:visible;display:inline;overflow:visible;enable-background:accumulate;filter:url(#filter3940);fill-opacity:0.4017857"
     d="M 12.8,5.9789474 11.031579,5.6842105 C 10.598281,6.7999717 10.75325,7.4451193 10.863158,8.1263158 11.194027,7.2216792 10.905936,5.9456672 12.8,5.9789474 z"
     id="path3908"
     sodipodi:nodetypes="cccc" />
  <path
     style="color:#000000;fill:#ffffff;stroke:none;stroke-width:1px;stroke-linecap:butt;stroke-linejoin:miter;stroke-miterlimit:4;stroke-opacity:1;stroke-dasharray:none;stroke-dashoffset:0;marker:none;visibility:visible;display:inline;overflow:visible;enable-background:accumulate;filter:url(#filter3944);fill-opacity:0.4017857"
     d="m 14.905263,26.021053 c -0.07369,-1.178976 1.985383,-13.927465 2.021053,-13.642106 l 1.515789,0.757895 c -2.094396,1.731481 -2.439233,8.361725 -3.536842,12.884211 z"
     id="path3910"
     sodipodi:nodetypes="cccc" />
  <path
     style="color:#000000;fill:#ffffff;stroke:none;stroke-width:1px;stroke-linecap:butt;stroke-linejoin:miter;stroke-miterlimit:4;stroke-opacity:1;stroke-dasharray:none;stroke-dashoffset:0;marker:none;visibility:visible;display:inline;overflow:visible;enable-background:accumulate;filter:url(#filter3978);fill-opacity:0.89285713"
     d="M 15.157895,33.305263 C 15.344387,31.251141 15.96018,29.411669 19.031579,28.8 c -0.925866,-0.251882 -4.732448,-0.09794 -3.873684,4.505263 z"
     id="path3948"
     sodipodi:nodetypes="ccc" />
</svg>
