<?xml version="1.0" encoding="UTF-8" standalone="no"?>
<!-- Created with Inkscape (http://www.inkscape.org/) -->

<svg
   xmlns:dc="http://purl.org/dc/elements/1.1/"
   xmlns:cc="http://creativecommons.org/ns#"
   xmlns:rdf="http://www.w3.org/1999/02/22-rdf-syntax-ns#"
   xmlns:svg="http://www.w3.org/2000/svg"
   xmlns="http://www.w3.org/2000/svg"
   xmlns:xlink="http://www.w3.org/1999/xlink"
   xmlns:sodipodi="http://sodipodi.sourceforge.net/DTD/sodipodi-0.dtd"
   xmlns:inkscape="http://www.inkscape.org/namespaces/inkscape"
   width="48"
   height="48"
   id="svg2"
   version="1.1"
   inkscape:version="0.47 r22583"
   sodipodi:docname="graduation03.svg"
   inkscape:export-filename="graduation03.png"
   inkscape:export-xdpi="90"
   inkscape:export-ydpi="90">
  <defs
     id="defs4">
    <linearGradient
       id="linearGradient3801">
      <stop
         style="stop-color:#bd0000;stop-opacity:1;"
         offset="0"
         id="stop3803" />
      <stop
         style="stop-color:#ff0909;stop-opacity:1;"
         offset="1"
         id="stop3805" />
    </linearGradient>
    <linearGradient
       id="linearGradient3643">
      <stop
         style="stop-color:#f4e9b0;stop-opacity:1;"
         offset="0"
         id="stop3645" />
      <stop
         style="stop-color:#fffbe5;stop-opacity:1;"
         offset="1"
         id="stop3647" />
    </linearGradient>
    <linearGradient
       inkscape:collect="always"
       xlink:href="#linearGradient3643"
       id="linearGradient3778"
       x1="13.22896"
       y1="1007.9116"
       x2="39.686882"
       y2="1025.0104"
       gradientUnits="userSpaceOnUse" />
    <linearGradient
       inkscape:collect="always"
       xlink:href="#linearGradient3643"
       id="linearGradient3782"
       x1="37"
       y1="43"
       x2="39"
       y2="41"
       gradientUnits="userSpaceOnUse" />
    <linearGradient
       inkscape:collect="always"
       xlink:href="#linearGradient3643"
       id="linearGradient3786"
       x1="38"
       y1="40"
       x2="32"
       y2="42"
       gradientUnits="userSpaceOnUse" />
    <linearGradient
       inkscape:collect="always"
       xlink:href="#linearGradient3643"
       id="linearGradient3795"
       x1="23"
       y1="12"
       x2="23"
       y2="7"
       gradientUnits="userSpaceOnUse" />
    <linearGradient
       inkscape:collect="always"
       xlink:href="#linearGradient3643"
       id="linearGradient3799"
       x1="36"
       y1="12"
       x2="34.5"
       y2="15.307568"
       gradientUnits="userSpaceOnUse" />
    <radialGradient
       inkscape:collect="always"
       xlink:href="#linearGradient3801"
       id="radialGradient3803"
       cx="29.644808"
       cy="35.138279"
       fx="29.644808"
       fy="35.138279"
       r="2.6074562"
       gradientTransform="matrix(1.0890033,0.03011667,-0.07369199,1.3262118,-0.04907516,-12.805168)"
       gradientUnits="userSpaceOnUse" />
    <linearGradient
       inkscape:collect="always"
       xlink:href="#linearGradient3801"
       id="linearGradient4091"
       x1="24.395184"
       y1="42.431534"
       x2="24.837128"
       y2="40.663246"
       gradientUnits="userSpaceOnUse" />
    <linearGradient
       inkscape:collect="always"
       xlink:href="#linearGradient3801"
       id="linearGradient4093"
       x1="30.759146"
       y1="42.873474"
       x2="30.935921"
       y2="37.216621"
       gradientUnits="userSpaceOnUse" />
    <radialGradient
       inkscape:collect="always"
       xlink:href="#linearGradient3801"
       id="radialGradient4097"
       gradientUnits="userSpaceOnUse"
       gradientTransform="matrix(5.0086538,-6.0776702,-1.4757906,4.711842,-66.979031,49.293779)"
       cx="29.644808"
       cy="35.138279"
       fx="29.644808"
       fy="35.138279"
       r="2.6074562" />
    <filter
       inkscape:collect="always"
       id="filter4118"
       x="-0.9371879"
       width="2.8743758"
       y="-0.23429756"
       height="1.4685951">
      <feGaussianBlur
         inkscape:collect="always"
         stdDeviation="0.31063757"
         id="feGaussianBlur4120" />
    </filter>
    <filter
       inkscape:collect="always"
       id="filter4122"
       x="-0.28115697"
       width="1.5623139"
       y="-0.31239675"
       height="1.6247935">
      <feGaussianBlur
         inkscape:collect="always"
         stdDeviation="0.31063757"
         id="feGaussianBlur4124" />
    </filter>
    <filter
       inkscape:collect="always"
       id="filter4126"
       x="-0.16506459"
       width="1.3301292"
       y="-0.12779865"
       height="1.2555973">
      <feGaussianBlur
         inkscape:collect="always"
         stdDeviation="0.31063757"
         id="feGaussianBlur4128" />
    </filter>
    <filter
       inkscape:collect="always"
       id="filter4132"
       x="-0.032296651"
       width="1.0645933"
       y="-0.17532468"
       height="1.3506494">
      <feGaussianBlur
         inkscape:collect="always"
         stdDeviation="0.13559576"
         id="feGaussianBlur4134" />
    </filter>
    <filter
       inkscape:collect="always"
       id="filter4138">
      <feGaussianBlur
         inkscape:collect="always"
         stdDeviation="0.25599035"
         id="feGaussianBlur4140" />
    </filter>
    <filter
       inkscape:collect="always"
       id="filter4174"
       x="-0.063364542"
       width="1.1267291"
       y="-0.26538561"
       height="1.5307712">
      <feGaussianBlur
         inkscape:collect="always"
         stdDeviation="0.83076858"
         id="feGaussianBlur4176" />
    </filter>
    <linearGradient
       id="linearGradient3635">
      <stop
         id="stop3637"
         offset="0"
         style="stop-color:#003e8c;stop-opacity:1;" />
      <stop
         id="stop3639"
         offset="1"
         style="stop-color:#0062db;stop-opacity:1;" />
    </linearGradient>
    <linearGradient
       inkscape:collect="always"
       xlink:href="#linearGradient3635"
       id="linearGradient3045"
       x1="18.17705"
       y1="1017.4245"
       x2="18.727869"
       y2="1022.4041"
       gradientUnits="userSpaceOnUse" />
    <linearGradient
       inkscape:collect="always"
       xlink:href="#linearGradient3635"
       id="linearGradient3047"
       x1="15.714959"
       y1="1022.706"
       x2="28.672886"
       y2="1026.7999"
       gradientUnits="userSpaceOnUse" />
    <linearGradient
       inkscape:collect="always"
       xlink:href="#linearGradient3635"
       id="linearGradient3049"
       x1="13.770492"
       y1="1029.149"
       x2="19.121311"
       y2="1032.9282"
       gradientUnits="userSpaceOnUse" />
    <filter
       inkscape:collect="always"
       id="filter3651"
       x="-0.046517937"
       width="1.0930359"
       y="-0.17901099"
       height="1.358022">
      <feGaussianBlur
         inkscape:collect="always"
         stdDeviation="0.65735184"
         id="feGaussianBlur3653" />
    </filter>
  </defs>
  <sodipodi:namedview
     id="base"
     pagecolor="#ffffff"
     bordercolor="#666666"
     borderopacity="1.0"
     inkscape:pageopacity="0.0"
     inkscape:pageshadow="2"
     inkscape:zoom="1"
     inkscape:cx="9.2459"
     inkscape:cy="23.999998"
     inkscape:document-units="px"
     inkscape:current-layer="layer1"
     showgrid="false"
     inkscape:window-width="1314"
     inkscape:window-height="833"
     inkscape:window-x="326"
     inkscape:window-y="24"
     inkscape:window-maximized="0">
    <inkscape:grid
       type="xygrid"
       id="grid2837"
       empspacing="5"
       visible="true"
       enabled="true"
       snapvisiblegridlinesonly="true" />
  </sodipodi:namedview>
  <metadata
     id="metadata7">
    <rdf:RDF>
      <cc:Work
         rdf:about="">
        <dc:format>image/svg+xml</dc:format>
        <dc:type
           rdf:resource="http://purl.org/dc/dcmitype/StillImage" />
        <dc:title />
      </cc:Work>
    </rdf:RDF>
  </metadata>
  <g
     inkscape:label="Layer 1"
     inkscape:groupmode="layer"
     id="layer1"
     transform="translate(0,-1004.3622)">
    <path
       style="color:#000000;fill:#000000;stroke:none;stroke-width:1px;stroke-linecap:butt;stroke-linejoin:miter;stroke-miterlimit:4;stroke-opacity:1;stroke-dasharray:none;stroke-dashoffset:0;marker:none;visibility:visible;display:inline;overflow:visible;enable-background:accumulate;fill-opacity:0.76862746000000004;filter:url(#filter3651)"
       d="m 7.0032787,39.422951 15.5803283,2.518033 1.495082,2.518032 1.888524,-1.888524 3.777049,0.550819 -0.157377,2.439345 1.416394,-1.573771 1.731147,0.865574 0.314754,-0.786885 2.990164,0.865574 c 2.413115,-0.183607 3.488525,-1.390164 4.878689,-2.439345 L 9.2852459,36.747541 7.0032787,39.422951 z"
       id="path2865"
       transform="translate(0,1004.3622)"
       sodipodi:nodetypes="ccccccccccccc" />
    <path
       style="color:#000000;fill:url(#linearGradient3782);stroke:none;stroke-width:1px;stroke-linecap:butt;stroke-linejoin:miter;stroke-miterlimit:4;stroke-opacity:1;stroke-dasharray:none;stroke-dashoffset:0;marker:none;visibility:visible;display:inline;overflow:visible;enable-background:accumulate"
       d="M 24.629508,41.07541 37.01391,44.528591 C 39.01391,44.528591 42,42 40,40 L 28,37 c -0.636968,3.142412 -2.162614,3.026334 -3.370492,4.07541 z"
       id="path3780"
       transform="translate(0,1004.3622)"
       sodipodi:nodetypes="ccccc" />
    <path
       style="color:#000000;fill:url(#linearGradient3786);stroke:none;stroke-width:1px;stroke-linecap:butt;stroke-linejoin:miter;stroke-miterlimit:4;stroke-opacity:1;stroke-dasharray:none;stroke-dashoffset:0;marker:none;visibility:visible;display:inline;overflow:visible;enable-background:accumulate"
       d="m 40,40 c -2.666667,-0.790874 -5.333333,-1.615219 -8,-2 l -1,2 6,2 c -0.212699,-1.879366 1.363764,-1.969569 3,-2 z"
       id="path3784"
       transform="translate(0,1004.3622)"
       sodipodi:nodetypes="ccccc" />
    <path
       transform="matrix(0.9826925,0.18524428,0,1,0,0)"
       style="fill:url(#linearGradient3778);fill-opacity:1;stroke:none"
       d="m 8.1408987,1006.3875 c 7.8631593,0.4797 18.0236183,0.4011 29.5107573,0 5.088062,0.057 2.395569,11.8686 0.668456,17.7285 -2.299872,7.8031 -5.756518,15.214 -0.668456,17.8048 -9.644659,-0.1301 -18.696051,-0.6616 -29.5107573,0 -5.0880617,-2.1241 -1.515228,-8.8006 0.062171,-18.2473 0.8420573,-5.043 6.0435033,-14.9504 -0.062171,-17.286 z"
       id="rect3775"
       sodipodi:nodetypes="ccsccsc" />
    <path
       style="color:#000000;fill:url(#linearGradient4091);stroke:none;stroke-width:1px;stroke-linecap:butt;stroke-linejoin:miter;stroke-miterlimit:4;stroke-opacity:1;stroke-dasharray:none;stroke-dashoffset:0;marker:none;visibility:visible;display:inline;overflow:visible;enable-background:accumulate;fill-opacity:1"
       d="m 27.665555,37.039845 c -0.353554,-0.08839 -6.098798,5.480077 -6.098798,5.480077 l 2.298097,-0.353553 0.08839,2.12132 4.154253,-6.275572 -0.441942,-0.972272 z"
       id="path4087"
       transform="translate(0,1004.3622)"
       sodipodi:nodetypes="cccccc" />
    <path
       style="color:#000000;fill:url(#linearGradient3799);stroke:none;stroke-width:1px;stroke-linecap:butt;stroke-linejoin:miter;stroke-miterlimit:4;stroke-opacity:1;stroke-dasharray:none;stroke-dashoffset:0;marker:none;visibility:visible;display:inline;overflow:visible;enable-background:accumulate"
       d="m 35,14 c 1.669104,0.05145 2.797394,0.253048 3,-2 -2.504006,0.178685 -4.682367,-0.619565 -7,-1 l 4,3 z"
       id="path3797"
       transform="translate(0,1004.3622)"
       sodipodi:nodetypes="cccc" />
    <path
       style="fill:url(#linearGradient3795);fill-opacity:1;stroke:none"
       d="M 8,3.53125 C 4.9016592,5.0527775 6,6 6,8 l 29,6 C 33,11 35,9 37,9 25.711675,7.2731732 15.727068,5.4675553 8,3.53125 z"
       transform="translate(0,1004.3622)"
       id="path3788"
       sodipodi:nodetypes="ccccc" />
    <path
       style="color:#000000;fill:url(#linearGradient4093);stroke:none;stroke-width:1px;stroke-linecap:butt;stroke-linejoin:miter;stroke-miterlimit:4;stroke-opacity:1;stroke-dasharray:none;stroke-dashoffset:0;marker:none;visibility:visible;display:inline;overflow:visible;enable-background:accumulate;fill-opacity:1"
       d="m 28.991378,37.746952 0.53033,7.954951 1.325825,-2.474874 2.032932,1.856156 -2.298097,-7.866563 -1.59099,0.53033 z"
       id="path4085"
       transform="translate(0,1004.3622)" />
    <path
       transform="matrix(1.3367025,0,-0.40608684,1.3367025,4.3554566,990.9087)"
       d="m 32.792076,36.465321 c 0,1.928213 -1.167398,3.491339 -2.607456,3.491339 -1.440058,0 -2.607456,-1.563126 -2.607456,-3.491339 0,-1.928214 1.167398,-3.49134 2.607456,-3.49134 1.440058,0 2.607456,1.563126 2.607456,3.49134 z"
       sodipodi:ry="3.4913397"
       sodipodi:rx="2.6074562"
       sodipodi:cy="36.465321"
       sodipodi:cx="30.18462"
       id="path4095"
       style="fill:url(#radialGradient4097);fill-rule:evenodd;stroke:none"
       sodipodi:type="arc" />
    <path
       sodipodi:type="arc"
       style="fill:url(#radialGradient3803);fill-rule:evenodd;stroke:none"
       id="path3801"
       sodipodi:cx="30.18462"
       sodipodi:cy="36.465321"
       sodipodi:rx="2.6074562"
       sodipodi:ry="3.4913397"
       d="m 32.792076,36.465321 c 0,1.928213 -1.167398,3.491339 -2.607456,3.491339 -1.440058,0 -2.607456,-1.563126 -2.607456,-3.491339 0,-1.928214 1.167398,-3.49134 2.607456,-3.49134 1.440058,0 2.607456,1.563126 2.607456,3.49134 z"
       transform="matrix(1.1255662,0,-0.34194417,1.1255662,8.4137696,998.63789)" />
    <path
       style="color:#000000;fill:#ffffff;stroke:none;stroke-width:1px;stroke-linecap:butt;stroke-linejoin:miter;stroke-miterlimit:4;stroke-opacity:1;stroke-dasharray:none;stroke-dashoffset:0;marker:none;visibility:visible;display:inline;overflow:visible;enable-background:accumulate;filter:url(#filter4126);fill-opacity:0.6964286"
       d="m 31.643029,32.001709 c -2.247579,1.199567 -3.673579,3.220713 -4.507806,5.833631 0,0 -0.41783,-5.363581 4.507806,-5.833631 z"
       id="path4099"
       transform="translate(0,1004.3622)"
       sodipodi:nodetypes="ccc" />
    <path
       style="color:#000000;fill:#ffffff;stroke:none;stroke-width:1px;stroke-linecap:butt;stroke-linejoin:miter;stroke-miterlimit:4;stroke-opacity:1;stroke-dasharray:none;stroke-dashoffset:0;marker:none;visibility:visible;display:inline;overflow:visible;enable-background:accumulate;filter:url(#filter4122);fill-opacity:0.6964286"
       d="m 25.102291,39.779884 -2.651651,2.386485 1.502602,-0.353553 1.149049,-2.032932 z"
       id="path4101"
       transform="translate(0,1004.3622)" />
    <path
       style="color:#000000;fill:#ffffff;stroke:none;stroke-width:1px;stroke-linecap:butt;stroke-linejoin:miter;stroke-miterlimit:4;stroke-opacity:1;stroke-dasharray:none;stroke-dashoffset:0;marker:none;visibility:visible;display:inline;overflow:visible;enable-background:accumulate;filter:url(#filter4118);fill-opacity:0.6964286"
       d="m 29.698485,41.105709 0.08839,3.18198 0.707107,-0.972271 -0.795495,-2.209709 z"
       id="path4103"
       transform="translate(0,1004.3622)" />
    <path
       style="color:#000000;fill:#ffffff;stroke:none;stroke-width:1px;stroke-linecap:butt;stroke-linejoin:miter;stroke-miterlimit:4;stroke-opacity:1;stroke-dasharray:none;stroke-dashoffset:0;marker:none;visibility:visible;display:inline;overflow:visible;enable-background:accumulate;filter:url(#filter4132)"
       d="M 6.098796,5.7503697 C 6.441949,4.9791372 6.7804172,4.2055622 8.0433397,3.8942144 l 8.1317283,1.8561553 c -3.358757,-0.074181 -6.7175147,-0.5478984 -10.076272,0 z"
       id="path4130"
       transform="translate(0,1004.3622)"
       sodipodi:nodetypes="cccc" />
    <path
       style="color:#000000;fill:#ffffff;stroke:none;stroke-width:1px;stroke-linecap:butt;stroke-linejoin:miter;stroke-miterlimit:4;stroke-opacity:1;stroke-dasharray:none;stroke-dashoffset:0;marker:none;visibility:visible;display:inline;overflow:visible;enable-background:accumulate;filter:url(#filter4138);fill-opacity:0.7589286"
       d="m 6.6291261,30.233942 c -0.6056353,2.679186 -1.9788479,5.268069 1.2374369,8.396893 l 4.331029,0.707107 c -6.4289352,-2.682914 -4.807037,-5.985124 -5.5684659,-9.104 z"
       id="path4136"
       transform="translate(0,1004.3622)"
       sodipodi:nodetypes="cccc" />
    <path
       style="font-size:medium;font-style:normal;font-variant:normal;font-weight:normal;font-stretch:normal;text-indent:0;text-align:start;text-decoration:none;line-height:normal;letter-spacing:normal;word-spacing:normal;text-transform:none;direction:ltr;block-progression:tb;writing-mode:lr-tb;text-anchor:start;color:#000000;fill:url(#linearGradient3045);fill-opacity:1;stroke:none;stroke-width:1px;marker:none;visibility:visible;display:inline;overflow:visible;enable-background:accumulate;font-family:Bitstream Vera Sans;-inkscape-font-specification:Bitstream Vera Sans"
       d="m 15.900888,1016.6057 -3.994638,0.1626 0.21875,1 3.6875,-0.7813 3.301777,1.9634 3.744638,-1.1387 2.391085,2.5196 6.71875,0.2815 2.84375,1.7813 0.266085,0.01 -2.859835,-2.7907 -6.442862,0.5196 L 23,1017.5811 l -3.71875,0.3123 -3.380362,-1.2877 z"
       id="path4142"
       sodipodi:nodetypes="ccccccccccccccc" />
    <path
       style="font-size:medium;font-style:normal;font-variant:normal;font-weight:normal;font-stretch:normal;text-indent:0;text-align:start;text-decoration:none;line-height:normal;letter-spacing:normal;word-spacing:normal;text-transform:none;direction:ltr;block-progression:tb;writing-mode:lr-tb;text-anchor:start;color:#000000;fill:url(#linearGradient3047);fill-opacity:1;stroke:none;stroke-width:1px;marker:none;visibility:visible;display:inline;overflow:visible;enable-background:accumulate;font-family:Bitstream Vera Sans;-inkscape-font-specification:Bitstream Vera Sans"
       d="m 18,1022.706 -3.791973,1.0401 -0.145527,0.1161 3.75,-0.1562 c 0.44594,0.7577 1.152608,1.1893 1.8125,1.6562 1.317393,0.1111 2.646854,0.024 3.96875,10e-4 1.036071,0.4224 2.045554,0.9083 3.0625,1.3747 l 0.0625,0.031 0.09375,0.031 3.900888,-0.5401 0.0054,-0.1161 -3.713388,0.041 c -0.854262,-0.4493 -1.675766,-1.1647 -2.567862,-1.5408 -1.449433,-0.5026 -3.103883,0.2541 -4.625,0.2798 L 18,1022.706 z"
       id="path4144"
       sodipodi:nodetypes="ccccccccccccccc" />
    <path
       style="font-size:medium;font-style:normal;font-variant:normal;font-weight:normal;font-stretch:normal;text-indent:0;text-align:start;text-decoration:none;line-height:normal;letter-spacing:normal;word-spacing:normal;text-transform:none;direction:ltr;block-progression:tb;writing-mode:lr-tb;text-anchor:start;color:#000000;fill:url(#linearGradient3049);fill-opacity:1;stroke:none;stroke-width:1px;marker:none;visibility:visible;display:inline;overflow:visible;enable-background:accumulate;font-family:Bitstream Vera Sans;-inkscape-font-specification:Bitstream Vera Sans"
       d="m 14.4375,1028.7057 -4.416973,1.2383 -0.051777,0.2929 4.3125,-0.5 0.78125,1.0938 3.28125,-0.062 3.5,2.0625 0.323223,0.097 -3.448223,-3.0973 -3.208027,0.7744 -1.073223,-1.8996 z"
       id="path4146"
       sodipodi:nodetypes="ccccccccccc" />
  </g>
</svg>
