<?xml version="1.0" encoding="UTF-8" standalone="no"?>
<!-- Created with Inkscape (http://www.inkscape.org/) -->

<svg
   xmlns:dc="http://purl.org/dc/elements/1.1/"
   xmlns:cc="http://creativecommons.org/ns#"
   xmlns:rdf="http://www.w3.org/1999/02/22-rdf-syntax-ns#"
   xmlns:svg="http://www.w3.org/2000/svg"
   xmlns="http://www.w3.org/2000/svg"
   xmlns:xlink="http://www.w3.org/1999/xlink"
   xmlns:sodipodi="http://sodipodi.sourceforge.net/DTD/sodipodi-0.dtd"
   xmlns:inkscape="http://www.inkscape.org/namespaces/inkscape"
   width="48"
   height="48"
   id="svg2"
   version="1.1"
   inkscape:version="0.47 r22583"
   sodipodi:docname="graduation01.svg"
   inkscape:export-filename="graduation01.png"
   inkscape:export-xdpi="89.949997"
   inkscape:export-ydpi="89.949997">
  <defs
     id="defs4">
    <linearGradient
       id="linearGradient2868">
      <stop
         style="stop-color:#d700d7;stop-opacity:1;"
         offset="0"
         id="stop2870" />
      <stop
         style="stop-color:#6e006e;stop-opacity:1;"
         offset="1"
         id="stop2872" />
    </linearGradient>
    <linearGradient
       id="linearGradient3689">
      <stop
         style="stop-color:#ffea00;stop-opacity:1;"
         offset="0"
         id="stop3691" />
      <stop
         style="stop-color:#ffffa4;stop-opacity:1;"
         offset="1"
         id="stop3693" />
    </linearGradient>
    <linearGradient
       id="linearGradient3801">
      <stop
         id="stop3803"
         offset="0"
         style="stop-color:#a20000;stop-opacity:1;" />
      <stop
         id="stop3805"
         offset="1"
         style="stop-color:#d40000;stop-opacity:1;" />
    </linearGradient>
    <radialGradient
       inkscape:collect="always"
       xlink:href="#linearGradient2868"
       id="radialGradient3686"
       cx="18"
       cy="1023.0283"
       fx="18"
       fy="1023.0283"
       r="19.5"
       gradientTransform="matrix(1,0,0,0.4615788,0,553.15401)"
       gradientUnits="userSpaceOnUse" />
    <linearGradient
       inkscape:collect="always"
       xlink:href="#linearGradient2868"
       id="linearGradient3688"
       x1="25"
       y1="1020.3622"
       x2="24"
       y2="1039.3622"
       gradientUnits="userSpaceOnUse" />
    <linearGradient
       inkscape:collect="always"
       xlink:href="#linearGradient2868"
       id="linearGradient3694"
       x1="17"
       y1="25"
       x2="36"
       y2="36"
       gradientUnits="userSpaceOnUse" />
    <linearGradient
       inkscape:collect="always"
       xlink:href="#linearGradient3669"
       id="linearGradient3706"
       x1="19"
       y1="19"
       x2="19"
       y2="22"
       gradientUnits="userSpaceOnUse" />
    <radialGradient
       inkscape:collect="always"
       xlink:href="#linearGradient3669"
       id="radialGradient3714"
       cx="24.596331"
       cy="23.456749"
       fx="24.596331"
       fy="23.456749"
       r="3.0985475"
       gradientTransform="matrix(1.0205674,0.97719804,-0.96819556,0.92705172,21.759124,-22.696156)"
       gradientUnits="userSpaceOnUse" />
    <linearGradient
       id="linearGradient3669">
      <stop
         id="stop3671"
         offset="0"
         style="stop-color:#ffd73b;stop-opacity:1;" />
      <stop
         id="stop3673"
         offset="1"
         style="stop-color:#ee8400;stop-opacity:1;" />
    </linearGradient>
    <linearGradient
       inkscape:collect="always"
       xlink:href="#linearGradient3669"
       id="linearGradient3837"
       x1="10"
       y1="18"
       x2="10"
       y2="23"
       gradientUnits="userSpaceOnUse" />
    <linearGradient
       inkscape:collect="always"
       xlink:href="#linearGradient3689"
       id="linearGradient3841"
       x1="16.281776"
       y1="19.222052"
       x2="16.281776"
       y2="17.274118"
       gradientUnits="userSpaceOnUse" />
    <linearGradient
       inkscape:collect="always"
       xlink:href="#linearGradient3801"
       id="linearGradient3845"
       x1="8.2659636"
       y1="18.486982"
       x2="8.0857592"
       y2="16.50012"
       gradientUnits="userSpaceOnUse" />
    <filter
       inkscape:collect="always"
       id="filter3851">
      <feGaussianBlur
         inkscape:collect="always"
         stdDeviation="0.26782025"
         id="feGaussianBlur3853" />
    </filter>
    <filter
       inkscape:collect="always"
       id="filter3859"
       x="-0.11335716"
       width="1.2267143"
       y="-0.13676788"
       height="1.2735358">
      <feGaussianBlur
         inkscape:collect="always"
         stdDeviation="0.32767304"
         id="feGaussianBlur3861" />
    </filter>
    <filter
       inkscape:collect="always"
       id="filter3869"
       x="-0.2259891"
       width="1.4519782"
       y="-0.19311796"
       height="1.3862359">
      <feGaussianBlur
         inkscape:collect="always"
         stdDeviation="0.27660124"
         id="feGaussianBlur3871" />
    </filter>
    <filter
       inkscape:collect="always"
       id="filter3901"
       x="-0.12272727"
       width="1.2454545"
       y="-0.2369906"
       height="1.4739812">
      <feGaussianBlur
         inkscape:collect="always"
         stdDeviation="0.17897727"
         id="feGaussianBlur3903" />
    </filter>
    <filter
       inkscape:collect="always"
       id="filter3905"
       x="-0.13729421"
       width="1.2745884"
       y="-0.16756829"
       height="1.3351366">
      <feGaussianBlur
         inkscape:collect="always"
         stdDeviation="0.17897727"
         id="feGaussianBlur3907" />
    </filter>
    <filter
       inkscape:collect="always"
       id="filter3915"
       x="-0.10943289"
       width="1.2188658"
       y="-0.28850488"
       height="1.5770098">
      <feGaussianBlur
         inkscape:collect="always"
         stdDeviation="0.082644628"
         id="feGaussianBlur3917" />
    </filter>
    <filter
       inkscape:collect="always"
       id="filter3644"
       x="-0.079626653"
       width="1.1592533"
       y="-0.39225796"
       height="1.7845159">
      <feGaussianBlur
         inkscape:collect="always"
         stdDeviation="0.92138999"
         id="feGaussianBlur3646" />
    </filter>
  </defs>
  <sodipodi:namedview
     id="base"
     pagecolor="#ffffff"
     bordercolor="#666666"
     borderopacity="1.0"
     inkscape:pageopacity="0.0"
     inkscape:pageshadow="2"
     inkscape:zoom="1"
     inkscape:cx="24"
     inkscape:cy="24"
     inkscape:document-units="px"
     inkscape:current-layer="layer1"
     showgrid="false"
     inkscape:window-width="1181"
     inkscape:window-height="876"
     inkscape:window-x="453"
     inkscape:window-y="24"
     inkscape:window-maximized="0">
    <inkscape:grid
       type="xygrid"
       id="grid2837"
       empspacing="5"
       visible="true"
       enabled="true"
       snapvisiblegridlinesonly="true" />
  </sodipodi:namedview>
  <metadata
     id="metadata7">
    <rdf:RDF>
      <cc:Work
         rdf:about="">
        <dc:format>image/svg+xml</dc:format>
        <dc:type
           rdf:resource="http://purl.org/dc/dcmitype/StillImage" />
        <dc:title />
      </cc:Work>
    </rdf:RDF>
  </metadata>
  <g
     inkscape:label="Layer 1"
     inkscape:groupmode="layer"
     id="layer1"
     transform="translate(0,-1004.3622)">
    <path
       transform="matrix(1.0349098,0,0,1.1902482,0.66031078,997.15753)"
       style="fill:#000000;fill-opacity:0.76862744999999999;fill-rule:evenodd;stroke:none;filter:url(#filter3644)"
       d="m 38.856153,35.873804 c 0,0.801042 -3.629104,0.287447 -4.459695,0.664147 -2.533364,1.148962 -3.456138,2.17767 -7.046541,2.569953 -2.826207,0.308788 -3.474178,-1.578191 -8.969149,-2.254852 -3.250918,-0.400324 -7.295919,-0.291388 -7.295919,-1.164521 0,-1.513281 6.019636,-2.184219 13.708084,-2.184219 7.688447,0 14.06322,0.856211 14.06322,2.369492 z"
       id="path3919"
       sodipodi:nodetypes="csssssc" />
    <path
       style="color:#000000;fill:url(#linearGradient3694);stroke:none;stroke-width:1px;stroke-linecap:butt;stroke-linejoin:miter;stroke-miterlimit:4;stroke-opacity:1;stroke-dasharray:none;stroke-dashoffset:0;marker:none;visibility:visible;display:inline;overflow:visible;enable-background:accumulate"
       d="m 15,23 c -1.390509,3.729446 -2.581487,5.937764 -3,12 5,-1 10.729861,-0.238982 17,4 2.705213,-0.944712 3.361631,-3.973602 12,-4 0,-4 -0.488845,-4.76437 -3,-12 l -23,0 0,0"
       id="path3692"
       transform="translate(0,1004.3622)"
       sodipodi:nodetypes="ccccccc" />
    <path
       sodipodi:nodetypes="ccccccc"
       id="path3684"
       d="m 5,1029.3622 c 0.2051051,-0.1026 -0.2082243,-0.8984 0,-1 6.295917,-3.0741 14.546576,-5.0376 18,-9 7.862311,2.7379 14.292704,1.8021 21,3 0.220689,0.039 -0.222837,0.9577 0,1 0,0 -10,11 -16,14 -0.34351,0.1313 -23,-8 -23,-8 z"
       style="color:#000000;fill:url(#linearGradient3688);stroke:none;stroke-width:1px;marker:none;visibility:visible;display:inline;overflow:visible;enable-background:accumulate;fill-opacity:1" />
    <path
       style="color:#000000;fill:url(#radialGradient3686);stroke:none;stroke-width:1px;marker:none;visibility:visible;display:inline;overflow:visible;enable-background:accumulate"
       d="m 5,1028.3622 c 6.406712,-3.2062 14.432361,-5.9066 18,-10 8.121003,2.828 14.004579,2.6728 21,4 0,0 -10,11 -16,14 -0.34351,0.1313 -23,-8 -23,-8 z"
       id="path3682"
       sodipodi:nodetypes="ccccc" />
    <path
       style="color:#000000;fill:url(#linearGradient3706);stroke:none;stroke-width:1px;stroke-linecap:butt;stroke-linejoin:miter;stroke-miterlimit:4;stroke-opacity:1;stroke-dasharray:none;stroke-dashoffset:0;marker:none;visibility:visible;display:inline;overflow:visible;enable-background:accumulate"
       d="m 14,19 c 5.935542,-0.530711 7.070206,1.762624 10,3 l 0,-1 c -2.665067,-1.334933 -3.183598,-4.816402 -9,-3 l -1,1 z"
       id="path3698"
       transform="translate(0,1004.3622)"
       sodipodi:nodetypes="ccccc" />
    <path
       style="color:#000000;fill:url(#linearGradient3837);stroke:none;stroke-width:1px;stroke-linecap:butt;stroke-linejoin:miter;stroke-miterlimit:4;stroke-opacity:1;stroke-dasharray:none;stroke-dashoffset:0;marker:none;visibility:visible;display:inline;overflow:visible;enable-background:accumulate;fill-opacity:1"
       d="M 15.14242,17.935681 C 11.761613,17.290454 10.484138,15.743799 5,16 c -0.7664069,1.509561 -0.9561863,3.101497 1,5 3.1606984,-0.827365 6.01317,-1.346504 9,-2 l 0.14242,-1.064319 z"
       id="path3702"
       transform="translate(0,1004.3622)"
       sodipodi:nodetypes="ccccc" />
    <path
       sodipodi:type="arc"
       style="fill:url(#radialGradient3714);fill-rule:evenodd;stroke:none;fill-opacity:1"
       id="path3696"
       sodipodi:cx="25.150616"
       sodipodi:cy="23.084991"
       sodipodi:rx="3.0985475"
       sodipodi:ry="1.9150077"
       d="m 28.249163,23.084991 c 0,1.05763 -1.387267,1.915008 -3.098547,1.915008 -1.711281,0 -3.098548,-0.857378 -3.098548,-1.915008 0,-1.057629 1.387267,-1.915007 3.098548,-1.915007 1.71128,0 3.098547,0.857378 3.098547,1.915007 z"
       transform="matrix(1,0,0,1.0443818,-0.15061569,1002.2527)" />
    <path
       style="color:#000000;fill:url(#linearGradient3845);stroke:none;stroke-width:1px;stroke-linecap:butt;stroke-linejoin:miter;stroke-miterlimit:4;stroke-opacity:1;stroke-dasharray:none;stroke-dashoffset:0;marker:none;visibility:visible;display:inline;overflow:visible;enable-background:accumulate"
       d="M 15.326187,18.229709 C 11.699847,17.653905 9.7700914,16.441882 4.4471669,16.502297 3.4993456,16.712704 3.9076276,17.131743 4.1898928,17.531394 9.0378676,16.78353 11.51608,18.168453 15.179173,18.486983 l 0.147014,-0.257274 z"
       id="path3843"
       transform="translate(0,1004.3622)"
       sodipodi:nodetypes="ccccc" />
    <path
       style="color:#000000;fill:url(#linearGradient3841);stroke:none;stroke-width:1px;stroke-linecap:butt;stroke-linejoin:miter;stroke-miterlimit:4;stroke-opacity:1;stroke-dasharray:none;stroke-dashoffset:0;marker:none;visibility:visible;display:inline;overflow:visible;enable-background:accumulate"
       d="m 15,18 2.641654,-0.725881 c -0.472648,0.649311 -0.605139,1.298622 -0.294028,1.947933 L 14.921899,19.075038 C 14.800887,18.422601 14.940263,18.29094 15,18 z"
       id="path3839"
       transform="translate(0,1004.3622)"
       sodipodi:nodetypes="ccccc" />
    <path
       style="color:#000000;fill:#ffffff;stroke:none;stroke-width:1px;stroke-linecap:butt;stroke-linejoin:miter;stroke-miterlimit:4;stroke-opacity:1;stroke-dasharray:none;stroke-dashoffset:0;marker:none;visibility:visible;display:inline;overflow:visible;enable-background:accumulate;filter:url(#filter3851);fill-opacity:0.63555557"
       d="M 14,20.4375 C 13.5,20.5 5.875,23.875 5.875,23.875 l 8.75,3.0625 C 7.7071513,24.262537 10.047857,22.288979 14,20.4375 z"
       id="path3849"
       transform="translate(0,1004.3622)"
       sodipodi:nodetypes="cccc" />
    <path
       style="color:#000000;fill:#ffffff;stroke:none;stroke-width:1px;stroke-linecap:butt;stroke-linejoin:miter;stroke-miterlimit:4;stroke-opacity:1;stroke-dasharray:none;stroke-dashoffset:0;marker:none;visibility:visible;display:inline;overflow:visible;enable-background:accumulate;filter:url(#filter3859);fill-opacity:0.75555557"
       d="m 36.1875,17.375 6.9375,0.75 c -1.708333,2.475113 -3.416667,3.414358 -5.125,5 2.025484,-2.337411 4.273474,-4.710422 -1.8125,-5.75 z"
       id="path3857"
       transform="translate(0,1004.3622)"
       sodipodi:nodetypes="cccc" />
    <path
       style="color:#000000;fill:#ffffff;stroke:none;stroke-width:1px;stroke-linecap:butt;stroke-linejoin:miter;stroke-miterlimit:4;stroke-opacity:1;stroke-dasharray:none;stroke-dashoffset:0;marker:none;visibility:visible;display:inline;overflow:visible;enable-background:accumulate;filter:url(#filter3869);fill-opacity:0.80444443"
       d="m 12.875,31.125 -0.5,3.4375 2.9375,-0.375 C 13.582673,34.015751 12.773365,32.961713 12.875,31.125 z"
       id="path3863"
       transform="translate(0,1004.3622)"
       sodipodi:nodetypes="cccc" />
    <path
       style="color:#000000;fill:#ffffff;stroke:none;stroke-width:1px;stroke-linecap:butt;stroke-linejoin:miter;stroke-miterlimit:4;stroke-opacity:1;stroke-dasharray:none;stroke-dashoffset:0;marker:none;visibility:visible;display:inline;overflow:visible;enable-background:accumulate;filter:url(#filter3901);fill-opacity:0.77777779"
       d="M 4.75,18.8125 5.9375,20.625 8.25,20.125 C 7.1567772,19.889471 6.3169434,20.257011 4.75,18.8125 z"
       id="path3873"
       transform="translate(0,1004.3622)"
       sodipodi:nodetypes="cccc" />
    <path
       style="color:#000000;fill:#ffffff;stroke:none;stroke-width:1px;stroke-linecap:butt;stroke-linejoin:miter;stroke-miterlimit:4;stroke-opacity:1;stroke-dasharray:none;stroke-dashoffset:0;marker:none;visibility:visible;display:inline;overflow:visible;enable-background:accumulate;filter:url(#filter3905);fill-opacity:0.77777779"
       d="m 22.5,22.8125 c 0.316388,-1.423844 1.721476,-1.940437 3,-2.5625 0,0 -3.875,-0.125 -3,2.5625 z"
       id="path3875"
       transform="translate(0,1004.3622)"
       sodipodi:nodetypes="ccc" />
    <path
       style="color:#000000;fill:#ffffff;stroke:none;stroke-width:1px;stroke-linecap:butt;stroke-linejoin:miter;stroke-miterlimit:4;stroke-opacity:1;stroke-dasharray:none;stroke-dashoffset:0;marker:none;visibility:visible;display:inline;overflow:visible;enable-background:accumulate;filter:url(#filter3915);fill-opacity:0.86666667"
       d="M 15.3125,18.1875 17.125,17.75 17,18.4375 l -1.6875,-0.25 z"
       id="path3909"
       transform="translate(0,1004.3622)" />
  </g>
</svg>
