<?xml version="1.0" encoding="UTF-8" standalone="no"?>
<!-- Created with Inkscape (http://www.inkscape.org/) -->

<svg
   xmlns:dc="http://purl.org/dc/elements/1.1/"
   xmlns:cc="http://creativecommons.org/ns#"
   xmlns:rdf="http://www.w3.org/1999/02/22-rdf-syntax-ns#"
   xmlns:svg="http://www.w3.org/2000/svg"
   xmlns="http://www.w3.org/2000/svg"
   xmlns:xlink="http://www.w3.org/1999/xlink"
   xmlns:sodipodi="http://sodipodi.sourceforge.net/DTD/sodipodi-0.dtd"
   xmlns:inkscape="http://www.inkscape.org/namespaces/inkscape"
   width="48"
   height="48"
   id="svg2"
   version="1.1"
   inkscape:version="0.47 r22583"
   sodipodi:docname="graduation02.svg"
   inkscape:export-filename="graduation02.png"
   inkscape:export-xdpi="90"
   inkscape:export-ydpi="90">
  <defs
     id="defs4">
    <linearGradient
       id="linearGradient3801">
      <stop
         style="stop-color:#bd0000;stop-opacity:1;"
         offset="0"
         id="stop3803" />
      <stop
         style="stop-color:#ff0909;stop-opacity:1;"
         offset="1"
         id="stop3805" />
    </linearGradient>
    <linearGradient
       id="linearGradient3643">
      <stop
         style="stop-color:#f4e9b0;stop-opacity:1;"
         offset="0"
         id="stop3645" />
      <stop
         style="stop-color:#fffbe5;stop-opacity:1;"
         offset="1"
         id="stop3647" />
    </linearGradient>
    <linearGradient
       inkscape:collect="always"
       xlink:href="#linearGradient3643"
       id="linearGradient2882"
       x1="23"
       y1="20"
       x2="27"
       y2="15"
       gradientUnits="userSpaceOnUse"
       gradientTransform="translate(0,1006.8525)" />
    <linearGradient
       inkscape:collect="always"
       xlink:href="#linearGradient3643"
       id="linearGradient2884"
       x1="19"
       y1="27"
       x2="25"
       y2="18"
       gradientUnits="userSpaceOnUse"
       gradientTransform="translate(0,1006.8525)" />
    <linearGradient
       inkscape:collect="always"
       xlink:href="#linearGradient3643"
       id="linearGradient2888"
       x1="40"
       y1="29"
       x2="29"
       y2="48"
       gradientUnits="userSpaceOnUse"
       gradientTransform="translate(0,1006.8525)" />
    <linearGradient
       inkscape:collect="always"
       xlink:href="#linearGradient3643"
       id="linearGradient2894"
       x1="40"
       y1="29"
       x2="35"
       y2="37"
       gradientUnits="userSpaceOnUse"
       gradientTransform="translate(0,1006.8525)" />
    <linearGradient
       inkscape:collect="always"
       xlink:href="#linearGradient3643"
       id="linearGradient2898"
       x1="31"
       y1="37"
       x2="36"
       y2="35"
       gradientUnits="userSpaceOnUse"
       gradientTransform="translate(0,1006.8525)" />
    <filter
       inkscape:collect="always"
       id="filter3678">
      <feGaussianBlur
         inkscape:collect="always"
         stdDeviation="0.1811961"
         id="feGaussianBlur3680" />
    </filter>
    <filter
       inkscape:collect="always"
       id="filter3682">
      <feGaussianBlur
         inkscape:collect="always"
         stdDeviation="0.1811961"
         id="feGaussianBlur3684" />
    </filter>
    <filter
       inkscape:collect="always"
       id="filter3686">
      <feGaussianBlur
         inkscape:collect="always"
         stdDeviation="0.1811961"
         id="feGaussianBlur3688" />
    </filter>
    <filter
       inkscape:collect="always"
       id="filter3696">
      <feGaussianBlur
         inkscape:collect="always"
         stdDeviation="0.077990381"
         id="feGaussianBlur3698" />
    </filter>
    <linearGradient
       inkscape:collect="always"
       xlink:href="#linearGradient3801"
       id="linearGradient3702"
       x1="19.401243"
       y1="21.483496"
       x2="22.76"
       y2="18.655069"
       gradientUnits="userSpaceOnUse"
       gradientTransform="translate(0,1006.8525)" />
    <linearGradient
       inkscape:collect="always"
       xlink:href="#linearGradient3801"
       id="linearGradient3710"
       x1="15.998291"
       y1="31.869127"
       x2="18.384777"
       y2="26.83099"
       gradientUnits="userSpaceOnUse"
       gradientTransform="translate(0,1006.8525)" />
    <linearGradient
       inkscape:collect="always"
       xlink:href="#linearGradient3801"
       id="linearGradient3712"
       x1="31.815594"
       y1="1026.8719"
       x2="34.240013"
       y2="1021.65"
       gradientUnits="userSpaceOnUse"
       gradientTransform="translate(0,2.4903)" />
    <filter
       inkscape:collect="always"
       id="filter3728"
       x="-0.2314049"
       width="1.4628098"
       y="-0.11157026"
       height="1.2231405">
      <feGaussianBlur
         inkscape:collect="always"
         stdDeviation="0.2301019"
         id="feGaussianBlur3730" />
    </filter>
    <filter
       inkscape:collect="always"
       id="filter3732"
       x="-0.13293477"
       width="1.2658695"
       y="-0.19524794"
       height="1.3904959">
      <feGaussianBlur
         inkscape:collect="always"
         stdDeviation="0.2301019"
         id="feGaussianBlur3734" />
    </filter>
    <filter
       inkscape:collect="always"
       id="filter3744"
       x="-0.2437848"
       width="1.4875696"
       y="-0.12314901"
       height="1.246298">
      <feGaussianBlur
         inkscape:collect="always"
         stdDeviation="0.43993293"
         id="feGaussianBlur3746" />
    </filter>
    <filter
       inkscape:collect="always"
       id="filter3750"
       x="-0.09279378"
       width="1.1855876"
       y="-0.13707102"
       height="1.274142">
      <feGaussianBlur
         inkscape:collect="always"
         stdDeviation="0.88534396"
         id="feGaussianBlur3752" />
    </filter>
    <filter
       inkscape:collect="always"
       id="filter3653">
      <feGaussianBlur
         inkscape:collect="always"
         stdDeviation="0.55742928"
         id="feGaussianBlur3655" />
    </filter>
  </defs>
  <sodipodi:namedview
     id="base"
     pagecolor="#ffffff"
     bordercolor="#666666"
     borderopacity="1.0"
     inkscape:pageopacity="0.0"
     inkscape:pageshadow="2"
     inkscape:zoom="1"
     inkscape:cx="9.2459016"
     inkscape:cy="24"
     inkscape:document-units="px"
     inkscape:current-layer="layer1"
     showgrid="false"
     inkscape:window-width="1314"
     inkscape:window-height="833"
     inkscape:window-x="326"
     inkscape:window-y="24"
     inkscape:window-maximized="0">
    <inkscape:grid
       type="xygrid"
       id="grid2837"
       empspacing="5"
       visible="true"
       enabled="true"
       snapvisiblegridlinesonly="true" />
  </sodipodi:namedview>
  <metadata
     id="metadata7">
    <rdf:RDF>
      <cc:Work
         rdf:about="">
        <dc:format>image/svg+xml</dc:format>
        <dc:type
           rdf:resource="http://purl.org/dc/dcmitype/StillImage" />
        <dc:title />
      </cc:Work>
    </rdf:RDF>
  </metadata>
  <g
     inkscape:label="Layer 1"
     inkscape:groupmode="layer"
     id="layer1"
     transform="translate(0,-1004.3622)">
    <path
       style="color:#000000;fill:#000000;stroke:none;stroke-width:1px;stroke-linecap:butt;stroke-linejoin:miter;stroke-miterlimit:4;stroke-opacity:1;stroke-dasharray:none;stroke-dashoffset:0;marker:none;visibility:visible;display:inline;overflow:visible;enable-background:accumulate;fill-opacity:0.76862746000000004;filter:url(#filter3653)"
       d="M 11.875,9.4375 5.90625,16.75 c 5.057294,3.505543 9.05607,7.159974 12.4375,10.875 -2.088636,2.907641 -4.505028,4.249041 -6.78125,6.21875 l 3.15625,-0.46875 -0.78125,4 c 4.389763,-2.413115 6.160656,-3.964139 7,-6.0625 3.04751,1.537766 5.475718,8.229098 9.59375,11.875 5.87541,1.468852 11.588012,-3.968545 13.84375,-6.90625 l -13.78125,-11.375 0.71875,-0.8125 c 2.888286,-1.13668 4.045423,-2.287435 6.068135,-4.826434 L 33.75,20.15625 l 1.1875,-3.875 -3.625,4.5625 -1,3.8125 L 11.875,9.4375 z"
       transform="translate(0,1004.3622)"
       id="path2860"
       sodipodi:nodetypes="ccccccccccccccccc" />
    <path
       id="path3708"
       d="m 29.615225,1029.3622 c 4.238201,-1.7455 6.838504,-4.1462 7.541606,-7.3057 l -3.105758,1.6202 0.326822,-4.7583 c -1.998292,4.9959 -4.994257,6.2506 -7.903538,7.8303 l 3.140868,2.6135 z"
       style="color:#000000;fill:url(#linearGradient3712);stroke:none;stroke-width:1px;marker:none;visibility:visible;display:inline;overflow:visible;enable-background:accumulate"
       sodipodi:nodetypes="cccccc" />
    <path
       style="color:#000000;fill:url(#linearGradient3710);stroke:none;stroke-width:1px;marker:none;visibility:visible;display:inline;overflow:visible;enable-background:accumulate"
       d="m 18.119611,1030.8109 c -1.038335,4.2705 -4.66254,5.3087 -7.424621,7.4246 l 4.154253,-0.7955 -1.325826,3.8891 c 3.643514,-1.9242 7.139115,-3.9508 7.778175,-7.955 l -3.181981,-2.5632 z"
       id="path3706"
       sodipodi:nodetypes="cccccc" />
    <path
       style="color:#000000;fill:url(#linearGradient2888);fill-opacity:1;stroke:none;stroke-width:1px;marker:none;visibility:visible;display:inline;overflow:visible;enable-background:accumulate"
       d="m 30,1046.8525 c 4.905551,1.998 16.197489,-3.9746 14,-11 l -12,-6 -9,7 7,10 z"
       id="path2886"
       sodipodi:nodetypes="ccccc" />
    <path
       sodipodi:nodetypes="ccccc"
       id="path2900"
       d="m 44,1037.8525 c -2,4 -4,7 -12,8 l -7,-8 7,-5 12,5 z"
       style="color:#000000;fill:#000000;fill-opacity:0.51339285;stroke:none;stroke-width:1px;marker:none;visibility:visible;display:inline;overflow:visible;filter:url(#filter3678);enable-background:accumulate" />
    <path
       style="color:#000000;fill:url(#linearGradient2894);stroke:none;stroke-width:1px;marker:none;visibility:visible;display:inline;overflow:visible;enable-background:accumulate"
       d="m 44,1037.8525 c -2,4 -4,7 -12,8 l -7,-8 7,-5 12,5 z"
       id="path2892"
       sodipodi:nodetypes="ccccc" />
    <path
       sodipodi:nodetypes="csccc"
       id="path2902"
       d="m 32,1045.8525 c 0,-2 2,-4 5,-5 0.948683,-0.3162 -8,-5 -8,-5 l -3,3 6,7 z"
       style="color:#000000;fill:#000000;fill-opacity:0.51339285;stroke:none;stroke-width:1px;marker:none;visibility:visible;display:inline;overflow:visible;filter:url(#filter3682);enable-background:accumulate" />
    <path
       style="color:#000000;fill:url(#linearGradient2898);fill-opacity:1;stroke:none;stroke-width:1px;marker:none;visibility:visible;display:inline;overflow:visible;enable-background:accumulate"
       d="m 32,1045.8525 c 0,-2 2,-4 5,-5 0.948683,-0.3162 -8,-5 -8,-5 l -3,3 6,7 z"
       id="path2896"
       sodipodi:nodetypes="csccc" />
    <path
       sodipodi:nodetypes="ccccc"
       id="path2904"
       d="M 14.219672,1012.5968 C 11,1011.8525 5,1014.8525 6,1020.8525 c 12.038897,8.0491 17.411551,16.8354 24,26 0,-4 7,-10 14,-9 -11,-7 -25.312673,-16.2978 -29.780328,-25.2557 z"
       style="color:#000000;fill:#000000;fill-opacity:0.51339285;stroke:none;stroke-width:1px;marker:none;visibility:visible;display:inline;overflow:visible;filter:url(#filter3686);enable-background:accumulate" />
    <path
       style="color:#000000;fill:url(#linearGradient2884);stroke:none;stroke-width:1px;marker:none;visibility:visible;display:inline;overflow:visible;enable-background:accumulate"
       d="M 14.219672,1012.5968 C 11,1011.8525 5,1014.8525 6,1020.8525 c 12.038897,8.0491 17.411551,16.8354 24,26 0,-4 7,-10 14,-9 -11,-7 -25.312673,-16.2978 -29.780328,-25.2557 z"
       id="path2880"
       sodipodi:nodetypes="ccccc" />
    <path
       sodipodi:nodetypes="ccccc"
       id="path3690"
       d="m 14,1011.8525 c -2,-1 -5,0 -6,2 l 26,24 c 4,-3 7,-3 10,-2 -10.501048,-5.499 -22.222642,-12.8976 -30,-24 z"
       style="color:#000000;fill:#000000;fill-opacity:0.38839285;stroke:none;stroke-width:1px;marker:none;visibility:visible;display:inline;overflow:visible;filter:url(#filter3696);enable-background:accumulate" />
    <path
       style="color:#000000;fill:url(#linearGradient2882);stroke:none;stroke-width:1px;marker:none;visibility:visible;display:inline;overflow:visible;enable-background:accumulate"
       d="m 14,1011.8525 c -2,-1 -5,0 -6,2 l 26,24 c 4,-3 7,-3 10,-2 -10.501048,-5.499 -22.222642,-12.8976 -30,-24 z"
       id="path2876"
       sodipodi:nodetypes="ccccc" />
    <path
       style="color:#000000;fill:url(#linearGradient3702);stroke:none;stroke-width:1px;marker:none;visibility:visible;display:inline;overflow:visible;enable-background:accumulate"
       d="m 16.793786,1030.2805 c 1.468075,1.4732 1.757885,1.974 3.005204,3.4472 1.937058,-2.8493 2.881176,-6.5196 8.927224,-7.955 -1.715159,-1.2669 -2.496199,-1.5615 -3.977477,-2.8284 -3.849126,0.9486 -5.956229,4.0747 -7.954951,7.3362 z"
       id="path3700"
       sodipodi:nodetypes="ccccc" />
    <path
       style="color:#000000;fill:#ffffff;stroke:none;stroke-width:1px;marker:none;visibility:visible;display:inline;overflow:visible;filter:url(#filter3744);enable-background:accumulate"
       d="m 8.3085047,1015.1661 c -1.9511846,1.9307 -1.8006158,3.5986 -1.9445437,5.3033 l 4.331029,3.2704 c -1.5118746,-2.2012 -3.5716266,-3.9002 -2.3864853,-8.5737 z"
       id="path3714"
       sodipodi:nodetypes="cccc" />
    <path
       style="color:#000000;fill:#ffffff;fill-opacity:0.77678576;stroke:none;stroke-width:1px;marker:none;visibility:visible;display:inline;overflow:visible;filter:url(#filter3728);enable-background:accumulate"
       d="m 19.533825,1026.8334 -2.386486,3.2704 1.767767,1.6793 c -1.036239,-1.8274 0.136836,-3.3392 0.618719,-4.9497 z"
       id="path3716"
       sodipodi:nodetypes="cccc" />
    <path
       style="color:#000000;fill:#ffffff;fill-opacity:0.77678576;stroke:none;stroke-width:1px;marker:none;visibility:visible;display:inline;overflow:visible;filter:url(#filter3732);enable-background:accumulate"
       d="m 11.932427,1037.7935 4.154252,-2.8284 c -0.505063,0.5884 -1.621919,1.0545 -1.06066,1.8562 l -3.093592,0.9722 z"
       id="path3718"
       sodipodi:nodetypes="cccc" />
  </g>
</svg>
