<?xml version="1.0" encoding="UTF-8" standalone="no"?>
<!-- Created with Inkscape (http://www.inkscape.org/) -->

<svg
   xmlns:dc="http://purl.org/dc/elements/1.1/"
   xmlns:cc="http://creativecommons.org/ns#"
   xmlns:rdf="http://www.w3.org/1999/02/22-rdf-syntax-ns#"
   xmlns:svg="http://www.w3.org/2000/svg"
   xmlns="http://www.w3.org/2000/svg"
   xmlns:xlink="http://www.w3.org/1999/xlink"
   xmlns:sodipodi="http://sodipodi.sourceforge.net/DTD/sodipodi-0.dtd"
   xmlns:inkscape="http://www.inkscape.org/namespaces/inkscape"
   width="48"
   height="48"
   id="svg2"
   version="1.1"
   inkscape:version="0.47 r22583"
   sodipodi:docname="halloween01.svg"
   inkscape:export-filename="halloween01.png"
   inkscape:export-xdpi="89.949997"
   inkscape:export-ydpi="89.949997">
  <defs
     id="defs4">
    <linearGradient
       id="linearGradient3701">
      <stop
         style="stop-color:#704608;stop-opacity:1;"
         offset="0"
         id="stop3703" />
      <stop
         style="stop-color:#ab8855;stop-opacity:1;"
         offset="1"
         id="stop3705" />
    </linearGradient>
    <linearGradient
       id="linearGradient3689">
      <stop
         style="stop-color:#ffea00;stop-opacity:1;"
         offset="0"
         id="stop3691" />
      <stop
         style="stop-color:#ffffa4;stop-opacity:1;"
         offset="1"
         id="stop3693" />
    </linearGradient>
    <linearGradient
       id="linearGradient3679">
      <stop
         style="stop-color:#552200;stop-opacity:1;"
         offset="0"
         id="stop3681" />
      <stop
         style="stop-color:#b6632c;stop-opacity:1;"
         offset="1"
         id="stop3683" />
    </linearGradient>
    <linearGradient
       id="linearGradient3669">
      <stop
         style="stop-color:#ffd73b;stop-opacity:1;"
         offset="0"
         id="stop3671" />
      <stop
         style="stop-color:#ee8400;stop-opacity:1;"
         offset="1"
         id="stop3673" />
    </linearGradient>
    <radialGradient
       inkscape:collect="always"
       xlink:href="#linearGradient3669"
       id="radialGradient3675"
       cx="17.360392"
       cy="1023.9149"
       fx="17.360392"
       fy="1023.9149"
       r="17.592218"
       gradientTransform="matrix(0.40059684,0.90499378,-0.76871011,0.34027589,797.49962,661.7292)"
       gradientUnits="userSpaceOnUse" />
    <linearGradient
       inkscape:collect="always"
       xlink:href="#linearGradient3679"
       id="linearGradient3687"
       x1="28.547825"
       y1="1017.8503"
       x2="26.144543"
       y2="1015.926"
       gradientUnits="userSpaceOnUse" />
    <linearGradient
       inkscape:collect="always"
       xlink:href="#linearGradient3689"
       id="linearGradient3695"
       x1="14.553622"
       y1="23"
       x2="12.5"
       y2="30.588675"
       gradientUnits="userSpaceOnUse" />
    <linearGradient
       inkscape:collect="always"
       xlink:href="#linearGradient3689"
       id="linearGradient3697"
       x1="30.609047"
       y1="23"
       x2="29.5"
       y2="31.62822"
       gradientUnits="userSpaceOnUse" />
    <linearGradient
       inkscape:collect="always"
       xlink:href="#linearGradient3689"
       id="linearGradient3699"
       x1="16.756403"
       y1="32.34375"
       x2="16.758242"
       y2="40.317619"
       gradientUnits="userSpaceOnUse" />
    <linearGradient
       inkscape:collect="always"
       xlink:href="#linearGradient3701"
       id="linearGradient3707"
       x1="12.5"
       y1="24.454319"
       x2="16"
       y2="26"
       gradientUnits="userSpaceOnUse" />
    <linearGradient
       inkscape:collect="always"
       xlink:href="#linearGradient3701"
       id="linearGradient3709"
       x1="26"
       y1="26"
       x2="31.1875"
       y2="26"
       gradientUnits="userSpaceOnUse" />
    <linearGradient
       inkscape:collect="always"
       xlink:href="#linearGradient3701"
       id="linearGradient3711"
       x1="17.432106"
       y1="38"
       x2="18.65625"
       y2="32.34375"
       gradientUnits="userSpaceOnUse" />
    <linearGradient
       inkscape:collect="always"
       xlink:href="#linearGradient3669"
       id="linearGradient3778"
       x1="28.691426"
       y1="23.841117"
       x2="40.335007"
       y2="20.150736"
       gradientUnits="userSpaceOnUse" />
    <linearGradient
       inkscape:collect="always"
       xlink:href="#linearGradient3669"
       id="linearGradient3780"
       x1="25.416861"
       y1="29.106279"
       x2="31.867142"
       y2="29.106279"
       gradientUnits="userSpaceOnUse" />
    <linearGradient
       inkscape:collect="always"
       xlink:href="#linearGradient3669"
       id="linearGradient3782"
       x1="18.192027"
       y1="29.262211"
       x2="23.009797"
       y2="29.262211"
       gradientUnits="userSpaceOnUse" />
    <linearGradient
       inkscape:collect="always"
       xlink:href="#linearGradient3669"
       id="linearGradient3784"
       x1="11.123126"
       y1="26.013636"
       x2="16.944574"
       y2="29.080292"
       gradientUnits="userSpaceOnUse" />
    <linearGradient
       inkscape:collect="always"
       xlink:href="#linearGradient3669"
       id="linearGradient3786"
       x1="18.295982"
       y1="1022.448"
       x2="18.295982"
       y2="1020.8887"
       gradientUnits="userSpaceOnUse" />
    <filter
       inkscape:collect="always"
       id="filter3798"
       x="-0.15459161"
       width="1.3091832"
       y="-0.24123248"
       height="1.482465">
      <feGaussianBlur
         inkscape:collect="always"
         stdDeviation="0.20375219"
         id="feGaussianBlur3800" />
    </filter>
    <filter
       inkscape:collect="always"
       id="filter3812">
      <feGaussianBlur
         inkscape:collect="always"
         stdDeviation="0.23966333"
         id="feGaussianBlur3814" />
    </filter>
    <filter
       inkscape:collect="always"
       id="filter3641"
       x="-0.047149919"
       width="1.0942998"
       y="-0.29882854"
       height="1.5976571">
      <feGaussianBlur
         inkscape:collect="always"
         stdDeviation="0.67728367"
         id="feGaussianBlur3643" />
    </filter>
  </defs>
  <sodipodi:namedview
     id="base"
     pagecolor="#ffffff"
     bordercolor="#666666"
     borderopacity="1.0"
     inkscape:pageopacity="0.0"
     inkscape:pageshadow="2"
     inkscape:zoom="1"
     inkscape:cx="23.779317"
     inkscape:cy="24"
     inkscape:document-units="px"
     inkscape:current-layer="layer1"
     showgrid="false"
     inkscape:window-width="1182"
     inkscape:window-height="876"
     inkscape:window-x="452"
     inkscape:window-y="24"
     inkscape:window-maximized="0">
    <inkscape:grid
       type="xygrid"
       id="grid2837"
       empspacing="5"
       visible="true"
       enabled="true"
       snapvisiblegridlinesonly="true" />
  </sodipodi:namedview>
  <metadata
     id="metadata7">
    <rdf:RDF>
      <cc:Work
         rdf:about="">
        <dc:format>image/svg+xml</dc:format>
        <dc:type
           rdf:resource="http://purl.org/dc/dcmitype/StillImage" />
        <dc:title />
      </cc:Work>
    </rdf:RDF>
  </metadata>
  <g
     inkscape:label="Layer 1"
     inkscape:groupmode="layer"
     id="layer1"
     transform="translate(0,-1004.3622)">
    <path
       sodipodi:type="arc"
       style="fill:#000000;fill-opacity:0.76862745;fill-rule:evenodd;stroke:none;filter:url(#filter3641)"
       id="path3816"
       sodipodi:cx="23.705973"
       sodipodi:cy="39.252682"
       sodipodi:rx="17.237366"
       sodipodi:ry="2.7197549"
       d="m 40.943338,39.252682 a 17.237366,2.7197549 0 1 1 -34.4747311,0 17.237366,2.7197549 0 1 1 34.4747311,0 z"
       transform="matrix(0.89765459,0,0,1.1081081,2.5732115,1001.1478)" />
    <path
       style="color:#000000;fill:url(#radialGradient3675);fill-opacity:1;stroke:none;stroke-width:1px;marker:none;visibility:visible;display:inline;overflow:visible;enable-background:accumulate"
       d="m 9,1027.3622 c -2,3 -2.509902,8.4307 -2,12 1,7 8,6 11,7 3,1 17,0 20,-3 3,-3 4,-5 4,-9 -1,-11 -4,-14 -16,-15 -8,-1 -12,1 -17,8 z"
       id="path2867"
       sodipodi:nodetypes="csssccc" />
    <path
       style="color:#000000;fill:url(#linearGradient3782);stroke:none;stroke-width:1px;stroke-linecap:butt;stroke-linejoin:miter;stroke-miterlimit:4;stroke-opacity:1;stroke-dasharray:none;stroke-dashoffset:0;marker:none;visibility:visible;display:inline;overflow:visible;enable-background:accumulate"
       d="m 22.973932,18.684847 -4.781905,21.154729 c 0,0 5.301677,-20.115184 4.781905,-21.154729 z"
       id="path3725"
       transform="translate(0,1004.3622)" />
    <path
       style="color:#000000;fill:url(#linearGradient3784);stroke:none;stroke-width:1px;stroke-linecap:butt;stroke-linejoin:miter;stroke-miterlimit:4;stroke-opacity:1;stroke-dasharray:none;stroke-dashoffset:0;marker:none;visibility:visible;display:inline;overflow:visible;enable-background:accumulate"
       d="M 21.050775,17.541348 C 16.151728,19.115302 9.9201582,29.710918 9.875672,38.020374 10.39105,32.231596 16.268412,19.819207 21.050775,17.541348 z"
       id="path3713"
       transform="translate(0,1004.3622)"
       sodipodi:nodetypes="ccc" />
    <path
       style="color:#000000;fill:url(#linearGradient3695);stroke:none;stroke-width:1px;stroke-linecap:butt;stroke-linejoin:miter;stroke-miterlimit:4;stroke-opacity:1;stroke-dasharray:none;stroke-dashoffset:0;marker:none;visibility:visible;display:inline;overflow:visible;enable-background:accumulate;fill-opacity:1"
       d="m 13,23 -4,5 7,1 -3,-6 z"
       id="path3641"
       transform="translate(0,1004.3622)"
       sodipodi:nodetypes="cccc" />
    <path
       style="color:#000000;fill:url(#linearGradient3780);stroke:none;stroke-width:1px;stroke-linecap:butt;stroke-linejoin:miter;stroke-miterlimit:4;stroke-opacity:1;stroke-dasharray:none;stroke-dashoffset:0;marker:none;visibility:visible;display:inline;overflow:visible;enable-background:accumulate"
       d="m 25.416861,19.152642 c 0.363957,0.291165 3.934602,14.454829 3.690383,19.907276 1.131724,-2.746485 -0.923217,-15.280264 -3.690383,-19.907276 z"
       id="path3727"
       transform="translate(0,1004.3622)"
       sodipodi:nodetypes="ccc" />
    <path
       style="color:#000000;fill:url(#linearGradient3697);stroke:none;stroke-width:1px;stroke-linecap:butt;stroke-linejoin:miter;stroke-miterlimit:4;stroke-opacity:1;stroke-dasharray:none;stroke-dashoffset:0;marker:none;visibility:visible;display:inline;overflow:visible;enable-background:accumulate"
       d="m 26,29 7,-1 -5,-5 -2,6 z"
       id="path3643"
       sodipodi:nodetypes="cccc"
       transform="translate(0,1004.3622)" />
    <path
       style="color:#000000;fill:url(#linearGradient3699);stroke:none;stroke-width:1px;stroke-linecap:butt;stroke-linejoin:miter;stroke-miterlimit:4;stroke-opacity:1;stroke-dasharray:none;stroke-dashoffset:0;marker:none;visibility:visible;display:inline;overflow:visible;enable-background:accumulate"
       d="M 9.6875 32.34375 C 10.346191 33.141147 11.084939 33.806084 11.84375 34.34375 L 11 36 L 13 37 L 13.78125 35.40625 C 14.508426 35.720655 15.238699 35.964318 16 36.125 L 16 38 L 18 38 L 18 36.375 C 18.729417 36.42105 19.465156 36.39152 20.1875 36.34375 L 21 38 L 23 38 L 23 36 C 23.767518 35.844465 24.518481 35.644262 25.21875 35.4375 L 26 37 L 28 36 L 27.375 34.71875 C 29.51184 33.903562 30.936384 33.089063 31 33 C 23.770695 33.758074 16.533444 34.460885 9.6875 32.34375 z "
       transform="translate(0,1004.3622)"
       id="path3645" />
    <path
       style="color:#000000;fill:url(#linearGradient3687);stroke:none;stroke-width:1px;marker:none;visibility:visible;display:inline;overflow:visible;enable-background:accumulate;fill-opacity:1"
       d="m 23,1021.3622 c 1.948023,-3.6881 2.908478,-4.7525 5.12882,-6.0768 2.103159,-0.1213 3.944265,0.592 3.324296,2.4158 -4,2 -2.972888,1.8169 -6.453116,4.661 -1,0 -2,0 -2,-1 z"
       id="path3650"
       sodipodi:nodetypes="ccccc" />
    <path
       style="color:#000000;fill:url(#linearGradient3707);stroke:none;stroke-width:1px;stroke-linecap:butt;stroke-linejoin:miter;stroke-miterlimit:4;stroke-opacity:1;stroke-dasharray:none;stroke-dashoffset:0;marker:none;visibility:visible;display:inline;overflow:visible;enable-background:accumulate;fill-opacity:1"
       d="M 13 23 L 9 28 L 16 29 L 15.9375 28.84375 L 10 28 L 13.375 23.78125 L 13 23 z "
       transform="translate(0,1004.3622)"
       id="path3652" />
    <path
       style="color:#000000;fill:url(#linearGradient3709);stroke:none;stroke-width:1px;stroke-linecap:butt;stroke-linejoin:miter;stroke-miterlimit:4;stroke-opacity:1;stroke-dasharray:none;stroke-dashoffset:0;marker:none;visibility:visible;display:inline;overflow:visible;enable-background:accumulate"
       d="M 28 23 L 26 29 L 31.1875 28.25 L 27 28 L 28.78125 23.78125 L 28 23 z "
       transform="translate(0,1004.3622)"
       id="path3657" />
    <path
       style="color:#000000;fill:url(#linearGradient3711);stroke:none;stroke-width:1px;stroke-linecap:butt;stroke-linejoin:miter;stroke-miterlimit:4;stroke-opacity:1;stroke-dasharray:none;stroke-dashoffset:0;marker:none;visibility:visible;display:inline;overflow:visible;enable-background:accumulate"
       d="m 9.6875,32.34375 c 0.658691,0.797397 1.397439,1.462334 2.15625,2 L 11,36 l 2,1 0.1875,-0.40625 -1.21875,-0.90625 0.625,-1.625 -2.90625,-1.71875 z m 5.125,2.96875 -0.90625,0.15625 C 14.590569,35.756472 15.284028,35.973885 16,36.125 L 16,38 18,38 18,37.6875 16.625,37.59375 16.6875,36 14.8125,35.3125 z m 10.8125,0 -0.40625,0.125 L 26,37 27.625,36.1875 26.25,36.34375 25.625,35.3125 z M 18.708227,36.145409 18.15625,36.375 c 0.678103,0.03302 1.36046,0.01311 2.03125,-0.03125 L 21,38 l 2,0 0,-0.625 -1.46875,-0.03125 -0.6875,-1.25 -2.135523,0.05166 z"
       transform="translate(0,1004.3622)"
       id="path3664"
       sodipodi:nodetypes="cccccccccccccccccccccccccccccccc" />
    <path
       style="color:#000000;fill:url(#linearGradient3786);stroke:none;stroke-width:1px;marker:none;visibility:visible;display:inline;overflow:visible;enable-background:accumulate"
       d="m 21.622524,1020.812 c -1.646839,-0.5537 -3.774794,-0.2339 -5.665517,-0.104 l -0.987567,0.5718 c 1.854337,-0.2005 5.075132,-0.9583 6.653084,-0.4678 z"
       id="path3746"
       sodipodi:nodetypes="cccc" />
    <path
       style="color:#000000;fill:url(#linearGradient3778);stroke:none;stroke-width:1px;stroke-linecap:butt;stroke-linejoin:miter;stroke-miterlimit:4;stroke-opacity:1;stroke-dasharray:none;stroke-dashoffset:0;marker:none;visibility:visible;display:inline;overflow:visible;enable-background:accumulate"
       d="m 28.691426,17.749257 c 3.821122,0.391999 11.036315,8.374493 11.642898,12.214647 0.0851,-4.36815 -7.818329,-12.82077 -11.642898,-12.214647 z"
       id="path3729"
       transform="translate(0,1004.3622)"
       sodipodi:nodetypes="ccc" />
    <path
       style="color:#000000;fill:#ffffff;stroke:none;stroke-width:1px;stroke-linecap:butt;stroke-linejoin:miter;stroke-miterlimit:4;stroke-opacity:1;stroke-dasharray:none;stroke-dashoffset:0;marker:none;visibility:visible;display:inline;overflow:visible;enable-background:accumulate;filter:url(#filter3798);fill-opacity:0.47999999"
       d="m 28.171654,11.14815 c 0.897186,0.766085 1.556289,1.770254 2.962702,2.027112 0,0 1.351407,-1.611294 -2.962702,-2.027112 z"
       id="path3788"
       transform="translate(0,1004.3622)"
       sodipodi:nodetypes="ccc" />
    <path
       style="color:#000000;fill:#ffffff;stroke:none;stroke-width:1px;stroke-linecap:butt;stroke-linejoin:miter;stroke-miterlimit:4;stroke-opacity:1;stroke-dasharray:none;stroke-dashoffset:0;marker:none;visibility:visible;display:inline;overflow:visible;enable-background:accumulate;filter:url(#filter3812);fill-opacity:0.67111111"
       d="m 10.967193,21.127777 c 3.476588,-1.152579 7.590519,-5.645606 11.902784,-6.133313 -0.401306,-0.702286 -9.319592,0.830202 -11.902784,6.133313 z"
       id="path3802"
       transform="translate(0,1004.3622)"
       sodipodi:nodetypes="ccc" />
  </g>
</svg>
