<?xml version="1.0" encoding="UTF-8" standalone="no"?>
<!-- Created with Inkscape (http://www.inkscape.org/) -->

<svg
   xmlns:dc="http://purl.org/dc/elements/1.1/"
   xmlns:cc="http://creativecommons.org/ns#"
   xmlns:rdf="http://www.w3.org/1999/02/22-rdf-syntax-ns#"
   xmlns:svg="http://www.w3.org/2000/svg"
   xmlns="http://www.w3.org/2000/svg"
   xmlns:xlink="http://www.w3.org/1999/xlink"
   xmlns:sodipodi="http://sodipodi.sourceforge.net/DTD/sodipodi-0.dtd"
   xmlns:inkscape="http://www.inkscape.org/namespaces/inkscape"
   width="48"
   height="48"
   id="svg2"
   version="1.1"
   inkscape:version="0.47 r22583"
   sodipodi:docname="halloween03.svg"
   inkscape:export-filename="halloween03.png"
   inkscape:export-xdpi="89.949997"
   inkscape:export-ydpi="89.949997">
  <defs
     id="defs4">
    <linearGradient
       id="linearGradient2868">
      <stop
         style="stop-color:#d700d7;stop-opacity:1;"
         offset="0"
         id="stop2870" />
      <stop
         style="stop-color:#6e006e;stop-opacity:1;"
         offset="1"
         id="stop2872" />
    </linearGradient>
    <linearGradient
       id="linearGradient3651">
      <stop
         style="stop-color:#555555;stop-opacity:1;"
         offset="0"
         id="stop3653" />
      <stop
         style="stop-color:#000000;stop-opacity:1;"
         offset="1"
         id="stop3655" />
    </linearGradient>
    <linearGradient
       id="linearGradient3689">
      <stop
         style="stop-color:#ffea00;stop-opacity:1;"
         offset="0"
         id="stop3691" />
      <stop
         style="stop-color:#ffffa4;stop-opacity:1;"
         offset="1"
         id="stop3693" />
    </linearGradient>
    <linearGradient
       id="linearGradient3679">
      <stop
         style="stop-color:#552200;stop-opacity:1;"
         offset="0"
         id="stop3681" />
      <stop
         style="stop-color:#b6632c;stop-opacity:1;"
         offset="1"
         id="stop3683" />
    </linearGradient>
    <radialGradient
       inkscape:collect="always"
       xlink:href="#linearGradient3651"
       id="radialGradient2874"
       cx="16.668016"
       cy="23.685888"
       fx="16.668016"
       fy="23.685888"
       r="15.513688"
       gradientTransform="matrix(0.10726677,0.8685747,-1.4345103,0.21942491,48.857746,7.8051141)"
       gradientUnits="userSpaceOnUse" />
    <linearGradient
       inkscape:collect="always"
       xlink:href="#linearGradient3651"
       id="linearGradient2902"
       x1="13"
       y1="21.984021"
       x2="33.040116"
       y2="21.984021"
       gradientUnits="userSpaceOnUse" />
    <linearGradient
       inkscape:collect="always"
       xlink:href="#linearGradient2868"
       id="linearGradient2904"
       x1="14"
       y1="33"
       x2="34"
       y2="37"
       gradientUnits="userSpaceOnUse" />
    <linearGradient
       inkscape:collect="always"
       xlink:href="#linearGradient3689"
       id="linearGradient2918"
       x1="30.34375"
       y1="35.5"
       x2="27.078125"
       y2="33.390625"
       gradientUnits="userSpaceOnUse" />
    <filter
       inkscape:collect="always"
       id="filter3694"
       x="-0.10048126"
       width="1.2009625"
       y="-0.072603789"
       height="1.1452076">
      <feGaussianBlur
         inkscape:collect="always"
         stdDeviation="0.29117145"
         id="feGaussianBlur3696" />
    </filter>
    <filter
       inkscape:collect="always"
       id="filter3700"
       x="-0.13260893"
       width="1.2652179"
       y="-0.18282263"
       height="1.3656453">
      <feGaussianBlur
         inkscape:collect="always"
         stdDeviation="0.23828167"
         id="feGaussianBlur3702" />
    </filter>
    <filter
       inkscape:collect="always"
       id="filter3710"
       x="-0.17213256"
       width="1.3442651"
       y="-0.090941505"
       height="1.181883">
      <feGaussianBlur
         inkscape:collect="always"
         stdDeviation="0.12433409"
         id="feGaussianBlur3712" />
    </filter>
    <filter
       inkscape:collect="always"
       id="filter3720"
       x="-0.19534185"
       width="1.3906837"
       y="-0.096213149"
       height="1.1924263">
      <feGaussianBlur
         inkscape:collect="always"
         stdDeviation="0.08393595"
         id="feGaussianBlur3722" />
    </filter>
    <linearGradient
       inkscape:collect="always"
       xlink:href="#linearGradient3679"
       id="linearGradient3726"
       x1="20.618683"
       y1="16.649311"
       x2="24.771822"
       y2="10.327718"
       gradientUnits="userSpaceOnUse"
       gradientTransform="translate(-2.7932619,1005.9794)" />
    <linearGradient
       inkscape:collect="always"
       xlink:href="#linearGradient3689"
       id="linearGradient3730"
       x1="34"
       y1="27"
       x2="30"
       y2="16"
       gradientUnits="userSpaceOnUse" />
    <linearGradient
       inkscape:collect="always"
       xlink:href="#linearGradient3689"
       id="linearGradient3850"
       x1="44"
       y1="33"
       x2="33"
       y2="14"
       gradientUnits="userSpaceOnUse" />
    <linearGradient
       id="linearGradient3801">
      <stop
         id="stop3803"
         offset="0"
         style="stop-color:#a20000;stop-opacity:1;" />
      <stop
         id="stop3805"
         offset="1"
         style="stop-color:#d40000;stop-opacity:1;" />
    </linearGradient>
    <linearGradient
       inkscape:collect="always"
       xlink:href="#linearGradient3801"
       id="linearGradient4003"
       x1="34"
       y1="24"
       x2="32"
       y2="22"
       gradientUnits="userSpaceOnUse" />
    <filter
       inkscape:collect="always"
       id="filter4019"
       x="-0.53738015"
       width="2.0747603"
       y="-0.27290833"
       height="1.5458167">
      <feGaussianBlur
         inkscape:collect="always"
         stdDeviation="0.23924444"
         id="feGaussianBlur4021" />
    </filter>
    <filter
       inkscape:collect="always"
       id="filter4029"
       x="-0.28225429"
       width="1.5645086"
       y="-0.19846563"
       height="1.3969313">
      <feGaussianBlur
         inkscape:collect="always"
         stdDeviation="0.18483698"
         id="feGaussianBlur4031" />
    </filter>
    <linearGradient
       inkscape:collect="always"
       xlink:href="#linearGradient3651"
       id="linearGradient4036"
       x1="26.639088"
       y1="1004.7213"
       x2="39.084263"
       y2="1021.9247"
       gradientUnits="userSpaceOnUse"
       gradientTransform="translate(-0.29402757,1.1026034)" />
    <filter
       inkscape:collect="always"
       id="filter4044"
       x="-0.095137423"
       width="1.1902748"
       y="-0.34090906"
       height="1.6818181">
      <feGaussianBlur
         inkscape:collect="always"
         stdDeviation="0.22599292"
         id="feGaussianBlur4046" />
    </filter>
    <filter
       inkscape:collect="always"
       id="filter3650"
       x="-0.056877189"
       width="1.1137544"
       y="-0.24480249"
       height="1.489605">
      <feGaussianBlur
         inkscape:collect="always"
         stdDeviation="0.94350962"
         id="feGaussianBlur3652" />
    </filter>
  </defs>
  <sodipodi:namedview
     id="base"
     pagecolor="#ffffff"
     bordercolor="#666666"
     borderopacity="1.0"
     inkscape:pageopacity="0.0"
     inkscape:pageshadow="2"
     inkscape:zoom="1"
     inkscape:cx="24.774662"
     inkscape:cy="24"
     inkscape:document-units="px"
     inkscape:current-layer="layer1"
     showgrid="false"
     inkscape:window-width="1181"
     inkscape:window-height="876"
     inkscape:window-x="453"
     inkscape:window-y="24"
     inkscape:window-maximized="0">
    <inkscape:grid
       type="xygrid"
       id="grid2837"
       empspacing="5"
       visible="true"
       enabled="true"
       snapvisiblegridlinesonly="true" />
  </sodipodi:namedview>
  <metadata
     id="metadata7">
    <rdf:RDF>
      <cc:Work
         rdf:about="">
        <dc:format>image/svg+xml</dc:format>
        <dc:type
           rdf:resource="http://purl.org/dc/dcmitype/StillImage" />
        <dc:title />
      </cc:Work>
    </rdf:RDF>
  </metadata>
  <g
     inkscape:label="Layer 1"
     inkscape:groupmode="layer"
     id="layer1"
     transform="translate(0,-1004.3622)">
    <path
       style="fill:#000000;fill-opacity:0.76862744999999999;fill-rule:evenodd;stroke:none;filter:url(#filter3650)"
       d="M 40.15625 33.3125 C 37.523772 33.3125 35.331062 33.949716 34.71875 34.84375 C 31.689306 33.93086 27.35908 33.375 22.53125 33.375 C 13.376686 33.375 5.96875 35.431454 5.96875 37.96875 C 5.96875 40.506046 13.376686 42.5625 22.53125 42.5625 C 31.685814 42.5625 39.09375 40.506046 39.09375 37.96875 C 39.09375 37.768466 39.058434 37.568522 38.96875 37.375 C 39.354447 37.405601 39.74552 37.40625 40.15625 37.40625 C 43.2619 37.40625 45.78125 36.480459 45.78125 35.34375 C 45.78125 34.207041 43.2619 33.3125 40.15625 33.3125 z "
       transform="translate(0,1004.3622)"
       id="path4048" />
    <path
       style="color:#000000;fill:url(#linearGradient3850);stroke:none;stroke-width:1px;stroke-linecap:butt;stroke-linejoin:miter;stroke-miterlimit:4;stroke-opacity:1;stroke-dasharray:none;stroke-dashoffset:0;marker:none;visibility:visible;display:inline;overflow:visible;enable-background:accumulate"
       d="M 32.85758,19.332312 C 37.634383,21.446038 46,22 47,26 c -2,8 -5.630541,7.803463 -9,10 l -8,-12 2.85758,-4.667688 z"
       id="path3848"
       transform="translate(0,1004.3622)"
       sodipodi:nodetypes="ccccc" />
    <path
       style="color:#000000;fill:url(#linearGradient3730);stroke:none;stroke-width:1px;stroke-linecap:butt;stroke-linejoin:miter;stroke-miterlimit:4;stroke-opacity:1;stroke-dasharray:none;stroke-dashoffset:0;marker:none;visibility:visible;display:inline;overflow:visible;enable-background:accumulate"
       d="m 30,18 c -2.764768,0.570387 -1.337976,2.664978 -2,4 -0.07614,2.495201 1.892375,1.960639 4,3 2.13215,-1.892126 2.402874,-3.497878 2,-5 -1.412958,-2.099406 -2.001217,-2.439172 -4,-2 z"
       id="path3728"
       transform="translate(0,1004.3622)"
       sodipodi:nodetypes="ccccc" />
    <path
       style="color:#000000;fill:url(#linearGradient3726);stroke:none;stroke-width:1px;marker:none;visibility:visible;display:inline;overflow:visible;enable-background:accumulate"
       d="m 6.5421133,1013.2565 c 8.7841917,3.2357 15.9612207,6.7205 23.6692187,10.9526 0.958703,1.2879 0.0913,1.6628 -0.441041,2.2052 -7.978672,-3.8573 -15.968413,-7.687 -24.330781,-10.585 0.09049,-1.0159 -0.2696699,-2.2893 1.1026033,-2.5728 z"
       id="path3724"
       sodipodi:nodetypes="ccccc" />
    <path
       transform="matrix(1.1008669,-0.16323508,0.14667501,0.98918474,-6.3798675,1010.9004)"
       style="fill:url(#radialGradient2874);fill-rule:evenodd;stroke:none;fill-opacity:1"
       d="M 37.868204,31.989191 C 37.868204,36.407469 31.060414,39 22.5,39 13.939586,39 6.4617398,35.904903 7,31 c 0.4812823,-4.385692 7.528697,-7.916958 16.548819,-7.439393 12.992101,0.68786 14.319385,4.010306 14.319385,8.428584 z"
       id="path2865"
       sodipodi:nodetypes="csssc" />
    <path
       style="color:#000000;fill:url(#linearGradient2902);stroke:none;stroke-width:1px;stroke-linecap:butt;stroke-linejoin:miter;stroke-miterlimit:4;stroke-opacity:1;stroke-dasharray:none;stroke-dashoffset:0;marker:none;visibility:visible;display:inline;overflow:visible;enable-background:accumulate;fill-opacity:1"
       d="m 13,35 c 0.387443,-0.03369 1,-8 2,-12 1,-4 2,-6 2,-10 -1,-2 -3,-4 -3,-4 0,0 7,0 8,4 1,4 5,11 6,13 1,2 5,5 5,5 1,6 -17,10 -20,4 z"
       id="path2876"
       transform="translate(0,1004.3622)"
       sodipodi:nodetypes="csccsscc" />
    <path
       style="color:#000000;fill:url(#linearGradient2904);stroke:none;stroke-width:1px;stroke-linecap:butt;stroke-linejoin:miter;stroke-miterlimit:4;stroke-opacity:1;stroke-dasharray:none;stroke-dashoffset:0;marker:none;visibility:visible;display:inline;overflow:visible;enable-background:accumulate"
       d="M 31.90625,30.09375 C 31.257282,31.259255 30.578071,32.421929 30,33 28.125,34.875 22,37 19,36 17.924522,35.641507 14.292669,35.045675 13.4375,33.0625 12.949956,33.846493 13.068037,34.942074 13,35 c 3,6 21,2 20,-4 0,0 -0.413387,-0.741924 -1.09375,-0.90625 z"
       transform="translate(0,1004.3622)"
       id="path2897"
       sodipodi:nodetypes="csscccc" />
    <path
       style="color:#000000;fill:url(#linearGradient2918);stroke:none;stroke-width:1px;stroke-linecap:butt;stroke-linejoin:miter;stroke-miterlimit:4;stroke-opacity:1;stroke-dasharray:none;stroke-dashoffset:0;marker:none;visibility:visible;display:inline;overflow:visible;enable-background:accumulate"
       d="M 29.9375,32.28125 C 28.496863,32.764559 27.235025,33.605466 26,34.5 l 1.5625,2.53125 c 1.472363,-0.519405 2.915184,-1.073722 3.9375,-2.125 l -1.5625,-2.625 z m -0.4375,0.8125 1.25,1.71875 c -0.593277,0.552083 -1.495528,1.104167 -2.796875,1.65625 l -0.96875,-1.921875 C 27.314068,34.29581 27.648018,34.027721 27.9375,33.9375 l 0.203125,0.375 0.53125,-0.328125 L 28.53125,33.625 C 28.762568,33.429597 29.060961,33.247609 29.5,33.09375 z"
       transform="translate(0,1004.3622)"
       id="path2908"
       sodipodi:nodetypes="cccccccccccccc" />
    <path
       style="color:#000000;fill:#ffffff;stroke:none;stroke-width:1px;stroke-linecap:butt;stroke-linejoin:miter;stroke-miterlimit:4;stroke-opacity:1;stroke-dasharray:none;stroke-dashoffset:0;marker:none;visibility:visible;display:inline;overflow:visible;enable-background:accumulate;filter:url(#filter3694);fill-opacity:0.44642857"
       d="m 13.4375,28.625 c 0,0 -7.0656162,4.816804 -6.4375,9.625 -2.0866137,-3.430087 2.5619742,-8.196003 6.4375,-9.625 z"
       id="path2920"
       transform="translate(0,1004.3622)"
       sodipodi:nodetypes="ccc" />
    <path
       style="color:#000000;fill:#ffffff;stroke:none;stroke-width:1px;stroke-linecap:butt;stroke-linejoin:miter;stroke-miterlimit:4;stroke-opacity:1;stroke-dasharray:none;stroke-dashoffset:0;marker:none;visibility:visible;display:inline;overflow:visible;enable-background:accumulate;filter:url(#filter3700);fill-opacity:0.29910713"
       d="m 14.8125,9.3749999 c 1.952584,-0.05298 2.96463,0.5994443 4.3125,1.0000001 0,0 -2.632319,0.06513 -1.8125,2.125 -1.129581,-1.572437 -2.5,-3.1250001 -2.5,-3.1250001 z"
       id="path3698"
       transform="translate(0,1004.3622)"
       sodipodi:nodetypes="cccc" />
    <path
       style="color:#000000;fill:#ffffff;stroke:none;stroke-width:1px;stroke-linecap:butt;stroke-linejoin:miter;stroke-miterlimit:4;stroke-opacity:1;stroke-dasharray:none;stroke-dashoffset:0;marker:none;visibility:visible;display:inline;overflow:visible;enable-background:accumulate;fill-opacity:0.62053572999999995;filter:url(#filter3710)"
       d="m 13.40625,33.4375 c -0.178153,0.33431 -0.347901,0.688231 -0.28125,1.59375 0.430174,0.514919 1.039725,1.089631 1.71875,1.6875 -0.567209,-0.75475 -1.543958,-1.945119 -1.4375,-3.28125 z"
       id="path3704"
       transform="translate(0,1004.3622)"
       sodipodi:nodetypes="cccc" />
    <path
       style="color:#000000;fill:#ffffff;stroke:none;stroke-width:1px;stroke-linecap:butt;stroke-linejoin:miter;stroke-miterlimit:4;stroke-opacity:1;stroke-dasharray:none;stroke-dashoffset:0;marker:none;visibility:visible;display:inline;overflow:visible;enable-background:accumulate;filter:url(#filter3720)"
       d="M 27.21875,33.8125 26.1875,34.5 27,35.90625 c -0.230344,-0.74846 -0.520742,-1.506929 0.21875,-2.09375 z"
       id="path3714"
       transform="translate(0,1004.3622)"
       sodipodi:nodetypes="cccc" />
    <path
       style="color:#000000;fill:url(#linearGradient4003);stroke:none;stroke-width:1px;stroke-linecap:butt;stroke-linejoin:miter;stroke-miterlimit:4;stroke-opacity:1;stroke-dasharray:none;stroke-dashoffset:0;marker:none;visibility:visible;display:inline;overflow:visible;enable-background:accumulate"
       d="m 33.3125,19.0625 c 0.695718,3.227308 -2.195767,4.441714 -3.375,5.21875 C 30.55587,24.45529 30.268411,24.639222 31,25 c 2.959221,-1.395883 3.949487,-3.16991 3,-5 -0.250545,-0.372266 -0.476354,-0.67042 -0.6875,-0.9375 z"
       transform="translate(0,1004.3622)"
       id="path3852"
       sodipodi:nodetypes="ccccc" />
    <path
       style="color:#000000;fill:#ffffff;stroke:none;stroke-width:1px;stroke-linecap:butt;stroke-linejoin:miter;stroke-miterlimit:4;stroke-opacity:1;stroke-dasharray:none;stroke-dashoffset:0;marker:none;visibility:visible;display:inline;overflow:visible;enable-background:accumulate;fill-opacity:0.4732143;filter:url(#filter4019)"
       d="M 6.5717494,9.1559317 C 5.6185426,9.7597561 5.9497773,10.524136 6.0519772,11.259886 c 0,0 1.682442,-0.277695 0.5197722,-2.1039543 z"
       id="path4005"
       transform="translate(0,1004.3622)"
       sodipodi:nodetypes="ccc" />
    <path
       style="color:#000000;fill:#ffffff;stroke:none;stroke-width:1px;stroke-linecap:butt;stroke-linejoin:miter;stroke-miterlimit:4;stroke-opacity:1;stroke-dasharray:none;stroke-dashoffset:0;marker:none;visibility:visible;display:inline;overflow:visible;enable-background:accumulate;filter:url(#filter4029)"
       d="m 28.43154,21.647549 c 0.314285,1.086678 0.86757,1.695355 1.455362,2.23502 -0.0036,-8.95e-4 -2.077108,0.07846 -1.455362,-2.23502 z"
       id="path4023"
       transform="translate(0,1004.3622)"
       sodipodi:nodetypes="ccc" />
    <path
       style="color:#000000;fill:url(#linearGradient4036);stroke:none;stroke-width:1px;marker:none;visibility:visible;display:inline;overflow:visible;enable-background:accumulate"
       d="m 22.455972,1009.2148 c 4.688787,0.2536 12.610504,-0.7829 13.611136,2.0701 l 0.779029,-1.9009 0.125,2.3352 2.074524,-0.9419 -0.975412,1.6067 c 5.274617,0.9179 4.814846,7.0632 7.260723,10.6433 -1.333468,-1.3325 -2.765592,-3.8408 -4.1875,-2.875 0.143576,-2.9004 -0.922794,-2.2612 -1.5625,-2.625 -0.649607,-3.1677 -2.618671,-2.2092 -3.4375,-1.6875 0,0 -2.649587,1.4974 -2.649587,1.2474 0,-0.25 0.524587,-2.3099 0.524587,-2.3099 -0.03107,-1.8204 -1.244209,-2.1669 -3.125,-1.6875 -0.573021,-1.4442 -1.809178,-1.3696 -3.25,-0.5625 0.655198,-2.2336 -2.928769,-2.4592 -5.1875,-3.3125 z"
       id="path4033"
       sodipodi:nodetypes="ccccccccccscccc" />
    <path
       style="color:#000000;fill:#ffffff;fill-opacity:0.3794643;stroke:none;stroke-width:1px;marker:none;visibility:visible;display:inline;overflow:visible;filter:url(#filter4044);enable-background:accumulate"
       d="m 29.22768,1009.5358 -5.701048,-0.1768 c 1.713866,0.4518 3.406803,0.9087 4.198446,1.591 -1.152323,-0.6968 -2.397147,-1.4063 1.502602,-1.4142 z"
       id="path4038"
       sodipodi:nodetypes="cccc" />
  </g>
</svg>
