<?xml version="1.0" encoding="UTF-8" standalone="no"?>
<!-- Created with Inkscape (http://www.inkscape.org/) -->

<svg
   xmlns:dc="http://purl.org/dc/elements/1.1/"
   xmlns:cc="http://creativecommons.org/ns#"
   xmlns:rdf="http://www.w3.org/1999/02/22-rdf-syntax-ns#"
   xmlns:svg="http://www.w3.org/2000/svg"
   xmlns="http://www.w3.org/2000/svg"
   xmlns:xlink="http://www.w3.org/1999/xlink"
   xmlns:sodipodi="http://sodipodi.sourceforge.net/DTD/sodipodi-0.dtd"
   xmlns:inkscape="http://www.inkscape.org/namespaces/inkscape"
   id="svg1"
   sodipodi:version="0.32"
   inkscape:version="0.47 r22583"
   width="48"
   height="48"
   sodipodi:docname="hanukkah01.svg"
   version="1.1"
   inkscape:export-filename="hanukkah01.png"
   inkscape:export-xdpi="89.949997"
   inkscape:export-ydpi="89.949997">
  <defs
     id="defs3">
    <filter
       height="1.1150671"
       y="-0.057533532"
       width="1.3979118"
       x="-0.19895591"
       id="filter3855"
       inkscape:collect="always">
      <feGaussianBlur
         id="feGaussianBlur3857"
         stdDeviation="0.18128627"
         inkscape:collect="always" />
    </filter>
    <linearGradient
       id="linearGradient3669">
      <stop
         style="stop-color:#ffd73b;stop-opacity:1;"
         offset="0"
         id="stop3671" />
      <stop
         style="stop-color:#ee8400;stop-opacity:1;"
         offset="1"
         id="stop3673" />
    </linearGradient>
    <linearGradient
       inkscape:collect="always"
       xlink:href="#linearGradient3669"
       id="linearGradient3601"
       gradientUnits="userSpaceOnUse"
       x1="23"
       y1="10"
       x2="28"
       y2="15"
       gradientTransform="translate(-4.494737,-43.663158)" />
    <linearGradient
       inkscape:collect="always"
       xlink:href="#linearGradient3669"
       id="linearGradient3604"
       gradientUnits="userSpaceOnUse"
       gradientTransform="translate(-5.494737,-43.663158)"
       x1="27"
       y1="13"
       x2="36"
       y2="23" />
    <linearGradient
       inkscape:collect="always"
       xlink:href="#linearGradient3635"
       id="linearGradient3712"
       x1="1.5789474"
       y1="12.514834"
       x2="6.8789473"
       y2="13.525361"
       gradientUnits="userSpaceOnUse"
       gradientTransform="translate(-0.08421053,1.4315789)" />
    <radialGradient
       inkscape:collect="always"
       xlink:href="#linearGradient3669"
       id="radialGradient3716"
       cx="4.2796521"
       cy="13.900179"
       fx="4.2796521"
       fy="13.900179"
       r="3.1194394"
       gradientTransform="matrix(0.68954366,1.0000001,-1,0.68954364,16.265771,2.7644388)"
       gradientUnits="userSpaceOnUse" />
    <filter
       inkscape:collect="always"
       id="filter4496"
       x="-0.38677687"
       width="1.7735537"
       y="-0.035161533"
       height="1.0703231">
      <feGaussianBlur
         inkscape:collect="always"
         stdDeviation="0.12107742"
         id="feGaussianBlur4498" />
    </filter>
    <filter
       inkscape:collect="always"
       id="filter4510"
       x="-0.2297219"
       width="1.4594438"
       y="-0.14597231"
       height="1.2919446">
      <feGaussianBlur
         inkscape:collect="always"
         stdDeviation="0.16665403"
         id="feGaussianBlur4512" />
    </filter>
    <radialGradient
       inkscape:collect="always"
       xlink:href="#linearGradient3669"
       id="radialGradient4680"
       cx="22.205608"
       cy="43"
       fx="22.205608"
       fy="43"
       r="5"
       gradientTransform="matrix(1,0,0,0.4,0,25.8)"
       gradientUnits="userSpaceOnUse" />
    <linearGradient
       inkscape:collect="always"
       xlink:href="#linearGradient3669"
       id="linearGradient4688"
       x1="24"
       y1="38.814758"
       x2="21.510855"
       y2="45"
       gradientUnits="userSpaceOnUse" />
    <linearGradient
       inkscape:collect="always"
       xlink:href="#linearGradient3669"
       id="linearGradient4690"
       x1="24.339308"
       y1="31.493132"
       x2="21.70714"
       y2="31.493132"
       gradientUnits="userSpaceOnUse"
       gradientTransform="translate(0,-1.0947368)" />
    <linearGradient
       inkscape:collect="always"
       xlink:href="#linearGradient3669"
       id="linearGradient4706"
       x1="10.297815"
       y1="27.025299"
       x2="6.9785433"
       y2="29.467403"
       gradientUnits="userSpaceOnUse"
       gradientTransform="translate(0,-1.0947368)" />
    <linearGradient
       inkscape:collect="always"
       xlink:href="#linearGradient3669"
       id="linearGradient4708"
       x1="15.498273"
       y1="25.765764"
       x2="13.052698"
       y2="29.049974"
       gradientUnits="userSpaceOnUse"
       gradientTransform="translate(0,-1.0947368)" />
    <linearGradient
       inkscape:collect="always"
       xlink:href="#linearGradient3669"
       id="linearGradient4710"
       x1="19.211042"
       y1="23.382277"
       x2="16.662754"
       y2="25.487541"
       gradientUnits="userSpaceOnUse"
       gradientTransform="translate(0,-1.0947368)" />
    <linearGradient
       inkscape:collect="always"
       xlink:href="#linearGradient3669"
       id="linearGradient4712"
       x1="31.820648"
       y1="36.79129"
       x2="35.110394"
       y2="41.843922"
       gradientUnits="userSpaceOnUse"
       gradientTransform="translate(0,-1.0947368)" />
    <linearGradient
       inkscape:collect="always"
       xlink:href="#linearGradient3669"
       id="linearGradient4714"
       x1="31.747435"
       y1="30.774822"
       x2="34.40147"
       y2="36.501137"
       gradientUnits="userSpaceOnUse"
       gradientTransform="translate(0,-1.0947368)" />
    <linearGradient
       inkscape:collect="always"
       xlink:href="#linearGradient3669"
       id="linearGradient4716"
       x1="27.525911"
       y1="25.545326"
       x2="29.930801"
       y2="30.261116"
       gradientUnits="userSpaceOnUse"
       gradientTransform="translate(0,-1.0947368)" />
    <filter
       inkscape:collect="always"
       id="filter4775"
       x="-0.28512072"
       width="1.5702414"
       y="-0.07381179"
       height="1.1476236">
      <feGaussianBlur
         inkscape:collect="always"
         stdDeviation="0.18496401"
         id="feGaussianBlur4777" />
    </filter>
    <filter
       inkscape:collect="always"
       id="filter4779"
       x="-0.17413076"
       width="1.3482615"
       y="-0.078390746"
       height="1.1567815">
      <feGaussianBlur
         inkscape:collect="always"
         stdDeviation="0.18496401"
         id="feGaussianBlur4781" />
    </filter>
    <filter
       inkscape:collect="always"
       id="filter4783"
       x="-0.11552922"
       width="1.2310584"
       y="-0.090988878"
       height="1.1819778">
      <feGaussianBlur
         inkscape:collect="always"
         stdDeviation="0.18496401"
         id="feGaussianBlur4785" />
    </filter>
    <filter
       inkscape:collect="always"
       id="filter4797"
       x="-1.1677678"
       width="3.3355356"
       y="-0.030529898"
       height="1.0610598">
      <feGaussianBlur
         inkscape:collect="always"
         stdDeviation="0.23178585"
         id="feGaussianBlur4799" />
    </filter>
    <filter
       inkscape:collect="always"
       id="filter4819"
       x="-0.10545304"
       width="1.2109061"
       y="-0.11298874"
       height="1.2259775">
      <feGaussianBlur
         inkscape:collect="always"
         stdDeviation="0.19343022"
         id="feGaussianBlur4821" />
    </filter>
    <filter
       inkscape:collect="always"
       id="filter4830"
       x="-0.41729848"
       width="1.834597"
       y="-0.13009032"
       height="1.2601806">
      <feGaussianBlur
         inkscape:collect="always"
         stdDeviation="0.12587794"
         id="feGaussianBlur4832" />
    </filter>
    <linearGradient
       id="linearGradient3635">
      <stop
         id="stop3637"
         offset="0"
         style="stop-color:#003e8c;stop-opacity:1;" />
      <stop
         id="stop3639"
         offset="1"
         style="stop-color:#0062db;stop-opacity:1;" />
    </linearGradient>
    <radialGradient
       inkscape:collect="always"
       xlink:href="#linearGradient3669"
       id="radialGradient3073"
       gradientUnits="userSpaceOnUse"
       gradientTransform="matrix(0.68954366,1.0000001,-1,0.68954364,16.265771,2.7644388)"
       cx="4.2796521"
       cy="13.900179"
       fx="4.2796521"
       fy="13.900179"
       r="3.1194394" />
    <linearGradient
       inkscape:collect="always"
       xlink:href="#linearGradient3635"
       id="linearGradient3075"
       gradientUnits="userSpaceOnUse"
       gradientTransform="translate(-0.08421053,1.4315789)"
       x1="1.5789474"
       y1="12.514834"
       x2="6.8789473"
       y2="13.525361" />
    <linearGradient
       inkscape:collect="always"
       xlink:href="#linearGradient3669"
       id="linearGradient3077"
       gradientUnits="userSpaceOnUse"
       gradientTransform="translate(-5.494737,-43.663158)"
       x1="27"
       y1="13"
       x2="36"
       y2="23" />
    <linearGradient
       inkscape:collect="always"
       xlink:href="#linearGradient3669"
       id="linearGradient3079"
       gradientUnits="userSpaceOnUse"
       gradientTransform="translate(-4.494737,-43.663158)"
       x1="23"
       y1="10"
       x2="28"
       y2="15" />
    <radialGradient
       inkscape:collect="always"
       xlink:href="#linearGradient3669"
       id="radialGradient3099"
       gradientUnits="userSpaceOnUse"
       gradientTransform="matrix(0.68954366,1.0000001,-1,0.68954364,16.265771,2.7644388)"
       cx="4.2796521"
       cy="13.900179"
       fx="4.2796521"
       fy="13.900179"
       r="3.1194394" />
    <linearGradient
       inkscape:collect="always"
       xlink:href="#linearGradient3635"
       id="linearGradient3101"
       gradientUnits="userSpaceOnUse"
       gradientTransform="translate(-0.08421053,1.4315789)"
       x1="1.5789474"
       y1="12.514834"
       x2="6.8789473"
       y2="13.525361" />
    <linearGradient
       inkscape:collect="always"
       xlink:href="#linearGradient3669"
       id="linearGradient3103"
       gradientUnits="userSpaceOnUse"
       gradientTransform="translate(-5.494737,-43.663158)"
       x1="27"
       y1="13"
       x2="36"
       y2="23" />
    <linearGradient
       inkscape:collect="always"
       xlink:href="#linearGradient3669"
       id="linearGradient3105"
       gradientUnits="userSpaceOnUse"
       gradientTransform="translate(-4.494737,-43.663158)"
       x1="23"
       y1="10"
       x2="28"
       y2="15" />
    <radialGradient
       inkscape:collect="always"
       xlink:href="#linearGradient3669"
       id="radialGradient3125"
       gradientUnits="userSpaceOnUse"
       gradientTransform="matrix(0.68954366,1.0000001,-1,0.68954364,16.265771,2.7644388)"
       cx="4.2796521"
       cy="13.900179"
       fx="4.2796521"
       fy="13.900179"
       r="3.1194394" />
    <linearGradient
       inkscape:collect="always"
       xlink:href="#linearGradient3635"
       id="linearGradient3127"
       gradientUnits="userSpaceOnUse"
       gradientTransform="translate(-0.08421053,1.4315789)"
       x1="1.5789474"
       y1="12.514834"
       x2="6.8789473"
       y2="13.525361" />
    <linearGradient
       inkscape:collect="always"
       xlink:href="#linearGradient3669"
       id="linearGradient3129"
       gradientUnits="userSpaceOnUse"
       gradientTransform="translate(-5.494737,-43.663158)"
       x1="27"
       y1="13"
       x2="36"
       y2="23" />
    <linearGradient
       inkscape:collect="always"
       xlink:href="#linearGradient3669"
       id="linearGradient3131"
       gradientUnits="userSpaceOnUse"
       gradientTransform="translate(-4.494737,-43.663158)"
       x1="23"
       y1="10"
       x2="28"
       y2="15" />
    <radialGradient
       inkscape:collect="always"
       xlink:href="#linearGradient3669"
       id="radialGradient3151"
       gradientUnits="userSpaceOnUse"
       gradientTransform="matrix(0.68954366,1.0000001,-1,0.68954364,16.265771,2.7644388)"
       cx="4.2796521"
       cy="13.900179"
       fx="4.2796521"
       fy="13.900179"
       r="3.1194394" />
    <linearGradient
       inkscape:collect="always"
       xlink:href="#linearGradient3635"
       id="linearGradient3153"
       gradientUnits="userSpaceOnUse"
       gradientTransform="translate(-0.08421053,1.4315789)"
       x1="1.5789474"
       y1="12.514834"
       x2="6.8789473"
       y2="13.525361" />
    <linearGradient
       inkscape:collect="always"
       xlink:href="#linearGradient3669"
       id="linearGradient3155"
       gradientUnits="userSpaceOnUse"
       gradientTransform="translate(-5.494737,-43.663158)"
       x1="27"
       y1="13"
       x2="36"
       y2="23" />
    <linearGradient
       inkscape:collect="always"
       xlink:href="#linearGradient3669"
       id="linearGradient3157"
       gradientUnits="userSpaceOnUse"
       gradientTransform="translate(-4.494737,-43.663158)"
       x1="23"
       y1="10"
       x2="28"
       y2="15" />
    <radialGradient
       inkscape:collect="always"
       xlink:href="#linearGradient3669"
       id="radialGradient3177"
       gradientUnits="userSpaceOnUse"
       gradientTransform="matrix(0.68954366,1.0000001,-1,0.68954364,16.265771,2.7644388)"
       cx="4.2796521"
       cy="13.900179"
       fx="4.2796521"
       fy="13.900179"
       r="3.1194394" />
    <linearGradient
       inkscape:collect="always"
       xlink:href="#linearGradient3635"
       id="linearGradient3179"
       gradientUnits="userSpaceOnUse"
       gradientTransform="translate(-0.08421053,1.4315789)"
       x1="1.5789474"
       y1="12.514834"
       x2="6.8789473"
       y2="13.525361" />
    <linearGradient
       inkscape:collect="always"
       xlink:href="#linearGradient3669"
       id="linearGradient3181"
       gradientUnits="userSpaceOnUse"
       gradientTransform="translate(-5.494737,-43.663158)"
       x1="27"
       y1="13"
       x2="36"
       y2="23" />
    <linearGradient
       inkscape:collect="always"
       xlink:href="#linearGradient3669"
       id="linearGradient3183"
       gradientUnits="userSpaceOnUse"
       gradientTransform="translate(-4.494737,-43.663158)"
       x1="23"
       y1="10"
       x2="28"
       y2="15" />
    <radialGradient
       inkscape:collect="always"
       xlink:href="#linearGradient3669"
       id="radialGradient3203"
       gradientUnits="userSpaceOnUse"
       gradientTransform="matrix(0.68954366,1.0000001,-1,0.68954364,16.265771,2.7644388)"
       cx="4.2796521"
       cy="13.900179"
       fx="4.2796521"
       fy="13.900179"
       r="3.1194394" />
    <linearGradient
       inkscape:collect="always"
       xlink:href="#linearGradient3635"
       id="linearGradient3205"
       gradientUnits="userSpaceOnUse"
       gradientTransform="translate(-0.08421053,1.4315789)"
       x1="1.5789474"
       y1="12.514834"
       x2="6.8789473"
       y2="13.525361" />
    <linearGradient
       inkscape:collect="always"
       xlink:href="#linearGradient3669"
       id="linearGradient3207"
       gradientUnits="userSpaceOnUse"
       gradientTransform="translate(-5.494737,-43.663158)"
       x1="27"
       y1="13"
       x2="36"
       y2="23" />
    <linearGradient
       inkscape:collect="always"
       xlink:href="#linearGradient3669"
       id="linearGradient3209"
       gradientUnits="userSpaceOnUse"
       gradientTransform="translate(-4.494737,-43.663158)"
       x1="23"
       y1="10"
       x2="28"
       y2="15" />
    <filter
       inkscape:collect="always"
       id="filter3733"
       x="-0.051020651"
       width="1.1020413"
       y="-0.15943954"
       height="1.3188791">
      <feGaussianBlur
         inkscape:collect="always"
         stdDeviation="0.58181445"
         id="feGaussianBlur3735" />
    </filter>
  </defs>
  <sodipodi:namedview
     id="base"
     pagecolor="#ffffff"
     bordercolor="#666666"
     borderopacity="1.0"
     inkscape:pageopacity="0.0"
     inkscape:pageshadow="2"
     inkscape:zoom="1"
     inkscape:cx="20.280092"
     inkscape:cy="17.263158"
     inkscape:window-width="1153"
     inkscape:window-height="793"
     inkscape:window-x="199"
     inkscape:window-y="75"
     showgrid="false"
     inkscape:window-maximized="0"
     inkscape:current-layer="svg1"
     showguides="true"
     inkscape:guide-bbox="true"
     inkscape:snap-global="false">
    <inkscape:grid
       type="xygrid"
       id="grid2861" />
  </sodipodi:namedview>
  <metadata
     id="metadata4">
    <rdf:RDF>
      <cc:Work
         rdf:about="">
        <dc:format>image/svg+xml</dc:format>
        <dc:type
           rdf:resource="http://purl.org/dc/dcmitype/StillImage" />
        <dc:title />
      </cc:Work>
    </rdf:RDF>
  </metadata>
  <path
     sodipodi:type="arc"
     style="fill:#000000;fill-opacity:0.76862744999999999;fill-rule:evenodd;stroke:none;filter:url(#filter3733)"
     id="path4718"
     sodipodi:cx="24.547369"
     sodipodi:cy="42.694736"
     sodipodi:rx="13.684211"
     sodipodi:ry="4.3789473"
     d="m 38.23158,42.694736 a 13.684211,4.3789473 0 1 1 -27.368422,0 13.684211,4.3789473 0 1 1 27.368422,0 z"
     transform="matrix(0.56,0,0,0.76923076,9.9166316,9.6000003)" />
  <path
     sodipodi:nodetypes="ccccc"
     id="path4700"
     d="M 3.9966535,14.623291 C 3.5738047,26.36063 12.285815,36.79856 23.652228,38.922042 l 0,-2.116012 C 13.26242,33.874592 7.1576763,25.414741 7.1576763,15.024932 L 3.9966535,14.623291 z"
     style="font-size:medium;font-style:normal;font-variant:normal;font-weight:normal;font-stretch:normal;text-indent:0;text-align:start;text-decoration:none;line-height:normal;letter-spacing:normal;word-spacing:normal;text-transform:none;direction:ltr;block-progression:tb;writing-mode:lr-tb;text-anchor:start;color:#000000;fill:url(#linearGradient4706);fill-opacity:1;stroke:none;stroke-width:1px;marker:none;visibility:visible;display:inline;overflow:visible;enable-background:accumulate;font-family:Bitstream Vera Sans;-inkscape-font-specification:Bitstream Vera Sans" />
  <path
     sodipodi:nodetypes="ccccc"
     id="path4702"
     d="m 9.0982721,15.473217 c 0,7.356744 5.4811919,15.990272 14.9017939,18.648252 l 0,-2.434863 C 17.145155,29.752524 12.659608,23.132038 12.659608,16.277126 L 9.0982721,15.473217 z"
     style="font-size:medium;font-style:normal;font-variant:normal;font-weight:normal;font-stretch:normal;text-indent:0;text-align:start;text-decoration:none;line-height:normal;letter-spacing:normal;word-spacing:normal;text-transform:none;direction:ltr;block-progression:tb;writing-mode:lr-tb;text-anchor:start;color:#000000;fill:url(#linearGradient4708);fill-opacity:1;stroke:none;stroke-width:1px;marker:none;visibility:visible;display:inline;overflow:visible;enable-background:accumulate;font-family:Bitstream Vera Sans;-inkscape-font-specification:Bitstream Vera Sans" />
  <path
     sodipodi:nodetypes="ccccc"
     id="path4704"
     d="m 14.242622,17.717154 c 0,4.094068 4.04711,9.227768 9.409606,10.740773 l 0,-2.782701 c -3.592236,-1.013534 -6.606166,-4.1514 -6.606166,-7.743636 l -2.80344,-0.214436 z"
     style="font-size:medium;font-style:normal;font-variant:normal;font-weight:normal;font-stretch:normal;text-indent:0;text-align:start;text-decoration:none;line-height:normal;letter-spacing:normal;word-spacing:normal;text-transform:none;direction:ltr;block-progression:tb;writing-mode:lr-tb;text-anchor:start;color:#000000;fill:url(#linearGradient4710);fill-opacity:1;stroke:none;stroke-width:1px;marker:none;visibility:visible;display:inline;overflow:visible;enable-background:accumulate;font-family:Bitstream Vera Sans;-inkscape-font-specification:Bitstream Vera Sans" />
  <path
     transform="matrix(1.4547369,0,0,1.4547369,-11.324211,-20.086315)"
     style="fill:url(#linearGradient4688);fill-opacity:1;fill-rule:evenodd;stroke:none"
     d="m 29,43 c 0,1.104569 -2.238576,2 -5,2 -2.761424,0 -5.030477,-0.895852 -5,-2 l 0.01557,-0.564233 C 19.044545,41.386209 21.372388,41 24,41 c 2.625287,0 4.95068,0.442127 4.983883,1.49092 L 29,43 z"
     id="path4682"
     sodipodi:nodetypes="csssssc" />
  <path
     sodipodi:type="arc"
     style="fill:url(#radialGradient4680);fill-rule:evenodd;stroke:none"
     id="path2944"
     sodipodi:cx="24"
     sodipodi:cy="43"
     sodipodi:rx="5"
     sodipodi:ry="2"
     d="m 29,43 a 5,2 0 1 1 -10,0 5,2 0 1 1 10,0 z"
     transform="matrix(1.4547369,0,0,1.4547369,-11.324211,-20.84421)" />
  <path
     style="font-size:medium;font-style:normal;font-variant:normal;font-weight:normal;font-stretch:normal;text-indent:0;text-align:start;text-decoration:none;line-height:normal;letter-spacing:normal;word-spacing:normal;text-transform:none;direction:ltr;block-progression:tb;writing-mode:lr-tb;text-anchor:start;color:#000000;fill:url(#linearGradient4690);fill-opacity:1;stroke:none;stroke-width:1px;marker:none;visibility:visible;display:inline;overflow:visible;enable-background:accumulate;font-family:Bitstream Vera Sans;-inkscape-font-specification:Bitstream Vera Sans"
     d="m 21.915789,19.221351 -0.336842,22.40392 c 0.875097,1.296607 2.694133,0.755032 3.203754,-0.0079 l 0,-22.151288 -2.866912,-0.244732 z"
     id="path2926"
     sodipodi:nodetypes="ccccc" />
  <path
     style="font-size:medium;font-style:normal;font-variant:normal;font-weight:normal;font-stretch:normal;text-indent:0;text-align:start;text-decoration:none;line-height:normal;letter-spacing:normal;word-spacing:normal;text-transform:none;direction:ltr;block-progression:tb;writing-mode:lr-tb;text-anchor:start;color:#000000;fill:url(#linearGradient4712);fill-opacity:1;stroke:none;stroke-width:1px;marker:none;visibility:visible;display:inline;overflow:visible;enable-background:accumulate;font-family:Bitstream Vera Sans;-inkscape-font-specification:Bitstream Vera Sans"
     d="M 23.652228,38.922042 C 34.54387,41.995069 43.952501,35.887 43.952501,24.996201 L 40.55134,23.950265 c 0,10.390651 -6.509303,15.787202 -16.899112,12.855765 -0.523354,0.630572 -1.014046,1.265811 0,2.116012 z"
     id="path2917"
     sodipodi:nodetypes="ccccc" />
  <g
     id="g4514"
     transform="translate(0,-0.16842105)">
    <path
       sodipodi:nodetypes="ccccc"
       id="path3616"
       d="m 3.3532895,14.806579 c -0.8358609,0.306835 -1.3958333,1.270833 -1.0625,2 1.2711467,1.190029 2.5860271,2.31758 5,1.875 1,-0.270833 1.4375,-1.354167 0.9375,-2.6875 -0.9375,-1.083333 -2.311199,-2.130055 -4.875,-1.1875 z"
       style="color:#000000;fill:url(#radialGradient3716);fill-opacity:1;stroke:none;stroke-width:1px;marker:none;visibility:visible;display:inline;overflow:visible;enable-background:accumulate" />
    <path
       sodipodi:nodetypes="ccccc"
       id="path3100"
       d="m 4.6657895,6.7256578 -0.6875,9.7684212 c 0.75,0.9375 2.625,0.8125 3,0 l -1,-9.7684212 c 0,0 -0.5633585,-0.6271464 -1.3125,0 z"
       style="color:#000000;fill:url(#linearGradient3712);stroke:none;stroke-width:1px;marker:none;visibility:visible;display:inline;overflow:visible;enable-background:accumulate" />
    <g
       transform="matrix(0.55973938,0,0,0.55973938,-7.3103234,21.840709)"
       id="g3611">
      <path
         sodipodi:nodetypes="cssc"
         id="path4145"
         d="m 22.505263,-37.663158 c 0,0 -3,5 -3,7 0,2 3.971008,4.714986 5,3 3,-5 -2.265099,-7.267785 -2,-10 z"
         style="color:#000000;fill:url(#linearGradient3604);stroke:none;stroke-width:1px;marker:none;visibility:visible;display:inline;overflow:visible;enable-background:accumulate" />
      <path
         style="color:#000000;fill:url(#linearGradient3601);stroke:none;stroke-width:1px;marker:none;visibility:visible;display:inline;overflow:visible;enable-background:accumulate"
         d="m 22.505263,-34.663158 c 0,0 -1.854682,3.091138 -1.854682,4.327593 0,1.236455 2.454987,2.914934 3.091137,1.854683 1.854683,-3.091138 -1.400346,-4.493145 -1.236455,-6.182276 z"
         id="path4147"
         sodipodi:nodetypes="cssc" />
      <path
         sodipodi:nodetypes="ccc"
         id="path4149"
         d="m 22.122251,-36.154325 c -0.83168,3.141425 -2.587492,6.017267 -0.535913,7.562321 -1.584612,-0.924357 -2.962499,-0.715846 0.535913,-7.562321 z"
         style="color:#000000;fill:#ffffff;stroke:none;stroke-width:1px;marker:none;visibility:visible;display:inline;overflow:visible;filter:url(#filter3855);enable-background:accumulate" />
    </g>
    <path
       sodipodi:nodetypes="cccccc"
       id="path3718"
       d="M 4.6887603,7.1287447 4.2026244,16.551114 4.9539253,16.993055 4.6887603,16.330143 4.9539253,7.2171331 4.6887603,7.1287447 z"
       style="color:#000000;fill:#ffffff;fill-opacity:0.66666667;stroke:none;stroke-width:1px;marker:none;visibility:visible;display:inline;overflow:visible;filter:url(#filter4496);enable-background:accumulate" />
    <path
       sodipodi:nodetypes="ccc"
       id="path4500"
       d="M 4.114236,14.783347 C 3.2602582,15.415039 2.8377795,16.480854 3.3629351,17.523385 2.3880639,17.081443 1.4502681,15.534648 4.114236,14.783347 z"
       style="color:#000000;fill:#ffffff;fill-opacity:0.85777779;stroke:none;stroke-width:1px;marker:none;visibility:visible;display:inline;overflow:visible;filter:url(#filter4510);enable-background:accumulate" />
  </g>
  <g
     id="g3055"
     transform="translate(5.3052632,0.92631579)">
    <path
       sodipodi:nodetypes="ccccc"
       id="path3057"
       d="m 3.3532895,14.806579 c -0.8358609,0.306835 -1.3958333,1.270833 -1.0625,2 1.2711467,1.190029 2.5860271,2.31758 5,1.875 1,-0.270833 1.4375,-1.354167 0.9375,-2.6875 -0.9375,-1.083333 -2.311199,-2.130055 -4.875,-1.1875 z"
       style="color:#000000;fill:url(#radialGradient3073);fill-opacity:1;stroke:none;stroke-width:1px;marker:none;visibility:visible;display:inline;overflow:visible;enable-background:accumulate" />
    <path
       sodipodi:nodetypes="ccccc"
       id="path3059"
       d="m 4.6657895,6.7256578 -0.6875,9.7684212 c 0.75,0.9375 2.625,0.8125 3,0 l -1,-9.7684212 c 0,0 -0.5633585,-0.6271464 -1.3125,0 z"
       style="color:#000000;fill:url(#linearGradient3075);stroke:none;stroke-width:1px;marker:none;visibility:visible;display:inline;overflow:visible;enable-background:accumulate" />
    <g
       transform="matrix(0.55973938,0,0,0.55973938,-7.3103234,21.840709)"
       id="g3061">
      <path
         sodipodi:nodetypes="cssc"
         id="path3063"
         d="m 22.505263,-37.663158 c 0,0 -3,5 -3,7 0,2 3.971008,4.714986 5,3 3,-5 -2.265099,-7.267785 -2,-10 z"
         style="color:#000000;fill:url(#linearGradient3077);stroke:none;stroke-width:1px;marker:none;visibility:visible;display:inline;overflow:visible;enable-background:accumulate" />
      <path
         style="color:#000000;fill:url(#linearGradient3079);stroke:none;stroke-width:1px;marker:none;visibility:visible;display:inline;overflow:visible;enable-background:accumulate"
         d="m 22.505263,-34.663158 c 0,0 -1.854682,3.091138 -1.854682,4.327593 0,1.236455 2.454987,2.914934 3.091137,1.854683 1.854683,-3.091138 -1.400346,-4.493145 -1.236455,-6.182276 z"
         id="path3065"
         sodipodi:nodetypes="cssc" />
      <path
         sodipodi:nodetypes="ccc"
         id="path3067"
         d="m 22.122251,-36.154325 c -0.83168,3.141425 -2.587492,6.017267 -0.535913,7.562321 -1.584612,-0.924357 -2.962499,-0.715846 0.535913,-7.562321 z"
         style="color:#000000;fill:#ffffff;stroke:none;stroke-width:1px;marker:none;visibility:visible;display:inline;overflow:visible;filter:url(#filter3855);enable-background:accumulate" />
    </g>
    <path
       sodipodi:nodetypes="cccccc"
       id="path3069"
       d="M 4.6887603,7.1287447 4.2026244,16.551114 4.9539253,16.993055 4.6887603,16.330143 4.9539253,7.2171331 4.6887603,7.1287447 z"
       style="color:#000000;fill:#ffffff;fill-opacity:0.66666667;stroke:none;stroke-width:1px;marker:none;visibility:visible;display:inline;overflow:visible;filter:url(#filter4496);enable-background:accumulate" />
    <path
       sodipodi:nodetypes="ccc"
       id="path3071"
       d="M 4.114236,14.783347 C 3.2602582,15.415039 2.8377795,16.480854 3.3629351,17.523385 2.3880639,17.081443 1.4502681,15.534648 4.114236,14.783347 z"
       style="color:#000000;fill:#ffffff;fill-opacity:0.85777779;stroke:none;stroke-width:1px;marker:none;visibility:visible;display:inline;overflow:visible;filter:url(#filter4510);enable-background:accumulate" />
  </g>
  <g
     id="g3081"
     transform="translate(10.526316,2.8631579)">
    <path
       sodipodi:nodetypes="ccccc"
       id="path3083"
       d="m 3.3532895,14.806579 c -0.8358609,0.306835 -1.3958333,1.270833 -1.0625,2 1.2711467,1.190029 2.5860271,2.31758 5,1.875 1,-0.270833 1.4375,-1.354167 0.9375,-2.6875 -0.9375,-1.083333 -2.311199,-2.130055 -4.875,-1.1875 z"
       style="color:#000000;fill:url(#radialGradient3099);fill-opacity:1;stroke:none;stroke-width:1px;marker:none;visibility:visible;display:inline;overflow:visible;enable-background:accumulate" />
    <path
       sodipodi:nodetypes="ccccc"
       id="path3085"
       d="m 4.6657895,6.7256578 -0.6875,9.7684212 c 0.75,0.9375 2.625,0.8125 3,0 l -1,-9.7684212 c 0,0 -0.5633585,-0.6271464 -1.3125,0 z"
       style="color:#000000;fill:url(#linearGradient3101);stroke:none;stroke-width:1px;marker:none;visibility:visible;display:inline;overflow:visible;enable-background:accumulate" />
    <g
       transform="matrix(0.55973938,0,0,0.55973938,-7.3103234,21.840709)"
       id="g3087">
      <path
         sodipodi:nodetypes="cssc"
         id="path3089"
         d="m 22.505263,-37.663158 c 0,0 -3,5 -3,7 0,2 3.971008,4.714986 5,3 3,-5 -2.265099,-7.267785 -2,-10 z"
         style="color:#000000;fill:url(#linearGradient3103);stroke:none;stroke-width:1px;marker:none;visibility:visible;display:inline;overflow:visible;enable-background:accumulate" />
      <path
         style="color:#000000;fill:url(#linearGradient3105);stroke:none;stroke-width:1px;marker:none;visibility:visible;display:inline;overflow:visible;enable-background:accumulate"
         d="m 22.505263,-34.663158 c 0,0 -1.854682,3.091138 -1.854682,4.327593 0,1.236455 2.454987,2.914934 3.091137,1.854683 1.854683,-3.091138 -1.400346,-4.493145 -1.236455,-6.182276 z"
         id="path3091"
         sodipodi:nodetypes="cssc" />
      <path
         sodipodi:nodetypes="ccc"
         id="path3093"
         d="m 22.122251,-36.154325 c -0.83168,3.141425 -2.587492,6.017267 -0.535913,7.562321 -1.584612,-0.924357 -2.962499,-0.715846 0.535913,-7.562321 z"
         style="color:#000000;fill:#ffffff;stroke:none;stroke-width:1px;marker:none;visibility:visible;display:inline;overflow:visible;filter:url(#filter3855);enable-background:accumulate" />
    </g>
    <path
       sodipodi:nodetypes="cccccc"
       id="path3095"
       d="M 4.6887603,7.1287447 4.2026244,16.551114 4.9539253,16.993055 4.6887603,16.330143 4.9539253,7.2171331 4.6887603,7.1287447 z"
       style="color:#000000;fill:#ffffff;fill-opacity:0.66666667;stroke:none;stroke-width:1px;marker:none;visibility:visible;display:inline;overflow:visible;filter:url(#filter4496);enable-background:accumulate" />
    <path
       sodipodi:nodetypes="ccc"
       id="path3097"
       d="M 4.114236,14.783347 C 3.2602582,15.415039 2.8377795,16.480854 3.3629351,17.523385 2.3880639,17.081443 1.4502681,15.534648 4.114236,14.783347 z"
       style="color:#000000;fill:#ffffff;fill-opacity:0.85777779;stroke:none;stroke-width:1px;marker:none;visibility:visible;display:inline;overflow:visible;filter:url(#filter4510);enable-background:accumulate" />
  </g>
  <g
     id="g3107"
     transform="translate(17.768421,4.5473684)">
    <path
       sodipodi:nodetypes="ccccc"
       id="path3109"
       d="m 3.3532895,14.806579 c -0.8358609,0.306835 -1.3958333,1.270833 -1.0625,2 1.2711467,1.190029 2.5860271,2.31758 5,1.875 1,-0.270833 1.4375,-1.354167 0.9375,-2.6875 -0.9375,-1.083333 -2.311199,-2.130055 -4.875,-1.1875 z"
       style="color:#000000;fill:url(#radialGradient3125);fill-opacity:1;stroke:none;stroke-width:1px;marker:none;visibility:visible;display:inline;overflow:visible;enable-background:accumulate" />
    <path
       sodipodi:nodetypes="ccccc"
       id="path3111"
       d="m 4.6657895,6.7256578 -0.6875,9.7684212 c 0.75,0.9375 2.625,0.8125 3,0 l -1,-9.7684212 c 0,0 -0.5633585,-0.6271464 -1.3125,0 z"
       style="color:#000000;fill:url(#linearGradient3127);stroke:none;stroke-width:1px;marker:none;visibility:visible;display:inline;overflow:visible;enable-background:accumulate" />
    <g
       transform="matrix(0.55973938,0,0,0.55973938,-7.3103234,21.840709)"
       id="g3113">
      <path
         sodipodi:nodetypes="cssc"
         id="path3115"
         d="m 22.505263,-37.663158 c 0,0 -3,5 -3,7 0,2 3.971008,4.714986 5,3 3,-5 -2.265099,-7.267785 -2,-10 z"
         style="color:#000000;fill:url(#linearGradient3129);stroke:none;stroke-width:1px;marker:none;visibility:visible;display:inline;overflow:visible;enable-background:accumulate" />
      <path
         style="color:#000000;fill:url(#linearGradient3131);stroke:none;stroke-width:1px;marker:none;visibility:visible;display:inline;overflow:visible;enable-background:accumulate"
         d="m 22.505263,-34.663158 c 0,0 -1.854682,3.091138 -1.854682,4.327593 0,1.236455 2.454987,2.914934 3.091137,1.854683 1.854683,-3.091138 -1.400346,-4.493145 -1.236455,-6.182276 z"
         id="path3117"
         sodipodi:nodetypes="cssc" />
      <path
         sodipodi:nodetypes="ccc"
         id="path3119"
         d="m 22.122251,-36.154325 c -0.83168,3.141425 -2.587492,6.017267 -0.535913,7.562321 -1.584612,-0.924357 -2.962499,-0.715846 0.535913,-7.562321 z"
         style="color:#000000;fill:#ffffff;stroke:none;stroke-width:1px;marker:none;visibility:visible;display:inline;overflow:visible;filter:url(#filter3855);enable-background:accumulate" />
    </g>
    <path
       sodipodi:nodetypes="cccccc"
       id="path3121"
       d="M 4.6887603,7.1287447 4.2026244,16.551114 4.9539253,16.993055 4.6887603,16.330143 4.9539253,7.2171331 4.6887603,7.1287447 z"
       style="color:#000000;fill:#ffffff;fill-opacity:0.66666667;stroke:none;stroke-width:1px;marker:none;visibility:visible;display:inline;overflow:visible;filter:url(#filter4496);enable-background:accumulate" />
    <path
       sodipodi:nodetypes="ccc"
       id="path3123"
       d="M 4.114236,14.783347 C 3.2602582,15.415039 2.8377795,16.480854 3.3629351,17.523385 2.3880639,17.081443 1.4502681,15.534648 4.114236,14.783347 z"
       style="color:#000000;fill:#ffffff;fill-opacity:0.85777779;stroke:none;stroke-width:1px;marker:none;visibility:visible;display:inline;overflow:visible;filter:url(#filter4510);enable-background:accumulate" />
  </g>
  <path
     style="font-size:medium;font-style:normal;font-variant:normal;font-weight:normal;font-stretch:normal;text-indent:0;text-align:start;text-decoration:none;line-height:normal;letter-spacing:normal;word-spacing:normal;text-transform:none;direction:ltr;block-progression:tb;writing-mode:lr-tb;text-anchor:start;color:#000000;fill:url(#linearGradient4716);fill-opacity:1;stroke:none;stroke-width:1px;marker:none;visibility:visible;display:inline;overflow:visible;enable-background:accumulate;font-family:Bitstream Vera Sans;-inkscape-font-specification:Bitstream Vera Sans"
     d="m 23.652228,28.457927 c 4.840741,1.365792 9.478576,-2.508107 9.478576,-6.601333 l -3.940909,-0.682133 c 0,3.593078 -1.945432,5.514297 -5.537667,4.500765 -0.680685,0.831774 -1.098517,1.725492 0,2.782701 z"
     id="path2924"
     sodipodi:nodetypes="ccccc" />
  <path
     style="font-size:medium;font-style:normal;font-variant:normal;font-weight:normal;font-stretch:normal;text-indent:0;text-align:start;text-decoration:none;line-height:normal;letter-spacing:normal;word-spacing:normal;text-transform:none;direction:ltr;block-progression:tb;writing-mode:lr-tb;text-anchor:start;color:#000000;fill:url(#linearGradient4714);fill-opacity:1;stroke:none;stroke-width:1px;marker:none;visibility:visible;display:inline;overflow:visible;enable-background:accumulate;font-family:Bitstream Vera Sans;-inkscape-font-specification:Bitstream Vera Sans"
     d="m 24.000066,34.121469 c 9.130738,2.576197 14.69614,-3.33872 14.69614,-10.694622 l -2.908392,-0.822693 c 0,6.855754 -4.932838,11.016534 -11.787748,9.082452 -1.237331,1.106919 -0.655696,1.695691 0,2.434863 z"
     id="path2922"
     sodipodi:nodetypes="ccccc" />
  <g
     id="g3133"
     transform="translate(25.936842,5.8947368)">
    <path
       sodipodi:nodetypes="ccccc"
       id="path3135"
       d="m 3.3532895,14.806579 c -0.8358609,0.306835 -1.3958333,1.270833 -1.0625,2 1.2711467,1.190029 2.5860271,2.31758 5,1.875 1,-0.270833 1.4375,-1.354167 0.9375,-2.6875 -0.9375,-1.083333 -2.311199,-2.130055 -4.875,-1.1875 z"
       style="color:#000000;fill:url(#radialGradient3151);fill-opacity:1;stroke:none;stroke-width:1px;marker:none;visibility:visible;display:inline;overflow:visible;enable-background:accumulate" />
    <path
       sodipodi:nodetypes="ccccc"
       id="path3137"
       d="m 4.6657895,6.7256578 -0.6875,9.7684212 c 0.75,0.9375 2.625,0.8125 3,0 l -1,-9.7684212 c 0,0 -0.5633585,-0.6271464 -1.3125,0 z"
       style="color:#000000;fill:url(#linearGradient3153);stroke:none;stroke-width:1px;marker:none;visibility:visible;display:inline;overflow:visible;enable-background:accumulate" />
    <g
       transform="matrix(0.55973938,0,0,0.55973938,-7.3103234,21.840709)"
       id="g3139">
      <path
         sodipodi:nodetypes="cssc"
         id="path3141"
         d="m 22.505263,-37.663158 c 0,0 -3,5 -3,7 0,2 3.971008,4.714986 5,3 3,-5 -2.265099,-7.267785 -2,-10 z"
         style="color:#000000;fill:url(#linearGradient3155);stroke:none;stroke-width:1px;marker:none;visibility:visible;display:inline;overflow:visible;enable-background:accumulate" />
      <path
         style="color:#000000;fill:url(#linearGradient3157);stroke:none;stroke-width:1px;marker:none;visibility:visible;display:inline;overflow:visible;enable-background:accumulate"
         d="m 22.505263,-34.663158 c 0,0 -1.854682,3.091138 -1.854682,4.327593 0,1.236455 2.454987,2.914934 3.091137,1.854683 1.854683,-3.091138 -1.400346,-4.493145 -1.236455,-6.182276 z"
         id="path3143"
         sodipodi:nodetypes="cssc" />
      <path
         sodipodi:nodetypes="ccc"
         id="path3145"
         d="m 22.122251,-36.154325 c -0.83168,3.141425 -2.587492,6.017267 -0.535913,7.562321 -1.584612,-0.924357 -2.962499,-0.715846 0.535913,-7.562321 z"
         style="color:#000000;fill:#ffffff;stroke:none;stroke-width:1px;marker:none;visibility:visible;display:inline;overflow:visible;filter:url(#filter3855);enable-background:accumulate" />
    </g>
    <path
       sodipodi:nodetypes="cccccc"
       id="path3147"
       d="M 4.6887603,7.1287447 4.2026244,16.551114 4.9539253,16.993055 4.6887603,16.330143 4.9539253,7.2171331 4.6887603,7.1287447 z"
       style="color:#000000;fill:#ffffff;fill-opacity:0.66666667;stroke:none;stroke-width:1px;marker:none;visibility:visible;display:inline;overflow:visible;filter:url(#filter4496);enable-background:accumulate" />
    <path
       sodipodi:nodetypes="ccc"
       id="path3149"
       d="M 4.114236,14.783347 C 3.2602582,15.415039 2.8377795,16.480854 3.3629351,17.523385 2.3880639,17.081443 1.4502681,15.534648 4.114236,14.783347 z"
       style="color:#000000;fill:#ffffff;fill-opacity:0.85777779;stroke:none;stroke-width:1px;marker:none;visibility:visible;display:inline;overflow:visible;filter:url(#filter4510);enable-background:accumulate" />
  </g>
  <g
     id="g3159"
     transform="translate(31.663158,7.5789474)">
    <path
       sodipodi:nodetypes="ccccc"
       id="path3161"
       d="m 3.3532895,14.806579 c -0.8358609,0.306835 -1.3958333,1.270833 -1.0625,2 1.2711467,1.190029 2.5860271,2.31758 5,1.875 1,-0.270833 1.4375,-1.354167 0.9375,-2.6875 -0.9375,-1.083333 -2.311199,-2.130055 -4.875,-1.1875 z"
       style="color:#000000;fill:url(#radialGradient3177);fill-opacity:1;stroke:none;stroke-width:1px;marker:none;visibility:visible;display:inline;overflow:visible;enable-background:accumulate" />
    <path
       sodipodi:nodetypes="ccccc"
       id="path3163"
       d="m 4.6657895,6.7256578 -0.6875,9.7684212 c 0.75,0.9375 2.625,0.8125 3,0 l -1,-9.7684212 c 0,0 -0.5633585,-0.6271464 -1.3125,0 z"
       style="color:#000000;fill:url(#linearGradient3179);stroke:none;stroke-width:1px;marker:none;visibility:visible;display:inline;overflow:visible;enable-background:accumulate" />
    <g
       transform="matrix(0.55973938,0,0,0.55973938,-7.3103234,21.840709)"
       id="g3165">
      <path
         sodipodi:nodetypes="cssc"
         id="path3167"
         d="m 22.505263,-37.663158 c 0,0 -3,5 -3,7 0,2 3.971008,4.714986 5,3 3,-5 -2.265099,-7.267785 -2,-10 z"
         style="color:#000000;fill:url(#linearGradient3181);stroke:none;stroke-width:1px;marker:none;visibility:visible;display:inline;overflow:visible;enable-background:accumulate" />
      <path
         style="color:#000000;fill:url(#linearGradient3183);stroke:none;stroke-width:1px;marker:none;visibility:visible;display:inline;overflow:visible;enable-background:accumulate"
         d="m 22.505263,-34.663158 c 0,0 -1.854682,3.091138 -1.854682,4.327593 0,1.236455 2.454987,2.914934 3.091137,1.854683 1.854683,-3.091138 -1.400346,-4.493145 -1.236455,-6.182276 z"
         id="path3169"
         sodipodi:nodetypes="cssc" />
      <path
         sodipodi:nodetypes="ccc"
         id="path3171"
         d="m 22.122251,-36.154325 c -0.83168,3.141425 -2.587492,6.017267 -0.535913,7.562321 -1.584612,-0.924357 -2.962499,-0.715846 0.535913,-7.562321 z"
         style="color:#000000;fill:#ffffff;stroke:none;stroke-width:1px;marker:none;visibility:visible;display:inline;overflow:visible;filter:url(#filter3855);enable-background:accumulate" />
    </g>
    <path
       sodipodi:nodetypes="cccccc"
       id="path3173"
       d="M 4.6887603,7.1287447 4.2026244,16.551114 4.9539253,16.993055 4.6887603,16.330143 4.9539253,7.2171331 4.6887603,7.1287447 z"
       style="color:#000000;fill:#ffffff;fill-opacity:0.66666667;stroke:none;stroke-width:1px;marker:none;visibility:visible;display:inline;overflow:visible;filter:url(#filter4496);enable-background:accumulate" />
    <path
       sodipodi:nodetypes="ccc"
       id="path3175"
       d="M 4.114236,14.783347 C 3.2602582,15.415039 2.8377795,16.480854 3.3629351,17.523385 2.3880639,17.081443 1.4502681,15.534648 4.114236,14.783347 z"
       style="color:#000000;fill:#ffffff;fill-opacity:0.85777779;stroke:none;stroke-width:1px;marker:none;visibility:visible;display:inline;overflow:visible;filter:url(#filter4510);enable-background:accumulate" />
  </g>
  <g
     id="g3185"
     transform="translate(37.305263,9.0947368)">
    <path
       sodipodi:nodetypes="ccccc"
       id="path3187"
       d="m 3.3532895,14.806579 c -0.8358609,0.306835 -1.3958333,1.270833 -1.0625,2 1.2711467,1.190029 2.5860271,2.31758 5,1.875 1,-0.270833 1.4375,-1.354167 0.9375,-2.6875 -0.9375,-1.083333 -2.311199,-2.130055 -4.875,-1.1875 z"
       style="color:#000000;fill:url(#radialGradient3203);fill-opacity:1;stroke:none;stroke-width:1px;marker:none;visibility:visible;display:inline;overflow:visible;enable-background:accumulate" />
    <path
       sodipodi:nodetypes="ccccc"
       id="path3189"
       d="m 4.6657895,6.7256578 -0.6875,9.7684212 c 0.75,0.9375 2.625,0.8125 3,0 l -1,-9.7684212 c 0,0 -0.5633585,-0.6271464 -1.3125,0 z"
       style="color:#000000;fill:url(#linearGradient3205);stroke:none;stroke-width:1px;marker:none;visibility:visible;display:inline;overflow:visible;enable-background:accumulate" />
    <g
       transform="matrix(0.55973938,0,0,0.55973938,-7.3103234,21.840709)"
       id="g3191">
      <path
         sodipodi:nodetypes="cssc"
         id="path3193"
         d="m 22.505263,-37.663158 c 0,0 -3,5 -3,7 0,2 3.971008,4.714986 5,3 3,-5 -2.265099,-7.267785 -2,-10 z"
         style="color:#000000;fill:url(#linearGradient3207);stroke:none;stroke-width:1px;marker:none;visibility:visible;display:inline;overflow:visible;enable-background:accumulate" />
      <path
         style="color:#000000;fill:url(#linearGradient3209);stroke:none;stroke-width:1px;marker:none;visibility:visible;display:inline;overflow:visible;enable-background:accumulate"
         d="m 22.505263,-34.663158 c 0,0 -1.854682,3.091138 -1.854682,4.327593 0,1.236455 2.454987,2.914934 3.091137,1.854683 1.854683,-3.091138 -1.400346,-4.493145 -1.236455,-6.182276 z"
         id="path3195"
         sodipodi:nodetypes="cssc" />
      <path
         sodipodi:nodetypes="ccc"
         id="path3197"
         d="m 22.122251,-36.154325 c -0.83168,3.141425 -2.587492,6.017267 -0.535913,7.562321 -1.584612,-0.924357 -2.962499,-0.715846 0.535913,-7.562321 z"
         style="color:#000000;fill:#ffffff;stroke:none;stroke-width:1px;marker:none;visibility:visible;display:inline;overflow:visible;filter:url(#filter3855);enable-background:accumulate" />
    </g>
    <path
       sodipodi:nodetypes="cccccc"
       id="path3199"
       d="M 4.6887603,7.1287447 4.2026244,16.551114 4.9539253,16.993055 4.6887603,16.330143 4.9539253,7.2171331 4.6887603,7.1287447 z"
       style="color:#000000;fill:#ffffff;fill-opacity:0.66666667;stroke:none;stroke-width:1px;marker:none;visibility:visible;display:inline;overflow:visible;filter:url(#filter4496);enable-background:accumulate" />
    <path
       sodipodi:nodetypes="ccc"
       id="path3201"
       d="M 4.114236,14.783347 C 3.2602582,15.415039 2.8377795,16.480854 3.3629351,17.523385 2.3880639,17.081443 1.4502681,15.534648 4.114236,14.783347 z"
       style="color:#000000;fill:#ffffff;fill-opacity:0.85777779;stroke:none;stroke-width:1px;marker:none;visibility:visible;display:inline;overflow:visible;filter:url(#filter4510);enable-background:accumulate" />
  </g>
  <path
     style="color:#000000;fill:#ffffff;stroke:none;stroke-width:1px;stroke-linecap:butt;stroke-linejoin:miter;stroke-miterlimit:4;stroke-opacity:1;stroke-dasharray:none;stroke-dashoffset:0;marker:none;visibility:visible;display:inline;overflow:visible;enable-background:accumulate;filter:url(#filter4775);fill-opacity:0.83999997"
     d="m 4.5850292,18.524812 c -0.1196164,2.131846 1.0190306,4.85759 1.5481917,6.014129 -0.4635527,-1.783015 -1.5163462,-3.671012 -0.5954583,-5.7164 L 4.5850292,18.524812 z"
     id="path4757"
     sodipodi:nodetypes="cccc" />
  <path
     sodipodi:nodetypes="cccc"
     id="path4759"
     d="m 10.038897,19.830677 c 0.245008,2.121095 1.83101,4.613245 2.549312,5.662832 -0.760288,-1.678089 -2.11909,-3.240236 -1.559803,-5.412527 l -0.989509,-0.250305 z"
     style="color:#000000;fill:#ffffff;stroke:none;stroke-width:1px;marker:none;visibility:visible;display:inline;overflow:visible;enable-background:accumulate;filter:url(#filter4779);fill-opacity:0.83999997" />
  <path
     style="color:#000000;fill:#ffffff;stroke:none;stroke-width:1px;marker:none;visibility:visible;display:inline;overflow:visible;enable-background:accumulate;filter:url(#filter4783);fill-opacity:0.83999997"
     d="m 15.46601,21.294536 c 0.750414,1.998988 2.891746,4.03391 3.842436,4.878764 -1.143341,-1.444573 -2.808666,-2.568904 -2.791005,-4.811968 l -1.051431,-0.0668 z"
     id="path4761"
     sodipodi:nodetypes="cccc" />
  <path
     style="color:#000000;fill:#ffffff;stroke:none;stroke-width:1px;stroke-linecap:butt;stroke-linejoin:miter;stroke-miterlimit:4;stroke-opacity:1;stroke-dasharray:none;stroke-dashoffset:0;marker:none;visibility:visible;display:inline;overflow:visible;enable-background:accumulate;filter:url(#filter4797);fill-opacity:0.93333334"
     d="m 22.15105,23.228933 -0.297729,18.221025 0.476367,-0.119091 0,-17.625567 -0.178638,-0.476367 z"
     id="path4787" />
  <path
     style="color:#000000;fill:#ffffff;stroke:none;stroke-width:1px;stroke-linecap:butt;stroke-linejoin:miter;stroke-miterlimit:4;stroke-opacity:1;stroke-dasharray:none;stroke-dashoffset:0;marker:none;visibility:visible;display:inline;overflow:visible;enable-background:accumulate;filter:url(#filter4819);fill-opacity:0.76444447"
     d="m 21.019679,39.306308 c -2.981316,0.365738 -5.052216,2.82923 -2.441379,4.108662 -2.534348,-0.379633 -3.436722,-3.579524 2.441379,-4.108662 z"
     id="path4801"
     sodipodi:nodetypes="ccc" />
  <path
     style="color:#000000;fill:#ffffff;stroke:none;stroke-width:1px;stroke-linecap:butt;stroke-linejoin:miter;stroke-miterlimit:4;stroke-opacity:1;stroke-dasharray:none;stroke-dashoffset:0;marker:none;visibility:visible;display:inline;overflow:visible;enable-background:accumulate;filter:url(#filter4830);fill-opacity:0.83111113"
     d="m 23.848107,25.878723 c -0.277761,0.650117 -0.578086,1.286131 -0.238184,2.322287 -0.484137,-0.388158 -0.88653,-1.500455 0.238184,-2.322287 z"
     id="path4824"
     sodipodi:nodetypes="ccc" />
  <path
     sodipodi:nodetypes="ccc"
     id="path4834"
     d="m 24.294701,31.654669 c -0.277761,0.650117 -0.578086,1.286131 -0.238184,2.322287 -0.484137,-0.388158 -0.88653,-1.500455 0.238184,-2.322287 z"
     style="color:#000000;fill:#ffffff;fill-opacity:0.83111112;stroke:none;stroke-width:1px;marker:none;visibility:visible;display:inline;overflow:visible;filter:url(#filter4830);enable-background:accumulate" />
  <path
     style="color:#000000;fill:#ffffff;fill-opacity:0.83111112;stroke:none;stroke-width:1px;marker:none;visibility:visible;display:inline;overflow:visible;filter:url(#filter4830);enable-background:accumulate"
     d="m 24.026745,36.835157 c -0.277761,0.650117 -0.578086,1.286131 -0.238184,2.322287 -0.484137,-0.388158 -0.88653,-1.500455 0.238184,-2.322287 z"
     id="path4836"
     sodipodi:nodetypes="ccc" />
</svg>
