<?xml version="1.0" encoding="UTF-8" standalone="no"?>
<!-- Created with Inkscape (http://www.inkscape.org/) -->

<svg
   xmlns:dc="http://purl.org/dc/elements/1.1/"
   xmlns:cc="http://creativecommons.org/ns#"
   xmlns:rdf="http://www.w3.org/1999/02/22-rdf-syntax-ns#"
   xmlns:svg="http://www.w3.org/2000/svg"
   xmlns="http://www.w3.org/2000/svg"
   xmlns:xlink="http://www.w3.org/1999/xlink"
   xmlns:sodipodi="http://sodipodi.sourceforge.net/DTD/sodipodi-0.dtd"
   xmlns:inkscape="http://www.inkscape.org/namespaces/inkscape"
   id="svg1"
   sodipodi:version="0.32"
   inkscape:version="0.47 r22583"
   width="48"
   height="48"
   sodipodi:docname="hanukkah03.svg"
   version="1.1"
   inkscape:export-filename="hanukkah03.png"
   inkscape:export-xdpi="89.949997"
   inkscape:export-ydpi="89.949997">
  <defs
     id="defs3">
    <linearGradient
       id="linearGradient3635">
      <stop
         style="stop-color:#003e8c;stop-opacity:1;"
         offset="0"
         id="stop3637" />
      <stop
         style="stop-color:#0062db;stop-opacity:1;"
         offset="1"
         id="stop3639" />
    </linearGradient>
    <linearGradient
       inkscape:collect="always"
       xlink:href="#linearGradient3635"
       id="linearGradient3641"
       x1="11"
       y1="14"
       x2="37"
       y2="38"
       gradientUnits="userSpaceOnUse"
       gradientTransform="translate(-1,1)" />
    <linearGradient
       inkscape:collect="always"
       xlink:href="#linearGradient3635"
       id="linearGradient3675"
       x1="32.646381"
       y1="23.382454"
       x2="39.05127"
       y2="18.414034"
       gradientUnits="userSpaceOnUse"
       gradientTransform="translate(-1,1)" />
    <linearGradient
       inkscape:collect="always"
       xlink:href="#linearGradient3635"
       id="linearGradient3679"
       x1="26.421709"
       y1="37.7118"
       x2="35.828617"
       y2="42.191032"
       gradientUnits="userSpaceOnUse"
       gradientTransform="translate(-1,1)" />
    <linearGradient
       inkscape:collect="always"
       xlink:href="#linearGradient3635"
       id="linearGradient3682"
       x1="16"
       y1="22.953125"
       x2="34.630268"
       y2="21.16675"
       gradientUnits="userSpaceOnUse"
       gradientTransform="translate(-1,1)" />
    <linearGradient
       inkscape:collect="always"
       xlink:href="#linearGradient3635"
       id="linearGradient3684"
       x1="10.112258"
       y1="9.0702257"
       x2="19.78125"
       y2="9.0702257"
       gradientUnits="userSpaceOnUse"
       gradientTransform="translate(-1,1)" />
    <linearGradient
       inkscape:collect="always"
       xlink:href="#linearGradient3635"
       id="linearGradient3686"
       x1="11.928175"
       y1="14.865746"
       x2="20.13525"
       y2="10.042604"
       gradientUnits="userSpaceOnUse"
       gradientTransform="translate(-1,1)" />
    <linearGradient
       inkscape:collect="always"
       xlink:href="#linearGradient3635"
       id="linearGradient3688"
       x1="11.03125"
       y1="24.5"
       x2="24.276871"
       y2="23.0709"
       gradientUnits="userSpaceOnUse"
       gradientTransform="translate(-1,1)" />
    <filter
       inkscape:collect="always"
       id="filter3724">
      <feGaussianBlur
         inkscape:collect="always"
         stdDeviation="0.18672681"
         id="feGaussianBlur3726" />
    </filter>
    <filter
       inkscape:collect="always"
       id="filter3728"
       x="-0.17534016"
       width="1.3506803"
       y="-0.056377434"
       height="1.1127549">
      <feGaussianBlur
         inkscape:collect="always"
         stdDeviation="0.18672681"
         id="feGaussianBlur3730" />
    </filter>
    <filter
       inkscape:collect="always"
       id="filter3732"
       x="-0.094189643"
       width="1.1883793"
       y="-0.12124939"
       height="1.2424988">
      <feGaussianBlur
         inkscape:collect="always"
         stdDeviation="0.18672681"
         id="feGaussianBlur3734" />
    </filter>
    <filter
       inkscape:collect="always"
       id="filter3764"
       x="-0.23483015"
       width="1.4696603"
       y="-0.13625458"
       height="1.2725092">
      <feGaussianBlur
         inkscape:collect="always"
         stdDeviation="0.36952667"
         id="feGaussianBlur3766" />
    </filter>
    <filter
       inkscape:collect="always"
       id="filter3768"
       x="-0.16081259"
       width="1.3216252"
       y="-0.48628995"
       height="1.9725799">
      <feGaussianBlur
         inkscape:collect="always"
         stdDeviation="0.36952667"
         id="feGaussianBlur3770" />
    </filter>
    <filter
       inkscape:collect="always"
       id="filter3635"
       x="-0.084831497"
       width="1.169663"
       y="-0.31701204"
       height="1.6340241">
      <feGaussianBlur
         inkscape:collect="always"
         stdDeviation="0.95699911"
         id="feGaussianBlur3637" />
    </filter>
  </defs>
  <sodipodi:namedview
     id="base"
     pagecolor="#ffffff"
     bordercolor="#666666"
     borderopacity="1.0"
     inkscape:pageopacity="0.0"
     inkscape:pageshadow="2"
     inkscape:zoom="1"
     inkscape:cx="17.056697"
     inkscape:cy="24"
     inkscape:window-width="1153"
     inkscape:window-height="793"
     inkscape:window-x="497"
     inkscape:window-y="24"
     showgrid="false"
     inkscape:window-maximized="0"
     inkscape:current-layer="svg1"
     showguides="true"
     inkscape:guide-bbox="true"
     inkscape:snap-global="true">
    <inkscape:grid
       type="xygrid"
       id="grid2861" />
  </sodipodi:namedview>
  <metadata
     id="metadata4">
    <rdf:RDF>
      <cc:Work
         rdf:about="">
        <dc:format>image/svg+xml</dc:format>
        <dc:type
           rdf:resource="http://purl.org/dc/dcmitype/StillImage" />
        <dc:title />
      </cc:Work>
    </rdf:RDF>
  </metadata>
  <path
     style="fill:#000000;fill-opacity:0.76862745;fill-rule:evenodd;stroke:none;filter:url(#filter3635)"
     d="m 11.752632,37.213487 c -1.355429,0.0264 -2.2906274,0.306994 -2.3750004,0.78125 -0.1349968,0.75881 1.9645004,1.729672 4.6875004,2.1875 0.705032,0.11854 1.380244,0.191062 2,0.21875 -0.002,0.0098 0.0017,0.02134 0,0.03125 -0.2505,1.446383 2.535486,3.143344 6.21875,3.78125 3.286605,0.569208 6.174533,0.102152 6.9375,-1.03125 0.610155,0.184627 1.299691,0.34575 2.03125,0.46875 2.723,0.457828 5.052503,0.19631 5.1875,-0.5625 0.134997,-0.75881 -1.9645,-1.729672 -4.6875,-2.1875 -1.44319,-0.242649 -2.768093,-0.280044 -3.71875,-0.15625 -1.127619,-0.758345 -2.845633,-1.435195 -4.84375,-1.78125 -1.673835,-0.289892 -3.228471,-0.290898 -4.46875,-0.09375 -0.768234,-0.562208 -2.305065,-1.126253 -4.15625,-1.4375 -1.021125,-0.171686 -1.999243,-0.23459 -2.8125,-0.21875 z"
     id="path3772" />
  <path
     style="font-size:medium;font-style:normal;font-variant:normal;font-weight:normal;font-stretch:normal;text-indent:0;text-align:start;text-decoration:none;line-height:normal;letter-spacing:normal;word-spacing:normal;text-transform:none;direction:ltr;block-progression:tb;writing-mode:lr-tb;text-anchor:start;color:#000000;fill:url(#linearGradient3675);fill-opacity:1;stroke:none;stroke-width:3;marker:none;visibility:visible;display:inline;overflow:visible;enable-background:accumulate;font-family:Bitstream Vera Sans;-inkscape-font-specification:Bitstream Vera Sans"
     d="M 25.15625,4.75 C 24.876871,4.75739 24.640289,4.788243 24.5625,4.84375 l 0.65625,0.75 4.28125,11 9.59375,2.71875 c 0.805815,1.446927 -0.488324,3.091685 -0.0625,3 L 33.782895,28.573355 37.9375,37.5625 c 0.234445,0.440789 -0.707431,1.482321 -1.092106,1.849014 l 2.373356,0.05724 c 1.062298,-0.03653 1.875475,-1.002178 1.5,-1.78125 l -3.3125,-9.03125 5.5,-6.5625 C 43.374626,21.453491 43.399559,19.598495 41.875,19.4375 L 32.78125,16.125 29.125,6.15625 C 29.09277,5.6090208 28.579695,5.0959452 27.90625,4.9375 27.855566,4.9145993 27.803391,4.893729 27.75,4.875 27.432447,4.87227 25.994387,4.7278237 25.15625,4.75 z m 5.4417,14.455225 1.909204,6.625463 3.079726,-2.178999 -1.328656,-3.396097 -3.660274,-1.050367 z"
     id="path3673"
     sodipodi:nodetypes="ccccccccccccccccsscccccc" />
  <path
     style="font-size:medium;font-style:normal;font-variant:normal;font-weight:normal;font-stretch:normal;text-indent:0;text-align:start;text-decoration:none;line-height:normal;letter-spacing:normal;word-spacing:normal;text-transform:none;direction:ltr;block-progression:tb;writing-mode:lr-tb;text-anchor:start;color:#000000;fill:url(#linearGradient3684);fill-opacity:1;stroke:none;stroke-width:3;marker:none;visibility:visible;display:inline;overflow:visible;enable-background:accumulate;font-family:Bitstream Vera Sans;-inkscape-font-specification:Bitstream Vera Sans"
     d="M 12.59375,8.75 C 12.132698,8.75802 9.26938,8.354485 8.9633934,8.6218146 L 18.1875,11.6875 18.78125,11 12.59375,8.75 z"
     id="path3671"
     sodipodi:nodetypes="ccccc" />
  <path
     style="font-size:medium;font-style:normal;font-variant:normal;font-weight:normal;font-stretch:normal;text-indent:0;text-align:start;text-decoration:none;line-height:normal;letter-spacing:normal;word-spacing:normal;text-transform:none;direction:ltr;block-progression:tb;writing-mode:lr-tb;text-anchor:start;color:#000000;fill:url(#linearGradient3682);fill-opacity:1;stroke:none;stroke-width:3;marker:none;visibility:visible;display:inline;overflow:visible;enable-background:accumulate;font-family:Bitstream Vera Sans;-inkscape-font-specification:Bitstream Vera Sans"
     d="m 24.6875,9.34375 -5.9832,3.919775 7.9832,1.517725 -0.375,-1.03125 -1.96875,-0.71875 1.1875,-1.375 -0.84375,-2.3125 z m -5.363183,5.401587 -5.217505,5.814209 3.763525,9.981029 L 26.84375,32.625 27.4375,31.9375 21.1875,29.59375 17.78125,20.625 21.75,16.0625 19.324317,14.745337 z m -1.269896,16.292605 4.2374,9.310933 L 23.75,36.3125 22.96875,34.28125 18.054421,31.037942 z"
     id="path3669"
     sodipodi:nodetypes="ccccccccccccccccccccc" />
  <path
     style="font-size:medium;font-style:normal;font-variant:normal;font-weight:normal;font-stretch:normal;text-indent:0;text-align:start;text-decoration:none;line-height:normal;letter-spacing:normal;word-spacing:normal;text-transform:none;direction:ltr;block-progression:tb;writing-mode:lr-tb;text-anchor:start;color:#000000;fill:url(#linearGradient3686);fill-opacity:1;stroke:none;stroke-width:3;marker:none;visibility:visible;display:inline;overflow:visible;enable-background:accumulate;font-family:Bitstream Vera Sans;-inkscape-font-specification:Bitstream Vera Sans"
     d="m 10.928175,11.042604 2.073071,9.646284 2.561254,-6.001388 -0.375,-1 -4.259325,-2.644896 z"
     id="path3667"
     sodipodi:nodetypes="ccccc" />
  <path
     style="font-size:medium;font-style:normal;font-variant:normal;font-weight:normal;font-stretch:normal;text-indent:0;text-align:start;text-decoration:none;line-height:normal;letter-spacing:normal;word-spacing:normal;text-transform:none;direction:ltr;block-progression:tb;writing-mode:lr-tb;text-anchor:start;color:#000000;fill:url(#linearGradient3688);fill-opacity:1;stroke:none;stroke-width:3;marker:none;visibility:visible;display:inline;overflow:visible;enable-background:accumulate;font-family:Bitstream Vera Sans;-inkscape-font-specification:Bitstream Vera Sans"
     d="M 13.238183,21.831471 8.0066916,26.817163 16.190917,29.436485 14.59375,27.09375 12.8125,26.40625 13.875,25.1875 13.238183,21.831471 z"
     id="path3661"
     sodipodi:nodetypes="ccccccc" />
  <path
     style="font-size:medium;font-style:normal;font-variant:normal;font-weight:normal;font-stretch:normal;text-indent:0;text-align:start;text-decoration:none;line-height:normal;letter-spacing:normal;word-spacing:normal;text-transform:none;direction:ltr;block-progression:tb;writing-mode:lr-tb;text-anchor:start;color:#000000;fill:url(#linearGradient3679);fill-opacity:1;stroke:none;stroke-width:3;marker:none;visibility:visible;display:inline;overflow:visible;enable-background:accumulate;font-family:Bitstream Vera Sans;-inkscape-font-specification:Bitstream Vera Sans"
     d="m 32.667105,30.443092 -4.784539,4.021382 6.946052,1.604605 L 33.875,34.375 32.9375,34 33.5,33.3125 32.667105,30.443092 z m -5.26875,5.301645 -5.892434,7.271381 c 0.232266,0.345755 2.099745,0.05757 2.587829,0.140132 0.477317,0.07579 0.992732,-0.01793 1.375,-0.25 l 4.875,-5.84375 -2.945395,-1.317763 z"
     id="path3659"
     sodipodi:nodetypes="cccccccccsccc" />
  <path
     style="font-size:medium;font-style:normal;font-variant:normal;font-weight:normal;font-stretch:normal;text-indent:0;text-align:start;text-decoration:none;line-height:normal;letter-spacing:normal;word-spacing:normal;text-transform:none;direction:ltr;block-progression:tb;writing-mode:lr-tb;text-anchor:start;color:#000000;fill:url(#linearGradient3641);fill-opacity:1;stroke:none;stroke-width:3;marker:none;visibility:visible;display:inline;overflow:visible;enable-background:accumulate;font-family:Bitstream Vera Sans;-inkscape-font-specification:Bitstream Vera Sans"
     d="M 24.961509,4.7566958 A 1.6983601,1.3250723 54.890084 0 0 23.821657,5.1107507 L 18.18513,11.690152 9.816444,8.6239352 A 1.6983601,1.3250723 54.890084 0 0 8.2994487,10.390534 l 3.3525933,8.872884 -5.4881045,6.375658 a 1.6983601,1.3250723 54.890084 0 0 1.0197541,2.705845 l 9.2039104,3.472474 3.789138,10.03697 a 1.6983601,1.3250723 54.890084 0 0 1.125102,1.192667 1.6983601,1.3250723 54.890084 0 0 1.381448,-0.264603 l 5.47517,-6.542132 8.271182,3.094789 a 1.6983601,1.3250723 54.890084 0 0 1.516995,-1.766599 l -3.335328,-9.028178 5.508823,-6.56201 A 1.6983601,1.3250723 54.890084 0 0 39.096925,19.303514 L 30,16 26.328207,6.038815 A 1.6983601,1.3250723 54.890084 0 0 25.112506,4.8126033 1.6983601,1.3250723 54.890084 0 0 24.961509,4.7566958 z m -0.289298,4.5817727 2.005856,5.4315665 -5.107152,-1.858614 3.101296,-3.5729525 z m 11.616869,12.0297905 -3.007244,3.575438 -1.979109,-5.389326 4.986353,1.813888 z m -8.31174,-3.012794 3.312035,8.954879 -4.456934,5.302283 -8.422179,-3.150697 -3.406086,-8.957365 4.544079,-5.237679 8.429085,3.088579 z m -11.84507,-4.32103 -2.46102,2.904577 -1.67975,-4.405383 4.14077,1.500806 z m -3.117102,8.805718 1.986015,5.327209 -4.979447,-1.876006 2.993432,-3.451203 z m 19.60368,8.066802 1.665938,4.529619 -4.133865,-1.562924 2.467927,-2.966695 z m -12.848914,2.162768 5.100245,1.920732 -3.007244,3.575438 -2.093001,-5.49617 z"
     id="path2850" />
  <path
     style="color:#000000;fill:#ffffff;fill-opacity:0.50892861;stroke:none;stroke-width:1px;marker:none;visibility:visible;display:inline;overflow:visible;filter:url(#filter3728);enable-background:accumulate"
     d="M 9.956434,8.8958806 C 8.7483337,8.5890707 8.1986296,9.0952508 8.4380147,10.11657 8.8250627,11.307487 10.93894,16.755931 10.93894,16.755931 10.246,14.072464 7.7947343,9.3405126 9.956434,8.8958806 z"
     id="path3690"
     sodipodi:nodetypes="cccc" />
  <path
     style="color:#000000;fill:#ffffff;fill-opacity:0.50892861;stroke:none;stroke-width:1px;marker:none;visibility:visible;display:inline;overflow:visible;filter:url(#filter3724);enable-background:accumulate"
     d="m 7.0421058,25.042105 c -0.7800388,0.589474 -1.3991554,2.021053 0.08421,3.031579 l 6.1052632,2.4 C 9.947369,28.536842 5.1796528,28.254635 7.0421058,25.042105 z"
     id="path3696"
     sodipodi:nodetypes="cccc" />
  <path
     style="color:#000000;fill:#ffffff;fill-opacity:0.50892861;stroke:none;stroke-width:1px;marker:none;visibility:visible;display:inline;overflow:visible;filter:url(#filter3732);enable-background:accumulate"
     d="m 21.189474,8.7052631 c 0.8,-1.2210526 2.736842,-3.368421 2.736842,-3.368421 1.241161,-0.8485073 1.491356,0.1762219 2.021052,0.5473684 -1.543859,-0.7438597 -3.25614,1.0807017 -4.757894,2.8210526 z"
     id="path3698"
     sodipodi:nodetypes="cccc" />
  <path
     style="color:#000000;fill:#ffffff;fill-opacity:0.60267861;stroke:none;stroke-width:1px;marker:none;visibility:visible;display:inline;overflow:visible;filter:url(#filter3764);enable-background:accumulate"
     d="m 38.747368,19.526316 c 1.661825,1.608982 0.248225,2.974646 -2.397007,6.508875 l 3.754593,-4.428277 c 0.115304,-1.048429 -0.205466,-1.82431 -1.357586,-2.080598 z"
     id="path3736"
     sodipodi:nodetypes="cccc" />
  <path
     style="color:#000000;fill:#ffffff;fill-opacity:0.60267861;stroke:none;stroke-width:1px;marker:none;visibility:visible;display:inline;overflow:visible;filter:url(#filter3768);enable-background:accumulate"
     d="m 37.821053,37.463158 c 0.196919,0.817321 -0.01487,1.481376 -1.08452,1.823735 l -4.3645,-1.634881 c 1.829538,0.174614 3.760798,2.180217 5.44902,-0.188854 z"
     id="path3738"
     sodipodi:nodetypes="cccc" />
</svg>
