<?xml version="1.0" encoding="UTF-8" standalone="no"?>
<!-- Created with Inkscape (http://www.inkscape.org/) -->

<svg
   xmlns:dc="http://purl.org/dc/elements/1.1/"
   xmlns:cc="http://creativecommons.org/ns#"
   xmlns:rdf="http://www.w3.org/1999/02/22-rdf-syntax-ns#"
   xmlns:svg="http://www.w3.org/2000/svg"
   xmlns="http://www.w3.org/2000/svg"
   xmlns:xlink="http://www.w3.org/1999/xlink"
   xmlns:sodipodi="http://sodipodi.sourceforge.net/DTD/sodipodi-0.dtd"
   xmlns:inkscape="http://www.inkscape.org/namespaces/inkscape"
   width="48"
   height="48"
   id="svg2"
   version="1.1"
   inkscape:version="0.47 r22583"
   sodipodi:docname="july4th02.svg"
   inkscape:export-filename="july4th02.png"
   inkscape:export-xdpi="90"
   inkscape:export-ydpi="90">
  <defs
     id="defs4">
    <linearGradient
       id="linearGradient3801">
      <stop
         style="stop-color:#a20000;stop-opacity:1;"
         offset="0"
         id="stop3803" />
      <stop
         style="stop-color:#d40000;stop-opacity:1;"
         offset="1"
         id="stop3805" />
    </linearGradient>
    <linearGradient
       id="linearGradient3791">
      <stop
         id="stop3793"
         offset="0"
         style="stop-color:#e6e6e6;stop-opacity:1;" />
      <stop
         id="stop3795"
         offset="1"
         style="stop-color:#d5d5d5;stop-opacity:1;" />
    </linearGradient>
    <radialGradient
       inkscape:collect="always"
       xlink:href="#linearGradient3801"
       id="radialGradient3660"
       cx="14.61415"
       cy="17.008595"
       fx="14.61415"
       fy="17.008595"
       r="7.5"
       gradientTransform="matrix(1,0,0,0.66666667,0,6)"
       gradientUnits="userSpaceOnUse" />
    <radialGradient
       inkscape:collect="always"
       xlink:href="#linearGradient3801"
       id="radialGradient3662"
       cx="13.568008"
       cy="15.358788"
       fx="13.568008"
       fy="15.358788"
       r="7.4924058"
       gradientTransform="matrix(4.5094316,0.05218925,-0.02359424,2.0386475,-45.612261,1004.6588)"
       gradientUnits="userSpaceOnUse" />
    <linearGradient
       inkscape:collect="always"
       xlink:href="#linearGradient3801"
       id="linearGradient3666"
       x1="33.360245"
       y1="1028.9241"
       x2="15.411371"
       y2="1028.282"
       gradientUnits="userSpaceOnUse"
       gradientTransform="translate(0,1.9700266)" />
    <radialGradient
       inkscape:collect="always"
       xlink:href="#linearGradient3791"
       id="radialGradient3696"
       cx="17.353807"
       cy="30.080618"
       fx="17.353807"
       fy="30.080618"
       r="2.5625"
       gradientTransform="matrix(1.3875552,1.0313013,-0.63290097,0.85153132,12.156281,992.69563)"
       gradientUnits="userSpaceOnUse" />
    <radialGradient
       inkscape:collect="always"
       xlink:href="#linearGradient3791"
       id="radialGradient3698"
       cx="16.555679"
       cy="19.074039"
       fx="16.555679"
       fy="19.074039"
       r="3.5356939"
       gradientTransform="matrix(1,0,0,0.99044679,0,0.18197405)"
       gradientUnits="userSpaceOnUse" />
    <radialGradient
       inkscape:collect="always"
       xlink:href="#linearGradient3791"
       id="radialGradient3700"
       cx="30.953125"
       cy="27.9375"
       fx="30.953125"
       fy="27.9375"
       r="2.390625"
       gradientTransform="matrix(1,0,0,1.2156863,0,1000.3065)"
       gradientUnits="userSpaceOnUse" />
    <linearGradient
       inkscape:collect="always"
       xlink:href="#linearGradient3791"
       id="linearGradient3715"
       x1="15.411371"
       y1="19.224079"
       x2="17.589281"
       y2="19.224079"
       gradientUnits="userSpaceOnUse"
       gradientTransform="translate(0,1006.3322)" />
    <linearGradient
       inkscape:collect="always"
       xlink:href="#linearGradient3791"
       id="linearGradient3717"
       x1="21.303856"
       y1="1023.9313"
       x2="25.116566"
       y2="1023.9313"
       gradientUnits="userSpaceOnUse"
       gradientTransform="translate(0,1.9700266)" />
    <linearGradient
       inkscape:collect="always"
       xlink:href="#linearGradient3791"
       id="linearGradient3719"
       x1="26.958189"
       y1="1023.0966"
       x2="30.101274"
       y2="1023.0966"
       gradientUnits="userSpaceOnUse"
       gradientTransform="translate(0,1.9700266)" />
    <linearGradient
       inkscape:collect="always"
       xlink:href="#linearGradient3791"
       id="linearGradient3721"
       x1="30.08941"
       y1="16.296875"
       x2="32.90625"
       y2="16.296875"
       gradientUnits="userSpaceOnUse"
       gradientTransform="translate(0,1006.3322)" />
    <linearGradient
       inkscape:collect="always"
       xlink:href="#linearGradient3635"
       id="linearGradient3723"
       gradientUnits="userSpaceOnUse"
       gradientTransform="translate(0,1.9700266)"
       x1="15.3125"
       y1="1033.3235"
       x2="33.363087"
       y2="1038.7848" />
    <filter
       inkscape:collect="always"
       id="filter3729"
       x="-0.092276579"
       width="1.1845532"
       y="-0.12589475"
       height="1.2517895">
      <feGaussianBlur
         inkscape:collect="always"
         stdDeviation="0.41145128"
         id="feGaussianBlur3731" />
    </filter>
    <filter
       inkscape:collect="always"
       id="filter3733"
       x="-0.092276569"
       width="1.1845531"
       y="-0.1258958"
       height="1.2517916">
      <feGaussianBlur
         inkscape:collect="always"
         stdDeviation="0.41145128"
         id="feGaussianBlur3735" />
    </filter>
    <filter
       inkscape:collect="always"
       id="filter3743"
       x="-0.15087019"
       width="1.3017404"
       y="-0.14799024"
       height="1.2959805">
      <feGaussianBlur
         inkscape:collect="always"
         stdDeviation="0.46899808"
         id="feGaussianBlur3745" />
    </filter>
    <linearGradient
       inkscape:collect="always"
       xlink:href="#linearGradient3801"
       id="linearGradient3747"
       x1="33.414326"
       y1="1035.3502"
       x2="14.841795"
       y2="1043.5168"
       gradientUnits="userSpaceOnUse"
       gradientTransform="translate(0,1.9700266)" />
    <filter
       inkscape:collect="always"
       id="filter3757"
       x="-0.30233461"
       width="1.6046692"
       y="-0.23035021"
       height="1.4607004">
      <feGaussianBlur
         inkscape:collect="always"
         stdDeviation="0.35630474"
         id="feGaussianBlur3759" />
    </filter>
    <filter
       inkscape:collect="always"
       id="filter3765"
       x="-0.12309138"
       width="1.2461828"
       y="-0.088139496"
       height="1.176279">
      <feGaussianBlur
         inkscape:collect="always"
         stdDeviation="0.26292955"
         id="feGaussianBlur3767" />
    </filter>
    <linearGradient
       id="linearGradient3635">
      <stop
         id="stop3637"
         offset="0"
         style="stop-color:#003e8c;stop-opacity:1;" />
      <stop
         id="stop3639"
         offset="1"
         style="stop-color:#0062db;stop-opacity:1;" />
    </linearGradient>
    <filter
       inkscape:collect="always"
       id="filter3664"
       x="-0.094732401"
       width="1.1894648"
       y="-0.35855247"
       height="1.7171049">
      <feGaussianBlur
         inkscape:collect="always"
         stdDeviation="1.3898314"
         id="feGaussianBlur3666" />
    </filter>
  </defs>
  <sodipodi:namedview
     id="base"
     pagecolor="#ffffff"
     bordercolor="#666666"
     borderopacity="1.0"
     inkscape:pageopacity="0.0"
     inkscape:pageshadow="2"
     inkscape:zoom="1"
     inkscape:cx="24.147138"
     inkscape:cy="24"
     inkscape:document-units="px"
     inkscape:current-layer="layer1"
     showgrid="false"
     inkscape:window-width="1016"
     inkscape:window-height="753"
     inkscape:window-x="623"
     inkscape:window-y="53"
     inkscape:window-maximized="0">
    <inkscape:grid
       type="xygrid"
       id="grid2837"
       empspacing="5"
       visible="true"
       enabled="true"
       snapvisiblegridlinesonly="true" />
  </sodipodi:namedview>
  <metadata
     id="metadata7">
    <rdf:RDF>
      <cc:Work
         rdf:about="">
        <dc:format>image/svg+xml</dc:format>
        <dc:type
           rdf:resource="http://purl.org/dc/dcmitype/StillImage" />
        <dc:title />
      </cc:Work>
    </rdf:RDF>
  </metadata>
  <g
     inkscape:label="Layer 1"
     inkscape:groupmode="layer"
     id="layer1"
     transform="translate(0,-1004.3622)">
    <path
       sodipodi:type="arc"
       style="fill:#000000;fill-opacity:0.76862744999999999;stroke:none;filter:url(#filter3664)"
       id="path2864"
       sodipodi:cx="23.394644"
       sodipodi:cy="38.348526"
       sodipodi:rx="17.605356"
       sodipodi:ry="4.6514745"
       d="m 41,38.348526 a 17.605356,4.6514745 0 1 1 -35.2107124,0 17.605356,4.6514745 0 1 1 35.2107124,0 z"
       transform="matrix(0.99507007,0,0,0.85397205,1.7530685,1009.7495)" />
    <path
       sodipodi:nodetypes="csssc"
       id="path3658"
       d="m 43.538301,1032.7871 c 0.427738,3.3202 -3.689392,9.2902 -17.193574,11.9204 -13.225691,2.576 -18.7955053,-1.7844 -19.3846904,-5.0798 -0.9093435,-5.0861 8.2883814,-4.1863 18.4778524,-5.499 10.189471,-1.3127 17.351603,-9.6384 18.100412,-1.3416 z"
       style="fill:url(#linearGradient3747);fill-opacity:1;stroke:none" />
    <path
       style="fill:url(#radialGradient3662);fill-opacity:1;stroke:none"
       d="m 43.056696,1032.145 c 0.427738,3.3202 -3.689392,9.2901 -17.193575,11.9204 -13.22569,2.576 -18.7955046,-1.7844 -19.3846897,-5.0798 -0.9093435,-5.0862 8.2883817,-4.1864 18.4778527,-5.4991 10.189471,-1.3126 17.351602,-9.6384 18.100412,-1.3415 z"
       id="path3654"
       sodipodi:nodetypes="csssc" />
    <path
       style="fill:url(#linearGradient3666);fill-opacity:1;stroke:none"
       d="m 33.340977,1035.874 c 0.273169,2.1204 -2.356307,3.9503 -8.010769,4.6788 -5.654461,0.7284 -8.68626,-0.5624 -8.989231,-2.6788 -1.108266,-7.7417 -3.363288,-14.7209 -7.1903402,-21.5563 l 23.6644682,-3.2368 c -1.005611,8.5593 -0.159217,15.3609 0.525872,22.7931 z"
       id="path3652"
       sodipodi:nodetypes="cssccc" />
    <path
       style="fill:url(#linearGradient3715);fill-opacity:1;stroke:none"
       d="m 11.454838,1016.6786 c 2.843639,5.8596 5.071705,11.8075 6.501673,17.667 l 2.030111,-0.08 c -1.600353,-6.0623 -3.333085,-11.9923 -5.63403,-17.354 l -2.897754,-0.2327 z"
       id="path3702"
       sodipodi:nodetypes="ccccc" />
    <path
       style="fill:url(#linearGradient3717);stroke:none"
       d="m 17.491147,1017.6418 c 2.640607,6.2911 3.593807,11.4572 4.896321,16.8562 l 2.375544,-0.3211 c -1.401493,-5.5652 -2.5375,-11.3072 -3.258487,-16.8724 l -4.013378,0.3373 z"
       id="path3704"
       sodipodi:nodetypes="ccccc" />
    <path
       style="fill:url(#linearGradient3719);stroke:none"
       d="m 23.815103,1017.4894 c 1.78127,5.4555 2.365877,10.911 3.267547,16.3665 l 2.665071,-0.9074 c -1.002067,-5.5086 -2.481139,-10.7653 -2.601045,-16.4944 l -3.331573,1.0353 z"
       id="path3706"
       sodipodi:nodetypes="ccccc" />
    <path
       style="fill:url(#linearGradient3721);stroke:none"
       d="m 32.8125,1013.2385 -2.71875,2 c -0.07571,5.9128 0.853131,11.3234 1.6875,16.7812 l 1.125,-0.9687 c -0.509651,-5.6259 -0.854192,-11.206 -0.09375,-17.8125 z"
       id="path3708"
       sodipodi:nodetypes="ccccc" />
    <path
       style="fill:url(#linearGradient3723);fill-opacity:1;stroke:none"
       d="m 32.78125,1029.8322 c -5.548221,2.6876 -12.455175,3.8234 -17.46875,2.5 0.414065,1.81 0.760389,3.6392 1.03125,5.5313 0.302971,2.1164 3.345539,3.4159 9,2.6875 5.654462,-0.7285 8.273169,-2.5671 8,-4.6875 -0.188821,-2.0484 -0.391325,-4.0287 -0.5625,-6.0313 z"
       id="path3672" />
    <path
       style="fill:url(#radialGradient3696);fill-opacity:1;stroke:none"
       d="m 18.09375,1033.4885 -0.59375,2.125 -1.53125,0.094 c 0.03139,0.1769 0.06369,0.3535 0.09375,0.5313 l 1.09375,0.7187 -0.5,1.75 c 0.03732,0.064 0.08118,0.1257 0.125,0.1875 l 1.53125,-1.1875 1.84375,1.2188 -0.78125,-2.0938 1.71875,-1.375 -2.21875,0.094 -0.78125,-2.0625 z"
       id="path3682" />
    <path
       transform="matrix(0.81592362,0.03399986,-0.03399986,0.81592362,11.40827,1020.4018)"
       d="m 20.869564,21.993311 -2.388484,-1.316391 -1.981874,1.873478 0.51388,-2.678371 -2.394217,-1.305936 2.70608,-0.338934 0.502166,-2.680592 1.15857,2.468898 2.704572,-0.35076 -1.990044,1.864797 1.169351,2.463811 z"
       inkscape:randomized="0"
       inkscape:rounded="0"
       inkscape:flatsided="false"
       sodipodi:arg2="1.4440105"
       sodipodi:arg1="0.81569192"
       sodipodi:r2="1.4241374"
       sodipodi:r1="3.74773"
       sodipodi:cy="19.264214"
       sodipodi:cx="18.301003"
       sodipodi:sides="5"
       id="path3684"
       style="fill:url(#radialGradient3698);fill-opacity:1;stroke:none"
       sodipodi:type="star" />
    <path
       style="fill:url(#radialGradient3700);fill-opacity:1;stroke:none"
       d="m 30.65625,1031.3635 0.03125,2.2187 -2.125,0.6875 2.125,0.6875 0,2.2188 1.3125,-1.8125 1.34375,0.4375 c -0.02844,-0.3079 -0.06486,-0.6011 -0.09375,-0.9063 l -0.46875,-0.625 0.375,-0.5 c -0.03099,-0.3232 -0.06304,-0.647 -0.09375,-0.9687 l -1.0625,0.3437 -1.34375,-1.7812 z"
       id="path3686" />
    <path
       sodipodi:type="arc"
       style="fill:url(#radialGradient3660);fill-opacity:1;stroke:none"
       id="path2878"
       sodipodi:cx="17.5"
       sodipodi:cy="18"
       sodipodi:rx="7.5"
       sodipodi:ry="5"
       d="m 25,18 c 0,2.761424 -3.357864,5 -7.5,5 -4.142136,0 -7.5,-2.238576 -7.5,-5 0,-2.761424 3.357864,-5 7.5,-5 4.142136,0 7.5,2.238576 7.5,5 z"
       transform="matrix(1.5868858,-0.20443447,0.11499439,0.89262326,-8.9244516,1001.8475)" />
    <path
       style="fill:#ffffff;fill-opacity:0.63114756;stroke:none;filter:url(#filter3729)"
       d="m 20.594485,1010.4916 c -10.572754,2.4246 -10.384793,5.4841 -7.51301,7.7782 -9.4186846,-3.734 4.761834,-8.4563 7.51301,-7.7782 z"
       id="path3725"
       sodipodi:nodetypes="ccc" />
    <path
       sodipodi:nodetypes="ccc"
       id="path3727"
       d="m 21.383629,1018.0274 c 10.5728,-2.4246 10.3848,-5.484 7.513,-7.7781 9.4187,3.734 -4.7618,8.4563 -7.513,7.7781 z"
       style="fill:#ffffff;fill-opacity:0.63114756;stroke:none;filter:url(#filter3733)" />
    <path
       style="fill:#ffffff;fill-opacity:0.65983605;stroke:none;filter:url(#filter3743)"
       d="m 14.584077,1035.2403 c -3.50646,0.8808 -9.6421689,1.3166 -3.977475,7.6014 -0.466241,0.212 -9.71097524,-7.1675 3.977475,-7.6014 z"
       id="path3737"
       sodipodi:nodetypes="ccc" />
    <path
       style="fill:#ffffff;fill-opacity:0.81147539;stroke:none;filter:url(#filter3765)"
       d="m 15.733126,1019.4188 c -1.700375,-0.4964 -3.216288,-0.2551 -5.126524,-1.591 l 3.093592,7.1595 c -0.670085,-2.5997 -3.669411,-6.4846 2.032932,-5.5685 z"
       id="path3749"
       sodipodi:nodetypes="cccc" />
    <path
       style="fill:#ffffff;fill-opacity:0.82786889;stroke:none;filter:url(#filter3757)"
       d="m 15.733126,1032.9422 0.795495,3.7124 c -0.494101,-2.2324 0.170026,-3.3066 2.032932,-3.182 l -2.828427,-0.5304 z"
       id="path3751"
       sodipodi:nodetypes="cccc" />
  </g>
</svg>
