<?xml version="1.0" encoding="UTF-8" standalone="no"?>
<!-- Created with Inkscape (http://www.inkscape.org/) -->

<svg
   xmlns:dc="http://purl.org/dc/elements/1.1/"
   xmlns:cc="http://creativecommons.org/ns#"
   xmlns:rdf="http://www.w3.org/1999/02/22-rdf-syntax-ns#"
   xmlns:svg="http://www.w3.org/2000/svg"
   xmlns="http://www.w3.org/2000/svg"
   xmlns:xlink="http://www.w3.org/1999/xlink"
   xmlns:sodipodi="http://sodipodi.sourceforge.net/DTD/sodipodi-0.dtd"
   xmlns:inkscape="http://www.inkscape.org/namespaces/inkscape"
   id="svg1"
   sodipodi:version="0.32"
   inkscape:version="0.47 r22583"
   width="48"
   height="48"
   sodipodi:docname="kwanzaa03.svg"
   version="1.1"
   inkscape:export-filename="kwanzaa03.png"
   inkscape:export-xdpi="89.949997"
   inkscape:export-ydpi="89.949997">
  <defs
     id="defs3">
    <linearGradient
       id="linearGradient3764">
      <stop
         style="stop-color:#7ed249;stop-opacity:1;"
         offset="0"
         id="stop3766" />
      <stop
         style="stop-color:#286325;stop-opacity:1;"
         offset="1"
         id="stop3768" />
    </linearGradient>
    <linearGradient
       id="linearGradient3689">
      <stop
         id="stop3691"
         offset="0"
         style="stop-color:#ffea00;stop-opacity:1;" />
      <stop
         id="stop3693"
         offset="1"
         style="stop-color:#ffffa4;stop-opacity:1;" />
    </linearGradient>
    <linearGradient
       inkscape:collect="always"
       xlink:href="#linearGradient3764"
       id="linearGradient3928"
       x1="37.642105"
       y1="29.110527"
       x2="8.0209322"
       y2="18.921053"
       gradientUnits="userSpaceOnUse" />
    <linearGradient
       inkscape:collect="always"
       xlink:href="#linearGradient3764"
       id="linearGradient3930"
       x1="25.210526"
       y1="19.494738"
       x2="16.705263"
       y2="8.3789482"
       gradientUnits="userSpaceOnUse" />
    <linearGradient
       inkscape:collect="always"
       xlink:href="#linearGradient3689"
       id="linearGradient3934"
       x1="20.442204"
       y1="19.597416"
       x2="23.967201"
       y2="22.904236"
       gradientUnits="userSpaceOnUse" />
    <linearGradient
       inkscape:collect="always"
       xlink:href="#linearGradient3689"
       id="linearGradient3936"
       x1="22.283895"
       y1="22.443132"
       x2="26.600002"
       y2="25.788555"
       gradientUnits="userSpaceOnUse" />
    <linearGradient
       inkscape:collect="always"
       xlink:href="#linearGradient3689"
       id="linearGradient3939"
       x1="29.224337"
       y1="19.729414"
       x2="33.54459"
       y2="22.766251"
       gradientUnits="userSpaceOnUse" />
    <linearGradient
       inkscape:collect="always"
       xlink:href="#linearGradient3689"
       id="linearGradient3941"
       x1="31.535383"
       y1="19.410738"
       x2="39.021054"
       y2="23.578947"
       gradientUnits="userSpaceOnUse" />
    <linearGradient
       inkscape:collect="always"
       xlink:href="#linearGradient3689"
       id="linearGradient3943"
       x1="28.888666"
       y1="15.630229"
       x2="27.826988"
       y2="18.697958"
       gradientUnits="userSpaceOnUse" />
    <linearGradient
       inkscape:collect="always"
       xlink:href="#linearGradient3689"
       id="linearGradient3945"
       x1="31.817335"
       y1="13.092369"
       x2="29.673685"
       y2="15.490002"
       gradientUnits="userSpaceOnUse" />
    <linearGradient
       inkscape:collect="always"
       xlink:href="#linearGradient3689"
       id="linearGradient3947"
       x1="34.810528"
       y1="9.3028965"
       x2="33.14222"
       y2="11.700529"
       gradientUnits="userSpaceOnUse" />
    <linearGradient
       inkscape:collect="always"
       xlink:href="#linearGradient3689"
       id="linearGradient3949"
       x1="25.884211"
       y1="20.833647"
       x2="25.884211"
       y2="22.457804"
       gradientUnits="userSpaceOnUse" />
    <linearGradient
       inkscape:collect="always"
       xlink:href="#linearGradient3689"
       id="linearGradient3951"
       x1="22.686962"
       y1="24.598488"
       x2="21.01968"
       y2="28.090641"
       gradientUnits="userSpaceOnUse" />
    <linearGradient
       inkscape:collect="always"
       xlink:href="#linearGradient3689"
       id="linearGradient3953"
       x1="19.349945"
       y1="27.312513"
       x2="18.258112"
       y2="30.288183"
       gradientUnits="userSpaceOnUse" />
    <linearGradient
       inkscape:collect="always"
       xlink:href="#linearGradient3689"
       id="linearGradient3955"
       x1="17.63158"
       y1="33.218684"
       x2="15.962242"
       y2="35.616318"
       gradientUnits="userSpaceOnUse" />
    <filter
       inkscape:collect="always"
       id="filter6505">
      <feGaussianBlur
         inkscape:collect="always"
         stdDeviation="0.061108912"
         id="feGaussianBlur6507" />
    </filter>
    <filter
       inkscape:collect="always"
       id="filter6509">
      <feGaussianBlur
         inkscape:collect="always"
         stdDeviation="0.061108912"
         id="feGaussianBlur6511" />
    </filter>
    <filter
       inkscape:collect="always"
       id="filter6513">
      <feGaussianBlur
         inkscape:collect="always"
         stdDeviation="0.061108912"
         id="feGaussianBlur6515" />
    </filter>
    <filter
       inkscape:collect="always"
       id="filter6517">
      <feGaussianBlur
         inkscape:collect="always"
         stdDeviation="0.061108912"
         id="feGaussianBlur6519" />
    </filter>
    <filter
       inkscape:collect="always"
       id="filter6521">
      <feGaussianBlur
         inkscape:collect="always"
         stdDeviation="0.061108912"
         id="feGaussianBlur6523" />
    </filter>
    <filter
       inkscape:collect="always"
       id="filter6525">
      <feGaussianBlur
         inkscape:collect="always"
         stdDeviation="0.061108912"
         id="feGaussianBlur6527" />
    </filter>
    <filter
       inkscape:collect="always"
       id="filter6529">
      <feGaussianBlur
         inkscape:collect="always"
         stdDeviation="0.061108912"
         id="feGaussianBlur6531" />
    </filter>
    <filter
       inkscape:collect="always"
       id="filter6533">
      <feGaussianBlur
         inkscape:collect="always"
         stdDeviation="0.061108912"
         id="feGaussianBlur6535" />
    </filter>
    <filter
       inkscape:collect="always"
       id="filter6537">
      <feGaussianBlur
         inkscape:collect="always"
         stdDeviation="0.061108912"
         id="feGaussianBlur6539" />
    </filter>
    <filter
       inkscape:collect="always"
       id="filter6541">
      <feGaussianBlur
         inkscape:collect="always"
         stdDeviation="0.061108912"
         id="feGaussianBlur6543" />
    </filter>
    <filter
       inkscape:collect="always"
       id="filter6545">
      <feGaussianBlur
         inkscape:collect="always"
         stdDeviation="0.061108912"
         id="feGaussianBlur6547" />
    </filter>
    <filter
       inkscape:collect="always"
       id="filter6549">
      <feGaussianBlur
         inkscape:collect="always"
         stdDeviation="0.061108912"
         id="feGaussianBlur6551" />
    </filter>
    <filter
       inkscape:collect="always"
       id="filter6553">
      <feGaussianBlur
         inkscape:collect="always"
         stdDeviation="0.061108912"
         id="feGaussianBlur6555" />
    </filter>
    <filter
       inkscape:collect="always"
       id="filter6557">
      <feGaussianBlur
         inkscape:collect="always"
         stdDeviation="0.061108912"
         id="feGaussianBlur6559" />
    </filter>
    <filter
       inkscape:collect="always"
       id="filter6561">
      <feGaussianBlur
         inkscape:collect="always"
         stdDeviation="0.061108912"
         id="feGaussianBlur6563" />
    </filter>
    <filter
       inkscape:collect="always"
       id="filter6565">
      <feGaussianBlur
         inkscape:collect="always"
         stdDeviation="0.061108912"
         id="feGaussianBlur6567" />
    </filter>
    <filter
       inkscape:collect="always"
       id="filter6569">
      <feGaussianBlur
         inkscape:collect="always"
         stdDeviation="0.061108912"
         id="feGaussianBlur6571" />
    </filter>
    <filter
       inkscape:collect="always"
       id="filter6573">
      <feGaussianBlur
         inkscape:collect="always"
         stdDeviation="0.061108912"
         id="feGaussianBlur6575" />
    </filter>
    <filter
       inkscape:collect="always"
       id="filter6577">
      <feGaussianBlur
         inkscape:collect="always"
         stdDeviation="0.061108912"
         id="feGaussianBlur6579" />
    </filter>
    <filter
       inkscape:collect="always"
       id="filter6581">
      <feGaussianBlur
         inkscape:collect="always"
         stdDeviation="0.061108912"
         id="feGaussianBlur6583" />
    </filter>
    <filter
       inkscape:collect="always"
       id="filter6585">
      <feGaussianBlur
         inkscape:collect="always"
         stdDeviation="0.061108912"
         id="feGaussianBlur6587" />
    </filter>
    <filter
       inkscape:collect="always"
       id="filter6589">
      <feGaussianBlur
         inkscape:collect="always"
         stdDeviation="0.061108912"
         id="feGaussianBlur6591" />
    </filter>
    <filter
       inkscape:collect="always"
       id="filter6593">
      <feGaussianBlur
         inkscape:collect="always"
         stdDeviation="0.061108912"
         id="feGaussianBlur6595" />
    </filter>
    <filter
       inkscape:collect="always"
       id="filter6597">
      <feGaussianBlur
         inkscape:collect="always"
         stdDeviation="0.061108912"
         id="feGaussianBlur6599" />
    </filter>
    <filter
       inkscape:collect="always"
       id="filter6601">
      <feGaussianBlur
         inkscape:collect="always"
         stdDeviation="0.061108912"
         id="feGaussianBlur6603" />
    </filter>
    <filter
       inkscape:collect="always"
       id="filter6605">
      <feGaussianBlur
         inkscape:collect="always"
         stdDeviation="0.061108912"
         id="feGaussianBlur6607" />
    </filter>
    <filter
       inkscape:collect="always"
       id="filter6637"
       x="-0.2309784"
       width="1.4619568"
       y="-0.11738247"
       height="1.2347649">
      <feGaussianBlur
         inkscape:collect="always"
         stdDeviation="0.17765328"
         id="feGaussianBlur6639" />
    </filter>
    <filter
       inkscape:collect="always"
       id="filter6641"
       x="-0.38709432"
       width="1.7741886"
       y="-0.055079464"
       height="1.1101589">
      <feGaussianBlur
         inkscape:collect="always"
         stdDeviation="0.17765328"
         id="feGaussianBlur6643" />
    </filter>
    <filter
       inkscape:collect="always"
       id="filter3730"
       x="-0.10612256"
       width="1.2122451"
       y="-0.43693985"
       height="1.8738797">
      <feGaussianBlur
         inkscape:collect="always"
         stdDeviation="1.0556984"
         id="feGaussianBlur3732" />
    </filter>
    <linearGradient
       id="linearGradient3669">
      <stop
         style="stop-color:#ffd73b;stop-opacity:1;"
         offset="0"
         id="stop3671" />
      <stop
         style="stop-color:#ee8400;stop-opacity:1;"
         offset="1"
         id="stop3673" />
    </linearGradient>
    <linearGradient
       inkscape:collect="always"
       xlink:href="#linearGradient3669"
       id="linearGradient3061"
       gradientUnits="userSpaceOnUse"
       x1="32.366833"
       y1="21.633974"
       x2="14.92059"
       y2="3.5751932" />
    <filter
       inkscape:collect="always"
       id="filter3841"
       x="-0.11900826"
       width="1.2380165"
       y="-0.07140496"
       height="1.1428099">
      <feGaussianBlur
         inkscape:collect="always"
         stdDeviation="0.28345784"
         id="feGaussianBlur3843" />
    </filter>
  </defs>
  <sodipodi:namedview
     id="base"
     pagecolor="#ffffff"
     bordercolor="#666666"
     borderopacity="1.0"
     inkscape:pageopacity="0.0"
     inkscape:pageshadow="2"
     inkscape:zoom="1"
     inkscape:cx="21.85635"
     inkscape:cy="33.527333"
     inkscape:window-width="1153"
     inkscape:window-height="793"
     inkscape:window-x="494"
     inkscape:window-y="33"
     showgrid="false"
     inkscape:window-maximized="0"
     inkscape:current-layer="svg1">
    <inkscape:grid
       type="xygrid"
       id="grid2861" />
  </sodipodi:namedview>
  <metadata
     id="metadata4">
    <rdf:RDF>
      <cc:Work
         rdf:about="">
        <dc:format>image/svg+xml</dc:format>
        <dc:type
           rdf:resource="http://purl.org/dc/dcmitype/StillImage" />
        <dc:title />
      </cc:Work>
    </rdf:RDF>
  </metadata>
  <path
     style="fill:#000000;fill-opacity:0.76862745;fill-rule:evenodd;stroke:none;filter:url(#filter3730)"
     d="m 23.80296,36.55296 c -4.477056,0 -8.124411,1.015543 -8.40625,2.3125 l -2,-1.0625 -3.21875,1.28125 c 0.529615,1.331374 1.528623,2.658071 5.411513,3.267434 L 16.95921,40.49046 c 1.531941,0.626904 4.020054,1.03125 6.84375,1.03125 4.660798,0 10.25,-0.940508 10.25,-2.3125 0,-1.371991 -5.589202,-2.65625 -10.25,-2.65625 z"
     id="path2950"
     sodipodi:nodetypes="ccccccssc" />
  <path
     style="color:#000000;fill:url(#linearGradient3930);stroke:none;stroke-width:1px;marker:none;visibility:visible;display:inline;overflow:visible;enable-background:accumulate"
     d="M 16.705264,25.51579 C 18.578642,13.855379 25.959045,10.79299 25.800001,3.7052632 32.761722,11.731756 23.9546,17.850349 21.757896,25.178948 l -5.052632,0.336842 z"
     id="path2924"
     sodipodi:nodetypes="cccc" />
  <path
     style="fill:url(#linearGradient3061);fill-rule:evenodd;stroke:none"
     d="m 37.357896,6 c 4.073684,2.5789474 1.586866,11.154513 -3.775029,19.366424 -5.361894,8.21191 -8.4368,15.699368 -16.067411,10.717028 C 12.42838,32.761891 15.503286,25.274433 20.865181,17.062523 26.227075,8.8506127 34.052633,4.0947369 37.357896,6 z"
     id="path2919"
     sodipodi:nodetypes="csssc" />
  <path
     style="color:#000000;fill:url(#linearGradient3934);stroke:none;stroke-width:1px;marker:none;visibility:visible;display:inline;overflow:visible;enable-background:accumulate"
     d="M 16.621054,26.357895 C 22.366631,19.578121 26.20674,11.556147 35.400001,5.8105263 25.326862,11.664937 22.654447,19.339952 16.452633,26.105263 l 0.168421,0.252632 z"
     id="path2926"
     sodipodi:nodetypes="cccc" />
  <path
     style="color:#000000;fill:url(#linearGradient3936);stroke:none;stroke-width:1px;marker:none;visibility:visible;display:inline;overflow:visible;enable-background:accumulate"
     d="M 16.031581,30.736842 C 23.161381,22.87717 27.29488,12.94751 37.168422,6.6526316 25.778475,15.861314 23.245615,23.101755 16.284212,31.326316 l -0.252631,-0.589474 z"
     id="path2928"
     sodipodi:nodetypes="cccc" />
  <path
     style="color:#000000;fill:url(#linearGradient3939);stroke:none;stroke-width:1px;marker:none;visibility:visible;display:inline;overflow:visible;enable-background:accumulate"
     d="M 16.957896,35.2 C 20.242107,32.336842 37.613434,8.4505007 38.010528,7.4947368 35.731355,11.492822 25.65965,26.021053 17.210528,35.536842 L 16.957896,35.2 z"
     id="path2930"
     sodipodi:nodetypes="cccc" />
  <path
     style="color:#000000;fill:url(#linearGradient3941);stroke:none;stroke-width:1px;marker:none;visibility:visible;display:inline;overflow:visible;enable-background:accumulate"
     d="M 20.578949,36.378948 C 23.717663,33.492406 36.67288,14.83405 39.021054,10.357895 34.898583,19.42469 27.174985,27.761706 20.83158,36.8 l -0.252631,-0.421052 z"
     id="path2932"
     sodipodi:nodetypes="cccc" />
  <path
     style="color:#000000;fill:url(#linearGradient3955);stroke:none;stroke-width:1px;marker:none;visibility:visible;display:inline;overflow:visible;enable-background:accumulate"
     d="m 17.63158,30.821052 c 1.427077,2.166307 3.487627,3.441136 6.905263,4.715789 -0.274215,0.54843 -5.869507,-1.818879 -6.905263,-4.715789 z"
     id="path2946"
     sodipodi:nodetypes="ccc" />
  <path
     style="color:#000000;fill:url(#linearGradient3943);stroke:none;stroke-width:1px;marker:none;visibility:visible;display:inline;overflow:visible;enable-background:accumulate"
     d="m 24.125,12.5625 c 2.354665,3.807758 8.448088,6.506723 12.8125,6.09375 C 31.854297,18.001104 27.246045,16.682443 24.125,12.5625 z"
     id="path2948"
     sodipodi:nodetypes="ccc" />
  <path
     style="color:#000000;fill:url(#linearGradient3951);stroke:none;stroke-width:1px;marker:none;visibility:visible;display:inline;overflow:visible;enable-background:accumulate;fill-opacity:1"
     d="m 19.31579,21.473684 c 1.427077,2.166307 6.266574,5.293768 9.68421,6.568421 -0.274215,0.54843 -8.648454,-3.671511 -9.68421,-6.568421 z"
     id="path2942"
     sodipodi:nodetypes="ccc" />
  <path
     sodipodi:nodetypes="ccc"
     id="path2944"
     d="m 16.789474,24.336842 c 1.427077,2.166307 5.256048,4.620083 8.673684,5.894736 -0.274215,0.54843 -7.637928,-2.997826 -8.673684,-5.894736 z"
     style="color:#000000;fill:url(#linearGradient3953);stroke:none;stroke-width:1px;marker:none;visibility:visible;display:inline;overflow:visible;enable-background:accumulate" />
  <path
     style="color:#000000;fill:url(#linearGradient3928);stroke:none;stroke-width:1px;marker:none;visibility:visible;display:inline;overflow:visible;enable-background:accumulate"
     d="m 10.357896,38 c 1.583344,-1.306333 3.81288,-2.701662 4.675832,-5.046785 0.15436,-0.419482 -1.478931,-3.502282 -0.911495,-5.516561 0.889905,-3.158982 2.228538,-10.242503 1.667242,-11.836654 3.490591,7.204394 1.891082,8.991818 1.427449,12.95796 -0.345517,2.955683 -0.668187,6.663432 0.214656,7.273619 8.198952,-2.657263 11.524259,-9.901112 16.881055,-16.62555 5.126427,-6.435255 7.066147,-2.347298 11.234735,-9.5533974 0.349125,4.5812444 -2.208403,5.6510604 -7.645966,11.1597664 -4.406883,4.464541 -4.282743,10.328174 -8.206666,14.682339 -3.408098,2.993784 -7.818833,3.279619 -11.673684,2.252631 -1.865358,0.635433 -1.804806,2.811594 -2.663158,4.252632 -2.390522,-0.373645 -4.794561,-1.388092 -5,-4 z"
     id="path2922"
     sodipodi:nodetypes="csscscscscccc" />
  <path
     style="color:#000000;fill:url(#linearGradient3947);stroke:none;stroke-width:1px;marker:none;visibility:visible;display:inline;overflow:visible;enable-background:accumulate"
     d="m 31.357896,6.9052632 c 1.427077,2.1663075 3.487627,3.4411368 6.905263,4.7157898 -0.274215,0.54843 -5.869507,-1.8188793 -6.905263,-4.7157898 z"
     id="path2934"
     sodipodi:nodetypes="ccc" />
  <path
     sodipodi:nodetypes="ccc"
     id="path2936"
     d="m 29.673685,10.694737 c 1.427077,2.166307 3.487627,3.441136 6.905263,4.715789 -0.274215,0.54843 -5.869507,-1.818879 -6.905263,-4.715789 z"
     style="color:#000000;fill:url(#linearGradient3945);stroke:none;stroke-width:1px;marker:none;visibility:visible;display:inline;overflow:visible;enable-background:accumulate" />
  <path
     sodipodi:nodetypes="ccc"
     id="path2940"
     d="m 21.421053,16.589474 c 1.427077,2.166307 5.50868,4.535873 8.926316,5.810526 -0.274215,0.54843 -7.89056,-2.913616 -8.926316,-5.810526 z"
     style="color:#000000;fill:url(#linearGradient3949);stroke:none;stroke-width:1px;marker:none;visibility:visible;display:inline;overflow:visible;enable-background:accumulate" />
  <path
     style="color:#000000;fill:#ffffff;stroke:none;stroke-width:1px;marker:none;visibility:visible;display:inline;overflow:visible;enable-background:accumulate;filter:url(#filter6529);fill-opacity:0.47555557"
     d="m 21.585365,23.437344 c -0.833643,-0.625232 -1.4291,-1.280236 -1.4291,-1.280236 l 2.530698,-3.304794 c -1.209636,1.949226 -2.821087,3.353923 -1.101598,4.58503 z"
     id="path3957"
     sodipodi:nodetypes="cccc" />
  <path
     sodipodi:nodetypes="cccc"
     id="path3959"
     d="M 20.096719,21.56165 C 19.50126,21.472331 19.08444,20.102777 19.08444,20.102777 l 2.024559,-3.096384 c -1.239409,2.18741 -2.195856,3.53256 -1.01228,4.555257 z"
     style="color:#000000;fill:#ffffff;stroke:none;stroke-width:1px;marker:none;visibility:visible;display:inline;overflow:visible;enable-background:accumulate;filter:url(#filter6525);fill-opacity:0.47555557" />
  <path
     style="color:#000000;fill:#ffffff;stroke:none;stroke-width:1px;marker:none;visibility:visible;display:inline;overflow:visible;enable-background:accumulate;filter:url(#filter6549);fill-opacity:0.47555557"
     d="m 24.384019,19.269135 c -0.178638,-0.416821 -1.310008,-1.190917 -1.310008,-1.190917 l 2.530698,-3.304794 c -1.834867,2.812641 -2.434039,2.937102 -1.22069,4.495711 z"
     id="path3961"
     sodipodi:nodetypes="cccc" />
  <path
     sodipodi:nodetypes="cccc"
     id="path3963"
     d="M 22.597644,17.720943 C 22.419006,17.304122 21.615138,16.26207 21.615138,16.26207 l 2.113877,-2.887974 c -1.819922,2.492495 -1.790015,2.745161 -1.131371,4.346847 z"
     style="color:#000000;fill:#ffffff;stroke:none;stroke-width:1px;marker:none;visibility:visible;display:inline;overflow:visible;enable-background:accumulate;filter:url(#filter6553);fill-opacity:0.47555557" />
  <path
     style="color:#000000;fill:#ffffff;stroke:none;stroke-width:1px;marker:none;visibility:visible;display:inline;overflow:visible;enable-background:accumulate;filter:url(#filter6521);fill-opacity:0.47555557"
     d="m 19.143986,26.384862 c -0.416821,-0.148865 -1.310008,-1.190917 -1.310008,-1.190917 l 1.905467,-2.590244 c -1.298955,2.008772 -1.9279,2.669146 -0.595459,3.781161 z"
     id="path3965"
     sodipodi:nodetypes="cccc" />
  <path
     sodipodi:nodetypes="cccc"
     id="path3967"
     d="m 21.376954,28.171237 c -0.701886,-0.43393 -1.25275,-0.895476 -1.548191,-1.190917 l 1.756602,-2.381834 c -1.619102,2.049754 -1.422303,2.907601 -0.208411,3.572751 z"
     style="color:#000000;fill:#ffffff;stroke:none;stroke-width:1px;marker:none;visibility:visible;display:inline;overflow:visible;enable-background:accumulate;filter:url(#filter6517);fill-opacity:0.47555557" />
  <path
     style="color:#000000;fill:#ffffff;stroke:none;stroke-width:1px;marker:none;visibility:visible;display:inline;overflow:visible;enable-background:accumulate;filter:url(#filter6513);fill-opacity:0.47555557"
     d="m 24.711521,29.898066 c -1.131372,-0.565686 -1.63751,-1.101598 -1.63751,-1.101598 l 1.63751,-2.173424 c -1.314063,1.842748 -1.549037,2.372046 0,3.275022 z"
     id="path3969"
     sodipodi:nodetypes="cccc" />
  <path
     sodipodi:nodetypes="cccc"
     id="path3971"
     d="M 21.168543,34.006728 C 20.63263,33.470815 19.858535,32.815811 19.858535,32.815811 l 2.590244,-3.334567 c -1.298955,1.859907 -2.731769,3.234831 -1.280236,4.525484 z"
     style="color:#000000;fill:#ffffff;stroke:none;stroke-width:1px;marker:none;visibility:visible;display:inline;overflow:visible;enable-background:accumulate;filter:url(#filter6505);fill-opacity:0.47555557" />
  <path
     style="color:#000000;fill:#ffffff;stroke:none;stroke-width:1px;marker:none;visibility:visible;display:inline;overflow:visible;enable-background:accumulate;filter:url(#filter6509);fill-opacity:0.47555557"
     d="m 18.488981,32.041716 c -0.178638,-0.416821 -0.982506,-1.72683 -0.982506,-1.72683 l 1.965013,-2.768881 c -1.328728,2.068317 -1.838581,2.639372 -0.982507,4.495711 z"
     id="path3973"
     sodipodi:nodetypes="cccc" />
  <path
     sodipodi:nodetypes="cccc"
     id="path3975"
     d="m 23.818334,25.193946 c -0.684778,-0.267957 -1.667283,-1.310009 -1.667283,-1.310009 l 2.232969,-3.36434 c -1.418047,2.366047 -2.166083,3.621879 -0.565686,4.674349 z"
     style="color:#000000;fill:#ffffff;stroke:none;stroke-width:1px;marker:none;visibility:visible;display:inline;overflow:visible;enable-background:accumulate;filter:url(#filter6533);fill-opacity:0.47555557" />
  <path
     style="color:#000000;fill:#ffffff;stroke:none;stroke-width:1px;marker:none;visibility:visible;display:inline;overflow:visible;enable-background:accumulate;filter:url(#filter6537);fill-opacity:0.47555557"
     d="m 26.884944,26.950548 c -0.744323,-0.446594 -1.63751,-0.952734 -1.63751,-0.952734 l 2.530698,-3.304794 c -1.8535,2.351193 -2.404206,3.413387 -0.893188,4.257528 z"
     id="path3977"
     sodipodi:nodetypes="cccc" />
  <path
     sodipodi:nodetypes="cccc"
     id="path3979"
     d="m 27.004035,20.728008 c -0.684777,-0.476367 -1.905466,-1.161144 -1.905466,-1.161144 l 2.530698,-3.304794 c -1.596684,2.008772 -2.285175,3.205058 -0.625232,4.465938 z"
     style="color:#000000;fill:#ffffff;stroke:none;stroke-width:1px;marker:none;visibility:visible;display:inline;overflow:visible;enable-background:accumulate;filter:url(#filter6545);fill-opacity:0.47555557" />
  <path
     style="color:#000000;fill:#ffffff;stroke:none;stroke-width:1px;marker:none;visibility:visible;display:inline;overflow:visible;enable-background:accumulate;filter:url(#filter6541);fill-opacity:0.47555557"
     d="m 30.487467,22.2762 c -0.893188,-0.446594 -1.816148,-0.863415 -1.816148,-0.863415 l 2.530698,-3.304794 c -1.596684,2.008772 -2.225629,3.175285 -0.71455,4.168209 z"
     id="path3981"
     sodipodi:nodetypes="cccc" />
  <path
     sodipodi:nodetypes="cccc"
     id="path3983"
     d="m 33.37544,17.840035 c -0.695191,0.09973 -1.941621,-0.350894 -1.786375,-0.50614 l 1.93524,-2.64979 c -1.390004,2.132735 -2.440604,3.028765 -0.148865,3.15593 z"
     style="color:#000000;fill:#ffffff;stroke:none;stroke-width:1px;marker:none;visibility:visible;display:inline;overflow:visible;enable-background:accumulate;filter:url(#filter6569);fill-opacity:0.47555557" />
  <path
     style="color:#000000;fill:#ffffff;stroke:none;stroke-width:1px;marker:none;visibility:visible;display:inline;overflow:visible;enable-background:accumulate;filter:url(#filter6565);fill-opacity:0.47555557"
     d="m 29.832462,16.827756 c -0.714551,-0.267957 -1.697056,-0.982507 -1.697056,-0.982507 l 2.14365,-2.739109 c -1.716557,2.15262 -1.967704,2.889595 -0.446594,3.721616 z"
     id="path3985"
     sodipodi:nodetypes="cccc" />
  <path
     sodipodi:nodetypes="cccc"
     id="path3987"
     d="m 27.539947,15.607066 c -0.625231,-0.20841 -1.548191,-1.101598 -1.548191,-1.101598 l 2.679563,-3.185702 c -1.62475,2.014385 -2.788054,3.061495 -1.131372,4.2873 z"
     style="color:#000000;fill:#ffffff;stroke:none;stroke-width:1px;marker:none;visibility:visible;display:inline;overflow:visible;enable-background:accumulate;filter:url(#filter6561);fill-opacity:0.47555557" />
  <path
     style="color:#000000;fill:#ffffff;stroke:none;stroke-width:1px;marker:none;visibility:visible;display:inline;overflow:visible;enable-background:accumulate;filter:url(#filter6557);fill-opacity:0.47555557"
     d="m 25.574935,14.088648 c -0.178638,-0.416821 -1.101598,-1.280236 -1.101598,-1.280236 0.903112,-1.262676 1.806224,-2.026086 2.709336,-3.0070651 -1.74224,1.8996051 -2.814025,2.7786481 -1.607738,4.2873011 z"
     id="path3989"
     sodipodi:nodetypes="cccc" />
  <path
     sodipodi:nodetypes="cccc"
     id="path3991"
     d="m 29.564505,9.9502124 c -0.178638,-0.416821 -0.92296,-1.0420525 -0.92296,-1.0420525 0.66056,-0.5341652 1.387967,-1.0950692 2.441379,-1.7863755 -1.090544,0.9964931 -2.493585,1.3889103 -1.518419,2.828428 z"
     style="color:#000000;fill:#ffffff;stroke:none;stroke-width:1px;marker:none;visibility:visible;display:inline;overflow:visible;enable-background:accumulate;filter:url(#filter6589);fill-opacity:0.47555557" />
  <path
     style="color:#000000;fill:#ffffff;stroke:none;stroke-width:1px;marker:none;visibility:visible;display:inline;overflow:visible;enable-background:accumulate;filter:url(#filter6585);fill-opacity:0.47555557"
     d="M 30.666103,11.825906 C 30.487465,11.409085 29.683597,10.605216 29.683597,10.605216 30.388882,9.6835749 31.22954,9.0326779 32.005885,8.2531552 30.290109,10.410792 29.333662,10.29707 30.666103,11.825906 z"
     id="path3993"
     sodipodi:nodetypes="cccc" />
  <path
     sodipodi:nodetypes="cccc"
     id="path3995"
     d="m 32.601343,13.522962 c -0.178638,-0.416821 -1.310008,-1.190917 -1.310008,-1.190917 l 2.530698,-3.3047939 c -1.596684,2.0087719 -2.553131,3.2050579 -1.22069,4.4957109 z"
     style="color:#000000;fill:#ffffff;stroke:none;stroke-width:1px;marker:none;visibility:visible;display:inline;overflow:visible;enable-background:accumulate;filter:url(#filter6581);fill-opacity:0.47555557" />
  <path
     style="color:#000000;fill:#ffffff;stroke:none;stroke-width:1px;marker:none;visibility:visible;display:inline;overflow:visible;enable-background:accumulate;filter:url(#filter6577);fill-opacity:0.47555557"
     d="m 35.638181,14.952062 c -0.655005,-0.208411 -1.726829,-0.893188 -1.726829,-0.893188 l 2.024558,-2.887973 c -1.298954,2.157636 -2.225629,3.056193 -0.297729,3.781161 z"
     id="path3997"
     sodipodi:nodetypes="cccc" />
  <path
     sodipodi:nodetypes="cccc"
     id="path3999"
     d="m 37.692512,15.84525 c -0.684778,-0.357276 -0.982506,-0.625232 -0.982506,-0.625232 0.103099,-0.821694 0.766019,-1.829996 1.577965,-2.887973 -1.503212,2.712782 -1.770867,2.587923 -0.595459,3.513205 z"
     style="color:#000000;fill:#ffffff;stroke:none;stroke-width:1px;marker:none;visibility:visible;display:inline;overflow:visible;enable-background:accumulate;filter:url(#filter6573);fill-opacity:0.47555557" />
  <path
     style="color:#000000;fill:#ffffff;stroke:none;stroke-width:1px;marker:none;visibility:visible;display:inline;overflow:visible;enable-background:accumulate;filter:url(#filter6593);fill-opacity:0.47555557"
     d="M 37.216145,11.170902 C 36.799324,10.902945 36.233639,10.634989 36.233639,10.634989 L 37.841377,8.2531551 C 36.760919,9.6765555 36.213694,10.567514 37.216145,11.170902 z"
     id="path4001"
     sodipodi:nodetypes="cccc" />
  <path
     sodipodi:nodetypes="cccc"
     id="path4003"
     d="m 35.459543,10.33726 c -0.714551,-0.327502 -1.310008,-0.8931877 -1.310008,-0.8931877 0.203114,-0.3620515 1.51423,-1.3396596 2.35206,-2.0543318 -2.57919,2.008772 -2.106537,2.4011896 -1.042052,2.9475195 z"
     style="color:#000000;fill:#ffffff;stroke:none;stroke-width:1px;marker:none;visibility:visible;display:inline;overflow:visible;enable-background:accumulate;filter:url(#filter6597);fill-opacity:0.47555557" />
  <path
     style="color:#000000;fill:#ffffff;stroke:none;stroke-width:1px;marker:none;visibility:visible;display:inline;overflow:visible;enable-background:accumulate;filter:url(#filter6601);fill-opacity:0.47555557"
     d="M 33.256347,9.0272515 C 33.077709,8.7082449 32.482252,8.3542556 32.482252,8.0745181 32.926529,7.586325 33.899184,6.9660376 34.625902,6.4072342 32.820808,7.6419104 32.549138,8.0641009 33.256347,9.0272515 z"
     id="path4005"
     sodipodi:nodetypes="cccc" />
  <path
     sodipodi:nodetypes="cccc"
     id="path4007"
     d="M 32.095203,7.776789 C 31.916565,7.359968 31.589064,6.9729202 31.589064,6.9729202 32.100661,6.5928195 32.876718,6.3498223 34.00067,5.9010947 32.225349,6.8082688 31.447539,6.7540925 32.095203,7.776789 z"
     style="color:#000000;fill:#ffffff;stroke:none;stroke-width:1px;marker:none;visibility:visible;display:inline;overflow:visible;enable-background:accumulate;filter:url(#filter6605);fill-opacity:0.47555557" />
  <path
     style="color:#000000;fill:#ffffff;stroke:none;stroke-width:1px;stroke-linecap:butt;stroke-linejoin:miter;stroke-miterlimit:4;stroke-opacity:1;stroke-dasharray:none;stroke-dashoffset:0;marker:none;visibility:visible;display:inline;overflow:visible;enable-background:accumulate;filter:url(#filter6637);fill-opacity:0.8888889"
     d="m 11.849621,40.199496 c -0.508902,-0.434727 -0.99412,-0.928662 -1.190917,-2.14365 L 12.504625,36.5672 c -1.525598,1.385067 -1.506236,2.564139 -0.655004,3.632296 z"
     id="path6609"
     sodipodi:nodetypes="cccc" />
  <path
     style="color:#000000;fill:#ffffff;stroke:none;stroke-width:1px;stroke-linecap:butt;stroke-linejoin:miter;stroke-miterlimit:4;stroke-opacity:1;stroke-dasharray:none;stroke-dashoffset:0;marker:none;visibility:visible;display:inline;overflow:visible;enable-background:accumulate;filter:url(#filter6641);fill-opacity:0.8888889"
     d="m 15.00555,31.088983 c -0.655004,-2.262742 0.297729,-7.740959 0.297729,-7.740959 -0.429872,3.64392 -2.064748,5.572375 -0.297729,7.740959 z"
     id="path6611"
     sodipodi:nodetypes="ccc" />
  <path
     style="color:#000000;fill:#ffffff;stroke:none;stroke-width:1px;stroke-linecap:butt;stroke-linejoin:miter;stroke-miterlimit:4;stroke-opacity:1;stroke-dasharray:none;stroke-dashoffset:0;marker:none;visibility:visible;display:inline;overflow:visible;enable-background:accumulate;filter:url(#filter3841);fill-opacity:0.4955357"
     d="m 21.73423,13.642053 c 1.507948,-1.661854 4.799536,-6.6232247 4.168208,-9.5273328 l 1.548192,2.5604709 c -1.033556,2.0570046 -3.475674,4.9369299 -5.7164,6.9668619 z"
     id="path3063"
     sodipodi:nodetypes="cccc" />
</svg>
