<?xml version="1.0" encoding="UTF-8" standalone="no"?>
<!-- Created with Inkscape (http://www.inkscape.org/) -->

<svg
   xmlns:dc="http://purl.org/dc/elements/1.1/"
   xmlns:cc="http://creativecommons.org/ns#"
   xmlns:rdf="http://www.w3.org/1999/02/22-rdf-syntax-ns#"
   xmlns:svg="http://www.w3.org/2000/svg"
   xmlns="http://www.w3.org/2000/svg"
   xmlns:xlink="http://www.w3.org/1999/xlink"
   xmlns:sodipodi="http://sodipodi.sourceforge.net/DTD/sodipodi-0.dtd"
   xmlns:inkscape="http://www.inkscape.org/namespaces/inkscape"
   id="svg1"
   sodipodi:version="0.32"
   inkscape:version="0.47 r22583"
   width="48"
   height="48"
   sodipodi:docname="kwanzaa02.svg"
   version="1.1"
   inkscape:export-filename="kwanzaa02.png"
   inkscape:export-xdpi="89.949997"
   inkscape:export-ydpi="89.949997">
  <defs
     id="defs3">
    <linearGradient
       id="linearGradient3764">
      <stop
         style="stop-color:#7ed249;stop-opacity:1;"
         offset="0"
         id="stop3766" />
      <stop
         style="stop-color:#286325;stop-opacity:1;"
         offset="1"
         id="stop3768" />
    </linearGradient>
    <linearGradient
       inkscape:collect="always"
       xlink:href="#linearGradient3764"
       id="linearGradient3070"
       x1="43.333767"
       y1="45.91843"
       x2="10.458001"
       y2="26.9375"
       gradientUnits="userSpaceOnUse"
       gradientTransform="translate(0,1.180152)" />
    <linearGradient
       id="linearGradient3801">
      <stop
         id="stop3803"
         offset="0"
         style="stop-color:#a20000;stop-opacity:1;" />
      <stop
         id="stop3805"
         offset="1"
         style="stop-color:#d40000;stop-opacity:1;" />
    </linearGradient>
    <linearGradient
       inkscape:collect="always"
       xlink:href="#linearGradient3801"
       id="linearGradient3218"
       x1="8.1875"
       y1="-0.29450911"
       x2="36.21875"
       y2="10.905491"
       gradientUnits="userSpaceOnUse"
       gradientTransform="translate(0,1.180152)" />
    <linearGradient
       id="linearGradient3651">
      <stop
         id="stop3653"
         offset="0"
         style="stop-color:#555555;stop-opacity:1;" />
      <stop
         id="stop3655"
         offset="1"
         style="stop-color:#000000;stop-opacity:1;" />
    </linearGradient>
    <linearGradient
       inkscape:collect="always"
       xlink:href="#linearGradient3651"
       id="linearGradient3422"
       x1="40.189178"
       y1="29.148207"
       x2="3.8944416"
       y2="15.842943"
       gradientUnits="userSpaceOnUse"
       gradientTransform="translate(0,1.180152)" />
    <linearGradient
       inkscape:collect="always"
       xlink:href="#linearGradient3651"
       id="linearGradient3430"
       gradientUnits="userSpaceOnUse"
       x1="39.747368"
       y1="29.221052"
       x2="28.547369"
       y2="22.327156"
       gradientTransform="translate(2.2736842,1.180152)" />
    <linearGradient
       inkscape:collect="always"
       xlink:href="#linearGradient3801"
       id="linearGradient3432"
       gradientUnits="userSpaceOnUse"
       x1="36.21875"
       y1="6.8633857"
       x2="16.897861"
       y2="5.0949645"
       gradientTransform="translate(2.2736842,1.180152)" />
    <linearGradient
       inkscape:collect="always"
       xlink:href="#linearGradient3764"
       id="linearGradient3434"
       gradientUnits="userSpaceOnUse"
       x1="18.491665"
       y1="34.364807"
       x2="31.931684"
       y2="41.792114"
       gradientTransform="translate(2.2736842,1.180152)" />
    <filter
       inkscape:collect="always"
       id="filter4229"
       x="-0.14043989"
       width="1.2808798"
       y="-0.11915633"
       height="1.2383127">
      <feGaussianBlur
         inkscape:collect="always"
         stdDeviation="0.68680264"
         id="feGaussianBlur4231" />
    </filter>
    <filter
       inkscape:collect="always"
       id="filter3631"
       x="-0.089228046"
       width="1.1784561"
       y="-0.51973037"
       height="2.0394607">
      <feGaussianBlur
         inkscape:collect="always"
         stdDeviation="0.65643029"
         id="feGaussianBlur3633" />
    </filter>
  </defs>
  <sodipodi:namedview
     id="base"
     pagecolor="#ffffff"
     bordercolor="#666666"
     borderopacity="1.0"
     inkscape:pageopacity="0.0"
     inkscape:pageshadow="2"
     inkscape:zoom="1"
     inkscape:cx="24"
     inkscape:cy="24"
     inkscape:window-width="1153"
     inkscape:window-height="793"
     inkscape:window-x="462"
     inkscape:window-y="24"
     showgrid="false"
     inkscape:window-maximized="0"
     inkscape:current-layer="svg1">
    <inkscape:grid
       type="xygrid"
       id="grid2861" />
  </sodipodi:namedview>
  <metadata
     id="metadata4">
    <rdf:RDF>
      <cc:Work
         rdf:about="">
        <dc:format>image/svg+xml</dc:format>
        <dc:type
           rdf:resource="http://purl.org/dc/dcmitype/StillImage" />
        <dc:title />
      </cc:Work>
    </rdf:RDF>
  </metadata>
  <path
     style="fill:#000000;fill-opacity:0.76859502;fill-rule:evenodd;stroke:none;filter:url(#filter3631)"
     d="m 24.96875,40.773902 c -3.46486,0 -6.28125,0.662853 -6.28125,1.5 0,0.837147 2.81639,1.53125 6.28125,1.53125 2.823861,0 5.181798,-0.473781 5.96875,-1.09375 0.32596,0.371892 1.39178,0.65625 2.65625,0.65625 1.523608,0 2.75,-0.386664 2.75,-0.875 0,-0.488336 -1.226392,-0.90625 -2.75,-0.90625 -1.025012,0 -1.930609,0.202792 -2.40625,0.46875 -0.428735,-0.736251 -3.053244,-1.28125 -6.21875,-1.28125 z"
     id="path3612" />
  <path
     id="path3424"
     d="m 10.354999,14.50091 c 0.307009,0.700691 0.549115,1.428809 0.748343,2.163453 0.326548,0.712617 0.867759,1.285853 1.336445,1.89745 0.452053,0.481544 1.098998,0.361523 1.648704,0.341331 0.624448,-0.07453 1.119618,0.45218 1.717262,0.50547 0.947953,0.05807 1.843061,-0.502238 2.803011,-0.177074 0.521453,0.09573 0.692747,0.630313 0.897747,1.061554 0.222723,0.396072 0.659058,0.618518 1.073325,0.567482 0.541866,0.02493 1.018316,0.56537 0.915447,1.139424 -0.0503,0.885957 -0.853134,1.514706 -0.710383,2.44724 0.0301,0.409129 0.284968,0.741807 0.521408,1.055016 0.427862,0.637713 0.760927,1.378732 0.766192,2.151346 0.101951,0.825338 0.093,1.652804 0.17533,2.478706 -0.211803,1.000174 -1.381222,1.387634 -1.442834,2.462963 -0.193714,1.135342 0.37527,2.236149 0.758801,3.293665 0.306286,1.053094 -0.144932,2.171306 0.358272,3.192316 0.333865,0.783209 0.79707,1.615782 0.609077,2.477626 -0.04789,0.585216 0.426672,1.178482 0.999334,1.128055 0.603411,0.04998 1.227839,-0.0362 1.809522,0.2298 1.159698,0.212772 2.220973,-0.389315 3.112977,-1.034244 0.594751,-0.405658 1.1609,-0.898689 1.473186,-1.587627 0.397389,-0.580056 1.273648,-0.456545 1.636407,-1.069239 0.27968,-0.571012 -0.120723,-1.363276 0.351932,-1.846976 0.678143,-0.676945 1.657721,-0.824286 2.514433,-1.155481 0.433124,-0.114238 0.735127,-0.481476 0.852752,-0.927861 0.140979,-0.513032 0.202083,-1.054997 0.252863,-1.58968 2.2e-5,-0.941129 -0.175578,-1.901655 0.0116,-2.822914 0.076,-0.749221 0.434501,-1.462749 1.056197,-1.828616 0.674332,-0.497251 1.351767,-0.991803 2.01529,-1.503114 0.935749,-0.596895 1.983309,-1.129749 2.569628,-2.148921 0.467187,-0.718859 0.922561,-1.460226 1.269697,-2.254515 0.07539,-0.56835 -0.587998,-1.086606 -1.071548,-0.866144 -0.680251,0.122871 -1.487925,0.23248 -2.090317,-0.292034 -0.537038,-0.584136 -0.330934,-1.583268 -1.009707,-2.063891 -0.653841,-0.52536 -0.97749,-1.359992 -1.17961,-2.156068 -0.254498,-0.498513 -0.62443,-1.00639 -0.573605,-1.5881 C 36.486547,15.09081 35.629915,14.237504 35.474675,13.171396 28.529609,22.593841 5.4998687,0.96746133 10.354999,14.50091 z"
     style="fill:url(#linearGradient3430);fill-opacity:1;fill-rule:nonzero;stroke:none"
     sodipodi:nodetypes="ccccccccccccccccccccccscsccccccccccccc" />
  <path
     id="path3426"
     d="m 18.773684,4.055152 c -0.61155,0.05008 -1.057954,0.6555845 -1.6875,0.6875 -0.526335,0.146776 -0.914968,0.6145632 -1.125,1.125 -0.632216,0.7966032 -1.806765,0.5722532 -2.5,1.28125 -0.653633,0.5029419 -1.231718,1.1011581 -1.84375,1.65625 -0.570698,0.8814549 -0.310507,2.197019 -1.0625,2.96875 -0.03826,0.0404 -0.05968,0.08136 -0.09375,0.125 7.820376,2.274019 18.758396,6.199183 25.750574,8.255599 0.751377,0.220981 1.633763,-0.227057 2.280676,-0.03685 -0.06037,-0.07446 -0.133903,-0.127422 -0.21875,-0.1875 -0.653841,-0.52536 -0.95413,-1.360174 -1.15625,-2.15625 -0.254498,-0.498512 -0.644575,-1.012039 -0.59375,-1.593749 -0.04563,-1.090498 -0.90726,-1.933892 -1.0625,-3 -0.343899,-0.967324 -0.748922,-1.909919 -1,-2.90625 -0.344929,-0.521775 -0.986996,-0.4895 -1.5,-0.53125 C 31.929186,9.5516029 30.914573,8.8080981 30.001296,8.3021978 L 27.582767,8.028102 c -0.521441,0.2222943 0.183982,0.5402576 -0.152833,0.1208 -0.391524,-0.4534999 -0.829223,-0.9627599 -1.4375,-1 -0.506131,-0.1202042 -0.966436,-0.7763662 -0.6875,-1.28125 0.129728,-0.3187886 0.287167,-0.8475203 -0.125,-1.0625 -1.395951,0.1245933 -2.772536,-0.7879911 -4.15625,-0.4375 l -2.25,-0.3125 z m -6.46875,3.96875 c -0.03642,0.017012 -0.08175,0.057585 0,0.0625 0.06394,-0.072964 0.03642,-0.079512 0,-0.0625 z"
     style="color:#000000;fill:url(#linearGradient3432);stroke:none;stroke-width:1px;marker:none;visibility:visible;display:inline;overflow:visible;enable-background:accumulate"
     sodipodi:nodetypes="cccccscscsccccccccccccccsc" />
  <path
     id="path3428"
     d="m 22.117434,28.117652 c 0.05484,0.671226 0.0581,1.328858 0.125,2 -0.211803,1.000174 -1.375888,1.393421 -1.4375,2.46875 -0.193714,1.135342 0.366469,2.254984 0.75,3.3125 0.306286,1.053094 -0.128204,2.16649 0.375,3.1875 0.333865,0.783209 0.781743,1.606906 0.59375,2.46875 -0.04789,0.585216 0.01052,1.532702 0.583179,1.482275 l 2.229321,-0.107275 c 1.159698,0.212772 2.232996,-0.417571 3.125,-1.0625 0.594751,-0.405658 1.156464,-0.873562 1.46875,-1.5625 0.397389,-0.580056 1.262241,-0.481056 1.625,-1.09375 0.27968,-0.571012 -0.09765,-1.36005 0.375,-1.84375 0.678143,-0.676945 1.643288,-0.825055 2.5,-1.15625 0.433124,-0.114238 0.726125,-0.459865 0.84375,-0.90625 0.140979,-0.513032 0.19922,-1.059067 0.25,-1.59375 1.3e-5,-0.566816 -0.05273,-1.150678 -0.0625,-1.71875 l -2.288102,-0.04209 -11.055648,-3.832912 z m 17.40625,6.906246 -2.263525,0.07385 -1.017725,2.769896 c -0.109046,0.982114 -2.896199,2.239695 -2.886033,3.271142 l 2.792283,0.103858 c 0.574395,-0.212809 0.757839,-0.890128 1.15625,-1.3125 0.773093,-1.068309 1.536737,-2.150188 2.1875,-3.3125 0.197502,-0.497187 0.05233,-1.065709 0.03125,-1.59375 z"
     style="color:#000000;fill:url(#linearGradient3434);stroke:none;stroke-width:1px;marker:none;visibility:visible;display:inline;overflow:visible;enable-background:accumulate"
     sodipodi:nodetypes="cccccccccccscscccccccccccc" />
  <path
     style="fill:url(#linearGradient3422);fill-opacity:1;fill-rule:nonzero;stroke:none"
     d="M 22.915789,4.8108075 C 21.519838,4.9354008 20.132217,4.026016 18.748503,4.3765071 18.110097,4.5812465 17.357848,4.4971609 16.773583,4.073681 16.012631,3.9217303 15.532318,4.7125964 14.812837,4.7490713 14.286502,4.8958473 13.906349,5.3565032 13.696317,5.86694 13.064101,6.6635432 11.87458,6.4472735 11.181345,7.1562703 10.527712,7.6592122 9.9445215,8.2513777 9.3324894,8.8064696 8.7617911,9.6879245 9.0269469,10.98742 8.2749538,11.759151 c -0.652584,0.689016 -0.6938524,1.873848 -0.1936394,2.741759 0.3070096,0.700691 0.5491157,1.428809 0.7483432,2.163453 0.3265484,0.712617 0.867759,1.285853 1.3364454,1.89745 0.452053,0.481544 1.098998,0.361523 1.648704,0.341331 0.624448,-0.07453 1.119618,0.45218 1.717262,0.50547 0.947953,0.05807 1.843061,-0.502238 2.803011,-0.177074 0.521453,0.09573 0.692747,0.630313 0.897747,1.061554 0.222723,0.396072 0.659058,0.618518 1.073325,0.567482 0.541866,0.02493 1.018316,0.56537 0.915447,1.139424 -0.0503,0.885957 -0.853134,1.514706 -0.710383,2.44724 0.0301,0.409129 0.284968,0.741807 0.521408,1.055016 0.427862,0.637713 0.760927,1.378732 0.766192,2.151346 0.101951,0.825338 0.093,1.652804 0.17533,2.478706 -0.211803,1.000174 -1.381222,1.387634 -1.442834,2.462963 -0.193714,1.135342 0.37527,2.236149 0.758801,3.293665 0.306286,1.053094 -0.144932,2.171306 0.358272,3.192316 0.333865,0.783209 0.79707,1.615782 0.609077,2.477626 -0.04789,0.585216 0.426672,1.178482 0.999334,1.128055 0.603411,0.04998 1.227839,-0.0362 1.809522,0.2298 1.159698,0.212772 2.220973,-0.389315 3.112977,-1.034244 0.594751,-0.405658 1.1609,-0.898689 1.473186,-1.587627 0.397389,-0.580056 1.273648,-0.456545 1.636407,-1.069239 0.27968,-0.571012 -0.120723,-1.363276 0.351932,-1.846976 0.678143,-0.676945 1.657721,-0.824286 2.514433,-1.155481 0.433124,-0.114238 0.735127,-0.481476 0.852752,-0.927861 0.140979,-0.513032 0.202083,-1.054997 0.252863,-1.58968 2.2e-5,-0.941129 -0.175578,-1.901655 0.0116,-2.822914 0.076,-0.749221 0.434501,-1.462749 1.056197,-1.828616 0.674332,-0.497251 1.351767,-0.991803 2.01529,-1.503114 0.935749,-0.596895 1.983309,-1.129749 2.569628,-2.148921 0.467187,-0.718859 0.922561,-1.460226 1.269697,-2.254515 0.07539,-0.56835 -0.587998,-1.086606 -1.071548,-0.866144 -0.680251,0.122871 -1.487925,0.23248 -2.090317,-0.292034 -0.537038,-0.584136 -0.330934,-1.583268 -1.009707,-2.063891 -0.653841,-0.52536 -0.97749,-1.359992 -1.17961,-2.156068 -0.254498,-0.498513 -0.62443,-1.00639 -0.573605,-1.5881 C 34.212863,15.09081 33.356231,14.237504 33.200991,13.171396 32.857092,12.204072 32.435306,11.25999 32.184228,10.263659 31.839299,9.7418845 31.193418,9.7857625 30.680414,9.7440125 29.648416,9.5529634 28.829087,8.7641065 27.91581,8.2582062 27.338346,7.9809091 26.95573,8.5480257 26.512154,8.7577873 25.990713,8.9800816 25.492807,8.5751301 25.155992,8.1556725 24.764468,7.7021726 24.32046,7.1840334 23.712183,7.1467933 23.206052,7.0265891 22.752203,6.3790816 23.031139,5.8741978 23.160867,5.5554092 23.327956,5.0257829 22.915789,4.8108032 z M 10.030111,8.0946509 c 0.127869,-0.1459277 -0.1634946,-0.00983 0,0 z M 37.238982,35.037069 c -0.543577,0.611507 -1.05733,1.361398 -1.886717,1.556653 -0.724023,-0.187042 -1.480796,0.491524 -1.372156,1.277822 -0.109046,0.982114 -1.226465,1.408113 -1.216299,2.43956 -0.06867,0.586979 0.582233,1.191199 1.105784,0.93147 0.574395,-0.212809 0.748641,-0.898143 1.147052,-1.320515 0.773093,-1.068309 1.553276,-2.13585 2.204039,-3.298162 0.197502,-0.497187 0.03938,-1.058787 0.0183,-1.586828 z"
     id="path14267" />
  <path
     style="color:#000000;fill:url(#linearGradient3218);stroke:none;stroke-width:1px;marker:none;visibility:visible;display:inline;overflow:visible;enable-background:accumulate"
     d="m 16.5,4.055152 c -0.61155,0.05008 -1.057954,0.6555845 -1.6875,0.6875 -0.526335,0.146776 -0.914968,0.6145632 -1.125,1.125 -0.632216,0.7966032 -1.806765,0.5722532 -2.5,1.28125 -0.653633,0.5029419 -1.2317179,1.1011581 -1.84375,1.65625 -0.5706983,0.8814549 -0.3105069,2.197019 -1.0625,2.96875 -0.03826,0.0404 -0.059679,0.08136 -0.09375,0.125 8.660751,2.518384 21.364281,6.258502 28.03125,8.21875 -0.06037,-0.07446 -0.133903,-0.127422 -0.21875,-0.1875 -0.653841,-0.52536 -0.95413,-1.360174 -1.15625,-2.15625 -0.254498,-0.498513 -0.644575,-1.01204 -0.59375,-1.59375 -0.04563,-1.090498 -0.90726,-1.933892 -1.0625,-3 -0.343899,-0.967324 -0.748922,-1.909919 -1,-2.90625 -0.344929,-0.521775 -0.986996,-0.4895 -1.5,-0.53125 -1.031998,-0.1910491 -1.867973,-0.9940997 -2.78125,-1.5 -0.577464,-0.2772971 -0.962674,0.2902384 -1.40625,0.5 -0.521441,0.2222943 -1.006935,-0.1742924 -1.34375,-0.59375 -0.391524,-0.4534999 -0.829223,-0.9627599 -1.4375,-1 -0.506131,-0.1202042 -0.966436,-0.7763662 -0.6875,-1.28125 0.129728,-0.3187886 0.287167,-0.8475203 -0.125,-1.0625 C 21.510299,4.9297453 20.133714,4.0171609 18.75,4.367652 18.111594,4.5723914 17.365515,4.5098819 16.78125,4.086402 16.686131,4.0674082 16.587364,4.0479977 16.5,4.055152 z m -6.46875,3.96875 c -0.03642,0.017012 -0.081747,0.057585 0,0.0625 0.06394,-0.072964 0.03642,-0.079512 0,-0.0625 z"
     id="path3039" />
  <path
     style="color:#000000;fill:url(#linearGradient3070);stroke:none;stroke-width:1px;marker:none;visibility:visible;display:inline;overflow:visible;enable-background:accumulate"
     d="m 19.84375,28.117652 c 0.05484,0.671226 0.0581,1.328858 0.125,2 -0.211803,1.000174 -1.375888,1.393421 -1.4375,2.46875 -0.193714,1.135342 0.366469,2.254984 0.75,3.3125 0.306286,1.053094 -0.128204,2.16649 0.375,3.1875 0.333865,0.783209 0.781743,1.606906 0.59375,2.46875 -0.04789,0.585216 0.427338,1.175427 1,1.125 0.603411,0.04998 1.230817,-0.016 1.8125,0.25 1.159698,0.212772 2.232996,-0.417571 3.125,-1.0625 0.594751,-0.405658 1.156464,-0.873562 1.46875,-1.5625 0.397389,-0.580056 1.262241,-0.481056 1.625,-1.09375 0.27968,-0.571012 -0.09765,-1.36005 0.375,-1.84375 0.678143,-0.676945 1.643288,-0.825055 2.5,-1.15625 0.433124,-0.114238 0.726125,-0.459865 0.84375,-0.90625 0.140979,-0.513032 0.19922,-1.059067 0.25,-1.59375 1.3e-5,-0.566816 -0.05273,-1.150678 -0.0625,-1.71875 l -13.34375,-3.875 z M 37.25,35.023902 c -0.543577,0.611507 -1.076863,1.367245 -1.90625,1.5625 -0.724023,-0.187042 -1.48364,0.494952 -1.375,1.28125 -0.109046,0.982114 -1.228916,1.406053 -1.21875,2.4375 -0.06867,0.586979 0.601449,1.197229 1.125,0.9375 0.574395,-0.212809 0.757839,-0.890128 1.15625,-1.3125 0.773093,-1.068309 1.536737,-2.150188 2.1875,-3.3125 0.197502,-0.497187 0.05233,-1.065709 0.03125,-1.59375 z"
     id="path3041" />
  <path
     style="fill:#ffffff;fill-opacity:0.66222223;fill-rule:nonzero;stroke:none;filter:url(#filter4229)"
     d="m 16.4375,4.586402 c -1.209668,0.4031266 -2.193105,0.9998509 -2.90625,2.0625 -2.282171,0.5856753 -4.340667,2.3553398 -4.4375,4.84375 -1.7594174,1.596884 -0.06064,4.157028 0.78125,5.90625 0.383842,0.911938 0.989664,1.138963 1.580044,0.968557 C 6.7272305,8.9673273 16.174822,6.7638769 20.0625,4.867652 18.789589,4.7430424 17.593952,5.269784 16.4375,4.586402 z"
     id="path4214"
     sodipodi:nodetypes="ccccccc" />
</svg>
