<?xml version="1.0" encoding="UTF-8" standalone="no"?>
<!-- Created with Inkscape (http://www.inkscape.org/) -->

<svg
   xmlns:dc="http://purl.org/dc/elements/1.1/"
   xmlns:cc="http://creativecommons.org/ns#"
   xmlns:rdf="http://www.w3.org/1999/02/22-rdf-syntax-ns#"
   xmlns:svg="http://www.w3.org/2000/svg"
   xmlns="http://www.w3.org/2000/svg"
   xmlns:xlink="http://www.w3.org/1999/xlink"
   xmlns:sodipodi="http://sodipodi.sourceforge.net/DTD/sodipodi-0.dtd"
   xmlns:inkscape="http://www.inkscape.org/namespaces/inkscape"
   id="svg1"
   sodipodi:version="0.32"
   inkscape:version="0.47 r22583"
   width="48"
   height="48"
   sodipodi:docname="kwanzaa01.svg"
   version="1.1"
   inkscape:export-filename="kwanzaa01.png"
   inkscape:export-xdpi="89.949997"
   inkscape:export-ydpi="89.949997">
  <defs
     id="defs3">
    <linearGradient
       id="linearGradient3764">
      <stop
         style="stop-color:#7ed249;stop-opacity:1;"
         offset="0"
         id="stop3766" />
      <stop
         style="stop-color:#286325;stop-opacity:1;"
         offset="1"
         id="stop3768" />
    </linearGradient>
    <linearGradient
       id="linearGradient3801">
      <stop
         id="stop3803"
         offset="0"
         style="stop-color:#a20000;stop-opacity:1;" />
      <stop
         id="stop3805"
         offset="1"
         style="stop-color:#d40000;stop-opacity:1;" />
    </linearGradient>
    <linearGradient
       id="linearGradient3651">
      <stop
         id="stop3653"
         offset="0"
         style="stop-color:#555555;stop-opacity:1;" />
      <stop
         id="stop3655"
         offset="1"
         style="stop-color:#000000;stop-opacity:1;" />
    </linearGradient>
    <linearGradient
       id="linearGradient3669">
      <stop
         id="stop3671"
         offset="0"
         style="stop-color:#ffd73b;stop-opacity:1;" />
      <stop
         id="stop3673"
         offset="1"
         style="stop-color:#ee8400;stop-opacity:1;" />
    </linearGradient>
    <filter
       inkscape:collect="always"
       id="filter3823"
       x="-0.55236373"
       width="2.1047275"
       y="-0.028689247"
       height="1.0573785">
      <feGaussianBlur
         inkscape:collect="always"
         stdDeviation="0.25696058"
         id="feGaussianBlur3825" />
    </filter>
    <filter
       inkscape:collect="always"
       id="filter3827"
       x="-0.11744354"
       width="1.2348871"
       y="-0.2224188"
       height="1.4448376">
      <feGaussianBlur
         inkscape:collect="always"
         stdDeviation="0.10882594"
         id="feGaussianBlur3829" />
    </filter>
    <filter
       inkscape:collect="always"
       id="filter3855"
       x="-0.19895591"
       width="1.3979118"
       y="-0.057533532"
       height="1.1150671">
      <feGaussianBlur
         inkscape:collect="always"
         stdDeviation="0.18128627"
         id="feGaussianBlur3857" />
    </filter>
    <linearGradient
       inkscape:collect="always"
       xlink:href="#linearGradient3764"
       id="linearGradient4021"
       gradientUnits="userSpaceOnUse"
       x1="33.093353"
       y1="27.703449"
       x2="27.093355"
       y2="27.703449" />
    <linearGradient
       inkscape:collect="always"
       xlink:href="#linearGradient3669"
       id="linearGradient4023"
       gradientUnits="userSpaceOnUse"
       gradientTransform="translate(-1,0)"
       x1="27"
       y1="13"
       x2="36"
       y2="23" />
    <linearGradient
       inkscape:collect="always"
       xlink:href="#linearGradient3669"
       id="linearGradient4025"
       gradientUnits="userSpaceOnUse"
       x1="23"
       y1="10"
       x2="28"
       y2="15" />
    <linearGradient
       inkscape:collect="always"
       xlink:href="#linearGradient3651"
       id="linearGradient4043"
       gradientUnits="userSpaceOnUse"
       x1="32.209286"
       y1="27.079979"
       x2="26.209288"
       y2="27.079979" />
    <linearGradient
       inkscape:collect="always"
       xlink:href="#linearGradient3669"
       id="linearGradient4045"
       gradientUnits="userSpaceOnUse"
       gradientTransform="translate(-1,0)"
       x1="27"
       y1="13"
       x2="36"
       y2="23" />
    <linearGradient
       inkscape:collect="always"
       xlink:href="#linearGradient3669"
       id="linearGradient4047"
       gradientUnits="userSpaceOnUse"
       x1="23"
       y1="10"
       x2="28"
       y2="15" />
    <linearGradient
       inkscape:collect="always"
       xlink:href="#linearGradient3801"
       id="linearGradient4065"
       gradientUnits="userSpaceOnUse"
       x1="25.093355"
       y1="27.351888"
       x2="28.494738"
       y2="27.663158" />
    <linearGradient
       inkscape:collect="always"
       xlink:href="#linearGradient3669"
       id="linearGradient4067"
       gradientUnits="userSpaceOnUse"
       gradientTransform="translate(-1,0)"
       x1="27"
       y1="13"
       x2="36"
       y2="23" />
    <linearGradient
       inkscape:collect="always"
       xlink:href="#linearGradient3669"
       id="linearGradient4069"
       gradientUnits="userSpaceOnUse"
       x1="23"
       y1="10"
       x2="28"
       y2="15" />
    <linearGradient
       inkscape:collect="always"
       xlink:href="#linearGradient3801"
       id="linearGradient4087"
       gradientUnits="userSpaceOnUse"
       x1="25.093355"
       y1="27.351888"
       x2="28.494738"
       y2="27.663158" />
    <linearGradient
       inkscape:collect="always"
       xlink:href="#linearGradient3669"
       id="linearGradient4089"
       gradientUnits="userSpaceOnUse"
       gradientTransform="translate(-1,0)"
       x1="27"
       y1="13"
       x2="36"
       y2="23" />
    <linearGradient
       inkscape:collect="always"
       xlink:href="#linearGradient3669"
       id="linearGradient4091"
       gradientUnits="userSpaceOnUse"
       x1="23"
       y1="10"
       x2="28"
       y2="15" />
    <linearGradient
       inkscape:collect="always"
       xlink:href="#linearGradient3801"
       id="linearGradient4109"
       gradientUnits="userSpaceOnUse"
       x1="25.093355"
       y1="27.351888"
       x2="28.494738"
       y2="27.663158" />
    <linearGradient
       inkscape:collect="always"
       xlink:href="#linearGradient3669"
       id="linearGradient4111"
       gradientUnits="userSpaceOnUse"
       gradientTransform="translate(-1,0)"
       x1="27"
       y1="13"
       x2="36"
       y2="23" />
    <linearGradient
       inkscape:collect="always"
       xlink:href="#linearGradient3669"
       id="linearGradient4113"
       gradientUnits="userSpaceOnUse"
       x1="23"
       y1="10"
       x2="28"
       y2="15" />
    <linearGradient
       inkscape:collect="always"
       xlink:href="#linearGradient3764"
       id="linearGradient4131"
       gradientUnits="userSpaceOnUse"
       x1="33.093353"
       y1="27.703449"
       x2="27.093355"
       y2="27.703449" />
    <linearGradient
       inkscape:collect="always"
       xlink:href="#linearGradient3669"
       id="linearGradient4133"
       gradientUnits="userSpaceOnUse"
       gradientTransform="translate(-1,0)"
       x1="27"
       y1="13"
       x2="36"
       y2="23" />
    <linearGradient
       inkscape:collect="always"
       xlink:href="#linearGradient3669"
       id="linearGradient4135"
       gradientUnits="userSpaceOnUse"
       x1="23"
       y1="10"
       x2="28"
       y2="15" />
    <linearGradient
       inkscape:collect="always"
       xlink:href="#linearGradient3764"
       id="linearGradient4153"
       gradientUnits="userSpaceOnUse"
       x1="33.093353"
       y1="27.703449"
       x2="27.093355"
       y2="27.703449" />
    <linearGradient
       inkscape:collect="always"
       xlink:href="#linearGradient3669"
       id="linearGradient4155"
       gradientUnits="userSpaceOnUse"
       gradientTransform="translate(-1,0)"
       x1="27"
       y1="13"
       x2="36"
       y2="23" />
    <linearGradient
       inkscape:collect="always"
       xlink:href="#linearGradient3669"
       id="linearGradient4157"
       gradientUnits="userSpaceOnUse"
       x1="23"
       y1="10"
       x2="28"
       y2="15" />
    <linearGradient
       id="linearGradient2911-0">
      <stop
         style="stop-color:#9a5723;stop-opacity:1;"
         offset="0"
         id="stop2913-7" />
      <stop
         style="stop-color:#db9762;stop-opacity:1;"
         offset="1"
         id="stop2915-2" />
    </linearGradient>
    <linearGradient
       inkscape:collect="always"
       xlink:href="#linearGradient2911-0"
       id="linearGradient4515"
       x1="-1.505263"
       y1="34.663158"
       x2="3.4947369"
       y2="12.663158"
       gradientUnits="userSpaceOnUse" />
    <linearGradient
       inkscape:collect="always"
       xlink:href="#linearGradient2911-0"
       id="linearGradient4517"
       x1="41"
       y1="30"
       x2="40"
       y2="57"
       gradientUnits="userSpaceOnUse" />
    <linearGradient
       inkscape:collect="always"
       xlink:href="#linearGradient2911-0"
       id="linearGradient4521"
       x1="21"
       y1="34.917274"
       x2="27"
       y2="35"
       gradientUnits="userSpaceOnUse"
       gradientTransform="translate(-15.094737,-1.5789473)" />
    <filter
       inkscape:collect="always"
       id="filter3699">
      <feGaussianBlur
         inkscape:collect="always"
         stdDeviation="0.62024292"
         id="feGaussianBlur3701" />
    </filter>
  </defs>
  <sodipodi:namedview
     id="base"
     pagecolor="#ffffff"
     bordercolor="#666666"
     borderopacity="1.0"
     inkscape:pageopacity="0.0"
     inkscape:pageshadow="2"
     inkscape:zoom="1"
     inkscape:cx="20.512586"
     inkscape:cy="24"
     inkscape:window-width="1153"
     inkscape:window-height="793"
     inkscape:window-x="462"
     inkscape:window-y="24"
     showgrid="false"
     inkscape:window-maximized="0"
     inkscape:current-layer="g3859">
    <inkscape:grid
       type="xygrid"
       id="grid2861" />
  </sodipodi:namedview>
  <metadata
     id="metadata4">
    <rdf:RDF>
      <cc:Work
         rdf:about="">
        <dc:format>image/svg+xml</dc:format>
        <dc:type
           rdf:resource="http://purl.org/dc/dcmitype/StillImage" />
        <dc:title />
      </cc:Work>
    </rdf:RDF>
  </metadata>
  <g
     id="g3859"
     transform="translate(14.505263,2.336842)">
    <path
       style="color:#000000;fill:#000000;stroke:none;stroke-width:1px;stroke-linecap:butt;stroke-linejoin:miter;stroke-miterlimit:4;stroke-opacity:1;stroke-dasharray:none;stroke-dashoffset:0;marker:none;visibility:visible;display:inline;overflow:visible;enable-background:accumulate;filter:url(#filter3699);fill-opacity:0.76862746"
       d="M 42.947368,47.326316 2.0210526,33.6 9.3473684,27.789474 46.989474,41.094737 42.947368,47.326316 z"
       id="path2921"
       transform="translate(-14.505263,-2.336842)" />
    <path
       sodipodi:nodetypes="cccccc"
       id="path4161"
       d="m -12.505263,30.663158 41,14 4,-6 0,-1 -45,-8 0,1 z"
       style="color:#000000;fill:url(#linearGradient4515);stroke:none;stroke-width:1px;marker:none;visibility:visible;display:inline;overflow:visible;enable-background:accumulate" />
    <path
       style="color:#000000;fill:url(#linearGradient4517);stroke:none;stroke-width:1px;stroke-linecap:butt;stroke-linejoin:miter;stroke-miterlimit:4;stroke-opacity:1;stroke-dasharray:none;stroke-dashoffset:0;marker:none;visibility:visible;display:inline;overflow:visible;enable-background:accumulate;fill-opacity:1"
       d="M 2,32 43,46 47,40 8,27 2,32 z"
       id="path4159"
       transform="translate(-14.505263,-2.336842)"
       sodipodi:nodetypes="ccccc" />
    <g
       id="g4093"
       transform="translate(-33.71455,-7.416821)">
      <path
         style="color:#000000;fill:url(#linearGradient4109);stroke:none;stroke-width:1px;marker:none;visibility:visible;display:inline;overflow:visible;enable-background:accumulate"
         d="M 25.093355,36.70345 26,18 c 1.333333,-1.213841 2.666667,-0.78755 4,0 l 1.093355,18.70345 c -2.991486,1.274768 -4.553154,0.711197 -6,0 z"
         id="path4095"
         sodipodi:nodetypes="ccccc" />
      <path
         style="color:#000000;fill:#ffffff;fill-opacity:0.8;stroke:none;stroke-width:1px;marker:none;visibility:visible;display:inline;overflow:visible;filter:url(#filter3827);enable-background:accumulate"
         d="m 27.093355,18.70345 c -0.411491,-0.769869 0.154027,-1.095642 1.488645,-1.071825 0.503696,-0.27055 -3.817628,-0.03579 -1.488645,1.071825 z"
         id="path4097"
         sodipodi:nodetypes="ccc" />
      <path
         style="color:#000000;fill:#1a1a1a;stroke:none;stroke-width:1px;marker:none;visibility:visible;display:inline;overflow:visible;enable-background:accumulate"
         d="m 28,14 c -0.06241,1.657751 -1.141664,2.905577 -0.505263,4.663158 0.279235,0.270491 0.608514,0.290761 1,0 C 27.963675,16.403307 28.328515,15.652212 28,14 z"
         id="path4099"
         sodipodi:nodetypes="cccc" />
      <path
         style="color:#000000;fill:url(#linearGradient4111);stroke:none;stroke-width:1px;marker:none;visibility:visible;display:inline;overflow:visible;enable-background:accumulate"
         d="m 27,6 c 0,0 -3,5 -3,7 0,2 3.971008,4.714986 5,3 3,-5 -2.265099,-7.267785 -2,-10 z"
         id="path4101"
         sodipodi:nodetypes="cssc" />
      <path
         sodipodi:nodetypes="cssc"
         id="path4103"
         d="m 27,9 c 0,0 -1.854682,3.091138 -1.854682,4.327593 0,1.236455 2.454987,2.914934 3.091137,1.854683 C 30.091138,12.091138 26.836109,10.689131 27,9 z"
         style="color:#000000;fill:url(#linearGradient4113);stroke:none;stroke-width:1px;marker:none;visibility:visible;display:inline;overflow:visible;enable-background:accumulate" />
      <path
         style="color:#000000;fill:#ffffff;stroke:none;stroke-width:1px;marker:none;visibility:visible;display:inline;overflow:visible;filter:url(#filter3855);enable-background:accumulate"
         d="M 26.616988,7.5088327 C 25.785308,10.650258 24.029496,13.5261 26.081075,15.071154 24.496463,14.146797 23.118576,14.355308 26.616988,7.5088327 z"
         id="path4105"
         sodipodi:nodetypes="ccc" />
      <path
         style="color:#000000;fill:#ffffff;fill-opacity:0.82666668;stroke:none;stroke-width:1px;marker:none;visibility:visible;display:inline;overflow:visible;filter:url(#filter3823);enable-background:accumulate"
         d="m 26.140621,18.643903 -0.761816,17.642726 0.71455,0.416821 c 0,0 0.523633,-17.047267 0.04727,-18.059547 z"
         id="path4107"
         sodipodi:nodetypes="cccc" />
    </g>
    <g
       transform="translate(-28.71455,-5.416821)"
       id="g4071">
      <path
         sodipodi:nodetypes="ccccc"
         id="path4073"
         d="M 25.093355,36.70345 26,18 c 1.333333,-1.213841 2.666667,-0.78755 4,0 l 1.093355,18.70345 c -2.991486,1.274768 -4.553154,0.711197 -6,0 z"
         style="color:#000000;fill:url(#linearGradient4087);stroke:none;stroke-width:1px;marker:none;visibility:visible;display:inline;overflow:visible;enable-background:accumulate" />
      <path
         sodipodi:nodetypes="ccc"
         id="path4075"
         d="m 27.093355,18.70345 c -0.411491,-0.769869 0.154027,-1.095642 1.488645,-1.071825 0.503696,-0.27055 -3.817628,-0.03579 -1.488645,1.071825 z"
         style="color:#000000;fill:#ffffff;fill-opacity:0.8;stroke:none;stroke-width:1px;marker:none;visibility:visible;display:inline;overflow:visible;filter:url(#filter3827);enable-background:accumulate" />
      <path
         sodipodi:nodetypes="cccc"
         id="path4077"
         d="m 28,14 c -0.06241,1.657751 -1.141664,2.905577 -0.505263,4.663158 0.279235,0.270491 0.608514,0.290761 1,0 C 27.963675,16.403307 28.328515,15.652212 28,14 z"
         style="color:#000000;fill:#1a1a1a;stroke:none;stroke-width:1px;marker:none;visibility:visible;display:inline;overflow:visible;enable-background:accumulate" />
      <path
         sodipodi:nodetypes="cssc"
         id="path4079"
         d="m 27,6 c 0,0 -3,5 -3,7 0,2 3.971008,4.714986 5,3 3,-5 -2.265099,-7.267785 -2,-10 z"
         style="color:#000000;fill:url(#linearGradient4089);stroke:none;stroke-width:1px;marker:none;visibility:visible;display:inline;overflow:visible;enable-background:accumulate" />
      <path
         style="color:#000000;fill:url(#linearGradient4091);stroke:none;stroke-width:1px;marker:none;visibility:visible;display:inline;overflow:visible;enable-background:accumulate"
         d="m 27,9 c 0,0 -1.854682,3.091138 -1.854682,4.327593 0,1.236455 2.454987,2.914934 3.091137,1.854683 C 30.091138,12.091138 26.836109,10.689131 27,9 z"
         id="path4081"
         sodipodi:nodetypes="cssc" />
      <path
         sodipodi:nodetypes="ccc"
         id="path4083"
         d="M 26.616988,7.5088327 C 25.785308,10.650258 24.029496,13.5261 26.081075,15.071154 24.496463,14.146797 23.118576,14.355308 26.616988,7.5088327 z"
         style="color:#000000;fill:#ffffff;stroke:none;stroke-width:1px;marker:none;visibility:visible;display:inline;overflow:visible;filter:url(#filter3855);enable-background:accumulate" />
      <path
         sodipodi:nodetypes="cccc"
         id="path4085"
         d="m 26.140621,18.643903 -0.761816,17.642726 0.71455,0.416821 c 0,0 0.523633,-17.047267 0.04727,-18.059547 z"
         style="color:#000000;fill:#ffffff;fill-opacity:0.82666668;stroke:none;stroke-width:1px;marker:none;visibility:visible;display:inline;overflow:visible;filter:url(#filter3823);enable-background:accumulate" />
    </g>
    <g
       id="g4049"
       transform="translate(-23.598618,-4.040292)">
      <path
         style="color:#000000;fill:url(#linearGradient4065);stroke:none;stroke-width:1px;marker:none;visibility:visible;display:inline;overflow:visible;enable-background:accumulate"
         d="M 25.093355,36.70345 26,18 c 1.333333,-1.213841 2.666667,-0.78755 4,0 l 1.093355,18.70345 c -2.991486,1.274768 -4.553154,0.711197 -6,0 z"
         id="path4051"
         sodipodi:nodetypes="ccccc" />
      <path
         style="color:#000000;fill:#ffffff;fill-opacity:0.8;stroke:none;stroke-width:1px;marker:none;visibility:visible;display:inline;overflow:visible;filter:url(#filter3827);enable-background:accumulate"
         d="m 27.093355,18.70345 c -0.411491,-0.769869 0.154027,-1.095642 1.488645,-1.071825 0.503696,-0.27055 -3.817628,-0.03579 -1.488645,1.071825 z"
         id="path4053"
         sodipodi:nodetypes="ccc" />
      <path
         style="color:#000000;fill:#1a1a1a;stroke:none;stroke-width:1px;marker:none;visibility:visible;display:inline;overflow:visible;enable-background:accumulate"
         d="m 28,14 c -0.06241,1.657751 -1.141664,2.905577 -0.505263,4.663158 0.279235,0.270491 0.608514,0.290761 1,0 C 27.963675,16.403307 28.328515,15.652212 28,14 z"
         id="path4055"
         sodipodi:nodetypes="cccc" />
      <path
         style="color:#000000;fill:url(#linearGradient4067);stroke:none;stroke-width:1px;marker:none;visibility:visible;display:inline;overflow:visible;enable-background:accumulate"
         d="m 27,6 c 0,0 -3,5 -3,7 0,2 3.971008,4.714986 5,3 3,-5 -2.265099,-7.267785 -2,-10 z"
         id="path4057"
         sodipodi:nodetypes="cssc" />
      <path
         sodipodi:nodetypes="cssc"
         id="path4059"
         d="m 27,9 c 0,0 -1.854682,3.091138 -1.854682,4.327593 0,1.236455 2.454987,2.914934 3.091137,1.854683 C 30.091138,12.091138 26.836109,10.689131 27,9 z"
         style="color:#000000;fill:url(#linearGradient4069);stroke:none;stroke-width:1px;marker:none;visibility:visible;display:inline;overflow:visible;enable-background:accumulate" />
      <path
         style="color:#000000;fill:#ffffff;stroke:none;stroke-width:1px;marker:none;visibility:visible;display:inline;overflow:visible;filter:url(#filter3855);enable-background:accumulate"
         d="M 26.616988,7.5088327 C 25.785308,10.650258 24.029496,13.5261 26.081075,15.071154 24.496463,14.146797 23.118576,14.355308 26.616988,7.5088327 z"
         id="path4061"
         sodipodi:nodetypes="ccc" />
      <path
         style="color:#000000;fill:#ffffff;fill-opacity:0.82666668;stroke:none;stroke-width:1px;marker:none;visibility:visible;display:inline;overflow:visible;filter:url(#filter3823);enable-background:accumulate"
         d="m 26.140621,18.643903 -0.761816,17.642726 0.71455,0.416821 c 0,0 0.523633,-17.047267 0.04727,-18.059547 z"
         id="path4063"
         sodipodi:nodetypes="cccc" />
    </g>
    <g
       transform="translate(-19.07216,-6.2421053)"
       id="g4027">
      <path
         sodipodi:nodetypes="ccccc"
         id="path4029"
         d="M 25.093355,36.70345 26,18 c 1.333333,-1.213841 2.666667,-0.78755 4,0 l 1.093355,18.70345 c -2.991486,1.274768 -4.553154,0.711197 -6,0 z"
         style="color:#000000;fill:url(#linearGradient4043);stroke:none;stroke-width:1px;marker:none;visibility:visible;display:inline;overflow:visible;enable-background:accumulate" />
      <path
         sodipodi:nodetypes="ccc"
         id="path4031"
         d="m 27.093355,18.70345 c -0.411491,-0.769869 0.154027,-1.095642 1.488645,-1.071825 0.503696,-0.27055 -3.817628,-0.03579 -1.488645,1.071825 z"
         style="color:#000000;fill:#ffffff;fill-opacity:0.8;stroke:none;stroke-width:1px;marker:none;visibility:visible;display:inline;overflow:visible;filter:url(#filter3827);enable-background:accumulate" />
      <path
         sodipodi:nodetypes="cccc"
         id="path4033"
         d="m 28,14 c -0.06241,1.657751 -1.141664,2.905577 -0.505263,4.663158 0.279235,0.270491 0.608514,0.290761 1,0 C 27.963675,16.403307 28.328515,15.652212 28,14 z"
         style="color:#000000;fill:#1a1a1a;stroke:none;stroke-width:1px;marker:none;visibility:visible;display:inline;overflow:visible;enable-background:accumulate" />
      <path
         sodipodi:nodetypes="cssc"
         id="path4035"
         d="m 27,6 c 0,0 -3,5 -3,7 0,2 3.971008,4.714986 5,3 3,-5 -2.265099,-7.267785 -2,-10 z"
         style="color:#000000;fill:url(#linearGradient4045);stroke:none;stroke-width:1px;marker:none;visibility:visible;display:inline;overflow:visible;enable-background:accumulate" />
      <path
         style="color:#000000;fill:url(#linearGradient4047);stroke:none;stroke-width:1px;marker:none;visibility:visible;display:inline;overflow:visible;enable-background:accumulate"
         d="m 27,9 c 0,0 -1.854682,3.091138 -1.854682,4.327593 0,1.236455 2.454987,2.914934 3.091137,1.854683 C 30.091138,12.091138 26.836109,10.689131 27,9 z"
         id="path4037"
         sodipodi:nodetypes="cssc" />
      <path
         sodipodi:nodetypes="ccc"
         id="path4039"
         d="M 26.616988,7.5088327 C 25.785308,10.650258 24.029496,13.5261 26.081075,15.071154 24.496463,14.146797 23.118576,14.355308 26.616988,7.5088327 z"
         style="color:#000000;fill:#ffffff;stroke:none;stroke-width:1px;marker:none;visibility:visible;display:inline;overflow:visible;filter:url(#filter3855);enable-background:accumulate" />
      <path
         sodipodi:nodetypes="cccc"
         id="path4041"
         d="m 26.140621,18.643903 -0.761816,17.642726 0.71455,0.416821 c 0,0 0.523633,-17.047267 0.04727,-18.059547 z"
         style="color:#000000;fill:#ffffff;fill-opacity:0.82666668;stroke:none;stroke-width:1px;marker:none;visibility:visible;display:inline;overflow:visible;filter:url(#filter3823);enable-background:accumulate" />
    </g>
    <path
       style="color:#000000;fill:url(#linearGradient4521);stroke:none;stroke-width:1px;marker:none;visibility:visible;display:inline;overflow:visible;enable-background:accumulate"
       d="m 5.9052633,30.421053 0,5 c 1.376726,0.892834 3.259914,1.312969 6.9999997,0 l 0,-5 c -2.606884,0.61549 -5.0258097,0.808073 -6.9999997,0 z"
       id="path4519"
       sodipodi:nodetypes="ccccc" />
    <g
       id="g4005"
       transform="translate(-13.366754,-0.287234)">
      <path
         style="color:#000000;fill:url(#linearGradient4021);stroke:none;stroke-width:1px;marker:none;visibility:visible;display:inline;overflow:visible;enable-background:accumulate"
         d="M 25.093355,36.70345 26,18 c 1.333333,-1.213841 2.666667,-0.78755 4,0 l 1.093355,18.70345 c -2.991486,1.274768 -4.553154,0.711197 -6,0 z"
         id="path4007"
         sodipodi:nodetypes="ccccc" />
      <path
         style="color:#000000;fill:#ffffff;fill-opacity:0.8;stroke:none;stroke-width:1px;marker:none;visibility:visible;display:inline;overflow:visible;filter:url(#filter3827);enable-background:accumulate"
         d="m 27.093355,18.70345 c -0.411491,-0.769869 0.154027,-1.095642 1.488645,-1.071825 0.503696,-0.27055 -3.817628,-0.03579 -1.488645,1.071825 z"
         id="path4009"
         sodipodi:nodetypes="ccc" />
      <path
         style="color:#000000;fill:#1a1a1a;stroke:none;stroke-width:1px;marker:none;visibility:visible;display:inline;overflow:visible;enable-background:accumulate"
         d="m 28,14 c -0.06241,1.657751 -1.141664,2.905577 -0.505263,4.663158 0.279235,0.270491 0.608514,0.290761 1,0 C 27.963675,16.403307 28.328515,15.652212 28,14 z"
         id="path4011"
         sodipodi:nodetypes="cccc" />
      <path
         style="color:#000000;fill:url(#linearGradient4023);stroke:none;stroke-width:1px;marker:none;visibility:visible;display:inline;overflow:visible;enable-background:accumulate"
         d="m 27,6 c 0,0 -3,5 -3,7 0,2 3.971008,4.714986 5,3 3,-5 -2.265099,-7.267785 -2,-10 z"
         id="path4013"
         sodipodi:nodetypes="cssc" />
      <path
         sodipodi:nodetypes="cssc"
         id="path4015"
         d="m 27,9 c 0,0 -1.854682,3.091138 -1.854682,4.327593 0,1.236455 2.454987,2.914934 3.091137,1.854683 C 30.091138,12.091138 26.836109,10.689131 27,9 z"
         style="color:#000000;fill:url(#linearGradient4025);stroke:none;stroke-width:1px;marker:none;visibility:visible;display:inline;overflow:visible;enable-background:accumulate" />
      <path
         style="color:#000000;fill:#ffffff;stroke:none;stroke-width:1px;marker:none;visibility:visible;display:inline;overflow:visible;filter:url(#filter3855);enable-background:accumulate"
         d="M 26.616988,7.5088327 C 25.785308,10.650258 24.029496,13.5261 26.081075,15.071154 24.496463,14.146797 23.118576,14.355308 26.616988,7.5088327 z"
         id="path4017"
         sodipodi:nodetypes="ccc" />
      <path
         style="color:#000000;fill:#ffffff;fill-opacity:0.82666668;stroke:none;stroke-width:1px;marker:none;visibility:visible;display:inline;overflow:visible;filter:url(#filter3823);enable-background:accumulate"
         d="m 26.140621,18.643903 -0.761816,17.642726 0.71455,0.416821 c 0,0 0.523633,-17.047267 0.04727,-18.059547 z"
         id="path4019"
         sodipodi:nodetypes="cccc" />
    </g>
    <g
       transform="translate(-7.884068,1.376529)"
       id="g4115">
      <path
         sodipodi:nodetypes="ccccc"
         id="path4117"
         d="M 25.093355,36.70345 26,18 c 1.333333,-1.213841 2.666667,-0.78755 4,0 l 1.093355,18.70345 c -2.991486,1.274768 -4.553154,0.711197 -6,0 z"
         style="color:#000000;fill:url(#linearGradient4131);stroke:none;stroke-width:1px;marker:none;visibility:visible;display:inline;overflow:visible;enable-background:accumulate" />
      <path
         sodipodi:nodetypes="ccc"
         id="path4119"
         d="m 27.093355,18.70345 c -0.411491,-0.769869 0.154027,-1.095642 1.488645,-1.071825 0.503696,-0.27055 -3.817628,-0.03579 -1.488645,1.071825 z"
         style="color:#000000;fill:#ffffff;fill-opacity:0.8;stroke:none;stroke-width:1px;marker:none;visibility:visible;display:inline;overflow:visible;filter:url(#filter3827);enable-background:accumulate" />
      <path
         sodipodi:nodetypes="cccc"
         id="path4121"
         d="m 28,14 c -0.06241,1.657751 -1.141664,2.905577 -0.505263,4.663158 0.279235,0.270491 0.608514,0.290761 1,0 C 27.963675,16.403307 28.328515,15.652212 28,14 z"
         style="color:#000000;fill:#1a1a1a;stroke:none;stroke-width:1px;marker:none;visibility:visible;display:inline;overflow:visible;enable-background:accumulate" />
      <path
         sodipodi:nodetypes="cssc"
         id="path4123"
         d="m 27,6 c 0,0 -3,5 -3,7 0,2 3.971008,4.714986 5,3 3,-5 -2.265099,-7.267785 -2,-10 z"
         style="color:#000000;fill:url(#linearGradient4133);stroke:none;stroke-width:1px;marker:none;visibility:visible;display:inline;overflow:visible;enable-background:accumulate" />
      <path
         style="color:#000000;fill:url(#linearGradient4135);stroke:none;stroke-width:1px;marker:none;visibility:visible;display:inline;overflow:visible;enable-background:accumulate"
         d="m 27,9 c 0,0 -1.854682,3.091138 -1.854682,4.327593 0,1.236455 2.454987,2.914934 3.091137,1.854683 C 30.091138,12.091138 26.836109,10.689131 27,9 z"
         id="path4125"
         sodipodi:nodetypes="cssc" />
      <path
         sodipodi:nodetypes="ccc"
         id="path4127"
         d="M 26.616988,7.5088327 C 25.785308,10.650258 24.029496,13.5261 26.081075,15.071154 24.496463,14.146797 23.118576,14.355308 26.616988,7.5088327 z"
         style="color:#000000;fill:#ffffff;stroke:none;stroke-width:1px;marker:none;visibility:visible;display:inline;overflow:visible;filter:url(#filter3855);enable-background:accumulate" />
      <path
         sodipodi:nodetypes="cccc"
         id="path4129"
         d="m 26.140621,18.643903 -0.761816,17.642726 0.71455,0.416821 c 0,0 0.523633,-17.047267 0.04727,-18.059547 z"
         style="color:#000000;fill:#ffffff;fill-opacity:0.82666668;stroke:none;stroke-width:1px;marker:none;visibility:visible;display:inline;overflow:visible;filter:url(#filter3823);enable-background:accumulate" />
    </g>
    <g
       id="g4137"
       transform="translate(-2.884068,3.376529)">
      <path
         style="color:#000000;fill:url(#linearGradient4153);stroke:none;stroke-width:1px;marker:none;visibility:visible;display:inline;overflow:visible;enable-background:accumulate"
         d="M 25.093355,36.70345 26,18 c 1.333333,-1.213841 2.666667,-0.78755 4,0 l 1.093355,18.70345 c -2.991486,1.274768 -4.553154,0.711197 -6,0 z"
         id="path4139"
         sodipodi:nodetypes="ccccc" />
      <path
         style="color:#000000;fill:#ffffff;fill-opacity:0.8;stroke:none;stroke-width:1px;marker:none;visibility:visible;display:inline;overflow:visible;filter:url(#filter3827);enable-background:accumulate"
         d="m 27.093355,18.70345 c -0.411491,-0.769869 0.154027,-1.095642 1.488645,-1.071825 0.503696,-0.27055 -3.817628,-0.03579 -1.488645,1.071825 z"
         id="path4141"
         sodipodi:nodetypes="ccc" />
      <path
         style="color:#000000;fill:#1a1a1a;stroke:none;stroke-width:1px;marker:none;visibility:visible;display:inline;overflow:visible;enable-background:accumulate"
         d="m 28,14 c -0.06241,1.657751 -1.141664,2.905577 -0.505263,4.663158 0.279235,0.270491 0.608514,0.290761 1,0 C 27.963675,16.403307 28.328515,15.652212 28,14 z"
         id="path4143"
         sodipodi:nodetypes="cccc" />
      <path
         style="color:#000000;fill:url(#linearGradient4155);stroke:none;stroke-width:1px;marker:none;visibility:visible;display:inline;overflow:visible;enable-background:accumulate"
         d="m 27,6 c 0,0 -3,5 -3,7 0,2 3.971008,4.714986 5,3 3,-5 -2.265099,-7.267785 -2,-10 z"
         id="path4145"
         sodipodi:nodetypes="cssc" />
      <path
         sodipodi:nodetypes="cssc"
         id="path4147"
         d="m 27,9 c 0,0 -1.854682,3.091138 -1.854682,4.327593 0,1.236455 2.454987,2.914934 3.091137,1.854683 C 30.091138,12.091138 26.836109,10.689131 27,9 z"
         style="color:#000000;fill:url(#linearGradient4157);stroke:none;stroke-width:1px;marker:none;visibility:visible;display:inline;overflow:visible;enable-background:accumulate" />
      <path
         style="color:#000000;fill:#ffffff;stroke:none;stroke-width:1px;marker:none;visibility:visible;display:inline;overflow:visible;filter:url(#filter3855);enable-background:accumulate"
         d="M 26.616988,7.5088327 C 25.785308,10.650258 24.029496,13.5261 26.081075,15.071154 24.496463,14.146797 23.118576,14.355308 26.616988,7.5088327 z"
         id="path4149"
         sodipodi:nodetypes="ccc" />
      <path
         style="color:#000000;fill:#ffffff;fill-opacity:0.82666668;stroke:none;stroke-width:1px;marker:none;visibility:visible;display:inline;overflow:visible;filter:url(#filter3823);enable-background:accumulate"
         d="m 26.140621,18.643903 -0.761816,17.642726 0.71455,0.416821 c 0,0 0.523633,-17.047267 0.04727,-18.059547 z"
         id="path4151"
         sodipodi:nodetypes="cccc" />
    </g>
  </g>
</svg>
