<?xml version="1.0" encoding="UTF-8" standalone="no"?>
<!-- Created with Inkscape (http://www.inkscape.org/) -->

<svg
   xmlns:dc="http://purl.org/dc/elements/1.1/"
   xmlns:cc="http://creativecommons.org/ns#"
   xmlns:rdf="http://www.w3.org/1999/02/22-rdf-syntax-ns#"
   xmlns:svg="http://www.w3.org/2000/svg"
   xmlns="http://www.w3.org/2000/svg"
   xmlns:xlink="http://www.w3.org/1999/xlink"
   xmlns:sodipodi="http://sodipodi.sourceforge.net/DTD/sodipodi-0.dtd"
   xmlns:inkscape="http://www.inkscape.org/namespaces/inkscape"
   id="svg1"
   sodipodi:version="0.32"
   inkscape:version="0.47 r22583"
   width="48"
   height="48"
   sodipodi:docname="martin-luther-king-day01.svg"
   version="1.1"
   inkscape:export-filename="martin-luther-king-day01.png"
   inkscape:export-xdpi="89.949997"
   inkscape:export-ydpi="89.949997">
  <defs
     id="defs3">
    <linearGradient
       inkscape:collect="always"
       xlink:href="#linearGradient3679"
       id="linearGradient3704"
       x1="-2"
       y1="-1"
       x2="37"
       y2="40"
       gradientUnits="userSpaceOnUse"
       gradientTransform="translate(1,-1.400423)" />
    <linearGradient
       id="linearGradient3791">
      <stop
         id="stop3793"
         offset="0"
         style="stop-color:#e6e6e6;stop-opacity:1;" />
      <stop
         id="stop3795"
         offset="1"
         style="stop-color:#d5d5d5;stop-opacity:1;" />
    </linearGradient>
    <linearGradient
       id="linearGradient3679">
      <stop
         id="stop3681"
         offset="0"
         style="stop-color:#552200;stop-opacity:1;" />
      <stop
         id="stop3683"
         offset="1"
         style="stop-color:#b6632c;stop-opacity:1;" />
    </linearGradient>
    <linearGradient
       id="linearGradient3651">
      <stop
         id="stop3653"
         offset="0"
         style="stop-color:#555555;stop-opacity:1;" />
      <stop
         id="stop3655"
         offset="1"
         style="stop-color:#000000;stop-opacity:1;" />
    </linearGradient>
    <linearGradient
       inkscape:collect="always"
       xlink:href="#linearGradient3679"
       id="linearGradient3908"
       x1="10.254719"
       y1="20.173288"
       x2="21.803749"
       y2="22.158979"
       gradientUnits="userSpaceOnUse"
       gradientTransform="translate(1,-1.400423)" />
    <linearGradient
       inkscape:collect="always"
       xlink:href="#linearGradient3679"
       id="linearGradient3910"
       x1="35.48634"
       y1="20.062555"
       x2="26.211441"
       y2="22.060915"
       gradientUnits="userSpaceOnUse"
       gradientTransform="translate(1,-1.400423)" />
    <linearGradient
       inkscape:collect="always"
       xlink:href="#linearGradient3679"
       id="linearGradient3912"
       x1="9.3066025"
       y1="23.678598"
       x2="14.734856"
       y2="26.459284"
       gradientUnits="userSpaceOnUse"
       gradientTransform="translate(1,-1.400423)" />
    <linearGradient
       inkscape:collect="always"
       xlink:href="#linearGradient3651"
       id="linearGradient3914"
       x1="28"
       y1="22"
       x2="13"
       y2="3"
       gradientUnits="userSpaceOnUse"
       gradientTransform="translate(1,-1.400423)" />
    <linearGradient
       inkscape:collect="always"
       xlink:href="#linearGradient3651"
       id="linearGradient3918"
       x1="9"
       y1="20"
       x2="8"
       y2="15"
       gradientUnits="userSpaceOnUse"
       gradientTransform="translate(1,-1.400423)" />
    <linearGradient
       inkscape:collect="always"
       xlink:href="#linearGradient3651"
       id="linearGradient3920"
       x1="21"
       y1="19"
       x2="17"
       y2="15"
       gradientUnits="userSpaceOnUse"
       gradientTransform="translate(1,-1.400423)" />
    <linearGradient
       inkscape:collect="always"
       xlink:href="#linearGradient3651"
       id="linearGradient3924"
       x1="19"
       y1="32"
       x2="14"
       y2="25"
       gradientUnits="userSpaceOnUse"
       gradientTransform="translate(1,-1.400423)" />
    <radialGradient
       inkscape:collect="always"
       xlink:href="#linearGradient3791"
       id="radialGradient3928"
       cx="18.279524"
       cy="18.464081"
       fx="18.279524"
       fy="18.464081"
       r="2.6530985"
       gradientTransform="matrix(1.2749708,0.12471194,-0.02772057,0.28339524,-3.5144991,9.601204)"
       gradientUnits="userSpaceOnUse" />
    <radialGradient
       inkscape:collect="always"
       xlink:href="#linearGradient3791"
       id="radialGradient3930"
       cx="9.5674295"
       cy="19.419617"
       fx="9.5674295"
       fy="19.419617"
       r="1.8319015"
       gradientTransform="matrix(1,0,0,0.41253421,1,10.007936)"
       gradientUnits="userSpaceOnUse" />
    <linearGradient
       inkscape:collect="always"
       xlink:href="#linearGradient3651"
       id="linearGradient3934"
       x1="-66.425407"
       y1="-83.065193"
       x2="-70.712105"
       y2="-95.925285"
       gradientUnits="userSpaceOnUse" />
    <linearGradient
       inkscape:collect="always"
       xlink:href="#linearGradient3651"
       id="linearGradient3936"
       x1="-66.026016"
       y1="-79.003395"
       x2="-78.886116"
       y2="-96.150185"
       gradientUnits="userSpaceOnUse" />
    <linearGradient
       inkscape:collect="always"
       xlink:href="#linearGradient3651"
       id="linearGradient3938"
       x1="32"
       y1="44"
       x2="22"
       y2="29"
       gradientUnits="userSpaceOnUse"
       gradientTransform="translate(1,-1.400423)" />
    <linearGradient
       inkscape:collect="always"
       xlink:href="#linearGradient3651"
       id="linearGradient3940"
       x1="17"
       y1="47"
       x2="8"
       y2="31"
       gradientUnits="userSpaceOnUse"
       gradientTransform="translate(1,-1.400423)" />
    <linearGradient
       inkscape:collect="always"
       xlink:href="#linearGradient3651"
       id="linearGradient3942"
       x1="39"
       y1="48"
       x2="11"
       y2="31"
       gradientUnits="userSpaceOnUse"
       gradientTransform="translate(1,-1.400423)" />
    <linearGradient
       inkscape:collect="always"
       xlink:href="#linearGradient3791"
       id="linearGradient3944"
       x1="11.956126"
       y1="33.202323"
       x2="26"
       y2="39"
       gradientUnits="userSpaceOnUse"
       gradientTransform="translate(1,-1.400423)" />
    <linearGradient
       inkscape:collect="always"
       xlink:href="#linearGradient3651"
       id="linearGradient3946"
       x1="26"
       y1="65"
       x2="16"
       y2="36"
       gradientUnits="userSpaceOnUse"
       gradientTransform="translate(1,-1.400423)" />
    <linearGradient
       inkscape:collect="always"
       xlink:href="#linearGradient3679"
       id="linearGradient3977"
       x1="14.536355"
       y1="28.784924"
       x2="15.397642"
       y2="35.300781"
       gradientUnits="userSpaceOnUse"
       gradientTransform="translate(1,-1.400423)" />
    <linearGradient
       inkscape:collect="always"
       xlink:href="#linearGradient3679"
       id="linearGradient3979"
       x1="15.661602"
       y1="28.664122"
       x2="15.897595"
       y2="31.442793"
       gradientUnits="userSpaceOnUse"
       gradientTransform="translate(1,-1.400423)" />
    <filter
       inkscape:collect="always"
       id="filter3987"
       x="-0.20378419"
       width="1.4075684"
       y="-0.13670409"
       height="1.2734082">
      <feGaussianBlur
         inkscape:collect="always"
         stdDeviation="0.069778116"
         id="feGaussianBlur3989" />
    </filter>
    <filter
       inkscape:collect="always"
       id="filter4019">
      <feGaussianBlur
         inkscape:collect="always"
         stdDeviation="0.17782846"
         id="feGaussianBlur4021" />
    </filter>
    <filter
       inkscape:collect="always"
       id="filter4039"
       x="-0.28166462"
       width="1.5633292"
       y="-0.053030464"
       height="1.1060609">
      <feGaussianBlur
         inkscape:collect="always"
         stdDeviation="0.12431746"
         id="feGaussianBlur4041" />
    </filter>
    <filter
       inkscape:collect="always"
       id="filter4057"
       x="-0.39194264"
       width="1.7838853"
       y="-0.32781961"
       height="1.6556392">
      <feGaussianBlur
         inkscape:collect="always"
         stdDeviation="0.83750371"
         id="feGaussianBlur4059" />
    </filter>
    <filter
       inkscape:collect="always"
       id="filter4069"
       x="-0.25591608"
       width="1.5118322"
       y="-0.41761458"
       height="1.8352292">
      <feGaussianBlur
         inkscape:collect="always"
         stdDeviation="0.32666074"
         id="feGaussianBlur4071" />
    </filter>
    <filter
       inkscape:collect="always"
       id="filter4079"
       x="-0.12341831"
       width="1.2468366"
       y="-0.20373954"
       height="1.4074791">
      <feGaussianBlur
         inkscape:collect="always"
         stdDeviation="0.13108202"
         id="feGaussianBlur4081" />
    </filter>
    <filter
       inkscape:collect="always"
       id="filter3671"
       x="-0.033936797"
       width="1.0678736"
       y="-0.2344082"
       height="1.4688164">
      <feGaussianBlur
         inkscape:collect="always"
         stdDeviation="0.53063014"
         id="feGaussianBlur3673" />
    </filter>
  </defs>
  <sodipodi:namedview
     id="base"
     pagecolor="#ffffff"
     bordercolor="#666666"
     borderopacity="1.0"
     inkscape:pageopacity="0.0"
     inkscape:pageshadow="2"
     inkscape:zoom="1"
     inkscape:cx="24"
     inkscape:cy="24"
     inkscape:window-width="1476"
     inkscape:window-height="962"
     inkscape:window-x="83"
     inkscape:window-y="29"
     showgrid="false"
     inkscape:window-maximized="0"
     inkscape:current-layer="svg1"
     showguides="true"
     inkscape:guide-bbox="true">
    <inkscape:grid
       type="xygrid"
       id="grid2861" />
  </sodipodi:namedview>
  <metadata
     id="metadata4">
    <rdf:RDF>
      <cc:Work
         rdf:about="">
        <dc:format>image/svg+xml</dc:format>
        <dc:type
           rdf:resource="http://purl.org/dc/dcmitype/StillImage" />
        <dc:title />
      </cc:Work>
    </rdf:RDF>
  </metadata>
  <path
     transform="matrix(0.93986254,0,0,1.4712644,2.2547047,-20.971491)"
     style="fill:#000000;fill-opacity:0.76862744999999999;fill-rule:evenodd;stroke:none;filter:url(#filter3671)"
     d="m 43.972937,41.537212 c 0,1.560448 -8.393756,2.670045 -18.83211,2.604703 -7.05253,-0.04415 -18.6938926,-0.2496 -18.6938926,-1.810048 0,-1.560447 8.1859296,-3.620094 18.6247836,-3.620094 10.438855,0 18.901219,1.264992 18.901219,2.825439 z"
     id="path4083"
     sodipodi:nodetypes="csssc" />
  <path
     style="color:#000000;fill:url(#linearGradient3942);fill-opacity:1;stroke:none;stroke-width:1px;marker:none;visibility:visible;display:inline;overflow:visible;enable-background:accumulate"
     d="m 8.536408,41.599577 c 0.3599048,0.78065 29.635022,3.242747 34.770358,-1.377854 0,0 -0.282189,-1.61792 -1.608737,-3.828836 C 40.829854,34.945931 38.049954,31.47075 34.860182,27.623409 33.403107,25.865959 32.458377,22.752369 32,22.599577 c -1.326549,-0.442182 -12.095282,0.02247 -14.306198,3.180915 -2.210915,3.158452 -4.105986,3.032113 -4.421831,4.232324 -0.315845,1.200212 -3.586795,7.882892 -4.735563,11.586761 z"
     id="path3688"
     sodipodi:nodetypes="ccsssssc" />
  <path
     style="color:#000000;fill:url(#linearGradient3944);stroke:none;stroke-width:1px;marker:none;visibility:visible;display:inline;overflow:visible;enable-background:accumulate"
     d="M 19,22.599577 12.631363,40.679461 15.419718,41.004224 32,23.599577 c -1.568738,-0.545995 -8.666667,-0.666667 -13,-1 z"
     id="path3690"
     sodipodi:nodetypes="ccccc" />
  <path
     style="color:#000000;fill:url(#linearGradient3946);stroke:none;stroke-width:1px;marker:none;visibility:visible;display:inline;overflow:visible;enable-background:accumulate"
     d="m 16.304085,33.866125 c -0.177058,0.780369 -0.280018,1.554001 0.206816,2.274016 -2.335779,1.546678 -2.840224,3.762343 -4.130431,5.383704 l 2.468943,-0.126337 c 0.694859,-1.516056 1.774076,-2.833071 2.14953,-5.067789 1.003404,-1.187016 1.48503,-2.075873 2.084578,-3.032114 l -2.779436,0.56852 z"
     id="path3692"
     sodipodi:nodetypes="ccccccc" />
  <path
     style="color:#000000;fill:url(#linearGradient3940);fill-opacity:1;stroke:none;stroke-width:1px;marker:none;visibility:visible;display:inline;overflow:visible;enable-background:accumulate"
     d="m 13.524647,31.213031 c -1.8294,4.8144 -2.873788,7.625138 -4.0800959,10.57026 1.7079009,0.497044 2.8412549,0.557326 4.0918569,0.59707 0.462065,-2.505894 0.837273,-6.231972 2.262324,-8.577375 l -2.274085,-2.589932 0,-2.3e-5 z"
     id="path3686"
     sodipodi:nodetypes="cccccc" />
  <path
     style="color:#000000;fill:url(#linearGradient3704);fill-opacity:1;stroke:none;stroke-width:1px;marker:none;visibility:visible;display:inline;overflow:visible;enable-background:accumulate"
     d="m 12.577113,4.4925349 c 0,0 -2.147747,1.8950691 -2.589931,3.2847881 -0.442182,1.389718 -0.947534,3.284788 -0.821197,4.232324 0.126338,0.947536 -0.252676,4.737676 -0.06317,5.937887 0.189508,1.200211 -0.379014,2.400424 0.189508,4.105986 0.568521,1.705564 1.010704,3.726972 1.705563,5.179859 0.694859,1.452887 2.833725,4.693809 3.85331,5.87472 C 16.242739,34.719819 17,33.599577 17,33.599577 c 0,0 -0.759084,0.392887 0.441127,0.456056 1.200211,0.06318 3.15845,-0.252676 4.674508,-0.821197 1.516056,-0.56852 7.201268,-7.453944 7.453943,-8.590986 0.252677,-1.137042 0.315845,-4.232323 0.442183,-5.179859 C 30.1381,18.516055 29.885423,14.41007 29.695916,12.957183 29.506409,11.504295 27.674507,5.9454221 26.347958,4.7452093 25.02141,3.5449983 16.177747,2.0921106 12.577113,4.4925349 z"
     id="path3698"
     sodipodi:nodetypes="csssssscssssssc" />
  <path
     style="color:#000000;fill:url(#linearGradient3914);fill-opacity:1;stroke:none;stroke-width:1px;marker:none;visibility:visible;display:inline;overflow:visible;enable-background:accumulate"
     d="M 10.001451,7.82087 C 9.977338,7.7726436 10.721127,5.2306634 12.324436,3.7345053 13.402608,2.7283889 16.177747,1.0182384 19.77838,0.955068 c 4.643778,0.2484409 9.07068,2.5159317 9.917536,7.327608 0.221916,2.330122 0.229107,4.273717 0.292287,6.10562 -0.911492,-0.382212 -2.376865,1.980013 -2.376865,1.032477 0,-0.947536 0,-3.032112 -0.63169,-4.042816 C 26.347958,10.367253 24.326549,10.872604 24.452887,9.672393 24.625329,8.034198 25.084577,5.5664072 23.063168,5.0610562 21.041761,4.5557022 16.159539,4.945418 15.358333,5.7323552 14.671896,6.4065672 13.071391,3.1028146 10.001451,7.82087 z"
     id="path2898"
     sodipodi:nodetypes="cscccsssssc" />
  <path
     style="color:#000000;fill:url(#linearGradient3920);fill-opacity:1;stroke:none;stroke-width:1px;marker:none;visibility:visible;display:inline;overflow:visible;enable-background:accumulate"
     d="m 16.55676,15.041759 c 2.400703,-2.550473 4.353039,-0.84148 6.44324,-0.442182 -1.794151,0.214548 -4.111457,-0.355635 -5.306198,0.758026 -0.185437,0.143291 -0.685285,0.420611 -1.137042,-0.315844 z"
     id="path3672"
     sodipodi:nodetypes="cccc" />
  <path
     style="color:#000000;fill:url(#linearGradient3910);fill-opacity:1;stroke:none;stroke-width:1px;marker:none;visibility:visible;display:inline;overflow:visible;enable-background:accumulate"
     d="m 29.443239,19.905774 c 0.05269,-0.111545 1.110675,-3.676999 -0.189507,-4.548171 3.087761,-6.427856 3.746128,8.775768 0.189507,4.548171 z"
     id="path3674"
     sodipodi:nodetypes="ccc" />
  <path
     style="color:#000000;fill:url(#linearGradient3918);fill-opacity:1;stroke:none;stroke-width:1px;marker:none;visibility:visible;display:inline;overflow:visible;enable-background:accumulate"
     d="m 12.07176,15.231266 c -0.824381,-1.271699 -1.900333,-0.432924 -3.024978,-0.503569 -0.08796,0.122264 -0.313038,0.20535 0,0.442184 1.424604,-0.05594 2.080339,0.332221 2.835471,0.945751 0.314937,-0.137746 0.539641,-0.396871 0.189507,-0.884366 z"
     id="path3676"
     sodipodi:nodetypes="ccccc" />
  <path
     style="color:#000000;fill:url(#linearGradient3924);fill-opacity:1;stroke:none;stroke-width:1px;marker:none;visibility:visible;display:inline;overflow:visible;enable-background:accumulate"
     d="m 15.798732,25.717323 c -0.547306,-1.158258 -2.74522,0.471134 -2.968943,1.010704 -0.390878,0.942704 -0.126339,1.516056 -0.126339,1.516056 0.106621,-1.58752 2.260839,-0.942567 3.347958,-1.8319 0.734874,0.703607 2.502883,0.323403 4.737676,1.137041 0,0 -0.315846,-1.137041 -1.958239,-1.642394 -1.166048,-0.358783 -1.768734,-0.884367 -3.032113,-0.189507 z"
     id="path3678"
     sodipodi:nodetypes="cscccsc" />
  <path
     style="color:#000000;fill:url(#radialGradient3930);stroke:none;stroke-width:1px;marker:none;visibility:visible;display:inline;overflow:visible;enable-background:accumulate"
     d="m 9.608168,18.010703 c 1.36422,-1.530359 2.765136,-0.305923 3.663803,0.126338 0,0 -1.89507,1.516056 -3.663803,-0.126338 z"
     id="path3694"
     sodipodi:nodetypes="ccc" />
  <path
     sodipodi:type="arc"
     style="fill:url(#linearGradient3934);fill-rule:evenodd;stroke:none"
     id="path3680"
     sodipodi:cx="-72.299995"
     sodipodi:cy="-93.89212"
     sodipodi:rx="3.249438"
     sodipodi:ry="3.5202243"
     d="m -69.050557,-93.89212 a 3.249438,3.5202243 0 1 1 -6.498876,0 3.249438,3.5202243 0 1 1 6.498876,0 z"
     transform="matrix(0.23327978,0,0,0.23327978,28.495704,39.977007)" />
  <path
     style="color:#000000;fill:url(#radialGradient3928);fill-opacity:1;stroke:none;stroke-width:1px;marker:none;visibility:visible;display:inline;overflow:visible;enable-background:accumulate"
     d="m 18.262324,17.505351 c 0.289995,-0.78244 2.75347,-1.84376 5.306197,-0.505351 0,0 -2.968944,1.642393 -5.306197,0.505351 z"
     id="path3696"
     sodipodi:nodetypes="ccc" />
  <path
     transform="matrix(0.23327978,0,0,0.23327978,37.402535,39.029471)"
     d="m -69.050557,-93.89212 a 3.249438,3.5202243 0 1 1 -6.498876,0 3.249438,3.5202243 0 1 1 6.498876,0 z"
     sodipodi:ry="3.5202243"
     sodipodi:rx="3.249438"
     sodipodi:cy="-93.89212"
     sodipodi:cx="-72.299995"
     id="path3682"
     style="fill:url(#linearGradient3936);fill-opacity:1;fill-rule:evenodd;stroke:none"
     sodipodi:type="arc" />
  <path
     style="color:#000000;fill:url(#linearGradient3938);fill-opacity:1;stroke:none;stroke-width:1px;marker:none;visibility:visible;display:inline;overflow:visible;enable-background:accumulate"
     d="m 31.590986,22.558872 c -1.132179,5.465901 -14.416623,12.988395 -18.146435,19.729631 2.888265,0.451242 5.270243,0.579909 7.678501,0.551142 l 1.497934,-4.42535 2.58993,-0.505352 c 3.619959,-3.621195 6.655531,-7.075423 9.096338,-10.359719 0.228325,-1.782426 -0.375027,-4.225943 -2.716268,-4.990352 z"
     id="path3684"
     sodipodi:nodetypes="ccccccc" />
  <path
     style="color:#000000;fill:url(#linearGradient3912);stroke:none;stroke-width:1px;marker:none;visibility:visible;display:inline;overflow:visible;enable-background:accumulate"
     d="m 13,22.599577 c 0,0 -1,-1 -0.92824,0.527817 0.04888,1.040663 0.758028,1.516056 1.326549,1.073872 C 13.96683,23.759084 15.905774,22.346901 13,22.599577 z"
     id="path3702"
     sodipodi:nodetypes="cssc" />
  <path
     style="color:#000000;fill:url(#linearGradient3908);stroke:none;stroke-width:1px;marker:none;visibility:visible;display:inline;overflow:visible;enable-background:accumulate"
     d="m 16.935775,21.611336 c -1.305767,-0.458155 -1.790516,-4.175251 -2.779438,-4.484998 0,0 0,3.979646 -0.505352,5.116689 -0.505351,1.137042 -0.568521,2.147747 0.126338,2.147747 0.69486,0 1.010705,-0.821197 2.021409,-0.379015 1.010704,0.442183 3.158451,0.505352 3.032113,-0.442182 -0.126338,-0.947535 -1.89507,-1.958241 -1.89507,-1.958241 z"
     id="path3700"
     sodipodi:nodetypes="ccssssc" />
  <path
     style="color:#000000;fill:url(#linearGradient3979);fill-opacity:1;stroke:none;stroke-width:1px;marker:none;visibility:visible;display:inline;overflow:visible;enable-background:accumulate"
     d="m 13.471581,27.478586 c 0,0 0.752685,-0.244623 1.392466,-0.09409 0.639781,0.150536 0.658257,-0.0016 1.392466,-0.169355 1.059905,-0.242335 2.496821,0.303028 3.010742,0.13172 0,0.299605 -4.365573,1.275898 -5.795674,0.131721 z"
     id="path3948"
     sodipodi:nodetypes="csscc" />
  <path
     style="color:#000000;fill:url(#linearGradient3977);fill-opacity:1;stroke:none;stroke-width:1px;marker:none;visibility:visible;display:inline;overflow:visible;enable-background:accumulate"
     d="m 13.528032,27.497401 c 1.800282,0.458646 3.688561,0.530117 5.739221,-0.112901 0,0 -0.673666,1.723754 -3.048373,1.768809 -1.990526,0.03777 -2.258055,-1.354833 -2.690848,-1.655908 z"
     id="path3950"
     sodipodi:nodetypes="ccsc" />
  <path
     style="color:#000000;fill:#ffffff;fill-opacity:0.4642857;stroke:none;stroke-width:1px;marker:none;visibility:visible;display:inline;overflow:visible;filter:url(#filter3987);enable-background:accumulate"
     d="m 11.127223,18.62915 c -0.01201,-0.492006 -0.124861,-1.020026 0.688927,-1.217104 0,0 -1.217104,-0.183714 -0.688927,1.217104 z"
     id="path3981"
     sodipodi:nodetypes="ccc" />
  <path
     sodipodi:nodetypes="ccc"
     id="path3991"
     d="m 20.014378,17.756509 c -0.01201,-0.492006 -0.124861,-1.020026 0.688927,-1.217104 0,0 -1.217103,-0.183714 -0.688927,1.217104 z"
     style="color:#000000;fill:#ffffff;fill-opacity:0.4642857;stroke:none;stroke-width:1px;marker:none;visibility:visible;display:inline;overflow:visible;filter:url(#filter3987);enable-background:accumulate" />
  <path
     style="color:#000000;fill:#ffffff;fill-opacity:0.5625;stroke:none;stroke-width:1px;marker:none;visibility:visible;display:inline;overflow:visible;filter:url(#filter4019);enable-background:accumulate"
     d="m 10.759796,6.5958959 c 0,0 -0.222035,-0.7787773 1.607496,-2.6408859 1.138944,-1.159225 3.961028,-2.3214618 4.684702,-2.4571722 0.740666,-0.1388968 -4.658784,1.58318 -6.292198,5.0980581 z"
     id="path3993"
     sodipodi:nodetypes="cssc" />
  <path
     style="color:#000000;fill:#ffffff;fill-opacity:0.17857145;stroke:none;stroke-width:1px;marker:none;visibility:visible;display:inline;overflow:visible;filter:url(#filter4057);enable-background:accumulate"
     d="m 13.194004,6.0677187 c 0,0 -1.464551,0.6944508 -2.250494,2.0438161 -0.835063,1.4336982 -0.824589,2.6485632 -0.987462,4.0876322 6.470755,5.42e-4 5.92243,-3.143435 3.237956,-6.1314483 z"
     id="path4023"
     sodipodi:nodetypes="cscc" />
  <path
     style="color:#000000;fill:#ffffff;fill-opacity:0.21875;stroke:none;stroke-width:1px;marker:none;visibility:visible;display:inline;overflow:visible;filter:url(#filter4039);enable-background:accumulate"
     d="m 14.319248,18.238758 c 0,0 -0.183711,1.997888 -0.16075,2.457172 0.02297,0.459285 -0.344463,1.423782 -0.505213,2.020852 -0.160749,0.59707 -0.482248,1.148212 10e-7,1.148212 0.482248,0 1.079318,-3.536492 0.665962,-5.626236 z"
     id="path4037"
     sodipodi:nodetypes="csssc" />
  <path
     style="color:#000000;fill:#ffffff;fill-opacity:0.0982143;stroke:none;stroke-width:1px;marker:none;visibility:visible;display:inline;overflow:visible;filter:url(#filter4069);enable-background:accumulate"
     d="m 10.759796,19.616612 c -0.420975,0.191352 -0.908039,1.235282 -0.275571,1.561567 0.520316,0.268426 2.709779,0.206678 2.755707,-0.229642 0.04593,-0.43632 -0.252606,-1.974923 -2.480136,-1.331925 z"
     id="path4043"
     sodipodi:nodetypes="cssc" />
  <path
     style="color:#000000;fill:#ffffff;fill-opacity:0.35267855;stroke:none;stroke-width:1px;marker:none;visibility:visible;display:inline;overflow:visible;filter:url(#filter4079);enable-background:accumulate"
     d="m 12.826576,27.079985 c 0.815154,-0.605029 1.563285,-1.478149 2.549029,-1.400818 -0.410008,-0.256255 -1.379271,-0.359702 -2.549029,1.400818 z"
     id="path4073"
     sodipodi:nodetypes="ccc" />
</svg>
