<?xml version="1.0" encoding="UTF-8" standalone="no"?>
<!-- Created with Inkscape (http://www.inkscape.org/) -->

<svg
   xmlns:dc="http://purl.org/dc/elements/1.1/"
   xmlns:cc="http://creativecommons.org/ns#"
   xmlns:rdf="http://www.w3.org/1999/02/22-rdf-syntax-ns#"
   xmlns:svg="http://www.w3.org/2000/svg"
   xmlns="http://www.w3.org/2000/svg"
   xmlns:xlink="http://www.w3.org/1999/xlink"
   xmlns:sodipodi="http://sodipodi.sourceforge.net/DTD/sodipodi-0.dtd"
   xmlns:inkscape="http://www.inkscape.org/namespaces/inkscape"
   id="svg1"
   sodipodi:version="0.32"
   inkscape:version="0.47 r22583"
   width="48"
   height="48"
   sodipodi:docname="martin-luther-king-day02.svg"
   version="1.1"
   inkscape:export-filename="martin-luther-king-day02.png"
   inkscape:export-xdpi="89.949997"
   inkscape:export-ydpi="89.949997">
  <defs
     id="defs3">
    <linearGradient
       id="linearGradient3791">
      <stop
         id="stop3793"
         offset="0"
         style="stop-color:#e6e6e6;stop-opacity:1;" />
      <stop
         id="stop3795"
         offset="1"
         style="stop-color:#d5d5d5;stop-opacity:1;" />
    </linearGradient>
    <linearGradient
       id="linearGradient3679">
      <stop
         id="stop3681"
         offset="0"
         style="stop-color:#552200;stop-opacity:1;" />
      <stop
         id="stop3683"
         offset="1"
         style="stop-color:#b6632c;stop-opacity:1;" />
    </linearGradient>
    <linearGradient
       id="linearGradient3651">
      <stop
         id="stop3653"
         offset="0"
         style="stop-color:#555555;stop-opacity:1;" />
      <stop
         id="stop3655"
         offset="1"
         style="stop-color:#000000;stop-opacity:1;" />
    </linearGradient>
    <linearGradient
       inkscape:collect="always"
       xlink:href="#linearGradient3679"
       id="linearGradient3268"
       x1="6.2289281"
       y1="9.1587267"
       x2="13.174599"
       y2="14.623075"
       gradientUnits="userSpaceOnUse"
       gradientTransform="matrix(1.619181,0,0,1.619181,-6.5349867,-7.9011975)" />
    <linearGradient
       inkscape:collect="always"
       xlink:href="#linearGradient3679"
       id="linearGradient3270"
       x1="0.28350675"
       y1="15.36613"
       x2="7.392774"
       y2="19.625511"
       gradientUnits="userSpaceOnUse"
       gradientTransform="matrix(1.1279895,0,0,1.1279895,-1.417925,-1.5610252)" />
    <linearGradient
       inkscape:collect="always"
       xlink:href="#linearGradient3679"
       id="linearGradient3272"
       x1="12.654796"
       y1="18.931265"
       x2="17.602716"
       y2="20.55508"
       gradientUnits="userSpaceOnUse"
       gradientTransform="matrix(1.1279895,0,0,1.1279895,-1.417925,-1.5610252)" />
    <linearGradient
       id="linearGradient3635">
      <stop
         id="stop3637"
         offset="0"
         style="stop-color:#003e8c;stop-opacity:1;" />
      <stop
         id="stop3639"
         offset="1"
         style="stop-color:#0062db;stop-opacity:1;" />
    </linearGradient>
    <linearGradient
       inkscape:collect="always"
       xlink:href="#linearGradient3635"
       id="linearGradient3354"
       x1="1.8582333"
       y1="19.403938"
       x2="15.470154"
       y2="28.237498"
       gradientUnits="userSpaceOnUse"
       gradientTransform="matrix(1.1279895,0,0,1.1279895,-1.417925,-1.5610252)" />
    <linearGradient
       inkscape:collect="always"
       xlink:href="#linearGradient3679"
       id="linearGradient3356"
       x1="4.2790471"
       y1="32.866941"
       x2="9.2834406"
       y2="39.297253"
       gradientUnits="userSpaceOnUse"
       gradientTransform="matrix(1.1279895,0,0,1.1279895,-1.417925,-1.5610252)" />
    <linearGradient
       inkscape:collect="always"
       xlink:href="#linearGradient3679"
       id="linearGradient3358"
       x1="11.758066"
       y1="34.2507"
       x2="15.987431"
       y2="41.720257"
       gradientUnits="userSpaceOnUse"
       gradientTransform="matrix(1.1279895,0,0,1.1279895,-1.417925,-1.5610252)" />
    <linearGradient
       inkscape:collect="always"
       xlink:href="#linearGradient3791"
       id="linearGradient3360"
       x1="7.7943163"
       y1="15.848444"
       x2="10.852148"
       y2="18.804306"
       gradientUnits="userSpaceOnUse"
       gradientTransform="matrix(1.1279895,0,0,1.1279895,-1.417925,-1.5610252)" />
    <linearGradient
       inkscape:collect="always"
       xlink:href="#linearGradient3651"
       id="linearGradient3564"
       x1="35.48756"
       y1="32.021652"
       x2="29.163734"
       y2="24.721128"
       gradientUnits="userSpaceOnUse"
       gradientTransform="matrix(1.1279895,0,0,1.1279895,-1.417925,-1.5610252)" />
    <linearGradient
       id="linearGradient3649">
      <stop
         style="stop-color:#ff9b24;stop-opacity:1;"
         offset="0"
         id="stop3651" />
      <stop
         style="stop-color:#ffbf00;stop-opacity:1;"
         offset="1"
         id="stop3653-9" />
    </linearGradient>
    <linearGradient
       id="linearGradient3764">
      <stop
         id="stop3766"
         offset="0"
         style="stop-color:#7ed249;stop-opacity:1;" />
      <stop
         id="stop3768"
         offset="1"
         style="stop-color:#286325;stop-opacity:1;" />
    </linearGradient>
    <linearGradient
       id="linearGradient3770">
      <stop
         id="stop3772"
         offset="0"
         style="stop-color:#d1f6f6;stop-opacity:1;" />
      <stop
         id="stop3774"
         offset="1"
         style="stop-color:#2adbdb;stop-opacity:1;" />
    </linearGradient>
    <linearGradient
       inkscape:collect="always"
       xlink:href="#linearGradient3770"
       id="linearGradient3660"
       x1="39.036537"
       y1="28.254398"
       x2="28.384304"
       y2="11.106901"
       gradientUnits="userSpaceOnUse"
       gradientTransform="matrix(1.1279895,0,0,1.1279895,-1.417925,-1.5610252)" />
    <linearGradient
       inkscape:collect="always"
       xlink:href="#linearGradient3651"
       id="linearGradient3664"
       x1="38.581867"
       y1="27.34506"
       x2="28.774019"
       y2="12.178619"
       gradientUnits="userSpaceOnUse"
       gradientTransform="matrix(1.1279895,0,0,1.1279895,-1.417925,-1.5610252)" />
    <linearGradient
       inkscape:collect="always"
       xlink:href="#linearGradient3679"
       id="linearGradient3670"
       x1="32.559536"
       y1="8.3676796"
       x2="38.032307"
       y2="14.180941"
       gradientUnits="userSpaceOnUse"
       gradientTransform="matrix(1.4933437,0,0,1.4933437,-14.793667,-7.2079448)" />
    <linearGradient
       id="linearGradient2911">
      <stop
         style="stop-color:#9a5723;stop-opacity:1;"
         offset="0"
         id="stop2913" />
      <stop
         style="stop-color:#db9762;stop-opacity:1;"
         offset="1"
         id="stop2915" />
    </linearGradient>
    <linearGradient
       inkscape:collect="always"
       xlink:href="#linearGradient2911"
       id="linearGradient3824"
       x1="25.074463"
       y1="19.444204"
       x2="30.369223"
       y2="22.222263"
       gradientUnits="userSpaceOnUse"
       gradientTransform="matrix(1.1279895,0,0,1.1279895,-1.417925,-1.5610252)" />
    <linearGradient
       inkscape:collect="always"
       xlink:href="#linearGradient2911"
       id="linearGradient3826"
       x1="24.019434"
       y1="18.535568"
       x2="40.782978"
       y2="22.892021"
       gradientUnits="userSpaceOnUse"
       gradientTransform="matrix(1.1279895,0,0,1.1279895,-1.417925,-1.5610252)" />
    <linearGradient
       inkscape:collect="always"
       xlink:href="#linearGradient2911"
       id="linearGradient3828"
       x1="26.239773"
       y1="9.473814"
       x2="35.820507"
       y2="15.365795"
       gradientUnits="userSpaceOnUse"
       gradientTransform="matrix(1.4933437,0,0,1.4933437,-14.793667,-7.2079448)" />
    <linearGradient
       inkscape:collect="always"
       xlink:href="#linearGradient3649"
       id="linearGradient3830"
       x1="22.20875"
       y1="9.7497387"
       x2="25.849882"
       y2="12.112062"
       gradientUnits="userSpaceOnUse"
       gradientTransform="matrix(1.4596762,0,0,1.4596762,-9.2460749,-6.2968349)" />
    <linearGradient
       inkscape:collect="always"
       xlink:href="#linearGradient3649"
       id="linearGradient3834"
       x1="24.519621"
       y1="10.976996"
       x2="29.228687"
       y2="12.901688"
       gradientUnits="userSpaceOnUse"
       gradientTransform="matrix(1.1279895,0,0,1.1279895,-1.417925,-1.5610252)" />
    <linearGradient
       inkscape:collect="always"
       xlink:href="#linearGradient3649"
       id="linearGradient3839"
       gradientUnits="userSpaceOnUse"
       x1="24.519621"
       y1="10.976996"
       x2="29.228687"
       y2="12.901688"
       gradientTransform="matrix(-1.086515,-0.30306029,-0.30306029,1.086515,54.122436,6.4023778)" />
    <linearGradient
       inkscape:collect="always"
       xlink:href="#linearGradient3764"
       id="linearGradient3841"
       x1="26.186472"
       y1="22.070883"
       x2="16.405521"
       y2="14.24409"
       gradientUnits="userSpaceOnUse"
       gradientTransform="matrix(1.1279895,0,0,1.1279895,-1.417925,-1.5610252)" />
    <linearGradient
       inkscape:collect="always"
       xlink:href="#linearGradient3764"
       id="linearGradient3849"
       x1="25.169147"
       y1="29.326115"
       x2="17.785332"
       y2="22.565512"
       gradientUnits="userSpaceOnUse"
       gradientTransform="matrix(1.1279895,0,0,1.1279895,-1.417925,-1.5610252)" />
    <linearGradient
       inkscape:collect="always"
       xlink:href="#linearGradient2911"
       id="linearGradient4677"
       x1="8.7287111"
       y1="-0.98870385"
       x2="23.80706"
       y2="12.927617"
       gradientUnits="userSpaceOnUse" />
    <linearGradient
       inkscape:collect="always"
       xlink:href="#linearGradient2911"
       id="linearGradient4679"
       x1="11.543176"
       y1="15.063867"
       x2="21.281429"
       y2="21.953135"
       gradientUnits="userSpaceOnUse" />
    <linearGradient
       inkscape:collect="always"
       xlink:href="#linearGradient2911"
       id="linearGradient4681"
       x1="19.110552"
       y1="15.414737"
       x2="30.979599"
       y2="23.31443"
       gradientUnits="userSpaceOnUse" />
    <linearGradient
       inkscape:collect="always"
       xlink:href="#linearGradient2911"
       id="linearGradient4683"
       x1="13.498151"
       y1="25.795265"
       x2="23.932068"
       y2="32.317103"
       gradientUnits="userSpaceOnUse" />
    <linearGradient
       inkscape:collect="always"
       xlink:href="#linearGradient2911"
       id="linearGradient4685"
       x1="18.637711"
       y1="27.194246"
       x2="28.398377"
       y2="32.981231"
       gradientUnits="userSpaceOnUse" />
    <linearGradient
       inkscape:collect="always"
       xlink:href="#linearGradient2911"
       id="linearGradient4695"
       x1="20.979702"
       y1="15.730294"
       x2="25.201624"
       y2="17.516491"
       gradientUnits="userSpaceOnUse" />
    <linearGradient
       id="linearGradient2868">
      <stop
         id="stop2870"
         offset="0"
         style="stop-color:#d700d7;stop-opacity:1;" />
      <stop
         id="stop2872"
         offset="1"
         style="stop-color:#6e006e;stop-opacity:1;" />
    </linearGradient>
    <linearGradient
       inkscape:collect="always"
       xlink:href="#linearGradient2868"
       id="linearGradient4899"
       x1="26.273342"
       y1="24.894764"
       x2="22.148849"
       y2="24.92724"
       gradientUnits="userSpaceOnUse" />
    <filter
       inkscape:collect="always"
       id="filter4907"
       x="-0.32985381"
       width="1.6597076"
       y="-0.058360011"
       height="1.11672">
      <feGaussianBlur
         inkscape:collect="always"
         stdDeviation="0.14925756"
         id="feGaussianBlur4909" />
    </filter>
    <filter
       inkscape:collect="always"
       id="filter4931"
       x="-0.13751006"
       width="1.2750201"
       y="-0.1414903"
       height="1.2829806">
      <feGaussianBlur
         inkscape:collect="always"
         stdDeviation="0.14722321"
         id="feGaussianBlur4933" />
    </filter>
    <filter
       inkscape:collect="always"
       id="filter4935"
       x="-0.11101833"
       width="1.2220367"
       y="-0.16752729"
       height="1.3350546">
      <feGaussianBlur
         inkscape:collect="always"
         stdDeviation="0.14722321"
         id="feGaussianBlur4937" />
    </filter>
    <filter
       inkscape:collect="always"
       id="filter4947"
       x="-0.073800732"
       width="1.1476015"
       y="-0.11289987"
       height="1.2257997">
      <feGaussianBlur
         inkscape:collect="always"
         stdDeviation="0.13313019"
         id="feGaussianBlur4949" />
    </filter>
    <filter
       inkscape:collect="always"
       id="filter4973"
       x="-0.093552453"
       width="1.1871049"
       y="-0.1634958"
       height="1.3269916">
      <feGaussianBlur
         inkscape:collect="always"
         stdDeviation="0.1637233"
         id="feGaussianBlur4975" />
    </filter>
    <filter
       inkscape:collect="always"
       id="filter4987"
       x="-0.26037737"
       width="1.5207547"
       y="-0.068999999"
       height="1.138">
      <feGaussianBlur
         inkscape:collect="always"
         stdDeviation="0.18673884"
         id="feGaussianBlur4989" />
    </filter>
    <filter
       inkscape:collect="always"
       id="filter4999"
       x="-0.2128203"
       width="1.4256406"
       y="-0.20389959"
       height="1.4077992">
      <feGaussianBlur
         inkscape:collect="always"
         stdDeviation="0.21886795"
         id="feGaussianBlur5001" />
    </filter>
    <filter
       inkscape:collect="always"
       id="filter5017"
       x="-0.25401931"
       width="1.5080386"
       y="-0.26180055"
       height="1.5236011">
      <feGaussianBlur
         inkscape:collect="always"
         stdDeviation="0.12718152"
         id="feGaussianBlur5019" />
    </filter>
    <linearGradient
       inkscape:collect="always"
       xlink:href="#linearGradient2868"
       id="linearGradient5025"
       x1="21.24099"
       y1="38.120407"
       x2="17.476662"
       y2="35.318771"
       gradientUnits="userSpaceOnUse" />
    <linearGradient
       inkscape:collect="always"
       xlink:href="#linearGradient2868"
       id="linearGradient5027"
       x1="27.648928"
       y1="41.110733"
       x2="25.21472"
       y2="37.528313"
       gradientUnits="userSpaceOnUse" />
    <linearGradient
       inkscape:collect="always"
       xlink:href="#linearGradient3651"
       id="linearGradient5029"
       x1="36.271191"
       y1="40.628723"
       x2="35.210545"
       y2="36.678875"
       gradientUnits="userSpaceOnUse" />
    <linearGradient
       inkscape:collect="always"
       xlink:href="#linearGradient3651"
       id="linearGradient5031"
       x1="41.473389"
       y1="43.177513"
       x2="40.279251"
       y2="38.768383"
       gradientUnits="userSpaceOnUse" />
    <filter
       inkscape:collect="always"
       id="filter3750"
       x="-0.034801424"
       width="1.0696028"
       y="-0.2174444"
       height="1.4348888">
      <feGaussianBlur
         inkscape:collect="always"
         stdDeviation="0.61198965"
         id="feGaussianBlur3752" />
    </filter>
  </defs>
  <sodipodi:namedview
     id="base"
     pagecolor="#ffffff"
     bordercolor="#666666"
     borderopacity="1.0"
     inkscape:pageopacity="0.0"
     inkscape:pageshadow="2"
     inkscape:zoom="1"
     inkscape:cx="24"
     inkscape:cy="24"
     inkscape:window-width="1476"
     inkscape:window-height="962"
     inkscape:window-x="196"
     inkscape:window-y="36"
     showgrid="false"
     inkscape:window-maximized="0"
     inkscape:current-layer="svg1"
     showguides="true"
     inkscape:guide-bbox="true"
     inkscape:snap-global="false">
    <inkscape:grid
       type="xygrid"
       id="grid2861" />
  </sodipodi:namedview>
  <metadata
     id="metadata4">
    <rdf:RDF>
      <cc:Work
         rdf:about="">
        <dc:format>image/svg+xml</dc:format>
        <dc:type
           rdf:resource="http://purl.org/dc/dcmitype/StillImage" />
        <dc:title />
      </cc:Work>
    </rdf:RDF>
  </metadata>
  <path
     style="fill:#000000;fill-opacity:0.76862744999999999;fill-rule:evenodd;stroke:none;filter:url(#filter3750)"
     d="M 5.3125 35.0625 C 3.9212937 35.14805 2.9350235 35.502736 2.90625 35.96875 C 2.867885 36.590102 4.5629917 37.181325 6.6875 37.3125 C 7.98226 37.39244 9.1288812 37.27499 9.84375 37.03125 C 10.379765 37.552512 11.491654 38.131803 12.84375 38.5625 C 14.871894 39.208545 16.654802 39.249418 16.84375 38.65625 C 17.032698 38.063082 15.559394 37.083545 13.53125 36.4375 C 12.225559 36.021585 11.02804 35.84466 10.28125 35.9375 C 9.7044557 35.5082 8.3771259 35.159106 6.8125 35.0625 C 6.2813729 35.02971 5.7762354 35.03399 5.3125 35.0625 z M 19.40625 35.96875 C 18.015043 36.0543 17.935023 36.408986 17.90625 36.875 C 17.86789 37.496352 19.062991 37.556325 21.1875 37.6875 C 22.48226 37.76744 23.535131 37.52499 24.25 37.28125 C 24.786015 37.802512 25.835404 38.381803 27.1875 38.8125 C 29.215644 39.458545 29.654802 40.093168 29.84375 39.5 C 30.032698 38.906832 29.653144 37.989795 27.625 37.34375 C 26.319309 36.927835 25.12179 36.75091 24.375 36.84375 C 23.798205 36.41445 22.470875 36.065356 20.90625 35.96875 C 20.375122 35.93596 19.869985 35.94024 19.40625 35.96875 z M 33.5625 37.78125 C 32.171294 37.8668 31.185023 38.221486 31.15625 38.6875 C 31.11789 39.308852 32.812992 39.900075 34.9375 40.03125 C 36.23226 40.11119 37.378881 39.99374 38.09375 39.75 C 38.629765 40.271262 39.741654 40.850553 41.09375 41.28125 C 43.121894 41.927295 44.904802 41.968168 45.09375 41.375 C 45.282698 40.781832 43.809394 39.802295 41.78125 39.15625 C 40.475559 38.740335 39.27804 38.56341 38.53125 38.65625 C 37.954456 38.22695 36.627126 37.877856 35.0625 37.78125 C 34.531373 37.74846 34.026235 37.75274 33.5625 37.78125 z "
     id="path3719" />
  <path
     style="color:#000000;fill:url(#linearGradient5025);fill-opacity:1;stroke:none;stroke-width:1px;marker:none;visibility:visible;display:inline;overflow:visible;enable-background:accumulate"
     d="m 22.291106,36.027573 c 0,0 0.353853,0.23544 0.271063,0.832264 -0.200312,1.444046 -1.492975,-0.156505 -2.148985,0.857187 -1.205504,-0.231828 -1.360682,-0.04177 -2.10253,-0.829985 -0.449398,-0.477487 0.212362,-1.073299 0.907845,-1.166029 0.695482,-0.09273 2.516221,-0.06437 3.072607,0.306563 z"
     id="path3211"
     sodipodi:nodetypes="cscssc" />
  <path
     style="color:#000000;fill:url(#linearGradient4683);fill-opacity:1;stroke:none;stroke-width:1px;marker:none;visibility:visible;display:inline;overflow:visible;enable-background:accumulate"
     d="m 21.367762,28.148297 c -1.019265,2.707406 -0.603168,5.255329 -0.842559,7.876083 0.433506,0.540251 0.946492,0.64336 1.575217,0.1099 0.138037,-1.706548 0.276072,-2.460879 0.414109,-5.119642 l 1.417539,-2.206949 -2.564306,-0.659392 z"
     id="path3666"
     sodipodi:nodetypes="cccccc" />
  <path
     sodipodi:nodetypes="cccccscscc"
     id="path3181"
     d="m 42.600169,21.409526 1.605726,1.945109 1.069742,3.479118 c -0.342735,-0.09792 -0.404383,0.934309 -0.288391,0.967449 0.06573,-0.089 0.222046,-0.488675 0.417908,-0.475285 0.255703,-0.06392 -0.992474,2.409634 0.261161,1.731121 1.25557,-0.679559 0.835805,-1.986706 0.835805,-1.986706 0,0 0.03067,-4.624445 -1.615843,-6.168665 -0.736339,-0.690598 -1.37231,-1.554764 -1.37231,-1.554764 l -0.913798,2.062623 z"
     style="color:#000000;fill:url(#linearGradient3826);fill-opacity:1;stroke:none;stroke-width:1px;marker:none;visibility:visible;display:inline;overflow:visible;enable-background:accumulate" />
  <path
     sodipodi:nodetypes="cccccscscc"
     id="path3203"
     d="m 28.663669,20.003737 1.935422,1.72531 c 0.713391,1.1663 0.684944,2.438576 0.740046,3.698916 -0.342735,-0.09792 -0.404383,0.934309 -0.288391,0.96745 0.06573,-0.089 0.222046,-0.488676 0.417908,-0.475286 0.255703,-0.06392 -0.992474,2.409634 0.261161,1.731121 1.25557,-0.679559 0.835805,-1.986706 0.835805,-1.986706 0,0 0.03067,-4.624445 -1.615843,-6.168665 -0.736338,-0.690598 -1.37231,-1.554764 -1.37231,-1.554764 l -0.913798,2.062624 z"
     style="color:#000000;fill:url(#linearGradient4681);fill-opacity:1;stroke:none;stroke-width:1px;marker:none;visibility:visible;display:inline;overflow:visible;enable-background:accumulate" />
  <path
     sodipodi:nodetypes="cccccscscc"
     id="path3225"
     d="m 14.468401,18.77348 1.605726,1.945109 1.069743,3.479118 c -0.342736,-0.09792 -0.404384,0.934309 -0.288391,0.967449 0.06573,-0.089 0.222046,-0.488675 0.417907,-0.475285 0.255703,-0.06392 -0.992474,2.409634 0.261162,1.731121 1.255569,-0.67956 0.835805,-1.986706 0.835805,-1.986706 0,0 0.03067,-4.624445 -1.615844,-6.168665 -0.736338,-0.690598 -1.37231,-1.554764 -1.37231,-1.554764 l -0.913798,2.062623 z"
     style="color:#000000;fill:url(#linearGradient3272);fill-opacity:1;stroke:none;stroke-width:1px;marker:none;visibility:visible;display:inline;overflow:visible;enable-background:accumulate" />
  <path
     style="color:#000000;fill:url(#linearGradient3824);fill-opacity:1;stroke:none;stroke-width:1px;marker:none;visibility:visible;display:inline;overflow:visible;enable-background:accumulate"
     d="m 35.052814,20.547839 -1.782948,1.784069 -1.394855,3.361992 c 0.1956,-0.01898 0.672775,0.944103 0.607862,0.950402 -0.457681,0.07421 -0.546576,-0.416929 -0.789097,-0.672561 0,0 0.767255,2.693471 -0.418523,1.898375 -1.185777,-0.795099 -0.39068,-1.980876 -0.39068,-1.980876 0,0 -0.03222,-4.498023 1.753324,-5.87914 0.798511,-0.617658 2.06717,-1.016118 2.06717,-1.016118 l 0.347747,1.553857 z"
     id="path3183"
     sodipodi:nodetypes="cccccscscc" />
  <path
     style="color:#000000;fill:url(#linearGradient4679);fill-opacity:1;stroke:none;stroke-width:1px;marker:none;visibility:visible;display:inline;overflow:visible;enable-background:accumulate"
     d="m 21.116314,19.14205 -1.929479,1.271208 c -0.567556,1.140169 -0.857677,2.557774 -1.248324,3.874852 0.1956,-0.01898 0.672775,0.944103 0.607862,0.950403 -0.457681,0.07421 -0.546576,-0.41693 -0.789097,-0.672562 0,0 0.767255,2.693471 -0.418523,1.898375 -1.185777,-0.795098 -0.39068,-1.980876 -0.39068,-1.980876 0,0 -0.03222,-4.498023 1.753324,-5.87914 0.798511,-0.617658 2.580032,-1.309181 2.580032,-1.309181 l -0.165115,1.846921 z"
     id="path3205"
     sodipodi:nodetypes="cccccscscc" />
  <path
     style="color:#000000;fill:url(#linearGradient3270);fill-opacity:1;stroke:none;stroke-width:1px;marker:none;visibility:visible;display:inline;overflow:visible;enable-background:accumulate"
     d="m 6.9210466,17.911793 -1.7829473,1.784069 -1.3948549,3.361992 c 0.1956002,-0.01898 0.6727747,0.944102 0.6078623,0.950402 -0.4576818,0.07421 -0.5465764,-0.416929 -0.7890975,-0.672561 0,0 0.7672551,2.693471 -0.4185225,1.898375 -1.1857775,-0.795099 -0.3906803,-1.980876 -0.3906803,-1.980876 0,0 -0.032215,-4.498023 1.7533244,-5.87914 0.7985105,-0.617658 2.1404355,-1.309181 2.1404355,-1.309181 l 0.2744803,1.84692 z"
     id="path3227"
     sodipodi:nodetypes="cccccscscc" />
  <path
     style="color:#000000;fill:url(#linearGradient3660);fill-opacity:1;stroke:none;stroke-width:1px;marker:none;visibility:visible;display:inline;overflow:visible;enable-background:accumulate"
     d="m 35.078365,26.324148 c -0.253355,-2.189237 -0.06899,-3.503026 0,-5.047582 -0.531836,0.618857 -0.807047,0.570688 -1.494468,0.878374 -0.121795,-0.926431 -0.859486,-1.062735 -0.590137,-2.536768 1.706662,-1.509869 2.757615,-1.951237 4.103637,-2.379673 l 4.038066,0 c 2.37022,0.241368 2.745157,2.200501 3.808569,3.421975 0.184631,1.398662 -0.479786,1.660559 -1.461682,2.241699 -0.448508,-0.520125 -0.966937,-0.480881 -1.33737,-1.625607 -0.254469,1.696302 -0.07207,3.348917 -0.941787,5.106744 l -0.06772,0.950354 -6.057099,0 -5e-6,-1.009516 z"
     id="path3185"
     sodipodi:nodetypes="ccccccccccccc" />
  <path
     style="color:#000000;fill:url(#linearGradient3664);fill-opacity:1;stroke:none;stroke-width:1px;marker:none;visibility:visible;display:inline;overflow:visible;enable-background:accumulate"
     d="m 35.141757,26.426552 c -0.322641,-0.174716 -0.310211,-3.731667 -0.293064,-3.736566 0,0 0.879191,-0.146531 0.805924,-0.512861 -0.07326,-0.366329 -0.293063,-4.30437 -0.293063,-4.30437 0.306309,-0.394683 0.652761,-0.468228 1.007406,-0.47623 -0.318621,1.091494 -0.236506,2.211611 0.128216,3.351915 -0.05147,0.488998 3.087197,0.473433 3.516762,-0.183164 0.38033,-0.581339 1.062219,-3.378495 0.750976,-3.425181 0.344631,-0.111964 0.650469,-0.107542 0.897508,0.07327 0.0052,2.072542 -0.477173,3.495152 -0.73266,5.220195 0.317528,0.329527 0.764609,0.140843 1.172254,0.1099 -0.453454,1.25509 0.180099,2.449068 -0.989089,3.883092 -0.225141,1.575984 -5.389931,1.829225 -5.97117,-4e-6 z"
     id="path3662"
     sodipodi:nodetypes="ccscccscccccc" />
  <path
     style="color:#000000;fill:url(#linearGradient3841);stroke:none;stroke-width:1px;marker:none;visibility:visible;display:inline;overflow:visible;enable-background:accumulate"
     d="m 21.291791,24.149067 c 0.479305,-1.713009 -0.218911,-2.733735 -0.149921,-4.278291 -0.34867,-0.370233 -0.807047,0.204359 -1.494467,0.512045 -0.121795,-0.926431 -0.859486,-0.696406 -0.590137,-2.170439 1.706661,-1.509869 2.757615,-1.951237 4.103637,-2.379673 l 4.038066,0 c 2.370219,0.241368 2.745156,2.200501 3.808568,3.421975 0.184632,1.398662 -0.333254,1.550661 -1.31515,2.131801 -0.448507,-0.520125 -0.893671,-1.21354 -1.483901,-1.515709 0.07522,1.952733 -1.09779,2.176663 -0.941787,4.410719 l -0.06772,1.646379 -6.057099,0 0.149911,-1.778807 z"
     id="path3207"
     sodipodi:nodetypes="ccccccccccccc" />
  <path
     style="color:#000000;fill:url(#linearGradient3360);fill-opacity:1;stroke:none;stroke-width:1px;marker:none;visibility:visible;display:inline;overflow:visible;enable-background:accumulate"
     d="m 6.9465978,23.688102 c -0.2533543,-2.189237 -0.068988,-3.503026 0,-5.047582 C 6.414762,19.259376 6.139551,19.211208 5.4521305,19.518894 5.3303358,18.592463 4.5926442,18.456159 4.8619934,16.982126 6.5686548,15.472257 7.6196082,15.030889 8.9656302,14.602453 l 4.0380658,0 c 2.370219,0.241368 2.745156,2.200501 3.808568,3.421975 0.184632,1.398661 -0.479786,1.660559 -1.461681,2.241699 -0.448508,-0.520125 -0.966938,-0.480881 -1.337371,-1.625607 -0.254468,1.696302 -0.07207,3.348917 -0.941786,5.106744 l -0.06773,0.950354 -6.0570975,0 -5.7e-6,-1.009516 z"
     id="path3229"
     sodipodi:nodetypes="ccccccccccccc" />
  <path
     style="color:#000000;fill:url(#linearGradient5031);stroke:none;stroke-width:1px;marker:none;visibility:visible;display:inline;overflow:visible;enable-background:accumulate;fill-opacity:1"
     d="m 40.368025,38.137108 c 0,0 -0.695482,1.576427 -0.231826,2.086449 0.463654,0.51002 3.61651,1.715524 4.404724,0.880945 0.788215,-0.834579 -0.695483,-3.662878 -4.172898,-2.967394 z"
     id="path3187"
     sodipodi:nodetypes="cssc" />
  <path
     style="color:#000000;fill:url(#linearGradient5027);stroke:none;stroke-width:1px;marker:none;visibility:visible;display:inline;overflow:visible;enable-background:accumulate;fill-opacity:1"
     d="m 26.457429,36.990352 c -0.222959,-0.05575 -0.744318,1.311661 -0.25773,1.827415 0.115127,0.122027 0.914148,-0.419601 1.183203,-0.129562 0.821668,0.885753 2.624713,1.425117 2.781926,0.570912 0.152249,-0.827238 -0.968259,-1.49505 -2.070238,-2.510175 -0.385136,-0.354782 -0.854107,0.307845 -1.637161,0.24141 z"
     id="path3209"
     sodipodi:nodetypes="cssssc" />
  <path
     style="color:#000000;fill:url(#linearGradient3358);stroke:none;stroke-width:1px;marker:none;visibility:visible;display:inline;overflow:visible;enable-background:accumulate"
     d="m 12.236258,35.501062 c 0,0 -0.695482,1.576427 -0.231827,2.086449 0.463655,0.51002 3.616511,1.715524 4.404725,0.880945 0.788214,-0.834579 -0.695484,-3.662878 -4.172898,-2.967394 z"
     id="path3231"
     sodipodi:nodetypes="cssc" />
  <path
     style="color:#000000;fill:url(#linearGradient5029);fill-opacity:1;stroke:none;stroke-width:1px;marker:none;visibility:visible;display:inline;overflow:visible;enable-background:accumulate"
     d="m 36.936976,37.070702 c 0,0 0.324558,0.417288 0.231827,1.112771 -0.09273,0.695483 -0.880944,1.390966 -2.086448,1.159139 -1.205504,-0.231828 -2.642836,0.324558 -3.384684,-0.463656 -0.449398,-0.477487 0.139097,-1.622793 0.83458,-1.715524 0.695481,-0.09273 3.848339,-0.463656 4.404725,-0.09272 z"
     id="path3189"
     sodipodi:nodetypes="cssssc" />
  <path
     style="color:#000000;fill:url(#linearGradient3356);fill-opacity:1;stroke:none;stroke-width:1px;marker:none;visibility:visible;display:inline;overflow:visible;enable-background:accumulate"
     d="m 8.8052087,34.434656 c 0,0 0.3245587,0.417288 0.2318278,1.112771 -0.092732,0.695483 -0.880944,1.390966 -2.086449,1.159139 C 5.745084,36.474738 4.3077524,37.031124 3.5659042,36.24291 3.1165064,35.765423 3.7050011,34.620117 4.4004844,34.527386 c 0.6954811,-0.09273 3.848339,-0.463656 4.4047243,-0.09272 z"
     id="path3233"
     sodipodi:nodetypes="cssssc" />
  <path
     style="color:#000000;fill:url(#linearGradient3564);fill-opacity:1;stroke:none;stroke-width:1px;marker:none;visibility:visible;display:inline;overflow:visible;enable-background:accumulate"
     d="m 33.059331,37.42883 c 0.921166,-4.433473 0.614914,-6.993179 2.019034,-11.104682 2.019032,1.039391 4.038066,0.912653 6.057098,0 1.230236,5.140453 2.846578,8.157971 3.028551,13.123715 -1.407577,0.155922 -2.802317,0.209161 -4.038066,-1.009517 l -2.019034,-9.085648 -1.009517,8.076132 c -1.710042,0.72804 -2.829996,0.275903 -4.038066,0 z"
     id="path3191"
     sodipodi:nodetypes="cccccccc" />
  <path
     style="color:#000000;fill:url(#linearGradient4685);fill-opacity:1;stroke:none;stroke-width:1px;marker:none;visibility:visible;display:inline;overflow:visible;enable-background:accumulate"
     d="m 25.067695,28.880952 1.656788,3.335471 c -0.433374,1.647859 -0.02996,3.295719 -0.04494,4.943579 0.752374,0.431113 1.16835,0.336446 1.628865,-0.01072 0.117465,-3.387648 0.27268,-5.765065 -0.639775,-8.634645 l -2.600939,0.366329 z"
     id="path3668"
     sodipodi:nodetypes="cccccc" />
  <path
     style="color:#000000;fill:url(#linearGradient3849);fill-opacity:1;stroke:none;stroke-width:1px;marker:none;visibility:visible;display:inline;overflow:visible;enable-background:accumulate"
     d="m 18.643741,28.716183 c 0.205512,-1.489876 2.026138,-2.507241 2.639724,-4.303926 2.019032,1.039391 4.006365,0.673626 6.025397,-0.239027 0.479951,2.005436 2.117654,3.79766 2.607039,5.39861 -1.726798,0.687135 -7.234256,1.367315 -11.27216,-0.855657 z"
     id="path3213"
     sodipodi:nodetypes="ccccc" />
  <path
     style="color:#000000;fill:url(#linearGradient3354);stroke:none;stroke-width:1px;marker:none;visibility:visible;display:inline;overflow:visible;enable-background:accumulate"
     d="m 4.9275646,34.792784 c 0.9211659,-4.433473 0.6149133,-6.993179 2.0190332,-11.104682 2.0190324,1.039391 4.0380652,0.912653 6.0570982,0 1.230236,5.140453 2.846577,8.157971 3.02855,13.123715 C 14.62467,36.967739 13.22993,37.020978 11.99418,35.8023 l -2.0190328,-9.085648 -1.009517,8.076132 c -1.7100422,0.72804 -2.8299956,0.275902 -4.0380656,0 z"
     id="path3235"
     sodipodi:nodetypes="cccccccc" />
  <path
     sodipodi:nodetypes="csssc"
     id="path3193"
     d="m 42.124146,13.968533 c 0,2.214381 -1.12259,4.056159 -4.181251,4.149492 -1.844458,0.05629 -2.432555,-1.936176 -2.501236,-4.149492 -0.09335,-3.00772 1.495925,-4.0094926 3.341242,-4.0094926 1.845319,0 3.341245,1.7951116 3.341245,4.0094926 z"
     style="fill:url(#linearGradient3828);fill-rule:evenodd;stroke:none" />
  <path
     style="color:#000000;fill:url(#linearGradient3834);stroke:none;stroke-width:1px;marker:none;visibility:visible;display:inline;overflow:visible;enable-background:accumulate"
     d="m 28.218129,10.820912 c 0.713714,0.903048 2.273469,0.0371 2.029722,2.942114 0,0 0.928082,0.451219 1.303876,0.794446 0.664927,0.607302 -0.586127,1.648483 -1.318786,1.098989 -0.05682,-0.04262 0.181812,-1.450137 -0.395447,-1.491688 -2.349023,-0.169082 -2.388656,-2.684468 -2.388656,-2.684468 l 0.769291,-0.659393 z"
     id="path3832"
     sodipodi:nodetypes="ccssccc" />
  <path
     sodipodi:nodetypes="ccssccc"
     id="path3836"
     d="m 22.249366,10.366642 c -0.930097,0.678089 -2.199846,-0.5750854 -2.74556,2.288605 0,0 -1.015188,0.185278 -1.46938,0.414919 -0.803645,0.406325 0.121673,1.745348 0.975027,1.412902 0.06618,-0.02579 0.214486,-1.445664 0.781683,-1.330593 2.308082,0.468253 3.022073,-1.943997 3.022073,-1.943997 l -0.563843,-0.841836 z"
     style="color:#000000;fill:url(#linearGradient3839);stroke:none;stroke-width:1px;marker:none;visibility:visible;display:inline;overflow:visible;enable-background:accumulate" />
  <path
     style="color:#000000;fill:url(#linearGradient4695);stroke:none;stroke-width:1px;stroke-linecap:butt;stroke-linejoin:miter;stroke-miterlimit:4;stroke-opacity:1;stroke-dasharray:none;stroke-dashoffset:0;marker:none;visibility:visible;display:inline;overflow:visible;enable-background:accumulate"
     d="m 23.38295,16.010826 c 0,10e-7 -0.422289,2.395772 0.811908,3.994587 1.139114,-0.908073 1.753721,-4.092017 1.753721,-4.092017 l -2.565629,0.09743 z"
     id="path4693"
     sodipodi:nodetypes="cccc" />
  <path
     sodipodi:nodetypes="csssc"
     id="path3215"
     d="m 28.353977,12.583055 c 0,2.164457 -1.097281,3.964712 -4.086985,4.055942 -1.802874,0.05501 -2.377712,-1.892526 -2.444846,-4.055942 -0.09124,-2.9399114 1.462201,-3.9190988 3.265915,-3.9190988 1.803716,0 3.265916,1.7546398 3.265916,3.9190988 z"
     style="fill:url(#linearGradient4677);fill-rule:evenodd;stroke:none" />
  <path
     sodipodi:nodetypes="csssc"
     id="path3237"
     d="m 14.797074,11.275794 c 0,2.400976 -1.217185,4.397952 -4.533586,4.499151 -1.9998825,0.06102 -2.6375354,-2.09933 -2.7120047,-4.499151 -0.1012145,-3.2611672 1.6219806,-4.3473546 3.6227937,-4.3473546 2.000816,0 3.622797,1.9463775 3.622797,4.3473546 z"
     style="fill:url(#linearGradient3268);fill-rule:evenodd;stroke:none" />
  <path
     style="color:#000000;fill:#ffffff;fill-opacity:0.60714285;stroke:none;stroke-width:1px;marker:none;visibility:visible;display:inline;overflow:visible;filter:url(#filter4907);enable-background:accumulate"
     d="m 36.665764,10.32747 c -1.167476,1.751214 -0.737003,5.200797 -0.389715,6.138024 -0.407066,0.01722 -1.526387,-4.319351 0.389715,-6.138024 z"
     id="path4901"
     sodipodi:nodetypes="ccc" />
  <path
     style="color:#000000;fill:url(#linearGradient3670);stroke:none;stroke-width:1px;marker:none;visibility:visible;display:inline;overflow:visible;enable-background:accumulate"
     d="M 39.806525,9.8389682 C 38.40532,8.2191572 36.092472,9.644275 35.574852,11.598146 c 2.378373,0.596377 2.9036,-0.611895 4.376021,-0.921468 0.891,0.502115 1.15152,1.636375 2.042519,1.918477 0.09121,-1.630482 -0.569829,-3.9246441 -2.186867,-2.7561868 z"
     id="path3195"
     sodipodi:nodetypes="ccccc" />
  <path
     sodipodi:nodetypes="ccc"
     id="path4913"
     d="M 23.058187,9.3856563 C 21.890711,11.13687 22.321183,14.586453 22.668471,15.52368 22.261405,15.540895 21.142084,11.20433 23.058187,9.3856563 z"
     style="color:#000000;fill:#ffffff;fill-opacity:0.51339287;stroke:none;stroke-width:1px;marker:none;visibility:visible;display:inline;overflow:visible;filter:url(#filter4907);enable-background:accumulate" />
  <path
     style="color:#000000;fill:url(#linearGradient3830);stroke:none;stroke-width:1px;marker:none;visibility:visible;display:inline;overflow:visible;enable-background:accumulate"
     d="M 24.916352,7.9970967 C 23.8398,7.3662618 21.484328,8.7721586 22.021285,10.681981 c 2.324752,0.582932 2.02576,-0.518379 2.878859,-0.9308719 0.321416,0.8571249 2.407711,1.3560039 3.278623,1.6317459 0.968306,-1.8889241 -0.895313,-4.502054 -3.262415,-3.3857583 z"
     id="path3217"
     sodipodi:nodetypes="ccccc" />
  <path
     sodipodi:nodetypes="ccc"
     id="path4911"
     d="M 8.7686062,8.1190798 C 7.6011303,9.8702938 8.0316025,13.319877 8.3788904,14.257104 7.9718249,14.274319 6.8525034,9.9377534 8.7686062,8.1190798 z"
     style="color:#000000;fill:#ffffff;fill-opacity:0.64285713;stroke:none;stroke-width:1px;marker:none;visibility:visible;display:inline;overflow:visible;filter:url(#filter4907);enable-background:accumulate" />
  <path
     style="color:#000000;fill:#000000;stroke:none;stroke-width:1px;marker:none;visibility:visible;display:inline;overflow:visible;enable-background:accumulate"
     d="M 12.336741,6.5616161 C 12.451055,6.0357014 10.85242,5.5070145 10.442705,6.219022 10.157834,5.8108676 8.9280805,5.9712639 8.8991239,6.9198001 8.1844826,6.2501489 7.6248356,7.3258279 8.0114094,7.5225019 7.6041367,7.625837 7.235026,8.8454091 7.7917543,8.9005238 c 0.3922852,0.038848 1.5160404,-0.071796 1.5049229,-0.7054311 0.2172959,0.3778392 1.2692168,0.4559694 1.4776658,-0.041138 0.16821,0.4014064 1.387497,0.5965373 1.613742,0.1836209 -0.0071,0.586268 1.070336,1.108781 1.644941,0.9160538 0.502633,0.3400494 1.20358,-0.7166286 0.409434,-1.0882076 0.209546,-0.8698827 -0.400599,-1.5913121 -0.9207,-1.213571 0.213103,-0.5589989 -0.860803,-0.9189552 -1.185019,-0.3902313 z"
     id="path3239"
     sodipodi:nodetypes="cccccccccccc" />
  <path
     sodipodi:type="arc"
     style="fill:#000000;fill-rule:evenodd;stroke:none"
     id="path3197"
     sodipodi:cx="22.58728"
     sodipodi:cy="12.779431"
     sodipodi:rx="0.27604872"
     sodipodi:ry="0.30852503"
     d="m 22.863329,12.779431 a 0.27604872,0.30852503 0 1 1 -0.552097,0 0.27604872,0.30852503 0 1 1 0.552097,0 z"
     transform="matrix(2.1102593,0,0,2.1102593,-11.052152,-13.786799)" />
  <path
     sodipodi:type="arc"
     style="fill:#000000;fill-rule:evenodd;stroke:none"
     id="path3219"
     sodipodi:cx="22.58728"
     sodipodi:cy="12.779431"
     sodipodi:rx="0.27604872"
     sodipodi:ry="0.30852503"
     d="m 22.863329,12.779431 a 0.27604872,0.30852503 0 1 1 -0.552097,0 0.27604872,0.30852503 0 1 1 0.552097,0 z"
     transform="matrix(2.0626834,0,0,2.0626834,-23.623459,-14.546532)" />
  <path
     sodipodi:type="arc"
     style="fill:#000000;fill-rule:evenodd;stroke:none"
     id="path3241"
     sodipodi:cx="22.58728"
     sodipodi:cy="12.779431"
     sodipodi:rx="0.27604872"
     sodipodi:ry="0.30852503"
     d="m 22.863329,12.779431 a 0.27604872,0.30852503 0 1 1 -0.552097,0 0.27604872,0.30852503 0 1 1 0.552097,0 z"
     transform="matrix(2.2880812,0,0,2.2880812,-42.860149,-18.818353)" />
  <path
     transform="matrix(2.1102593,0,0,2.1102593,-8.4912844,-13.526371)"
     d="m 22.863329,12.779431 a 0.27604872,0.30852503 0 1 1 -0.552097,0 0.27604872,0.30852503 0 1 1 0.552097,0 z"
     sodipodi:ry="0.30852503"
     sodipodi:rx="0.27604872"
     sodipodi:cy="12.779431"
     sodipodi:cx="22.58728"
     id="path3199"
     style="fill:#000000;fill-rule:evenodd;stroke:none"
     sodipodi:type="arc" />
  <path
     transform="matrix(2.0626834,0,0,2.0626834,-21.120327,-14.291976)"
     d="m 22.863329,12.779431 a 0.27604872,0.30852503 0 1 1 -0.552097,0 0.27604872,0.30852503 0 1 1 0.552097,0 z"
     sodipodi:ry="0.30852503"
     sodipodi:rx="0.27604872"
     sodipodi:cy="12.779431"
     sodipodi:cx="22.58728"
     id="path3221"
     style="fill:#000000;fill-rule:evenodd;stroke:none"
     sodipodi:type="arc" />
  <path
     transform="matrix(2.2880812,0,0,2.2880812,-40.08349,-18.53598)"
     d="m 22.863329,12.779431 a 0.27604872,0.30852503 0 1 1 -0.552097,0 0.27604872,0.30852503 0 1 1 0.552097,0 z"
     sodipodi:ry="0.30852503"
     sodipodi:rx="0.27604872"
     sodipodi:cy="12.779431"
     sodipodi:cx="22.58728"
     id="path3243"
     style="fill:#000000;fill-rule:evenodd;stroke:none"
     sodipodi:type="arc" />
  <path
     style="font-size:medium;font-style:normal;font-variant:normal;font-weight:normal;font-stretch:normal;text-indent:0;text-align:start;text-decoration:none;line-height:normal;letter-spacing:normal;word-spacing:normal;text-transform:none;direction:ltr;block-progression:tb;writing-mode:lr-tb;text-anchor:start;color:#000000;fill:#000000;fill-opacity:1;stroke:none;stroke-width:1px;marker:none;visibility:visible;display:inline;overflow:visible;enable-background:accumulate;font-family:Bitstream Vera Sans;-inkscape-font-specification:Bitstream Vera Sans"
     d="m 36.016541,15.472852 c 0.423468,0.456312 0.965452,0.893741 1.383181,1.050694 0.968581,0.302976 1.432092,-0.348608 2.250423,-0.800101 -1.117458,0.572685 -2.286334,0.78542 -3.633604,-0.250593 z"
     id="path3201"
     sodipodi:nodetypes="cccc" />
  <path
     style="font-size:medium;font-style:normal;font-variant:normal;font-weight:normal;font-stretch:normal;text-indent:0;text-align:start;text-decoration:none;line-height:normal;letter-spacing:normal;word-spacing:normal;text-transform:none;direction:ltr;block-progression:tb;writing-mode:lr-tb;text-anchor:start;color:#000000;fill:#000000;fill-opacity:1;stroke:none;stroke-width:1px;marker:none;visibility:visible;display:inline;overflow:visible;enable-background:accumulate;font-family:Bitstream Vera Sans;-inkscape-font-specification:Bitstream Vera Sans"
     d="m 22.384068,14.053459 c 0.413921,0.446025 0.943686,0.873592 1.351997,1.027006 0.946744,0.296145 1.399807,-0.34075 2.199686,-0.782062 -1.092263,0.559773 -2.234787,0.767712 -3.551683,-0.244944 z"
     id="path3223"
     sodipodi:nodetypes="cccc" />
  <path
     style="font-size:medium;font-style:normal;font-variant:normal;font-weight:normal;font-stretch:normal;text-indent:0;text-align:start;text-decoration:none;line-height:normal;letter-spacing:normal;word-spacing:normal;text-transform:none;direction:ltr;block-progression:tb;writing-mode:lr-tb;text-anchor:start;color:#000000;fill:#000000;fill-opacity:1;stroke:none;stroke-width:1px;marker:none;visibility:visible;display:inline;overflow:visible;enable-background:accumulate;font-family:Bitstream Vera Sans;-inkscape-font-specification:Bitstream Vera Sans"
     d="m 8.1748081,12.906876 c 0.4591527,0.494763 1.046807,0.969052 1.4997351,1.139231 1.0501998,0.328505 1.5527688,-0.377985 2.4400558,-0.867522 -1.21162,0.620941 -2.4789918,0.851603 -3.9397909,-0.271709 z"
     id="path3245"
     sodipodi:nodetypes="cccc" />
  <path
     style="color:#000000;fill:url(#linearGradient4899);stroke:none;stroke-width:1px;stroke-linecap:butt;stroke-linejoin:miter;stroke-miterlimit:4;stroke-opacity:1;stroke-dasharray:none;stroke-dashoffset:0;marker:none;visibility:visible;display:inline;overflow:visible;enable-background:accumulate"
     d="m 21.239512,23.870095 -0.129904,0.779431 c 1.80782,0.669693 3.886518,0.49912 6.300406,-0.129905 l -0.09743,-0.779432 c -2.31522,0.721982 -4.27581,0.616493 -6.073072,0.129906 z"
     id="path4689"
     sodipodi:nodetypes="ccccc" />
  <path
     style="color:#000000;fill:#ffffff;stroke:none;stroke-width:1px;stroke-linecap:butt;stroke-linejoin:miter;stroke-miterlimit:4;stroke-opacity:1;stroke-dasharray:none;stroke-dashoffset:0;marker:none;visibility:visible;display:inline;overflow:visible;enable-background:accumulate;filter:url(#filter4931);fill-opacity:0.6651786"
     d="M 22.311231,10.489851 C 22.446561,9.0554884 23.899603,8.3906886 24.779432,8.0216508 24.918071,7.883012 21.612658,8.168127 22.311231,10.489851 z"
     id="path4917"
     sodipodi:nodetypes="ccc" />
  <path
     style="color:#000000;fill:#ffffff;stroke:none;stroke-width:1px;stroke-linecap:butt;stroke-linejoin:miter;stroke-miterlimit:4;stroke-opacity:1;stroke-dasharray:none;stroke-dashoffset:0;marker:none;visibility:visible;display:inline;overflow:visible;enable-background:accumulate;filter:url(#filter4935);fill-opacity:0.38839287"
     d="m 39.036536,9.6779431 c -1.099118,0.158344 -2.169924,0.6564489 -3.182679,1.8511499 0,0 1.136671,-2.987821 3.182679,-1.8511499 z"
     id="path4919"
     sodipodi:nodetypes="ccc" />
  <path
     style="color:#000000;fill:#ffffff;stroke:none;stroke-width:1px;stroke-linecap:butt;stroke-linejoin:miter;stroke-miterlimit:4;stroke-opacity:1;stroke-dasharray:none;stroke-dashoffset:0;marker:none;visibility:visible;display:inline;overflow:visible;enable-background:accumulate;filter:url(#filter4947);fill-opacity:0.3125"
     d="M 7.826793,8.7686062 C 7.7609217,8.4113667 7.6035198,8.0541272 8.1190798,7.6968877 7.8081756,6.8354028 8.4616825,6.7872464 8.9634642,7.0473613 9.230287,5.9719595 10.236556,6.092925 10.424898,6.4627876 c 0.615248,-0.9472473 1.511836,-0.3987755 1.656293,-1e-7 -1.30313,0.1552599 -2.4619245,-0.459272 -4.254398,2.3058187 z"
     id="path4921"
     sodipodi:nodetypes="cccccc" />
  <path
     sodipodi:nodetypes="cccc"
     id="path4977"
     d="m 4.9039242,17.374831 c -0.5531394,0.01641 2.0625535,-2.178671 3.4100136,-2.403248 l 0.714479,0.61705 C 7.038951,15.501105 6.1936652,16.684887 4.9039242,17.374831 z"
     style="color:#000000;fill:#ffffff;fill-opacity:0.71875;stroke:none;stroke-width:1px;marker:none;visibility:visible;display:inline;overflow:visible;filter:url(#filter4973);enable-background:accumulate" />
  <path
     sodipodi:nodetypes="cccc"
     id="path4979"
     d="m 19.290934,18.70636 c -0.55314,0.01641 2.062553,-2.178671 3.410013,-2.403248 l 0.714479,0.61705 c -1.989466,-0.08753 -2.834751,1.096254 -4.124492,1.786198 z"
     style="color:#000000;fill:#ffffff;fill-opacity:0.57589287;stroke:none;stroke-width:1px;marker:none;visibility:visible;display:inline;overflow:visible;filter:url(#filter4973);enable-background:accumulate" />
  <path
     style="color:#000000;fill:#ffffff;fill-opacity:0.71875;stroke:none;stroke-width:1px;marker:none;visibility:visible;display:inline;overflow:visible;filter:url(#filter4973);enable-background:accumulate"
     d="m 33.125846,20.135318 c -0.55314,0.01641 2.062553,-2.178671 3.410013,-2.403248 l 0.714479,0.61705 c -1.989465,-0.08753 -2.834751,1.096254 -4.124492,1.786198 z"
     id="path4951"
     sodipodi:nodetypes="cccc" />
  <path
     sodipodi:nodetypes="cccc"
     id="path4991"
     d="M 7.0798376,23.935047 C 6.667123,25.370425 6.1346766,26.953915 5.8782138,30.430311 6.2919864,28.323226 6.456546,26.188451 7.5994587,24.162382 L 7.0798376,23.935047 z"
     style="color:#000000;fill:#ffffff;fill-opacity:0.71875;stroke:none;stroke-width:1px;marker:none;visibility:visible;display:inline;overflow:visible;filter:url(#filter4987);enable-background:accumulate" />
  <path
     style="color:#000000;fill:#ffffff;fill-opacity:0.71875;stroke:none;stroke-width:1px;marker:none;visibility:visible;display:inline;overflow:visible;filter:url(#filter4987);enable-background:accumulate"
     d="m 35.334235,26.663058 c -0.412714,1.435378 -0.945161,3.018868 -1.201623,6.495264 0.413772,-2.107085 0.578332,-4.24186 1.721245,-6.267929 l -0.519622,-0.227335 z"
     id="path4981"
     sodipodi:nodetypes="cccc" />
  <path
     style="color:#000000;fill:#ffffff;stroke:none;stroke-width:1px;stroke-linecap:butt;stroke-linejoin:miter;stroke-miterlimit:4;stroke-opacity:1;stroke-dasharray:none;stroke-dashoffset:0;marker:none;visibility:visible;display:inline;overflow:visible;enable-background:accumulate;filter:url(#filter4999);fill-opacity:0.6651786"
     d="m 19.518268,27.377537 c 0.527394,-0.587964 2.415779,-3.125956 1.786198,-2.4682 l 0.682002,0.194858 c -0.417659,0.555243 -1.362356,1.374006 -2.4682,2.273342 z"
     id="path4993"
     sodipodi:nodetypes="cccc" />
  <path
     sodipodi:nodetypes="ccc"
     id="path5021"
     d="m 3.6373478,35.951286 c 0.3420188,-0.514371 0.6899865,-1.01387 1.2016238,-1.104195 0,0 -1.1041949,-0.454669 -1.2016238,1.104195 z"
     style="color:#000000;fill:#ffffff;fill-opacity:0.72767861;stroke:none;stroke-width:1px;marker:none;visibility:visible;display:inline;overflow:visible;filter:url(#filter5017);enable-background:accumulate" />
  <path
     sodipodi:nodetypes="ccc"
     id="path5023"
     d="m 18.381597,37.055481 c 0.342019,-0.514371 0.689986,-1.01387 1.201624,-1.104195 0,0 -1.104195,-0.454669 -1.201624,1.104195 z"
     style="color:#000000;fill:#ffffff;fill-opacity:0.72767861;stroke:none;stroke-width:1px;marker:none;visibility:visible;display:inline;overflow:visible;filter:url(#filter5017);enable-background:accumulate" />
  <path
     style="color:#000000;fill:#ffffff;fill-opacity:0.72767861;stroke:none;stroke-width:1px;marker:none;visibility:visible;display:inline;overflow:visible;filter:url(#filter5017);enable-background:accumulate"
     d="m 31.859269,38.614344 c 0.342019,-0.514371 0.689987,-1.01387 1.201624,-1.104195 0,0 -1.104195,-0.454669 -1.201624,1.104195 z"
     id="path5003"
     sodipodi:nodetypes="ccc" />
</svg>
