<?xml version="1.0" encoding="UTF-8" standalone="no"?>
<!-- Created with Inkscape (http://www.inkscape.org/) -->

<svg
   xmlns:dc="http://purl.org/dc/elements/1.1/"
   xmlns:cc="http://creativecommons.org/ns#"
   xmlns:rdf="http://www.w3.org/1999/02/22-rdf-syntax-ns#"
   xmlns:svg="http://www.w3.org/2000/svg"
   xmlns="http://www.w3.org/2000/svg"
   xmlns:xlink="http://www.w3.org/1999/xlink"
   xmlns:sodipodi="http://sodipodi.sourceforge.net/DTD/sodipodi-0.dtd"
   xmlns:inkscape="http://www.inkscape.org/namespaces/inkscape"
   id="svg1"
   sodipodi:version="0.32"
   inkscape:version="0.47 r22583"
   width="48"
   height="48"
   sodipodi:docname="martin-luther-king-day03.svg"
   version="1.1"
   inkscape:export-filename="martin-luther-king-day03.png"
   inkscape:export-xdpi="89.949997"
   inkscape:export-ydpi="89.949997">
  <defs
     id="defs3">
    <linearGradient
       id="linearGradient3791">
      <stop
         id="stop3793"
         offset="0"
         style="stop-color:#e6e6e6;stop-opacity:1;" />
      <stop
         id="stop3795"
         offset="1"
         style="stop-color:#d5d5d5;stop-opacity:1;" />
    </linearGradient>
    <linearGradient
       id="linearGradient3679">
      <stop
         id="stop3681"
         offset="0"
         style="stop-color:#552200;stop-opacity:1;" />
      <stop
         id="stop3683"
         offset="1"
         style="stop-color:#b6632c;stop-opacity:1;" />
    </linearGradient>
    <linearGradient
       id="linearGradient3651">
      <stop
         id="stop3653"
         offset="0"
         style="stop-color:#555555;stop-opacity:1;" />
      <stop
         id="stop3655"
         offset="1"
         style="stop-color:#000000;stop-opacity:1;" />
    </linearGradient>
    <linearGradient
       id="linearGradient3635">
      <stop
         id="stop3637"
         offset="0"
         style="stop-color:#003e8c;stop-opacity:1;" />
      <stop
         id="stop3639"
         offset="1"
         style="stop-color:#0062db;stop-opacity:1;" />
    </linearGradient>
    <linearGradient
       id="linearGradient3649">
      <stop
         style="stop-color:#ff9b24;stop-opacity:1;"
         offset="0"
         id="stop3651" />
      <stop
         style="stop-color:#ffbf00;stop-opacity:1;"
         offset="1"
         id="stop3653-9" />
    </linearGradient>
    <linearGradient
       id="linearGradient3764">
      <stop
         id="stop3766"
         offset="0"
         style="stop-color:#7ed249;stop-opacity:1;" />
      <stop
         id="stop3768"
         offset="1"
         style="stop-color:#286325;stop-opacity:1;" />
    </linearGradient>
    <linearGradient
       id="linearGradient3770">
      <stop
         id="stop3772"
         offset="0"
         style="stop-color:#d1f6f6;stop-opacity:1;" />
      <stop
         id="stop3774"
         offset="1"
         style="stop-color:#2adbdb;stop-opacity:1;" />
    </linearGradient>
    <linearGradient
       id="linearGradient2911">
      <stop
         style="stop-color:#9a5723;stop-opacity:1;"
         offset="0"
         id="stop2913" />
      <stop
         style="stop-color:#db9762;stop-opacity:1;"
         offset="1"
         id="stop2915" />
    </linearGradient>
    <linearGradient
       id="linearGradient2868">
      <stop
         id="stop2870"
         offset="0"
         style="stop-color:#d700d7;stop-opacity:1;" />
      <stop
         id="stop2872"
         offset="1"
         style="stop-color:#6e006e;stop-opacity:1;" />
    </linearGradient>
    <filter
       inkscape:collect="always"
       id="filter4907"
       x="-0.32985381"
       width="1.6597076"
       y="-0.058360011"
       height="1.11672">
      <feGaussianBlur
         inkscape:collect="always"
         stdDeviation="0.14925756"
         id="feGaussianBlur4909" />
    </filter>
    <filter
       inkscape:collect="always"
       id="filter4931"
       x="-0.13751006"
       width="1.2750201"
       y="-0.1414903"
       height="1.2829806">
      <feGaussianBlur
         inkscape:collect="always"
         stdDeviation="0.14722321"
         id="feGaussianBlur4933" />
    </filter>
    <filter
       inkscape:collect="always"
       id="filter4935"
       x="-0.11101833"
       width="1.2220367"
       y="-0.16752729"
       height="1.3350546">
      <feGaussianBlur
         inkscape:collect="always"
         stdDeviation="0.14722321"
         id="feGaussianBlur4937" />
    </filter>
    <filter
       inkscape:collect="always"
       id="filter4947"
       x="-0.073800732"
       width="1.1476015"
       y="-0.11289987"
       height="1.2257997">
      <feGaussianBlur
         inkscape:collect="always"
         stdDeviation="0.13313019"
         id="feGaussianBlur4949" />
    </filter>
    <filter
       inkscape:collect="always"
       id="filter4973"
       x="-0.093552453"
       width="1.1871049"
       y="-0.1634958"
       height="1.3269916">
      <feGaussianBlur
         inkscape:collect="always"
         stdDeviation="0.1637233"
         id="feGaussianBlur4975" />
    </filter>
    <radialGradient
       inkscape:collect="always"
       xlink:href="#linearGradient3791"
       id="radialGradient3002"
       gradientUnits="userSpaceOnUse"
       gradientTransform="matrix(0.32216507,0.06755069,-0.20521323,0.9787173,-8.9153467,1.5824128)"
       cx="-18.186739"
       cy="16.627876"
       fx="-18.186739"
       fy="16.627876"
       r="12.500001" />
    <linearGradient
       inkscape:collect="always"
       xlink:href="#linearGradient3635"
       id="linearGradient3004"
       gradientUnits="userSpaceOnUse"
       x1="-26.695534"
       y1="21.499323"
       x2="-12.211096"
       y2="34.879566" />
    <radialGradient
       inkscape:collect="always"
       xlink:href="#linearGradient3764"
       id="radialGradient3006"
       gradientUnits="userSpaceOnUse"
       gradientTransform="matrix(1.5673803,0.61773594,-0.51966723,1.3185634,25.714763,7.3200135)"
       cx="-24.032476"
       cy="23.244123"
       fx="-24.032476"
       fy="23.244123"
       r="11.69127" />
    <linearGradient
       inkscape:collect="always"
       xlink:href="#linearGradient3679"
       id="linearGradient3124"
       gradientUnits="userSpaceOnUse"
       gradientTransform="matrix(-0.42546177,-0.91437812,0.91437812,-0.42546177,1.1521221,50.244694)"
       x1="0.28350675"
       y1="15.36613"
       x2="7.392774"
       y2="19.625511" />
    <linearGradient
       inkscape:collect="always"
       xlink:href="#linearGradient3679"
       id="linearGradient3127"
       gradientUnits="userSpaceOnUse"
       gradientTransform="matrix(-0.42546177,-0.91437812,0.91437812,-0.42546177,1.1521221,50.244694)"
       x1="12.654796"
       y1="18.931265"
       x2="17.602716"
       y2="20.55508" />
    <linearGradient
       inkscape:collect="always"
       xlink:href="#linearGradient2911"
       id="linearGradient3224"
       gradientUnits="userSpaceOnUse"
       gradientTransform="matrix(-0.48084252,0.88650753,-0.88650753,-0.48084252,69.839947,12.826931)"
       x1="25.074463"
       y1="19.444204"
       x2="30.369223"
       y2="22.222263" />
    <linearGradient
       inkscape:collect="always"
       xlink:href="#linearGradient2911"
       id="linearGradient3227"
       gradientUnits="userSpaceOnUse"
       gradientTransform="matrix(-0.48084252,0.88650753,-0.88650753,-0.48084252,69.839947,12.826931)"
       x1="24.019434"
       y1="18.535568"
       x2="40.782978"
       y2="22.892021" />
    <linearGradient
       inkscape:collect="always"
       xlink:href="#linearGradient2911"
       id="linearGradient3256"
       gradientUnits="userSpaceOnUse"
       x1="20.979702"
       y1="15.730294"
       x2="25.201624"
       y2="17.516491"
       gradientTransform="matrix(0.89408306,0,0,0.89408306,1.7292965,-0.68478238)" />
    <linearGradient
       inkscape:collect="always"
       xlink:href="#linearGradient2911"
       id="linearGradient3262"
       gradientUnits="userSpaceOnUse"
       x1="11.543176"
       y1="15.063867"
       x2="21.281429"
       y2="21.953135"
       gradientTransform="matrix(0.89408306,0,0,0.89408306,1.7292965,-0.68478238)" />
    <linearGradient
       inkscape:collect="always"
       xlink:href="#linearGradient2911"
       id="linearGradient3265"
       gradientUnits="userSpaceOnUse"
       x1="19.110552"
       y1="15.414737"
       x2="30.979599"
       y2="23.31443"
       gradientTransform="matrix(0.89408306,0,0,0.89408306,1.7292965,-0.68478238)" />
    <linearGradient
       inkscape:collect="always"
       xlink:href="#linearGradient2868"
       id="linearGradient3269"
       gradientUnits="userSpaceOnUse"
       gradientTransform="matrix(1.0085163,0,0,1.0085163,0.46155377,-2.0804686)"
       x1="26.186472"
       y1="22.070883"
       x2="16.405521"
       y2="14.24409" />
    <linearGradient
       inkscape:collect="always"
       xlink:href="#linearGradient3791"
       id="linearGradient3271"
       gradientUnits="userSpaceOnUse"
       gradientTransform="matrix(-0.42546177,-0.91437812,0.91437812,-0.42546177,1.1521221,50.244694)"
       x1="7.7943163"
       y1="15.848444"
       x2="10.852148"
       y2="18.804306" />
    <linearGradient
       inkscape:collect="always"
       xlink:href="#linearGradient3679"
       id="linearGradient3273"
       gradientUnits="userSpaceOnUse"
       gradientTransform="matrix(1.619181,0,0,1.619181,-6.5349867,-7.9011975)"
       x1="6.2289281"
       y1="9.1587267"
       x2="13.174599"
       y2="14.623075" />
    <linearGradient
       inkscape:collect="always"
       xlink:href="#linearGradient3770"
       id="linearGradient3275"
       gradientUnits="userSpaceOnUse"
       gradientTransform="matrix(-0.48084252,0.88650753,-0.88650753,-0.48084252,69.839947,12.826931)"
       x1="39.036537"
       y1="28.254398"
       x2="28.384304"
       y2="11.106901" />
    <linearGradient
       inkscape:collect="always"
       xlink:href="#linearGradient3651"
       id="linearGradient3277"
       gradientUnits="userSpaceOnUse"
       gradientTransform="matrix(-0.48084252,0.88650753,-0.88650753,-0.48084252,69.839947,12.826931)"
       x1="38.581867"
       y1="27.34506"
       x2="28.774019"
       y2="12.178619" />
    <linearGradient
       inkscape:collect="always"
       xlink:href="#linearGradient2911"
       id="linearGradient3279"
       gradientUnits="userSpaceOnUse"
       gradientTransform="matrix(1.4933437,0,0,1.4933437,-14.793667,-7.2079448)"
       x1="26.239773"
       y1="9.473814"
       x2="35.820507"
       y2="15.365795" />
    <linearGradient
       inkscape:collect="always"
       xlink:href="#linearGradient3679"
       id="linearGradient3281"
       gradientUnits="userSpaceOnUse"
       gradientTransform="matrix(1.4933437,0,0,1.4933437,-14.793667,-7.2079448)"
       x1="32.559536"
       y1="8.3676796"
       x2="38.032307"
       y2="14.180941" />
    <linearGradient
       inkscape:collect="always"
       xlink:href="#linearGradient3649"
       id="linearGradient3283"
       gradientUnits="userSpaceOnUse"
       gradientTransform="matrix(1.1279895,0,0,1.1279895,-1.417925,-1.5610252)"
       x1="24.519621"
       y1="10.976996"
       x2="29.228687"
       y2="12.901688" />
    <linearGradient
       inkscape:collect="always"
       xlink:href="#linearGradient3649"
       id="linearGradient3285"
       gradientUnits="userSpaceOnUse"
       gradientTransform="matrix(-1.086515,-0.30306029,-0.30306029,1.086515,54.122436,6.4023778)"
       x1="24.519621"
       y1="10.976996"
       x2="29.228687"
       y2="12.901688" />
    <linearGradient
       inkscape:collect="always"
       xlink:href="#linearGradient2911"
       id="linearGradient3287"
       gradientUnits="userSpaceOnUse"
       x1="8.7287111"
       y1="-0.98870385"
       x2="23.80706"
       y2="12.927617" />
    <linearGradient
       inkscape:collect="always"
       xlink:href="#linearGradient3649"
       id="linearGradient3289"
       gradientUnits="userSpaceOnUse"
       gradientTransform="matrix(1.4596762,0,0,1.4596762,-9.2460749,-6.2968349)"
       x1="22.20875"
       y1="9.7497387"
       x2="25.849882"
       y2="12.112062" />
    <filter
       inkscape:collect="always"
       id="filter3711"
       x="-0.048661727"
       width="1.0973235"
       y="-0.28376498"
       height="1.56753">
      <feGaussianBlur
         inkscape:collect="always"
         stdDeviation="0.70730497"
         id="feGaussianBlur3713" />
    </filter>
  </defs>
  <sodipodi:namedview
     id="base"
     pagecolor="#ffffff"
     bordercolor="#666666"
     borderopacity="1.0"
     inkscape:pageopacity="0.0"
     inkscape:pageshadow="2"
     inkscape:zoom="1"
     inkscape:cx="24"
     inkscape:cy="24"
     inkscape:window-width="1476"
     inkscape:window-height="962"
     inkscape:window-x="127"
     inkscape:window-y="34"
     showgrid="false"
     inkscape:window-maximized="0"
     inkscape:current-layer="svg1"
     showguides="true"
     inkscape:guide-bbox="true"
     inkscape:snap-global="false">
    <inkscape:grid
       type="xygrid"
       id="grid2861" />
  </sodipodi:namedview>
  <metadata
     id="metadata4">
    <rdf:RDF>
      <cc:Work
         rdf:about="">
        <dc:format>image/svg+xml</dc:format>
        <dc:type
           rdf:resource="http://purl.org/dc/dcmitype/StillImage" />
        <dc:title />
      </cc:Work>
    </rdf:RDF>
  </metadata>
  <path
     style="fill:#000000;fill-opacity:0.76862745;fill-rule:evenodd;stroke:none;filter:url(#filter3711)"
     d="m 24.03125,35.584024 c -5.089537,0 -9.297092,0.661696 -10.0625,1.5 -0.912516,-0.131597 -2.083702,-0.164043 -3.375,-0.0625 -2.8073135,0.220756 -5.0562436,0.972261 -5,1.6875 0.056244,0.715239 2.3801865,1.127006 5.1875,0.90625 2.261447,-0.177831 4.131095,-0.709159 4.75,-1.28125 1.828199,0.471215 4.958906,0.78125 8.5,0.78125 2.514268,0 4.784615,-0.178077 6.5625,-0.4375 -0.01734,0.03053 -0.05499,0.06032 -0.0625,0.09375 -0.157314,0.699988 1.940049,1.757541 4.6875,2.375 2.747451,0.617459 5.092686,0.543738 5.25,-0.15625 0.157314,-0.699988 -1.940049,-1.757541 -4.6875,-2.375 -1.030294,-0.231547 -2.01907,-0.364476 -2.84375,-0.40625 0.808486,-0.251282 1.28125,-0.567484 1.28125,-0.875 0,-0.968554 -4.555541,-1.75 -10.1875,-1.75 z"
     id="path3690" />
  <g
     id="g2997"
     transform="matrix(0.89408306,0,0,0.89408306,39.651,4.7160117)">
    <path
       style="fill:url(#radialGradient3002);fill-opacity:1"
       d="m -29.58322,25.499996 6.292287,-9.252369 6.207714,-3.247632 8.4066313,4.1272 4.0933695,8.372801 -3.9918812,6.782815 -8.5081196,5.717186 -6.985792,-6.393776 -5.514209,-6.106225 z"
       id="path2974"
       sodipodi:nodetypes="ccccccccc" />
    <path
       style="fill:url(#linearGradient3004);fill-opacity:1"
       d="m -18.874886,37.873596 c -1.937733,-0.250335 -3.816438,-0.998323 -5.488375,-2.185144 -0.867527,-0.615813 -2.292601,-2.040887 -2.908414,-2.908414 -0.852133,-1.200446 -1.586255,-2.761562 -1.939262,-4.123859 -0.184955,-0.713764 -0.372283,-2.301918 -0.372283,-3.156183 0,-0.854265 0.187328,-2.442419 0.372283,-3.156183 0.353007,-1.362296 1.087129,-2.923413 1.939262,-4.123858 0.617306,-0.869631 2.04147,-2.293 2.914232,-2.912603 1.419659,-1.007866 3.325467,-1.823984 4.899224,-2.097979 2.253261,-0.392299 4.721657,-0.193576 6.708333,0.540067 3.7820449,1.39664 6.7881844,4.711319 7.7943844,8.594373 0.1849551,0.713764 0.3722834,2.301918 0.3722834,3.156183 0,0.854265 -0.1873283,2.442419 -0.3722834,3.156183 -0.3530067,1.362297 -1.0871284,2.923413 -1.9392618,4.123859 -0.6158125,0.867527 -2.0408868,2.292601 -2.9084144,2.908414 -1.2004452,0.852133 -2.7615622,1.586255 -4.1238582,1.939262 -1.348422,0.349411 -3.369165,0.449831 -4.94785,0.245882 z M -18.17788,18.19855 c 0.144375,-0.101124 0.292674,-0.12148 0.593902,-0.08152 0.234083,0.03105 0.562451,0.01021 0.787549,-0.05 0.30545,-0.0817 0.4203,-0.08188 0.549995,-8.84e-4 0.319382,0.199459 1.163215,-0.06048 1.163215,-0.35832 0,-0.05482 0.09375,-0.275992 0.208333,-0.491493 0.254141,-0.477973 0.257451,-0.563537 0.02964,-0.76592 -0.09828,-0.08731 -0.265651,-0.353564 -0.371925,-0.591671 -0.253468,-0.567896 -0.428133,-0.660045 -0.928151,-0.489672 -0.514745,0.175392 -0.737887,0.165124 -1.085908,-0.04996 -0.287247,-0.177528 -0.302402,-0.178303 -0.815181,-0.04167 -0.287371,0.07657 -0.703838,0.139777 -0.925481,0.140453 -0.631887,0.0019 -0.809947,0.132805 -0.872347,0.641198 -0.05018,0.408814 -0.245664,0.787729 -0.526752,1.021012 -0.174514,0.144834 -0.162565,0.446922 0.02437,0.616097 0.178241,0.161306 1.456557,0.616527 1.765697,0.628782 0.115844,0.0046 0.297215,-0.0523 0.403048,-0.12643 z"
       id="path2972" />
    <path
       style="fill:url(#radialGradient3006);fill-opacity:1"
       d="m -16.864471,13 c -0.847742,-0.01576 -1.705287,0.07911 -2.53125,0.21875 0.03822,0.04867 0.0415,0.115775 0.03125,0.1875 -0.01423,0.09963 -0.02567,0.18093 -0.0625,0.25 0.01846,0.03241 0,0.06379 0,0.125 0,0.240468 -0.19134,0.375 -0.5625,0.375 -0.390056,0 -0.59375,0.132501 -0.59375,0.40625 0,0.130275 -0.05569,0.286224 -0.125,0.34375 -0.08877,0.07367 -0.09145,0.146216 -0.03125,0.21875 0.09281,0.111832 0.70067,0.0352 1,-0.125 0.088,-0.0471 0.243386,-0.09375 0.375,-0.09375 0.131613,0 0.49259,-0.05877 0.78125,-0.15625 0.516507,-0.174427 0.511947,-0.179021 1,-0.03125 0.187575,0.05679 0.291211,0.08495 0.40625,0.09375 l 0.125,-0.03125 0.0625,0 c 0.09134,-0.0089 0.186542,10e-4 0.3125,-0.03125 0.450782,-0.115532 0.559283,-0.09505 0.625,0.15625 0.0033,0.01262 -0.0017,0.01923 0,0.03125 l 0.25,0.03125 0.96875,0.9375 0.25,0.34375 c 0.0811,-0.07369 0.303623,-0.04281 0.6875,0.125 0.607399,0.265528 0.868266,0.492636 1.03125,0.84375 0.06383,0.1375 0.143771,0.30625 0.1875,0.375 0.225253,0.354138 0.561038,1.149776 0.5,1.1875 -0.03853,0.02381 -0.248739,-0.03927 -0.46875,-0.15625 -0.49758,-0.264566 -0.664332,-0.234841 -0.90625,0.125 -0.232736,0.346184 -0.242478,0.616236 -0.03125,1.09375 0.08886,0.200894 0.202786,0.613076 0.25,0.90625 0.05498,0.341405 0.134896,0.596227 0.25,0.71875 0.173841,0.185045 0.256907,0.201108 0.9375,0.3125 l 0.3125,0.0625 -0.1875,0.25 c -0.116491,0.138442 -0.246615,0.394039 -0.28125,0.625 -0.03297,0.219879 -0.130185,0.545147 -0.21875,0.71875 -0.177735,0.348389 -0.115073,0.556817 0.1875,0.71875 0.311029,0.166458 0.207361,0.463372 -0.34375,0.875 -0.352353,0.263173 -0.396098,0.500756 -0.1875,1 0.148272,0.354863 0.403506,0.5625 0.71875,0.5625 0.127302,0 0.21875,0.0121 0.21875,0.03125 0,0.01915 -0.07292,0.209369 -0.1875,0.4375 -0.117347,0.233631 -0.21875,0.564078 -0.21875,0.75 0,0.251437 -0.08107,0.41565 -0.3125,0.71875 -0.325631,0.426466 -0.59375,1.084022 -0.59375,1.40625 0,0.108829 0.03006,0.348522 0.09375,0.5 0.0992,0.235923 0.101873,0.313207 0,0.65625 -0.137913,0.464402 -0.104812,0.566362 0.375,1.03125 0.355493,0.344437 0.779938,0.492233 1.4375,0.5 0.465153,0.0055 1.447785,-0.374745 1.84375,-0.71875 0.319032,-0.277166 0.951906,-0.599601 1.0625,-0.53125 0.03916,0.0242 0.05473,0.127162 0.03125,0.25 -0.03437,0.179806 0.02214,0.282529 0.25,0.46875 l 0.28125,0.21875 -0.25,0.65625 c -0.116572,0.330232 -0.174766,0.646741 -0.1875,0.78125 0.03401,0.259561 0.03005,0.328908 0.0625,0.59375 0.541145,-0.541145 1.035844,-1.128736 1.34375,-1.5625 0.852133,-1.200445 1.584493,-2.762703 1.9375,-4.125 0.184955,-0.713763 0.375,-2.301985 0.375,-3.15625 0,-0.854265 -0.190045,-2.442487 -0.375,-3.15625 -1.0062,-3.883054 -3.999206,-7.19711 -7.78125,-8.59375 -1.241673,-0.458527 -2.677114,-0.723076 -4.125,-0.75 z m -0.6875,0.34375 c 0.06483,-0.01441 0.180942,0 0.3125,0 0.263115,0 0.406773,0.01109 0.375,0.0625 -0.02833,0.04583 -0.197077,0.09375 -0.375,0.09375 -0.177923,0 -0.346673,-0.04792 -0.375,-0.09375 -0.01589,-0.02571 -0.0023,-0.04809 0.0625,-0.0625 z m -0.6875,0.03125 c 0.04583,-0.02833 0.0625,-0.01729 0.0625,0.03125 0,0.04854 -0.01667,0.09375 -0.0625,0.09375 -0.04583,0 -0.09375,-0.01104 -0.09375,-0.03125 0,-0.02021 0.04792,-0.06542 0.09375,-0.09375 z m -4.03125,1.8125 c -0.12311,0.01646 -0.17886,0.04568 -0.25,0.125 -0.101379,0.113033 -0.15935,0.306801 -0.15625,0.53125 0.0073,0.525908 -0.107247,0.747862 -0.65625,1.25 -0.410104,0.375098 -0.556001,0.5389 -0.6875,0.9375 -0.252454,0.765239 -0.527466,1.182334 -0.96875,1.4375 -0.775418,0.448373 -1.829807,1.189885 -2,1.40625 -0.09532,0.121184 -0.194037,0.318905 -0.21875,0.4375 -0.02471,0.118595 -0.132858,0.514682 -0.25,0.875 -0.148144,0.455682 -0.218797,0.766671 -0.1875,1 0.02475,0.184498 0.01471,0.442732 -0.03125,0.5625 -0.07449,0.194123 -0.132636,0.584538 -0.28125,1.71875 -0.06696,0.511036 0.323525,1.855175 0.71875,2.4375 0.172926,0.25479 0.352088,0.642292 0.40625,0.875 0.05416,0.232708 0.208929,0.708212 0.34375,1.0625 l 0.25,0.65625 0.53125,0.25 c 0.488196,0.232994 0.71875,0.436803 0.71875,0.65625 0,0.04512 -0.148719,0.191067 -0.3125,0.34375 -0.481969,0.449309 -0.484581,0.542827 -0.15625,0.90625 0.158713,0.175676 0.374279,0.528754 0.46875,0.78125 0.04569,0.122105 0.06652,0.211007 0.125,0.3125 0.05848,0.101493 0.145034,0.197598 0.21875,0.28125 0.147433,0.167305 0.308215,0.293676 0.53125,0.40625 0.363336,0.183388 0.622629,0.597817 0.59375,0.96875 -0.01424,0.182941 -0.04837,0.288914 -0.15625,0.28125 l 0.09375,0.5 c 1.212857,0.73632 2.5296,1.250803 3.875,1.53125 l 0.375,-0.28125 c -0.04157,-0.01679 -0.09375,-0.01284 -0.09375,-0.03125 0,-0.1533 0.667,-0.443819 1.0625,-0.46875 0.664568,-0.04189 0.733464,-0.08861 0.90625,-0.46875 0.123943,-0.272687 0.223472,-0.345748 0.4375,-0.40625 0.153007,-0.04325 0.338566,-0.17795 0.40625,-0.28125 0.108819,-0.166077 0.11268,-0.219601 0,-0.4375 -0.160973,-0.311287 -0.607666,-0.6875 -0.8125,-0.6875 -0.08599,0 -0.258697,0.04076 -0.375,0.09375 -0.29293,0.133468 -0.763245,-0.08316 -1.40625,-0.65625 -0.274384,-0.244549 -0.732055,-0.574099 -1.03125,-0.75 -0.299196,-0.175902 -0.739583,-0.513541 -0.96875,-0.75 -0.300228,-0.309781 -0.638377,-0.554294 -1.1875,-0.8125 -0.419151,-0.197091 -0.920885,-0.499353 -1.125,-0.6875 -0.436253,-0.402123 -0.844237,-0.593333 -1.28125,-0.59375 -0.173348,-1.71e-4 -0.444792,-0.06543 -0.59375,-0.15625 -0.267867,-0.163319 -0.28125,-0.176967 -0.28125,-0.8125 0,-0.560158 -0.02533,-0.689642 -0.21875,-0.96875 l -0.21875,-0.3125 0.15625,-0.3125 c 0.09152,-0.170117 0.174918,-0.388572 0.15625,-0.46875 -0.03764,-0.161639 -0.390021,-0.265678 -0.59375,-0.1875 -0.07217,0.0277 -0.192904,0.01603 -0.28125,-0.03125 -0.131284,-0.07026 -0.15625,-0.184111 -0.15625,-0.59375 0,-1.275919 0.858259,-1.448209 1.53125,-0.3125 0.284537,0.480172 0.297565,0.58086 0.25,0.9375 -0.0446,0.33442 -0.02309,0.375 0.09375,0.375 0.292458,0 0.442027,-0.146469 0.53125,-0.5625 0.04953,-0.230941 0.141549,-0.538427 0.21875,-0.65625 0.122069,-0.186302 0.197104,-0.199688 0.46875,-0.15625 0.339903,0.05435 0.5625,-0.07867 0.5625,-0.34375 0,-0.221651 0.188849,-0.34375 0.5,-0.34375 0.155633,0 0.375907,-0.06789 0.5,-0.15625 0.124093,-0.08836 0.381601,-0.172737 0.5625,-0.1875 0.292364,-0.02386 0.309158,-0.05366 0.3125,-0.25 0.0066,-0.389458 0.184652,-0.5 0.8125,-0.5 l 0.5625,0 0.25,-0.34375 c 0.380298,-0.555219 0.389713,-0.661812 0.09375,-1.25 -0.145626,-0.289413 -0.365889,-0.659002 -0.5,-0.8125 -0.134111,-0.153498 -0.359024,-0.47064 -0.46875,-0.71875 -0.313795,-0.709546 -0.646437,-0.698717 -0.75,0.03125 -0.03942,0.277846 -0.116501,0.479185 -0.3125,0.6875 -0.150933,0.160417 -0.296123,0.345833 -0.3125,0.4375 -0.04459,0.249594 -0.337585,0.211167 -0.46875,-0.0625 -0.09368,-0.195453 -0.11036,-0.276626 0,-0.65625 0.07172,-0.246703 0.15625,-0.655096 0.15625,-0.90625 0,-0.42706 5.37e-4,-0.499411 0.3125,-0.78125 0.324514,-0.29318 0.353541,-0.28125 1,-0.28125 0.616331,0 0.68626,-0.02608 0.8125,-0.21875 0.08529,-0.130164 0.126611,-0.275324 0.09375,-0.40625 C -20.068619,19.027912 -20.139978,19 -20.551971,19 c -0.407319,0 -0.462232,-0.02141 -0.625,-0.25 -0.153122,-0.215039 -0.176522,-0.385967 -0.1875,-1.09375 l 0,-0.84375 0.53125,-0.46875 c 0.460313,-0.413724 0.514387,-0.505667 0.46875,-0.6875 -0.07436,-0.296272 -0.381097,-0.417609 -1.25,-0.46875 -0.34267,-0.02017 -0.53314,-0.01646 -0.65625,0 z m 4.96875,3.21875 c 0.0186,0.04544 -0.04484,0.09303 -0.21875,0.09375 -0.151663,6.26e-4 -0.365625,0.03486 -0.46875,0.0625 -0.05331,0.01429 -0.09468,0.0058 -0.125,0 -0.01213,-0.0023 -0.02294,0.005 -0.03125,0 l -0.375,0.1875 -0.03125,0.125 c -0.02993,0.159552 -0.02234,0.310629 0.03125,0.34375 0.04995,0.03087 0.09375,0.152217 0.09375,0.28125 0,0.129033 0.06024,0.378962 0.125,0.5625 0.108131,0.306476 0.122038,0.341688 -0.03125,0.59375 -0.263762,0.433721 -0.294551,1.050163 -0.0625,1.5 0.173415,0.336169 0.207285,0.375 0.46875,0.375 0.243888,0 0.327712,-0.03033 0.4375,-0.25 0.07221,-0.144489 0.260755,-0.385755 0.40625,-0.53125 0.145495,-0.145495 0.25,-0.276833 0.25,-0.3125 0,-0.03567 0.227778,-0.246547 0.5,-0.4375 0.272222,-0.190953 0.504809,-0.416694 0.53125,-0.5 0.02644,-0.08331 0.007,-0.271173 -0.0625,-0.4375 -0.0695,-0.166327 -0.125,-0.373097 -0.125,-0.46875 0,-0.09565 -0.07134,-0.338973 -0.15625,-0.53125 -0.08491,-0.192278 -0.190094,-0.41869 -0.21875,-0.5 -0.01981,-0.0562 -0.08539,-0.108926 -0.15625,-0.15625 l -0.78125,0 z m 5.625,2.34375 c 0.09632,0 0.4375,0.312634 0.4375,0.40625 0,0.03707 -0.05952,0.129782 -0.125,0.21875 -0.09812,0.133323 -0.123052,0.134275 -0.15625,0.03125 -0.191067,-0.592948 -0.228173,-0.65625 -0.15625,-0.65625 z m 3,0.25 c 0.246363,0 0.6875,0.277599 0.6875,0.4375 0,0.05096 -0.140625,0.297942 -0.3125,0.5625 -0.171875,0.264558 -0.344714,0.498017 -0.375,0.5 -0.03029,0.002 -0.122995,-0.177197 -0.21875,-0.375 C -9.196488,21.503699 -9.105369,21 -8.676971,21 z m 1.15625,1.84375 c 0.0591,-0.01647 0.121843,0.05041 0.15625,0.1875 0.09688,0.385991 -0.117162,0.870955 -0.59375,1.34375 -0.250398,0.248406 -0.46875,0.518937 -0.46875,0.59375 0,0.07481 -0.075,0.2 -0.1875,0.3125 -0.254923,0.254923 -0.702908,0.296192 -1,0.0625 -0.34909,-0.274594 -0.556327,-0.224636 -1,0.28125 -0.520626,0.593629 -0.625,0.590487 -0.625,0 0,-0.249378 0.0164,-0.471512 0.0625,-0.5 0.0461,-0.02849 0.101367,-0.204962 0.09375,-0.40625 -0.0241,-0.637251 0.193033,-0.775568 0.90625,-0.46875 0.464215,0.1997 0.84375,0.182792 0.84375,-0.0625 0,-0.207334 -0.238463,-0.435192 -0.5625,-0.5 -0.147741,-0.02955 -0.268133,-0.0738 -0.25,-0.125 0.05748,-0.162327 0.553592,-0.09286 0.8125,0.125 0.159356,0.134089 0.297506,0.184688 0.40625,0.15625 0.243231,-0.06361 0.304218,-0.155718 0.1875,-0.4375 -0.124529,-0.300639 -0.0812,-0.405357 0.125,-0.21875 0.0835,0.07556 0.29319,0.158638 0.4375,0.1875 0.236234,0.04725 0.277345,0.02144 0.4375,-0.25 0.103573,-0.175544 0.159647,-0.264778 0.21875,-0.28125 z M -5.208221,23 c 0.08989,0.0831 0.28125,1.310927 0.28125,1.75 0,0.225135 -0.01667,0.40625 -0.0625,0.40625 -0.04583,0 -0.09205,0.01146 -0.09375,0 -0.0017,-0.01146 -0.01483,-0.36875 -0.03125,-0.78125 -0.01642,-0.4125 -0.05996,-0.910417 -0.09375,-1.09375 -0.03379,-0.183333 -0.02992,-0.308909 0,-0.28125 z m -1.34375,1.09375 c 0.07277,-0.02524 0.260037,0.04565 0.46875,0.21875 0.306597,0.254288 0.322648,0.500288 0.03125,0.34375 -0.223481,-0.120053 -0.53125,-0.414603 -0.53125,-0.5 0,-0.03362 0.007,-0.05409 0.03125,-0.0625 z"
       id="path2970" />
  </g>
  <path
     sodipodi:nodetypes="cccccscscc"
     id="path3225"
     d="m 11.643711,29.696929 0.9711,-2.035313 2.416773,-2.179436 c 0.0499,0.314765 0.909904,-0.02461 0.893017,-0.131131 -0.09694,-0.01971 -0.479886,0.0043 -0.542907,-0.159495 -0.148263,-0.18317 2.32766,-0.104355 1.304785,-0.86466 -1.024452,-0.761477 -1.925729,0.07183 -1.925729,0.07183 0,0 -3.760267,1.719414 -4.39101,3.636579 -0.282081,0.857379 -0.7427168,1.698866 -0.7427168,1.698866 l 2.0166878,-0.03724 z"
     style="color:#000000;fill:url(#linearGradient3127);fill-opacity:1;stroke:none;stroke-width:1px;marker:none;visibility:visible;display:inline;overflow:visible;enable-background:accumulate" />
  <path
     style="color:#000000;fill:url(#linearGradient3124);fill-opacity:1;stroke:none;stroke-width:1px;marker:none;visibility:visible;display:inline;overflow:visible;enable-background:accumulate"
     d="m 13.791961,36.14003 2.118716,0.772379 3.25144,-0.13739 c -0.08917,-0.1514 0.511553,-0.901471 0.541143,-0.851228 0.232788,0.343018 -0.131812,0.600329 -0.247559,0.893344 0,0 1.894002,-1.637896 1.696734,-0.376775 -0.19727,1.261123 -1.458391,1.063854 -1.458391,1.063854 0,0 -3.634066,1.722706 -5.427116,0.796238 -0.801877,-0.414322 -1.868599,-1.241289 -1.868599,-1.241289 l 1.393632,-0.919133 z"
     id="path3227"
     sodipodi:nodetypes="cccccscscc" />
  <path
     style="color:#000000;fill:url(#linearGradient3271);fill-opacity:1;stroke:none;stroke-width:1px;marker:none;visibility:visible;display:inline;overflow:visible;enable-background:accumulate"
     d="m 11.161517,27.730937 c -0.281625,-0.0085 -0.606786,0.08132 -1.005843,0.335282 -0.5890553,1.322753 -2.0394786,2.374192 -1.3411247,4.386595 l 1.5367057,3.268991 c 0.855001,0.929521 1.596902,1.616825 3.464571,2.430788 1.296485,-0.337643 1.138996,-0.976778 1.844047,-1.424945 -0.508704,-0.441186 -0.582983,-0.696386 -1.285245,-0.894083 0.611463,-0.251967 1.195005,-0.462348 1.816106,-0.726442 -0.367915,-0.386588 -0.704558,-0.783311 -0.922023,-1.089664 -0.761877,-1.073298 -1.416668,-2.470086 -1.732286,-3.688093 -0.04901,-0.189119 -0.09474,-0.521252 -0.1397,-0.810262 -0.559927,0.20548 -1.096059,0.415703 -1.676406,0.586742 0.788226,-0.732058 0.557807,-1.11665 0.810263,-1.676406 -0.525902,-0.36047 -0.899689,-0.684298 -1.369065,-0.698503 z"
     id="path3229" />
  <g
     id="g3008"
     transform="matrix(-0.37718594,-0.81062648,0.81062648,-0.37718594,1.8827091,48.50649)">
    <path
       style="fill:url(#linearGradient3273);fill-rule:evenodd;stroke:none"
       d="m 14.797074,11.275794 c 0,2.400976 -1.217185,4.397952 -4.533586,4.499151 -1.9998825,0.06102 -2.6375354,-2.09933 -2.7120047,-4.499151 -0.1012145,-3.2611672 1.6219806,-4.3473546 3.6227937,-4.3473546 2.000816,0 3.622797,1.9463775 3.622797,4.3473546 z"
       id="path3237"
       sodipodi:nodetypes="csssc" />
    <path
       style="color:#000000;fill:#ffffff;fill-opacity:0.64285715;stroke:none;stroke-width:1px;marker:none;visibility:visible;display:inline;overflow:visible;filter:url(#filter4907);enable-background:accumulate"
       d="M 8.7686062,8.1190798 C 7.6011303,9.8702938 8.0316025,13.319877 8.3788904,14.257104 7.9718249,14.274319 6.8525034,9.9377534 8.7686062,8.1190798 z"
       id="path4911"
       sodipodi:nodetypes="ccc" />
    <path
       sodipodi:nodetypes="cccccccccccc"
       id="path3239"
       d="M 12.336741,6.5616161 C 12.451055,6.0357014 10.85242,5.5070145 10.442705,6.219022 10.157834,5.8108676 8.9280805,5.9712639 8.8991239,6.9198001 8.1844826,6.2501489 7.6248356,7.3258279 8.0114094,7.5225019 7.6041367,7.625837 7.235026,8.8454091 7.7917543,8.9005238 c 0.3922852,0.038848 1.5160404,-0.071796 1.5049229,-0.7054311 0.2172959,0.3778392 1.2692168,0.4559694 1.4776658,-0.041138 0.16821,0.4014064 1.387497,0.5965373 1.613742,0.1836209 -0.0071,0.586268 1.070336,1.108781 1.644941,0.9160538 0.502633,0.3400494 1.20358,-0.7166286 0.409434,-1.0882076 0.209546,-0.8698827 -0.400599,-1.5913121 -0.9207,-1.213571 0.213103,-0.5589989 -0.860803,-0.9189552 -1.185019,-0.3902313 z"
       style="color:#000000;fill:#000000;stroke:none;stroke-width:1px;marker:none;visibility:visible;display:inline;overflow:visible;enable-background:accumulate" />
    <path
       transform="matrix(2.2880812,0,0,2.2880812,-42.860149,-18.818353)"
       d="m 22.863329,12.779431 c 0,0.170394 -0.123591,0.308525 -0.276049,0.308525 -0.152457,0 -0.276048,-0.138131 -0.276048,-0.308525 0,-0.170393 0.123591,-0.308525 0.276048,-0.308525 0.152458,0 0.276049,0.138132 0.276049,0.308525 z"
       sodipodi:ry="0.30852503"
       sodipodi:rx="0.27604872"
       sodipodi:cy="12.779431"
       sodipodi:cx="22.58728"
       id="path3241"
       style="fill:#000000;fill-rule:evenodd;stroke:none"
       sodipodi:type="arc" />
    <path
       sodipodi:type="arc"
       style="fill:#000000;fill-rule:evenodd;stroke:none"
       id="path3243"
       sodipodi:cx="22.58728"
       sodipodi:cy="12.779431"
       sodipodi:rx="0.27604872"
       sodipodi:ry="0.30852503"
       d="m 22.863329,12.779431 c 0,0.170394 -0.123591,0.308525 -0.276049,0.308525 -0.152457,0 -0.276048,-0.138131 -0.276048,-0.308525 0,-0.170393 0.123591,-0.308525 0.276048,-0.308525 0.152458,0 0.276049,0.138132 0.276049,0.308525 z"
       transform="matrix(2.2880812,0,0,2.2880812,-40.08349,-18.53598)" />
    <path
       sodipodi:nodetypes="cccc"
       id="path3245"
       d="m 8.1748081,12.906876 c 0.4591527,0.494763 1.046807,0.969052 1.4997351,1.139231 1.0501998,0.328505 1.5527688,-0.377985 2.4400558,-0.867522 -1.21162,0.620941 -2.4789918,0.851603 -3.9397909,-0.271709 z"
       style="font-size:medium;font-style:normal;font-variant:normal;font-weight:normal;font-stretch:normal;text-indent:0;text-align:start;text-decoration:none;line-height:normal;letter-spacing:normal;word-spacing:normal;text-transform:none;direction:ltr;block-progression:tb;writing-mode:lr-tb;text-anchor:start;color:#000000;fill:#000000;fill-opacity:1;stroke:none;stroke-width:1px;marker:none;visibility:visible;display:inline;overflow:visible;enable-background:accumulate;font-family:Bitstream Vera Sans;-inkscape-font-specification:Bitstream Vera Sans" />
    <path
       sodipodi:nodetypes="cccccc"
       id="path4921"
       d="M 7.826793,8.7686062 C 7.7609217,8.4113667 7.6035198,8.0541272 8.1190798,7.6968877 7.8081756,6.8354028 8.4616825,6.7872464 8.9634642,7.0473613 9.230287,5.9719595 10.236556,6.092925 10.424898,6.4627876 c 0.615248,-0.9472473 1.511836,-0.3987755 1.656293,-1e-7 -1.30313,0.1552599 -2.4619245,-0.459272 -4.254398,2.3058187 z"
       style="color:#000000;fill:#ffffff;fill-opacity:0.3125;stroke:none;stroke-width:1px;marker:none;visibility:visible;display:inline;overflow:visible;filter:url(#filter4947);enable-background:accumulate" />
  </g>
  <path
     sodipodi:nodetypes="cccc"
     id="path4977"
     d="m 4.9039242,17.374831 c -0.5531394,0.01641 2.0625535,-2.178671 3.4100136,-2.403248 l 0.714479,0.61705 C 7.038951,15.501105 6.1936652,16.684887 4.9039242,17.374831 z"
     style="color:#000000;fill:#ffffff;fill-opacity:0.71875;stroke:none;stroke-width:1px;marker:none;visibility:visible;display:inline;overflow:visible;filter:url(#filter4973);enable-background:accumulate"
     transform="matrix(-0.37718594,-0.81062648,0.81062648,-0.37718594,1.8827091,48.50649)" />
  <path
     sodipodi:nodetypes="cccccscscc"
     id="path3181"
     d="m 33.022816,37.629605 -2.21319,0.432802 -3.190316,-0.642358 c 0.22306,-0.227621 -0.561909,-0.716092 -0.637399,-0.639059 0.04192,0.0896 0.289404,0.382824 0.195388,0.531047 -0.05877,0.22821 -1.470701,-1.807189 -1.471848,-0.532696 -0.0012,1.27646 1.205099,1.503773 1.205099,1.503773 0,0 3.621362,1.995426 5.536872,1.359676 0.856643,-0.284312 1.80691,-0.415755 1.80691,-0.415755 l -1.231516,-1.59743 z"
     style="color:#000000;fill:url(#linearGradient3227);fill-opacity:1;stroke:none;stroke-width:1px;marker:none;visibility:visible;display:inline;overflow:visible;enable-background:accumulate" />
  <path
     style="color:#000000;fill:url(#linearGradient3224);fill-opacity:1;stroke:none;stroke-width:1px;marker:none;visibility:visible;display:inline;overflow:visible;enable-background:accumulate"
     d="m 36.917338,32.065322 -0.642092,-2.161769 -2.047648,-2.529401 c -0.06846,0.161816 -1.02878,0.126291 -1.006059,0.07259 0.136778,-0.391333 0.560668,-0.251834 0.864956,-0.333464 0,0 -2.443916,-0.545181 -1.313559,-1.138169 1.13036,-0.592988 1.723347,0.53737 1.723347,0.53737 0,0 3.548813,1.892108 3.873112,3.884146 0.145037,0.890861 -0.08261,2.05778 -0.08261,2.05778 l -1.369443,-0.389082 z"
     id="path3183"
     sodipodi:nodetypes="cccccscscc" />
  <path
     style="color:#000000;fill:url(#linearGradient3275);fill-opacity:1;stroke:none;stroke-width:1px;marker:none;visibility:visible;display:inline;overflow:visible;enable-background:accumulate"
     d="m 36.279663,30.217606 c -0.05122,0.671418 -0.203778,0.882858 0.05588,1.564645 -0.449781,-0.270608 -0.869376,-0.539855 -1.313184,-0.810262 -0.352339,1.051143 -0.902951,2.152665 -1.536705,3.04547 -0.419437,0.590882 -1.264772,1.466301 -1.983747,2.095507 0.603972,0.415902 1.224676,0.783576 1.816106,1.229364 -1.05757,-0.196847 -1.244079,0.204511 -1.844046,0.335281 0.03816,1.019421 -0.0324,1.672327 1.145544,2.123448 1.413293,-0.315062 3.102695,0.223203 4.302774,-1.536706 l 1.732286,-3.18517 c 0.23707,-1.240499 0.319413,-2.261967 -0.1397,-4.246895 -1.04365,-0.840041 -1.45519,-0.315481 -2.235208,-0.614682 z"
     id="path3185" />
  <path
     style="color:#000000;fill:url(#linearGradient3277);fill-opacity:1;stroke:none;stroke-width:1px;marker:none;visibility:visible;display:inline;overflow:visible;enable-background:accumulate"
     d="m 35.050299,30.860228 c -0.349442,1.082514 -0.908965,2.233539 -1.564645,3.157231 -0.419437,0.590882 -1.264772,1.466301 -1.983747,2.095507 0.302153,0.181575 0.587594,0.360951 0.838203,0.642622 0.149453,-0.333566 0.192404,-0.757064 0.586742,-0.866143 1.246833,0.936148 2.168787,1.914608 3.799853,2.79401 0.247411,-0.117075 0.38813,-0.351982 0.447041,-0.670562 -0.169369,0.22471 -2.080151,-1.520845 -2.374908,-2.067567 -0.332915,-0.617499 0.978753,-3.070852 1.341125,-2.82195 1.05166,0.19945 1.960246,0.597489 2.682249,1.313184 0.144892,-0.282133 0.235494,-0.568923 0.05588,-0.977903 0,0 -3.173378,-1.521942 -3.492512,-1.620526 -0.319142,-0.09858 -0.05588,-0.838202 -0.05588,-0.838202 3.35e-4,-0.0015 -0.232154,-0.11278 -0.279401,-0.139701 z"
     id="path3662" />
  <g
     id="g3028"
     transform="matrix(-0.4262828,0.78591825,-0.78591825,-0.4262828,68.008672,13.275867)">
    <path
       style="fill:url(#linearGradient3279);fill-rule:evenodd;stroke:none"
       d="m 42.124146,13.968533 c 0,2.214381 -1.12259,4.056159 -4.181251,4.149492 -1.844458,0.05629 -2.432555,-1.936176 -2.501236,-4.149492 -0.09335,-3.00772 1.495925,-4.0094926 3.341242,-4.0094926 1.845319,0 3.341245,1.7951116 3.341245,4.0094926 z"
       id="path3193"
       sodipodi:nodetypes="csssc" />
    <path
       sodipodi:nodetypes="ccc"
       id="path4901"
       d="m 36.665764,10.32747 c -1.167476,1.751214 -0.737003,5.200797 -0.389715,6.138024 -0.407066,0.01722 -1.526387,-4.319351 0.389715,-6.138024 z"
       style="color:#000000;fill:#ffffff;fill-opacity:0.60714285;stroke:none;stroke-width:1px;marker:none;visibility:visible;display:inline;overflow:visible;filter:url(#filter4907);enable-background:accumulate" />
    <path
       sodipodi:nodetypes="ccccc"
       id="path3195"
       d="M 39.806525,9.8389682 C 38.40532,8.2191572 36.092472,9.644275 35.574852,11.598146 c 2.378373,0.596377 2.9036,-0.611895 4.376021,-0.921468 0.891,0.502115 1.15152,1.636375 2.042519,1.918477 0.09121,-1.630482 -0.569829,-3.9246441 -2.186867,-2.7561868 z"
       style="color:#000000;fill:url(#linearGradient3281);stroke:none;stroke-width:1px;marker:none;visibility:visible;display:inline;overflow:visible;enable-background:accumulate" />
    <path
       transform="matrix(2.1102593,0,0,2.1102593,-11.052152,-13.786799)"
       d="m 22.863329,12.779431 c 0,0.170394 -0.123591,0.308525 -0.276049,0.308525 -0.152457,0 -0.276048,-0.138131 -0.276048,-0.308525 0,-0.170393 0.123591,-0.308525 0.276048,-0.308525 0.152458,0 0.276049,0.138132 0.276049,0.308525 z"
       sodipodi:ry="0.30852503"
       sodipodi:rx="0.27604872"
       sodipodi:cy="12.779431"
       sodipodi:cx="22.58728"
       id="path3197"
       style="fill:#000000;fill-rule:evenodd;stroke:none"
       sodipodi:type="arc" />
    <path
       sodipodi:type="arc"
       style="fill:#000000;fill-rule:evenodd;stroke:none"
       id="path3199"
       sodipodi:cx="22.58728"
       sodipodi:cy="12.779431"
       sodipodi:rx="0.27604872"
       sodipodi:ry="0.30852503"
       d="m 22.863329,12.779431 c 0,0.170394 -0.123591,0.308525 -0.276049,0.308525 -0.152457,0 -0.276048,-0.138131 -0.276048,-0.308525 0,-0.170393 0.123591,-0.308525 0.276048,-0.308525 0.152458,0 0.276049,0.138132 0.276049,0.308525 z"
       transform="matrix(2.1102593,0,0,2.1102593,-8.4912844,-13.526371)" />
    <path
       sodipodi:nodetypes="cccc"
       id="path3201"
       d="m 36.016541,15.472852 c 0.423468,0.456312 0.965452,0.893741 1.383181,1.050694 0.968581,0.302976 1.432092,-0.348608 2.250423,-0.800101 -1.117458,0.572685 -2.286334,0.78542 -3.633604,-0.250593 z"
       style="font-size:medium;font-style:normal;font-variant:normal;font-weight:normal;font-stretch:normal;text-indent:0;text-align:start;text-decoration:none;line-height:normal;letter-spacing:normal;word-spacing:normal;text-transform:none;direction:ltr;block-progression:tb;writing-mode:lr-tb;text-anchor:start;color:#000000;fill:#000000;fill-opacity:1;stroke:none;stroke-width:1px;marker:none;visibility:visible;display:inline;overflow:visible;enable-background:accumulate;font-family:Bitstream Vera Sans;-inkscape-font-specification:Bitstream Vera Sans" />
    <path
       sodipodi:nodetypes="ccc"
       id="path4919"
       d="m 39.036536,9.6779431 c -1.099118,0.158344 -2.169924,0.6564489 -3.182679,1.8511499 0,0 1.136671,-2.987821 3.182679,-1.8511499 z"
       style="color:#000000;fill:#ffffff;fill-opacity:0.38839285;stroke:none;stroke-width:1px;marker:none;visibility:visible;display:inline;overflow:visible;filter:url(#filter4935);enable-background:accumulate" />
  </g>
  <path
     style="color:#000000;fill:#ffffff;fill-opacity:0.71875;stroke:none;stroke-width:1px;marker:none;visibility:visible;display:inline;overflow:visible;filter:url(#filter4973);enable-background:accumulate"
     d="m 33.125846,20.135318 c -0.55314,0.01641 2.062553,-2.178671 3.410013,-2.403248 l 0.714479,0.61705 c -1.989465,-0.08753 -2.834751,1.096254 -4.124492,1.786198 z"
     id="path4951"
     sodipodi:nodetypes="cccc"
     transform="matrix(-0.4262828,0.78591825,-0.78591825,-0.4262828,68.008672,13.275867)" />
  <path
     sodipodi:nodetypes="cccccscscc"
     id="path3203"
     d="m 27.356997,17.20022 1.730428,1.54257 c 0.637831,1.042769 0.612397,2.18029 0.661662,3.307138 -0.306433,-0.08755 -0.361552,0.83535 -0.257845,0.864981 0.05877,-0.07957 0.198528,-0.436917 0.373644,-0.424945 0.22862,-0.05715 -0.887354,2.154413 0.2335,1.547766 1.122585,-0.607582 0.747279,-1.77628 0.747279,-1.77628 0,0 0.02742,-4.134638 -1.444698,-5.515299 -0.658347,-0.617452 -1.226959,-1.390088 -1.226959,-1.390088 l -0.817011,1.844157 z"
     style="color:#000000;fill:url(#linearGradient3265);fill-opacity:1;stroke:none;stroke-width:1px;marker:none;visibility:visible;display:inline;overflow:visible;enable-background:accumulate" />
  <path
     style="color:#000000;fill:url(#linearGradient3262);fill-opacity:1;stroke:none;stroke-width:1px;marker:none;visibility:visible;display:inline;overflow:visible;enable-background:accumulate"
     d="m 20.609035,16.4298 -1.725115,1.136566 c -0.507442,1.019405 -0.766834,2.286862 -1.116105,3.464439 0.174882,-0.01697 0.601516,0.844107 0.543479,0.849739 -0.409205,0.06635 -0.488684,-0.37277 -0.705518,-0.601326 0,0 0.685989,2.408187 -0.374195,1.697305 -1.060183,-0.710884 -0.3493,-1.771068 -0.3493,-1.771068 0,0 -0.02881,-4.021606 1.567617,-5.256439 0.713935,-0.552238 2.306763,-1.170517 2.306763,-1.170517 L 20.609035,16.4298 z"
     id="path3205"
     sodipodi:nodetypes="cccccscscc" />
  <path
     style="color:#000000;fill:url(#linearGradient3269);stroke:none;stroke-width:1px;marker:none;visibility:visible;display:inline;overflow:visible;enable-background:accumulate"
     d="m 22.449316,13.481489 c -1.203456,0.383057 -2.162196,0.773499 -3.688093,2.123447 -0.24082,1.317908 0.421967,1.09956 0.530862,1.927867 0.559295,-0.250338 0.956768,-0.673764 1.257304,-0.502922 0.586524,-0.21932 1.163961,-0.408839 1.704346,-0.502922 2.014603,-0.350748 4.230867,-0.180956 6.007121,0.474982 0.383599,0.141656 0.753457,0.318889 1.117604,0.502921 0.09508,-0.231749 0.14366,-0.524589 0.08382,-0.977903 -0.950778,-1.092099 -1.289519,-2.829667 -3.408692,-3.04547 l -3.604272,0 z"
     id="path3207" />
  <path
     style="color:#000000;fill:url(#linearGradient3256);stroke:none;stroke-width:1px;marker:none;visibility:visible;display:inline;overflow:visible;enable-background:accumulate"
     d="m 22.635596,13.630226 c 0,10e-7 -0.377561,2.142019 0.725913,3.571492 1.018462,-0.811892 1.567972,-3.658603 1.567972,-3.658603 l -2.293886,0.08711 z"
     id="path4693"
     sodipodi:nodetypes="cccc" />
  <g
     id="g3017"
     transform="matrix(0.89408306,0,0,0.89408306,1.7292965,-0.68478238)">
    <path
       sodipodi:nodetypes="ccssccc"
       id="path3832"
       d="m 28.218129,10.820912 c 0.713714,0.903048 2.273469,0.0371 2.029722,2.942114 0,0 0.928082,0.451219 1.303876,0.794446 0.664927,0.607302 -0.586127,1.648483 -1.318786,1.098989 -0.05682,-0.04262 0.181812,-1.450137 -0.395447,-1.491688 -2.349023,-0.169082 -2.388656,-2.684468 -2.388656,-2.684468 l 0.769291,-0.659393 z"
       style="color:#000000;fill:url(#linearGradient3283);stroke:none;stroke-width:1px;marker:none;visibility:visible;display:inline;overflow:visible;enable-background:accumulate" />
    <path
       style="color:#000000;fill:url(#linearGradient3285);stroke:none;stroke-width:1px;marker:none;visibility:visible;display:inline;overflow:visible;enable-background:accumulate"
       d="m 22.249366,10.366642 c -0.930097,0.678089 -2.199846,-0.5750854 -2.74556,2.288605 0,0 -1.015188,0.185278 -1.46938,0.414919 -0.803645,0.406325 0.121673,1.745348 0.975027,1.412902 0.06618,-0.02579 0.214486,-1.445664 0.781683,-1.330593 2.308082,0.468253 3.022073,-1.943997 3.022073,-1.943997 l -0.563843,-0.841836 z"
       id="path3836"
       sodipodi:nodetypes="ccssccc" />
    <path
       style="fill:url(#linearGradient3287);fill-rule:evenodd;stroke:none"
       d="m 28.353977,12.583055 c 0,2.164457 -1.097281,3.964712 -4.086985,4.055942 -1.802874,0.05501 -2.377712,-1.892526 -2.444846,-4.055942 -0.09124,-2.9399114 1.462201,-3.9190988 3.265915,-3.9190988 1.803716,0 3.265916,1.7546398 3.265916,3.9190988 z"
       id="path3215"
       sodipodi:nodetypes="csssc" />
    <path
       style="color:#000000;fill:#ffffff;fill-opacity:0.51339285;stroke:none;stroke-width:1px;marker:none;visibility:visible;display:inline;overflow:visible;filter:url(#filter4907);enable-background:accumulate"
       d="M 23.058187,9.3856563 C 21.890711,11.13687 22.321183,14.586453 22.668471,15.52368 22.261405,15.540895 21.142084,11.20433 23.058187,9.3856563 z"
       id="path4913"
       sodipodi:nodetypes="ccc" />
    <path
       sodipodi:nodetypes="ccccc"
       id="path3217"
       d="M 24.916352,7.9970967 C 23.8398,7.3662618 21.484328,8.7721586 22.021285,10.681981 c 2.324752,0.582932 2.02576,-0.518379 2.878859,-0.9308719 0.321416,0.8571249 2.407711,1.3560039 3.278623,1.6317459 0.968306,-1.8889241 -0.895313,-4.502054 -3.262415,-3.3857583 z"
       style="color:#000000;fill:url(#linearGradient3289);stroke:none;stroke-width:1px;marker:none;visibility:visible;display:inline;overflow:visible;enable-background:accumulate" />
    <path
       transform="matrix(2.0626834,0,0,2.0626834,-23.623459,-14.546532)"
       d="m 22.863329,12.779431 c 0,0.170394 -0.123591,0.308525 -0.276049,0.308525 -0.152457,0 -0.276048,-0.138131 -0.276048,-0.308525 0,-0.170393 0.123591,-0.308525 0.276048,-0.308525 0.152458,0 0.276049,0.138132 0.276049,0.308525 z"
       sodipodi:ry="0.30852503"
       sodipodi:rx="0.27604872"
       sodipodi:cy="12.779431"
       sodipodi:cx="22.58728"
       id="path3219"
       style="fill:#000000;fill-rule:evenodd;stroke:none"
       sodipodi:type="arc" />
    <path
       sodipodi:type="arc"
       style="fill:#000000;fill-rule:evenodd;stroke:none"
       id="path3221"
       sodipodi:cx="22.58728"
       sodipodi:cy="12.779431"
       sodipodi:rx="0.27604872"
       sodipodi:ry="0.30852503"
       d="m 22.863329,12.779431 c 0,0.170394 -0.123591,0.308525 -0.276049,0.308525 -0.152457,0 -0.276048,-0.138131 -0.276048,-0.308525 0,-0.170393 0.123591,-0.308525 0.276048,-0.308525 0.152458,0 0.276049,0.138132 0.276049,0.308525 z"
       transform="matrix(2.0626834,0,0,2.0626834,-21.120327,-14.291976)" />
    <path
       sodipodi:nodetypes="cccc"
       id="path3223"
       d="m 22.384068,14.053459 c 0.413921,0.446025 0.943686,0.873592 1.351997,1.027006 0.946744,0.296145 1.399807,-0.34075 2.199686,-0.782062 -1.092263,0.559773 -2.234787,0.767712 -3.551683,-0.244944 z"
       style="font-size:medium;font-style:normal;font-variant:normal;font-weight:normal;font-stretch:normal;text-indent:0;text-align:start;text-decoration:none;line-height:normal;letter-spacing:normal;word-spacing:normal;text-transform:none;direction:ltr;block-progression:tb;writing-mode:lr-tb;text-anchor:start;color:#000000;fill:#000000;fill-opacity:1;stroke:none;stroke-width:1px;marker:none;visibility:visible;display:inline;overflow:visible;enable-background:accumulate;font-family:Bitstream Vera Sans;-inkscape-font-specification:Bitstream Vera Sans" />
    <path
       sodipodi:nodetypes="ccc"
       id="path4917"
       d="M 22.311231,10.489851 C 22.446561,9.0554884 23.899603,8.3906886 24.779432,8.0216508 24.918071,7.883012 21.612658,8.168127 22.311231,10.489851 z"
       style="color:#000000;fill:#ffffff;fill-opacity:0.66517861;stroke:none;stroke-width:1px;marker:none;visibility:visible;display:inline;overflow:visible;filter:url(#filter4931);enable-background:accumulate" />
  </g>
  <path
     sodipodi:nodetypes="cccc"
     id="path4979"
     d="m 20.460081,14.549391 c -0.553139,0.01641 2.062554,-2.178671 3.410013,-2.403248 l 0.714479,0.61705 c -1.989466,-0.08753 -2.834751,1.096254 -4.124492,1.786198 z"
     style="color:#000000;fill:#ffffff;fill-opacity:0.57589285;stroke:none;stroke-width:1px;marker:none;visibility:visible;display:inline;overflow:visible;filter:url(#filter4973);enable-background:accumulate"
     transform="matrix(0.89408306,0,0,0.89408306,0.68398152,3.0318931)" />
</svg>
