<?xml version="1.0" encoding="UTF-8" standalone="no"?>
<!-- Created with Inkscape (http://www.inkscape.org/) -->

<svg
   xmlns:dc="http://purl.org/dc/elements/1.1/"
   xmlns:cc="http://creativecommons.org/ns#"
   xmlns:rdf="http://www.w3.org/1999/02/22-rdf-syntax-ns#"
   xmlns:svg="http://www.w3.org/2000/svg"
   xmlns="http://www.w3.org/2000/svg"
   xmlns:xlink="http://www.w3.org/1999/xlink"
   xmlns:sodipodi="http://sodipodi.sourceforge.net/DTD/sodipodi-0.dtd"
   xmlns:inkscape="http://www.inkscape.org/namespaces/inkscape"
   id="svg1"
   sodipodi:version="0.32"
   inkscape:version="0.47 r22583"
   width="48"
   height="48"
   sodipodi:docname="mother-day01.svg"
   version="1.1"
   inkscape:export-filename="mother-day01.png"
   inkscape:export-xdpi="89.949997"
   inkscape:export-ydpi="89.949997">
  <defs
     id="defs3">
    <linearGradient
       id="linearGradient3801">
      <stop
         id="stop3803"
         offset="0"
         style="stop-color:#a20000;stop-opacity:1;" />
      <stop
         id="stop3805"
         offset="1"
         style="stop-color:#d40000;stop-opacity:1;" />
    </linearGradient>
    <linearGradient
       id="linearGradient4073">
      <stop
         id="stop4075"
         offset="0"
         style="stop-color:#fd0000;stop-opacity:1;" />
      <stop
         id="stop4077"
         offset="1"
         style="stop-color:#ff3e3e;stop-opacity:1;" />
    </linearGradient>
    <linearGradient
       id="linearGradient3764">
      <stop
         id="stop3766"
         offset="0"
         style="stop-color:#7ed249;stop-opacity:1;" />
      <stop
         id="stop3768"
         offset="1"
         style="stop-color:#286325;stop-opacity:1;" />
    </linearGradient>
    <linearGradient
       inkscape:collect="always"
       xlink:href="#linearGradient3801"
       id="linearGradient3994"
       gradientUnits="userSpaceOnUse"
       gradientTransform="matrix(1.1865835,0,0,1.1865835,7.5865798,-5.7451683)"
       x1="2.3486855"
       y1="1.1263158"
       x2="12.64267"
       y2="13" />
    <linearGradient
       inkscape:collect="always"
       xlink:href="#linearGradient3764"
       id="linearGradient3997"
       gradientUnits="userSpaceOnUse"
       x1="17.955992"
       y1="30.921528"
       x2="10.694736"
       y2="30.921528"
       gradientTransform="matrix(1.1865835,0,0,1.1865835,7.5865798,-9.3049187)" />
    <linearGradient
       inkscape:collect="always"
       xlink:href="#linearGradient3764"
       id="linearGradient4000"
       gradientUnits="userSpaceOnUse"
       x1="14.888233"
       y1="39"
       x2="16.134361"
       y2="30.5"
       gradientTransform="matrix(1.1865835,0,0,1.1865835,7.5865798,-9.3049187)" />
    <linearGradient
       inkscape:collect="always"
       xlink:href="#linearGradient4073"
       id="linearGradient4003"
       gradientUnits="userSpaceOnUse"
       gradientTransform="matrix(1.1865835,0,0,1.1865835,7.5865798,-5.7451683)"
       x1="15.766677"
       y1="12.5"
       x2="25.778948"
       y2="10.136842" />
    <linearGradient
       inkscape:collect="always"
       xlink:href="#linearGradient4073"
       id="linearGradient4006"
       gradientUnits="userSpaceOnUse"
       gradientTransform="matrix(1.1865835,0,0,1.1865835,7.5865798,-5.7451683)"
       x1="16"
       y1="4"
       x2="15"
       y2="10" />
    <linearGradient
       inkscape:collect="always"
       xlink:href="#linearGradient3801"
       id="linearGradient4009"
       gradientUnits="userSpaceOnUse"
       gradientTransform="matrix(1.1842525,-0.07433869,0.07433869,1.1842525,-1.129705,-0.39877392)"
       x1="2.3486855"
       y1="1.1263158"
       x2="12.64267"
       y2="13" />
    <linearGradient
       inkscape:collect="always"
       xlink:href="#linearGradient3764"
       id="linearGradient4012"
       gradientUnits="userSpaceOnUse"
       x1="17.955992"
       y1="30.921528"
       x2="10.694736"
       y2="30.921528"
       gradientTransform="matrix(1.1842525,-0.07433869,0.07433869,1.1842525,-1.3527211,-3.9515316)" />
    <linearGradient
       inkscape:collect="always"
       xlink:href="#linearGradient3764"
       id="linearGradient4015"
       gradientUnits="userSpaceOnUse"
       x1="14.888233"
       y1="39"
       x2="16.134361"
       y2="30.5"
       gradientTransform="matrix(1.1842525,-0.07433869,0.07433869,1.1842525,-1.3527211,-3.9515316)" />
    <linearGradient
       inkscape:collect="always"
       xlink:href="#linearGradient3764"
       id="linearGradient4018"
       gradientUnits="userSpaceOnUse"
       x1="14"
       y1="39"
       x2="9.9594812"
       y2="27.463158"
       gradientTransform="matrix(1.1842525,-0.07433869,0.07433869,1.1842525,-1.3527211,-3.9515316)" />
    <linearGradient
       inkscape:collect="always"
       xlink:href="#linearGradient4073"
       id="linearGradient4021"
       gradientUnits="userSpaceOnUse"
       gradientTransform="matrix(1.1842525,-0.07433869,0.07433869,1.1842525,-1.129705,-0.39877392)"
       x1="15.766677"
       y1="12.5"
       x2="25.778948"
       y2="10.136842" />
    <linearGradient
       inkscape:collect="always"
       xlink:href="#linearGradient4073"
       id="linearGradient4024"
       gradientUnits="userSpaceOnUse"
       gradientTransform="matrix(1.1842525,-0.07433869,0.07433869,1.1842525,-1.129705,-0.39877392)"
       x1="16"
       y1="4"
       x2="15"
       y2="10" />
    <linearGradient
       inkscape:collect="always"
       xlink:href="#linearGradient3801"
       id="linearGradient4027"
       gradientUnits="userSpaceOnUse"
       gradientTransform="matrix(1.1738879,-0.17311129,0.17311129,1.1738879,13.061961,-0.93638155)"
       x1="2.3486855"
       y1="1.1263158"
       x2="12.64267"
       y2="13" />
    <linearGradient
       inkscape:collect="always"
       xlink:href="#linearGradient3764"
       id="linearGradient4030"
       gradientUnits="userSpaceOnUse"
       x1="17.955992"
       y1="30.921528"
       x2="10.694736"
       y2="30.921528"
       gradientTransform="matrix(1.1863315,0.02445366,-0.02445366,1.1863315,15.899699,-6.6564851)" />
    <linearGradient
       inkscape:collect="always"
       xlink:href="#linearGradient3764"
       id="linearGradient4033"
       gradientUnits="userSpaceOnUse"
       gradientTransform="matrix(1.1863315,0.02445366,-0.02445366,1.1863315,17.183846,-6.6310234)"
       x1="14.888233"
       y1="39"
       x2="16.134361"
       y2="30.5" />
    <linearGradient
       inkscape:collect="always"
       xlink:href="#linearGradient3764"
       id="linearGradient4036"
       gradientUnits="userSpaceOnUse"
       x1="14"
       y1="39"
       x2="9.9594812"
       y2="27.463158"
       gradientTransform="matrix(1.1863315,0.02445366,-0.02445366,1.1863315,15.899699,-6.6564851)" />
    <linearGradient
       inkscape:collect="always"
       xlink:href="#linearGradient4073"
       id="linearGradient4039"
       gradientUnits="userSpaceOnUse"
       gradientTransform="matrix(1.1738879,-0.17311129,0.17311129,1.1738879,13.061961,-0.93638155)"
       x1="15.766677"
       y1="12.5"
       x2="25.778948"
       y2="10.136842" />
    <linearGradient
       inkscape:collect="always"
       xlink:href="#linearGradient4073"
       id="linearGradient4042"
       gradientUnits="userSpaceOnUse"
       gradientTransform="matrix(1.1738879,-0.17311129,0.17311129,1.1738879,13.061961,-0.93638155)"
       x1="16"
       y1="4"
       x2="15"
       y2="10" />
    <filter
       inkscape:collect="always"
       id="filter4096"
       x="-0.27886684"
       width="1.5577337"
       y="-0.059619802"
       height="1.1192396">
      <feGaussianBlur
         inkscape:collect="always"
         stdDeviation="0.15166441"
         id="feGaussianBlur4098" />
    </filter>
    <filter
       inkscape:collect="always"
       id="filter4100"
       x="-0.48897826"
       width="1.9779565"
       y="-0.074442942"
       height="1.1488859">
      <feGaussianBlur
         inkscape:collect="always"
         stdDeviation="0.15166441"
         id="feGaussianBlur4102" />
    </filter>
    <filter
       inkscape:collect="always"
       id="filter4152"
       x="-0.34709146"
       width="1.6941829"
       y="-0.030629893"
       height="1.0612598">
      <feGaussianBlur
         inkscape:collect="always"
         stdDeviation="0.16605883"
         id="feGaussianBlur4154" />
    </filter>
    <filter
       inkscape:collect="always"
       id="filter4156"
       x="-0.48919644"
       width="1.9783929"
       y="-0.026859747"
       height="1.0537195">
      <feGaussianBlur
         inkscape:collect="always"
         stdDeviation="0.16605883"
         id="feGaussianBlur4158" />
    </filter>
    <filter
       inkscape:collect="always"
       id="filter4160"
       x="-0.61531006"
       width="2.2306201"
       y="-0.027817348"
       height="1.0556347">
      <feGaussianBlur
         inkscape:collect="always"
         stdDeviation="0.16605883"
         id="feGaussianBlur4162" />
    </filter>
    <filter
       inkscape:collect="always"
       id="filter4174"
       x="-0.25186045"
       width="1.5037209"
       y="-0.14429081"
       height="1.2885816">
      <feGaussianBlur
         inkscape:collect="always"
         stdDeviation="0.18244515"
         id="feGaussianBlur4176" />
    </filter>
    <filter
       inkscape:collect="always"
       id="filter4210"
       x="-0.36955657"
       width="1.7391131"
       y="-0.18447501"
       height="1.36895">
      <feGaussianBlur
         inkscape:collect="always"
         stdDeviation="0.34316934"
         id="feGaussianBlur4212" />
    </filter>
    <filter
       inkscape:collect="always"
       id="filter4214"
       x="-0.35498962"
       width="1.7099792"
       y="-0.15648524"
       height="1.3129705">
      <feGaussianBlur
         inkscape:collect="always"
         stdDeviation="0.34316934"
         id="feGaussianBlur4216" />
    </filter>
    <linearGradient
       inkscape:collect="always"
       xlink:href="#linearGradient3764"
       id="linearGradient2885"
       x1="25.700275"
       y1="35.941357"
       x2="21.370338"
       y2="22.253164"
       gradientUnits="userSpaceOnUse" />
    <filter
       inkscape:collect="always"
       id="filter3665"
       x="-0.40916864"
       width="1.8183373"
       y="-0.060988255"
       height="1.1219765">
      <feGaussianBlur
         inkscape:collect="always"
         stdDeviation="0.21769651"
         id="feGaussianBlur3667" />
    </filter>
    <filter
       inkscape:collect="always"
       id="filter3687"
       x="-0.092019231"
       width="1.1840385"
       y="-0.44169231"
       height="1.8833846">
      <feGaussianBlur
         inkscape:collect="always"
         stdDeviation="0.71890024"
         id="feGaussianBlur3689" />
    </filter>
  </defs>
  <sodipodi:namedview
     id="base"
     pagecolor="#ffffff"
     bordercolor="#666666"
     borderopacity="1.0"
     inkscape:pageopacity="0.0"
     inkscape:pageshadow="2"
     inkscape:zoom="1"
     inkscape:cx="28.806867"
     inkscape:cy="24"
     inkscape:window-width="1153"
     inkscape:window-height="952"
     inkscape:window-x="497"
     inkscape:window-y="24"
     showgrid="false"
     inkscape:window-maximized="0"
     inkscape:current-layer="svg1"
     showguides="true"
     inkscape:guide-bbox="true"
     inkscape:snap-global="true">
    <inkscape:grid
       type="xygrid"
       id="grid2861" />
  </sodipodi:namedview>
  <metadata
     id="metadata4">
    <rdf:RDF>
      <cc:Work
         rdf:about="">
        <dc:format>image/svg+xml</dc:format>
        <dc:type
           rdf:resource="http://purl.org/dc/dcmitype/StillImage" />
        <dc:title />
      </cc:Work>
    </rdf:RDF>
  </metadata>
  <path
     style="fill:#000000;fill-opacity:0.76862744999999999;fill-rule:evenodd;stroke:none;filter:url(#filter3687)"
     d="M 24.4375 41.03125 C 22.370609 41.03125 20.71875 41.492326 20.71875 42.0625 C 20.71875 42.244585 20.887567 42.413973 21.1875 42.5625 C 20.627041 42.468463 19.991691 42.40625 19.3125 42.40625 C 17.100151 42.40625 15.3125 42.958801 15.3125 43.65625 C 15.3125 44.353699 17.100151 44.9375 19.3125 44.9375 C 21.524849 44.9375 23.3125 44.353699 23.3125 43.65625 C 23.3125 43.360636 22.977222 43.121421 22.4375 42.90625 C 23.028171 43.013813 23.676779 43.09375 24.4375 43.09375 C 25.253251 43.09375 25.978868 42.997219 26.59375 42.875 C 26.762096 43.402182 28.357728 43.8125 30.3125 43.8125 C 32.379391 43.8125 34.0625 43.351424 34.0625 42.78125 C 34.0625 42.211076 32.379391 41.75 30.3125 41.75 C 29.496749 41.75 28.771132 41.815281 28.15625 41.9375 C 27.941895 41.423513 26.358149 41.03125 24.4375 41.03125 z "
     id="path3660" />
  <path
     sodipodi:nodetypes="cccc"
     id="path3153"
     d="m 22.575003,10.342406 1.623745,-6.5949065 2.373167,8.3060845 c 0,0 -1.861062,4.683881 -3.996912,-1.711178 z"
     style="color:#000000;fill:url(#linearGradient4006);stroke:none;stroke-width:1px;marker:none;visibility:visible;display:inline;overflow:visible;enable-background:accumulate" />
  <path
     sodipodi:nodetypes="ccc"
     id="path3155"
     d="M 24.198748,15.613334 C 30.495304,14.980701 27.758499,8.4938333 28.945082,2.560916 23.012165,4.9340829 23.162049,9.5305323 24.198748,15.613334 z"
     style="color:#000000;fill:url(#linearGradient4003);stroke:none;stroke-width:1px;marker:none;visibility:visible;display:inline;overflow:visible;enable-background:accumulate" />
  <path
     sodipodi:nodetypes="cccc"
     id="path3159"
     d="m 23.774076,28.266061 c 0.807381,0.367542 -0.0125,-7.244404 2.360677,-10.804154 0,7.1195 -0.0282,12.785956 -1.936005,19.50993 l -0.424672,-8.705776 z"
     style="color:#000000;fill:url(#linearGradient4000);stroke:none;stroke-width:1px;marker:none;visibility:visible;display:inline;overflow:visible;enable-background:accumulate" />
  <path
     style="color:#000000;fill:url(#linearGradient2885);stroke:none;stroke-width:1px;stroke-linecap:butt;stroke-linejoin:miter;stroke-miterlimit:4;stroke-opacity:1;stroke-dasharray:none;stroke-dashoffset:0;marker:none;visibility:visible;display:inline;overflow:visible;enable-background:accumulate"
     d="m 22.673975,35.941356 c -0.281856,0.08748 -2.72352,-14.21297 -1.303637,-16.295465 0.07436,5.632877 1.206016,8.681231 2.374482,11.639618 l -1.070845,4.655847 z"
     id="path2883"
     sodipodi:nodetypes="cccc" />
  <path
     sodipodi:nodetypes="ccccc"
     id="path3161"
     d="m 23.274463,14.676557 c 0.584087,8.941587 -0.91889,19.746172 -0.69946,26.517019 1.186583,1.877811 2.373167,0.656373 3.55975,0 -2.852782,-5.631554 -0.729765,-17.167619 -1.936005,-26.766825 l -0.924285,0.249806 z"
     style="color:#000000;fill:url(#linearGradient3997);stroke:none;stroke-width:1px;marker:none;visibility:visible;display:inline;overflow:visible;enable-background:accumulate" />
  <path
     sodipodi:nodetypes="ccc"
     id="path3163"
     d="m 20.638998,3.7474995 c 1.130592,3.8773098 -4.746334,11.8658345 3.55975,11.8658345 3.559751,0 -0.977884,-9.7215845 -3.55975,-11.8658345 z"
     style="color:#000000;fill:url(#linearGradient3994);fill-opacity:1;stroke:none;stroke-width:1px;marker:none;visibility:visible;display:inline;overflow:visible;enable-background:accumulate" />
  <path
     sodipodi:nodetypes="cccc"
     id="path3127"
     d="m 14.837151,14.718183 1.207389,-6.6836785 2.888876,8.1410915 c 0,0 -1.563965,4.791274 -4.096265,-1.457413 z"
     style="color:#000000;fill:url(#linearGradient4024);stroke:none;stroke-width:1px;marker:none;visibility:visible;display:inline;overflow:visible;enable-background:accumulate" />
  <path
     sodipodi:nodetypes="ccc"
     id="path3129"
     d="M 16.787927,19.87703 C 23.032479,18.851164 19.894653,12.548498 20.707211,6.5528972 14.934626,9.2930958 15.372181,13.871126 16.787927,19.87703 z"
     style="color:#000000;fill:url(#linearGradient4021);stroke:none;stroke-width:1px;marker:none;visibility:visible;display:inline;overflow:visible;enable-background:accumulate" />
  <path
     sodipodi:nodetypes="cccc"
     id="path3131"
     d="m 16.941771,41.267914 c -3.99879,-6.882498 -5.406059,-10.360918 -3.557924,-18.799363 3.111892,11.693849 1.820049,9.014778 4.444822,13.988015 l -0.886898,4.811348 z"
     style="color:#000000;fill:url(#linearGradient4018);stroke:none;stroke-width:1px;marker:none;visibility:visible;display:inline;overflow:visible;enable-background:accumulate" />
  <path
     sodipodi:nodetypes="cccc"
     id="path3133"
     d="m 17.156774,32.531507 c 0.828822,0.316239 1.110254,-3.650479 0.889744,-11.544563 3.176273,6.537825 1.562311,13.376344 0.0795,20.206632 l -0.969248,-8.662069 z"
     style="color:#000000;fill:url(#linearGradient4015);stroke:none;stroke-width:1px;marker:none;visibility:visible;display:inline;overflow:visible;enable-background:accumulate" />
  <path
     sodipodi:nodetypes="ccccc"
     id="path3135"
     d="m 15.806769,19 c 0.339171,8.421427 0.313638,17.703164 1.28368,24.63642 1.301896,1.799783 2.409626,0.506406 3.552757,-0.223017 C 17.119456,37.82144 17.710675,27.706368 16.713589,18.692778 L 15.806769,19 z"
     style="color:#000000;fill:url(#linearGradient4012);stroke:none;stroke-width:1px;marker:none;visibility:visible;display:inline;overflow:visible;enable-background:accumulate" />
  <path
     sodipodi:nodetypes="ccc"
     id="path3137"
     d="M 12.491783,8.2575205 C 13.863064,12.056383 8.4981593,20.397401 16.787927,19.87703 20.340685,19.654014 15.202913,10.235807 12.491783,8.2575205 z"
     style="color:#000000;fill:url(#linearGradient4009);fill-opacity:1;stroke:none;stroke-width:1px;marker:none;visibility:visible;display:inline;overflow:visible;enable-background:accumulate" />
  <path
     style="color:#000000;fill:url(#linearGradient4042);stroke:none;stroke-width:1px;marker:none;visibility:visible;display:inline;overflow:visible;enable-background:accumulate"
     d="m 30.237044,12.792398 0.644239,-6.7612344 3.559554,7.8709924 c 0,0 -1.157817,4.905279 -4.203793,-1.109758 z"
     id="path3191"
     sodipodi:nodetypes="cccc" />
  <path
     style="color:#000000;fill:url(#linearGradient4039);stroke:none;stroke-width:1px;marker:none;visibility:visible;display:inline;overflow:visible;enable-background:accumulate"
     d="M 32.612395,17.770042 C 38.749286,16.22557 35.095392,10.207382 35.403723,4.1648304 29.880506,7.3781625 30.699365,11.903566 32.612395,17.770042 z"
     id="path3193"
     sodipodi:nodetypes="ccc" />
  <path
     style="color:#000000;fill:url(#linearGradient4036);stroke:none;stroke-width:1px;marker:none;visibility:visible;display:inline;overflow:visible;enable-background:accumulate"
     d="m 30.568161,40.97753 c -1.306817,-3.732295 -1.63856,-8.727401 -0.873658,-12.836372 0.450396,3.00266 0.622786,6.894939 1.957959,7.06631 l -1.084301,5.770062 z"
     id="path3195"
     sodipodi:nodetypes="cccc" />
  <path
     style="color:#000000;fill:url(#linearGradient4033);stroke:none;stroke-width:1px;marker:none;visibility:visible;display:inline;overflow:visible;enable-background:accumulate"
     d="m 32.593624,31.265576 c 0.799635,0.384103 1.410139,-3.545444 1.847213,-11.430502 2.621285,6.779433 0.443927,13.459952 -1.602044,20.143181 l -0.245169,-8.712679 z"
     id="path3197"
     sodipodi:nodetypes="cccc" />
  <path
     style="color:#000000;fill:url(#linearGradient4030);stroke:none;stroke-width:1px;marker:none;visibility:visible;display:inline;overflow:visible;enable-background:accumulate"
     d="m 31.090029,17.643201 c 2.314478,9.54768 -0.530887,17.932943 -0.770621,24.657801 1.147633,1.901866 2.359137,0.705141 3.558995,0.07336 -2.357857,-5.898544 1.347912,-16.037684 -1.859137,-24.961868 l -0.929237,0.230706 z"
     id="path3199"
     sodipodi:nodetypes="ccccc" />
  <path
     style="color:#000000;fill:url(#linearGradient4027);fill-opacity:1;stroke:none;stroke-width:1px;marker:none;visibility:visible;display:inline;overflow:visible;enable-background:accumulate"
     d="M 27.359618,6.5504968 C 29.043776,10.22138 24.39518,18.981822 32.612395,17.770042 36.13406,17.250709 30.226686,8.2951352 27.359618,6.5504968 z"
     id="path3201"
     sodipodi:nodetypes="ccc" />
  <path
     style="color:#000000;fill:#ffffff;fill-opacity:0.4732143;stroke:none;stroke-width:1px;marker:none;visibility:visible;display:inline;overflow:visible;filter:url(#filter4096);enable-background:accumulate"
     d="m 12.831579,33.273684 c 0.08938,-1.970081 -0.03543,-3.725976 0.463158,-6.105263 l 0.842105,3.957895 c -0.909657,0.24122 -1.036424,1.26533 -1.305263,2.147368 z"
     id="path4046"
     sodipodi:nodetypes="cccc"
     transform="matrix(1.1865835,0,0,1.1865835,-2.3307602,-8.5180264)" />
  <path
     style="color:#000000;fill:#ffffff;fill-opacity:0.58928576;stroke:none;stroke-width:1px;marker:none;visibility:visible;display:inline;overflow:visible;filter:url(#filter4100);enable-background:accumulate"
     d="m 26.894736,36.936842 c -0.170061,0.182625 -0.152473,-4.351671 0.08421,-4.88421 l 0.547368,3.452631 c -0.509792,-0.04652 -0.557408,0.715764 -0.631579,1.431579 z"
     id="path4048"
     sodipodi:nodetypes="cccc"
     transform="matrix(1.1865835,0,0,1.1865835,-2.3307602,-8.5180264)" />
  <path
     style="color:#000000;fill:#ffffff;fill-opacity:0.66964285;stroke:none;stroke-width:1px;marker:none;visibility:visible;display:inline;overflow:visible;filter:url(#filter4160);enable-background:accumulate"
     d="m 15.484211,25.147369 0.547368,14.063157 c 0.207143,2.347617 0.125308,-11.674574 -0.547368,-14.063157 z"
     id="path4050"
     sodipodi:nodetypes="ccc"
     transform="matrix(1.1865835,0,0,1.1865835,-2.3307602,-8.5180264)" />
  <path
     style="color:#000000;fill:#ffffff;fill-opacity:0.66964285;stroke:none;stroke-width:1px;marker:none;visibility:visible;display:inline;overflow:visible;filter:url(#filter4156);enable-background:accumulate"
     d="m 21.884211,21.273684 c 0.136325,5.206604 -0.168982,10.059902 -0.589474,14.821053 0.325455,0.569547 1.233144,-13.515683 0.589474,-14.821053 z"
     id="path4052"
     sodipodi:nodetypes="ccc"
     transform="matrix(1.1865835,0,0,1.1865835,-2.3307602,-8.5180264)" />
  <path
     style="color:#000000;fill:#ffffff;fill-opacity:0.66964285;stroke:none;stroke-width:1px;marker:none;visibility:visible;display:inline;overflow:visible;filter:url(#filter4152);enable-background:accumulate"
     d="m 28.831579,24.936843 c 0.730085,2.487388 -0.244724,12.839075 -0.547368,13.010526 0.463158,0.123637 1.978947,-11.425521 0.547368,-13.010526 z"
     id="path4054"
     sodipodi:nodetypes="ccc"
     transform="matrix(1.1865835,0,0,1.1865835,-2.3307602,-8.5180264)" />
  <path
     style="color:#000000;fill:#ffffff;fill-opacity:0.65178576;stroke:none;stroke-width:1px;marker:none;visibility:visible;display:inline;overflow:visible;filter:url(#filter4210);enable-background:accumulate"
     d="m 12.494737,19.126316 c 0.179527,2.758201 0.988902,3.94178 2.063158,4.463158 0,0 -2.947369,0.210532 -2.063158,-4.463158 z"
     id="path4164"
     sodipodi:nodetypes="ccc"
     transform="matrix(1.1865835,0,0,1.1865835,-2.3307602,-8.5180264)" />
  <path
     style="color:#000000;fill:#ffffff;fill-opacity:0.65178576;stroke:none;stroke-width:1px;marker:none;visibility:visible;display:inline;overflow:visible;filter:url(#filter4214);enable-background:accumulate"
     d="m 25.589474,16.810527 c 0.181098,2.079795 0.189212,4.267707 2.105263,5.263157 0,0 -3.157895,-0.126315 -2.105263,-5.263157 z"
     id="path4166"
     sodipodi:nodetypes="ccc"
     transform="matrix(1.1865835,0,0,1.1865835,-2.3307602,-8.5180264)" />
  <path
     style="color:#000000;fill:#ffffff;fill-opacity:0.62946424;stroke:none;stroke-width:1px;marker:none;visibility:visible;display:inline;overflow:visible;filter:url(#filter4174);enable-background:accumulate"
     d="M 19.273685,13.863158 C 19.4,13.610526 19.49958,10.721888 19.652632,10.831579 20.235564,11.249361 21.126999,13.084552 21,13.021053 20.514876,12.355451 19.981648,11.703414 19.273685,13.863158 z"
     id="path4168"
     sodipodi:nodetypes="cscc"
     transform="matrix(1.1865835,0,0,1.1865835,-2.3307602,-8.5180264)" />
  <path
     style="color:#000000;fill:#ffffff;stroke:none;stroke-width:1px;stroke-linecap:butt;stroke-linejoin:miter;stroke-miterlimit:4;stroke-opacity:1;stroke-dasharray:none;stroke-dashoffset:0;marker:none;visibility:visible;display:inline;overflow:visible;enable-background:accumulate;fill-opacity:0.5165289;filter:url(#filter3665)"
     d="m 21.603131,28.864468 c -0.409921,-2.855586 -0.879297,-5.711172 -0.32591,-8.566758 -0.03191,2.898914 0.572824,5.331992 1.024286,7.868381 -0.427607,-0.692578 -0.762784,-0.946116 -0.698376,0.698377 z"
     id="path2887"
     sodipodi:nodetypes="cccc" />
</svg>
