<?xml version="1.0" encoding="UTF-8" standalone="no"?>
<!-- Created with Inkscape (http://www.inkscape.org/) -->

<svg
   xmlns:dc="http://purl.org/dc/elements/1.1/"
   xmlns:cc="http://creativecommons.org/ns#"
   xmlns:rdf="http://www.w3.org/1999/02/22-rdf-syntax-ns#"
   xmlns:svg="http://www.w3.org/2000/svg"
   xmlns="http://www.w3.org/2000/svg"
   xmlns:xlink="http://www.w3.org/1999/xlink"
   xmlns:sodipodi="http://sodipodi.sourceforge.net/DTD/sodipodi-0.dtd"
   xmlns:inkscape="http://www.inkscape.org/namespaces/inkscape"
   id="svg1"
   sodipodi:version="0.32"
   inkscape:version="0.47 r22583"
   width="48"
   height="48"
   sodipodi:docname="mother-day02.svg"
   version="1.1"
   inkscape:export-filename="mother-day02.png"
   inkscape:export-xdpi="89.949997"
   inkscape:export-ydpi="89.949997">
  <defs
     id="defs3">
    <linearGradient
       id="linearGradient3801">
      <stop
         id="stop3803"
         offset="0"
         style="stop-color:#a20000;stop-opacity:1;" />
      <stop
         id="stop3805"
         offset="1"
         style="stop-color:#d40000;stop-opacity:1;" />
    </linearGradient>
    <linearGradient
       id="linearGradient4073">
      <stop
         id="stop4075"
         offset="0"
         style="stop-color:#fd0000;stop-opacity:1;" />
      <stop
         id="stop4077"
         offset="1"
         style="stop-color:#ff3e3e;stop-opacity:1;" />
    </linearGradient>
    <linearGradient
       inkscape:collect="always"
       xlink:href="#linearGradient4073"
       id="linearGradient3059"
       x1="12"
       y1="5"
       x2="18"
       y2="12"
       gradientUnits="userSpaceOnUse" />
    <linearGradient
       inkscape:collect="always"
       xlink:href="#linearGradient4073"
       id="linearGradient3061"
       x1="24"
       y1="3"
       x2="30"
       y2="11"
       gradientUnits="userSpaceOnUse" />
    <linearGradient
       inkscape:collect="always"
       xlink:href="#linearGradient4073"
       id="linearGradient3063"
       x1="29"
       y1="13"
       x2="37"
       y2="24"
       gradientUnits="userSpaceOnUse" />
    <linearGradient
       inkscape:collect="always"
       xlink:href="#linearGradient4073"
       id="linearGradient3065"
       x1="24"
       y1="20"
       x2="29"
       y2="29"
       gradientUnits="userSpaceOnUse" />
    <linearGradient
       inkscape:collect="always"
       xlink:href="#linearGradient4073"
       id="linearGradient3067"
       x1="10"
       y1="19"
       x2="18"
       y2="30"
       gradientUnits="userSpaceOnUse" />
    <linearGradient
       id="linearGradient3669">
      <stop
         id="stop3671"
         offset="0"
         style="stop-color:#ffd73b;stop-opacity:1;" />
      <stop
         id="stop3673"
         offset="1"
         style="stop-color:#ee8400;stop-opacity:1;" />
    </linearGradient>
    <radialGradient
       inkscape:collect="always"
       xlink:href="#linearGradient3669"
       id="radialGradient3173"
       cx="19"
       cy="14.583815"
       fx="19"
       fy="14.583815"
       r="9.154949"
       gradientTransform="matrix(1.7510872,0.30901522,-0.32769149,1.8569193,-9.4916628,-17.952254)"
       gradientUnits="userSpaceOnUse" />
    <linearGradient
       inkscape:collect="always"
       xlink:href="#linearGradient3669"
       id="linearGradient3972"
       x1="27.283264"
       y1="19.506214"
       x2="19.179457"
       y2="13.500173"
       gradientUnits="userSpaceOnUse"
       gradientTransform="translate(-1.403354,0.725854)" />
    <linearGradient
       inkscape:collect="always"
       xlink:href="#linearGradient3669"
       id="linearGradient3974"
       x1="25.986475"
       y1="-7.3673506"
       x2="33.539406"
       y2="-13.500995"
       gradientUnits="userSpaceOnUse" />
    <linearGradient
       inkscape:collect="always"
       xlink:href="#linearGradient3801"
       id="linearGradient3976"
       x1="7"
       y1="35.5"
       x2="20.364042"
       y2="30.721397"
       gradientUnits="userSpaceOnUse" />
    <linearGradient
       inkscape:collect="always"
       xlink:href="#linearGradient3801"
       id="linearGradient3978"
       x1="25.69232"
       y1="32.8633"
       x2="29.918968"
       y2="38.497772"
       gradientUnits="userSpaceOnUse" />
    <filter
       inkscape:collect="always"
       id="filter3992">
      <feGaussianBlur
         inkscape:collect="always"
         stdDeviation="0.12674678"
         id="feGaussianBlur3994" />
    </filter>
    <filter
       inkscape:collect="always"
       id="filter3996">
      <feGaussianBlur
         inkscape:collect="always"
         stdDeviation="0.12674678"
         id="feGaussianBlur3998" />
    </filter>
    <filter
       inkscape:collect="always"
       id="filter4010"
       x="-0.098181818"
       width="1.1963636"
       y="-0.12272727"
       height="1.2454545">
      <feGaussianBlur
         inkscape:collect="always"
         stdDeviation="0.2042415"
         id="feGaussianBlur4012" />
    </filter>
    <filter
       inkscape:collect="always"
       id="filter4036"
       x="-0.18040138"
       width="1.3608028"
       y="-0.095909625"
       height="1.1918192">
      <feGaussianBlur
         inkscape:collect="always"
         stdDeviation="0.22516671"
         id="feGaussianBlur4038" />
    </filter>
    <filter
       inkscape:collect="always"
       id="filter4040">
      <feGaussianBlur
         inkscape:collect="always"
         stdDeviation="0.22516671"
         id="feGaussianBlur4042" />
    </filter>
    <filter
       inkscape:collect="always"
       id="filter4114"
       x="-0.12675093"
       width="1.2535019"
       y="-0.16520411"
       height="1.3304082">
      <feGaussianBlur
         inkscape:collect="always"
         stdDeviation="0.28250579"
         id="feGaussianBlur4116" />
    </filter>
    <filter
       inkscape:collect="always"
       id="filter4118"
       x="-0.16674931"
       width="1.3334986"
       y="-0.13126692"
       height="1.2625338">
      <feGaussianBlur
         inkscape:collect="always"
         stdDeviation="0.28250579"
         id="feGaussianBlur4120" />
    </filter>
    <filter
       inkscape:collect="always"
       id="filter4122"
       x="-0.12653354"
       width="1.2530671"
       y="-0.079203744"
       height="1.1584075">
      <feGaussianBlur
         inkscape:collect="always"
         stdDeviation="0.28250579"
         id="feGaussianBlur4124" />
    </filter>
    <filter
       inkscape:collect="always"
       id="filter4126"
       x="-0.20928253"
       width="1.4185651"
       y="-0.073692405"
       height="1.1473848">
      <feGaussianBlur
         inkscape:collect="always"
         stdDeviation="0.28250579"
         id="feGaussianBlur4128" />
    </filter>
    <filter
       inkscape:collect="always"
       id="filter4130"
       x="-0.71989792"
       width="2.4397958"
       y="-0.11736198"
       height="1.234724">
      <feGaussianBlur
         inkscape:collect="always"
         stdDeviation="0.28250579"
         id="feGaussianBlur4132" />
    </filter>
    <filter
       inkscape:collect="always"
       id="filter3659">
      <feGaussianBlur
         inkscape:collect="always"
         stdDeviation="0.61397149"
         id="feGaussianBlur3661" />
    </filter>
  </defs>
  <sodipodi:namedview
     id="base"
     pagecolor="#ffffff"
     bordercolor="#666666"
     borderopacity="1.0"
     inkscape:pageopacity="0.0"
     inkscape:pageshadow="2"
     inkscape:zoom="1"
     inkscape:cx="24"
     inkscape:cy="24"
     inkscape:window-width="1153"
     inkscape:window-height="952"
     inkscape:window-x="497"
     inkscape:window-y="24"
     showgrid="false"
     inkscape:window-maximized="0"
     inkscape:current-layer="svg1"
     showguides="true"
     inkscape:guide-bbox="true"
     inkscape:snap-global="true">
    <inkscape:grid
       type="xygrid"
       id="grid2861" />
  </sodipodi:namedview>
  <metadata
     id="metadata4">
    <rdf:RDF>
      <cc:Work
         rdf:about="">
        <dc:format>image/svg+xml</dc:format>
        <dc:type
           rdf:resource="http://purl.org/dc/dcmitype/StillImage" />
        <dc:title />
      </cc:Work>
    </rdf:RDF>
  </metadata>
  <path
     style="fill:#000000;fill-opacity:0.76862745;fill-rule:evenodd;stroke:none;filter:url(#filter3659)"
     d="m 26.682906,25.066548 c -6.541545,0 -11.84375,1.472349 -11.84375,3.28125 0,0.551527 1.997587,1.92859 2.868333,2.384583 L 7.6529064,37.131687 c 6.4014536,2.141917 6.0884766,1.390947 7.7499996,1 l -1.325874,7.026749 c 3.146947,-1.272805 8.227862,-8.510006 10.918374,-11.569527 0.551571,0.02177 1.114164,-1.959861 1.6875,-1.959861 0.0215,0 0.04102,3.2e-5 0.0625,0 l -2.710813,13.86195 c 3.879746,-1.9061 4.202437,-3.264961 6.055813,-4.859311 1.987039,-0.218118 3.018727,2.791335 5.214249,2.814686 L 31.651656,31.316548 c 4.042751,-0.521299 6.875,-1.653899 6.875,-2.96875 0,-1.808901 -5.302205,-3.28125 -11.84375,-3.28125 z"
     id="path4134"
     sodipodi:nodetypes="cscccccscccccsc" />
  <path
     style="color:#000000;fill:url(#linearGradient3978);stroke:none;stroke-width:1px;stroke-linecap:butt;stroke-linejoin:miter;stroke-miterlimit:4;stroke-opacity:1;stroke-dasharray:none;stroke-dashoffset:0;marker:none;visibility:visible;display:inline;overflow:visible;enable-background:accumulate"
     d="M 23.837937,29.935313 C 25.229693,34.119874 24.883942,38.919024 24,45 c 1.899683,-1.472486 5.16737,-2.638303 6,-5 2.277331,0.722669 4.400809,2.599191 6,4 -1.132957,-5.114501 -2.650949,-10.58041 -5,-15 l -7.162063,0.935313 z"
     id="path3955"
     sodipodi:nodetypes="cccccc" />
  <path
     style="color:#000000;fill:url(#linearGradient3976);stroke:none;stroke-width:1px;stroke-linecap:butt;stroke-linejoin:miter;stroke-miterlimit:4;stroke-opacity:1;stroke-dasharray:none;stroke-dashoffset:0;marker:none;visibility:visible;display:inline;overflow:visible;enable-background:accumulate"
     d="m 21,26 c -4.241671,4.558326 -7.3579,9.31929 -14,10 1.9513633,1.104397 5.867116,2.529289 8,2 0.465075,2.06985 -1.282948,4.565896 -1,7 4.399736,-3.557219 9.759919,-7.167952 11,-15 -0.666667,-1.333333 -3.333333,-2.666667 -4,-4 z"
     id="path3957"
     sodipodi:nodetypes="cccccc" />
  <path
     style="color:#000000;fill:url(#linearGradient3059);stroke:none;stroke-width:1px;marker:none;visibility:visible;display:inline;overflow:visible;enable-background:accumulate"
     d="M 17.226634,18.676105 C 17,18.052486 12.531283,19.828207 11,16 9,11 12.171573,9.4142136 15,8 c 4,-2 9.39869,0.558831 9,2.052486 -0.364716,1.366375 -5.546731,7.688536 -6.773366,8.623619 z"
     id="path2901"
     sodipodi:nodetypes="csssc" />
  <path
     style="color:#000000;fill:url(#linearGradient3061);stroke:none;stroke-width:1px;marker:none;visibility:visible;display:inline;overflow:visible;enable-background:accumulate"
     d="m 23,7 c 0.856856,-3.4286287 7,-5 10,-3 4.160251,2.7735009 4,5.052486 2,8.052486 C 31.77871,17.611296 21,12 23,7 z"
     id="path2903"
     sodipodi:nodetypes="cscc" />
  <path
     style="color:#000000;fill:url(#linearGradient3063);stroke:none;stroke-width:1px;marker:none;visibility:visible;display:inline;overflow:visible;enable-background:accumulate"
     d="M 27.935083,17 C 32,12 36.569369,10.712912 40,13 c 3,2 6,5 2,11 -2.96014,4.44021 -15.757367,-0.23872 -14.064917,-7 z"
     id="path2907"
     sodipodi:nodetypes="cssc" />
  <path
     style="color:#000000;fill:url(#linearGradient3065);stroke:none;stroke-width:1px;marker:none;visibility:visible;display:inline;overflow:visible;enable-background:accumulate;fill-opacity:1"
     d="M 30,19.052486 C 33,24.052486 38,29 31,33 24.405475,36.7683 20,30.052486 21,25.052486 c 1.184052,-4.164699 5.697649,-10.043695 9,-6 z"
     id="path2909"
     sodipodi:nodetypes="cscc" />
  <path
     style="color:#000000;fill:url(#linearGradient3067);stroke:none;stroke-width:1px;marker:none;visibility:visible;display:inline;overflow:visible;enable-background:accumulate"
     d="m 21.356612,21.695874 c 1,5 -2.06835,10.876191 -9.06835,8.876191 C 8.8214375,29.581544 9.1313328,24.204717 11,21 c 3.082013,-5.285574 9.336862,-2.815273 10.356612,0.695874 z"
     id="path2911"
     sodipodi:nodetypes="cssc" />
  <path
     style="fill:url(#radialGradient3173);fill-rule:evenodd;stroke:none"
     d="m 33,13.052486 c 1.5325,3.549274 -1.130009,8.112558 -5.946881,10.19238 -4.816871,2.079822 -9.964055,0.888596 -11.496555,-2.660678 -1.5325,-3.549274 1.130009,-8.112558 5.946881,-10.19238 C 26.320316,8.311986 31.4675,9.503212 33,13.052486 z"
     id="path2888" />
  <path
     id="path3964"
     style="font-size:10.96735191px;font-style:normal;font-variant:normal;font-weight:bold;font-stretch:normal;text-align:start;line-height:125%;writing-mode:lr-tb;text-anchor:start;fill:url(#linearGradient3972);fill-opacity:1;stroke:none;font-family:DejaVu Serif;-inkscape-font-specification:Bitstream Vera Sans Bold"
     d="M 17.776103,16.959811 19.032339,15.863386 20,17 l 4.126817,-2.903056 -1.754037,-0.895105 1.514228,-1.188535 2.654194,1.027378 1.334795,1.824847 -5.884282,4.574032 1.023957,1.193176 -1.681709,0.950972"
     sodipodi:nodetypes="ccccccccccc" />
  <g
     transform="matrix(0.61429694,0.78907494,-0.78907494,0.61429694,-1.403354,0.725854)"
     style="font-size:10.96735191px;font-style:normal;font-variant:normal;font-weight:bold;font-stretch:normal;text-align:start;line-height:125%;writing-mode:lr-tb;text-anchor:start;fill:#ffff00;fill-opacity:1;stroke:none;font-family:DejaVu Serif;-inkscape-font-specification:Bitstream Vera Sans Bold"
     id="text3175">
    <path
       d="m 25.012565,-5.7779698 0,-0.6479735 1.499442,0 0,-6.4690237 -1.665452,0.985348 0,-0.797918 2.008182,-1.210264 1.686873,0 0,7.4918577 1.504798,0 0,0.6479735 -5.033843,0"
       style="fill:url(#linearGradient3974)"
       id="path3967" />
  </g>
  <path
     style="color:#000000;fill:#ffffff;stroke:none;stroke-width:1px;stroke-linecap:butt;stroke-linejoin:miter;stroke-miterlimit:4;stroke-opacity:1;stroke-dasharray:none;stroke-dashoffset:0;marker:none;visibility:visible;display:inline;overflow:visible;enable-background:accumulate;filter:url(#filter3996);fill-opacity:0.41517857"
     d="m 15.405646,18.472512 c 1.692552,-3.336281 3.883381,-6.467388 8.77266,-8.4873704 0,0 -7.631501,0.8558694 -8.77266,8.4873704 z"
     id="path3980"
     sodipodi:nodetypes="ccc" />
  <path
     style="color:#000000;fill:#ffffff;stroke:none;stroke-width:1px;stroke-linecap:butt;stroke-linejoin:miter;stroke-miterlimit:4;stroke-opacity:1;stroke-dasharray:none;stroke-dashoffset:0;marker:none;visibility:visible;display:inline;overflow:visible;enable-background:accumulate;filter:url(#filter3992);fill-opacity:0.41517857"
     d="m 25.105498,23.465081 c 2.780391,-1.782331 5.636249,-3.265282 7.488856,-8.20208 0,0 0.427935,6.490342 -7.488856,8.20208 z"
     id="path3982"
     sodipodi:nodetypes="ccc" />
  <path
     style="color:#000000;fill:#ffffff;stroke:none;stroke-width:1px;stroke-linecap:butt;stroke-linejoin:miter;stroke-miterlimit:4;stroke-opacity:1;stroke-dasharray:none;stroke-dashoffset:0;marker:none;visibility:visible;display:inline;overflow:visible;enable-background:accumulate;filter:url(#filter4010);fill-opacity:0.59375"
     d="m 24.178306,14.6211 -3.994056,3.066864 -0.998514,-0.570579 0.927191,1.497771 4.065379,-3.994056 z"
     id="path4000" />
  <path
     style="color:#000000;fill:#ffffff;stroke:none;stroke-width:1px;stroke-linecap:butt;stroke-linejoin:miter;stroke-miterlimit:4;stroke-opacity:1;stroke-dasharray:none;stroke-dashoffset:0;marker:none;visibility:visible;display:inline;overflow:visible;enable-background:accumulate;filter:url(#filter4040);fill-opacity:0.38839287"
     d="M 8.4160475,36.231798 C 11.196539,35.64337 13.8601,34.411826 16.261516,31.738484 c -1.077032,1.960697 -6.821183,4.588125 -1.997029,5.705795 -1.94948,0.381407 -3.89896,-0.49863 -5.8484395,-1.212481 z"
     id="path4016"
     sodipodi:nodetypes="cccc" />
  <path
     style="color:#000000;fill:#ffffff;stroke:none;stroke-width:1px;stroke-linecap:butt;stroke-linejoin:miter;stroke-miterlimit:4;stroke-opacity:1;stroke-dasharray:none;stroke-dashoffset:0;marker:none;visibility:visible;display:inline;overflow:visible;enable-background:accumulate;filter:url(#filter4036);fill-opacity:0.38839287"
     d="m 25.034175,39.51263 -0.142645,-5.634472 2.995543,0.927191 c -1.971549,-0.370013 -2.781081,1.467804 -2.852898,4.707281 z"
     id="path4018"
     sodipodi:nodetypes="cccc" />
  <path
     style="color:#000000;fill:#ffffff;stroke:none;stroke-width:1px;stroke-linecap:butt;stroke-linejoin:miter;stroke-miterlimit:4;stroke-opacity:1;stroke-dasharray:none;stroke-dashoffset:0;marker:none;visibility:visible;display:inline;overflow:visible;enable-background:accumulate;filter:url(#filter4126);fill-opacity:0.79910713"
     d="M 13.479941,19.185736 C 11.338802,21.544465 10.559176,24.69741 10.698366,28.38633 10.548528,28.203195 8.752337,21.8553 13.479941,19.185736 z"
     id="path4044"
     sodipodi:nodetypes="ccc" />
  <path
     style="color:#000000;fill:#ffffff;stroke:none;stroke-width:1px;stroke-linecap:butt;stroke-linejoin:miter;stroke-miterlimit:4;stroke-opacity:1;stroke-dasharray:none;stroke-dashoffset:0;marker:none;visibility:visible;display:inline;overflow:visible;enable-background:accumulate;filter:url(#filter4122);fill-opacity:0.79910713"
     d="M 12.267459,16.546805 C 9.8833359,11.796704 13.150164,9.9695089 16.118871,7.9881129 15.803512,7.9058454 7.4157965,10.837456 12.267459,16.546805 z"
     id="path4046"
     sodipodi:nodetypes="ccc" />
  <path
     style="color:#000000;fill:#ffffff;stroke:none;stroke-width:1px;stroke-linecap:butt;stroke-linejoin:miter;stroke-miterlimit:4;stroke-opacity:1;stroke-dasharray:none;stroke-dashoffset:0;marker:none;visibility:visible;display:inline;overflow:visible;enable-background:accumulate;filter:url(#filter4118);fill-opacity:0.79910713"
     d="M 23.393759,9.2005944 C 22.840955,8.2674284 26.515605,3.6204411 27.316493,4.0653789 26.334462,3.7847988 22.462748,6.2345273 23.393759,9.2005944 z"
     id="path4048"
     sodipodi:nodetypes="ccc" />
  <path
     style="color:#000000;fill:#ffffff;stroke:none;stroke-width:1px;stroke-linecap:butt;stroke-linejoin:miter;stroke-miterlimit:4;stroke-opacity:1;stroke-dasharray:none;stroke-dashoffset:0;marker:none;visibility:visible;display:inline;overflow:visible;enable-background:accumulate;filter:url(#filter4114);fill-opacity:0.79910713"
     d="m 33.3789,12.980684 c 0.601289,1.025656 0.777369,2.136354 0.427935,3.352154 0.524423,-4.212236 2.726874,-3.949733 4.921248,-3.708767 -2.11398,-0.542968 -3.993379,-0.616773 -5.349183,0.356613 z"
     id="path4050"
     sodipodi:nodetypes="cccc" />
  <path
     style="color:#000000;fill:#ffffff;stroke:none;stroke-width:1px;stroke-linecap:butt;stroke-linejoin:miter;stroke-miterlimit:4;stroke-opacity:1;stroke-dasharray:none;stroke-dashoffset:0;marker:none;visibility:visible;display:inline;overflow:visible;enable-background:accumulate;filter:url(#filter4130);fill-opacity:0.79910713"
     d="m 22.2526,24.463596 -0.927191,2.710252 c -0.119556,1.308035 0.521021,2.109314 0.927191,3.066865 -0.49266,-1.802541 -0.250743,-3.788726 0,-5.777117 z"
     id="path4052"
     sodipodi:nodetypes="cccc" />
</svg>
