<?xml version="1.0" encoding="UTF-8" standalone="no"?>
<!-- Created with Inkscape (http://www.inkscape.org/) -->

<svg
   xmlns:dc="http://purl.org/dc/elements/1.1/"
   xmlns:cc="http://creativecommons.org/ns#"
   xmlns:rdf="http://www.w3.org/1999/02/22-rdf-syntax-ns#"
   xmlns:svg="http://www.w3.org/2000/svg"
   xmlns="http://www.w3.org/2000/svg"
   xmlns:xlink="http://www.w3.org/1999/xlink"
   xmlns:sodipodi="http://sodipodi.sourceforge.net/DTD/sodipodi-0.dtd"
   xmlns:inkscape="http://www.inkscape.org/namespaces/inkscape"
   width="48"
   height="48"
   id="svg2"
   version="1.1"
   inkscape:version="0.47 r22583"
   sodipodi:docname="new-year02.svg"
   inkscape:export-filename="new-year02.png"
   inkscape:export-xdpi="89.949997"
   inkscape:export-ydpi="89.949997">
  <defs
     id="defs4">
    <linearGradient
       id="linearGradient3637">
      <stop
         id="stop3639"
         offset="0"
         style="stop-color:#f9f9f9;stop-opacity:0.98518521;" />
      <stop
         id="stop3641"
         offset="1"
         style="stop-color:#d5d5d5;stop-opacity:1;" />
    </linearGradient>
    <linearGradient
       id="linearGradient3651">
      <stop
         id="stop3653"
         offset="0"
         style="stop-color:#555555;stop-opacity:1;" />
      <stop
         id="stop3655"
         offset="1"
         style="stop-color:#000000;stop-opacity:1;" />
    </linearGradient>
    <linearGradient
       id="linearGradient3689">
      <stop
         id="stop3691"
         offset="0"
         style="stop-color:#ffea00;stop-opacity:1;" />
      <stop
         id="stop3693"
         offset="1"
         style="stop-color:#ffffa4;stop-opacity:1;" />
    </linearGradient>
    <linearGradient
       id="linearGradient3635">
      <stop
         id="stop3637"
         offset="0"
         style="stop-color:#003e8c;stop-opacity:1;" />
      <stop
         id="stop3639-4"
         offset="1"
         style="stop-color:#0062db;stop-opacity:1;" />
    </linearGradient>
    <linearGradient
       inkscape:collect="always"
       xlink:href="#linearGradient3635"
       id="linearGradient4624"
       gradientUnits="userSpaceOnUse"
       gradientTransform="matrix(1.09375,0,0,1.09375,-5.729575,1000.6287)"
       x1="35.00946"
       y1="9.1774073"
       x2="9.5382719"
       y2="26.329281" />
    <linearGradient
       inkscape:collect="always"
       xlink:href="#linearGradient3635"
       id="linearGradient4626"
       gradientUnits="userSpaceOnUse"
       gradientTransform="matrix(1.09375,0,0,1.09375,-10.287002,1003.1287)"
       x1="20.022455"
       y1="13.880549"
       x2="42.133327"
       y2="40.763069" />
    <radialGradient
       inkscape:collect="always"
       xlink:href="#linearGradient3637"
       id="radialGradient4628"
       gradientUnits="userSpaceOnUse"
       gradientTransform="matrix(0.88648817,1.0424731,-0.80006093,0.68035067,20.693155,-16.219528)"
       cx="20.613342"
       cy="21.628408"
       fx="20.613342"
       fy="21.628408"
       r="16" />
    <linearGradient
       inkscape:collect="always"
       xlink:href="#linearGradient3651"
       id="linearGradient4630"
       gradientUnits="userSpaceOnUse"
       gradientTransform="translate(-4.411945,1.6727114)"
       x1="26.411945"
       y1="1019.5781"
       x2="23.441042"
       y2="1019.6516" />
    <linearGradient
       inkscape:collect="always"
       xlink:href="#linearGradient3651"
       id="linearGradient4632"
       gradientUnits="userSpaceOnUse"
       gradientTransform="translate(-4.6324657,2.4018914)"
       x1="25.072393"
       y1="1019.5781"
       x2="19.579401"
       y2="1021.7367" />
    <linearGradient
       inkscape:collect="always"
       xlink:href="#linearGradient3651"
       id="linearGradient4634"
       gradientUnits="userSpaceOnUse"
       x1="25.727411"
       y1="24.477795"
       x2="22.346094"
       y2="21.096478" />
    <linearGradient
       inkscape:collect="always"
       xlink:href="#linearGradient3651"
       id="linearGradient4636"
       gradientUnits="userSpaceOnUse"
       gradientTransform="translate(-4.411945,1.6727114)"
       x1="24.735067"
       y1="1037.9181"
       x2="22.125574"
       y2="1037.9181" />
    <linearGradient
       inkscape:collect="always"
       xlink:href="#linearGradient3651"
       id="linearGradient4638"
       gradientUnits="userSpaceOnUse"
       gradientTransform="translate(-4.411945,1.6727114)"
       x1="25.249615"
       y1="1015.131"
       x2="22.640121"
       y2="1015.131" />
    <linearGradient
       inkscape:collect="always"
       xlink:href="#linearGradient3651"
       id="linearGradient4640"
       gradientUnits="userSpaceOnUse"
       gradientTransform="translate(1.6727114,4.411945)"
       x1="1026.4143"
       y1="-13.892802"
       x2="1030.8982"
       y2="-14.039816" />
    <linearGradient
       inkscape:collect="always"
       xlink:href="#linearGradient3651"
       id="linearGradient4642"
       gradientUnits="userSpaceOnUse"
       gradientTransform="translate(1.6727114,4.411945)"
       x1="1029.428"
       y1="-13.709034"
       x2="1024.1724"
       y2="-13.709034" />
    <linearGradient
       inkscape:collect="always"
       xlink:href="#linearGradient3637"
       id="linearGradient4644"
       gradientUnits="userSpaceOnUse"
       gradientTransform="matrix(1.0449209,-0.32040278,0,1.0449209,-5.2480856,1021.5365)"
       x1="54.321594"
       y1="32.857597"
       x2="54"
       y2="29" />
    <radialGradient
       inkscape:collect="always"
       xlink:href="#linearGradient3637"
       id="radialGradient4646"
       gradientUnits="userSpaceOnUse"
       gradientTransform="matrix(1.6842944,0.05971494,-0.01803651,0.50876305,-33.578685,12.795259)"
       cx="49.837673"
       cy="29.105099"
       fx="49.837673"
       fy="29.105099"
       r="9" />
    <linearGradient
       inkscape:collect="always"
       xlink:href="#linearGradient3637"
       id="linearGradient4648"
       gradientUnits="userSpaceOnUse"
       gradientTransform="matrix(1,-0.30662875,0,1,-1.646248,1020.8894)"
       x1="51.969372"
       y1="26.756508"
       x2="48.588055"
       y2="26.756508" />
    <linearGradient
       inkscape:collect="always"
       xlink:href="#linearGradient3637"
       id="linearGradient4650"
       gradientUnits="userSpaceOnUse"
       gradientTransform="matrix(1,-0.30662875,0,1,-6.521248,1005.3843)"
       x1="58.618683"
       y1="22.430367"
       x2="49"
       y2="26.000044" />
    <linearGradient
       inkscape:collect="always"
       xlink:href="#linearGradient3637"
       id="linearGradient4652"
       gradientUnits="userSpaceOnUse"
       gradientTransform="matrix(1,-0.30662875,0,1,-6.521248,1005.3843)"
       x1="62"
       y1="35.000046"
       x2="49"
       y2="26.000044" />
    <linearGradient
       inkscape:collect="always"
       xlink:href="#linearGradient3689"
       id="linearGradient4654"
       gradientUnits="userSpaceOnUse"
       gradientTransform="matrix(1,-0.30662875,0,1,-6.521248,1005.3842)"
       x1="50.34375"
       y1="25.453335"
       x2="56.96875"
       y2="32.877533" />
    <linearGradient
       inkscape:collect="always"
       xlink:href="#linearGradient3689"
       id="linearGradient4656"
       gradientUnits="userSpaceOnUse"
       gradientTransform="matrix(1,-0.30662875,0,1,-6.521248,1005.3842)"
       x1="37.291538"
       y1="17.441082"
       x2="63.59375"
       y2="41" />
    <filter
       inkscape:collect="always"
       id="filter4712"
       x="-0.13128512"
       width="1.2625702"
       y="-0.03861317"
       height="1.0772263">
      <feGaussianBlur
         inkscape:collect="always"
         stdDeviation="0.27351066"
         id="feGaussianBlur4714" />
    </filter>
    <filter
       inkscape:collect="always"
       id="filter4716"
       x="-0.12443258"
       width="1.2488652"
       y="-0.19092566"
       height="1.3818513">
      <feGaussianBlur
         inkscape:collect="always"
         stdDeviation="0.27351066"
         id="feGaussianBlur4718" />
    </filter>
    <filter
       inkscape:collect="always"
       id="filter4728">
      <feGaussianBlur
         inkscape:collect="always"
         stdDeviation="0.24812225"
         id="feGaussianBlur4730" />
    </filter>
    <filter
       inkscape:collect="always"
       id="filter4732">
      <feGaussianBlur
         inkscape:collect="always"
         stdDeviation="0.3634907"
         id="feGaussianBlur4734" />
    </filter>
    <filter
       inkscape:collect="always"
       id="filter3670"
       x="-0.052342477"
       width="1.104685"
       y="-0.20124239"
       height="1.4024848">
      <feGaussianBlur
         inkscape:collect="always"
         stdDeviation="0.73153901"
         id="feGaussianBlur3672" />
    </filter>
  </defs>
  <sodipodi:namedview
     id="base"
     pagecolor="#ffffff"
     bordercolor="#666666"
     borderopacity="1.0"
     inkscape:pageopacity="0.0"
     inkscape:pageshadow="2"
     inkscape:zoom="1"
     inkscape:cx="26.427508"
     inkscape:cy="24"
     inkscape:document-units="px"
     inkscape:current-layer="g4176"
     showgrid="false"
     inkscape:window-width="1182"
     inkscape:window-height="876"
     inkscape:window-x="452"
     inkscape:window-y="24"
     inkscape:window-maximized="0">
    <inkscape:grid
       type="xygrid"
       id="grid2837"
       empspacing="5"
       visible="true"
       enabled="true"
       snapvisiblegridlinesonly="true" />
  </sodipodi:namedview>
  <metadata
     id="metadata7">
    <rdf:RDF>
      <cc:Work
         rdf:about="">
        <dc:format>image/svg+xml</dc:format>
        <dc:type
           rdf:resource="http://purl.org/dc/dcmitype/StillImage" />
        <dc:title />
      </cc:Work>
    </rdf:RDF>
  </metadata>
  <g
     inkscape:label="Layer 1"
     inkscape:groupmode="layer"
     id="layer1"
     transform="translate(0,-1004.3622)">
    <g
       id="g4176"
       transform="matrix(1,0.30662875,0,1,0,-7.5890439)">
      <path
         style="fill:#000000;fill-opacity:0.76862745;fill-rule:evenodd;stroke:none;filter:url(#filter3670)"
         d="m 18.28125,34.28125 c -2.651716,-0.0591 -4.497483,0.357308 -4.65625,1.1875 -0.254028,1.328306 3.853506,3.229917 9.1875,4.25 1.679524,0.321195 3.275788,0.518392 4.6875,0.59375 -4.13e-4,0.01009 0,0.02114 0,0.03125 0,1.474169 4.381841,2.65625 9.8125,2.65625 5.430659,0 9.84375,-1.182081 9.84375,-2.65625 0,-1.474169 -4.413091,-2.6875 -9.84375,-2.6875 -1.844874,0 -3.524741,0.166327 -5,0.40625 -1.331541,-1.133168 -4.607655,-2.399918 -8.5625,-3.15625 -2.000248,-0.382531 -3.877721,-0.589543 -5.46875,-0.625 z"
         transform="matrix(1,-0.30662875,0,1,-2.4257274,1012.989)"
         id="path3651" />
      <g
         id="g4611"
         transform="matrix(0.85293616,0,0,0.85293616,1.0356814,152.98926)">
        <path
           style="fill:url(#linearGradient4624);fill-opacity:1;fill-rule:evenodd;stroke:none"
           d="m 41.439835,1026.1515 c 0.134125,9.0674 -7.393453,16.1253 -15.326373,18.7101 -3.432127,1.1183 1.312577,-1.5257 -1.218037,-1.5765 -9.609099,-0.1936 -17.697921,-6.3397 -17.5,-17.5 0.113402,-6.3945 3.569043,-9.1686 6.507716,-13.0465 -0.331844,-0.1071 3.210917,-2.3664 10.036694,-4.087 6.990175,-1.762 17.325096,5.6757 17.5,17.4999 z"
           id="path4207"
           sodipodi:nodetypes="cssscss" />
        <path
           sodipodi:nodetypes="csssc"
           id="path2959"
           d="m 37.837998,1028.285 c 0.180779,10.0344 -8.893815,17.6734 -17.5,17.5 -9.609099,-0.1936 -17.6979219,-6.3397 -17.5000002,-17.5 0.1577363,-8.8944 9.0573102,-17.0286 17.5000002,-17.5 9.805471,-0.5475 17.573506,6.6363 17.5,17.5 z"
           style="fill:url(#linearGradient4626);fill-opacity:1;fill-rule:evenodd;stroke:none" />
        <path
           transform="matrix(0.79687143,0,0,0.79687143,-1.9744022,1009.9569)"
           d="M 44,23 C 44,31.836556 36.836556,39 28,39 19.163444,39 12,31.836556 12,23 12,14.163444 19.163444,7 28,7 c 8.836556,0 16,7.163444 16,16 z"
           sodipodi:ry="16"
           sodipodi:rx="16"
           sodipodi:cy="23"
           sodipodi:cx="28"
           id="path2961"
           style="fill:url(#radialGradient4628);fill-opacity:1;fill-rule:evenodd;stroke:none"
           sodipodi:type="arc" />
        <path
           style="font-size:medium;font-style:normal;font-variant:normal;font-weight:normal;font-stretch:normal;text-indent:0;text-align:start;text-decoration:none;line-height:normal;letter-spacing:normal;word-spacing:normal;text-transform:none;direction:ltr;block-progression:tb;writing-mode:lr-tb;text-anchor:start;color:#000000;fill:url(#linearGradient4630);fill-opacity:1;stroke:none;stroke-width:1px;marker:none;visibility:visible;display:inline;overflow:visible;enable-background:accumulate;font-family:Bitstream Vera Sans;-inkscape-font-specification:Bitstream Vera Sans"
           d="m 20.588055,1017.6521 -1.558959,2.7738 1.558959,8.609 0,0 1.411945,-8.8295 -1.411945,-2.5533 0,0 z"
           id="path2963"
           sodipodi:nodetypes="ccccccc" />
        <path
           style="font-size:medium;font-style:normal;font-variant:normal;font-weight:normal;font-stretch:normal;text-indent:0;text-align:start;text-decoration:none;line-height:normal;letter-spacing:normal;word-spacing:normal;text-transform:none;direction:ltr;block-progression:tb;writing-mode:lr-tb;text-anchor:start;color:#000000;fill:url(#linearGradient4632);fill-opacity:1;stroke:none;stroke-width:1px;marker:none;visibility:visible;display:inline;overflow:visible;enable-background:accumulate;font-family:Bitstream Vera Sans;-inkscape-font-specification:Bitstream Vera Sans"
           d="m 15.029095,1018.6906 0,0 -0.08216,3.1612 5.492992,7.7348 0,0 -2.623255,-8.6092 -2.787576,-2.2868 z"
           id="path2965"
           sodipodi:nodetypes="ccccccc" />
        <path
           sodipodi:type="arc"
           style="fill:url(#linearGradient4634);fill-opacity:1;fill-rule:evenodd;stroke:none"
           id="path2975"
           sodipodi:cx="24.036753"
           sodipodi:cy="22.787136"
           sodipodi:rx="1.6906585"
           sodipodi:ry="1.6906585"
           d="m 25.727411,22.787136 c 0,0.933725 -0.756933,1.690659 -1.690658,1.690659 -0.933725,0 -1.690659,-0.756934 -1.690659,-1.690659 0,-0.933725 0.756934,-1.690658 1.690659,-1.690658 0.933725,0 1.690658,0.756933 1.690658,1.690658 z"
           transform="translate(-3.625248,1006.3573)" />
        <rect
           y="1038.3779"
           x="19.624807"
           height="2.4257274"
           width="1.3966309"
           id="rect3751"
           style="fill:url(#linearGradient4636);fill-opacity:1;stroke:none" />
        <rect
           y="1015.5908"
           x="20.139355"
           height="2.4257274"
           width="1.3966309"
           id="rect3753"
           style="fill:url(#linearGradient4638);fill-opacity:1;stroke:none" />
        <rect
           transform="matrix(0,1,-1,0,0,0)"
           y="-32.782539"
           x="1028.4546"
           height="2.4257274"
           width="1.3966309"
           id="rect3755"
           style="fill:url(#linearGradient4640);fill-opacity:1;stroke:none" />
        <rect
           transform="matrix(0,1,-1,0,0,0)"
           y="-10.509953"
           x="1027.8665"
           height="2.4257274"
           width="1.3966309"
           id="rect3757"
           style="fill:#000000;fill-opacity:1;stroke:none" />
        <rect
           style="fill:url(#linearGradient4642);fill-opacity:1;stroke:none"
           id="rect2977"
           width="1.3966309"
           height="2.4257274"
           x="1027.8665"
           y="-10.509953"
           transform="matrix(0,1,-1,0,0,0)" />
      </g>
      <g
         id="g4602"
         transform="translate(-16.822502,5.1549021)">
        <path
           sodipodi:nodetypes="csscscc"
           id="path4234"
           d="m 60.58193,1033.7436 c 0,1.1542 -4.210443,3.3809 -9.404289,4.9735 -5.193844,1.5926 -9.404287,1.948 -9.404287,0.7938 0,-0.1294 0.199974,-0.7585 0.301327,-0.9125 0.802435,-1.2193 4.491592,-2.647 9.10296,-4.061 4.264559,-1.3077 7.572109,-2.1688 8.724383,-1.6575 0.251091,0.1114 0.679906,0.6572 0.679906,0.8637 z"
           style="fill:url(#linearGradient4644);fill-opacity:1;fill-rule:evenodd;stroke:none" />
        <path
           transform="matrix(1,-0.30662875,0,1,-2.8958651,1021.4196)"
           d="m 63,31 c 0,1.104569 -4.029437,2 -9,2 -4.970563,0 -9,-0.895431 -9,-2 0,-1.104569 4.029437,-2 9,-2 4.970563,0 9,0.895431 9,2 z"
           sodipodi:ry="2"
           sodipodi:rx="9"
           sodipodi:cy="31"
           sodipodi:cx="54"
           id="path4222"
           style="fill:url(#radialGradient4646);fill-opacity:1;fill-rule:evenodd;stroke:none"
           sodipodi:type="arc" />
        <path
           sodipodi:nodetypes="ccccc"
           id="path4228"
           d="m 49,1027.9264 0.95559,7.9398 c 0.205643,0.4802 1.370954,0.1745 1.653904,-0.5439 l 0.03675,-8.1338 -2.646248,0.7379 z"
           style="color:#000000;fill:url(#linearGradient4648);fill-opacity:1;stroke:none;stroke-width:1px;marker:none;visibility:visible;display:inline;overflow:visible;enable-background:accumulate" />
        <path
           style="fill:url(#linearGradient4650);fill-rule:evenodd;stroke:none"
           d="m 43.603752,1012.0145 c -0.08111,0.9993 -0.125,2.0099 -0.125,3.0383 0,8.8366 3.134007,15.039 7,13.8536 3.865993,-1.1854 7,-9.3098 7,-18.1464 0,-1.0284 -0.04389,-2.0121 -0.125,-2.9616 -6.058115,-0.5359 -10.222252,2.0547 -13.75,4.2161 z"
           id="path4240"
           sodipodi:nodetypes="cssscc" />
        <path
           sodipodi:nodetypes="cssscc"
           id="path4215"
           d="m 43.603752,1012.0145 c -0.08111,0.9993 -0.125,2.0099 -0.125,3.0383 0,8.8366 3.134007,15.039 7,13.8536 3.865993,-1.1854 7,-9.3098 7,-18.1464 0,-1.0284 -0.04389,-2.0121 -0.125,-2.9616 -4.778536,3.0268 -9.363499,4.4457 -13.75,4.2161 z"
           style="fill:url(#linearGradient4652);fill-rule:evenodd;stroke:none" />
        <path
           style="fill:url(#linearGradient4654);fill-opacity:1;fill-rule:evenodd;stroke:none"
           d="m 43.822502,1019.8849 c 0.911892,6.1346 3.545958,9.9752 6.65625,9.0215 3.048637,-0.9348 5.633398,-6.198 6.59375,-12.7093 -6.284764,-0.4916 -11.701289,2.3095 -13.25,3.6878 z"
           id="path4598"
           sodipodi:nodetypes="cscc" />
        <path
           sodipodi:nodetypes="cscc"
           id="path4247"
           d="m 43.822502,1019.8849 c 0.911892,6.1346 3.545958,9.9752 6.65625,9.0215 3.048637,-0.9348 5.633398,-6.198 6.59375,-12.7093 -2.989535,3.0688 -8.929413,5.3044 -13.25,3.6878 z"
           style="fill:url(#linearGradient4656);fill-opacity:1;fill-rule:evenodd;stroke:none" />
      </g>
      <path
         style="color:#000000;fill:#ffffff;stroke:none;stroke-width:1px;stroke-linecap:butt;stroke-linejoin:miter;stroke-miterlimit:4;stroke-opacity:1;stroke-dasharray:none;stroke-dashoffset:0;marker:none;visibility:visible;display:inline;overflow:visible;enable-background:accumulate;filter:url(#filter4732);fill-opacity:0.30357143"
         d="M 19,9 C 11.182395,10.638553 8.1853494,15.679854 7,22 7,22 4.7258809,9.7151608 19,9 z"
         id="path4680"
         transform="matrix(1,-0.30662875,0,1,0,1011.9512)"
         sodipodi:nodetypes="ccc" />
      <path
         style="color:#000000;fill:#ffffff;stroke:none;stroke-width:1px;stroke-linecap:butt;stroke-linejoin:miter;stroke-miterlimit:4;stroke-opacity:1;stroke-dasharray:none;stroke-dashoffset:0;marker:none;visibility:visible;display:inline;overflow:visible;enable-background:accumulate;filter:url(#filter4728)"
         d="m 18,13 c -3.876978,0.936702 -5.676876,3.589587 -7,7 -0.441041,-4.528331 4.481879,-7.716182 7,-7 z"
         id="path4682"
         transform="matrix(1,-0.30662875,0,1,0,1011.9512)"
         sodipodi:nodetypes="ccc" />
      <path
         style="color:#000000;fill:#ffffff;stroke:none;stroke-width:1px;marker:none;visibility:visible;display:inline;overflow:visible;filter:url(#filter4712);enable-background:accumulate"
         d="m 30,14 c 0.975832,7.739184 2.4605,13.951863 5,17.000044 0,0 -5,-3 -5,-17.000044 z"
         id="path4684"
         transform="matrix(1,-0.30662875,0,1,0,1012.3187)"
         sodipodi:nodetypes="ccc" />
      <path
         style="color:#000000;fill:#ffffff;stroke:none;stroke-width:1px;stroke-linecap:butt;stroke-linejoin:miter;stroke-miterlimit:4;stroke-opacity:1;stroke-dasharray:none;stroke-dashoffset:0;marker:none;visibility:visible;display:inline;overflow:visible;enable-background:accumulate;filter:url(#filter4716)"
         d="M 34.180704,37.562021 C 30.337632,38.297992 28.434317,39.289193 32,41 c -0.94006,0.0235 -7.620386,-2.869751 2.180704,-3.437979 z"
         id="path4686"
         transform="matrix(1,-0.30662875,0,1,0,1011.9512)"
         sodipodi:nodetypes="ccc" />
    </g>
  </g>
</svg>
