<?xml version="1.0" encoding="UTF-8" standalone="no"?>
<!-- Created with Inkscape (http://www.inkscape.org/) -->

<svg
   xmlns:dc="http://purl.org/dc/elements/1.1/"
   xmlns:cc="http://creativecommons.org/ns#"
   xmlns:rdf="http://www.w3.org/1999/02/22-rdf-syntax-ns#"
   xmlns:svg="http://www.w3.org/2000/svg"
   xmlns="http://www.w3.org/2000/svg"
   xmlns:xlink="http://www.w3.org/1999/xlink"
   xmlns:sodipodi="http://sodipodi.sourceforge.net/DTD/sodipodi-0.dtd"
   xmlns:inkscape="http://www.inkscape.org/namespaces/inkscape"
   id="svg1"
   sodipodi:version="0.32"
   inkscape:version="0.47 r22583"
   width="48"
   height="48"
   sodipodi:docname="st-patrick01.svg"
   version="1.1"
   inkscape:export-filename="st-patrick01.png"
   inkscape:export-xdpi="89.949997"
   inkscape:export-ydpi="89.949997">
  <defs
     id="defs3">
    <linearGradient
       id="linearGradient3764">
      <stop
         style="stop-color:#7ed249;stop-opacity:1;"
         offset="0"
         id="stop3766" />
      <stop
         style="stop-color:#286325;stop-opacity:1;"
         offset="1"
         id="stop3768" />
    </linearGradient>
    <linearGradient
       inkscape:collect="always"
       xlink:href="#linearGradient3764"
       id="linearGradient3045"
       x1="46.663235"
       y1="33.831051"
       x2="37.324547"
       y2="41.263157"
       gradientUnits="userSpaceOnUse"
       gradientTransform="matrix(0.99361761,-0.11280094,0.11280094,0.99361761,-5.0758604,3.7669578)" />
    <linearGradient
       inkscape:collect="always"
       xlink:href="#linearGradient3764"
       id="linearGradient3057"
       gradientUnits="userSpaceOnUse"
       x1="10.656472"
       y1="28.931837"
       x2="33.094738"
       y2="46.231579" />
    <linearGradient
       inkscape:collect="always"
       xlink:href="#linearGradient3764"
       id="linearGradient3059"
       gradientUnits="userSpaceOnUse"
       x1="31.533636"
       y1="32.480545"
       x2="24.197447"
       y2="30.772892" />
    <linearGradient
       inkscape:collect="always"
       xlink:href="#linearGradient3764"
       id="linearGradient3067"
       gradientUnits="userSpaceOnUse"
       x1="14.622439"
       y1="22.235821"
       x2="33.094738"
       y2="46.231579" />
    <linearGradient
       inkscape:collect="always"
       xlink:href="#linearGradient3764"
       id="linearGradient3069"
       gradientUnits="userSpaceOnUse"
       x1="19.205559"
       y1="39.084511"
       x2="33.201824"
       y2="25.560471"
       gradientTransform="matrix(-0.99278048,-0.1199455,-0.1199455,0.99278048,56.67892,3.5802315)" />
    <linearGradient
       inkscape:collect="always"
       xlink:href="#linearGradient3764"
       id="linearGradient3077"
       gradientUnits="userSpaceOnUse"
       x1="13.16315"
       y1="33.926521"
       x2="31.722326"
       y2="23.668921" />
    <linearGradient
       inkscape:collect="always"
       xlink:href="#linearGradient3764"
       id="linearGradient3079"
       gradientUnits="userSpaceOnUse"
       x1="32.67448"
       y1="29.946766"
       x2="22.772276"
       y2="30.315788" />
    <linearGradient
       inkscape:collect="always"
       xlink:href="#linearGradient3764"
       id="linearGradient3081"
       gradientUnits="userSpaceOnUse"
       x1="32.350986"
       y1="42.326565"
       x2="21.157238"
       y2="27.794079" />
    <linearGradient
       inkscape:collect="always"
       xlink:href="#linearGradient3764"
       id="linearGradient3083"
       gradientUnits="userSpaceOnUse"
       x1="18.986183"
       y1="30.509209"
       x2="31.459776"
       y2="32.336842" />
    <filter
       inkscape:collect="always"
       id="filter3907"
       x="-0.078630329"
       width="1.1572607"
       y="-0.1815456"
       height="1.3630912">
      <feGaussianBlur
         inkscape:collect="always"
         stdDeviation="0.36243667"
         id="feGaussianBlur3909" />
    </filter>
    <filter
       inkscape:collect="always"
       id="filter3911"
       x="-0.16270221"
       width="1.3254044"
       y="-0.093406497"
       height="1.186813">
      <feGaussianBlur
         inkscape:collect="always"
         stdDeviation="0.36243667"
         id="feGaussianBlur3913" />
    </filter>
    <filter
       inkscape:collect="always"
       id="filter3915"
       x="-0.13294859"
       width="1.2658972"
       y="-0.099411202"
       height="1.1988224">
      <feGaussianBlur
         inkscape:collect="always"
         stdDeviation="0.36243667"
         id="feGaussianBlur3917" />
    </filter>
    <filter
       inkscape:collect="always"
       id="filter3919"
       x="-0.18583836"
       width="1.3716767"
       y="-0.079077092"
       height="1.1581542">
      <feGaussianBlur
         inkscape:collect="always"
         stdDeviation="0.36243667"
         id="feGaussianBlur3921" />
    </filter>
    <filter
       inkscape:collect="always"
       id="filter3642"
       x="-0.052550712"
       width="1.1051014"
       y="-0.26470576"
       height="1.5294115">
      <feGaussianBlur
         inkscape:collect="always"
         stdDeviation="0.81341873"
         id="feGaussianBlur3644" />
    </filter>
  </defs>
  <sodipodi:namedview
     id="base"
     pagecolor="#ffffff"
     bordercolor="#666666"
     borderopacity="1.0"
     inkscape:pageopacity="0.0"
     inkscape:pageshadow="2"
     inkscape:zoom="1"
     inkscape:cx="27.022426"
     inkscape:cy="24"
     inkscape:window-width="1153"
     inkscape:window-height="793"
     inkscape:window-x="377"
     inkscape:window-y="24"
     showgrid="false"
     inkscape:window-maximized="0"
     inkscape:current-layer="svg1">
    <inkscape:grid
       type="xygrid"
       id="grid2861" />
  </sodipodi:namedview>
  <metadata
     id="metadata4">
    <rdf:RDF>
      <cc:Work
         rdf:about="">
        <dc:format>image/svg+xml</dc:format>
        <dc:type
           rdf:resource="http://purl.org/dc/dcmitype/StillImage" />
        <dc:title />
      </cc:Work>
    </rdf:RDF>
  </metadata>
  <path
     style="fill:#000000;fill-opacity:0.76862744999999999;fill-rule:evenodd;stroke:none;filter:url(#filter3642)"
     d="M 12.09375 36.09375 C 9.335233 36.09375 7.09375 36.823541 7.09375 37.71875 C 7.09375 38.613959 9.335233 39.34375 12.09375 39.34375 C 12.633558 39.34375 13.138037 39.301412 13.625 39.25 C 13.39204 39.528554 13.25 39.822513 13.25 40.125 C 13.25 41.963527 17.834721 43.46875 23.5 43.46875 C 29.165279 43.46875 33.75 41.963527 33.75 40.125 C 33.75 39.803879 33.636457 39.481295 33.375 39.1875 L 43.96875 41.9375 C 43.96875 41.9375 44.461842 40.012171 44.125 39.84375 C 43.800359 39.68143 32.242429 38.144797 31.375 38.03125 C 29.493551 37.291401 26.686719 36.8125 23.5 36.8125 C 21.043484 36.8125 18.828692 37.09518 17.0625 37.5625 C 16.832019 36.736701 14.698427 36.09375 12.09375 36.09375 z "
     id="path3625" />
  <path
     style="color:#000000;fill:url(#linearGradient3045);fill-opacity:1;stroke:none;stroke-width:1px;marker:none;visibility:visible;display:inline;overflow:visible;enable-background:accumulate"
     d="M 23.632867,23.729681 C 28.349846,30.392992 36.997519,38.42777 44.17236,41.907774 44.932605,40.344617 45.302973,38.991195 45,38 37.529827,37.04749 31.021243,28.853846 25.591351,22.885184 c -0.885819,-1.04435 -2.312999,-0.536079 -1.958484,0.844497 z"
     id="path3043"
     sodipodi:nodetypes="ccccc" />
  <g
     id="g3047"
     transform="translate(-2.156666,0.60766203)">
    <path
       sodipodi:nodetypes="cscsc"
       id="path2869"
       d="m 27.11579,22.989473 c -2.740774,4.906357 -8.129042,6.551134 -9.574085,11.150391 -1.569327,4.994823 0.482185,9.946267 8.226716,6.786452 6.270983,4.072067 10.701926,-1.403682 9.334923,-7.877599 -0.742204,-3.514965 -7.31988,-6.734702 -7.987554,-10.059244 z"
       style="color:#000000;fill:url(#linearGradient3081);fill-opacity:1;stroke:none;stroke-width:1px;marker:none;visibility:visible;display:inline;overflow:visible;enable-background:accumulate" />
    <path
       sodipodi:nodetypes="ccc"
       id="path2871"
       d="m 26.863158,25.178947 c 0.922087,5.026646 0.23524,9.735141 -0.842105,14.31579 0.155983,0 6.052734,-5.810526 0.842105,-14.31579 z"
       style="color:#000000;fill:url(#linearGradient3083);stroke:none;stroke-width:1px;marker:none;visibility:visible;display:inline;overflow:visible;enable-background:accumulate" />
  </g>
  <g
     id="g3051"
     transform="matrix(0.02821258,-0.99960195,-0.99960195,-0.02821258,45.729892,51.479769)">
    <path
       style="color:#000000;fill:url(#linearGradient3057);fill-opacity:1;stroke:none;stroke-width:1px;marker:none;visibility:visible;display:inline;overflow:visible;enable-background:accumulate"
       d="m 27.254976,21.829917 c -3.498669,1.116883 -8.268228,7.71069 -9.713271,12.309947 -1.569327,4.994823 0.482185,9.946267 8.226716,6.786452 5.703943,3.703859 9.933322,-0.872741 9.653422,-6.8465 -0.194903,-4.159703 -3.868018,-8.000663 -8.166867,-12.249899 z"
       id="path3053"
       sodipodi:nodetypes="cscsc" />
    <path
       style="color:#000000;fill:url(#linearGradient3059);stroke:none;stroke-width:1px;marker:none;visibility:visible;display:inline;overflow:visible;enable-background:accumulate"
       d="m 26.863158,25.178947 c 0.922087,5.026646 0.23524,9.735141 -0.842105,14.31579 0.155983,0 6.052734,-5.810526 0.842105,-14.31579 z"
       id="path3055"
       sodipodi:nodetypes="ccc" />
  </g>
  <g
     transform="matrix(-0.99819349,0.06008129,-0.06008129,-0.99819349,53.444694,45.028432)"
     id="g3061">
    <path
       sodipodi:nodetypes="cscsc"
       id="path3063"
       d="m 27.255503,22.996206 c -3.993699,5.136508 -8.268755,6.544401 -9.713798,11.143658 -1.569327,4.994823 0.482185,9.946267 8.226716,6.786452 5.998425,3.877342 11.078639,-0.710079 9.791816,-6.796899 -0.774115,-3.661651 -4.864226,-5.442048 -8.304734,-11.133211 z"
       style="color:#000000;fill:url(#linearGradient3067);fill-opacity:1;stroke:none;stroke-width:1px;marker:none;visibility:visible;display:inline;overflow:visible;enable-background:accumulate" />
    <path
       sodipodi:nodetypes="ccc"
       id="path3065"
       d="m 26.9896,25.355283 c -1.518354,4.879756 -1.401228,9.636642 -0.881089,14.313444 -0.154857,-0.01871 -5.31209,-6.494575 0.881089,-14.313444 z"
       style="color:#000000;fill:url(#linearGradient3069);stroke:none;stroke-width:1px;marker:none;visibility:visible;display:inline;overflow:visible;enable-background:accumulate" />
  </g>
  <g
     id="g3071"
     transform="matrix(-1.1470333e-4,-1,1,-1.1470333e-4,2.4045846,50.56634)">
    <path
       style="color:#000000;fill:url(#linearGradient3077);fill-opacity:1;stroke:none;stroke-width:1px;marker:none;visibility:visible;display:inline;overflow:visible;enable-background:accumulate"
       d="m 26.947552,22.31577 c -2.572614,3.390673 -7.960804,7.224837 -9.405847,11.824094 -1.569327,4.994823 0.482185,9.946267 8.226716,6.786452 6.197585,4.024406 10.023693,-1.805903 8.756664,-8.378515 -0.711076,-3.688653 -4.448609,-7.522416 -7.577533,-10.232031 z"
       id="path3073"
       sodipodi:nodetypes="cscsc" />
    <path
       style="color:#000000;fill:url(#linearGradient3079);stroke:none;stroke-width:1px;marker:none;visibility:visible;display:inline;overflow:visible;enable-background:accumulate"
       d="m 26.863158,25.178947 c 0.922087,5.026646 0.23524,9.735141 -0.842105,14.31579 0.155983,0 6.052734,-5.810526 0.842105,-14.31579 z"
       id="path3075"
       sodipodi:nodetypes="ccc" />
  </g>
  <path
     style="color:#000000;fill:#ffffff;stroke:none;stroke-width:1px;stroke-linecap:butt;stroke-linejoin:miter;stroke-miterlimit:4;stroke-opacity:1;stroke-dasharray:none;stroke-dashoffset:0;marker:none;visibility:visible;display:inline;overflow:visible;enable-background:accumulate;filter:url(#filter3911);fill-opacity:0.6651786"
     d="m 21.5,4.9999999 c -5.785552,2.4193475 -4.831503,5.9316031 -4.6875,9.3125001 0,0 -3.25,-8.2500001 4.6875,-9.3125001 z"
     id="path3867"
     sodipodi:nodetypes="ccc" />
  <path
     style="color:#000000;fill:#ffffff;stroke:none;stroke-width:1px;stroke-linecap:butt;stroke-linejoin:miter;stroke-miterlimit:4;stroke-opacity:1;stroke-dasharray:none;stroke-dashoffset:0;marker:none;visibility:visible;display:inline;overflow:visible;enable-background:accumulate;filter:url(#filter3915);fill-opacity:0.6651786"
     d="m 11.375,15.5 c -4.1298745,1.176863 -6.840058,3.429249 -5.5,8.75 -0.134513,0 -4.4428451,-7.8125 5.5,-8.75 z"
     id="path3869"
     sodipodi:nodetypes="ccc" />
  <path
     style="color:#000000;fill:#ffffff;stroke:none;stroke-width:1px;stroke-linecap:butt;stroke-linejoin:miter;stroke-miterlimit:4;stroke-opacity:1;stroke-dasharray:none;stroke-dashoffset:0;marker:none;visibility:visible;display:inline;overflow:visible;enable-background:accumulate;filter:url(#filter3919);fill-opacity:0.6651786"
     d="m 16.0625,41.1875 c -1.185661,-4.721638 1.588686,-9.611483 4,-11 0,0 -6.8125,2.5625 -4,11 z"
     id="path3871"
     sodipodi:nodetypes="ccc" />
  <path
     style="color:#000000;fill:#ffffff;stroke:none;stroke-width:1px;stroke-linecap:butt;stroke-linejoin:miter;stroke-miterlimit:4;stroke-opacity:1;stroke-dasharray:none;stroke-dashoffset:0;marker:none;visibility:visible;display:inline;overflow:visible;enable-background:accumulate;filter:url(#filter3907);fill-opacity:0.6651786"
     d="m 27.75,20.9375 c 1.719058,-1.290046 5.394701,-3.8487 11.0625,-4.5 -0.552111,-0.828167 -7.288782,-0.05817 -11.0625,4.5 z"
     id="path3873"
     sodipodi:nodetypes="ccc" />
</svg>
