<?xml version="1.0" encoding="UTF-8" standalone="no"?>
<!-- Created with Inkscape (http://www.inkscape.org/) -->

<svg
   xmlns:dc="http://purl.org/dc/elements/1.1/"
   xmlns:cc="http://creativecommons.org/ns#"
   xmlns:rdf="http://www.w3.org/1999/02/22-rdf-syntax-ns#"
   xmlns:svg="http://www.w3.org/2000/svg"
   xmlns="http://www.w3.org/2000/svg"
   xmlns:xlink="http://www.w3.org/1999/xlink"
   xmlns:sodipodi="http://sodipodi.sourceforge.net/DTD/sodipodi-0.dtd"
   xmlns:inkscape="http://www.inkscape.org/namespaces/inkscape"
   id="svg1"
   sodipodi:version="0.32"
   inkscape:version="0.47 r22583"
   width="48"
   height="48"
   sodipodi:docname="st-patrick03.svg"
   version="1.1"
   inkscape:export-filename="st-patrick03.png"
   inkscape:export-xdpi="89.949997"
   inkscape:export-ydpi="89.949997">
  <defs
     id="defs3">
    <linearGradient
       id="linearGradient3764">
      <stop
         style="stop-color:#7ed249;stop-opacity:1;"
         offset="0"
         id="stop3766" />
      <stop
         style="stop-color:#286325;stop-opacity:1;"
         offset="1"
         id="stop3768" />
    </linearGradient>
    <filter
       inkscape:collect="always"
       id="filter3907"
       x="-0.078630329"
       width="1.1572607"
       y="-0.1815456"
       height="1.3630912">
      <feGaussianBlur
         inkscape:collect="always"
         stdDeviation="0.36243667"
         id="feGaussianBlur3909" />
    </filter>
    <filter
       inkscape:collect="always"
       id="filter3911"
       x="-0.16270221"
       width="1.3254044"
       y="-0.093406497"
       height="1.186813">
      <feGaussianBlur
         inkscape:collect="always"
         stdDeviation="0.36243667"
         id="feGaussianBlur3913" />
    </filter>
    <filter
       inkscape:collect="always"
       id="filter3915"
       x="-0.13294859"
       width="1.2658972"
       y="-0.099411202"
       height="1.1988224">
      <feGaussianBlur
         inkscape:collect="always"
         stdDeviation="0.36243667"
         id="feGaussianBlur3917" />
    </filter>
    <filter
       inkscape:collect="always"
       id="filter3919"
       x="-0.18583836"
       width="1.3716767"
       y="-0.079077092"
       height="1.1581542">
      <feGaussianBlur
         inkscape:collect="always"
         stdDeviation="0.36243667"
         id="feGaussianBlur3921" />
    </filter>
    <linearGradient
       inkscape:collect="always"
       xlink:href="#linearGradient3764"
       id="linearGradient2910"
       x1="34.357895"
       y1="34.273685"
       x2="10.442105"
       y2="17.094736"
       gradientUnits="userSpaceOnUse"
       gradientTransform="matrix(0.91983122,0,0,0.91983122,7.0147017,-0.44644925)" />
    <linearGradient
       inkscape:collect="always"
       xlink:href="#linearGradient3764"
       id="linearGradient2918"
       x1="2.357017"
       y1="49.628544"
       x2="35.746593"
       y2="26.72328"
       gradientUnits="userSpaceOnUse"
       gradientTransform="matrix(0.91983122,0,0,0.91983122,7.0147017,-0.44644925)" />
    <linearGradient
       inkscape:collect="always"
       xlink:href="#linearGradient3764"
       id="linearGradient2920"
       x1="16.173685"
       y1="40.75774"
       x2="41.73703"
       y2="30.736689"
       gradientUnits="userSpaceOnUse"
       gradientTransform="matrix(0.91983122,0,0,0.91983122,7.0147017,-0.44644925)" />
    <linearGradient
       inkscape:collect="always"
       xlink:href="#linearGradient3764"
       id="linearGradient2949"
       gradientUnits="userSpaceOnUse"
       gradientTransform="matrix(0.2082087,0.07434912,-0.07434912,0.2082087,25.605677,20.069403)"
       x1="46.663235"
       y1="33.831051"
       x2="37.324547"
       y2="41.263157" />
    <linearGradient
       inkscape:collect="always"
       xlink:href="#linearGradient3764"
       id="linearGradient2955"
       gradientUnits="userSpaceOnUse"
       x1="14.622439"
       y1="22.235821"
       x2="33.094738"
       y2="46.231579" />
    <linearGradient
       inkscape:collect="always"
       xlink:href="#linearGradient3764"
       id="linearGradient2957"
       gradientUnits="userSpaceOnUse"
       gradientTransform="matrix(-0.99278048,-0.1199455,-0.1199455,0.99278048,56.67892,3.5802315)"
       x1="19.205559"
       y1="39.084511"
       x2="33.201824"
       y2="25.560471" />
    <linearGradient
       inkscape:collect="always"
       xlink:href="#linearGradient3764"
       id="linearGradient2959"
       gradientUnits="userSpaceOnUse"
       x1="10.656472"
       y1="28.931837"
       x2="33.094738"
       y2="46.231579" />
    <linearGradient
       inkscape:collect="always"
       xlink:href="#linearGradient3764"
       id="linearGradient2961"
       gradientUnits="userSpaceOnUse"
       x1="31.533636"
       y1="32.480545"
       x2="24.197447"
       y2="30.772892" />
    <linearGradient
       inkscape:collect="always"
       xlink:href="#linearGradient3764"
       id="linearGradient2979"
       gradientUnits="userSpaceOnUse"
       x1="32.350986"
       y1="42.326565"
       x2="21.157238"
       y2="27.794079" />
    <linearGradient
       inkscape:collect="always"
       xlink:href="#linearGradient3764"
       id="linearGradient2981"
       gradientUnits="userSpaceOnUse"
       x1="18.986183"
       y1="30.509209"
       x2="31.459776"
       y2="32.336842" />
    <linearGradient
       inkscape:collect="always"
       xlink:href="#linearGradient3764"
       id="linearGradient2983"
       gradientUnits="userSpaceOnUse"
       x1="13.16315"
       y1="33.926521"
       x2="31.722326"
       y2="23.668921" />
    <linearGradient
       inkscape:collect="always"
       xlink:href="#linearGradient3764"
       id="linearGradient2985"
       gradientUnits="userSpaceOnUse"
       x1="32.67448"
       y1="29.946766"
       x2="22.772276"
       y2="30.315788" />
    <linearGradient
       id="linearGradient3637">
      <stop
         id="stop3639"
         offset="0"
         style="stop-color:#f9f9f9;stop-opacity:0.98518521;" />
      <stop
         id="stop3641"
         offset="1"
         style="stop-color:#d5d5d5;stop-opacity:1;" />
    </linearGradient>
    <linearGradient
       inkscape:collect="always"
       xlink:href="#linearGradient3637"
       id="linearGradient3100"
       x1="24.388958"
       y1="39.121273"
       x2="18"
       y2="29.705263"
       gradientUnits="userSpaceOnUse"
       gradientTransform="translate(0,-1.8333516)" />
    <filter
       inkscape:collect="always"
       id="filter3902"
       x="-0.15806157"
       width="1.3161231"
       y="-0.06218612"
       height="1.1243722">
      <feGaussianBlur
         inkscape:collect="always"
         stdDeviation="0.26537626"
         id="feGaussianBlur3904" />
    </filter>
    <filter
       inkscape:collect="always"
       id="filter3916"
       x="-0.26922823"
       width="1.5384565"
       y="-0.15701021"
       height="1.3140204">
      <feGaussianBlur
         inkscape:collect="always"
         stdDeviation="0.28437466"
         id="feGaussianBlur3918" />
    </filter>
    <filter
       inkscape:collect="always"
       id="filter3934"
       x="-0.10941083"
       width="1.2188217"
       y="-0.062233678"
       height="1.1244674">
      <feGaussianBlur
         inkscape:collect="always"
         stdDeviation="0.3366062"
         id="feGaussianBlur3936" />
    </filter>
    <filter
       inkscape:collect="always"
       id="filter3665"
       x="-0.082467283"
       width="1.1649346"
       y="-0.24725596"
       height="1.4945119">
      <feGaussianBlur
         inkscape:collect="always"
         stdDeviation="1.3132749"
         id="feGaussianBlur3667" />
    </filter>
  </defs>
  <sodipodi:namedview
     id="base"
     pagecolor="#ffffff"
     bordercolor="#666666"
     borderopacity="1.0"
     inkscape:pageopacity="0.0"
     inkscape:pageshadow="2"
     inkscape:zoom="1"
     inkscape:cx="19.350114"
     inkscape:cy="24"
     inkscape:window-width="1153"
     inkscape:window-height="793"
     inkscape:window-x="377"
     inkscape:window-y="24"
     showgrid="false"
     inkscape:window-maximized="0"
     inkscape:current-layer="svg1">
    <inkscape:grid
       type="xygrid"
       id="grid2861" />
  </sodipodi:namedview>
  <metadata
     id="metadata4">
    <rdf:RDF>
      <cc:Work
         rdf:about="">
        <dc:format>image/svg+xml</dc:format>
        <dc:type
           rdf:resource="http://purl.org/dc/dcmitype/StillImage" />
        <dc:title />
      </cc:Work>
    </rdf:RDF>
  </metadata>
  <path
     transform="matrix(1.0215227,0,0,1.053068,0.08504878,-2.4604329)"
     style="fill:#000000;fill-opacity:0.76862745;fill-rule:evenodd;stroke:none;filter:url(#filter3665)"
     d="m 42.835127,34.852962 c -0.08244,1.330089 -5.982471,2.110162 -11.499387,4.48678 -3.255159,1.402281 -6.45887,2.580289 -7.898898,2.660256 -10.786774,0.599005 -18.8212316,-4.041316 -18.8212316,-7.546871 0,-3.505555 8.0167976,-5.147865 18.8212316,-5.147865 10.804434,0 19.398285,2.042145 19.398285,5.5477 z"
     id="path3102"
     sodipodi:nodetypes="cssssc" />
  <path
     style="color:#000000;fill:url(#linearGradient2918);stroke:none;stroke-width:1px;marker:none;visibility:visible;display:inline;overflow:visible;enable-background:accumulate"
     d="m 16,22.559013 c 0,0 -9.2951361,0.774595 -11.1541636,2.866001 -1.567669,1.763627 -1.8590272,7.126271 1.0844327,9.759893 2.9434599,2.633622 10.5092169,6.648776 15.1045969,6.041839 8.210704,-1.084432 16.088751,-7.007371 22.385787,-7.436109 1.260628,-0.08583 0.619677,-6.506596 -1.161892,-7.35865 C 40.477193,25.579933 19.098379,21.861878 16,22.559013 z"
     id="path2906"
     sodipodi:nodetypes="csssssc" />
  <path
     style="color:#000000;fill:url(#linearGradient2910);fill-opacity:1;stroke:none;stroke-width:1px;marker:none;visibility:visible;display:inline;overflow:visible;enable-background:accumulate"
     d="m 13.831135,33.480799 c 1.168813,-6.14423 0.892209,-9.477929 5.499623,-22.308328 4.109528,-1.8127026 9.062545,-0.776448 12.858272,0.309838 5.466797,7.739382 3.511498,14.071804 6.429136,21.223895 0,0 -15.569354,7.823406 -24.787031,0.774595 z"
     id="path2904"
     sodipodi:nodetypes="ccccc" />
  <path
     style="color:#000000;fill:url(#linearGradient2949);fill-opacity:1;stroke:none;stroke-width:1px;marker:none;visibility:visible;display:inline;overflow:visible;enable-background:accumulate"
     d="m 29.360578,26.82697 c 0.287544,1.781871 1.221776,4.218663 2.307117,5.607968 0.303094,-0.236258 0.508379,-0.468844 0.544745,-0.695087 -1.390041,-0.916369 -1.884211,-3.176431 -2.380895,-4.889828 -0.07416,-0.293541 -0.406921,-0.331604 -0.470967,-0.02305 z"
     id="path3043"
     sodipodi:nodetypes="ccccc" />
  <g
     id="g3051"
     transform="matrix(0.10292199,-0.19566737,-0.19566737,-0.10292199,31.044918,34.486556)">
    <path
       style="color:#000000;fill:url(#linearGradient2959);fill-opacity:1;stroke:none;stroke-width:1px;marker:none;visibility:visible;display:inline;overflow:visible;enable-background:accumulate"
       d="m 27.254976,21.829917 c -3.498669,1.116883 -8.268228,7.71069 -9.713271,12.309947 -1.569327,4.994823 0.482185,9.946267 8.226716,6.786452 5.703943,3.703859 9.933322,-0.872741 9.653422,-6.8465 -0.194903,-4.159703 -3.868018,-8.000663 -8.166867,-12.249899 z"
       id="path3053"
       sodipodi:nodetypes="cscsc" />
    <path
       style="color:#000000;fill:url(#linearGradient2961);stroke:none;stroke-width:1px;marker:none;visibility:visible;display:inline;overflow:visible;enable-background:accumulate"
       d="m 26.863158,25.178947 c 0.922087,5.026646 0.23524,9.735141 -0.842105,14.31579 0.155983,0 6.052734,-5.810526 0.842105,-14.31579 z"
       id="path3055"
       sodipodi:nodetypes="ccc" />
  </g>
  <g
     transform="matrix(-0.20398415,-0.08525913,0.08525913,-0.20398415,33.204361,33.957129)"
     id="g3061">
    <path
       sodipodi:nodetypes="cscsc"
       id="path3063"
       d="m 27.255503,22.996206 c -3.993699,5.136508 -8.268755,6.544401 -9.713798,11.143658 -1.569327,4.994823 0.482185,9.946267 8.226716,6.786452 5.998425,3.877342 11.078639,-0.710079 9.791816,-6.796899 -0.774115,-3.661651 -4.864226,-5.442048 -8.304734,-11.133211 z"
       style="color:#000000;fill:url(#linearGradient2955);fill-opacity:1;stroke:none;stroke-width:1px;marker:none;visibility:visible;display:inline;overflow:visible;enable-background:accumulate" />
    <path
       sodipodi:nodetypes="ccc"
       id="path3065"
       d="m 26.9896,25.355283 c -1.518354,4.879756 -1.401228,9.636642 -0.881089,14.313444 -0.154857,-0.01871 -5.31209,-6.494575 0.881089,-14.313444 z"
       style="color:#000000;fill:url(#linearGradient2957);stroke:none;stroke-width:1px;marker:none;visibility:visible;display:inline;overflow:visible;enable-background:accumulate" />
  </g>
  <path
     style="color:#000000;fill:#ffffff;fill-opacity:0.66517861;stroke:none;stroke-width:1px;marker:none;visibility:visible;display:inline;overflow:visible;filter:url(#filter3911);enable-background:accumulate"
     d="m 21.5,4.9999999 c -5.785552,2.4193475 -4.831503,5.9316031 -4.6875,9.3125001 0,0 -3.25,-8.2500001 4.6875,-9.3125001 z"
     id="path3867"
     sodipodi:nodetypes="ccc"
     transform="matrix(0.19849317,0.09736074,-0.09736074,0.19849317,26.979955,19.815877)" />
  <path
     style="color:#000000;fill:#ffffff;fill-opacity:0.66517861;stroke:none;stroke-width:1px;marker:none;visibility:visible;display:inline;overflow:visible;filter:url(#filter3915);enable-background:accumulate"
     d="m 11.375,15.5 c -4.1298745,1.176863 -6.840058,3.429249 -5.5,8.75 -0.134513,0 -4.4428451,-7.8125 5.5,-8.75 z"
     id="path3869"
     sodipodi:nodetypes="ccc"
     transform="matrix(0.19849317,0.09736074,-0.09736074,0.19849317,26.979955,19.815877)" />
  <path
     style="color:#000000;fill:#1a1a1a;stroke:none;stroke-width:1px;marker:none;visibility:visible;display:inline;overflow:visible;enable-background:accumulate"
     d="m 14.8125,27.572898 c -1.154285,1.831779 -0.586608,3.769327 -0.96875,5.90625 9.217677,7.048811 24.78125,-0.78125 24.78125,-0.78125 -0.603918,-1.480401 -1.017101,-2.913839 -1.3125,-4.34375 -7.3125,1.8125 -17.752868,1.29109 -22.5,-0.78125 z"
     id="path2922"
     sodipodi:nodetypes="ccccc" />
  <g
     id="g2973"
     transform="matrix(1.1146158,0,0,1.1146158,-2.3397988,-4.6816231)">
    <g
       transform="matrix(0.08732871,-0.17809216,0.17809216,0.08732871,22.316093,31.193424)"
       id="g3071">
      <path
         sodipodi:nodetypes="cscsc"
         id="path3073"
         d="m 26.947552,22.31577 c -2.572614,3.390673 -7.960804,7.224837 -9.405847,11.824094 -1.569327,4.994823 0.482185,9.946267 8.226716,6.786452 6.197585,4.024406 10.023693,-1.805903 8.756664,-8.378515 -0.711076,-3.688653 -4.448609,-7.522416 -7.577533,-10.232031 z"
         style="color:#000000;fill:url(#linearGradient2983);fill-opacity:1;stroke:none;stroke-width:1px;marker:none;visibility:visible;display:inline;overflow:visible;enable-background:accumulate" />
      <path
         sodipodi:nodetypes="ccc"
         id="path3075"
         d="m 26.863158,25.178947 c 0.922087,5.026646 0.23524,9.735141 -0.842105,14.31579 0.155983,0 6.052734,-5.810526 0.842105,-14.31579 z"
         style="color:#000000;fill:url(#linearGradient2985);stroke:none;stroke-width:1px;marker:none;visibility:visible;display:inline;overflow:visible;enable-background:accumulate" />
    </g>
    <path
       transform="matrix(0.17808214,0.08734914,-0.08734914,0.17808214,26.304806,21.978424)"
       sodipodi:nodetypes="ccc"
       id="path3873"
       d="m 27.75,20.9375 c 1.719058,-1.290046 5.394701,-3.8487 11.0625,-4.5 -0.552111,-0.828167 -7.288782,-0.05817 -11.0625,4.5 z"
       style="color:#000000;fill:#ffffff;fill-opacity:0.66517861;stroke:none;stroke-width:1px;marker:none;visibility:visible;display:inline;overflow:visible;filter:url(#filter3907);enable-background:accumulate" />
  </g>
  <g
     id="g2967"
     transform="matrix(1.1146158,0,0,1.1146158,-2.3397988,-4.6816231)">
    <g
       transform="matrix(0.17808214,0.08734914,-0.08734914,0.17808214,25.867664,21.898255)"
       id="g3047">
      <path
         style="color:#000000;fill:url(#linearGradient2979);fill-opacity:1;stroke:none;stroke-width:1px;marker:none;visibility:visible;display:inline;overflow:visible;enable-background:accumulate"
         d="m 27.11579,22.989473 c -2.740774,4.906357 -8.129042,6.551134 -9.574085,11.150391 -1.569327,4.994823 0.482185,9.946267 8.226716,6.786452 6.270983,4.072067 10.701926,-1.403682 9.334923,-7.877599 -0.742204,-3.514965 -7.31988,-6.734702 -7.987554,-10.059244 z"
         id="path2869"
         sodipodi:nodetypes="cscsc" />
      <path
         style="color:#000000;fill:url(#linearGradient2981);stroke:none;stroke-width:1px;marker:none;visibility:visible;display:inline;overflow:visible;enable-background:accumulate"
         d="m 26.863158,25.178947 c 0.922087,5.026646 0.23524,9.735141 -0.842105,14.31579 0.155983,0 6.052734,-5.810526 0.842105,-14.31579 z"
         id="path2871"
         sodipodi:nodetypes="ccc" />
    </g>
    <path
       transform="matrix(0.17808214,0.08734914,-0.08734914,0.17808214,26.304806,21.978424)"
       sodipodi:nodetypes="ccc"
       id="path3871"
       d="m 16.0625,41.1875 c -1.185661,-4.721638 1.588686,-9.611483 4,-11 0,0 -6.8125,2.5625 -4,11 z"
       style="color:#000000;fill:#ffffff;fill-opacity:0.66517861;stroke:none;stroke-width:1px;marker:none;visibility:visible;display:inline;overflow:visible;filter:url(#filter3919);enable-background:accumulate" />
  </g>
  <path
     style="color:#000000;fill:url(#linearGradient2920);stroke:none;stroke-width:1px;marker:none;visibility:visible;display:inline;overflow:visible;enable-background:accumulate"
     d="m 26.844327,39.677557 c 0,0 11.464002,-12.316056 13.323028,-13.013192 1.859028,-0.697135 4.105352,-2.401243 5.034866,0 0.929514,2.401244 -1.626649,7.203731 -1.626649,7.203731 0.375582,-0.268273 -9.109486,3.231348 -16.731245,5.809461 z"
     id="path2908"
     sodipodi:nodetypes="csscc" />
  <path
     style="color:#000000;fill:url(#linearGradient3100);fill-opacity:1;stroke:none;stroke-width:1px;marker:none;visibility:visible;display:inline;overflow:visible;enable-background:accumulate"
     d="M 19.084211,27.871911 C 18.109323,30.636823 18.110378,33.401736 18,36.166648 c 1.16778,0.461095 4.056603,1.468343 6,1 0.259405,-2.602906 0.682666,-5.021475 0.08421,-8.589474 -1.747925,-0.803895 -3.568108,-0.303069 -5,-0.705263 z M 19.75,29.041648 c 1.0603,0.01863 2.228855,0.145522 3.625,0.5 l 0.04079,6.907566 c -1.734428,0.05762 -3.197546,-0.291728 -4.720065,-0.551974 L 19.75,29.041648 z"
     id="path2927"
     sodipodi:nodetypes="cccccccccc" />
  <path
     style="color:#000000;fill:#ffffff;stroke:none;stroke-width:1px;stroke-linecap:butt;stroke-linejoin:miter;stroke-miterlimit:4;stroke-opacity:1;stroke-dasharray:none;stroke-dashoffset:0;marker:none;visibility:visible;display:inline;overflow:visible;enable-background:accumulate;fill-opacity:0.58035713;filter:url(#filter3902)"
     d="M 7.9791418,24.181666 C 5.0944507,25.398912 4.2007077,28.153933 5.4782167,34.42355 4.55731,34.144487 1.4996563,25.197282 7.9791418,24.181666 z"
     id="path3884"
     sodipodi:nodetypes="ccc" />
  <path
     style="color:#000000;fill:#ffffff;stroke:none;stroke-width:1px;stroke-linecap:butt;stroke-linejoin:miter;stroke-miterlimit:4;stroke-opacity:1;stroke-dasharray:none;stroke-dashoffset:0;marker:none;visibility:visible;display:inline;overflow:visible;enable-background:accumulate;filter:url(#filter3916);fill-opacity:0.6785714"
     d="M 14.529184,32.339446 C 14.470295,30.797019 14.020957,29.385958 15.00555,27.9926 l 1.905466,0.714549 c -1.703208,-0.740797 -2.504819,1.365752 -2.381832,3.632297 z"
     id="path3906"
     sodipodi:nodetypes="cccc" />
  <path
     style="color:#000000;fill:#ffffff;stroke:none;stroke-width:1px;stroke-linecap:butt;stroke-linejoin:miter;stroke-miterlimit:4;stroke-opacity:1;stroke-dasharray:none;stroke-dashoffset:0;marker:none;visibility:visible;display:inline;overflow:visible;enable-background:accumulate;filter:url(#filter3934);fill-opacity:0.6160714"
     d="m 15.839192,23.467116 c 0.501925,-2.100965 2.227313,-8.656767 3.632296,-11.968712 1.621202,-0.955326 2.560616,-0.774338 3.751387,-1.01228 -4.966978,1.176808 -6.015366,10.013736 -7.383683,12.980992 z"
     id="path3920"
     sodipodi:nodetypes="cccc" />
</svg>
