<?xml version="1.0" encoding="UTF-8" standalone="no"?>
<!-- Created with Inkscape (http://www.inkscape.org/) -->

<svg
   xmlns:dc="http://purl.org/dc/elements/1.1/"
   xmlns:cc="http://creativecommons.org/ns#"
   xmlns:rdf="http://www.w3.org/1999/02/22-rdf-syntax-ns#"
   xmlns:svg="http://www.w3.org/2000/svg"
   xmlns="http://www.w3.org/2000/svg"
   xmlns:xlink="http://www.w3.org/1999/xlink"
   xmlns:sodipodi="http://sodipodi.sourceforge.net/DTD/sodipodi-0.dtd"
   xmlns:inkscape="http://www.inkscape.org/namespaces/inkscape"
   id="svg1"
   sodipodi:version="0.32"
   inkscape:version="0.47 r22583"
   width="48"
   height="48"
   sodipodi:docname="st-patrick02.svg"
   version="1.1"
   inkscape:export-filename="st-patrick02.png"
   inkscape:export-xdpi="89.949997"
   inkscape:export-ydpi="89.949997">
  <defs
     id="defs3">
    <linearGradient
       id="linearGradient3274">
      <stop
         id="stop3276"
         offset="0"
         style="stop-color:#ff7215;stop-opacity:1;" />
      <stop
         id="stop3278"
         offset="1"
         style="stop-color:#aa4400;stop-opacity:1;" />
    </linearGradient>
    <radialGradient
       inkscape:collect="always"
       xlink:href="#linearGradient3274"
       id="radialGradient3253"
       cx="13.85458"
       cy="34.653885"
       fx="13.85458"
       fy="34.653885"
       r="12.153456"
       gradientTransform="matrix(1.4073661,0.20114318,-0.17447972,1.2208061,0.4025145,-12.118372)"
       gradientUnits="userSpaceOnUse" />
    <radialGradient
       inkscape:collect="always"
       xlink:href="#linearGradient3274"
       id="radialGradient3255"
       cx="18.184984"
       cy="23.72472"
       fx="18.184984"
       fy="23.72472"
       r="11.5"
       gradientTransform="matrix(1.4813105,0.0096793,-0.00225394,0.34494242,-8.6991497,16.600017)"
       gradientUnits="userSpaceOnUse" />
    <linearGradient
       id="linearGradient3669">
      <stop
         id="stop3671"
         offset="0"
         style="stop-color:#ffd73b;stop-opacity:1;" />
      <stop
         id="stop3673"
         offset="1"
         style="stop-color:#ee8400;stop-opacity:1;" />
    </linearGradient>
    <linearGradient
       inkscape:collect="always"
       xlink:href="#linearGradient3669"
       id="linearGradient3409"
       x1="17.103146"
       y1="30.189749"
       x2="13.832776"
       y2="14.810176"
       gradientUnits="userSpaceOnUse"
       gradientTransform="translate(0,-2)" />
    <linearGradient
       inkscape:collect="always"
       xlink:href="#linearGradient3669"
       id="linearGradient3417"
       x1="13.359382"
       y1="29.033852"
       x2="12.321598"
       y2="27.788651"
       gradientUnits="userSpaceOnUse"
       gradientTransform="translate(0,-2)" />
    <linearGradient
       inkscape:collect="always"
       xlink:href="#linearGradient3669"
       id="linearGradient3419"
       x1="20.971594"
       y1="28.623432"
       x2="21.865797"
       y2="24.221113"
       gradientUnits="userSpaceOnUse"
       gradientTransform="translate(0,-2)" />
    <linearGradient
       id="linearGradient3613-91">
      <stop
         style="stop-color:#ff5959;stop-opacity:1;"
         offset="0"
         id="stop3615-8" />
      <stop
         style="stop-color:#d90000;stop-opacity:1;"
         offset="1"
         id="stop3617-2" />
    </linearGradient>
    <linearGradient
       id="linearGradient3764-5">
      <stop
         id="stop3766-9"
         offset="0"
         style="stop-color:#7ed249;stop-opacity:1;" />
      <stop
         id="stop3768-0"
         offset="1"
         style="stop-color:#286325;stop-opacity:1;" />
    </linearGradient>
    <linearGradient
       id="linearGradient3770-0">
      <stop
         id="stop3772-8"
         offset="0"
         style="stop-color:#d1f6f6;stop-opacity:1;" />
      <stop
         id="stop3774-0"
         offset="1"
         style="stop-color:#2adbdb;stop-opacity:1;" />
    </linearGradient>
    <linearGradient
       inkscape:collect="always"
       xlink:href="#linearGradient3613-91"
       id="linearGradient3527"
       x1="31.621181"
       y1="19.317192"
       x2="27.446789"
       y2="3.4956784"
       gradientUnits="userSpaceOnUse"
       gradientTransform="translate(0,0.928846)" />
    <linearGradient
       inkscape:collect="always"
       xlink:href="#linearGradient3669"
       id="linearGradient3529"
       x1="34.630871"
       y1="15.302446"
       x2="31.410631"
       y2="9.0037956"
       gradientUnits="userSpaceOnUse"
       gradientTransform="translate(0,0.928846)" />
    <linearGradient
       inkscape:collect="always"
       xlink:href="#linearGradient3764-5"
       id="linearGradient3531"
       x1="31.201088"
       y1="17.240854"
       x2="23.864855"
       y2="5.8199544"
       gradientUnits="userSpaceOnUse"
       gradientTransform="translate(0,0.928846)" />
    <linearGradient
       inkscape:collect="always"
       xlink:href="#linearGradient3770-0"
       id="linearGradient3533"
       x1="32.268764"
       y1="20.694378"
       x2="23.246075"
       y2="1.821926"
       gradientUnits="userSpaceOnUse"
       gradientTransform="translate(0,0.928846)" />
    <linearGradient
       id="linearGradient2868">
      <stop
         id="stop2870"
         offset="0"
         style="stop-color:#d700d7;stop-opacity:1;" />
      <stop
         id="stop2872"
         offset="1"
         style="stop-color:#6e006e;stop-opacity:1;" />
    </linearGradient>
    <linearGradient
       inkscape:collect="always"
       xlink:href="#linearGradient2868"
       id="linearGradient3643"
       x1="24.822229"
       y1="10.830705"
       x2="16.513725"
       y2="1.5165849"
       gradientUnits="userSpaceOnUse"
       gradientTransform="translate(0,0.928846)" />
    <linearGradient
       id="linearGradient3689-0">
      <stop
         style="stop-color:#ffea00;stop-opacity:1;"
         offset="0"
         id="stop3691-9" />
      <stop
         style="stop-color:#ffffa4;stop-opacity:1;"
         offset="1"
         id="stop3693-0" />
    </linearGradient>
    <linearGradient
       inkscape:collect="always"
       xlink:href="#linearGradient3689-0"
       id="linearGradient3727"
       x1="23.461519"
       y1="7.4147563"
       x2="40.400661"
       y2="19.479055"
       gradientUnits="userSpaceOnUse"
       gradientTransform="translate(0,0.928846)" />
    <filter
       height="1.1581542"
       y="-0.079077092"
       width="1.3716767"
       x="-0.18583836"
       id="filter3919"
       inkscape:collect="always">
      <feGaussianBlur
         id="feGaussianBlur3921"
         stdDeviation="0.36243667"
         inkscape:collect="always" />
    </filter>
    <filter
       height="1.1988224"
       y="-0.099411202"
       width="1.2658972"
       x="-0.13294859"
       id="filter3915"
       inkscape:collect="always">
      <feGaussianBlur
         id="feGaussianBlur3917"
         stdDeviation="0.36243667"
         inkscape:collect="always" />
    </filter>
    <filter
       height="1.186813"
       y="-0.093406497"
       width="1.3254044"
       x="-0.16270221"
       id="filter3911"
       inkscape:collect="always">
      <feGaussianBlur
         id="feGaussianBlur3913"
         stdDeviation="0.36243667"
         inkscape:collect="always" />
    </filter>
    <filter
       height="1.3630912"
       y="-0.1815456"
       width="1.1572607"
       x="-0.078630329"
       id="filter3907"
       inkscape:collect="always">
      <feGaussianBlur
         id="feGaussianBlur3909"
         stdDeviation="0.36243667"
         inkscape:collect="always" />
    </filter>
    <linearGradient
       y2="32.336842"
       x2="31.459776"
       y1="30.509209"
       x1="18.986183"
       gradientUnits="userSpaceOnUse"
       id="linearGradient3083"
       xlink:href="#linearGradient3764"
       inkscape:collect="always" />
    <linearGradient
       y2="27.794079"
       x2="21.157238"
       y1="42.326565"
       x1="32.350986"
       gradientUnits="userSpaceOnUse"
       id="linearGradient3081"
       xlink:href="#linearGradient3764"
       inkscape:collect="always" />
    <linearGradient
       y2="30.315788"
       x2="22.772276"
       y1="29.946766"
       x1="32.67448"
       gradientUnits="userSpaceOnUse"
       id="linearGradient3079"
       xlink:href="#linearGradient3764"
       inkscape:collect="always" />
    <linearGradient
       y2="23.668921"
       x2="31.722326"
       y1="33.926521"
       x1="13.16315"
       gradientUnits="userSpaceOnUse"
       id="linearGradient3077"
       xlink:href="#linearGradient3764"
       inkscape:collect="always" />
    <linearGradient
       gradientTransform="matrix(-0.99278048,-0.1199455,-0.1199455,0.99278048,56.67892,3.5802315)"
       y2="25.560471"
       x2="33.201824"
       y1="39.084511"
       x1="19.205559"
       gradientUnits="userSpaceOnUse"
       id="linearGradient3069"
       xlink:href="#linearGradient3764"
       inkscape:collect="always" />
    <linearGradient
       y2="46.231579"
       x2="33.094738"
       y1="22.235821"
       x1="14.622439"
       gradientUnits="userSpaceOnUse"
       id="linearGradient3067"
       xlink:href="#linearGradient3764"
       inkscape:collect="always" />
    <linearGradient
       y2="30.772892"
       x2="24.197447"
       y1="32.480545"
       x1="31.533636"
       gradientUnits="userSpaceOnUse"
       id="linearGradient3059"
       xlink:href="#linearGradient3764"
       inkscape:collect="always" />
    <linearGradient
       y2="46.231579"
       x2="33.094738"
       y1="28.931837"
       x1="10.656472"
       gradientUnits="userSpaceOnUse"
       id="linearGradient3057"
       xlink:href="#linearGradient3764"
       inkscape:collect="always" />
    <linearGradient
       id="linearGradient3764">
      <stop
         id="stop3766"
         offset="0"
         style="stop-color:#7ed249;stop-opacity:1;" />
      <stop
         id="stop3768"
         offset="1"
         style="stop-color:#286325;stop-opacity:1;" />
    </linearGradient>
    <linearGradient
       inkscape:collect="always"
       xlink:href="#linearGradient3764"
       id="linearGradient4609"
       gradientUnits="userSpaceOnUse"
       gradientTransform="matrix(0.99361761,-0.11280094,0.11280094,0.99361761,-5.0758604,3.7669578)"
       x1="46.663235"
       y1="33.831051"
       x2="37.324547"
       y2="41.263157" />
    <linearGradient
       inkscape:collect="always"
       xlink:href="#linearGradient3274"
       id="linearGradient4611"
       x1="26.84524"
       y1="29.315237"
       x2="32.09894"
       y2="29.315238"
       gradientUnits="userSpaceOnUse" />
    <filter
       inkscape:collect="always"
       id="filter4615"
       x="-0.14513961"
       width="1.2902792"
       y="-0.054589875"
       height="1.1091797">
      <feGaussianBlur
         inkscape:collect="always"
         stdDeviation="0.19097274"
         id="feGaussianBlur4617" />
    </filter>
    <filter
       inkscape:collect="always"
       id="filter4631"
       x="-0.14308115"
       width="1.2861623"
       y="-0.12026107"
       height="1.2405221">
      <feGaussianBlur
         inkscape:collect="always"
         stdDeviation="0.24204937"
         id="feGaussianBlur4633" />
    </filter>
    <filter
       inkscape:collect="always"
       id="filter4635"
       x="-0.16111975"
       width="1.3222395"
       y="-0.1234914"
       height="1.2469828">
      <feGaussianBlur
         inkscape:collect="always"
         stdDeviation="0.24204937"
         id="feGaussianBlur4637" />
    </filter>
    <filter
       inkscape:collect="always"
       id="filter4771">
      <feGaussianBlur
         inkscape:collect="always"
         stdDeviation="0.25349161"
         id="feGaussianBlur4773" />
    </filter>
    <filter
       inkscape:collect="always"
       id="filter4775">
      <feGaussianBlur
         inkscape:collect="always"
         stdDeviation="0.25349161"
         id="feGaussianBlur4777" />
    </filter>
    <filter
       inkscape:collect="always"
       id="filter4779">
      <feGaussianBlur
         inkscape:collect="always"
         stdDeviation="0.25349161"
         id="feGaussianBlur4781" />
    </filter>
    <filter
       inkscape:collect="always"
       id="filter4783">
      <feGaussianBlur
         inkscape:collect="always"
         stdDeviation="0.25349161"
         id="feGaussianBlur4785" />
    </filter>
    <filter
       inkscape:collect="always"
       id="filter4787">
      <feGaussianBlur
         inkscape:collect="always"
         stdDeviation="0.25349161"
         id="feGaussianBlur4789" />
    </filter>
    <filter
       inkscape:collect="always"
       id="filter4791"
       x="-0.066777791"
       width="1.1335556"
       y="-0.12309641"
       height="1.2461928">
      <feGaussianBlur
         inkscape:collect="always"
         stdDeviation="0.25349161"
         id="feGaussianBlur4793" />
    </filter>
    <filter
       inkscape:collect="always"
       id="filter4819">
      <feGaussianBlur
         inkscape:collect="always"
         stdDeviation="0.079287647"
         id="feGaussianBlur4821" />
    </filter>
    <filter
       inkscape:collect="always"
       id="filter4863"
       x="-0.033301594"
       width="1.0666032"
       y="-0.20498812"
       height="1.4099762">
      <feGaussianBlur
         inkscape:collect="always"
         stdDeviation="0.090886182"
         id="feGaussianBlur4865" />
    </filter>
    <filter
       inkscape:collect="always"
       id="filter4867"
       x="-0.041263063"
       width="1.0825261"
       y="-0.11059374"
       height="1.2211875">
      <feGaussianBlur
         inkscape:collect="always"
         stdDeviation="0.090886182"
         id="feGaussianBlur4869" />
    </filter>
    <filter
       inkscape:collect="always"
       id="filter4871"
       x="-0.049502368"
       width="1.0990047"
       y="-0.10788068"
       height="1.2157614">
      <feGaussianBlur
         inkscape:collect="always"
         stdDeviation="0.090886182"
         id="feGaussianBlur4873" />
    </filter>
    <filter
       inkscape:collect="always"
       id="filter4875"
       x="-0.033607114"
       width="1.0672142"
       y="-0.1700665"
       height="1.340133">
      <feGaussianBlur
         inkscape:collect="always"
         stdDeviation="0.090886182"
         id="feGaussianBlur4877" />
    </filter>
    <filter
       inkscape:collect="always"
       id="filter3718"
       x="-0.061762335"
       width="1.1235247"
       y="-0.28523573"
       height="1.5704715">
      <feGaussianBlur
         inkscape:collect="always"
         stdDeviation="0.69080529"
         id="feGaussianBlur3720" />
    </filter>
  </defs>
  <sodipodi:namedview
     id="base"
     pagecolor="#ffffff"
     bordercolor="#666666"
     borderopacity="1.0"
     inkscape:pageopacity="0.0"
     inkscape:pageshadow="2"
     inkscape:zoom="1"
     inkscape:cx="24"
     inkscape:cy="24"
     inkscape:window-width="1153"
     inkscape:window-height="793"
     inkscape:window-x="379"
     inkscape:window-y="24"
     showgrid="false"
     inkscape:window-maximized="0"
     inkscape:current-layer="svg1">
    <inkscape:grid
       type="xygrid"
       id="grid2861" />
  </sodipodi:namedview>
  <metadata
     id="metadata4">
    <rdf:RDF>
      <cc:Work
         rdf:about="">
        <dc:format>image/svg+xml</dc:format>
        <dc:type
           rdf:resource="http://purl.org/dc/dcmitype/StillImage" />
        <dc:title />
      </cc:Work>
    </rdf:RDF>
  </metadata>
  <path
     style="fill:#000000;fill-opacity:0.76862744999999999;fill-rule:evenodd;stroke:none;filter:url(#filter3718)"
     d="M 21 38.15625 C 15.070206 38.15625 10.28125 39.457967 10.28125 41.0625 C 10.28125 42.667033 15.070206 43.96875 21 43.96875 C 24.776464 43.96875 28.085977 43.422623 30 42.625 C 30.702988 42.735906 31.502577 42.8125 32.375 42.8125 C 33.473039 42.8125 35.910959 42.275311 36.96875 42.90625 C 36.364099 42.249678 37.125 41.945162 37.125 41.53125 C 37.125 40.820222 35.002713 40.25 32.375 40.25 C 32.023193 40.25 31.673802 40.261646 31.34375 40.28125 C 30.093744 39.051606 25.941495 38.15625 21 38.15625 z "
     id="path3714" />
  <path
     style="color:#000000;fill:url(#radialGradient3253);stroke:none;stroke-width:1px;marker:none;visibility:visible;display:inline;overflow:visible;enable-background:accumulate"
     d="M 7.5789473,28.969333 C 11.505263,32.948281 7,36.695649 11,40.695649 c 4,4 14.444378,2.515331 18,-1 7.431579,-7.347368 -2.212829,-10.906908 0.9375,-14.84375 -1.945754,-0.691068 -20.7796053,6.296382 -22.3585527,4.117434 z"
     id="path2855"
     sodipodi:nodetypes="ccscc" />
  <path
     sodipodi:type="arc"
     style="fill:url(#radialGradient3255);fill-rule:evenodd;stroke:none"
     id="path2853"
     sodipodi:cx="21.5"
     sodipodi:cy="25.5"
     sodipodi:rx="11.5"
     sodipodi:ry="3.5"
     d="m 33,25.5 a 11.5,3.5 0 1 1 -23,0 11.5,3.5 0 1 1 23,0 z"
     transform="matrix(0.98697663,-0.16086373,0.16086373,0.98697663,-6.6722539,4.8362479)" />
  <path
     style="color:#000000;fill:url(#linearGradient4611);stroke:none;stroke-width:1px;marker:none;visibility:visible;display:inline;overflow:visible;enable-background:accumulate"
     d="m 27,30 c 1.444833,-0.07482 2.822887,-0.529794 3.391438,-0.968762 0.427175,-0.329816 0.375525,-1.020834 -0.763599,-0.867487 -0.130225,-0.270567 -0.252752,-0.556529 -0.30096,-0.99113 C 31.189543,26.226703 35.011376,29.51065 28.25,31.625 26.68001,31.401592 26.710137,30.047994 27,30 z"
     id="path2857"
     sodipodi:nodetypes="cscccc" />
  <path
     style="color:#000000;fill:url(#linearGradient3409);fill-opacity:1;stroke:none;stroke-width:1px;marker:none;visibility:visible;display:inline;overflow:visible;enable-background:accumulate"
     d="m 9.9878833,27.084894 c -0.9133461,-0.191509 -1.9624407,0.643802 -1.1490485,1.06066 6.9121882,3.068508 18.8351442,-1.103452 20.1083492,-3.358757 0.324091,-1.473139 -2.268634,-2.371754 -3.800699,-1.502602 -0.874211,-1.103486 -3.066405,-1.537933 -4.065864,0.441941 -0.397747,-0.721837 -1.944543,-0.869149 -2.65165,-0.04419 -0.496838,-0.858175 -3.498832,0.527821 -2.916816,1.635185 -0.912992,-1.118876 -4.164727,-0.286113 -3.712311,0.618718 -0.869152,-0.368286 -1.9150806,0.279894 -1.8119607,1.149045 z"
     id="path2861"
     sodipodi:nodetypes="ccccccccc" />
  <path
     style="color:#000000;fill:url(#linearGradient3417);stroke:none;stroke-width:1px;marker:none;visibility:visible;display:inline;overflow:visible;enable-background:accumulate"
     d="m 11.092738,28.145554 c -0.2642,-0.828477 -0.053,-1.31738 1.325825,-0.972272 0.147408,-1.423784 0.973127,-1.038739 1.811961,-0.618719 0.30057,-0.303417 -0.123187,-1.331161 1.458408,-0.353553 0.438742,0.789736 -3.296097,2.578824 -4.596194,1.944544 z"
     id="path3413"
     sodipodi:nodetypes="ccccc" />
  <path
     style="color:#000000;fill:url(#linearGradient3419);stroke:none;stroke-width:1px;marker:none;visibility:visible;display:inline;overflow:visible;enable-background:accumulate"
     d="m 18.517359,25.803265 c -0.378302,-0.293096 0.977399,-2.12772 2.032932,-0.574527 0.336578,-0.846136 1.13762,-0.801573 1.811961,0.486138 0.895878,-1.91739 2.585895,-1.366048 2.916815,-0.265165 0,0 -4.817164,2.386486 -6.761708,0.353554 z"
     id="path3415"
     sodipodi:nodetypes="ccccc" />
  <g
     id="g4589"
     transform="matrix(0.27083081,0,0,0.27083081,25.182307,31.574696)">
    <path
       sodipodi:nodetypes="ccccc"
       id="path3043"
       d="M 23.632867,23.729681 C 28.349846,30.392992 36.997519,38.42777 44.17236,41.907774 44.932605,40.344617 45.302973,38.991195 45,38 37.529827,37.04749 31.021243,28.853846 25.591351,22.885184 c -0.885819,-1.04435 -2.312999,-0.536079 -1.958484,0.844497 z"
       style="color:#000000;fill:url(#linearGradient4609);fill-opacity:1;stroke:none;stroke-width:1px;marker:none;visibility:visible;display:inline;overflow:visible;enable-background:accumulate" />
    <g
       transform="translate(-2.156666,0.60766203)"
       id="g3047">
      <path
         style="color:#000000;fill:url(#linearGradient3081);fill-opacity:1;stroke:none;stroke-width:1px;marker:none;visibility:visible;display:inline;overflow:visible;enable-background:accumulate"
         d="m 27.11579,22.989473 c -2.740774,4.906357 -8.129042,6.551134 -9.574085,11.150391 -1.569327,4.994823 0.482185,9.946267 8.226716,6.786452 6.270983,4.072067 10.701926,-1.403682 9.334923,-7.877599 -0.742204,-3.514965 -7.31988,-6.734702 -7.987554,-10.059244 z"
         id="path2869"
         sodipodi:nodetypes="cscsc" />
      <path
         style="color:#000000;fill:url(#linearGradient3083);stroke:none;stroke-width:1px;marker:none;visibility:visible;display:inline;overflow:visible;enable-background:accumulate"
         d="m 26.863158,25.178947 c 0.922087,5.026646 0.23524,9.735141 -0.842105,14.31579 0.155983,0 6.052734,-5.810526 0.842105,-14.31579 z"
         id="path2871"
         sodipodi:nodetypes="ccc" />
    </g>
    <g
       transform="matrix(0.02821258,-0.99960195,-0.99960195,-0.02821258,45.729892,51.479769)"
       id="g3051">
      <path
         sodipodi:nodetypes="cscsc"
         id="path3053"
         d="m 27.254976,21.829917 c -3.498669,1.116883 -8.268228,7.71069 -9.713271,12.309947 -1.569327,4.994823 0.482185,9.946267 8.226716,6.786452 5.703943,3.703859 9.933322,-0.872741 9.653422,-6.8465 -0.194903,-4.159703 -3.868018,-8.000663 -8.166867,-12.249899 z"
         style="color:#000000;fill:url(#linearGradient3057);fill-opacity:1;stroke:none;stroke-width:1px;marker:none;visibility:visible;display:inline;overflow:visible;enable-background:accumulate" />
      <path
         sodipodi:nodetypes="ccc"
         id="path3055"
         d="m 26.863158,25.178947 c 0.922087,5.026646 0.23524,9.735141 -0.842105,14.31579 0.155983,0 6.052734,-5.810526 0.842105,-14.31579 z"
         style="color:#000000;fill:url(#linearGradient3059);stroke:none;stroke-width:1px;marker:none;visibility:visible;display:inline;overflow:visible;enable-background:accumulate" />
    </g>
    <g
       id="g3061"
       transform="matrix(-0.99819349,0.06008129,-0.06008129,-0.99819349,53.444694,45.028432)">
      <path
         style="color:#000000;fill:url(#linearGradient3067);fill-opacity:1;stroke:none;stroke-width:1px;marker:none;visibility:visible;display:inline;overflow:visible;enable-background:accumulate"
         d="m 27.255503,22.996206 c -3.993699,5.136508 -8.268755,6.544401 -9.713798,11.143658 -1.569327,4.994823 0.482185,9.946267 8.226716,6.786452 5.998425,3.877342 11.078639,-0.710079 9.791816,-6.796899 -0.774115,-3.661651 -4.864226,-5.442048 -8.304734,-11.133211 z"
         id="path3063"
         sodipodi:nodetypes="cscsc" />
      <path
         style="color:#000000;fill:url(#linearGradient3069);stroke:none;stroke-width:1px;marker:none;visibility:visible;display:inline;overflow:visible;enable-background:accumulate"
         d="m 26.9896,25.355283 c -1.518354,4.879756 -1.401228,9.636642 -0.881089,14.313444 -0.154857,-0.01871 -5.31209,-6.494575 0.881089,-14.313444 z"
         id="path3065"
         sodipodi:nodetypes="ccc" />
    </g>
    <g
       transform="matrix(-1.1470333e-4,-1,1,-1.1470333e-4,2.4045846,50.56634)"
       id="g3071">
      <path
         sodipodi:nodetypes="cscsc"
         id="path3073"
         d="m 26.947552,22.31577 c -2.572614,3.390673 -7.960804,7.224837 -9.405847,11.824094 -1.569327,4.994823 0.482185,9.946267 8.226716,6.786452 6.197585,4.024406 10.023693,-1.805903 8.756664,-8.378515 -0.711076,-3.688653 -4.448609,-7.522416 -7.577533,-10.232031 z"
         style="color:#000000;fill:url(#linearGradient3077);fill-opacity:1;stroke:none;stroke-width:1px;marker:none;visibility:visible;display:inline;overflow:visible;enable-background:accumulate" />
      <path
         sodipodi:nodetypes="ccc"
         id="path3075"
         d="m 26.863158,25.178947 c 0.922087,5.026646 0.23524,9.735141 -0.842105,14.31579 0.155983,0 6.052734,-5.810526 0.842105,-14.31579 z"
         style="color:#000000;fill:url(#linearGradient3079);stroke:none;stroke-width:1px;marker:none;visibility:visible;display:inline;overflow:visible;enable-background:accumulate" />
    </g>
    <path
       sodipodi:nodetypes="ccc"
       id="path3867"
       d="m 21.5,4.9999999 c -5.785552,2.4193475 -4.831503,5.9316031 -4.6875,9.3125001 0,0 -3.25,-8.2500001 4.6875,-9.3125001 z"
       style="color:#000000;fill:#ffffff;fill-opacity:0.66517861;stroke:none;stroke-width:1px;marker:none;visibility:visible;display:inline;overflow:visible;filter:url(#filter3911);enable-background:accumulate" />
    <path
       sodipodi:nodetypes="ccc"
       id="path3869"
       d="m 11.375,15.5 c -4.1298745,1.176863 -6.840058,3.429249 -5.5,8.75 -0.134513,0 -4.4428451,-7.8125 5.5,-8.75 z"
       style="color:#000000;fill:#ffffff;fill-opacity:0.66517861;stroke:none;stroke-width:1px;marker:none;visibility:visible;display:inline;overflow:visible;filter:url(#filter3915);enable-background:accumulate" />
    <path
       sodipodi:nodetypes="ccc"
       id="path3871"
       d="m 16.0625,41.1875 c -1.185661,-4.721638 1.588686,-9.611483 4,-11 0,0 -6.8125,2.5625 -4,11 z"
       style="color:#000000;fill:#ffffff;fill-opacity:0.66517861;stroke:none;stroke-width:1px;marker:none;visibility:visible;display:inline;overflow:visible;filter:url(#filter3919);enable-background:accumulate" />
    <path
       sodipodi:nodetypes="ccc"
       id="path3873"
       d="m 27.75,20.9375 c 1.719058,-1.290046 5.394701,-3.8487 11.0625,-4.5 -0.552111,-0.828167 -7.288782,-0.05817 -11.0625,4.5 z"
       style="color:#000000;fill:#ffffff;fill-opacity:0.66517861;stroke:none;stroke-width:1px;marker:none;visibility:visible;display:inline;overflow:visible;filter:url(#filter3907);enable-background:accumulate" />
  </g>
  <path
     style="color:#000000;fill:#ffffff;stroke:none;stroke-width:1px;stroke-linecap:butt;stroke-linejoin:miter;stroke-miterlimit:4;stroke-opacity:1;stroke-dasharray:none;stroke-dashoffset:0;marker:none;visibility:visible;display:inline;overflow:visible;enable-background:accumulate;filter:url(#filter4615);fill-opacity:0.53125"
     d="m 9.5868793,33.113541 c 0.2931215,3.098951 0.1027158,6.363373 2.9772917,8.395963 0,0 -4.0491167,-0.774096 -2.9772917,-8.395963 z"
     id="path4613"
     sodipodi:nodetypes="ccc" />
  <path
     style="color:#000000;fill:#ffffff;stroke:none;stroke-width:1px;stroke-linecap:butt;stroke-linejoin:miter;stroke-miterlimit:4;stroke-opacity:1;stroke-dasharray:none;stroke-dashoffset:0;marker:none;visibility:visible;display:inline;overflow:visible;enable-background:accumulate;filter:url(#filter4631);fill-opacity:0.6651786"
     d="M 11.611438,25.1344 C 8.0406896,26.946701 6.697738,28.619765 10.71825,29.957612 9.9787026,30.083876 3.4595087,28.568179 11.611438,25.1344 z"
     id="path4619"
     sodipodi:nodetypes="ccc" />
  <path
     style="color:#000000;fill:#ffffff;stroke:none;stroke-width:1px;stroke-linecap:butt;stroke-linejoin:miter;stroke-miterlimit:4;stroke-opacity:1;stroke-dasharray:none;stroke-dashoffset:0;marker:none;visibility:visible;display:inline;overflow:visible;enable-background:accumulate;filter:url(#filter4635);fill-opacity:0.6651786"
     d="m 26.914717,22.99075 c 3.560169,0.81234 2.677412,2.394173 -0.655004,4.704121 1.315996,-0.542017 7.012084,-2.99331 0.655004,-4.704121 z"
     id="path4621"
     sodipodi:nodetypes="ccc" />
  <path
     style="color:#000000;fill:#ffffff;stroke:none;stroke-width:1px;stroke-linecap:butt;stroke-linejoin:miter;stroke-miterlimit:4;stroke-opacity:1;stroke-dasharray:none;stroke-dashoffset:0;marker:none;visibility:visible;display:inline;overflow:visible;enable-background:accumulate;filter:url(#filter4863)"
     d="m 21.287636,23.645754 c 1.182346,-1.277961 2.400347,-1.45064 3.662069,-0.267956 1.053902,-0.355695 2.069656,-0.546084 2.887973,0.119091 -0.754968,-0.271928 -1.485741,-0.577124 -2.858201,0 -1.042447,-0.966479 -2.25264,-1.027129 -3.691841,0.148865 z"
     id="path4829"
     sodipodi:nodetypes="ccccc" />
  <g
     id="g4795">
    <path
       sodipodi:nodetypes="ccccc"
       id="path3431"
       d="m 18.534779,20.620688 c -1.160872,0.946783 -1.757021,0.34058 -2.021053,-1.178947 C 16.576252,1.7676444 37.585965,-0.1378206 44.8,4.8025302 45.766634,6.1700576 45.002438,6.6721705 44.71579,7.4130565 L 18.534779,20.620688 z"
       style="color:#000000;fill:url(#linearGradient3643);stroke:none;stroke-width:1px;marker:none;visibility:visible;display:inline;overflow:visible;enable-background:accumulate" />
    <path
       sodipodi:nodetypes="ccccc"
       id="path3429"
       d="M 20.512487,21.44236 C 19.732069,21.655998 18.920904,22.007992 18.575645,20.263413 20.441727,0.05855634 40.433053,5.0685658 45.221053,6.5709513 45.739656,7.5814776 46.631306,9.0972671 45.136843,9.6025302 35.498888,9.7033734 25.674757,9.3034655 20.512487,21.44236 z"
       style="color:#000000;fill:url(#linearGradient3533);stroke:none;stroke-width:1px;marker:none;visibility:visible;display:inline;overflow:visible;enable-background:accumulate" />
    <path
       sodipodi:nodetypes="ccccc"
       id="path3427"
       d="M 21.765429,22.163621 C 21.204025,22.103681 20.642622,22.655823 20.081218,20.47941 21.169638,4.483521 36.810154,5.1360581 45.221053,9.1814776 c 0.583772,0.7859648 1.367434,1.5719294 0,2.3578944 C 35.780821,9.1835901 25.75556,8.1691019 21.765429,22.163621 z"
       style="color:#000000;fill:url(#linearGradient3531);fill-opacity:1;stroke:none;stroke-width:1px;marker:none;visibility:visible;display:inline;overflow:visible;enable-background:accumulate" />
    <path
       sodipodi:nodetypes="ccccc"
       id="path3425"
       d="m 23.028587,22.572704 c -0.669113,-0.02546 -1.366337,0.01935 -1.6,-1.094737 0.976211,-16.5215284 18.38866,-14.2917571 24.297729,-10.191226 0.387856,0.840396 0.604886,1.623851 -0.336842,2.021052 C 36.58181,11.193347 26.862121,8.0346257 23.028587,22.572704 z"
       style="color:#000000;fill:url(#linearGradient3727);stroke:none;stroke-width:1px;marker:none;visibility:visible;display:inline;overflow:visible;enable-background:accumulate" />
    <path
       sodipodi:nodetypes="ccccc"
       id="path3423"
       d="M 24.042105,22.507793 C 22.972444,22.685712 22.76602,21.758209 23,20.928846 c 0.788431,-14.5026408 17.357895,-11.7578947 23,-8 0.938078,1.302372 -0.232593,1.55037 -1,2 -17.242909,-6.6855548 -18.777384,0.511878 -20.957895,7.578947 z"
       style="color:#000000;fill:url(#linearGradient3529);stroke:none;stroke-width:1px;marker:none;visibility:visible;display:inline;overflow:visible;enable-background:accumulate" />
    <path
       sodipodi:nodetypes="ccccc"
       id="path3421"
       d="m 25,22.928846 c 3.03645,-12.89065 17,-8 20,-6 0.917249,-0.858885 1.923212,-1.704121 0,-3 -5,-3 -19.055456,-4.7954951 -21,7 -0.197314,2.435491 0,2 1,2 z"
       style="color:#000000;fill:url(#linearGradient3527);stroke:none;stroke-width:1px;marker:none;visibility:visible;display:inline;overflow:visible;enable-background:accumulate" />
    <path
       sodipodi:nodetypes="ccc"
       id="path4639"
       d="M 17.982842,13.439529 C 20.836872,7.438059 25.652718,5.1367631 30.547013,3.3762828 30.338375,3.2624804 20.785244,4.5963104 17.982842,13.439529 z"
       style="color:#000000;fill:#ffffff;fill-opacity:0.8125;stroke:none;stroke-width:1px;marker:none;visibility:visible;display:inline;overflow:visible;filter:url(#filter4771);enable-background:accumulate" />
    <path
       sodipodi:nodetypes="ccc"
       id="path4641"
       d="m 20.424221,14.332716 c 2.1257,-3.501468 4.274368,-6.9934309 10.896888,-8.6341456 0,-0.9800199 -9.527334,1.6102153 -10.896888,8.6341456 z"
       style="color:#000000;fill:#ffffff;fill-opacity:0.8125;stroke:none;stroke-width:1px;marker:none;visibility:visible;display:inline;overflow:visible;filter:url(#filter4775);enable-background:accumulate" />
    <path
       sodipodi:nodetypes="ccc"
       id="path4643"
       d="m 21.972413,14.928174 c 1.961412,-4.05402 5.422431,-6.5251218 10.241884,-7.5623203 -0.07375,-0.073746 -8.222256,0.4118906 -10.241884,7.5623203 z"
       style="color:#000000;fill:#ffffff;fill-opacity:0.8125;stroke:none;stroke-width:1px;marker:none;visibility:visible;display:inline;overflow:visible;filter:url(#filter4779);enable-background:accumulate" />
    <path
       sodipodi:nodetypes="ccc"
       id="path4645"
       d="M 23.044238,16 C 25.519967,12.600142 28.748582,9.1912743 33.88158,8.9140454 31.414888,8.3861446 24.583102,10.180235 23.044238,16 z"
       style="color:#000000;fill:#ffffff;fill-opacity:0.8125;stroke:none;stroke-width:1px;marker:none;visibility:visible;display:inline;overflow:visible;filter:url(#filter4783);enable-background:accumulate" />
    <path
       sodipodi:nodetypes="ccc"
       id="path4647"
       d="m 24.59243,16.595458 c 1.553041,-2.572503 2.62442,-5.31894 9.705971,-5.895038 -1.665417,-0.9622159 -9.627681,1.399878 -9.705971,5.895038 z"
       style="color:#000000;fill:#ffffff;fill-opacity:0.8125;stroke:none;stroke-width:1px;marker:none;visibility:visible;display:inline;overflow:visible;filter:url(#filter4787);enable-background:accumulate" />
    <path
       sodipodi:nodetypes="ccc"
       id="path4649"
       d="m 25.604709,17.310008 c 1.475115,-1.511562 2.102728,-3.03014 9.110512,-4.942304 0,0 -6.966862,0.119091 -9.110512,4.942304 z"
       style="color:#000000;fill:#ffffff;fill-opacity:0.8125;stroke:none;stroke-width:1px;marker:none;visibility:visible;display:inline;overflow:visible;filter:url(#filter4791);enable-background:accumulate" />
  </g>
  <path
     style="color:#000000;fill:#ffffff;stroke:none;stroke-width:1px;stroke-linecap:butt;stroke-linejoin:miter;stroke-miterlimit:4;stroke-opacity:1;stroke-dasharray:none;stroke-dashoffset:0;marker:none;visibility:visible;display:inline;overflow:visible;enable-background:accumulate;filter:url(#filter4819);fill-opacity:0.9598214"
     d="m 8.7532376,27.754416 c -0.3221125,-0.306883 0.3281686,-0.474854 1.101598,-0.625231 0.6830234,-1.200805 1.3010254,-1.296245 1.9054664,-1.161144 1.051977,-1.289301 2.461228,-1.375543 3.602523,-0.684777 -1.779764,-0.588595 -2.72602,-0.0231 -3.483431,0.803869 -0.971696,-0.207019 -1.451279,0.359284 -1.875694,1.012279 -0.4944466,0.114834 -0.98853,0.230151 -1.2504624,0.655004 z"
     id="path4809"
     sodipodi:nodetypes="ccccccc" />
  <path
     style="color:#000000;fill:#ffffff;stroke:none;stroke-width:1px;stroke-linecap:butt;stroke-linejoin:miter;stroke-miterlimit:4;stroke-opacity:1;stroke-dasharray:none;stroke-dashoffset:0;marker:none;visibility:visible;display:inline;overflow:visible;enable-background:accumulate;filter:url(#filter4871)"
     d="m 11.164844,27.903281 c 0.05444,-0.590637 0.165437,-1.124723 1.310008,-0.625231 0.256996,-1.241029 0.877636,-1.148697 1.607738,-0.655004 0.353641,-0.613769 0.744278,-1.101751 1.488646,-0.387048 -1.246448,-0.641066 -1.064214,0.146551 -1.369555,0.446593 -0.933644,-0.643544 -1.447682,-0.308007 -1.667283,0.71455 -0.947533,-0.420505 -1.204906,-0.01282 -1.369554,0.50614 z"
     id="path4823"
     sodipodi:nodetypes="ccccccc" />
  <path
     style="color:#000000;fill:#ffffff;stroke:none;stroke-width:1px;stroke-linecap:butt;stroke-linejoin:miter;stroke-miterlimit:4;stroke-opacity:1;stroke-dasharray:none;stroke-dashoffset:0;marker:none;visibility:visible;display:inline;overflow:visible;enable-background:accumulate;filter:url(#filter4875)"
     d="m 18.548527,25.551216 c 0.931887,-1.276077 1.442744,-0.797859 1.905467,-0.119087 0.687928,-1.15738 1.2946,-0.364602 1.905467,0.327502 1.144239,-1.684356 1.925205,-1.261731 2.679562,-0.684777 -1.398228,-0.853058 -2.060188,-0.08632 -2.679562,0.774096 -0.65647,-0.743532 -1.314509,-1.507459 -1.816148,-0.238184 -0.431374,-0.720514 -1.010496,-0.997785 -1.994786,-0.05955 z"
     id="path4825"
     sodipodi:nodetypes="ccccccc" />
  <path
     style="color:#000000;fill:#ffffff;stroke:none;stroke-width:1px;stroke-linecap:butt;stroke-linejoin:miter;stroke-miterlimit:4;stroke-opacity:1;stroke-dasharray:none;stroke-dashoffset:0;marker:none;visibility:visible;display:inline;overflow:visible;enable-background:accumulate;filter:url(#filter4867)"
     d="m 15.630781,25.164181 c -0.171389,-0.786833 1.017347,-1.889549 2.620017,-1.399336 1.732915,-1.113019 2.043458,-0.329542 2.64979,0.05955 -0.772178,-0.553397 -1.610743,-0.730598 -2.620017,0.05955 -2.617349,-0.290807 -2.150812,0.694476 -2.64979,1.280236 z"
     id="path4827"
     sodipodi:nodetypes="ccccc" />
</svg>
