<?xml version="1.0" encoding="UTF-8" standalone="no"?>
<!-- Created with Inkscape (http://www.inkscape.org/) -->

<svg
   xmlns:dc="http://purl.org/dc/elements/1.1/"
   xmlns:cc="http://creativecommons.org/ns#"
   xmlns:rdf="http://www.w3.org/1999/02/22-rdf-syntax-ns#"
   xmlns:svg="http://www.w3.org/2000/svg"
   xmlns="http://www.w3.org/2000/svg"
   xmlns:xlink="http://www.w3.org/1999/xlink"
   xmlns:sodipodi="http://sodipodi.sourceforge.net/DTD/sodipodi-0.dtd"
   xmlns:inkscape="http://www.inkscape.org/namespaces/inkscape"
   width="48"
   height="48"
   id="svg2"
   version="1.1"
   inkscape:version="0.47 r22583"
   sodipodi:docname="valentine03.svg"
   inkscape:export-filename="valentine04.png"
   inkscape:export-xdpi="90"
   inkscape:export-ydpi="90">
  <defs
     id="defs4">
    <linearGradient
       id="linearGradient3643">
      <stop
         style="stop-color:#fff6c7;stop-opacity:1;"
         offset="0"
         id="stop3645" />
      <stop
         style="stop-color:#fffbe5;stop-opacity:1;"
         offset="1"
         id="stop3647" />
    </linearGradient>
    <linearGradient
       id="linearGradient4947">
      <stop
         id="stop4949"
         offset="0"
         style="stop-color:#1d7c14;stop-opacity:1;" />
      <stop
         id="stop4951"
         offset="1"
         style="stop-color:#39b62d;stop-opacity:1;" />
    </linearGradient>
    <linearGradient
       inkscape:collect="always"
       xlink:href="#linearGradient3801-6"
       id="linearGradient5117"
       gradientUnits="userSpaceOnUse"
       gradientTransform="matrix(0.06776374,-0.01491214,0.01491214,0.06776374,4.3876026,1010.4257)"
       x1="62.367165"
       y1="224.16"
       x2="101.23689"
       y2="175.50278" />
    <linearGradient
       inkscape:collect="always"
       xlink:href="#linearGradient3801-6"
       id="linearGradient5121"
       gradientUnits="userSpaceOnUse"
       gradientTransform="matrix(0.06776374,-0.01491214,0.01491214,0.06776374,4.3876026,1010.4257)"
       x1="87.552681"
       y1="155.61591"
       x2="112.50922"
       y2="153.31168" />
    <linearGradient
       inkscape:collect="always"
       xlink:href="#linearGradient3801-6"
       id="linearGradient5126"
       gradientUnits="userSpaceOnUse"
       gradientTransform="matrix(0.06776374,-0.01491214,0.01491214,0.06776374,4.3876026,1010.4257)"
       x1="204.33057"
       y1="145.16277"
       x2="254.22655"
       y2="95.642998" />
    <linearGradient
       inkscape:collect="always"
       xlink:href="#linearGradient3801-6"
       id="linearGradient5131"
       gradientUnits="userSpaceOnUse"
       gradientTransform="matrix(0.06776374,-0.01491214,0.01491214,0.06776374,4.3876026,1010.4257)"
       x1="125.21414"
       y1="159.43933"
       x2="192.05782"
       y2="125.55431" />
    <linearGradient
       inkscape:collect="always"
       xlink:href="#linearGradient4947"
       id="linearGradient5134"
       gradientUnits="userSpaceOnUse"
       gradientTransform="matrix(0.04145894,-0.05563679,0.05563679,0.04145894,-1.5555439,1026.4379)"
       x1="228.59927"
       y1="285.87555"
       x2="301.24478"
       y2="269.25513" />
    <linearGradient
       inkscape:collect="always"
       xlink:href="#linearGradient4947"
       id="linearGradient5137"
       gradientUnits="userSpaceOnUse"
       gradientTransform="matrix(0.06928725,0.00368415,-0.00368415,0.06928725,8.9783678,1007.3307)"
       x1="82.486687"
       y1="335.22058"
       x2="152.04633"
       y2="273.04776" />
    <linearGradient
       inkscape:collect="always"
       xlink:href="#linearGradient4947"
       id="linearGradient5142"
       gradientUnits="userSpaceOnUse"
       gradientTransform="matrix(0.06776374,-0.01491214,0.01491214,0.06776374,4.3876026,1010.4257)"
       x1="183.73227"
       y1="290.82675"
       x2="235.21564"
       y2="272.97516" />
    <linearGradient
       inkscape:collect="always"
       xlink:href="#linearGradient4947"
       id="linearGradient5145"
       gradientUnits="userSpaceOnUse"
       gradientTransform="matrix(0.06776374,-0.01491214,0.01491214,0.06776374,4.3876026,1010.4257)"
       x1="185.28723"
       y1="320.96545"
       x2="217.08173"
       y2="313.67554" />
    <linearGradient
       inkscape:collect="always"
       xlink:href="#linearGradient3801-6"
       id="linearGradient5149"
       gradientUnits="userSpaceOnUse"
       gradientTransform="matrix(0.06776374,-0.01491214,0.01491214,0.06776374,4.3876026,1010.4257)"
       x1="143.85878"
       y1="28.319004"
       x2="161.21739"
       y2="23.23637" />
    <linearGradient
       inkscape:collect="always"
       xlink:href="#linearGradient3801-6"
       id="linearGradient5153"
       gradientUnits="userSpaceOnUse"
       gradientTransform="matrix(0.06776374,-0.01491214,0.01491214,0.06776374,4.3876026,1010.4257)"
       x1="114.49643"
       y1="46.517197"
       x2="150.19962"
       y2="41.592621" />
    <linearGradient
       inkscape:collect="always"
       xlink:href="#linearGradient3801-6"
       id="linearGradient5157"
       gradientUnits="userSpaceOnUse"
       gradientTransform="matrix(0.06776374,-0.01491214,0.01491214,0.06776374,4.3876026,1010.4257)"
       x1="200.26781"
       y1="38.821346"
       x2="213.25546"
       y2="54.826221" />
    <linearGradient
       inkscape:collect="always"
       xlink:href="#linearGradient3801-6"
       id="linearGradient5160"
       gradientUnits="userSpaceOnUse"
       gradientTransform="matrix(0.06776374,-0.01491214,0.01491214,0.06776374,4.3876026,1010.4257)"
       x1="49.60104"
       y1="69.70961"
       x2="78.785561"
       y2="124.49554" />
    <linearGradient
       inkscape:collect="always"
       xlink:href="#linearGradient4947"
       id="linearGradient5178"
       x1="19"
       y1="31.929979"
       x2="19"
       y2="31.929979"
       gradientUnits="userSpaceOnUse"
       gradientTransform="translate(0,1003.7435)" />
    <linearGradient
       inkscape:collect="always"
       xlink:href="#linearGradient4947"
       id="linearGradient5180"
       x1="22.90625"
       y1="30.6875"
       x2="24.625"
       y2="32.5"
       gradientUnits="userSpaceOnUse"
       gradientTransform="translate(0,1003.7435)" />
    <linearGradient
       inkscape:collect="always"
       xlink:href="#linearGradient4947"
       id="linearGradient5182"
       x1="28.90299"
       y1="28.918301"
       x2="34.596457"
       y2="30.543301"
       gradientUnits="userSpaceOnUse" />
    <linearGradient
       inkscape:collect="always"
       xlink:href="#linearGradient4947"
       id="linearGradient5184"
       x1="33.28125"
       y1="28"
       x2="34.75"
       y2="29.9375"
       gradientUnits="userSpaceOnUse" />
    <linearGradient
       inkscape:collect="always"
       xlink:href="#linearGradient4947"
       id="linearGradient5186"
       x1="30"
       y1="26.28125"
       x2="31.875"
       y2="26.28125"
       gradientUnits="userSpaceOnUse" />
    <linearGradient
       inkscape:collect="always"
       xlink:href="#linearGradient4947"
       id="linearGradient5198"
       x1="14.813915"
       y1="1031.7377"
       x2="19.927635"
       y2="1035.3411"
       gradientUnits="userSpaceOnUse" />
    <linearGradient
       inkscape:collect="always"
       xlink:href="#linearGradient4947"
       id="linearGradient5200"
       x1="13.655411"
       y1="1036.855"
       x2="19.375317"
       y2="1038.3829"
       gradientUnits="userSpaceOnUse"
       gradientTransform="translate(0.47213115,-0.3147541)" />
    <linearGradient
       inkscape:collect="always"
       xlink:href="#linearGradient4947"
       id="linearGradient5202"
       x1="33.174805"
       y1="1026.3888"
       x2="35.040977"
       y2="1028.8883"
       gradientUnits="userSpaceOnUse" />
    <linearGradient
       inkscape:collect="always"
       xlink:href="#linearGradient4947"
       id="linearGradient5204"
       x1="34.762806"
       y1="1029.0944"
       x2="37.055885"
       y2="1033.3892"
       gradientUnits="userSpaceOnUse" />
    <filter
       color-interpolation-filters="sRGB"
       inkscape:collect="always"
       id="filter3860"
       x="-0.25210717"
       width="1.5042143"
       y="-0.1420967"
       height="1.2841934">
      <feGaussianBlur
         inkscape:collect="always"
         stdDeviation="0.14391317"
         id="feGaussianBlur3862" />
    </filter>
    <filter
       color-interpolation-filters="sRGB"
       inkscape:collect="always"
       id="filter3856"
       x="-0.13955931"
       width="1.2791187"
       y="-0.24422884"
       height="1.4884577">
      <feGaussianBlur
         inkscape:collect="always"
         stdDeviation="0.14391317"
         id="feGaussianBlur3858" />
    </filter>
    <filter
       color-interpolation-filters="sRGB"
       inkscape:collect="always"
       id="filter3848"
       x="-0.13858476"
       width="1.2771695"
       y="-0.12796283"
       height="1.2559257">
      <feGaussianBlur
         inkscape:collect="always"
         stdDeviation="0.14391317"
         id="feGaussianBlur3850" />
    </filter>
    <filter
       color-interpolation-filters="sRGB"
       inkscape:collect="always"
       id="filter3852"
       x="-0.13025525"
       width="1.2605104"
       y="-0.11664655"
       height="1.2332931">
      <feGaussianBlur
         inkscape:collect="always"
         stdDeviation="0.14391317"
         id="feGaussianBlur3854" />
    </filter>
    <filter
       color-interpolation-filters="sRGB"
       inkscape:collect="always"
       id="filter3844"
       x="-0.17701836"
       width="1.3540367"
       y="-0.095308758"
       height="1.1906174">
      <feGaussianBlur
         inkscape:collect="always"
         stdDeviation="0.14391317"
         id="feGaussianBlur3846" />
    </filter>
    <linearGradient
       id="linearGradient3801-6">
      <stop
         style="stop-color:#bd0000;stop-opacity:1;"
         offset="0"
         id="stop3803-4" />
      <stop
         style="stop-color:#ff0909;stop-opacity:1;"
         offset="1"
         id="stop3805-2" />
    </linearGradient>
    <linearGradient
       inkscape:collect="always"
       xlink:href="#linearGradient3643"
       id="linearGradient5630"
       gradientUnits="userSpaceOnUse"
       gradientTransform="matrix(1.4628614,0,-0.16338453,0.86389312,172.63191,137.15438)"
       x1="13.910298"
       y1="1052.0283"
       x2="2.336931"
       y2="1035.4473" />
    <filter
       inkscape:collect="always"
       id="filter5656">
      <feGaussianBlur
         inkscape:collect="always"
         stdDeviation="0.17955837"
         id="feGaussianBlur5658" />
    </filter>
    <filter
       inkscape:collect="always"
       id="filter5660"
       x="-0.40027262"
       width="1.8005452"
       y="-0.11121034"
       height="1.2224207">
      <feGaussianBlur
         inkscape:collect="always"
         stdDeviation="0.17955837"
         id="feGaussianBlur5662" />
    </filter>
    <filter
       inkscape:collect="always"
       id="filter5664"
       x="-0.19152893"
       width="1.3830579"
       y="-0.08408587"
       height="1.1681717">
      <feGaussianBlur
         inkscape:collect="always"
         stdDeviation="0.17955837"
         id="feGaussianBlur5666" />
    </filter>
    <linearGradient
       inkscape:collect="always"
       xlink:href="#linearGradient3801-6"
       id="linearGradient2926"
       gradientUnits="userSpaceOnUse"
       gradientTransform="matrix(0.55186165,-0.31772631,0.28446004,0.67119534,16.0819,1025.5038)"
       x1="12.1875"
       y1="24.875"
       x2="9.9375"
       y2="29.4375" />
    <linearGradient
       inkscape:collect="always"
       xlink:href="#linearGradient3801-6"
       id="linearGradient2928"
       gradientUnits="userSpaceOnUse"
       gradientTransform="matrix(0.55186165,-0.31772631,0.28446004,0.67119534,16.0819,1025.5038)"
       x1="28.875"
       y1="29.0625"
       x2="33.6875"
       y2="33.8125" />
    <linearGradient
       inkscape:collect="always"
       xlink:href="#linearGradient3801-6"
       id="linearGradient2930"
       gradientUnits="userSpaceOnUse"
       gradientTransform="matrix(0.55186165,-0.31772631,0.28446004,0.67119534,16.0819,1025.5038)"
       x1="23.75"
       y1="44.386967"
       x2="23.75"
       y2="36.912231" />
    <linearGradient
       inkscape:collect="always"
       xlink:href="#linearGradient3801-6"
       id="linearGradient2932"
       gradientUnits="userSpaceOnUse"
       gradientTransform="matrix(0.55186165,-0.31772631,0.28446004,0.67119534,16.0819,1025.5038)"
       x1="32.732388"
       y1="38.8125"
       x2="29.508728"
       y2="28.9375" />
    <linearGradient
       inkscape:collect="always"
       xlink:href="#linearGradient3801-6"
       id="linearGradient2934"
       gradientUnits="userSpaceOnUse"
       gradientTransform="matrix(0.55186165,-0.31772631,0.28446004,0.67119534,16.0819,1025.5038)"
       x1="14.09375"
       y1="42.5"
       x2="14.09375"
       y2="33.625" />
    <linearGradient
       inkscape:collect="always"
       xlink:href="#linearGradient3801-6"
       id="linearGradient2936"
       gradientUnits="userSpaceOnUse"
       gradientTransform="matrix(0.55186165,-0.31772631,0.28446004,0.67119534,16.0819,1025.5038)"
       x1="9.6634007"
       y1="36.9375"
       x2="11.1442"
       y2="26.5" />
    <linearGradient
       inkscape:collect="always"
       xlink:href="#linearGradient3801-6"
       id="linearGradient2938"
       gradientUnits="userSpaceOnUse"
       gradientTransform="matrix(0.55186165,-0.31772631,0.28446004,0.67119534,-269.61901,351.3806)"
       x1="21.25"
       y1="1042.5"
       x2="17.5"
       y2="1034.4375" />
    <filter
       inkscape:collect="always"
       id="filter3700"
       x="-0.042227734"
       width="1.0844555"
       y="-0.19202078"
       height="1.3840416">
      <feGaussianBlur
         inkscape:collect="always"
         stdDeviation="0.53444476"
         id="feGaussianBlur3702" />
    </filter>
    <linearGradient
       id="linearGradient3635">
      <stop
         id="stop3637"
         offset="0"
         style="stop-color:#003e8c;stop-opacity:1;" />
      <stop
         id="stop3639"
         offset="1"
         style="stop-color:#0062db;stop-opacity:1;" />
    </linearGradient>
    <linearGradient
       inkscape:collect="always"
       xlink:href="#linearGradient3635"
       id="linearGradient3038"
       x1="7"
       y1="1035.2255"
       x2="11.955178"
       y2="1038.0582"
       gradientUnits="userSpaceOnUse" />
    <linearGradient
       inkscape:collect="always"
       xlink:href="#linearGradient3635"
       id="linearGradient3040"
       x1="9.6765366"
       y1="1038.7372"
       x2="18.820195"
       y2="1041.6487"
       gradientUnits="userSpaceOnUse" />
    <linearGradient
       inkscape:collect="always"
       xlink:href="#linearGradient3635"
       id="linearGradient3042"
       x1="15.53125"
       y1="1040.4614"
       x2="21.968753"
       y2="1044.4746"
       gradientUnits="userSpaceOnUse" />
  </defs>
  <sodipodi:namedview
     id="base"
     pagecolor="#ffffff"
     bordercolor="#666666"
     borderopacity="1.0"
     inkscape:pageopacity="0.0"
     inkscape:pageshadow="2"
     inkscape:zoom="1"
     inkscape:cx="24"
     inkscape:cy="24"
     inkscape:document-units="px"
     inkscape:current-layer="layer1"
     showgrid="false"
     inkscape:window-width="1314"
     inkscape:window-height="833"
     inkscape:window-x="246"
     inkscape:window-y="87"
     inkscape:window-maximized="0">
    <inkscape:grid
       type="xygrid"
       id="grid2837"
       empspacing="5"
       visible="true"
       enabled="true"
       snapvisiblegridlinesonly="true" />
  </sodipodi:namedview>
  <metadata
     id="metadata7">
    <rdf:RDF>
      <cc:Work
         rdf:about="">
        <dc:format>image/svg+xml</dc:format>
        <dc:type
           rdf:resource="http://purl.org/dc/dcmitype/StillImage" />
        <dc:title />
      </cc:Work>
    </rdf:RDF>
  </metadata>
  <g
     inkscape:label="Layer 1"
     inkscape:groupmode="layer"
     id="layer1"
     transform="translate(0,-1004.3622)">
    <path
       style="fill:#000000;fill-opacity:0.76859502000000002;fill-rule:evenodd;stroke:none;filter:url(#filter3700)"
       d="m 6.6875,38.78125 -2.53125,3.09375 20.954816,0.21875 -0.517316,-1 c 1.017093,0.13151 2.242666,0.21875 3.5625,0.21875 0.09422,0 0.188027,7.75e-4 0.28125,0 1.852727,0.823397 1.522406,2.269558 2.247746,3.46875 1.448959,1.345574 2.301966,0.271182 3.005635,0.3125 l -3.097131,-3.875 c 2.319246,-0.18238 3.9375,-0.615376 3.9375,-1.125 0,-0.673606 -2.855441,-1.21875 -6.375,-1.21875 -2.567721,0 -4.740806,0.299976 -5.75,0.71875 L 6.6875,38.78125 z"
       transform="translate(0,1004.3622)"
       id="path5668"
       sodipodi:nodetypes="ccccsccccsscc" />
    <path
       style="fill:url(#linearGradient5630);fill-opacity:1;stroke:none"
       d="m 6.1653761,1035.4194 20.9999999,0 c -0.201475,4.4554 -1.333302,7.05 -1.999994,10.5749 l -20.9999998,0 c 0.9361033,-3.3903 1.9271434,-6.7531 1.9999939,-10.5749 z"
       id="rect5596"
       sodipodi:nodetypes="ccccc" />
    <path
       id="path4010"
       d="m 10.237674,1011.9803 c 0.02137,0.2901 -0.06827,0.015 0.12626,-0.2246 0.257016,0.066 0.06911,0.4805 0.233632,0.5221 0.381756,0.1806 0.695933,0.4664 1.047446,0.6942 0.371522,0.2193 0.729584,0.4967 0.922408,0.8934 0.521853,1.0513 0.818685,2.1977 1.013457,3.3506 0.165254,0.5118 0.396096,1.009 0.452044,1.5496 0.121805,0.7557 0.200286,1.5395 0.03286,2.2942 -0.07492,0.2938 -0.297443,0.5552 -0.601335,0.6214 -0.337503,0.074 -0.68163,-0.037 -0.999223,-0.1448 -0.560478,-0.2103 -1.092438,-0.4987 -1.578535,-0.8474 -0.320193,-0.2369 -0.57042,-0.5566 -0.741502,-0.9147 -0.3657655,-0.6256 -0.7563689,-1.2379 -1.0791572,-1.8874 -0.1691226,-0.2523 -0.7756965,-0.5484 -0.8803967,-0.8521 -0.1768613,-0.3838 0.052403,-0.6141 0.038299,-1.0309 0.01302,-0.4143 -0.063925,-0.8374 0.062573,-1.2418 0.1313321,-0.4254 0.2472409,-0.8709 0.5215223,-1.2313 0.2428362,-0.3825 0.4930399,-0.4978 0.7586261,-0.8623 0.1874516,-0.1129 0.5376615,-0.4925 0.6710225,-0.6882 z"
       style="fill:url(#linearGradient5160);fill-opacity:1;fill-rule:nonzero;stroke:none"
       sodipodi:nodetypes="ccccccccccccccccccc" />
    <path
       d="m 19.870388,1008.555 c 0.06373,0.2561 0.211387,0.3489 0.07327,0.076 l 0.151716,-0.082 c 0.143429,0.287 0.271589,0.5733 0.313603,0.8957 0.09802,0.4506 0.204991,0.9041 0.197174,1.3682 -0.0129,0.7472 -0.08259,1.4927 -0.218339,2.228 -0.166168,0.8539 -0.356342,1.8408 -0.825367,2.5725 -0.461909,-0.2549 -0.205483,-1.338 -0.416444,-1.7815 -0.124279,-0.6455 -0.243863,-1.2886 -0.472877,-1.907 -0.143595,-0.3227 -0.315138,-0.6274 -0.55426,-0.8905 -0.331968,-0.4028 0.08459,-0.5559 0.414725,-0.806 0.390594,-0.2953 0.847713,-0.5683 1.10082,-0.9998 0.07848,-0.2048 0.254966,-0.3628 0.194193,-0.5797 l 0.04162,-0.095 z"
       id="path3998"
       style="fill:url(#linearGradient5157);fill-opacity:1;fill-rule:nonzero;stroke:none"
       sodipodi:nodetypes="cccccccccccccc" />
    <path
       d="m 12.08821,1010.4729 c 0.09453,-0.1916 0.375077,-0.2485 0.568094,-0.3583 0.171758,-0.1269 0.360266,-0.221 0.555843,-0.304 0.246125,-0.083 0.456164,-0.2379 0.665381,-0.3868 0.170434,-0.1276 0.319242,-0.2639 0.520119,-0.2985 0.193729,0.1797 0.22236,0.4726 0.278048,0.7248 0.0595,0.3463 0.07941,0.6986 0.120723,1.0477 0.254812,1.4445 0.62586,2.8827 1.20629,4.2329 0.449129,1.0771 1.159966,2.0104 1.664573,3.0605 0.449764,0.912 -0.373443,0.2928 -0.761887,0.018 -0.324261,-0.2197 -0.624779,-0.4704 -0.936324,-0.7072 -0.191716,-0.1831 -0.420838,-0.1692 -0.661154,-0.2071 -0.520642,-0.047 -0.621508,-0.1647 -0.776946,-0.6941 -0.39926,-1.3496 -0.719778,-2.7256 -1.312364,-4.0084 -0.221752,-0.5031 -0.555283,-0.9461 -0.79485,-1.4387 -0.104758,-0.2227 -0.187118,-0.4547 -0.281744,-0.6813 l 0.155684,-0.075 c 0.09369,0.228 0.0024,0.1616 -0.03714,0.039 l -0.172214,0.038 z"
       id="path3994"
       style="fill:url(#linearGradient5153);fill-opacity:1;fill-rule:nonzero;stroke:none"
       sodipodi:nodetypes="ccccccccccccccccccc" />
    <path
       d="m 14.205378,1009.8141 c 0.192946,-0.085 0.206562,-0.186 0.36714,-0.3371 0.225195,-0.2312 0.460792,-0.4509 0.686491,-0.6818 0.162975,-0.1833 0.327849,-0.4924 0.513125,-0.2 0.02742,0.2664 0.0652,0.5314 0.08543,0.7986 0.07084,0.9979 0.05995,2.0005 0.09949,3.0003 0.06724,1.2816 0.26082,2.5577 0.608036,3.7936 0.171448,0.4355 -0.0029,0.5021 -0.404229,0.5478 -0.465796,0.1025 -0.558765,-0.055 -0.703668,-0.4732 -0.199109,-0.6143 -0.34849,-1.2457 -0.472205,-1.8792 -0.08056,-0.6049 -0.108265,-1.2147 -0.171175,-1.8218 -0.05572,-0.4801 -0.118373,-0.9644 -0.266088,-1.426 -0.08412,-0.308 -0.181697,-0.6115 -0.27208,-0.9175 -0.04325,-0.1395 -0.100653,-0.2735 -0.157327,-0.4075 l 0.154946,-0.075 c 0.06034,0.1405 0.212264,0.1286 -0.02425,0.2286 l -0.04363,-0.1496 z"
       id="path3996"
       style="fill:url(#linearGradient5149);fill-opacity:1;fill-rule:nonzero;stroke:none"
       sodipodi:nodetypes="ccccccccccccccccc" />
    <path
       style="color:#000000;fill:url(#linearGradient5178);stroke:none;stroke-width:1px;marker:none;visibility:visible;display:inline;overflow:visible;enable-background:accumulate"
       d="m 22.5,1035.181 c -1.290811,-0.2883 -2.363474,0.2961 -3.5,0.625 l 0.1875,0.4375 c 1.281822,-0.4659 2.556256,-0.9687 4,-0.625 L 22.5,1035.181 z"
       id="path5176"
       sodipodi:nodetypes="ccccc" />
    <path
       style="color:#000000;fill:url(#linearGradient5180);stroke:none;stroke-width:1px;marker:none;visibility:visible;display:inline;overflow:visible;enable-background:accumulate"
       d="m 27.25,1037.9935 c -3.716934,-3.4214 -5.925379,-3.5744 -8.75,-5.0625 l -0.3125,0.5625 c 3.308427,1.6956 6.762519,3.0999 9.4375,6.0625 l -0.375,-1.5625 z"
       id="path5166"
       sodipodi:nodetypes="ccccc" />
    <path
       style="color:#000000;fill:url(#linearGradient5198);stroke:none;stroke-width:1px;marker:none;visibility:visible;display:inline;overflow:visible;enable-background:accumulate"
       d="m 14.813915,1031.775 c 2.006603,2.5106 3.279136,4.7849 5.106953,2.8265 0.154223,-3.2193 -2.351158,-2.8835 -5.106953,-2.8265 z"
       id="path5188"
       sodipodi:nodetypes="ccc" />
    <path
       style="color:#000000;fill:url(#linearGradient5182);stroke:none;stroke-width:1px;stroke-linecap:butt;stroke-linejoin:miter;stroke-miterlimit:4;stroke-opacity:1;stroke-dasharray:none;stroke-dashoffset:0;marker:none;visibility:visible;display:inline;overflow:visible;enable-background:accumulate"
       d="m 28.902991,36.863068 c 0.744178,-5.132046 3.149975,-9.423889 5.480076,-13.87697 l 0.21339,0.424936 c -2.064551,3.999752 -4.385853,8.597908 -5.163136,14.689471 l -0.53033,-1.237437 z"
       id="path5164"
       transform="translate(0,1004.3622)"
       sodipodi:nodetypes="ccccc" />
    <path
       style="fill:url(#linearGradient5145);fill-opacity:1;fill-rule:nonzero;stroke:none"
       d="m 19.698691,1026.7682 c 0.106779,0.2115 0.242087,0.462 0.393963,0.6416 0.767408,1.0165 1.313511,2.1626 1.801455,3.3342 0.574272,0.3275 10.041665,17.8211 8.822859,18.1761 0.631502,0.032 1.448759,0.6335 2.556787,0.3001 0.293725,-0.36 -9.259762,-18.2943 -9.370046,-18.5996 -0.510579,-1.0321 -0.881742,-2.1239 -1.263237,-3.2078 0,0 -2.800563,-0.4354 -2.890326,-0.5882 l -0.05138,-0.059 -7.5e-5,0 0,0 0,0 0,0 0,0 z"
       id="path1353"
       sodipodi:nodetypes="cccccccccccccc" />
    <path
       d="m 22.154876,1023.8316 c 0.242751,0.077 0.392827,0.3167 0.563639,0.4979 0.281312,0.2932 0.574501,0.5739 0.86611,0.8568 0.272112,0.2686 0.474652,0.5879 0.624556,0.937 0.09774,0.3229 0.279454,0.6022 0.471855,0.875 0.257125,0.3066 0.03579,0.469 -0.288308,0.5116 -0.839219,0.025 -1.678416,-0.032 -2.517782,-0.011 -0.289376,0.032 -0.564505,-0.05 -0.844167,-0.107 -0.354435,-0.026 -0.783482,6e-4 -1.103205,-0.1536 -0.325392,-0.2143 -0.438114,-0.7391 -0.571906,-1.1639 -0.10526,-0.3968 -0.334385,-0.7032 0.117326,-0.8858 0.481974,-0.1972 0.916064,-0.4851 1.390741,-0.7022 0.423096,-0.2483 0.967804,-0.3334 1.326626,-0.6821 l 0.131597,0.1126 -0.167082,-0.086 z"
       id="path1351"
       style="fill:url(#linearGradient5142);fill-opacity:1;fill-rule:nonzero;stroke:none"
       sodipodi:nodetypes="ccccccccccccccc" />
    <path
       sodipodi:nodetypes="ccccccccccccccccc"
       d="m 15.905895,1025.7822 0.03129,-0.047 c 0.285986,0.016 0.571992,0.03 0.857964,0.045 0.334495,0.01 0.667864,-0.017 1.002229,-0.018 0.314855,-0.01 0.622318,0.053 0.934799,0.078 0.370812,0.063 0.18351,0.3207 0.04368,0.5484 -0.162916,0.2642 -0.314515,0.5372 -0.502907,0.7842 -0.212609,0.2972 -0.436499,0.5873 -0.668883,0.8694 -0.297233,0.3536 -0.623839,0.6761 -0.949025,1.0034 -0.463676,0.5205 -0.963734,1.0102 -1.602726,1.3107 -0.822181,0.4121 -1.693044,0.7236 -2.509975,1.1475 -0.718387,0.3605 -1.389881,0.7933 -2.085445,1.19 -0.6652528,0.2334 0.724322,-1.1868 1.025975,-1.1986 0.779428,-0.6062 1.534025,-1.2651 2.108399,-2.0746 0.578111,-0.8261 1.100509,-1.6877 1.591168,-2.5685 0.201793,-0.3437 0.441216,-0.6944 0.547346,-1.079 l 0.17611,0.01 z"
       id="path1347"
       style="fill:url(#linearGradient5137);fill-opacity:1;fill-rule:nonzero;stroke:none" />
    <path
       d="m 20.54574,1024.952 0.284227,-0.1668 c -0.129631,0.2459 -0.399537,0.6365 -0.419564,0.1299 -0.01098,-0.4522 0.01973,-0.9465 -0.362398,-1.2513 -0.281836,-0.3147 0.0097,-0.5105 0.298348,-0.6991 0.22176,-0.046 0.437577,-0.011 0.659583,0.054 0.533506,0.075 1.075136,0.029 1.612377,0.039 0.49541,-0.023 0.9864,-0.086 1.47682,-0.1561 0.390783,-0.034 0.778768,-0.1072 1.168482,-0.1517 0.401434,-0.06 0.801722,-0.1288 1.20604,-0.1699 0.346284,-0.074 0.702008,-0.1225 1.026279,-0.273 0.366047,-0.1583 0.736356,-0.3183 1.138273,-0.3539 0.271614,-0.019 0.538727,0.01 0.773014,0.1587 0.348828,0.2736 0.192037,0.4625 -0.22372,0.4962 -0.603072,0.1493 -1.208781,0.2832 -1.823606,0.3748 -0.668635,0.1284 -1.277484,0.4706 -1.951872,0.583 -0.531806,0.1053 -1.065331,0.2043 -1.604185,0.2667 -0.564406,0.072 -1.123356,0.1824 -1.673242,0.3284 -0.328642,0.093 -0.68565,0.153 -0.957758,0.3722 -0.09968,0.086 -0.377669,0.3047 -0.38987,0.2411 0,0 -0.147976,0.089 -0.237964,0.177 z"
       id="path1349"
       style="fill:url(#linearGradient5134);fill-opacity:1;fill-rule:nonzero;stroke:none"
       sodipodi:nodetypes="ccccccccccccccccccscc" />
    <path
       id="path3992"
       d="m 10.362602,1011.8448 c 0.01362,-0.3235 -0.125269,-0.6297 -0.140685,-0.9476 0.126153,-0.31 0.560143,-0.1776 0.821272,-0.276 0.565992,-0.06 1.139013,0.05 1.702255,-0.058 0.64054,-0.031 1.277013,-0.1141 1.901954,-0.2603 0.797013,-0.1478 1.57798,-0.422 2.393912,-0.4378 0.492739,0.039 0.996701,0.1363 1.4378,0.3674 0.352155,0.2128 0.658813,0.5034 0.913882,0.8229 0.241052,0.4069 0.206045,0.9038 0.294967,1.3553 0.111105,0.9093 0.331701,1.8037 0.668593,2.6561 0.172,0.5356 0.419088,1.0409 0.721162,1.515 0.378975,0.6447 0.733777,1.304 1.164449,1.9168 0.262544,0.364 0.452571,0.7701 0.67181,1.1591 0.315734,0.4479 0.48241,0.9993 0.520556,1.5428 0.03874,0.6151 -0.292348,1.1663 -0.61501,1.6618 -0.34415,0.4226 -0.61772,0.8926 -0.89475,1.3599 -0.25389,0.4534 -0.700493,0.7519 -1.183517,0.9188 -0.712481,0.2657 -1.405684,0.5973 -2.159588,0.7335 -0.61493,0.1845 -1.28372,0.4288 -1.920489,0.1946 -0.525625,-0.1447 -0.844564,-0.6037 -1.210535,-0.9684 -0.50259,-0.4175 -1.085348,-0.767 -1.428236,-1.3435 -0.404111,-0.6452 -0.70631,-1.3499 -0.986191,-2.0562 -0.154863,-0.4456 -0.351601,-0.8804 -0.401943,-1.3542 -0.192273,-1.0297 -0.299022,-2.0857 -0.669094,-3.0726 -0.04102,-0.3215 -0.0444,-0.621 -0.09114,-0.9261 -0.119846,-0.7037 -0.338869,-1.3708 -0.497487,-2.068 -0.05574,-0.6576 -0.2642,-1.3099 -0.67404,-1.8342 -0.175465,-0.2599 -0.213455,-0.5356 -0.304157,-0.8388 0.272302,-0.1958 0.08215,0.3249 0.257891,0.4465 0.305778,0.4722 -0.03223,-0.434 -0.179494,-0.2345 -0.03803,0.01 -0.07607,0.017 -0.114099,0.025 z"
       style="fill:url(#linearGradient5131);fill-opacity:1;fill-rule:nonzero;stroke:none"
       sodipodi:nodetypes="ccccccccccccccccccccccccccccccc" />
    <path
       id="path4003"
       d="m 20.074111,1008.2901 c 0.238668,-0.1416 0.419574,0.082 0.541068,0.27 0.279996,0.4383 0.402165,0.9527 0.595941,1.4311 0.239725,0.6318 0.345381,1.3146 0.273757,1.9883 -0.03343,0.5371 -0.16776,1.0634 -0.169025,1.6034 -0.01178,0.6696 -0.04375,1.4008 0.360484,1.9741 0.469414,0.6286 0.839369,1.3222 1.193377,2.0202 0.226191,0.4042 0.409146,0.8295 0.571304,1.2623 0.235146,0.4855 0.587531,0.9237 0.679976,1.4689 0.09342,0.3175 0.02656,0.6498 -0.130658,0.9346 -0.160241,0.278 -0.280056,0.5739 -0.378169,0.879 -0.152205,0.2999 -0.198165,0.3764 -0.411423,0.6416 -0.162378,0.2501 -0.654196,0.4398 -0.60904,-0.024 -0.02442,-0.3626 -0.135676,-0.4827 0.05251,-0.8156 0.145626,-0.2773 0.32429,-0.5392 0.470612,-0.8142 0.09685,-0.2048 0.06909,-0.4755 -0.146798,-0.5915 -0.630588,-0.4926 -1.296488,-0.97 -1.751704,-1.6416 -0.446666,-0.6698 -0.873093,-1.3634 -1.163878,-2.1169 -0.196582,-0.5313 -0.41262,-1.0599 -0.546043,-1.611 -0.07811,-0.425 -0.05479,-0.8594 -0.06619,-1.2895 0.04639,-1.276 -0.06043,-2.5519 -0.01634,-3.8276 0.03365,-0.4889 0.215778,-0.9501 0.344453,-1.4189 0.03874,-0.1696 0.06273,-0.2491 0.305793,-0.3229 z"
       style="fill:url(#linearGradient5126);fill-opacity:1;fill-rule:nonzero;stroke:none"
       sodipodi:nodetypes="ccccccccccccccccccccccc" />
    <path
       id="path4014"
       d="m 10.683471,1011.6983 c -0.09537,0.2834 0.199591,0.2211 0.176114,0.3878 0.181258,0.6846 0.393664,1.3637 0.711028,1.9989 0.578805,1.2057 1.2039,2.3885 1.831583,3.5693 0.691332,1.3083 1.239688,2.6849 1.892796,4.0116 0.575742,1.1357 0.838642,2.347 1.474388,3.4492 0.11242,0.3071 0.158967,0.5852 -0.01702,0.7161 -0.327189,0.082 -0.747111,-0.078 -1.085257,-0.067 -0.325573,-0.034 -0.528245,-0.3203 -0.785783,-0.487 -0.428395,-0.3584 -0.840453,-0.7366 -1.287381,-1.0721 -0.35503,-0.3005 -0.560901,-0.7365 -0.641942,-1.1886 -0.233669,-1.0639 -0.438372,-2.1356 -0.721898,-3.1879 -0.201729,-0.6536 -0.267122,-1.3425 -0.30167,-2.0229 2.91e-4,-0.7044 -0.113352,-1.4042 -0.235864,-2.0963 -0.0949,-0.521 -0.253709,-1.0308 -0.512707,-1.4949 -0.18595,-0.3141 -0.322622,-0.7036 -0.676268,-0.8685 -0.255001,-0.1268 -0.5054614,-0.2633 -0.7376896,-0.4261 -0.3128191,-0.2173 -0.4754562,-0.4607 -0.023827,-0.7096 0.2099861,-0.1907 0.5535676,-0.2787 0.7559656,-0.476 0.06356,0 0.122931,-0.027 0.184354,-0.041 z"
       style="fill:url(#linearGradient5121);fill-opacity:1;fill-rule:nonzero;stroke:none"
       sodipodi:nodetypes="cccccccccccccccccccc" />
    <path
       id="path4006"
       d="m 8.2904175,1017.0731 c 0.4954818,0.2822 1.1005968,0.3466 1.5409694,0.7281 0.3078101,0.2612 0.6151911,0.523 0.9514211,0.7479 0.91596,0.6213 1.805359,1.2814 2.654915,1.9911 0.631213,0.4829 1.155261,1.0874 1.648449,1.7059 0.272015,0.4263 0.487134,0.8863 0.742604,1.3228 0.367497,0.6141 0.547408,1.3129 0.816943,1.9698 0.08728,0.2813 0.51169,0.1922 0.46601,0.4967 -0.163081,0.2243 -0.602089,0.4443 -0.833082,0.3926 -0.438248,-0.1363 -0.836733,-0.2631 -1.302571,-0.2874 -0.557118,-0.058 -1.127789,-0.2598 -1.684903,-0.3176 -0.569158,-0.1083 -1.112904,-0.3527 -1.583615,-0.6874 -0.517788,-0.5005 -0.7405,-1.2104 -1.177874,-1.7719 -0.22713,-0.333 -0.471082,-0.6543 -0.6936688,-0.99 -0.4297853,-0.7794 -1.0204133,-1.4595 -1.4211532,-2.2563 -0.2592366,-0.472 -0.4087187,-0.9927 -0.5700304,-1.5036 -0.063557,-0.3126 0.011012,-0.6308 0.130655,-0.9195 0.1117576,-0.2338 -0.079205,-1.6337 -0.086856,-1.8695 0.1909257,-0.193 0.2573847,-0.3059 0.3302776,-0.4918 0.08269,-0.1392 0.169782,0.5769 0.1697902,0.6845 0.1057274,0.3686 0.056393,0.9107 -0.2887732,1.1314 0.2258405,0.2579 -0.061249,-0.067 -0.3268415,-0.3799 -0.1566214,-0.2845 -0.1443763,-0.6575 0.096034,-0.9012 0.085987,-0.1203 0.1751997,1.0712 0.4212135,1.2049 l 8.59e-5,4e-4 z"
       style="fill:url(#linearGradient5117);fill-opacity:1;fill-rule:nonzero;stroke:none"
       sodipodi:nodetypes="ccccccccccccccccccccccccc" />
    <path
       style="color:#000000;fill:url(#linearGradient5184);stroke:none;stroke-width:1px;stroke-linecap:butt;stroke-linejoin:miter;stroke-miterlimit:4;stroke-opacity:1;stroke-dasharray:none;stroke-dashoffset:0;marker:none;visibility:visible;display:inline;overflow:visible;enable-background:accumulate"
       d="m 30.5,31.875 0.5625,-1.1875 C 32.75126,29.284105 34.352898,28.403443 35.875,28 l 0.1875,0.4375 C 34.103685,28.746147 32.294902,30.25505 30.5,31.875 z"
       id="path5172"
       sodipodi:nodetypes="ccccc"
       transform="translate(0,1004.3622)" />
    <path
       style="color:#000000;fill:url(#linearGradient5186);stroke:none;stroke-width:1px;stroke-linecap:butt;stroke-linejoin:miter;stroke-miterlimit:4;stroke-opacity:1;stroke-dasharray:none;stroke-dashoffset:0;marker:none;visibility:visible;display:inline;overflow:visible;enable-background:accumulate"
       d="m 30,24.125 0.375,-0.0625 c 0.60482,1.214407 1.363782,2.223291 1.5,4.0625 L 31.6875,28.5 C 31.616655,27.123609 31.070789,25.668048 30,24.125 z"
       id="path5174"
       transform="translate(0,1004.3622)"
       sodipodi:nodetypes="ccccc" />
    <path
       style="color:#000000;fill:#008000;stroke:none;stroke-width:1px;marker:none;visibility:visible;display:inline;overflow:visible;enable-background:accumulate"
       d="m 28.280051,1025.0717 c 0.464315,3.1803 0.414326,5.7859 2.980863,5.0184 1.758687,-2.7009 -0.573466,-3.6761 -2.980863,-5.0184 z"
       id="path5196"
       sodipodi:nodetypes="ccc" />
    <path
       style="font-size:medium;font-style:normal;font-variant:normal;font-weight:normal;font-stretch:normal;text-indent:0;text-align:start;text-decoration:none;line-height:normal;letter-spacing:normal;word-spacing:normal;text-transform:none;direction:ltr;block-progression:tb;writing-mode:lr-tb;text-anchor:start;color:#000000;fill:url(#linearGradient3038);fill-opacity:1;stroke:none;stroke-width:1px;marker:none;visibility:visible;display:inline;overflow:visible;enable-background:accumulate;font-family:Bitstream Vera Sans;-inkscape-font-specification:Bitstream Vera Sans"
       d="m 7.6875,1036.9872 c -0.2291667,0.2396 -0.4583333,0.4792 -0.6875,0.7188 0.4525373,0.4829 1.1131422,1.3796 1.8178145,0.7367 0.7715536,-0.5016 1.5474615,0.1379 2.2137895,0.4819 0.799472,0.2316 1.370499,-0.8596 2.154432,-0.4725 0.659066,0.3829 1.387331,0.7854 2.18108,0.6506 0.548349,-0.075 1.817726,-0.01 1.489956,-0.9071 -0.528023,-0.6519 -1.378785,0.1233 -2.048061,-0.1183 -0.75654,-0.1414 -1.363746,-0.6941 -2.085513,-0.899 -0.627308,0.049 -1.033606,0.9344 -1.720909,0.6341 -0.658883,-0.4124 -1.4300799,-1.0053 -2.1761905,-0.3891 -0.43218,0.1751 -0.9399261,-0.01 -1.1388985,-0.4361 z"
       id="path5632" />
    <path
       sodipodi:nodetypes="ccc"
       id="path5190"
       d="m 14.127542,1037.4161 c 3.155877,0.6083 5.599873,1.5131 5.719906,-1.163 -1.971563,-2.5497 -3.660012,-0.6685 -5.719906,1.163 z"
       style="color:#000000;fill:url(#linearGradient5200);stroke:none;stroke-width:1px;marker:none;visibility:visible;display:inline;overflow:visible;enable-background:accumulate" />
    <path
       style="color:#000000;fill:url(#linearGradient5204);stroke:none;stroke-width:1px;marker:none;visibility:visible;display:inline;overflow:visible;enable-background:accumulate"
       d="m 39.348963,1029.0943 c -2.997349,1.16 -5.548835,1.6907 -4.229819,4.0223 3.024403,1.114 3.45653,-1.3766 4.229819,-4.0223 z"
       id="path5192"
       sodipodi:nodetypes="ccc" />
    <path
       sodipodi:nodetypes="ccc"
       id="path5194"
       d="m 36.907147,1023.8894 c -2.598268,1.8917 -4.927489,3.0607 -3.053269,4.9747 3.209161,0.2988 2.986312,-2.2192 3.053269,-4.9747 z"
       style="color:#000000;fill:url(#linearGradient5202);stroke:none;stroke-width:1px;marker:none;visibility:visible;display:inline;overflow:visible;enable-background:accumulate" />
    <g
       id="g2912"
       transform="matrix(0.91013657,-0.14696308,0.14696308,0.91013657,-158.66904,96.656435)">
      <path
         sodipodi:nodetypes="cccsc"
         id="path3642"
         d="m 26.634905,1038.976 c 2.708302,-1.0768 4.897141,0.148 7.199245,0.5735 l 0.717542,2.3005 c 0,0 -5.449976,1.4157 -5.733377,0.8482 -0.283391,-0.5674 -2.133271,-3.9076 -2.18341,-3.7222 z"
         style="color:#000000;fill:url(#linearGradient2926);fill-opacity:1;stroke:none;stroke-width:1px;marker:none;visibility:visible;display:inline;overflow:visible;enable-background:accumulate" />
      <path
         sodipodi:nodetypes="ccccc"
         id="path3644"
         d="m 37.293946,1038.6013 c 2.086758,-1.8905 4.256694,-4.2021 6.619282,-4.9286 l 0.747625,2.6702 -6.509276,4.6869 -0.857631,-2.4285 z"
         style="color:#000000;fill:url(#linearGradient2928);stroke:none;stroke-width:1px;marker:none;visibility:visible;display:inline;overflow:visible;enable-background:accumulate" />
      <path
         sodipodi:nodetypes="ccccsc"
         id="path3658"
         d="m 36.889258,1043.1134 c 0.102417,-0.1632 1.747339,-2.154 1.747339,-2.154 1.339417,1.6063 2.9007,3.12 5.110367,4.3637 l -3.036649,-0.078 c 0,0 0.695808,2.8977 0.54935,2.8149 -2.179103,-1.2329 -3.374457,-3.0322 -4.370407,-4.9464 z"
         style="color:#000000;fill:url(#linearGradient2930);stroke:none;stroke-width:1px;marker:none;visibility:visible;display:inline;overflow:visible;enable-background:accumulate" />
      <path
         sodipodi:nodetypes="cccsc"
         id="path3638"
         d="m 37.380708,1038.6035 c 2.561303,-1.2085 5.362309,-2.1541 6.489354,-4.9364 1.431293,2.054 2.938627,4.0811 2.533107,6.7868 -2.521511,1.2421 -5.045871,2.7257 -7.543638,1.9426 -0.230121,-0.072 -1.427626,-3.8747 -1.478823,-3.793 z"
         style="color:#000000;fill:url(#linearGradient2932);stroke:none;stroke-width:1px;marker:none;visibility:visible;display:inline;overflow:visible;enable-background:accumulate" />
      <path
         sodipodi:nodetypes="cccccc"
         id="path3656"
         d="m 34.442169,1043.009 c -0.239476,1.7204 -1.184198,3.3576 -1.995545,5.0106 l 2.380964,-1.2665 0.862983,2.9475 c 0.409102,-1.9875 1.262991,-3.6837 0.960459,-6.1368 l -2.208861,-0.5548 z"
         style="color:#000000;fill:url(#linearGradient2934);stroke:none;stroke-width:1px;marker:none;visibility:visible;display:inline;overflow:visible;enable-background:accumulate" />
      <path
         sodipodi:nodetypes="ccccc"
         id="path3640"
         d="m 32.813985,1039.8759 c -2.177601,-0.04 -4.400366,0.013 -6.185309,-0.9269 0.06054,2.2091 1.272121,3.7556 2.086509,5.5306 1.829921,0.6305 3.902386,-0.2779 5.940321,-0.9672 l -1.841521,-3.6365 z"
         style="color:#000000;fill:url(#linearGradient2936);stroke:none;stroke-width:1px;marker:none;visibility:visible;display:inline;overflow:visible;enable-background:accumulate" />
      <path
         sodipodi:nodetypes="cccsc"
         id="path3634"
         d="m 32.551565,1039.6617 c 1.423201,-1.0141 2.8018,-2.0999 5.276458,-1.4201 l 1.485231,4.4156 c -1.43537,1.0003 -3.167679,1.8062 -4.845853,1.1199 -0.152852,-0.062 -1.828007,-4.0094 -1.915836,-4.1154 z"
         style="color:#000000;fill:url(#linearGradient2938);stroke:none;stroke-width:1px;marker:none;visibility:visible;display:inline;overflow:visible;enable-background:accumulate" />
      <path
         transform="matrix(0.55186165,-0.31772631,0.28446004,0.67119534,-269.03698,340.35054)"
         sodipodi:nodetypes="ccsc"
         id="path3694"
         d="m -0.54176404,1041.1294 c -0.66203396,1.2079 -0.391938,2.4159 -0.265165,3.6239 -0.22757196,-0.2276 1.516211,-2.4541 1.767767,-2.2539 0.20636404,0.1642 -1.232321,-1.2816 -1.502602,-1.37 z"
         style="color:#000000;fill:#ffffff;fill-opacity:0.81696424;stroke:none;stroke-width:1px;marker:none;visibility:visible;display:inline;overflow:visible;filter:url(#filter3844);enable-background:accumulate" />
      <path
         transform="matrix(0.55186165,-0.31772631,0.28446004,0.67119534,-269.03698,340.35054)"
         sodipodi:nodetypes="cccc"
         id="path3696"
         d="m 7.810937,1045.7256 0.08839,2.961 c 0.299813,-1.4035 0.648433,-2.7651 2.563262,-2.7843 l -2.65165,-0.1767 z"
         style="color:#000000;fill:#ffffff;fill-opacity:0.81696424;stroke:none;stroke-width:1px;marker:none;visibility:visible;display:inline;overflow:visible;filter:url(#filter3852);enable-background:accumulate" />
      <path
         transform="matrix(0.55186165,-0.31772631,0.28446004,0.67119534,-269.03698,340.35054)"
         sodipodi:nodetypes="ccsc"
         id="path3698"
         d="m 16.296216,1047.9353 -0.132582,2.6958 c -0.05654,-0.3392 1.176163,-2.1354 2.474873,-2.2981 0.236147,-0.03 -2.298097,-0.4419 -2.342291,-0.3977 z"
         style="color:#000000;fill:#ffffff;fill-opacity:0.81696424;stroke:none;stroke-width:1px;marker:none;visibility:visible;display:inline;overflow:visible;filter:url(#filter3848);enable-background:accumulate" />
      <path
         transform="matrix(0.55186165,-0.31772631,0.28446004,0.67119534,-269.03698,340.35054)"
         sodipodi:nodetypes="cccc"
         id="path3700"
         d="m 6.219945,1053.2828 1.502602,-1.4142 0.972271,0.8396 c -0.569573,-0.4895 -1.572773,0.1773 -2.474873,0.5746 z"
         style="color:#000000;fill:#ffffff;fill-opacity:0.81696424;stroke:none;stroke-width:1px;marker:none;visibility:visible;display:inline;overflow:visible;filter:url(#filter3856);enable-background:accumulate" />
      <path
         transform="matrix(0.55186165,-0.31772631,0.28446004,0.67119534,-269.03698,340.35054)"
         sodipodi:nodetypes="cccc"
         id="path3702"
         d="m 13.511983,1054.0341 -1.370019,-0.1326 0.53033,2.4307 c 0.09924,-1.26 0.04783,-2.4234 0.839689,-2.2981 z"
         style="color:#000000;fill:#ffffff;fill-opacity:0.81696424;stroke:none;stroke-width:1px;marker:none;visibility:visible;display:inline;overflow:visible;filter:url(#filter3860);enable-background:accumulate" />
    </g>
    <path
       style="font-size:medium;font-style:normal;font-variant:normal;font-weight:normal;font-stretch:normal;text-indent:0;text-align:start;text-decoration:none;line-height:normal;letter-spacing:normal;word-spacing:normal;text-transform:none;direction:ltr;block-progression:tb;writing-mode:lr-tb;text-anchor:start;color:#000000;fill:url(#linearGradient3040);fill-opacity:1;stroke:none;stroke-width:1px;marker:none;visibility:visible;display:inline;overflow:visible;enable-background:accumulate;font-family:Bitstream Vera Sans;-inkscape-font-specification:Bitstream Vera Sans"
       d="m 9.09375,1040.456 c -0.7330883,0.3986 -1.5007719,0.7276 -2.25,1.0937 0.1458333,0.3021 0.2916667,0.6042 0.4375,0.9063 0.4938596,-0.096 1.1255873,-0.8697 1.5477123,-0.4667 0.1745713,0.3788 0.4416081,1.1298 0.9716572,0.7456 0.6525825,-0.288 1.3099405,-0.565 1.9682615,-0.8395 0.506917,0.035 0.943107,0.3619 1.457267,0.3721 1.13065,0.1592 2.256924,-0.1229 3.35218,-0.3737 0.492286,0.064 0.898423,0.3926 1.343777,0.5861 0.333697,0.3035 0.753489,0.1671 0.84121,-0.2645 0.277458,-0.5666 -0.533036,-0.6638 -0.861574,-0.8701 -0.542572,-0.2567 -1.08071,-0.6489 -1.697629,-0.3923 -1.207693,0.2297 -2.517942,0.6054 -3.70305,0.078 -0.47873,-0.3228 -1.077995,-0.1436 -1.543611,0.1078 -0.383029,0.1394 -0.734973,0.4752 -1.1628778,0.4107 -0.3489493,-0.2252 -0.3938938,-0.7895 -0.7008232,-1.0934 z"
       id="path5634" />
    <path
       style="font-size:medium;font-style:normal;font-variant:normal;font-weight:normal;font-stretch:normal;text-indent:0;text-align:start;text-decoration:none;line-height:normal;letter-spacing:normal;word-spacing:normal;text-transform:none;direction:ltr;block-progression:tb;writing-mode:lr-tb;text-anchor:start;color:#000000;fill:url(#linearGradient3042);fill-opacity:1;stroke:none;stroke-width:1px;marker:none;visibility:visible;display:inline;overflow:visible;enable-background:accumulate;font-family:Bitstream Vera Sans;-inkscape-font-specification:Bitstream Vera Sans"
       d="m 15.875,1043.6435 c -0.114583,0.3229 -0.229167,0.6458 -0.34375,0.9687 0.842182,0.2709 1.676221,0.6227 2.563835,0.7034 0.439143,-0.061 0.78475,-0.3704 1.194914,-0.5148 0.317716,-0.2441 0.69105,-0.1531 1.011949,0.022 0.440415,0.1716 0.882374,0.3391 1.323055,0.51 0.114583,-0.3125 0.229167,-0.625 0.34375,-0.9375 -0.709831,-0.2532 -1.40338,-0.5516 -2.122427,-0.7789 -0.42024,-0 -0.794992,0.2192 -1.17912,0.359 -0.29196,0.083 -0.555619,0.4043 -0.870059,0.2743 -0.652339,-0.1627 -1.290543,-0.3768 -1.922147,-0.606 z"
       id="path5636" />
    <path
       style="color:#000000;fill:#ffffff;stroke:none;stroke-width:1px;stroke-linecap:butt;stroke-linejoin:miter;stroke-miterlimit:4;stroke-opacity:1;stroke-dasharray:none;stroke-dashoffset:0;marker:none;visibility:visible;display:inline;overflow:visible;enable-background:accumulate;filter:url(#filter5656);opacity:0.70168067"
       d="m 15.5,6.3124999 -4.5625,0.375 C 11.450353,8.7748233 12.448876,10.619312 13.625,12.375 12.9375,9.5625 11.4375,6.4999999 15.5,6.3124999 z"
       id="path5638"
       transform="translate(0,1004.3622)"
       sodipodi:nodetypes="cccc" />
    <path
       style="color:#000000;fill:#ffffff;stroke:none;stroke-width:1px;stroke-linecap:butt;stroke-linejoin:miter;stroke-miterlimit:4;stroke-opacity:1;stroke-dasharray:none;stroke-dashoffset:0;marker:none;visibility:visible;display:inline;overflow:visible;enable-background:accumulate;filter:url(#filter5664);opacity:0.95798319"
       d="m 8.4375,13.3125 -0.125,1.375 c 0.8814478,1.907239 1.5181647,2.590824 2.25,3.75 -0.9376205,-1.59369 -1.8412233,-3.204388 -2.125,-5.125 z"
       id="path5640"
       transform="translate(0,1004.3622)"
       sodipodi:nodetypes="cccc" />
    <path
       style="color:#000000;fill:#ffffff;stroke:none;stroke-width:1px;stroke-linecap:butt;stroke-linejoin:miter;stroke-miterlimit:4;stroke-opacity:1;stroke-dasharray:none;stroke-dashoffset:0;marker:none;visibility:visible;display:inline;overflow:visible;enable-background:accumulate;filter:url(#filter5660);opacity:0.95798319"
       d="M 9.75,8.8749999 C 9.3958333,9.0598598 9.0416667,9.3895712 8.6875,10.5625 8.6253252,11.541016 8.7832513,12.079331 8.875,12.75 9.0853379,11.051689 9.3730151,9.7400754 9.75,8.8749999 z"
       id="path5642"
       transform="translate(0,1004.3622)"
       sodipodi:nodetypes="cccc" />
  </g>
</svg>
