<?xml version="1.0" encoding="UTF-8" standalone="no"?>
<!-- Created with Inkscape (http://www.inkscape.org/) -->

<svg
   xmlns:dc="http://purl.org/dc/elements/1.1/"
   xmlns:cc="http://creativecommons.org/ns#"
   xmlns:rdf="http://www.w3.org/1999/02/22-rdf-syntax-ns#"
   xmlns:svg="http://www.w3.org/2000/svg"
   xmlns="http://www.w3.org/2000/svg"
   xmlns:xlink="http://www.w3.org/1999/xlink"
   xmlns:sodipodi="http://sodipodi.sourceforge.net/DTD/sodipodi-0.dtd"
   xmlns:inkscape="http://www.inkscape.org/namespaces/inkscape"
   width="48"
   height="48"
   id="svg2"
   version="1.1"
   inkscape:version="0.47 r22583"
   sodipodi:docname="wedding02.svg"
   inkscape:export-filename="wedding02.png"
   inkscape:export-xdpi="90"
   inkscape:export-ydpi="90">
  <defs
     id="defs4">
    <linearGradient
       inkscape:collect="always"
       xlink:href="#linearGradient3689-0"
       id="linearGradient3180"
       x1="-1.8357832"
       y1="1118.9041"
       x2="29.639957"
       y2="1024.4768"
       gradientUnits="userSpaceOnUse"
       gradientTransform="matrix(0.93565998,0,0,0.93565998,3.6790419,70.030385)" />
    <linearGradient
       inkscape:collect="always"
       xlink:href="#linearGradient3689-0"
       id="linearGradient3182"
       x1="-17.573654"
       y1="1053.9854"
       x2="-3.8030171"
       y2="1087.4283"
       gradientUnits="userSpaceOnUse"
       gradientTransform="matrix(0.93565998,0,0,0.93565998,3.6790419,70.030385)" />
    <linearGradient
       id="linearGradient3689-0">
      <stop
         id="stop3691"
         offset="0"
         style="stop-color:#ffea00;stop-opacity:1;" />
      <stop
         id="stop3693"
         offset="1"
         style="stop-color:#ffffa4;stop-opacity:1;" />
    </linearGradient>
    <linearGradient
       inkscape:collect="always"
       xlink:href="#linearGradient3689-0"
       id="linearGradient3288"
       x1="63.082932"
       y1="1067.756"
       x2="-25.442589"
       y2="1032.3457"
       gradientUnits="userSpaceOnUse"
       gradientTransform="matrix(0.93565998,0,0,0.93565998,3.6790419,70.030385)" />
    <linearGradient
       inkscape:collect="always"
       xlink:href="#linearGradient3689-0"
       id="linearGradient3290"
       x1="6.0331521"
       y1="1061.8542"
       x2="76.853569"
       y2="1093.33"
       gradientUnits="userSpaceOnUse"
       gradientTransform="matrix(0.93565998,0,0,0.93565998,3.6790419,70.030385)" />
    <linearGradient
       id="linearGradient3801">
      <stop
         id="stop3803"
         offset="0"
         style="stop-color:#a20000;stop-opacity:1;" />
      <stop
         id="stop3805"
         offset="1"
         style="stop-color:#d40000;stop-opacity:1;" />
    </linearGradient>
    <linearGradient
       inkscape:collect="always"
       xlink:href="#linearGradient3801"
       id="linearGradient3453"
       x1="10"
       y1="39.999989"
       x2="10"
       y2="30.999989"
       gradientUnits="userSpaceOnUse" />
    <linearGradient
       inkscape:collect="always"
       xlink:href="#linearGradient3801"
       id="linearGradient3455"
       x1="38"
       y1="36.999989"
       x2="35"
       y2="22.999989"
       gradientUnits="userSpaceOnUse" />
    <filter
       inkscape:collect="always"
       id="filter4265"
       x="-0.10323622"
       width="1.2064724"
       y="-0.19041276"
       height="1.3808255">
      <feGaussianBlur
         inkscape:collect="always"
         stdDeviation="0.26246083"
         id="feGaussianBlur4267" />
    </filter>
    <filter
       inkscape:collect="always"
       id="filter4271"
       x="-0.092647068"
       width="1.1852941"
       y="-0.11886791"
       height="1.2377358">
      <feGaussianBlur
         inkscape:collect="always"
         stdDeviation="0.17027026"
         id="feGaussianBlur4273" />
    </filter>
    <filter
       inkscape:collect="always"
       id="filter4289"
       x="-0.1043263"
       width="1.2086526"
       y="-0.37923159"
       height="1.7584632">
      <feGaussianBlur
         inkscape:collect="always"
         stdDeviation="0.30452002"
         id="feGaussianBlur4291" />
    </filter>
    <filter
       inkscape:collect="always"
       id="filter4315">
      <feGaussianBlur
         inkscape:collect="always"
         stdDeviation="0.18720629"
         id="feGaussianBlur4317" />
    </filter>
    <filter
       inkscape:collect="always"
       id="filter3635"
       x="-0.069254064"
       width="1.1385081"
       y="-0.27655099"
       height="1.553102">
      <feGaussianBlur
         inkscape:collect="always"
         stdDeviation="0.92848704"
         id="feGaussianBlur3637" />
    </filter>
  </defs>
  <sodipodi:namedview
     id="base"
     pagecolor="#ffffff"
     bordercolor="#666666"
     borderopacity="1.0"
     inkscape:pageopacity="0.0"
     inkscape:pageshadow="2"
     inkscape:zoom="1"
     inkscape:cx="21.15842"
     inkscape:cy="24"
     inkscape:document-units="px"
     inkscape:current-layer="g3108"
     showgrid="false"
     inkscape:window-width="1399"
     inkscape:window-height="963"
     inkscape:window-x="231"
     inkscape:window-y="24"
     inkscape:window-maximized="0">
    <inkscape:grid
       type="xygrid"
       id="grid2816"
       empspacing="5"
       visible="true"
       enabled="true"
       snapvisiblegridlinesonly="true" />
  </sodipodi:namedview>
  <metadata
     id="metadata7">
    <rdf:RDF>
      <cc:Work
         rdf:about="">
        <dc:format>image/svg+xml</dc:format>
        <dc:type
           rdf:resource="http://purl.org/dc/dcmitype/StillImage" />
        <dc:title />
      </cc:Work>
    </rdf:RDF>
  </metadata>
  <g
     inkscape:label="Layer 1"
     inkscape:groupmode="layer"
     id="layer1"
     transform="translate(0,-1004.3622)">
    <g
       transform="matrix(0.50832798,0,0,0.50832798,12.93318,493.59197)"
       id="g3108">
      <path
         style="fill:#000000;fill-opacity:0.76862744999999999;fill-rule:evenodd;stroke:none;filter:url(#filter3635)"
         d="M 35.53125 37.53125 C 33.931177 37.536771 31.997077 37.623077 29.9375 37.8125 C 24.445296 38.317627 20.058835 39.311845 20.125 40.03125 C 20.191165 40.750655 24.695296 40.942627 30.1875 40.4375 C 35.679704 39.932373 40.066165 38.938155 40 38.21875 C 39.958647 37.769122 38.198038 37.522048 35.53125 37.53125 z M 10.28125 40.125 C 8.9142585 40.073469 7.9887132 40.288666 7.84375 40.78125 C 7.5538236 41.766419 10.493009 43.482565 14.375 44.625 C 18.256991 45.767435 21.616324 45.922669 21.90625 44.9375 C 22.196176 43.952331 19.288241 42.204935 15.40625 41.0625 C 13.465254 40.491282 11.648241 40.176531 10.28125 40.125 z "
         transform="matrix(1.9672338,0,0,1.9672338,-25.442589,1004.8045)"
         id="path3620" />
      <path
         style="color:#000000;fill:url(#linearGradient3290);stroke:none;stroke-width:1px;marker:none;visibility:visible;display:inline;overflow:visible;enable-background:accumulate"
         d="m 8.7984967,1066.5167 c -0.050507,0.1515 5.8669993,11.8153 22.3227233,12.2219 16.55667,0.4091 26.060012,-13.333 26.060012,-13.333 0,0 -1.414109,7.5756 -1.81814,7.8786 -0.404031,0.303 -5.252389,8.9314 -22.221716,10.2018 -16.969327,1.2704 -23.029778,-7.0706 -23.130786,-7.5756 -0.1010008,-0.505 -1.1615854,-9.5453 -1.2120933,-9.3937 z"
         id="path3058"
         sodipodi:nodetypes="czcszsz" />
      <path
         style="color:#000000;fill:url(#linearGradient3288);stroke:none;stroke-width:1px;marker:none;visibility:visible;display:inline;overflow:visible;enable-background:accumulate"
         d="m 12.434777,1078.2336 c -2.9661737,-4.2334 -5.8664988,-14.2512 5.95946,-22.6258 11.825959,-8.3746 29.16814,-5.3358 34.544668,-0.606 5.376528,4.7298 5.84708,18.3329 -5.252405,24.8478 0,0 9.59574,-3.3331 13.131013,-12.3229 3.535272,-8.9896 -1.212093,-25.3529 -20.908615,-25.2519 -19.696522,0.101 -30.89288,8.6712 -34.5446654,16.5653 -3.6517855,7.8941 -1.4971664,16.2442 7.0705444,19.3935 z"
         id="path3056"
         sodipodi:nodetypes="czzczzzc" />
      <path
         sodipodi:nodetypes="czcszsz"
         id="path3060"
         d="m 21.392491,1038.6688 c -3.666112,-6.6093 -15.2675192,-11.1767 -21.1905902,11.5908 -5.9230717,22.7675 7.406254,38.1824 8.825769,38.1824 0.1417693,1.7486 -17.1369023,-3.3497 -17.8636462,-11.3912 -0.053885,-0.5964 -6.1097936,-9.9156 -0.8701001,-29.2657 5.2396199,-19.3499 15.0799192,-21.9559 15.570235,-22.0956 11.9951505,-3.4177 19.1944435,19.5887 15.5283325,12.9793 z"
         style="color:#000000;fill:url(#linearGradient3182);fill-opacity:1;stroke:none;stroke-width:1px;marker:none;visibility:visible;display:inline;overflow:visible;enable-background:accumulate" />
      <path
         sodipodi:nodetypes="czzczzzc"
         id="path3062"
         d="m 2.8475711,1027.302 c 4.9504899,-1.3334 15.0130529,0.066 18.1433329,16.9953 3.130281,16.929 -10.681254,38.23 -15.0857898,39.9954 -4.3540965,1.7451 -16.9386432,-5.114 -17.5770662,-18.6376 0,0 -1.342375,10.9501 5.9955992,20.0752 7.3379741,9.125 23.6165548,10.0157 30.9421708,-11.8124 7.325543,-21.8281 6.104293,-37.4439 0.331052,-45.1124 -5.773314,-7.6687 -13.035017,-8.318 -22.7492989,-1.5035 z"
         style="color:#000000;fill:url(#linearGradient3180);fill-opacity:1;stroke:none;stroke-width:1px;marker:none;visibility:visible;display:inline;overflow:visible;enable-background:accumulate" />
      <path
         style="color:#000000;fill:url(#linearGradient3453);stroke:none;stroke-width:1px;stroke-linecap:butt;stroke-linejoin:miter;stroke-miterlimit:4;stroke-opacity:1;stroke-dasharray:none;stroke-dashoffset:0;marker:none;visibility:visible;display:inline;overflow:visible;enable-background:accumulate"
         d="M 21,22 C 10,21.999989 13,34.999989 1,34 l 3,2 -2,4 c 6.8749999,0.687492 9.956787,-5.712646 12.84375,-9.78125 0.0051,-0.0071 -0.0051,-0.02414 0,-0.03125 0.113789,-0.900302 0.391539,-1.808755 0.8125,-2.71875 C 16.542639,25.552635 18.311852,23.566703 21,22 z"
         transform="matrix(1.9672338,0,0,1.9672338,-25.442589,1004.8045)"
         id="path3292"
         sodipodi:nodetypes="ccccsssc" />
      <path
         style="color:#000000;fill:url(#linearGradient3455);stroke:none;stroke-width:1px;stroke-linecap:butt;stroke-linejoin:miter;stroke-miterlimit:4;stroke-opacity:1;stroke-dasharray:none;stroke-dashoffset:0;marker:none;visibility:visible;display:inline;overflow:visible;enable-background:accumulate"
         d="M 28.28125,23.65625 C 28.19764,24.760015 28.02041,25.905024 27.8125,27.125 31.847729,28.311982 33.758388,29.960733 35,33 c 1.988199,3.564408 0.864525,6.206769 7,11 l -1,-5 5.46875,0.90625 C 44.655524,39.312089 40.000001,34.999989 39.000001,31.999989 36.542793,26.266502 34.036628,24.879445 28.28125,23.65625 z M 23.6875,24.9375 c -0.487411,0.255491 -0.961892,0.560326 -1.40625,0.875 -0.146668,0.103863 -0.268386,0.207697 -0.40625,0.3125 0.615671,0.07813 1.048622,0.171416 1.59375,0.25 0.092,-0.477739 0.15963,-0.957928 0.21875,-1.4375 z"
         transform="matrix(1.9672338,0,0,1.9672338,-25.442589,1004.8045)"
         id="path3299"
         sodipodi:nodetypes="cccccccccsccc" />
      <path
         style="color:#000000;fill:#ffffff;stroke:none;stroke-width:1px;stroke-linecap:butt;stroke-linejoin:miter;stroke-miterlimit:4;stroke-opacity:1;stroke-dasharray:none;stroke-dashoffset:0;marker:none;visibility:visible;display:inline;overflow:visible;enable-background:accumulate;filter:url(#filter4265);fill-opacity:0.53125"
         d="M 4,36 C 3.6189292,35.254047 1.8429854,34.317289 1.9459459,34.248649 4.5146416,34.480499 6.3270005,33.653477 8.0432432,32.691892 6.6898444,33.792173 4.2017133,34.40614 4,36 z"
         id="path4251"
         transform="matrix(1.9672338,0,0,1.9672338,-25.442589,1004.8045)"
         sodipodi:nodetypes="cccc" />
      <path
         style="color:#000000;fill:#ffffff;stroke:none;stroke-width:1px;stroke-linecap:butt;stroke-linejoin:miter;stroke-miterlimit:4;stroke-opacity:1;stroke-dasharray:none;stroke-dashoffset:0;marker:none;visibility:visible;display:inline;overflow:visible;enable-background:accumulate;filter:url(#filter4271);fill-opacity:0.3125"
         d="m 40.994595,38.854054 4.41081,0.713514 -4.281081,-3.437838 c 0.111149,0.825884 1.754102,2.512281 -0.129729,2.724324 z"
         id="path4269"
         transform="matrix(1.9672338,0,0,1.9672338,-25.442589,1004.8045)"
         sodipodi:nodetypes="cccc" />
      <path
         style="color:#000000;fill:#ffffff;stroke:none;stroke-width:1px;stroke-linecap:butt;stroke-linejoin:miter;stroke-miterlimit:4;stroke-opacity:1;stroke-dasharray:none;stroke-dashoffset:0;marker:none;visibility:visible;display:inline;overflow:visible;enable-background:accumulate;filter:url(#filter4289)"
         d="M 15.243243,11.027027 C 17.424012,9.856702 19.722744,9.2172107 22.248649,9.6 20.674083,9.9497583 18.583295,9.7832947 18.291892,11.416216 l -3.048649,-0.389189 z"
         id="path4275"
         transform="matrix(1.9672338,0,0,1.9672338,-25.442589,1004.8045)"
         sodipodi:nodetypes="cccc" />
      <path
         style="color:#000000;fill:#ffffff;stroke:none;stroke-width:1px;stroke-linecap:butt;stroke-linejoin:miter;stroke-miterlimit:4;stroke-opacity:1;stroke-dasharray:none;stroke-dashoffset:0;marker:none;visibility:visible;display:inline;overflow:visible;enable-background:accumulate;filter:url(#filter4315)"
         d="m 21.47027,22.443243 c -0.947787,-0.947787 -7.116778,3.976386 -6.291892,9.989189 0.01957,-2.395856 3.044697,-8.945384 6.291892,-9.989189 z"
         id="path4293"
         transform="matrix(1.9672338,0,0,1.9672338,-25.442589,1004.8045)"
         sodipodi:nodetypes="ccc" />
    </g>
  </g>
</svg>
