<?xml version="1.0" encoding="UTF-8" standalone="no"?>
<!-- Created with Inkscape (http://www.inkscape.org/) -->

<svg
   xmlns:dc="http://purl.org/dc/elements/1.1/"
   xmlns:cc="http://creativecommons.org/ns#"
   xmlns:rdf="http://www.w3.org/1999/02/22-rdf-syntax-ns#"
   xmlns:svg="http://www.w3.org/2000/svg"
   xmlns="http://www.w3.org/2000/svg"
   xmlns:xlink="http://www.w3.org/1999/xlink"
   xmlns:sodipodi="http://sodipodi.sourceforge.net/DTD/sodipodi-0.dtd"
   xmlns:inkscape="http://www.inkscape.org/namespaces/inkscape"
   width="48"
   height="48"
   id="svg2"
   version="1.1"
   inkscape:version="0.47 r22583"
   sodipodi:docname="wedding03.svg"
   inkscape:export-filename="wedding03.png"
   inkscape:export-xdpi="90"
   inkscape:export-ydpi="90">
  <defs
     id="defs4">
    <linearGradient
       id="linearGradient2180">
      <stop
         id="stop2181"
         offset="0.0000000"
         style="stop-color:#ffcb00;stop-opacity:1.0000000;" />
      <stop
         id="stop2184"
         offset="0.50000000"
         style="stop-color:#ffae00;stop-opacity:1.0000000;" />
      <stop
         id="stop2182"
         offset="1.0000000"
         style="stop-color:#ffcb00;stop-opacity:1.0000000;" />
    </linearGradient>
    <linearGradient
       id="linearGradient2187">
      <stop
         id="stop2188"
         offset="0.0000000"
         style="stop-color:#ff9900;stop-opacity:1.0000000;" />
      <stop
         id="stop2190"
         offset="1.0000000"
         style="stop-color:#ffcb00;stop-opacity:1.0000000;" />
    </linearGradient>
    <linearGradient
       inkscape:collect="always"
       xlink:href="#linearGradient2187"
       id="linearGradient3037"
       gradientUnits="userSpaceOnUse"
       gradientTransform="scale(0.57827632,1.7292771)"
       x1="48.729655"
       y1="34.359067"
       x2="94.271301"
       y2="59.74107" />
    <linearGradient
       inkscape:collect="always"
       xlink:href="#linearGradient2180"
       id="linearGradient3043"
       gradientUnits="userSpaceOnUse"
       gradientTransform="scale(0.86779905,1.1523405)"
       x1="119.31157"
       y1="31.06509"
       x2="-0.10808086"
       y2="147.45007" />
    <linearGradient
       inkscape:collect="always"
       xlink:href="#linearGradient2187"
       id="linearGradient3065"
       gradientUnits="userSpaceOnUse"
       gradientTransform="scale(0.57827632,1.7292771)"
       x1="30.206274"
       y1="37.711121"
       x2="117.51583"
       y2="58.167843" />
    <linearGradient
       id="linearGradient2180-7">
      <stop
         id="stop2181-6"
         offset="0.0000000"
         style="stop-color:#ffcb00;stop-opacity:1.0000000;" />
      <stop
         id="stop2184-0"
         offset="0.50000000"
         style="stop-color:#ffae00;stop-opacity:1.0000000;" />
      <stop
         id="stop2182-9"
         offset="1.0000000"
         style="stop-color:#ffcb00;stop-opacity:1.0000000;" />
    </linearGradient>
    <radialGradient
       r="4.5"
       fy="14.054054"
       fx="23.981081"
       cy="14.054054"
       cx="23.981081"
       gradientTransform="matrix(0.9258376,1.3773679,-1.6708711,1.1231232,25.261007,-34.761152)"
       gradientUnits="userSpaceOnUse"
       id="radialGradient3099"
       xlink:href="#linearGradient2180-7"
       inkscape:collect="always" />
    <radialGradient
       inkscape:collect="always"
       xlink:href="#linearGradient2180-7"
       id="radialGradient3122"
       cx="201.65285"
       cy="55.18306"
       fx="201.65285"
       fy="55.18306"
       r="13.940272"
       gradientTransform="matrix(0.97093651,-1.4870529,2.1155078,1.6368608,-110.87946,265.35716)"
       gradientUnits="userSpaceOnUse" />
    <radialGradient
       inkscape:collect="always"
       xlink:href="#linearGradient2180"
       id="radialGradient3124"
       cx="-736.59753"
       cy="7.9096079"
       fx="-736.59753"
       fy="7.9096079"
       r="13.940272"
       gradientTransform="matrix(1.1128465,0.21811907,-0.35232325,2.1301812,1023.2281,195.60122)"
       gradientUnits="userSpaceOnUse" />
    <linearGradient
       inkscape:collect="always"
       xlink:href="#linearGradient2180"
       id="linearGradient3128"
       x1="162.90239"
       y1="116.01549"
       x2="24.988848"
       y2="75.492287"
       gradientUnits="userSpaceOnUse" />
    <linearGradient
       id="linearGradient3613">
      <stop
         style="stop-color:#ff5959;stop-opacity:1;"
         offset="0"
         id="stop3615" />
      <stop
         style="stop-color:#d90000;stop-opacity:1;"
         offset="1"
         id="stop3617" />
    </linearGradient>
    <radialGradient
       inkscape:collect="always"
       xlink:href="#linearGradient3613"
       id="radialGradient3234"
       cx="22.892582"
       cy="10.922218"
       fx="22.892582"
       fy="10.922218"
       r="6"
       gradientTransform="matrix(1.017903,0.80965689,-0.53436335,0.67180334,5.4265874,-14.730661)"
       gradientUnits="userSpaceOnUse" />
    <radialGradient
       inkscape:collect="always"
       xlink:href="#linearGradient3613"
       id="radialGradient3236"
       cx="7.5130095"
       cy="9.4417629"
       fx="7.5130095"
       fy="9.4417629"
       r="9.4171141"
       gradientTransform="matrix(0.90123052,1.0409224,-0.80907207,0.70049359,8.3811224,-5.2368387)"
       gradientUnits="userSpaceOnUse" />
    <radialGradient
       inkscape:collect="always"
       xlink:href="#linearGradient3613"
       id="radialGradient3238"
       cx="32.792076"
       cy="11.287129"
       fx="32.792076"
       fy="11.287129"
       r="9.4732607"
       gradientTransform="matrix(1.1831115,1.1461673,-0.73131539,0.75488929,2.249844,-34.963679)"
       gradientUnits="userSpaceOnUse" />
    <filter
       inkscape:collect="always"
       id="filter4042"
       x="-0.17385768"
       width="1.3477154"
       y="-0.13603053"
       height="1.2720611">
      <feGaussianBlur
         inkscape:collect="always"
         stdDeviation="0.37136899"
         id="feGaussianBlur4044" />
    </filter>
    <filter
       inkscape:collect="always"
       id="filter4046"
       x="-0.28810702"
       width="1.576214"
       y="-0.14614122"
       height="1.2922824">
      <feGaussianBlur
         inkscape:collect="always"
         stdDeviation="0.37136899"
         id="feGaussianBlur4048" />
    </filter>
    <filter
       inkscape:collect="always"
       id="filter4050"
       x="-0.46047016"
       width="1.9209403"
       y="-0.13971118"
       height="1.2794224">
      <feGaussianBlur
         inkscape:collect="always"
         stdDeviation="0.37136899"
         id="feGaussianBlur4052" />
    </filter>
    <filter
       inkscape:collect="always"
       id="filter4054"
       x="-0.57582075"
       width="2.1516415"
       y="-0.099515689"
       height="1.1990314">
      <feGaussianBlur
         inkscape:collect="always"
         stdDeviation="0.37136899"
         id="feGaussianBlur4056" />
    </filter>
    <filter
       inkscape:collect="always"
       id="filter4078"
       x="-0.32479463"
       width="1.6495893"
       y="-0.12902579"
       height="1.2580516">
      <feGaussianBlur
         inkscape:collect="always"
         stdDeviation="0.47043055"
         id="feGaussianBlur4080" />
    </filter>
    <filter
       inkscape:collect="always"
       id="filter4082"
       x="-0.12280069"
       width="1.2456014"
       y="-0.2002119"
       height="1.4004238">
      <feGaussianBlur
         inkscape:collect="always"
         stdDeviation="0.47043055"
         id="feGaussianBlur4084" />
    </filter>
    <filter
       inkscape:collect="always"
       id="filter4106"
       x="-0.30127953"
       width="1.6025591"
       y="-0.43215937"
       height="1.8643187">
      <feGaussianBlur
         inkscape:collect="always"
         stdDeviation="0.36615694"
         id="feGaussianBlur4108" />
    </filter>
    <filter
       inkscape:collect="always"
       id="filter4110"
       x="-0.33993049"
       width="1.679861"
       y="-0.18411523"
       height="1.3682305">
      <feGaussianBlur
         inkscape:collect="always"
         stdDeviation="0.36615694"
         id="feGaussianBlur4112" />
    </filter>
    <filter
       inkscape:collect="always"
       id="filter3660"
       x="-0.054673684"
       width="1.1093474"
       y="-0.22140144"
       height="1.4428029">
      <feGaussianBlur
         inkscape:collect="always"
         stdDeviation="0.94911924"
         id="feGaussianBlur3662" />
    </filter>
  </defs>
  <sodipodi:namedview
     id="base"
     pagecolor="#ffffff"
     bordercolor="#666666"
     borderopacity="1.0"
     inkscape:pageopacity="0.0"
     inkscape:pageshadow="2"
     inkscape:zoom="1"
     inkscape:cx="20.322661"
     inkscape:cy="24"
     inkscape:document-units="px"
     inkscape:current-layer="layer1"
     showgrid="false"
     inkscape:window-width="1399"
     inkscape:window-height="963"
     inkscape:window-x="231"
     inkscape:window-y="24"
     inkscape:window-maximized="0">
    <inkscape:grid
       type="xygrid"
       id="grid2816"
       empspacing="5"
       visible="true"
       enabled="true"
       snapvisiblegridlinesonly="true" />
  </sodipodi:namedview>
  <metadata
     id="metadata7">
    <rdf:RDF>
      <cc:Work
         rdf:about="">
        <dc:format>image/svg+xml</dc:format>
        <dc:type
           rdf:resource="http://purl.org/dc/dcmitype/StillImage" />
        <dc:title />
      </cc:Work>
    </rdf:RDF>
  </metadata>
  <g
     inkscape:label="Layer 1"
     inkscape:groupmode="layer"
     id="layer1"
     transform="translate(0,-1004.3622)">
    <path
       style="fill:#000000;fill-opacity:0.76862744999999999;fill-rule:evenodd;stroke:none;filter:url(#filter3660)"
       d="m 42.75473,1038.6771 c -2.117752,0.1249 -5.33829,1.0509 -8.71875,2.5937 -3.38046,1.5428 -6.129119,3.3311 -7.53125,4.8125 -0.406404,-0.2463 -0.84366,-0.4948 -1.34375,-0.7187 -0.390491,-0.1749 -0.778457,-0.3397 -1.15625,-0.4688 -1.235184,-1.4056 -4.744715,-3.0792 -9.09375,-4.2187 -5.7512614,-1.507 -10.790167,-1.4833 -11.2812503,0.031 -0.4910833,1.5145 3.7487389,3.9618 9.5000003,5.4688 3.821868,1.0014 7.332682,1.3023 9.40625,0.9687 0.313601,0.1748 0.639616,0.3387 1,0.5 0.730556,0.3271 1.467132,0.5869 2.125,0.75 0.973031,1.2275 5.822788,0.3601 11.0625,-2.0312 5.408735,-2.4685 9.180403,-5.6231 8.4375,-7.0313 -0.278589,-0.5281 -1.135599,-0.7312 -2.40625,-0.6562 z"
       id="path3651" />
    <path
       sodipodi:type="arc"
       style="fill:url(#radialGradient3099);fill-opacity:1;fill-rule:evenodd;stroke:none"
       id="path3075"
       sodipodi:cx="25.5"
       sodipodi:cy="15.5"
       sodipodi:rx="4.5"
       sodipodi:ry="4.5"
       d="M 30,15.5 C 30,17.985281 27.985281,20 25.5,20 23.014719,20 21,17.985281 21,15.5 21,13.014719 23.014719,11 25.5,11 c 2.485281,0 4.5,2.014719 4.5,4.5 z"
       transform="translate(-1,1005.8622)" />
    <g
       transform="matrix(0.36962693,0,0,0.36962693,25.014173,630.14781)"
       id="g3108">
      <g
         id="g5331"
         transform="matrix(-0.23310079,0.64668733,-0.59405598,-0.21412962,27.229926,975.7775)">
        <path
           style="fill:url(#linearGradient3037);fill-opacity:1;fill-rule:evenodd;stroke:none"
           d="M 29.137959,44.899771 C 8.2674653,56.640001 7.2339413,129.33535 35.956938,149.67454 52.298235,134.65883 56.384975,72.682237 29.262959,44.993521 c -0.03522,-0.03832 -0.08991,-0.05529 -0.125,-0.09375 z"
           id="path4694"
           sodipodi:nodetypes="cccc"
           transform="matrix(-0.951745,-0.306891,0.306891,-0.951745,210.5529,127.2429)" />
        <path
           style="fill:url(#radialGradient3122);fill-opacity:1;fill-rule:evenodd;stroke:none"
           d="m 188.77854,58.068566 c 7.80661,15.301508 27.6163,6.193087 26.46999,-11.609619 -2.82196,-22.21706 -34.73512,-10.812977 -26.46999,11.609619 z"
           id="path4695"
           sodipodi:nodetypes="ccc" />
        <path
           style="fill:url(#linearGradient3043);fill-opacity:1;fill-rule:evenodd;stroke:none"
           d="m 28.989833,45.10945 c 28.778741,44.480603 18.309933,89.02637 6.84375,104.96875 19.390645,-20.70785 47.83734,-22.08181 55.375,-26.875 7.53764,-4.79321 18.029637,-10.31505 16.718747,-32.4375 C 106.2887,61.637803 77.122033,66.059326 70.239833,64.9532 c -6.87147,-1.104391 -28.46119,-5.883452 -41.25,-19.84375 z"
           id="path4697"
           sodipodi:nodetypes="cccccc"
           transform="matrix(-0.951745,-0.306891,0.306891,-0.951745,210.5529,127.2429)" />
      </g>
    </g>
    <g
       id="g3051"
       transform="matrix(-0.36962693,0,0,0.36962693,23.497272,631.2838)">
      <g
         transform="matrix(-0.23310079,0.64668733,-0.59405598,-0.21412962,27.229926,975.7775)"
         id="g3053">
        <path
           transform="matrix(-0.951745,-0.306891,0.306891,-0.951745,210.5529,127.2429)"
           sodipodi:nodetypes="cccc"
           id="path3055"
           d="M 29.137959,44.899771 C 8.2674653,56.640001 7.2339413,129.33535 35.956938,149.67454 52.298235,134.65883 56.384975,72.682237 29.262959,44.993521 c -0.03522,-0.03832 -0.08991,-0.05529 -0.125,-0.09375 z"
           style="fill:url(#linearGradient3065);fill-opacity:1;fill-rule:evenodd;stroke:none" />
        <path
           sodipodi:nodetypes="ccc"
           id="path3057"
           d="m 188.77854,58.068566 c 7.80661,15.301508 27.6163,6.193087 26.46999,-11.609619 -2.82196,-22.21706 -34.73512,-10.812977 -26.46999,11.609619 z"
           style="fill:url(#radialGradient3124);fill-opacity:1;fill-rule:evenodd;stroke:none" />
        <path
           transform="matrix(-0.951745,-0.306891,0.306891,-0.951745,210.5529,127.2429)"
           sodipodi:nodetypes="cccccc"
           id="path3061"
           d="m 28.989833,45.10945 c 28.778741,44.480603 18.309933,89.02637 6.84375,104.96875 19.390645,-20.70785 47.83734,-22.08181 55.375,-26.875 7.53764,-4.79321 18.029637,-10.31505 16.718747,-32.4375 C 106.2887,61.637803 77.122033,66.059326 70.239833,64.9532 c -6.87147,-1.104391 -28.46119,-5.883452 -41.25,-19.84375 z"
           style="fill:url(#linearGradient3128);fill-opacity:1;fill-rule:evenodd;stroke:none" />
      </g>
    </g>
    <path
       style="color:#000000;fill:url(#radialGradient3236);stroke:none;stroke-width:1px;stroke-linecap:butt;stroke-linejoin:miter;stroke-miterlimit:4;stroke-opacity:1;stroke-dasharray:none;stroke-dashoffset:0;marker:none;visibility:visible;display:inline;overflow:visible;enable-background:accumulate;fill-opacity:1"
       d="M 18.810811,9.4702703 C 16,6 6,2 3,3 1,4 3.3946524,6.4620243 3,10 2.4185702,15.212395 1.0336683,21.583687 4,23 9.4294739,21.694502 14.590309,21.553105 21,16 L 18.810811,9.4702703 z"
       id="path3134"
       transform="translate(0,1004.3622)"
       sodipodi:nodetypes="ccsccc" />
    <path
       style="color:#000000;fill:url(#radialGradient3238);stroke:none;stroke-width:1px;stroke-linecap:butt;stroke-linejoin:miter;stroke-miterlimit:4;stroke-opacity:1;stroke-dasharray:none;stroke-dashoffset:0;marker:none;visibility:visible;display:inline;overflow:visible;enable-background:accumulate;fill-opacity:1"
       d="M 29.383784,9.6648649 C 32,8 43,2 45,5 46,6 44,9 45.409532,13.227237 46.578256,16.732283 45.717483,20.565034 44,24 38,25 33,17 27,16 l 2.383784,-6.3351351 z"
       id="path3136"
       transform="translate(0,1004.3622)"
       sodipodi:nodetypes="ccsccc" />
    <path
       style="color:#000000;fill:url(#radialGradient3234);stroke:none;stroke-width:1px;stroke-linecap:butt;stroke-linejoin:miter;stroke-miterlimit:4;stroke-opacity:1;stroke-dasharray:none;stroke-dashoffset:0;marker:none;visibility:visible;display:inline;overflow:visible;enable-background:accumulate;fill-opacity:1"
       d="M 21.47027,16.735135 C 23.165805,18.266548 25.642852,17.453425 28,17 29.371357,14.333333 29.396532,11.666667 30,9 24.868923,6.0480503 21.112537,7.6176198 18,9 c 0.753024,2.578378 1.080393,5.156757 3.47027,7.735135 z"
       id="path3132"
       transform="translate(0,1004.3622)"
       sodipodi:nodetypes="ccccc" />
    <path
       style="color:#000000;fill:#ffffff;stroke:none;stroke-width:1px;stroke-linecap:butt;stroke-linejoin:miter;stroke-miterlimit:4;stroke-opacity:1;stroke-dasharray:none;stroke-dashoffset:0;marker:none;visibility:visible;display:inline;overflow:visible;enable-background:accumulate;filter:url(#filter4050);fill-opacity:0.70535713"
       d="M 4.7729708,3.7174377 C 1.179808,1.179808 3.7274538,8.2403867 3.5355339,9.5510687 c 0,0 0,-5.1265242 1.2374369,-5.833631 z"
       id="path4018"
       transform="translate(0,1004.3622)"
       sodipodi:nodetypes="ccc" />
    <path
       style="color:#000000;fill:#ffffff;stroke:none;stroke-width:1px;stroke-linecap:butt;stroke-linejoin:miter;stroke-miterlimit:4;stroke-opacity:1;stroke-dasharray:none;stroke-dashoffset:0;marker:none;visibility:visible;display:inline;overflow:visible;enable-background:accumulate;filter:url(#filter4054);fill-opacity:0.70535713"
       d="M 3.0052038,13.528544 C 3.2036353,16.533283 1.0567465,20.07925 3.9774757,22.455767 2.9215856,22.878123 3.9074446,18.630048 3.0052038,13.528544 z"
       id="path4020"
       transform="translate(0,1004.3622)"
       sodipodi:nodetypes="ccc" />
    <path
       style="color:#000000;fill:#ffffff;stroke:none;stroke-width:1px;stroke-linecap:butt;stroke-linejoin:miter;stroke-miterlimit:4;stroke-opacity:1;stroke-dasharray:none;stroke-dashoffset:0;marker:none;visibility:visible;display:inline;overflow:visible;enable-background:accumulate;filter:url(#filter4046);fill-opacity:0.70535713"
       d="m 21.655145,8.4904085 -3.093592,0.8838835 2.12132,5.214913 c 0.251974,-2.023317 -2.47359,-3.649628 0.972272,-6.0987965 z"
       id="path4022"
       transform="translate(0,1004.3622)"
       sodipodi:nodetypes="cccc" />
    <path
       style="color:#000000;fill:#ffffff;stroke:none;stroke-width:1px;stroke-linecap:butt;stroke-linejoin:miter;stroke-miterlimit:4;stroke-opacity:1;stroke-dasharray:none;stroke-dashoffset:0;marker:none;visibility:visible;display:inline;overflow:visible;enable-background:accumulate;filter:url(#filter4042);fill-opacity:0.70535713"
       d="M 34.471456,7.8716901 C 33.764349,7.6949134 30.052038,9.639457 30.052038,9.639457 c 0.571402,1.389214 -0.43857,3.173772 -0.707106,4.772971 0.221587,-3.998772 2.56747,-5.5806729 5.126524,-6.5407379 z"
       id="path4024"
       transform="translate(0,1004.3622)"
       sodipodi:nodetypes="cccc" />
    <path
       style="color:#000000;fill:#ffffff;stroke:none;stroke-width:1px;stroke-linecap:butt;stroke-linejoin:miter;stroke-miterlimit:4;stroke-opacity:1;stroke-dasharray:none;stroke-dashoffset:0;marker:none;visibility:visible;display:inline;overflow:visible;enable-background:accumulate;fill-opacity:0.79017859999999984;filter:url(#filter4082)"
       d="m 3.4471456,27.228738 c 3.996859,-0.707417 6.2517932,-3.505144 9.1923884,-5.480077 0.09508,-0.01358 -3.9488371,6.751304 -9.1923884,5.480077 z"
       id="path4058"
       transform="translate(0,1004.3622)"
       sodipodi:nodetypes="ccc" />
    <path
       style="color:#000000;fill:#ffffff;stroke:none;stroke-width:1px;stroke-linecap:butt;stroke-linejoin:miter;stroke-miterlimit:4;stroke-opacity:1;stroke-dasharray:none;stroke-dashoffset:0;marker:none;visibility:visible;display:inline;overflow:visible;enable-background:accumulate;fill-opacity:0.79017859999999984;filter:url(#filter4078)"
       d="m 27.223611,20.422835 c -2.465003,1.023376 -3.066834,6.258949 -3.005204,8.750447 -0.34798,-0.425308 -1.778063,-8.32109 3.005204,-8.750447 z"
       id="path4060"
       transform="translate(0,1004.3622)"
       sodipodi:nodetypes="ccc" />
    <path
       style="color:#000000;fill:#ffffff;stroke:none;stroke-width:1px;stroke-linecap:butt;stroke-linejoin:miter;stroke-miterlimit:4;stroke-opacity:1;stroke-dasharray:none;stroke-dashoffset:0;marker:none;visibility:visible;display:inline;overflow:visible;enable-background:accumulate;filter:url(#filter4110)"
       d="M 3.6239222,29.084893 C 3.8316888,31.046198 4.7130784,32.60333 6.098796,33.857864 4.387263,33.515557 3.1242952,31.194677 3.6239222,29.084893 z"
       id="path4086"
       transform="translate(0,1004.3622)"
       sodipodi:nodetypes="ccc" />
    <path
       style="color:#000000;fill:#ffffff;stroke:none;stroke-width:1px;stroke-linecap:butt;stroke-linejoin:miter;stroke-miterlimit:4;stroke-opacity:1;stroke-dasharray:none;stroke-dashoffset:0;marker:none;visibility:visible;display:inline;overflow:visible;enable-background:accumulate;filter:url(#filter4106)"
       d="M 38.802485,33.150758 41.7193,35.18369 c 0,0 -2.65165,0.08839 -2.916815,-2.032932 z"
       id="path4088"
       transform="translate(0,1004.3622)" />
  </g>
</svg>
