<?xml version="1.0" encoding="UTF-8" standalone="no"?>
<!-- Created with Inkscape (http://www.inkscape.org/) -->

<svg
   xmlns:dc="http://purl.org/dc/elements/1.1/"
   xmlns:cc="http://creativecommons.org/ns#"
   xmlns:rdf="http://www.w3.org/1999/02/22-rdf-syntax-ns#"
   xmlns:svg="http://www.w3.org/2000/svg"
   xmlns="http://www.w3.org/2000/svg"
   xmlns:xlink="http://www.w3.org/1999/xlink"
   xmlns:sodipodi="http://sodipodi.sourceforge.net/DTD/sodipodi-0.dtd"
   xmlns:inkscape="http://www.inkscape.org/namespaces/inkscape"
   id="svg1"
   sodipodi:version="0.32"
   inkscape:version="0.47 r22583"
   width="48"
   height="48"
   sodipodi:docname="xmas03.svg"
   version="1.1"
   inkscape:export-filename="winter01.png"
   inkscape:export-xdpi="89.949997"
   inkscape:export-ydpi="89.949997">
  <defs
     id="defs3">
    <linearGradient
       id="linearGradient2855">
      <stop
         id="stop2857"
         offset="0"
         style="stop-color:#286325;stop-opacity:1;" />
      <stop
         id="stop2859"
         offset="1"
         style="stop-color:#7ed249;stop-opacity:1;" />
    </linearGradient>
    <linearGradient
       inkscape:collect="always"
       xlink:href="#linearGradient2855"
       id="linearGradient2996"
       gradientUnits="userSpaceOnUse"
       gradientTransform="matrix(-0.08900404,0.24963504,0.32147722,0.13262521,-6.5530871,33.314554)"
       x1="-129.18098"
       y1="139.5079"
       x2="-76.630806"
       y2="42.506565" />
    <linearGradient
       inkscape:collect="always"
       xlink:href="#linearGradient2855"
       id="linearGradient2998"
       gradientUnits="userSpaceOnUse"
       gradientTransform="matrix(-0.08157332,0.22879368,0.35076134,0.14470635,-6.5530871,33.314554)"
       x1="-83.481506"
       y1="60.034298"
       x2="-124.58587"
       y2="111.26557" />
    <linearGradient
       inkscape:collect="always"
       xlink:href="#linearGradient2855"
       id="linearGradient3000"
       gradientUnits="userSpaceOnUse"
       gradientTransform="matrix(0.09690808,0.19285591,-0.24655631,0.1393506,44.975632,26.647446)"
       x1="-129.18098"
       y1="139.5079"
       x2="-76.630806"
       y2="42.506565" />
    <linearGradient
       inkscape:collect="always"
       xlink:href="#linearGradient2855"
       id="linearGradient3002"
       gradientUnits="userSpaceOnUse"
       gradientTransform="matrix(0.08881749,0.17675489,-0.26901569,0.15204438,44.975632,26.647446)"
       x1="-83.481506"
       y1="60.034298"
       x2="-124.58587"
       y2="111.26557" />
    <linearGradient
       id="linearGradient3613">
      <stop
         id="stop3615"
         offset="0"
         style="stop-color:#ff5959;stop-opacity:1;" />
      <stop
         id="stop3617"
         offset="1"
         style="stop-color:#d90000;stop-opacity:1;" />
    </linearGradient>
    <radialGradient
       inkscape:collect="always"
       xlink:href="#linearGradient3613"
       id="radialGradient3188"
       cx="-20.5"
       cy="5.25"
       fx="-20.5"
       fy="5.25"
       r="5.5"
       gradientUnits="userSpaceOnUse"
       gradientTransform="matrix(1.1818181,1.2727273,-0.73279354,0.68045105,7.5744374,27.768541)" />
    <radialGradient
       inkscape:collect="always"
       xlink:href="#linearGradient3613"
       id="radialGradient3192"
       gradientUnits="userSpaceOnUse"
       gradientTransform="matrix(1.1818181,1.2727273,-0.73279354,0.68045105,7.5744374,27.768541)"
       cx="-20.5"
       cy="5.25"
       fx="-20.5"
       fy="5.25"
       r="5.5" />
    <radialGradient
       inkscape:collect="always"
       xlink:href="#linearGradient3613"
       id="radialGradient3196"
       gradientUnits="userSpaceOnUse"
       gradientTransform="matrix(1.1818181,1.2727273,-0.73279354,0.68045105,7.5744374,27.768541)"
       cx="-20.5"
       cy="5.25"
       fx="-20.5"
       fy="5.25"
       r="5.5" />
    <filter
       inkscape:collect="always"
       id="filter4002"
       x="-0.16812171"
       width="1.3362434"
       y="-0.13433777"
       height="1.2686755">
      <feGaussianBlur
         inkscape:collect="always"
         stdDeviation="0.38482173"
         id="feGaussianBlur4004" />
    </filter>
    <filter
       inkscape:collect="always"
       id="filter4006"
       x="-0.16812171"
       width="1.3362434"
       y="-0.13433777"
       height="1.2686755">
      <feGaussianBlur
         inkscape:collect="always"
         stdDeviation="0.38482173"
         id="feGaussianBlur4008" />
    </filter>
    <filter
       inkscape:collect="always"
       id="filter4010"
       x="-0.16812171"
       width="1.3362434"
       y="-0.13433777"
       height="1.2686755">
      <feGaussianBlur
         inkscape:collect="always"
         stdDeviation="0.38482173"
         id="feGaussianBlur4012" />
    </filter>
    <filter
       inkscape:collect="always"
       id="filter4032">
      <feGaussianBlur
         inkscape:collect="always"
         stdDeviation="0.33301704"
         id="feGaussianBlur4034" />
    </filter>
    <filter
       inkscape:collect="always"
       id="filter4036"
       x="-0.18609776"
       width="1.3721955"
       y="-0.10785211"
       height="1.2157042">
      <feGaussianBlur
         inkscape:collect="always"
         stdDeviation="0.33301704"
         id="feGaussianBlur4038" />
    </filter>
    <filter
       inkscape:collect="always"
       id="filter4040"
       x="-0.30616088"
       width="1.6123218"
       y="-0.18251897"
       height="1.3650379">
      <feGaussianBlur
         inkscape:collect="always"
         stdDeviation="0.33301704"
         id="feGaussianBlur4042" />
    </filter>
    <filter
       inkscape:collect="always"
       id="filter3656"
       x="-0.078955356"
       width="1.1579107"
       y="-0.21422689"
       height="1.4284538">
      <feGaussianBlur
         inkscape:collect="always"
         stdDeviation="1.3025578"
         id="feGaussianBlur3658" />
    </filter>
  </defs>
  <sodipodi:namedview
     id="base"
     pagecolor="#ffffff"
     bordercolor="#666666"
     borderopacity="1.0"
     inkscape:pageopacity="0.0"
     inkscape:pageshadow="2"
     inkscape:zoom="1"
     inkscape:cx="24.465395"
     inkscape:cy="24"
     inkscape:window-width="1152"
     inkscape:window-height="793"
     inkscape:window-x="484"
     inkscape:window-y="24"
     showgrid="false"
     inkscape:window-maximized="0"
     inkscape:current-layer="svg1" />
  <metadata
     id="metadata4">
    <rdf:RDF>
      <cc:Work
         rdf:about="">
        <dc:format>image/svg+xml</dc:format>
        <dc:type
           rdf:resource="http://purl.org/dc/dcmitype/StillImage" />
        <dc:title />
      </cc:Work>
    </rdf:RDF>
  </metadata>
  <path
     style="fill:#000000;fill-opacity:0.76862744999999999;fill-rule:evenodd;stroke:none;filter:url(#filter3656)"
     d="M 13.90625,31.65625 14.625,32.3125 C 14.233698,32.282467 13.847562,32.25 13.4375,32.25 9.4679534,32.25 6.25,33.716581 6.25,35.5 c 0,1.783419 2.6436113,2.298026 3.75,7.6875 3.210732,-5.35585 10.625,-5.904081 10.625,-7.6875 0,-0.944034 -0.90622,-1.779053 -2.34375,-2.375 2.083657,-6.192471 7.178442,-2.096919 11.84375,0.53125 -0.58418,0.493227 -0.90625,1.058435 -0.90625,1.65625 0,1.952049 7.311697,2.050987 16.625,4.15625 C 45.136,37.363487 44.9375,37.264549 44.9375,35.3125 c 0,-1.952049 -3.498868,-3.53125 -7.84375,-3.53125 -2.777466,0 -5.22274,0.649477 -6.625,1.625 -9.416942,-8.88374 -11.893366,-2.981156 -16.5625,-1.75 z"
     id="path3200"
     sodipodi:nodetypes="ccsscsccscsscc" />
  <g
     id="g2988"
     transform="matrix(0.976912,-0.21364211,0.21364211,0.976912,-2.8387784,4.7597105)">
    <path
       sodipodi:nodetypes="ccccccc"
       id="path2980"
       d="m 22.789408,7.1115456 c -2.979168,3.6746674 -3.670592,10.7017204 1.184999,16.3633354 -4.793271,-1.936288 -10.298361,4.714464 -7.318065,9.445092 -5.263057,-1.67077 -12.1278788,7.075738 -12.1278788,7.075738 0,0 1.3993905,-13.621032 -3.63319062,-17.634151 C 4.5300547,21.19206 10.917383,16.697186 7.8174303,10.928142 12.000863,13.651519 17.148118,12.290815 22.789408,7.1115456 z"
       style="fill:url(#linearGradient3000);fill-opacity:1;fill-rule:evenodd;stroke:none" />
    <path
       sodipodi:nodetypes="ccccccc"
       id="path2982"
       d="m 19.306085,11.420842 c -1.039374,1.28202 -2.581953,3.213505 -4.234638,5.514717 -1.870351,2.604293 -3.881722,5.682117 -5.4643427,8.828017 -1.4535141,2.889266 -2.5453754,5.835954 -2.8341907,8.525958 1.6693333,-2.348848 3.2763724,-4.821664 4.7619264,-7.281868 1.892139,-3.133547 3.587193,-6.246634 4.962851,-9.057042 1.211872,-2.475803 2.175877,-4.716709 2.808394,-6.529782 z"
       style="fill:url(#linearGradient3002);fill-opacity:1;fill-rule:evenodd;stroke:none" />
  </g>
  <g
     id="g2992"
     transform="matrix(0.976912,-0.21364211,0.21364211,0.976912,-6.8304228,6.4003735)">
    <path
       style="fill:url(#linearGradient2996);fill-opacity:1;fill-rule:evenodd;stroke:none"
       d="m 17.536698,6.1612414 c 4.184745,4.0286456 6.08727,12.4876446 1.024143,20.1193956 5.549102,-3.0826 13.260887,4.191751 10.342599,10.40612 6.161641,-2.829897 15.846537,6.793283 15.846537,6.793283 0,0 -3.759884,-16.387752 1.767581,-22.037314 C 41.911742,20.565813 33.450033,16.051728 36.357503,8.5538783 31.670285,12.503653 25.192504,11.621873 17.536698,6.1612414 z"
       id="path6606"
       sodipodi:nodetypes="ccccccc" />
    <path
       style="fill:url(#linearGradient2998);fill-opacity:1;fill-rule:evenodd;stroke:none"
       d="m 22.431541,10.887211 c 1.459977,1.405516 3.631131,3.526579 5.992232,6.081592 2.672068,2.891518 5.587412,6.338821 7.990541,9.933752 2.207088,3.301667 3.982121,6.727859 4.73983,9.962381 -2.388573,-2.610548 -4.719934,-5.381565 -6.901348,-8.155537 -2.77845,-3.53319 -5.313644,-7.071176 -7.413961,-10.28849 -1.850252,-2.83426 -3.363018,-5.419662 -4.407294,-7.533698 z"
       id="path6607"
       sodipodi:nodetypes="ccccccc" />
  </g>
  <path
     sodipodi:type="arc"
     style="fill:url(#radialGradient3196);fill-opacity:1;fill-rule:evenodd;stroke:none"
     id="path3194"
     sodipodi:cx="-19.5"
     sodipodi:cy="6.75"
     sodipodi:rx="5.5"
     sodipodi:ry="5.5"
     d="m -14,6.75 a 5.5,5.5 0 1 1 -11,0 5.5,5.5 0 1 1 11,0 z"
     transform="matrix(0.89056436,-0.19475864,0.19475864,0.89056436,32.55988,4.3514265)" />
  <path
     sodipodi:nodetypes="ccc"
     id="path3986"
     d="m 17.625,9.625 c -3.548152,1.16757 -5.054925,3.541408 -4.9375,6.875 0,0 -3,-6.5 4.9375,-6.875 z"
     style="color:#000000;fill:#ffffff;stroke:none;stroke-width:1px;marker:none;visibility:visible;display:inline;overflow:visible;enable-background:accumulate;filter:url(#filter4002);fill-opacity:0.81069958" />
  <path
     sodipodi:type="arc"
     style="fill:url(#radialGradient3188);fill-opacity:1;fill-rule:evenodd;stroke:none"
     id="path3006"
     sodipodi:cx="-19.5"
     sodipodi:cy="6.75"
     sodipodi:rx="5.5"
     sodipodi:ry="5.5"
     d="m -14,6.75 a 5.5,5.5 0 1 1 -11,0 5.5,5.5 0 1 1 11,0 z"
     transform="matrix(0.976912,-0.21364211,0.21364211,0.976912,32.651996,9.737299)" />
  <path
     transform="matrix(0.976912,-0.21364211,0.21364211,0.976912,40.895533,7.301169)"
     d="m -14,6.75 a 5.5,5.5 0 1 1 -11,0 5.5,5.5 0 1 1 11,0 z"
     sodipodi:ry="5.5"
     sodipodi:rx="5.5"
     sodipodi:cy="6.75"
     sodipodi:cx="-19.5"
     id="path3190"
     style="fill:url(#radialGradient3192);fill-opacity:1;fill-rule:evenodd;stroke:none"
     sodipodi:type="arc" />
  <path
     style="color:#000000;fill:#ffffff;stroke:none;stroke-width:1px;stroke-linecap:butt;stroke-linejoin:miter;stroke-miterlimit:4;stroke-opacity:1;stroke-dasharray:none;stroke-dashoffset:0;marker:none;visibility:visible;display:inline;overflow:visible;enable-background:accumulate;filter:url(#filter4006);fill-opacity:0.81069958"
     d="m 15.8125,15.75 c -3.548152,1.16757 -5.054925,3.541408 -4.9375,6.875 0,0 -3,-6.5 4.9375,-6.875 z"
     id="path3984"
     sodipodi:nodetypes="ccc" />
  <path
     style="color:#000000;fill:#ffffff;stroke:none;stroke-width:1px;marker:none;visibility:visible;display:inline;overflow:visible;enable-background:accumulate;filter:url(#filter4010);fill-opacity:0.81069958"
     d="m 24,13.1875 c -3.548152,1.16757 -5.054925,3.541408 -4.9375,6.875 0,0 -3,-6.5 4.9375,-6.875 z"
     id="path3988"
     sodipodi:nodetypes="ccc" />
  <path
     style="color:#000000;fill:#ffffff;stroke:none;stroke-width:1px;stroke-linecap:butt;stroke-linejoin:miter;stroke-miterlimit:4;stroke-opacity:1;stroke-dasharray:none;stroke-dashoffset:0;marker:none;visibility:visible;display:inline;overflow:visible;enable-background:accumulate;fill-opacity:0.67901236;filter:url(#filter4032)"
     d="M 25.010526,11.789474 29.221053,9.5157895 C 28.72248,12.576448 34.402837,16.928342 41.515789,18.442105 42.449952,18.640912 26.192344,15.422987 25.010526,11.789474 z"
     id="path4014"
     sodipodi:nodetypes="ccsc" />
  <path
     style="color:#000000;fill:#ffffff;stroke:none;stroke-width:1px;stroke-linecap:butt;stroke-linejoin:miter;stroke-miterlimit:4;stroke-opacity:1;stroke-dasharray:none;stroke-dashoffset:0;marker:none;visibility:visible;display:inline;overflow:visible;enable-background:accumulate;fill-opacity:0.67901236;filter:url(#filter4036)"
     d="M 4.2105264,26.357895 C 5.8138061,25.925171 7.1068513,23.941274 8.5052632,22.484211 7.3933999,24.868035 6.5765969,27.288742 7.2421053,29.894737 6.4842605,28.589449 5.8334172,27.23066 4.2105264,26.357895 z"
     id="path4016"
     sodipodi:nodetypes="cccc" />
  <path
     style="color:#000000;fill:#ffffff;stroke:none;stroke-width:1px;stroke-linecap:butt;stroke-linejoin:miter;stroke-miterlimit:4;stroke-opacity:1;stroke-dasharray:none;stroke-dashoffset:0;marker:none;visibility:visible;display:inline;overflow:visible;enable-background:accumulate;fill-opacity:0.67901236;filter:url(#filter4040)"
     d="m 8.3368421,14.568421 c 0.8777481,1.232059 1.1713326,2.697782 0.9263158,4.378947 0.5248402,-1.40941 0.9531331,-3.205011 1.6842101,-3.789473 -0.986247,0.151724 -1.8487867,-0.06767 -2.6105259,-0.589474 z"
     id="path4018"
     sodipodi:nodetypes="cccc" />
</svg>
